<?xml version="1.0" standalone="yes"?>
<svg width="87" height="97">
<path style="fill:#fdfdfd" d="M87 0 L87 97 L0 97 L0 0 L87 0 z"/>
<path style="fill:#7d7d7d" d="M50 16 L37 16 C39.97 14.34 47.03 14.34 50 16 z"/>
<path style="fill:#a3a3a3" d="M35 16 C35.15 17.18 33.66 17.02 33 17 C32.85 15.82 34.34 15.98 35 16 z"/>
<path style="fill:#080909" d="M37 16 L50 16 L52 16 C51.85 17.18 53.34 17.02 54 17 C53.85 18.18 55.34 18.02 56 18 L57 18 C56.85 19.18 58.34 19.02 59 19 L60 20 L61 20 L62 21 L63 22 L65 23 L66 24 L67 25 L68 26 L69 27 L70 29 L71 30 L72 31 L74 36 C73.98 36.66 73.82 38.15 75 38 L75 40 L75 54 L75 56 L75 57 C73.82 56.85 73.98 58.34 74 59 L74 60 L73 61 L73 62 L72 63 L72 64 L71 65 L70 67 L69 68 L68 69 L67 70 L66 71 L65 72 L64 73 L62 74 L61 75 L57 77 C56.34 76.98 54.85 76.82 55 78 L54 78 C53.34 77.98 51.85 77.82 52 79 L51 79 L36 79 L35 79 C35.15 77.82 33.66 77.98 33 78 L32 78 C32.15 76.82 30.66 76.98 30 77 L29 77 L28 76 L26 75 L25 74 L24 74 L23 73 L22 72 L20 70 L19 69 L18 68 L17 67 L16 66 L16 65 L15 64 L13 60 C13.02 59.34 13.18 57.85 12 58 L12 56 C12.02 55.34 12.18 53.85 11 54 L11 52 L11 42 L11 40 C12.18 40.15 12.02 38.66 12 38 C13.18 38.15 13.02 36.66 13 36 L15 31 L16 30 L17 28 L18 27 L19 26 L20 25 L21 24 L22 23 L23 22 L25 21 L26 20 L27 20 L28 19 L31 18 C31.66 18.02 33.15 18.18 33 17 C33.66 17.02 35.15 17.18 35 16 L37 16 z"/>
<path style="fill:#abacac" d="M54 17 C53.34 17.02 51.85 17.18 52 16 C52.66 15.98 54.15 15.82 54 17 z"/>
<path style="fill:#5d5d5d" d="M33 17 C33.15 18.18 31.66 18.02 31 18 C30.85 16.82 32.34 16.98 33 17 z"/>
<path style="fill:#6d6e6e" d="M56 18 C55.34 18.02 53.85 18.18 54 17 C54.66 16.98 56.15 16.82 56 18 z"/>
<path style="fill:#a6a6a6" d="M59 19 C58.34 19.02 56.85 19.18 57 18 C57.66 17.98 59.15 17.82 59 19 z"/>
<path style="fill:#606060" d="M28 19 L27 20 L28 19 z"/>
<path style="fill:#808080" d="M60 20 L59 19 L60 20 z"/>
<path style="fill:#7c7c7c" d="M26 20 L25 21 L26 20 z"/>
<path style="fill:#a0a0a0" d="M62 21 L61 20 L62 21 z"/>
<path style="fill:#898989" d="M47 22 L39 22 C40.34 20.35 45.66 20.35 47 22 z"/>
<path style="fill:#5d5d5d" d="M63 22 L62 21 L63 22 z"/>
<path style="fill:#9e9e9e" d="M23 22 L22 23 L23 22 z"/>
<path style="fill:#989999" d="M37 22 C37.15 23.18 35.66 23.02 35 23 C34.85 21.82 36.34 21.98 37 22 z"/>
<path style="fill:#f8f8f8" d="M39 22 L47 22 L50 22 C49.85 23.18 51.34 23.02 52 23 L53 23 C52.85 24.18 54.34 24.02 55 24 L57 25 L58 26 L59 26 L60 27 L61 28 L63 30 L64 31 L65 32 L66 33 L66 34 L67 35 L68 38 C67.98 38.66 67.82 40.15 69 40 L69 41 L70 45 L70 49 L69 49 L68 47 L67 46 L66 45 L65 44 L63 43 L62 42 L58 41 C58.15 39.82 56.66 39.98 56 40 L53 40 L53 38 L53 37 C53.02 36.34 53.18 34.85 52 35 L52 34 L51 33 L50 32 L49 31 L46 30 C45.55 28.4 41.45 28.4 41 30 L40 30 L39 31 L36 34 C35.05 34.19 33.06 33.41 33 35 L33 38 L33 39 L30 39 C29.34 38.98 27.85 38.82 28 40 L23 42 L22 43 L21 44 L20 45 C15.05 47.58 21.57 48.79 23 46 L24 46 L34 47 L33 50 L32 51 L32 52 C30.38 52.73 30.38 57.27 32 58 L32 60 L33 61 L33 62 L34 63 L35 64 L36 64 L37 65 L40 66 C40.73 67.62 45.27 67.62 46 66 L47 66 L48 65 L52 61 L53 60 L53 59 L54 58 L54 57 C55.62 56.27 55.62 51.73 54 51 L53 50 L53 49 L53 47 L54 47 L62 47 L66 48 L67 49 L68 49 C69.36 50.7 68.98 52.91 69 55 L69 56 C67.82 55.85 67.98 57.34 68 58 L66 62 L65 63 L60 68 L59 69 L57 70 L56 71 L55 71 L54 72 L53 72 C52.34 71.98 50.85 71.82 51 73 L48 73 L39 73 L37 73 L36 73 C36.15 71.82 34.66 71.98 34 72 L29 70 L28 69 L27 68 L22 63 L21 62 L18 56 C18.02 55.34 18.18 53.85 17 54 L17 52 L17 45 L18 40 L18 39 C19.18 39.15 19.02 37.66 19 37 L21 33 L22 32 L23 31 L26 28 L27 27 L28 26 L30 25 L31 24 L32 24 C32.66 24.02 34.15 24.18 34 23 L35 23 C35.66 23.02 37.15 23.18 37 22 L39 22 z"/>
<path style="fill:#919292" d="M52 23 C51.34 23.02 49.85 23.18 50 22 C50.66 21.98 52.15 21.82 52 23 z"/>
<path style="fill:#848484" d="M22 23 L21 24 L22 23 z"/>
<path style="fill:#838484" d="M34 23 C34.15 24.18 32.66 24.02 32 24 C31.85 22.82 33.34 22.98 34 23 z"/>
<path style="fill:#777777" d="M55 24 C54.34 24.02 52.85 24.18 53 23 C53.66 22.98 55.15 22.82 55 24 z"/>
<path style="fill:#a5a5a5" d="M66 24 L65 23 L66 24 z"/>
<path style="fill:#717171" d="M21 24 L20 25 L21 24 z"/>
<path style="fill:#656565" d="M31 24 L30 25 L31 24 z"/>
<path style="fill:#8b8b8b" d="M67 25 L66 24 L67 25 z"/>
<path style="fill:#6f6f6f" d="M20 25 L19 26 L20 25 z"/>
<path style="fill:#a4a4a4" d="M58 26 L57 25 L58 26 z"/>
<path style="fill:#818181" d="M68 26 L67 25 L68 26 z"/>
<path style="fill:#818181" d="M19 26 L18 27 L19 26 z"/>
<path style="fill:#818181" d="M28 26 L27 27 L28 26 z"/>
<path style="fill:#6c6c6c" d="M60 27 L59 26 L60 27 z"/>
<path style="fill:#9d9d9d" d="M69 27 L68 26 L69 27 z"/>
<path style="fill:#8f8f8f" d="M18 27 L17 28 L18 27 z"/>
<path style="fill:#9c9c9c" d="M27 27 L26 28 L27 27 z"/>
<path style="fill:#8d8d8d" d="M61 28 L60 27 L61 28 z"/>
<path style="fill:#848484" d="M46 30 L41 30 C41.45 28.4 45.55 28.4 46 30 z"/>
<path style="fill:#606060" d="M71 30 L70 29 L71 30 z"/>
<path style="fill:#858585" d="M16 30 L15 31 L16 30 z"/>
<path style="fill:#797979" d="M40 30 L40 31 L39 31 L40 30 z"/>
<path style="fill:#101010" d="M41 30 L46 30 L49 31 L50 32 L51 33 L52 34 L52 35 C51.98 35.66 51.82 37.15 53 37 L53 38 L44 39 L41 39 C38.67 37.78 36.41 37.56 36 34 L39 31 L40 31 C39.98 31.66 39.82 33.15 41 33 C39.38 40.36 48.57 30.66 43 33 L43 32 C42.94 30.41 40.95 31.19 40 31 L40 30 L41 30 z"/>
<path style="fill:#a0a0a0" d="M64 31 L63 30 L64 31 z"/>
<path style="fill:#a4a4a4" d="M72 31 L71 30 L72 31 z"/>
<path style="fill:#a3a3a3" d="M23 31 L22 32 L23 31 z"/>
<path style="fill:#909191" d="M43 32 C42.34 31.98 40.85 31.82 41 33 C39.82 33.15 39.98 31.66 40 31 C40.95 31.19 42.94 30.41 43 32 z"/>
<path style="fill:#868686" d="M50 32 L49 31 L50 32 z"/>
<path style="fill:#858585" d="M65 32 L64 31 L65 32 z"/>
<path style="fill:#808080" d="M22 32 L21 33 L22 32 z"/>
<path style="fill:#e4e5e5" d="M43 32 L43 33 L41 33 C40.85 31.82 42.34 31.98 43 32 z"/>
<path style="fill:#747474" d="M41 33 L43 33 C48.57 30.66 39.38 40.36 41 33 z"/>
<path style="fill:#6b6b6b" d="M51 33 L50 32 L51 33 z"/>
<path style="fill:#666666" d="M66 33 L65 32 L66 33 z"/>
<path style="fill:#979797" d="M52 34 L51 33 L52 34 z"/>
<path style="fill:#bdbdbd" d="M36 34 C36.41 37.56 38.67 37.78 41 39 L39 39 L33 39 L33 38 C35.73 39.07 35.73 33.93 33 35 C33.06 33.41 35.05 34.19 36 34 z"/>
<path style="fill:#9b9b9b" d="M67 35 L66 34 L67 35 z"/>
<path style="fill:#6f7070" d="M33 38 L33 35 C35.73 33.93 35.73 39.07 33 38 z"/>
<path style="fill:#727373" d="M53 37 C51.82 37.15 51.98 35.66 52 35 C53.18 34.85 53.02 36.34 53 37 z"/>
<path style="fill:#616262" d="M13 36 C13.02 36.66 13.18 38.15 12 38 C11.98 37.34 11.82 35.85 13 36 z"/>
<path style="fill:#7b7c7c" d="M75 38 C73.82 38.15 73.98 36.66 74 36 C75.18 35.85 75.02 37.34 75 38 z"/>
<path style="fill:#7d7d7d" d="M19 37 C19.02 37.66 19.18 39.15 18 39 C17.98 38.34 17.82 36.85 19 37 z"/>
<path style="fill:#a8a8a8" d="M12 38 C12.02 38.66 12.18 40.15 11 40 C10.98 39.34 10.82 37.85 12 38 z"/>
<path style="fill:#616262" d="M53 38 L53 40 C50.31 40.23 47.26 39.29 45 41 L44 39 L53 38 z"/>
<path style="fill:#a8a8a8" d="M69 40 C67.82 40.15 67.98 38.66 68 38 C69.18 37.85 69.02 39.34 69 40 z"/>
<path style="fill:#969797" d="M30 39 C30.15 40.18 28.66 40.02 28 40 C27.85 38.82 29.34 38.98 30 39 z"/>
<path style="fill:#0a0b0b" d="M33 39 L39 39 C43.42 41.37 35.74 42.07 35 45 L24 46 L23 46 C22.05 45.81 20.06 46.59 20 45 L21 44 L22 43 L23 42 L28 40 C28.66 40.02 30.15 40.18 30 39 L33 39 z"/>
<path style="fill:#747474" d="M41 39 L44 39 L45 41 C40.93 40.68 38.3 44.33 35 46 L35 45 C35.74 42.07 43.42 41.37 39 39 L41 39 z"/>
<path style="fill:#b6b6b6" d="M18 40 L17 45 L18 40 z"/>
<path style="fill:#060606" d="M53 40 L56 40 C55.85 41.18 57.34 41.02 58 41 L62 42 L63 43 L65 44 L66 45 L67 46 L68 47 L69 49 L68 49 L67 49 L66 48 L62 47 C60.66 45.35 55.34 45.35 54 47 L53 47 C49.19 46.77 44.94 48.66 43 52 C41.15 52.38 41.52 56.99 44 56 L45 55 L45 53 C45.01 49.15 50.04 48.72 53 49 L53 50 L54 51 L54 57 L54 58 L53 59 L53 60 L52 61 L48 65 L47 66 L46 66 L40 66 L37 65 L36 64 L35 64 L34 63 L33 62 L33 61 L32 60 L32 58 L32 52 L32 51 L33 50 L34 47 L35 46 C38.3 44.33 40.93 40.68 45 41 C47.26 39.29 50.31 40.23 53 40 z"/>
<path style="fill:#898989" d="M58 41 C57.34 41.02 55.85 41.18 56 40 C56.66 39.98 58.15 39.82 58 41 z"/>
<path style="fill:#272727" d="M76 42 L76 53 L76 54 L75 54 L75 40 C76.18 39.85 76.02 41.34 76 42 z"/>
<path style="fill:#b0b1b1" d="M70 45 L69 41 L70 45 z"/>
<path style="fill:#8f9090" d="M11 42 L11 52 C9.345 50.01 9.345 43.99 11 42 z"/>
<path style="fill:#949494" d="M23 42 L22 43 L23 42 z"/>
<path style="fill:#8b8b8b" d="M63 43 L62 42 L63 43 z"/>
<path style="fill:#c3c4c4" d="M76 53 L76 42 C77.66 44.31 77.66 50.69 76 53 z"/>
<path style="fill:#6f6f6f" d="M22 43 L21 44 L22 43 z"/>
<path style="fill:#636363" d="M21 44 L20 45 L21 44 z"/>
<path style="fill:#9a9a9a" d="M66 45 L65 44 L66 45 z"/>
<path style="fill:#565656" d="M17 45 L17 52 C15.36 50.97 15.36 46.03 17 45 z"/>
<path style="fill:#5e5f5f" d="M20 45 C20.06 46.59 22.05 45.81 23 46 C21.57 48.79 15.05 47.58 20 45 z"/>
<path style="fill:#909090" d="M35 45 L35 46 L34 47 L24 46 L35 45 z"/>
<path style="fill:#9f9f9f" d="M67 46 L66 45 L67 46 z"/>
<path style="fill:#484848" d="M70 51 L70 49 L70 45 C71.62 45.73 71.62 50.27 70 51 z"/>
<path style="fill:#6e6e6e" d="M62 47 L54 47 C55.34 45.35 60.66 45.35 62 47 z"/>
<path style="fill:#8a8a8a" d="M68 47 L67 46 L68 47 z"/>
<path style="fill:#777777" d="M53 47 L53 49 C50.04 48.72 45.01 49.15 45 53 L43 52 C44.94 48.66 49.19 46.77 53 47 z"/>
<path style="fill:#9b9b9b" d="M67 49 L66 48 L67 49 z"/>
<path style="fill:#999a9a" d="M69 49 L70 49 L70 51 L69 55 C68.98 52.91 69.36 50.7 68 49 L69 49 z"/>
<path style="fill:#5b5b5b" d="M33 50 L32 51 L33 50 z"/>
<path style="fill:#5e5e5e" d="M54 51 L53 50 L54 51 z"/>
<path style="fill:#999a9a" d="M54 57 L54 51 C55.62 51.73 55.62 56.27 54 57 z"/>
<path style="fill:#7b7b7b" d="M32 52 L32 58 C30.38 57.27 30.38 52.73 32 52 z"/>
<path style="fill:#d6d6d6" d="M43 52 L45 53 L45 55 L44 56 C41.52 56.99 41.15 52.38 43 52 z"/>
<path style="fill:#717272" d="M12 56 C10.82 56.15 10.98 54.66 11 54 C12.18 53.85 12.02 55.34 12 56 z"/>
<path style="fill:#5a5b5b" d="M18 56 C16.82 56.15 16.98 54.66 17 54 C18.18 53.85 18.02 55.34 18 56 z"/>
<path style="fill:#838484" d="M76 54 C76.02 54.66 76.18 56.15 75 56 L75 54 L76 54 z"/>
<path style="fill:#707070" d="M45 55 L44 56 L45 55 z"/>
<path style="fill:#727373" d="M69 56 C69.02 56.66 69.18 58.15 68 58 C67.98 57.34 67.82 55.85 69 56 z"/>
<path style="fill:#6b6b6b" d="M75 57 C75.02 57.66 75.18 59.15 74 59 C73.98 58.34 73.82 56.85 75 57 z"/>
<path style="fill:#939494" d="M13 60 C11.82 60.15 11.98 58.66 12 58 C13.18 57.85 13.02 59.34 13 60 z"/>
<path style="fill:#636363" d="M54 58 L53 59 L54 58 z"/>
<path style="fill:#7a7a7a" d="M33 61 L32 60 L33 61 z"/>
<path style="fill:#737373" d="M53 60 L52 61 L53 60 z"/>
<path style="fill:#6b6b6b" d="M74 60 L73 61 L74 60 z"/>
<path style="fill:#959595" d="M22 63 L21 62 L22 63 z"/>
<path style="fill:#9f9f9f" d="M34 63 L33 62 L34 63 z"/>
<path style="fill:#7e7e7e" d="M66 62 L65 63 L66 62 z"/>
<path style="fill:#707070" d="M73 62 L72 63 L73 62 z"/>
<path style="fill:#9f9f9f" d="M35 64 L34 63 L35 64 z"/>
<path style="fill:#696969" d="M16 65 L15 64 L16 65 z"/>
<path style="fill:#6c6c6c" d="M37 65 L36 64 L37 65 z"/>
<path style="fill:#898989" d="M72 64 L71 65 L72 64 z"/>
<path style="fill:#888888" d="M48 65 L47 66 L48 65 z"/>
<path style="fill:#a1a1a1" d="M17 67 L16 66 L17 67 z"/>
<path style="fill:#9e9e9e" d="M46 66 C45.27 67.62 40.73 67.62 40 66 L46 66 z"/>
<path style="fill:#6e6e6e" d="M18 68 L17 67 L18 68 z"/>
<path style="fill:#959595" d="M70 67 L69 68 L70 67 z"/>
<path style="fill:#646464" d="M19 69 L18 68 L19 69 z"/>
<path style="fill:#a0a0a0" d="M28 69 L27 68 L28 69 z"/>
<path style="fill:#848484" d="M60 68 L59 69 L60 68 z"/>
<path style="fill:#7d7d7d" d="M69 68 L68 69 L69 68 z"/>
<path style="fill:#646464" d="M20 70 L19 69 L20 70 z"/>
<path style="fill:#686868" d="M29 70 L28 69 L29 70 z"/>
<path style="fill:#767676" d="M68 69 L67 70 L68 69 z"/>
<path style="fill:#858585" d="M57 70 L56 71 L57 70 z"/>
<path style="fill:#737373" d="M67 70 L66 71 L67 70 z"/>
<path style="fill:#878787" d="M55 71 L54 72 L55 71 z"/>
<path style="fill:#797979" d="M66 71 L65 72 L66 71 z"/>
<path style="fill:#858585" d="M23 73 L22 72 L23 73 z"/>
<path style="fill:#8f8f8f" d="M36 73 C35.34 73.02 33.85 73.18 34 72 C34.66 71.98 36.15 71.82 36 73 z"/>
<path style="fill:#818282" d="M53 72 C53.15 73.18 51.66 73.02 51 73 C50.85 71.82 52.34 71.98 53 72 z"/>
<path style="fill:#979797" d="M65 72 L64 73 L65 72 z"/>
<path style="fill:#aaaaaa" d="M24 74 L23 73 L24 74 z"/>
<path style="fill:#5a5a5a" d="M39 73 L39 74 C38.34 74.02 36.85 74.18 37 73 L39 73 z"/>
<path style="fill:#b6b6b6" d="M48 73 L39 74 L39 73 L48 73 z"/>
<path style="fill:#636363" d="M26 75 L25 74 L26 75 z"/>
<path style="fill:#737373" d="M62 74 L61 75 L62 74 z"/>
<path style="fill:#9f9f9f" d="M29 77 L28 76 L29 77 z"/>
<path style="fill:#7a7a7a" d="M32 78 C31.34 78.02 29.85 78.18 30 77 C30.66 76.98 32.15 76.82 32 78 z"/>
<path style="fill:#898989" d="M57 77 C57.15 78.18 55.66 78.02 55 78 C54.85 76.82 56.34 76.98 57 77 z"/>
<path style="fill:#757676" d="M35 79 C34.34 79.02 32.85 79.18 33 78 C33.66 77.98 35.15 77.82 35 79 z"/>
<path style="fill:#808181" d="M54 78 C54.15 79.18 52.66 79.02 52 79 C51.85 77.82 53.34 77.98 54 78 z"/>
<path style="fill:#767777" d="M51 79 C47.37 80.66 39.63 80.66 36 79 L51 79 z"/>
</svg>
