<?xml version="1.0" standalone="yes"?>
<svg width="87" height="97">
<path style="fill:#fdfdfd" d="M87 0 L87 97 L0 97 L0 0 L87 0 z"/>
<path style="fill:#a8a8a8" d="M45 17 L41 17 C41.19 15.45 44.81 15.45 45 17 z"/>
<path style="fill:#a0a1a1" d="M37 17 C37.15 18.18 35.66 18.02 35 18 C34.85 16.82 36.34 16.98 37 17 z"/>
<path style="fill:#060707" d="M41 17 L45 17 L53 18 C52.85 19.18 54.34 19.02 55 19 L56 19 L57 20 L58 21 L59 22 L59 27 C57.82 26.85 57.98 28.34 58 29 C51.77 31.01 39.87 22.16 33 30 L31 31 L28 27 L28 26 L28 23 L28 22 L29 21 L30 20 L31 19 L32 19 C32.66 19.02 34.15 19.18 34 18 L35 18 C35.66 18.02 37.15 18.18 37 17 L41 17 z"/>
<path style="fill:#838383" d="M34 18 C34.15 19.18 32.66 19.02 32 19 C31.85 17.82 33.34 17.98 34 18 z"/>
<path style="fill:#8e8f8f" d="M55 19 C54.34 19.02 52.85 19.18 53 18 C53.66 17.98 55.15 17.82 55 19 z"/>
<path style="fill:#838383" d="M31 19 L30 20 L31 19 z"/>
<path style="fill:#949494" d="M57 20 L56 19 L57 20 z"/>
<path style="fill:#787878" d="M30 20 L29 21 L30 20 z"/>
<path style="fill:#7d7d7d" d="M58 21 L57 20 L58 21 z"/>
<path style="fill:#797979" d="M29 21 L28 22 L29 21 z"/>
<path style="fill:#979797" d="M59 22 L58 21 L59 22 z"/>
<path style="fill:#8a8a8a" d="M28 23 L28 26 C26.52 26.04 26.52 22.96 28 23 z"/>
<path style="fill:#4c4c4c" d="M26 27 L21 27 C21.45 25.4 25.55 25.4 26 27 z"/>
<path style="fill:#050606" d="M64 26 C63.85 27.18 65.34 27.02 66 27 L68 28 L69 29 L70 31 L71 32 L71 33 L72 34 L74 40 C73.98 40.66 73.82 42.15 75 42 L75 43 L75 53 L75 54 L74 55 L73 56 L72 56 L64 55 L64 54 C66.6 52.15 66.9 46.17 65 44 C64.86 40.6 63.1 36.71 60 35 L58 29 L60 27 L64 26 z"/>
<path style="fill:#555555" d="M66 27 C65.34 27.02 63.85 27.18 64 26 C64.66 25.98 66.15 25.82 66 27 z"/>
<path style="fill:#7c7c7c" d="M20 27 L19 28 L20 27 z"/>
<path style="fill:#050606" d="M21 27 L26 27 L28 28 L30 32 C28.42 32.93 25.49 33.44 26 36 C24.71 36.26 23.67 37.66 24 39 C20.67 42.98 20.23 49.94 22 55 C19.74 56.71 16.69 55.77 14 56 L13 55 L12 54 L12 53 C12.02 52.34 12.18 50.85 11 51 L11 47 L12 43 L12 41 C13.18 41.15 13.02 39.66 13 39 L13 37 L14 36 L14 35 L15 34 L16 32 L17 31 L17 30 L18 29 L19 28 L20 27 L21 27 z"/>
<path style="fill:#6c6d6d" d="M31 31 L30 32 L28 28 L28 27 L31 31 z"/>
<path style="fill:#818181" d="M58 29 L60 35 C57.91 34.77 55.93 33.07 54 35 L53 35 C55.41 25.91 38.23 26.43 33 31 L33 30 C39.87 22.16 51.77 31.01 58 29 z"/>
<path style="fill:#9b9b9b" d="M59 27 L60 27 L58 29 C57.98 28.34 57.82 26.85 59 27 z"/>
<path style="fill:#6f6f6f" d="M19 28 L18 29 L19 28 z"/>
<path style="fill:#101010" d="M53 35 L50 31 L49 31 L48 30 L45 30 C44.81 28.45 41.19 28.45 41 30 L39 30 C38.34 29.98 36.85 29.82 37 31 C35.41 31.06 36.19 33.05 36 34 L35 34 C33.65 34.46 32.54 33.35 33 32 L33 31 C38.23 26.43 55.41 25.91 53 35 z"/>
<path style="fill:#a3a3a3" d="M69 29 L68 28 L69 29 z"/>
<path style="fill:#a9a9a9" d="M18 29 L17 30 L18 29 z"/>
<path style="fill:#979797" d="M45 30 L44 31 L42 31 L41 30 C41.19 28.45 44.81 28.45 45 30 z"/>
<path style="fill:#c0c0c0" d="M33 30 L33 31 L33 32 C32.1 32.32 30.27 34.02 30 32 L31 31 L33 30 z"/>
<path style="fill:#868686" d="M39 30 C39.15 31.18 37.66 31.02 37 31 C36.85 29.82 38.34 29.98 39 30 z"/>
<path style="fill:#eaeaea" d="M41 30 L42 31 L41 32 L40 33 L37 34 L36 34 C36.19 33.05 35.41 31.06 37 31 C37.66 31.02 39.15 31.18 39 30 L41 30 z"/>
<path style="fill:#f4f4f4" d="M45 30 L48 30 L49 31 L50 31 C50.02 31.66 50.18 33.15 49 33 L48 33 L47 33 L46 32 L45 31 L44 31 L45 30 z"/>
<path style="fill:#9d9d9d" d="M49 31 L48 30 L49 31 z"/>
<path style="fill:#676767" d="M17 31 L16 32 L17 31 z"/>
<path style="fill:#080909" d="M42 31 L44 31 L45 31 L46 32 L47 33 L48 33 L49 34 C52.31 34.82 50.32 37.99 50 40 C48.54 40.67 46.67 42.15 47 44 C45.16 45.34 43.67 46.74 43.75 43.25 C42.17 49.07 40.06 41.1 37 40 C36.77 37.91 35.07 35.93 37 34 L40 33 L41 32 L42 31 z"/>
<path style="fill:#767676" d="M46 32 L45 31 L46 32 z"/>
<path style="fill:#d2d2d2" d="M53 35 L54 35 L54 36 L55 37 C59.42 34.62 61.76 41.51 62 45 L61 45 C59.58 40.94 54.19 35.17 50 40 C50.32 37.99 52.31 34.82 49 34 L49 33 C50.18 33.15 50.02 31.66 50 31 L53 35 z"/>
<path style="fill:#808080" d="M71 32 L70 31 L71 32 z"/>
<path style="fill:#787979" d="M30 32 C30.27 34.02 32.1 32.32 33 32 C32.54 33.35 33.65 34.46 35 34 C35.15 35.18 33.66 35.02 33 35 C30.69 33 27.91 34.26 26 36 C25.49 33.44 28.42 32.93 30 32 z"/>
<path style="fill:#717171" d="M41 32 L40 33 L41 32 z"/>
<path style="fill:#999999" d="M47 33 L46 32 L47 33 z"/>
<path style="fill:#6a6a6a" d="M49 33 L49 34 L48 33 L49 33 z"/>
<path style="fill:#5d5d5d" d="M72 34 L71 33 L72 34 z"/>
<path style="fill:#999999" d="M15 34 L14 35 L15 34 z"/>
<path style="fill:#0e0f0f" d="M33 35 L31 37 C29.39 35.25 27.67 37.46 27 39 L26 40 L26 41 L25 42 L25 44 C23.36 45.03 23.36 49.97 25 51 L26 51 L27 52 L27 54 L24 54 C20.6 49.23 23.52 44.18 24 39 C25.29 38.74 26.33 37.34 26 36 C27.91 34.26 30.69 33 33 35 z"/>
<path style="fill:#c9caca" d="M36 34 L37 34 C35.07 35.93 36.77 37.91 37 40 C35.21 38.69 33.5 37.35 31 38 L31 37 L33 35 C33.66 35.02 35.15 35.18 35 34 L36 34 z"/>
<path style="fill:#101111" d="M60 35 L64 45 C63.69 48 64.82 51.44 63 54 L60 54 L60 51 L62 51 C63.62 50.27 63.62 45.73 62 45 C61.76 41.51 59.42 34.62 55 37 L54 36 L54 35 C55.93 33.07 57.91 34.77 60 35 z"/>
<path style="fill:#898a8a" d="M65 44 L64 45 L60 35 C63.1 36.71 64.86 40.6 65 44 z"/>
<path style="fill:#a5a5a5" d="M14 36 L13 37 L14 36 z"/>
<path style="fill:#8b8b8b" d="M26 36 C26.33 37.34 25.29 38.74 24 39 C23.67 37.66 24.71 36.26 26 36 z"/>
<path style="fill:#e7e8e8" d="M31 37 L31 38 L30 40 L29 41 L28 41 L27 42 L26 42 L26 41 L26 40 L27 39 C27.67 37.46 29.39 35.25 31 37 z"/>
<path style="fill:#7e7e7e" d="M55 37 L54 36 L55 37 z"/>
<path style="fill:#090909" d="M37 40 L40.75 46.75 C35 47.47 39.36 46.95 40 50 L29 52 L27 51 L26 43 L27 42 L28 41 L29 41 L30 40 L31 38 C33.5 37.35 35.21 38.69 37 40 z"/>
<path style="fill:#080909" d="M61 45 L60 47 L59 51 L58 52 C54.75 52.16 44.2 50.54 48.75 47.25 C45.7 47.3 46.51 46.2 47 44 C48.46 43.33 50.33 41.85 50 40 C54.19 35.17 59.58 40.94 61 45 z"/>
<path style="fill:#767676" d="M13 39 C13.02 39.66 13.18 41.15 12 41 C11.98 40.34 11.82 38.85 13 39 z"/>
<path style="fill:#787979" d="M24 39 C23.52 44.18 20.6 49.23 24 54 L22 55 C20.23 49.94 20.67 42.98 24 39 z"/>
<path style="fill:#6e6e6e" d="M27 39 L26 40 L27 39 z"/>
<path style="fill:#7f7f7f" d="M30 40 L29 41 L30 40 z"/>
<path style="fill:#797979" d="M47 44 C46.51 46.2 45.7 47.3 48.75 47.25 C44.2 50.54 54.75 52.16 58 52 L56 54 C53.14 53.39 45.09 48.17 46.75 53.75 L44 52 L43 52 L42 53 C38.14 55.44 42.37 50.49 40 50 C39.36 46.95 35 47.47 40.75 46.75 L37 40 C40.06 41.1 42.17 49.07 43.75 43.25 C43.67 46.74 45.16 45.34 47 44 z"/>
<path style="fill:#7e7f7f" d="M50 40 C50.33 41.85 48.46 43.33 47 44 C46.67 42.15 48.54 40.67 50 40 z"/>
<path style="fill:#6a6a6a" d="M75 42 C73.82 42.15 73.98 40.66 74 40 C75.18 39.85 75.02 41.34 75 42 z"/>
<path style="fill:#6f6f6f" d="M26 41 L26 42 L25 42 L26 41 z"/>
<path style="fill:#838383" d="M28 41 L27 42 L28 41 z"/>
<path style="fill:#eeeeee" d="M26 42 L26 43 L27 51 L26 51 L25 51 L25 44 L25 42 L26 42 z"/>
<path style="fill:#8c8c8c" d="M27 42 L26 43 L26 42 L27 42 z"/>
<path style="fill:#848585" d="M12 43 L11 47 L12 43 z"/>
<path style="fill:#919191" d="M75 53 L75 43 C76.66 44.99 76.66 51.01 75 53 z"/>
<path style="fill:#afafaf" d="M25 44 L25 51 C23.36 49.97 23.36 45.03 25 44 z"/>
<path style="fill:#707070" d="M64 54 L63 54 C64.82 51.44 63.69 48 64 45 L65 44 C66.9 46.17 66.6 52.15 64 54 z"/>
<path style="fill:#f7f7f7" d="M62 45 L62 51 L60 51 L60 47 L61 45 L62 45 z"/>
<path style="fill:#909090" d="M62 51 L62 45 C63.62 45.73 63.62 50.27 62 51 z"/>
<path style="fill:#080808" d="M42 47 C48.99 46.32 41.01 54.8 42 47 z"/>
<path style="fill:#6a6b6b" d="M60 47 L60 51 L59 51 L60 47 z"/>
<path style="fill:#6d6d6d" d="M40 50 L31 54 L29 52 L40 50 z"/>
<path style="fill:#050505" d="M42 53 L42 63 L41 64 L38 64 L36 64 C34.4 64.28 32.34 63.86 32 62 C31.81 61.05 32.59 59.06 31 59 L30 58 L30 55 L31 54 L40 50 C42.37 50.49 38.14 55.44 42 53 z"/>
<path style="fill:#818282" d="M12 53 C10.82 53.15 10.98 51.66 11 51 C12.18 50.85 12.02 52.34 12 53 z"/>
<path style="fill:#676767" d="M27 51 L27 52 L26 51 L27 51 z"/>
<path style="fill:#e4e4e4" d="M29 52 L31 54 L30 55 L28 55 L27 55 L27 54 L27 52 L27 51 L29 52 z"/>
<path style="fill:#060606" d="M56 54 L57 55 L57 58 L56 59 C54.41 59.06 55.19 61.05 55 62 L55 63 L51 64 L49 64 L46 64 L44 63 L44 52 L46.75 53.75 C45.09 48.17 53.14 53.39 56 54 z"/>
<path style="fill:#e1e1e1" d="M60 51 L60 54 L60 55 L59 55 L57 55 L56 54 L58 52 L59 51 L60 51 z"/>
<path style="fill:#1a1b1b" d="M43 52 L43 63 L42 63 L42 53 L43 52 z"/>
<path style="fill:#b2b2b2" d="M44 52 L44 63 L43 63 L43 52 L44 52 z"/>
<path style="fill:#8b8b8b" d="M13 55 L12 54 L13 55 z"/>
<path style="fill:#aeafaf" d="M24 54 L27 54 L27 55 C26.34 54.98 24.85 54.82 25 56 C24.05 55.81 22.06 56.59 22 55 L24 54 z"/>
<path style="fill:#8a8a8a" d="M63 54 L62 56 L60 55 L60 54 L63 54 z"/>
<path style="fill:#dddddd" d="M64 54 L64 55 C64.15 56.18 62.66 56.02 62 56 L63 54 L64 54 z"/>
<path style="fill:#9b9b9b" d="M75 54 L74 55 L75 54 z"/>
<path style="fill:#9c9c9c" d="M14 56 L13 55 L14 56 z"/>
<path style="fill:#6e6f6f" d="M22 55 C22.06 56.59 24.05 55.81 25 56 L25 59 L24 59 C22.9 56.88 20.15 56.22 18 58 L14 56 C16.69 55.77 19.74 56.71 22 55 z"/>
<path style="fill:#161717" d="M27 55 L28 55 L28 57 L27 59 L28 60 L29 62 L30 63 L31 63 L34 66 L35 66 L36 67 L38 67 C37.78 68.33 40.22 68.33 40 67 L41 66 L43 66 C42.81 66.95 43.59 68.94 42 69 L35 69 C35.15 67.82 33.66 67.98 33 68 C32.74 66.71 31.34 65.67 30 66 L25 59 L25 56 C24.85 54.82 26.34 54.98 27 55 z"/>
<path style="fill:#8f8f8f" d="M30 55 L30 58 L28 57 L28 55 L30 55 z"/>
<path style="fill:#9fa0a0" d="M59 55 L59 58 L57 58 L57 55 L59 55 z"/>
<path style="fill:#0b0b0b" d="M60 55 L62 56 C62.65 58.5 61.31 60.21 60 62 L58 62 L59 60 L60 59 L59 58 L59 55 L60 55 z"/>
<path style="fill:#727272" d="M72 56 L69 58 C63.54 54.48 63.62 60.96 60 63 L60 62 C61.31 60.21 62.65 58.5 62 56 C62.66 56.02 64.15 56.18 64 55 L72 56 z"/>
<path style="fill:#979797" d="M74 55 L73 56 L74 55 z"/>
<path style="fill:#060606" d="M24 59 C24.84 61.65 26.66 65.8 30 66 C30.26 67.29 31.66 68.33 33 68 C32.85 69.18 34.34 69.02 35 69 C36.27 70.17 40.66 72.34 42 70 L43 76 L42 77 L42 78 L41 79 L39 80 L35 80 C35.15 78.82 33.66 78.98 33 79 L31 79 L30 78 L29 78 L28 77 L26 76 L25 75 L23 74 L22 73 L21 72 L20 71 L19 70 L18 69 L17 67 L16 66 L16 65 L16 60 L18 58 C20.15 56.22 22.9 56.88 24 59 z"/>
<path style="fill:#f0f1f1" d="M30 58 L31 59 L31 62 L31 63 L30 63 L29 62 L28 60 L27 59 L28 57 L30 58 z"/>
<path style="fill:#050606" d="M69 58 L70 59 L71 60 L71 61 L71 64 L71 66 L70 67 L68 70 L67 71 L66 72 L65 73 L62 75 L61 76 L60 76 L59 77 L57 78 L56 79 L54 79 C53.34 78.98 51.85 78.82 52 80 L51 80 L48 80 L46 79 L45 78 L44 77 L44 76 L44 71 C47.57 71.19 51.67 70.41 54 68 C55.34 68.33 56.74 67.29 57 66 C57.66 66.02 59.15 66.18 59 65 L59 64 L60 63 C63.62 60.96 63.54 54.48 69 58 z"/>
<path style="fill:#636363" d="M57 58 L56 59 L57 58 z"/>
<path style="fill:#e6e6e6" d="M59 58 L60 59 L59 60 L58 62 L55 64 L55 63 L55 62 C56.59 61.94 55.81 59.95 56 59 L57 58 L59 58 z"/>
<path style="fill:#8e8e8e" d="M25 59 L30 66 C26.66 65.8 24.84 61.65 24 59 L25 59 z"/>
<path style="fill:#949494" d="M28 60 L27 59 L28 60 z"/>
<path style="fill:#545555" d="M32 62 L31 62 L31 59 C32.59 59.06 31.81 61.05 32 62 z"/>
<path style="fill:#8c8d8d" d="M56 59 C55.81 59.95 56.59 61.94 55 62 C55.19 61.05 54.41 59.06 56 59 z"/>
<path style="fill:#616161" d="M60 59 L59 60 L60 59 z"/>
<path style="fill:#686868" d="M71 60 L70 59 L71 60 z"/>
<path style="fill:#606060" d="M16 60 L16 65 C14.4 64.55 14.4 60.45 16 60 z"/>
<path style="fill:#737373" d="M71 64 L71 61 C72.48 60.96 72.48 64.04 71 64 z"/>
<path style="fill:#777777" d="M30 63 L29 62 L30 63 z"/>
<path style="fill:#b7b8b8" d="M32 62 C32.34 63.86 34.4 64.28 36 64 L34 66 L31 63 L31 62 L32 62 z"/>
<path style="fill:#2a2a2a" d="M58 62 L60 62 L60 63 L59 64 C57.94 63.57 57.94 65.43 59 65 C59.15 66.18 57.66 66.02 57 66 C55.66 65.67 54.26 66.71 54 68 L53 68 C53.15 66.82 51.66 66.98 51 67 C50.85 65.82 52.34 65.98 53 66 L55 64 L58 62 z"/>
<path style="fill:#d5d5d5" d="M43 63 L44 63 L46 64 L46 65 C45.34 64.98 43.85 64.82 44 66 L43 66 L41 66 L41 65 L41 64 L42 63 L43 63 z"/>
<path style="fill:#a7a8a8" d="M55 63 L55 64 L53 66 L51 64 L55 63 z"/>
<path style="fill:#909090" d="M60 63 L59 64 L60 63 z"/>
<path style="fill:#eeefef" d="M38 64 C38.06 65.59 40.05 64.81 41 65 L41 66 L40 67 L38 67 L36 67 L35 66 L34 66 L36 64 L38 64 z"/>
<path style="fill:#6d6e6e" d="M41 64 L41 65 C40.05 64.81 38.06 65.59 38 64 L41 64 z"/>
<path style="fill:#6c6c6c" d="M49 64 C48.94 65.59 46.95 64.81 46 65 L46 64 L49 64 z"/>
<path style="fill:#efefef" d="M51 64 L53 66 C52.34 65.98 50.85 65.82 51 67 L49 67 L47 67 L46 66 L46 65 C46.95 64.81 48.94 65.59 49 64 L51 64 z"/>
<path style="fill:#afafaf" d="M59 64 L59 65 C57.94 65.43 57.94 63.57 59 64 z"/>
<path style="fill:#878787" d="M46 65 L46 66 L44 66 C43.85 64.82 45.34 64.98 46 65 z"/>
<path style="fill:#747474" d="M17 67 L16 66 L17 67 z"/>
<path style="fill:#8f8f8f" d="M33 68 C31.66 68.33 30.26 67.29 30 66 C31.34 65.67 32.74 66.71 33 68 z"/>
<path style="fill:#7f7f7f" d="M36 67 L35 66 L36 67 z"/>
<path style="fill:#b6b7b7" d="M44 66 C44.19 66.95 43.41 68.94 45 69 L44 71 L44 76 L43 76 L42 70 L42 69 C43.59 68.94 42.81 66.95 43 66 L44 66 z"/>
<path style="fill:#0a0a0a" d="M46 66 L47 67 C46.78 68.33 49.22 68.33 49 67 L51 67 C51.66 66.98 53.15 66.82 53 68 L45 69 C43.41 68.94 44.19 66.95 44 66 L46 66 z"/>
<path style="fill:#959696" d="M57 66 C56.74 67.29 55.34 68.33 54 68 C54.26 66.71 55.66 65.67 57 66 z"/>
<path style="fill:#929292" d="M71 66 L70 67 L71 66 z"/>
<path style="fill:#7d7e7e" d="M40 67 C40.22 68.33 37.78 68.33 38 67 L40 67 z"/>
<path style="fill:#6d6e6e" d="M49 67 C49.22 68.33 46.78 68.33 47 67 L49 67 z"/>
<path style="fill:#999a9a" d="M35 69 C34.34 69.02 32.85 69.18 33 68 C33.66 67.98 35.15 67.82 35 69 z"/>
<path style="fill:#7c7c7c" d="M53 68 L54 68 C51.67 70.41 47.57 71.19 44 71 L45 69 L53 68 z"/>
<path style="fill:#888888" d="M19 70 L18 69 L19 70 z"/>
<path style="fill:#838484" d="M42 69 L42 70 C40.66 72.34 36.27 70.17 35 69 L42 69 z"/>
<path style="fill:#6e6e6e" d="M20 71 L19 70 L20 71 z"/>
<path style="fill:#a5a5a5" d="M68 70 L67 71 L68 70 z"/>
<path style="fill:#676767" d="M21 72 L20 71 L21 72 z"/>
<path style="fill:#949494" d="M67 71 L66 72 L67 71 z"/>
<path style="fill:#6c6c6c" d="M22 73 L21 72 L22 73 z"/>
<path style="fill:#a0a0a0" d="M66 72 L65 73 L66 72 z"/>
<path style="fill:#a5a5a5" d="M23 74 L22 73 L23 74 z"/>
<path style="fill:#686868" d="M26 76 L25 75 L26 76 z"/>
<path style="fill:#787878" d="M62 75 L61 76 L62 75 z"/>
<path style="fill:#5f5f5f" d="M43 76 L42 77 L43 76 z"/>
<path style="fill:#5f5f5f" d="M60 76 L59 77 L60 76 z"/>
<path style="fill:#8f8f8f" d="M29 78 L28 77 L29 78 z"/>
<path style="fill:#979797" d="M45 78 L44 77 L45 78 z"/>
<path style="fill:#a4a4a4" d="M31 79 L30 78 L31 79 z"/>
<path style="fill:#828282" d="M42 78 L41 79 L42 78 z"/>
<path style="fill:#707070" d="M46 79 L45 78 L46 79 z"/>
<path style="fill:#a5a5a5" d="M57 78 L56 79 L57 78 z"/>
<path style="fill:#595a5a" d="M35 80 C34.34 80.02 32.85 80.18 33 79 C33.66 78.98 35.15 78.82 35 80 z"/>
<path style="fill:#686969" d="M54 79 C54.15 80.18 52.66 80.02 52 80 C51.85 78.82 53.34 78.98 54 79 z"/>
<path style="fill:#b4b5b5" d="M39 80 C38.81 81.55 35.19 81.55 35 80 L39 80 z"/>
<path style="fill:#a1a2a2" d="M51 80 C51.04 81.48 47.96 81.48 48 80 L51 80 z"/>
</svg>
