<?xml version="1.0" standalone="yes"?>
<svg width="87" height="97">
<path style="fill:#fdfdfd" d="M87 0 L87 97 L0 97 L0 0 L87 0 z"/>
<path style="fill:#626262" d="M48 27 L40 27 C41.34 25.35 46.66 25.35 48 27 z"/>
<path style="fill:#808080" d="M40 27 L39 28 L40 27 z"/>
<path style="fill:#121313" d="M48 27 L51 28 C51.63 30.48 50.52 33.36 48 31 C46.97 29.36 42.03 29.36 41 31 L39 31 C37.82 31.15 37.98 29.66 38 29 L39 28 L40 27 L48 27 z"/>
<path style="fill:#a6a6a6" d="M39 28 L38 29 L39 28 z"/>
<path style="fill:#c6c7c7" d="M55 33 C51.34 32.87 56.08 38.83 53 41 C50.91 38.98 49.65 40.94 49 43 L44 44 L44 42 C45.18 41.14 47.63 41.12 47 39 L48 39 C49.44 38.98 51.39 38.24 52 37 C52.15 35.82 50.66 35.98 50 36 L47 34 L46 33 C45.54 31.65 46.65 30.54 48 31 C50.52 33.36 51.63 30.48 51 28 C52.28 30 52.28 32.32 55 33 z"/>
<path style="fill:#afafaf" d="M48 31 C46.65 30.54 45.54 31.65 46 33 L44 32 C43.94 30.41 41.95 31.19 41 31 C42.03 29.36 46.97 29.36 48 31 z"/>
<path style="fill:#a3a3a3" d="M41 31 C41.85 33.33 39.91 33.74 39 35 C39.15 36.18 37.66 36.02 37 36 L35 35 L37 32 C38.41 33.26 40.85 33.16 39 31 L41 31 z"/>
<path style="fill:#e0e0e0" d="M44 32 L42 35 L39 35 C39.91 33.74 41.85 33.33 41 31 C41.95 31.19 43.94 30.41 44 32 z"/>
<path style="fill:#141414" d="M37 32 L35 35 C35.02 37.09 34.64 39.3 36 41 L34 41 C33.34 41.02 31.85 41.18 32 40 L31 39 L31 36 L31 35 L32 34 C32.46 31.63 35.17 31.92 37 32 z"/>
<path style="fill:#252626" d="M46 33 L47 34 C47.15 35.18 45.66 35.02 45 35 L42 35 L44 32 L46 33 z"/>
<path style="fill:#1c1d1d" d="M55 33 L56 33 L57 34 L58 35 L58 36 L58 40 C57.39 41.24 55.44 41.98 54 42 L53 41 C56.08 38.83 51.34 32.87 55 33 z"/>
<path style="fill:#aaaaaa" d="M57 34 L56 33 L57 34 z"/>
<path style="fill:#787878" d="M32 34 L31 35 L32 34 z"/>
<path style="fill:#c4c5c5" d="M45 35 L45 36 L44 37 C43.57 38.06 45.43 38.06 45 37 L45 36 C47.52 35.37 47.04 37.82 46 39 C44.09 40.03 40.48 38.31 43 42 L37.75 40.75 L36 41 C34.64 39.3 35.02 37.09 35 35 L37 36 C38.86 39.66 41.67 38.84 42 35 L45 35 z"/>
<path style="fill:#818282" d="M50 36 C47.89 35.33 47.79 37.58 48 39 L47 39 L46 39 C47.04 37.82 47.52 35.37 45 36 L45 35 C45.66 35.02 47.15 35.18 47 34 L50 36 z"/>
<path style="fill:#9e9e9e" d="M58 35 L57 34 L58 35 z"/>
<path style="fill:#343535" d="M42 35 C41.67 38.84 38.86 39.66 37 36 C37.66 36.02 39.15 36.18 39 35 L42 35 z"/>
<path style="fill:#b2b3b3" d="M31 36 L31 39 C29.52 39.04 29.52 35.96 31 36 z"/>
<path style="fill:#606060" d="M45 36 L45 37 L44 37 L45 36 z"/>
<path style="fill:#181919" d="M50 36 C49.85 37.18 51.34 37.02 52 37 C51.39 38.24 49.44 38.98 48 39 C47.79 37.58 47.89 35.33 50 36 z"/>
<path style="fill:#707070" d="M52 37 C51.34 37.02 49.85 37.18 50 36 C50.66 35.98 52.15 35.82 52 37 z"/>
<path style="fill:#808080" d="M58 40 L58 36 C59.55 36.19 59.55 39.81 58 40 z"/>
<path style="fill:#0d0d0d" d="M45 37 C45.43 38.06 43.57 38.06 44 37 L45 37 z"/>
<path style="fill:#7e7e7e" d="M32 40 L31 39 L32 40 z"/>
<path style="fill:#969696" d="M43 42 L44 42 L44 44 C41.37 45.02 37.08 39.55 38 45 L37 45 L34 41 L36 41 L37.75 40.75 L43 42 z"/>
<path style="fill:#1f2020" d="M46 39 L47 39 C47.63 41.12 45.18 41.14 44 42 L43 42 C40.48 38.31 44.09 40.03 46 39 z"/>
<path style="fill:#9a9b9b" d="M53 41 L54 42 L51 43 L49 43 C49.65 40.94 50.91 38.98 53 41 z"/>
<path style="fill:#111212" d="M44 44 L49 43 L51 43 L51 44 C51.02 44.66 51.18 46.15 50 46 L49 47 L48 47 L41 47 L40 47 L39 46 L38 45 C37.08 39.55 41.37 45.02 44 44 z"/>
<path style="fill:#6d6e6e" d="M27 43 C26.74 44.29 25.34 45.33 24 45 C24.26 43.71 25.66 42.67 27 43 z"/>
<path style="fill:#141515" d="M30 43 L34 44 C34.66 43.98 36.15 43.82 36 45 L37 46 L37 48 L33 47 C31.55 45.34 25.88 45.03 25 48 L23 48 C23.19 47.05 22.41 45.06 24 45 C25.34 45.33 26.74 44.29 27 43 L30 43 z"/>
<path style="fill:#5a5a5a" d="M34 44 L30 43 L34 44 z"/>
<path style="fill:#e8e9e9" d="M52 46 C52.19 46.95 51.41 48.94 53 49 L56 51 C54.82 50.85 54.98 52.34 55 53 L52 53 L50 50 L46 51 L45 52 L45 53 C43.82 52.85 43.98 54.34 44 55 L43 55 L43 52 L42 51 L41 50 C40.94 48.41 38.95 49.19 38 49 L37 48 L37 46 L37 45 L38 45 L39 46 L40 47 L41 47 C42.03 48.64 46.97 48.64 48 47 L49 47 L50 46 C51.18 46.15 51.02 44.66 51 44 C52.18 43.85 52.02 45.34 52 46 z"/>
<path style="fill:#8a8a8a" d="M61 45 L55 45 C55.73 43.38 60.27 43.38 61 45 z"/>
<path style="fill:#888888" d="M37 45 L37 46 L36 45 L37 45 z"/>
<path style="fill:#636464" d="M55 45 C55.15 46.18 53.66 46.02 53 46 C52.85 44.82 54.34 44.98 55 45 z"/>
<path style="fill:#111111" d="M61 45 C61.95 45.19 63.94 44.41 64 46 C64.62 47.07 66.05 49.54 64 50 C63.74 48.71 62.34 47.67 61 48 C60.27 46.38 55.73 46.38 55 48 C54.34 47.98 52.85 47.82 53 49 C51.41 48.94 52.19 46.95 52 46 L53 46 C53.66 46.02 55.15 46.18 55 45 L61 45 z"/>
<path style="fill:#7b7b7b" d="M33 47 L31 47 L25 48 C25.88 45.03 31.55 45.34 33 47 z"/>
<path style="fill:#767676" d="M40 47 L39 46 L40 47 z"/>
<path style="fill:#919191" d="M50 46 L49 47 L50 46 z"/>
<path style="fill:#959595" d="M69 51 C63.46 49.55 69.53 56.45 66 58 L64 56 L64 54 C65.01 53.32 64.68 51.35 64 50 C66.05 49.54 64.62 47.07 64 46 L69 51 z"/>
<path style="fill:#cccdcd" d="M31 47 L33 50 C27.81 47.8 25.56 51.26 32 52 L32 55 L30 53 C28.82 52.85 28.98 54.34 29 55 L27 56 L27 55 C27.22 52.18 24.6 50.57 23 54 L25 48 L31 47 z"/>
<path style="fill:#b6b7b7" d="M33 47 L37 48 L38 49 C37.98 49.66 37.82 51.15 39 51 L39 56 L37 54 C34.88 51.39 33 51.85 33 55 L32 55 L32 52 L33 50 L31 47 L33 47 z"/>
<path style="fill:#808080" d="M48 47 C46.97 48.64 42.03 48.64 41 47 L48 47 z"/>
<path style="fill:#7a7b7b" d="M61 48 C59.07 49.93 57.09 48.23 55 48 C55.73 46.38 60.27 46.38 61 48 z"/>
<path style="fill:#979797" d="M23 48 L25 48 L23 54 L24 57 L21 58 L19 49 L23 48 z"/>
<path style="fill:#b4b5b5" d="M55 48 C57.09 48.23 59.07 49.93 61 48 C62.34 47.67 63.74 48.71 64 50 L60 51 C58.64 49.92 57.36 49.92 56 51 L53 49 C52.85 47.82 54.34 47.98 55 48 z"/>
<path style="fill:#131313" d="M19 49 L21 58 L20 58 L19 57 L17 55 L17 51 L19 49 z"/>
<path style="fill:#363636" d="M33 50 L32 52 C25.56 51.26 27.81 47.8 33 50 z"/>
<path style="fill:#616262" d="M41 50 C40.34 49.98 38.85 49.82 39 51 C37.82 51.15 37.98 49.66 38 49 C38.95 49.19 40.94 48.41 41 50 z"/>
<path style="fill:#101111" d="M41 50 L42 51 L43 52 L43 55 L43 56 L41 58 C39.18 58.34 37.29 57.82 39 56 L39 51 C38.85 49.82 40.34 49.98 41 50 z"/>
<path style="fill:#6e6e6e" d="M42 51 L41 50 L42 51 z"/>
<path style="fill:#171818" d="M50 50 L49 53 L49 59 L48 59 L47 58 C47.15 56.82 45.66 56.98 45 57 L45 56 L45 53 L45 52 L46 51 L50 50 z"/>
<path style="fill:#b7b8b8" d="M52 53 L51 55 L50 55 C50.02 54.34 50.18 52.85 49 53 L50 50 L52 53 z"/>
<path style="fill:#343434" d="M60 51 L60 53 L56 51 C57.36 49.92 58.64 49.92 60 51 z"/>
<path style="fill:#e2e2e2" d="M64 50 C64.68 51.35 65.01 53.32 64 54 L60 53 L60 51 L64 50 z"/>
<path style="fill:#606161" d="M17 51 L17 55 C15.45 54.81 15.45 51.19 17 51 z"/>
<path style="fill:#666666" d="M43 52 L42 51 L43 52 z"/>
<path style="fill:#7c7c7c" d="M46 51 L45 52 L46 51 z"/>
<path style="fill:#bfbfbf" d="M56 51 L60 53 C60.86 54.18 60.88 56.63 63 56 L60 59 L55 57 L55 56 L55 53 C54.98 52.34 54.82 50.85 56 51 z"/>
<path style="fill:#171818" d="M69 51 C71.94 51.93 73.02 55.69 71 58 C69.66 57.67 68.26 58.71 68 60 L66 60 L66 58 C69.53 56.45 63.46 49.55 69 51 z"/>
<path style="fill:#2a2b2b" d="M27 55 L23 54 C24.6 50.57 27.22 52.18 27 55 z"/>
<path style="fill:#171717" d="M37 54 C36.34 53.98 34.85 53.82 35 55 L33 55 C33 51.85 34.88 51.39 37 54 z"/>
<path style="fill:#292929" d="M30 53 L30 55 L29 55 C28.98 54.34 28.82 52.85 30 53 z"/>
<path style="fill:#787979" d="M32 55 L32 56 L31 57 L30 57 L30 55 L30 53 L32 55 z"/>
<path style="fill:#7b7b7b" d="M45 53 L45 56 L44 55 C43.98 54.34 43.82 52.85 45 53 z"/>
<path style="fill:#9f9f9f" d="M49 53 C50.18 52.85 50.02 54.34 50 55 L53 60 L51 60 C51.15 58.82 49.66 58.98 49 59 L49 53 z"/>
<path style="fill:#262626" d="M55 53 L55 56 L51 55 L52 53 L55 53 z"/>
<path style="fill:#2b2b2b" d="M64 54 L64 56 L63 56 C60.88 56.63 60.86 54.18 60 53 L64 54 z"/>
<path style="fill:#e3e3e3" d="M27 55 L27 56 L29 58 L26 60 L25 59 L24 58 L24 57 L23 54 L27 55 z"/>
<path style="fill:#979797" d="M37 54 L39 56 C37.29 57.82 39.18 58.34 41 58 L37 59 C37.46 57.65 36.35 56.54 35 57 C35.7 55.84 38.22 54.98 35 55 C34.85 53.82 36.34 53.98 37 54 z"/>
<path style="fill:#313131" d="M57 54 C61.39 53.54 56.54 58.39 57 54 z"/>
<path style="fill:#2d2d2d" d="M29 55 C28.98 55.66 28.82 57.15 30 57 L31 57 L30 58 L29 58 L27 56 L29 55 z"/>
<path style="fill:#cfcfcf" d="M30 55 L30 57 C28.82 57.15 28.98 55.66 29 55 L30 55 z"/>
<path style="fill:#d0d0d0" d="M33 55 L35 55 C38.22 54.98 35.7 55.84 35 57 C32.89 56.33 32.79 58.58 33 60 L32 60 L30 58 L31 57 L32 56 L32 55 L33 55 z"/>
<path style="fill:#eaeaea" d="M51 55 L55 56 L55 57 C55.77 59.03 58.12 60.99 60 59 L63 56 L64 56 L66 58 C64.82 57.85 64.98 59.34 65 60 C63.58 58.2 58.76 59.77 61 62 L59 62 C58.07 60.72 55.42 59.83 54 61 L53 60 L50 55 L51 55 z"/>
<path style="fill:#0" d="M32 56 L31 57 L32 56 z"/>
<path style="fill:#979898" d="M43 56 C43.46 57.35 42.35 58.46 41 58 L43 56 z"/>
<path style="fill:#787878" d="M20 58 L19 57 L20 58 z"/>
<path style="fill:#a8a9a9" d="M35 57 C36.35 56.54 37.46 57.65 37 59 C36.81 59.95 37.59 61.94 36 62 C36.61 58.83 35.18 59.37 33 60 C32.79 58.58 32.89 56.33 35 57 z"/>
<path style="fill:#7e7e7e" d="M47 58 C46.34 58.02 44.85 58.18 45 57 C45.66 56.98 47.15 56.82 47 58 z"/>
<path style="fill:#3f3f3f" d="M60 59 C58.12 60.99 55.77 59.03 55 57 L60 59 z"/>
<path style="fill:#8a8b8b" d="M24 58 L25 59 L23 59 L24 58 z"/>
<path style="fill:#9c9d9d" d="M30 58 L32 60 C31.27 61.62 26.73 61.62 26 60 L29 58 L30 58 z"/>
<path style="fill:#8f8f8f" d="M48 59 L47 58 L48 59 z"/>
<path style="fill:#848484" d="M66 58 L66 60 L65 60 C64.98 59.34 64.82 57.85 66 58 z"/>
<path style="fill:#888989" d="M71 58 C70.74 59.29 69.34 60.33 68 60 C68.26 58.71 69.66 57.67 71 58 z"/>
<path style="fill:#7d7d7d" d="M23 59 L23 61 C21.67 61.22 21.67 58.78 23 59 z"/>
<path style="fill:#151616" d="M25 59 L26 60 C26.73 61.62 31.27 61.62 32 60 L33 60 C35.18 59.37 36.61 58.83 36 62 L35 63 L34 64 L32 64 L27 64 L26 64 L25 63 L23 61 L23 59 L25 59 z"/>
<path style="fill:#a1a1a1" d="M65 60 L65 61 L61 62 C58.76 59.77 63.58 58.2 65 60 z"/>
<path style="fill:#1e1f1f" d="M53 60 L54 61 L59 62 L61 62 L65 61 C65.51 63.56 62.58 64.07 61 65 L54 65 L53 64 C51.14 63.66 50.72 61.6 51 60 L53 60 z"/>
<path style="fill:#adaeae" d="M59 62 L54 61 C55.42 59.83 58.07 60.72 59 62 z"/>
<path style="fill:#a3a3a3" d="M26 64 L25 63 L26 64 z"/>
<path style="fill:#8e8e8e" d="M35 63 L34 64 L35 63 z"/>
<path style="fill:#bebebe" d="M32 64 C31.55 65.6 27.45 65.6 27 64 L32 64 z"/>
<path style="fill:#9f9f9f" d="M54 65 L53 64 L54 65 z"/>
<path style="fill:#bdbebe" d="M61 65 C59.97 66.64 55.03 66.64 54 65 L61 65 z"/>
</svg>
