<?xml version="1.0" standalone="yes"?>
<svg width="87" height="97">
<path style="fill:#fcfdfd" d="M87 0 L87 97 L0 97 L0 0 L87 0 z"/>
<path style="fill:#5a5b5b" d="M48 15 L48 16 L37 16 L48 15 z"/>
<path style="fill:#a9a9a9" d="M50 16 L48 16 L48 15 C48.66 14.98 50.15 14.82 50 16 z"/>
<path style="fill:#9c9c9c" d="M34 16 C34.15 17.18 32.66 17.02 32 17 C31.85 15.82 33.34 15.98 34 16 z"/>
<path style="fill:#060707" d="M37 16 L48 16 L50 16 L51 16 C50.85 17.18 52.34 17.02 53 17 L54 17 C53.85 18.18 55.34 18.02 56 18 L57 18 L58 19 L59 19 L60 20 L61 20 L62 21 L66 24 L67 25 L68 26 L69 27 L70 28 L71 30 L72 31 L73 33 L74 34 L74 35 L75 36 L75 38 C74.98 38.66 74.82 40.15 76 40 L76 41 L76 43 L76 53 L76 55 L76 57 C74.82 56.85 74.98 58.34 75 59 L75 60 L74 61 L74 62 L73 63 L73 64 L72 65 L72 66 L71 67 L64 74 L63 75 L62 76 L61 76 L60 77 L57 78 L56 79 L55 79 C54.34 78.98 52.85 78.82 53 80 L52 80 C51.34 79.98 49.85 79.82 50 81 L48 81 L38 81 L36 81 C36.15 79.82 34.66 79.98 34 80 L33 80 C33.15 78.82 31.66 78.98 31 79 L26 77 L25 76 L24 76 L23 75 L22 74 L20 73 L19 72 L18 71 L17 70 L15 67 L14 66 L14 65 L13 64 L10 56 C10.02 55.34 10.18 53.85 9 54 C8.679 47.71 9.043 41.63 11 36 L12 35 L12 34 L13 33 L13 32 L14 31 L15 29 L16 28 L17 27 L18 26 L20 24 L21 23 L22 22 L24 21 L25 20 L30 18 C30.66 18.02 32.15 18.18 32 17 C32.66 17.02 34.15 17.18 34 16 L37 16 z"/>
<path style="fill:#676767" d="M53 17 C52.34 17.02 50.85 17.18 51 16 C51.66 15.98 53.15 15.82 53 17 z"/>
<path style="fill:#555555" d="M32 17 C32.15 18.18 30.66 18.02 30 18 C29.85 16.82 31.34 16.98 32 17 z"/>
<path style="fill:#575757" d="M56 18 C55.34 18.02 53.85 18.18 54 17 C54.66 16.98 56.15 16.82 56 18 z"/>
<path style="fill:#646464" d="M58 19 L57 18 L58 19 z"/>
<path style="fill:#5c5c5c" d="M60 20 L59 19 L60 20 z"/>
<path style="fill:#727272" d="M25 20 L24 21 L25 20 z"/>
<path style="fill:#8b8b8b" d="M62 21 L61 20 L62 21 z"/>
<path style="fill:#8c8c8c" d="M22 22 L21 23 L22 22 z"/>
<path style="fill:#6c6d6d" d="M40 22 L40 23 L36 23 L40 22 z"/>
<path style="fill:#b7b8b8" d="M48 23 L40 23 L40 22 L48 23 z"/>
<path style="fill:#717171" d="M21 23 L20 24 L21 23 z"/>
<path style="fill:#f6f7f7" d="M36 23 L40 23 L48 23 L51 23 C50.85 24.18 52.34 24.02 53 24 L54 24 L55 25 L56 25 L57 26 L58 27 L28 27 L29 26 L30 25 L31 25 L32 24 L36 23 z"/>
<path style="fill:#656666" d="M53 24 C52.34 24.02 50.85 24.18 51 23 C51.66 22.98 53.15 22.82 53 24 z"/>
<path style="fill:#747474" d="M32 24 L31 25 L32 24 z"/>
<path style="fill:#6a6a6a" d="M55 25 L54 24 L55 25 z"/>
<path style="fill:#707070" d="M67 25 L66 24 L67 25 z"/>
<path style="fill:#717171" d="M30 25 L29 26 L30 25 z"/>
<path style="fill:#646464" d="M57 26 L56 25 L57 26 z"/>
<path style="fill:#686868" d="M68 26 L67 25 L68 26 z"/>
<path style="fill:#616161" d="M18 26 L17 27 L18 26 z"/>
<path style="fill:#747474" d="M69 27 L68 26 L69 27 z"/>
<path style="fill:#747474" d="M17 27 L16 28 L17 27 z"/>
<path style="fill:#868686" d="M28 27 L28 28 L19 37 C19.79 32.76 24.02 28.34 28 27 z"/>
<path style="fill:#5f5f5f" d="M58 27 L58 28 L28 28 L28 27 L58 27 z"/>
<path style="fill:#878787" d="M67 37 L66 37 C64.53 33.32 61.14 30.33 58 28 L58 27 C61.98 28.34 66.21 32.76 67 37 z"/>
<path style="fill:#8c8c8c" d="M70 28 L69 27 L70 28 z"/>
<path style="fill:#9a9a9a" d="M16 28 L15 29 L16 28 z"/>
<path style="fill:#020202" d="M28 28 L58 28 C61.14 30.33 64.53 33.32 66 37 L23 39 L19 39 L19 37 L28 28 z"/>
<path style="fill:#5e5e5e" d="M72 31 L71 30 L72 31 z"/>
<path style="fill:#a7a7a7" d="M14 31 L13 32 L14 31 z"/>
<path style="fill:#808080" d="M13 33 L12 34 L13 33 z"/>
<path style="fill:#969696" d="M74 34 L73 33 L74 34 z"/>
<path style="fill:#909090" d="M12 35 L11 36 L12 35 z"/>
<path style="fill:#a9a9a9" d="M75 36 L74 35 L75 36 z"/>
<path style="fill:#acadad" d="M19 37 L19 39 L18 39 C17.98 38.34 17.82 36.85 19 37 z"/>
<path style="fill:#232323" d="M67 37 L67 39 L23 39 L66 37 L67 37 z"/>
<path style="fill:#aaaaaa" d="M68 39 L67 39 L67 37 C68.18 36.85 68.02 38.34 68 39 z"/>
<path style="fill:#646565" d="M76 40 C74.82 40.15 74.98 38.66 75 38 C76.18 37.85 76.02 39.34 76 40 z"/>
<path style="fill:#989999" d="M18 39 C18.02 39.66 18.18 41.15 17 41 C16.98 40.34 16.82 38.85 18 39 z"/>
<path style="fill:#fcfcfc" d="M19 39 C33.64 40.67 52.36 40.67 67 39 L68 39 C67.98 39.66 67.82 41.15 69 41 L69 42 L17 42 L17 41 C18.18 41.15 18.02 39.66 18 39 L19 39 z"/>
<path style="fill:#e1e2e2" d="M23 39 L67 39 C52.36 40.67 33.64 40.67 19 39 L23 39 z"/>
<path style="fill:#878787" d="M69 41 C67.82 41.15 67.98 39.66 68 39 C69.18 38.85 69.02 40.34 69 41 z"/>
<path style="fill:#a5a6a6" d="M77 43 L76 43 L76 41 C77.18 40.85 77.02 42.34 77 43 z"/>
<path style="fill:#8f9090" d="M17 42 L69 42 C70.66 44.64 70.66 51.36 69 54 L68 54 C69.74 51.22 68.96 47.41 68.75 44.25 C52.84 41.5 34.85 43.5 18.25 43.25 C16.03 45.97 16.62 50.99 18 54 L17 55 C15.34 52.03 15.34 44.97 17 42 z"/>
<path style="fill:#020202" d="M68 54 L18 54 C16.62 50.99 16.03 45.97 18.25 43.25 C34.85 43.5 52.84 41.5 68.75 44.25 C68.96 47.41 69.74 51.22 68 54 z"/>
<path style="fill:#3c3c3c" d="M77 43 L77 53 L76 53 L76 43 L77 43 z"/>
<path style="fill:#8c8c8c" d="M77 53 C77.02 53.66 77.18 55.15 76 55 L76 53 L77 53 z"/>
<path style="fill:#9c9d9d" d="M10 56 C8.819 56.15 8.981 54.66 9 54 C10.18 53.85 10.02 55.34 10 56 z"/>
<path style="fill:#c5c5c5" d="M18 54 L68 54 L69 54 C68.81 54.95 69.59 56.94 68 57 L17 55 L18 54 z"/>
<path style="fill:#fcfcfc" d="M68 57 L68 58 L67 58 C52.36 56.33 33.64 56.33 19 58 L18 58 C18.02 57.34 18.18 55.85 17 56 L17 55 L68 57 z"/>
<path style="fill:#767676" d="M18 58 C16.82 58.15 16.98 56.66 17 56 C18.18 55.85 18.02 57.34 18 58 z"/>
<path style="fill:#969797" d="M67 58 L19 58 C33.64 56.33 52.36 56.33 67 58 z"/>
<path style="fill:#868787" d="M76 57 C76.02 57.66 76.18 59.15 75 59 C74.98 58.34 74.82 56.85 76 57 z"/>
<path style="fill:#8a8a8a" d="M19 58 L27 69 C22.39 67.73 19.26 62.28 18 58 L19 58 z"/>
<path style="fill:#020303" d="M67 58 L64 64 L60 68 L59 69 L27 69 L19 58 L67 58 z"/>
<path style="fill:#8c8c8c" d="M68 58 C67.81 60.39 66.3 63 64 64 L67 58 L68 58 z"/>
<path style="fill:#686868" d="M75 60 L74 61 L75 60 z"/>
<path style="fill:#5c5c5c" d="M74 62 L73 63 L74 62 z"/>
<path style="fill:#5d5d5d" d="M14 65 L13 64 L14 65 z"/>
<path style="fill:#8e8e8e" d="M64 64 C64.22 66.01 62.01 68.22 60 68 L64 64 z"/>
<path style="fill:#696969" d="M73 64 L72 65 L73 64 z"/>
<path style="fill:#888888" d="M15 67 L14 66 L15 67 z"/>
<path style="fill:#959595" d="M72 66 L71 67 L72 66 z"/>
<path style="fill:#b5b5b5" d="M60 68 L59 69 L60 68 z"/>
<path style="fill:#bebebe" d="M59 69 L58 70 L57 71 L56 71 C48.7 69.33 37.3 69.33 30 71 C28.66 71.33 27.26 70.29 27 69 L59 69 z"/>
<path style="fill:#a2a2a2" d="M18 71 L17 70 L18 71 z"/>
<path style="fill:#f8f8f8" d="M56 71 L55 72 L51 73 C50.34 72.98 48.85 72.82 49 74 L47 74 L38 74 L34 73 C34.15 71.82 32.66 71.98 32 72 L31 72 L30 71 C37.3 69.33 48.7 69.33 56 71 z"/>
<path style="fill:#696969" d="M58 70 L57 71 L58 70 z"/>
<path style="fill:#7f7f7f" d="M31 72 L30 71 L31 72 z"/>
<path style="fill:#7a7a7a" d="M56 71 L55 72 L56 71 z"/>
<path style="fill:#a7a7a7" d="M20 73 L19 72 L20 73 z"/>
<path style="fill:#949595" d="M34 73 C33.34 73.02 31.85 73.18 32 72 C32.66 71.98 34.15 71.82 34 73 z"/>
<path style="fill:#858585" d="M51 73 C51.15 74.18 49.66 74.02 49 74 C48.85 72.82 50.34 72.98 51 73 z"/>
<path style="fill:#606060" d="M23 75 L22 74 L23 75 z"/>
<path style="fill:#585959" d="M47 74 C45.34 75.65 39.66 75.65 38 74 L47 74 z"/>
<path style="fill:#5c5c5c" d="M64 74 L63 75 L64 74 z"/>
<path style="fill:#919191" d="M24 76 L23 75 L24 76 z"/>
<path style="fill:#959595" d="M63 75 L62 76 L63 75 z"/>
<path style="fill:#5e5e5e" d="M26 77 L25 76 L26 77 z"/>
<path style="fill:#626262" d="M61 76 L60 77 L61 76 z"/>
<path style="fill:#5b5b5b" d="M57 78 L56 79 L57 78 z"/>
<path style="fill:#666767" d="M33 80 C32.34 80.02 30.85 80.18 31 79 C31.66 78.98 33.15 78.82 33 80 z"/>
<path style="fill:#6e6e6e" d="M55 79 C55.15 80.18 53.66 80.02 53 80 C52.85 78.82 54.34 78.98 55 79 z"/>
<path style="fill:#878787" d="M36 81 C35.34 81.02 33.85 81.18 34 80 C34.66 79.98 36.15 79.82 36 81 z"/>
<path style="fill:#8d8d8d" d="M52 80 C52.15 81.18 50.66 81.02 50 81 C49.85 79.82 51.34 79.98 52 80 z"/>
<path style="fill:#b6b6b6" d="M48 81 C46.01 82.66 39.99 82.66 38 81 L48 81 z"/>
</svg>
