<?xml version="1.0" standalone="yes"?>
<svg width="87" height="97">
<path style="fill:#fdfdfd" d="M87 0 L87 97 L0 97 L0 0 L87 0 z"/>
<path style="fill:#9b9c9c" d="M38 18 L38 19 L36 19 C35.85 17.82 37.34 17.98 38 18 z"/>
<path style="fill:#2d2d2d" d="M47 18 L47 19 L38 19 L38 18 L47 18 z"/>
<path style="fill:#818282" d="M49 19 L47 19 L47 18 C47.66 17.98 49.15 17.82 49 19 z"/>
<path style="fill:#969696" d="M34 19 C34.15 20.18 32.66 20.02 32 20 C31.85 18.82 33.34 18.98 34 19 z"/>
<path style="fill:#090909" d="M36 19 L38 19 L47 19 L49 19 L54 20 L55 21 L58 22 L59 23 L60 23 L61 24 L62 25 L67 30 L68 31 L69 33 L70 34 L70 35 L71 36 L71 37 L72 38 L72 40 C71.98 40.66 71.82 42.15 73 42 L73 44 L73 54 L73 56 C71.82 55.85 71.98 57.34 72 58 L72 59 L71 60 L69 65 L68 66 L67 68 L66 69 L65 70 L64 71 L63 72 L62 73 L60 74 L59 75 L57 76 L56 77 L55 77 C54.34 76.98 52.85 76.82 53 78 L52 78 C51.34 77.98 49.85 77.82 50 79 L48 79 L38 79 L36 79 C36.15 77.82 34.66 77.98 34 78 L32 78 L31 77 L30 77 L29 76 L28 76 L27 75 L26 75 L25 74 L24 73 L18 67 L17 66 L17 65 L16 64 L13 56 C12.81 55.05 13.59 53.06 12 53 L12 45 C13.18 45.15 13.02 43.66 13 43 L14 37 L15 36 L15 35 L16 34 L16 33 L17 32 L19 29 L20 28 L21 27 L22 26 L23 25 L25 24 L26 23 L27 22 L28 22 L29 21 L30 21 L31 20 L32 20 C32.66 20.02 34.15 20.18 34 19 L36 19 z"/>
<path style="fill:#a1a1a1" d="M31 20 L30 21 L31 20 z"/>
<path style="fill:#656565" d="M55 21 L54 20 L55 21 z"/>
<path style="fill:#7f7f7f" d="M29 21 L28 22 L29 21 z"/>
<path style="fill:#9f9f9f" d="M27 22 L26 23 L27 22 z"/>
<path style="fill:#676767" d="M59 23 L58 22 L59 23 z"/>
<path style="fill:#5f5f5f" d="M26 23 L25 24 L26 23 z"/>
<path style="fill:#818282" d="M38 23 C38.15 24.18 36.66 24.02 36 24 C35.85 22.82 37.34 22.98 38 23 z"/>
<path style="fill:#f8f8f8" d="M48 23 C47.85 24.18 49.34 24.02 50 24 L51 24 C50.85 25.18 52.34 25.02 53 25 L54 25 L55 26 L57 27 L58 28 L64 34 L65 35 L65 36 L66 37 L66 38 L67 39 L67 40 C66.98 40.66 66.82 42.15 68 42 L68 43 C68.19 43.95 67.41 45.94 69 46 L69 51 L68 55 L68 56 C66.82 55.85 66.98 57.34 67 58 L67 59 L66 60 L66 61 L65 62 L64 64 L63 65 L62 66 L60 56 L60 54 L60 32 L50 31 L49 32 L48 32 L25 31 L25 30 L26 29 L27 28 L29 27 L30 26 L31 26 L32 25 L33 25 L34 24 L36 24 C36.66 24.02 38.15 24.18 38 23 L48 23 z"/>
<path style="fill:#626363" d="M50 24 C49.34 24.02 47.85 24.18 48 23 C48.66 22.98 50.15 22.82 50 24 z"/>
<path style="fill:#9f9f9f" d="M61 24 L60 23 L61 24 z"/>
<path style="fill:#6f6f6f" d="M34 24 L33 25 L34 24 z"/>
<path style="fill:#777777" d="M53 25 C52.34 25.02 50.85 25.18 51 24 C51.66 23.98 53.15 23.82 53 25 z"/>
<path style="fill:#6e6e6e" d="M62 25 L61 24 L62 25 z"/>
<path style="fill:#8f8f8f" d="M23 25 L22 26 L23 25 z"/>
<path style="fill:#979797" d="M32 25 L31 26 L32 25 z"/>
<path style="fill:#696969" d="M55 26 L54 25 L55 26 z"/>
<path style="fill:#7c7c7c" d="M22 26 L21 27 L22 26 z"/>
<path style="fill:#848484" d="M30 26 L29 27 L30 26 z"/>
<path style="fill:#818181" d="M21 27 L20 28 L21 27 z"/>
<path style="fill:#8b8b8b" d="M58 28 L57 27 L58 28 z"/>
<path style="fill:#979797" d="M20 28 L19 29 L20 28 z"/>
<path style="fill:#727272" d="M27 28 L26 29 L27 28 z"/>
<path style="fill:#929292" d="M26 29 L25 30 L26 29 z"/>
<path style="fill:#989898" d="M25 30 L25 31 L24 31 L25 30 z"/>
<path style="fill:#929292" d="M68 31 L67 30 L68 31 z"/>
<path style="fill:#868686" d="M24 31 L23 32 L24 31 z"/>
<path style="fill:#fafbfb" d="M25 31 L25 32 L26 42 L37 42 L25 44 L25 66 L25 67 L24 67 L23 66 L22 64 L21 63 L20 62 L20 61 L19 60 L19 59 L18 58 L18 56 C18.02 55.34 18.18 53.85 17 54 L17 52 L17 46 L18 42 L18 41 C19.18 41.15 19.02 39.66 19 39 L19 38 L20 37 L20 36 L21 35 L22 33 L23 32 L24 31 L25 31 z"/>
<path style="fill:#808181" d="M48 32 L26 32 L25 32 L25 31 L48 32 z"/>
<path style="fill:#b9b9b9" d="M50 31 L50 32 L50 43 L49 43 L49 32 L50 31 z"/>
<path style="fill:#808080" d="M60 32 L50 32 L50 31 L60 32 z"/>
<path style="fill:#979797" d="M17 32 L16 33 L17 32 z"/>
<path style="fill:#747474" d="M23 32 L22 33 L23 32 z"/>
<path style="fill:#555656" d="M26 32 L26 41 L26 42 L25 32 L26 32 z"/>
<path style="fill:#010101" d="M48 32 L48 43 C47.78 44.33 50.22 44.33 50 43 L50 32 L60 32 L60 54 L48 55 L59 56 L60 56 L60 66 L38 66 L37 54 L36 54 L35 66 L26 66 L26 44 L37 42 L26 41 L26 32 L48 32 z"/>
<path style="fill:#e2e2e2" d="M49 32 L49 43 L48 43 L48 32 L49 32 z"/>
<path style="fill:#858585" d="M70 34 L69 33 L70 34 z"/>
<path style="fill:#808080" d="M16 34 L15 35 L16 34 z"/>
<path style="fill:#6c6c6c" d="M65 35 L64 34 L65 35 z"/>
<path style="fill:#808080" d="M21 35 L20 36 L21 35 z"/>
<path style="fill:#8d8d8d" d="M71 36 L70 35 L71 36 z"/>
<path style="fill:#9a9a9a" d="M15 36 L14 37 L15 36 z"/>
<path style="fill:#9a9a9a" d="M66 37 L65 36 L66 37 z"/>
<path style="fill:#a0a0a0" d="M20 37 L19 38 L20 37 z"/>
<path style="fill:#a0a0a0" d="M72 38 L71 37 L72 38 z"/>
<path style="fill:#8d8d8d" d="M67 39 L66 38 L67 39 z"/>
<path style="fill:#aaaaaa" d="M19 39 C19.02 39.66 19.18 41.15 18 41 C17.98 40.34 17.82 38.85 19 39 z"/>
<path style="fill:#7f8080" d="M68 42 C66.82 42.15 66.98 40.66 67 40 C68.18 39.85 68.02 41.34 68 42 z"/>
<path style="fill:#838383" d="M73 42 C71.82 42.15 71.98 40.66 72 40 C73.18 39.85 73.02 41.34 73 42 z"/>
<path style="fill:#232323" d="M37 42 L26 42 L26 41 L37 42 z"/>
<path style="fill:#adadad" d="M18 42 L17 46 L18 42 z"/>
<path style="fill:#717171" d="M26 44 L25 44 L37 42 L26 44 z"/>
<path style="fill:#616262" d="M13 43 C13.02 43.66 13.18 45.15 12 45 C11.98 44.34 11.82 42.85 13 43 z"/>
<path style="fill:#5f5f5f" d="M49 43 L50 43 C50.22 44.33 47.78 44.33 48 43 L49 43 z"/>
<path style="fill:#575757" d="M69 46 C67.41 45.94 68.19 43.95 68 43 C69.59 43.06 68.81 45.05 69 46 z"/>
<path style="fill:#595959" d="M26 44 L26 66 L25 66 L25 44 L26 44 z"/>
<path style="fill:#9e9e9e" d="M73 54 L73 44 C74.66 45.99 74.66 52.01 73 54 z"/>
<path style="fill:#414242" d="M17 46 L17 52 C15.38 51.27 15.38 46.73 17 46 z"/>
<path style="fill:#626262" d="M69 51 L68 55 L69 51 z"/>
<path style="fill:#848484" d="M13 56 C11.41 55.94 12.19 53.95 12 53 C13.59 53.06 12.81 55.05 13 56 z"/>
<path style="fill:#757676" d="M18 56 C16.82 56.15 16.98 54.66 17 54 C18.18 53.85 18.02 55.34 18 56 z"/>
<path style="fill:#363636" d="M36 54 L36 66 L35 66 L36 54 z"/>
<path style="fill:#f9fafa" d="M37 54 L37 66 L60 67 L60 68 L59 69 L58 70 L56 71 L55 72 L54 72 L53 73 L52 73 C51.34 72.98 49.85 72.82 50 74 L47 74 L39 74 L36 74 C36.15 72.82 34.66 72.98 34 73 L29 71 L28 70 L25 68 L25 67 L36 66 L36 54 L37 54 z"/>
<path style="fill:#585858" d="M38 66 L37 66 L37 54 L38 66 z"/>
<path style="fill:#dbdcdc" d="M60 54 L60 56 L59 56 L48 55 L60 54 z"/>
<path style="fill:#b9baba" d="M59 56 L48 55 L59 56 z"/>
<path style="fill:#e4e4e4" d="M62 66 L60 68 L60 67 L60 66 L60 56 L62 66 z"/>
<path style="fill:#646565" d="M68 56 C68.02 56.66 68.18 58.15 67 58 C66.98 57.34 66.82 55.85 68 56 z"/>
<path style="fill:#9d9e9e" d="M73 56 C73.02 56.66 73.18 58.15 72 58 C71.98 57.34 71.82 55.85 73 56 z"/>
<path style="fill:#5c5c5c" d="M19 59 L18 58 L19 59 z"/>
<path style="fill:#767676" d="M67 59 L66 60 L67 59 z"/>
<path style="fill:#646464" d="M72 59 L71 60 L72 59 z"/>
<path style="fill:#6f6f6f" d="M20 61 L19 60 L20 61 z"/>
<path style="fill:#6d6d6d" d="M66 61 L65 62 L66 61 z"/>
<path style="fill:#626262" d="M21 63 L20 62 L21 63 z"/>
<path style="fill:#a8a8a8" d="M22 64 L21 63 L22 64 z"/>
<path style="fill:#5e5e5e" d="M17 65 L16 64 L17 65 z"/>
<path style="fill:#6c6c6c" d="M64 64 L63 65 L64 64 z"/>
<path style="fill:#696969" d="M69 65 L68 66 L69 65 z"/>
<path style="fill:#969696" d="M18 67 L17 66 L18 67 z"/>
<path style="fill:#676767" d="M24 67 L23 66 L24 67 z"/>
<path style="fill:#a5a5a5" d="M26 66 L35 66 L36 66 L25 67 L25 66 L26 66 z"/>
<path style="fill:#b0b1b1" d="M38 66 L60 66 L60 67 L37 66 L38 66 z"/>
<path style="fill:#616161" d="M25 67 L25 68 L24 67 L25 67 z"/>
<path style="fill:#949494" d="M67 68 L66 69 L67 68 z"/>
<path style="fill:#717171" d="M59 69 L58 70 L59 69 z"/>
<path style="fill:#737373" d="M66 69 L65 70 L66 69 z"/>
<path style="fill:#7e7e7e" d="M29 71 L28 70 L29 71 z"/>
<path style="fill:#737373" d="M65 70 L64 71 L65 70 z"/>
<path style="fill:#767676" d="M56 71 L55 72 L56 71 z"/>
<path style="fill:#737373" d="M64 71 L63 72 L64 71 z"/>
<path style="fill:#7c7c7c" d="M54 72 L53 73 L54 72 z"/>
<path style="fill:#828282" d="M63 72 L62 73 L63 72 z"/>
<path style="fill:#656565" d="M25 74 L24 73 L25 74 z"/>
<path style="fill:#8c8d8d" d="M36 74 C35.34 74.02 33.85 74.18 34 73 C34.66 72.98 36.15 72.82 36 74 z"/>
<path style="fill:#727373" d="M52 73 C52.15 74.18 50.66 74.02 50 74 C49.85 72.82 51.34 72.98 52 73 z"/>
<path style="fill:#9a9a9a" d="M26 75 L25 74 L26 75 z"/>
<path style="fill:#b6b7b7" d="M47 74 C45.66 75.65 40.34 75.65 39 74 L47 74 z"/>
<path style="fill:#606060" d="M60 74 L59 75 L60 74 z"/>
<path style="fill:#818181" d="M28 76 L27 75 L28 76 z"/>
<path style="fill:#6d6d6d" d="M30 77 L29 76 L30 77 z"/>
<path style="fill:#9d9d9d" d="M57 76 L56 77 L57 76 z"/>
<path style="fill:#898989" d="M32 78 L31 77 L32 78 z"/>
<path style="fill:#868686" d="M55 77 C55.15 78.18 53.66 78.02 53 78 C52.85 76.82 54.34 76.98 55 77 z"/>
<path style="fill:#696a6a" d="M36 79 C35.34 79.02 33.85 79.18 34 78 C34.66 77.98 36.15 77.82 36 79 z"/>
<path style="fill:#848585" d="M52 78 C52.15 79.18 50.66 79.02 50 79 C49.85 77.82 51.34 77.98 52 78 z"/>
<path style="fill:#9b9b9b" d="M48 79 C46.01 80.66 39.99 80.66 38 79 L48 79 z"/>
</svg>
