<?xml version="1.0" standalone="yes"?>
<svg width="87" height="97">
<path style="fill:#fcfdfd" d="M87 0 L87 97 L0 97 L0 0 L87 0 z"/>
<path style="fill:#9c9d9d" d="M46 17 L39 17 C40.03 15.36 44.97 15.36 46 17 z"/>
<path style="fill:#979797" d="M38 17 L37 18 L38 17 z"/>
<path style="fill:#080808" d="M39 17 L46 17 L47 17 L48 18 L50 20 L51 21 L51 22 L51 25 L50 25 C45.23 26.46 40.63 27.9 36 25 L35 20 C36.25 21.21 38.95 26.24 41 23 L42 19 L37 18 L38 17 L39 17 z"/>
<path style="fill:#909090" d="M48 18 L47 17 L48 18 z"/>
<path style="fill:#2d2e2e" d="M37 18 L42 19 C41.02 19.4 39.68 22.73 41 23 C38.95 26.24 36.25 21.21 35 20 L37 18 z"/>
<path style="fill:#b4b4b4" d="M42 19 L41 23 C39.68 22.73 41.02 19.4 42 19 z"/>
<path style="fill:#6d6e6e" d="M35 20 L36 25 L34 25 L34 22 C33.98 21.34 33.82 19.85 35 20 z"/>
<path style="fill:#a6a7a7" d="M37 20 C40.22 19.27 37.7 22.52 37 20 z"/>
<path style="fill:#818181" d="M51 21 L50 20 L51 21 z"/>
<path style="fill:#919292" d="M31 22 L31 25 C28.86 24.79 28.86 22.21 31 22 z"/>
<path style="fill:#2e2e2e" d="M34 22 L34 25 L31 25 L31 22 L34 22 z"/>
<path style="fill:#696969" d="M51 25 L51 22 C52.48 21.96 52.48 25.04 51 25 z"/>
<path style="fill:#a2a3a3" d="M50 25 L50 26 L50 27 C44.9 27.75 40.89 29.83 36 27 L36 26 L36 25 C40.63 27.9 45.23 26.46 50 25 z"/>
<path style="fill:#8d8e8e" d="M28 26 L28 27 L26 27 C25.85 25.82 27.34 25.98 28 26 z"/>
<path style="fill:#3e3e3e" d="M36 26 L36 27 L28 27 L28 26 L36 26 z"/>
<path style="fill:#373737" d="M57 26 L57 27 L50 27 L50 26 L57 26 z"/>
<path style="fill:#8d8e8e" d="M59 27 L57 27 L57 26 C57.66 25.98 59.15 25.82 59 27 z"/>
<path style="fill:#6a6b6b" d="M25 27 C25.15 28.18 23.66 28.02 23 28 C22.85 26.82 24.34 26.98 25 27 z"/>
<path style="fill:#050505" d="M26 27 L28 27 L36 27 C40.89 29.83 44.9 27.75 50 27 L57 27 L59 27 L63 28 L64 29 L65 29 L66 30 L67 31 L62 33 L60 33 C59.34 32.98 57.85 32.82 58 34 C57.34 33.98 55.85 33.82 56 35 L55 35 L54 36 L53 36 L52 37 L51 37 L50 38 L49 39 L48 40 L45 43 L44 44 L43 46 L42 46 L41 44 L40 43 L37 40 L36 39 L35 38 L34 37 L33 37 L32 36 L31 36 L30 35 L26 34 C26.15 32.82 24.66 32.98 24 33 L23 33 L18 31 L19 30 L21 29 L22 28 L23 28 C23.66 28.02 25.15 28.18 25 27 L26 27 z"/>
<path style="fill:#777777" d="M22 28 L21 29 L22 28 z"/>
<path style="fill:#6d6d6d" d="M64 29 L63 28 L64 29 z"/>
<path style="fill:#a9a9a9" d="M66 30 L65 29 L66 30 z"/>
<path style="fill:#959595" d="M19 30 L18 31 L19 30 z"/>
<path style="fill:#8e8e8e" d="M67 31 L66 30 L67 31 z"/>
<path style="fill:#646565" d="M18 31 L23 33 C21.05 33.06 13.27 33.56 18 31 z"/>
<path style="fill:#626363" d="M62 33 L67 31 C71.73 33.56 63.95 33.06 62 33 z"/>
<path style="fill:#a2a3a3" d="M26 34 C25.34 34.02 23.85 34.18 24 33 C24.66 32.98 26.15 32.82 26 34 z"/>
<path style="fill:#656666" d="M60 33 C60.15 34.18 58.66 34.02 58 34 C57.85 32.82 59.34 32.98 60 33 z"/>
<path style="fill:#5f5f5f" d="M16 35 L15 35 C14.57 33.94 16.43 33.94 16 35 z"/>
<path style="fill:#999a9a" d="M58 34 C58.15 35.18 56.66 35.02 56 35 C55.85 33.82 57.34 33.98 58 34 z"/>
<path style="fill:#070707" d="M70 34 L70 44 L70 46 C68.82 45.85 68.98 47.34 69 48 L68 49 L67 52 L63 57 C59.36 56.87 58.42 61.09 59 64 L58 65 L58 67 C56.82 66.85 56.98 68.34 57 69 L57 70 L56 71 L49 78 L48 79 L47 79 L46 80 L45 80 L44 79 L46 74 L47 73 L47 71 C48.18 71.15 48.02 69.66 48 69 L48 66 C49.62 65.27 49.62 60.73 48 60 L47 54 L46 53 L45 51 L50 49 L52 49 C52.66 49.02 54.15 49.18 54 48 L56 48 L57 47 L59 46 L60 45 L67 38 L68 37 L70 34 z"/>
<path style="fill:#6e6e6e" d="M70 44 L70 34 C71.66 35.99 71.66 42.01 70 44 z"/>
<path style="fill:#a7a7a7" d="M15 35 L15 42 C13.36 40.97 13.36 36.03 15 35 z"/>
<path style="fill:#060707" d="M16 35 L17 36 L18 38 L19 39 L25 45 L26 46 L27 47 L30 48 C29.85 49.18 31.34 49.02 32 49 L35 49 L41 51 L40 52 L39 53 L39 54 C37.82 53.85 37.98 55.34 38 56 C36.82 55.85 36.98 57.34 37 58 L37 67 C37.19 67.95 36.41 69.94 38 70 L38 73 L39 74 L39 75 L40 76 L40 77 L41 78 L41 79 L40 80 L39 80 L38 79 L37 79 L36 78 L30 72 L29 71 L29 70 L27 66 L26 60 L19 53 L19 52 L18 51 L16 46 C16.02 45.34 16.18 43.85 15 44 L15 42 L15 35 L16 35 z"/>
<path style="fill:#7a7a7a" d="M17 36 L16 35 L17 36 z"/>
<path style="fill:#9c9c9c" d="M31 36 L30 35 L31 36 z"/>
<path style="fill:#9a9a9a" d="M55 35 L54 36 L55 35 z"/>
<path style="fill:#9d9d9d" d="M33 37 L32 36 L33 37 z"/>
<path style="fill:#9b9b9b" d="M53 36 L52 37 L53 36 z"/>
<path style="fill:#636363" d="M35 38 L34 37 L35 38 z"/>
<path style="fill:#6c6c6c" d="M51 37 L50 38 L51 37 z"/>
<path style="fill:#696969" d="M68 37 L67 38 L68 37 z"/>
<path style="fill:#828282" d="M19 39 L18 38 L19 39 z"/>
<path style="fill:#747474" d="M36 39 L35 38 L36 39 z"/>
<path style="fill:#757575" d="M50 38 L49 39 L50 38 z"/>
<path style="fill:#898989" d="M37 40 L36 39 L37 40 z"/>
<path style="fill:#949494" d="M49 39 L48 40 L49 39 z"/>
<path style="fill:#959595" d="M41 44 L40 43 L41 44 z"/>
<path style="fill:#979797" d="M45 43 L44 44 L45 43 z"/>
<path style="fill:#666666" d="M16 46 C14.82 46.15 14.98 44.66 15 44 C16.18 43.85 16.02 45.34 16 46 z"/>
<path style="fill:#838383" d="M26 46 L25 45 L26 46 z"/>
<path style="fill:#8f8f8f" d="M60 45 L59 46 L60 45 z"/>
<path style="fill:#5c5c5c" d="M27 47 L26 46 L27 47 z"/>
<path style="fill:#6f6f6f" d="M43 46 C43.43 47.06 41.57 47.06 42 46 L43 46 z"/>
<path style="fill:#aeaeae" d="M70 46 C70.02 46.66 70.18 48.15 69 48 C68.98 47.34 68.82 45.85 70 46 z"/>
<path style="fill:#a0a0a0" d="M57 47 L56 48 L57 47 z"/>
<path style="fill:#707171" d="M32 49 C31.34 49.02 29.85 49.18 30 48 C30.66 47.98 32.15 47.82 32 49 z"/>
<path style="fill:#9e9e9e" d="M54 48 C54.15 49.18 52.66 49.02 52 49 C51.85 47.82 53.34 47.98 54 48 z"/>
<path style="fill:#7a7a7a" d="M69 48 L68 49 L69 48 z"/>
<path style="fill:#bebfbf" d="M41 51 L35 49 C36.8 49.13 44.09 48.12 41 51 z"/>
<path style="fill:#8e8f8f" d="M50 49 L45 51 C41.88 48.46 48.34 48.93 50 49 z"/>
<path style="fill:#7e7f7f" d="M71 53 L69 53 L69 51 C69.96 47.84 74.16 52.04 71 53 z"/>
<path style="fill:#6e6e6e" d="M19 52 L18 51 L19 52 z"/>
<path style="fill:#a4a4a4" d="M41 51 L40 52 L41 51 z"/>
<path style="fill:#2a2a2a" d="M69 51 L69 53 C67.84 53.93 66.55 54.02 67 52 L69 51 z"/>
<path style="fill:#646464" d="M40 52 L39 53 L40 52 z"/>
<path style="fill:#9e9e9e" d="M67 52 C66.55 54.02 67.84 53.93 69 53 C68.55 55.02 69.84 54.93 71 54 L71 56 C67.52 55.42 65.92 55.56 63 57 L67 52 z"/>
<path style="fill:#1b1b1b" d="M71 53 L71 54 C69.84 54.93 68.55 55.02 69 53 L71 53 z"/>
<path style="fill:#6f6f6f" d="M17 53 L16 54 L17 53 z"/>
<path style="fill:#0a0a0a" d="M18 53 C18.92 56.54 22.46 57.79 25 60 L26 67 L20 70 L19 69 L16 66 L15 65 L14 63 L14 57 L14 56 L15 55 L16 54 L17 53 L18 53 z"/>
<path style="fill:#a4a5a5" d="M19 53 L26 60 L25 60 C22.46 57.79 18.92 56.54 18 53 L19 53 z"/>
<path style="fill:#5d5d5d" d="M47 54 L46 53 L47 54 z"/>
<path style="fill:#7b7b7b" d="M16 54 L15 55 L16 54 z"/>
<path style="fill:#898989" d="M39 54 C39.02 54.66 39.18 56.15 38 56 C37.98 55.34 37.82 53.85 39 54 z"/>
<path style="fill:#a8a8a8" d="M15 55 L14 56 L15 55 z"/>
<path style="fill:#0b0b0b" d="M71 56 C70.98 56.66 70.82 58.15 72 58 L72 61 C70.82 60.85 70.98 62.34 71 63 L69 67 L68 68 L66 69 L65 70 L60 70 L59 68 C60.09 64.24 60.32 60.11 63 57 C65.92 55.56 67.52 55.42 71 56 z"/>
<path style="fill:#555555" d="M38 56 C38.02 56.66 38.18 58.15 37 58 C36.98 57.34 36.82 55.85 38 56 z"/>
<path style="fill:#6e6f6f" d="M72 58 C70.82 58.15 70.98 56.66 71 56 C72.18 55.85 72.02 57.34 72 58 z"/>
<path style="fill:#919292" d="M14 57 L14 63 C12.38 62.27 12.38 57.73 14 57 z"/>
<path style="fill:#b1b1b1" d="M63 57 C60.32 60.11 60.09 64.24 59 68 L58 67 L58 65 L59 64 C58.42 61.09 59.36 56.87 63 57 z"/>
<path style="fill:#2e2e2e" d="M68 58 C67.54 59.35 68.65 60.46 70 60 L68 62 L65 59 C65.31 57.29 66.84 56.85 68 58 z"/>
<path style="fill:#808181" d="M70 60 C68.65 60.46 67.54 59.35 68 58 C69.35 57.54 70.46 58.65 70 60 z"/>
<path style="fill:#9a9a9a" d="M68 62 C69.98 64.37 62.74 62.09 65 59 L68 62 z"/>
<path style="fill:#c6c7c7" d="M26 60 L27 66 L27 68 L26 68 L26 67 L25 60 L26 60 z"/>
<path style="fill:#747575" d="M48 66 L48 60 C49.62 60.73 49.62 65.27 48 66 z"/>
<path style="fill:#606060" d="M72 61 C72.02 61.66 72.18 63.15 71 63 C70.98 62.34 70.82 60.85 72 61 z"/>
<path style="fill:#a4a5a5" d="M22 64 C21.81 65.55 18.19 65.55 18 64 C19.36 62.92 20.64 62.92 22 64 z"/>
<path style="fill:#3a3a3a" d="M18 64 C18.19 65.55 21.81 65.55 22 64 C24.1 64.46 21.97 67.54 21 68 C21.43 66.94 19.57 66.94 20 68 L18 64 z"/>
<path style="fill:#5b5b5b" d="M59 64 L58 65 L59 64 z"/>
<path style="fill:#626262" d="M16 66 L15 65 L16 66 z"/>
<path style="fill:#828282" d="M29 70 L27 73 L27 68 L27 66 L29 70 z"/>
<path style="fill:#d9d9d9" d="M21 68 L20 68 C19.57 66.94 21.43 66.94 21 68 z"/>
<path style="fill:#9a9b9b" d="M26 67 L26 68 L24 71 L20 70 L26 67 z"/>
<path style="fill:#a2a2a2" d="M38 70 C36.41 69.94 37.19 67.95 37 67 C38.59 67.06 37.81 69.05 38 70 z"/>
<path style="fill:#6b6b6b" d="M58 67 L59 68 L60 70 L57 69 C56.98 68.34 56.82 66.85 58 67 z"/>
<path style="fill:#a9a9a9" d="M69 67 L68 68 L69 67 z"/>
<path style="fill:#383939" d="M27 68 L27 73 C25.66 73.33 24.26 72.29 24 71 L26 68 L27 68 z"/>
<path style="fill:#6f6f6f" d="M20 70 L19 69 L20 70 z"/>
<path style="fill:#9e9e9e" d="M48 69 C48.02 69.66 48.18 71.15 47 71 C46.98 70.34 46.82 68.85 48 69 z"/>
<path style="fill:#767676" d="M66 69 L65 70 L66 69 z"/>
<path style="fill:#969696" d="M57 70 L56 71 L57 70 z"/>
<path style="fill:#b8b8b8" d="M65 70 C64.55 71.6 60.45 71.6 60 70 L65 70 z"/>
<path style="fill:#7f7f7f" d="M30 72 L29 71 L30 72 z"/>
<path style="fill:#5d5d5d" d="M39 74 L38 73 L39 74 z"/>
<path style="fill:#919191" d="M47 73 L46 74 L47 73 z"/>
<path style="fill:#7c7c7c" d="M40 76 L39 75 L40 76 z"/>
<path style="fill:#727272" d="M41 78 L40 77 L41 78 z"/>
<path style="fill:#939393" d="M37 79 L36 78 L37 79 z"/>
<path style="fill:#8c8c8c" d="M49 78 L48 79 L49 78 z"/>
<path style="fill:#7e7e7e" d="M39 80 L38 79 L39 80 z"/>
<path style="fill:#848484" d="M40 80 L41 79 C43.66 79.33 40.33 82.66 40 80 z"/>
<path style="fill:#a8a8a8" d="M44 79 L45 80 C44.67 82.66 41.34 79.33 44 79 z"/>
<path style="fill:#8b8b8b" d="M47 79 L46 80 L47 79 z"/>
</svg>
