<?xml version="1.0" standalone="yes"?>
<svg width="87" height="97">
<path style="fill:#fcfdfd" d="M87 0 L87 97 L0 97 L0 0 L87 0 z"/>
<path style="fill:#858585" d="M41 17 C41.15 18.18 39.66 18.02 39 18 C38.85 16.82 40.34 16.98 41 17 z"/>
<path style="fill:#040505" d="M46 17 C45.85 18.18 47.34 18.02 48 18 L49 18 L50 19 L51 20 L52 21 L53 22 L54 23 L54 24 C53.98 24.66 53.82 26.15 55 26 L55 32 L55 33 L54 34 L54 35 L53 36 L51 38 L50 39 L48 40 C47.34 39.98 45.85 39.82 46 41 L41 41 C41.15 39.82 39.66 39.98 39 40 L38 40 L37 39 L33 36 L32 33 L32 26 L33 23 L34 22 L37 19 L38 18 L39 18 C39.66 18.02 41.15 18.18 41 17 L46 17 z"/>
<path style="fill:#909090" d="M48 18 C47.34 18.02 45.85 18.18 46 17 C46.66 16.98 48.15 16.82 48 18 z"/>
<path style="fill:#9c9c9c" d="M38 18 L37 19 L38 18 z"/>
<path style="fill:#a2a2a2" d="M50 19 L49 18 L50 19 z"/>
<path style="fill:#6a6a6a" d="M51 20 L50 19 L51 20 z"/>
<path style="fill:#585858" d="M53 22 L52 21 L53 22 z"/>
<path style="fill:#5b5b5b" d="M34 22 L33 23 L34 22 z"/>
<path style="fill:#878787" d="M54 23 L53 22 L54 23 z"/>
<path style="fill:#5a5b5b" d="M55 26 C53.82 26.15 53.98 24.66 54 24 C55.18 23.85 55.02 25.34 55 26 z"/>
<path style="fill:#909191" d="M32 26 L32 33 C30.36 31.97 30.36 27.03 32 26 z"/>
<path style="fill:#aeafaf" d="M55 32 L55 26 C56.62 26.73 56.62 31.27 55 32 z"/>
<path style="fill:#3d3d3d" d="M26 32 L26 33 L19 33 L26 32 z"/>
<path style="fill:#a7a8a8" d="M28 33 L26 33 L26 32 C26.66 31.98 28.15 31.82 28 33 z"/>
<path style="fill:#989898" d="M61 32 C61.15 33.18 59.66 33.02 59 33 C58.85 31.82 60.34 31.98 61 32 z"/>
<path style="fill:#040505" d="M67 32 C66.85 33.18 68.34 33.02 69 33 L70 34 L71 34 L72 35 L73 36 L74 37 L74 38 L75 39 L75 40 L75 48 L75 49 L74 50 L73 52 L72 53 L71 54 L70 54 L69 55 L68 55 C67.34 54.98 65.85 54.82 66 56 L62 56 C62.15 54.82 60.66 54.98 60 55 L57 54 L56 53 L55 52 L54 51 L53 48 C53.02 47.34 53.18 45.85 52 46 C51.63 42.7 52.17 39.66 54 37 L55 36 L56 35 L57 34 L59 33 C59.66 33.02 61.15 33.18 61 32 L67 32 z"/>
<path style="fill:#a4a4a4" d="M69 33 C68.34 33.02 66.85 33.18 67 32 C67.66 31.98 69.15 31.82 69 33 z"/>
<path style="fill:#5c5c5c" d="M18 33 L17 34 L18 33 z"/>
<path style="fill:#030303" d="M19 33 L26 33 L28 33 L29 34 L30 34 L31 35 L32 36 L33 38 L34 39 L34 40 L34 47 L34 49 L33 50 L32 52 L31 53 L29 54 L28 55 L27 55 C26.34 54.98 24.85 54.82 25 56 L21 56 C21.15 54.82 19.66 54.98 19 55 L18 55 L17 54 L16 54 L15 53 L14 52 L13 51 L12 48 C12.02 47.34 12.18 45.85 11 46 L11 42 C12.18 42.15 12.02 40.66 12 40 L13 37 L14 36 L15 35 L16 34 L17 34 L18 33 L19 33 z"/>
<path style="fill:#696969" d="M29 34 L28 33 L29 34 z"/>
<path style="fill:#767676" d="M55 33 L54 34 L55 33 z"/>
<path style="fill:#686868" d="M70 34 L69 33 L70 34 z"/>
<path style="fill:#8a8a8a" d="M16 34 L15 35 L16 34 z"/>
<path style="fill:#909090" d="M31 35 L30 34 L31 35 z"/>
<path style="fill:#7c7c7c" d="M57 34 L56 35 L57 34 z"/>
<path style="fill:#9f9f9f" d="M72 35 L71 34 L72 35 z"/>
<path style="fill:#7d7d7d" d="M15 35 L14 36 L15 35 z"/>
<path style="fill:#858585" d="M32 36 L31 35 L32 36 z"/>
<path style="fill:#878787" d="M54 35 L54 36 L53 36 L54 35 z"/>
<path style="fill:#707070" d="M56 35 L55 36 L56 35 z"/>
<path style="fill:#949494" d="M73 36 L72 35 L73 36 z"/>
<path style="fill:#919191" d="M14 36 L13 37 L14 36 z"/>
<path style="fill:#e5e5e5" d="M33 36 L37 39 L38 40 L39 40 C38.85 41.18 40.34 41.02 41 41 L46 41 C46.66 41.02 48.15 41.18 48 40 L50 39 L51 38 L53 36 L54 36 L54 37 C52.17 39.66 51.63 42.7 52 46 L52 48 L51 48 L50 45 L49 44 L47 43 C47.15 41.82 45.66 41.98 45 42 L42 42 C41.34 41.98 39.85 41.82 40 43 L39 43 L38 44 L37 45 C34.43 48.31 34.43 52.69 37 56 L36 57 L35 57 C35.15 55.82 33.66 55.98 33 56 L29 56 L27 56 L27 55 L28 55 L29 54 L31 53 L32 52 L33 50 L34 49 L34 47 C35.64 45.97 35.64 41.03 34 40 L34 39 L33 38 L32 36 L33 36 z"/>
<path style="fill:#8a8a8a" d="M55 36 L54 37 L54 36 L55 36 z"/>
<path style="fill:#a9a9a9" d="M74 37 L73 36 L74 37 z"/>
<path style="fill:#666666" d="M34 39 L33 38 L34 39 z"/>
<path style="fill:#5d5d5d" d="M51 38 L50 39 L51 38 z"/>
<path style="fill:#737373" d="M75 39 L74 38 L75 39 z"/>
<path style="fill:#878787" d="M38 40 L37 39 L38 40 z"/>
<path style="fill:#5b5c5c" d="M12 40 C12.02 40.66 12.18 42.15 11 42 C10.98 41.34 10.82 39.85 12 40 z"/>
<path style="fill:#4b4b4b" d="M34 47 L34 40 C35.64 41.03 35.64 45.97 34 47 z"/>
<path style="fill:#747474" d="M41 41 C40.34 41.02 38.85 41.18 39 40 C39.66 39.98 41.15 39.82 41 41 z"/>
<path style="fill:#858585" d="M48 40 C48.15 41.18 46.66 41.02 46 41 C45.85 39.82 47.34 39.98 48 40 z"/>
<path style="fill:#5e5f5f" d="M75 48 L75 40 C76.65 41.34 76.65 46.66 75 48 z"/>
<path style="fill:#616161" d="M42 42 C42.15 43.18 40.66 43.02 40 43 C39.85 41.82 41.34 41.98 42 42 z"/>
<path style="fill:#040505" d="M45 42 C44.85 43.18 46.34 43.02 47 43 L49 44 L50 45 L51 48 L51 53 C50.97 55.34 48.34 57.97 46 58 L42 58 C39.76 58.78 38.67 56.77 37 56 C34.43 52.69 34.43 48.31 37 45 L38 44 L39 43 L40 43 C40.66 43.02 42.15 43.18 42 42 L45 42 z"/>
<path style="fill:#686969" d="M47 43 C46.34 43.02 44.85 43.18 45 42 C45.66 41.98 47.15 41.82 47 43 z"/>
<path style="fill:#808080" d="M39 43 L38 44 L39 43 z"/>
<path style="fill:#727272" d="M38 44 L37 45 L38 44 z"/>
<path style="fill:#888888" d="M50 45 L49 44 L50 45 z"/>
<path style="fill:#5b5c5c" d="M12 48 C10.82 48.15 10.98 46.66 11 46 C12.18 45.85 12.02 47.34 12 48 z"/>
<path style="fill:#5b5b5b" d="M53 48 L52 48 L52 46 C53.18 45.85 53.02 47.34 53 48 z"/>
<path style="fill:#555656" d="M52 48 L51 53 L51 48 L52 48 z"/>
<path style="fill:#e4e4e4" d="M53 48 L54 51 L55 52 L56 53 L57 54 L60 55 L59 56 L52 57 L51 57 L50 58 L47 60 L46 59 L46 58 C48.34 57.97 50.97 55.34 51 53 L52 48 L53 48 z"/>
<path style="fill:#757575" d="M34 49 L33 50 L34 49 z"/>
<path style="fill:#7a7a7a" d="M75 49 L74 50 L75 49 z"/>
<path style="fill:#959595" d="M14 52 L13 51 L14 52 z"/>
<path style="fill:#818181" d="M55 52 L54 51 L55 52 z"/>
<path style="fill:#808080" d="M15 53 L14 52 L15 53 z"/>
<path style="fill:#848484" d="M32 52 L31 53 L32 52 z"/>
<path style="fill:#717171" d="M56 53 L55 52 L56 53 z"/>
<path style="fill:#939393" d="M73 52 L72 53 L73 52 z"/>
<path style="fill:#929292" d="M16 54 L15 53 L16 54 z"/>
<path style="fill:#808080" d="M57 54 L56 53 L57 54 z"/>
<path style="fill:#a6a6a6" d="M72 53 L71 54 L72 53 z"/>
<path style="fill:#626262" d="M18 55 L17 54 L18 55 z"/>
<path style="fill:#6f6f6f" d="M29 54 L28 55 L29 54 z"/>
<path style="fill:#6e6e6e" d="M70 54 L69 55 L70 54 z"/>
<path style="fill:#6e6f6f" d="M21 56 C20.34 56.02 18.85 56.18 19 55 C19.66 54.98 21.15 54.82 21 56 z"/>
<path style="fill:#757676" d="M27 55 L27 56 L25 56 C24.85 54.82 26.34 54.98 27 55 z"/>
<path style="fill:#8d8e8e" d="M62 56 L61 57 L59 57 L59 56 L60 55 C60.66 54.98 62.15 54.82 62 56 z"/>
<path style="fill:#737373" d="M68 55 C68.15 56.18 66.66 56.02 66 56 C65.85 54.82 67.34 54.98 68 55 z"/>
<path style="fill:#5f5f5f" d="M29 56 C29.15 57.18 27.66 57.02 27 57 L27 56 L29 56 z"/>
<path style="fill:#040505" d="M33 56 C32.85 57.18 34.34 57.02 35 57 L36 57 L40 60 L41 62 L42 63 L42 64 L42 71 L42 73 L41 74 L37 78 L36 79 L35 79 C34.34 78.98 32.85 78.82 33 80 C29.7 80.37 26.66 79.83 24 78 L23 77 L22 76 L21 75 L20 74 L19 64 L20 63 L20 62 L21 61 L22 60 L23 59 L24 58 L27 57 C27.66 57.02 29.15 57.18 29 56 L33 56 z"/>
<path style="fill:#7a7b7b" d="M35 57 C34.34 57.02 32.85 57.18 33 56 C33.66 55.98 35.15 55.82 35 57 z"/>
<path style="fill:#afafaf" d="M42 58 L42 59 C41.34 58.98 39.85 58.82 40 60 L36 57 L37 56 C38.67 56.77 39.76 58.78 42 58 z"/>
<path style="fill:#3f3f3f" d="M59 56 L59 57 L52 57 L59 56 z"/>
<path style="fill:#6c6c6c" d="M51 57 L50 58 L51 57 z"/>
<path style="fill:#030303" d="M52 57 L59 57 L61 57 L62 58 L63 58 L64 59 L65 60 L66 61 L66 62 L67 63 L67 64 C66.98 64.66 66.82 66.15 68 66 L68 70 C66.82 69.85 66.98 71.34 67 72 L66 75 L65 76 L64 77 L63 78 L62 78 L61 79 L60 79 C59.05 79.19 57.06 78.41 57 80 L54 80 C54.15 78.82 52.66 78.98 52 79 L51 79 L50 78 L49 78 L48 77 L47 76 L46 75 L46 74 L45 73 L45 71 L45 64 L45 63 L46 62 L46 61 L47 60 L50 58 L51 57 L52 57 z"/>
<path style="fill:#5b5b5b" d="M62 58 L61 57 L62 58 z"/>
<path style="fill:#7c7c7c" d="M24 58 L23 59 L24 58 z"/>
<path style="fill:#494a4a" d="M46 58 L46 59 L42 59 L42 58 L46 58 z"/>
<path style="fill:#818181" d="M64 59 L63 58 L64 59 z"/>
<path style="fill:#5f5f5f" d="M23 59 L22 60 L23 59 z"/>
<path style="fill:#787878" d="M65 60 L64 59 L65 60 z"/>
<path style="fill:#707070" d="M22 60 L21 61 L22 60 z"/>
<path style="fill:#a3a3a3" d="M47 60 L46 61 L47 60 z"/>
<path style="fill:#878787" d="M66 61 L65 60 L66 61 z"/>
<path style="fill:#a3a3a3" d="M21 61 L20 62 L21 61 z"/>
<path style="fill:#8f8f8f" d="M42 63 L41 62 L42 63 z"/>
<path style="fill:#7b7b7b" d="M46 62 L45 63 L46 62 z"/>
<path style="fill:#575757" d="M67 63 L66 62 L67 63 z"/>
<path style="fill:#a7a7a7" d="M20 63 L19 64 L20 63 z"/>
<path style="fill:#6f6f6f" d="M42 71 L42 64 C43.64 65.03 43.64 69.97 42 71 z"/>
<path style="fill:#545555" d="M45 64 L45 71 C43.36 69.97 43.36 65.03 45 64 z"/>
<path style="fill:#565656" d="M68 66 C66.82 66.15 66.98 64.66 67 64 C68.18 63.85 68.02 65.34 68 66 z"/>
<path style="fill:#565656" d="M68 70 C68.02 70.66 68.18 72.15 67 72 C66.98 71.34 66.82 69.85 68 70 z"/>
<path style="fill:#949494" d="M42 73 L41 74 L42 73 z"/>
<path style="fill:#797979" d="M46 74 L45 73 L46 74 z"/>
<path style="fill:#a0a0a0" d="M21 75 L20 74 L21 75 z"/>
<path style="fill:#707070" d="M22 76 L21 75 L22 76 z"/>
<path style="fill:#9f9f9f" d="M47 76 L46 75 L47 76 z"/>
<path style="fill:#878787" d="M66 75 L65 76 L66 75 z"/>
<path style="fill:#616161" d="M23 77 L22 76 L23 77 z"/>
<path style="fill:#919191" d="M48 77 L47 76 L48 77 z"/>
<path style="fill:#777777" d="M65 76 L64 77 L65 76 z"/>
<path style="fill:#737373" d="M24 78 L23 77 L24 78 z"/>
<path style="fill:#a3a3a3" d="M49 78 L48 77 L49 78 z"/>
<path style="fill:#7b7b7b" d="M64 77 L63 78 L64 77 z"/>
<path style="fill:#737373" d="M37 78 L36 79 L37 78 z"/>
<path style="fill:#6a6a6a" d="M51 79 L50 78 L51 79 z"/>
<path style="fill:#565656" d="M62 78 L61 79 L62 78 z"/>
<path style="fill:#747474" d="M35 79 C35.15 80.18 33.66 80.02 33 80 C32.85 78.82 34.34 78.98 35 79 z"/>
<path style="fill:#696a6a" d="M54 80 C53.34 80.02 51.85 80.18 52 79 C52.66 78.98 54.15 78.82 54 80 z"/>
<path style="fill:#4d4e4e" d="M60 79 C59.94 80.59 57.95 79.81 57 80 C57.06 78.41 59.05 79.19 60 79 z"/>
</svg>
