<?xml version="1.0" standalone="yes"?>
<svg width="87" height="97">
<path style="fill:#fbfbfb" d="M87 0 L87 97 L0 97 L0 0 L87 0 z"/>
<path style="fill:#505151" d="M50 16 L37 16 C39.97 14.34 47.03 14.34 50 16 z"/>
<path style="fill:#939494" d="M34 16 C34.15 17.18 32.66 17.02 32 17 C31.85 15.82 33.34 15.98 34 16 z"/>
<path style="fill:#0c0d0d" d="M37 16 L50 16 L52 16 C51.85 17.18 53.34 17.02 54 17 C53.85 18.18 55.34 18.02 56 18 L57 18 L58 19 L59 19 L60 20 L61 20 L62 21 L66 24 L67 25 L68 26 L69 27 L70 29 L71 30 C70.98 30.66 70.82 32.15 72 32 L73 33 C72.98 33.66 72.82 35.15 74 35 L74 36 C73.98 36.66 73.82 38.15 75 38 L76 45 L76 52 L74 62 C72.82 61.85 72.98 63.34 73 64 C71.82 63.85 71.98 65.34 72 66 L71 67 L70 68 L69 70 L68 71 L67 72 L66 73 L65 74 L62 76 L61 77 C60.34 76.98 58.85 76.82 59 78 C58.34 77.98 56.85 77.82 57 79 L56 79 C55.34 78.98 53.85 78.82 54 80 C53.34 79.98 51.85 79.82 52 81 L51 81 L46 82 L40 82 C39.94 80.41 37.95 81.19 37 81 L34 81 C34.15 79.82 32.66 79.98 32 80 C32.15 78.82 30.66 78.98 30 79 L25 77 L24 76 L23 75 L19 72 L18 71 C18.02 70.34 18.18 68.85 17 69 L16 69 C16.02 68.34 16.18 66.85 15 67 L13 64 C13.02 63.34 13.18 61.85 12 62 L12 61 C12.02 60.34 12.18 58.85 11 59 L11 58 C11.02 57.34 11.18 55.85 10 56 L10 54 L10 42 L11 37 C12.18 37.15 12.02 35.66 12 35 L14 31 L15 30 L16 29 L17 27 L18 26 L19 25 L20 24 L21 23 L22 22 C21.85 20.82 23.34 20.98 24 21 L25 20 C25.66 20.02 27.15 20.18 27 19 C26.85 17.82 28.34 17.98 29 18 L30 17 L32 17 C32.66 17.02 34.15 17.18 34 16 L37 16 z"/>
<path style="fill:#7f8080" d="M54 17 C53.34 17.02 51.85 17.18 52 16 C52.66 15.98 54.15 15.82 54 17 z"/>
<path style="fill:#959595" d="M30 17 L29 18 L30 17 z"/>
<path style="fill:#5d5d5d" d="M56 18 C55.34 18.02 53.85 18.18 54 17 C54.66 16.98 56.15 16.82 56 18 z"/>
<path style="fill:#646464" d="M58 19 L57 18 L58 19 z"/>
<path style="fill:#6a6a6a" d="M27 19 C27.15 20.18 25.66 20.02 25 20 C24.85 18.82 26.34 18.98 27 19 z"/>
<path style="fill:#666666" d="M60 20 L59 19 L60 20 z"/>
<path style="fill:#636363" d="M25 20 L24 21 L25 20 z"/>
<path style="fill:#a2a2a2" d="M62 21 L61 20 L62 21 z"/>
<path style="fill:#a1a1a1" d="M49 22 L45 23 C43.64 21.92 42.36 21.92 41 23 L36 22 C38.97 20.34 46.03 20.34 49 22 z"/>
<path style="fill:#7a7a7a" d="M22 22 L21 23 L22 22 z"/>
<path style="fill:#878787" d="M36 22 C36.15 23.18 34.66 23.02 34 23 C33.85 21.82 35.34 21.98 36 22 z"/>
<path style="fill:#eff0f0" d="M41 23 L40 24 L38 25 C36.82 24.85 36.98 26.34 37 27 L36 28 L35 31 C33.41 31.06 34.19 33.05 34 34 L33 34 L31 33 L30 33 C29.81 31.45 26.19 31.45 26 33 L22 34 L21 35 L20 37 C18.45 37.19 18.45 40.81 20 41 L20 43 L21 44 C21.91 45.88 22.8 48.23 25 49 C25.41 51.15 27.65 51.29 29 50 L29 51 C28.98 51.66 28.82 53.15 30 53 L31 54 L32 55 L31 56 L30 56 C29.55 54.4 25.45 54.4 25 56 L20 59 L18 60 L18 59 C18.02 58.34 18.18 56.85 17 57 L17 56 C17.02 55.34 17.18 53.85 16 54 L16 44 L18 36 L19 35 L20 33 L21 32 L22 31 L25 28 L26 27 L27 26 L31 24 C31.66 24.02 33.15 24.18 33 23 L34 23 C34.66 23.02 36.15 23.18 36 22 L41 23 z"/>
<path style="fill:#3e3e3e" d="M45 23 C45.66 22.98 47.15 22.82 47 24 L44 24 C42.41 24.06 43.19 26.05 43 27 L40 24 L41 23 C42.36 21.92 43.64 21.92 45 23 z"/>
<path style="fill:#f1f2f2" d="M49 22 L51 22 L52 23 L59 26 L60 27 L61 28 L63 29 C62.98 29.66 62.82 31.15 64 31 C63.71 32.51 66.06 34.5 63 34 L62 34 L58 33 L56 33 L53 34 L52 34 L51 30 C51.02 29.34 51.18 27.85 50 28 C50.02 27.34 50.18 25.85 49 26 L47 24 C47.15 22.82 45.66 22.98 45 23 L49 22 z"/>
<path style="fill:#686868" d="M52 23 L51 22 L52 23 z"/>
<path style="fill:#909191" d="M33 23 C33.15 24.18 31.66 24.02 31 24 C30.85 22.82 32.34 22.98 33 23 z"/>
<path style="fill:#6f6f6f" d="M20 24 L19 25 L20 24 z"/>
<path style="fill:#0f1010" d="M40 24 L43 27 L42 33 L42 34 L35 31 L36 28 L37 27 C38.18 27.15 38.02 25.66 38 25 L40 24 z"/>
<path style="fill:#6f6f6f" d="M44 24 L44 33 L42 33 L43 27 C43.19 26.05 42.41 24.06 44 24 z"/>
<path style="fill:#080808" d="M47 24 C46.54 25.35 47.65 26.46 49 26 C48.98 26.66 48.82 28.15 50 28 C49.98 28.66 49.82 30.15 51 30 L46 34 L44 33 L44 24 L47 24 z"/>
<path style="fill:#636363" d="M49 26 C47.65 26.46 46.54 25.35 47 24 L49 26 z"/>
<path style="fill:#a7a7a7" d="M67 25 L66 24 L67 25 z"/>
<path style="fill:#6b6b6b" d="M19 25 L18 26 L19 25 z"/>
<path style="fill:#7c7c7c" d="M38 25 C38.02 25.66 38.18 27.15 37 27 C36.98 26.34 36.82 24.85 38 25 z"/>
<path style="fill:#9c9c9c" d="M68 26 L67 25 L68 26 z"/>
<path style="fill:#8e8e8e" d="M18 26 L17 27 L18 26 z"/>
<path style="fill:#676767" d="M27 26 L26 27 L27 26 z"/>
<path style="fill:#787878" d="M50 28 C48.82 28.15 48.98 26.66 49 26 C50.18 25.85 50.02 27.34 50 28 z"/>
<path style="fill:#818181" d="M60 27 L59 26 L60 27 z"/>
<path style="fill:#a2a2a2" d="M69 27 L68 26 L69 27 z"/>
<path style="fill:#8a8a8a" d="M26 27 L25 28 L26 27 z"/>
<path style="fill:#818181" d="M37 27 L36 28 L37 27 z"/>
<path style="fill:#808080" d="M61 28 L60 27 L61 28 z"/>
<path style="fill:#696969" d="M51 30 C49.82 30.15 49.98 28.66 50 28 C51.18 27.85 51.02 29.34 51 30 z"/>
<path style="fill:#616161" d="M16 29 L15 30 L16 29 z"/>
<path style="fill:#8e8f8f" d="M64 31 C62.82 31.15 62.98 29.66 63 29 C64.18 28.85 64.02 30.34 64 31 z"/>
<path style="fill:#6c6c6c" d="M71 30 L70 29 L71 30 z"/>
<path style="fill:#878787" d="M15 30 L14 31 L15 30 z"/>
<path style="fill:#6a6b6b" d="M52 34 L46 35 L46 34 L51 30 L52 34 z"/>
<path style="fill:#6d6e6e" d="M72 32 C70.82 32.15 70.98 30.66 71 30 C72.18 29.85 72.02 31.34 72 32 z"/>
<path style="fill:#828282" d="M22 31 L21 32 L22 31 z"/>
<path style="fill:#9a9a9a" d="M35 31 L42 34 C42.7 36.52 45.22 33.27 42 34 L42 33 L44 33 L46 34 L46 35 L44 37 L44 38 L43 38 L42 37 C40.69 34.04 36.91 33.77 34 34 C34.19 33.05 33.41 31.06 35 31 z"/>
<path style="fill:#b0b1b1" d="M69 40 L67 41 L67 40 C67.28 38.4 66.86 36.34 65 36 L63 34 C66.06 34.5 63.71 32.51 64 31 C66.81 32.88 68.03 36.9 69 40 z"/>
<path style="fill:#787878" d="M21 32 L20 33 L21 32 z"/>
<path style="fill:#808080" d="M30 33 L26 33 C26.19 31.45 29.81 31.45 30 33 z"/>
<path style="fill:#9e9e9e" d="M73 33 L72 32 L73 33 z"/>
<path style="fill:#565757" d="M26 33 L22 34 L26 33 z"/>
<path style="fill:#0b0b0b" d="M30 33 L31 33 L28 37 C27.21 38.45 24.2 40.47 23 38 C22.94 36.41 20.95 37.19 20 37 L21 35 L22 34 L26 33 L30 33 z"/>
<path style="fill:#717171" d="M33 34 C31.76 35.06 30.01 37.06 28 37 L31 33 L33 34 z"/>
<path style="fill:#727272" d="M56 33 C58.98 37.83 55.84 37.07 53 34 L56 33 z"/>
<path style="fill:#0c0c0c" d="M58 33 L62 34 L63 34 L65 36 L59 40 L67 40 L67 41 L67 42 L66 43 L66 44 C64.82 43.85 64.98 45.34 65 46 L62 49 L61 50 L59.75 44.25 L57 52 L53 57 C51.66 56.67 50.26 57.71 50 59 L45 59 L44 57 C43.81 54.98 41.1 56.44 42 58 C38.24 55.39 42.55 61.03 39 60 L37 59 L32 55 L31 54 L30 53 C30.02 52.34 30.18 50.85 29 51 L29 50 L27 45 L28 37 C30.01 37.06 31.76 35.06 33 34 L34 34 C36.91 33.77 40.69 34.04 42 37 C40.7 41.59 38.84 39.91 35 39 L32 42 L34 46 L35 41 L39 42 L40.75 51.75 L41 43 L43 38 L44 38 L46 44 L46.75 50.75 L47 44 L47 42 C50 38.42 51.27 41.6 53 44 L50.25 51.75 C53.36 51.5 54.34 46.04 54 43 C53.73 38.67 49.04 36.16 46 40 L44 37 L46 35 L52 34 L53 34 C55.84 37.07 58.98 37.83 56 33 L58 33 z"/>
<path style="fill:#5c5c5c" d="M62 34 L58 33 L62 34 z"/>
<path style="fill:#919191" d="M74 35 C72.82 35.15 72.98 33.66 73 33 C74.18 32.85 74.02 34.34 74 35 z"/>
<path style="fill:#8d8d8d" d="M22 34 L21 35 L22 34 z"/>
<path style="fill:#222323" d="M42 34 C45.22 33.27 42.7 36.52 42 34 z"/>
<path style="fill:#a7a8a8" d="M12 35 C12.02 35.66 12.18 37.15 11 37 C10.98 36.34 10.82 34.85 12 35 z"/>
<path style="fill:#686868" d="M19 35 L18 36 L19 35 z"/>
<path style="fill:#676868" d="M67 40 L59 40 L65 36 C66.86 36.34 67.28 38.4 67 40 z"/>
<path style="fill:#909090" d="M75 38 C73.82 38.15 73.98 36.66 74 36 C75.18 35.85 75.02 37.34 75 38 z"/>
<path style="fill:#373838" d="M20 37 C20.95 37.19 22.94 36.41 23 38 L22 38 C19.84 37.35 19.84 39.65 22 39 L22 40 C21.34 39.98 19.85 39.82 20 41 C18.45 40.81 18.45 37.19 20 37 z"/>
<path style="fill:#6b6c6c" d="M28 37 L27 45 L25 41 L22 40 L22 39 L22 38 L23 38 C24.2 40.47 27.21 38.45 28 37 z"/>
<path style="fill:#7d7d7d" d="M42 37 L43 38 L41 43 L39 42 L35 41 L35 39 C38.84 39.91 40.7 41.59 42 37 z"/>
<path style="fill:#777777" d="M46 40 L47 42 L47 44 L46 44 L44 38 L44 37 L46 40 z"/>
<path style="fill:#bebebe" d="M22 38 L22 39 C19.84 39.65 19.84 37.35 22 38 z"/>
<path style="fill:#414242" d="M54 43 L53 44 C51.27 41.6 50 38.42 47 42 L46 40 C49.04 36.16 53.73 38.67 54 43 z"/>
<path style="fill:#4b4b4b" d="M35 39 L35 41 L34 46 L32 42 L35 39 z"/>
<path style="fill:#121313" d="M22 40 L25 41 L25 49 C22.8 48.23 21.91 45.88 21 44 L20 43 L20 41 C19.85 39.82 21.34 39.98 22 40 z"/>
<path style="fill:#eff0f0" d="M69 40 L69 41 C69.19 41.95 68.41 43.94 70 44 L70 53 C68.41 53.06 69.19 55.05 69 56 L69 57 C67.82 56.85 67.98 58.34 68 59 L66 59 C63.17 56.79 59.76 55.62 56 56 L55 57 L53 57 L57 52 L61 50 L62 49 L65 46 C66.18 46.15 66.02 44.66 66 44 L66 43 L67 42 L67 41 L69 40 z"/>
<path style="fill:#444444" d="M27 45 L29 50 C27.65 51.29 25.41 51.15 25 49 L25 41 L27 45 z"/>
<path style="fill:#9b9b9b" d="M70 44 C68.41 43.94 69.19 41.95 69 41 C70.59 41.06 69.81 43.05 70 44 z"/>
<path style="fill:#b9baba" d="M10 42 L10 54 C8.34 51.36 8.34 44.64 10 42 z"/>
<path style="fill:#818181" d="M34 46 L32 42 L34 46 z"/>
<path style="fill:#4e4e4e" d="M41 43 L40.75 51.75 L39 42 L41 43 z"/>
<path style="fill:#848484" d="M67 42 L66 43 L67 42 z"/>
<path style="fill:#747474" d="M21 44 L20 43 L21 44 z"/>
<path style="fill:#6c6c6c" d="M54 43 C54.34 46.04 53.36 51.5 50.25 51.75 L53 44 L54 43 z"/>
<path style="fill:#393939" d="M16 44 L16 54 C14.34 52.01 14.34 45.99 16 44 z"/>
<path style="fill:#c9c9c9" d="M47 44 L46.75 50.75 L46 44 L47 44 z"/>
<path style="fill:#616262" d="M61 50 L57 52 L59.75 44.25 L61 50 z"/>
<path style="fill:#9d9e9e" d="M66 44 C66.02 44.66 66.18 46.15 65 46 C64.98 45.34 64.82 43.85 66 44 z"/>
<path style="fill:#9a9a9a" d="M76 52 L76 45 C77.64 46.03 77.64 50.97 76 52 z"/>
<path style="fill:#959595" d="M62 49 L61 50 L62 49 z"/>
<path style="fill:#919191" d="M30 53 C28.82 53.15 28.98 51.66 29 51 C30.18 50.85 30.02 52.34 30 53 z"/>
<path style="fill:#969696" d="M31 54 L30 53 L31 54 z"/>
<path style="fill:#8e8e8e" d="M70 53 C69.81 53.95 70.59 55.94 69 56 C69.19 55.05 68.41 53.06 70 53 z"/>
<path style="fill:#666767" d="M17 56 C15.82 56.15 15.98 54.66 16 54 C17.18 53.85 17.02 55.34 17 56 z"/>
<path style="fill:#858585" d="M32 55 L31 54 L32 55 z"/>
<path style="fill:#949595" d="M30 56 L25 56 C25.45 54.4 29.55 54.4 30 56 z"/>
<path style="fill:#919191" d="M37 59 L36 60 L31 56 L32 55 L37 59 z"/>
<path style="fill:#abacac" d="M11 58 C9.819 58.15 9.981 56.66 10 56 C11.18 55.85 11.02 57.34 11 58 z"/>
<path style="fill:#0f0f0f" d="M25 56 L30 56 L31 56 L36 60 L38 62 C38.21 63.42 38.11 65.67 36 65 C32.3 61.36 26.21 60.56 21.25 60.25 L36 66 C42.01 69.22 41.09 61.41 44 60 C44.49 61.94 42.59 66.5 46 66 L50 66 C54.94 67.25 52.47 60.5 50 65 C47.89 65.67 47.79 63.42 48 62 L49 61 L50 60 L50 59 C51.34 59.33 52.74 58.29 53 57 L55 57 L56 56 C59.76 55.62 63.17 56.79 66 59 L64 65 L60 68 L59 68 L58 69 L50 69 L49 68 L48 68 C47.34 67.98 45.85 67.82 46 69 L45 69 C43.42 74.46 42.58 74.46 41 69 L40 69 L39 68 L37 68 C36.34 67.98 34.85 67.82 35 69 L28 69 C24.8 66.4 20.04 64.1 20 59 L25 56 z"/>
<path style="fill:#727272" d="M44 57 L42 58 C41.1 56.44 43.81 54.98 44 57 z"/>
<path style="fill:#6b6b6b" d="M56 56 L55 57 L56 56 z"/>
<path style="fill:#717171" d="M18 59 C16.82 59.15 16.98 57.66 17 57 C18.18 56.85 18.02 58.34 18 59 z"/>
<path style="fill:#bbbcbc" d="M42 58 L44 57 L45 59 L44 60 C41.09 61.41 42.01 69.22 36 66 L36 65 C38.11 65.67 38.21 63.42 38 62 C39.59 67.65 43.07 62.17 39 60 C42.55 61.03 38.24 55.39 42 58 z"/>
<path style="fill:#999a9a" d="M53 57 C52.74 58.29 51.34 59.33 50 59 C50.26 57.71 51.66 56.67 53 57 z"/>
<path style="fill:#808181" d="M69 57 C69.02 57.66 69.18 59.15 68 59 C67.98 58.34 67.82 56.85 69 57 z"/>
<path style="fill:#7e7f7f" d="M12 61 C10.82 61.15 10.98 59.66 11 59 C12.18 58.85 12.02 60.34 12 61 z"/>
<path style="fill:#9b9c9c" d="M20 59 C20.04 64.1 24.8 66.4 28 69 L27 70 C22.76 67.97 19.88 64.23 18 60 L20 59 z"/>
<path style="fill:#ececec" d="M37 59 L39 60 C43.07 62.17 39.59 67.65 38 62 L36 60 L37 59 z"/>
<path style="fill:#ececec" d="M45 59 L50 59 L50 60 L49 61 L48 62 L46 66 C42.59 66.5 44.49 61.94 44 60 L45 59 z"/>
<path style="fill:#a0a1a1" d="M68 59 C67.4 61.1 66.68 65.08 64 65 L66 59 L68 59 z"/>
<path style="fill:#838383" d="M36 65 L36 66 L21.25 60.25 C26.21 60.56 32.3 61.36 36 65 z"/>
<path style="fill:#6a6a6a" d="M50 60 L49 61 L50 60 z"/>
<path style="fill:#575757" d="M63 60 C66.82 62.85 48.53 64.05 57 61 L63 60 z"/>
<path style="fill:#757575" d="M49 61 L48 62 L49 61 z"/>
<path style="fill:#a1a2a2" d="M13 64 C11.82 64.15 11.98 62.66 12 62 C13.18 61.85 13.02 63.34 13 64 z"/>
<path style="fill:#999999" d="M48 62 C47.79 63.42 47.89 65.67 50 65 L50 66 L46 66 L48 62 z"/>
<path style="fill:#929292" d="M74 62 C74.02 62.66 74.18 64.15 73 64 C72.98 63.34 72.82 61.85 74 62 z"/>
<path style="fill:#4e4e4e" d="M50 66 L50 65 C52.47 60.5 54.94 67.25 50 66 z"/>
<path style="fill:#a0a0a0" d="M64 65 C64.33 66.85 62.46 68.33 61 69 L60 68 L64 65 z"/>
<path style="fill:#808080" d="M72 66 L71 67 L72 66 z"/>
<path style="fill:#9d9e9e" d="M16 69 C14.82 69.15 14.98 67.66 15 67 C16.18 66.85 16.02 68.34 16 69 z"/>
<path style="fill:#656565" d="M71 67 L70 68 L71 67 z"/>
<path style="fill:#777777" d="M37 68 C37.15 69.18 35.66 69.02 35 69 C34.85 67.82 36.34 67.98 37 68 z"/>
<path style="fill:#eeeeee" d="M39 68 L40 69 L41 69 C41.3 72.17 41.57 76.47 37 75 L34 74 C34.15 72.82 32.66 72.98 32 73 L28 71 L27 70 L28 69 L35 69 C35.66 69.02 37.15 69.18 37 68 L39 68 z"/>
<path style="fill:#838383" d="M40 69 L39 68 L40 69 z"/>
<path style="fill:#7d7d7d" d="M48 68 C48.15 69.18 46.66 69.02 46 69 C45.85 67.82 47.34 67.98 48 68 z"/>
<path style="fill:#ececec" d="M49 68 L50 69 L58 69 L59 68 L60 68 L61 69 L58 71 L57 72 L54 73 C53.34 72.98 51.85 72.82 52 74 C51.34 73.98 49.85 73.82 50 75 L49 75 C44.43 76.47 44.7 72.17 45 69 L46 69 C46.66 69.02 48.15 69.18 48 68 L49 68 z"/>
<path style="fill:#8a8a8a" d="M50 69 L49 68 L50 69 z"/>
<path style="fill:#7d7d7d" d="M59 68 L58 69 L59 68 z"/>
<path style="fill:#737373" d="M18 71 C16.82 71.15 16.98 69.66 17 69 C18.18 68.85 18.02 70.34 18 71 z"/>
<path style="fill:#666666" d="M45 69 C44.7 72.17 44.43 76.47 49 75 C46.36 76.66 39.64 76.66 37 75 C41.57 76.47 41.3 72.17 41 69 C42.58 74.46 43.42 74.46 45 69 z"/>
<path style="fill:#8c8c8c" d="M28 71 L27 70 L28 71 z"/>
<path style="fill:#a8a8a8" d="M69 70 L68 71 L69 70 z"/>
<path style="fill:#9a9a9a" d="M19 72 L18 71 L19 72 z"/>
<path style="fill:#747474" d="M58 71 L57 72 L58 71 z"/>
<path style="fill:#8a8a8a" d="M68 71 L67 72 L68 71 z"/>
<path style="fill:#8a8a8a" d="M67 72 L66 73 L67 72 z"/>
<path style="fill:#919191" d="M34 74 C33.34 74.02 31.85 74.18 32 73 C32.66 72.98 34.15 72.82 34 74 z"/>
<path style="fill:#9c9c9c" d="M54 73 C54.15 74.18 52.66 74.02 52 74 C51.85 72.82 53.34 72.98 54 73 z"/>
<path style="fill:#a7a7a7" d="M66 73 L65 74 L66 73 z"/>
<path style="fill:#868787" d="M52 74 C52.15 75.18 50.66 75.02 50 75 C49.85 73.82 51.34 73.98 52 74 z"/>
<path style="fill:#757575" d="M24 76 L23 75 L24 76 z"/>
<path style="fill:#a0a0a0" d="M25 77 L24 76 L25 77 z"/>
<path style="fill:#898989" d="M62 76 L61 77 L62 76 z"/>
<path style="fill:#9c9d9d" d="M61 77 C61.15 78.18 59.66 78.02 59 78 C58.85 76.82 60.34 76.98 61 77 z"/>
<path style="fill:#a9a9a9" d="M59 78 C59.15 79.18 57.66 79.02 57 79 C56.85 77.82 58.34 77.98 59 78 z"/>
<path style="fill:#6c6c6c" d="M32 80 C31.34 80.02 29.85 80.18 30 79 C30.66 78.98 32.15 78.82 32 80 z"/>
<path style="fill:#676767" d="M56 79 C56.15 80.18 54.66 80.02 54 80 C53.85 78.82 55.34 78.98 56 79 z"/>
<path style="fill:#999999" d="M34 81 C33.34 81.02 31.85 81.18 32 80 C32.66 79.98 34.15 79.82 34 81 z"/>
<path style="fill:#818181" d="M54 80 C54.15 81.18 52.66 81.02 52 81 C51.85 79.82 53.34 79.98 54 80 z"/>
<path style="fill:#797a7a" d="M40 82 C39.05 81.81 37.06 82.59 37 81 C37.95 81.19 39.94 80.41 40 82 z"/>
<path style="fill:#929393" d="M51 81 L46 82 L51 81 z"/>
</svg>
