<?xml version="1.0" standalone="yes"?>
<svg width="87" height="97">
<path style="fill:#fdfdfd" d="M87 0 L87 97 L0 97 L0 0 L87 0 z"/>
<path style="fill:#9c9c9c" d="M39 16 C39.15 17.18 37.66 17.02 37 17 C36.85 15.82 38.34 15.98 39 16 z"/>
<path style="fill:#090909" d="M47 16 C46.85 17.18 48.34 17.02 49 17 L52 17 C51.85 18.18 53.34 18.02 54 18 C53.85 19.18 55.34 19.02 56 19 L57 19 L58 20 L59 20 L60 21 L62 22 L63 23 L64 24 L67 27 L68 28 L69 29 L70 31 L71 32 L71 33 L72 34 L72 35 L73 36 L73 38 C72.98 38.66 72.82 40.15 74 40 L74 42 L74 53 L74 56 C72.82 55.85 72.98 57.34 73 58 L73 59 L72 60 L72 61 L71 62 L71 63 L70 64 L69 66 L68 67 L67 68 L64 71 L63 72 L62 73 L60 74 L59 75 L58 75 L57 76 L56 76 L55 77 L54 77 C53.34 76.98 51.85 76.82 52 78 L50 78 L37 78 L35 78 C35.15 76.82 33.66 76.98 33 77 L32 77 L31 76 L30 76 L29 75 L28 75 L27 74 L25 73 L24 72 L23 71 L20 68 L19 67 L18 66 L17 64 L16 63 L16 62 L15 61 L14 58 C14.02 57.34 14.18 55.85 13 56 L13 53 C13.02 52.34 13.18 50.85 12 51 L12 43 C13.18 43.15 13.02 41.66 13 41 L13 40 C14.18 40.15 14.02 38.66 14 38 L14 36 L15 35 L15 34 L16 33 L16 32 L17 31 L18 29 L19 28 L20 27 L23 24 L24 23 L25 22 L27 21 L28 20 L29 20 L30 19 L31 19 L32 18 L34 18 C34.66 18.02 36.15 18.18 36 17 L37 17 C37.66 17.02 39.15 17.18 39 16 L47 16 z"/>
<path style="fill:#6b6c6c" d="M49 17 C48.34 17.02 46.85 17.18 47 16 C47.66 15.98 49.15 15.82 49 17 z"/>
<path style="fill:#5b5c5c" d="M36 17 C36.15 18.18 34.66 18.02 34 18 C33.85 16.82 35.34 16.98 36 17 z"/>
<path style="fill:#989999" d="M54 18 C53.34 18.02 51.85 18.18 52 17 C52.66 16.98 54.15 16.82 54 18 z"/>
<path style="fill:#888888" d="M32 18 L31 19 L32 18 z"/>
<path style="fill:#5f6060" d="M56 19 C55.34 19.02 53.85 19.18 54 18 C54.66 17.98 56.15 17.82 56 19 z"/>
<path style="fill:#7a7a7a" d="M30 19 L29 20 L30 19 z"/>
<path style="fill:#7f7f7f" d="M58 20 L57 19 L58 20 z"/>
<path style="fill:#8f8f8f" d="M28 20 L27 21 L28 20 z"/>
<path style="fill:#868686" d="M60 21 L59 20 L60 21 z"/>
<path style="fill:#898989" d="M25 22 L24 23 L25 22 z"/>
<path style="fill:#6d6d6d" d="M40 22 L40 23 L38 23 C37.85 21.82 39.34 21.98 40 22 z"/>
<path style="fill:#bfc0c0" d="M48 23 C47.34 22.98 45.85 22.82 46 24 L41 24 L40 23 L40 22 L48 23 z"/>
<path style="fill:#7f7f7f" d="M63 23 L62 22 L63 23 z"/>
<path style="fill:#757575" d="M24 23 L23 24 L24 23 z"/>
<path style="fill:#a7a8a8" d="M37 23 C37.15 24.18 35.66 24.02 35 24 C34.85 22.82 36.34 22.98 37 23 z"/>
<path style="fill:#f8f8f8" d="M38 23 L40 23 L41 24 L40 30 L31 31 C28.81 38.2 34.25 38.88 40 38 L40 46 L39 46 L38 47 L37 47 L36 48 C34.65 49.29 32.41 49.15 32 47 L31 46 L31 45 L30 44 L30 43 L29 42 L28 42 L27 43 L25 44 L24 45 L24 47 L25 48 L27 53 L26 54 L23 55 L22 56 L20 57 L20 56 C20.02 55.34 20.18 53.85 19 54 L19 53 L19 43 L19 41 C20.18 41.15 20.02 39.66 20 39 L22 34 L23 33 L25 30 L26 29 L29 27 L30 26 L32 25 L33 24 L35 24 C35.66 24.02 37.15 24.18 37 23 L38 23 z"/>
<path style="fill:#f6f6f6" d="M48 23 L51 23 C50.85 24.18 52.34 24.02 53 24 L54 24 L55 25 L57 26 L58 27 L64 33 L65 34 L67 39 C66.98 39.66 66.82 41.15 68 41 L68 43 L68 52 L68 54 C66.82 53.85 66.98 55.34 67 56 L65 61 L64 62 L62 65 L61 66 L58 68 L57 69 L55 70 L54 71 L53 71 C52.34 70.98 50.85 70.82 51 72 L48 72 L38 72 L37 72 C37.15 70.82 35.66 70.98 35 71 L33 71 L32 70 L30 69 L29 68 L26 66 L25 65 L24 63 L24 62 C24.66 62.02 26.15 62.18 26 61 L30 59 L31 59 L32 60 L32 61 L33 62 L34 64 L35 65 L36 66 L37 65 L38 65 L39 64 L40 64 C41.33 64.22 41.33 61.78 40 62 L40 61 L39 60 L39 59 L38 58 L37 55 C37.66 55.02 39.15 55.18 39 54 L40 53 L42 52 L44 52 L46 53 L47 54 L49 55 L49 57 L47 61 L46 62 C45.37 64.12 47.82 64.14 49 65 L50 66 C52.12 66.63 52.14 64.18 53 63 L54 62 L54 61 L55 60 C55.27 57.98 57.1 59.68 58 60 L59 61 C60.35 62.29 62.59 62.15 63 60 L64 59 L64 58 C65.33 58.22 65.33 55.78 64 56 L62 55 L61 54 L60 54 L60 52 L61 49 L62 48 L62 47 L63 46 L63 45 L62 44 C60.41 43.42 56.65 40.2 57 44 L56 45 L55 47 L54 48 L54 49 L52 49 L50 48 L49 47 L48 47 L47 46 L47 38 C52.75 38.88 58.19 38.2 56 31 L47 30 L46 24 C45.85 22.82 47.34 22.98 48 23 z"/>
<path style="fill:#626363" d="M53 24 C52.34 24.02 50.85 24.18 51 23 C51.66 22.98 53.15 22.82 53 24 z"/>
<path style="fill:#5f5f5f" d="M64 24 L63 23 L64 24 z"/>
<path style="fill:#5d5d5d" d="M33 24 L32 25 L33 24 z"/>
<path style="fill:#494949" d="M41 24 L40 31 L40 30 L41 24 z"/>
<path style="fill:#070808" d="M46 24 L47 31 L55 31 C56.97 37.33 51.89 37.69 47 37 C45.35 38.66 45.35 44.34 47 46 L48 47 L49 47 L50 48 L52 49 C51.78 50.33 54.22 50.33 54 49 L54 48 L55 47 L56 45 L57 44 C56.65 40.2 60.41 43.42 62 44 L63 45 L63 46 L62 47 L62 48 L61 49 L60 52 C58.67 51.78 58.67 54.22 60 54 L61 54 L62 55 L64 56 L64 58 L64 59 L63 60 C62.59 62.15 60.35 62.29 59 61 L58 60 C57.1 59.68 55.27 57.98 55 60 L54 61 L54 62 L53 63 C52.14 64.18 52.12 66.63 50 66 L49 65 C47.82 64.14 45.37 64.12 46 62 L47 61 L49 57 C50.33 57.22 50.33 54.78 49 55 L47 54 L46 53 L44 52 C44.22 50.67 41.78 50.67 42 52 L40 53 L39 54 C38.34 53.98 36.85 53.82 37 55 L38 58 L39 59 L39 60 L40 61 L40 62 L40 64 L39 64 L38 65 L37 65 L36 66 L35 65 L34 64 L33 62 L32 61 L32 60 L31 59 C31.43 57.94 29.57 57.94 30 59 L26 61 L24 61 L24 60 L23 59 L22 56 L23 55 L26 54 L27 53 L25 48 L24 47 L24 45 L25 44 L27 43 L28 42 L29 42 L30 43 L30 44 L31 45 L31 46 L32 47 C32.41 49.15 34.65 49.29 36 48 L37 47 L38 47 L39 46 L40 46 C41.65 44.34 41.65 38.66 40 37 C35.11 37.69 30.03 37.33 32 31 L40 31 L41 24 L46 24 z"/>
<path style="fill:#4c4d4d" d="M47 30 L47 31 L46 24 L47 30 z"/>
<path style="fill:#626262" d="M55 25 L54 24 L55 25 z"/>
<path style="fill:#929292" d="M30 26 L29 27 L30 26 z"/>
<path style="fill:#939393" d="M58 27 L57 26 L58 27 z"/>
<path style="fill:#6c6c6c" d="M20 27 L19 28 L20 27 z"/>
<path style="fill:#666666" d="M68 28 L67 27 L68 28 z"/>
<path style="fill:#8d8d8d" d="M19 28 L18 29 L19 28 z"/>
<path style="fill:#909090" d="M69 29 L68 28 L69 29 z"/>
<path style="fill:#636363" d="M26 29 L25 30 L26 29 z"/>
<path style="fill:#d6d7d7" d="M40 30 L40 31 L32 31 L31 31 L40 30 z"/>
<path style="fill:#d3d4d4" d="M56 31 L55 31 L47 31 L47 30 L56 31 z"/>
<path style="fill:#878787" d="M17 31 L16 32 L17 31 z"/>
<path style="fill:#838383" d="M32 31 C30.03 37.33 35.11 37.69 40 37 L40 38 C34.25 38.88 28.81 38.2 31 31 L32 31 z"/>
<path style="fill:#838383" d="M56 31 C58.19 38.2 52.75 38.88 47 38 L47 37 C51.89 37.69 56.97 37.33 55 31 L56 31 z"/>
<path style="fill:#838383" d="M71 32 L70 31 L71 32 z"/>
<path style="fill:#7e7e7e" d="M16 33 L15 34 L16 33 z"/>
<path style="fill:#949494" d="M23 33 L22 34 L23 33 z"/>
<path style="fill:#8f8f8f" d="M65 34 L64 33 L65 34 z"/>
<path style="fill:#7b7b7b" d="M72 34 L71 33 L72 34 z"/>
<path style="fill:#8d8d8d" d="M15 35 L14 36 L15 35 z"/>
<path style="fill:#8e8e8e" d="M73 36 L72 35 L73 36 z"/>
<path style="fill:#424242" d="M40 46 L40 38 L40 37 C41.65 38.66 41.65 44.34 40 46 z"/>
<path style="fill:#474747" d="M47 37 L47 38 L47 46 C45.35 44.34 45.35 38.66 47 37 z"/>
<path style="fill:#5d5d5d" d="M14 38 C14.02 38.66 14.18 40.15 13 40 C12.98 39.34 12.82 37.85 14 38 z"/>
<path style="fill:#626262" d="M74 40 C72.82 40.15 72.98 38.66 73 38 C74.18 37.85 74.02 39.34 74 40 z"/>
<path style="fill:#a4a5a5" d="M20 39 C20.02 39.66 20.18 41.15 19 41 C18.98 40.34 18.82 38.85 20 39 z"/>
<path style="fill:#a7a7a7" d="M68 41 C66.82 41.15 66.98 39.66 67 39 C68.18 38.85 68.02 40.34 68 41 z"/>
<path style="fill:#9d9d9d" d="M13 41 C13.02 41.66 13.18 43.15 12 43 C11.98 42.34 11.82 40.85 13 41 z"/>
<path style="fill:#969696" d="M28 42 L27 43 L28 42 z"/>
<path style="fill:#a2a2a2" d="M30 43 L29 42 L30 43 z"/>
<path style="fill:#5d5d5d" d="M74 53 L74 42 C75.66 44.31 75.66 50.69 74 53 z"/>
<path style="fill:#a0a0a0" d="M19 43 L19 53 C17.34 51.01 17.34 44.99 19 43 z"/>
<path style="fill:#a5a6a6" d="M68 52 L68 43 C69.65 44.66 69.65 50.34 68 52 z"/>
<path style="fill:#646464" d="M25 44 L24 45 L25 44 z"/>
<path style="fill:#949494" d="M31 45 L30 44 L31 45 z"/>
<path style="fill:#616161" d="M57 44 L56 45 L57 44 z"/>
<path style="fill:#747474" d="M63 45 L62 44 L63 45 z"/>
<path style="fill:#787878" d="M32 47 L31 46 L32 47 z"/>
<path style="fill:#747474" d="M39 46 L38 47 L39 46 z"/>
<path style="fill:#696969" d="M48 47 L47 46 L48 47 z"/>
<path style="fill:#5b5b5b" d="M63 46 L62 47 L63 46 z"/>
<path style="fill:#929292" d="M25 48 L24 47 L25 48 z"/>
<path style="fill:#919191" d="M37 47 L36 48 L37 47 z"/>
<path style="fill:#999999" d="M50 48 L49 47 L50 48 z"/>
<path style="fill:#a0a0a0" d="M55 47 L54 48 L55 47 z"/>
<path style="fill:#6d6d6d" d="M62 48 L61 49 L62 48 z"/>
<path style="fill:#686969" d="M54 49 C54.22 50.33 51.78 50.33 52 49 L54 49 z"/>
<path style="fill:#6e6e6e" d="M13 53 C11.82 53.15 11.98 51.66 12 51 C13.18 50.85 13.02 52.34 13 53 z"/>
<path style="fill:#595959" d="M44 52 L42 52 C41.78 50.67 44.22 50.67 44 52 z"/>
<path style="fill:#888989" d="M60 52 L60 54 C58.67 54.22 58.67 51.78 60 52 z"/>
<path style="fill:#686868" d="M27 53 L26 54 L27 53 z"/>
<path style="fill:#939393" d="M40 53 L39 54 L40 53 z"/>
<path style="fill:#909090" d="M47 54 L46 53 L47 54 z"/>
<path style="fill:#a3a4a4" d="M20 56 C18.82 56.15 18.98 54.66 19 54 C20.18 53.85 20.02 55.34 20 56 z"/>
<path style="fill:#a0a1a1" d="M39 54 C39.15 55.18 37.66 55.02 37 55 C36.85 53.82 38.34 53.98 39 54 z"/>
<path style="fill:#848484" d="M62 55 L61 54 L62 55 z"/>
<path style="fill:#a0a1a1" d="M68 54 C68.02 54.66 68.18 56.15 67 56 C66.98 55.34 66.82 53.85 68 54 z"/>
<path style="fill:#a5a5a5" d="M23 55 L22 56 L23 55 z"/>
<path style="fill:#8c8d8d" d="M49 57 L49 55 C50.33 54.78 50.33 57.22 49 57 z"/>
<path style="fill:#999a9a" d="M14 58 C12.82 58.15 12.98 56.66 13 56 C14.18 55.85 14.02 57.34 14 58 z"/>
<path style="fill:#d4d4d4" d="M22 56 L23 59 L24 60 L24 61 L24 62 L24 63 L20 57 L22 56 z"/>
<path style="fill:#666666" d="M64 58 L64 56 C65.33 55.78 65.33 58.22 64 58 z"/>
<path style="fill:#9a9a9a" d="M74 56 C74.02 56.66 74.18 58.15 73 58 C72.98 57.34 72.82 55.85 74 56 z"/>
<path style="fill:#626262" d="M31 59 L30 59 C29.57 57.94 31.43 57.94 31 59 z"/>
<path style="fill:#9c9c9c" d="M39 59 L38 58 L39 59 z"/>
<path style="fill:#5f5f5f" d="M24 60 L23 59 L24 60 z"/>
<path style="fill:#757575" d="M32 60 L31 59 L32 60 z"/>
<path style="fill:#999999" d="M64 59 L63 60 L64 59 z"/>
<path style="fill:#868686" d="M73 59 L72 60 L73 59 z"/>
<path style="fill:#808080" d="M40 61 L39 60 L40 61 z"/>
<path style="fill:#5d5d5d" d="M55 60 L54 61 L55 60 z"/>
<path style="fill:#9c9c9c" d="M59 61 L58 60 L59 61 z"/>
<path style="fill:#7a7a7a" d="M16 62 L15 61 L16 62 z"/>
<path style="fill:#818282" d="M26 61 C26.15 62.18 24.66 62.02 24 62 L24 61 L26 61 z"/>
<path style="fill:#959595" d="M33 62 L32 61 L33 62 z"/>
<path style="fill:#7d7d7d" d="M47 61 L46 62 L47 61 z"/>
<path style="fill:#909090" d="M65 61 L64 62 L65 61 z"/>
<path style="fill:#7d7d7d" d="M72 61 L71 62 L72 61 z"/>
<path style="fill:#848585" d="M40 64 L40 62 C41.33 61.78 41.33 64.22 40 64 z"/>
<path style="fill:#7b7b7b" d="M54 62 L53 63 L54 62 z"/>
<path style="fill:#868686" d="M17 64 L16 63 L17 64 z"/>
<path style="fill:#888888" d="M71 63 L70 64 L71 63 z"/>
<path style="fill:#5d5d5d" d="M35 65 L34 64 L35 65 z"/>
<path style="fill:#999999" d="M39 64 L38 65 L39 64 z"/>
<path style="fill:#696969" d="M26 66 L25 65 L26 66 z"/>
<path style="fill:#646464" d="M37 65 L36 66 L37 65 z"/>
<path style="fill:#7f7f7f" d="M50 66 L49 65 L50 66 z"/>
<path style="fill:#5e5e5e" d="M62 65 L61 66 L62 65 z"/>
<path style="fill:#929292" d="M19 67 L18 66 L19 67 z"/>
<path style="fill:#9c9c9c" d="M69 66 L68 67 L69 66 z"/>
<path style="fill:#707070" d="M20 68 L19 67 L20 68 z"/>
<path style="fill:#6d6d6d" d="M68 67 L67 68 L68 67 z"/>
<path style="fill:#8c8c8c" d="M30 69 L29 68 L30 69 z"/>
<path style="fill:#929292" d="M58 68 L57 69 L58 68 z"/>
<path style="fill:#5d5d5d" d="M33 71 L32 70 L33 71 z"/>
<path style="fill:#6a6a6a" d="M55 70 L54 71 L55 70 z"/>
<path style="fill:#656565" d="M24 72 L23 71 L24 72 z"/>
<path style="fill:#a7a8a8" d="M37 72 C36.34 72.02 34.85 72.18 35 71 C35.66 70.98 37.15 70.82 37 72 z"/>
<path style="fill:#606161" d="M53 71 C53.15 72.18 51.66 72.02 51 72 C50.85 70.82 52.34 70.98 53 71 z"/>
<path style="fill:#5c5c5c" d="M64 71 L63 72 L64 71 z"/>
<path style="fill:#898989" d="M25 73 L24 72 L25 73 z"/>
<path style="fill:#9f9f9f" d="M48 72 C46.01 73.66 39.99 73.66 38 72 L48 72 z"/>
<path style="fill:#8f8f8f" d="M63 72 L62 73 L63 72 z"/>
<path style="fill:#868686" d="M28 75 L27 74 L28 75 z"/>
<path style="fill:#8e8e8e" d="M60 74 L59 75 L60 74 z"/>
<path style="fill:#7e7e7e" d="M30 76 L29 75 L30 76 z"/>
<path style="fill:#7d7d7d" d="M58 75 L57 76 L58 75 z"/>
<path style="fill:#838383" d="M32 77 L31 76 L32 77 z"/>
<path style="fill:#7a7a7a" d="M56 76 L55 77 L56 76 z"/>
<path style="fill:#979797" d="M35 78 C34.34 78.02 32.85 78.18 33 77 C33.66 76.98 35.15 76.82 35 78 z"/>
<path style="fill:#9c9d9d" d="M54 77 C54.15 78.18 52.66 78.02 52 78 C51.85 76.82 53.34 76.98 54 77 z"/>
<path style="fill:#696969" d="M50 78 C47.03 79.66 39.97 79.66 37 78 L50 78 z"/>
</svg>
