<?xml version="1.0" standalone="yes"?>
<svg width="87" height="97">
<path style="fill:#fdfefe" d="M87 0 L87 97 L0 97 L0 0 L87 0 z"/>
<path style="fill:#898989" d="M38 31 L37 32 L38 31 z"/>
<path style="fill:#090a0a" d="M42 31 L42 38 L38 39 C36.65 38.54 35.54 39.65 36 41 C34.49 39.64 31.51 39.52 31 42 L26 39 C25.67 37.66 26.71 36.26 28 36 L29 35 C29.66 35.02 31.15 35.18 31 34 L34 33 L35 32 L37 32 L38 31 L42 31 z"/>
<path style="fill:#c1c1c1" d="M43 31 L43 37 L42 38 L42 31 L43 31 z"/>
<path style="fill:#3b3b3b" d="M45 31 L45 37 L43 37 L43 31 L45 31 z"/>
<path style="fill:#bebebe" d="M46 31 L46 36 L51 44 C49.82 43.85 49.98 45.34 50 46 L47 48 C47.47 44.49 43.3 44.86 41 45 L48.75 44.75 C51.41 41.74 49.15 37.63 45 39 L45 37 L45 31 L46 31 z"/>
<path style="fill:#525252" d="M49 32 L46 36 L46 31 C46.95 31.19 48.94 30.41 49 32 z"/>
<path style="fill:#999999" d="M35 32 L34 33 L35 32 z"/>
<path style="fill:#0c0d0d" d="M49 32 L51 32 C50.85 33.18 52.34 33.02 53 33 L56 34 C55.85 35.18 57.34 35.02 58 35 L59 36 L62 38 C61.97 40.34 59.34 42.97 57 43 L56 42 C54.42 38.96 51.98 42.92 51 44 L46 36 L49 32 z"/>
<path style="fill:#a3a3a3" d="M53 33 C52.34 33.02 50.85 33.18 51 32 C51.66 31.98 53.15 31.82 53 33 z"/>
<path style="fill:#7c7d7d" d="M31 34 C31.15 35.18 29.66 35.02 29 35 C28.85 33.82 30.34 33.98 31 34 z"/>
<path style="fill:#848585" d="M58 35 C57.34 35.02 55.85 35.18 56 34 C56.66 33.98 58.15 33.82 58 35 z"/>
<path style="fill:#787878" d="M29 35 L28 36 L29 35 z"/>
<path style="fill:#878787" d="M59 36 L58 35 L59 36 z"/>
<path style="fill:#8a8a8a" d="M45 37 L45 39 L38 39 L42 38 L43 37 L45 37 z"/>
<path style="fill:#ababab" d="M63 40 L60 45 L60 46 L57 43 C59.34 42.97 61.97 40.34 62 38 C63.18 37.85 63.02 39.34 63 40 z"/>
<path style="fill:#0" d="M25 39 L25 40 L24 40 L25 39 z"/>
<path style="fill:#bebfbf" d="M26 39 L31 42 L27 46 L27 44 C29.48 43.17 26.3 40.42 25 40 L25 39 L26 39 z"/>
<path style="fill:#9c9d9d" d="M38 39 L39 44 L38 44 L37 44 L36 44 C34.85 42.42 33.45 41.41 31 42 C31.51 39.52 34.49 39.64 36 41 C35.27 44.22 38.52 41.7 36 41 C35.54 39.65 36.65 38.54 38 39 z"/>
<path style="fill:#0f1010" d="M45 39 C49.15 37.63 51.41 41.74 48.75 44.75 L41 45 C40.34 45.02 38.85 45.18 39 44 L38 39 L45 39 z"/>
<path style="fill:#afafaf" d="M24 40 L25 40 L25 42 L22 41 C21.85 39.82 23.34 39.98 24 40 z"/>
<path style="fill:#0f0f0f" d="M27 44 L26 43 L25 42 L25 40 C26.3 40.42 29.48 43.17 27 44 z"/>
<path style="fill:#111111" d="M64 40 C64.18 42.28 61.68 43.94 60 45 L63 40 L64 40 z"/>
<path style="fill:#909191" d="M66 43 L61 46 L60 46 L60 45 C61.68 43.94 64.18 42.28 64 40 L66 43 z"/>
<path style="fill:#949494" d="M22 41 L21 42 L22 41 z"/>
<path style="fill:#0d0e0e" d="M25 42 L25 43 L26 44 L27 44 L27 46 C25.71 46.26 24.67 47.66 25 49 C22.98 49.27 24.68 51.1 25 52 C21.15 52.01 20.72 57.04 21 60 C19.81 61.92 13.44 61.84 15 58 L16 54 L16 51 L17 50 L19 45 L20 44 L21 42 L22 41 L25 42 z"/>
<path style="fill:#161616" d="M36 41 C38.52 41.7 35.27 44.22 36 41 z"/>
<path style="fill:#afb0b0" d="M56 42 C53.31 41.63 52.24 44.98 52 47 L51 46 L51 44 C51.98 42.92 54.42 38.96 56 42 z"/>
<path style="fill:#c6c6c6" d="M26 43 L25 43 L25 42 L26 43 z"/>
<path style="fill:#111111" d="M36 44 L39.75 55.75 L30 52 C28.15 51.8 25.68 50.97 25 49 C26.29 48.74 27.33 47.34 27 46 L31 42 C33.45 41.41 34.85 42.42 36 44 z"/>
<path style="fill:#0c0c0c" d="M56 42 L57 43 L60 46 L60 47 L62 49 C62.85 51.33 60.91 51.74 60 53 L56 51 L56 50 L55 49 L54 48 L53 48 L52 47 C52.24 44.98 53.31 41.63 56 42 z"/>
<path style="fill:#bfbfbf" d="M57 43 L56 42 L57 43 z"/>
<path style="fill:#6c6c6c" d="M26 43 L26 44 L25 43 L26 43 z"/>
<path style="fill:#c0c0c0" d="M27 44 L26 44 L26 43 L27 44 z"/>
<path style="fill:#0a0b0b" d="M66 43 L67 44 L68 45 L68 46 L69 47 L69 48 C68.98 48.66 68.82 50.15 70 50 L71 54 L72 60 C70.81 61.92 64.44 61.84 66 58 C66.43 53.72 62 53.47 60 56 C58.67 56.22 58.67 53.78 60 54 C62.45 53.6 66.01 50.3 62 49 C62.02 48.34 62.18 46.85 61 47 L61 46 L66 43 z"/>
<path style="fill:#888888" d="M20 44 L19 45 L20 44 z"/>
<path style="fill:#e5e6e6" d="M37 44 C36.57 45.06 38.43 45.06 38 44 L39 44 C38.85 45.18 40.34 45.02 41 45 L41 48 L42 53 L42 56 C40.54 56.67 38.67 58.15 39 60 L39 61 L37 61 C37.67 58.89 35.42 58.79 34 59 L33 58 L32 58 C32.15 56.82 30.66 56.98 30 57 L29 57 C27.82 57.15 27.98 55.66 28 55 L28 54 L30 52 L39.75 55.75 L36 44 L37 44 z"/>
<path style="fill:#161616" d="M38 44 C38.43 45.06 36.57 45.06 37 44 L38 44 z"/>
<path style="fill:#585858" d="M51 44 L51 46 L50 46 C49.98 45.34 49.82 43.85 51 44 z"/>
<path style="fill:#969696" d="M68 45 L67 44 L68 45 z"/>
<path style="fill:#0a0b0b" d="M47 48 L47 49 C45.82 48.85 45.98 50.34 46 51 C44.41 51.06 45.19 53.05 45 54 L45 55 L42 53 L41 48 L41 45 C43.3 44.86 47.47 44.49 47 48 z"/>
<path style="fill:#9fa0a0" d="M27 46 C27.33 47.34 26.29 48.74 25 49 C24.67 47.66 25.71 46.26 27 46 z"/>
<path style="fill:#eeefef" d="M50 46 L51 46 L52 47 L53 48 C50.39 50.21 48.07 53.76 47 57 L46 57 L45 56 L45 55 L45 54 C46.59 53.94 45.81 51.95 46 51 C47.18 51.15 47.02 49.66 47 49 L47 48 L50 46 z"/>
<path style="fill:#fefefe" d="M61 46 L61 47 L60 47 L60 46 L61 46 z"/>
<path style="fill:#818181" d="M69 47 L68 46 L69 47 z"/>
<path style="fill:#a3a3a3" d="M61 47 C62.18 46.85 62.02 48.34 62 49 L60 47 L61 47 z"/>
<path style="fill:#969696" d="M32 48 C36.86 48.15 28.18 53.21 32 48 z"/>
<path style="fill:#858585" d="M42 53 L41 48 L42 53 z"/>
<path style="fill:#141414" d="M53 48 L54 49 L55 50 L56 51 L56 53 L55 54 L51 56 C50.34 55.98 48.85 55.82 49 57 L47 57 C48.07 53.76 50.39 50.21 53 48 z"/>
<path style="fill:#ececec" d="M54 48 L54 49 L53 48 L54 48 z"/>
<path style="fill:#797979" d="M55 49 L54 49 L54 48 L55 49 z"/>
<path style="fill:#6b6c6c" d="M70 50 C68.82 50.15 68.98 48.66 69 48 C70.18 47.85 70.02 49.34 70 50 z"/>
<path style="fill:#a1a2a2" d="M25 49 C25.68 50.97 28.15 51.8 30 52 L28 54 L27 53 C27.15 51.82 25.66 51.98 25 52 C24.68 51.1 22.98 49.27 25 49 z"/>
<path style="fill:#909191" d="M47 49 C47.02 49.66 47.18 51.15 46 51 C45.98 50.34 45.82 48.85 47 49 z"/>
<path style="fill:#cfcfcf" d="M55 49 L55 50 L54 49 L55 49 z"/>
<path style="fill:#6d6d6d" d="M56 50 L55 50 L55 49 L56 50 z"/>
<path style="fill:#a9a9a9" d="M60 54 L60 53 C60.91 51.74 62.85 51.33 62 49 C66.01 50.3 62.45 53.6 60 54 z"/>
<path style="fill:#9a9a9a" d="M17 50 L16 51 L17 50 z"/>
<path style="fill:#fafafa" d="M56 50 L56 51 L55 50 L56 50 z"/>
<path style="fill:#666666" d="M46 51 C45.81 51.95 46.59 53.94 45 54 C45.19 53.05 44.41 51.06 46 51 z"/>
<path style="fill:#ebecec" d="M60 53 L60 54 C58.67 53.78 58.67 56.22 60 56 L60 57 L58 58 L56 58 C55.34 57.98 53.85 57.82 54 59 L50 59 C48.82 58.85 48.98 60.34 49 61 L48 61 L48 60 L48 59 L49 57 C49.66 57.02 51.15 57.18 51 56 L55 54 L56 53 L56 51 L60 53 z"/>
<path style="fill:#acacac" d="M25 52 C24.85 53.18 26.34 53.02 27 53 L28 54 L28 55 L27 55 C23.55 51.87 21.21 56.83 22 60 L21 60 C20.72 57.04 21.15 52.01 25 52 z"/>
<path style="fill:#161616" d="M27 53 C26.34 53.02 24.85 53.18 25 52 C25.66 51.98 27.15 51.82 27 53 z"/>
<path style="fill:#181818" d="M28 54 L27 53 L28 54 z"/>
<path style="fill:#737373" d="M45 55 L45 56 L42 56 L42 53 L45 55 z"/>
<path style="fill:#8e8e8e" d="M56 53 L55 54 L56 53 z"/>
<path style="fill:#535454" d="M16 54 L15 58 L16 54 z"/>
<path style="fill:#0b0b0b" d="M27 55 L27 58 C28.56 61.41 23.06 62.13 22 60 C21.21 56.83 23.55 51.87 27 55 z"/>
<path style="fill:#888888" d="M66 58 L65 59 C63.97 57.15 62.78 54.53 60 57 L60 56 C62 53.47 66.43 53.72 66 58 z"/>
<path style="fill:#555656" d="M72 60 L71 54 L72 60 z"/>
<path style="fill:#6b6c6c" d="M28 55 C27.98 55.66 27.82 57.15 29 57 L29 60 L27 58 L27 55 L28 55 z"/>
<path style="fill:#070707" d="M42 56 L45 56 L46 57 L47 57 C46.98 57.66 46.82 59.15 48 59 L48 60 L39 60 C38.67 58.15 40.54 56.67 42 56 z"/>
<path style="fill:#606060" d="M46 57 L45 56 L46 57 z"/>
<path style="fill:#686868" d="M51 56 C51.15 57.18 49.66 57.02 49 57 C48.85 55.82 50.34 55.98 51 56 z"/>
<path style="fill:#060606" d="M65 59 L65 60 L60 60 L60 59 L60 57 C62.78 54.53 63.97 57.15 65 59 z"/>
<path style="fill:#0e0f0f" d="M30 57 C29.85 58.18 31.34 58.02 32 58 L33 58 L34 59 C35.42 58.79 37.67 58.89 37 61 L29 60 L29 57 L30 57 z"/>
<path style="fill:#7f7f7f" d="M32 58 C31.34 58.02 29.85 58.18 30 57 C30.66 56.98 32.15 56.82 32 58 z"/>
<path style="fill:#9f9f9f" d="M49 57 L48 59 C46.82 59.15 46.98 57.66 47 57 L49 57 z"/>
<path style="fill:#808181" d="M60 57 L60 59 L59 59 L58 58 L60 57 z"/>
<path style="fill:#727272" d="M34 59 L33 58 L34 59 z"/>
<path style="fill:#7e7e7e" d="M56 58 C56.15 59.18 54.66 59.02 54 59 C53.85 57.82 55.34 57.98 56 58 z"/>
<path style="fill:#101111" d="M58 58 L59 59 L59 60 L50 59 L54 59 C54.66 59.02 56.15 59.18 56 58 L58 58 z"/>
<path style="fill:#4d4d4d" d="M50 59 L59 60 L49 61 C48.98 60.34 48.82 58.85 50 59 z"/>
<path style="fill:#4c4c4c" d="M48 60 L48 61 L39 61 L39 60 L48 60 z"/>
<path style="fill:#4b4b4b" d="M65 60 C64.55 61.6 60.45 61.6 60 60 L65 60 z"/>
</svg>
