<?xml version="1.0" standalone="yes"?>
<svg width="87" height="97">
<path style="fill:#fcfdfd" d="M87 0 L87 97 L0 97 L0 0 L87 0 z"/>
<path style="fill:#7e7e7e" d="M50 17 L40 17 C41.99 15.34 48.01 15.34 50 17 z"/>
<path style="fill:#545555" d="M40 17 C40.15 18.18 38.66 18.02 38 18 C37.85 16.82 39.34 16.98 40 17 z"/>
<path style="fill:#030404" d="M50 17 L55 18 L56 19 L58 19 L59 20 L61 21 L62 22 L65 24 L66 25 L67 26 L68 27 L70 30 L71 31 L73 36 C72.98 36.66 72.82 38.15 74 38 L74 39 C73.98 39.66 73.82 41.15 75 41 L75 44 L75 52 L75 54 C73.82 53.85 73.98 55.34 74 56 L74 57 C72.82 56.85 72.98 58.34 73 59 L72 62 L71 63 L70 65 L69 66 L68 67 L65 70 L64 71 L63 72 L62 73 L61 73 L60 74 L58 75 L59 72 L60 71 L61 70 L61 69 L62 68 L62 67 L63 66 L64 60 C65.65 58.34 65.65 52.66 64 51 L64 48 C64.02 47.34 64.18 45.85 63 46 L63 45 L62 44 L62 43 L61 42 L61 41 L60 40 L59 39 C58.87 37.13 56.98 39.18 57 40 L56 41 L54 43 L53 44 L52 45 L51 45 L50 46 L48 46 L40 46 L38 46 L37 45 L35 44 L34 43 L33 42 L32 41 L31 40 L31 39 L30 38 L29 29 C30.18 29.15 30.02 27.66 30 27 L30 25 L31 24 L36 19 L37 18 L38 18 C38.66 18.02 40.15 18.18 40 17 L50 17 z"/>
<path style="fill:#808080" d="M37 18 L36 19 L37 18 z"/>
<path style="fill:#5b5b5b" d="M56 19 L55 18 L56 19 z"/>
<path style="fill:#575757" d="M31 21 L30 20 C30.99 17.27 34.65 20.35 31 21 z"/>
<path style="fill:#aaaaaa" d="M59 20 L58 19 L59 20 z"/>
<path style="fill:#949494" d="M29 20 L28 21 L29 20 z"/>
<path style="fill:#030303" d="M30 20 L31 21 L30 22 L29 23 L28 24 L26 29 C24.82 28.85 24.98 30.34 25 31 L25 32 L24 36 L24 44 C24.19 44.95 23.41 46.94 25 47 L25 48 C24.98 48.66 24.82 50.15 26 50 L28 54 L29 55 C28.78 56.33 31.22 56.33 31 55 L32 54 L34 52 L35 51 L36 50 L41 48 L47 48 L49 48 C48.85 49.18 50.34 49.02 51 49 L53 50 L54 51 L56 53 L57 54 L58 55 L58 56 C57.98 56.66 57.82 58.15 59 58 L59 66 L59 68 L58 69 L58 70 L57 71 L57 72 L54 75 L52 76 L51 77 C47.62 78.31 43.77 78.03 40 78 C40.15 76.82 38.66 76.98 38 77 L36 77 C36.15 75.82 34.66 75.98 34 76 L32 76 L31 75 L30 75 L29 74 L27 73 L26 72 L20 66 L19 65 L18 64 L18 63 L17 62 L17 61 L16 60 L16 59 L15 58 L15 56 C15.02 55.34 15.18 53.85 14 54 L14 53 L14 43 L14 40 C15.18 40.15 15.02 38.66 15 38 L15 36 L16 35 L16 34 L17 33 L17 32 L18 31 L19 29 L20 28 L21 27 L22 26 L24 24 L25 23 L26 22 L28 21 L29 20 L30 20 z"/>
<path style="fill:#929292" d="M31 21 L30 22 L31 21 z"/>
<path style="fill:#7b7b7b" d="M62 22 L61 21 L62 22 z"/>
<path style="fill:#a1a1a1" d="M26 22 L25 23 L26 22 z"/>
<path style="fill:#949494" d="M30 22 L29 23 L30 22 z"/>
<path style="fill:#797979" d="M25 23 L24 24 L25 23 z"/>
<path style="fill:#606060" d="M29 23 L28 24 L29 23 z"/>
<path style="fill:#9a9a9a" d="M31 24 L30 25 L31 24 z"/>
<path style="fill:#999999" d="M66 25 L65 24 L66 25 z"/>
<path style="fill:#949494" d="M67 26 L66 25 L67 26 z"/>
<path style="fill:#606060" d="M22 26 L21 27 L22 26 z"/>
<path style="fill:#aaaaaa" d="M68 27 L67 26 L68 27 z"/>
<path style="fill:#797979" d="M21 27 L20 28 L21 27 z"/>
<path style="fill:#525353" d="M30 27 C30.02 27.66 30.18 29.15 29 29 C28.98 28.34 28.82 26.85 30 27 z"/>
<path style="fill:#969696" d="M20 28 L19 29 L20 28 z"/>
<path style="fill:#a0a1a1" d="M26 29 C26.02 29.66 26.18 31.15 25 31 C24.98 30.34 24.82 28.85 26 29 z"/>
<path style="fill:#939393" d="M71 31 L70 30 L71 31 z"/>
<path style="fill:#9b9b9b" d="M18 31 L17 32 L18 31 z"/>
<path style="fill:#8a8b8b" d="M25 32 L24 36 L25 32 z"/>
<path style="fill:#818181" d="M17 33 L16 34 L17 33 z"/>
<path style="fill:#9e9e9e" d="M16 35 L15 36 L16 35 z"/>
<path style="fill:#6b6b6b" d="M74 38 C72.82 38.15 72.98 36.66 73 36 C74.18 35.85 74.02 37.34 74 38 z"/>
<path style="fill:#6e6f6f" d="M15 38 C15.02 38.66 15.18 40.15 14 40 C13.98 39.34 13.82 37.85 15 38 z"/>
<path style="fill:#777777" d="M31 39 L30 38 L31 39 z"/>
<path style="fill:#f5f6f6" d="M59 39 L60 40 L61 41 L61 42 L62 43 L62 44 L63 45 L63 46 C62.98 46.66 62.82 48.15 64 48 L64 51 L64 60 L63 66 L62 67 L62 68 L61 69 L61 70 L60 71 L59 72 L57 72 L57 71 L58 70 L58 69 L59 68 L59 66 C60.65 64.66 60.65 59.34 59 58 C59.02 57.34 59.18 55.85 58 56 L58 55 L57 54 L56 53 L54 51 L53 50 L51 49 C51.15 47.82 49.66 47.98 49 48 L47 48 L47 47 L48 46 L50 46 L51 45 L52 45 L53 44 L54 43 L56 41 L57 40 C56.98 39.18 58.87 37.13 59 39 z"/>
<path style="fill:#999999" d="M60 40 L59 39 L60 40 z"/>
<path style="fill:#8a8a8a" d="M75 41 C73.82 41.15 73.98 39.66 74 39 C75.18 38.85 75.02 40.34 75 41 z"/>
<path style="fill:#979797" d="M32 41 L31 40 L32 41 z"/>
<path style="fill:#5c5c5c" d="M57 40 L56 41 L57 40 z"/>
<path style="fill:#6c6c6c" d="M61 41 L60 40 L61 41 z"/>
<path style="fill:#626262" d="M33 42 L32 41 L33 42 z"/>
<path style="fill:#5e5e5e" d="M34 43 L33 42 L34 43 z"/>
<path style="fill:#9f9f9f" d="M62 43 L61 42 L62 43 z"/>
<path style="fill:#777878" d="M14 43 L14 53 C12.34 51.01 12.34 44.99 14 43 z"/>
<path style="fill:#7a7a7a" d="M35 44 L34 43 L35 44 z"/>
<path style="fill:#595959" d="M54 43 L53 44 L54 43 z"/>
<path style="fill:#797a7a" d="M25 47 C23.41 46.94 24.19 44.95 24 44 C25.59 44.06 24.81 46.05 25 47 z"/>
<path style="fill:#828282" d="M53 44 L52 45 L53 44 z"/>
<path style="fill:#9f9f9f" d="M63 45 L62 44 L63 45 z"/>
<path style="fill:#b6b6b6" d="M75 52 L75 44 C76.65 45.34 76.65 50.66 75 52 z"/>
<path style="fill:#8a8a8a" d="M38 46 L37 45 L38 46 z"/>
<path style="fill:#7c7c7c" d="M51 45 L50 46 L51 45 z"/>
<path style="fill:#555656" d="M48 46 L47 47 L41 47 L40 46 L48 46 z"/>
<path style="fill:#8b8b8b" d="M64 48 C62.82 48.15 62.98 46.66 63 46 C64.18 45.85 64.02 47.34 64 48 z"/>
<path style="fill:#979898" d="M47 47 L47 48 L41 48 L41 47 L47 47 z"/>
<path style="fill:#696969" d="M26 50 C24.82 50.15 24.98 48.66 25 48 C26.18 47.85 26.02 49.34 26 50 z"/>
<path style="fill:#8e8e8e" d="M51 49 C50.34 49.02 48.85 49.18 49 48 C49.66 47.98 51.15 47.82 51 49 z"/>
<path style="fill:#646464" d="M36 50 L35 51 L36 50 z"/>
<path style="fill:#767676" d="M54 51 L53 50 L54 51 z"/>
<path style="fill:#616161" d="M35 51 L34 52 L35 51 z"/>
<path style="fill:#949494" d="M64 60 L64 51 C65.65 52.66 65.65 58.34 64 60 z"/>
<path style="fill:#5e5e5e" d="M57 54 L56 53 L57 54 z"/>
<path style="fill:#535454" d="M15 56 C13.82 56.15 13.98 54.66 14 54 C15.18 53.85 15.02 55.34 15 56 z"/>
<path style="fill:#707070" d="M29 55 L28 54 L29 55 z"/>
<path style="fill:#8a8a8a" d="M32 54 L31 55 L32 54 z"/>
<path style="fill:#959595" d="M58 55 L57 54 L58 55 z"/>
<path style="fill:#a7a7a7" d="M75 54 C75.02 54.66 75.18 56.15 74 56 C73.98 55.34 73.82 53.85 75 54 z"/>
<path style="fill:#545454" d="M59 58 C57.82 58.15 57.98 56.66 58 56 C59.18 55.85 59.02 57.34 59 58 z"/>
<path style="fill:#989999" d="M74 57 C74.02 57.66 74.18 59.15 73 59 C72.98 58.34 72.82 56.85 74 57 z"/>
<path style="fill:#777777" d="M16 59 L15 58 L16 59 z"/>
<path style="fill:#5f5f5f" d="M59 66 L59 58 C60.65 59.34 60.65 64.66 59 66 z"/>
<path style="fill:#616161" d="M17 61 L16 60 L17 61 z"/>
<path style="fill:#626262" d="M18 63 L17 62 L18 63 z"/>
<path style="fill:#9a9a9a" d="M72 62 L71 63 L72 62 z"/>
<path style="fill:#8d8d8d" d="M19 65 L18 64 L19 65 z"/>
<path style="fill:#5f5f5f" d="M20 66 L19 65 L20 66 z"/>
<path style="fill:#9a9a9a" d="M70 65 L69 66 L70 65 z"/>
<path style="fill:#8d8d8d" d="M63 66 L62 67 L63 66 z"/>
<path style="fill:#737373" d="M69 66 L68 67 L69 66 z"/>
<path style="fill:#565656" d="M59 68 L58 69 L59 68 z"/>
<path style="fill:#909090" d="M62 68 L61 69 L62 68 z"/>
<path style="fill:#585858" d="M58 70 L57 71 L58 70 z"/>
<path style="fill:#767676" d="M61 70 L60 71 L61 70 z"/>
<path style="fill:#585858" d="M65 70 L64 71 L65 70 z"/>
<path style="fill:#999999" d="M60 71 L59 72 L60 71 z"/>
<path style="fill:#707070" d="M64 71 L63 72 L64 71 z"/>
<path style="fill:#7c7c7c" d="M27 73 L26 72 L27 73 z"/>
<path style="fill:#abacac" d="M57 72 L59 72 L58 75 C57.54 77.05 55.07 75.62 54 75 L57 72 z"/>
<path style="fill:#a6a6a6" d="M63 72 L62 73 L63 72 z"/>
<path style="fill:#6a6a6a" d="M61 73 L60 74 L61 73 z"/>
<path style="fill:#999999" d="M30 75 L29 74 L30 75 z"/>
<path style="fill:#979797" d="M32 76 L31 75 L32 76 z"/>
<path style="fill:#525252" d="M36 77 C35.34 77.02 33.85 77.18 34 76 C34.66 75.98 36.15 75.82 36 77 z"/>
<path style="fill:#a0a0a0" d="M52 76 L51 77 L52 76 z"/>
<path style="fill:#565656" d="M40 78 C39.34 78.02 37.85 78.18 38 77 C38.66 76.98 40.15 76.82 40 78 z"/>
</svg>
