<?xml version="1.0" standalone="yes"?>
<svg width="87" height="97">
<path style="fill:#fdfdfd" d="M87 0 L87 97 L0 97 L0 0 L87 0 z"/>
<path style="fill:#949494" d="M50 18 L37 18 C39.97 16.34 47.03 16.34 50 18 z"/>
<path style="fill:#909090" d="M36 18 C36.15 19.18 34.66 19.02 34 19 C33.85 17.82 35.34 17.98 36 18 z"/>
<path style="fill:#070707" d="M37 18 L50 18 L51 18 C50.85 19.18 52.34 19.02 53 19 L54 19 C53.85 20.18 55.34 20.02 56 20 L59 21 L60 22 L62 23 L63 24 L64 25 L65 26 L67 28 L68 29 L69 30 L70 31 L70 32 L71 33 L73 38 C72.98 38.66 72.82 40.15 74 40 L75 44 L75 47 L75 53 L75 54 C73.82 53.85 73.98 55.34 74 56 L74 58 C72.82 57.85 72.98 59.34 73 60 L73 61 L72 62 L71 65 L70 66 L69 68 L68 69 L67 70 L65 72 L64 73 L63 74 L62 75 L61 75 L60 76 L58 77 L57 78 L56 78 C55.34 77.98 53.85 77.82 54 79 L52 79 C51.34 78.98 49.85 78.82 50 80 L48 80 L38 80 L36 80 C36.15 78.82 34.66 78.98 34 79 C34.15 77.82 32.66 77.98 32 78 L27 76 L26 75 L24 74 L23 73 L22 72 L21 71 L20 70 L19 69 L18 68 L17 66 L16 65 L16 64 L15 63 C15.02 62.34 15.18 60.85 14 61 L14 60 C14.02 59.34 14.18 57.85 13 58 L13 56 L13 43 L13 41 L13 40 C14.18 40.15 14.02 38.66 14 38 L14 37 L15 36 L15 35 L16 34 L16 33 L17 32 L18 30 L19 29 L20 28 L21 27 L22 26 L23 25 L24 24 L25 23 L26 23 L27 22 L29 21 L30 20 L34 19 C34.66 19.02 36.15 19.18 36 18 L37 18 z"/>
<path style="fill:#828282" d="M53 19 C52.34 19.02 50.85 19.18 51 18 C51.66 17.98 53.15 17.82 53 19 z"/>
<path style="fill:#828282" d="M56 20 C55.34 20.02 53.85 20.18 54 19 C54.66 18.98 56.15 18.82 56 20 z"/>
<path style="fill:#a5a5a5" d="M30 20 L29 21 L30 20 z"/>
<path style="fill:#a3a3a3" d="M60 22 L59 21 L60 22 z"/>
<path style="fill:#686868" d="M27 22 L26 23 L27 22 z"/>
<path style="fill:#aaaaaa" d="M25 23 L24 24 L25 23 z"/>
<path style="fill:#929292" d="M63 24 L62 23 L63 24 z"/>
<path style="fill:#7a7a7a" d="M24 24 L23 25 L24 24 z"/>
<path style="fill:#9b9b9b" d="M62 33 L62 34 L61 34 C58.94 30.53 50.84 23.94 49 28 L44 25 L40 26 L39 26 C38.05 25.81 36.06 26.59 36 25 C45.16 22.08 56.48 24.77 62 33 z"/>
<path style="fill:#7a7a7a" d="M64 25 L63 24 L64 25 z"/>
<path style="fill:#5d5d5d" d="M23 25 L22 26 L23 25 z"/>
<path style="fill:#656565" d="M36 25 C36.06 26.59 38.05 25.81 39 26 C38.23 27.67 36.22 28.76 37 31 L35 31 C35.62 29.93 37.05 27.46 35 27 L34 26 C33.85 24.82 35.34 24.98 36 25 z"/>
<path style="fill:#494949" d="M44 25 L44 29 L43 29 L42 29 C42.21 27.58 42.11 25.33 40 26 L44 25 z"/>
<path style="fill:#0d0d0d" d="M49 28 C48.81 28.95 49.59 30.94 48 31 L47 30 L44 29 L44 25 L49 28 z"/>
<path style="fill:#5e5e5e" d="M65 26 L64 25 L65 26 z"/>
<path style="fill:#5f5f5f" d="M22 26 L21 27 L22 26 z"/>
<path style="fill:#a0a1a1" d="M34 26 L35 27 L27 31 C28.4 28.49 31.36 26.64 34 26 z"/>
<path style="fill:#090a0a" d="M40 26 C42.11 25.33 42.21 27.58 42 29 C40.56 29.02 38.61 29.76 38 31 L37 31 C36.22 28.76 38.23 27.67 39 26 L40 26 z"/>
<path style="fill:#0c0c0c" d="M61 34 C57.53 33.05 53.9 32.3 51 30 L49 28 C50.84 23.94 58.94 30.53 61 34 z"/>
<path style="fill:#727272" d="M21 27 L20 28 L21 27 z"/>
<path style="fill:#1a1a1a" d="M35 27 C37.05 27.46 35.62 29.93 35 31 L34 34 L32 35 L31 34 C35.78 30.87 26.55 32.14 26 35 L28 37 L25 37 L25 33 L26 32 L27 31 L35 27 z"/>
<path style="fill:#717171" d="M20 28 L19 29 L20 28 z"/>
<path style="fill:#a5a6a6" d="M51 30 L52 34 L55 36 C52.92 40.32 48.79 32.63 48 31 C49.59 30.94 48.81 28.95 49 28 L51 30 z"/>
<path style="fill:#666666" d="M68 29 L67 28 L68 29 z"/>
<path style="fill:#999999" d="M19 29 L18 30 L19 29 z"/>
<path style="fill:#717272" d="M42 29 C42.02 29.66 42.18 31.15 41 31 C39.94 30.57 39.94 32.43 41 32 C40.98 32.66 40.82 34.15 42 34 L44 36 L42 38 C42.02 37.34 42.18 35.85 41 36 L40 35 L38 33 L38 31 C38.61 29.76 40.56 29.02 42 29 z"/>
<path style="fill:#eeeeee" d="M43 29 L44 32 L42 34 C40.82 34.15 40.98 32.66 41 32 L41 31 C42.18 31.15 42.02 29.66 42 29 L43 29 z"/>
<path style="fill:#898a8a" d="M44 29 L47 30 C47.02 30.66 47.18 32.15 46 32 C45.79 30.03 44.44 32.2 45 33 L44 32 L43 29 L44 29 z"/>
<path style="fill:#828282" d="M69 30 L68 29 L69 30 z"/>
<path style="fill:#6a6b6b" d="M48 31 C48.79 32.63 52.92 40.32 55 36 L56 37 C56.86 38.18 56.88 40.63 59 40 L54 41 L49 38 L46 35 L46 32 C47.18 32.15 47.02 30.66 47 30 L48 31 z"/>
<path style="fill:#5f5f5f" d="M61 34 C60.71 38.54 53.99 30.24 52 34 L51 30 C53.9 32.3 57.53 33.05 61 34 z"/>
<path style="fill:#aaaaaa" d="M70 31 L69 30 L70 31 z"/>
<path style="fill:#c1c1c1" d="M27 31 L26 32 L27 31 z"/>
<path style="fill:#b8b8b8" d="M35 31 L37 31 L38 31 L38 33 C37.54 33.97 34.46 36.1 34 34 L35 31 z"/>
<path style="fill:#171717" d="M41 31 L41 32 C39.94 32.43 39.94 30.57 41 31 z"/>
<path style="fill:#202020" d="M46 32 L46 35 C44.82 35.15 44.98 33.66 45 33 C44.44 32.2 45.79 30.03 46 32 z"/>
<path style="fill:#818181" d="M17 32 L16 33 L17 32 z"/>
<path style="fill:#c2c2c2" d="M26 32 L25 33 L26 32 z"/>
<path style="fill:#747575" d="M31 34 L26 35 C26.55 32.14 35.78 30.87 31 34 z"/>
<path style="fill:#bcbcbc" d="M44 32 L45 33 C44.98 33.66 44.82 35.15 46 35 L49 38 L47 38 L46 37 L45 37 L44 36 L42 34 L44 32 z"/>
<path style="fill:#666666" d="M71 33 L70 32 L71 33 z"/>
<path style="fill:#a0a1a1" d="M25 33 L25 37 L25 38 C22.84 35.8 22.39 39.3 21 40 L20 40 C21.46 37.59 22.05 34.17 25 33 z"/>
<path style="fill:#868787" d="M40 35 L35 39 L30 43 L29 40 L30 37 L32 35 L34 34 C34.46 36.1 37.54 33.97 38 33 L40 35 z"/>
<path style="fill:#0f0f0f" d="M61 34 L62 34 C65.18 38.15 58.45 36.86 56 37 L55 36 L52 34 C53.99 30.24 60.71 38.54 61 34 z"/>
<path style="fill:#cfcfcf" d="M64 35 L65 36 L66 39 L66 40 L65 40 C65.2 35.98 60.72 39.2 59 40 C56.88 40.63 56.86 38.18 56 37 C58.45 36.86 65.18 38.15 62 34 L62 33 L64 35 z"/>
<path style="fill:#737373" d="M16 34 L15 35 L16 34 z"/>
<path style="fill:#080808" d="M31 34 L32 35 L30 37 L28 37 L26 35 L31 34 z"/>
<path style="fill:#c3c3c3" d="M41 36 L41 38 L35 39 L40 35 L41 36 z"/>
<path style="fill:#606060" d="M65 36 L64 35 L65 36 z"/>
<path style="fill:#797979" d="M15 36 L14 37 L15 36 z"/>
<path style="fill:#020202" d="M42 38 L42 41 C41.82 46.92 40.37 40.44 41 38 L41 36 C42.18 35.85 42.02 37.34 42 38 z"/>
<path style="fill:#3e3e3e" d="M44 36 L45 37 L45 45 L43 46 L42 41 L42 38 L44 36 z"/>
<path style="fill:#0c0c0c" d="M25 38 L26 39 L29 40 L30 43 L29 43 C25.92 47.05 35.99 43.25 37 46 C36.98 46.66 36.82 48.15 38 48 C37.85 49.18 39.34 49.02 40 49 L41 52 L40 52 L32 53 C33.82 51.77 36.28 49.01 32 49 L27 48 C27.02 47.34 27.18 45.85 26 46 C26.22 43.99 24.01 41.78 22 42 L21 40 C22.39 39.3 22.84 35.8 25 38 z"/>
<path style="fill:#e0e1e1" d="M28 37 L30 37 L29 40 L26 39 L25 38 L25 37 L28 37 z"/>
<path style="fill:#7a7a7a" d="M46 37 C44.51 41.73 50.08 42.92 47 38 L49 38 L49 40 L49 43 C48.23 42.68 44.72 43.23 47 44 C47.15 45.18 45.66 45.02 45 45 L45 37 L46 37 z"/>
<path style="fill:#424242" d="M47 38 C50.08 42.92 44.51 41.73 46 37 L47 38 z"/>
<path style="fill:#8a8a8a" d="M14 38 C14.02 38.66 14.18 40.15 13 40 C12.98 39.34 12.82 37.85 14 38 z"/>
<path style="fill:#868686" d="M26 39 L25 38 L26 39 z"/>
<path style="fill:#747575" d="M41 38 C40.37 40.44 41.82 46.92 42 41 L43 46 L41 52 L40 49 C42.04 48.3 40.85 45.28 40 44 L35 42 L34 41 L35 39 L41 38 z"/>
<path style="fill:#c1c1c1" d="M54 41 L49 40 L49 38 L54 41 z"/>
<path style="fill:#090a0a" d="M65 40 C64.26 42.93 56.32 43.24 61 46 L58 48 C56.08 47.48 53.51 48.69 54 51 L47 52 C45.44 52.9 43.98 50.19 46 50 L47 49 C49.11 49.67 49.21 47.42 49 46 L51 44 L54 41 L59 40 C60.72 39.2 65.2 35.98 65 40 z"/>
<path style="fill:#646565" d="M74 40 C72.82 40.15 72.98 38.66 73 38 C74.18 37.85 74.02 39.34 74 40 z"/>
<path style="fill:#b3b3b3" d="M35 39 L34 41 L35 42 L40 44 L32.75 42.25 C32.24 43.14 29.85 45.49 29 43 L30 43 L35 39 z"/>
<path style="fill:#b7b7b7" d="M68 45 L68 51 C68.45 55.09 66.77 58.56 65 62 L64 63 L58 69 L57 69 L58 67 L61 64 C62.29 63.74 63.33 62.34 63 61 L65 59 C67.01 54.72 67.21 49.92 67 45 L66 40 L66 39 C67.41 40.19 67.96 42.93 68 45 z"/>
<path style="fill:#b5b6b6" d="M21 40 L22 42 L23 45 C21.49 45.29 19.5 42.94 20 46 L19 46 L19 45 L20 40 L21 40 z"/>
<path style="fill:#595959" d="M54 41 L51 44 C51.15 42.82 49.66 42.98 49 43 L49 40 L54 41 z"/>
<path style="fill:#646565" d="M66 40 L67 45 L65 45 L61 46 C56.32 43.24 64.26 42.93 65 40 L66 40 z"/>
<path style="fill:#939494" d="M75 44 L74 40 L75 44 z"/>
<path style="fill:#a7a7a7" d="M13 41 L13 43 L12 43 C11.98 42.34 11.82 40.85 13 41 z"/>
<path style="fill:#080808" d="M35 42 L34 41 L35 42 z"/>
<path style="fill:#6c6c6c" d="M22 42 C24.01 41.78 26.22 43.99 26 46 L23 45 L22 42 z"/>
<path style="fill:#363737" d="M40 44 C40.85 45.28 42.04 48.3 40 49 C39.34 49.02 37.85 49.18 38 48 C41.28 48.73 38.88 45.17 37 46 C35.99 43.25 25.92 47.05 29 43 C29.85 45.49 32.24 43.14 32.75 42.25 L40 44 z"/>
<path style="fill:#373737" d="M13 43 L13 56 L12 43 L13 43 z"/>
<path style="fill:#c7c7c7" d="M49 43 C49.66 42.98 51.15 42.82 51 44 L47 44 C44.72 43.23 48.23 42.68 49 43 z"/>
<path style="fill:#0e0f0f" d="M23 45 L27 49 L27 50 L27 52 L21.25 47.25 L24 56 C19.82 61.32 19.86 49.43 20 46 C19.5 42.94 21.49 45.29 23 45 z"/>
<path style="fill:#2f2f2f" d="M51 44 L49 46 C47.09 45.55 45.35 47.57 47 49 L46 50 L44 47 C45.18 47.15 45.02 45.66 45 45 C45.66 45.02 47.15 45.18 47 44 L51 44 z"/>
<path style="fill:#bebebe" d="M65 45 L59 50 C57.82 50.15 57.98 48.66 58 48 L61 46 L65 45 z"/>
<path style="fill:#4a4a4a" d="M19 45 L19 46 L19 53 C17.35 51.66 17.35 46.34 19 45 z"/>
<path style="fill:#dcdcdc" d="M26 46 C27.18 45.85 27.02 47.34 27 48 L27 49 L23 45 L26 46 z"/>
<path style="fill:#888888" d="M45 45 C45.02 45.66 45.18 47.15 44 47 L43 46 L45 45 z"/>
<path style="fill:#0c0d0d" d="M65 45 L67 45 C67.21 49.92 67.01 54.72 65 59 C60.34 55.92 65.44 50.9 65.75 47.25 C62.53 48.26 62.98 56.73 59 52 L59 50 L65 45 z"/>
<path style="fill:#4f4f4f" d="M68 51 L68 45 C69.62 45.73 69.62 50.27 68 51 z"/>
<path style="fill:#999a9a" d="M20 46 C19.86 49.43 19.82 61.32 24 56 L25 63 L25 65 C20.99 62.54 19.59 57.32 19 53 L19 46 L20 46 z"/>
<path style="fill:#c7c7c7" d="M38 48 C36.82 48.15 36.98 46.66 37 46 C38.88 45.17 41.28 48.73 38 48 z"/>
<path style="fill:#eaeaea" d="M43 46 L44 47 L46 50 C43.98 50.19 45.44 52.9 47 52 C49.02 51.55 48.93 52.84 48 54 C44.82 54.43 43.43 58.85 44 62 L44 63 L44 68 L44 70 L44 72 L42 71 C42.02 70.34 42.18 68.85 41 69 L42 64 L41 57 C40.05 56.81 38.06 57.59 38 56 L38 55 L40 52 L41 52 L43 46 z"/>
<path style="fill:#a4a4a4" d="M49 46 C49.21 47.42 49.11 49.67 47 49 C45.35 47.57 47.09 45.55 49 46 z"/>
<path style="fill:#6f7070" d="M27 52 L27 53 L24 56 L21.25 47.25 L27 52 z"/>
<path style="fill:#5a5b5b" d="M32 49 C29.77 50.38 30.53 50.99 32 53 L31 53 C29.44 52.48 28.67 50.22 27 52 L27 50 C28.06 50.43 28.06 48.57 27 49 L27 48 L32 49 z"/>
<path style="fill:#676767" d="M65 59 L63 61 C63.2 58.11 61.28 54.05 58 54 L59 52 C62.98 56.73 62.53 48.26 65.75 47.25 C65.44 50.9 60.34 55.92 65 59 z"/>
<path style="fill:#c3c3c3" d="M75 53 L75 47 C76.62 47.73 76.62 52.27 75 53 z"/>
<path style="fill:#8e8f8f" d="M58 48 C57.98 48.66 57.82 50.15 59 50 L59 52 L58 54 L57 55 C52.92 53.18 59.44 50.31 54 51 C53.51 48.69 56.08 47.48 58 48 z"/>
<path style="fill:#bbbbbb" d="M27 50 L27 49 C28.06 48.57 28.06 50.43 27 50 z"/>
<path style="fill:#babbbb" d="M32 53 C30.53 50.99 29.77 50.38 32 49 C36.28 49.01 33.82 51.77 32 53 z"/>
<path style="fill:#c9caca" d="M31 53 C31.02 53.66 31.18 55.15 30 55 L27 53 L27 52 C28.67 50.22 29.44 52.48 31 53 z"/>
<path style="fill:#9c9c9c" d="M54 51 L52 55 C48.84 59.76 50.9 53.79 48 54 C48.93 52.84 49.02 51.55 47 52 L54 51 z"/>
<path style="fill:#727373" d="M57 55 L55 59 L54 59 L53 57 C54.87 56.87 52.82 54.98 52 55 L54 51 C59.44 50.31 52.92 53.18 57 55 z"/>
<path style="fill:#7a7b7b" d="M40 52 L38 55 L36 55 C35.2 54.44 33.03 55.79 35 56 C35.91 60.07 31.05 55.25 32 59 L31 59 L30 55 C31.18 55.15 31.02 53.66 31 53 L32 53 L40 52 z"/>
<path style="fill:#090a0a" d="M30 55 L31 59 C28.76 59.42 26.2 61.03 25 63 L24 56 L27 53 L30 55 z"/>
<path style="fill:#5f5f5f" d="M48 54 C50.9 53.79 48.84 59.76 52 55 C52.82 54.98 54.87 56.87 53 57 C52.31 58.05 48.55 60.95 51 62 L52 66 L51 66 L50 65 C50.02 64.34 50.18 62.85 49 63 C47.82 63.15 47.98 61.66 48 61 C49.92 55.43 45.6 60.29 44 62 C43.43 58.85 44.82 54.43 48 54 z"/>
<path style="fill:#080909" d="M58 54 C61.28 54.05 63.2 58.11 63 61 C63.33 62.34 62.29 63.74 61 64 C61.06 61.81 57.96 60.34 56 60 L55 59 L57 55 L58 54 z"/>
<path style="fill:#656565" d="M75 54 C75.02 54.66 75.18 56.15 74 56 C73.98 55.34 73.82 53.85 75 54 z"/>
<path style="fill:#f5f5f5" d="M36 55 L35 56 C33.03 55.79 35.2 54.44 36 55 z"/>
<path style="fill:#9a9b9b" d="M38 55 L38 56 L37 57 C34.98 57.27 36.68 59.1 37 60 L36 62 L32 59 C31.05 55.25 35.91 60.07 35 56 L36 55 L38 55 z"/>
<path style="fill:#5e5f5f" d="M38 56 C38.06 57.59 40.05 56.81 41 57 C42.1 62.62 38.81 59.61 37 57 L38 56 z"/>
<path style="fill:#cccdcd" d="M37 57 C38.81 59.61 42.1 62.62 41 57 L42 64 L37 60 C36.68 59.1 34.98 57.27 37 57 z"/>
<path style="fill:#afb0b0" d="M53 57 L54 59 L51 62 C48.55 60.95 52.31 58.05 53 57 z"/>
<path style="fill:#929292" d="M14 60 C12.82 60.15 12.98 58.66 13 58 C14.18 57.85 14.02 59.34 14 60 z"/>
<path style="fill:#b0b0b0" d="M48 61 L44 63 L44 62 C45.6 60.29 49.92 55.43 48 61 z"/>
<path style="fill:#6b6b6b" d="M74 58 C74.02 58.66 74.18 60.15 73 60 C72.98 59.34 72.82 57.85 74 58 z"/>
<path style="fill:#717171" d="M31 59 L26 65 L25 65 L25 63 C26.2 61.03 28.76 59.42 31 59 z"/>
<path style="fill:#0b0c0c" d="M32 59 L36 62 L35 65 L28 66 L26 66 L26 65 L31 59 L32 59 z"/>
<path style="fill:#080909" d="M54 59 L55 59 L56 60 C57.06 61.68 58.72 64.18 61 64 L58 67 L52 66 L51 62 L54 59 z"/>
<path style="fill:#8e8e8e" d="M56 60 L55 59 L56 60 z"/>
<path style="fill:#6b6c6c" d="M42 64 L41 69 L39 67 C39.61 66.05 37.36 61.9 36 62 L37 60 L42 64 z"/>
<path style="fill:#6e6f6f" d="M61 64 C58.72 64.18 57.06 61.68 56 60 C57.96 60.34 61.06 61.81 61 64 z"/>
<path style="fill:#adaeae" d="M15 63 C13.82 63.15 13.98 61.66 14 61 C15.18 60.85 15.02 62.34 15 63 z"/>
<path style="fill:#4c4c4c" d="M48 61 C47.98 61.66 47.82 63.15 49 63 L49 65 C47.65 64.54 46.54 65.65 47 67 L44 68 L44 63 L48 61 z"/>
<path style="fill:#636363" d="M73 61 L72 62 L73 61 z"/>
<path style="fill:#b5b5b5" d="M39 67 L35 65 L36 62 C37.36 61.9 39.61 66.05 39 67 z"/>
<path style="fill:#5c5c5c" d="M65 62 L64 63 L65 62 z"/>
<path style="fill:#717171" d="M16 64 L15 63 L16 64 z"/>
<path style="fill:#d3d4d4" d="M50 65 L49 65 L49 63 C50.18 62.85 50.02 64.34 50 65 z"/>
<path style="fill:#949494" d="M17 66 L16 65 L17 66 z"/>
<path style="fill:#cccccc" d="M26 65 L26 66 L25 65 L26 65 z"/>
<path style="fill:#717171" d="M35 65 L30 68 L28 66 L35 65 z"/>
<path style="fill:#1c1c1c" d="M39 67 L41 69 C42.18 68.85 42.02 70.34 42 71 L42 73 C40.93 70.28 35.05 67.1 39 72 C35.59 72 32.15 70.32 30 68 L35 65 L39 67 z"/>
<path style="fill:#acacac" d="M49 65 L47 67 C46.54 65.65 47.65 64.54 49 65 z"/>
<path style="fill:#1e1e1e" d="M50 65 L51 66 L47 71 L47 72 C47.04 73.48 43.96 73.48 44 72 L44 70 L47 67 L49 65 L50 65 z"/>
<path style="fill:#727272" d="M71 65 L70 66 L71 65 z"/>
<path style="fill:#a5a5a5" d="M28 66 L30 68 C32.15 70.32 35.59 72 39 72 C39.15 73.18 37.66 73.02 37 73 C32.76 72.23 28.39 69.88 26 66 L28 66 z"/>
<path style="fill:#767676" d="M52 66 L58 67 L57 69 L56 69 C53.04 65.09 50.27 69.87 47 71 L51 66 L52 66 z"/>
<path style="fill:#999a9a" d="M47 67 L44 70 L44 68 L47 67 z"/>
<path style="fill:#080909" d="M56 69 C53.12 70.42 50.29 71.98 47 72 L47 71 C50.27 69.87 53.04 65.09 56 69 z"/>
<path style="fill:#a7a7a7" d="M19 69 L18 68 L19 69 z"/>
<path style="fill:#9c9c9c" d="M69 68 L68 69 L69 68 z"/>
<path style="fill:#898989" d="M20 70 L19 69 L20 70 z"/>
<path style="fill:#757676" d="M42 73 L42 74 L37 73 C37.66 73.02 39.15 73.18 39 72 C35.05 67.1 40.93 70.28 42 73 z"/>
<path style="fill:#9c9c9c" d="M56 69 L57 69 L58 69 C53.79 72.52 47.79 74.29 42 74 L42 73 L42 71 L44 72 C43.96 73.48 47.04 73.48 47 72 C50.29 71.98 53.12 70.42 56 69 z"/>
<path style="fill:#6d6d6d" d="M68 69 L67 70 L68 69 z"/>
<path style="fill:#757575" d="M21 71 L20 70 L21 71 z"/>
<path style="fill:#7d7d7d" d="M22 72 L21 71 L22 72 z"/>
<path style="fill:#8e8e8e" d="M23 73 L22 72 L23 73 z"/>
<path style="fill:#616161" d="M65 72 L64 73 L65 72 z"/>
<path style="fill:#9d9d9d" d="M24 74 L23 73 L24 74 z"/>
<path style="fill:#7a7a7a" d="M64 73 L63 74 L64 73 z"/>
<path style="fill:#989898" d="M63 74 L62 75 L63 74 z"/>
<path style="fill:#707070" d="M27 76 L26 75 L27 76 z"/>
<path style="fill:#5c5c5c" d="M61 75 L60 76 L61 75 z"/>
<path style="fill:#a3a3a3" d="M58 77 L57 78 L58 77 z"/>
<path style="fill:#555555" d="M34 79 C33.34 79.02 31.85 79.18 32 78 C32.66 77.98 34.15 77.82 34 79 z"/>
<path style="fill:#9a9a9a" d="M56 78 C56.15 79.18 54.66 79.02 54 79 C53.85 77.82 55.34 77.98 56 78 z"/>
<path style="fill:#989999" d="M36 80 C35.34 80.02 33.85 80.18 34 79 C34.66 78.98 36.15 78.82 36 80 z"/>
<path style="fill:#5b5c5c" d="M52 79 C52.15 80.18 50.66 80.02 50 80 C49.85 78.82 51.34 78.98 52 79 z"/>
<path style="fill:#989999" d="M48 80 C46.01 81.66 39.99 81.66 38 80 L48 80 z"/>
</svg>
