<?xml version="1.0" standalone="yes"?>
<svg width="87" height="97">
<path style="fill:#fcfdfd" d="M87 0 L87 97 L0 97 L0 0 L87 0 z"/>
<path style="fill:#151515" d="M47 23 C46.78 24.33 49.22 24.33 49 23 L53 23 L53 25 L52 28 L51 29 L50 30 C49.16 31.18 49.16 31.82 50 33 L50 36 C47.81 35.94 46.34 39.04 46 41 C43.99 42.44 41.01 42.44 39 41 L39 39 L38 38 C38.67 35.89 36.42 35.79 35 36 C35.29 32.97 36.89 30.35 34 28 L33 27 L33 26 L32 25 C31.29 22.32 34.45 23.06 36 23 C35.96 24.48 39.04 24.48 39 23 L40 22 C41.59 17.12 45.63 20.18 47 23 z"/>
<path style="fill:#727272" d="M40 22 L39 23 L40 22 z"/>
<path style="fill:#777777" d="M39 23 C39.04 24.48 35.96 24.48 36 23 L39 23 z"/>
<path style="fill:#8a8b8b" d="M44 31 L45 32 L41 32 C39.94 32.43 39.94 30.57 41 31 L42.75 23.25 L44 31 z"/>
<path style="fill:#868787" d="M49 23 C49.22 24.33 46.78 24.33 47 23 L49 23 z"/>
<path style="fill:#6a6b6b" d="M53 25 L53 23 C54.33 22.78 54.33 25.22 53 25 z"/>
<path style="fill:#a3a3a3" d="M33 26 L32 25 L33 26 z"/>
<path style="fill:#6b6c6c" d="M41 31 C39.94 30.57 39.94 32.43 41 32 C37.8 35.11 38.47 26.45 35.25 25.25 C38.06 25.83 40.09 28.35 41 31 z"/>
<path style="fill:#9f9f9f" d="M48 27 C47.86 25.12 49.88 27.14 48 27 z"/>
<path style="fill:#a7a7a7" d="M34 28 L33 27 L34 28 z"/>
<path style="fill:#737474" d="M48 27 C44.82 28.21 47.86 34.9 45 32 L44 31 C44.93 29.42 45.44 26.49 48 27 z"/>
<path style="fill:#767777" d="M23 29 L21 29 C20.78 27.67 23.22 27.67 23 29 z"/>
<path style="fill:#a3a3a3" d="M52 28 L51 29 L52 28 z"/>
<path style="fill:#727272" d="M64 29 L62 29 C61.78 27.67 64.22 27.67 64 29 z"/>
<path style="fill:#909090" d="M21 29 C21.02 29.66 21.18 31.15 20 31 C19.98 30.34 19.82 28.85 21 29 z"/>
<path style="fill:#131414" d="M23 29 L25 30 C27.96 31.05 25.62 34.26 24.25 35.75 C21.68 28.01 23.9 34.66 21 36 C19.3 33.21 16.6 37.02 21 36 C21.81 38.58 22.56 38.98 25 38 C25.95 38.19 27.94 37.41 28 39 L27 39 C26.05 39.19 24.06 38.41 24 40 C23.34 39.98 21.85 39.82 22 41 L21 41 C19.82 41.15 19.98 39.66 20 39 L16 36 L16 34 L17 34 L18 33 L19 33 L20 32 L20 31 C21.18 31.15 21.02 29.66 21 29 L23 29 z"/>
<path style="fill:#999999" d="M30 32 C30.02 31.34 30.18 29.85 29 30 C29.93 26.91 32.62 31.73 30 32 z"/>
<path style="fill:#717171" d="M51 29 L50 30 L51 29 z"/>
<path style="fill:#a1a1a1" d="M57 30 L55 30 C54.78 28.67 57.22 28.67 57 30 z"/>
<path style="fill:#0c0c0c" d="M62 29 L64 29 L65 30 L65 32 L66 33 L67 33 L63 37 C61.63 37.1 61.83 35.16 62.75 34.75 C63.83 25.78 60.1 39.07 60 34 L58 31 C58.95 30.81 60.94 31.59 61 30 L62 29 z"/>
<path style="fill:#949494" d="M65 30 L64 29 L65 30 z"/>
<path style="fill:#616262" d="M28 30 L27 36 L25 38 C22.56 38.98 21.81 38.58 21 36 C23.9 34.66 21.68 28.01 24.25 35.75 C25.62 34.26 27.96 31.05 25 30 L28 30 z"/>
<path style="fill:#131313" d="M29 30 C30.18 29.85 30.02 31.34 30 32 L29 35 L27 36 L28 30 L29 30 z"/>
<path style="fill:#181919" d="M57 30 L58 30 L58 31 L57.25 37.75 C59.19 38.4 62.43 37.15 63 40 L61 40 C60.94 38.41 58.95 39.19 58 39 C56.58 39.21 54.33 39.11 55 37 L56 36 C57.06 36.43 57.06 34.57 56 35 L55 30 L57 30 z"/>
<path style="fill:#7a7a7a" d="M61 30 C60.94 31.59 58.95 30.81 58 31 L58 30 L61 30 z"/>
<path style="fill:#595959" d="M58 31 L60 34 C60.1 39.07 63.83 25.78 62.75 34.75 C61.83 35.16 61.63 37.1 63 37 C63.32 37.9 65.02 39.73 63 40 C62.43 37.15 59.19 38.4 57.25 37.75 L58 31 z"/>
<path style="fill:#868686" d="M20 32 L19 33 L20 32 z"/>
<path style="fill:#6a6a6a" d="M66 33 L65 32 L66 33 z"/>
<path style="fill:#909090" d="M18 33 L17 34 L18 33 z"/>
<path style="fill:#6a6b6b" d="M50 36 L50 33 C51.48 32.96 51.48 36.04 50 36 z"/>
<path style="fill:#616262" d="M68 34 C67.51 35.32 64.61 37.37 68 37 L64 41 C65.85 40.62 65.48 36.01 63 37 L67 33 L68 34 z"/>
<path style="fill:#ababab" d="M16 34 L16 36 C14.67 36.22 14.67 33.78 16 34 z"/>
<path style="fill:#585858" d="M45 35 L44 35 L41 36 L41 35 C41.19 33.45 44.81 33.45 45 35 z"/>
<path style="fill:#151515" d="M69 34 L69 36 L68 37 C64.61 37.37 67.51 35.32 68 34 L69 34 z"/>
<path style="fill:#8a8b8b" d="M69 36 L69 34 C70.33 33.78 70.33 36.22 69 36 z"/>
<path style="fill:#707171" d="M21 36 C16.6 37.02 19.3 33.21 21 36 z"/>
<path style="fill:#3e3e3e" d="M29 35 L30 37 L30 39 L28 39 C27.94 37.41 25.95 38.19 25 38 L27 36 L29 35 z"/>
<path style="fill:#acadad" d="M41 35 L41 36 L41 35 z"/>
<path style="fill:#bcbdbd" d="M45 35 C47.99 36.69 42.33 39.52 44 35 L45 35 z"/>
<path style="fill:#8c8c8c" d="M56 36 L56 35 C57.06 34.57 57.06 36.43 56 36 z"/>
<path style="fill:#9e9f9f" d="M38 38 L35 36 C36.42 35.79 38.67 35.89 38 38 z"/>
<path style="fill:#a4a4a4" d="M56 36 L55 37 L56 36 z"/>
<path style="fill:#9d9d9d" d="M69 36 L68 37 L69 36 z"/>
<path style="fill:#a1a1a1" d="M30 39 L30 37 C31.33 36.78 31.33 39.22 30 39 z"/>
<path style="fill:#0d0d0d" d="M64 41 L63 41 L63 40 C65.02 39.73 63.32 37.9 63 37 C65.48 36.01 65.85 40.62 64 41 z"/>
<path style="fill:#939393" d="M39 39 L38 38 L39 39 z"/>
<path style="fill:#9d9d9d" d="M20 39 C19.98 39.66 19.82 41.15 21 41 C20.07 44.09 17.38 39.27 20 39 z"/>
<path style="fill:#646464" d="M27 39 L27 40 L24 40 C24.06 38.41 26.05 39.19 27 39 z"/>
<path style="fill:#6d6e6e" d="M61 40 L58 40 L58 39 C58.95 39.19 60.94 38.41 61 40 z"/>
<path style="fill:#868787" d="M24 40 L24 42 L22 41 C21.85 39.82 23.34 39.98 24 40 z"/>
<path style="fill:#0c0d0d" d="M27 40 C27.41 41.69 25.69 43.41 24 43 L24 42 L24 40 L27 40 z"/>
<path style="fill:#898a8a" d="M30 42 L24 45 L24 43 C25.69 43.41 27.41 41.69 27 40 L30 42 z"/>
<path style="fill:#141515" d="M61 40 L62 41 L62 42 L61 43 C59.66 43.33 58.26 42.29 58 41 L58 40 L61 40 z"/>
<path style="fill:#808181" d="M63 40 L63 41 L62 41 L61 40 L63 40 z"/>
<path style="fill:#b4b4b4" d="M39 41 C41.01 42.44 43.99 42.44 46 41 C45.85 42.18 47.34 42.02 48 42 L48 44 L44 43 L43 43 L42 43 L37 44 C37.15 42.82 35.66 42.98 35 43 L34 42 L32 42 C33.34 38.56 37.73 44.12 39 41 z"/>
<path style="fill:#979797" d="M53 42 C52.34 41.98 50.85 41.82 51 43 L52 48 C52.02 48.66 52.18 50.15 51 50 L48 44 L48 42 C49.28 41.15 52.3 39.96 53 42 z"/>
<path style="fill:#8e8e8e" d="M58 41 C58.26 42.29 59.66 43.33 61 43 L62 45 C59.88 44.71 57.28 43.52 56 42 L58 41 z"/>
<path style="fill:#141414" d="M32 42 L34 42 L29 46 L28 47 L27 48 C24.42 47.81 21.57 49.36 20 51 C18.4 50.72 16.34 51.14 16 53 L12 54 L17 49 L18 48 L20 47 L21 46 L22 46 L23 45 L24 45 L30 42 L32 42 z"/>
<path style="fill:#868787" d="M35 43 C33.72 44.52 31.12 45.71 29 46 L34 42 L35 43 z"/>
<path style="fill:#101111" d="M53 42 L56 42 C57.28 43.52 59.88 44.71 62 45 L64 46 L65 47 L67 48 L68 49 L73 54 L60 48 L53 44 C53.15 42.82 51.66 42.98 51 43 C50.85 41.82 52.34 41.98 53 42 z"/>
<path style="fill:#a8a8a8" d="M62 42 L61 43 L62 42 z"/>
<path style="fill:#0a0a0a" d="M37 44 L36 45 L28 59 C24.72 61.15 21.77 65.1 21.25 68.75 C23.73 66.21 26.66 62.45 28 59 C31.03 56.22 34.16 53.41 33 60 L33 64 L32 65 L30 66 L29 67 L28 68 L27 68 L26 69 L25 69 L24 70 C20.44 72 19.29 69.72 20 66 L21 62 L21 61 C22.18 61.15 22.02 59.66 22 59 L22 58 L27 48 L28 47 L29 46 C31.12 45.71 33.72 44.52 35 43 C35.66 42.98 37.15 42.82 37 44 z"/>
<path style="fill:#040505" d="M42 43 L42 79 L41 78 L40 77 L39 74 L38 73 L38 72 L37 71 L37 70 C37.02 69.34 37.18 67.85 36 68 L36 66 C36.02 65.34 36.18 63.85 35 64 L35 62 L34 58 C34.14 53.52 33.14 48.7 36 45 L37 44 L42 43 z"/>
<path style="fill:#828383" d="M43 43 L44 79 C44.22 80.33 41.78 80.33 42 79 L42 43 L43 43 z"/>
<path style="fill:#191919" d="M44 43 L45 77 L44 79 L43 43 L44 43 z"/>
<path style="fill:#030303" d="M48 44 L51 50 L51 55 L51 58 L50 63 L50 64 L49 69 C47.82 68.85 47.98 70.34 48 71 L47 74 L46 75 L46 76 L45 77 L44 43 L48 44 z"/>
<path style="fill:#0c0d0d" d="M51 43 C50.85 44.18 52.34 44.02 53 44 L60 51 C60.29 53.12 61.48 55.72 63 57 L64 62 L65 66 L64 71 L63 71 L62 70 L59 69 L58 68 L56 67 L55 66 L53 65 L52 64 L52 63 L52 61 L52 55 L54 55 C54.04 57.68 57.05 59.57 59 61 C58.67 62.34 59.71 63.74 61 64 C61.18 65.69 61.97 68.27 63.75 68.75 C63.99 67.08 62.79 64.61 61 64 C61.33 62.66 60.29 61.26 59 61 C58.96 58.32 55.95 56.43 54 55 L53 53 L52 48 L51 43 z"/>
<path style="fill:#b0b1b1" d="M53 44 C52.34 44.02 50.85 44.18 51 43 C51.66 42.98 53.15 42.82 53 44 z"/>
<path style="fill:#aeaeae" d="M37 44 L36 45 L37 44 z"/>
<path style="fill:#989898" d="M60 48 L60 51 L53 44 L60 48 z"/>
<path style="fill:#737373" d="M23 45 L22 46 L23 45 z"/>
<path style="fill:#8e8e8e" d="M36 45 C33.14 48.7 34.14 53.52 34 58 C34.02 58.66 34.18 60.15 33 60 C34.16 53.41 31.03 56.22 28 59 L36 45 z"/>
<path style="fill:#828282" d="M21 46 L20 47 L21 46 z"/>
<path style="fill:#c0c0c0" d="M29 46 L28 47 L29 46 z"/>
<path style="fill:#6d6d6d" d="M65 47 L64 46 L65 47 z"/>
<path style="fill:#b6b6b6" d="M28 47 L27 48 L28 47 z"/>
<path style="fill:#7f7f7f" d="M18 48 L17 49 L18 48 z"/>
<path style="fill:#8b8c8c" d="M27 48 L22 58 C21.94 56.41 19.95 57.19 19 57 C22.33 55.73 27.92 47.53 20 51 C21.57 49.36 24.42 47.81 27 48 z"/>
<path style="fill:#676767" d="M53 53 C51.82 52.85 51.98 54.34 52 55 L51 55 L51 50 C52.18 50.15 52.02 48.66 52 48 L53 53 z"/>
<path style="fill:#7d7e7e" d="M73 54 L74 55 C69.57 56.11 57.35 44.62 63 56 L63 57 C61.48 55.72 60.29 53.12 60 51 L60 48 L73 54 z"/>
<path style="fill:#666666" d="M68 49 L67 48 L68 49 z"/>
<path style="fill:#0e0f0f" d="M19 57 L11 57 L11 55 C12.61 56.48 15.31 54.85 16 53 C17.6 53.28 19.66 52.86 20 51 C27.92 47.53 22.33 55.73 19 57 z"/>
<path style="fill:#101010" d="M74 55 C77.12 57.54 70.66 57.07 69 57 L64 56 L63 56 C57.35 44.62 69.57 56.11 74 55 z"/>
<path style="fill:#7d7e7e" d="M20 51 C19.66 52.86 17.6 53.28 16 53 C16.34 51.14 18.4 50.72 20 51 z"/>
<path style="fill:#7e7e7e" d="M16 53 C15.31 54.85 12.61 56.48 11 55 L12 54 L16 53 z"/>
<path style="fill:#b0b1b1" d="M53 53 L54 55 L52 55 C51.98 54.34 51.82 52.85 53 53 z"/>
<path style="fill:#737373" d="M11 55 L11 57 C9.667 57.22 9.667 54.78 11 55 z"/>
<path style="fill:#a5a6a6" d="M52 55 L52 61 C50.41 60.94 51.19 58.95 51 58 L51 55 L52 55 z"/>
<path style="fill:#878888" d="M59 61 C57.05 59.57 54.04 57.68 54 55 C55.95 56.43 58.96 58.32 59 61 z"/>
<path style="fill:#4f4f4f" d="M69 57 L64 56 L69 57 z"/>
<path style="fill:#4d4e4e" d="M35 62 C33.82 61.85 33.98 63.34 34 64 L33 64 L33 60 C34.18 60.15 34.02 58.66 34 58 L35 62 z"/>
<path style="fill:#474747" d="M51 58 C51.19 58.95 50.41 60.94 52 61 L52 63 L50 63 L51 58 z"/>
<path style="fill:#636464" d="M22 59 C22.02 59.66 22.18 61.15 21 61 C20.98 60.34 20.82 58.85 22 59 z"/>
<path style="fill:#868787" d="M28 59 C26.66 62.45 23.73 66.21 21.25 68.75 C21.77 65.1 24.72 61.15 28 59 z"/>
<path style="fill:#909191" d="M61 64 C59.71 63.74 58.67 62.34 59 61 C60.29 61.26 61.33 62.66 61 64 z"/>
<path style="fill:#7e7f7f" d="M21 62 L20 66 L21 62 z"/>
<path style="fill:#adaeae" d="M35 62 L35 64 L34 64 C33.98 63.34 33.82 61.85 35 62 z"/>
<path style="fill:#525353" d="M65 65 L65 66 L64 62 C65.59 62.06 64.81 64.05 65 65 z"/>
<path style="fill:#959696" d="M52 63 L52 64 L50 64 L50 63 L52 63 z"/>
<path style="fill:#7e7e7e" d="M33 64 L32 65 L33 64 z"/>
<path style="fill:#5f6060" d="M36 66 C34.82 66.15 34.98 64.66 35 64 C36.18 63.85 36.02 65.34 36 66 z"/>
<path style="fill:#949494" d="M53 65 L52 64 L53 65 z"/>
<path style="fill:#8b8c8c" d="M61 64 C62.79 64.61 63.99 67.08 63.75 68.75 C61.97 68.27 61.18 65.69 61 64 z"/>
<path style="fill:#c6c7c7" d="M64 71 L65 66 L65 65 C66.99 65.61 66.48 74.36 64 71 z"/>
<path style="fill:#797979" d="M30 66 L29 67 L30 66 z"/>
<path style="fill:#878787" d="M56 67 L55 66 L56 67 z"/>
<path style="fill:#a7a7a7" d="M29 67 L28 68 L29 67 z"/>
<path style="fill:#848484" d="M27 68 L26 69 L27 68 z"/>
<path style="fill:#7d7e7e" d="M37 70 C35.82 70.15 35.98 68.66 36 68 C37.18 67.85 37.02 69.34 37 70 z"/>
<path style="fill:#a5a5a5" d="M59 69 L58 68 L59 69 z"/>
<path style="fill:#7a7a7a" d="M25 69 L24 70 L25 69 z"/>
<path style="fill:#929292" d="M49 69 C49.02 69.66 49.18 71.15 48 71 C47.98 70.34 47.82 68.85 49 69 z"/>
<path style="fill:#999999" d="M63 71 L62 70 L63 71 z"/>
<path style="fill:#686868" d="M38 72 L37 71 L38 72 z"/>
<path style="fill:#595959" d="M39 74 L38 73 L39 74 z"/>
<path style="fill:#888888" d="M47 74 L46 75 L47 74 z"/>
<path style="fill:#939393" d="M46 76 L45 77 L46 76 z"/>
<path style="fill:#7b7b7b" d="M41 78 L40 77 L41 78 z"/>
</svg>
