<?xml version="1.0" standalone="yes"?>
<svg width="87" height="97">
<path style="fill:#fdfefe" d="M87 0 L87 97 L0 97 L0 0 L87 0 z"/>
<path style="fill:#525252" d="M54 34 C56.46 21.26 38.58 29.19 31 27 C37.6 26.44 60.26 21.22 54 34 z"/>
<path style="fill:#030404" d="M54 34 L47 34 C45.34 36.31 45.34 42.69 47 45 C49.97 46.66 57.03 46.66 60 45 L60 38 L67 38 L67 60 L60 60 L60 53 C57.03 51.34 49.97 51.34 47 53 C45.34 54.99 45.34 61.01 47 63 L54 63 C56.46 75.74 38.58 67.81 31 70 C29.2 63.52 33.13 62.1 38.75 62.75 L39 53 C36.03 51.34 28.97 51.34 26 53 C24.98 57.33 24.82 62.1 18 60 L18 56 L18 38 L25 38 L26 45 C28.97 46.66 36.03 46.66 39 45 L38.75 34.25 C33.13 34.9 29.2 33.48 31 27 C38.58 29.19 56.46 21.26 54 34 z"/>
<path style="fill:#565757" d="M47 34 L47 45 C45.34 42.69 45.34 36.31 47 34 z"/>
<path style="fill:#b2b2b2" d="M25 38 L18 38 C19.03 36.36 23.97 36.36 25 38 z"/>
<path style="fill:#b3b3b3" d="M68 38 L67 38 L60 38 C61.34 36.35 66.66 36.35 68 38 z"/>
<path style="fill:#aaaaaa" d="M18 38 L18 56 C16.33 51.37 16.33 42.63 18 38 z"/>
<path style="fill:#7a7b7b" d="M26 45 L25 38 L26 45 z"/>
<path style="fill:#2a2a2a" d="M68 38 L68 60 L67 60 L67 38 L68 38 z"/>
<path style="fill:#5c5d5d" d="M39 45 C36.03 46.66 28.97 46.66 26 45 L39 45 z"/>
<path style="fill:#5b5b5b" d="M60 45 C57.03 46.66 49.97 46.66 47 45 L60 45 z"/>
<path style="fill:#212222" d="M39 53 L26 53 C28.97 51.34 36.03 51.34 39 53 z"/>
<path style="fill:#232424" d="M60 53 L47 53 C49.97 51.34 57.03 51.34 60 53 z"/>
<path style="fill:#727272" d="M26 53 C28.29 59.36 23.19 63.78 18 60 C24.82 62.1 24.98 57.33 26 53 z"/>
<path style="fill:#444444" d="M47 53 L47 63 C45.34 61.01 45.34 54.99 47 53 z"/>
<path style="fill:#7d7d7d" d="M67 60 L68 60 C66.66 61.65 61.34 61.65 60 60 L67 60 z"/>
<path style="fill:#555555" d="M31 70 C38.58 67.81 56.46 75.74 54 63 C60.26 75.78 37.6 70.56 31 70 z"/>
</svg>
