<?xml version="1.0" standalone="yes"?>
<svg width="87" height="97">
<path style="fill:#fdfdfd" d="M87 0 L87 97 L0 97 L0 0 L87 0 z"/>
<path style="fill:#858585" d="M45 23 L42 23 C41.96 21.52 45.04 21.52 45 23 z"/>
<path style="fill:#070707" d="M42 23 L45 23 L46 24 L46 31 L43.75 40.75 L40 27 L40 25 L42 23 z"/>
<path style="fill:#646565" d="M38 25 L33 25 C33.45 23.4 37.55 23.4 38 25 z"/>
<path style="fill:#3e3f3f" d="M48 26 L47 32 L46 31 L46 24 L48 26 z"/>
<path style="fill:#4e4e4e" d="M53 24 L53 25 L49 25 L53 24 z"/>
<path style="fill:#a7a7a7" d="M54 25 L53 25 L53 24 L54 25 z"/>
<path style="fill:#0b0b0b" d="M33 25 L38 25 L39 27 C37.9 31.63 44.13 39.71 39 41 L40 43 L33.25 40.25 C34.3 41.99 36.88 43.67 39 44 L35 45 L23 42 L22 42 L21 41 L21 40 L21 37 L22 36 C25.05 36.8 28.65 35.4 25 33 L25 32 C26.18 32.15 26.02 30.66 26 30 L27 29 L30 29 L31 29 L32 30 C32.18 32.22 33.59 34.96 35.75 35.75 L32 29 L32 26 L33 25 z"/>
<path style="fill:#858585" d="M40 25 L40 27 L39 27 L38 25 L40 25 z"/>
<path style="fill:#606060" d="M49 25 L48 26 L49 25 z"/>
<path style="fill:#080808" d="M53 25 L54 25 L55 29 L46 42 L45 42 L47 32 L48 26 L49 25 L53 25 z"/>
<path style="fill:#acadad" d="M32 26 L32 29 L32 30 L31 29 C31.19 28.05 30.41 26.06 32 26 z"/>
<path style="fill:#2a2b2b" d="M40 27 L43.75 40.75 L46 31 L47 32 L45 42 C44.05 42.19 42.06 41.41 42 43 L40 43 L39 41 C44.13 39.71 37.9 31.63 39 27 L40 27 z"/>
<path style="fill:#979797" d="M30 29 L27 29 C26.96 27.52 30.04 27.52 30 29 z"/>
<path style="fill:#9a9a9a" d="M60 29 L57 29 C56.96 27.52 60.04 27.52 60 29 z"/>
<path style="fill:#393939" d="M32 30 L32 29 L35.75 35.75 C33.59 34.96 32.18 32.22 32 30 z"/>
<path style="fill:#363737" d="M55 29 L56 29 L46 42 L55 29 z"/>
<path style="fill:#090909" d="M57 29 L60 29 L61 30 L61 34 C54.34 37.89 59.12 37.75 64 36 L65 36 L66 37 C66.08 38.83 66.37 41.54 64 42 C59.88 42.27 55.21 43.29 52 45 L48 45 L48 44 C54.84 40.49 48.95 42.91 46 42 L56 29 L57 29 z"/>
<path style="fill:#858585" d="M61 30 L60 29 L61 30 z"/>
<path style="fill:#606161" d="M26 30 C26.02 30.66 26.18 32.15 25 32 C24.98 31.34 24.82 29.85 26 30 z"/>
<path style="fill:#717171" d="M61 34 L61 30 C62.55 30.19 62.55 33.81 61 34 z"/>
<path style="fill:#6b6c6c" d="M22 36 L25 33 C28.65 35.4 25.05 36.8 22 36 z"/>
<path style="fill:#3e3e3e" d="M61 34 L64 36 C59.12 37.75 54.34 37.89 61 34 z"/>
<path style="fill:#818181" d="M22 36 L21 37 L22 36 z"/>
<path style="fill:#a2a2a2" d="M66 37 L65 36 L66 37 z"/>
<path style="fill:#9b9b9b" d="M21 37 L21 40 C19.52 40.04 19.52 36.96 21 37 z"/>
<path style="fill:#2d2e2e" d="M40 43 L39 44 C36.88 43.67 34.3 41.99 33.25 40.25 L40 43 z"/>
<path style="fill:#969696" d="M22 42 L21 41 L22 42 z"/>
<path style="fill:#4d4e4e" d="M48 44 L46 44 L42 43 C42.06 41.41 44.05 42.19 45 42 L46 42 C48.95 42.91 54.84 40.49 48 44 z"/>
<path style="fill:#353636" d="M35 45 L21 44 L23 42 L35 45 z"/>
<path style="fill:#323232" d="M64 42 L66 44 L52 45 C55.21 43.29 59.88 42.27 64 42 z"/>
<path style="fill:#3f4040" d="M42 43 L40 46 L19 47 C18.98 46.34 18.82 44.85 20 45 C23.63 46.66 31.37 46.66 35 45 L39 44 L40 43 L42 43 z"/>
<path style="fill:#080909" d="M46 44 L46 45 L40 46 L42 43 L46 44 z"/>
<path style="fill:#070808" d="M21 44 L35 45 C31.37 46.66 23.63 46.66 20 45 L21 44 z"/>
<path style="fill:#666666" d="M48 44 L48 45 L67 47 L67 48 L41 48 C41.45 45.77 49.43 48.28 46 45 L46 44 L48 44 z"/>
<path style="fill:#090909" d="M66 44 L67 45 C63.37 46.66 55.63 46.66 52 45 L66 44 z"/>
<path style="fill:#3c3d3d" d="M41 48 L40 48 L40 46 L46 45 C49.43 48.28 41.45 45.77 41 48 z"/>
<path style="fill:#3e3e3e" d="M52 45 C55.63 46.66 63.37 46.66 67 45 C68.33 44.78 68.33 47.22 67 47 L48 45 L52 45 z"/>
<path style="fill:#656666" d="M40 46 L40 48 L19 48 L19 47 L40 46 z"/>
<path style="fill:#838383" d="M19 47 L19 48 L6 49 L6 50 C3.03 44.49 15.33 47.96 19 47 z"/>
<path style="fill:#010202" d="M19 48 L40 48 L41 48 L67 48 C67.15 49.18 65.66 49.02 65 49 L6 49 L19 48 z"/>
<path style="fill:#303030" d="M68 48 L69 49 C72.1 50.48 72.99 55.26 71 58 L70 59 L69 60 L68 61 L67 61 C66.05 60.81 64.06 61.59 64 60 C64.02 59.34 64.18 57.85 63 58 C63.08 56.17 63.37 53.46 61 53 L61 52 L62 51 C65.57 50.91 66.96 56.27 65.25 58.75 C70.39 59.29 70.3 49.61 65 50 L65 49 C65.66 49.02 67.15 49.18 67 48 L68 48 z"/>
<path style="fill:#8c8c8c" d="M69 49 L68 48 L69 49 z"/>
<path style="fill:#5e5f5f" d="M65 49 L65 50 C64.05 50.19 62.06 49.41 62 51 L8 51 C8.155 49.82 6.663 49.98 6 50 L6 49 L65 49 z"/>
<path style="fill:#eceded" d="M65 50 C70.3 49.61 70.39 59.29 65.25 58.75 C66.96 56.27 65.57 50.91 62 51 C62.06 49.41 64.05 50.19 65 50 z"/>
<path style="fill:#010202" d="M62 51 L61 52 L8 52 L8 51 L62 51 z"/>
<path style="fill:#676767" d="M61 52 L61 53 L60 54 L11 54 L8 52 L61 52 z"/>
<path style="fill:#d1d1d1" d="M61 53 C63.37 53.46 63.08 56.17 63 58 L62 59 L61 59 L60 58 L61 57 C60.81 56.05 61.59 54.06 60 54 L61 53 z"/>
<path style="fill:#030303" d="M60 54 C61.59 54.06 60.81 56.05 61 57 L60 58 L30 59 C27.82 59.25 26.98 63.31 29 64 L30 65 L78 66 L78 67 L32 67 L31 67 L29 67 L28 66 L27 65 C27.02 64.34 27.18 62.85 26 63 L26 61 L29 57 L59 56 L24 55 L11 55 L11 54 L60 54 z"/>
<path style="fill:#727272" d="M24 55 L24 56 L11 55 L24 55 z"/>
<path style="fill:#888989" d="M29 57 L27 57 L25 57 L24 56 L24 55 L59 56 L29 57 z"/>
<path style="fill:#0a0a0a" d="M25 57 L27 57 L25 59 C22.55 60.1 21.03 63.8 23 66 L24 67 L25 68 L26 68 C42.64 69.67 63.36 69.67 80 68 L81 68 L81 70 L68 70 L25 70 L24 70 L23 69 C20.04 67.69 19.77 63.91 20 61 L21 60 C21.67 58.54 23.15 56.67 25 57 z"/>
<path style="fill:#4a4b4b" d="M29 57 L26 61 C26.02 60.34 26.18 58.85 25 59 L27 57 L29 57 z"/>
<path style="fill:#585858" d="M61 57 L60 58 L61 57 z"/>
<path style="fill:#555555" d="M60 58 L61 59 L32 60 C32.15 58.82 30.66 58.98 30 59 L60 58 z"/>
<path style="fill:#636363" d="M63 58 L62 59 L63 58 z"/>
<path style="fill:#030404" d="M64 60 L61 61 L33 62 L61 63 L62 63 L76 63 L76 64 L32 64 L31 63 L31 61 L32 60 L61 59 L62 59 L63 58 C64.18 57.85 64.02 59.34 64 60 z"/>
<path style="fill:#8a8a8a" d="M71 58 L70 59 L71 58 z"/>
<path style="fill:#e1e2e2" d="M25 59 C26.18 58.85 26.02 60.34 26 61 L26 63 C25.98 63.66 25.82 65.15 27 65 L28 66 L29 67 L31 67 L26 68 L25 68 L24 67 L23 66 C21.03 63.8 22.55 60.1 25 59 z"/>
<path style="fill:#c5c6c6" d="M30 59 C30.66 58.98 32.15 58.82 32 60 L31 61 C29.67 60.78 29.67 63.22 31 63 L32 64 L32 65 L30 65 L29 64 C26.98 63.31 27.82 59.25 30 59 z"/>
<path style="fill:#999999" d="M21 60 L20 61 L21 60 z"/>
<path style="fill:#7d7d7d" d="M64 60 C64.06 61.59 66.05 60.81 67 61 L67 62 L62 63 L61 63 L61 61 L64 60 z"/>
<path style="fill:#898989" d="M69 60 L68 61 L69 60 z"/>
<path style="fill:#585858" d="M31 61 L31 63 C29.67 63.22 29.67 60.78 31 61 z"/>
<path style="fill:#494a4a" d="M61 61 L61 63 L33 62 L61 61 z"/>
<path style="fill:#535353" d="M67 62 L76 63 L62 63 L67 62 z"/>
<path style="fill:#686868" d="M27 65 C25.82 65.15 25.98 63.66 26 63 C27.18 62.85 27.02 64.34 27 65 z"/>
<path style="fill:#6c6c6c" d="M30 65 L29 64 L30 65 z"/>
<path style="fill:#838383" d="M76 64 L76 65 L32 65 L32 64 L76 64 z"/>
<path style="fill:#414242" d="M32 65 L76 65 L78 65 L78 66 L30 65 L32 65 z"/>
<path style="fill:#585858" d="M80 68 C63.36 69.67 42.64 69.67 26 68 L31 67 L32 67 C45.97 68.67 64.03 68.67 78 67 L78 66 L78 65 L80 68 z"/>
<path style="fill:#717171" d="M24 67 L23 66 L24 67 z"/>
<path style="fill:#6a6a6a" d="M29 67 L28 66 L29 67 z"/>
<path style="fill:#686868" d="M25 68 L24 67 L25 68 z"/>
<path style="fill:#444545" d="M78 67 C64.03 68.67 45.97 68.67 32 67 L78 67 z"/>
<path style="fill:#a4a4a4" d="M81 70 L81 68 C82.33 67.78 82.33 70.22 81 70 z"/>
<path style="fill:#717171" d="M24 70 L23 69 L24 70 z"/>
<path style="fill:#727373" d="M68 70 L68 71 L25 70 L68 70 z"/>
<path style="fill:#999a9a" d="M81 70 L68 71 L68 70 L81 70 z"/>
</svg>
