<?xml version="1.0" standalone="yes"?>
<svg width="87" height="97">
<path style="fill:#fcfcfc" d="M87 0 L87 97 L0 97 L0 0 L87 0 z"/>
<path style="fill:#a8a9a9" d="M44 8 L42 8 C41.78 6.667 44.22 6.667 44 8 z"/>
<path style="fill:#0e0f0f" d="M44 8 L45 9 L46 10 C44.29 12.26 45.23 15.31 45 18 L43 10 L41 18 L41 10 L42 8 L44 8 z"/>
<path style="fill:#6b6b6b" d="M45 9 L44 8 L45 9 z"/>
<path style="fill:#737373" d="M46 10 L45 9 L46 10 z"/>
<path style="fill:#656666" d="M41 10 L41 18 C39.82 17.85 39.98 19.34 40 20 C36.98 18.73 41.48 11.71 37 12 L41 10 z"/>
<path style="fill:#888888" d="M45 18 L47 12 C47.76 16.08 46.18 19.48 45 23 C43.44 27.38 42.56 27.38 41 23 L40 20 C39.98 19.34 39.82 17.85 41 18 L43 10 L45 18 z"/>
<path style="fill:#555656" d="M49 11 C48.34 10.98 46.85 10.82 47 12 L45 18 C45.23 15.31 44.29 12.26 46 10 C46.95 10.19 48.94 9.408 49 11 z"/>
<path style="fill:#0c0d0d" d="M49 11 L50 12 L50 13 L50 14 L49 14 L47 24 C45.82 23.85 45.98 25.34 46 26 C44.41 25.94 45.19 23.95 45 23 C46.18 19.48 47.76 16.08 47 12 C46.85 10.82 48.34 10.98 49 11 z"/>
<path style="fill:#a0a0a0" d="M50 12 L49 11 L50 12 z"/>
<path style="fill:#868787" d="M37 12 L37 14 L38 19 L40 26 L40 27 C34.99 24.64 38.02 15.67 34 14 L37 12 z"/>
<path style="fill:#070707" d="M40 20 L41 23 C40.81 23.95 41.59 25.94 40 26 L38 19 L37 14 L37 12 C41.48 11.71 36.98 18.73 40 20 z"/>
<path style="fill:#757676" d="M52 14 L50 14 L50 13 C50.66 12.98 52.15 12.82 52 14 z"/>
<path style="fill:#191a1a" d="M40 27 C39.98 27.66 39.82 29.15 41 29 L41 30 L40 31 C35.63 28.88 34.88 11.7 33 21 C29.86 25.07 34.34 31.39 38 34 L39 35 L40 36 L41 38 L41 39 L38 37 L35 35 C32.76 30.07 32.56 31.73 32 35 L30 33 L29 32 L28 31 L28 30 L28 28 L30 22 L31 17 C30.85 15.82 32.34 15.98 33 16 L34 15 L34 14 C38.02 15.67 34.99 24.64 40 27 z"/>
<path style="fill:#454646" d="M38 19 L37 14 L38 19 z"/>
<path style="fill:#797979" d="M49 14 C48.9 16.83 49.79 24.95 47 24 L49 14 z"/>
<path style="fill:#2b2c2c" d="M50 14 C49.98 14.66 49.82 16.15 51 16 L49 27 L45 32 L44 31 C45.63 30.5 48.1 26.84 46 26 C45.98 25.34 45.82 23.85 47 24 C49.79 24.95 48.9 16.83 49 14 L50 14 z"/>
<path style="fill:#131414" d="M52 14 L53 15 L53 16 L54 17 L57 21 L58 27 C59.59 27.06 58.81 29.05 59 30 L55 35 L54 36 L53 36 L51.25 35.75 L54 29 L50 34 L53.75 20.25 L45 36 L45 35 C46.53 32.47 49.62 30.42 49 27 C51.11 24.59 53.19 18.71 51 16 C49.82 16.15 49.98 14.66 50 14 L52 14 z"/>
<path style="fill:#707070" d="M53 15 L52 14 L53 15 z"/>
<path style="fill:#a3a3a3" d="M34 15 L33 16 L34 15 z"/>
<path style="fill:#757676" d="M49 27 L51 16 C53.19 18.71 51.11 24.59 49 27 z"/>
<path style="fill:#686868" d="M54 17 L53 16 L54 17 z"/>
<path style="fill:#b2b2b2" d="M31 17 L30 22 L31 17 z"/>
<path style="fill:#737474" d="M40 31 L40 32 L36 29 L33 21 C34.88 11.7 35.63 28.88 40 31 z"/>
<path style="fill:#7f7f7f" d="M50 34 L49 35 L48 36 C46.55 36.32 43.53 39.57 47 39 L46 53 C46.15 51.82 44.66 51.98 44 52 L44 47 L44 45 C44.31 42 43.18 38.56 45 36 L53.75 20.25 L50 34 z"/>
<path style="fill:#7d7d7d" d="M33 21 C32.77 23.91 33.04 27.69 36 29 L38 34 C34.34 31.39 29.86 25.07 33 21 z"/>
<path style="fill:#272727" d="M36 29 C33.04 27.69 32.77 23.91 33 21 L36 29 z"/>
<path style="fill:#636363" d="M58 27 L57 21 L58 27 z"/>
<path style="fill:#474848" d="M45 23 C45.19 23.95 44.41 25.94 46 26 L41 29 C39.82 29.15 39.98 27.66 40 27 L40 26 C41.59 25.94 40.81 23.95 41 23 C42.56 27.38 43.44 27.38 45 23 z"/>
<path style="fill:#888989" d="M44 31 L41 30 L41 29 L46 26 C48.1 26.84 45.63 30.5 44 31 z"/>
<path style="fill:#868787" d="M49 27 C49.62 30.42 46.53 32.47 45 35 C42.98 34.73 44.68 32.9 45 32 L49 27 z"/>
<path style="fill:#989999" d="M28 28 L28 30 C26.67 30.22 26.67 27.78 28 28 z"/>
<path style="fill:#1f2020" d="M40 32 L41 35 L40 35 L39 35 L38 34 L36 29 L40 32 z"/>
<path style="fill:#777777" d="M53 36 L50 40 L48 38 L48 36 L49 35 L50 34 L54 29 L51.25 35.75 L53 36 z"/>
<path style="fill:#acacac" d="M70 30 L70 31 L67 30 C67.27 27.98 69.1 29.68 70 30 z"/>
<path style="fill:#9b9c9c" d="M72 29 C72.15 30.18 70.66 30.02 70 30 C69.85 28.82 71.34 28.98 72 29 z"/>
<path style="fill:#292a2a" d="M74 29 L73 34 C73.02 34.66 73.18 36.15 72 36 L69 38 L70 32 L70 31 L70 30 C70.66 30.02 72.15 30.18 72 29 L74 29 z"/>
<path style="fill:#616262" d="M75 32 L73 34 L74 29 C75.59 29.06 74.81 31.05 75 32 z"/>
<path style="fill:#474747" d="M44 31 L45 32 C44.68 32.9 42.98 34.73 45 35 L45 36 C43.18 38.56 44.31 42 44 45 L42 43 C41.34 42.98 39.85 42.82 40 44 L41 41 C42.33 41.22 42.33 38.78 41 39 L41 38 C43.02 37.81 41.56 35.1 40 36 L40 35 L41 35 C44.51 35.78 42.39 31.02 40 32 L40 31 L41 30 L44 31 z"/>
<path style="fill:#e2e3e3" d="M59 30 C58.79 31.42 58.89 33.67 61 33 C59.45 34.24 56.63 34.9 57 38 L56 44 L54 46 L52 44 L53 44 L54 43 C55.55 42.81 55.55 39.19 54 39 L50 40 L53 36 L54 36 L55 35 L59 30 z"/>
<path style="fill:#696969" d="M67 30 L66 31 L67 30 z"/>
<path style="fill:#0f0f0f" d="M70 31 L70 32 L69 34 L67 33 L57.25 41.75 L57 38 C56.63 34.9 59.45 34.24 61 33 L62 32 L66 31 L67 30 L70 31 z"/>
<path style="fill:#bebebe" d="M11 31 C11.11 33.34 11.65 37.15 8 36 L11 31 z"/>
<path style="fill:#151515" d="M16 32 C15.78 33.33 18.22 33.33 18 32 L20 32 L28 35 L30 38 C30.02 38.66 30.18 40.15 29 40 L29 49 C29.25 50.96 29.22 57.51 27 53 L26 44 C26.34 40.96 25.36 35.5 22.25 35.25 C24.25 39.8 25.66 45.31 25 51 L24 51 L22 41 L18.25 34.25 L21 41 L21 48 L19 46 L19 43 C19.29 39.8 17.77 35.9 15.25 34.25 L15.75 39.25 C13.84 34.69 11.19 32.65 13 39 C8.1 37.14 14.08 45.73 17 45 L18 46 L11.25 44.25 C11.81 47.22 16.91 49.17 20 50 L23 52 L10.25 48.25 C14.2 51.86 20.32 54.79 26 55 C27.01 60.25 1.463 49.12 21 58 L15 59 L14 59 L13 58 C11.32 56.94 8.825 55.28 9 53 C10.33 53.22 10.33 50.78 9 51 L8 50 L8 49 L8 47 C9.061 47.43 9.061 45.57 8 46 L8 42 C9.333 42.22 9.333 39.78 8 40 L8 36 C11.65 37.15 11.11 33.34 11 31 L16 32 z"/>
<path style="fill:#707070" d="M20 32 L18 32 C17.78 30.67 20.22 30.67 20 32 z"/>
<path style="fill:#a5a5a5" d="M29 32 L28 31 L29 32 z"/>
<path style="fill:#747474" d="M35 35 C35.04 36.48 31.96 36.48 32 35 C32.56 31.73 32.76 30.07 35 35 z"/>
<path style="fill:#8e8f8f" d="M66 31 L62 32 L66 31 z"/>
<path style="fill:#757676" d="M18 32 C18.22 33.33 15.78 33.33 16 32 L18 32 z"/>
<path style="fill:#717171" d="M30 33 L29 33 L29 32 L30 33 z"/>
<path style="fill:#878787" d="M41 35 L40 32 C42.39 31.02 44.51 35.78 41 35 z"/>
<path style="fill:#969696" d="M62 32 L61 33 L62 32 z"/>
<path style="fill:#898989" d="M69 38 C66.21 39.7 70.02 42.4 69 38 L72 36 L71 40 C69.67 39.78 69.67 42.22 71 42 L66.25 47.75 C70.51 47.8 73.45 42.61 76 40 L77 40 C75.97 43.23 73.05 45.3 70.75 47.75 L65 50 C59.01 59.96 82.38 40.43 74.25 49.25 L70.75 51.75 L65 55 L60 55 L60 54 L60 52 C60.66 52.02 62.15 52.18 62 51 C61.42 46.3 63.01 42.24 64 38 L65 38 L65 40 C63.47 42.18 63.9 45.21 64.25 47.75 C66.48 46.32 66 42.62 66 40 L69 34 L70 32 L69 38 z"/>
<path style="fill:#111212" d="M75 32 L75 35 L71 40 L72 36 C73.18 36.15 73.02 34.66 73 34 L75 32 z"/>
<path style="fill:#e6e6e6" d="M30 33 L32 35 C31.96 36.48 35.04 36.48 35 35 L38 37 L37 39 L33 40 L33 43 L33 46 L31 41 C30.81 40.05 31.59 38.06 30 38 L28 35 L29 33 L30 33 z"/>
<path style="fill:#6d6e6e" d="M67 33 C67.23 34.83 66.5 37.15 65 38 L64 38 C60.39 40.4 60.02 47.76 62 51 C62.15 52.18 60.66 52.02 60 52 C58.23 50.78 58.67 46.53 59.75 44.75 C59.83 37.16 52.94 58.46 60 54 L60 55 C60.45 56.6 64.55 56.6 65 55 L67 55 L68 56 C65.73 58.33 61.44 58.05 58 58 C59.85 55.84 57.41 55.74 56 57 L55 51 L56 44 L57 38 L57.25 41.75 L67 33 z"/>
<path style="fill:#2b2c2c" d="M69 34 L66 40 L65 40 L65 38 C66.5 37.15 67.23 34.83 67 33 L69 34 z"/>
<path style="fill:#757676" d="M19 43 C17.65 42.54 16.54 43.65 17 45 C14.08 45.73 8.1 37.14 13 39 C12.84 43.53 17.07 40.46 13 39 C11.19 32.65 13.84 34.69 15.75 39.25 L15.25 34.25 C17.77 35.9 19.29 39.8 19 43 z"/>
<path style="fill:#737373" d="M22 41 L21 41 L18.25 34.25 L22 41 z"/>
<path style="fill:#a1a1a1" d="M39 35 L38 34 L39 35 z"/>
<path style="fill:#090909" d="M50 34 L49 35 L50 34 z"/>
<path style="fill:#7a7a7a" d="M26 44 L25 51 C25.66 45.31 24.25 39.8 22.25 35.25 C25.36 35.5 26.34 40.96 26 44 z"/>
<path style="fill:#a1a1a1" d="M40 35 L40 36 L39 35 L40 35 z"/>
<path style="fill:#0c0c0c" d="M49 35 L48 36 L49 35 z"/>
<path style="fill:#696969" d="M55 35 L54 36 L55 35 z"/>
<path style="fill:#656565" d="M75 35 L79 40 L77 40 L76 40 C78.28 32.22 73.69 39.98 71 42 C69.67 42.22 69.67 39.78 71 40 L75 35 z"/>
<path style="fill:#a6a6a6" d="M41 38 L40 36 C41.56 35.1 43.02 37.81 41 38 z"/>
<path style="fill:#333333" d="M48 36 L48 38 L47 39 C43.53 39.57 46.55 36.32 48 36 z"/>
<path style="fill:#101111" d="M76 40 C73.45 42.61 70.51 47.8 66.25 47.75 L71 42 C73.69 39.98 78.28 32.22 76 40 z"/>
<path style="fill:#9a9b9b" d="M41 39 C42.33 38.78 42.33 41.22 41 41 C40.39 39.76 38.44 39.02 37 39 L38 37 L41 39 z"/>
<path style="fill:#282929" d="M31 41 L30 47 L29 40 C30.18 40.15 30.02 38.66 30 38 C31.59 38.06 30.81 40.05 31 41 z"/>
<path style="fill:#bfbfbf" d="M48 38 L47 39 L48 38 z"/>
<path style="fill:#0e0e0e" d="M50 40 L54 39 L54 43 L53 44 L52 44 C48.12 45.83 51.38 47.78 54 46 L51 53 C52.56 54.97 51.86 57.61 52 60 L49 62 C46.48 64.36 45.37 61.48 46 59 L46 53 L47 39 L48 38 L50 40 z"/>
<path style="fill:#181919" d="M64 38 C63.01 42.24 61.42 46.3 62 51 C60.02 47.76 60.39 40.4 64 38 z"/>
<path style="fill:#1b1b1b" d="M69 38 C70.02 42.4 66.21 39.7 69 38 z"/>
<path style="fill:#101111" d="M13 39 C17.07 40.46 12.84 43.53 13 39 z"/>
<path style="fill:#8e8f8f" d="M29 40 L30 47 C30.02 47.66 30.18 49.15 29 49 L29 40 z"/>
<path style="fill:#707171" d="M37 39 L33 40 L37 39 z"/>
<path style="fill:#0c0c0c" d="M41 41 L40 44 L40 58 L39 62 L34 59 L35 52 L34 51 L34 46 C37.51 46.78 35.39 42.02 33 43 L33 40 L37 39 C38.44 39.02 40.39 39.76 41 41 z"/>
<path style="fill:#848585" d="M54 43 L54 39 C55.55 39.19 55.55 42.81 54 43 z"/>
<path style="fill:#a9a9a9" d="M8 42 L8 40 C9.333 39.78 9.333 42.22 8 42 z"/>
<path style="fill:#121212" d="M66 40 C66 42.62 66.48 46.32 64.25 47.75 C63.9 45.21 63.47 42.18 65 40 L66 40 z"/>
<path style="fill:#131313" d="M79 40 L79 43 C76.95 43.46 78.38 45.93 79 47 L79 48 L67 55 L65 55 L70.75 51.75 L74.25 49.25 C82.38 40.43 59.01 59.96 65 50 L70.75 47.75 C73.05 45.3 75.97 43.23 77 40 L79 40 z"/>
<path style="fill:#959696" d="M22 41 L24 51 L24 52 L23 52 L20 50 C19.98 49.34 19.82 47.85 21 48 L21 41 L22 41 z"/>
<path style="fill:#7b7c7c" d="M33 46 L34 46 L34 51 L32 51 C27.77 55.89 33.65 60.91 33 53 C33.66 53.02 35.15 53.18 35 52 L34 59 L31 60 C30.74 58.71 29.34 57.67 28 58 L21 58 C1.463 49.12 27.01 60.25 26 55 C20.32 54.79 14.2 51.86 10.25 48.25 L23 52 L24 52 C24.66 51.98 26.15 51.82 26 53 C24.12 52.86 26.14 54.88 26 53 L27 53 C29.22 57.51 29.25 50.96 29 49 C30.18 49.15 30.02 47.66 30 47 L31 41 L33 46 z"/>
<path style="fill:#2d2d2d" d="M44 45 L44 47 L42 50 L42 43 L44 45 z"/>
<path style="fill:#1f1f1f" d="M60 52 L60 54 C52.94 58.46 59.83 37.16 59.75 44.75 C58.67 46.53 58.23 50.78 60 52 z"/>
<path style="fill:#c1c2c2" d="M19 43 L19 46 L18 46 L17 45 C16.54 43.65 17.65 42.54 19 43 z"/>
<path style="fill:#adaeae" d="M34 46 L33 46 L33 43 C35.39 42.02 37.51 46.78 34 46 z"/>
<path style="fill:#8b8c8c" d="M42 43 L42 50 L42 59 L40 58 L40 44 C39.85 42.82 41.34 42.98 42 43 z"/>
<path style="fill:#8a8a8a" d="M54 43 L53 44 L54 43 z"/>
<path style="fill:#7e7e7e" d="M79 43 L79 47 C78.38 45.93 76.95 43.46 79 43 z"/>
<path style="fill:#7b7b7b" d="M18 46 L19 46 L21 48 C19.82 47.85 19.98 49.34 20 50 C16.91 49.17 11.81 47.22 11.25 44.25 L18 46 z"/>
<path style="fill:#4c4c4c" d="M27 53 L26 53 C26.15 51.82 24.66 51.98 24 52 L24 51 L25 51 L26 44 L27 53 z"/>
<path style="fill:#9b9b9b" d="M52 44 L54 46 C51.38 47.78 48.12 45.83 52 44 z"/>
<path style="fill:#cecece" d="M56 44 L55 51 L55 53 L51 53 L54 46 L56 44 z"/>
<path style="fill:#878787" d="M8 47 L8 46 C9.061 45.57 9.061 47.43 8 47 z"/>
<path style="fill:#888888" d="M8 47 L8 49 C6.667 49.22 6.667 46.78 8 47 z"/>
<path style="fill:#0d0d0d" d="M44 47 L44 52 L44 59 L45 76 L45 82 L45 85 L42 85 L42 76 L42 74 L42 59 L42 50 L44 47 z"/>
<path style="fill:#808080" d="M79 48 L78 51 L68 56 L67 55 L79 48 z"/>
<path style="fill:#a2a2a2" d="M9 51 L8 50 L9 51 z"/>
<path style="fill:#e3e3e3" d="M34 51 L35 52 C35.15 53.18 33.66 53.02 33 53 L32 51 L34 51 z"/>
<path style="fill:#a8a8a8" d="M9 53 L9 51 C10.33 50.78 10.33 53.22 9 53 z"/>
<path style="fill:#232323" d="M32 51 L33 53 C33.65 60.91 27.77 55.89 32 51 z"/>
<path style="fill:#101111" d="M56 57 L55 58 C52.96 57.3 54.15 54.28 55 53 L55 51 L56 57 z"/>
<path style="fill:#101111" d="M78 51 L78 53 L77 54 L76 55 L75 56 L74 57 C73.34 56.98 71.85 56.82 72 58 L70 59 L61 61 L60 60 C57.79 60.7 54.4 59.29 58 58 C61.44 58.05 65.73 58.33 68 56 L78 51 z"/>
<path style="fill:#999999" d="M46 53 L46 59 L44 59 L44 52 C44.66 51.98 46.15 51.82 46 53 z"/>
<path style="fill:#f2f2f2" d="M26 53 C26.14 54.88 24.12 52.86 26 53 z"/>
<path style="fill:#646565" d="M55 53 C54.15 54.28 52.96 57.3 55 58 L52 60 C51.86 57.61 52.56 54.97 51 53 L55 53 z"/>
<path style="fill:#a7a7a7" d="M78 53 L77 54 L78 53 z"/>
<path style="fill:#848484" d="M77 54 L76 55 L77 54 z"/>
<path style="fill:#070707" d="M65 55 C64.55 56.6 60.45 56.6 60 55 L65 55 z"/>
<path style="fill:#848484" d="M76 55 L75 56 L76 55 z"/>
<path style="fill:#a1a1a1" d="M58 58 C54.4 59.29 57.79 60.7 60 60 L53 62 L50 63 L49 62 L52 60 L55 58 L56 57 C57.41 55.74 59.85 55.84 58 58 z"/>
<path style="fill:#a3a3a3" d="M75 56 L74 57 L75 56 z"/>
<path style="fill:#9c9c9c" d="M74 57 C74.15 58.18 72.66 58.02 72 58 C71.85 56.82 73.34 56.98 74 57 z"/>
<path style="fill:#969696" d="M14 59 L13 58 L14 59 z"/>
<path style="fill:#343434" d="M28 58 L23 60 L16 60 L15 59 L21 58 L28 58 z"/>
<path style="fill:#0a0b0b" d="M31 60 L27 60 L24 60 L23 60 L28 58 C29.34 57.67 30.74 58.71 31 60 z"/>
<path style="fill:#5a5b5b" d="M42 59 L42 74 L41 74 C41.46 72.65 40.35 71.54 39 72 L38 72 L38 71 L39 71 L40 64 L39 62 L40 58 L42 59 z"/>
<path style="fill:#b6b6b6" d="M34 59 L33 61 L31 61 L27 60 L31 60 L34 59 z"/>
<path style="fill:#8b8c8c" d="M39 62 L40 64 L33 61 L34 59 L39 62 z"/>
<path style="fill:#626363" d="M46 59 C45.37 61.48 46.48 64.36 49 62 L50 63 C46.32 64.56 45.18 67.65 46 72 L45 76 L44 59 L46 59 z"/>
<path style="fill:#d4d4d4" d="M70 59 L70 60 L66 62 C65.05 62.19 63.06 61.41 63 63 L61 63 L61 61 L70 59 z"/>
<path style="fill:#d9dada" d="M23 60 L24 60 L25 62 C25.15 63.18 23.66 63.02 23 63 L19 61 L16 61 L16 60 L23 60 z"/>
<path style="fill:#515252" d="M27 60 L31 61 L25 62 L24 60 L27 60 z"/>
<path style="fill:#4d4e4e" d="M61 61 L61 63 C58.74 61.29 55.69 62.23 53 62 L60 60 L61 61 z"/>
<path style="fill:#2f3030" d="M70 60 L74 61 L71 61 L70 62 L66 62 L70 60 z"/>
<path style="fill:#222323" d="M19 61 L21 65 L16 63 L16 62 L16 61 L19 61 z"/>
<path style="fill:#808080" d="M23 63 C22.36 64.71 26.78 69.11 28.75 70.75 C24.62 63.17 28.47 63.96 31 71 C30.18 70.98 28.13 72.87 30 73 L24 74 C30.4 72.52 24.98 72.98 24 70 C26.58 68.69 22.38 65.82 21 65 L19 61 L23 63 z"/>
<path style="fill:#111212" d="M33 61 L40 64 L39 71 C39.43 68.03 32.84 60.77 32 65 C24.14 60.18 33.89 68.53 34 72 L31 71 C28.47 63.96 24.62 63.17 28.75 70.75 C26.78 69.11 22.36 64.71 23 63 C23.66 63.02 25.15 63.18 25 62 L31 61 L33 61 z"/>
<path style="fill:#969696" d="M71 61 L70 62 L71 61 z"/>
<path style="fill:#171818" d="M74 61 C76.48 60.37 79.36 61.48 77 64 L76 64 C75.16 62.24 71.5 61.05 71 64 L69 64 L70 62 L71 61 L74 61 z"/>
<path style="fill:#767777" d="M16 62 L16 63 C14.45 63.06 11.29 62.32 12 65 C8.667 62.56 13.73 61.19 16 62 z"/>
<path style="fill:#0f0f0f" d="M53 62 C55.69 62.23 58.74 61.29 61 63 L63 63 L60 66 C60.74 63.48 58.13 64.23 58 66 L57 66 L56 66 C59.67 62.49 55.15 62.57 54 66 L53 67 L52 68 C50.65 67.54 49.54 68.65 50 70 L48 72 L46 72 C45.18 67.65 46.32 64.56 50 63 L53 62 z"/>
<path style="fill:#8a8b8b" d="M66 62 L70 62 L69 64 C66.32 64.04 64.43 67.05 63 69 L62 70 L61 70 L61 68 L62 67 L63 66 C64.88 66.14 62.86 64.12 63 66 L62 67 L61 68 C59.71 68.26 58.67 69.66 59 71 C64.43 73.39 53.83 72.99 59 74 L60 75 L59 75 L53 74 L52 72 L57 66 L58 66 L58 68 L54.25 71.75 C56.08 72.39 58.26 69.8 58 68 L60 66 L63 63 C63.06 61.41 65.05 62.19 66 62 z"/>
<path style="fill:#787878" d="M76 64 L74 66 L71 64 C71.5 61.05 75.16 62.24 76 64 z"/>
<path style="fill:#131414" d="M16 63 L17 66 L15.25 64.75 C9.753 62.27 18.94 68.78 14 68 L12 65 C11.29 62.32 14.45 63.06 16 63 z"/>
<path style="fill:#5f6060" d="M21 65 L21 67 L21 68 C19.56 67.98 17.61 67.24 17 66 L16 63 L21 65 z"/>
<path style="fill:#757575" d="M32 65 L36 72 L34 72 C33.89 68.53 24.14 60.18 32 65 z"/>
<path style="fill:#767777" d="M39 71 L38 71 C36.17 68.99 35.39 64.91 32 65 C32.84 60.77 39.43 68.03 39 71 z"/>
<path style="fill:#8f9090" d="M56 66 L54 66 C55.15 62.57 59.67 62.49 56 66 z"/>
<path style="fill:#7a7b7b" d="M17 66 C17.61 67.24 19.56 67.98 21 68 L21 70 L14 69 L14 68 C18.94 68.78 9.753 62.27 15.25 64.75 L17 66 z"/>
<path style="fill:#777777" d="M60 66 L58 66 C58.13 64.23 60.74 63.48 60 66 z"/>
<path style="fill:#292929" d="M69 64 L67 67 L65 69 L63 69 C64.43 67.05 66.32 64.04 69 64 z"/>
<path style="fill:#646565" d="M71 64 L74 66 L73 70 L69 73 C66.52 74.58 63.79 75.65 60 75 L59 74 C53.83 72.99 64.43 73.39 59 71 L61 70 C60.67 71.96 64.39 70.41 62 70 L63 69 L65 69 C67.82 69.26 69.92 68.84 67 67 L69 64 L71 64 z"/>
<path style="fill:#2a2b2b" d="M76 64 L77 64 C77.78 66.24 75.77 67.33 75 69 L74 70 L73 70 L74 66 L76 64 z"/>
<path style="fill:#262727" d="M24 70 L23 69 L21 67 L21 65 C22.38 65.82 26.58 68.69 24 70 z"/>
<path style="fill:#151515" d="M38 71 L38 72 L37 72 L36 72 L32 65 C35.39 64.91 36.17 68.99 38 71 z"/>
<path style="fill:#222222" d="M63 66 C62.86 64.12 64.88 66.14 63 66 z"/>
<path style="fill:#b7b7b7" d="M54 66 L53 67 L54 66 z"/>
<path style="fill:#202121" d="M56 66 L57 66 L52 72 C50.65 72.46 49.54 71.35 50 70 L52 68 L53 67 L54 66 L56 66 z"/>
<path style="fill:#1b1b1b" d="M60 66 L58 68 L58 66 L60 66 z"/>
<path style="fill:#131313" d="M63 66 L62 67 L63 66 z"/>
<path style="fill:#bcbcbc" d="M23 69 L23 70 L21 70 L21 68 L21 67 L23 69 z"/>
<path style="fill:#bebebe" d="M53 67 L52 68 L53 67 z"/>
<path style="fill:#070707" d="M62 67 L61 68 L62 67 z"/>
<path style="fill:#b4b4b4" d="M67 67 C69.92 68.84 67.82 69.26 65 69 L67 67 z"/>
<path style="fill:#888989" d="M52 68 L50 70 C49.54 68.65 50.65 67.54 52 68 z"/>
<path style="fill:#202020" d="M58 68 C58.26 69.8 56.08 72.39 54.25 71.75 L58 68 z"/>
<path style="fill:#1f2020" d="M61 68 L61 70 L59 71 C58.67 69.66 59.71 68.26 61 68 z"/>
<path style="fill:#1e1f1f" d="M14 69 L21 70 L23 70 L16.25 71.25 L24 74 L30 73 L33 73 C31.4 76.01 27.15 75.98 24 76 L21 78 L20 78 C20.15 76.82 18.66 76.98 18 77 L14 69 z"/>
<path style="fill:#505151" d="M24 70 C24.98 72.98 30.4 72.52 24 74 L16.25 71.25 L23 70 L23 69 L24 70 z"/>
<path style="fill:#8d8d8d" d="M75 69 L74 70 L75 69 z"/>
<path style="fill:#6e6e6e" d="M50 70 C49.54 71.35 50.65 72.46 52 72 L53 74 C48.54 74.24 55.5 76.32 57 76 L56 77 C53.54 77.14 50.48 76.58 49 75 C50.65 74.86 48.81 72.2 48 72 L50 70 z"/>
<path style="fill:#e7e8e8" d="M62 70 C64.39 70.41 60.67 71.96 61 70 L62 70 z"/>
<path style="fill:#121212" d="M73 70 L72 74 L71 75 L70 75 C67.98 75.45 68.07 74.16 69 73 L73 70 z"/>
<path style="fill:#a2a2a2" d="M74 70 C73.94 71.55 74.68 74.71 72 74 L73 70 L74 70 z"/>
<path style="fill:#cacaca" d="M31 71 L34 72 L36 72 L37 72 L36 74 L35 74 L33 73 L30 73 C28.13 72.87 30.18 70.98 31 71 z"/>
<path style="fill:#767777" d="M38 72 L39 72 C38.54 73.35 39.65 74.46 41 74 L42 74 L42 76 L41 81 L40 81 C39.51 79.06 41.41 74.5 38 75 C38.15 73.82 36.66 73.98 36 74 L37 72 L38 72 z"/>
<path style="fill:#d4d5d5" d="M41 74 C39.65 74.46 38.54 73.35 39 72 C40.35 71.54 41.46 72.65 41 74 z"/>
<path style="fill:#838383" d="M46 72 L48 72 C48.81 72.2 50.65 74.86 49 75 C48.34 75.02 46.85 75.18 47 74 C48.88 74.14 46.86 72.12 47 74 C44.88 75.95 45.17 83.04 50 81 L45 82 L45 76 L46 72 z"/>
<path style="fill:#818282" d="M35 74 C33.22 76.05 29.79 76.77 27 77 C26.05 76.81 24.06 77.59 24 76 C27.15 75.98 31.4 76.01 33 73 L35 74 z"/>
<path style="fill:#ffffff" d="M47 74 C46.86 72.12 48.88 74.14 47 74 z"/>
<path style="fill:#4c4c4c" d="M69 73 C68.07 74.16 67.98 75.45 70 75 L67 79 C68.5 74.8 61.36 75.27 60 77 L59 78 C58.05 77.81 56.06 78.59 56 77 L57 76 C57.66 76.02 59.15 76.18 59 75 L60 75 C63.79 75.65 66.52 74.58 69 73 z"/>
<path style="fill:#141414" d="M36 74 C36.66 73.98 38.15 73.82 38 75 L27.25 79.75 C31.12 80.15 35.97 78.65 38 75 C41.41 74.5 39.51 79.06 40 81 L32 81 L25 81 L25 79 L27 77 C29.79 76.77 33.22 76.05 35 74 L36 74 z"/>
<path style="fill:#080909" d="M47 74 C46.85 75.18 48.34 75.02 49 75 C50.48 76.58 53.54 77.14 56 77 C56.06 78.59 58.05 77.81 59 78 C61.95 78.77 64.43 76.6 60 77 C61.36 75.27 68.5 74.8 67 79 L66 79 C65.34 78.98 63.85 78.82 64 80 L63 80 L50 81 C45.17 83.04 44.88 75.95 47 74 z"/>
<path style="fill:#131313" d="M53 74 L59 75 C59.15 76.18 57.66 76.02 57 76 C55.5 76.32 48.54 74.24 53 74 z"/>
<path style="fill:#a5a5a5" d="M72 74 L71 75 L72 74 z"/>
<path style="fill:#878888" d="M38 75 C35.97 78.65 31.12 80.15 27.25 79.75 L38 75 z"/>
<path style="fill:#595959" d="M24 76 C24.06 77.59 26.05 76.81 27 77 L25 79 L21 78 L24 76 z"/>
<path style="fill:#3e3e3e" d="M42 76 L42 85 L41 85 L41 81 L42 76 z"/>
<path style="fill:#737474" d="M20 78 C19.34 78.02 17.85 78.18 18 77 C18.66 76.98 20.15 76.82 20 78 z"/>
<path style="fill:#969696" d="M60 77 C64.43 76.6 61.95 78.77 59 78 L60 77 z"/>
<path style="fill:#818181" d="M66 79 C66.15 80.18 64.66 80.02 64 80 C63.85 78.82 65.34 78.98 66 79 z"/>
<path style="fill:#6a6a6a" d="M63 80 L50 81 L63 80 z"/>
<path style="fill:#5c5d5d" d="M32 81 C30.97 82.64 26.03 82.64 25 81 L32 81 z"/>
<path style="fill:#b7b8b8" d="M42 85 L45 85 C44.81 86.55 41.19 86.55 41 85 L42 85 z"/>
</svg>
