<?xml version="1.0" standalone="yes"?>
<svg width="87" height="97">
<path style="fill:#fcfdfd" d="M87 0 L87 97 L0 97 L0 0 L87 0 z"/>
<path style="fill:#6f7070" d="M41 21 C41.46 22.35 40.35 23.46 39 23 L41 21 z"/>
<path style="fill:#141414" d="M47 24 L48 25 C50.68 24.72 55.13 25.6 55 29 L54 30 L52 32 L51 32 L49 34 L47 31 C57.6 24.23 43.31 30.57 40 31 C39.33 28.25 34.8 26.77 33.25 28.75 C35.6 28.63 37.26 29.64 39 31 C33.09 38.96 46 27.12 48 35 L50 38 L45 37 C44.55 35.4 40.45 35.4 40 37 L35 38 L35 33 L34 32 L32 31 L32 30 L31 29 C31.19 28.05 30.41 26.06 32 26 L33 25 L37 25 L38 24 L39 23 C40.35 23.46 41.46 22.35 41 21 C43.21 20.83 47.24 21.1 47 24 z"/>
<path style="fill:#9e9e9e" d="M39 23 L38 24 L39 23 z"/>
<path style="fill:#909090" d="M38 24 L37 25 L38 24 z"/>
<path style="fill:#848484" d="M48 25 L47 24 L48 25 z"/>
<path style="fill:#a9a9a9" d="M33 25 L32 26 L33 25 z"/>
<path style="fill:#7b7c7c" d="M49 34 L48 35 C46 27.12 33.09 38.96 39 31 L40 31 C43.31 30.57 57.6 24.23 47 31 L49 34 z"/>
<path style="fill:#545555" d="M40 31 L39 31 C37.26 29.64 35.6 28.63 33.25 28.75 C34.8 26.77 39.33 28.25 40 31 z"/>
<path style="fill:#1e1e1e" d="M22 29 L23 30 L24 30 L25 31 L25 32 L27 34 L25 37 C22.17 38.41 23.17 31.27 21 34 L19 32 C18.59 30.31 20.31 28.59 22 29 z"/>
<path style="fill:#7a7a7a" d="M23 30 L22 29 L23 30 z"/>
<path style="fill:#898989" d="M32 30 L31 29 L32 30 z"/>
<path style="fill:#6b6b6b" d="M55 29 L55 30 L54 30 L55 29 z"/>
<path style="fill:#a0a0a0" d="M25 31 L24 30 L25 31 z"/>
<path style="fill:#bebebe" d="M55 30 L58 32 L53 33 L52 32 L54 30 L55 30 z"/>
<path style="fill:#989898" d="M63 30 L60 32 C59.33 29.89 61.58 29.79 63 30 z"/>
<path style="fill:#0e0f0f" d="M66 31 C65.98 31.66 65.82 33.15 67 33 L67 34 C66.85 35.18 68.34 35.02 69 35 C68.85 36.18 70.34 36.02 71 36 L72 40 L68 42 L66 42 L65 41 L65 40 L70.75 38.75 L60 37 C60 34.41 56.81 33.51 60 32 L63 30 L66 31 z"/>
<path style="fill:#363737" d="M31 31 C31.62 32.07 33.05 34.54 31 35 L30 34 C29.73 31.98 27.9 33.68 27 34 L25 32 L31 31 z"/>
<path style="fill:#ebebeb" d="M32 31 L34 32 L35 33 L35 38 L37 40 L40 42 L40 43 L38 44 L33 43 L30 43 L30 42 L30 39 L29 38 L31 35 C33.05 34.54 31.62 32.07 31 31 L32 31 z"/>
<path style="fill:#757676" d="M67 33 C65.82 33.15 65.98 31.66 66 31 C67.18 30.85 67.02 32.34 67 33 z"/>
<path style="fill:#585959" d="M19 32 C19.33 33.34 18.29 34.74 17 35 L17 34 L19 32 z"/>
<path style="fill:#080909" d="M21 34 C23.45 37.16 20.89 38.71 18 37 L15 35 L17 35 C18.29 34.74 19.33 33.34 19 32 L21 34 z"/>
<path style="fill:#808080" d="M35 33 L34 32 L35 33 z"/>
<path style="fill:#5a5a5a" d="M51 32 L51 38 L50 38 L48 35 L49 34 L51 32 z"/>
<path style="fill:#f5f6f6" d="M52 32 L53 33 C52.98 33.66 52.82 35.15 54 35 C53.98 35.66 53.82 37.15 55 37 C56.59 37.06 55.81 39.05 56 40 C54.41 40.06 55.19 42.05 55 43 L51 44 L47 44 L46 44 L45 43 L45 42 L46 42 L47 41 L48 41 L51 38 L51 32 L52 32 z"/>
<path style="fill:#393939" d="M58 32 L60 32 C56.81 33.51 60 34.41 60 37 L59 37 C58.66 35.14 56.6 34.72 55 35 L54 35 C52.82 35.15 52.98 33.66 53 33 L58 32 z"/>
<path style="fill:#929393" d="M25 37 L24 39 L19.25 42.75 C20.16 39.5 18.83 37.65 15 38 C15.06 36.41 17.05 37.19 18 37 C20.89 38.71 23.45 37.16 21 34 C23.17 31.27 22.17 38.41 25 37 z"/>
<path style="fill:#727373" d="M30 34 C25.17 35.62 30.26 41.54 24 39 L25 37 L27 34 C27.9 33.68 29.73 31.98 30 34 z"/>
<path style="fill:#acadad" d="M17 34 L17 35 L15 35 C14.85 33.82 16.34 33.98 17 34 z"/>
<path style="fill:#1c1c1c" d="M31 35 L29 38 L30 39 L30 42 L22 43 C20.74 43.91 20.33 45.85 18 45 L18 43 C18.02 42.34 18.18 40.85 17 41 L15 39 L15 38 C18.83 37.65 20.16 39.5 19.25 42.75 L24 39 C30.26 41.54 25.17 35.62 30 34 L31 35 z"/>
<path style="fill:#a3a3a3" d="M69 35 C68.34 35.02 66.85 35.18 67 34 C67.66 33.98 69.15 33.82 69 35 z"/>
<path style="fill:#4f5050" d="M15 35 L18 37 C17.05 37.19 15.06 36.41 15 38 L15 39 C11.97 39.83 12.66 35.12 15 35 z"/>
<path style="fill:#909090" d="M55 35 L55 37 C53.82 37.15 53.98 35.66 54 35 L55 35 z"/>
<path style="fill:#111111" d="M59 37 C55.02 43.42 60.07 37.79 64 40 C64.02 40.66 64.18 42.15 63 42 L61 42 C59.27 41.7 55.36 43.1 56 40 C55.81 39.05 56.59 37.06 55 37 L55 35 C56.6 34.72 58.66 35.14 59 37 z"/>
<path style="fill:#848484" d="M71 36 C70.34 36.02 68.85 36.18 69 35 C69.66 34.98 71.15 34.82 71 36 z"/>
<path style="fill:#747575" d="M45 37 C45.02 37.66 45.18 39.15 44 39 C44.63 36.48 42.18 36.96 41 38 L40 37 C40.45 35.4 44.55 35.4 45 37 z"/>
<path style="fill:#8e8e8e" d="M72 40 L71 36 C73.48 35.01 73.85 39.62 72 40 z"/>
<path style="fill:#b9b9b9" d="M40 37 L41 38 C41.74 42.22 37.55 37.36 37 40 L35 38 L40 37 z"/>
<path style="fill:#1f2020" d="M44 39 C44.55 41.64 48.74 36.78 48 41 L47 41 L46 42 L45 42 L40 42 L37 40 C37.55 37.36 41.74 42.22 41 38 C42.18 36.96 44.63 36.48 44 39 z"/>
<path style="fill:#b3b3b3" d="M50 38 L51 38 L48 41 C48.74 36.78 44.55 41.64 44 39 C45.18 39.15 45.02 37.66 45 37 L50 38 z"/>
<path style="fill:#6e6e6e" d="M60 37 L70.75 38.75 L65 40 L64 40 C60.07 37.79 55.02 43.42 59 37 L60 37 z"/>
<path style="fill:#929292" d="M30 39 L29 38 L30 39 z"/>
<path style="fill:#797979" d="M56 40 C55.36 43.1 59.27 41.7 61 42 L62 46 L60 45 C60.64 41.9 56.73 43.3 55 43 C55.19 42.05 54.41 40.06 56 40 z"/>
<path style="fill:#2d2d2d" d="M65 40 L65 41 C64.44 41.8 65.79 43.97 66 42 L68 42 L68 43 C67.16 45.62 62.57 45.64 63 42 C64.18 42.15 64.02 40.66 64 40 L65 40 z"/>
<path style="fill:#acacac" d="M18 43 C16.82 43.15 16.98 41.66 17 41 C18.18 40.85 18.02 42.34 18 43 z"/>
<path style="fill:#adadad" d="M30 42 L30 43 L24 45 L22 43 L30 42 z"/>
<path style="fill:#7e7e7e" d="M47 41 L46 42 L47 41 z"/>
<path style="fill:#8e8f8f" d="M66 42 C65.79 43.97 64.44 41.8 65 41 L66 42 z"/>
<path style="fill:#383838" d="M24 42 C25.88 41.86 23.86 43.88 24 42 z"/>
<path style="fill:#838484" d="M45 42 L45 43 C41.03 51.31 42.98 68.02 44 78 C43.9 80.09 40.18 80.84 41 78 L42 55 L40 43 L40 42 L45 42 z"/>
<path style="fill:#c4c4c4" d="M63 42 C62.57 45.64 67.16 45.62 68 43 C68.85 45.33 66.91 45.74 66 47 L62 46 L61 42 L63 42 z"/>
<path style="fill:#cdcdcd" d="M22 43 L24 45 L19 47 L18 45 C20.33 45.85 20.74 43.91 22 43 z"/>
<path style="fill:#0d0e0e" d="M30 43 L33 43 L33 51 L33 65 L31 67 C30.34 66.98 28.85 66.82 29 68 L28 69 L27 70 L26 71 L24 73 L22 73 L22 70 L22 60 L22 58 L26 51 L30 46 C33.22 46.73 30.7 43.48 30 46 L24 50 C23.05 50.19 21.06 49.41 21 51 L13 53 L15 51 L18 48 L19 47 L24 45 L30 43 z"/>
<path style="fill:#595959" d="M38 44 L34 52 L33 51 L33 43 L38 44 z"/>
<path style="fill:#090a0a" d="M40 43 L42 55 L40 77 L39 76 C39.02 75.34 39.18 73.85 38 74 C38.02 73.34 38.18 71.85 37 72 L37 71 C37.02 70.34 37.18 68.85 36 69 L35 64 L34 52 L38 44 L40 43 z"/>
<path style="fill:#070707" d="M45 43 L46 44 L47 44 C48.77 47.44 50.45 50.91 50 55 L50 61 L49 67 L47 73 C45.82 72.85 45.98 74.34 46 75 C44.82 74.85 44.98 76.34 45 77 L44 78 C42.98 68.02 41.03 51.31 45 43 z"/>
<path style="fill:#9b9b9b" d="M46 44 L45 43 L46 44 z"/>
<path style="fill:#ababab" d="M55 43 L55 44 L52 44 L51 44 L55 43 z"/>
<path style="fill:#f4f5f5" d="M60 45 L59 45 C59.15 43.82 57.66 43.98 57 44 L55 44 L55 43 C56.73 43.3 60.64 41.9 60 45 z"/>
<path style="fill:#777878" d="M51 44 L51 45 L52 54 C52.15 55.18 50.66 55.02 50 55 C50.45 50.91 48.77 47.44 47 44 L51 44 z"/>
<path style="fill:#585858" d="M52 44 L61 51 C60.34 50.98 58.85 50.82 59 52 L51 45 L51 44 L52 44 z"/>
<path style="fill:#131414" d="M55 44 L57 44 C56.85 45.18 58.34 45.02 59 45 L60 45 L62 46 L66 47 L67 48 L68 49 L69 50 L71 52 L73 54 L74 56 L75 57 L75 59 L71 57 C69.01 53.51 64.52 52.15 61 51 L52 44 L55 44 z"/>
<path style="fill:#939494" d="M59 45 C58.34 45.02 56.85 45.18 57 44 C57.66 43.98 59.15 43.82 59 45 z"/>
<path style="fill:#838383" d="M30 46 C30.7 43.48 33.22 46.73 30 46 z"/>
<path style="fill:#0d0d0d" d="M51 45 L59 52 C59.46 55.49 64.88 58.8 62.25 53.25 L71 57 C71.77 58.93 73.78 60.58 76 60 L76 61 L72 61 L66 61 C64.8 58.45 61.25 57.78 64 61 L64 68 L62.25 69.75 C60.02 63.99 57.46 57.64 52 54 L51 45 z"/>
<path style="fill:#656666" d="M30 46 L26 51 C25.34 51.02 23.85 51.18 24 50 L30 46 z"/>
<path style="fill:#989898" d="M19 47 L18 48 L19 47 z"/>
<path style="fill:#a0a0a0" d="M68 49 L67 48 L68 49 z"/>
<path style="fill:#696969" d="M69 50 L68 49 L69 50 z"/>
<path style="fill:#3c3c3c" d="M24 50 C23.85 51.18 25.34 51.02 26 51 L22 58 L21 57 C21.45 55.56 23.49 52.69 22 52 L21 51 C21.06 49.41 23.05 50.19 24 50 z"/>
<path style="fill:#707070" d="M15 51 L13 53 C12.54 51.65 13.65 50.54 15 51 z"/>
<path style="fill:#555555" d="M21 51 L22 52 L10 59 C9.846 56.75 10.79 53.9 13 53 L21 51 z"/>
<path style="fill:#929292" d="M34 52 L35 64 L33 65 L33 51 L34 52 z"/>
<path style="fill:#adadad" d="M61 51 C61.15 52.18 59.66 52.02 59 52 C58.85 50.82 60.34 50.98 61 51 z"/>
<path style="fill:#535454" d="M71 57 L62.25 53.25 C64.88 58.8 59.46 55.49 59 52 C59.66 52.02 61.15 52.18 61 51 C64.52 52.15 69.01 53.51 71 57 z"/>
<path style="fill:#0d0d0d" d="M22 52 C23.49 52.69 21.45 55.56 21 57 L20 59 L18 59 C17.34 58.98 15.85 58.82 16 60 L12 60 C11.34 60.02 9.845 60.18 10 59 L22 52 z"/>
<path style="fill:#989898" d="M73 54 L71 52 C72.35 51.54 73.46 52.65 73 54 z"/>
<path style="fill:#434444" d="M64 68 C65.28 71.66 62.51 77.83 60 72 C61.99 68.64 50.48 49.16 51 61 L50 61 L50 55 C50.66 55.02 52.15 55.18 52 54 C57.46 57.64 60.02 63.99 62.25 69.75 L64 68 z"/>
<path style="fill:#535454" d="M31 55 L23.25 70.75 C22.41 64.48 27.83 59.9 31 55 z"/>
<path style="fill:#202121" d="M42 55 L41 78 L40 77 L42 55 z"/>
<path style="fill:#0d0d0d" d="M60 72 L59 71 C59.15 69.82 57.66 69.98 57 70 L56 69 L55 68 L54 67 L51 65 L51 61 C50.48 49.16 61.99 68.64 60 72 z"/>
<path style="fill:#949494" d="M75 57 L74 56 L75 57 z"/>
<path style="fill:#a8a8a8" d="M22 58 L22 60 L21 60 L20 59 L21 57 L22 58 z"/>
<path style="fill:#575858" d="M75 59 L76 60 C73.78 60.58 71.77 58.93 71 57 L75 59 z"/>
<path style="fill:#b4b4b4" d="M66 61 L64 61 C61.25 57.78 64.8 58.45 66 61 z"/>
<path style="fill:#a6a6a6" d="M10 59 C9.845 60.18 11.34 60.02 12 60 C11.73 62.62 6.908 59.93 10 59 z"/>
<path style="fill:#7d7d7d" d="M18 59 C18.15 60.18 16.66 60.02 16 60 C15.85 58.82 17.34 58.98 18 59 z"/>
<path style="fill:#4d4d4d" d="M22 60 L22 70 L21 60 L22 60 z"/>
<path style="fill:#9b9b9b" d="M51 61 L51 65 L49 67 L50 61 L51 61 z"/>
<path style="fill:#a8a9a9" d="M76 61 C75.81 62.55 72.19 62.55 72 61 L76 61 z"/>
<path style="fill:#959595" d="M31 67 C31.15 68.18 29.66 68.02 29 68 C28.85 66.82 30.34 66.98 31 67 z"/>
<path style="fill:#6a6a6a" d="M55 68 L54 67 L55 68 z"/>
<path style="fill:#6f6f6f" d="M56 69 L55 68 L56 69 z"/>
<path style="fill:#838383" d="M28 69 L27 70 L28 69 z"/>
<path style="fill:#838484" d="M37 71 C35.82 71.15 35.98 69.66 36 69 C37.18 68.85 37.02 70.34 37 71 z"/>
<path style="fill:#6f6f6f" d="M27 70 L26 71 L27 70 z"/>
<path style="fill:#696969" d="M59 71 C58.34 71.02 56.85 71.18 57 70 C57.66 69.98 59.15 69.82 59 71 z"/>
<path style="fill:#a0a1a1" d="M26 71 C26.46 72.35 25.35 73.46 24 73 L26 71 z"/>
<path style="fill:#a4a4a4" d="M38 74 C36.82 74.15 36.98 72.66 37 72 C38.18 71.85 38.02 73.34 38 74 z"/>
<path style="fill:#9c9c9c" d="M24 73 C24.22 74.33 21.78 74.33 22 73 L24 73 z"/>
<path style="fill:#888989" d="M47 73 C47.02 73.66 47.18 75.15 46 75 C45.98 74.34 45.82 72.85 47 73 z"/>
<path style="fill:#a4a5a5" d="M39 76 C37.82 76.15 37.98 74.66 38 74 C39.18 73.85 39.02 75.34 39 76 z"/>
<path style="fill:#acadad" d="M46 75 C46.02 75.66 46.18 77.15 45 77 C44.98 76.34 44.82 74.85 46 75 z"/>
<path style="fill:#828282" d="M40 77 L39 76 L40 77 z"/>
</svg>
