<?xml version="1.0" standalone="yes"?>
<svg width="87" height="97">
<path style="fill:#fdfdfd" d="M87 0 L87 97 L0 97 L0 0 L87 0 z"/>
<path style="fill:#c1c1c1" d="M47 17 L39 17 C40.34 15.35 45.66 15.35 47 17 z"/>
<path style="fill:#808080" d="M37 17 C37.15 18.18 35.66 18.02 35 18 C34.85 16.82 36.34 16.98 37 17 z"/>
<path style="fill:#050505" d="M39 17 L47 17 L49 17 C48.85 18.18 50.34 18.02 51 18 L53 18 C52.85 19.18 54.34 19.02 55 19 L58 20 L59 21 L61 22 L62 23 L68 29 L69 30 L70 31 L71 34 L72 35 L72 36 C71.98 36.66 71.82 38.15 73 38 C72.98 38.66 72.82 40.15 74 40 L74 42 L74 53 L74 56 C72.82 55.85 72.98 57.34 73 58 L73 59 L72 60 L72 62 L71 63 L71 64 L70 65 L69 66 L68 68 L67 69 L66 70 L65 71 L64 72 L63 73 L61 74 L60 75 L59 76 L56 77 C55.34 76.98 53.85 76.82 54 78 L53 78 C52.34 77.98 50.85 77.82 51 79 L48 79 L37 79 L36 79 C36.15 77.82 34.66 77.98 34 78 L32 78 L31 77 L28 76 L27 75 L26 75 L25 74 L24 73 L18 67 L17 66 L16 64 L15 63 L14 59 L13 58 L13 56 C13.02 55.34 13.18 53.85 12 54 L12 53 L12 43 L12 42 C13.18 42.15 13.02 40.66 13 40 L13 39 C14.18 39.15 14.02 37.66 14 37 L16 32 L17 31 L18 29 L19 28 L20 27 L21 26 L22 25 L23 24 L24 23 L26 22 L27 21 L29 20 L30 19 L32 19 C32.66 19.02 34.15 19.18 34 18 L35 18 C35.66 18.02 37.15 18.18 37 17 L39 17 z"/>
<path style="fill:#6a6b6b" d="M51 18 C50.34 18.02 48.85 18.18 49 17 C49.66 16.98 51.15 16.82 51 18 z"/>
<path style="fill:#5d5d5d" d="M34 18 C34.15 19.18 32.66 19.02 32 19 C31.85 17.82 33.34 17.98 34 18 z"/>
<path style="fill:#8c8d8d" d="M55 19 C54.34 19.02 52.85 19.18 53 18 C53.66 17.98 55.15 17.82 55 19 z"/>
<path style="fill:#a7a7a7" d="M30 19 L29 20 L30 19 z"/>
<path style="fill:#8f8f8f" d="M59 21 L58 20 L59 21 z"/>
<path style="fill:#6d6d6d" d="M27 21 L26 22 L27 21 z"/>
<path style="fill:#828282" d="M62 23 L61 22 L62 23 z"/>
<path style="fill:#8d8d8d" d="M24 23 L23 24 L24 23 z"/>
<path style="fill:#5b5b5b" d="M23 24 L22 25 L23 24 z"/>
<path style="fill:#3c3c3c" d="M47 25 L40 25 C41.03 23.36 45.97 23.36 47 25 z"/>
<path style="fill:#727272" d="M40 25 L40 26 C32.86 26.86 25.2 31.83 23 39 L22 40 L21 40 C23.26 31.92 31.48 25.07 40 25 z"/>
<path style="fill:#c0c0c0" d="M47 25 L49 25 L48 26 L40 26 L40 25 L47 25 z"/>
<path style="fill:#707171" d="M63 36 C58.52 31.88 53.57 27.15 48 26 L49 25 C54.54 26.47 60.99 30.35 63 36 z"/>
<path style="fill:#585858" d="M21 26 L20 27 L21 26 z"/>
<path style="fill:#020303" d="M40 26 L48 26 C53.57 27.15 58.52 31.88 63 36 L63 38 L23 39 C25.2 31.83 32.86 26.86 40 26 z"/>
<path style="fill:#686868" d="M20 27 L19 28 L20 27 z"/>
<path style="fill:#848484" d="M19 28 L18 29 L19 28 z"/>
<path style="fill:#6a6a6a" d="M69 30 L68 29 L69 30 z"/>
<path style="fill:#9a9a9a" d="M70 31 L69 30 L70 31 z"/>
<path style="fill:#676767" d="M17 31 L16 32 L17 31 z"/>
<path style="fill:#5d5d5d" d="M72 35 L71 34 L72 35 z"/>
<path style="fill:#757575" d="M65 40 L64 40 C64.02 39.34 64.18 37.85 63 38 L63 36 C64.86 36.34 65.28 38.4 65 40 z"/>
<path style="fill:#535454" d="M73 38 C71.82 38.15 71.98 36.66 72 36 C73.18 35.85 73.02 37.34 73 38 z"/>
<path style="fill:#565656" d="M14 37 C14.02 37.66 14.18 39.15 13 39 C12.98 38.34 12.82 36.85 14 37 z"/>
<path style="fill:#2d2e2e" d="M64 40 L22 40 L23 39 L63 38 C64.18 37.85 64.02 39.34 64 40 z"/>
<path style="fill:#9c9c9c" d="M74 40 C72.82 40.15 72.98 38.66 73 38 C74.18 37.85 74.02 39.34 74 40 z"/>
<path style="fill:#747474" d="M13 40 C13.02 40.66 13.18 42.15 12 42 C11.98 41.34 11.82 39.85 13 40 z"/>
<path style="fill:#565757" d="M21 40 L22 41 L22 42 C20.39 45.78 20.39 51.22 22 55 L21 56 C18.27 51.9 18.27 44.1 21 40 z"/>
<path style="fill:#d6d6d6" d="M22 40 L64 40 L65 40 L64 41 L22 41 L21 40 L22 40 z"/>
<path style="fill:#4a4b4b" d="M66 44 L65 52 L64 42 L64 41 L65 40 L66 44 z"/>
<path style="fill:#272828" d="M64 41 L64 42 L22 42 L22 41 L64 41 z"/>
<path style="fill:#101" d="M64 42 L65 52 L65 55 L22 55 C20.39 51.22 20.39 45.78 22 42 L64 42 z"/>
<path style="fill:#6c6d6d" d="M74 53 L74 42 C75.66 44.31 75.66 50.69 74 53 z"/>
<path style="fill:#c3c4c4" d="M12 43 L12 53 C10.34 51.01 10.34 44.99 12 43 z"/>
<path style="fill:#6b6b6b" d="M65 56 L65 55 L65 52 L66 44 C68.09 46.88 67.27 53.4 65 56 z"/>
<path style="fill:#575858" d="M13 56 C11.82 56.15 11.98 54.66 12 54 C13.18 53.85 13.02 55.34 13 56 z"/>
<path style="fill:#c9c9c9" d="M22 55 L65 55 L65 56 L65 57 L64 57 C51.36 55.33 34.64 55.33 22 57 L21 57 L21 56 L22 55 z"/>
<path style="fill:#868686" d="M64 57 L23 57 L22 57 C34.64 55.33 51.36 55.33 64 57 z"/>
<path style="fill:#7f7f7f" d="M74 56 C74.02 56.66 74.18 58.15 73 58 C72.98 57.34 72.82 55.85 74 56 z"/>
<path style="fill:#717272" d="M22 57 L23 57 L31 68 C26.5 66.45 22.46 61.36 21 57 L22 57 z"/>
<path style="fill:#020202" d="M64 57 L61 63 L58 66 C50.32 71.11 39.58 71.1 31 68 L23 57 L64 57 z"/>
<path style="fill:#737474" d="M65 57 C64.81 59.39 63.3 62 61 63 L64 57 L65 57 z"/>
<path style="fill:#5b5b5b" d="M14 59 L13 58 L14 59 z"/>
<path style="fill:#585858" d="M73 59 L72 60 L73 59 z"/>
<path style="fill:#969696" d="M72 62 L71 63 L72 62 z"/>
<path style="fill:#797979" d="M16 64 L15 63 L16 64 z"/>
<path style="fill:#7c7d7d" d="M61 63 C61.41 64.69 59.69 66.41 58 66 L61 63 z"/>
<path style="fill:#aaaaaa" d="M71 64 L70 65 L71 64 z"/>
<path style="fill:#6a6a6a" d="M70 65 L69 66 L70 65 z"/>
<path style="fill:#757575" d="M18 67 L17 66 L18 67 z"/>
<path style="fill:#727373" d="M58 66 C52.01 73.78 37.84 74.06 31 68 C39.58 71.1 50.32 71.11 58 66 z"/>
<path style="fill:#959595" d="M68 68 L67 69 L68 68 z"/>
<path style="fill:#848484" d="M67 69 L66 70 L67 69 z"/>
<path style="fill:#6e6e6e" d="M66 70 L65 71 L66 70 z"/>
<path style="fill:#7a7a7a" d="M65 71 L64 72 L65 71 z"/>
<path style="fill:#949494" d="M64 72 L63 73 L64 72 z"/>
<path style="fill:#5f5f5f" d="M25 74 L24 73 L25 74 z"/>
<path style="fill:#939393" d="M26 75 L25 74 L26 75 z"/>
<path style="fill:#717171" d="M61 74 L60 75 L61 74 z"/>
<path style="fill:#5f5f5f" d="M28 76 L27 75 L28 76 z"/>
<path style="fill:#aaaaaa" d="M60 75 L59 76 L60 75 z"/>
<path style="fill:#7f7f7f" d="M32 78 L31 77 L32 78 z"/>
<path style="fill:#868787" d="M56 77 C56.15 78.18 54.66 78.02 54 78 C53.85 76.82 55.34 76.98 56 77 z"/>
<path style="fill:#5e5e5e" d="M36 79 C35.34 79.02 33.85 79.18 34 78 C34.66 77.98 36.15 77.82 36 79 z"/>
<path style="fill:#858686" d="M53 78 C53.15 79.18 51.66 79.02 51 79 C50.85 77.82 52.34 77.98 53 78 z"/>
<path style="fill:#707171" d="M48 79 C45.69 80.66 39.31 80.66 37 79 L48 79 z"/>
</svg>
