<?xml version="1.0" standalone="yes"?>
<svg width="87" height="97">
<path style="fill:#fcfcfc" d="M87 0 L87 97 L0 97 L0 0 L87 0 z"/>
<path style="fill:#666767" d="M39 20 C39.15 21.18 37.66 21.02 37 21 C36.85 19.82 38.34 19.98 39 20 z"/>
<path style="fill:#0e0f0f" d="M53 21 L54 22 L55 22 L56 23 L58 24 L60 26 L61 29 C60.87 31.08 61.79 34.37 59 35 L58 35 L58 34 C60.79 31.3 55.91 31.23 54 32 L54 30 L53 29 L52 28 L42 27 L41 28 L39 28 L38 29 L37 29 L36 30 C33.94 32.02 31.98 30.06 34 28 C35.06 28.43 35.06 26.57 34 27 L23.25 29.75 L29 24 L30 23 L31 23 L32 22 L33 22 L34 21 L37 21 C37.66 21.02 39.15 21.18 39 20 L53 21 z"/>
<path style="fill:#989898" d="M34 21 L33 22 L34 21 z"/>
<path style="fill:#727272" d="M54 22 L53 21 L54 22 z"/>
<path style="fill:#8b8b8b" d="M32 22 L31 23 L32 22 z"/>
<path style="fill:#656565" d="M56 23 L55 22 L56 23 z"/>
<path style="fill:#9e9e9e" d="M30 23 L29 24 L30 23 z"/>
<path style="fill:#acacac" d="M60 26 L58 24 C59.35 23.54 60.46 24.65 60 26 z"/>
<path style="fill:#979797" d="M34 28 L34 27 C35.06 26.57 35.06 28.43 34 28 z"/>
<path style="fill:#919191" d="M42 27 L41 28 L42 27 z"/>
<path style="fill:#828282" d="M39 28 L38 29 L39 28 z"/>
<path style="fill:#808080" d="M53 29 L52 28 L53 29 z"/>
<path style="fill:#9a9a9a" d="M37 29 L36 30 L37 29 z"/>
<path style="fill:#6a6a6a" d="M54 30 L53 29 L54 30 z"/>
<path style="fill:#dcdddd" d="M63 33 L62 36 C60.82 35.85 60.98 37.34 61 38 L60 39 L58 40 L57 39 L57 37 L58 36 L59 35 C61.79 34.37 60.87 31.08 61 29 L63 33 z"/>
<path style="fill:#acadad" d="M65 30 L63 32 C62.15 30.47 64.09 27.43 65 30 z"/>
<path style="fill:#a5a5a5" d="M47 31 L42 31 C42.45 29.4 46.55 29.4 47 31 z"/>
<path style="fill:#0c0d0d" d="M65 30 L65 31 L66 32 L66 33 L67 34 L69 37 L70 38 L70 41 L71 42 L70 46 L68 46 L67 46 C71.19 41.75 63.99 41.84 67 46 L67 48 L66 49 C65.98 49.66 65.82 51.15 67 51 C66.78 52.33 69.22 52.33 69 51 L71 49 L69 60 L68 61 L68 62 L67 63 C66.01 66.66 63.79 62.99 64 61 L63 60 C62.09 58.12 61.2 55.77 59 55 L58 55 L55 51 L55 44 L56 40 L57 39 L58 40 L60 43 L60.25 53.75 C61.36 51.46 61.79 45.23 60 43 L60 39 L61 38 C62.18 38.15 62.02 36.66 62 36 L63 33 L63 32 L65 30 z"/>
<path style="fill:#787878" d="M25 32 L23 32 C22.78 30.67 25.22 30.67 25 32 z"/>
<path style="fill:#090a0a" d="M42 31 L47 31 L48 31 C47.85 32.18 49.34 32.02 50 32 L51 32 L48 37 L47 37 C46.27 35.38 41.73 35.38 41 37 L39 37 L36 34 L36 33 L37 32 L42 31 z"/>
<path style="fill:#6d6d6d" d="M50 32 C49.34 32.02 47.85 32.18 48 31 C48.66 30.98 50.15 30.82 50 32 z"/>
<path style="fill:#ababab" d="M58 34 C58.43 32.94 56.57 32.94 57 34 L54 32 C55.91 31.23 60.79 31.3 58 34 z"/>
<path style="fill:#6c6c6c" d="M66 32 L65 31 L66 32 z"/>
<path style="fill:#0e0e0e" d="M23 32 L25 32 C30.27 31.9 28.38 41.1 23.25 39.25 C21.02 44.75 20.87 53.22 26 57 L30 58 L30 59 L30 60 C28.67 59.78 28.67 62.22 30 62 C29.57 63.06 31.43 63.06 31 62 C33.52 62.74 32.77 60.13 31 60 L31 59 L30 58 L30 57 L34 53 L39 47 L40 46 L41 46 L42 47 L43 48 L44 49 L45 50 L45 52 L40 57 C38.71 56.74 37.67 55.34 38 54 L39 53 L40 52 L41 51 C42.88 51.14 40.86 49.12 41 51 L40 52 L39 53 L38 54 L36 62 L32 64 L31 65 L30 65 L29 66 L25 66 L24 65 L21 62 L20 61 L19 59 L18 58 L18 56 L17 55 L17 53 C17.02 52.34 17.18 50.85 16 51 L16 43 L17 42 L17 39 L18 38 C18.27 35.5 20.01 31.92 23 32 z"/>
<path style="fill:#9b9b9b" d="M37 32 L36 33 L37 32 z"/>
<path style="fill:#aeafaf" d="M52 34 L48 38 L48 37 L51 32 C52.18 31.85 52.02 33.34 52 34 z"/>
<path style="fill:#484848" d="M58 34 L57 34 C56.57 32.94 58.43 32.94 58 34 z"/>
<path style="fill:#898989" d="M67 34 L66 33 L67 34 z"/>
<path style="fill:#919191" d="M30 34 C31.88 33.86 29.86 35.88 30 34 z"/>
<path style="fill:#0a0a0a" d="M35 34 L39 38 L43 42 L43 43 L42 44 L41 44 C38.73 43.05 35.78 37.35 34 42 L33 42 L32 41 L31 40 L30 39 L30 38 L31 38 L32 37 L33 36 L34 35 L35 34 z"/>
<path style="fill:#7e7f7f" d="M36 34 L39 37 L39 38 L35 34 L36 34 z"/>
<path style="fill:#0c0d0d" d="M55 36 L56 37 L57 37 L57 39 L56 40 L53 41 C52.79 38.86 50.21 38.86 50 41 L46 45 L45 45 L44 42 L46 40 L47 39 L48 38 L52 34 L55 36 z"/>
<path style="fill:#919191" d="M34 35 L33 36 L34 35 z"/>
<path style="fill:#838383" d="M59 35 L58 36 L58 35 L59 35 z"/>
<path style="fill:#848484" d="M31 37 L30 37 C29.57 35.94 31.43 35.94 31 37 z"/>
<path style="fill:#b1b2b2" d="M47 37 L41 37 C41.73 35.38 46.27 35.38 47 37 z"/>
<path style="fill:#828282" d="M56 37 L55 36 L56 37 z"/>
<path style="fill:#616161" d="M62 36 C62.02 36.66 62.18 38.15 61 38 C60.98 37.34 60.82 35.85 62 36 z"/>
<path style="fill:#919191" d="M30 37 L30 38 C28.94 38.43 28.94 36.57 30 37 z"/>
<path style="fill:#ededed" d="M31 37 L31 38 L30 38 L30 37 L31 37 z"/>
<path style="fill:#8f8f8f" d="M32 37 L31 38 L31 37 L32 37 z"/>
<path style="fill:#f1f1f1" d="M41 37 L47 37 L48 37 L48 38 L47 39 L46 40 L44 42 L43 42 L39 38 L39 37 L41 37 z"/>
<path style="fill:#8f8f8f" d="M70 38 L69 37 L70 38 z"/>
<path style="fill:#787878" d="M18 38 L17 39 L18 38 z"/>
<path style="fill:#949595" d="M31 40 L31 41 L30 40 L30 39 L31 40 z"/>
<path style="fill:#9d9d9d" d="M47 39 L46 40 L47 39 z"/>
<path style="fill:#a6a7a7" d="M53 41 L50 41 C50.21 38.86 52.79 38.86 53 41 z"/>
<path style="fill:#dbdbdb" d="M57 39 L56 40 L57 39 z"/>
<path style="fill:#6a6a6a" d="M60 39 L60 43 L58 40 L60 39 z"/>
<path style="fill:#0b0b0b" d="M30 40 L31 41 L33 43 L33 44 C31.82 43.85 31.98 45.34 32 46 L32 49 C31.98 49.66 31.82 51.15 33 51 L33 53 L30 55 C28.82 55.15 28.98 53.66 29 53 L28 52 L28 43 L29 42 C28.98 41.34 28.82 39.85 30 40 z"/>
<path style="fill:#f1f1f1" d="M32 41 L31 41 L31 40 L32 41 z"/>
<path style="fill:#7c7d7d" d="M41 44 L41 45 L40 45 C38.38 44.33 35.03 39.59 35 44 C33.82 44.15 33.98 42.66 34 42 C35.78 37.35 38.73 43.05 41 44 z"/>
<path style="fill:#b5b6b6" d="M56 40 L55 44 L53 42 L53 41 L56 40 z"/>
<path style="fill:#939393" d="M32 41 L33 42 L33 43 L31 41 L32 41 z"/>
<path style="fill:#737474" d="M50 41 L47 47 C46.34 47.02 44.85 47.18 45 46 L46 45 L50 41 z"/>
<path style="fill:#121313" d="M53 41 L53 42 L53 43 L52 44 L51 45 L50 46 L49 47 L47 47 L50 41 L53 41 z"/>
<path style="fill:#7f7f7f" d="M71 42 L70 41 L71 42 z"/>
<path style="fill:#8d8d8d" d="M17 42 L16 43 L17 42 z"/>
<path style="fill:#949494" d="M29 42 L28 43 L29 42 z"/>
<path style="fill:#f1f1f1" d="M34 42 C33.98 42.66 33.82 44.15 35 44 L38 46 L39 47 L34 53 L33 53 L33 51 C33.02 50.34 33.18 48.85 32 49 L32 46 C33.18 46.15 33.02 44.66 33 44 L33 43 L33 42 L34 42 z"/>
<path style="fill:#0b0b0b" d="M40 45 L40 46 L38 46 L35 44 C35.03 39.59 38.38 44.33 40 45 z"/>
<path style="fill:#737373" d="M44 42 L45 45 L45 46 L44 46 L43 45 L43 44 L43 43 L43 42 L44 42 z"/>
<path style="fill:#f3f3f3" d="M55 44 L55 51 L53 51 L52 50 L51 49 L50 48 L49 48 L49 47 L50 46 L51 45 L52 44 L53 43 L53 42 L55 44 z"/>
<path style="fill:#b9baba" d="M67 46 C63.99 41.84 71.19 41.75 67 46 z"/>
<path style="fill:#ffffff" d="M43 43 L43 44 L42 44 L43 43 z"/>
<path style="fill:#737373" d="M53 43 L52 44 L53 43 z"/>
<path style="fill:#7a7b7b" d="M60 43 C61.79 45.23 61.36 51.46 60.25 53.75 L60 43 z"/>
<path style="fill:#909090" d="M33 44 C33.02 44.66 33.18 46.15 32 46 C31.98 45.34 31.82 43.85 33 44 z"/>
<path style="fill:#dcdcdc" d="M42 44 L42 45 L41 45 L41 44 L42 44 z"/>
<path style="fill:#0" d="M43 44 L43 45 L42 45 L42 44 L43 44 z"/>
<path style="fill:#747474" d="M52 44 L51 45 L52 44 z"/>
<path style="fill:#efefef" d="M41 45 L41 46 L40 46 L40 45 L41 45 z"/>
<path style="fill:#757575" d="M42 45 L43 45 L43 46 L42 47 L41 46 L41 45 L42 45 z"/>
<path style="fill:#0b0b0b" d="M44 46 L43 46 L43 45 L44 46 z"/>
<path style="fill:#e4e4e4" d="M46 45 L45 46 L45 45 L46 45 z"/>
<path style="fill:#6c6c6c" d="M51 45 L50 46 L51 45 z"/>
<path style="fill:#a3a3a3" d="M40 46 L39 47 L38 46 L40 46 z"/>
<path style="fill:#202020" d="M43 46 L43 47 L42 47 L43 46 z"/>
<path style="fill:#909090" d="M44 46 L43 47 L43 46 L44 46 z"/>
<path style="fill:#343434" d="M45 46 C44.85 47.18 46.34 47.02 47 47 L49 47 L49 48 L48 49 L45 50 L44 49 L43 48 L43 47 L44 46 L45 46 z"/>
<path style="fill:#dddede" d="M68 46 L68 48 L67 48 L67 46 L68 46 z"/>
<path style="fill:#717272" d="M70 46 L70 48 L68 48 L68 46 L70 46 z"/>
<path style="fill:#b3b3b3" d="M43 47 L43 48 L42 47 L43 47 z"/>
<path style="fill:#eeeeee" d="M44 49 L43 48 L44 49 z"/>
<path style="fill:#fafafa" d="M49 48 L48 49 L49 48 z"/>
<path style="fill:#0b0c0c" d="M50 48 L51 49 L52 50 L53 51 C54.06 52.68 55.72 55.18 58 55 L59 56 C58.28 60.07 53.77 63.6 51 59 L51 58 C54.1 57.57 52.83 53.24 50 54 C50.33 52.66 49.29 51.26 48 51 L48 49 L49 48 L50 48 z"/>
<path style="fill:#777777" d="M51 49 L50 48 L51 49 z"/>
<path style="fill:#1e1f1f" d="M67 48 L68 48 L70 48 L71 49 L69 51 L67 51 C67.02 50.34 67.18 48.85 66 49 L67 48 z"/>
<path style="fill:#7e7f7f" d="M33 51 C31.82 51.15 31.98 49.66 32 49 C33.18 48.85 33.02 50.34 33 51 z"/>
<path style="fill:#b5b5b5" d="M45 50 L44 49 L45 50 z"/>
<path style="fill:#dedfdf" d="M48 49 L48 51 L47 51 L46 52 L45 52 L45 50 L48 49 z"/>
<path style="fill:#7d7d7d" d="M52 50 L51 49 L52 50 z"/>
<path style="fill:#c5c6c6" d="M67 51 C65.82 51.15 65.98 49.66 66 49 C67.18 48.85 67.02 50.34 67 51 z"/>
<path style="fill:#c5c5c5" d="M41 51 C40.86 49.12 42.88 51.14 41 51 z"/>
<path style="fill:#6a6a6a" d="M53 51 L52 50 L53 51 z"/>
<path style="fill:#848484" d="M17 53 C15.82 53.15 15.98 51.66 16 51 C17.18 50.85 17.02 52.34 17 53 z"/>
<path style="fill:#c9c9c9" d="M41 51 L40 52 L41 51 z"/>
<path style="fill:#0e0f0f" d="M47 51 L50 54 C50.32 54.9 52.02 56.73 50 57 C49.34 57.02 47.85 57.18 48 56 L47 55 L46 52 L47 51 z"/>
<path style="fill:#828383" d="M48 51 C49.29 51.26 50.33 52.66 50 54 L47 51 L48 51 z"/>
<path style="fill:#737474" d="M55 51 L58 55 C55.72 55.18 54.06 52.68 53 51 L55 51 z"/>
<path style="fill:#bbbcbc" d="M69 51 C69.22 52.33 66.78 52.33 67 51 L69 51 z"/>
<path style="fill:#8d8d8d" d="M29 53 L28 52 L29 53 z"/>
<path style="fill:#cacaca" d="M40 52 L39 53 L40 52 z"/>
<path style="fill:#e6e7e7" d="M45 52 L45 55 L45 56 C44.98 56.66 44.82 58.15 46 58 L46 59 L45 59 L43 59 C44.07 54.5 39.86 57.01 41 60 L40 60 C39.16 58.82 39.16 58.18 40 57 L45 52 z"/>
<path style="fill:#7d7e7e" d="M46 52 L47 55 L46 55 L45 55 L45 52 L46 52 z"/>
<path style="fill:#6e6e6e" d="M33 53 L34 53 L30 57 L30 55 L33 53 z"/>
<path style="fill:#fafafa" d="M39 53 L38 54 L39 53 z"/>
<path style="fill:#bebfbf" d="M38 54 C37.67 55.34 38.71 56.74 40 57 C39.16 58.18 39.16 58.82 40 60 L36 62 L38 54 z"/>
<path style="fill:#525353" d="M51 58 L50 57 C52.02 56.73 50.32 54.9 50 54 C52.83 53.24 54.1 57.57 51 58 z"/>
<path style="fill:#717171" d="M18 56 L17 55 L18 56 z"/>
<path style="fill:#0b0b0b" d="M46 55 L46 56 L45 56 L45 55 L46 55 z"/>
<path style="fill:#f8f8f8" d="M47 55 L47 56 L46 56 L46 55 L47 55 z"/>
<path style="fill:#898989" d="M48 56 L47 56 L47 55 L48 56 z"/>
<path style="fill:#8d8d8d" d="M59 55 L59 56 L58 55 L59 55 z"/>
<path style="fill:#0f0f0f" d="M43 59 L42 64 L42 69 C41.98 69.66 41.82 71.15 43 71 L43 74 L43 76 L42 76 L41 75 L40 75 L40 74 C41.33 74.22 41.33 71.78 40 72 L40 66 L41 60 C39.86 57.01 44.07 54.5 43 59 z"/>
<path style="fill:#8a8a8a" d="M46 56 L47 56 L47 57 L46 58 C44.82 58.15 44.98 56.66 45 56 L46 56 z"/>
<path style="fill:#e7e8e8" d="M48 56 C47.85 57.18 49.34 57.02 50 57 L51 58 L51 59 L47 58 L47 57 L47 56 L48 56 z"/>
<path style="fill:#7a7a7a" d="M30 57 L30 58 L26 57 L30 57 z"/>
<path style="fill:#151616" d="M47 57 L47 58 C47.55 59.99 48.07 64.67 49.75 61.25 C50.58 62.76 50.86 65.34 52.75 65.75 L53 64 L57 66 L58 67 C59.01 67.36 64.13 68.01 62 69 C61.34 68.98 59.85 68.82 60 70 C57.96 72.14 56.04 72.14 54 70 C52.67 69.78 52.67 72.22 54 72 C54.64 75.1 50.73 73.7 49 74 L48 75 L47 68 L46.75 61.25 C45.66 62.18 45.95 65.19 43 64 L43 59 L45 59 C44.57 60.06 46.43 60.06 46 59 L46 58 L47 57 z"/>
<path style="fill:#a9a9a9" d="M19 59 L18 58 L19 59 z"/>
<path style="fill:#737373" d="M31 59 L30 59 L30 58 L31 59 z"/>
<path style="fill:#646565" d="M51 59 L52 63 L53 64 L52.75 65.75 C50.86 65.34 50.58 62.76 49.75 61.25 C48.07 64.67 47.55 59.99 47 58 L51 59 z"/>
<path style="fill:#cccccc" d="M31 59 L31 60 L30 60 L30 59 L31 59 z"/>
<path style="fill:#9e9f9f" d="M43 59 L43 64 L42 64 L43 59 z"/>
<path style="fill:#828282" d="M46 59 C46.43 60.06 44.57 60.06 45 59 L46 59 z"/>
<path style="fill:#878787" d="M30 60 L30 62 C28.67 62.22 28.67 59.78 30 60 z"/>
<path style="fill:#0d0e0e" d="M31 60 L31 62 L30 62 L30 60 L31 60 z"/>
<path style="fill:#a1a1a1" d="M31 62 L31 60 C32.77 60.13 33.52 62.74 31 62 z"/>
<path style="fill:#575858" d="M40 60 L41 60 L40 66 L39 66 C38.81 65.05 39.59 63.06 38 63 L37 64 L36 64 L35 64 L36 62 L40 60 z"/>
<path style="fill:#696969" d="M64 61 L63 60 L64 61 z"/>
<path style="fill:#a9a9a9" d="M69 60 L68 61 L69 60 z"/>
<path style="fill:#7e7e7e" d="M21 62 L20 61 L21 62 z"/>
<path style="fill:#afafaf" d="M47 68 C46.02 66.07 44.93 64.98 43 64 C45.95 65.19 45.66 62.18 46.75 61.25 L47 68 z"/>
<path style="fill:#9a9a9a" d="M31 62 C31.43 63.06 29.57 63.06 30 62 L31 62 z"/>
<path style="fill:#838383" d="M68 62 L67 63 L68 62 z"/>
<path style="fill:#c7c7c7" d="M38 63 L37 64 L38 63 z"/>
<path style="fill:#0a0a0a" d="M39 66 L39 72 L40 74 L36 74 L36 73 L36 72 C37.33 72.22 37.33 69.78 36 70 L35 69 L34 69 L36 65 L37 64 L38 63 C39.59 63.06 38.81 65.05 39 66 z"/>
<path style="fill:#080808" d="M53 64 L52 63 L53 64 z"/>
<path style="fill:#7d7d7d" d="M32 64 L31 65 L32 64 z"/>
<path style="fill:#161616" d="M35 64 L36 64 L36 65 L32 69 C30.12 68.86 32.14 70.88 32 69 L34 69 L34 70 L34 71 L33 72 C31.86 72.68 27.56 69.58 26.25 68.25 C29.89 68.54 32.35 65.96 35 64 z"/>
<path style="fill:#cecece" d="M37 64 L36 65 L36 64 L37 64 z"/>
<path style="fill:#727272" d="M25 66 L24 65 L25 66 z"/>
<path style="fill:#7a7a7a" d="M30 65 L29 66 L30 65 z"/>
<path style="fill:#9e9e9e" d="M36 65 L34 69 L32 69 L36 65 z"/>
<path style="fill:#dcdcdc" d="M40 66 L40 72 L39 72 L39 66 L40 66 z"/>
<path style="fill:#a6a7a7" d="M49 66 C50.92 66.8 49.84 70.06 49.75 71.75 L49 66 z"/>
<path style="fill:#767676" d="M58 67 L57 66 L58 67 z"/>
<path style="fill:#bbbbbb" d="M32 69 C32.14 70.88 30.12 68.86 32 69 z"/>
<path style="fill:#6a6a6a" d="M35 69 L34 70 L34 69 L35 69 z"/>
<path style="fill:#6f7070" d="M43 71 C41.82 71.15 41.98 69.66 42 69 C43.18 68.85 43.02 70.34 43 71 z"/>
<path style="fill:#a6a6a6" d="M62 69 C62.15 70.18 60.66 70.02 60 70 C59.85 68.82 61.34 68.98 62 69 z"/>
<path style="fill:#727272" d="M36 72 L36 70 C37.33 69.78 37.33 72.22 36 72 z"/>
<path style="fill:#717171" d="M54 70 L54 72 C52.67 72.22 52.67 69.78 54 70 z"/>
<path style="fill:#6a6a6a" d="M34 71 L33 72 L34 71 z"/>
<path style="fill:#787878" d="M40 72 C41.33 71.78 41.33 74.22 40 74 L39 72 L40 72 z"/>
<path style="fill:#6d6d6d" d="M36 73 L36 74 C34.94 74.43 34.94 72.57 36 73 z"/>
<path style="fill:#9c9d9d" d="M40 74 L40 75 L36 74 L40 74 z"/>
<path style="fill:#8d8d8d" d="M43 76 L43 74 C44.33 73.78 44.33 76.22 43 76 z"/>
<path style="fill:#7c7c7c" d="M49 74 L48 75 L49 74 z"/>
<path style="fill:#9e9e9e" d="M42 76 L41 75 L42 76 z"/>
</svg>
