<?xml version="1.0" standalone="yes"?>
<svg width="87" height="97">
<path style="fill:#fcfdfd" d="M87 0 L87 97 L0 97 L0 0 L87 0 z"/>
<path style="fill:#2e2f2f" d="M47 23 L47 26 C43.47 26.99 39.05 23.24 37 29 L38 24 L39 23 L40 22 C41.01 20.48 47.52 19.8 47 23 z"/>
<path style="fill:#7a7b7b" d="M51 23 L49 27 L48 23 C47.18 20.16 50.9 20.91 51 23 z"/>
<path style="fill:#8d8d8d" d="M40 22 L39 23 L40 22 z"/>
<path style="fill:#939393" d="M39 23 L38 24 L39 23 z"/>
<path style="fill:#808080" d="M48 23 C47.81 23.95 48.59 25.94 47 26 L47 23 L48 23 z"/>
<path style="fill:#d1d2d2" d="M49 27 C46.06 26.49 45.63 29.89 46 32 C46.15 33.18 44.66 33.02 44 33 C46.75 27.64 38.09 24.28 39 31 L37 29 C39.05 23.24 43.47 26.99 47 26 C48.59 25.94 47.81 23.95 48 23 L49 27 z"/>
<path style="fill:#161717" d="M51 23 C52.36 24.7 51.98 26.91 52 29 L51 30 L51 31 L46 32 C45.63 29.89 46.06 26.49 49 27 L51 23 z"/>
<path style="fill:#969696" d="M33 26 C32.05 26.19 30.06 25.41 30 27 L29 28 L25 28 C25.29 24.18 31.08 24.04 33 26 z"/>
<path style="fill:#121212" d="M33 26 C32.85 27.18 34.34 27.02 35 27 L35 28 C34.98 28.66 34.82 30.15 36 30 L36 31 L35 35 C32.46 35.76 30.24 33.54 31 31 L32 30 C33.33 30.22 33.33 27.78 32 28 L30 27 C30.06 25.41 32.05 26.19 33 26 z"/>
<path style="fill:#868787" d="M35 27 C34.34 27.02 32.85 27.18 33 26 C33.66 25.98 35.15 25.82 35 27 z"/>
<path style="fill:#d5d5d5" d="M30 27 L32 28 L32 30 L31 31 C30.24 33.54 32.46 35.76 35 35 L36 36 L32 37 C30.87 32.29 23.28 34.29 27 39 C25.56 38.98 23.61 38.24 23 37 C22.16 32.26 32.61 33.1 29 28 L30 27 z"/>
<path style="fill:#1b1c1c" d="M44 33 L47 35 L46 35 L44 35 C42.15 35.33 40.67 33.46 40 32 L39 31 C38.09 24.28 46.75 27.64 44 33 z"/>
<path style="fill:#aaaaaa" d="M57 27 L56 28 L57 27 z"/>
<path style="fill:#1b1b1b" d="M63 28 L64 29 L65 30 L65 32 C60.72 38.82 60.29 26.81 55 28 L56 28 L57 27 C59.09 27.02 61.3 26.64 63 28 z"/>
<path style="fill:#1e1e1e" d="M25 28 L29 28 C32.61 33.1 22.16 32.26 23 37 C23.02 36.34 23.18 34.85 22 35 L22 32 C23.18 32.15 23.02 30.66 23 30 L25 28 z"/>
<path style="fill:#646464" d="M32 30 L32 28 C33.33 27.78 33.33 30.22 32 30 z"/>
<path style="fill:#7a7b7b" d="M36 30 C34.82 30.15 34.98 28.66 35 28 C36.18 27.85 36.02 29.34 36 30 z"/>
<path style="fill:#c7c8c8" d="M55 28 C60.29 26.81 60.72 38.82 65 32 L66 33 L66 35 L65 36 L62 36 L58 37 L57 36 L58 35 C60.11 34.52 58.79 31.1 57 31 L55 31 L54 32 L53 32 C52.72 30.4 53.14 28.34 55 28 z"/>
<path style="fill:#8a8a8a" d="M64 29 L63 28 L64 29 z"/>
<path style="fill:#6b6b6b" d="M52 29 L51 30 L52 29 z"/>
<path style="fill:#9c9c9c" d="M65 30 L64 29 L65 30 z"/>
<path style="fill:#acacac" d="M23 30 C23.02 30.66 23.18 32.15 22 32 C21.98 31.34 21.82 29.85 23 30 z"/>
<path style="fill:#727272" d="M32 30 L31 31 L32 30 z"/>
<path style="fill:#a8a9a9" d="M67 37 L66 33 L65 32 L65 30 C67.98 29.65 69.22 35.69 67 37 z"/>
<path style="fill:#aaabab" d="M36 37 L36 36 L35 35 L36 31 C38.38 32.08 37.68 35.78 36 37 z"/>
<path style="fill:#9a9a9a" d="M40 32 L39 31 L40 32 z"/>
<path style="fill:#a2a3a3" d="M51 31 C51.89 33.69 49.16 34.92 47 35 L44 33 C44.66 33.02 46.15 33.18 46 32 L51 31 z"/>
<path style="fill:#676767" d="M55 31 L54 32 L55 31 z"/>
<path style="fill:#121313" d="M57 31 L58 35 L57 36 L56 36 C54.67 35.78 54.67 38.22 56 38 L57 41 L56 41 C54.54 40.33 52.67 38.85 53 37 L53 33 L53 32 L54 32 L55 31 L57 31 z"/>
<path style="fill:#515252" d="M58 35 L57 31 C58.79 31.1 60.11 34.52 58 35 z"/>
<path style="fill:#a0a0a0" d="M53 33 L53 37 C51.45 36.81 51.45 33.19 53 33 z"/>
<path style="fill:#121212" d="M67 37 L67 38 L66 39 L65 39 L64 40 L63 40 L59 40 L58 39 L58 37 L62 36 C61.96 37.48 65.04 37.48 65 36 L66 35 L66 33 L67 37 z"/>
<path style="fill:#141515" d="M32 37 L34 39 L32 40 L27 39 C23.28 34.29 30.87 32.29 32 37 z"/>
<path style="fill:#a3a4a4" d="M23 37 C21.82 37.15 21.98 35.66 22 35 C23.18 34.85 23.02 36.34 23 37 z"/>
<path style="fill:#a9aaaa" d="M46 35 C46.22 36.33 43.78 36.33 44 35 L46 35 z"/>
<path style="fill:#717171" d="M66 35 L65 36 L66 35 z"/>
<path style="fill:#575757" d="M36 36 L36 37 L36 38 L34 39 L32 37 L36 36 z"/>
<path style="fill:#8b8b8b" d="M56 36 L56 38 C54.67 38.22 54.67 35.78 56 36 z"/>
<path style="fill:#dedede" d="M57 36 L58 37 L58 39 L59 40 L59 41 L57 41 L56 38 L56 36 L57 36 z"/>
<path style="fill:#777777" d="M65 36 C65.04 37.48 61.96 37.48 62 36 L65 36 z"/>
<path style="fill:#7a7b7b" d="M45 38 L39 38 C39.73 36.38 44.27 36.38 45 38 z"/>
<path style="fill:#999999" d="M49 38 L50 40 L49 41 L46 38 C46.9 37.68 48.73 35.98 49 38 z"/>
<path style="fill:#b5b5b5" d="M36 38 L38 38 L33 42 L32 40 L34 39 L36 38 z"/>
<path style="fill:#101111" d="M39 38 L45 38 L46 38 L49 41 L48 45 L47 46 C46.34 45.98 44.85 45.82 45 47 L42 47 C42.15 45.82 40.66 45.98 40 46 L40 45 L39 44 C38.73 41.98 36.9 43.68 36 44 L35 45 L34 46 L33 50 L31 50 L31 47 C32.18 47.15 32.02 45.66 32 45 L33 42 L38 38 L39 38 z"/>
<path style="fill:#131313" d="M54 42 L55 43 L55 44 L55 51 L55 53 L54 53 C52.82 52.85 52.98 54.34 53 55 L51 56 L47 56 C43.59 54.66 43.69 49.88 46 48 L47 47 L51 47 C52.55 46.81 52.55 43.19 51 43 L50 40 L49 38 C51.28 37.82 52.94 40.32 54 42 z"/>
<path style="fill:#a9a9a9" d="M67 38 L66 39 L67 38 z"/>
<path style="fill:#818181" d="M32 40 L27 39 L32 40 z"/>
<path style="fill:#696969" d="M59 40 L58 39 L59 40 z"/>
<path style="fill:#787878" d="M65 39 L64 40 L65 39 z"/>
<path style="fill:#979797" d="M20 40 L19 41 L20 40 z"/>
<path style="fill:#1d1e1e" d="M24 40 C23.85 41.18 25.34 41.02 26 41 L27 42 L27 45 C22.42 49.56 22.56 39.14 18 43 L17 42 L19 41 L20 40 L24 40 z"/>
<path style="fill:#a0a0a0" d="M26 41 C25.34 41.02 23.85 41.18 24 40 C24.66 39.98 26.15 39.82 26 41 z"/>
<path style="fill:#eaebeb" d="M50 40 L51 43 L51 47 L47 47 L47 46 L48 45 L49 41 L50 40 z"/>
<path style="fill:#565656" d="M63 40 L63 41 L62 41 L59 41 L59 40 L63 40 z"/>
<path style="fill:#a9a9a9" d="M64 40 L63 41 L63 40 L64 40 z"/>
<path style="fill:#a1a1a1" d="M27 42 L26 41 L27 42 z"/>
<path style="fill:#767676" d="M57 41 L59 41 C59.04 42.48 55.96 42.48 56 41 L57 41 z"/>
<path style="fill:#c0c0c0" d="M63 41 L67 43 L66.25 43.75 C71.27 46.46 63.11 49.32 67 52 L70 54 C67.42 56.13 63.91 54.97 64.75 51.25 C62.52 50.51 58.85 50.63 60 54 C58.66 54.33 57.26 53.29 57 52 C59.73 52.73 58.68 49.69 59.25 48.25 C63.95 51.91 67.93 43.21 61 44 L62 41 L63 41 z"/>
<path style="fill:#cacaca" d="M17 42 L18 43 C22.56 39.14 22.42 49.56 27 45 C28.18 44.85 28.02 46.34 28 47 L28 48 L26 48 L23 48 L21 46 C20.18 42.75 17.55 44.73 16 46 C15.95 44.34 14.3 42.52 17 42 z"/>
<path style="fill:#a6a7a7" d="M30 45 L28 47 C28.02 46.34 28.18 44.85 27 45 L27 42 C29.12 41.37 29.14 43.82 30 45 z"/>
<path style="fill:#878787" d="M55 43 L54 42 L55 43 z"/>
<path style="fill:#eaeaea" d="M39 44 L40 45 L40 46 L36 47 L35 48 L34 49 L34 50 L33 50 L34 46 L35 45 L36 44 C36.9 43.68 38.73 41.98 39 44 z"/>
<path style="fill:#989898" d="M51 47 L51 43 C52.55 43.19 52.55 46.81 51 47 z"/>
<path style="fill:#121212" d="M67 43 C67.66 42.98 69.15 42.82 69 44 C70.12 46.21 71.56 48.3 71 51 L67 52 C63.11 49.32 71.27 46.46 66.25 43.75 L67 43 z"/>
<path style="fill:#1c1c1c" d="M21 46 C19.34 49.58 18.29 52.75 23 55 C21.17 55.23 18.85 54.5 18 53 L16 51 L16 46 C17.55 44.73 20.18 42.75 21 46 z"/>
<path style="fill:#848484" d="M36 44 L35 45 L36 44 z"/>
<path style="fill:#919191" d="M40 45 L39 44 L40 45 z"/>
<path style="fill:#6c6c6c" d="M55 51 L55 44 C56.64 45.03 56.64 49.97 55 51 z"/>
<path style="fill:#999999" d="M61 44 C61.15 45.18 59.66 45.02 59 45 C58.85 43.82 60.34 43.98 61 44 z"/>
<path style="fill:#1e1e1e" d="M57 52 C56.55 49.25 57.21 46.94 59 45 C59.66 45.02 61.15 45.18 61 44 C67.93 43.21 63.95 51.91 59.25 48.25 C58.68 49.69 59.73 52.73 57 52 z"/>
<path style="fill:#747474" d="M71 51 C71.56 48.3 70.12 46.21 69 44 C71.98 43.65 73.22 49.69 71 51 z"/>
<path style="fill:#161616" d="M30 45 L30 50 L29 51 L26 53 C22.74 54.08 20.71 50.22 23 48 L26 48 C25.78 49.33 28.22 49.33 28 48 L28 47 L30 45 z"/>
<path style="fill:#969797" d="M32 45 C32.02 45.66 32.18 47.15 31 47 C30.98 46.34 30.82 44.85 32 45 z"/>
<path style="fill:#8f8f8f" d="M35 45 L34 46 L35 45 z"/>
<path style="fill:#6a6a6a" d="M48 45 L47 46 L48 45 z"/>
<path style="fill:#a5a5a5" d="M16 46 L16 51 C14.4 50.55 14.4 46.45 16 46 z"/>
<path style="fill:#b2b3b3" d="M23 48 C20.71 50.22 22.74 54.08 26 53 C25.74 54.29 24.34 55.33 23 55 C18.29 52.75 19.34 49.58 21 46 L23 48 z"/>
<path style="fill:#a5a5a5" d="M40 46 C40.66 45.98 42.15 45.82 42 47 L42 48 L36 47 L40 46 z"/>
<path style="fill:#7d7d7d" d="M47 46 L47 47 L46 48 L45 47 C44.85 45.82 46.34 45.98 47 46 z"/>
<path style="fill:#828282" d="M36 47 L35 48 L36 47 z"/>
<path style="fill:#121212" d="M42 48 C43.12 53.51 40.91 60.14 50 58 L50 59 L49 60 C45.93 60.85 41.99 62 39 60 L38 59 L35 56 L34 55 L34 50 L34 49 L35 48 L36 47 L42 48 z"/>
<path style="fill:#cfcfcf" d="M45 47 L46 48 C43.69 49.88 43.59 54.66 47 56 L50 58 C40.91 60.14 43.12 53.51 42 48 L42 47 L45 47 z"/>
<path style="fill:#7c7c7c" d="M28 48 C28.22 49.33 25.78 49.33 26 48 L28 48 z"/>
<path style="fill:#8d8d8d" d="M35 48 L34 49 L35 48 z"/>
<path style="fill:#8e8e8e" d="M30 50 L29 51 L30 50 z"/>
<path style="fill:#afb0b0" d="M33 50 L34 50 L34 55 L32 55 L31 50 L33 50 z"/>
<path style="fill:#818282" d="M18 53 C16.65 53.46 15.54 52.35 16 51 L18 53 z"/>
<path style="fill:#141515" d="M70 54 L71 55 L69 56 L68 57 L67 57 L62 56 L61 56 L60 55 L60 54 C58.85 50.63 62.52 50.51 64.75 51.25 C63.91 54.97 67.42 56.13 70 54 z"/>
<path style="fill:#9c9c9c" d="M71 51 C71.62 52.07 73.05 54.54 71 55 L70 54 L67 52 L71 51 z"/>
<path style="fill:#696a6a" d="M54 53 C54.02 53.66 54.18 55.15 53 55 C52.98 54.34 52.82 52.85 54 53 z"/>
<path style="fill:#b9b9b9" d="M55 53 L55 57 L52 61 L52 62 L49 60 L50 59 C51.71 58.69 52.15 57.16 51 56 L53 55 C54.18 55.15 54.02 53.66 54 53 L55 53 z"/>
<path style="fill:#9fa0a0" d="M32 55 L32 56 L31 57 L30 58 L25 57 C26.48 55.42 29.54 54.86 32 55 z"/>
<path style="fill:#ebecec" d="M34 55 L35 56 L38 59 L39 60 C41.99 62 45.93 60.85 49 60 L52 62 L52 63 L51 64 C49.52 63.96 49.52 67.04 51 67 L51 68 L49 68 C49.02 67.34 49.18 65.85 48 66 L48 65 L47 64 C47.15 62.82 45.66 62.98 45 63 C43.59 60.47 40.09 62.86 38 63 C36.41 63.06 37.19 65.05 37 66 L36 68 C32.54 68.49 35.14 65.6 35 64 L35 63 C36.33 63.22 36.33 60.78 35 61 L35 59 L34 58 L32 56 L32 55 L34 55 z"/>
<path style="fill:#868686" d="M35 56 L34 55 L35 56 z"/>
<path style="fill:#888888" d="M61 56 L60 55 L61 56 z"/>
<path style="fill:#525353" d="M32 56 L34 58 L32 61 L31 57 L32 56 z"/>
<path style="fill:#7c7d7d" d="M51 56 C52.15 57.16 51.71 58.69 50 59 L50 58 L47 56 L51 56 z"/>
<path style="fill:#8d8e8e" d="M67 57 C66.44 58.73 61.12 58.79 62 56 L67 57 z"/>
<path style="fill:#878787" d="M69 56 L68 57 L69 56 z"/>
<path style="fill:#979797" d="M24 57 L23 58 L24 57 z"/>
<path style="fill:#1e1e1e" d="M25 57 L30 58 L30 60 L26 61 C23.21 59.97 22.39 62.84 21 64 C20.78 61.84 21.14 59.07 23 58 L24 57 L25 57 z"/>
<path style="fill:#f0f1f1" d="M31 57 L32 61 L31 61 L30 60 L30 58 L31 57 z"/>
<path style="fill:#181818" d="M60 58 L61 59 L61 62 L61 63 L58 63 L57 62 C57.85 60.47 55.91 57.43 55 60 L52 61 L55 57 L60 58 z"/>
<path style="fill:#0c0c0c" d="M34 58 L35 59 L35 61 L35 63 L35 64 C33.33 64.77 32.24 66.78 30 66 L31 61 L32 61 L34 58 z"/>
<path style="fill:#7e7e7e" d="M35 59 L34 58 L35 59 z"/>
<path style="fill:#888888" d="M61 59 L60 58 L61 59 z"/>
<path style="fill:#848484" d="M39 60 L38 59 L39 60 z"/>
<path style="fill:#656666" d="M57 62 L55 60 C55.91 57.43 57.85 60.47 57 62 z"/>
<path style="fill:#8b8b8b" d="M61 62 L61 59 C62.48 58.96 62.48 62.04 61 62 z"/>
<path style="fill:#868686" d="M30 60 L31 61 L30 66 L27 62 L26 61 L30 60 z"/>
<path style="fill:#d8d9d9" d="M55 60 L57 62 L58 63 L61 63 L61 64 C60.34 63.98 58.85 63.82 59 65 L58 65 L56 64 C55.66 62.14 53.6 61.72 52 62 L52 61 L55 60 z"/>
<path style="fill:#101111" d="M65 67 L63 69 L59 69 L58 69 L58 65 L59 65 L63 64 C62.45 56.68 66.47 63.32 65 67 z"/>
<path style="fill:#c3c4c4" d="M26 61 L27 62 L27 63 C24.52 62.21 23.74 64.18 23 66 C21.65 66.46 20.54 65.35 21 64 C22.39 62.84 23.21 59.97 26 61 z"/>
<path style="fill:#5b5b5b" d="M35 63 L35 61 C36.33 60.78 36.33 63.22 35 63 z"/>
<path style="fill:#f0f0f0" d="M30 66 L32 68 C28.9 68.86 27.14 67.1 28 64 L27 63 L27 62 L30 66 z"/>
<path style="fill:#343535" d="M45 63 C44.34 62.98 42.85 62.82 43 64 L38 63 C40.09 62.86 43.59 60.47 45 63 z"/>
<path style="fill:#1b1b1b" d="M56 64 L56 66 C54.92 67.36 54.92 68.64 56 70 L55 71 L54 71 L53 70 L52 69 L51 68 L51 67 L51 64 L52 63 L52 62 C53.6 61.72 55.66 62.14 56 64 z"/>
<path style="fill:#6b6b6b" d="M58 63 L57 62 L58 63 z"/>
<path style="fill:#1d1e1e" d="M27 63 L28 64 C27.14 67.1 28.9 68.86 32 68 L31 70 C27.59 70.8 24.41 69.1 23 66 C23.74 64.18 24.52 62.21 27 63 z"/>
<path style="fill:#757575" d="M28 64 L27 63 L28 64 z"/>
<path style="fill:#d1d1d1" d="M38 63 L43 64 L45 70 L44 71 L42 71 L41 70 C44.31 67.44 40.06 64.71 37 66 C37.19 65.05 36.41 63.06 38 63 z"/>
<path style="fill:#171818" d="M45 63 C45.66 62.98 47.15 62.82 47 64 L48 65 L48 66 L48 70 L45 70 L43 64 C42.85 62.82 44.34 62.98 45 63 z"/>
<path style="fill:#8b8b8b" d="M52 63 L51 64 L52 63 z"/>
<path style="fill:#9b9b9b" d="M35 64 C35.14 65.6 32.54 68.49 36 68 L36 71 C34.71 68.68 33.38 69.31 31 70 L32 68 L30 66 C32.24 66.78 33.33 64.77 35 64 z"/>
<path style="fill:#8e8e8e" d="M48 65 L47 64 L48 65 z"/>
<path style="fill:#929292" d="M51 64 L51 67 C49.52 67.04 49.52 63.96 51 64 z"/>
<path style="fill:#8d8d8d" d="M58 65 L58 69 L56 66 L56 64 L58 65 z"/>
<path style="fill:#727272" d="M61 64 L63 64 L59 65 C58.85 63.82 60.34 63.98 61 64 z"/>
<path style="fill:#1b1b1b" d="M41 70 C40.05 70.19 38.06 69.41 38 71 L38 73 L37 74 L36 71 L36 68 L37 66 C40.06 64.71 44.31 67.44 41 70 z"/>
<path style="fill:#707171" d="M49 68 C49.02 68.66 49.18 70.15 48 70 L48 66 C49.18 65.85 49.02 67.34 49 68 z"/>
<path style="fill:#d2d3d3" d="M58 69 L59 69 C59.06 70.59 61.05 69.81 62 70 L60 72 C59.39 70.76 57.44 70.02 56 70 C54.92 68.64 54.92 67.36 56 66 L58 69 z"/>
<path style="fill:#a9a9a9" d="M65 67 C65.46 68.35 64.35 69.46 63 69 L65 67 z"/>
<path style="fill:#bbbbbb" d="M51 68 L52 69 L50 71 C48.37 72.57 44.94 74.4 44 71 L45 70 L48 70 C49.18 70.15 49.02 68.66 49 68 L51 68 z"/>
<path style="fill:#747474" d="M53 70 L52 69 L53 70 z"/>
<path style="fill:#7a7b7b" d="M63 69 L62 70 C61.05 69.81 59.06 70.59 59 69 L63 69 z"/>
<path style="fill:#8a8b8b" d="M41 70 L42 71 C42.15 72.18 40.66 72.02 40 72 C40.15 70.82 38.66 70.98 38 71 C38.06 69.41 40.05 70.19 41 70 z"/>
<path style="fill:#949494" d="M54 71 L53 70 L54 71 z"/>
<path style="fill:#606060" d="M60 72 L55 71 L56 70 C57.44 70.02 59.39 70.76 60 72 z"/>
<path style="fill:#f4f4f4" d="M40 72 L40 75 L38 73 L38 71 C38.66 70.98 40.15 70.82 40 72 z"/>
<path style="fill:#181919" d="M44 71 C44.94 74.4 48.37 72.57 50 71 C49.98 72.44 49.24 74.39 48 75 C47.34 74.98 45.85 74.82 46 76 L41 76 L40 75 L40 72 C40.66 72.02 42.15 72.18 42 71 L44 71 z"/>
<path style="fill:#9fa0a0" d="M40 75 L41 76 C39.4 76.28 37.34 75.86 37 74 L38 73 L40 75 z"/>
<path style="fill:#747474" d="M48 75 C48.15 76.18 46.66 76.02 46 76 C45.85 74.82 47.34 74.98 48 75 z"/>
</svg>
