<?xml version="1.0" standalone="yes"?>
<svg width="87" height="97">
<path style="fill:#fcfdfd" d="M87 0 L87 97 L0 97 L0 0 L87 0 z"/>
<path style="fill:#070808" d="M40 17 L36 24 L35 31 C35.02 31.66 35.18 33.15 34 33 L27 33 L24 29 L24 23 C24.66 23.02 26.15 23.18 26 22 C26.66 22.02 28.15 22.18 28 21 L29 20 L30 19 L34 19 L35 18 L40 17 z"/>
<path style="fill:#9d9d9d" d="M45 17 L48 22 L47 22 C43.17 16.52 38.83 20.78 37 25 L36 24 L40 17 C41.53 18.25 43.47 18.25 45 17 z"/>
<path style="fill:#080808" d="M50 18 L51 19 L55 19 L56 20 L57 21 C60.35 22.25 63.44 24.24 62 29 L58 33 C48.2 36.08 51.12 27.55 48 22 L45 17 L50 18 z"/>
<path style="fill:#838383" d="M35 18 L34 19 L35 18 z"/>
<path style="fill:#6f6f6f" d="M51 19 L50 18 L51 19 z"/>
<path style="fill:#9f9f9f" d="M30 19 L29 20 L30 19 z"/>
<path style="fill:#080808" d="M47 22 C48.54 27.1 49.09 33.84 45 38 L43 21 L42 21 L40 38 C36.49 34.58 36.81 29.68 37 25 C38.83 20.78 43.17 16.52 47 22 z"/>
<path style="fill:#909090" d="M56 20 L55 19 L56 20 z"/>
<path style="fill:#a1a1a1" d="M29 20 L28 21 L29 20 z"/>
<path style="fill:#949494" d="M57 21 L56 20 L57 21 z"/>
<path style="fill:#252525" d="M42 21 L42 39 L41 39 L40 39 L40 38 L42 21 z"/>
<path style="fill:#d8d8d8" d="M43 21 L43 39 C43.43 40.06 41.57 40.06 42 39 L42 21 L43 21 z"/>
<path style="fill:#3c3c3c" d="M45 38 L45 39 L43 39 L43 21 L45 38 z"/>
<path style="fill:#727272" d="M26 22 C26.15 23.18 24.66 23.02 24 23 C23.85 21.82 25.34 21.98 26 22 z"/>
<path style="fill:#b6b6b6" d="M48 22 C51.12 27.55 48.2 36.08 58 33 C59.97 33.21 57.8 34.56 57 34 C52.73 33.67 48.02 34.9 46 39 L45 39 L45 38 C49.09 33.84 48.54 27.1 47 22 L48 22 z"/>
<path style="fill:#616161" d="M24 23 L24 29 L23 29 L22 28 L24 23 z"/>
<path style="fill:#bbbcbc" d="M37 25 C36.81 29.68 36.49 34.58 40 38 L40 39 L34 34 C36.09 35.01 36.96 31.25 35 31 L36 24 L37 25 z"/>
<path style="fill:#0c0d0d" d="M22 28 L23 29 C23.75 31.75 26.11 33.57 23 36 C20.16 36.25 15.04 36.06 16 32 L17 31 C16.98 30.34 16.82 28.85 18 29 L19 28 C19.1 25.91 22.82 25.16 22 28 z"/>
<path style="fill:#555656" d="M66 28 L63 27 C63.25 25.04 67.01 25.91 66 28 z"/>
<path style="fill:#090909" d="M66 28 L67 29 L68 30 C67.98 30.66 67.82 32.15 69 32 C70.18 31.85 70.02 33.34 70 34 L67 36 L62 35 C58.42 33.37 61.5 31.23 63 29 L63 27 L66 28 z"/>
<path style="fill:#7e7e7e" d="M19 28 L18 29 L19 28 z"/>
<path style="fill:#656565" d="M67 29 L66 28 L67 29 z"/>
<path style="fill:#a7a7a7" d="M24 29 L27 33 C25.94 32.57 25.94 34.43 27 34 C26.39 35.24 24.44 35.98 23 36 C26.11 33.57 23.75 31.75 23 29 L24 29 z"/>
<path style="fill:#919191" d="M62 29 L63 29 C61.5 31.23 58.42 33.37 62 35 L61 36 L57 34 C57.8 34.56 59.97 33.21 58 33 L62 29 z"/>
<path style="fill:#737373" d="M69 32 C67.82 32.15 67.98 30.66 68 30 C69.18 29.85 69.02 31.34 69 32 z"/>
<path style="fill:#808080" d="M17 31 L16 32 L17 31 z"/>
<path style="fill:#626363" d="M34 34 L34 33 C35.18 33.15 35.02 31.66 35 31 C36.96 31.25 36.09 35.01 34 34 z"/>
<path style="fill:#9f9f9f" d="M16 32 C15.04 36.06 20.16 36.25 23 36 L22 42 L20 42 C23.5 36.22 17.18 38.22 15 35 C15.19 34.05 14.41 32.06 16 32 z"/>
<path style="fill:#d5d6d6" d="M27 33 L34 33 L34 34 L27 34 C25.94 34.43 25.94 32.57 27 33 z"/>
<path style="fill:#0f1010" d="M34 34 L40 39 C40.46 40.35 39.35 41.46 38 41 C37.39 39.76 35.44 39.02 34 39 C32.97 37.36 28.03 37.36 27 39 C20.17 40.95 35.88 38.47 38 42 L38 44 L34 45 L30 45 L24 43 L22 42 L23 36 C24.44 35.98 26.39 35.24 27 34 L34 34 z"/>
<path style="fill:#0c0c0c" d="M57 34 L61 36 C63.02 36.67 64.67 41 63 42 L55 45 L52 45 L48 44 L47 44 L47 42 C51.28 39.72 57.12 39.19 61.75 40.75 C59.81 36.62 50.34 37.75 47 41 L46 41 L46 39 C48.02 34.9 52.73 33.67 57 34 z"/>
<path style="fill:#878888" d="M70 34 C70.91 35.26 72.85 35.67 72 38 C70.8 36.73 69.95 35.18 68 37 L67 36 L70 34 z"/>
<path style="fill:#0f0f0f" d="M15 35 C17.18 38.22 23.5 36.22 20 42 L18 42 C16.17 42.08 13.46 42.37 13 40 L13 38 L14 37 C13.98 36.34 13.82 34.85 15 35 z"/>
<path style="fill:#c1c1c1" d="M62 35 L67 36 L68 37 C62.99 34.81 63.56 41.94 67 42 C67.15 43.18 65.66 43.02 65 43 L64 43 L63 43 L63 42 C64.67 41 63.02 36.67 61 36 L62 35 z"/>
<path style="fill:#0e0e0e" d="M72 38 L73 41 C71.3 42.36 69.09 41.98 67 42 C63.56 41.94 62.99 34.81 68 37 C69.95 35.18 70.8 36.73 72 38 z"/>
<path style="fill:#7d7d7d" d="M14 37 L13 38 L14 37 z"/>
<path style="fill:#595959" d="M34 39 L27 39 C28.03 37.36 32.97 37.36 34 39 z"/>
<path style="fill:#878787" d="M47 42 L47 41 C50.34 37.75 59.81 36.62 61.75 40.75 C57.12 39.19 51.28 39.72 47 42 z"/>
<path style="fill:#969696" d="M27 39 L34 39 C35.44 39.02 37.39 39.76 38 41 L38 42 C35.88 38.47 20.17 40.95 27 39 z"/>
<path style="fill:#9a9a9a" d="M42 39 C41.57 40.06 43.43 40.06 43 39 L45 39 L46 39 L46 41 C44.84 40.07 43.55 39.98 44 42 C42.82 41.16 42.18 41.16 41 42 L41 39 L42 39 z"/>
<path style="fill:#808181" d="M13 40 C13.46 42.37 16.17 42.08 18 42 C19.87 42.83 21.3 46.64 19 48 C20.51 41.72 8.323 41.57 12 49 L11 49 C11.15 45.96 10.19 41.78 13 40 z"/>
<path style="fill:#272828" d="M44 42 C45.36 43.09 44.07 47.69 43 49 C40.21 49.3 40.02 42.99 41 42 C42.18 41.16 42.82 41.16 44 42 z"/>
<path style="fill:#8f8f8f" d="M73 41 L73 43 L66 45 C64.82 45.15 64.98 43.66 65 43 C65.66 43.02 67.15 43.18 67 42 C69.09 41.98 71.3 42.36 73 41 z"/>
<path style="fill:#b9baba" d="M20 42 L22 42 L24 43 L23 45 L23 48 L22 49 C22.17 40.48 20.26 47.52 21 52 L21 57 L17 57 L13 57 L12 56 C17.06 58.93 24.46 50.59 17 50 L11 50 L11 49 L12 49 L19 48 C21.3 46.64 19.87 42.83 18 42 L20 42 z"/>
<path style="fill:#606060" d="M38 44 L38 42 C39.33 41.78 39.33 44.22 38 44 z"/>
<path style="fill:#878888" d="M47 42 L47 44 C45.67 44.22 45.67 41.78 47 42 z"/>
<path style="fill:#a4a4a4" d="M63 42 L63 43 L63 54 C60.21 55.7 64.02 58.4 63 54 L64 43 L65 43 C64.98 43.66 64.82 45.15 66 45 C64.38 50.15 69.76 49.01 73 49 L74 49 L73 54 C73.92 49.87 67.94 50.29 65.25 50.25 C62.95 55.58 69.04 56.69 73 56 C72.81 56.95 73.59 58.94 72 59 C69.34 57.39 63.76 54.23 63 59 L62 59 L60 60 C61.81 54.55 58.95 57.09 55 57 L55 56 C55.95 55.81 57.94 56.59 58 55 C60.75 55.83 64.28 49.65 60 50 L60 49 C65.44 45.21 58.11 44.36 55 46 L55 45 L63 42 z"/>
<path style="fill:#040404" d="M19 48 L12 49 C8.323 41.57 20.51 41.72 19 48 z"/>
<path style="fill:#868787" d="M30 45 C29.34 44.98 27.85 44.82 28 46 L23 45 L24 43 L30 45 z"/>
<path style="fill:#343434" d="M64 43 L63 54 L63 43 L64 43 z"/>
<path style="fill:#050505" d="M73 43 L73 49 C69.76 49.01 64.38 50.15 66 45 L73 43 z"/>
<path style="fill:#565656" d="M74 49 L73 49 L73 43 L74 49 z"/>
<path style="fill:#212222" d="M22 49 L22 52 L21 52 C20.26 47.52 22.17 40.48 22 49 z"/>
<path style="fill:#5c5d5d" d="M52 45 L48 44 L52 45 z"/>
<path style="fill:#0e0f0f" d="M28 46 C28.66 45.98 30.15 45.82 30 47 L30 50 C27.3 50.56 25.21 49.12 23 48 L23 45 L28 46 z"/>
<path style="fill:#c5c5c5" d="M30 45 L34 45 L30 47 C30.15 45.82 28.66 45.98 28 46 C27.85 44.82 29.34 44.98 30 45 z"/>
<path style="fill:#0b0b0b" d="M60 49 C57.22 51.47 56.03 48.85 55 47 L55 46 C58.11 44.36 65.44 45.21 60 49 z"/>
<path style="fill:#7a7a7a" d="M60 49 L60 50 C58.51 51.05 53.03 54.3 58 55 C57.94 56.59 55.95 55.81 55 56 L55 47 C56.03 48.85 57.22 51.47 60 49 z"/>
<path style="fill:#a0a1a1" d="M30 50 L30 52 L29 52 L25 51 L22 52 L22 49 L23 48 C25.21 49.12 27.3 50.56 30 50 z"/>
<path style="fill:#808080" d="M17 50 L12 54 L11 50 L17 50 z"/>
<path style="fill:#0b0b0b" d="M12 56 L12 54 L17 50 C24.46 50.59 17.06 58.93 12 56 z"/>
<path style="fill:#5d5d5d" d="M25 51 C23.41 51.06 24.19 53.05 24 54 C22.52 53.96 22.52 57.04 24 57 L24 60 L22 59 C20.82 59.15 20.98 57.66 21 57 L21 52 L22 52 L25 51 z"/>
<path style="fill:#0d0e0e" d="M58 55 C53.03 54.3 58.51 51.05 60 50 C64.28 49.65 60.75 55.83 58 55 z"/>
<path style="fill:#0f0f0f" d="M73 54 L73 56 C69.04 56.69 62.95 55.58 65.25 50.25 C67.94 50.29 73.92 49.87 73 54 z"/>
<path style="fill:#0b0b0b" d="M25 51 L29 52 C29.21 53.42 29.11 55.67 27 55 L24 54 C24.19 53.05 23.41 51.06 25 51 z"/>
<path style="fill:#525353" d="M30 52 L30 56 L27 56 L27 55 C29.11 55.67 29.21 53.42 29 52 L30 52 z"/>
<path style="fill:#afafaf" d="M24 54 L27 55 L27 56 C26.05 56.19 24.06 55.41 24 57 C22.52 57.04 22.52 53.96 24 54 z"/>
<path style="fill:#464646" d="M63 54 C64.02 58.4 60.21 55.7 63 54 z"/>
<path style="fill:#080909" d="M21 57 C20.98 57.66 20.82 59.15 22 59 C21.85 61.82 17.52 62.9 15 63 C15.02 62.34 15.18 60.85 14 61 C14.02 60.34 14.18 58.85 13 59 L13 58 L17 57 L21 57 z"/>
<path style="fill:#141414" d="M27 56 C27.06 57.59 29.05 56.81 30 57 L30 58 L31 59 L31 60 C28.23 63.35 25.28 59.25 24 57 C24.06 55.41 26.05 56.19 27 56 z"/>
<path style="fill:#9d9e9e" d="M30 56 L30 57 C29.05 56.81 27.06 57.59 27 56 L30 56 z"/>
<path style="fill:#131313" d="M60 60 C58.47 61.02 54.96 62 54 60 L55 57 C58.95 57.09 61.81 54.55 60 60 z"/>
<path style="fill:#0a0b0b" d="M72 59 C70.82 58.85 70.98 60.34 71 61 L71 62 L70 63 L64 61 L63 60 L63 59 C63.76 54.23 69.34 57.39 72 59 z"/>
<path style="fill:#626262" d="M17 57 L13 58 L13 57 L17 57 z"/>
<path style="fill:#b8b9b9" d="M31 60 C32.18 59.85 32.02 61.34 32 62 C29.11 61.82 26.07 61.52 28 65 L25 62 C25.02 61.34 25.18 59.85 24 60 L24 57 C25.28 59.25 28.23 63.35 31 60 z"/>
<path style="fill:#b0b1b1" d="M24 60 C23.98 60.66 23.82 62.15 25 62 C25.02 62.66 25.18 64.15 24 64 C23.15 60.7 17 63.94 17 66 L15 63 C17.52 62.9 21.85 61.82 22 59 L24 60 z"/>
<path style="fill:#808080" d="M31 59 L30 58 L31 59 z"/>
<path style="fill:#5c5d5d" d="M62 59 L61 63 L58 66 L58 64 C59.24 63.39 59.98 61.44 60 60 L62 59 z"/>
<path style="fill:#a2a2a2" d="M14 61 C12.82 61.15 12.98 59.66 13 59 C14.18 58.85 14.02 60.34 14 61 z"/>
<path style="fill:#bcbdbd" d="M63 59 L63 60 L64 61 L70 63 L69 64 L68 64 L61 63 L62 59 L63 59 z"/>
<path style="fill:#707171" d="M72 59 C72.02 59.66 72.18 61.15 71 61 C70.98 60.34 70.82 58.85 72 59 z"/>
<path style="fill:#474848" d="M25 62 C23.82 62.15 23.98 60.66 24 60 C25.18 59.85 25.02 61.34 25 62 z"/>
<path style="fill:#c1c2c2" d="M54 60 C54.96 62 58.47 61.02 60 60 C59.98 61.44 59.24 63.39 58 64 C58.64 60.9 54.73 62.3 53 62 C52.98 61.34 52.82 59.85 54 60 z"/>
<path style="fill:#5f5f5f" d="M64 61 L63 60 L64 61 z"/>
<path style="fill:#8e8f8f" d="M15 63 C13.82 63.15 13.98 61.66 14 61 C15.18 60.85 15.02 62.34 15 63 z"/>
<path style="fill:#080909" d="M24 64 L24 67 C23.33 68.46 21.85 70.33 20 70 C20.46 68.65 19.35 67.54 18 68 L17 66 C17 63.94 23.15 60.7 24 64 z"/>
<path style="fill:#626262" d="M28 65 L28 67 C25.99 65.53 25.38 64.77 24 67 L24 64 C25.18 64.15 25.02 62.66 25 62 L28 65 z"/>
<path style="fill:#191919" d="M32 62 L34 67 C31.5 67.65 29.79 66.31 28 65 C26.07 61.52 29.11 61.82 32 62 z"/>
<path style="fill:#1c1c1c" d="M58 64 L56 66 L55 67 L51 67 L52 64 L53 63 L53 62 C54.73 62.3 58.64 60.9 58 64 z"/>
<path style="fill:#111111" d="M68 64 L68 66 C68.33 67.85 66.46 69.33 65 70 C61.36 70.13 60.42 65.91 61 63 L68 64 z"/>
<path style="fill:#848484" d="M71 62 L70 63 L71 62 z"/>
<path style="fill:#868686" d="M53 63 L52 64 L53 63 z"/>
<path style="fill:#b1b2b2" d="M61 63 C60.42 65.91 61.36 70.13 65 70 L63 72 C61.02 69.83 59.79 65.39 57 69 L57 67 L58 66 L61 63 z"/>
<path style="fill:#c8c9c9" d="M58 64 L58 66 L57 67 L56 67 L56 66 L58 64 z"/>
<path style="fill:#6c6c6c" d="M69 64 C69.02 64.66 69.18 66.15 68 66 L68 64 L69 64 z"/>
<path style="fill:#b5b5b5" d="M28 67 L28 69 C25.62 66.61 23.17 70.02 22 72 L20 70 C21.85 70.33 23.33 68.46 24 67 C25.38 64.77 25.99 65.53 28 67 z"/>
<path style="fill:#bfc0c0" d="M34 67 C34.66 66.98 36.15 66.82 36 68 C34.45 68.06 31.29 67.32 32 70 L28 67 L28 65 C29.79 66.31 31.5 67.65 34 67 z"/>
<path style="fill:#757575" d="M56 66 L56 67 L55 67 L56 66 z"/>
<path style="fill:#373737" d="M58 66 L57 67 L58 66 z"/>
<path style="fill:#838383" d="M32 70 C31.57 71.06 33.43 71.06 33 70 L38 71 L38 72 C34.67 73.12 35.36 74.61 36 78 L35 78 C35.02 75.46 33.3 73.69 31 73 L31 72 L30 71 L29 70 L28 69 L28 67 L32 70 z"/>
<path style="fill:#cbcbcb" d="M51 67 L55 67 L56 67 L54 69 L49 68 C48.85 66.82 50.34 66.98 51 67 z"/>
<path style="fill:#7f8080" d="M57 67 L57 69 C55.46 69.67 53.25 71.39 55 73 C52.66 73.03 50.03 75.66 50 78 L49 78 L50 73 C50.22 71.67 47.78 71.67 48 73 L47 72 L47 71 L52 71 L53 70 L54 69 L56 67 L57 67 z"/>
<path style="fill:#0d0d0d" d="M63 72 L62 73 L61 74 C60.34 73.98 58.85 73.82 59 75 C54.44 76.12 56.36 71.24 57 69 C59.79 65.39 61.02 69.83 63 72 z"/>
<path style="fill:#565656" d="M20 70 L18 68 C19.35 67.54 20.46 68.65 20 70 z"/>
<path style="fill:#0d0d0d" d="M28 69 L29 70 L29 71 C29.4 73.27 29.01 75.98 26 75 L25 74 L23 73 L22 72 C23.17 70.02 25.62 66.61 28 69 z"/>
<path style="fill:#131313" d="M36 68 L38 71 L33 70 L32 70 C31.29 67.32 34.45 68.06 36 68 z"/>
<path style="fill:#1c1c1c" d="M54 69 L53 70 L52 71 L47 71 L49 68 L54 69 z"/>
<path style="fill:#dedede" d="M29 70 L28 69 L29 70 z"/>
<path style="fill:#dcdcdc" d="M54 69 L53 70 L54 69 z"/>
<path style="fill:#b3b3b3" d="M57 69 C56.36 71.24 54.44 76.12 59 75 C58.94 76.59 56.95 75.81 56 76 C54.41 75.94 55.19 73.95 55 73 C53.25 71.39 55.46 69.67 57 69 z"/>
<path style="fill:#f5f5f5" d="M30 71 L29 71 L29 70 L30 71 z"/>
<path style="fill:#e2e2e2" d="M33 70 C33.43 71.06 31.57 71.06 32 70 L33 70 z"/>
<path style="fill:#e3e3e3" d="M53 70 L52 71 L53 70 z"/>
<path style="fill:#979898" d="M30 71 L31 72 L31 73 L30 77 L26 75 C29.01 75.98 29.4 73.27 29 71 L30 71 z"/>
<path style="fill:#f8f8f8" d="M31 72 L30 71 L31 72 z"/>
<path style="fill:#9c9c9c" d="M23 73 L22 72 L23 73 z"/>
<path style="fill:#101010" d="M41 75 L41 78 L37 79 L36 78 C35.36 74.61 34.67 73.12 38 72 C40.24 71.34 41.66 72.76 41 75 z"/>
<path style="fill:#111212" d="M47 72 L48 73 L50 73 L49 78 L48 79 L44 78 L44 75 C43.34 72.76 44.76 71.34 47 72 z"/>
<path style="fill:#d6d7d7" d="M50 73 L48 73 C47.78 71.67 50.22 71.67 50 73 z"/>
<path style="fill:#868686" d="M63 72 L62 73 L63 72 z"/>
<path style="fill:#161717" d="M31 73 C33.3 73.69 35.02 75.46 35 78 L34 78 L30 77 L31 73 z"/>
<path style="fill:#0e0e0e" d="M55 73 C55.19 73.95 54.41 75.94 56 76 C56.15 77.18 54.66 77.02 54 77 L53 78 L51 78 L50 78 C50.03 75.66 52.66 73.03 55 73 z"/>
<path style="fill:#8c8c8c" d="M26 75 L25 74 L26 75 z"/>
<path style="fill:#949494" d="M61 74 C61.15 75.18 59.66 75.02 59 75 C58.85 73.82 60.34 73.98 61 74 z"/>
<path style="fill:#737474" d="M41 78 L41 75 C42.48 74.96 42.48 78.04 41 78 z"/>
<path style="fill:#939393" d="M44 75 L44 78 C42.52 78.04 42.52 74.96 44 75 z"/>
<path style="fill:#656565" d="M54 77 L53 78 L54 77 z"/>
<path style="fill:#8d8d8d" d="M35 78 C35.43 79.06 33.57 79.06 34 78 L35 78 z"/>
<path style="fill:#9e9e9e" d="M37 79 L36 78 L37 79 z"/>
<path style="fill:#8b8b8b" d="M49 78 L48 79 L49 78 z"/>
<path style="fill:#8b8b8b" d="M51 78 C51.43 79.06 49.57 79.06 50 78 L51 78 z"/>
</svg>
