<?xml version="1.0" standalone="yes"?>
<svg width="87" height="97">
<path style="fill:#fcfdfd" d="M87 0 L87 97 L0 97 L0 0 L87 0 z"/>
<path style="fill:#0e0f0f" d="M43 25 L42 26 L43 50 L43 53 L43 55 L42 55 C42.48 49.46 40.23 51.98 41 56 L40 57 L40 60 C38.41 60.06 39.19 62.05 39 63 L38 64 L38 66 L35 67 C35.02 66.34 35.18 64.85 34 65 C34.02 64.34 34.18 62.85 33 63 L34 61 L35 60 L35 59 L36 58 L37 57 L37 56 C38.18 56.15 38.02 54.66 38 54 C39.59 53.94 38.81 51.95 39 51 C40.59 50.94 39.81 48.95 40 48 C40.43 46.94 38.57 46.94 39 48 L39 51 C37.41 51.06 38.19 53.05 38 54 L37 55 L36 56 L36 57 L35 58 L35 59 L34 60 L33 61 C31.31 59.22 30.81 55.85 33 54 L34 53 L34 52 L35 51 C36.18 51.15 36.02 49.66 36 49 L37 48 C38.18 48.15 38.02 46.66 38 46 L39 45 L39 43 C40.88 43.14 38.86 41.12 39 43 C37.82 42.85 37.98 44.34 38 45 L37 46 L37 48 L36 49 C34.82 48.85 34.98 50.34 35 51 L34 52 L33 53 C30.16 55.77 30.27 48.54 32 48 L33 47 L33 46 L34 45 L35 44 L36 43 L37 42 L37 41 C38.18 41.15 38.02 39.66 38 39 C39.18 39.15 39.02 37.66 39 37 C40.88 37.14 38.86 35.12 39 37 C37.82 36.85 37.98 38.34 38 39 C36.82 38.85 36.98 40.34 37 41 L36 42 C34.82 41.85 34.98 43.34 35 44 L34 45 L33 46 L32 47 C27.67 42.9 35.72 39.88 36 36 L37 35 C38.18 35.15 38.02 33.66 38 33 C39.18 33.15 39.02 31.66 39 31 C40.18 31.15 40.02 29.66 40 29 C41.88 29.14 39.86 27.12 40 29 C38.82 28.85 38.98 30.34 39 31 C37.82 30.85 37.98 32.34 38 33 C36.82 32.85 36.98 34.34 37 35 L36 36 L33 38 L33 36 C34.18 36.15 34.02 34.66 34 34 C35.18 34.15 35.02 32.66 35 32 C36.18 32.15 36.02 30.66 36 30 L37 29 C40.23 28.04 42.57 21.9 38 26 C38.43 24.94 36.57 24.94 37 26 L36 27 L35 28 L34 29 C32.82 28.85 32.98 30.34 33 31 C31.82 30.85 31.98 32.34 32 33 C30.41 33.06 31.19 35.05 31 36 L30 37 L30 46 L29 46 C29.02 45.34 29.18 43.85 28 44 L28 35 C29.18 35.15 29.02 33.66 29 33 L30 32 L30 31 C31.96 31.33 30.41 27.61 30 30 L29 31 L29 32 C27.41 32.06 28.19 34.05 28 35 C26.35 36.66 26.35 42.34 28 44 C28.19 44.95 27.41 46.94 29 47 L30 50 C28.94 49.57 28.94 51.43 30 51 C29.81 51.95 30.59 53.94 29 54 L28 53 L27 52 C27.02 51.34 27.18 49.85 26 50 C26.02 49.34 26.18 47.85 25 48 L25 45 L24 44 L24 39 C25.59 38.94 24.81 36.95 25 36 C27.39 35.59 23.67 34.04 24 36 L24 38 L23 39 L23 45 L24 46 L24 48 L25 49 L25 50 L26 51 L27 52 L28 53 L29 54 C29.49 56.09 32.36 59.5 30 61 C29.74 59.71 28.34 58.67 27 59 L26 58 L25 57 C25.33 55.66 24.29 54.26 23 54 C22.81 53.05 23.59 51.06 22 51 L21 47 L21 46 C22.18 46.15 22.02 44.66 22 44 C21.59 39.01 17.9 47.44 21 48 L21 51 L22 52 C21.98 52.66 21.82 54.15 23 54 C22.67 55.34 23.71 56.74 25 57 L26 58 L27 59 L29 61 L30 62 L33 63 C32.98 63.66 32.82 65.15 34 65 C33.98 65.66 33.82 67.15 35 67 C34.94 68.59 32.95 67.81 32 68 C32.15 66.82 30.66 66.98 30 67 C30.15 65.82 28.66 65.98 28 66 L23 61 L22 60 C22.02 59.34 22.18 57.85 21 58 C20.81 57.05 21.59 55.06 20 55 L20 54 C20.43 52.94 18.57 52.94 19 54 L20 55 C20.19 55.95 19.41 57.94 21 58 C20.98 58.66 20.82 60.15 22 60 L23 61 C23.03 63.34 25.66 65.97 28 66 C27.85 67.18 29.34 67.02 30 67 C29.85 68.18 31.34 68.02 32 68 L38 71 C37.16 74.12 33.34 72.68 31 73 L30 72 C27.11 71.47 24.03 69.22 24 66 L23 65 L20 61 L19 60 L18 57 L18 53 L17 43 L18 42 L19 39 L20 38 L21 37 L22 36 C24.23 28.11 37.79 21 43 25 z"/>
<path style="fill:#0e0e0e" d="M50 23 L50 24 C48.94 23.57 48.94 25.43 50 25 L51 26 L52 27 L53 28 L54 29 L55 32 L56 33 L56 36 L54 33 L53 32 L52 31 L51 30 C51.22 27.86 48.8 26.09 47.25 25.25 C46.68 27.32 49.5 29.01 51 30 L52 31 C51.98 31.66 51.82 33.15 53 33 C53.29 35.12 54.48 37.72 56 39 C56.15 40.18 54.66 40.02 54 40 L53 39 C53.33 37.15 51.46 35.67 50 35 L49 34 C49.02 33.34 49.18 31.85 48 32 C49.02 27.6 45.21 30.3 48 32 L48 34 C46.45 34.19 46.45 37.81 48 38 L48 39 L49 40 L49 41 L50 42 L51 43 L52 44 L53 45 L54 46 L55 47 L56 48 C57.36 49.7 56.98 51.91 57 54 L55 54 L54 53 L53 52 C53.33 50.66 52.29 49.26 51 49 C50.98 47.56 50.24 45.61 49 45 C49.02 44.34 49.18 42.85 48 43 C48.73 39.78 45.48 42.3 48 43 C47.98 43.66 47.82 45.15 49 45 C48.72 46.6 49.14 48.66 51 49 C50.67 50.34 51.71 51.74 53 52 L54 53 L54 54 L54 55 C51.48 55.7 54.73 58.22 54 55 L56 56 L56 58 L53 60 L52 59 C52.33 57.66 51.29 56.26 50 56 C50.02 55.34 50.18 53.85 49 54 C48.81 53.05 49.59 51.06 48 51 C48.68 46.67 46.32 46.67 47 51 L48 52 C47.98 52.66 47.82 54.15 49 54 C48.98 54.66 48.82 56.15 50 56 C49.67 57.34 50.71 58.74 52 59 L52 60 L53 61 L54 63 C52.82 62.85 52.98 64.34 53 65 C51.82 64.85 51.98 66.34 52 67 L50 68 C48.51 63.52 46.38 59.32 46.75 54.25 C44.95 58.02 46.11 65.29 50 68 C46.52 73.78 42.27 66.16 44 62 L45 61 C44.77 58.31 45.71 55.26 44 53 L44 50 L44 48 L45 47 L45 44 C46.33 44.22 46.33 41.78 45 42 L44 36 C45.18 36.15 45.02 34.66 45 34 L45 32 L46 31 C45.07 27.19 43.45 21.08 50 23 z"/>
<path style="fill:#343434" d="M55 26 C53.82 25.85 53.98 27.34 54 28 L53 28 L52 27 L51 26 L50 25 L50 24 L50 23 L55 26 z"/>
<path style="fill:#d0d0d0" d="M37 29 L37 27 L38 26 C42.57 21.9 40.23 28.04 37 29 z"/>
<path style="fill:#e6e6e6" d="M50 24 L50 25 C48.94 25.43 48.94 23.57 50 24 z"/>
<path style="fill:#fafafa" d="M38 26 L37 26 C36.57 24.94 38.43 24.94 38 26 z"/>
<path style="fill:#8d8d8d" d="M43 25 L42 26 L43 25 z"/>
<path style="fill:#f8f9f9" d="M51 30 C49.5 29.01 46.68 27.32 47.25 25.25 C48.8 26.09 51.22 27.86 51 30 z"/>
<path style="fill:#f1f1f1" d="M51 26 L50 25 L51 26 z"/>
<path style="fill:#e8e8e8" d="M37 26 L37 27 L36 27 L37 26 z"/>
<path style="fill:#0" d="M38 26 L37 27 L37 26 L38 26 z"/>
<path style="fill:#f3f3f3" d="M52 27 L51 26 L52 27 z"/>
<path style="fill:#0c0d0d" d="M55 26 L56 26 L57 27 L59 27 L60 28 L61 28 L62 29 L69 39 L70 40 L70 42 L71 43 L71 48 L70 49 C73.32 55.69 67.25 60.44 65 66 L64 67 C63.35 69.09 62.09 70.35 60 71 L59 72 L57 72 L56 73 L50 73 L49 72 C49.77 70.07 51.78 68.42 54 69 L55 68 C55.66 68.02 57.15 68.18 57 67 L58 66 C58.66 66.02 60.15 66.18 60 65 L61 64 L62 63 L63 62 L64 61 C65.18 61.15 65.02 59.66 65 59 L66 58 L67 57 L67 55 C69.79 53.3 65.98 50.6 67 55 C65.82 54.85 65.98 56.34 66 57 L65 58 L65 59 L64 60 L63 61 L63 62 L62 63 L61 64 L60 65 C59.34 64.98 57.85 64.82 58 66 L57 66 L56 67 C55.34 66.98 53.85 66.82 54 68 C53.34 68.02 51.85 68.18 52 67 C53.18 67.15 53.02 65.66 53 65 L54 64 L55 63 L57 61 C58.34 61.33 59.74 60.29 60 59 L61 58 L62 57 L63 56 L64 55 L64 54 C65.18 54.15 65.02 52.66 65 52 C66.18 52.15 66.02 50.66 66 50 L67 44 C69.62 43.73 66.93 38.91 66 42 L66 50 C64.82 49.85 64.98 51.34 65 52 L64 52 C64.14 50.12 62.12 52.14 64 52 L64 54 L63 55 C61.82 54.85 61.98 56.34 62 57 L61 58 L60 59 C58.66 58.67 57.26 59.71 57 61 C55.82 61.15 55.98 59.66 56 59 L57 58 L59 54 C60.29 53.74 61.33 52.34 61 51 C62.18 51.15 62.02 49.66 62 49 C63.59 48.94 62.81 46.95 63 46 L64 35 C63.88 32.24 60.33 33.8 63 35 L63 46 C61.41 46.06 62.19 48.05 62 49 C60.82 48.85 60.98 50.34 61 51 C59.71 51.26 58.67 52.66 59 54 L58 49 L59 48 L60 43 C61.65 41.66 61.65 36.34 60 35 C59.81 34.05 60.59 32.06 59 32 C59.02 31.34 59.18 29.85 58 30 C58.73 26.78 55.48 29.3 58 30 C57.98 30.66 57.82 32.15 59 32 C59.19 32.95 58.41 34.94 60 35 L60 43 C58.01 45.91 58.99 45.91 57 43 C56.86 41.4 59.46 38.51 56 39 L56 36 L57 36 C56.27 39.22 59.52 36.7 57 36 L57 33 L56 32 C56.33 30.66 55.29 29.26 54 29 L54 28 C53.98 27.34 53.82 25.85 55 26 z"/>
<path style="fill:#aaaaaa" d="M57 27 L56 26 L57 27 z"/>
<path style="fill:#f0f0f0" d="M36 27 L35 28 L36 27 z"/>
<path style="fill:#0b0b0b" d="M37 27 L37 29 L36 30 C34.82 29.85 34.98 31.34 35 32 C33.82 31.85 33.98 33.34 34 34 L33 35 L32 35 L32 33 C33.18 33.15 33.02 31.66 33 31 C34.18 31.15 34.02 29.66 34 29 L35 28 L36 27 L37 27 z"/>
<path style="fill:#fefefe" d="M53 28 L52 27 L53 28 z"/>
<path style="fill:#8e8e8e" d="M60 28 L59 27 L60 28 z"/>
<path style="fill:#f9f9f9" d="M35 28 L34 29 L35 28 z"/>
<path style="fill:#f3f3f3" d="M40 29 C39.86 27.12 41.88 29.14 40 29 z"/>
<path style="fill:#ffffff" d="M54 28 L54 29 L53 28 L54 28 z"/>
<path style="fill:#eff0f0" d="M58 30 C55.48 29.3 58.73 26.78 58 30 z"/>
<path style="fill:#707070" d="M62 29 L61 28 L62 29 z"/>
<path style="fill:#f0f0f0" d="M30 31 L30 30 C30.41 27.61 31.96 31.33 30 31 z"/>
<path style="fill:#f8f9f9" d="M34 29 C34.02 29.66 34.18 31.15 33 31 C32.98 30.34 32.82 28.85 34 29 z"/>
<path style="fill:#fcfcfc" d="M37 29 L36 30 L37 29 z"/>
<path style="fill:#fbfcfc" d="M40 29 C40.02 29.66 40.18 31.15 39 31 C38.98 30.34 38.82 28.85 40 29 z"/>
<path style="fill:#e4e4e4" d="M48 32 C45.21 30.3 49.02 27.6 48 32 z"/>
<path style="fill:#e9e9e9" d="M56 32 L55 32 L54 29 C55.29 29.26 56.33 30.66 56 32 z"/>
<path style="fill:#8f8f8f" d="M30 30 L30 31 L29 31 L30 30 z"/>
<path style="fill:#fbfcfc" d="M36 30 C36.02 30.66 36.18 32.15 35 32 C34.98 31.34 34.82 29.85 36 30 z"/>
<path style="fill:#ffffff" d="M52 31 L51 30 L52 31 z"/>
<path style="fill:#f0f0f0" d="M59 32 C57.82 32.15 57.98 30.66 58 30 C59.18 29.85 59.02 31.34 59 32 z"/>
<path style="fill:#ffffff" d="M30 31 L30 32 L29 32 L29 31 L30 31 z"/>
<path style="fill:#fcfdfd" d="M33 31 C33.02 31.66 33.18 33.15 32 33 C31.98 32.34 31.82 30.85 33 31 z"/>
<path style="fill:#ebebeb" d="M39 31 C39.02 31.66 39.18 33.15 38 33 C37.98 32.34 37.82 30.85 39 31 z"/>
<path style="fill:#a7a7a7" d="M46 31 L45 32 L46 31 z"/>
<path style="fill:#f9fafa" d="M53 32 L53 33 C51.82 33.15 51.98 31.66 52 31 L53 32 z"/>
<path style="fill:#e2e2e2" d="M29 32 L29 33 C29.02 33.66 29.18 35.15 28 35 C28.19 34.05 27.41 32.06 29 32 z"/>
<path style="fill:#818181" d="M30 32 L29 33 L29 32 L30 32 z"/>
<path style="fill:#f8f8f8" d="M35 32 C35.02 32.66 35.18 34.15 34 34 C33.98 33.34 33.82 31.85 35 32 z"/>
<path style="fill:#f9f9f9" d="M49 34 L48 34 L48 32 C49.18 31.85 49.02 33.34 49 34 z"/>
<path style="fill:#7f7f7f" d="M54 33 L53 33 L53 32 L54 33 z"/>
<path style="fill:#979797" d="M56 32 L57 33 L56 33 L55 32 L56 32 z"/>
<path style="fill:#cccdcd" d="M60 35 C58.41 34.94 59.19 32.95 59 32 C60.59 32.06 59.81 34.05 60 35 z"/>
<path style="fill:#f6f6f6" d="M32 33 L32 35 L32 36 L31 36 C31.19 35.05 30.41 33.06 32 33 z"/>
<path style="fill:#fcfdfd" d="M38 33 C38.02 33.66 38.18 35.15 37 35 C36.98 34.34 36.82 32.85 38 33 z"/>
<path style="fill:#e0e0e0" d="M54 33 L56 36 L56 39 C54.48 37.72 53.29 35.12 53 33 L54 33 z"/>
<path style="fill:#ebebeb" d="M57 33 L57 36 L56 36 L56 33 L57 33 z"/>
<path style="fill:#8e8e8e" d="M64 35 L63 35 C60.33 33.8 63.88 32.24 64 35 z"/>
<path style="fill:#e3e3e3" d="M34 34 C34.02 34.66 34.18 36.15 33 36 L33 35 L34 34 z"/>
<path style="fill:#9e9f9f" d="M45 34 C45.02 34.66 45.18 36.15 44 36 C43.98 35.34 43.82 33.85 45 34 z"/>
<path style="fill:#dcdcdc" d="M48 34 L48 37 L48 38 C46.45 37.81 46.45 34.19 48 34 z"/>
<path style="fill:#0c0c0c" d="M49 34 L50 35 C49.67 36.85 51.54 38.33 53 39 L54 40 L56 43 L57 44 L56 48 L55 47 L54 46 L53 45 L52 44 L51 43 C51.02 42.34 51.18 40.85 50 41 L50 40 L49 39 L49 38 L48 37 L48 34 L49 34 z"/>
<path style="fill:#e2e2e2" d="M50 35 L49 34 L50 35 z"/>
<path style="fill:#929292" d="M25 36 L24 36 C23.67 34.04 27.39 35.59 25 36 z"/>
<path style="fill:#f7f7f7" d="M28 35 L28 44 C26.35 42.34 26.35 36.66 28 35 z"/>
<path style="fill:#8a8a8a" d="M33 35 L33 36 L32 36 L32 35 L33 35 z"/>
<path style="fill:#f7f7f7" d="M37 35 L36 36 L37 35 z"/>
<path style="fill:#e9e9e9" d="M53 39 C51.54 38.33 49.67 36.85 50 35 C51.46 35.67 53.33 37.15 53 39 z"/>
<path style="fill:#f2f2f2" d="M60 43 L60 35 C61.65 36.34 61.65 41.66 60 43 z"/>
<path style="fill:#f1f1f1" d="M64 35 L63 46 L63 35 L64 35 z"/>
<path style="fill:#989898" d="M22 36 L21 37 L22 36 z"/>
<path style="fill:#e1e1e1" d="M25 36 C24.81 36.95 25.59 38.94 24 39 L24 38 L24 36 L25 36 z"/>
<path style="fill:#8b8b8b" d="M31 36 L31 37 L30 37 L31 36 z"/>
<path style="fill:#262626" d="M32 36 L31 37 L31 36 L32 36 z"/>
<path style="fill:#eaeaea" d="M33 36 L33 38 C31.12 37.86 33.14 39.88 33 38 L36 36 C35.72 39.88 27.67 42.9 32 47 L32 48 C30.27 48.54 30.16 55.77 33 53 L33 54 C30.81 55.85 31.31 59.22 33 61 L34 61 L33 63 L30 62 L30 61 C32.36 59.5 29.49 56.09 29 54 C30.59 53.94 29.81 51.95 30 51 L30 50 L29 47 L30 46 L30 37 L31 37 L32 36 L33 36 z"/>
<path style="fill:#f9f9f9" d="M39 37 C38.86 35.12 40.88 37.14 39 37 z"/>
<path style="fill:#ececec" d="M57 36 C59.52 36.7 56.27 39.22 57 36 z"/>
<path style="fill:#f1f1f1" d="M39 37 C39.02 37.66 39.18 39.15 38 39 C37.98 38.34 37.82 36.85 39 37 z"/>
<path style="fill:#6e6e6e" d="M49 38 L48 38 L48 37 L49 38 z"/>
<path style="fill:#919191" d="M20 38 L19 39 L20 38 z"/>
<path style="fill:#8d8d8d" d="M24 38 L24 39 L23 39 L24 38 z"/>
<path style="fill:#101010" d="M33 38 C33.14 39.88 31.12 37.86 33 38 z"/>
<path style="fill:#ffffff" d="M49 38 L49 39 L48 39 L48 38 L49 38 z"/>
<path style="fill:#f4f4f4" d="M24 39 L24 44 L24 45 L23 45 L23 39 L24 39 z"/>
<path style="fill:#eceded" d="M38 39 C38.02 39.66 38.18 41.15 37 41 C36.98 40.34 36.82 38.85 38 39 z"/>
<path style="fill:#5e5f5f" d="M49 39 L50 40 L49 40 L48 39 L49 39 z"/>
<path style="fill:#ffffff" d="M54 40 L53 39 L54 40 z"/>
<path style="fill:#f2f3f3" d="M57 43 L56 43 L54 40 C54.66 40.02 56.15 40.18 56 39 C59.46 38.51 56.86 41.4 57 43 z"/>
<path style="fill:#929292" d="M70 40 L69 39 L70 40 z"/>
<path style="fill:#fdfdfd" d="M50 40 L50 41 L49 41 L49 40 L50 40 z"/>
<path style="fill:#ffffff" d="M37 41 L37 42 L36 42 L37 41 z"/>
<path style="fill:#e8e8e8" d="M48 43 C45.48 42.3 48.73 39.78 48 43 z"/>
<path style="fill:#848484" d="M50 41 L50 42 L49 41 L50 41 z"/>
<path style="fill:#fcfcfc" d="M51 43 L50 42 L50 41 C51.18 40.85 51.02 42.34 51 43 z"/>
<path style="fill:#656666" d="M67 44 C67.02 43.34 67.18 41.85 66 42 C66.93 38.91 69.62 43.73 67 44 z"/>
<path style="fill:#8a8a8a" d="M18 42 L17 43 L18 42 z"/>
<path style="fill:#6b6b6b" d="M22 44 C20.82 43.85 20.98 45.34 21 46 L21 47 L21 48 C17.9 47.44 21.59 39.01 22 44 z"/>
<path style="fill:#fbfbfb" d="M36 42 L36 43 L35 44 C34.98 43.34 34.82 41.85 36 42 z"/>
<path style="fill:#a2a2a2" d="M37 42 L36 43 L36 42 L37 42 z"/>
<path style="fill:#e8e8e8" d="M39 43 C38.86 41.12 40.88 43.14 39 43 z"/>
<path style="fill:#797a7a" d="M45 44 L45 42 C46.33 41.78 46.33 44.22 45 44 z"/>
<path style="fill:#eff0f0" d="M67 44 L66 50 L66 42 C67.18 41.85 67.02 43.34 67 44 z"/>
<path style="fill:#777777" d="M71 43 L70 42 L71 43 z"/>
<path style="fill:#eeefef" d="M39 43 L39 45 L38 45 C37.98 44.34 37.82 42.85 39 43 z"/>
<path style="fill:#f2f3f3" d="M49 45 C47.82 45.15 47.98 43.66 48 43 C49.18 42.85 49.02 44.34 49 45 z"/>
<path style="fill:#ffffff" d="M52 44 L51 43 L52 44 z"/>
<path style="fill:#616161" d="M57 43 L57 44 L56 43 L57 43 z"/>
<path style="fill:#e5e6e6" d="M60 43 L59 48 L58 49 L59 54 L57 58 L56 58 L56 56 L57 54 C56.98 51.91 57.36 49.7 56 48 L57 44 L57 43 C58.99 45.91 58.01 45.91 60 43 z"/>
<path style="fill:#fdfefe" d="M22 44 C22.02 44.66 22.18 46.15 21 46 C20.98 45.34 20.82 43.85 22 44 z"/>
<path style="fill:#848484" d="M25 45 L24 45 L24 44 L25 45 z"/>
<path style="fill:#f1f1f1" d="M29 46 L29 47 C27.41 46.94 28.19 44.95 28 44 C29.18 43.85 29.02 45.34 29 46 z"/>
<path style="fill:#f7f7f7" d="M35 44 L34 45 L35 44 z"/>
<path style="fill:#ffffff" d="M53 45 L52 44 L53 45 z"/>
<path style="fill:#666666" d="M24 45 L24 46 L23 45 L24 45 z"/>
<path style="fill:#eeeeee" d="M25 45 L25 48 L24 48 L24 46 L24 45 L25 45 z"/>
<path style="fill:#eaeaea" d="M34 45 L33 46 L34 45 z"/>
<path style="fill:#636363" d="M38 45 L39 45 L38 46 L37 46 L38 45 z"/>
<path style="fill:#cccdcd" d="M51 49 C49.14 48.66 48.72 46.6 49 45 C50.24 45.61 50.98 47.56 51 49 z"/>
<path style="fill:#f4f4f4" d="M54 46 L53 45 L54 46 z"/>
<path style="fill:#858585" d="M30 46 L29 47 L29 46 L30 46 z"/>
<path style="fill:#e6e6e6" d="M33 46 L33 47 L32 47 L33 46 z"/>
<path style="fill:#dddddd" d="M38 46 C38.02 46.66 38.18 48.15 37 48 L37 46 L38 46 z"/>
<path style="fill:#f9f9f9" d="M55 47 L54 46 L55 47 z"/>
<path style="fill:#e9e9e9" d="M63 46 C62.81 46.95 63.59 48.94 62 49 C62.19 48.05 61.41 46.06 63 46 z"/>
<path style="fill:#e9e9e9" d="M22 51 L21 51 L21 48 L21 47 L22 51 z"/>
<path style="fill:#8c8c8c" d="M33 47 L32 48 L32 47 L33 47 z"/>
<path style="fill:#9d9d9d" d="M40 48 L39 48 C38.57 46.94 40.43 46.94 40 48 z"/>
<path style="fill:#797979" d="M45 47 L44 48 L45 47 z"/>
<path style="fill:#f7f8f8" d="M48 51 L47 51 C46.32 46.67 48.68 46.67 48 51 z"/>
<path style="fill:#f7f7f7" d="M56 48 L55 47 L56 48 z"/>
<path style="fill:#6c6c6c" d="M25 48 L25 49 L24 48 L25 48 z"/>
<path style="fill:#f7f7f7" d="M26 50 L25 50 L25 49 L25 48 C26.18 47.85 26.02 49.34 26 50 z"/>
<path style="fill:#ffffff" d="M37 48 L36 49 L37 48 z"/>
<path style="fill:#f2f2f2" d="M40 48 C39.81 48.95 40.59 50.94 39 51 L39 48 L40 48 z"/>
<path style="fill:#757575" d="M59 48 L58 49 L59 48 z"/>
<path style="fill:#616161" d="M71 48 L70 49 L71 48 z"/>
<path style="fill:#dcdddd" d="M36 49 C36.02 49.66 36.18 51.15 35 51 C34.98 50.34 34.82 48.85 36 49 z"/>
<path style="fill:#e8e8e8" d="M53 52 C51.71 51.74 50.67 50.34 51 49 C52.29 49.26 53.33 50.66 53 52 z"/>
<path style="fill:#fcfdfd" d="M62 49 C62.02 49.66 62.18 51.15 61 51 C60.98 50.34 60.82 48.85 62 49 z"/>
<path style="fill:#656565" d="M26 50 L26 51 L25 50 L26 50 z"/>
<path style="fill:#e3e3e3" d="M27 52 L26 51 L26 50 C27.18 49.85 27.02 51.34 27 52 z"/>
<path style="fill:#878787" d="M30 50 L30 51 C28.94 51.43 28.94 49.57 30 50 z"/>
<path style="fill:#949595" d="M44 50 L44 53 L43 53 L43 50 L44 50 z"/>
<path style="fill:#f1f2f2" d="M66 50 C66.02 50.66 66.18 52.15 65 52 C64.98 51.34 64.82 49.85 66 50 z"/>
<path style="fill:#898989" d="M22 51 L22 52 L21 51 L22 51 z"/>
<path style="fill:#f9f9f9" d="M23 54 C21.82 54.15 21.98 52.66 22 52 L22 51 C23.59 51.06 22.81 53.05 23 54 z"/>
<path style="fill:#f5f5f5" d="M35 51 L34 52 L35 51 z"/>
<path style="fill:#eeeeee" d="M39 51 C38.81 51.95 39.59 53.94 38 54 C38.19 53.05 37.41 51.06 39 51 z"/>
<path style="fill:#ececec" d="M42 55 L42 56 L41 56 C40.23 51.98 42.48 49.46 42 55 z"/>
<path style="fill:#787878" d="M48 51 L48 52 L47 51 L48 51 z"/>
<path style="fill:#e9eaea" d="M49 54 C47.82 54.15 47.98 52.66 48 52 L48 51 C49.59 51.06 48.81 53.05 49 54 z"/>
<path style="fill:#ebebeb" d="M61 51 C61.33 52.34 60.29 53.74 59 54 C58.67 52.66 59.71 51.26 61 51 z"/>
<path style="fill:#858585" d="M64 52 C62.12 52.14 64.14 50.12 64 52 z"/>
<path style="fill:#ffffff" d="M28 53 L27 52 L28 53 z"/>
<path style="fill:#ffffff" d="M34 52 L34 53 L33 53 L34 52 z"/>
<path style="fill:#ffffff" d="M54 53 L53 52 L54 53 z"/>
<path style="fill:#f9f9f9" d="M65 52 C65.02 52.66 65.18 54.15 64 54 L64 52 L65 52 z"/>
<path style="fill:#f0f1f1" d="M67 55 C65.98 50.6 69.79 53.3 67 55 z"/>
<path style="fill:#5a5b5b" d="M18 53 L18 57 C16.45 56.81 16.45 53.19 18 53 z"/>
<path style="fill:#fcfcfc" d="M20 54 L19 54 C18.57 52.94 20.43 52.94 20 54 z"/>
<path style="fill:#ffffff" d="M29 54 L28 53 L29 54 z"/>
<path style="fill:#848484" d="M34 53 L33 54 L33 53 L34 53 z"/>
<path style="fill:#f2f2f2" d="M55 54 L54 54 L54 53 L55 54 z"/>
<path style="fill:#8c8c8c" d="M20 54 L20 55 L19 54 L20 54 z"/>
<path style="fill:#e1e2e2" d="M25 57 C23.71 56.74 22.67 55.34 23 54 C24.29 54.26 25.33 55.66 25 57 z"/>
<path style="fill:#dbdcdc" d="M38 54 C38.02 54.66 38.18 56.15 37 56 L37 55 L38 54 z"/>
<path style="fill:#d5d5d5" d="M50 68 C46.11 65.29 44.95 58.02 46.75 54.25 C46.38 59.32 48.51 63.52 50 68 z"/>
<path style="fill:#fafafa" d="M50 56 C48.82 56.15 48.98 54.66 49 54 C50.18 53.85 50.02 55.34 50 56 z"/>
<path style="fill:#9b9b9b" d="M55 54 L57 54 L56 56 L54 55 L54 54 L55 54 z"/>
<path style="fill:#ececec" d="M64 54 L64 55 L63 55 L64 54 z"/>
<path style="fill:#e6e6e6" d="M21 58 C19.41 57.94 20.19 55.95 20 55 C21.59 55.06 20.81 57.05 21 58 z"/>
<path style="fill:#696969" d="M37 55 L37 56 L36 56 L37 55 z"/>
<path style="fill:#727272" d="M43 55 L42 56 L42 55 L43 55 z"/>
<path style="fill:#919292" d="M54 55 C54.73 58.22 51.48 55.7 54 55 z"/>
<path style="fill:#f6f6f6" d="M63 55 L63 56 L62 57 C61.98 56.34 61.82 54.85 63 55 z"/>
<path style="fill:#6c6c6c" d="M64 55 L63 56 L63 55 L64 55 z"/>
<path style="fill:#f2f3f3" d="M67 55 L67 57 L66 57 C65.98 56.34 65.82 54.85 67 55 z"/>
<path style="fill:#fefefe" d="M37 56 L37 57 L36 57 L36 56 L37 56 z"/>
<path style="fill:#a1a1a1" d="M41 56 L41 57 L40 57 L41 56 z"/>
<path style="fill:#0c0d0d" d="M42 56 L42 60 L43 61 C43.13 64.2 43.35 68.48 40 70 C36.94 70.38 37.28 67.87 38 66 C39.18 66.15 39.02 64.66 39 64 L40 63 L40 61 L41 60 L41 57 L41 56 L42 56 z"/>
<path style="fill:#e5e6e6" d="M52 59 C50.71 58.74 49.67 57.34 50 56 C51.29 56.26 52.33 57.66 52 59 z"/>
<path style="fill:#6f6f6f" d="M59 56 C60.88 55.86 58.86 57.88 59 56 z"/>
<path style="fill:#ffffff" d="M26 58 L25 57 L26 58 z"/>
<path style="fill:#a4a5a5" d="M36 57 L37 57 L36 58 L35 58 L36 57 z"/>
<path style="fill:#f7f7f7" d="M41 57 L41 60 L40 60 L40 57 L41 57 z"/>
<path style="fill:#f5f5f5" d="M62 57 L61 58 L62 57 z"/>
<path style="fill:#919191" d="M66 57 L67 57 L66 58 L65 58 L66 57 z"/>
<path style="fill:#fcfdfd" d="M22 60 C20.82 60.15 20.98 58.66 21 58 C22.18 57.85 22.02 59.34 22 60 z"/>
<path style="fill:#ffffff" d="M27 59 L26 58 L27 59 z"/>
<path style="fill:#fafafa" d="M36 58 L35 59 L35 58 L36 58 z"/>
<path style="fill:#f5f5f5" d="M56 58 L56 59 C55.98 59.66 55.82 61.15 57 61 L55 63 L54 63 L53 61 L53 60 L56 58 z"/>
<path style="fill:#747474" d="M57 58 L56 59 L56 58 L57 58 z"/>
<path style="fill:#fcfcfc" d="M61 58 L60 59 L61 58 z"/>
<path style="fill:#ffffff" d="M66 58 L65 59 L65 58 L66 58 z"/>
<path style="fill:#e4e5e5" d="M30 61 L29 61 L27 59 C28.34 58.67 29.74 59.71 30 61 z"/>
<path style="fill:#f3f3f3" d="M35 59 L35 60 L34 60 L35 59 z"/>
<path style="fill:#fbfbfb" d="M53 60 L52 60 L52 59 L53 60 z"/>
<path style="fill:#e5e5e5" d="M60 59 C59.74 60.29 58.34 61.33 57 61 C57.26 59.71 58.66 58.67 60 59 z"/>
<path style="fill:#f4f5f5" d="M65 59 C65.02 59.66 65.18 61.15 64 61 L64 60 L65 59 z"/>
<path style="fill:#8e8e8e" d="M20 61 L19 60 L20 61 z"/>
<path style="fill:#ffffff" d="M23 61 L22 60 L23 61 z"/>
<path style="fill:#9c9c9c" d="M34 60 L35 60 L34 61 L33 61 L34 60 z"/>
<path style="fill:#dcdddd" d="M40 60 L40 61 L40 63 L39 63 C39.19 62.05 38.41 60.06 40 60 z"/>
<path style="fill:#696969" d="M41 60 L40 61 L40 60 L41 60 z"/>
<path style="fill:#656565" d="M43 61 L42 60 L43 61 z"/>
<path style="fill:#656565" d="M53 60 L53 61 L52 60 L53 60 z"/>
<path style="fill:#878787" d="M64 60 L64 61 L63 61 L64 60 z"/>
<path style="fill:#d5d5d5" d="M28 66 C25.66 65.97 23.03 63.34 23 61 L28 66 z"/>
<path style="fill:#848484" d="M30 61 L30 62 L29 61 L30 61 z"/>
<path style="fill:#747474" d="M45 61 L44 62 L45 61 z"/>
<path style="fill:#ffffff" d="M64 61 L63 62 L63 61 L64 61 z"/>
<path style="fill:#ffffff" d="M63 62 L62 63 L63 62 z"/>
<path style="fill:#f0f1f1" d="M34 65 C32.82 65.15 32.98 63.66 33 63 C34.18 62.85 34.02 64.34 34 65 z"/>
<path style="fill:#707171" d="M39 63 L40 63 L39 64 L38 64 L39 63 z"/>
<path style="fill:#f2f2f2" d="M54 63 L54 64 L53 65 C52.98 64.34 52.82 62.85 54 63 z"/>
<path style="fill:#696969" d="M55 63 L54 64 L54 63 L55 63 z"/>
<path style="fill:#e7e7e7" d="M62 63 L61 64 L62 63 z"/>
<path style="fill:#e3e4e4" d="M39 64 C39.02 64.66 39.18 66.15 38 66 L38 64 L39 64 z"/>
<path style="fill:#f7f7f7" d="M61 64 L60 65 L61 64 z"/>
<path style="fill:#6e6e6e" d="M24 66 L23 65 L24 66 z"/>
<path style="fill:#fbfcfc" d="M35 67 C33.82 67.15 33.98 65.66 34 65 C35.18 64.85 35.02 66.34 35 67 z"/>
<path style="fill:#f6f7f7" d="M53 65 C53.02 65.66 53.18 67.15 52 67 C51.98 66.34 51.82 64.85 53 65 z"/>
<path style="fill:#dedede" d="M60 65 C60.15 66.18 58.66 66.02 58 66 C57.85 64.82 59.34 64.98 60 65 z"/>
<path style="fill:#ededed" d="M30 67 C29.34 67.02 27.85 67.18 28 66 C28.66 65.98 30.15 65.82 30 67 z"/>
<path style="fill:#dadada" d="M38 66 C37.28 67.87 36.94 70.38 40 70 L40 71 L39 71 L38 71 L32 68 C32.95 67.81 34.94 68.59 35 67 L38 66 z"/>
<path style="fill:#747474" d="M57 66 L57 67 L56 67 L57 66 z"/>
<path style="fill:#f5f5f5" d="M58 66 L57 67 L57 66 L58 66 z"/>
<path style="fill:#9d9d9d" d="M65 66 L64 67 L65 66 z"/>
<path style="fill:#fbfbfb" d="M32 68 C31.34 68.02 29.85 68.18 30 67 C30.66 66.98 32.15 66.82 32 68 z"/>
<path style="fill:#e1e1e1" d="M56 67 L57 67 C57.15 68.18 55.66 68.02 55 68 L54 68 C53.85 66.82 55.34 66.98 56 67 z"/>
<path style="fill:#606060" d="M55 68 L54 69 L54 68 L55 68 z"/>
<path style="fill:#363636" d="M40 71 L41 72 L41 73 C39.65 73.46 38.54 72.35 39 71 L40 71 z"/>
<path style="fill:#a7a7a7" d="M41 72 L40 71 L41 72 z"/>
<path style="fill:#0a0a0a" d="M45 74 L44 75 C40.51 76.67 35.98 75.83 41 73 C43.74 72.35 48.87 69.39 45 74 z"/>
<path style="fill:#777777" d="M60 71 L59 72 L60 71 z"/>
<path style="fill:#838383" d="M31 73 L30 72 L31 73 z"/>
<path style="fill:#8d8d8d" d="M50 73 L49 72 L50 73 z"/>
<path style="fill:#6f6f6f" d="M57 72 L56 73 L57 72 z"/>
<path style="fill:#ffffff" d="M45 74 L44 75 L45 74 z"/>
<path style="fill:#111111" d="M48 75 L48 76 L44 75 L45 74 L48 75 z"/>
<path style="fill:#767676" d="M48 76 L48 75 C49.06 74.57 49.06 76.43 48 76 z"/>
</svg>
