<?xml version="1.0" standalone="yes"?>
<svg width="87" height="97">
<path style="fill:#fbfbfb" d="M87 0 L87 97 L0 97 L0 0 L87 0 z"/>
<path style="fill:#565656" d="M40 14 L34 15 L40 14 z"/>
<path style="fill:#0a0b0b" d="M48 14 C48.06 15.59 50.05 14.81 51 15 L53 15 C52.85 16.18 54.34 16.02 55 16 L56 16 L57 17 C56.85 18.18 58.34 18.02 59 18 C58.85 19.18 60.34 19.02 61 19 L63 20 L64 21 L65 22 L66 23 L67 24 L68 25 L69 26 L70 27 L71 28 L72 30 L74 32 L75 36 C74.98 36.66 74.82 38.15 76 38 L76 40 C75.98 40.66 75.82 42.15 77 42 L77 43 L77 50 L77 53 L76 57 L76 58 C74.82 57.85 74.98 59.34 75 60 C73.82 59.85 73.98 61.34 74 62 L74 63 L73 64 C71.82 63.85 71.98 65.34 72 66 L71 67 L70 68 L70 69 L69 70 L68 71 L67 72 L66 73 L60 77 L59 78 L58 78 C57.34 77.98 55.85 77.82 56 79 C55.34 78.98 53.85 78.82 54 80 L53 80 C52.34 79.98 50.85 79.82 51 81 C46.14 82.3 40.86 82.3 36 81 C36.15 79.82 34.66 79.98 34 80 L32 80 C32.15 78.82 30.66 78.98 30 79 L27 78 C27.46 76.65 26.35 75.54 25 76 L19 72 L17 70 L16 69 C16.02 68.34 16.18 66.85 15 67 L14 66 C14.02 65.34 14.18 63.85 13 64 L12 63 L12 62 C12.02 61.34 12.18 59.85 11 60 L10 57 L9 52 L9 44 L10 40 L10 38 C11.18 38.15 11.02 36.66 11 36 C12.18 36.15 12.02 34.66 12 34 C11.98 33.34 11.82 31.85 13 32 C14.18 32.15 14.02 30.66 14 30 L15 29 C16.18 29.15 16.02 27.66 16 27 C17.35 27.46 18.46 26.35 18 25 L19 24 L20 23 L21 22 C22.35 22.46 23.46 21.35 23 20 L25 19 C25.66 19.02 27.15 19.18 27 18 C27.66 18.02 29.15 18.18 29 17 C29.66 17.02 31.15 17.18 31 16 L32 16 C32.66 16.02 34.15 16.18 34 15 L40 14 L48 14 z"/>
<path style="fill:#6b6b6b" d="M51 15 C50.05 14.81 48.06 15.59 48 14 C48.95 14.19 50.94 13.41 51 15 z"/>
<path style="fill:#595959" d="M34 15 C34.15 16.18 32.66 16.02 32 16 C31.85 14.82 33.34 14.98 34 15 z"/>
<path style="fill:#a2a2a2" d="M55 16 C54.34 16.02 52.85 16.18 53 15 C53.66 14.98 55.15 14.82 55 16 z"/>
<path style="fill:#696a6a" d="M31 16 C31.15 17.18 29.66 17.02 29 17 C28.85 15.82 30.34 15.98 31 16 z"/>
<path style="fill:#858585" d="M57 17 L56 16 L57 17 z"/>
<path style="fill:#616161" d="M29 17 C29.15 18.18 27.66 18.02 27 18 C26.85 16.82 28.34 16.98 29 17 z"/>
<path style="fill:#5c5d5d" d="M59 18 C58.34 18.02 56.85 18.18 57 17 C57.66 16.98 59.15 16.82 59 18 z"/>
<path style="fill:#5e5e5e" d="M27 18 C27.15 19.18 25.66 19.02 25 19 C24.85 17.82 26.34 17.98 27 18 z"/>
<path style="fill:#737474" d="M61 19 C60.34 19.02 58.85 19.18 59 18 C59.66 17.98 61.15 17.82 61 19 z"/>
<path style="fill:#5a5a5a" d="M23 20 C23.46 21.35 22.35 22.46 21 22 L23 20 z"/>
<path style="fill:#898989" d="M64 21 L63 20 L64 21 z"/>
<path style="fill:#626363" d="M47 24 C46.02 21.59 41.04 20.72 40 24 L39 24 C39.15 22.82 37.66 22.98 37 23 L37 22 C38.8 20.65 50.31 19.14 47 24 z"/>
<path style="fill:#6d6d6d" d="M65 22 L64 21 L65 22 z"/>
<path style="fill:#636363" d="M21 22 L20 23 L21 22 z"/>
<path style="fill:#8b8c8c" d="M37 22 L37 23 C33.71 25.61 38.46 28.97 39 24 L40 24 L36 31 C36.39 26.88 31.5 30.52 33 33 L30 31 C32.07 28.71 28.15 23.56 28 29 L27 29 L26 28 C28.22 24.27 32.65 21.72 37 22 z"/>
<path style="fill:#efefef" d="M47 24 L48 26 C44.39 25.34 45.48 27.19 47 29 L48 30 L51 32 L52 36 L51 37 C50.15 31.05 42.01 35.11 44 40 L45 41 C51.88 42.52 45.36 50.09 45 54 C43.4 54.45 43.4 58.55 45 59 C45.86 61.49 48.5 62.54 51 62 L51 63 C49.41 63.06 50.19 65.05 50 66 C49.05 66.19 47.06 65.41 47 67 L47 68 L45 69 C41.14 67 44.49 71.47 46 72 L46 73 C44.64 75.3 40.83 73.87 40 72 C42.52 70.87 41.38 68.98 39 68 L39 66 L37 64 L37 62 C38.6 62.28 40.66 61.86 41 60 C42.64 58.97 42.64 54.03 41 53 C39.28 49.65 35.38 43.63 40 41 C40.66 41.02 42.15 41.18 42 40 L42 36 C42.84 31.58 35.16 36.42 36 32 L36 31 L40 24 C41.04 20.72 46.02 21.59 47 24 z"/>
<path style="fill:#646565" d="M52 22 C50.2 23.71 52 25.08 52 27 C50.82 26.85 50.98 28.34 51 29 L51 32 L48 30 C50.11 30.67 50.21 28.42 50 27 C50.23 24.59 47.43 21.05 52 22 z"/>
<path style="fill:#272727" d="M55 24 L52 27 C52 25.08 50.2 23.71 52 22 L55 24 z"/>
<path style="fill:#666666" d="M66 23 L65 22 L66 23 z"/>
<path style="fill:#121212" d="M37 23 C37.66 22.98 39.15 22.82 39 24 C38.46 28.97 33.71 25.61 37 23 z"/>
<path style="fill:#696969" d="M19 24 L18 25 L19 24 z"/>
<path style="fill:#171717" d="M32 24 C39.33 23.44 30.19 32.3 32 24 z"/>
<path style="fill:#9e9f9f" d="M55 24 L55 26 L56 30 C55.73 32.02 53.9 30.32 53 30 L51 29 C50.98 28.34 50.82 26.85 52 27 L55 24 z"/>
<path style="fill:#595959" d="M62 29 C60.12 28.86 62.14 30.88 62 29 L64 31 L63 31 C60.32 30.29 61.06 33.45 61 35 L59 34 L58 34 L58 32 C61.6 32.65 59.85 25.46 58 30 L57 29 C57.21 27.58 57.11 25.33 55 26 L55 24 C57.64 24.64 60.6 26.49 62 29 z"/>
<path style="fill:#6a6a6a" d="M68 25 L67 24 L68 25 z"/>
<path style="fill:#595959" d="M18 25 C18.46 26.35 17.35 27.46 16 27 L18 25 z"/>
<path style="fill:#757575" d="M69 26 L68 25 L69 26 z"/>
<path style="fill:#151515" d="M30 31 C28.65 31.46 27.54 30.35 28 29 C28.15 23.56 32.07 28.71 30 31 z"/>
<path style="fill:#434343" d="M48 26 L49 27 L47 29 C45.48 27.19 44.39 25.34 48 26 z"/>
<path style="fill:#121313" d="M57 29 L56 30 L55 26 C57.11 25.33 57.21 27.58 57 29 z"/>
<path style="fill:#888888" d="M70 27 L69 26 L70 27 z"/>
<path style="fill:#767777" d="M16 27 C16.02 27.66 16.18 29.15 15 29 C14.98 28.34 14.82 26.85 16 27 z"/>
<path style="fill:#b3b4b4" d="M49 27 L50 27 C50.21 28.42 50.11 30.67 48 30 L47 29 L49 27 z"/>
<path style="fill:#919191" d="M71 28 L70 27 L71 28 z"/>
<path style="fill:#767676" d="M26 28 C24.08 29.04 25.42 34.27 27 32 L28 32 L28 34 L27 34 L26 34 L22 32 C21.78 29.99 23.99 27.78 26 28 z"/>
<path style="fill:#141414" d="M27 29 L27 32 C25.42 34.27 24.08 29.04 26 28 L27 29 z"/>
<path style="fill:#0a0a0a" d="M58 32 L58 31 L58 30 C59.85 25.46 61.6 32.65 58 32 z"/>
<path style="fill:#5e5f5f" d="M28 29 C27.54 30.35 28.65 31.46 30 31 L33 33 C32.24 35.25 31.34 39.7 34 36 L35 37 L34 39 C32.65 38.54 31.54 39.65 32 41 L31 41 L30 41 L31 39 C30.5 37.13 32.45 30.55 29 33 L28 32 L27 32 L27 29 L28 29 z"/>
<path style="fill:#131313" d="M36 31 L36 32 C34.76 32.61 34.02 34.56 34 36 C31.34 39.7 32.24 35.25 33 33 C31.5 30.52 36.39 26.88 36 31 z"/>
<path style="fill:#121313" d="M53 30 C52.41 33.11 53.72 32.51 55.75 32.25 L56 38 L54.25 34.25 C54.07 36 53.84 37.61 52 36 L51 32 L51 29 L53 30 z"/>
<path style="fill:#808080" d="M58 30 L58 31 C56.52 30.96 56.52 34.04 58 34 L57 38 L56 38 L55.75 32.25 C53.72 32.51 52.41 33.11 53 30 C53.9 30.32 55.73 32.02 56 30 L57 29 L58 30 z"/>
<path style="fill:#f6f6f6" d="M62 29 C62.14 30.88 60.12 28.86 62 29 z"/>
<path style="fill:#868686" d="M14 30 C14.02 30.66 14.18 32.15 13 32 C12.98 31.34 12.82 29.85 14 30 z"/>
<path style="fill:#adadad" d="M74 32 L72 30 C73.35 29.54 74.46 30.65 74 32 z"/>
<path style="fill:#0d0e0e" d="M26 34 C25.31 37.01 23.45 34.91 22 34 L22 32 L26 34 z"/>
<path style="fill:#d7d7d7" d="M58 31 L58 32 L58 34 C56.52 34.04 56.52 30.96 58 31 z"/>
<path style="fill:#171717" d="M63 31 L66 36 C65.03 39.38 61.21 37.9 61 35 C61.06 33.45 60.32 30.29 63 31 z"/>
<path style="fill:#828383" d="M64 31 L67 36 L66 36 L63 31 L64 31 z"/>
<path style="fill:#858585" d="M22 32 L22 34 L20 34 L22 32 z"/>
<path style="fill:#cacbcb" d="M29 33 L29 34 L28 34 L28 32 L29 33 z"/>
<path style="fill:#0d0e0e" d="M31 39 L30 39 L29 34 L29 33 C32.45 30.55 30.5 37.13 31 39 z"/>
<path style="fill:#b3b3b3" d="M36 32 C35.16 36.42 42.84 31.58 42 36 C40.06 34.64 35.86 34.03 35 37 L34 36 C34.02 34.56 34.76 32.61 36 32 z"/>
<path style="fill:#acacac" d="M61 35 C61.21 37.9 65.03 39.38 66 36 L67 36 L68 38 L68 41 L65 41 C63.65 40.54 62.54 41.65 63 43 L63 44 L60 42 C60.26 40.44 62.35 35.72 59 38 L58 38 L59 34 L61 35 z"/>
<path style="fill:#8a8a8a" d="M12 34 C12.02 34.66 12.18 36.15 11 36 C10.98 35.34 10.82 33.85 12 34 z"/>
<path style="fill:#1d1e1e" d="M20 34 L22 34 L24 38 L22 38 L19 36 C18.98 35.34 18.82 33.85 20 34 z"/>
<path style="fill:#999999" d="M26 34 L27 34 L27 39 L26 39 C26.45 36.98 25.16 37.07 24 38 L22 34 C23.45 34.91 25.31 37.01 26 34 z"/>
<path style="fill:#272727" d="M28 34 C27.92 35.83 27.63 38.54 30 39 L31 39 L30 41 L29 41 L27 39 L27 34 L28 34 z"/>
<path style="fill:#7b7b7b" d="M29 34 L30 39 C27.63 38.54 27.92 35.83 28 34 L29 34 z"/>
<path style="fill:#191919" d="M51 37 L52 41 L54 49 C54.77 50.67 56.78 51.76 56 54 L55 56 C54.43 58.91 52.69 59.9 51 62 C48.5 62.54 45.86 61.49 45 59 C44.55 56.98 45.84 57.07 47 58 L49 59 C50.18 58.14 52.63 58.12 52 56 L53 55 L52 54 L49 52 L47 53 L45 54 C45.36 50.09 51.88 42.52 45 41 L44 40 C42.01 35.11 50.15 31.05 51 37 z"/>
<path style="fill:#686868" d="M56 38 L57 38 C56.35 40.16 58.65 40.16 58 38 L59 38 L60 42 L60 43 L58 43 L56 43 C56.4 38.57 54.23 41.05 55 44 L54 44 L52 41 L51 37 L52 36 C53.84 37.61 54.07 36 54.25 34.25 L56 38 z"/>
<path style="fill:#181919" d="M59 34 L58 38 C58.65 40.16 56.35 40.16 57 38 L58 34 L59 34 z"/>
<path style="fill:#111212" d="M42 36 L42 40 C41.34 39.98 39.85 39.82 40 41 C35.38 43.63 39.28 49.65 41 53 L41 55 C39.6 54.37 39.88 52.25 38 54 L38 53 C36.98 50.75 32.71 53.64 34 56 C31.89 56.67 31.79 54.42 32 53 L32 52 L32 49 L33 49 C32.78 50.33 35.22 50.33 35 49 L35 47 C35.02 46.34 35.18 44.85 34 45 L34 39 L35 37 C35.86 34.03 40.06 34.64 42 36 z"/>
<path style="fill:#7e7e7e" d="M11 36 C11.02 36.66 11.18 38.15 10 38 C9.981 37.34 9.819 35.85 11 36 z"/>
<path style="fill:#696969" d="M22 38 C20.65 37.54 19.54 38.65 20 40 L18 38 L19 36 L22 38 z"/>
<path style="fill:#7e7e7e" d="M46 36 C48.52 36.7 45.27 39.22 46 36 z"/>
<path style="fill:#676767" d="M76 38 C74.82 38.15 74.98 36.66 75 36 C76.18 35.85 76.02 37.34 76 38 z"/>
<path style="fill:#1e1e1e" d="M26 39 C27.26 40.41 27.16 42.85 25 41 L24 38 C25.16 37.07 26.45 36.98 26 39 z"/>
<path style="fill:#171717" d="M60 42 L59 38 C62.35 35.72 60.26 40.44 60 42 z"/>
<path style="fill:#d5d5d5" d="M20 40 C20.15 41.18 18.66 41.02 18 41 L18 38 L20 40 z"/>
<path style="fill:#b4b5b5" d="M22 38 L24 38 L25 41 L24 44 C22.56 45.94 21.72 46.13 22 43 C22.99 41.16 22.62 37.99 20 40 C19.54 38.65 20.65 37.54 22 38 z"/>
<path style="fill:#343535" d="M66 38 C68.52 38.7 65.27 41.22 66 38 z"/>
<path style="fill:#767777" d="M69 51 C69.21 45.85 65.46 53.52 66 49 L66 47 L67 47 C70.26 49.55 68.21 43.63 67 43 L68 41 L68 38 C69.39 41.15 71.41 47.71 69 51 z"/>
<path style="fill:#767676" d="M22 43 L20 43 C17.74 39.52 18.78 46.3 16 45 L18 41 C18.66 41.02 20.15 41.18 20 40 C22.62 37.99 22.99 41.16 22 43 z"/>
<path style="fill:#696969" d="M27 39 L29 41 L30 43 L27 43 L25 44 L24 44 L25 41 C27.16 42.85 27.26 40.41 26 39 L27 39 z"/>
<path style="fill:#d5d5d5" d="M34 39 L34 45 C33.98 45.66 33.82 47.15 35 47 L35 49 L33 49 L32 49 L32 44 C33.48 44.04 33.48 40.96 32 41 C31.54 39.65 32.65 38.54 34 39 z"/>
<path style="fill:#e8e9e9" d="M54 44 L54 49 L52 41 L54 44 z"/>
<path style="fill:#666666" d="M10 40 L9 44 L10 40 z"/>
<path style="fill:#999a9a" d="M42 40 C42.15 41.18 40.66 41.02 40 41 C39.85 39.82 41.34 39.98 42 40 z"/>
<path style="fill:#878787" d="M45 41 L44 40 L45 41 z"/>
<path style="fill:#dddddd" d="M56 43 L55 44 C54.23 41.05 56.4 38.57 56 43 z"/>
<path style="fill:#767777" d="M77 42 C75.82 42.15 75.98 40.66 76 40 C77.18 39.85 77.02 41.34 77 42 z"/>
<path style="fill:#a0a0a0" d="M30 41 L31 41 C30.35 43.16 32.65 43.16 32 41 C33.48 40.96 33.48 44.04 32 44 C31.34 44.02 29.85 44.18 30 43 L29 41 L30 41 z"/>
<path style="fill:#090909" d="M32 41 C32.65 43.16 30.35 43.16 31 41 L32 41 z"/>
<path style="fill:#2b2c2c" d="M63 44 L63 45 C59.98 49.65 56.61 47.28 60 43 L60 42 L63 44 z"/>
<path style="fill:#f2f3f3" d="M65 41 C66.71 42.82 64.82 43.34 63 43 C62.54 41.65 63.65 40.54 65 41 z"/>
<path style="fill:#919292" d="M68 41 L67 43 L67 46 L66 46 C66.9 44.44 64.19 42.98 64 45 L63 45 L63 44 L63 43 C64.82 43.34 66.71 42.82 65 41 L68 41 z"/>
<path style="fill:#353636" d="M20 43 L16 47 L16 45 C18.78 46.3 17.74 39.52 20 43 z"/>
<path style="fill:#9a9a9a" d="M20 43 C20.43 46.13 20.49 50.04 25 48 C25.67 50.11 23.42 50.21 22 50 C22.14 48.12 20.12 50.14 22 50 L22 51 L21 52 L18 53 L17 53 L16 47 L20 43 z"/>
<path style="fill:#2d2d2d" d="M22 43 C21.72 46.13 22.56 45.94 24 44 L25 44 L25 48 C20.49 50.04 20.43 46.13 20 43 L22 43 z"/>
<path style="fill:#9e9e9e" d="M27 43 C25.36 47.41 27.04 46.75 29.75 45.25 C29.61 49.38 29.21 48.76 25 48 L25 44 L27 43 z"/>
<path style="fill:#333333" d="M30 43 C29.85 44.18 31.34 44.02 32 44 L32 49 L32 52 C25.73 49.53 26.68 52.14 31 55 L31 59 L28 57 C27.1 57.32 25.27 59.02 25 57 L25.75 55.25 L24 55 C20.08 53.21 29.2 52.38 24 52 L22 52 L22 51 L22 50 C23.42 50.21 25.67 50.11 25 48 C29.21 48.76 29.61 49.38 29.75 45.25 C27.04 46.75 25.36 47.41 27 43 L30 43 z"/>
<path style="fill:#232424" d="M58 43 C58.85 45.25 53.15 47.53 54 44 L55 44 L56 43 L58 43 z"/>
<path style="fill:#a4a4a4" d="M60 43 C56.61 47.28 59.98 49.65 63 45 L64 45 C63.85 46.18 65.34 46.02 66 46 L67 46 L67 47 L66 47 C64.82 46.85 64.98 48.34 65 49 L63 53 C63.02 52.34 63.18 50.85 62 51 L62 50 C62.04 48.52 58.96 48.52 59 50 C54.61 49.54 59.46 54.39 59 50 L60 51 L59 54 L56 54 C56.78 51.76 54.77 50.67 54 49 L54 44 C53.15 47.53 58.85 45.25 58 43 L60 43 z"/>
<path style="fill:#1c1d1d" d="M67 47 L67 46 L67 43 C68.21 43.63 70.26 49.55 67 47 z"/>
<path style="fill:#9b9b9b" d="M77 50 L77 43 C78.64 44.03 78.64 48.97 77 50 z"/>
<path style="fill:#131414" d="M66 46 C65.34 46.02 63.85 46.18 64 45 C64.19 42.98 66.9 44.44 66 46 z"/>
<path style="fill:#808080" d="M35 47 C33.82 47.15 33.98 45.66 34 45 C35.18 44.85 35.02 46.34 35 47 z"/>
<path style="fill:#2b2b2b" d="M55 47 C58.73 47.87 54.55 50.64 55 47 z"/>
<path style="fill:#090a0a" d="M66 47 L66 49 L65 49 C64.98 48.34 64.82 46.85 66 47 z"/>
<path style="fill:#202020" d="M22 50 C20.12 50.14 22.14 48.12 22 50 z"/>
<path style="fill:#737474" d="M35 49 C35.22 50.33 32.78 50.33 33 49 L35 49 z"/>
<path style="fill:#171818" d="M62 50 L60 51 L59 50 C58.96 48.52 62.04 48.52 62 50 z"/>
<path style="fill:#cfcfcf" d="M65 49 L66 49 C65.46 53.52 69.21 45.85 69 51 L69 54 L68 54 C68.85 51.68 64.15 51.68 65 54 L64 54 L63 53 L65 49 z"/>
<path style="fill:#a9a9a9" d="M32 52 L32 53 C30.82 52.85 30.98 54.34 31 55 C26.68 52.14 25.73 49.53 32 52 z"/>
<path style="fill:#181919" d="M59 50 C59.46 54.39 54.61 49.54 59 50 z"/>
<path style="fill:#818282" d="M62 50 L62 51 C61.07 52.16 60.98 53.45 63 53 L64 54 L64 56 L63 57 L62 58 L61 58 L60.75 56.25 L58.75 56.75 C55.91 54.64 66.02 54.41 59 54 L60 51 L62 50 z"/>
<path style="fill:#ffffff" d="M22 51 L22 52 L21 52 L22 51 z"/>
<path style="fill:#1c1d1d" d="M63 53 C60.98 53.45 61.07 52.16 62 51 C63.18 50.85 63.02 52.34 63 53 z"/>
<path style="fill:#a2a2a2" d="M10 57 L9 52 L10 57 z"/>
<path style="fill:#1a1a1a" d="M21 52 C24.56 54.92 17.29 56.78 18 53 L21 52 z"/>
<path style="fill:#868787" d="M22 52 L24 52 C29.2 52.38 20.08 53.21 24 55 L25.75 55.25 L25 57 L23 57 C21.48 53.78 16.51 57.86 21 59 L22 59 L22 63 L21 63 C19.09 59.98 16.43 56.92 17 53 L18 53 C17.29 56.78 24.56 54.92 21 52 L22 52 z"/>
<path style="fill:#737474" d="M38 53 L35 57 L34 56 C32.71 53.64 36.98 50.75 38 53 z"/>
<path style="fill:#6b6c6c" d="M49 52 L49 59 L47 58 L47 53 L49 52 z"/>
<path style="fill:#cdcdcd" d="M52 54 C49.04 52.91 49.6 58.71 52 56 C52.63 58.12 50.18 58.14 49 59 L49 52 L52 54 z"/>
<path style="fill:#6b6c6c" d="M68 54 L65 54 C64.15 51.68 68.85 51.68 68 54 z"/>
<path style="fill:#6e6e6e" d="M32 53 C31.79 54.42 31.89 56.67 34 56 L34 57 C33.42 59.22 35.07 61.23 37 62 L37 64 L36 64 C36.43 62.94 34.57 62.94 35 64 C33.82 64.15 33.98 62.66 34 62 C33.42 61.4 32.68 57.79 32 60 L31 59 L31 55 C30.98 54.34 30.82 52.85 32 53 z"/>
<path style="fill:#c8c9c9" d="M38 53 L38 54 C39.27 55.26 38.36 57.33 37 58 C35.84 58.93 34.55 59.02 35 57 L38 53 z"/>
<path style="fill:#848585" d="M41 55 L40 58 C40.04 59.48 36.96 59.48 37 58 C38.36 57.33 39.27 55.26 38 54 C39.88 52.25 39.6 54.37 41 55 z"/>
<path style="fill:#454545" d="M41 60 C41.02 59.34 41.18 57.85 40 58 L41 55 L41 53 C42.64 54.03 42.64 58.97 41 60 z"/>
<path style="fill:#b3b4b4" d="M47 53 L47 58 C45.84 57.07 44.55 56.98 45 59 C43.4 58.55 43.4 54.45 45 54 L47 53 z"/>
<path style="fill:#999a9a" d="M77 53 L76 57 L77 53 z"/>
<path style="fill:#535353" d="M52 54 L53 55 L52 56 C49.6 58.71 49.04 52.91 52 54 z"/>
<path style="fill:#2b2c2c" d="M59 54 C66.02 54.41 55.91 54.64 58.75 56.75 L60.75 56.25 L61 58 L56 58 C56.02 57.34 56.18 55.85 55 56 L56 54 L59 54 z"/>
<path style="fill:#242424" d="M65 54 L68 54 L69 54 L68 58 C68.02 57.34 68.18 55.85 67 56 L64 56 L64 54 L65 54 z"/>
<path style="fill:#cecece" d="M53 55 L52 56 L53 55 z"/>
<path style="fill:#101010" d="M23 57 L21 59 C16.51 57.86 21.48 53.78 23 57 z"/>
<path style="fill:#9fa0a0" d="M31 59 L32 60 C33.19 66.94 29.01 68.59 30.75 61.25 L28 64 L28 62 L29 59 L28 57 L31 59 z"/>
<path style="fill:#f6f6f6" d="M35 57 L34 57 L34 56 L35 57 z"/>
<path style="fill:#a7a8a8" d="M56 58 L53 62 L52 62 L51 62 C52.69 59.9 54.43 58.91 55 56 C56.18 55.85 56.02 57.34 56 58 z"/>
<path style="fill:#525252" d="M64 56 L67 56 C66.98 56.66 66.82 58.15 68 58 L66 60 C66.66 57.76 65.24 56.34 63 57 L64 56 z"/>
<path style="fill:#bcbdbd" d="M68 58 C66.82 58.15 66.98 56.66 67 56 C68.18 55.85 68.02 57.34 68 58 z"/>
<path style="fill:#6c6d6d" d="M25 57 C25.27 59.02 27.1 57.32 28 57 L29 59 C26.91 57.99 26.04 61.75 28 62 L28 64 C28.02 66.09 27.64 68.3 29 70 C27.15 70.33 25.67 68.46 25 67 C30.42 66.11 23.66 58.61 24 66 L21 63 L22 63 L25 61 C26.33 61.22 26.33 58.78 25 59 L22 59 L21 59 L23 57 L25 57 z"/>
<path style="fill:#c8c8c8" d="M32 57 C33.88 56.86 31.86 58.88 32 57 z"/>
<path style="fill:#141414" d="M35 57 C34.55 59.02 35.84 58.93 37 58 C36.96 59.48 40.04 59.48 40 58 C41.18 57.85 41.02 59.34 41 60 C40.66 61.86 38.6 62.28 37 62 C35.07 61.23 33.42 59.22 34 57 L35 57 z"/>
<path style="fill:#161717" d="M63 57 C65.24 56.34 66.66 57.76 66 60 L62 63 L62 58 L63 57 z"/>
<path style="fill:#2e2f2f" d="M56 58 L57 63 L56 64 L55 64 L53 62 L56 58 z"/>
<path style="fill:#949494" d="M61 58 L62 58 L62 63 L62 64 L59 62 C59.45 58.36 55.27 61.13 59 62 L59 66 L57 64 L57 63 L56 58 L61 58 z"/>
<path style="fill:#9f9f9f" d="M76 58 C76.02 58.66 76.18 60.15 75 60 C74.98 59.34 74.82 57.85 76 58 z"/>
<path style="fill:#101111" d="M25 59 L25 61 L22 63 L22 59 L25 59 z"/>
<path style="fill:#cecfcf" d="M25 61 L25 59 C26.33 58.78 26.33 61.22 25 61 z"/>
<path style="fill:#0b0b0b" d="M29 59 L28 62 C26.04 61.75 26.91 57.99 29 59 z"/>
<path style="fill:#1d1e1e" d="M34 62 C30.67 63.09 34.97 73.92 36 69 L37 69 L40 72 L39 73 L29 70 C27.64 68.3 28.02 66.09 28 64 L30.75 61.25 C29.01 68.59 33.19 66.94 32 60 C32.68 57.79 33.42 61.4 34 62 z"/>
<path style="fill:#a3a3a3" d="M12 62 C10.82 62.15 10.98 60.66 11 60 C12.18 59.85 12.02 61.34 12 62 z"/>
<path style="fill:#2c2d2d" d="M59 62 C55.27 61.13 59.45 58.36 59 62 z"/>
<path style="fill:#7e7f7f" d="M66 60 C66.67 62.76 64.03 64.79 62 66 L62 64 L62 63 L66 60 z"/>
<path style="fill:#929393" d="M75 60 C75.02 60.66 75.18 62.15 74 62 C73.98 61.34 73.82 59.85 75 60 z"/>
<path style="fill:#1a1a1a" d="M25 67 L24 66 C23.66 58.61 30.42 66.11 25 67 z"/>
<path style="fill:#8e8f8f" d="M34 62 C33.98 62.66 33.82 64.15 35 64 L36 64 L37 64 L39 66 C34.47 65.18 33.94 64.68 36 69 C34.97 73.92 30.67 63.09 34 62 z"/>
<path style="fill:#1c1c1c" d="M52 62 C52.56 62.8 51.21 64.97 51 63 L51 62 L52 62 z"/>
<path style="fill:#939494" d="M53 62 L55 64 L50 66 C50.19 65.05 49.41 63.06 51 63 C51.21 64.97 52.56 62.8 52 62 L53 62 z"/>
<path style="fill:#171717" d="M62 64 L62 66 L59 66 L59 62 L62 64 z"/>
<path style="fill:#7b7b7b" d="M13 64 L12 63 L13 64 z"/>
<path style="fill:#010101" d="M36 64 L35 64 C34.57 62.94 36.43 62.94 36 64 z"/>
<path style="fill:#545454" d="M57 63 L57 64 C58.41 69.03 54.68 66.64 53 68 L52 68 L50 66 L55 64 C52.71 66.13 56.8 66.77 56 64 L57 63 z"/>
<path style="fill:#7a7a7a" d="M74 63 L73 64 L74 63 z"/>
<path style="fill:#929292" d="M14 66 C12.82 66.15 12.98 64.66 13 64 C14.18 63.85 14.02 65.34 14 66 z"/>
<path style="fill:#c1c1c1" d="M56 64 C56.8 66.77 52.71 66.13 55 64 L56 64 z"/>
<path style="fill:#969797" d="M73 64 C73.02 64.66 73.18 66.15 72 66 C71.98 65.34 71.82 63.85 73 64 z"/>
<path style="fill:#3d3d3d" d="M39 66 L39 68 C38.34 67.98 36.85 67.82 37 69 L36 69 C33.94 64.68 34.47 65.18 39 66 z"/>
<path style="fill:#8a8a8a" d="M15 67 L14 66 L15 67 z"/>
<path style="fill:#9d9d9d" d="M25 67 L24 66 L25 67 z"/>
<path style="fill:#b3b3b3" d="M50 66 L52 68 L47 67 C47.06 65.41 49.05 66.19 50 66 z"/>
<path style="fill:#868686" d="M62 66 C60.36 69.48 56.62 70.97 59 66 L62 66 z"/>
<path style="fill:#858585" d="M72 66 L71 67 L72 66 z"/>
<path style="fill:#939393" d="M16 69 C14.82 69.15 14.98 67.66 15 67 C16.18 66.85 16.02 68.34 16 69 z"/>
<path style="fill:#666666" d="M52 68 L53 68 C52.1 71.74 54.75 70.51 56.75 70.25 C56.22 72.08 54.03 73.55 52 73 C50.78 70.67 50.56 68.41 47 68 L47 67 L52 68 z"/>
<path style="fill:#676767" d="M71 67 L70 68 L71 67 z"/>
<path style="fill:#5f6060" d="M39 68 C41.38 68.98 42.52 70.87 40 72 L37 69 C36.85 67.82 38.34 67.98 39 68 z"/>
<path style="fill:#b4b5b5" d="M45 69 C45.99 70.3 49.65 70.47 46 72 C44.49 71.47 41.14 67 45 69 z"/>
<path style="fill:#252626" d="M47 68 C50.56 68.41 50.78 70.67 52 73 C52.15 74.18 50.66 74.02 50 74 L46 73 L46 72 C49.65 70.47 45.99 70.3 45 69 L47 68 z"/>
<path style="fill:#999999" d="M17 70 L16 69 L17 70 z"/>
<path style="fill:#a4a4a4" d="M70 69 L69 70 L70 69 z"/>
<path style="fill:#b1b1b1" d="M19 72 C17.65 72.46 16.54 71.35 17 70 L19 72 z"/>
<path style="fill:#949494" d="M39 73 C39.15 74.18 37.66 74.02 37 74 C34.3 73.13 30.42 72.93 29 70 L39 73 z"/>
<path style="fill:#8d8d8d" d="M69 70 L68 71 L69 70 z"/>
<path style="fill:#747474" d="M68 71 L67 72 L68 71 z"/>
<path style="fill:#585858" d="M46 73 L50 74 C47.03 75.66 39.97 75.66 37 74 C37.66 74.02 39.15 74.18 39 73 L40 72 C40.83 73.87 44.64 75.3 46 73 z"/>
<path style="fill:#848484" d="M67 72 L66 73 L67 72 z"/>
<path style="fill:#606161" d="M27 78 L25 76 C26.35 75.54 27.46 76.65 27 78 z"/>
<path style="fill:#939393" d="M60 77 L59 78 L60 77 z"/>
<path style="fill:#757575" d="M58 78 C58.15 79.18 56.66 79.02 56 79 C55.85 77.82 57.34 77.98 58 78 z"/>
<path style="fill:#a9aaaa" d="M32 80 C31.34 80.02 29.85 80.18 30 79 C30.66 78.98 32.15 78.82 32 80 z"/>
<path style="fill:#606161" d="M56 79 C56.15 80.18 54.66 80.02 54 80 C53.85 78.82 55.34 78.98 56 79 z"/>
<path style="fill:#8e8e8e" d="M36 81 C35.34 81.02 33.85 81.18 34 80 C34.66 79.98 36.15 79.82 36 81 z"/>
<path style="fill:#8a8a8a" d="M53 80 C53.15 81.18 51.66 81.02 51 81 C50.85 79.82 52.34 79.98 53 80 z"/>
</svg>
