<?xml version="1.0" standalone="yes"?>
<svg width="87" height="97">
<path style="fill:#fcfdfd" d="M87 0 L87 97 L0 97 L0 0 L87 0 z"/>
<path style="fill:#7e7e7e" d="M21 15 L19 15 C18.78 13.67 21.22 13.67 21 15 z"/>
<path style="fill:#030303" d="M19 15 L21 15 L22 16 L24 16 C23.85 17.18 25.34 17.02 26 17 L30 17 C33.97 18.66 42.03 18.66 46 17 L50 17 L59 17 L66 16 L67 16 L72 16 L73 17 C76.12 18.25 77 23.33 74 25 L73 26 L72 27 L71 27 L70 28 L69 28 L66 28 L64 28 L35 27 L28 28 L26 28 L24 28 C23.34 27.98 21.85 27.82 22 29 L18 29 C18.15 27.82 16.66 27.98 16 28 L15 28 L14 27 L13 26 L12 25 L12 23 L12 19 L13 18 L14 17 L15 17 L16 16 L19 15 z"/>
<path style="fill:#6b6b6b" d="M22 16 L21 15 L22 16 z"/>
<path style="fill:#6b6c6c" d="M72 16 L67 16 C67.45 14.4 71.55 14.4 72 16 z"/>
<path style="fill:#696969" d="M16 16 L15 17 L16 16 z"/>
<path style="fill:#6c6c6c" d="M26 17 C25.34 17.02 23.85 17.18 24 16 C24.66 15.98 26.15 15.82 26 17 z"/>
<path style="fill:#9c9c9c" d="M59 16 L59 17 L50 17 L59 16 z"/>
<path style="fill:#3b3c3c" d="M66 16 L59 17 L59 16 L66 16 z"/>
<path style="fill:#606060" d="M73 17 L72 16 L73 17 z"/>
<path style="fill:#a0a0a0" d="M14 17 L13 18 L14 17 z"/>
<path style="fill:#303131" d="M46 17 C42.03 18.66 33.97 18.66 30 17 L46 17 z"/>
<path style="fill:#8f8f8f" d="M13 18 L12 19 L13 18 z"/>
<path style="fill:#595959" d="M12 19 L12 23 C10.45 22.81 10.45 19.19 12 19 z"/>
<path style="fill:#a2a2a2" d="M13 26 L12 25 L13 26 z"/>
<path style="fill:#6c6c6c" d="M74 25 L73 26 L74 25 z"/>
<path style="fill:#a1a1a1" d="M14 27 L13 26 L14 27 z"/>
<path style="fill:#8c8c8c" d="M73 26 L72 27 L73 26 z"/>
<path style="fill:#aaaaaa" d="M15 28 L14 27 L15 28 z"/>
<path style="fill:#676767" d="M35 27 L35 28 L28 28 L35 27 z"/>
<path style="fill:#b7b7b7" d="M64 28 L35 28 L35 27 L64 28 z"/>
<path style="fill:#797979" d="M71 27 L70 28 L71 27 z"/>
<path style="fill:#6c6d6d" d="M18 29 C17.34 29.02 15.85 29.18 16 28 C16.66 27.98 18.15 27.82 18 29 z"/>
<path style="fill:#555555" d="M24 28 L24 29 L22 29 C21.85 27.82 23.34 27.98 24 28 z"/>
<path style="fill:#aeaeae" d="M26 28 C26.15 29.18 24.66 29.02 24 29 L24 28 L26 28 z"/>
<path style="fill:#797a7a" d="M69 28 C69.04 29.48 65.96 29.48 66 28 L69 28 z"/>
<path style="fill:#0d0d0d" d="M46 32 C46.1 38.52 44.67 45.5 42.25 50.75 C40.91 44.51 38.96 38.59 39 32 C39.74 29.07 45.26 29.07 46 32 z"/>
<path style="fill:#868686" d="M36 32 L32 32 C32.19 30.45 35.81 30.45 36 32 z"/>
<path style="fill:#7a7a7a" d="M53 32 L50 32 C49.96 30.52 53.04 30.52 53 32 z"/>
<path style="fill:#0d0d0d" d="M32 32 L36 32 L37 33 L40.75 51.75 C36.84 46.63 31.3 40.69 30 34 L32 32 z"/>
<path style="fill:#727272" d="M37 33 L36 32 L37 33 z"/>
<path style="fill:#a8a8a8" d="M39 32 C38.96 38.59 40.91 44.51 42.25 50.75 C44.67 45.5 46.1 38.52 46 32 L48 34 C46.64 39.42 44.71 44.97 45.25 50.75 C48.71 45.89 53.91 40.29 55 34 C56.59 34.06 55.81 36.05 56 37 C53.24 42.01 50.11 47.9 46 52 C45.34 51.98 43.85 51.82 44 53 C39.31 51.33 37.47 56.95 40 60 L39 60 L23 71 L20 69 C26.44 68.5 31.96 62.82 36.75 59.25 L29 60 C28.34 60.02 26.85 60.18 27 59 L36.75 56.25 L18 53 L19 51 L37.75 54.75 L37 53 L38.75 52.75 C34.6 47.64 32.49 37.35 25 37 L30 34 C31.3 40.69 36.84 46.63 40.75 51.75 L37 33 L39 32 z"/>
<path style="fill:#969696" d="M49 32 L48 33 L49 32 z"/>
<path style="fill:#0a0b0b" d="M50 32 L53 32 L55 34 C53.91 40.29 48.71 45.89 45.25 50.75 C44.71 44.97 46.64 39.42 48 34 L48 33 L49 32 L50 32 z"/>
<path style="fill:#8f9090" d="M61 37 L57 37 C57.19 35.45 60.81 35.45 61 37 z"/>
<path style="fill:#999999" d="M24 37 L23 38 L24 37 z"/>
<path style="fill:#0b0b0b" d="M25 37 C32.49 37.35 34.6 47.64 38.75 52.75 L37 53 C33.7 49.01 28.56 46.08 24 44 L23 42 L23 39 L23 38 L24 37 L25 37 z"/>
<path style="fill:#0a0b0b" d="M57 37 L61 37 L62 38 C63.34 46.64 51.6 47.11 48 53 C47.34 53.02 45.85 53.18 46 52 C50.11 47.9 53.24 42.01 56 37 L57 37 z"/>
<path style="fill:#7b7b7b" d="M62 38 L61 37 L62 38 z"/>
<path style="fill:#a8a9a9" d="M65 44 L48 53 C51.6 47.11 63.34 46.64 62 38 L65 44 z"/>
<path style="fill:#808181" d="M23 39 L23 42 C21.52 42.04 21.52 38.96 23 39 z"/>
<path style="fill:#757575" d="M20 44 L19 45 L20 44 z"/>
<path style="fill:#0e0e0e" d="M23 44 C27.18 47.1 32.03 51.04 37 53 L37.75 54.75 L19 51 L18 50 L18 46 L19 45 L20 44 L23 44 z"/>
<path style="fill:#adadad" d="M24 44 C28.56 46.08 33.7 49.01 37 53 C32.03 51.04 27.18 47.1 23 44 L24 44 z"/>
<path style="fill:#090a0a" d="M65 44 L66 45 L67 46 L67 50 L66 51 L50 55 C48.65 55.46 47.54 54.35 48 53 L65 44 z"/>
<path style="fill:#626262" d="M66 45 L65 44 L66 45 z"/>
<path style="fill:#909191" d="M18 46 L18 50 C16.45 49.81 16.45 46.19 18 46 z"/>
<path style="fill:#727373" d="M67 50 L67 46 C68.55 46.19 68.55 49.81 67 50 z"/>
<path style="fill:#717171" d="M19 51 L18 50 L19 51 z"/>
<path style="fill:#5d5d5d" d="M67 50 L66 51 L67 50 z"/>
<path style="fill:#9e9f9f" d="M66 51 L67 53 L51 56 L50 55 L66 51 z"/>
<path style="fill:#c7c7c7" d="M46 52 C45.85 53.18 47.34 53.02 48 53 C47.54 54.35 48.65 55.46 50 55 L51 56 C50.05 56.19 48.06 55.41 48 57 L46 55 L44 53 C43.85 51.82 45.34 51.98 46 52 z"/>
<path style="fill:#636363" d="M18 53 L17 54 L18 53 z"/>
<path style="fill:#060606" d="M27 59 L18 60 C15.63 59.54 15.92 56.83 16 55 L17 54 L18 53 L36.75 56.25 L27 59 z"/>
<path style="fill:#070707" d="M44 53 L46 55 L45 60 C43.47 61.25 41.53 61.25 40 60 C37.47 56.95 39.31 51.33 44 53 z"/>
<path style="fill:#090909" d="M67 53 L68 54 L69 55 L69 58 L69 59 L68 60 L67 60 L48 57 C48.06 55.41 50.05 56.19 51 56 L67 53 z"/>
<path style="fill:#5d5d5d" d="M68 54 L67 53 L68 54 z"/>
<path style="fill:#5f5f5f" d="M17 54 L16 55 L17 54 z"/>
<path style="fill:#949494" d="M48 57 L67 60 L64 62 C58.8 61.01 53.7 58.72 48.25 59.25 L55 65 L55 66 L47 62 L46 62 C46.02 61.34 46.18 59.85 45 60 L46 55 L48 57 z"/>
<path style="fill:#979797" d="M69 58 L69 55 C70.48 54.96 70.48 58.04 69 58 z"/>
<path style="fill:#878888" d="M27 59 C26.85 60.18 28.34 60.02 29 60 L20 62 L18 60 L27 59 z"/>
<path style="fill:#0a0b0b" d="M20 69 L19 69 L18 68 L18 67 L18 64 L18 63 L19 62 L20 62 L29 60 L36.75 59.25 C31.96 62.82 26.44 68.5 20 69 z"/>
<path style="fill:#0a0a0a" d="M64 62 L66 62 L67 63 L67 64 L67 67 L67 68 L66 69 L65 69 L55 65 L48.25 59.25 C53.7 58.72 58.8 61.01 64 62 z"/>
<path style="fill:#a0a0a0" d="M69 59 L68 60 L69 59 z"/>
<path style="fill:#0e0f0f" d="M39 60 L39 62 L28 77 C26.17 77.08 23.46 77.37 23 75 L23 71 L39 60 z"/>
<path style="fill:#c5c5c5" d="M40 60 C41.53 61.25 43.47 61.25 45 60 C46.18 59.85 46.02 61.34 46 62 C44.65 61.54 43.54 62.65 44 64 L43 64 C43.65 61.84 41.35 61.84 42 64 L41 64 C41.46 62.65 40.35 61.54 39 62 L39 60 L40 60 z"/>
<path style="fill:#090a0a" d="M55 66 L62 70 L62 71 L62 75 C61.54 77.37 58.83 77.08 57 77 L47 62 L55 66 z"/>
<path style="fill:#a9a9a9" d="M19 62 L18 63 L19 62 z"/>
<path style="fill:#b1b1b1" d="M39 62 L30 79 L28 77 L39 62 z"/>
<path style="fill:#0d0d0d" d="M41 64 L37 80 C36.54 82.37 33.83 82.08 32 82 L31 81 L30 80 L30 79 L39 62 C40.35 61.54 41.46 62.65 41 64 z"/>
<path style="fill:#0b0b0b" d="M43 64 C44.32 69.91 46.4 75.59 46 82 L45 83 L44 84 L40 83 L39 82 L42 64 C41.35 61.84 43.65 61.84 43 64 z"/>
<path style="fill:#0e0f0f" d="M46 62 L55 80 L54 81 L53 82 C51.17 82.08 48.46 82.37 48 80 C46.97 74.67 46.29 68.48 44 64 C43.54 62.65 44.65 61.54 46 62 z"/>
<path style="fill:#b0b1b1" d="M47 62 L57 77 L55 80 L46 62 L47 62 z"/>
<path style="fill:#a2a2a2" d="M67 63 L66 62 L67 63 z"/>
<path style="fill:#7c7d7d" d="M18 64 L18 67 C16.52 67.04 16.52 63.96 18 64 z"/>
<path style="fill:#9e9e9e" d="M41 64 L42 64 L39 82 L37 80 L41 64 z"/>
<path style="fill:#9c9c9c" d="M44 64 C46.29 68.48 46.97 74.67 48 80 L46 82 C46.4 75.59 44.32 69.91 43 64 L44 64 z"/>
<path style="fill:#606060" d="M67 67 L67 64 C68.48 63.96 68.48 67.04 67 67 z"/>
<path style="fill:#ababab" d="M65 69 C64.94 70.59 62.95 69.81 62 70 L55 66 L55 65 L65 69 z"/>
<path style="fill:#a9a9a9" d="M19 69 L18 68 L19 69 z"/>
<path style="fill:#828282" d="M67 68 L66 69 L67 68 z"/>
<path style="fill:#8b8c8c" d="M23 71 L23 75 C21.45 74.81 21.45 71.19 23 71 z"/>
<path style="fill:#696969" d="M62 75 L62 71 C63.55 71.19 63.55 74.81 62 75 z"/>
<path style="fill:#a7a7a7" d="M31 81 L30 80 L31 81 z"/>
<path style="fill:#919191" d="M55 80 L54 81 L55 80 z"/>
<path style="fill:#a8a8a8" d="M32 82 L31 81 L32 82 z"/>
<path style="fill:#929292" d="M54 81 L53 82 L54 81 z"/>
<path style="fill:#a4a4a4" d="M40 83 L39 82 L40 83 z"/>
<path style="fill:#828282" d="M46 82 L45 83 L46 82 z"/>
<path style="fill:#a1a1a1" d="M45 83 L44 84 L45 83 z"/>
</svg>
