<?xml version="1.0" standalone="yes"?>
<svg width="87" height="97">
<path style="fill:#fdfdfd" d="M87 0 L87 97 L0 97 L0 0 L87 0 z"/>
<path style="fill:#adadad" d="M39 18 L39 19 L37 19 C36.85 17.82 38.34 17.98 39 18 z"/>
<path style="fill:#3f4040" d="M48 18 L48 19 L39 19 L39 18 L48 18 z"/>
<path style="fill:#afafaf" d="M50 19 L48 19 L48 18 C48.66 17.98 50.15 17.82 50 19 z"/>
<path style="fill:#0e0f0f" d="M37 19 L39 19 L48 19 L50 19 L51 19 C50.85 20.18 52.34 20.02 53 20 L54 20 L55 21 L58 22 C57.85 23.18 59.34 23.02 60 23 L61 24 L62 25 L63 26 L65 28 L66 29 L67 30 L68 31 L69 32 L69 33 L70 34 L70 35 L71 36 L72 40 C71.98 40.66 71.82 42.15 73 42 L73 43 L73 52 L72 58 C70.82 57.85 70.98 59.34 71 60 C69.82 59.85 69.98 61.34 70 62 C68.82 61.85 68.98 63.34 69 64 C67.82 63.85 67.98 65.34 68 66 L66 68 L65 69 L64 70 L63 71 L62 72 L61 73 C60.34 72.98 58.85 72.82 59 74 L58 75 L53 77 C52.34 76.98 50.85 76.82 51 78 L48 78 L38 78 L36 78 C36.15 76.82 34.66 76.98 34 77 C34.15 75.82 32.66 75.98 32 76 L31 76 L30 75 L29 75 L28 74 L27 74 L26 73 L25 72 L24 71 L23 70 L22 69 L21 68 L20 67 L19 66 C19.33 64.66 18.29 63.26 17 63 C17.02 62.34 17.18 60.85 16 61 L14 53 L14 43 L15 39 C16.18 39.15 16.02 37.66 16 37 L17 34 L18 33 C19.26 29.73 22.12 26.95 25 25 L26 24 L27 23 C27.66 23.02 29.15 23.18 29 22 L30 21 L37 19 z"/>
<path style="fill:#7d7e7e" d="M53 20 C52.34 20.02 50.85 20.18 51 19 C51.66 18.98 53.15 18.82 53 20 z"/>
<path style="fill:#6c6c6c" d="M55 21 L54 20 L55 21 z"/>
<path style="fill:#a6a6a6" d="M30 21 L29 22 L30 21 z"/>
<path style="fill:#929292" d="M29 22 C29.15 23.18 27.66 23.02 27 23 C26.85 21.82 28.34 21.98 29 22 z"/>
<path style="fill:#9b9c9c" d="M60 23 C59.34 23.02 57.85 23.18 58 22 C58.66 21.98 60.15 21.82 60 23 z"/>
<path style="fill:#878787" d="M27 23 L26 24 L27 23 z"/>
<path style="fill:#ababab" d="M57 28 L46 25 L43 25 C42.1 24.68 40.27 22.98 40 25 C36.29 26.11 31.28 26.34 29 30 C27.84 30.93 26.55 31.02 27 29 C35.22 22.1 49.09 20.31 57 28 z"/>
<path style="fill:#686868" d="M26 24 L25 25 L26 24 z"/>
<path style="fill:#818282" d="M43 25 L43 26 C39.56 28.39 37.58 34.15 40 38 L39 39 L38 39 L38 37 L40 25 C40.27 22.98 42.1 24.68 43 25 z"/>
<path style="fill:#6a6a6a" d="M62 25 L61 24 L62 25 z"/>
<path style="fill:#0a0b0b" d="M40 25 L38 37 C34.2 36.09 27.5 36.11 29 30 C31.28 26.34 36.29 26.11 40 25 z"/>
<path style="fill:#606060" d="M46 25 L48 31 L43 26 L43 25 L46 25 z"/>
<path style="fill:#0a0a0a" d="M57 28 L58 30 C58.88 35.49 53.74 36.03 50 37 L48 31 L46 25 L57 28 z"/>
<path style="fill:#707070" d="M63 26 L62 25 L63 26 z"/>
<path style="fill:#101010" d="M43 26 L48 31 C47.86 33.39 48.56 36.03 47 38 L45 41 L43.75 28.25 L43 41 L42 41 L40 38 C37.58 34.15 39.56 28.39 43 26 z"/>
<path style="fill:#bababa" d="M45 41 L46 45 L45 45 C45.02 44.34 45.18 42.85 44 43 L43 41 L43.75 28.25 L45 41 z"/>
<path style="fill:#adaeae" d="M68 43 L66 43 L65 39 L64 38 C63.81 35.08 61.53 32.39 59 31 L58 30 L57 28 C63.37 29.95 65.81 37.51 68 43 z"/>
<path style="fill:#6e6e6e" d="M66 29 L65 28 L66 29 z"/>
<path style="fill:#5f5f5f" d="M27 29 C26.55 31.02 27.84 30.93 29 30 C27.5 36.11 34.2 36.09 38 37 L38 39 L33 38 C19.69 40.25 43.16 44.21 39 39 L40 38 L42 41 L40 43 L27 42 L26 42 C28.28 39.48 23.56 39.68 22 39 L23 38 C29.14 41.5 31.52 33.69 26 32 L26 31 C25.98 30.34 25.82 28.85 27 29 z"/>
<path style="fill:#7c7c7c" d="M67 30 L66 29 L67 30 z"/>
<path style="fill:#696969" d="M59 31 L57 38 L50 38 L50 37 C53.74 36.03 58.88 35.49 58 30 L59 31 z"/>
<path style="fill:#838383" d="M68 31 L67 30 L68 31 z"/>
<path style="fill:#ababab" d="M26 31 L26 32 L23 38 L22 39 C20.82 38.85 20.98 40.34 21 41 L20 40 C20.78 36.58 23 32.96 26 31 z"/>
<path style="fill:#8c8c8c" d="M50 37 L50 38 L47 40 L47 38 C48.56 36.03 47.86 33.39 48 31 L50 37 z"/>
<path style="fill:#0b0b0b" d="M64 38 C63.05 38.19 61.06 37.41 61 39 L57 38 L59 31 C61.53 32.39 63.81 35.08 64 38 z"/>
<path style="fill:#a8a8a8" d="M69 32 L68 31 L69 32 z"/>
<path style="fill:#0d0e0e" d="M23 38 L26 32 C31.52 33.69 29.14 41.5 23 38 z"/>
<path style="fill:#7f7f7f" d="M18 33 L17 34 L18 33 z"/>
<path style="fill:#a0a0a0" d="M70 34 L69 33 L70 34 z"/>
<path style="fill:#a3a3a3" d="M71 36 L70 35 L71 36 z"/>
<path style="fill:#5e5f5f" d="M16 37 C16.02 37.66 16.18 39.15 15 39 C14.98 38.34 14.82 36.85 16 37 z"/>
<path style="fill:#090a0a" d="M38 39 L39 39 C43.16 44.21 19.69 40.25 33 38 L38 39 z"/>
<path style="fill:#4e4e4e" d="M47 38 L47 40 L59 41 L59 42 L47 45 L46 45 L45 41 L47 38 z"/>
<path style="fill:#0c0c0c" d="M50 38 L57 38 L59 41 L47 40 L50 38 z"/>
<path style="fill:#8c8c8c" d="M61 39 L61 40 L59 42 L59 41 L57 38 L61 39 z"/>
<path style="fill:#525353" d="M64 38 L65 39 L61 40 L61 39 C61.06 37.41 63.05 38.19 64 38 z"/>
<path style="fill:#0d0d0d" d="M22 39 C23.56 39.68 28.28 39.48 26 42 L26 43 C24.41 44.69 20.65 43.47 21 41 C20.98 40.34 20.82 38.85 22 39 z"/>
<path style="fill:#0c0c0c" d="M65 39 L66 43 L61 44 L61 43 L61 40 L65 39 z"/>
<path style="fill:#5d5d5d" d="M20 40 L21 41 C20.65 43.47 24.41 44.69 26 43 L26 45 L20 45 C20.02 44.34 20.18 42.85 19 43 C19.19 42.05 18.41 40.06 20 40 z"/>
<path style="fill:#545555" d="M61 40 L61 43 C59.67 42.78 59.67 45.22 61 45 C59.92 48.94 64.18 49.51 67 49 L67 50 C64.56 50.17 59.79 48.83 61 53 L57 53 C57.98 50.57 57.58 49.18 55 51 C55.15 49.82 53.66 49.98 53 50 L52 46 L59 42 L61 40 z"/>
<path style="fill:#aeafaf" d="M73 42 C71.82 42.15 71.98 40.66 72 40 C73.18 39.85 73.02 41.34 73 42 z"/>
<path style="fill:#8e8f8f" d="M42 41 L43 41 L44 43 C42.65 42.54 41.54 43.65 42 45 L40 45 L40 43 L42 41 z"/>
<path style="fill:#8e8e8e" d="M27 42 C26.54 43.35 27.65 44.46 29 44 L28 45 L27 49 L25 49 L26 45 L26 43 L26 42 L27 42 z"/>
<path style="fill:#121313" d="M40 43 L40 45 C39.34 44.98 37.85 44.82 38 46 L34 46 L29 44 C27.65 44.46 26.54 43.35 27 42 L40 43 z"/>
<path style="fill:#0d0e0e" d="M59 42 L52 46 L49 46 C49.15 44.82 47.66 44.98 47 45 L59 42 z"/>
<path style="fill:#aeafaf" d="M14 43 L14 53 C12.34 51.01 12.34 44.99 14 43 z"/>
<path style="fill:#585858" d="M19 43 L19 52 C17.35 50.34 17.35 44.66 19 43 z"/>
<path style="fill:#b4b5b5" d="M20 45 L20 49 L20 50 L20 54 L19 54 L19 52 L19 43 C20.18 42.85 20.02 44.34 20 45 z"/>
<path style="fill:#0f1010" d="M44 43 C45.18 42.85 45.02 44.34 45 45 L44 49 L43 49 L42 45 C41.54 43.65 42.65 42.54 44 43 z"/>
<path style="fill:#c0c0c0" d="M61 43 L61 44 L61 45 C59.67 45.22 59.67 42.78 61 43 z"/>
<path style="fill:#525252" d="M66 43 L67 45 L61 45 L61 44 L66 43 z"/>
<path style="fill:#c2c3c3" d="M68 43 L67 54 L67 50 L67 49 L67 45 L66 43 L68 43 z"/>
<path style="fill:#cdcece" d="M73 52 L73 43 C74.65 44.66 74.65 50.34 73 52 z"/>
<path style="fill:#575757" d="M34 46 L34 48 L33 48 C32.39 46.76 30.44 46.02 29 46 L28 45 L29 44 L34 46 z"/>
<path style="fill:#070707" d="M26 45 L25 49 L20 49 L20 45 L26 45 z"/>
<path style="fill:#313232" d="M28 45 L29 46 L29 48 C27.67 47.78 27.67 50.22 29 50 L29 52 C26.89 52.67 26.79 50.42 27 49 L28 45 z"/>
<path style="fill:#989898" d="M40 45 C40.15 46.18 38.66 46.02 38 46 C37.85 44.82 39.34 44.98 40 45 z"/>
<path style="fill:#f7f8f8" d="M42 45 L43 49 L44 49 L45 45 L46 45 L47 45 C46.85 46.18 48.34 46.02 49 46 L52 46 L53 50 L53 55 C51.82 54.85 51.98 56.34 52 57 L52 58 L52 59 C50.82 58.85 50.98 60.34 51 61 L49 63 L48 64 L45 67 C43.45 67.19 43.45 70.81 45 71 L46 72 C46.66 72.02 48.15 72.18 48 71 L49 71 L49 73 L48 73 L40 73 L39 73 L39 72 C40.6 71.83 43.49 71.19 43 69 C43.02 68.34 43.18 66.85 42 67 C42.15 65.82 40.66 65.98 40 66 L37 62 C37.02 61.34 37.18 59.85 36 60 L35 59 C35.02 58.34 35.18 56.85 34 57 L34 55 L33 51 L33 50 C34.18 50.15 34.02 48.66 34 48 L34 46 L38 46 C38.66 46.02 40.15 46.18 40 45 L42 45 z"/>
<path style="fill:#585959" d="M43 49 L42 45 L43 49 z"/>
<path style="fill:#787979" d="M45 45 L44 49 L45 45 z"/>
<path style="fill:#9b9c9c" d="M49 46 C48.34 46.02 46.85 46.18 47 45 C47.66 44.98 49.15 44.82 49 46 z"/>
<path style="fill:#090909" d="M67 45 L67 49 C64.18 49.51 59.92 48.94 61 45 L67 45 z"/>
<path style="fill:#090a0a" d="M33 48 L33 50 L29 48 L29 46 C30.44 46.02 32.39 46.76 33 48 z"/>
<path style="fill:#050606" d="M56 46 C62.19 48.1 49.75 50.49 56 46 z"/>
<path style="fill:#656565" d="M29 48 L33 50 L33 51 L29 50 C27.67 50.22 27.67 47.78 29 48 z"/>
<path style="fill:#a6a6a6" d="M34 48 C34.02 48.66 34.18 50.15 33 50 L33 48 L34 48 z"/>
<path style="fill:#696a6a" d="M25 49 L27 49 C26.79 50.42 26.89 52.67 29 52 C30.02 54.18 34.29 54.77 33 51 L34 55 C28.06 52.72 30.76 60.71 34 57 C35.18 56.85 35.02 58.34 35 59 C34.05 59.19 32.06 58.41 32 60 C30.82 60.84 30.18 60.84 29 60 L24 61 C24.15 59.82 22.66 59.98 22 60 L22 59 C29.47 60.31 26.7 51.9 21 56 C21.43 54.94 19.57 54.94 20 56 C18.82 56.15 18.98 54.66 19 54 L20 54 C27.19 56.07 27.4 47.45 20 50 L20 49 L25 49 z"/>
<path style="fill:#090a0a" d="M20 54 L20 50 C27.4 47.45 27.19 56.07 20 54 z"/>
<path style="fill:#111212" d="M33 51 C34.29 54.77 30.02 54.18 29 52 L29 50 L33 51 z"/>
<path style="fill:#676868" d="M55 51 C52.47 52.71 54.86 54.51 57 53 L61 53 L66 54 L66 56 C60.7 52.97 56.61 57.78 63 60 L63 61 C60.31 58.68 56.83 58.66 57 63 C54.51 63.86 53.46 66.5 54 69 L53 70 C54.02 65 49.83 68.91 49 71 L48 71 C49.37 68.14 48.8 66.1 45 67 L48 64 C47.99 69.72 55.28 61.43 49 63 L51 61 C52.88 64.85 57.28 57.17 52 59 L52 58 C57.19 59.79 58.93 52.1 53 55 L53 50 C53.66 49.98 55.15 49.82 55 51 z"/>
<path style="fill:#060606" d="M57 53 C54.86 54.51 52.47 52.71 55 51 C57.58 49.18 57.98 50.57 57 53 z"/>
<path style="fill:#101010" d="M67 50 L67 54 L66 54 L61 53 C59.79 48.83 64.56 50.17 67 50 z"/>
<path style="fill:#141515" d="M52 58 L52 57 C53.18 57.15 53.02 55.66 53 55 C58.93 52.1 57.19 59.79 52 58 z"/>
<path style="fill:#b1b2b2" d="M67 54 C67.24 57.33 65.77 61.22 63 63 L63 61 L63 60 C64.93 59.59 65.09 57.35 66 56 L66 54 L67 54 z"/>
<path style="fill:#b8b9b9" d="M21 56 L22 59 L22 60 C20.76 59.39 20.02 57.44 20 56 C19.57 54.94 21.43 54.94 21 56 z"/>
<path style="fill:#090a0a" d="M22 59 L21 56 C26.7 51.9 29.47 60.31 22 59 z"/>
<path style="fill:#0a0b0b" d="M34 55 L34 57 C30.76 60.71 28.06 52.72 34 55 z"/>
<path style="fill:#9a9b9b" d="M53 55 C53.02 55.66 53.18 57.15 52 57 C51.98 56.34 51.82 54.85 53 55 z"/>
<path style="fill:#101010" d="M66 56 C65.09 57.35 64.93 59.59 63 60 C56.61 57.78 60.7 52.97 66 56 z"/>
<path style="fill:#9a9b9b" d="M72 58 C72.02 58.66 72.18 60.15 71 60 C70.98 59.34 70.82 57.85 72 58 z"/>
<path style="fill:#111111" d="M29 60 L28 65 C25.99 65.22 23.78 63.01 24 61 L29 60 z"/>
<path style="fill:#101111" d="M35 59 L36 60 L36 62 L34 62 L32 60 C32.06 58.41 34.05 59.19 35 59 z"/>
<path style="fill:#999999" d="M36 60 L35 59 L36 60 z"/>
<path style="fill:#121212" d="M52 59 C57.28 57.17 52.88 64.85 51 61 C50.98 60.34 50.82 58.85 52 59 z"/>
<path style="fill:#111212" d="M63 61 L63 63 L59 65 L57 63 C56.83 58.66 60.31 58.68 63 61 z"/>
<path style="fill:#a8a9a9" d="M24 61 C23.78 63.01 25.99 65.22 28 65 C28.46 68.91 33.96 69.77 37 71 L39 71 L39 72 L39 73 C31.97 72.27 23.96 67.18 22 60 C22.66 59.98 24.15 59.82 24 61 z"/>
<path style="fill:#7b7c7c" d="M32 60 L34 62 L35 67 C32.54 70.22 31.83 59.78 29.75 64.75 L28 65 L29 60 C30.18 60.84 30.82 60.84 32 60 z"/>
<path style="fill:#a3a4a4" d="M37 62 L36 62 L36 60 C37.18 59.85 37.02 61.34 37 62 z"/>
<path style="fill:#8b8b8b" d="M71 60 C71.02 60.66 71.18 62.15 70 62 C69.98 61.34 69.82 59.85 71 60 z"/>
<path style="fill:#a0a1a1" d="M17 63 C15.82 63.15 15.98 61.66 16 61 C17.18 60.85 17.02 62.34 17 63 z"/>
<path style="fill:#3b3c3c" d="M36 62 L37 62 L40 66 L40 67 C37.3 67.52 38.95 69.34 39 71 L37 71 C37.85 68.67 35.91 68.26 35 67 L34 62 L36 62 z"/>
<path style="fill:#8b8b8b" d="M70 62 C70.02 62.66 70.18 64.15 69 64 C68.98 63.34 68.82 61.85 70 62 z"/>
<path style="fill:#909191" d="M19 66 C17.71 65.74 16.67 64.34 17 63 C18.29 63.26 19.33 64.66 19 66 z"/>
<path style="fill:#161717" d="M35 67 C35.91 68.26 37.85 68.67 37 71 C33.96 69.77 28.46 68.91 28 65 L29.75 64.75 C31.83 59.78 32.54 70.22 35 67 z"/>
<path style="fill:#939393" d="M49 63 L48 64 L49 63 z"/>
<path style="fill:#141414" d="M48 64 L49 63 C55.28 61.43 47.99 69.72 48 64 z"/>
<path style="fill:#111212" d="M57 63 C56.54 64.35 57.65 65.46 59 65 C59.37 67.69 56.02 68.76 54 69 C53.46 66.5 54.51 63.86 57 63 z"/>
<path style="fill:#858585" d="M59 65 C57.65 65.46 56.54 64.35 57 63 L59 65 z"/>
<path style="fill:#a3a3a3" d="M63 63 C61.21 68.89 54.23 71.35 49 73 L49 71 L53 70 L54 69 C56.02 68.76 59.37 67.69 59 65 L63 63 z"/>
<path style="fill:#9fa0a0" d="M69 64 C69.02 64.66 69.18 66.15 68 66 C67.98 65.34 67.82 63.85 69 64 z"/>
<path style="fill:#808080" d="M20 67 L19 66 L20 67 z"/>
<path style="fill:#999a9a" d="M42 67 L40 67 L40 66 C40.66 65.98 42.15 65.82 42 67 z"/>
<path style="fill:#636363" d="M21 68 L20 67 L21 68 z"/>
<path style="fill:#0f1010" d="M40 67 L42 67 C41.98 67.66 41.82 69.15 43 69 C43.49 71.19 40.6 71.83 39 72 L39 71 C38.95 69.34 37.3 67.52 40 67 z"/>
<path style="fill:#a2a2a2" d="M43 69 C41.82 69.15 41.98 67.66 42 67 C43.18 66.85 43.02 68.34 43 69 z"/>
<path style="fill:#626262" d="M45 67 L45 71 C43.45 70.81 43.45 67.19 45 67 z"/>
<path style="fill:#0e0f0f" d="M48 71 C48.15 72.18 46.66 72.02 46 72 L45 71 L45 67 C48.8 66.1 49.37 68.14 48 71 z"/>
<path style="fill:#121212" d="M53 70 L49 71 C49.83 68.91 54.02 65 53 70 z"/>
<path style="fill:#656565" d="M22 69 L21 68 L22 69 z"/>
<path style="fill:#868686" d="M66 68 L65 69 L66 68 z"/>
<path style="fill:#696969" d="M23 70 L22 69 L23 70 z"/>
<path style="fill:#8d8d8d" d="M65 69 L64 70 L65 69 z"/>
<path style="fill:#6a6a6a" d="M24 71 L23 70 L24 71 z"/>
<path style="fill:#7b7b7b" d="M64 70 L63 71 L64 70 z"/>
<path style="fill:#828282" d="M25 72 L24 71 L25 72 z"/>
<path style="fill:#8d8d8d" d="M46 72 L45 71 L46 72 z"/>
<path style="fill:#737373" d="M63 71 L62 72 L63 71 z"/>
<path style="fill:#919191" d="M26 73 L25 72 L26 73 z"/>
<path style="fill:#9b9b9b" d="M62 72 L61 73 L62 72 z"/>
<path style="fill:#a3a3a3" d="M27 74 L26 73 L27 74 z"/>
<path style="fill:#585858" d="M48 73 C46.66 74.65 41.34 74.65 40 73 L48 73 z"/>
<path style="fill:#9fa0a0" d="M61 73 C61.15 74.18 59.66 74.02 59 74 C58.85 72.82 60.34 72.98 61 73 z"/>
<path style="fill:#828282" d="M29 75 L28 74 L29 75 z"/>
<path style="fill:#9b9b9b" d="M59 74 L58 75 L59 74 z"/>
<path style="fill:#8e8e8e" d="M31 76 L30 75 L31 76 z"/>
<path style="fill:#757575" d="M34 77 C33.34 77.02 31.85 77.18 32 76 C32.66 75.98 34.15 75.82 34 77 z"/>
<path style="fill:#949494" d="M36 78 C35.34 78.02 33.85 78.18 34 77 C34.66 76.98 36.15 76.82 36 78 z"/>
<path style="fill:#aeafaf" d="M53 77 C53.15 78.18 51.66 78.02 51 78 C50.85 76.82 52.34 76.98 53 77 z"/>
<path style="fill:#9b9b9b" d="M48 78 C46.01 79.66 39.99 79.66 38 78 L48 78 z"/>
</svg>
