<?xml version="1.0" standalone="yes"?>
<svg width="87" height="97">
<path style="fill:#fcfdfd" d="M87 0 L87 97 L0 97 L0 0 L87 0 z"/>
<path style="fill:#585959" d="M40 17 C40.15 18.18 38.66 18.02 38 18 C37.85 16.82 39.34 16.98 40 17 z"/>
<path style="fill:#050505" d="M48 17 C47.85 18.18 49.34 18.02 50 18 L54 19 L55 20 L57 21 L58 22 L58 23 L58 27 L58 28 L57 29 L56 31 L49 29 C49.15 27.82 47.66 27.98 47 28 C45.97 26.36 41.03 26.36 40 28 L39 28 C38.34 27.98 36.85 27.82 37 29 C35.15 28.67 33.67 30.54 33 32 L32 31 L31 30 L30 28 L29 27 L29 23 L30 22 L31 21 L32 20 L35 19 C35.66 19.02 37.15 19.18 37 18 L38 18 C38.66 18.02 40.15 18.18 40 17 L48 17 z"/>
<path style="fill:#707171" d="M50 18 C49.34 18.02 47.85 18.18 48 17 C48.66 16.98 50.15 16.82 50 18 z"/>
<path style="fill:#595a5a" d="M37 18 C37.15 19.18 35.66 19.02 35 19 C34.85 17.82 36.34 17.98 37 18 z"/>
<path style="fill:#808080" d="M55 20 L54 19 L55 20 z"/>
<path style="fill:#7b7b7b" d="M32 20 L31 21 L32 20 z"/>
<path style="fill:#616161" d="M31 21 L30 22 L31 21 z"/>
<path style="fill:#9f9f9f" d="M58 22 L57 21 L58 22 z"/>
<path style="fill:#777777" d="M30 22 L29 23 L30 22 z"/>
<path style="fill:#4f5050" d="M59 27 L58 27 L58 23 L59 27 z"/>
<path style="fill:#080808" d="M26 27 L27 28 L28 29 L30 32 L26 38 C24.14 38.34 23.72 40.4 24 42 C19.23 45.12 24.77 51.15 22 55 L21 55 C20.34 54.98 18.85 54.82 19 56 L17 56 C17.15 54.82 15.66 54.98 15 55 C11.42 52.01 11.9 46.54 12 42 C13.18 42.15 13.02 40.66 13 40 L14 36 L15 35 L16 33 L17 32 L18 31 L20 29 L21 28 L26 27 z"/>
<path style="fill:#a7a7a7" d="M27 28 L26 27 L27 28 z"/>
<path style="fill:#606060" d="M30 28 L29 27 L30 28 z"/>
<path style="fill:#424242" d="M47 28 L40 28 C41.03 26.36 45.97 26.36 47 28 z"/>
<path style="fill:#dddddd" d="M59 27 L60 28 L59 30 L58 31 L57 34 L54 34 L54 32 C54.66 32.02 56.15 32.18 56 31 L57 29 L58 28 L58 27 L59 27 z"/>
<path style="fill:#060707" d="M66 28 L67 29 L69 31 L70 32 L71 33 L72 34 L72 35 L73 36 L73 37 C72.98 37.66 72.82 39.15 74 39 L74 40 C73.98 40.66 73.82 42.15 75 42 L75 43 L75 49 L75 51 C73.82 50.85 73.98 52.34 74 53 L71 56 L68 56 C68.15 54.82 66.66 54.98 66 55 L64 55 C66.21 47.85 64.86 36.9 57 34 L58 31 L59 30 L60 28 C61.76 26.64 64.24 26.64 66 28 z"/>
<path style="fill:#7c7c7c" d="M21 28 L20 29 L21 28 z"/>
<path style="fill:#919191" d="M28 29 L27 28 L28 29 z"/>
<path style="fill:#4e4f4f" d="M39 28 L40 29 L40 30 L40 31 L36 32 L36 31 L37 29 C36.85 27.82 38.34 27.98 39 28 z"/>
<path style="fill:#abacac" d="M40 28 L47 28 C47.66 27.98 49.15 27.82 49 29 L40 29 L39 28 L40 28 z"/>
<path style="fill:#747474" d="M58 28 L57 29 L58 28 z"/>
<path style="fill:#696969" d="M67 29 L66 28 L67 29 z"/>
<path style="fill:#9b9c9c" d="M37 29 L36 31 C34.21 31.1 32.89 34.52 35 35 L34 38 L32 38 L32 37 C35.33 35.55 29.27 33.53 29 36 L28 37 L26 38 L30 32 C30.83 33.22 33.24 35.42 33 32 C33.67 30.54 35.15 28.67 37 29 z"/>
<path style="fill:#242525" d="M49 29 L51 31 L48 31 L40 30 L40 29 L49 29 z"/>
<path style="fill:#9e9e9e" d="M56 31 C56.15 32.18 54.66 32.02 54 32 L51 31 L49 29 L56 31 z"/>
<path style="fill:#727272" d="M32 31 L31 30 L32 31 z"/>
<path style="fill:#d7d8d8" d="M48 31 C47.34 30.98 45.85 30.82 46 32 C44.64 30.92 43.36 30.92 42 32 C42.15 30.82 40.66 30.98 40 31 L40 30 L48 31 z"/>
<path style="fill:#6e6e6e" d="M59 30 L58 31 L59 30 z"/>
<path style="fill:#727272" d="M18 31 L17 32 L18 31 z"/>
<path style="fill:#171717" d="M36 31 L36 32 L36 35 L35 35 C32.89 34.52 34.21 31.1 36 31 z"/>
<path style="fill:#f2f2f2" d="M40 31 C40.66 30.98 42.15 30.82 42 32 L38 34 L37 35 L36 35 L36 32 L40 31 z"/>
<path style="fill:#090909" d="M46 32 L46 33 L50 34 C51.25 35.53 51.25 37.47 50 39 L49 40 L45 45 L41 44 L37 38 L37 35 L38 34 C39.55 33.94 42.71 34.68 42 32 C43.36 30.92 44.64 30.92 46 32 z"/>
<path style="fill:#eceded" d="M48 31 L51 31 L52 33 L50 34 L46 33 L46 32 C45.85 30.82 47.34 30.98 48 31 z"/>
<path style="fill:#1b1c1c" d="M54 32 L54 34 L54 35 C52.65 35.46 51.54 34.35 52 33 L51 31 L54 32 z"/>
<path style="fill:#5a5a5a" d="M70 32 L69 31 L70 32 z"/>
<path style="fill:#8d8d8d" d="M17 32 L16 33 L17 32 z"/>
<path style="fill:#7f7f7f" d="M42 32 C42.71 34.68 39.55 33.94 38 34 L42 32 z"/>
<path style="fill:#8f9090" d="M50 34 L46 33 L50 34 z"/>
<path style="fill:#c8c8c8" d="M52 33 C51.54 34.35 52.65 35.46 54 35 C53.33 37.85 56.75 37.11 58 36 L59 37 L60 38 C59.98 38.66 59.82 40.15 61 40 L61 43 C60.81 43.95 61.59 45.94 60 46 C60.34 43.72 60.11 41.37 57.25 41.75 C57.42 39.34 55.57 37.26 53 38 L52 39 L51 40 L49 43 L48 44 L47 46 L45 46 L45 45 L49 40 L50 39 C51.25 37.47 51.25 35.53 50 34 L52 33 z"/>
<path style="fill:#9b9b9b" d="M72 34 L71 33 L72 34 z"/>
<path style="fill:#949595" d="M57 34 C64.86 36.9 66.21 47.85 64 55 L62 54 L63 51 C65.47 48.23 63.23 42.37 61 40 C61.02 39.34 61.18 37.85 60 38 L59 37 L58 36 L54 35 L54 34 L57 34 z"/>
<path style="fill:#a2a2a2" d="M15 35 L14 36 L15 35 z"/>
<path style="fill:#161717" d="M32 37 L31 37 C31.15 35.82 29.66 35.98 29 36 C29.27 33.53 35.33 35.55 32 37 z"/>
<path style="fill:#dedede" d="M36 35 C36.19 35.95 35.41 37.94 37 38 L41 44 L40 45 L38 42 L37 41 L34 38 L35 35 L36 35 z"/>
<path style="fill:#8d8d8d" d="M37 35 L37 38 C35.41 37.94 36.19 35.95 36 35 L37 35 z"/>
<path style="fill:#232424" d="M58 36 C56.75 37.11 53.33 37.85 54 35 L58 36 z"/>
<path style="fill:#797979" d="M73 36 L72 35 L73 36 z"/>
<path style="fill:#080808" d="M29 36 L29 37 L28 37 L29 36 z"/>
<path style="fill:#959595" d="M31 37 L29 37 L29 36 C29.66 35.98 31.15 35.82 31 37 z"/>
<path style="fill:#121212" d="M59 37 L58 36 L59 37 z"/>
<path style="fill:#434343" d="M28 37 L26 43 L25 44 L24 44 L24 42 C25.24 41.39 25.98 39.44 26 38 L28 37 z"/>
<path style="fill:#e8e9e9" d="M29 37 L31 37 L32 37 L32 38 C30.71 38.26 29.67 39.66 30 41 C29.34 40.98 27.85 40.82 28 42 L27 43 L26 43 L28 37 L29 37 z"/>
<path style="fill:#181818" d="M60 38 L59 37 L60 38 z"/>
<path style="fill:#737474" d="M74 39 C72.82 39.15 72.98 37.66 73 37 C74.18 36.85 74.02 38.34 74 39 z"/>
<path style="fill:#a6a6a6" d="M26 38 C25.98 39.44 25.24 41.39 24 42 C23.72 40.4 24.14 38.34 26 38 z"/>
<path style="fill:#0a0a0a" d="M32 38 L34 38 L37 41 L38 42 L40 45 L40 47 C36.13 45 35.25 47.89 39.75 48.25 L33 52 L29 52 L27 50 C27 48.08 28.8 46.71 27 45 L27 43 L28 42 C28.66 42.02 30.15 42.18 30 41 C29.67 39.66 30.71 38.26 32 38 z"/>
<path style="fill:#5c5c5c" d="M53 38 L52 39 L53 38 z"/>
<path style="fill:#080909" d="M60 46 L59 47 L60 51 L59 52 L55 52 C55.15 50.82 53.66 50.98 53 51 C51.17 51.23 48.85 50.5 48 49 C52.09 45.86 49.7 47.03 47 46 L48 44 L49 43 L51 40 L52 39 L53 38 C55.57 37.26 57.42 39.34 57.25 41.75 C60.11 41.37 60.34 43.72 60 46 z"/>
<path style="fill:#333434" d="M61 40 C59.82 40.15 59.98 38.66 60 38 C61.18 37.85 61.02 39.34 61 40 z"/>
<path style="fill:#646464" d="M50 39 L49 40 L50 39 z"/>
<path style="fill:#5e5e5e" d="M52 39 L51 40 L52 39 z"/>
<path style="fill:#a4a4a4" d="M13 40 C13.02 40.66 13.18 42.15 12 42 C11.98 41.34 11.82 39.85 13 40 z"/>
<path style="fill:#4f4f4f" d="M63 51 L62 51 L61 43 L61 40 C63.23 42.37 65.47 48.23 63 51 z"/>
<path style="fill:#757575" d="M75 42 C73.82 42.15 73.98 40.66 74 40 C75.18 39.85 75.02 41.34 75 42 z"/>
<path style="fill:#747474" d="M30 41 C30.15 42.18 28.66 42.02 28 42 C27.85 40.82 29.34 40.98 30 41 z"/>
<path style="fill:#757575" d="M38 42 L37 41 L38 42 z"/>
<path style="fill:#949595" d="M45 45 L45 46 L41 47 L40 47 L40 45 L41 44 L45 45 z"/>
<path style="fill:#7f8080" d="M24 42 L24 44 L24 53 C24.46 54.35 23.35 55.46 22 55 C24.77 51.15 19.23 45.12 24 42 z"/>
<path style="fill:#9e9e9e" d="M26 43 L27 43 L27 45 L25 44 L26 43 z"/>
<path style="fill:#5e5e5e" d="M49 43 L48 44 L49 43 z"/>
<path style="fill:#efefef" d="M62 51 L60 51 L59 47 L60 46 C61.59 45.94 60.81 43.95 61 43 L62 51 z"/>
<path style="fill:#c4c4c4" d="M75 49 L75 43 C76.62 43.73 76.62 48.27 75 49 z"/>
<path style="fill:#2a2b2b" d="M25 44 L25 51 L26 54 L24 53 L24 44 L25 44 z"/>
<path style="fill:#eaebeb" d="M27 45 C28.8 46.71 27 48.08 27 50 C27.15 51.18 25.66 51.02 25 51 L25 44 L27 45 z"/>
<path style="fill:#a7a8a8" d="M40 47 L41 47 C40.41 49.45 41.42 50.85 43 52 L43 53 L40 54 C40.89 48.56 35.59 53.08 33 53 L33 52 L39.75 48.25 C35.25 47.89 36.13 45 40 47 z"/>
<path style="fill:#0b0c0c" d="M45 46 C46.37 47.72 46.75 51.34 44 52 L43 52 C41.42 50.85 40.41 49.45 41 47 L45 46 z"/>
<path style="fill:#8c8c8c" d="M47 46 C49.7 47.03 52.09 45.86 48 49 C46.82 48.85 46.98 50.34 47 51 C49.26 55.3 48.67 57.13 45 53 L44 53 L44 52 C46.75 51.34 46.37 47.72 45 46 L47 46 z"/>
<path style="fill:#5f5f5f" d="M60 46 L59 47 L60 46 z"/>
<path style="fill:#d4d5d5" d="M48 49 C48.85 50.5 51.17 51.23 53 51 C52.85 52.18 54.34 52.02 55 52 L59 52 L59 55 L57 55 L56 54 C56.15 52.82 54.66 52.98 54 53 L47 51 C46.98 50.34 46.82 48.85 48 49 z"/>
<path style="fill:#838383" d="M29 52 C27.41 52.06 28.19 54.05 28 55 L26 55 L26 54 L25 51 C25.66 51.02 27.15 51.18 27 50 L29 52 z"/>
<path style="fill:#0c0c0c" d="M40 54 C38.12 53.86 40.14 55.88 40 54 L43 53 L43 62 L42 63 L41 64 L39 64 L36 63 L33 63 L32 63 C32.59 60.55 31.58 59.15 30 58 L30 55 L33 53 C35.59 53.08 40.89 48.56 40 54 z"/>
<path style="fill:#060606" d="M54 53 C53.85 54.18 55.34 54.02 56 54 L57 55 L57 58 L54 63 L51 63 L50 63 L49 64 L46 64 L45 63 L45 53 C48.67 57.13 49.26 55.3 47 51 L54 53 z"/>
<path style="fill:#606161" d="M55 52 C54.34 52.02 52.85 52.18 53 51 C53.66 50.98 55.15 50.82 55 52 z"/>
<path style="fill:#a6a7a7" d="M60 51 L62 51 L61 54 L61 55 L59 55 L59 52 L60 51 z"/>
<path style="fill:#121212" d="M63 51 L62 54 L61 54 L62 51 L63 51 z"/>
<path style="fill:#888888" d="M75 51 C75.02 51.66 75.18 53.15 74 53 C73.98 52.34 73.82 50.85 75 51 z"/>
<path style="fill:#e3e4e4" d="M29 52 L33 52 L33 53 L30 55 L28 55 C28.19 54.05 27.41 52.06 29 52 z"/>
<path style="fill:#e0e0e0" d="M44 52 L44 53 L45 63 L46 64 L46 65 L43 65 L41 65 L41 64 L42 63 L43 62 L43 53 L43 52 L44 52 z"/>
<path style="fill:#e1e2e2" d="M26 54 L26 55 L26 59 L25 59 L25 57 C25.22 55.67 22.78 55.67 23 57 L22 57 C21.34 56.98 19.85 56.82 20 58 L19 58 L17 56 L19 56 C19.66 56.02 21.15 56.18 21 55 L22 55 C23.35 55.46 24.46 54.35 24 53 L26 54 z"/>
<path style="fill:#464747" d="M45 53 L45 63 L44 53 L45 53 z"/>
<path style="fill:#7a7b7b" d="M56 54 C55.34 54.02 53.85 54.18 54 53 C54.66 52.98 56.15 52.82 56 54 z"/>
<path style="fill:#b6b6b6" d="M40 54 C40.14 55.88 38.12 53.86 40 54 z"/>
<path style="fill:#5a5a5a" d="M57 55 L56 54 L57 55 z"/>
<path style="fill:#dedfdf" d="M62 54 L64 55 L66 55 C65.85 56.18 67.34 56.02 68 56 L71 56 L68 58 L64 57 C63.94 55.41 61.95 56.19 61 56 L61 55 L61 54 L62 54 z"/>
<path style="fill:#565757" d="M17 56 C16.34 56.02 14.85 56.18 15 55 C15.66 54.98 17.15 54.82 17 56 z"/>
<path style="fill:#646565" d="M21 55 C21.15 56.18 19.66 56.02 19 56 C18.85 54.82 20.34 54.98 21 55 z"/>
<path style="fill:#191a1a" d="M28 55 L28 57 C26.82 56.85 26.98 58.34 27 59 L26 59 L26 55 L28 55 z"/>
<path style="fill:#999a9a" d="M30 55 L30 58 L28 57 L28 55 L30 55 z"/>
<path style="fill:#8f8f8f" d="M59 55 L59 57 L57 58 L57 55 L59 55 z"/>
<path style="fill:#111212" d="M61 55 L61 56 C61.28 59.13 60.44 58.94 59 57 L59 55 L61 55 z"/>
<path style="fill:#5f5f5f" d="M68 56 C67.34 56.02 65.85 56.18 66 55 C66.66 54.98 68.15 54.82 68 56 z"/>
<path style="fill:#636464" d="M25 57 L23 57 C22.78 55.67 25.22 55.67 25 57 z"/>
<path style="fill:#9b9b9b" d="M64 57 L59 63 L59 61 C60.06 61.43 60.06 59.57 59 60 L59 57 C60.44 58.94 61.28 59.13 61 56 C61.95 56.19 63.94 55.41 64 57 z"/>
<path style="fill:#585858" d="M22 57 C22.15 58.18 20.66 58.02 20 58 C19.85 56.82 21.34 56.98 22 57 z"/>
<path style="fill:#050606" d="M23 57 L25 57 L25 59 C26.31 61.83 28.63 65.59 32 66 C32.9 68.21 35.75 69.15 38 69 C41.31 69.79 43.01 71.71 42 76 L42 77 L41 78 C39.03 79.56 36.39 78.86 34 79 C34.15 77.82 32.66 77.98 32 78 L31 78 C31.15 76.82 29.66 76.98 29 77 L28 77 L27 76 L25 75 L24 74 L23 73 L22 72 L21 71 L20 70 L19 68 L18 67 L17 64 L17 60 L18 59 L19 58 L20 58 C20.66 58.02 22.15 58.18 22 57 L23 57 z"/>
<path style="fill:#e0e1e1" d="M28 57 L30 58 C31.58 59.15 32.59 60.55 32 63 L30 63 L29 62 C29.33 60.66 28.29 59.26 27 59 C26.98 58.34 26.82 56.85 28 57 z"/>
<path style="fill:#e5e6e6" d="M59 57 L59 60 L59 61 L55 65 L52 66 C51.34 65.98 49.85 65.82 50 67 C48.4 67.28 46.34 66.86 46 65 C46.95 64.81 48.94 65.59 49 64 L50 63 L51 63 C50.96 64.48 54.04 64.48 54 63 L57 58 L59 57 z"/>
<path style="fill:#060707" d="M64 57 L68 58 L69 59 L70 60 L70 65 L70 66 L69 67 L68 69 L67 70 L63 74 L62 75 L56 78 C55.34 77.98 53.85 77.82 54 79 L47 79 L46 78 L45 75 C43.29 69.93 47.39 70.37 50 69 C52.56 68.38 55.92 67.96 57 65 L58 64 L59 63 L64 57 z"/>
<path style="fill:#767676" d="M19 58 L18 59 L19 58 z"/>
<path style="fill:#6f6f6f" d="M69 59 L68 58 L69 59 z"/>
<path style="fill:#979797" d="M26 59 L27 59 C26.67 60.34 27.71 61.74 29 62 L30 63 L32 66 C28.63 65.59 26.31 61.83 25 59 L26 59 z"/>
<path style="fill:#323232" d="M29 62 C27.71 61.74 26.67 60.34 27 59 C28.29 59.26 29.33 60.66 29 62 z"/>
<path style="fill:#939393" d="M17 60 L17 64 C15.45 63.81 15.45 60.19 17 60 z"/>
<path style="fill:#131313" d="M59 61 L59 60 C60.06 59.57 60.06 61.43 59 61 z"/>
<path style="fill:#6e6f6f" d="M70 65 L70 60 C71.6 60.45 71.6 64.55 70 65 z"/>
<path style="fill:#2e2e2e" d="M59 61 L59 63 L58 64 L57 65 L55 65 L59 61 z"/>
<path style="fill:#131313" d="M30 63 L29 62 L30 63 z"/>
<path style="fill:#656565" d="M43 62 L42 63 L43 62 z"/>
<path style="fill:#3e3f3f" d="M32 63 L33 64 L37 67 L37 68 L32 66 L30 63 L32 63 z"/>
<path style="fill:#f6f6f6" d="M33 63 L33 64 L32 63 L33 63 z"/>
<path style="fill:#757575" d="M36 63 C35.94 64.59 33.95 63.81 33 64 L33 63 L36 63 z"/>
<path style="fill:#e7e7e7" d="M39 64 C38.85 65.18 40.34 65.02 41 65 L41 66 L40 67 L37 67 L33 64 C33.95 63.81 35.94 64.59 36 63 L39 64 z"/>
<path style="fill:#747474" d="M50 63 L49 64 L50 63 z"/>
<path style="fill:#585858" d="M54 63 C54.04 64.48 50.96 64.48 51 63 L54 63 z"/>
<path style="fill:#cfcfcf" d="M59 63 L58 64 L59 63 z"/>
<path style="fill:#7c7c7c" d="M41 64 L41 65 C40.34 65.02 38.85 65.18 39 64 L41 64 z"/>
<path style="fill:#6b6c6c" d="M49 64 C48.94 65.59 46.95 64.81 46 65 L46 64 L49 64 z"/>
<path style="fill:#c6c6c6" d="M58 64 L57 65 L58 64 z"/>
<path style="fill:#1d1e1e" d="M43 65 L43 67 C43.15 68.18 41.66 68.02 41 68 L39 68 L37 68 L37 67 L40 67 L41 66 L41 65 L43 65 z"/>
<path style="fill:#3e3e3e" d="M46 65 C46.34 66.86 48.4 67.28 50 67 C51.97 67.21 49.8 68.56 49 68 L46 68 L43 67 L43 65 L46 65 z"/>
<path style="fill:#292a2a" d="M55 65 C54.97 66.33 52.3 68.11 52 66 L55 65 z"/>
<path style="fill:#989898" d="M57 65 C55.92 67.96 52.56 68.38 50 69 L49 68 C49.8 68.56 51.97 67.21 50 67 C49.85 65.82 51.34 65.98 52 66 C52.3 68.11 54.97 66.33 55 65 L57 65 z"/>
<path style="fill:#a1a2a2" d="M37 68 L39 68 L38 69 C35.75 69.15 32.9 68.21 32 66 L37 68 z"/>
<path style="fill:#8c8c8c" d="M41 66 L40 67 L41 66 z"/>
<path style="fill:#777777" d="M70 66 L69 67 L70 66 z"/>
<path style="fill:#6f6f6f" d="M19 68 L18 67 L19 68 z"/>
<path style="fill:#626262" d="M41 68 C43.48 69.1 43.99 74.23 42 76 C43.01 71.71 41.31 69.79 38 69 L39 68 L41 68 z"/>
<path style="fill:#7b7b7b" d="M49 68 L50 69 C47.39 70.37 43.29 69.93 45 75 C42.86 73.45 43.79 68.94 46 68 L49 68 z"/>
<path style="fill:#7a7a7a" d="M68 69 L67 70 L68 69 z"/>
<path style="fill:#737373" d="M21 71 L20 70 L21 71 z"/>
<path style="fill:#666666" d="M23 73 L22 72 L23 73 z"/>
<path style="fill:#909090" d="M24 74 L23 73 L24 74 z"/>
<path style="fill:#a7a7a7" d="M25 75 L24 74 L25 75 z"/>
<path style="fill:#6f6f6f" d="M63 74 L62 75 L63 74 z"/>
<path style="fill:#7e7e7e" d="M28 77 L27 76 L28 77 z"/>
<path style="fill:#585858" d="M31 78 C30.34 78.02 28.85 78.18 29 77 C29.66 76.98 31.15 76.82 31 78 z"/>
<path style="fill:#959595" d="M42 77 L41 78 L42 77 z"/>
<path style="fill:#7c7d7d" d="M34 79 C33.34 79.02 31.85 79.18 32 78 C32.66 77.98 34.15 77.82 34 79 z"/>
<path style="fill:#a2a2a2" d="M47 79 L46 78 L47 79 z"/>
<path style="fill:#939494" d="M56 78 C56.15 79.18 54.66 79.02 54 79 C53.85 77.82 55.34 77.98 56 78 z"/>
</svg>
