<?xml version="1.0" standalone="yes"?>
<svg width="87" height="97">
<path style="fill:#fcfdfd" d="M87 0 L87 97 L0 97 L0 0 L87 0 z"/>
<path style="fill:#6b6b6b" d="M40 16 L36 17 L40 16 z"/>
<path style="fill:#060606" d="M48 16 L52 17 C51.85 18.18 53.34 18.02 54 18 L58 19 L59 20 L60 21 L60 26 C58.41 33.11 53.45 29.3 49 28 L45 27 C39.89 26.8 34.93 27.79 31 31 C28.95 28.77 26.31 25.61 27 22 L28 21 L28 20 L29 19 L30 19 C30.66 19.02 32.15 19.18 32 18 L36 17 L40 16 L48 16 z"/>
<path style="fill:#9d9d9d" d="M52 17 L48 16 L52 17 z"/>
<path style="fill:#696a6a" d="M54 18 C53.34 18.02 51.85 18.18 52 17 C52.66 16.98 54.15 16.82 54 18 z"/>
<path style="fill:#555555" d="M32 18 C32.15 19.18 30.66 19.02 30 19 C29.85 17.82 31.34 17.98 32 18 z"/>
<path style="fill:#a2a2a2" d="M29 19 L28 20 L29 19 z"/>
<path style="fill:#939393" d="M59 20 L58 19 L59 20 z"/>
<path style="fill:#7e7e7e" d="M60 21 L59 20 L60 21 z"/>
<path style="fill:#5f5f5f" d="M28 21 L27 22 L28 21 z"/>
<path style="fill:#4d4e4e" d="M61 26 L60 26 L60 21 L61 26 z"/>
<path style="fill:#9f9f9f" d="M27 22 C26.31 25.61 28.95 28.77 31 31 C34.93 27.79 39.89 26.8 45 27 L41 29 C37.59 28.73 34.6 30.05 32 32 C29.98 31.55 30.07 32.84 31 34 C22.96 36.4 21.35 47.23 22 55 L23 58 L16 60 L16 59 L20.75 56.75 C13.94 44.48 32.62 35.16 26 26 L27 22 z"/>
<path style="fill:#9a9a9a" d="M25 26 L20 26 C20.45 24.4 24.55 24.4 25 26 z"/>
<path style="fill:#6e6e6e" d="M20 26 L19 27 L20 26 z"/>
<path style="fill:#050606" d="M25 26 L26 26 C32.62 35.16 13.94 44.48 20.75 56.75 L16 59 L12 58 L11 57 L10 55 L10 46 L10 44 C11.18 44.15 11.02 42.66 11 42 L11 40 C12.18 40.15 12.02 38.66 12 38 C12.02 36.56 12.76 34.61 14 34 C15.18 34.15 15.02 32.66 15 32 L16 30 L17 29 L18 28 L19 27 L20 26 L25 26 z"/>
<path style="fill:#a2a2a2" d="M61 26 L62 26 L62 27 C53.93 31.35 63 35.6 64 41 L63 42 C62.9 39 57.62 31.46 55.25 35.75 L57 36 C57.15 37.18 55.66 37.02 55 37 C50.93 32.55 46.98 43.29 50 43 L51 43 L47 47 L45 46 L49 34 C50.82 35.77 52.79 34.57 52 32 C57.18 38.49 52.89 26.94 47 29 C46.85 27.82 48.34 27.98 49 28 C53.45 29.3 58.41 33.11 60 26 L61 26 z"/>
<path style="fill:#585858" d="M67 27 L62 27 L62 26 L67 27 z"/>
<path style="fill:#717171" d="M19 27 L18 28 L19 27 z"/>
<path style="fill:#717171" d="M49 28 C48.34 27.98 46.85 27.82 47 29 L41 29 L45 27 L49 28 z"/>
<path style="fill:#060606" d="M62 27 L67 27 L68 27 L69 28 L70 29 L70 30 L71 31 L72 33 L73 34 L73 35 C72.98 35.66 72.82 37.15 74 37 L75 38 L75 40 L76 44 L76 48 L76 56 L76 58 L75 59 L74 59 L70 59 C62.05 59.3 67.41 51.32 66 46 L64 41 C63 35.6 53.93 31.35 62 27 z"/>
<path style="fill:#818181" d="M69 28 L68 27 L69 28 z"/>
<path style="fill:#777777" d="M18 28 L17 29 L18 28 z"/>
<path style="fill:#a9a9a9" d="M70 29 L69 28 L70 29 z"/>
<path style="fill:#959595" d="M17 29 L16 30 L17 29 z"/>
<path style="fill:#2e2f2f" d="M41 29 L47 29 C52.89 26.94 57.18 38.49 52 32 C46.92 29.52 39.56 29.01 35 32 C33.82 31.85 33.98 33.34 34 34 L32 32 C34.6 30.05 37.59 28.73 41 29 z"/>
<path style="fill:#e0e1e1" d="M52 32 C52.79 34.57 50.82 35.77 49 34 L45 32 C45.04 30.52 41.96 30.52 42 32 L38 34 L36 36 C35.02 33.45 31.46 37.23 32 39 C31.34 38.98 29.85 38.82 30 40 L29 41 L28 42 L27 43 C25.41 43.06 26.19 45.05 26 46 L26 48 C25.67 49.34 26.71 50.74 28 51 L28 52 L27 53 L25 53 C20.99 49.88 24.93 35.93 31.75 35.75 C32.25 35.17 32 33.83 31 34 C30.07 32.84 29.98 31.55 32 32 L34 34 C35.18 34.15 35.02 32.66 35 32 C39.56 29.01 46.92 29.52 52 32 z"/>
<path style="fill:#767676" d="M71 31 L70 30 L71 31 z"/>
<path style="fill:#969696" d="M45 32 L42 32 C41.96 30.52 45.04 30.52 45 32 z"/>
<path style="fill:#585959" d="M15 32 C15.02 32.66 15.18 34.15 14 34 C13.98 33.34 13.82 31.85 15 32 z"/>
<path style="fill:#868787" d="M35 32 C35.02 32.66 35.18 34.15 34 34 C33.98 33.34 33.82 31.85 35 32 z"/>
<path style="fill:#0d0e0e" d="M42 32 L45 32 L49 34 L45 46 L43.75 41.25 L42 46 C40.38 42.08 37.15 38.64 38 34 L42 32 z"/>
<path style="fill:#858585" d="M73 34 L72 33 L73 34 z"/>
<path style="fill:#313131" d="M31 34 C32 33.83 32.25 35.17 31.75 35.75 C24.93 35.93 20.99 49.88 25 53 C25.46 54.35 24.35 55.46 23 55 L22 55 C21.35 47.23 22.96 36.4 31 34 z"/>
<path style="fill:#979797" d="M38 34 C37.15 38.64 40.38 42.08 42 46 L40 47 L38 45 C39.29 43.65 39.15 41.41 37 41 L36 36 L38 34 z"/>
<path style="fill:#272727" d="M63 42 L62 43 L61 40 L60 39 L57 36 L55.25 35.75 C57.62 31.46 62.9 39 63 42 z"/>
<path style="fill:#1e1f1f" d="M36 36 L37 41 L36 41 L32 39 C31.46 37.23 35.02 33.45 36 36 z"/>
<path style="fill:#707070" d="M74 37 C72.82 37.15 72.98 35.66 73 35 C74.18 34.85 74.02 36.34 74 37 z"/>
<path style="fill:#1e1f1f" d="M55 37 L55 38 L50 43 C46.98 43.29 50.93 32.55 55 37 z"/>
<path style="fill:#e7e7e7" d="M60 39 L61 40 L62 43 L63 44 L62 54 L60 53 L53 53 L60 51 L61 47 L61 44 L60 43 L57 40 L55 38 L55 37 C55.66 37.02 57.15 37.18 57 36 L60 39 z"/>
<path style="fill:#a1a1a1" d="M75 38 L74 37 L75 38 z"/>
<path style="fill:#6d6d6d" d="M12 38 C12.02 38.66 12.18 40.15 11 40 C10.98 39.34 10.82 37.85 12 38 z"/>
<path style="fill:#b8b8b8" d="M57 40 L51 43 L50 43 L55 38 L57 40 z"/>
<path style="fill:#6c6d6d" d="M32 39 L32 40 L30 40 C29.85 38.82 31.34 38.98 32 39 z"/>
<path style="fill:#c3c4c4" d="M36 41 L35 42 L32 40 L32 39 L36 41 z"/>
<path style="fill:#8f8f8f" d="M61 40 L60 39 L61 40 z"/>
<path style="fill:#aeaeae" d="M11 40 L11 42 L10 42 C9.981 41.34 9.819 39.85 11 40 z"/>
<path style="fill:#0b0c0c" d="M30 40 L32 40 L35 42 L38 45 L40 47 L35.25 47.25 L39 50 L34 51 L28 51 C26.71 50.74 25.67 49.34 26 48 C27.33 48.22 27.33 45.78 26 46 C26.19 45.05 25.41 43.06 27 43 L28 42 L29 41 L30 40 z"/>
<path style="fill:#0d0d0d" d="M57 40 L60 43 L61 44 L61 47 L60 51 L48 50 L51.75 47.25 L47 47 L51 43 L57 40 z"/>
<path style="fill:#4b4b4b" d="M76 44 L75 40 L76 44 z"/>
<path style="fill:#717171" d="M29 41 L28 42 L29 41 z"/>
<path style="fill:#676767" d="M37 41 C39.15 41.41 39.29 43.65 38 45 L35 42 L36 41 L37 41 z"/>
<path style="fill:#cbcbcb" d="M45 46 L47 47 L51.75 47.25 L48 50 C48.46 51.35 47.35 52.46 46 52 C45.81 51.05 46.59 49.06 45 49 C43.24 46.14 39.51 48.98 41 52 L40 53 L39 50 L35.25 47.25 L40 47 L42 46 L43.75 41.25 L45 46 z"/>
<path style="fill:#878787" d="M66 46 L65 47 L63 44 L62 43 L63 42 L64 41 L66 46 z"/>
<path style="fill:#595959" d="M11 42 C11.02 42.66 11.18 44.15 10 44 L10 42 L11 42 z"/>
<path style="fill:#868686" d="M28 42 L27 43 L28 42 z"/>
<path style="fill:#7a7a7a" d="M61 44 L60 43 L61 44 z"/>
<path style="fill:#393a3a" d="M65 47 C67.2 50.47 62.19 59.95 62 54 L63 44 L65 47 z"/>
<path style="fill:#868686" d="M77 48 L76 48 L76 44 L77 48 z"/>
<path style="fill:#8a8b8b" d="M10 46 L10 55 C8.349 53.34 8.349 47.66 10 46 z"/>
<path style="fill:#5a5a5a" d="M26 48 L26 46 C27.33 45.78 27.33 48.22 26 48 z"/>
<path style="fill:#b3b4b4" d="M66 46 C67.41 51.32 62.05 59.3 70 59 L69 60 C61.52 56.15 61.21 69.06 54 70 L53 69 C56.21 67.47 60.25 64.64 61 61 C62.96 60.75 62.09 56.99 60 58 L59 58 L60 53 L62 54 C62.19 59.95 67.2 50.47 65 47 L66 46 z"/>
<path style="fill:#646464" d="M61 47 L60 51 L61 47 z"/>
<path style="fill:#111212" d="M45 49 L45 52 C43.64 53.08 42.36 53.08 41 52 C39.51 48.98 43.24 46.14 45 49 z"/>
<path style="fill:#3a3a3a" d="M77 48 L77 56 L76 56 L76 48 L77 48 z"/>
<path style="fill:#5c5c5c" d="M46 52 L45 52 L45 49 C46.59 49.06 45.81 51.05 46 52 z"/>
<path style="fill:#808080" d="M39 50 L40 53 L35 54 L36 52 C38.28 51.23 34.77 50.68 34 51 L39 50 z"/>
<path style="fill:#919191" d="M60 51 L53 53 L57 58 C53.27 57.01 44.46 49.58 48.75 56.75 C42.26 52.62 45.92 62.43 47 66 L46 66 L43 59 L46 52 C47.35 52.46 48.46 51.35 48 50 L60 51 z"/>
<path style="fill:#b8b9b9" d="M34 51 C34.77 50.68 38.28 51.23 36 52 L28 52 L28 51 L34 51 z"/>
<path style="fill:#646464" d="M28 52 L36 52 L35 54 L34 54 L27 53 L28 52 z"/>
<path style="fill:#b6b7b7" d="M45 52 L46 52 L43 59 L40 65 C40.19 61.67 44.08 50.21 39 57 L38 56 L40 53 L41 52 C42.36 53.08 43.64 53.08 45 52 z"/>
<path style="fill:#a3a3a3" d="M27 53 L28 57 L26 59 C26.02 58.34 26.18 56.85 25 57 L23 55 C24.35 55.46 25.46 54.35 25 53 L27 53 z"/>
<path style="fill:#090909" d="M34 54 L28 57 L27 53 L34 54 z"/>
<path style="fill:#0b0b0b" d="M40 53 L38 56 C35.34 56.33 38.67 59.66 39 57 C44.08 50.21 40.19 61.67 40 65 L39 65 L33 65 L31 62 L30 61 L35 54 L40 53 z"/>
<path style="fill:#0a0a0a" d="M57 58 L57 59 L57 61 L56 62 C54.82 61.85 54.98 63.34 55 64 C54.66 65.86 52.6 66.28 51 66 L48 66 L47 66 C45.92 62.43 42.26 52.62 48.75 56.75 C44.46 49.58 53.27 57.01 57 58 z"/>
<path style="fill:#181919" d="M53 53 L60 53 L59 58 L57 58 L53 53 z"/>
<path style="fill:#a9aaaa" d="M34 54 L35 54 L30 61 L28 57 L34 54 z"/>
<path style="fill:#c0c1c1" d="M23 55 L25 57 C22.66 58.18 25.08 62.31 27 63 L28 64 L29 65 L30 66 C31.12 69.99 42.73 73.15 41 69 L41 67 C42.71 68.8 44.08 67 46 67 L46 69 C44.65 68.54 43.54 69.65 44 71 L44 73 L43 73 C43.22 71.67 40.78 71.67 41 73 L40 73 C40.15 71.82 38.66 71.98 38 72 C31.02 71 23.96 65.14 23 58 L22 55 L23 55 z"/>
<path style="fill:#5b5c5c" d="M38 56 L39 57 C38.67 59.66 35.34 56.33 38 56 z"/>
<path style="fill:#a2a2a2" d="M77 56 C77.02 56.66 77.18 58.15 76 58 L76 56 L77 56 z"/>
<path style="fill:#838383" d="M12 58 L11 57 L12 58 z"/>
<path style="fill:#2c2d2d" d="M25 57 C26.18 56.85 26.02 58.34 26 59 L27 62 L27 63 C25.08 62.31 22.66 58.18 25 57 z"/>
<path style="fill:#f1f2f2" d="M28 57 L30 61 L31 62 C30.81 62.95 31.59 64.94 30 65 L29 64 L28 63 L27 62 L26 59 L28 57 z"/>
<path style="fill:#070808" d="M23 58 C23.96 65.14 31.02 71 38 72 C37.85 73.18 39.34 73.02 40 73 L41 73 L42 80 L42 81 L40 83 L36 83 L35 83 C35.15 81.82 33.66 81.98 33 82 L32 82 L31 81 L28 80 L27 79 L23 77 L22 76 L21 75 L20 74 L17 71 L16 70 L15 68 L14 67 L14 66 L14 62 L16 60 L23 58 z"/>
<path style="fill:#edeeee" d="M59 58 L60 58 L60 59 L60 61 L52 69 L50 69 L49 70 C48.05 69.81 46.06 70.59 46 69 L46 67 L46 66 L47 66 L48 66 C47.96 67.48 51.04 67.48 51 66 C52.6 66.28 54.66 65.86 55 64 C56.18 64.15 56.02 62.66 56 62 L57 61 C58.33 61.22 58.33 58.78 57 59 L57 58 L59 58 z"/>
<path style="fill:#272828" d="M61 61 C61.02 60.34 61.18 58.85 60 59 L60 58 C62.09 56.99 62.96 60.75 61 61 z"/>
<path style="fill:#a9a9a9" d="M76 58 L75 59 L76 58 z"/>
<path style="fill:#252626" d="M46 66 L46 67 C44.08 67 42.71 68.8 41 67 C39.82 67.15 39.98 65.66 40 65 L43 59 L46 66 z"/>
<path style="fill:#828282" d="M57 61 L57 59 C58.33 58.78 58.33 61.22 57 61 z"/>
<path style="fill:#9a9b9b" d="M61 61 L60 61 L60 59 C61.18 58.85 61.02 60.34 61 61 z"/>
<path style="fill:#060606" d="M69 60 C68.85 61.18 70.34 61.02 71 61 C74.88 62.56 72.52 67.53 71 70 L70 71 L69 72 L68 73 L67 74 L66 75 L65 76 L64 77 L62 78 L61 79 L60 80 L55 82 C54.34 81.98 52.85 81.82 53 83 L52 83 L47 83 L46 83 L45 82 L44 81 L44 73 C47.43 72.7 51.69 72.47 54 70 C61.21 69.06 61.52 56.15 69 60 z"/>
<path style="fill:#626262" d="M74 59 L71 61 C70.34 61.02 68.85 61.18 69 60 L70 59 L74 59 z"/>
<path style="fill:#606060" d="M57 61 L56 62 L57 61 z"/>
<path style="fill:#3b3c3c" d="M61 61 C60.25 64.64 56.21 67.47 53 69 L52 69 L60 61 L61 61 z"/>
<path style="fill:#8c8c8c" d="M14 62 L14 66 C12.45 65.81 12.45 62.19 14 62 z"/>
<path style="fill:#8d8d8d" d="M28 63 L27 63 L27 62 L28 63 z"/>
<path style="fill:#dfdfdf" d="M33 65 C33.73 66.62 38.27 66.62 39 65 L40 65 C39.98 65.66 39.82 67.15 41 67 L41 69 L30 66 L30 65 C31.59 64.94 30.81 62.95 31 62 L33 65 z"/>
<path style="fill:#6f7070" d="M56 62 C56.02 62.66 56.18 64.15 55 64 C54.98 63.34 54.82 61.85 56 62 z"/>
<path style="fill:#0b0b0b" d="M28 63 L28 64 L27 63 L28 63 z"/>
<path style="fill:#919191" d="M29 64 L28 64 L28 63 L29 64 z"/>
<path style="fill:#0" d="M29 64 L29 65 L28 64 L29 64 z"/>
<path style="fill:#9c9c9c" d="M30 65 L29 65 L29 64 L30 65 z"/>
<path style="fill:#0" d="M30 65 L30 66 L29 65 L30 65 z"/>
<path style="fill:#545454" d="M39 65 C38.27 66.62 33.73 66.62 33 65 L39 65 z"/>
<path style="fill:#2f2f2f" d="M41 69 C42.73 73.15 31.12 69.99 30 66 L41 69 z"/>
<path style="fill:#929292" d="M51 66 C51.04 67.48 47.96 67.48 48 66 L51 66 z"/>
<path style="fill:#969696" d="M15 68 L14 67 L15 68 z"/>
<path style="fill:#1d1d1d" d="M46 69 C46.06 70.59 48.05 69.81 49 70 L50 70 L44 71 C43.54 69.65 44.65 68.54 46 69 z"/>
<path style="fill:#898989" d="M50 69 L50 70 L49 70 L50 69 z"/>
<path style="fill:#151515" d="M52 69 C52.15 70.18 50.66 70.02 50 70 L50 69 L52 69 z"/>
<path style="fill:#a2a2a2" d="M53 69 L54 70 C51.69 72.47 47.43 72.7 44 73 L44 71 L50 70 C50.66 70.02 52.15 70.18 52 69 L53 69 z"/>
<path style="fill:#737373" d="M17 71 L16 70 L17 71 z"/>
<path style="fill:#9c9c9c" d="M71 70 L70 71 L71 70 z"/>
<path style="fill:#8d8d8d" d="M70 71 L69 72 L70 71 z"/>
<path style="fill:#565656" d="M40 73 C39.34 73.02 37.85 73.18 38 72 C38.66 71.98 40.15 71.82 40 73 z"/>
<path style="fill:#555656" d="M43 73 L42 80 L41 73 C40.78 71.67 43.22 71.67 43 73 z"/>
<path style="fill:#969696" d="M69 72 L68 73 L69 72 z"/>
<path style="fill:#9a9b9b" d="M44 73 L44 81 L42 81 L42 80 L43 73 L44 73 z"/>
<path style="fill:#8f8f8f" d="M68 73 L67 74 L68 73 z"/>
<path style="fill:#5d5d5d" d="M21 75 L20 74 L21 75 z"/>
<path style="fill:#818181" d="M67 74 L66 75 L67 74 z"/>
<path style="fill:#747474" d="M22 76 L21 75 L22 76 z"/>
<path style="fill:#858585" d="M66 75 L65 76 L66 75 z"/>
<path style="fill:#9b9b9b" d="M23 77 L22 76 L23 77 z"/>
<path style="fill:#7c7c7c" d="M65 76 L64 77 L65 76 z"/>
<path style="fill:#626262" d="M62 78 L61 79 L62 78 z"/>
<path style="fill:#686868" d="M28 80 L27 79 L28 80 z"/>
<path style="fill:#a6a6a6" d="M61 79 L60 80 L61 79 z"/>
<path style="fill:#9d9d9d" d="M32 82 L31 81 L32 82 z"/>
<path style="fill:#727272" d="M45 82 L44 81 L45 82 z"/>
<path style="fill:#939393" d="M35 83 C34.34 83.02 32.85 83.18 33 82 C33.66 81.98 35.15 81.82 35 83 z"/>
<path style="fill:#767676" d="M46 83 L45 82 L46 83 z"/>
<path style="fill:#aaabab" d="M55 82 C55.15 83.18 53.66 83.02 53 83 C52.85 81.82 54.34 81.98 55 82 z"/>
<path style="fill:#9c9d9d" d="M40 83 C39.81 84.55 36.19 84.55 36 83 L40 83 z"/>
<path style="fill:#929393" d="M52 83 C51.55 84.6 47.45 84.6 47 83 L52 83 z"/>
</svg>
