<?xml version="1.0" standalone="yes"?>
<svg width="87" height="97">
<path style="fill:#fcfdfd" d="M87 0 L87 97 L0 97 L0 0 L87 0 z"/>
<path style="fill:#6b6b6b" d="M44 18 L40 18 C40.19 16.45 43.81 16.45 44 18 z"/>
<path style="fill:#080909" d="M40 18 L44 18 L45 18 L46 19 L47 20 L47 24 C44.68 29.13 44.1 36.03 43 42 L40 33 C39.81 32.05 40.59 30.06 39 30 L38 20 L39 19 L40 18 z"/>
<path style="fill:#888888" d="M46 19 L45 18 L46 19 z"/>
<path style="fill:#898989" d="M34 20 L30 20 C30.19 18.45 33.81 18.45 34 20 z"/>
<path style="fill:#5f5f5f" d="M39 19 L38 20 L39 19 z"/>
<path style="fill:#999999" d="M47 20 L46 19 L47 20 z"/>
<path style="fill:#777777" d="M54 20 L51 20 C50.96 18.52 54.04 18.52 54 20 z"/>
<path style="fill:#a6a6a6" d="M29 20 L28 21 L29 20 z"/>
<path style="fill:#080909" d="M30 20 L34 20 L35 20 L36 21 L36 22 C37.36 23.7 36.98 25.91 37 28 C36.98 28.66 36.82 30.15 38 30 L38 32 C38.19 32.95 37.41 34.94 39 35 C40.5 38.82 39.97 46.45 37 39 L36 38 L28 26 L28 22 L28 21 L29 20 L30 20 z"/>
<path style="fill:#a7a7a7" d="M36 21 L35 20 L36 21 z"/>
<path style="fill:#bababa" d="M38 20 L39 30 C39.02 30.66 39.18 32.15 38 32 L38 30 C38.02 29.34 38.18 27.85 37 28 C36.98 25.91 37.36 23.7 36 22 L38 20 z"/>
<path style="fill:#696969" d="M50 20 L49 21 L50 20 z"/>
<path style="fill:#080909" d="M51 20 L54 20 C54.66 19.98 56.15 19.82 56 21 L57 22 L57 25 L57 26 L46 42 L48 26 L48 23 C49.18 23.15 49.02 21.66 49 21 L50 20 L51 20 z"/>
<path style="fill:#606161" d="M49 21 C49.02 21.66 49.18 23.15 48 23 C47.98 22.34 47.82 20.85 49 21 z"/>
<path style="fill:#696969" d="M57 22 L56 21 L57 22 z"/>
<path style="fill:#646464" d="M28 22 L28 26 L27 26 L28 22 z"/>
<path style="fill:#acacac" d="M57 25 L57 22 C58.48 21.96 58.48 25.04 57 25 z"/>
<path style="fill:#9fa0a0" d="M47 24 C46.98 24.66 46.82 26.15 48 26 L46 42 C45.73 44.02 43.9 42.32 43 42 C44.1 36.03 44.68 29.13 47 24 z"/>
<path style="fill:#0c0c0c" d="M26 26 L38 44 L31 41 L19 32 L19 31 L19 28 C19.71 25.2 24.43 23.58 26 26 z"/>
<path style="fill:#0b0c0c" d="M63 25 L64 26 L65 27 L66 28 L66 31 L65 32 L64 34 L47.25 43.75 C49.48 37.94 54.28 32.4 58 27 C58.46 24.63 61.17 24.92 63 25 z"/>
<path style="fill:#797979" d="M64 26 L63 25 L64 26 z"/>
<path style="fill:#b8b9b9" d="M27 26 L28 26 L36 38 L37 39 C39.97 46.45 40.5 38.82 39 35 C38.98 34.34 38.82 32.85 40 33 L43 42 C43.9 42.32 45.73 44.02 46 42 L57 26 L58 27 C54.28 32.4 49.48 37.94 47.25 43.75 L64 34 L65 34 L64 35 L63 36 L49 45 C47.82 44.85 47.98 46.34 48 47 L47 47 L47 46 L46 45 C42.5 42.06 36.48 45.19 38 50 L36 49 C36.15 47.82 34.66 47.98 34 48 C34.15 46.82 32.66 46.98 32 47 L18 44 L19 43 L35 46 C36.08 48.66 37.53 45.18 38 44 L26 26 L27 26 z"/>
<path style="fill:#626262" d="M65 27 L64 26 L65 27 z"/>
<path style="fill:#9a9a9a" d="M66 28 L65 27 L66 28 z"/>
<path style="fill:#9b9c9c" d="M19 28 L19 31 C17.52 31.04 17.52 27.96 19 28 z"/>
<path style="fill:#5b5c5c" d="M38 30 C36.82 30.15 36.98 28.66 37 28 C38.18 27.85 38.02 29.34 38 30 z"/>
<path style="fill:#727373" d="M40 33 C38.82 32.85 38.98 34.34 39 35 C37.41 34.94 38.19 32.95 38 32 C39.18 32.15 39.02 30.66 39 30 C40.59 30.06 39.81 32.05 40 33 z"/>
<path style="fill:#656565" d="M66 31 L65 32 L66 31 z"/>
<path style="fill:#babbbb" d="M31 41 L30 41 L16 34 L19 32 L31 41 z"/>
<path style="fill:#aaabab" d="M69 34 L66 34 C65.96 32.52 69.04 32.52 69 34 z"/>
<path style="fill:#a5a5a5" d="M15 34 L14 35 L15 34 z"/>
<path style="fill:#0b0b0b" d="M16 34 L30 41 L35 46 L19 43 C14.19 44.52 11.06 38.5 14 35 L15 34 L16 34 z"/>
<path style="fill:#090909" d="M66 34 L69 34 L71 36 L72 37 L72 40 L71 41 L70 42 L61 44 C60.05 44.19 58.06 43.41 58 45 L49 45 L63 36 L64 35 L65 34 L66 34 z"/>
<path style="fill:#616161" d="M64 35 L63 36 L64 35 z"/>
<path style="fill:#919191" d="M72 37 L71 36 L72 37 z"/>
<path style="fill:#616161" d="M37 39 L36 38 L37 39 z"/>
<path style="fill:#999999" d="M72 40 L71 41 L72 40 z"/>
<path style="fill:#9d9e9e" d="M31 41 L38 44 C37.53 45.18 36.08 48.66 35 46 L30 41 L31 41 z"/>
<path style="fill:#7b7b7b" d="M71 41 L70 42 L71 41 z"/>
<path style="fill:#b7b7b7" d="M70 42 L70 44 L64 45 C63.05 44.81 61.06 45.59 61 44 L70 42 z"/>
<path style="fill:#0b0c0c" d="M18 44 L32 47 C31.85 48.18 33.34 48.02 34 48 C34.66 47.98 36.15 47.82 36 49 L32 50 L30 50 C29.05 50.19 27.06 49.41 27 51 L26 51 C21.49 51.53 16.47 54.53 12 52 L11 51 L11 50 L11 47 C11.98 43.97 15.25 43.63 18 44 z"/>
<path style="fill:#040404" d="M46 45 L47 46 L47 47 L47 50 C45.64 54.02 40.39 53.73 38 51 L38 50 C36.48 45.19 42.5 42.06 46 45 z"/>
<path style="fill:#5a5a5a" d="M61 44 C61.06 45.59 63.05 44.81 64 45 L60 46 C60.15 44.82 58.66 44.98 58 45 C58.06 43.41 60.05 44.19 61 44 z"/>
<path style="fill:#090909" d="M70 44 L73 45 L74 46 L74 47 L74 50 L74 51 L73 52 L68 53 C68.15 51.82 66.66 51.98 66 52 L60 51 L53 50 L49 49 L49 48 L60 46 L64 45 L70 44 z"/>
<path style="fill:#5f5f5f" d="M47 46 L46 45 L47 46 z"/>
<path style="fill:#a5a5a5" d="M49 45 L58 45 C58.66 44.98 60.15 44.82 60 46 L49 48 L48 47 C47.98 46.34 47.82 44.85 49 45 z"/>
<path style="fill:#848484" d="M74 46 L73 45 L74 46 z"/>
<path style="fill:#9fa0a0" d="M11 47 L11 50 C9.522 50.04 9.522 46.96 11 47 z"/>
<path style="fill:#5a5a5a" d="M34 48 C33.34 48.02 31.85 48.18 32 47 C32.66 46.98 34.15 46.82 34 48 z"/>
<path style="fill:#666767" d="M48 47 L48 50 L47 50 L47 47 L48 47 z"/>
<path style="fill:#e7e7e7" d="M49 48 L49 49 C50.27 50.2 51.82 51.05 50 53 L50 56 C47.3 55.48 48.95 53.66 49 52 L48 50 L48 47 L49 48 z"/>
<path style="fill:#8c8c8c" d="M74 50 L74 47 C75.48 46.96 75.48 50.04 74 50 z"/>
<path style="fill:#767676" d="M36 49 L32 50 L36 49 z"/>
<path style="fill:#d3d4d4" d="M38 50 L38 51 L38 52 L37 52 L34 52 C33.3 49.48 30.78 52.73 34 52 L34 53 L33 57 L30 54 C30.71 51.32 27.55 52.06 26 52 L26 51 L27 51 C27.95 50.81 29.94 51.59 30 50 L32 50 L36 49 L38 50 z"/>
<path style="fill:#939393" d="M53 50 C54.75 51.88 52.63 51.6 52 53 L50 53 C51.82 51.05 50.27 50.2 49 49 L53 50 z"/>
<path style="fill:#636464" d="M30 50 C29.94 51.59 27.95 50.81 27 51 C27.06 49.41 29.05 50.19 30 50 z"/>
<path style="fill:#b2b2b2" d="M48 50 L49 52 C45.8 51.85 46 55.51 48 57 L47 57 L45 55 L40 54 L38 54 L38 52 L38 51 C40.39 53.73 45.64 54.02 47 50 L48 50 z"/>
<path style="fill:#cdcece" d="M60 51 L60 52 C53.21 51.4 57.66 55.5 62 54 L60 56 L61 57 C62.85 58.95 59.8 59.52 59 61 L58 57 L56 59 C56.08 57.17 56.37 54.46 54 54 L53 54 L52 53 C52.63 51.6 54.75 51.88 53 50 L60 51 z"/>
<path style="fill:#a6a6a6" d="M12 52 L11 51 L12 52 z"/>
<path style="fill:#bbbcbc" d="M26 51 L26 52 L21 54 L12 54 L12 52 C16.47 54.53 21.49 51.53 26 51 z"/>
<path style="fill:#5a5b5b" d="M34 52 C30.78 52.73 33.3 49.48 34 52 z"/>
<path style="fill:#b7b8b8" d="M66 52 C65.85 53.18 67.34 53.02 68 53 L73 52 L73 54 L64 54 L60 52 L60 51 L66 52 z"/>
<path style="fill:#989898" d="M74 51 L73 52 L74 51 z"/>
<path style="fill:#262727" d="M30 54 L24 54 L21 55 L21 54 L26 52 C27.55 52.06 30.71 51.32 30 54 z"/>
<path style="fill:#7c7d7d" d="M37 52 L37 54 C35.82 53.85 35.98 55.34 36 56 L34 58 L31 58 C30.81 57.05 31.59 55.06 30 55 L30 54 L33 57 C34.79 56.9 36.11 53.48 34 53 L34 52 L37 52 z"/>
<path style="fill:#2e2f2f" d="M38 52 L38 54 L37 54 L37 52 L38 52 z"/>
<path style="fill:#3c3c3c" d="M49 52 C48.95 53.66 47.3 55.48 50 56 L51 57 L52 58 L52 59 L51 59 L48 57 C46 55.51 45.8 51.85 49 52 z"/>
<path style="fill:#202020" d="M60 52 L64 54 L62 54 C57.66 55.5 53.21 51.4 60 52 z"/>
<path style="fill:#686868" d="M68 53 C67.34 53.02 65.85 53.18 66 52 C66.66 51.98 68.15 51.82 68 53 z"/>
<path style="fill:#030404" d="M34 53 C36.11 53.48 34.79 56.9 33 57 L34 53 z"/>
<path style="fill:#181818" d="M52 53 L53 54 L52 58 L51 57 L50 56 L50 53 L52 53 z"/>
<path style="fill:#0f0f0f" d="M21 54 L21 55 L16.25 57.25 C12.76 63.54 22.87 52.4 25 57 C17.69 57.46 14.73 65.66 22.75 59.25 C16.56 66.03 21.53 66.42 24 59 L25 63 C20.52 66.88 23.38 69.54 26 64 C25.95 67.97 28.02 63.61 29 63 C28.24 65.23 29.09 70.05 26 70 C26.43 68.94 24.57 68.94 25 70 L24 71 L23 71 L19 71 L18 71 L17 70 L13 61 C13.02 60.34 13.18 58.85 12 59 L12 58 L12 55 L12 54 L21 54 z"/>
<path style="fill:#878888" d="M24 54 L27 56 L26 57 L25 57 C22.87 52.4 12.76 63.54 16.25 57.25 L21 55 L24 54 z"/>
<path style="fill:#e4e4e4" d="M30 54 L30 55 L27 56 L24 54 L30 54 z"/>
<path style="fill:#dfdfdf" d="M37 54 L38 54 L36 56 C35.98 55.34 35.82 53.85 37 54 z"/>
<path style="fill:#2f2f2f" d="M40 54 L38 57 L37 58 C35.71 58.26 34.67 59.66 35 61 L34 61 L33 61 L34 58 L36 56 L38 54 L40 54 z"/>
<path style="fill:#d1d2d2" d="M45 55 L44 55 C42.67 54.78 42.67 57.22 44 57 L45 58 C46.46 58.67 48.33 60.15 48 62 C39.41 55.86 47.05 63.57 48 68 L48 69 L44 64 C42.52 63.96 42.52 67.04 44 67 L46 71 C45.81 71.95 46.59 73.94 45 74 L45 72 C41.75 66.12 44.24 78.83 42 80 C42.24 77.72 41.96 66 41 73 L39 75 L39 72 C40.18 72.15 40.02 70.66 40 70 C40.58 68.1 42.73 66.42 41.75 64.25 C38.96 65.14 38.63 68.6 38 71 L37 70 L39 64 L40 63 C44.42 58.6 39.73 59.63 37 63 C37.81 59.4 45.95 53.32 38 57 L40 54 L45 55 z"/>
<path style="fill:#aeafaf" d="M54 54 L57 67 L56 67 C55.66 63.99 53.57 61.49 52 59 L52 58 L53 54 L54 54 z"/>
<path style="fill:#272828" d="M56 59 C55.98 59.66 55.82 61.15 57 61 C56.98 61.66 56.82 63.15 58 63 C57.98 63.66 57.82 65.15 59 65 L58 67 L57 67 L54 54 C56.37 54.46 56.08 57.17 56 59 z"/>
<path style="fill:#898989" d="M64 54 L70.75 59.75 C67.63 57.78 64.17 55.2 60 56 L62 54 L64 54 z"/>
<path style="fill:#0f1010" d="M73 54 L74 55 L74 58 C72.82 57.85 72.98 59.34 73 60 L73 62 L72 63 C71.23 64.67 69.22 65.76 70 68 L69 69 L67 71 L63 71 L62 71 L61 70 C61.22 68.67 58.78 68.67 59 70 L58 70 L58 67 L59 65 C59.02 64.34 59.18 62.85 58 63 L58 60 L58 57 L59 61 L61 64 C60.98 64.66 60.82 66.15 62 66 C61.55 69.64 65.73 66.87 62 66 C62.02 65.34 62.18 63.85 61 64 C59.79 53.04 69.23 73.68 65.75 63.25 L64.25 60.75 C62.68 59.98 63.24 58.45 65 59 L68.75 62.75 C69.39 60.92 66.8 58.74 65 59 C64.39 57.76 62.44 57.02 61 57 L60 56 C64.17 55.2 67.63 57.78 70.75 59.75 L64 54 L73 54 z"/>
<path style="fill:#6e6e6e" d="M74 55 L73 54 L74 55 z"/>
<path style="fill:#a9a9a9" d="M12 55 L12 58 C10.52 58.04 10.52 54.96 12 55 z"/>
<path style="fill:#7f8080" d="M30 55 L29 60 L28 59 C28.02 58.34 28.18 56.85 27 57 L27 56 L30 55 z"/>
<path style="fill:#090a0a" d="M31 58 C31.23 59.83 30.5 62.15 29 63 L29 60 L30 55 C31.59 55.06 30.81 57.05 31 58 z"/>
<path style="fill:#141515" d="M37 63 C34.63 65.21 33.22 69.26 34.25 72.75 L37 63 C39.73 59.63 44.42 58.6 40 63 L39 64 L37 70 C33.22 74.09 39.52 78.98 38 71 C38.63 68.6 38.96 65.14 41.75 64.25 C42.73 66.42 40.58 68.1 40 70 C38.82 69.85 38.98 71.34 39 72 L39 75 C39.06 81.36 42.32 77.09 41 73 C41.96 66 42.24 77.72 42 80 C46.05 83.08 42.25 73.01 45 72 L45 74 C43.59 83.32 49.28 73.97 46 71 L44 67 L44 64 L48 69 L48.75 75.75 L49 68 L50 67 L51.75 73.75 C52.43 69.63 51.48 64.41 48 62 C48.33 60.15 46.46 58.67 45 58 L44 57 L44 55 L45 55 L47 57 C50.61 60.47 51.94 65.95 53.75 69.75 L51 59 L52 59 C53.57 61.49 55.66 63.99 56 67 L56 72 L56 73 L55 74 L53 76 L52 77 L50 78 C49.34 77.98 47.85 77.82 48 79 L47 80 C46.07 82.94 42.31 84.02 40 82 L39 81 L38 79 C38.15 77.82 36.66 77.98 36 78 L35 78 L34 77 L33 76 L32 75 L31 74 L30 73 L29 72 L29 71 C29.12 67.44 29.81 62.98 33 61 L34 61 C32.74 63.36 31.17 65.9 32.25 68.75 L35 61 C36.29 60.74 37.33 59.34 37 58 L38 57 C45.95 53.32 37.81 59.4 37 63 z"/>
<path style="fill:#7b7c7c" d="M44 55 L44 57 C42.67 57.22 42.67 54.78 44 55 z"/>
<path style="fill:#e5e5e5" d="M27 56 L27 57 L26 57 L27 56 z"/>
<path style="fill:#cfcfcf" d="M51 57 L50 56 L51 57 z"/>
<path style="fill:#6b6c6c" d="M58 57 L58 60 L57 61 C55.82 61.15 55.98 59.66 56 59 L58 57 z"/>
<path style="fill:#969797" d="M25 57 L24 59 C21.53 66.42 16.56 66.03 22.75 59.25 C14.73 65.66 17.69 57.46 25 57 z"/>
<path style="fill:#d4d5d5" d="M26 57 L26 60 L26 63 L25 63 L24 59 L25 57 L26 57 z"/>
<path style="fill:#6d6d6d" d="M27 57 C26.81 57.95 27.59 59.94 26 60 L26 57 L27 57 z"/>
<path style="fill:#101111" d="M28 59 C28.23 60.83 27.5 63.15 26 64 L26 63 L26 60 C27.59 59.94 26.81 57.95 27 57 C28.18 56.85 28.02 58.34 28 59 z"/>
<path style="fill:#d4d4d4" d="M38 57 L37 58 L38 57 z"/>
<path style="fill:#7c7c7c" d="M45 58 L44 57 L45 58 z"/>
<path style="fill:#8a8a8a" d="M48 57 L51 59 L53.75 69.75 C51.94 65.95 50.61 60.47 47 57 L48 57 z"/>
<path style="fill:#b1b1b1" d="M52 58 L51 57 L52 58 z"/>
<path style="fill:#969797" d="M65 59 C63.24 58.45 62.68 59.98 64.25 60.75 L65.75 63.25 C69.23 73.68 59.79 53.04 61 64 L59 61 C59.8 59.52 62.85 58.95 61 57 C62.44 57.02 64.39 57.76 65 59 z"/>
<path style="fill:#b5b5b5" d="M34 58 L33 61 C29.81 62.98 29.12 67.44 29 71 C28.05 70.81 26.06 71.59 26 70 C29.09 70.05 28.24 65.23 29 63 C30.5 62.15 31.23 59.83 31 58 L34 58 z"/>
<path style="fill:#b0b0b0" d="M37 58 C37.33 59.34 36.29 60.74 35 61 C34.67 59.66 35.71 58.26 37 58 z"/>
<path style="fill:#767777" d="M74 58 C74.02 58.66 74.18 60.15 73 60 C72.98 59.34 72.82 57.85 74 58 z"/>
<path style="fill:#8b8c8c" d="M13 61 C11.82 61.15 11.98 59.66 12 59 C13.18 58.85 13.02 60.34 13 61 z"/>
<path style="fill:#afafaf" d="M29 60 L29 63 C28.02 63.61 25.95 67.97 26 64 C27.5 63.15 28.23 60.83 28 59 L29 60 z"/>
<path style="fill:#2c2d2d" d="M48 62 L50 67 L49 68 L48 68 C47.05 63.57 39.41 55.86 48 62 z"/>
<path style="fill:#8e8e8e" d="M65 59 C66.8 58.74 69.39 60.92 68.75 62.75 L65 59 z"/>
<path style="fill:#bfbfbf" d="M58 60 L58 63 C56.82 63.15 56.98 61.66 57 61 L58 60 z"/>
<path style="fill:#909090" d="M35 61 L32.25 68.75 C31.17 65.9 32.74 63.36 34 61 L35 61 z"/>
<path style="fill:#8a8a8a" d="M50 67 L48 62 C51.48 64.41 52.43 69.63 51.75 73.75 L50 67 z"/>
<path style="fill:#989898" d="M73 62 L72 63 L73 62 z"/>
<path style="fill:#838383" d="M25 63 L26 63 L26 64 C23.38 69.54 20.52 66.88 25 63 z"/>
<path style="fill:#8a8b8b" d="M37 63 L34.25 72.75 C33.22 69.26 34.63 65.21 37 63 z"/>
<path style="fill:#7b7b7b" d="M40 63 L39 64 L40 63 z"/>
<path style="fill:#b6b7b7" d="M59 65 C57.82 65.15 57.98 63.66 58 63 C59.18 62.85 59.02 64.34 59 65 z"/>
<path style="fill:#7b7b7b" d="M44 64 L44 67 C42.52 67.04 42.52 63.96 44 64 z"/>
<path style="fill:#aeafaf" d="M62 66 C60.82 66.15 60.98 64.66 61 64 C62.18 63.85 62.02 65.34 62 66 z"/>
<path style="fill:#818282" d="M62 66 C65.73 66.87 61.55 69.64 62 66 z"/>
<path style="fill:#7c7d7d" d="M57 67 L58 67 L58 70 L56 72 L56 67 L57 67 z"/>
<path style="fill:#898989" d="M49 68 L48.75 75.75 L48 69 L48 68 L49 68 z"/>
<path style="fill:#909090" d="M70 68 L69 69 L70 68 z"/>
<path style="fill:#9f9f9f" d="M26 70 L25 70 C24.57 68.94 26.43 68.94 26 70 z"/>
<path style="fill:#818181" d="M61 70 L59 70 C58.78 68.67 61.22 68.67 61 70 z"/>
<path style="fill:#a6a6a6" d="M18 71 L17 70 L18 71 z"/>
<path style="fill:#a0a0a0" d="M25 70 L24 71 L25 70 z"/>
<path style="fill:#444545" d="M37 70 L38 71 C39.52 78.98 33.22 74.09 37 70 z"/>
<path style="fill:#7e7e7e" d="M40 70 C40.02 70.66 40.18 72.15 39 72 C38.98 71.34 38.82 69.85 40 70 z"/>
<path style="fill:#707070" d="M45 72 C42.25 73.01 46.05 83.08 42 80 C44.24 78.83 41.75 66.12 45 72 z"/>
<path style="fill:#828282" d="M62 71 L61 70 L62 71 z"/>
<path style="fill:#999a9a" d="M23 71 C22.81 72.55 19.19 72.55 19 71 L23 71 z"/>
<path style="fill:#6f6f6f" d="M45 74 C46.59 73.94 45.81 71.95 46 71 C49.28 73.97 43.59 83.32 45 74 z"/>
<path style="fill:#9a9a9a" d="M67 71 C66.81 72.55 63.19 72.55 63 71 L67 71 z"/>
<path style="fill:#848484" d="M30 73 L29 72 L30 73 z"/>
<path style="fill:#575757" d="M41 73 C42.32 77.09 39.06 81.36 39 75 L41 73 z"/>
<path style="fill:#7b7b7b" d="M56 73 L55 74 L56 73 z"/>
<path style="fill:#9e9e9e" d="M32 75 L31 74 L32 75 z"/>
<path style="fill:#777777" d="M33 76 L32 75 L33 76 z"/>
<path style="fill:#858585" d="M34 77 L33 76 L34 77 z"/>
<path style="fill:#9d9d9d" d="M53 76 L52 77 L53 76 z"/>
<path style="fill:#a0a0a0" d="M35 78 L34 77 L35 78 z"/>
<path style="fill:#7e7e7e" d="M38 79 C37.34 79.02 35.85 79.18 36 78 C36.66 77.98 38.15 77.82 38 79 z"/>
<path style="fill:#8f8f8f" d="M50 78 C50.15 79.18 48.66 79.02 48 79 C47.85 77.82 49.34 77.98 50 78 z"/>
<path style="fill:#848484" d="M48 79 L47 80 L48 79 z"/>
<path style="fill:#8d8d8d" d="M40 82 L39 81 L40 82 z"/>
</svg>
