<?xml version="1.0" standalone="yes"?>
<svg width="87" height="97">
<path style="fill:#fdfdfd" d="M87 0 L87 97 L0 97 L0 0 L87 0 z"/>
<path style="fill:#7b7c7c" d="M41 18 L37 19 L41 18 z"/>
<path style="fill:#0a0b0b" d="M46 18 L50 19 L51 19 C50.85 20.18 52.34 20.02 53 20 L54 20 C53.85 21.18 55.34 21.02 56 21 L57 21 L58 22 L60 23 L61 24 L63 25 L64 26 L65 27 L66 28 L67 29 L68 30 L69 32 L70 33 L73 40 C72.98 40.66 72.82 42.15 74 42 L74 44 L74 54 L74 57 C72.82 56.85 72.98 58.34 73 59 L71 65 L70 66 L69 67 L68 69 L67 70 L65 72 L64 73 L63 74 L62 75 L60 76 L59 77 L58 77 L57 78 L56 78 L55 79 L54 79 C53.34 78.98 51.85 78.82 52 80 L51 80 L47 81 L38 81 C38.15 79.82 36.66 79.98 36 80 L35 80 C35.15 78.82 33.66 78.98 33 79 L29 78 L28 77 L26 76 L25 75 L22 73 L21 72 L18 68 L17 67 L15 63 L14 62 L14 60 L13 59 L13 56 C13.02 55.34 13.18 53.85 12 54 L12 44 C13.18 44.15 13.02 42.66 13 42 L13 41 C14.18 41.15 14.02 39.66 14 39 L17 32 L18 31 L19 30 L24 25 L25 24 L26 23 L27 23 L28 22 L31 21 L32 20 L37 19 L41 18 L46 18 z"/>
<path style="fill:#949595" d="M50 19 L46 18 L50 19 z"/>
<path style="fill:#797a7a" d="M53 20 C52.34 20.02 50.85 20.18 51 19 C51.66 18.98 53.15 18.82 53 20 z"/>
<path style="fill:#757575" d="M32 20 L31 21 L32 20 z"/>
<path style="fill:#7f8080" d="M56 21 C55.34 21.02 53.85 21.18 54 20 C54.66 19.98 56.15 19.82 56 21 z"/>
<path style="fill:#a1a1a1" d="M58 22 L57 21 L58 22 z"/>
<path style="fill:#757575" d="M28 22 L27 23 L28 22 z"/>
<path style="fill:#a4a4a4" d="M26 23 L25 24 L26 23 z"/>
<path style="fill:#737373" d="M61 24 L60 23 L61 24 z"/>
<path style="fill:#6d6d6d" d="M25 24 L24 25 L25 24 z"/>
<path style="fill:#737474" d="M39 24 L39 25 L37 25 C36.85 23.82 38.34 23.98 39 24 z"/>
<path style="fill:#c7c7c7" d="M48 24 L48 25 L48 26 L46 26 C46.15 24.82 44.66 24.98 44 25 L43 25 L40 25 L39 25 L39 24 L48 24 z"/>
<path style="fill:#5a5a5a" d="M50 25 L48 25 L48 24 C48.66 23.98 50.15 23.82 50 25 z"/>
<path style="fill:#6a6a6a" d="M35 25 L34 26 L35 25 z"/>
<path style="fill:#f8f9f9" d="M37 25 L39 25 L40 25 L40 26 C37.72 25.82 36.06 28.32 35 30 C33.82 29.85 33.98 31.34 34 32 C32.45 32.19 32.45 35.81 34 36 C32.51 39.64 32.21 45.88 34 49 C33.15 50.28 31.96 53.3 34 54 L34 55 C32.35 56.66 32.35 62.34 34 64 L34 65 C33.55 68.23 35.32 72.84 39 73 C39.15 74.18 37.66 74.02 37 74 L32 73 L31 72 L29 71 L28 70 L23 65 L22 64 L18 54 L18 45 L18 44 C19.18 44.15 19.02 42.66 19 42 L22 35 L23 34 L24 33 L26 31 L27 30 L28 29 L30 28 L31 27 L34 26 L35 25 L37 25 z"/>
<path style="fill:#979797" d="M43 25 L43 74 L42 74 L42 69 C42.06 65.74 42.54 62.33 40 60 C43.68 59.76 40.56 55.85 39 54 C44.94 55.63 42.38 42.46 38 40 L40 40 L41 41 C40.86 42.88 42.88 40.86 41 41 L41 40 C43.02 39.73 41.32 37.9 41 37 C42.27 34.86 43.61 26.52 40 26 L40 25 L43 25 z"/>
<path style="fill:#212121" d="M44 25 L44 60 L44 61 L44 74 L43 74 L43 25 L44 25 z"/>
<path style="fill:#787878" d="M46 26 C44.02 30.16 43.63 40.45 50 34 L49 36 C47.12 35.86 49.14 37.88 49 36 C49.66 35.98 51.15 35.82 51 37 L50 38 C48.15 37.67 46.67 39.54 46 41 C44.12 40.86 46.14 42.88 46 41 L48 41 C44.35 43.43 42.48 56.07 48 54 L44 60 L44 25 C44.66 24.98 46.15 24.82 46 26 z"/>
<path style="fill:#f9fafa" d="M50 25 L51 25 C50.85 26.18 52.34 26.02 53 26 L57 28 L58 29 L60 30 L61 31 L62 32 L63 33 L64 35 L65 36 L67 41 C66.98 41.66 66.82 43.15 68 43 L68 44 L69 48 L69 53 C67.82 52.85 67.98 54.34 68 55 L68 57 C66.82 56.85 66.98 58.34 67 59 L66 62 L65 63 L63 66 L62 67 L61 68 L60 69 L59 70 L57 71 L56 72 L55 72 L54 73 L49 74 L48 73 L49 73 C51.2 72.23 52.09 69.88 53 68 C54.66 65.03 54.66 57.97 53 55 L53 54 C55.04 53.3 53.85 50.28 53 49 C54.79 45.88 54.49 39.64 53 36 C54.55 35.81 54.55 32.19 53 32 C53.02 31.34 53.18 29.85 52 30 L49 27 L48 26 L48 25 L50 25 z"/>
<path style="fill:#747474" d="M53 26 C52.34 26.02 50.85 26.18 51 25 C51.66 24.98 53.15 24.82 53 26 z"/>
<path style="fill:#969696" d="M64 26 L63 25 L64 26 z"/>
<path style="fill:#0c0c0c" d="M40 26 C43.61 26.52 42.27 34.86 41 37 C39.94 35.32 38.28 32.82 36 33 L35 32 L35 30 C36.06 28.32 37.72 25.82 40 26 z"/>
<path style="fill:#0b0b0b" d="M46 26 L48 26 L49 27 L52 30 L52 32 L51 33 L50 34 C43.63 40.45 44.02 30.16 46 26 z"/>
<path style="fill:#6a6a6a" d="M49 27 L48 26 L49 27 z"/>
<path style="fill:#868686" d="M65 27 L64 26 L65 27 z"/>
<path style="fill:#9b9b9b" d="M31 27 L30 28 L31 27 z"/>
<path style="fill:#7d7d7d" d="M66 28 L65 27 L66 28 z"/>
<path style="fill:#9a9a9a" d="M58 29 L57 28 L58 29 z"/>
<path style="fill:#888888" d="M67 29 L66 28 L67 29 z"/>
<path style="fill:#838383" d="M28 29 L27 30 L28 29 z"/>
<path style="fill:#a5a5a5" d="M68 30 L67 29 L68 30 z"/>
<path style="fill:#5e5e5e" d="M19 30 L18 31 L19 30 z"/>
<path style="fill:#a2a2a2" d="M27 30 L26 31 L27 30 z"/>
<path style="fill:#969696" d="M35 30 L35 32 L34 32 C33.98 31.34 33.82 29.85 35 30 z"/>
<path style="fill:#434444" d="M53 32 L53 36 L51 37 C51.15 35.82 49.66 35.98 49 36 L50 34 L51 33 L52 32 L52 30 C53.18 29.85 53.02 31.34 53 32 z"/>
<path style="fill:#5a5a5a" d="M61 31 L60 30 L61 31 z"/>
<path style="fill:#8e8e8e" d="M18 31 L17 32 L18 31 z"/>
<path style="fill:#696969" d="M62 32 L61 31 L62 32 z"/>
<path style="fill:#adadad" d="M34 32 L35 35 L34 36 C32.45 35.81 32.45 32.19 34 32 z"/>
<path style="fill:#3a3b3b" d="M35 32 L36 33 L37 35 L35 35 L34 32 L35 32 z"/>
<path style="fill:#a3a3a3" d="M36 33 L35 32 L36 33 z"/>
<path style="fill:#b5b5b5" d="M52 32 L51 33 L52 32 z"/>
<path style="fill:#b1b1b1" d="M53 36 L53 32 C54.55 32.19 54.55 35.81 53 36 z"/>
<path style="fill:#606060" d="M63 33 L62 32 L63 33 z"/>
<path style="fill:#767676" d="M70 33 L69 32 L70 33 z"/>
<path style="fill:#8b8b8b" d="M24 33 L23 34 L24 33 z"/>
<path style="fill:#838383" d="M41 37 L39 37 L38 36 L37 35 L36 33 C38.28 32.82 39.94 35.32 41 37 z"/>
<path style="fill:#aaaaaa" d="M51 33 L50 34 L51 33 z"/>
<path style="fill:#6c6c6c" d="M23 34 L22 35 L23 34 z"/>
<path style="fill:#040404" d="M35 35 L35 36 L34 36 L35 35 z"/>
<path style="fill:#818282" d="M37 35 L38 36 L38 37 L36 37 L35 36 L35 35 L37 35 z"/>
<path style="fill:#191919" d="M38 36 L37 35 L38 36 z"/>
<path style="fill:#8e8e8e" d="M65 36 L64 35 L65 36 z"/>
<path style="fill:#8e8f8f" d="M35 36 L36 37 L37 39 C31.45 36.4 35 45.77 34 49 C32.21 45.88 32.51 39.64 34 36 L35 36 z"/>
<path style="fill:#0b0b0b" d="M36 37 L35 36 L36 37 z"/>
<path style="fill:#090909" d="M39 37 L38 37 L38 36 L39 37 z"/>
<path style="fill:#0e0e0e" d="M49 36 C49.14 37.88 47.12 35.86 49 36 z"/>
<path style="fill:#9a9b9b" d="M53 36 C54.49 39.64 54.79 45.88 53 49 C52 45.77 55.55 36.4 50 39 L50 38 L51 37 L53 36 z"/>
<path style="fill:#3b3b3b" d="M38 37 L39 38 L40 39 L40 40 L38 40 L37 39 L36 37 L38 37 z"/>
<path style="fill:#acacac" d="M39 37 L39 38 L38 37 L39 37 z"/>
<path style="fill:#3e3e3e" d="M41 37 C41.32 37.9 43.02 39.73 41 40 L40 39 L39 38 L39 37 L41 37 z"/>
<path style="fill:#0e0e0e" d="M51 37 L50 38 L51 37 z"/>
<path style="fill:#050606" d="M37 39 L38 40 C42.38 42.46 44.94 55.63 39 54 L38 53 L37 52 L34 49 C35 45.77 31.45 36.4 37 39 z"/>
<path style="fill:#b6b6b6" d="M40 39 L39 38 L40 39 z"/>
<path style="fill:#3b3b3b" d="M50 38 L50 39 L49 40 L48 41 L46 41 C46.67 39.54 48.15 37.67 50 38 z"/>
<path style="fill:#060707" d="M53 49 L49 53 L48 54 C42.48 56.07 44.35 43.43 48 41 L49 40 L50 39 C55.55 36.4 52 45.77 53 49 z"/>
<path style="fill:#5b5b5b" d="M14 39 C14.02 39.66 14.18 41.15 13 41 C12.98 40.34 12.82 38.85 14 39 z"/>
<path style="fill:#9d9d9d" d="M38 40 L37 39 L38 40 z"/>
<path style="fill:#a2a2a2" d="M41 40 L40 40 L40 39 L41 40 z"/>
<path style="fill:#adadad" d="M50 39 L49 40 L50 39 z"/>
<path style="fill:#0e0e0e" d="M41 40 L41 41 L40 40 L41 40 z"/>
<path style="fill:#9b9b9b" d="M49 40 L48 41 L49 40 z"/>
<path style="fill:#949595" d="M74 42 C72.82 42.15 72.98 40.66 73 40 C74.18 39.85 74.02 41.34 74 42 z"/>
<path style="fill:#101010" d="M41 41 C42.88 40.86 40.86 42.88 41 41 z"/>
<path style="fill:#1e1e1e" d="M46 41 C46.14 42.88 44.12 40.86 46 41 z"/>
<path style="fill:#a5a6a6" d="M68 43 C66.82 43.15 66.98 41.66 67 41 C68.18 40.85 68.02 42.34 68 43 z"/>
<path style="fill:#919292" d="M13 42 C13.02 42.66 13.18 44.15 12 44 C11.98 43.34 11.82 41.85 13 42 z"/>
<path style="fill:#777878" d="M19 42 C19.02 42.66 19.18 44.15 18 44 C17.98 43.34 17.82 41.85 19 42 z"/>
<path style="fill:#888888" d="M69 48 L68 44 L69 48 z"/>
<path style="fill:#8b8b8b" d="M74 54 L74 44 C75.66 45.99 75.66 52.01 74 54 z"/>
<path style="fill:#434444" d="M18 45 L18 54 C16.35 52.34 16.35 46.66 18 45 z"/>
<path style="fill:#919292" d="M37 52 L35 52 C35.14 50.12 33.12 52.14 35 52 L35 53 L34 54 C31.96 53.3 33.15 50.28 34 49 L37 52 z"/>
<path style="fill:#8e8f8f" d="M53 49 C53.85 50.28 55.04 53.3 53 54 L52 53 L52 52 C53.88 52.14 51.86 50.12 52 52 L51 53 L49 53 L53 49 z"/>
<path style="fill:#111111" d="M35 52 C33.12 52.14 35.14 50.12 35 52 z"/>
<path style="fill:#0f0f0f" d="M52 52 C51.86 50.12 53.88 52.14 52 52 z"/>
<path style="fill:#414242" d="M37 52 L38 53 L39 54 C40.56 55.85 43.68 59.76 40 60 L39 59 C38.33 57.54 36.85 55.67 35 56 L34 55 L34 54 L35 53 C34.86 54.88 36.88 52.86 35 53 L35 52 L37 52 z"/>
<path style="fill:#ababab" d="M38 53 L37 52 L38 53 z"/>
<path style="fill:#161616" d="M52 52 L52 53 L51 53 L52 52 z"/>
<path style="fill:#9b9b9b" d="M35 53 C36.88 52.86 34.86 54.88 35 53 z"/>
<path style="fill:#aeaeae" d="M39 54 L38 53 L39 54 z"/>
<path style="fill:#b9b9b9" d="M49 53 L48 54 L49 53 z"/>
<path style="fill:#424343" d="M51 53 L51 54 L50 55 C48.94 54.57 48.94 56.43 50 56 L47 60 L46 61 L44 61 L44 60 L48 54 L49 53 L51 53 z"/>
<path style="fill:#a5a5a5" d="M52 53 L51 54 L51 53 L52 53 z"/>
<path style="fill:#3c3c3c" d="M53 54 L53 55 L52 56 L50 56 L50 55 L51 54 L52 53 L53 54 z"/>
<path style="fill:#737373" d="M69 53 C69.02 53.66 69.18 55.15 68 55 C67.98 54.34 67.82 52.85 69 53 z"/>
<path style="fill:#5d5d5d" d="M13 56 C11.82 56.15 11.98 54.66 12 54 C13.18 53.85 13.02 55.34 13 56 z"/>
<path style="fill:#afafaf" d="M51 54 L50 55 L51 54 z"/>
<path style="fill:#979797" d="M34 55 L35 56 L34 64 C32.35 62.34 32.35 56.66 34 55 z"/>
<path style="fill:#999999" d="M50 55 L50 56 C48.94 56.43 48.94 54.57 50 55 z"/>
<path style="fill:#adaeae" d="M53 55 C54.66 57.97 54.66 65.03 53 68 C53.02 67.34 53.18 65.85 52 66 C53.37 63.31 53.85 58.16 52 56 L53 55 z"/>
<path style="fill:#070707" d="M35 56 C35.67 57.46 37.15 59.33 39 59 L40 60 C42.54 62.33 42.06 65.74 42 69 L34 65 L34 64 L35 56 z"/>
<path style="fill:#8c8d8d" d="M39 59 C37.15 59.33 35.67 57.46 35 56 C36.85 55.67 38.33 57.54 39 59 z"/>
<path style="fill:#868686" d="M52 56 C50.94 57.68 49.28 60.18 47 60 L50 56 L52 56 z"/>
<path style="fill:#080808" d="M52 66 L50 68 C44.68 71.57 43.6 64.69 46 61 L47 60 C49.28 60.18 50.94 57.68 52 56 C53.85 58.16 53.37 63.31 52 66 z"/>
<path style="fill:#6f7070" d="M68 57 C68.02 57.66 68.18 59.15 67 59 C66.98 58.34 66.82 56.85 68 57 z"/>
<path style="fill:#868787" d="M74 57 C74.02 57.66 74.18 59.15 73 59 C72.98 58.34 72.82 56.85 74 57 z"/>
<path style="fill:#7c7c7c" d="M14 60 L13 59 L14 60 z"/>
<path style="fill:#aaaaaa" d="M40 60 L39 59 L40 60 z"/>
<path style="fill:#a6a6a6" d="M47 60 L46 61 L47 60 z"/>
<path style="fill:#808181" d="M46 61 C43.6 64.69 44.68 71.57 50 68 L49 72 C46.81 69.98 45.6 69.82 45 74 L44 74 L44 61 L46 61 z"/>
<path style="fill:#989898" d="M15 63 L14 62 L15 63 z"/>
<path style="fill:#656565" d="M66 62 L65 63 L66 62 z"/>
<path style="fill:#858585" d="M23 65 L22 64 L23 65 z"/>
<path style="fill:#636464" d="M42 69 L42 74 L39 73 C35.32 72.84 33.55 68.23 34 65 L42 69 z"/>
<path style="fill:#a4a4a4" d="M71 65 L70 66 L71 65 z"/>
<path style="fill:#646565" d="M52 66 C53.18 65.85 53.02 67.34 53 68 C52.09 69.88 51.2 72.23 49 73 L49 72 L50 68 L52 66 z"/>
<path style="fill:#717171" d="M63 66 L62 67 L63 66 z"/>
<path style="fill:#656565" d="M70 66 L69 67 L70 66 z"/>
<path style="fill:#7c7c7c" d="M18 68 L17 67 L18 68 z"/>
<path style="fill:#7d7d7d" d="M62 67 L61 68 L62 67 z"/>
<path style="fill:#7b7b7b" d="M61 68 L60 69 L61 68 z"/>
<path style="fill:#696969" d="M60 69 L59 70 L60 69 z"/>
<path style="fill:#848484" d="M68 69 L67 70 L68 69 z"/>
<path style="fill:#7f7f7f" d="M29 71 L28 70 L29 71 z"/>
<path style="fill:#353535" d="M49 72 L49 73 L48 73 L45 74 C45.6 69.82 46.81 69.98 49 72 z"/>
<path style="fill:#868686" d="M57 71 L56 72 L57 71 z"/>
<path style="fill:#a9a9a9" d="M22 73 L21 72 L22 73 z"/>
<path style="fill:#636363" d="M32 73 L31 72 L32 73 z"/>
<path style="fill:#8f8f8f" d="M55 72 L54 73 L55 72 z"/>
<path style="fill:#636363" d="M65 72 L64 73 L65 72 z"/>
<path style="fill:#c6c6c6" d="M42 74 L43 74 L44 74 L45 74 L48 73 L49 74 C46.36 75.66 39.64 75.66 37 74 C37.66 74.02 39.15 74.18 39 73 L42 74 z"/>
<path style="fill:#626262" d="M64 73 L63 74 L64 73 z"/>
<path style="fill:#8f8f8f" d="M63 74 L62 75 L63 74 z"/>
<path style="fill:#7e7e7e" d="M26 76 L25 75 L26 76 z"/>
<path style="fill:#8e8e8e" d="M60 76 L59 77 L60 76 z"/>
<path style="fill:#a8a8a8" d="M29 78 L28 77 L29 78 z"/>
<path style="fill:#737373" d="M58 77 L57 78 L58 77 z"/>
<path style="fill:#7f7f7f" d="M56 78 L55 79 L56 78 z"/>
<path style="fill:#696969" d="M35 80 C34.34 80.02 32.85 80.18 33 79 C33.66 78.98 35.15 78.82 35 80 z"/>
<path style="fill:#969797" d="M54 79 C54.15 80.18 52.66 80.02 52 80 C51.85 78.82 53.34 78.98 54 79 z"/>
<path style="fill:#a7a8a8" d="M38 81 C37.34 81.02 35.85 81.18 36 80 C36.66 79.98 38.15 79.82 38 81 z"/>
<path style="fill:#929292" d="M51 80 L47 81 L51 80 z"/>
</svg>
