<?xml version="1.0" standalone="yes"?>
<svg width="87" height="97">
<path style="fill:#fcfdfd" d="M87 0 L87 97 L0 97 L0 0 L87 0 z"/>
<path style="fill:#a3a3a3" d="M48 28 C47.34 27.98 45.85 27.82 46 29 C44.07 27.07 42.09 28.77 40 29 C40.15 27.82 38.66 27.98 38 28 C39.99 26.34 46.01 26.34 48 28 z"/>
<path style="fill:#090a0a" d="M38 28 C38.66 27.98 40.15 27.82 40 29 L37 30 L36 31 L35 32 L34 34 C32.82 33.85 32.98 35.34 33 36 L33 40 C32.98 40.66 32.82 42.15 34 42 L34 43 C33.98 43.66 33.82 45.15 35 45 L36 46 L37 47 L38 48 C37.85 49.18 39.34 49.02 40 49 L40 51 L39 51 L38 52 L37 52 L36 53 L35 53 L34 54 C31.91 54.87 30.44 58.53 28 56 L27 55 L26 55 C26.15 53.82 24.66 53.98 24 54 L22 53 L21 52 L20 52 L19 51 L17 50 L16 49 L15 49 L14 48 L14 47 C15.18 47.15 15.02 45.66 15 45 L16 43 L17 42 L17 41 L18 40 L19 39 L20 38 L21 37 L22 36 L23 35 C23.66 35.02 25.15 35.18 25 34 L26 33 L27 32 L28 32 C28.66 32.02 30.15 32.18 30 31 C29.85 29.82 31.34 29.98 32 30 C32.66 30.02 34.15 30.18 34 29 L38 28 z"/>
<path style="fill:#595959" d="M48 28 L51 28 L51 29 L50 30 L46 29 C45.85 27.82 47.34 27.98 48 28 z"/>
<path style="fill:#ababab" d="M53 29 L51 29 L51 28 C51.66 27.98 53.15 27.82 53 29 z"/>
<path style="fill:#959696" d="M34 29 C34.15 30.18 32.66 30.02 32 30 C31.85 28.82 33.34 28.98 34 29 z"/>
<path style="fill:#0a0b0b" d="M51 29 L53 29 L54 29 C53.85 30.18 55.34 30.02 56 30 C55.85 31.18 57.34 31.02 58 31 L60 32 L61 33 L62 33 L63 34 L64 35 L70 41 L71 42 L72 43 C70.97 49.64 62.45 52.63 57 55 L56 54 L48 51 L48 49 L49 49 L50 48 L51 47 L52 47 C53.18 47.15 53.02 45.66 53 45 C54.59 44.94 53.81 42.95 54 42 C55.64 40.97 55.64 36.03 54 35 C54.33 33.66 53.29 32.26 52 32 L50 30 L51 29 z"/>
<path style="fill:#a3a4a4" d="M56 30 C55.34 30.02 53.85 30.18 54 29 C54.66 28.98 56.15 28.82 56 30 z"/>
<path style="fill:#6f6f6f" d="M37 30 L36 31 L37 30 z"/>
<path style="fill:#989898" d="M58 31 C57.34 31.02 55.85 31.18 56 30 C56.66 29.98 58.15 29.82 58 31 z"/>
<path style="fill:#696969" d="M30 31 C30.15 32.18 28.66 32.02 28 32 C27.85 30.82 29.34 30.98 30 31 z"/>
<path style="fill:#696969" d="M36 31 L35 32 L36 31 z"/>
<path style="fill:#a1a1a1" d="M27 32 L26 33 L27 32 z"/>
<path style="fill:#aaaaaa" d="M54 35 C52.71 34.74 51.67 33.34 52 32 C53.29 32.26 54.33 33.66 54 35 z"/>
<path style="fill:#636363" d="M61 33 L60 32 L61 33 z"/>
<path style="fill:#888888" d="M63 34 L62 33 L63 34 z"/>
<path style="fill:#6b6b6b" d="M25 34 C25.15 35.18 23.66 35.02 23 35 C22.85 33.82 24.34 33.98 25 34 z"/>
<path style="fill:#5d5e5e" d="M34 34 C34.02 34.66 34.18 36.15 33 36 C32.98 35.34 32.82 33.85 34 34 z"/>
<path style="fill:#707070" d="M64 35 L63 34 L64 35 z"/>
<path style="fill:#8e8e8e" d="M23 35 L22 36 L23 35 z"/>
<path style="fill:#a3a3a3" d="M54 42 L54 35 C55.64 36.03 55.64 40.97 54 42 z"/>
<path style="fill:#7f7f7f" d="M22 36 L21 37 L22 36 z"/>
<path style="fill:#777777" d="M21 37 L20 38 L21 37 z"/>
<path style="fill:#969696" d="M20 38 L19 39 L20 38 z"/>
<path style="fill:#888888" d="M19 39 L18 40 L19 39 z"/>
<path style="fill:#a5a5a5" d="M18 40 L17 41 L18 40 z"/>
<path style="fill:#a9aaaa" d="M34 42 C32.82 42.15 32.98 40.66 33 40 C34.18 39.85 34.02 41.34 34 42 z"/>
<path style="fill:#8d8d8d" d="M71 42 L70 41 L71 42 z"/>
<path style="fill:#676767" d="M17 42 L16 43 L17 42 z"/>
<path style="fill:#8f8f8f" d="M35 45 C33.82 45.15 33.98 43.66 34 43 C35.18 42.85 35.02 44.34 35 45 z"/>
<path style="fill:#a1a1a1" d="M44 61 C45.59 60.94 44.81 58.95 45 58 L47 61 L48 62 C51.12 60.57 56.2 58.69 57 55 C62.45 52.63 70.97 49.64 72 43 C73.15 54.18 54.37 58.38 46.25 64.75 L44 61 z"/>
<path style="fill:#868686" d="M15 45 C15.02 45.66 15.18 47.15 14 47 C13.98 46.34 13.82 44.85 15 45 z"/>
<path style="fill:#959595" d="M36 46 L35 45 L36 46 z"/>
<path style="fill:#828282" d="M53 45 C53.02 45.66 53.18 47.15 52 47 C51.98 46.34 51.82 44.85 53 45 z"/>
<path style="fill:#9e9e9e" d="M37 47 L36 46 L37 47 z"/>
<path style="fill:#9e9e9e" d="M38 48 L37 47 L38 48 z"/>
<path style="fill:#a5a5a5" d="M51 47 L50 48 L51 47 z"/>
<path style="fill:#9e9e9e" d="M15 49 L14 48 L15 49 z"/>
<path style="fill:#a8a8a8" d="M40 49 C39.34 49.02 37.85 49.18 38 48 C38.66 47.98 40.15 47.82 40 49 z"/>
<path style="fill:#a4a4a4" d="M50 48 L49 49 L50 48 z"/>
<path style="fill:#848484" d="M17 50 L16 49 L17 50 z"/>
<path style="fill:#5f5f5f" d="M40 51 L40 49 C41.77 49.13 42.52 51.74 40 51 z"/>
<path style="fill:#8b8b8b" d="M48 49 L48 51 C45.5 51.95 45.5 48.05 48 49 z"/>
<path style="fill:#a7a7a7" d="M20 52 L19 51 L20 52 z"/>
<path style="fill:#939393" d="M39 51 L38 52 L39 51 z"/>
<path style="fill:#8f8f8f" d="M22 53 L21 52 L22 53 z"/>
<path style="fill:#8a8b8b" d="M37 52 C39 55.44 43.35 58.44 42.75 62.75 L36 53 L37 52 z"/>
<path style="fill:#4e4f4f" d="M45 58 C44.81 58.95 45.59 60.94 44 61 L44.25 52.25 L45 58 z"/>
<path style="fill:#7d7d7d" d="M35 53 L34 54 L35 53 z"/>
<path style="fill:#7c7c7c" d="M48 62 L47 61 C47.89 58.48 48.98 53.41 51.75 53.25 L48 62 z"/>
<path style="fill:#7e7e7e" d="M26 55 C25.34 55.02 23.85 55.18 24 54 C24.66 53.98 26.15 53.82 26 55 z"/>
<path style="fill:#787878" d="M57 55 L56 54 L57 55 z"/>
<path style="fill:#696969" d="M28 56 L27 55 L28 56 z"/>
<path style="fill:#8f9090" d="M32 57 C34.97 58.24 39.05 59.78 40.75 62.75 C38.12 61.58 32.78 60.1 32 57 z"/>
<path style="fill:#abacac" d="M44 68 L44 69 C38.06 75.21 41.68 61.22 44.25 66.25 C43.73 66.65 42.34 67.98 44 68 z"/>
<path style="fill:#949494" d="M44 69 L44 68 C52.62 63.6 47.88 74.29 44 69 z"/>
</svg>
