<?xml version="1.0" standalone="yes"?>
<svg width="87" height="97">
<path style="fill:#fcfdfd" d="M87 0 L87 97 L0 97 L0 0 L87 0 z"/>
<path style="fill:#6d6d6d" d="M44 17 L48 20 L47 21 C44.62 19.38 42.22 17.3 39 18 L44 17 z"/>
<path style="fill:#070707" d="M50 18 L51 19 L53 20 L54 21 L55 22 L56 23 L57 25 L58 26 L58 28 L58 35 L58 37 C54.96 39.77 51.44 41.95 47 41 C43.39 39.96 42.44 33.45 46 32 L51 30 L51 29 C52.6 28.55 52.6 24.45 51 24 L50 22 L49 21 L48 20 L44 17 L50 18 z"/>
<path style="fill:#7b7b7b" d="M37 18 L36 19 L37 18 z"/>
<path style="fill:#080808" d="M39 18 C42.22 17.3 44.62 19.38 47 21 L48 21 C48.59 23.54 50.01 26.57 48 29 L46 31 L41 31 L39 28 L38 27 L34 28 L33 29 L32 30 L31 33 L29 39 L28 29 C29.18 29.15 29.02 27.66 29 27 L29 26 L30 25 L30 24 L31 23 L32 22 L33 21 L34 20 L35 19 L36 19 L37 18 L39 18 z"/>
<path style="fill:#868686" d="M51 19 L50 18 L51 19 z"/>
<path style="fill:#939393" d="M35 19 L34 20 L35 19 z"/>
<path style="fill:#646464" d="M34 20 L33 21 L34 20 z"/>
<path style="fill:#dddddd" d="M48 20 L48 21 L47 21 L48 20 z"/>
<path style="fill:#7a7a7a" d="M49 21 L48 21 L48 20 L49 21 z"/>
<path style="fill:#7a7a7a" d="M54 21 L53 20 L54 21 z"/>
<path style="fill:#e6e7e7" d="M49 21 L50 22 L51 24 L51 29 L51 30 C50.05 29.81 48.06 30.59 48 29 C50.01 26.57 48.59 23.54 48 21 L49 21 z"/>
<path style="fill:#787878" d="M50 22 L49 21 L50 22 z"/>
<path style="fill:#686868" d="M55 22 L54 21 L55 22 z"/>
<path style="fill:#797979" d="M32 22 L31 23 L32 22 z"/>
<path style="fill:#8b8b8b" d="M56 23 L55 22 L56 23 z"/>
<path style="fill:#9e9e9e" d="M31 23 L30 24 L31 23 z"/>
<path style="fill:#7a7b7b" d="M51 29 L51 24 C52.6 24.45 52.6 28.55 51 29 z"/>
<path style="fill:#787878" d="M30 25 L29 26 L30 25 z"/>
<path style="fill:#989898" d="M58 26 L57 25 L58 26 z"/>
<path style="fill:#7b7b7b" d="M29 27 C29.02 27.66 29.18 29.15 28 29 C27.98 28.34 27.82 26.85 29 27 z"/>
<path style="fill:#d3d4d4" d="M38 27 L39 28 L41 31 C37.57 28.88 32.34 30.55 32 35 C30.82 35.15 30.98 33.66 31 33 L32 30 L33 29 L34 28 L38 27 z"/>
<path style="fill:#7a7a7a" d="M39 28 L38 27 L39 28 z"/>
<path style="fill:#666666" d="M34 28 L33 29 L34 28 z"/>
<path style="fill:#464646" d="M59 35 L58 35 L58 28 L59 35 z"/>
<path style="fill:#616161" d="M33 29 L32 30 L33 29 z"/>
<path style="fill:#808181" d="M48 29 C48.06 30.59 50.05 29.81 51 30 L46 32 L46 31 L48 29 z"/>
<path style="fill:#0b0b0b" d="M41 31 L42 33 L42 38 L42 39 C40.67 38.78 40.67 41.22 42 41 C44.33 43.54 47.74 43.06 51 43 L56 41 L55 43 L54 44 L52 45 L51 46 C47.67 47.82 43.95 48.31 40 48 C40.15 46.82 38.66 46.98 38 47 L34 45 L33 44 L32 43 L32 35 C32.34 30.55 37.57 28.88 41 31 z"/>
<path style="fill:#dfe0e0" d="M46 31 L46 32 C42.44 33.45 43.39 39.96 47 41 L51 43 C47.74 43.06 44.33 43.54 42 41 L42 39 L42 38 C43.6 37.55 43.6 33.45 42 33 L41 31 L46 31 z"/>
<path style="fill:#696a6a" d="M31 33 C30.98 33.66 30.82 35.15 32 35 L32 43 C30.07 42.59 29.91 40.35 29 39 L31 33 z"/>
<path style="fill:#5c5d5d" d="M42 38 L42 33 C43.6 33.45 43.6 37.55 42 38 z"/>
<path style="fill:#a6a7a7" d="M59 35 C59.02 35.66 59.18 37.15 58 37 L58 35 L59 35 z"/>
<path style="fill:#767777" d="M58 37 C58.28 38.6 57.86 40.66 56 41 L51 43 L47 41 C51.44 41.95 54.96 39.77 58 37 z"/>
<path style="fill:#6c6c6c" d="M42 39 L42 41 C40.67 41.22 40.67 38.78 42 39 z"/>
<path style="fill:#9d9d9d" d="M33 44 L32 43 L33 44 z"/>
<path style="fill:#a1a1a1" d="M55 43 L54 44 L55 43 z"/>
<path style="fill:#a6a6a6" d="M34 45 L33 44 L34 45 z"/>
<path style="fill:#6d6d6d" d="M30 46 L32 49 L31 50 C28.51 48.43 26.01 46.34 23 46 C24.03 44.36 28.97 44.36 30 46 z"/>
<path style="fill:#616161" d="M52 45 L51 46 L52 45 z"/>
<path style="fill:#b4b5b5" d="M63 46 L62 46 L57 46 C57.73 44.38 62.27 44.38 63 46 z"/>
<path style="fill:#070808" d="M23 46 C26.01 46.34 28.51 48.43 31 50 C32.36 51.7 31.98 53.91 32 56 L31 57 L31 58 L24 59 L22 57 C23.01 54.91 19.25 54.04 19 56 C17.15 55.67 15.67 57.54 15 59 L14 60 L14 62 L12 67 L12 66 L12 64 L12 56 L13 53 L14 52 L14 51 L15 50 L16 49 L18 48 L19 47 L23 46 z"/>
<path style="fill:#080909" d="M30 46 L32 46 L33 47 L34 47 L35 48 L37 49 L38 50 L39 52 L40 53 L41 56 C40.98 56.66 40.82 58.15 42 58 L42 63 C40.82 62.85 40.98 64.34 41 65 L35 70 C31.59 70.8 28.41 69.1 27 66 L28 61 L29 60 L34 58 C35.6 57.55 35.6 53.45 34 53 L32 49 L30 46 z"/>
<path style="fill:#676767" d="M33 47 L32 46 L33 47 z"/>
<path style="fill:#676767" d="M57 46 L62 46 L63 48 L55 47 C54.85 45.82 56.34 45.98 57 46 z"/>
<path style="fill:#0a0a0a" d="M63 46 L65 46 C64.85 47.18 66.34 47.02 67 47 L68 48 L69 48 L70 49 L72 51 L73 52 L74 53 L74 54 L75 55 L75 56 C74.98 56.66 74.82 58.15 76 58 L76 63 C74.82 62.85 74.98 64.34 75 65 L75 66 L72 69 L65 70 L64 70 L63 69 L62 68 L61 67 C60.55 64.25 61.21 61.94 63 60 C63.66 60.02 65.15 60.18 65 59 L68 59 C69.62 58.27 69.62 53.73 68 53 L68 52 L67 51 C66.33 49.54 64.85 47.67 63 48 L62 46 L63 46 z"/>
<path style="fill:#9fa0a0" d="M67 47 C66.34 47.02 64.85 47.18 65 46 C65.66 45.98 67.15 45.82 67 47 z"/>
<path style="fill:#737373" d="M19 47 L18 48 L19 47 z"/>
<path style="fill:#6e6e6e" d="M35 48 L34 47 L35 48 z"/>
<path style="fill:#a1a2a2" d="M40 48 C39.34 48.02 37.85 48.18 38 47 C38.66 46.98 40.15 46.82 40 48 z"/>
<path style="fill:#707070" d="M54 47 L53 48 L54 47 z"/>
<path style="fill:#050606" d="M55 47 L63 48 L66 52 L66 53 L66 56 L65 58 C62.72 59.49 59.28 59.49 57 58 C55.9 55.88 53.15 55.22 51 57 L50 58 L49 59 L48 62 L46 67 L46 65 L46 57 L46 55 L47 54 L48 52 L49 51 L50 50 L51 49 L52 48 L53 48 L54 47 L55 47 z"/>
<path style="fill:#5e5e5e" d="M68 48 L67 47 L68 48 z"/>
<path style="fill:#999999" d="M52 48 L51 49 L52 48 z"/>
<path style="fill:#acadad" d="M67 51 L66 52 L63 48 C64.85 47.67 66.33 49.54 67 51 z"/>
<path style="fill:#888888" d="M70 49 L69 48 L70 49 z"/>
<path style="fill:#a7a7a7" d="M16 49 L15 50 L16 49 z"/>
<path style="fill:#e6e7e7" d="M32 49 L34 53 L34 58 L31 58 L31 57 L32 56 C31.98 53.91 32.36 51.7 31 50 L32 49 z"/>
<path style="fill:#a2a2a2" d="M38 50 L37 49 L38 50 z"/>
<path style="fill:#777777" d="M51 49 L50 50 L51 49 z"/>
<path style="fill:#a9a9a9" d="M15 50 L14 51 L15 50 z"/>
<path style="fill:#626262" d="M50 50 L49 51 L50 50 z"/>
<path style="fill:#7b7b7b" d="M49 51 L48 52 L49 51 z"/>
<path style="fill:#f0f0f0" d="M67 51 L68 52 L68 53 L68 59 L65 59 L65 58 L66 56 C67.48 56.04 67.48 52.96 66 53 L66 52 L67 51 z"/>
<path style="fill:#939393" d="M68 52 L67 51 L68 52 z"/>
<path style="fill:#6b6b6b" d="M73 52 L72 51 L73 52 z"/>
<path style="fill:#5d5d5d" d="M14 52 L13 53 L14 52 z"/>
<path style="fill:#6a6a6a" d="M40 53 L39 52 L40 53 z"/>
<path style="fill:#9c9c9c" d="M74 53 L73 52 L74 53 z"/>
<path style="fill:#909090" d="M34 58 L34 53 C35.6 53.45 35.6 57.55 34 58 z"/>
<path style="fill:#a5a5a5" d="M66 56 L66 53 C67.48 52.96 67.48 56.04 66 56 z"/>
<path style="fill:#999999" d="M68 59 L68 53 C69.62 53.73 69.62 58.27 68 59 z"/>
<path style="fill:#9d9d9d" d="M47 54 L46 55 L47 54 z"/>
<path style="fill:#838383" d="M75 55 L74 54 L75 55 z"/>
<path style="fill:#9d9e9e" d="M22 57 L19 56 C19.25 54.04 23.01 54.91 22 57 z"/>
<path style="fill:#414242" d="M12 56 L12 64 L11 64 L12 56 z"/>
<path style="fill:#e6e6e6" d="M19 56 L22 57 L18 59 L16 61 L15 62 L15 63 L14 62 L14 60 L15 59 C15.67 57.54 17.15 55.67 19 56 z"/>
<path style="fill:#7d7d7d" d="M32 56 L31 57 L32 56 z"/>
<path style="fill:#808181" d="M42 58 C40.82 58.15 40.98 56.66 41 56 C42.18 55.85 42.02 57.34 42 58 z"/>
<path style="fill:#dcdcdc" d="M57 58 L56 59 L51 60 L50 61 L49 64 C47.82 64.15 47.98 62.66 48 62 L49 59 L50 58 L51 57 C53.15 55.22 55.9 55.88 57 58 z"/>
<path style="fill:#8f9090" d="M76 58 C74.82 58.15 74.98 56.66 75 56 C76.18 55.85 76.02 57.34 76 58 z"/>
<path style="fill:#888888" d="M24 59 L24 60 C22.3 58.64 20.09 59.02 18 59 L22 57 L24 59 z"/>
<path style="fill:#4f5050" d="M46 57 L46 65 C44.35 63.66 44.35 58.34 46 57 z"/>
<path style="fill:#676767" d="M51 57 L50 58 L51 57 z"/>
<path style="fill:#b4b4b4" d="M31 58 L34 58 L29 60 L28 60 L25 60 L24 60 L24 59 L31 58 z"/>
<path style="fill:#5e5e5e" d="M50 58 L49 59 L50 58 z"/>
<path style="fill:#787878" d="M65 58 L65 59 C65.15 60.18 63.66 60.02 63 60 L59 61 L56 59 L57 58 C59.28 59.49 62.72 59.49 65 58 z"/>
<path style="fill:#717171" d="M15 59 L14 60 L15 59 z"/>
<path style="fill:#060707" d="M18 59 C20.09 59.02 22.3 58.64 24 60 L25 60 L26 66 L25 67 C23.67 66.78 23.67 69.22 25 69 L26 70 L28 71 C28.45 72.6 32.55 72.6 33 71 L35 71 L38 70 L38 71 L37 72 L36 73 L34 74 L33 75 L32 75 C31.34 74.98 29.85 74.82 30 76 L23 76 C23.15 74.82 21.66 74.98 21 75 L20 75 L19 74 L18 74 L17 73 L16 72 L15 63 L15 62 L16 61 L18 59 z"/>
<path style="fill:#080909" d="M56 59 L59 61 L60 66 L59 67 C58.19 71.99 64.48 72.37 68 72 C69.35 71.09 71.59 70.93 72 69 L73 70 L69 74 L68 75 L67 75 L66 76 L64 76 L58 76 L55 76 L54 75 L53 75 L52 74 L51 73 L50 72 L49 71 L49 64 L50 61 L51 60 L56 59 z"/>
<path style="fill:#d1d2d2" d="M28 60 L28 61 L27 66 L26 66 L25 60 L28 60 z"/>
<path style="fill:#606060" d="M29 60 L28 61 L28 60 L29 60 z"/>
<path style="fill:#818181" d="M51 60 L50 61 L51 60 z"/>
<path style="fill:#e1e1e1" d="M63 60 C61.21 61.94 60.55 64.25 61 67 L62 68 L63 69 L64 70 L65 70 L68 72 C64.48 72.37 58.19 71.99 59 67 L60 66 L59 61 L63 60 z"/>
<path style="fill:#5a5a5a" d="M16 61 L15 62 L16 61 z"/>
<path style="fill:#6b6c6c" d="M14 62 L15 63 L16 72 L12 67 L14 62 z"/>
<path style="fill:#666666" d="M48 62 C47.98 62.66 47.82 64.15 49 64 L49 71 C47.07 70.59 46.91 68.35 46 67 L48 62 z"/>
<path style="fill:#9d9e9e" d="M42 63 C42.02 63.66 42.18 65.15 41 65 C40.98 64.34 40.82 62.85 42 63 z"/>
<path style="fill:#717272" d="M76 63 C76.02 63.66 76.18 65.15 75 65 C74.98 64.34 74.82 62.85 76 63 z"/>
<path style="fill:#9e9f9f" d="M12 64 L12 66 C10.82 66.15 10.98 64.66 11 64 L12 64 z"/>
<path style="fill:#717171" d="M41 65 C41.28 66.6 40.86 68.66 39 69 L38 70 L35 71 L35 70 L41 65 z"/>
<path style="fill:#e4e5e5" d="M26 66 L27 66 C28.41 69.1 31.59 70.8 35 70 L35 71 L33 71 L28 71 L26 70 L25 69 L25 67 L26 66 z"/>
<path style="fill:#666666" d="M60 66 L59 67 L60 66 z"/>
<path style="fill:#707070" d="M75 66 C75.28 67.6 74.86 69.66 73 70 L72 69 L75 66 z"/>
<path style="fill:#5b5b5b" d="M25 67 L25 69 C23.67 69.22 23.67 66.78 25 67 z"/>
<path style="fill:#8b8b8b" d="M62 68 L61 67 L62 68 z"/>
<path style="fill:#737373" d="M26 70 L25 69 L26 70 z"/>
<path style="fill:#030303" d="M39 69 L39 70 L38 70 L39 69 z"/>
<path style="fill:#707070" d="M64 70 L63 69 L64 70 z"/>
<path style="fill:#949494" d="M72 69 C71.59 70.93 69.35 71.09 68 72 L65 70 L72 69 z"/>
<path style="fill:#808080" d="M39 70 L38 71 L38 70 L39 70 z"/>
<path style="fill:#7b7c7c" d="M33 71 C32.55 72.6 28.45 72.6 28 71 L33 71 z"/>
<path style="fill:#6d6d6d" d="M38 71 L37 72 L38 71 z"/>
<path style="fill:#636363" d="M50 72 L49 71 L50 72 z"/>
<path style="fill:#9e9e9e" d="M17 73 L16 72 L17 73 z"/>
<path style="fill:#848484" d="M37 72 L36 73 L37 72 z"/>
<path style="fill:#6d6d6d" d="M51 73 L50 72 L51 73 z"/>
<path style="fill:#9c9c9c" d="M18 74 L17 73 L18 74 z"/>
<path style="fill:#616161" d="M52 74 L51 73 L52 74 z"/>
<path style="fill:#7b7b7b" d="M20 75 L19 74 L20 75 z"/>
<path style="fill:#8e8e8e" d="M34 74 L33 75 L34 74 z"/>
<path style="fill:#a0a0a0" d="M53 75 L52 74 L53 75 z"/>
<path style="fill:#8f8f8f" d="M69 74 L68 75 L69 74 z"/>
<path style="fill:#838484" d="M23 76 C22.34 76.02 20.85 76.18 21 75 C21.66 74.98 23.15 74.82 23 76 z"/>
<path style="fill:#828383" d="M32 75 C32.15 76.18 30.66 76.02 30 76 C29.85 74.82 31.34 74.98 32 75 z"/>
<path style="fill:#969696" d="M55 76 L54 75 L55 76 z"/>
<path style="fill:#868686" d="M67 75 L66 76 L67 75 z"/>
<path style="fill:#707171" d="M64 76 C63.27 77.62 58.73 77.62 58 76 L64 76 z"/>
</svg>
