<?xml version="1.0" standalone="yes"?>
<svg width="87" height="97">
<path style="fill:#fdfdfd" d="M87 0 L87 97 L0 97 L0 0 L87 0 z"/>
<path style="fill:#989898" d="M38 17 C38.15 18.18 36.66 18.02 36 18 C35.85 16.82 37.34 16.98 38 17 z"/>
<path style="fill:#080909" d="M50 17 C49.85 18.18 51.34 18.02 52 18 L53 18 C52.85 19.18 54.34 19.02 55 19 L56 19 L57 20 L58 20 L59 21 L60 21 L61 22 L62 23 L63 23 L64 24 L65 25 L66 26 L67 27 L68 28 L69 29 L70 31 L71 32 L71 33 L72 34 L73 37 C72.98 37.66 72.82 39.15 74 39 L74 40 C73.98 40.66 73.82 42.15 75 42 L75 43 L75 54 L75 56 C73.82 55.85 73.98 57.34 74 58 L73 62 L72 63 L72 64 L71 65 L71 66 L70 67 L69 68 L68 70 L67 71 L66 72 L65 73 L62 75 L61 76 L59 77 L58 78 L54 79 C53.34 78.98 51.85 78.82 52 80 L51 80 L49 80 L38 80 L35 80 C35.15 78.82 33.66 78.98 33 79 L30 78 L29 77 L28 77 L27 76 L25 75 L24 74 L23 73 L22 72 L20 70 L19 69 L18 68 L17 66 L16 65 L16 64 L15 63 C15.02 62.34 15.18 60.85 14 61 L14 60 C14.02 59.34 14.18 57.85 13 58 L13 56 L12 52 L12 45 L13 41 L13 40 C14.18 40.15 14.02 38.66 14 38 L16 33 L17 32 L18 30 L19 29 L24 24 L25 23 L26 22 L27 22 L28 21 L33 19 C33.66 19.02 35.15 19.18 35 18 L36 18 C36.66 18.02 38.15 18.18 38 17 L50 17 z"/>
<path style="fill:#acacac" d="M52 18 C51.34 18.02 49.85 18.18 50 17 C50.66 16.98 52.15 16.82 52 18 z"/>
<path style="fill:#6b6b6b" d="M35 18 C35.15 19.18 33.66 19.02 33 19 C32.85 17.82 34.34 17.98 35 18 z"/>
<path style="fill:#848484" d="M55 19 C54.34 19.02 52.85 19.18 53 18 C53.66 17.98 55.15 17.82 55 19 z"/>
<path style="fill:#787878" d="M57 20 L56 19 L57 20 z"/>
<path style="fill:#777777" d="M59 21 L58 20 L59 21 z"/>
<path style="fill:#626262" d="M28 21 L27 22 L28 21 z"/>
<path style="fill:#9d9d9d" d="M61 22 L60 21 L61 22 z"/>
<path style="fill:#929292" d="M26 22 L25 23 L26 22 z"/>
<path style="fill:#5d5d5d" d="M62 23 L61 22 L62 23 z"/>
<path style="fill:#6a6a6a" d="M25 23 L24 24 L25 23 z"/>
<path style="fill:#5b5c5c" d="M39 23 L39 24 L37 24 C36.85 22.82 38.34 22.98 39 23 z"/>
<path style="fill:#c1c1c1" d="M49 24 L39 24 L39 23 L49 24 z"/>
<path style="fill:#a6a6a6" d="M64 24 L63 23 L64 24 z"/>
<path style="fill:#f9f9f9" d="M37 24 L39 24 L49 24 L54 25 C53.85 26.18 55.34 26.02 56 26 L57 27 L59 28 L60 29 L61 30 L61 31 L45 31 C43.34 35.3 43.34 43.7 45 48 L45 49 C43.34 53.3 43.34 61.7 45 66 L61 68 L60 69 L55 72 L54 73 L52 73 C51.34 72.98 49.85 72.82 50 74 L48 74 L40 74 L37 74 C37.15 72.82 35.66 72.98 35 73 L34 73 L33 72 L32 72 L31 71 L30 71 L29 70 L28 69 L27 68 L43 66 L43 50 L43 49 L43 48 L43 32 L27 31 L26 31 L26 30 L29 28 L30 27 L37 24 z"/>
<path style="fill:#959595" d="M65 25 L64 24 L65 25 z"/>
<path style="fill:#5b5b5b" d="M56 26 C55.34 26.02 53.85 26.18 54 25 C54.66 24.98 56.15 24.82 56 26 z"/>
<path style="fill:#7a7a7a" d="M66 26 L65 25 L66 26 z"/>
<path style="fill:#8d8d8d" d="M57 27 L56 26 L57 27 z"/>
<path style="fill:#727272" d="M67 27 L66 26 L67 27 z"/>
<path style="fill:#939393" d="M30 27 L29 28 L30 27 z"/>
<path style="fill:#8e8e8e" d="M68 28 L67 27 L68 28 z"/>
<path style="fill:#797979" d="M60 29 L59 28 L60 29 z"/>
<path style="fill:#a2a2a2" d="M69 29 L68 28 L69 29 z"/>
<path style="fill:#7b7b7b" d="M19 29 L18 30 L19 29 z"/>
<path style="fill:#8b8b8b" d="M61 30 L60 29 L61 30 z"/>
<path style="fill:#5f5f5f" d="M26 30 L26 31 L25 31 L26 30 z"/>
<path style="fill:#c3c3c3" d="M63 32 L61 48 L61 32 L61 31 L61 30 L63 32 z"/>
<path style="fill:#f9fafa" d="M26 31 L26 48 L26 49 L26 50 L26 66 L25 66 L24 65 L23 64 L22 63 L22 62 L21 61 L21 60 L20 59 L19 55 L19 53 L19 44 L19 42 C20.18 42.15 20.02 40.66 20 40 L22 35 L23 34 L25 31 L26 31 z"/>
<path style="fill:#585959" d="M27 31 L27 32 L27 48 L26 48 L26 31 L27 31 z"/>
<path style="fill:#404040" d="M43 32 L42 32 L27 32 L27 31 L43 32 z"/>
<path style="fill:#858585" d="M45 31 L45 32 L45 48 C43.34 43.7 43.34 35.3 45 31 z"/>
<path style="fill:#3e3e3e" d="M61 31 L61 32 L45 32 L45 31 L61 31 z"/>
<path style="fill:#848484" d="M71 32 L70 31 L71 32 z"/>
<path style="fill:#767676" d="M17 32 L16 33 L17 32 z"/>
<path style="fill:#040505" d="M42 32 L42 48 L27 48 L27 32 L42 32 z"/>
<path style="fill:#2b2b2b" d="M43 32 L43 48 L42 48 L42 32 L43 32 z"/>
<path style="fill:#010202" d="M61 32 L61 48 L58 48 C55.69 46.34 49.31 46.34 47 48 L45 48 L45 32 L61 32 z"/>
<path style="fill:#f9f9f9" d="M63 32 L64 33 L65 34 L65 35 L66 36 L67 39 L68 40 L68 41 C67.98 41.66 67.82 43.15 69 43 L69 45 L69 54 C67.82 53.85 67.98 55.34 68 56 L68 58 C66.82 57.85 66.98 59.34 67 60 L66 61 L66 62 L65 63 L64 65 L63 66 L61 50 L61 49 L61 48 L63 32 z"/>
<path style="fill:#8a8a8a" d="M64 33 L63 32 L64 33 z"/>
<path style="fill:#676767" d="M65 34 L64 33 L65 34 z"/>
<path style="fill:#636363" d="M72 34 L71 33 L72 34 z"/>
<path style="fill:#8c8c8c" d="M23 34 L22 35 L23 34 z"/>
<path style="fill:#a1a1a1" d="M66 36 L65 35 L66 36 z"/>
<path style="fill:#676868" d="M74 39 C72.82 39.15 72.98 37.66 73 37 C74.18 36.85 74.02 38.34 74 39 z"/>
<path style="fill:#888989" d="M14 38 C14.02 38.66 14.18 40.15 13 40 C12.98 39.34 12.82 37.85 14 38 z"/>
<path style="fill:#e3e3e3" d="M33 38 C39.89 37.16 32.16 44.89 33 38 z"/>
<path style="fill:#a2a2a2" d="M52 38 L52 41 L51 41 C51.19 40.05 50.41 38.06 52 38 z"/>
<path style="fill:#f0f1f1" d="M54 38 C54.21 39.42 54.11 41.67 52 41 L52 38 L54 38 z"/>
<path style="fill:#4c4c4c" d="M51 41 L52 41 C54.11 41.67 54.21 39.42 54 38 C57.51 39.71 52.71 44.51 51 41 z"/>
<path style="fill:#8f8f8f" d="M68 40 L67 39 L68 40 z"/>
<path style="fill:#a3a3a3" d="M20 40 C20.02 40.66 20.18 42.15 19 42 C18.98 41.34 18.82 39.85 20 40 z"/>
<path style="fill:#707171" d="M75 42 C73.82 42.15 73.98 40.66 74 40 C75.18 39.85 75.02 41.34 75 42 z"/>
<path style="fill:#8c8c8c" d="M13 41 L12 45 L13 41 z"/>
<path style="fill:#6a6b6b" d="M69 43 C67.82 43.15 67.98 41.66 68 41 C69.18 40.85 69.02 42.34 69 43 z"/>
<path style="fill:#acadad" d="M75 54 L75 43 C76.66 45.31 76.66 51.69 75 54 z"/>
<path style="fill:#b8b9b9" d="M19 44 L19 53 L18 53 L19 44 z"/>
<path style="fill:#424242" d="M69 54 L69 45 C70.65 46.66 70.65 52.34 69 54 z"/>
<path style="fill:#141414" d="M58 48 L47 48 C49.31 46.34 55.69 46.34 58 48 z"/>
<path style="fill:#e0e0e0" d="M27 48 L42 48 L43 48 L43 49 L26 49 L26 48 L27 48 z"/>
<path style="fill:#dfe0e0" d="M47 48 L58 48 L61 48 L61 49 L45 49 L45 48 L47 48 z"/>
<path style="fill:#959595" d="M43 49 L43 50 L42 50 L27 50 L26 50 L26 49 L43 49 z"/>
<path style="fill:#8d8d8d" d="M45 49 L61 49 L61 50 L45.25 50.25 L45 66 C43.34 61.7 43.34 53.3 45 49 z"/>
<path style="fill:#555656" d="M27 50 L27 66 L26 66 L26 50 L27 50 z"/>
<path style="fill:#020202" d="M42 50 L42 66 L27 66 L27 50 L42 50 z"/>
<path style="fill:#2c2c2c" d="M43 50 L43 66 L42 66 L42 50 L43 50 z"/>
<path style="fill:#010202" d="M61 50 L60.75 65.75 L45 66 L45.25 50.25 L61 50 z"/>
<path style="fill:#bbbbbb" d="M63 66 L61 68 L45 66 L60.75 65.75 L61 50 L63 66 z"/>
<path style="fill:#727272" d="M13 56 L12 52 L13 56 z"/>
<path style="fill:#686868" d="M19 53 L19 55 C17.82 55.15 17.98 53.66 18 53 L19 53 z"/>
<path style="fill:#939393" d="M69 54 C69.02 54.66 69.18 56.15 68 56 C67.98 55.34 67.82 53.85 69 54 z"/>
<path style="fill:#a5a6a6" d="M36 57 L33 57 C32.96 55.52 36.04 55.52 36 57 z"/>
<path style="fill:#808080" d="M54 59 C54.46 54.61 49.61 59.46 54 59 C52.59 61.93 49.57 58.42 51.25 56.25 C53.42 54.57 56.93 57.59 54 59 z"/>
<path style="fill:#7d7e7e" d="M75 56 C75.02 56.66 75.18 58.15 74 58 C73.98 57.34 73.82 55.85 75 56 z"/>
<path style="fill:#f6f7f7" d="M36 57 L36 59 L33 59 L33 57 L36 57 z"/>
<path style="fill:#fdfefe" d="M54 59 C49.61 59.46 54.46 54.61 54 59 z"/>
<path style="fill:#959595" d="M14 60 C12.82 60.15 12.98 58.66 13 58 C14.18 57.85 14.02 59.34 14 60 z"/>
<path style="fill:#565757" d="M68 58 C68.02 58.66 68.18 60.15 67 60 C66.98 59.34 66.82 57.85 68 58 z"/>
<path style="fill:#9c9c9c" d="M21 60 L20 59 L21 60 z"/>
<path style="fill:#6b6c6c" d="M36 59 C36.04 60.48 32.96 60.48 33 59 L36 59 z"/>
<path style="fill:#9a9a9a" d="M67 60 L66 61 L67 60 z"/>
<path style="fill:#aeaeae" d="M15 63 C13.82 63.15 13.98 61.66 14 61 C15.18 60.85 15.02 62.34 15 63 z"/>
<path style="fill:#9b9b9b" d="M22 62 L21 61 L22 62 z"/>
<path style="fill:#888888" d="M66 62 L65 63 L66 62 z"/>
<path style="fill:#757575" d="M73 62 L72 63 L73 62 z"/>
<path style="fill:#6f6f6f" d="M16 64 L15 63 L16 64 z"/>
<path style="fill:#7a7a7a" d="M23 64 L22 63 L23 64 z"/>
<path style="fill:#a7a7a7" d="M24 65 L23 64 L24 65 z"/>
<path style="fill:#767676" d="M72 64 L71 65 L72 64 z"/>
<path style="fill:#909090" d="M17 66 L16 65 L17 66 z"/>
<path style="fill:#5d5d5d" d="M64 65 L63 66 L64 65 z"/>
<path style="fill:#bcbcbc" d="M26 66 L27 66 L42 66 L43 66 L27 68 L25 66 L26 66 z"/>
<path style="fill:#9c9c9c" d="M71 66 L70 67 L71 66 z"/>
<path style="fill:#606060" d="M70 67 L69 68 L70 67 z"/>
<path style="fill:#949494" d="M19 69 L18 68 L19 69 z"/>
<path style="fill:#717171" d="M61 68 L60 69 L61 68 z"/>
<path style="fill:#757575" d="M20 70 L19 69 L20 70 z"/>
<path style="fill:#9c9c9c" d="M29 70 L28 69 L29 70 z"/>
<path style="fill:#666666" d="M30 71 L29 70 L30 71 z"/>
<path style="fill:#a7a7a7" d="M68 70 L67 71 L68 70 z"/>
<path style="fill:#959595" d="M32 72 L31 71 L32 72 z"/>
<path style="fill:#a2a2a2" d="M67 71 L66 72 L67 71 z"/>
<path style="fill:#626262" d="M23 73 L22 72 L23 73 z"/>
<path style="fill:#888888" d="M34 73 L33 72 L34 73 z"/>
<path style="fill:#606060" d="M55 72 L54 73 L55 72 z"/>
<path style="fill:#a1a1a1" d="M66 72 L65 73 L66 72 z"/>
<path style="fill:#727272" d="M24 74 L23 73 L24 74 z"/>
<path style="fill:#818282" d="M37 74 C36.34 74.02 34.85 74.18 35 73 C35.66 72.98 37.15 72.82 37 74 z"/>
<path style="fill:#9e9e9e" d="M52 73 C52.15 74.18 50.66 74.02 50 74 C49.85 72.82 51.34 72.98 52 73 z"/>
<path style="fill:#929292" d="M25 75 L24 74 L25 75 z"/>
<path style="fill:#9b9c9c" d="M48 74 C46.66 75.65 41.34 75.65 40 74 L48 74 z"/>
<path style="fill:#7d7d7d" d="M62 75 L61 76 L62 75 z"/>
<path style="fill:#939393" d="M28 77 L27 76 L28 77 z"/>
<path style="fill:#6a6a6a" d="M30 78 L29 77 L30 78 z"/>
<path style="fill:#9d9d9d" d="M59 77 L58 78 L59 77 z"/>
<path style="fill:#8d8e8e" d="M35 80 C34.34 80.02 32.85 80.18 33 79 C33.66 78.98 35.15 78.82 35 80 z"/>
<path style="fill:#6b6b6b" d="M54 79 C54.15 80.18 52.66 80.02 52 80 C51.85 78.82 53.34 78.98 54 79 z"/>
<path style="fill:#434343" d="M49 80 L49 81 L38 80 L49 80 z"/>
<path style="fill:#a3a3a3" d="M51 80 C51.15 81.18 49.66 81.02 49 81 L49 80 L51 80 z"/>
</svg>
