<?xml version="1.0" standalone="yes"?>
<svg width="87" height="97">
<path style="fill:#fcfdfd" d="M87 0 L87 97 L0 97 L0 0 L87 0 z"/>
<path style="fill:#9f9f9f" d="M49 18 L47 18 C46.78 16.67 49.22 16.67 49 18 z"/>
<path style="fill:#a1a1a1" d="M52 18 C51.77 19.5 50.31 21.07 49 18 C49.9 17.68 51.73 15.98 52 18 z"/>
<path style="fill:#363636" d="M42 21 C39.43 21.13 35.38 21.21 39 19 C39.49 16.99 41.69 20.12 42 21 z"/>
<path style="fill:#222323" d="M49 18 C50.31 21.07 51.77 19.5 52 18 L54 18 C54.22 20.01 52.01 22.22 50 22 L48 20 L47 19 L47 18 L49 18 z"/>
<path style="fill:#7a7b7b" d="M62 22 C61.14 25.1 62.9 26.86 66 26 L72 32 C70.71 33.15 69.56 36.3 67.25 34.25 C67.21 36.04 66.33 38.5 64 38 C64.41 36.31 62.69 34.59 61 35 L59 33 C53.71 33.57 46.71 29.5 44 24 L44 22 C45.63 23.57 49.06 25.4 50 22 C52.01 22.22 54.22 20.01 54 18 C55.62 20.46 59 21.4 62 22 z"/>
<path style="fill:#676868" d="M30 20 C30.7 17.48 33.22 20.73 30 20 z"/>
<path style="fill:#707070" d="M39 19 C35.38 21.21 39.43 21.13 42 21 C42.66 20.98 44.15 20.82 44 22 L41 22 C39.08 21.48 36.51 22.69 37 25 L36 25 C34.9 26.84 29.89 24.06 32 23 L39 19 z"/>
<path style="fill:#a9a9a9" d="M48 20 L47 19 L48 20 z"/>
<path style="fill:#747474" d="M30 20 L28 24 C28.02 24.66 28.18 26.15 27 26 C24.65 23.76 27.01 19.76 30 20 z"/>
<path style="fill:#9c9c9c" d="M32 23 C29.89 24.06 34.9 26.84 36 25 C36.02 25.66 36.18 27.15 35 27 L29 24 C29.03 22.67 31.7 20.89 32 23 z"/>
<path style="fill:#0d0e0e" d="M41 22 C38.32 25.41 41.69 27.01 44 24 C46.71 29.5 53.71 33.57 59 33 C54.72 35 59 39.28 61 35 C62.69 34.59 64.41 36.31 64 38 C60.82 46.86 73.96 31.79 70.25 42.75 L73 43 C72.98 43.66 72.82 45.15 74 45 L74 49 C72.05 43.94 66.98 50.72 73 50 L73 52 C71.82 52.84 71.18 52.84 70 52 L63.25 49.75 C63.32 45.11 57.82 44.17 55 47 L53 45 L53 43 L58.75 43.75 L51 39 L49 37 L48 36 L48 35 C48.02 34.34 48.18 32.85 47 33 L47 32 L46 31 L45 30 L43 29 L42 28 C40.15 27.8 37.68 26.97 37 25 C36.51 22.69 39.08 21.48 41 22 z"/>
<path style="fill:#494a4a" d="M44 22 L44 24 C41.69 27.01 38.32 25.41 41 22 L44 22 z"/>
<path style="fill:#c8c8c8" d="M66 26 C62.9 26.86 61.14 25.1 62 22 C62.98 23.93 64.07 25.02 66 26 z"/>
<path style="fill:#a6a6a6" d="M29 24 L33 30 L32 30 L28 29 C28.02 28.34 28.18 26.85 27 27 L27 26 C28.18 26.15 28.02 24.66 28 24 L29 24 z"/>
<path style="fill:#6d6e6e" d="M35 27 C34.03 29.28 39.04 32.41 33 30 L29 24 L35 27 z"/>
<path style="fill:#f3f3f3" d="M37 25 C37.68 26.97 40.15 27.8 42 28 L43 29 L45 30 L46 31 L47 32 L47 33 C46.98 33.66 46.82 35.15 48 35 L48 36 L49 37 L51 39 L53 43 L53 45 L51 49 L46 51 L45 50 L44 51 L40 53 L37 55 C36.94 53.41 34.95 54.19 34 54 L34 53 C32.91 49.65 36.17 50.22 38 49 C41.75 48.17 40.49 37.56 37 43 C34.24 43.77 32.08 45.81 33 49 L30 41 L31 40 C34.66 41.88 42.59 34.73 35 36 C35.46 34.65 34.35 33.54 33 34 C30.66 35.93 27.45 35.13 27 32 C29.52 27.3 32.14 36.37 32 30 L33 30 C39.04 32.41 34.03 29.28 35 27 C36.18 27.15 36.02 25.66 36 25 L37 25 z"/>
<path style="fill:#5b5b5b" d="M25 29 L26 32 C22.01 30.95 23.56 34.3 26 35 L20 40 C22.99 41.56 23.22 42.16 19 42 L18 41 C17.57 37.86 24.69 34.33 20.25 32.25 L20 34 L19 33 C16.72 30.52 21.86 22.41 23.25 28.75 L25 29 z"/>
<path style="fill:#6b6b6b" d="M27 27 C28.18 26.85 28.02 28.34 28 29 L25 29 C24.54 27.65 25.65 26.54 27 27 z"/>
<path style="fill:#818181" d="M43 29 L42 28 L43 29 z"/>
<path style="fill:#dedede" d="M28 29 L27 32 L26 32 L25 29 L28 29 z"/>
<path style="fill:#454646" d="M32 30 C32.14 36.37 29.52 27.3 27 32 L28 29 L32 30 z"/>
<path style="fill:#909090" d="M46 31 L45 30 L46 31 z"/>
<path style="fill:#727272" d="M47 32 L46 31 L47 32 z"/>
<path style="fill:#aeaeae" d="M18 41 C15.25 39.22 19.04 35.96 20 34 L20.25 32.25 C24.69 34.33 17.57 37.86 18 41 z"/>
<path style="fill:#717171" d="M26 32 L27 32 C27.45 35.13 30.66 35.93 33 34 C32.15 35.53 34.09 38.57 35 36 C42.59 34.73 34.66 41.88 31 40 L26 35 C23.56 34.3 22.01 30.95 26 32 z"/>
<path style="fill:#5f6060" d="M72 32 L73 43 L70.25 42.75 C73.96 31.79 60.82 46.86 64 38 C66.33 38.5 67.21 36.04 67.25 34.25 C69.56 36.3 70.71 33.15 72 32 z"/>
<path style="fill:#7d7e7e" d="M19 33 L20 34 C19.04 35.96 15.25 39.22 18 41 L19 42 L17 47 L13 46 C12.01 43.45 14.64 42.29 15.75 41.25 C10.13 39.49 15.35 31.7 19 33 z"/>
<path style="fill:#7f7f7f" d="M48 35 C46.82 35.15 46.98 33.66 47 33 C48.18 32.85 48.02 34.34 48 35 z"/>
<path style="fill:#4f4f4f" d="M49 33 C55.33 32.15 49.22 39.35 49 33 z"/>
<path style="fill:#4d4d4d" d="M61 35 C59 39.28 54.72 35 59 33 L61 35 z"/>
<path style="fill:#303131" d="M35 36 C34.09 38.57 32.15 35.53 33 34 C34.35 33.54 35.46 34.65 35 36 z"/>
<path style="fill:#8f8f8f" d="M31 40 L30 41 C25.48 40.27 29.99 44.41 26 47 L27 49 L25 50 L25 43 C22.69 46.83 22.65 46.7 19 44 L19 42 C23.22 42.16 22.99 41.56 20 40 L26 35 L31 40 z"/>
<path style="fill:#757575" d="M49 37 L48 36 L49 37 z"/>
<path style="fill:#5f5f5f" d="M53 43 L51 39 L58.75 43.75 L53 43 z"/>
<path style="fill:#5d5d5d" d="M30 41 L33 49 L34 49 L38 49 C36.17 50.22 32.91 49.65 34 53 L29 52 L30 51 C31.88 51.74 34.25 49.76 31 50 C30.23 48.07 28.22 46.42 26 47 C29.99 44.41 25.48 40.27 30 41 z"/>
<path style="fill:#717171" d="M38 49 L34 49 C31.9 43.35 42.04 49.32 37 45 L37 43 C40.49 37.56 41.75 48.17 38 49 z"/>
<path style="fill:#dcdddd" d="M19 42 L19 44 L19 51 L18 51 C15.99 50.36 11.91 47.35 17 47 L19 42 z"/>
<path style="fill:#535454" d="M25 50 L25 51 C22.91 51.23 20.93 52.93 19 51 L19 44 C22.65 46.7 22.69 46.83 25 43 L25 50 z"/>
<path style="fill:#414141" d="M37 43 L37 45 C42.04 49.32 31.9 43.35 34 49 L33 49 C32.08 45.81 34.24 43.77 37 43 z"/>
<path style="fill:#737373" d="M74 45 C72.82 45.15 72.98 43.66 73 43 C74.18 42.85 74.02 44.34 74 45 z"/>
<path style="fill:#484848" d="M17 47 C11.91 47.35 15.99 50.36 18 51 C16.64 55.18 15.46 48.97 13 52 C12.18 49.71 12.18 48.29 13 46 L17 47 z"/>
<path style="fill:#7d7e7e" d="M70 52 C69.83 54.8 70.17 58.26 72 60 C72.33 61.85 70.46 63.33 69 64 C67.78 60.88 65.58 66.1 69 65 C70 68.61 65.75 69 63.25 69.25 L57 75 L55 71 L55 70 C56.29 65.98 61.18 64.85 56 61 L57 61 C63.83 62.78 56.46 51.25 52 52 L51 49 L53 45 L55 47 C57.82 44.17 63.32 45.11 63.25 49.75 L70 52 z"/>
<path style="fill:#555656" d="M64 45 C70.67 43.86 62.86 51.67 64 45 z"/>
<path style="fill:#e0e0e0" d="M31 50 L30 50 L27 49 L26 47 C28.22 46.42 30.23 48.07 31 50 z"/>
<path style="fill:#525252" d="M74 49 L74 50 L73 50 C66.98 50.72 72.05 43.94 74 49 z"/>
<path style="fill:#767777" d="M27 49 L30 50 L30 51 L29 52 L27 54 C26.94 52.41 24.95 53.19 24 53 L25 51 L25 50 L27 49 z"/>
<path style="fill:#959595" d="M51 49 L52 52 L47 54 L45 54 L46 51 L51 49 z"/>
<path style="fill:#0c0c0c" d="M31 50 C34.25 49.76 31.88 51.74 30 51 L30 50 L31 50 z"/>
<path style="fill:#969696" d="M45 50 L44 51 L45 50 z"/>
<path style="fill:#3b3b3b" d="M46 51 L45 54 L44 58 L41 58 L43 54 C44.88 54.14 42.86 52.12 43 54 C42.05 53.81 40.06 54.59 40 53 L44 51 L45 50 L46 51 z"/>
<path style="fill:#a0a0a0" d="M74 50 L74 52 L73 52 L73 50 L74 50 z"/>
<path style="fill:#727272" d="M18 51 L19 51 L20 54 L19 55 L17 55 L15 56 C15.21 54.58 15.11 52.33 13 53 L13 52 C15.46 48.97 16.64 55.18 18 51 z"/>
<path style="fill:#a4a5a5" d="M25 51 L24 53 L20 54 L19 51 C20.93 52.93 22.91 51.23 25 51 z"/>
<path style="fill:#5e5e5e" d="M29 52 L31 56 C28.48 55.26 29.23 57.87 31 58 L31 59 C30.34 58.98 28.85 58.82 29 60 C26 59.5 20.62 60.8 19 55 L20 54 L27 54 L29 52 z"/>
<path style="fill:#979797" d="M34 53 L34 54 L34 55 L31 59 L31 58 L31 56 L29 52 L34 53 z"/>
<path style="fill:#121212" d="M57 61 L55.25 59.75 C56.89 53.83 48.34 53.09 53 58 C50.67 58.85 50.26 56.91 49 56 C49.15 54.82 47.66 54.98 47 55 L47 54 L52 52 C56.46 51.25 63.83 62.78 57 61 z"/>
<path style="fill:#444444" d="M73 52 L74 52 L72 60 C70.17 58.26 69.83 54.8 70 52 C71.18 52.84 71.82 52.84 73 52 z"/>
<path style="fill:#454646" d="M13 53 C15.11 52.33 15.21 54.58 15 56 C13.36 56.79 10.56 53.58 13 53 z"/>
<path style="fill:#444444" d="M24 53 C24.95 53.19 26.94 52.41 27 54 L20 54 L24 53 z"/>
<path style="fill:#767676" d="M40 53 C40.06 54.59 42.05 53.81 43 54 L41 58 C40.37 59.4 38.25 59.12 40 61 L36 60 L33 61 L28 62 L29 60 C28.85 58.82 30.34 58.98 31 59 L34 55 C36.68 55.46 34.95 57.27 35.25 58.75 C37.01 58.66 37.2 56.38 37 55 L40 53 z"/>
<path style="fill:#949494" d="M43 54 C42.86 52.12 44.88 54.14 43 54 z"/>
<path style="fill:#313131" d="M37 55 C37.2 56.38 37.01 58.66 35.25 58.75 C34.95 57.27 36.68 55.46 34 55 L34 54 C34.95 54.19 36.94 53.41 37 55 z"/>
<path style="fill:#dddede" d="M47 54 L47 55 C47.41 56.69 45.69 58.41 44 58 L45 54 L47 54 z"/>
<path style="fill:#595a5a" d="M57 61 L56 61 C55.05 61.19 53.06 60.41 53 62 L44 63 C41.96 62.3 43.15 59.28 44 58 C45.69 58.41 47.41 56.69 47 55 C47.66 54.98 49.15 54.82 49 56 C42.89 59.84 55.39 63.06 53 58 C48.34 53.09 56.89 53.83 55.25 59.75 L57 61 z"/>
<path style="fill:#525353" d="M17 55 L17 60 L16 61 L14 62 L14 58 C15.18 58.15 15.02 56.66 15 56 L17 55 z"/>
<path style="fill:#929292" d="M19 55 C20.62 60.8 26 59.5 29 60 L28 62 C28.15 63.18 26.66 63.02 26 63 L20 61 C19.94 59.41 17.95 60.19 17 60 L17 55 L19 55 z"/>
<path style="fill:#131313" d="M31 56 L31 58 C29.23 57.87 28.48 55.26 31 56 z"/>
<path style="fill:#898a8a" d="M49 56 C50.26 56.91 50.67 58.85 53 58 C55.39 63.06 42.89 59.84 49 56 z"/>
<path style="fill:#afb0b0" d="M14 58 L14 62 C12.45 61.81 12.45 58.19 14 58 z"/>
<path style="fill:#e7e8e8" d="M44 58 C43.15 59.28 41.96 62.3 44 63 L44 64 C42.66 63.67 41.26 64.71 41 66 C38.3 66.52 39.95 68.34 40 70 L38 69 L37 67 L38 65 L40 62 L40 61 C38.25 59.12 40.37 59.4 41 58 L44 58 z"/>
<path style="fill:#343434" d="M20 61 C16.22 62.18 18.48 66.64 22 65 L18 66 C15.63 65.54 15.92 62.83 16 61 L17 60 C17.95 60.19 19.94 59.41 20 61 z"/>
<path style="fill:#333333" d="M33 61 L33 63 L26 64 L26 63 C26.66 63.02 28.15 63.18 28 62 L33 61 z"/>
<path style="fill:#8a8b8b" d="M36 60 C35.49 62.5 38.42 63.8 40 62 L38 65 L33 63 L33 61 L36 60 z"/>
<path style="fill:#373737" d="M40 61 L40 62 C38.42 63.8 35.49 62.5 36 60 L40 61 z"/>
<path style="fill:#6f7070" d="M20 61 L26 63 L26 64 C24.82 63.85 24.98 65.34 25 66 L22 65 C18.48 66.64 16.22 62.18 20 61 z"/>
<path style="fill:#181919" d="M53 62 C52.15 68.33 59.35 62.22 53 62 C53.06 60.41 55.05 61.19 56 61 C61.18 64.85 56.29 65.98 55 70 L51 71 L50 70 C50.46 68.65 49.35 67.54 48 68 L44 68 C42.58 68.21 40.33 68.11 41 66 C41.26 64.71 42.66 63.67 44 64 C44.84 67.12 48.66 65.68 51 66 C50.28 72.02 57.06 66.95 52 65 L44 63 L53 62 z"/>
<path style="fill:#545454" d="M53 62 C59.35 62.22 52.15 68.33 53 62 z"/>
<path style="fill:#9d9e9e" d="M33 63 L33 65 L31 65 L27 67 L25 66 C24.98 65.34 24.82 63.85 26 64 L33 63 z"/>
<path style="fill:#4d4d4d" d="M38 65 L37 67 L33 65 L33 63 L38 65 z"/>
<path style="fill:#7d7d7d" d="M52 65 L51 66 C48.66 65.68 44.84 67.12 44 64 L44 63 L52 65 z"/>
<path style="fill:#212121" d="M69 64 L69 65 C65.58 66.1 67.78 60.88 69 64 z"/>
<path style="fill:#cecfcf" d="M33 65 L37 67 L38 69 L35 69 L32 68 C30.41 67.94 31.19 65.95 31 65 L33 65 z"/>
<path style="fill:#e3e4e4" d="M25 66 L27 67 L27 69 L25 69 C24.3 66.94 18.75 66.24 19 69 C17.41 68.94 18.19 66.95 18 66 L22 65 L25 66 z"/>
<path style="fill:#4f5050" d="M31 65 C31.19 65.95 30.41 67.94 32 68 C35.37 72.77 27.7 66.51 31 73 L30 73 L28 74 L27 69 L27 67 L31 65 z"/>
<path style="fill:#4c4c4c" d="M52 65 C57.06 66.95 50.28 72.02 51 66 L52 65 z"/>
<path style="fill:#6c6d6d" d="M41 66 C40.33 68.11 42.58 68.21 44 68 C44.85 72.01 42.37 69.81 40 70 C39.95 68.34 38.3 66.52 41 66 z"/>
<path style="fill:#545555" d="M25 69 C23.61 71.57 25.51 73.5 28 74 L28 76 L27 76 L26 75 C24.66 75.33 23.26 74.29 23 73 C24.28 67.6 22.07 69.43 20 71 C20.02 70.34 20.18 68.85 19 69 C18.75 66.24 24.3 66.94 25 69 z"/>
<path style="fill:#8a8b8b" d="M35 69 L39 72 C38.23 71.68 34.72 72.23 37 73 C37.45 75.02 36.16 74.93 35 74 C35.52 72.03 33.77 71.71 33.75 73.75 C32.68 73.12 32.71 71.38 31 73 C27.7 66.51 35.37 72.77 32 68 L35 69 z"/>
<path style="fill:#7d7e7e" d="M50 70 L48 68 C49.35 67.54 50.46 68.65 50 70 z"/>
<path style="fill:#898989" d="M23 73 L20 71 C22.07 69.43 24.28 67.6 23 73 z"/>
<path style="fill:#8b8b8b" d="M27 69 L28 74 C25.51 73.5 23.61 71.57 25 69 L27 69 z"/>
<path style="fill:#4d4e4e" d="M38 69 L40 70 L41 72 C41.02 72.66 41.18 74.15 40 74 L39 72 L35 69 L38 69 z"/>
<path style="fill:#4a4b4b" d="M55 70 L55 71 C50.07 72.6 54.47 72.77 56 75 L54 77 L51 73 L51 71 L55 70 z"/>
<path style="fill:#0c0d0d" d="M55 71 L57 75 L56 75 C54.47 72.77 50.07 72.6 55 71 z"/>
<path style="fill:#686868" d="M35 74 L33 77 L28 76 L28 74 L30 73 C29.35 75.16 31.65 75.16 31 73 C32.71 71.38 32.68 73.12 33.75 73.75 C33.77 71.71 35.52 72.03 35 74 z"/>
<path style="fill:#2a2a2a" d="M39 72 L40 74 C40.06 75.59 42.05 74.81 43 75 C43.66 74.98 45.15 74.82 45 76 C43.5 78.36 40.09 75.49 38 75 C38.02 74.34 38.18 72.85 37 73 C34.72 72.23 38.23 71.68 39 72 z"/>
<path style="fill:#adadad" d="M43 75 C42.05 74.81 40.06 75.59 40 74 C41.18 74.15 41.02 72.66 41 72 L43 75 z"/>
<path style="fill:#d0d1d1" d="M31 73 C31.65 75.16 29.35 75.16 30 73 L31 73 z"/>
<path style="fill:#545454" d="M38 75 C37.81 75.95 38.59 77.94 37 78 C35.65 79.29 33.41 79.15 33 77 L35 74 C36.16 74.93 37.45 75.02 37 73 C38.18 72.85 38.02 74.34 38 75 z"/>
<path style="fill:#636363" d="M50 73 L49 74 L50 73 z"/>
<path style="fill:#0b0b0b" d="M51 73 L54 77 L53 77 C51.08 77.52 48.51 76.31 49 74 L50 73 L51 73 z"/>
<path style="fill:#858585" d="M49 74 C48.51 76.31 51.08 77.52 53 77 C51.8 82.48 43.65 74.18 49 74 z"/>
<path style="fill:#a9a9a9" d="M27 76 L26 75 L27 76 z"/>
<path style="fill:#666767" d="M45 76 C48.29 76.74 46.46 80.63 44 78 C42.87 80.79 38.5 80.46 37 78 C38.59 77.94 37.81 75.95 38 75 C40.09 75.49 43.5 78.36 45 76 z"/>
</svg>
