<?xml version="1.0" standalone="yes"?>
<svg width="87" height="97">
<path style="fill:#fbfcfc" d="M87 0 L87 97 L0 97 L0 0 L87 0 z"/>
<path style="fill:#858686" d="M36 20 C35.05 20.19 33.06 19.41 33 21 C29.67 19.55 35.73 17.53 36 20 z"/>
<path style="fill:#0e0f0f" d="M36 20 L41 21 L42 22 L43 23 L44 24 C44.06 25.59 46.05 24.81 47 25 C49.99 24.92 51.73 28.5 52 31 L53 32 L54 33 L55 34 C54.35 36.16 56.65 36.16 56 34 L57 34 C60.35 34.72 60.9 29.53 57 31 C55.41 31.06 56.19 33.05 56 34 L55 34 L55 30 C56.59 29.94 55.81 27.95 56 27 C56.33 25.25 54.83 19.54 58 22 L59 23 C61.03 26.76 63.26 30.43 63 35 L61 35 C58.89 34.33 58.79 36.58 59 38 C58.96 39.48 62.04 39.48 62 38 L62 37 L64 37 L64 40 L63 41 L62 42 L61 43 C60.34 42.98 58.85 42.82 59 44 L58 44 C58.08 42.17 58.37 39.46 56 39 C55.04 32.59 49.02 42.85 55 40 C59.26 41.66 55.9 45.97 54 48 L53 49 L50 52 L50 53 C48.82 52.85 48.98 54.34 49 55 C47.82 54.85 47.98 56.34 48 57 L47 57 L47 56 L48 52 L49 51 C51.05 45.34 43.26 48.13 45 53 L44 54 L43 62 L42 62 L42 58 C43.18 58.15 43.02 56.66 43 56 C41.44 51.56 48.95 46.39 43 44 C41.82 43.85 41.98 45.34 42 46 L41 53 L40 57 L40 61 L39 61 L40 46 L41 45 C41.58 42.78 39.93 40.77 38 40 C36.82 39.85 36.98 41.34 37 42 L37 47 L35 49 L34.25 42.25 L33 47 L32 46 L31 47 C28.07 47.49 32.51 51.93 33 49 L34 49 L36 60 L36 62 C34.76 61.39 34.02 59.44 34 58 C34.02 57.34 34.18 55.85 33 56 C32.25 47.51 28.51 57.51 32 61 L31 61 L29 56 L28 55 C28.67 52.89 26.42 52.79 25 53 C23.67 52.78 23.67 55.22 25 55 L26 58 L26 59 L25 59 C25.14 57.12 23.12 59.14 25 59 L25 61 C23.03 60.32 22.2 57.85 22 56 L23 56 C22.86 57.88 24.88 55.86 23 56 C23.02 55.34 23.18 53.85 22 54 C22.02 53.34 22.18 51.85 21 52 C21.14 50.12 19.12 52.14 21 52 L21 54 L20 54 C19.09 52.12 18.2 49.77 16 49 L14 51 L14 48 C14.06 46.41 16.05 47.19 17 47 L19 49 C18.86 50.88 20.88 48.86 19 49 C19.46 47.65 18.35 46.54 17 47 L15 45 L15 43 L23 40 L29 40 L31 44 C32.33 44.22 32.33 41.78 31 42 L35 39 L33 34 C32.98 31.91 33.36 29.7 32 28 L31 27 C30.81 25.45 27.19 25.45 27 27 C26.34 26.98 24.85 26.82 25 28 C23.45 28.19 23.45 31.81 25 32 C24.85 33.18 26.34 33.02 27 33 C26.57 34.06 28.43 34.06 28 33 L27 31 L28 30 C32 29.61 31.63 34.94 28 35 L26 35 C23 35.25 21.87 31.37 22 29 L23 28 L23 27 L24 26 L25 25 L26 25 L31 25 C32.46 25.67 34.33 27.15 34 29 C33.32 33.33 35.68 33.33 35 29 L34 23 L33 22 L33 21 C33.06 19.41 35.05 20.19 36 20 z"/>
<path style="fill:#a9a9a9" d="M42 22 L41 21 L42 22 z"/>
<path style="fill:#707070" d="M34 23 L33 22 L34 23 z"/>
<path style="fill:#9e9e9e" d="M43 23 L42 22 L43 23 z"/>
<path style="fill:#a7a7a7" d="M59 23 L58 22 L59 23 z"/>
<path style="fill:#979797" d="M44 24 L43 23 L44 24 z"/>
<path style="fill:#828383" d="M31 25 L26 25 C26.45 23.4 30.55 23.4 31 25 z"/>
<path style="fill:#8f9090" d="M47 25 C46.05 24.81 44.06 25.59 44 24 C44.95 24.19 46.94 23.41 47 25 z"/>
<path style="fill:#787878" d="M25 25 L24 26 L25 25 z"/>
<path style="fill:#979797" d="M24 26 L23 27 L24 26 z"/>
<path style="fill:#777777" d="M31 27 L27 27 C27.19 25.45 30.81 25.45 31 27 z"/>
<path style="fill:#989898" d="M32 28 L31 27 L32 28 z"/>
<path style="fill:#8d8d8d" d="M56 27 C55.81 27.95 56.59 29.94 55 30 C55.19 29.05 54.41 27.06 56 27 z"/>
<path style="fill:#808080" d="M23 28 L22 29 L23 28 z"/>
<path style="fill:#808080" d="M25 28 L25 32 C23.45 31.81 23.45 28.19 25 28 z"/>
<path style="fill:#838383" d="M42 29 L40 29 C39.78 27.67 42.22 27.67 42 29 z"/>
<path style="fill:#7b7b7b" d="M35 29 C35.68 33.33 33.32 33.33 34 29 L35 29 z"/>
<path style="fill:#989999" d="M40 29 L40 31 C38.67 31.22 38.67 28.78 40 29 z"/>
<path style="fill:#f9f9f9" d="M42 29 L42 31 L41 32 L40 31 L40 29 L42 29 z"/>
<path style="fill:#a8a9a9" d="M42 31 L42 29 C43.33 28.78 43.33 31.22 42 31 z"/>
<path style="fill:#989898" d="M28 30 L27 31 L28 30 z"/>
<path style="fill:#959595" d="M42 31 L41 32 L42 31 z"/>
<path style="fill:#8c8c8c" d="M53 32 L52 31 L53 32 z"/>
<path style="fill:#6a6a6a" d="M57 31 L57 34 L56 34 C56.19 33.05 55.41 31.06 57 31 z"/>
<path style="fill:#f8f9f9" d="M57 34 L57 31 C60.9 29.53 60.35 34.72 57 34 z"/>
<path style="fill:#747474" d="M54 33 L53 32 L54 33 z"/>
<path style="fill:#686868" d="M28 33 C28.43 34.06 26.57 34.06 27 33 L28 33 z"/>
<path style="fill:#dbdcdc" d="M46 36 L46 34 C49.35 30.07 49.35 39.93 46 36 z"/>
<path style="fill:#656565" d="M35 39 C31.9 39.64 33.3 35.73 33 34 L35 39 z"/>
<path style="fill:#888989" d="M46 34 L46 36 C44.67 36.22 44.67 33.78 46 34 z"/>
<path style="fill:#cacaca" d="M56 34 C56.65 36.16 54.35 36.16 55 34 L56 34 z"/>
<path style="fill:#acadad" d="M69 35 L67 35 C66.78 33.67 69.22 33.67 69 35 z"/>
<path style="fill:#6a6b6b" d="M28 35 C28.22 36.33 25.78 36.33 26 35 L28 35 z"/>
<path style="fill:#eceded" d="M61 35 L62 37 L62 38 L59 38 C58.79 36.58 58.89 34.33 61 35 z"/>
<path style="fill:#949494" d="M63 35 L64 37 L62 37 L61 35 L63 35 z"/>
<path style="fill:#111212" d="M69 35 L69 36 L70 37 L70 43 L71 44 L71 50 L70 50 C69.1 49.68 67.27 47.98 67 50 C65.67 49.78 65.67 52.22 67 52 L68 52 C67.57 53.06 69.43 53.06 69 52 L71 52 L69 59 C67.82 58.85 67.98 60.34 68 61 L68 62 L67 63 L66 64 L65 64 C65 58.46 57.69 63.9 61 67 L61 69 C61.15 70.18 59.66 70.02 59 70 C58.71 68.49 61.06 66.5 58 67 L58 66 C58.35 62.52 53.06 64.36 57 66 C54.86 66.63 56.72 68.75 58 67 L58 69 C51.3 67.3 58.29 75.37 53 72 L52 70 L53 69 L54 68 C55.88 68.14 53.86 66.12 54 68 L53 69 C51.84 68.07 50.55 67.98 51 70 C49.94 69.57 49.94 71.43 51 71 L52 72 C53.85 74.16 51.41 74.26 50 73 C50.15 71.82 48.66 71.98 48 72 L49 69 L49 65 L50 65 L51 64 C52.75 68.25 52.76 65.37 55 63 L60 62 L61 61 L63 59 C63.02 58.34 63.18 56.85 62 57 L55 62 C54.67 60.15 56.54 58.67 58 58 L59 57 L61 56 C62.33 56.22 62.33 53.78 61 54 L61 53 C61.43 51.94 59.57 51.94 60 53 L59 53 L58 54 L53 59 L52 58 L58 52 L59 51 L60 51 C61.33 51.22 61.33 48.78 60 49 C60.45 46.98 59.16 47.07 58 48 L57 49 L54 51 L53 51 L53 49 L54 48 C55.85 48.33 57.33 46.46 58 45 L59 45 L61 43 L62 43 L63 42 L63 41 L64 40 L65 39 L66 38 L67 35 L69 35 z"/>
<path style="fill:#7c7c7c" d="M70 37 L69 36 L70 37 z"/>
<path style="fill:#dcdddd" d="M56 39 L55 40 C49.02 42.85 55.04 32.59 56 39 z"/>
<path style="fill:#979797" d="M62 38 C62.04 39.48 58.96 39.48 59 38 L62 38 z"/>
<path style="fill:#8b8b8b" d="M66 38 L65 39 L66 38 z"/>
<path style="fill:#8d8e8e" d="M29 40 L23 40 C23.73 38.38 28.27 38.38 29 40 z"/>
<path style="fill:#838484" d="M56 39 C58.37 39.46 58.08 42.17 58 44 L58 45 C57.33 46.46 55.85 48.33 54 48 C55.9 45.97 59.26 41.66 55 40 L56 39 z"/>
<path style="fill:#696969" d="M38 40 C38.02 40.66 38.18 42.15 37 42 C36.98 41.34 36.82 39.85 38 40 z"/>
<path style="fill:#f4f4f4" d="M41 45 L40 46 L39 61 L37 60 L37 47 L37 42 C38.18 42.15 38.02 40.66 38 40 C39.93 40.77 41.58 42.78 41 45 z"/>
<path style="fill:#aeaeae" d="M64 40 L63 41 L64 40 z"/>
<path style="fill:#d8d8d8" d="M63 41 L63 42 L62 42 L63 41 z"/>
<path style="fill:#9b9b9b" d="M31 44 L31 42 C32.33 41.78 32.33 44.22 31 44 z"/>
<path style="fill:#878888" d="M35 49 L34 49 L33 49 L33 47 L34.25 42.25 L35 49 z"/>
<path style="fill:#7c7c7c" d="M50 42 L49 43 L50 42 z"/>
<path style="fill:#e6e7e7" d="M49 43 L50 42 C56.74 40.64 49.1 48.7 49 43 z"/>
<path style="fill:#c7c7c7" d="M62 42 L62 43 L61 43 L62 42 z"/>
<path style="fill:#737373" d="M63 42 L62 43 L62 42 L63 42 z"/>
<path style="fill:#818282" d="M15 43 L15 45 C13.67 45.22 13.67 42.78 15 43 z"/>
<path style="fill:#939494" d="M61 43 L59 45 L59 44 C58.85 42.82 60.34 42.98 61 43 z"/>
<path style="fill:#f4f5f5" d="M67 44 L67 45 C63.89 48.64 63.47 39.68 67 44 z"/>
<path style="fill:#757575" d="M71 44 L70 43 L71 44 z"/>
<path style="fill:#929393" d="M43 44 C43.02 44.66 43.18 46.15 42 46 C41.98 45.34 41.82 43.85 43 44 z"/>
<path style="fill:#f2f2f2" d="M43 56 C41.82 55.85 41.98 57.34 42 58 L42 62 L40 61 L40 57 L41 53 L42 46 C43.18 46.15 43.02 44.66 43 44 C48.95 46.39 41.44 51.56 43 56 z"/>
<path style="fill:#ffffff" d="M59 44 L59 45 L58 45 L58 44 L59 44 z"/>
<path style="fill:#898989" d="M67 45 L67 44 C68.06 43.57 68.06 45.43 67 45 z"/>
<path style="fill:#818181" d="M41 45 L40 46 L41 45 z"/>
<path style="fill:#ededed" d="M26 48 L25 49 C19.34 49.06 24.26 42.99 26 48 z"/>
<path style="fill:#787878" d="M32 46 L31 47 L32 46 z"/>
<path style="fill:#d0d0d0" d="M33 47 L33 49 C32.51 51.93 28.07 47.49 31 47 L32 46 L33 47 z"/>
<path style="fill:#979797" d="M19 49 L17 47 C18.35 46.54 19.46 47.65 19 49 z"/>
<path style="fill:#5d5d5d" d="M37 47 L37 60 L36 60 L34 49 L35 49 L37 47 z"/>
<path style="fill:#eeeeee" d="M49 51 L48 52 L47 56 L46 57 L45 63 L44 64 L43 64 L43 62 L44 54 L45 53 C43.26 48.13 51.05 45.34 49 51 z"/>
<path style="fill:#f2f2f2" d="M60 49 L60 51 L59 51 L58 52 L52 58 L49 62 L48 62 L49 58 L50 57 L50 56 L51 55 L53 52 L54 51 L57 49 L58 48 C59.16 47.07 60.45 46.98 60 49 z"/>
<path style="fill:#7b7b7b" d="M14 48 L14 51 C12.52 51.04 12.52 47.96 14 48 z"/>
<path style="fill:#8b8b8b" d="M26 48 L25 49 L26 48 z"/>
<path style="fill:#cccccc" d="M54 48 L53 49 L54 48 z"/>
<path style="fill:#777777" d="M58 48 L57 49 L58 48 z"/>
<path style="fill:#737373" d="M16 49 C16.85 50.53 14.91 53.57 14 51 L16 49 z"/>
<path style="fill:#d1d1d1" d="M19 49 C20.88 48.86 18.86 50.88 19 49 z"/>
<path style="fill:#8a8a8a" d="M53 49 L53 51 L51 52 L50 52 L53 49 z"/>
<path style="fill:#666767" d="M60 51 L60 49 C61.33 48.78 61.33 51.22 60 51 z"/>
<path style="fill:#f4f5f5" d="M70 50 L69 52 L68 52 L67 52 L67 50 C67.27 47.98 69.1 49.68 70 50 z"/>
<path style="fill:#606060" d="M67 50 L67 52 C65.67 52.22 65.67 49.78 67 50 z"/>
<path style="fill:#868787" d="M71 50 L71 52 L69 52 L70 50 L71 50 z"/>
<path style="fill:#c0c0c0" d="M21 52 C19.12 52.14 21.14 50.12 21 52 z"/>
<path style="fill:#999999" d="M49 51 L48 52 L49 51 z"/>
<path style="fill:#121212" d="M53 51 L53 52 L51 55 L50 55 L50 53 L51 52 L53 51 z"/>
<path style="fill:#737373" d="M54 51 L53 52 L53 51 L54 51 z"/>
<path style="fill:#7a7a7a" d="M59 51 L58 52 L59 51 z"/>
<path style="fill:#b7b7b7" d="M22 54 L21 54 L21 52 C22.18 51.85 22.02 53.34 22 54 z"/>
<path style="fill:#eaebeb" d="M33 56 C32.98 56.66 32.82 58.15 34 58 C34.02 59.44 34.76 61.39 36 62 L36 63 L36 64 L34 64 L33 63 C33.02 62.34 33.18 60.85 32 61 C28.51 57.51 32.25 47.51 33 56 z"/>
<path style="fill:#e7e7e7" d="M51 52 L50 53 L50 52 L51 52 z"/>
<path style="fill:#767676" d="M61 53 L60 53 C59.57 51.94 61.43 51.94 61 53 z"/>
<path style="fill:#888888" d="M69 52 C69.43 53.06 67.57 53.06 68 52 L69 52 z"/>
<path style="fill:#6e6f6f" d="M25 53 L25 55 C23.67 55.22 23.67 52.78 25 53 z"/>
<path style="fill:#e8e8e8" d="M28 55 L29 56 L31 61 L32 62 L33 63 L34 64 L35 65 L34 66 L31 65 L30 64 L29 63 L27 59 L26 58 L25 55 L25 53 C26.42 52.79 28.67 52.89 28 55 z"/>
<path style="fill:#7c7c7c" d="M41 53 L40 57 L41 53 z"/>
<path style="fill:#858585" d="M45 53 L44 54 L45 53 z"/>
<path style="fill:#cacbcb" d="M50 53 L50 55 L49 55 C48.98 54.34 48.82 52.85 50 53 z"/>
<path style="fill:#727272" d="M59 53 L58 54 L59 53 z"/>
<path style="fill:#efefef" d="M60 53 L61 53 L61 54 L61 56 L59 57 L58 58 C56.54 58.67 54.67 60.15 55 62 C54.05 61.81 52.06 62.59 52 61 L53 59 L58 54 L59 53 L60 53 z"/>
<path style="fill:#9d9d9d" d="M21 54 L21 55 L20 54 L21 54 z"/>
<path style="fill:#070808" d="M22 54 L22 56 L21 55 L21 54 L22 54 z"/>
<path style="fill:#d5d6d6" d="M23 56 L22 56 L22 54 C23.18 53.85 23.02 55.34 23 56 z"/>
<path style="fill:#8c8c8c" d="M61 56 L61 54 C62.33 53.78 62.33 56.22 61 56 z"/>
<path style="fill:#eaeaea" d="M67 54 L68 55 L68 56 L67 57 C63.69 57.79 63.69 53.21 67 54 z"/>
<path style="fill:#838383" d="M68 55 L67 54 L68 55 z"/>
<path style="fill:#848484" d="M29 56 L28 55 L29 56 z"/>
<path style="fill:#9a9b9b" d="M49 55 L49 57 L48 57 C47.98 56.34 47.82 54.85 49 55 z"/>
<path style="fill:#0" d="M50 55 L50 56 L50 57 L49 57 L49 55 L50 55 z"/>
<path style="fill:#7d7d7d" d="M51 55 L50 56 L50 55 L51 55 z"/>
<path style="fill:#bbbbbb" d="M23 56 C24.88 55.86 22.86 57.88 23 56 z"/>
<path style="fill:#939393" d="M34 58 C32.82 58.15 32.98 56.66 33 56 C34.18 55.85 34.02 57.34 34 58 z"/>
<path style="fill:#6c6d6d" d="M43 56 C43.02 56.66 43.18 58.15 42 58 C41.98 57.34 41.82 55.85 43 56 z"/>
<path style="fill:#949494" d="M47 56 L47 57 L46 57 L47 56 z"/>
<path style="fill:#848484" d="M68 56 L67 57 L68 56 z"/>
<path style="fill:#292a2a" d="M47 57 C46.35 59.16 48.65 59.16 48 57 L49 57 L49 58 L48 62 L47 62 L45 63 L46 57 L47 57 z"/>
<path style="fill:#b1b2b2" d="M48 57 C48.65 59.16 46.35 59.16 47 57 L48 57 z"/>
<path style="fill:#989898" d="M50 57 L49 58 L49 57 L50 57 z"/>
<path style="fill:#868686" d="M59 57 L58 58 L59 57 z"/>
<path style="fill:#edeeee" d="M62 57 C61.98 57.66 61.82 59.15 63 59 L61 61 L60 62 L55 63 L55 62 L62 57 z"/>
<path style="fill:#8f9090" d="M63 59 C61.82 59.15 61.98 57.66 62 57 C63.18 56.85 63.02 58.34 63 59 z"/>
<path style="fill:#a9a9a9" d="M25 59 C23.12 59.14 25.14 57.12 25 59 z"/>
<path style="fill:#7b7b7b" d="M27 59 L26 59 L26 58 L27 59 z"/>
<path style="fill:#494a4a" d="M52 58 L53 59 L52 61 C50.41 61.06 51.19 63.05 51 64 L50 65 L49 64 L49 62 L52 58 z"/>
<path style="fill:#808181" d="M26 59 L26 61 L25 61 L25 59 L26 59 z"/>
<path style="fill:#202121" d="M27 59 L29 63 L28 63 L27 62 L26 61 L26 59 L27 59 z"/>
<path style="fill:#a7a7a7" d="M69 59 C69.02 59.66 69.18 61.15 68 61 C67.98 60.34 67.82 58.85 69 59 z"/>
<path style="fill:#8c8d8d" d="M37 60 L39 61 L40 61 L42 62 L43 62 L43 64 L43 65 L36 63 L36 62 L36 60 L37 60 z"/>
<path style="fill:#141414" d="M26 61 L26 62 L25 61 L26 61 z"/>
<path style="fill:#cacaca" d="M27 62 L26 62 L26 61 L27 62 z"/>
<path style="fill:#7c7c7c" d="M32 61 L32 62 L31 61 L32 61 z"/>
<path style="fill:#0" d="M33 63 L32 62 L32 61 C33.18 60.85 33.02 62.34 33 63 z"/>
<path style="fill:#bbbbbb" d="M47 62 L47 64 C47.15 65.18 45.66 65.02 45 65 L44 64 L45 63 L47 62 z"/>
<path style="fill:#9d9e9e" d="M52 61 C52.06 62.59 54.05 61.81 55 62 L55 63 C52.76 65.37 52.75 68.25 51 64 C51.19 63.05 50.41 61.06 52 61 z"/>
<path style="fill:#727272" d="M61 61 L60 62 L61 61 z"/>
<path style="fill:#e2e2e2" d="M65 64 L61 67 C57.69 63.9 65 58.46 65 64 z"/>
<path style="fill:#2e2e2e" d="M27 62 L28 63 L29 64 L29 65 L28 66 L27 65 L26 64 L26 62 L27 62 z"/>
<path style="fill:#d0d0d0" d="M28 63 L27 62 L28 63 z"/>
<path style="fill:#878888" d="M48 62 L49 62 L49 64 L49 65 L49 69 L47 69 C47.85 67.72 49.04 64.7 47 64 L47 62 L48 62 z"/>
<path style="fill:#656565" d="M68 62 L67 63 L68 62 z"/>
<path style="fill:#b1b1b1" d="M29 63 L29 64 L28 63 L29 63 z"/>
<path style="fill:#020202" d="M30 64 L29 64 L29 63 L30 64 z"/>
<path style="fill:#030303" d="M34 64 L33 63 L34 64 z"/>
<path style="fill:#141515" d="M43 65 L43 66 L43 68 L42 69 L41 69 C39.29 65.41 35.36 69.34 40 70 C38.35 69.45 33.13 71.45 36 73 C36.15 74.18 34.66 74.02 34 74 L33 73 L36 69 L36 65 C37.06 65.43 37.06 63.57 36 64 L36 63 L43 65 z"/>
<path style="fill:#666666" d="M67 63 L66 64 L67 63 z"/>
<path style="fill:#141414" d="M26 64 L24 67 L22 67 L22 66 L23 65 L26 64 z"/>
<path style="fill:#888888" d="M27 65 L28 66 L29 65 L30 65 L31 65 L32 67 C30.94 66.57 30.94 68.43 32 68 L32 69 L32 70 L28 69 L28 68 L29 68 C30.06 68.43 30.06 66.57 29 67 C28.05 67.19 26.06 66.41 26 68 L25 68 L24 67 L26 64 L27 65 z"/>
<path style="fill:#ebebeb" d="M30 64 L30 65 L29 65 L29 64 L30 64 z"/>
<path style="fill:#0b0b0b" d="M31 65 L30 65 L30 64 L31 65 z"/>
<path style="fill:#242424" d="M36 64 L36 65 L35 65 L34 64 L36 64 z"/>
<path style="fill:#b3b3b3" d="M36 65 L36 64 C37.06 63.57 37.06 65.43 36 65 z"/>
<path style="fill:#2c2d2d" d="M44 64 L45 65 L43 65 L43 64 L44 64 z"/>
<path style="fill:#131414" d="M47 69 L46 71 L46 72 C42.86 73.81 39.23 74.12 44 71 L45 70 L45 69 C46.88 69.14 44.86 67.12 45 69 C43.82 69.15 43.98 67.66 44 67 C45.18 67.15 45.02 65.66 45 65 C45.66 65.02 47.15 65.18 47 64 C49.04 64.7 47.85 67.72 47 69 z"/>
<path style="fill:#f8f8f8" d="M50 65 L49 65 L49 64 L50 65 z"/>
<path style="fill:#dddede" d="M58 66 L57 66 C53.06 64.36 58.35 62.52 58 66 z"/>
<path style="fill:#373737" d="M65 64 C65.89 66.94 63.11 68.14 61 69 L61 67 L65 64 z"/>
<path style="fill:#6e6e6e" d="M23 65 L22 66 L23 65 z"/>
<path style="fill:#ffffff" d="M28 66 L27 65 L28 66 z"/>
<path style="fill:#1c1c1c" d="M34 66 L34 67 L33 68 L32 67 L31 65 L34 66 z"/>
<path style="fill:#848484" d="M36 65 L36 69 L34 67 L34 66 L35 65 L36 65 z"/>
<path style="fill:#969797" d="M45 65 C45.02 65.66 45.18 67.15 44 67 L43 66 L43 65 L45 65 z"/>
<path style="fill:#a5a5a5" d="M22 66 L22 67 C20.94 67.43 20.94 65.57 22 66 z"/>
<path style="fill:#6b6b6b" d="M57 66 L58 66 L58 67 C56.72 68.75 54.86 66.63 57 66 z"/>
<path style="fill:#080909" d="M29 67 L29 68 L28 68 L26 68 C26.06 66.41 28.05 67.19 29 67 z"/>
<path style="fill:#f5f5f5" d="M29 68 L29 67 C30.06 66.57 30.06 68.43 29 68 z"/>
<path style="fill:#0" d="M32 67 L32 68 C30.94 68.43 30.94 66.57 32 67 z"/>
<path style="fill:#d8d8d8" d="M33 68 L32 68 L32 67 L33 68 z"/>
<path style="fill:#737373" d="M41 69 L40 70 C35.36 69.34 39.29 65.41 41 69 z"/>
<path style="fill:#dfdfdf" d="M54 68 C53.86 66.12 55.88 68.14 54 68 z"/>
<path style="fill:#8e8f8f" d="M59 70 L58 69 L58 67 C61.06 66.5 58.71 68.49 59 70 z"/>
<path style="fill:#181919" d="M25 68 L26 68 C26.33 69.96 22.61 68.41 25 68 z"/>
<path style="fill:#050505" d="M33 68 L32 69 L32 68 L33 68 z"/>
<path style="fill:#9b9b9b" d="M43 68 L42 69 L43 68 z"/>
<path style="fill:#dfdfdf" d="M45 69 C44.86 67.12 46.88 69.14 45 69 z"/>
<path style="fill:#f1f1f1" d="M53 69 L52 70 L51 70 C50.55 67.98 51.84 68.07 53 69 z"/>
<path style="fill:#f8f8f8" d="M54 68 L53 69 L54 68 z"/>
<path style="fill:#151616" d="M28 69 L32 70 C32.16 75.74 30.89 69.39 28 70 L27 70 L28 69 z"/>
<path style="fill:#f0f0f0" d="M49 69 L48 72 L47 72 L46 71 L47 69 L49 69 z"/>
<path style="fill:#0a0a0a" d="M27 70 L27 71 C25.94 71.43 25.94 69.57 27 70 z"/>
<path style="fill:#707070" d="M28 70 L27 71 L27 70 L28 70 z"/>
<path style="fill:#6d6d6d" d="M45 70 L44 71 L45 70 z"/>
<path style="fill:#fcfcfc" d="M51 70 L51 71 C49.94 71.43 49.94 69.57 51 70 z"/>
<path style="fill:#8b8c8c" d="M52 70 L53 72 L52 72 L51 71 L51 70 L52 70 z"/>
<path style="fill:#7e7f7f" d="M47 72 L47 73 L46 72 L46 71 L47 72 z"/>
<path style="fill:#1e1e1e" d="M48 72 C47.85 73.18 49.34 73.02 50 73 C50.84 75.88 47.41 74.27 47 73 L47 72 L48 72 z"/>
<path style="fill:#f8f9f9" d="M50 73 C49.34 73.02 47.85 73.18 48 72 C48.66 71.98 50.15 71.82 50 73 z"/>
<path style="fill:#8d8d8d" d="M34 74 L33 73 L34 74 z"/>
<path style="fill:#5c5c5c" d="M34 74 C34.66 74.02 36.15 74.18 36 73 C39.09 73.93 34.27 76.62 34 74 z"/>
</svg>
