<?xml version="1.0" standalone="yes"?>
<svg width="87" height="97">
<path style="fill:#fdfdfd" d="M87 0 L87 97 L0 97 L0 0 L87 0 z"/>
<path style="fill:#979898" d="M46 17 C43.89 16.33 43.79 18.58 44 20 L43 20 C43.98 16.99 41.27 16.6 39 17 C40.03 15.36 44.97 15.36 46 17 z"/>
<path style="fill:#898989" d="M37 17 C37.15 18.18 35.66 18.02 35 18 C34.85 16.82 36.34 16.98 37 17 z"/>
<path style="fill:#040404" d="M39 17 C41.27 16.6 43.98 16.99 43 20 L43 22 C41.82 21.85 41.98 23.34 42 24 L42 26 C40.82 25.85 40.98 27.34 41 28 L41 29 L40 30 L40 31 L39 32 L38 34 L37 35 L35 38 L34 39 L33 40 L30 42 L29 43 L28 44 L27 44 L26 45 L25 45 L24 46 L23 46 C22.34 45.98 20.85 45.82 21 47 L19 47 C18.34 46.98 16.85 46.82 17 48 L16 48 C12.9 48.86 11.14 47.1 12 44 L12 42 C13.18 42.15 13.02 40.66 13 40 L13 39 C14.18 39.15 14.02 37.66 14 37 L15 34 L16 33 L16 32 L17 31 L18 29 L19 28 L20 27 L21 26 L22 25 L23 24 L26 22 L27 21 L28 21 L29 20 L32 19 C32.66 19.02 34.15 19.18 34 18 L35 18 C35.66 18.02 37.15 18.18 37 17 L39 17 z"/>
<path style="fill:#040404" d="M46 17 L50 17 C49.85 18.18 51.34 18.02 52 18 L56 19 L57 20 L58 20 L59 21 L60 21 L61 22 L62 23 L64 24 L65 25 L66 26 L67 27 L68 28 L70 31 L71 32 L71 33 L72 34 L72 35 L73 36 L73 37 C72.98 37.66 72.82 39.15 74 39 L74 40 C73.98 40.66 73.82 42.15 75 42 L75 44 L75 48 L72 48 L69 48 C69.15 46.82 67.66 46.98 67 47 L66 47 C66.15 45.82 64.66 45.98 64 46 L63 46 L62 45 L61 45 L60 44 L59 44 L58 43 L57 43 L49 35 L49 34 L48 33 L48 32 L47 31 C47.02 30.34 47.18 28.85 46 29 L46 28 C46.02 27.34 46.18 25.85 45 26 L44 20 C43.79 18.58 43.89 16.33 46 17 z"/>
<path style="fill:#8c8d8d" d="M52 18 C51.34 18.02 49.85 18.18 50 17 C50.66 16.98 52.15 16.82 52 18 z"/>
<path style="fill:#6c6d6d" d="M34 18 C34.15 19.18 32.66 19.02 32 19 C31.85 17.82 33.34 17.98 34 18 z"/>
<path style="fill:#6b6b6b" d="M57 20 L56 19 L57 20 z"/>
<path style="fill:#6c6c6c" d="M29 20 L28 21 L29 20 z"/>
<path style="fill:#eff0f0" d="M44 20 L45 26 C44.98 26.66 44.82 28.15 46 28 L46 29 C45.98 29.66 45.82 31.15 47 31 L48 32 L48 33 L49 34 L49 35 C48.94 36.59 46.95 35.81 46 36 L46 35 L45 34 C45.04 32.52 41.96 32.52 42 34 L41 35 L40 36 C39.34 35.98 37.85 35.82 38 37 L37 38 C36.02 39.93 34.93 41.02 33 42 L32 43 L30 46 L29 47 C27.52 46.96 27.52 50.04 29 50 L30 51 L31 52 C31.02 52.66 31.18 54.15 30 54 L29 54 L28 53 L27 53 L26 52 L25 52 L24 51 L20 50 C20.15 48.82 18.66 48.98 18 49 L16 49 L16 48 L17 48 C17.66 48.02 19.15 48.18 19 47 L21 47 C21.66 47.02 23.15 47.18 23 46 L24 46 L25 45 L26 45 L27 44 L28 44 L29 43 L30 42 L33 40 L34 39 L35 38 L37 35 L38 34 L39 32 L40 31 L40 30 L41 29 L41 28 C42.18 28.15 42.02 26.66 42 26 L42 24 C43.18 24.15 43.02 22.66 43 22 L43 20 L44 20 z"/>
<path style="fill:#717171" d="M59 21 L58 20 L59 21 z"/>
<path style="fill:#8a8a8a" d="M27 21 L26 22 L27 21 z"/>
<path style="fill:#9b9b9b" d="M61 22 L60 21 L61 22 z"/>
<path style="fill:#6d6e6e" d="M43 22 C43.02 22.66 43.18 24.15 42 24 C41.98 23.34 41.82 21.85 43 22 z"/>
<path style="fill:#5d5d5d" d="M62 23 L61 22 L62 23 z"/>
<path style="fill:#8e8e8e" d="M23 24 L22 25 L23 24 z"/>
<path style="fill:#949494" d="M65 25 L64 24 L65 25 z"/>
<path style="fill:#7a7a7a" d="M22 25 L21 26 L22 25 z"/>
<path style="fill:#8b8b8b" d="M66 26 L65 25 L66 26 z"/>
<path style="fill:#838383" d="M21 26 L20 27 L21 26 z"/>
<path style="fill:#898989" d="M42 26 C42.02 26.66 42.18 28.15 41 28 C40.98 27.34 40.82 25.85 42 26 z"/>
<path style="fill:#757676" d="M46 28 C44.82 28.15 44.98 26.66 45 26 C46.18 25.85 46.02 27.34 46 28 z"/>
<path style="fill:#979797" d="M67 27 L66 26 L67 27 z"/>
<path style="fill:#8b8b8b" d="M20 27 L19 28 L20 27 z"/>
<path style="fill:#a1a1a1" d="M68 28 L67 27 L68 28 z"/>
<path style="fill:#a8a8a8" d="M19 28 L18 29 L19 28 z"/>
<path style="fill:#838383" d="M41 29 L40 30 L41 29 z"/>
<path style="fill:#979898" d="M47 31 C45.82 31.15 45.98 29.66 46 29 C47.18 28.85 47.02 30.34 47 31 z"/>
<path style="fill:#898989" d="M17 31 L16 32 L17 31 z"/>
<path style="fill:#737373" d="M40 31 L39 32 L40 31 z"/>
<path style="fill:#6a6a6a" d="M48 32 L47 31 L48 32 z"/>
<path style="fill:#9a9a9a" d="M71 32 L70 31 L71 32 z"/>
<path style="fill:#6e6e6e" d="M16 33 L15 34 L16 33 z"/>
<path style="fill:#a0a0a0" d="M45 34 L42 34 C41.96 32.52 45.04 32.52 45 34 z"/>
<path style="fill:#898989" d="M49 34 L48 33 L49 34 z"/>
<path style="fill:#7c7c7c" d="M72 34 L71 33 L72 34 z"/>
<path style="fill:#575757" d="M38 34 L37 35 L38 34 z"/>
<path style="fill:#070707" d="M42 34 L45 34 L46 35 L46 36 C52.26 36.4 49.68 43.01 45 45 L44 41 L43 41 L42 45 C39.8 43.38 36.37 41.24 37 38 L38 37 C38.66 37.02 40.15 37.18 40 36 L41 35 L42 34 z"/>
<path style="fill:#6b6b6b" d="M46 35 L45 34 L46 35 z"/>
<path style="fill:#9d9d9d" d="M41 35 L40 36 L41 35 z"/>
<path style="fill:#b6b7b7" d="M57 43 C55.82 42.85 55.98 44.34 56 45 C55.19 42.57 52.83 40.64 50 43 L49 44 L47 46 L45 46 L45 45 C49.68 43.01 52.26 36.4 46 36 C46.95 35.81 48.94 36.59 49 35 L57 43 z"/>
<path style="fill:#828282" d="M73 36 L72 35 L73 36 z"/>
<path style="fill:#9d9d9d" d="M40 36 C40.15 37.18 38.66 37.02 38 37 C37.85 35.82 39.34 35.98 40 36 z"/>
<path style="fill:#6f6f6f" d="M14 37 C14.02 37.66 14.18 39.15 13 39 C12.98 38.34 12.82 36.85 14 37 z"/>
<path style="fill:#828383" d="M74 39 C72.82 39.15 72.98 37.66 73 37 C74.18 36.85 74.02 38.34 74 39 z"/>
<path style="fill:#929292" d="M35 38 L34 39 L35 38 z"/>
<path style="fill:#a0a1a1" d="M37 38 C36.37 41.24 39.8 43.38 42 45 L42 46 L41 47 L40 47 C38.38 44.8 36.24 41.37 33 42 C34.93 41.02 36.02 39.93 37 38 z"/>
<path style="fill:#8a8a8a" d="M34 39 L33 40 L34 39 z"/>
<path style="fill:#8d8d8d" d="M13 40 C13.02 40.66 13.18 42.15 12 42 C11.98 41.34 11.82 39.85 13 40 z"/>
<path style="fill:#9fa0a0" d="M75 42 C73.82 42.15 73.98 40.66 74 40 C75.18 39.85 75.02 41.34 75 42 z"/>
<path style="fill:#666666" d="M43 41 C42.32 45.33 44.68 45.33 44 41 L45 45 L45 46 L42 46 L42 45 L43 41 z"/>
<path style="fill:#f9fafa" d="M44 41 C44.68 45.33 42.32 45.33 43 41 L44 41 z"/>
<path style="fill:#5d5d5d" d="M30 42 L29 43 L30 42 z"/>
<path style="fill:#080808" d="M33 42 C36.24 41.37 38.38 44.8 40 47 L36 48 L36 49 L40 50 C38.38 52.2 36.24 55.63 33 55 L31 52 L30 51 L29 50 L29 47 L30 46 C32.11 46.67 32.21 44.42 32 43 L33 42 z"/>
<path style="fill:#0a0a0a" d="M56 45 L57 46 L58 47 L58 50 L57 51 C55.14 51.34 54.72 53.4 55 55 C51.32 55.88 47.59 52.29 47 49 L51 48 L47 46 L49 44 L50 43 C52.83 40.64 55.19 42.57 56 45 z"/>
<path style="fill:#969696" d="M29 43 L28 44 L29 43 z"/>
<path style="fill:#848585" d="M32 43 C32.21 44.42 32.11 46.67 30 46 L32 43 z"/>
<path style="fill:#646464" d="M50 43 L49 44 L50 43 z"/>
<path style="fill:#ebecec" d="M57 43 L58 43 L59 44 L60 44 L61 45 L62 45 L63 46 L64 46 C63.85 47.18 65.34 47.02 66 47 L67 47 C66.85 48.18 68.34 48.02 69 48 L72 48 L67 50 L66 50 C65.34 49.98 63.85 49.82 64 51 L63 51 L62 52 L61 52 L60 53 L59 53 L58 54 L56 55 L55 55 C54.72 53.4 55.14 51.34 57 51 L58 50 L58 47 L57 46 L56 45 C55.98 44.34 55.82 42.85 57 43 z"/>
<path style="fill:#8f8f8f" d="M59 44 L58 43 L59 44 z"/>
<path style="fill:#989898" d="M12 44 C11.14 47.1 12.9 48.86 16 48 L16 49 C13.73 48.6 11.02 48.99 12 52 C10.35 50.66 10.35 45.34 12 44 z"/>
<path style="fill:#777777" d="M27 44 L26 45 L27 44 z"/>
<path style="fill:#767676" d="M61 45 L60 44 L61 45 z"/>
<path style="fill:#c1c1c1" d="M75 52 L75 49 L75 48 L75 44 C76.65 45.34 76.65 50.66 75 52 z"/>
<path style="fill:#787878" d="M25 45 L24 46 L25 45 z"/>
<path style="fill:#757575" d="M63 46 L62 45 L63 46 z"/>
<path style="fill:#7a7b7b" d="M23 46 C23.15 47.18 21.66 47.02 21 47 C20.85 45.82 22.34 45.98 23 46 z"/>
<path style="fill:#030404" d="M45 46 C47.98 48.83 43.83 52.98 41 50 L41 47 L42 46 L45 46 z"/>
<path style="fill:#9b9c9c" d="M47 46 L51 48 L47 49 C47.59 52.29 51.32 55.88 55 55 L56 55 L54 57 C53.04 53.84 48.84 58.04 52 59 L50 61 L50 60 C50.98 56.32 47.63 53.75 45 52 L44 52 L43 56 C42.9 49.53 36.72 54.68 37 59 C36.02 57.07 34.93 55.98 33 55 C36.24 55.63 38.38 52.2 40 50 L41 50 C43.83 52.98 47.98 48.83 45 46 L47 46 z"/>
<path style="fill:#6a6a6a" d="M58 47 L57 46 L58 47 z"/>
<path style="fill:#737474" d="M66 47 C65.34 47.02 63.85 47.18 64 46 C64.66 45.98 66.15 45.82 66 47 z"/>
<path style="fill:#606161" d="M19 47 C19.15 48.18 17.66 48.02 17 48 C16.85 46.82 18.34 46.98 19 47 z"/>
<path style="fill:#a4a4a4" d="M29 47 L29 50 C27.52 50.04 27.52 46.96 29 47 z"/>
<path style="fill:#666666" d="M40 47 L41 47 L41 50 L40 50 L36 49 C40.33 49.68 40.33 47.32 36 48 L40 47 z"/>
<path style="fill:#939393" d="M69 48 C68.34 48.02 66.85 48.18 67 47 C67.66 46.98 69.15 46.82 69 48 z"/>
<path style="fill:#fbfbfb" d="M36 49 L36 48 C40.33 47.32 40.33 49.68 36 49 z"/>
<path style="fill:#fcfcfc" d="M51 48 L47 49 L51 48 z"/>
<path style="fill:#4a4a4a" d="M75 48 L75 49 L67 50 L72 48 L75 48 z"/>
<path style="fill:#040404" d="M16 49 L18 49 C17.85 50.18 19.34 50.02 20 50 L24 51 L25 52 L26 52 L27 53 L28 53 L29 54 L30 54 L33 57 L34 58 L35 59 L38 62 L38 63 L39 64 L39 65 L40 66 L40 67 L41 68 L41 69 C40.98 69.66 40.82 71.15 42 71 L42 72 C41.98 72.66 41.82 74.15 43 74 L43 76 C43.4 78.27 43.01 80.98 40 80 L37 80 C37.15 78.82 35.66 78.98 35 79 L34 79 C34.15 77.82 32.66 77.98 32 78 L29 77 L28 76 L27 76 L26 75 L25 74 L23 73 L22 72 L21 71 L20 70 L19 69 L17 66 L16 65 L16 64 L15 63 L15 62 L14 61 L14 60 C14.02 59.34 14.18 57.85 13 58 L13 56 C13.02 55.34 13.18 53.85 12 54 L12 52 C11.02 48.99 13.73 48.6 16 49 z"/>
<path style="fill:#808080" d="M20 50 C19.34 50.02 17.85 50.18 18 49 C18.66 48.98 20.15 48.82 20 50 z"/>
<path style="fill:#030303" d="M75 49 L75 52 L75 53 C73.41 53.06 74.19 55.05 74 56 L74 58 C72.82 57.85 72.98 59.34 73 60 L73 61 C71.82 60.85 71.98 62.34 72 63 L71 64 L71 65 L70 66 L69 67 L68 69 L67 70 L66 71 L65 72 L62 74 L61 75 L60 76 L59 76 L58 77 L57 77 L56 78 L55 78 C54.34 77.98 52.85 77.82 53 79 L52 79 C51.34 78.98 49.85 78.82 50 80 L47 80 C43.99 80.98 43.6 78.27 44 76 L44 74 C45.18 74.15 45.02 72.66 45 72 L45 71 C46.18 71.15 46.02 69.66 46 69 L46 68 L47 67 L47 66 L48 65 L48 64 L49 63 L50 61 L52 59 L53 58 L54 57 L56 55 L58 54 L59 53 L60 53 L61 52 L62 52 L63 51 L64 51 C64.66 51.02 66.15 51.18 66 50 L67 50 L75 49 z"/>
<path style="fill:#6a6a6a" d="M30 51 L29 50 L30 51 z"/>
<path style="fill:#717171" d="M58 50 L57 51 L58 50 z"/>
<path style="fill:#626262" d="M66 50 C66.15 51.18 64.66 51.02 64 51 C63.85 49.82 65.34 49.98 66 50 z"/>
<path style="fill:#696969" d="M25 52 L24 51 L25 52 z"/>
<path style="fill:#636363" d="M63 51 L62 52 L63 51 z"/>
<path style="fill:#616161" d="M27 53 L26 52 L27 53 z"/>
<path style="fill:#d2d2d2" d="M33 55 C34.93 55.98 36.02 57.07 37 59 L40 61 C39.34 60.98 37.85 60.82 38 62 L35 59 L34 58 L33 57 L30 54 C31.18 54.15 31.02 52.66 31 52 L33 55 z"/>
<path style="fill:#060606" d="M43 56 L44 56 L45 52 C47.63 53.75 50.98 56.32 50 60 L49 60 C47.58 59.79 45.33 59.89 46 62 L45 63 L42 63 L41 62 L40 61 L37 59 C36.72 54.68 42.9 49.53 43 56 z"/>
<path style="fill:#fafafa" d="M44 52 L44 56 L43 56 L44 52 z"/>
<path style="fill:#4a4a4a" d="M45 52 L44 56 L44 52 L45 52 z"/>
<path style="fill:#646464" d="M61 52 L60 53 L61 52 z"/>
<path style="fill:#878787" d="M29 54 L28 53 L29 54 z"/>
<path style="fill:#787878" d="M59 53 L58 54 L59 53 z"/>
<path style="fill:#5c5c5c" d="M75 53 C74.81 53.95 75.59 55.94 74 56 C74.19 55.05 73.41 53.06 75 53 z"/>
<path style="fill:#5b5c5c" d="M13 56 C11.82 56.15 11.98 54.66 12 54 C13.18 53.85 13.02 55.34 13 56 z"/>
<path style="fill:#fbfcfc" d="M54 57 L53 58 L52 59 C48.84 58.04 53.04 53.84 54 57 z"/>
<path style="fill:#6b6b6b" d="M34 58 L33 57 L34 58 z"/>
<path style="fill:#6c6c6c" d="M54 57 L53 58 L54 57 z"/>
<path style="fill:#747575" d="M14 60 C12.82 60.15 12.98 58.66 13 58 C14.18 57.85 14.02 59.34 14 60 z"/>
<path style="fill:#787878" d="M35 59 L34 58 L35 59 z"/>
<path style="fill:#696969" d="M53 58 L52 59 L53 58 z"/>
<path style="fill:#878787" d="M74 58 C74.02 58.66 74.18 60.15 73 60 C72.98 59.34 72.82 57.85 74 58 z"/>
<path style="fill:#949494" d="M49 60 L46 62 C45.33 59.89 47.58 59.79 49 60 z"/>
<path style="fill:#f2f3f3" d="M50 60 L50 61 L49 63 L48 64 L48 65 L47 66 L47 67 L46 68 L46 69 C44.82 68.85 44.98 70.34 45 71 L45 72 C43.82 71.85 43.98 73.34 44 74 L44 76 L43 76 L43 74 C43.02 73.34 43.18 71.85 42 72 L42 71 C42.02 70.34 42.18 68.85 41 69 L41 68 L40 67 L40 66 L39 65 L39 64 L38 63 L38 62 C37.85 60.82 39.34 60.98 40 61 L41 62 L42 63 L45 63 L46 62 L49 60 L50 60 z"/>
<path style="fill:#6f6f6f" d="M15 62 L14 61 L15 62 z"/>
<path style="fill:#9a9a9a" d="M41 62 L40 61 L41 62 z"/>
<path style="fill:#acacac" d="M73 61 C73.02 61.66 73.18 63.15 72 63 C71.98 62.34 71.82 60.85 73 61 z"/>
<path style="fill:#616161" d="M42 63 L41 62 L42 63 z"/>
<path style="fill:#717171" d="M46 62 L45 63 L46 62 z"/>
<path style="fill:#696969" d="M16 64 L15 63 L16 64 z"/>
<path style="fill:#969696" d="M39 64 L38 63 L39 64 z"/>
<path style="fill:#828282" d="M49 63 L48 64 L49 63 z"/>
<path style="fill:#7f7f7f" d="M72 63 L71 64 L72 63 z"/>
<path style="fill:#969696" d="M17 66 L16 65 L17 66 z"/>
<path style="fill:#767676" d="M40 66 L39 65 L40 66 z"/>
<path style="fill:#686868" d="M48 65 L47 66 L48 65 z"/>
<path style="fill:#a7a7a7" d="M71 65 L70 66 L71 65 z"/>
<path style="fill:#636363" d="M70 66 L69 67 L70 66 z"/>
<path style="fill:#797979" d="M41 68 L40 67 L41 68 z"/>
<path style="fill:#707070" d="M47 67 L46 68 L47 67 z"/>
<path style="fill:#949494" d="M20 70 L19 69 L20 70 z"/>
<path style="fill:#7f8080" d="M42 71 C40.82 71.15 40.98 69.66 41 69 C42.18 68.85 42.02 70.34 42 71 z"/>
<path style="fill:#737373" d="M46 69 C46.02 69.66 46.18 71.15 45 71 C44.98 70.34 44.82 68.85 46 69 z"/>
<path style="fill:#a6a6a6" d="M68 69 L67 70 L68 69 z"/>
<path style="fill:#818181" d="M21 71 L20 70 L21 71 z"/>
<path style="fill:#8c8c8c" d="M67 70 L66 71 L67 70 z"/>
<path style="fill:#8a8a8a" d="M22 72 L21 71 L22 72 z"/>
<path style="fill:#8b8b8b" d="M66 71 L65 72 L66 71 z"/>
<path style="fill:#a2a2a2" d="M23 73 L22 72 L23 73 z"/>
<path style="fill:#9f9f9f" d="M43 74 C41.82 74.15 41.98 72.66 42 72 C43.18 71.85 43.02 73.34 43 74 z"/>
<path style="fill:#878787" d="M45 72 C45.02 72.66 45.18 74.15 44 74 C43.98 73.34 43.82 71.85 45 72 z"/>
<path style="fill:#5a5a5a" d="M26 75 L25 74 L26 75 z"/>
<path style="fill:#6a6a6a" d="M62 74 L61 75 L62 74 z"/>
<path style="fill:#979797" d="M27 76 L26 75 L27 76 z"/>
<path style="fill:#a7a7a7" d="M61 75 L60 76 L61 75 z"/>
<path style="fill:#7d7d7d" d="M29 77 L28 76 L29 77 z"/>
<path style="fill:#a7a8a8" d="M44 76 C43.6 78.27 43.99 80.98 47 80 C45.97 81.64 41.03 81.64 40 80 C43.01 80.98 43.4 78.27 43 76 L44 76 z"/>
<path style="fill:#8a8a8a" d="M59 76 L58 77 L59 76 z"/>
<path style="fill:#808080" d="M57 77 L56 78 L57 77 z"/>
<path style="fill:#7b7b7b" d="M34 79 C33.34 79.02 31.85 79.18 32 78 C32.66 77.98 34.15 77.82 34 79 z"/>
<path style="fill:#838383" d="M55 78 C55.15 79.18 53.66 79.02 53 79 C52.85 77.82 54.34 77.98 55 78 z"/>
<path style="fill:#999a9a" d="M37 80 C36.34 80.02 34.85 80.18 35 79 C35.66 78.98 37.15 78.82 37 80 z"/>
<path style="fill:#9f9f9f" d="M52 79 C52.15 80.18 50.66 80.02 50 80 C49.85 78.82 51.34 78.98 52 79 z"/>
</svg>
