<?xml version="1.0" standalone="yes"?>
<svg width="87" height="97">
<path style="fill:#fdfdfd" d="M87 0 L87 97 L0 97 L0 0 L87 0 z"/>
<path style="fill:#8e8f8f" d="M46 23 L42 23 C42.19 21.45 45.81 21.45 46 23 z"/>
<path style="fill:#5c5c5c" d="M42 23 L41 24 L42 23 z"/>
<path style="fill:#060707" d="M46 23 C47.85 22.67 49.33 24.54 50 26 L51 27 L57 29 L58 30 L59 31 L59 35 L58 36 L57 37 L48 44 L46 44 L45 39 C45.43 37.94 43.57 37.94 44 39 L43 44 L41 44 L38 42 L37 41 L33 38 L32 37 L31 36 L30 35 L30 32 L30 31 L31 30 L32 29 L35 28 C35.95 27.81 37.94 28.59 38 27 L39 26 L41 24 L42 23 L46 23 z"/>
<path style="fill:#9e9e9e" d="M39 26 L38 27 L39 26 z"/>
<path style="fill:#9e9e9e" d="M51 27 L50 26 L51 27 z"/>
<path style="fill:#b2b2b2" d="M38 27 C37.94 28.59 35.95 27.81 35 28 C35.06 26.41 37.05 27.19 38 27 z"/>
<path style="fill:#7e7e7e" d="M32 29 L31 30 L32 29 z"/>
<path style="fill:#7c7c7c" d="M58 30 L57 29 L58 30 z"/>
<path style="fill:#878787" d="M31 30 L30 31 L31 30 z"/>
<path style="fill:#858585" d="M59 31 L58 30 L59 31 z"/>
<path style="fill:#adadad" d="M30 32 L30 35 C28.52 35.04 28.52 31.96 30 32 z"/>
<path style="fill:#676767" d="M31 36 L30 36 L30 35 L31 36 z"/>
<path style="fill:#6e6e6e" d="M59 35 L58 36 L59 35 z"/>
<path style="fill:#a3a3a3" d="M28 37 L23 37 C23.45 35.4 27.55 35.4 28 37 z"/>
<path style="fill:#cdcece" d="M31 36 L32 37 L33 38 L37 41 L38 42 L41 44 C40.85 45.18 42.34 45.02 43 45 C35.32 53.16 53.68 53.16 46 45 C46.66 45.02 48.15 45.18 48 44 L57 37 L58 38 L56 40 L55 41 C53.04 42.9 49.44 44.47 49 47 L56 48 C54.82 50.49 46.44 47.07 50 52 L49 53 C45.85 50.8 44.36 54.99 44.75 57.75 C43.91 56.11 43.77 50.39 40 53 L39 54 L38 55 L34 58 L33 59 L30 61 L29 60 L30 59 L31 58 L35 55 L36 54 C42.2 51.1 38.81 47.35 33 49 L33 48 L40 47 L40 46 L39 45 L36 43 L35 42 L34 41 L29 37 L30 36 L31 36 z"/>
<path style="fill:#636363" d="M58 36 L57 37 L58 36 z"/>
<path style="fill:#7d7d7d" d="M66 37 L60 37 C60.73 35.38 65.27 35.38 66 37 z"/>
<path style="fill:#050606" d="M23 37 L28 37 L29 37 L34 41 L35 42 L36 43 L39 45 L40 46 L40 47 L33 48 C31.94 47.57 31.94 49.43 33 49 C38.81 47.35 42.2 51.1 36 54 L35 55 L31 58 L30 59 L29 60 L28 60 L24 60 L21 59 L20 58 L20 57 L19 56 L19 54 L18 53 C16.66 53.33 15.26 52.29 15 51 L14 50 L14 48 C15.18 48.15 15.02 46.66 15 46 L17 44 C17.66 44.02 19.15 44.18 19 43 L20 39 L21 38 L23 37 z"/>
<path style="fill:#757575" d="M33 38 L32 37 L33 38 z"/>
<path style="fill:#060707" d="M60 37 L66 37 L67 37 L68 38 L69 39 L70 40 L70 43 C69.85 44.18 71.34 44.02 72 44 L73 44 L74 45 C75.36 46.76 75.36 49.24 74 51 L73 52 L72 53 C69.89 52.33 69.79 54.58 70 56 C68.82 55.85 68.98 57.34 69 58 C66.34 59.83 63.3 60.37 60 60 L59 59 L58 58 L57 57 L54 55 L53 54 L52 53 L50 52 C46.44 47.07 54.82 50.49 56 48 L49 47 C49.44 44.47 53.04 42.9 55 41 L56 40 L58 38 L60 37 z"/>
<path style="fill:#919191" d="M68 38 L67 37 L68 38 z"/>
<path style="fill:#919191" d="M21 38 L20 39 L21 38 z"/>
<path style="fill:#616161" d="M45 39 L44 39 C43.57 37.94 45.43 37.94 45 39 z"/>
<path style="fill:#717171" d="M69 39 L68 38 L69 39 z"/>
<path style="fill:#e2e2e2" d="M45 39 L46 44 L46 45 L43 45 L43 44 L44 39 L45 39 z"/>
<path style="fill:#999999" d="M70 40 L69 39 L70 40 z"/>
<path style="fill:#656565" d="M56 40 L55 41 L56 40 z"/>
<path style="fill:#6f6f6f" d="M35 42 L34 41 L35 42 z"/>
<path style="fill:#757575" d="M38 42 L37 41 L38 42 z"/>
<path style="fill:#5d5d5d" d="M36 43 L35 42 L36 43 z"/>
<path style="fill:#969696" d="M19 43 C19.15 44.18 17.66 44.02 17 44 C16.85 42.82 18.34 42.98 19 43 z"/>
<path style="fill:#696a6a" d="M72 44 C71.34 44.02 69.85 44.18 70 43 C70.66 42.98 72.15 42.82 72 44 z"/>
<path style="fill:#707171" d="M43 44 L43 45 C42.34 45.02 40.85 45.18 41 44 L43 44 z"/>
<path style="fill:#676868" d="M48 44 C48.15 45.18 46.66 45.02 46 45 L46 44 L48 44 z"/>
<path style="fill:#a2a2a2" d="M74 45 L73 44 L74 45 z"/>
<path style="fill:#747474" d="M40 46 L39 45 L40 46 z"/>
<path style="fill:#191a1a" d="M46 45 C53.68 53.16 35.32 53.16 43 45 L46 45 z"/>
<path style="fill:#555555" d="M15 46 C15.02 46.66 15.18 48.15 14 48 C13.98 47.34 13.82 45.85 15 46 z"/>
<path style="fill:#3e3e3e" d="M40 47 L33 48 L40 47 z"/>
<path style="fill:#5b5c5c" d="M56 48 L49 47 L56 48 z"/>
<path style="fill:#595959" d="M33 48 L33 49 C31.94 49.43 31.94 47.57 33 48 z"/>
<path style="fill:#878787" d="M15 51 L14 50 L15 51 z"/>
<path style="fill:#696969" d="M74 51 L73 52 L74 51 z"/>
<path style="fill:#060707" d="M49 53 L50 54 L51 55 L54 57 L55 58 L56 59 L59 61 L59 62 L59 65 C57.63 67.94 54.16 69.44 51 69 C49.82 68.85 49.98 70.34 50 71 L49 72 L48 73 C47.34 72.98 45.85 72.82 46 74 L43 74 C43.15 72.82 41.66 72.98 41 73 L40 72 L39 71 C39.02 70.34 39.18 68.85 38 69 L35 69 C35.15 67.82 33.66 67.98 33 68 L30 65 L30 62 L30 61 L33 59 L34 58 L38 55 L39 54 L40 53 C43.77 50.39 43.91 56.11 44.75 57.75 C44.36 54.99 45.85 50.8 49 53 z"/>
<path style="fill:#e4e4e4" d="M50 52 L52 53 L53 54 L54 55 L57 57 L58 58 L59 59 L60 60 L59 61 L56 59 L55 58 L54 57 L51 55 L50 54 L49 53 L50 52 z"/>
<path style="fill:#969696" d="M73 52 L72 53 L73 52 z"/>
<path style="fill:#8b8b8b" d="M19 54 L18 53 L19 54 z"/>
<path style="fill:#7b7b7b" d="M40 53 L39 54 L40 53 z"/>
<path style="fill:#848484" d="M50 54 L49 53 L50 54 z"/>
<path style="fill:#6f6f6f" d="M53 54 L52 53 L53 54 z"/>
<path style="fill:#646464" d="M36 54 L35 55 L36 54 z"/>
<path style="fill:#646464" d="M39 54 L38 55 L39 54 z"/>
<path style="fill:#606060" d="M51 55 L50 54 L51 55 z"/>
<path style="fill:#8c8c8c" d="M54 55 L53 54 L54 55 z"/>
<path style="fill:#5c5c5c" d="M20 57 L19 56 L20 57 z"/>
<path style="fill:#a6a6a6" d="M70 56 C70.02 56.66 70.18 58.15 69 58 C68.98 57.34 68.82 55.85 70 56 z"/>
<path style="fill:#838383" d="M55 58 L54 57 L55 58 z"/>
<path style="fill:#6c6c6c" d="M58 58 L57 57 L58 58 z"/>
<path style="fill:#9b9b9b" d="M21 59 L20 58 L21 59 z"/>
<path style="fill:#676767" d="M31 58 L30 59 L31 58 z"/>
<path style="fill:#5e5e5e" d="M34 58 L33 59 L34 58 z"/>
<path style="fill:#616161" d="M56 59 L55 58 L56 59 z"/>
<path style="fill:#8d8d8d" d="M59 59 L58 58 L59 59 z"/>
<path style="fill:#b1b2b2" d="M28 60 C27.81 61.55 24.19 61.55 24 60 L28 60 z"/>
<path style="fill:#a9aaaa" d="M30 62 L30 65 C28.52 65.04 28.52 61.96 30 62 z"/>
<path style="fill:#b1b2b2" d="M59 65 L59 62 C60.48 61.96 60.48 65.04 59 65 z"/>
<path style="fill:#7d7e7e" d="M35 69 C34.34 69.02 32.85 69.18 33 68 C33.66 67.98 35.15 67.82 35 69 z"/>
<path style="fill:#8d8e8e" d="M39 71 C37.82 71.15 37.98 69.66 38 69 C39.18 68.85 39.02 70.34 39 71 z"/>
<path style="fill:#959595" d="M51 69 C51.02 69.66 51.18 71.15 50 71 C49.98 70.34 49.82 68.85 51 69 z"/>
<path style="fill:#6e6e6e" d="M40 72 L39 71 L40 72 z"/>
<path style="fill:#767676" d="M50 71 L49 72 L50 71 z"/>
<path style="fill:#6a6a6a" d="M41 73 L40 72 L41 73 z"/>
<path style="fill:#7c7c7c" d="M49 72 L48 73 L49 72 z"/>
<path style="fill:#6e6e6e" d="M43 74 C42.34 74.02 40.85 74.18 41 73 C41.66 72.98 43.15 72.82 43 74 z"/>
<path style="fill:#7c7c7c" d="M48 73 C48.15 74.18 46.66 74.02 46 74 C45.85 72.82 47.34 72.98 48 73 z"/>
</svg>
