<?xml version="1.0" standalone="yes"?>
<svg width="87" height="97">
<path style="fill:#fdfefe" d="M87 0 L87 97 L0 97 L0 0 L87 0 z"/>
<path style="fill:#767676" d="M43 26 L42 27 L43 26 z"/>
<path style="fill:#060606" d="M44 26 L45 27 L47 28 L48 29 L49 30 L51 31 L52 32 L54 33 L55 34 L56 35 C58.14 35.21 58.14 37.79 56 38 L55 39 L53 40 L52 41 L51 42 L49 43 L48 44 L46 45 L45 46 L44 47 L43 47 L42 46 L41 45 L39 44 L38 43 L36 42 L35 41 L34 40 L32 39 L31 38 C28.86 37.79 28.86 35.21 31 35 L32 34 L33 33 L35 32 L36 31 L38 30 L39 29 L40 28 L42 27 L43 26 L44 26 z"/>
<path style="fill:#717171" d="M45 27 L44 26 L45 27 z"/>
<path style="fill:#919191" d="M40 28 L39 29 L40 28 z"/>
<path style="fill:#868686" d="M48 29 L47 28 L48 29 z"/>
<path style="fill:#6c6c6c" d="M39 29 L38 30 L39 29 z"/>
<path style="fill:#616161" d="M49 30 L48 29 L49 30 z"/>
<path style="fill:#8e8e8e" d="M36 31 L35 32 L36 31 z"/>
<path style="fill:#838383" d="M52 32 L51 31 L52 32 z"/>
<path style="fill:#9b9b9b" d="M33 33 L32 34 L33 33 z"/>
<path style="fill:#8a8a8a" d="M55 34 L54 33 L55 34 z"/>
<path style="fill:#727272" d="M32 34 L31 35 L32 34 z"/>
<path style="fill:#5e5e5e" d="M56 35 L55 34 L56 35 z"/>
<path style="fill:#8f8f8f" d="M32 39 L31 38 L32 39 z"/>
<path style="fill:#747474" d="M56 38 L55 39 L56 38 z"/>
<path style="fill:#9e9f9f" d="M62 39 L60 39 C59.78 37.67 62.22 37.67 62 39 z"/>
<path style="fill:#939393" d="M25 39 L24 40 L25 39 z"/>
<path style="fill:#050606" d="M27 39 L28 40 L30 41 L31 42 L32 43 L34 44 L35 45 L37 46 L38 47 L39 48 L40 48 L40 50 L38 51 L37 52 L36 53 L34 54 L33 55 L31 56 L30 57 L29 58 L27 59 L25 59 L24 58 L22 57 L21 56 L19 55 L18 54 L17 53 L15 52 L14 51 L13 50 C11.67 50.22 11.67 47.78 13 48 L14 47 L16 46 L17 45 L18 44 L20 43 L21 42 L22 41 L23 41 L24 40 L25 39 L27 39 z"/>
<path style="fill:#737373" d="M28 40 L27 39 L28 40 z"/>
<path style="fill:#060606" d="M60 39 L62 39 L63 40 L65 41 L66 42 L67 43 L69 44 L70 45 L72 46 L74 48 C75.33 47.78 75.33 50.22 74 50 L73 51 L71 52 L70 53 L69 54 L67 55 L66 56 L65 57 L63 58 L62 59 L60 59 L57 57 L56 56 L54 55 L53 54 L52 53 L51 53 L50 52 L49 51 L47 50 L47 48 L49 47 L50 46 L51 45 L53 44 L54 43 L56 42 L57 41 L58 40 L60 39 z"/>
<path style="fill:#7e7e7e" d="M63 40 L62 39 L63 40 z"/>
<path style="fill:#5b5b5b" d="M24 40 L23 41 L24 40 z"/>
<path style="fill:#747474" d="M35 41 L34 40 L35 41 z"/>
<path style="fill:#666666" d="M53 40 L52 41 L53 40 z"/>
<path style="fill:#999999" d="M58 40 L57 41 L58 40 z"/>
<path style="fill:#a9a9a9" d="M22 41 L21 42 L22 41 z"/>
<path style="fill:#7e7e7e" d="M31 42 L30 41 L31 42 z"/>
<path style="fill:#a5a5a5" d="M36 42 L35 41 L36 42 z"/>
<path style="fill:#9a9a9a" d="M52 41 L51 42 L52 41 z"/>
<path style="fill:#5e5e5e" d="M57 41 L56 42 L57 41 z"/>
<path style="fill:#a3a3a3" d="M66 42 L65 41 L66 42 z"/>
<path style="fill:#787878" d="M21 42 L20 43 L21 42 z"/>
<path style="fill:#5e5e5e" d="M32 43 L31 42 L32 43 z"/>
<path style="fill:#727272" d="M67 43 L66 42 L67 43 z"/>
<path style="fill:#848484" d="M39 44 L38 43 L39 44 z"/>
<path style="fill:#6a6a6a" d="M49 43 L48 44 L49 43 z"/>
<path style="fill:#888888" d="M54 43 L53 44 L54 43 z"/>
<path style="fill:#9b9b9b" d="M18 44 L17 45 L18 44 z"/>
<path style="fill:#797979" d="M35 45 L34 44 L35 45 z"/>
<path style="fill:#878787" d="M70 45 L69 44 L70 45 z"/>
<path style="fill:#666666" d="M17 45 L16 46 L17 45 z"/>
<path style="fill:#656565" d="M42 46 L41 45 L42 46 z"/>
<path style="fill:#5e5e5e" d="M46 45 L45 46 L46 45 z"/>
<path style="fill:#a8a8a8" d="M51 45 L50 46 L51 45 z"/>
<path style="fill:#969696" d="M38 47 L37 46 L38 47 z"/>
<path style="fill:#9f9f9f" d="M43 47 L42 46 L43 47 z"/>
<path style="fill:#8c8c8c" d="M45 46 L44 47 L45 46 z"/>
<path style="fill:#727272" d="M50 46 L49 47 L50 46 z"/>
<path style="fill:#b0b0b0" d="M74 48 L72 46 C73.35 45.54 74.46 46.65 74 48 z"/>
<path style="fill:#7e7e7e" d="M14 47 L13 48 L14 47 z"/>
<path style="fill:#646464" d="M39 48 L38 47 L39 48 z"/>
<path style="fill:#a1a2a2" d="M40 50 L40 48 C41.33 47.78 41.33 50.22 40 50 z"/>
<path style="fill:#8f8f8f" d="M47 48 L47 50 C45.67 50.22 45.67 47.78 47 48 z"/>
<path style="fill:#5d5d5d" d="M14 51 L13 50 L14 51 z"/>
<path style="fill:#8f8f8f" d="M74 50 L73 51 L74 50 z"/>
<path style="fill:#8d8d8d" d="M15 52 L14 51 L15 52 z"/>
<path style="fill:#646464" d="M38 51 L37 52 L38 51 z"/>
<path style="fill:#818181" d="M45 52 L42 52 C41.96 50.52 45.04 50.52 45 52 z"/>
<path style="fill:#787878" d="M50 52 L49 51 L50 52 z"/>
<path style="fill:#a0a0a0" d="M37 52 L36 53 L37 52 z"/>
<path style="fill:#5c5c5c" d="M42 52 L41 53 L42 52 z"/>
<path style="fill:#060606" d="M45 52 L46 53 L48 54 L49 55 L50 56 L52 57 L53 58 L55 59 L56 60 L57 61 C58.87 61.13 56.82 63.02 56 63 L55 64 L54 65 L52 66 L51 67 L49 68 L48 69 L47 70 L45 71 L44 72 L40 70 L39 69 L37 68 L36 67 L35 66 L33 65 L32 64 L30 63 L29 62 L31 60 L32 59 L34 58 L35 57 L36 56 L38 55 L39 54 L41 53 L42 52 L45 52 z"/>
<path style="fill:#848484" d="M46 53 L45 52 L46 53 z"/>
<path style="fill:#a8a8a8" d="M51 53 L50 52 L51 53 z"/>
<path style="fill:#606060" d="M71 52 L70 53 L71 52 z"/>
<path style="fill:#606060" d="M18 54 L17 53 L18 54 z"/>
<path style="fill:#656565" d="M53 54 L52 53 L53 54 z"/>
<path style="fill:#8e8e8e" d="M70 53 L69 54 L70 53 z"/>
<path style="fill:#9b9b9b" d="M19 55 L18 54 L19 55 z"/>
<path style="fill:#8f8f8f" d="M34 54 L33 55 L34 54 z"/>
<path style="fill:#808080" d="M39 54 L38 55 L39 54 z"/>
<path style="fill:#909090" d="M49 55 L48 54 L49 55 z"/>
<path style="fill:#8c8c8c" d="M54 55 L53 54 L54 55 z"/>
<path style="fill:#707070" d="M50 56 L49 55 L50 56 z"/>
<path style="fill:#7d7d7d" d="M67 55 L66 56 L67 55 z"/>
<path style="fill:#7e7e7e" d="M22 57 L21 56 L22 57 z"/>
<path style="fill:#5b5b5b" d="M31 56 L30 57 L31 56 z"/>
<path style="fill:#9d9d9d" d="M36 56 L35 57 L36 56 z"/>
<path style="fill:#7c7c7c" d="M57 57 L56 56 L57 57 z"/>
<path style="fill:#a8a8a8" d="M66 56 L65 57 L66 56 z"/>
<path style="fill:#8e8e8e" d="M30 57 L29 58 L30 57 z"/>
<path style="fill:#717171" d="M35 57 L34 58 L35 57 z"/>
<path style="fill:#8d8d8d" d="M53 58 L52 57 L53 58 z"/>
<path style="fill:#636363" d="M25 59 L24 58 L25 59 z"/>
<path style="fill:#848484" d="M63 58 L62 59 L63 58 z"/>
<path style="fill:#858585" d="M27 59 C27.22 60.33 24.78 60.33 25 59 L27 59 z"/>
<path style="fill:#818181" d="M32 59 L31 60 L32 59 z"/>
<path style="fill:#a4a4a4" d="M56 60 L55 59 L56 60 z"/>
<path style="fill:#aeaeae" d="M62 59 C62.22 60.33 59.78 60.33 60 59 L62 59 z"/>
<path style="fill:#626262" d="M57 61 L56 60 L57 61 z"/>
<path style="fill:#878787" d="M30 63 L29 62 L30 63 z"/>
<path style="fill:#606060" d="M56 63 L55 64 L56 63 z"/>
<path style="fill:#757575" d="M33 65 L32 64 L33 65 z"/>
<path style="fill:#999999" d="M55 64 L54 65 L55 64 z"/>
<path style="fill:#686868" d="M36 67 L35 66 L36 67 z"/>
<path style="fill:#7a7a7a" d="M52 66 L51 67 L52 66 z"/>
<path style="fill:#9e9e9e" d="M37 68 L36 67 L37 68 z"/>
<path style="fill:#5f5f5f" d="M49 68 L48 69 L49 68 z"/>
<path style="fill:#737373" d="M40 70 L39 69 L40 70 z"/>
<path style="fill:#9b9b9b" d="M48 69 L47 70 L48 69 z"/>
<path style="fill:#868686" d="M45 71 L44 72 L45 71 z"/>
</svg>
