<?xml version="1.0" standalone="yes"?>
<svg width="87" height="97">
<path style="fill:#fdfdfd" d="M87 0 L87 97 L0 97 L0 0 L87 0 z"/>
<path style="fill:#888989" d="M40 18 C39.94 19.59 37.95 18.81 37 19 C37.06 17.41 39.05 18.19 40 18 z"/>
<path style="fill:#090a0a" d="M48 18 C47.85 19.18 49.34 19.02 50 19 L52 19 C51.85 20.18 53.34 20.02 54 20 L55 20 L56 21 L57 21 L58 22 L59 22 L60 23 L61 23 L62 24 L63 25 L67 29 L68 30 L69 31 L70 33 L71 34 L71 35 L72 36 L72 37 C71.98 37.66 71.82 39.15 73 39 L73 40 C72.98 40.66 72.82 42.15 74 42 L74 44 L74 53 L74 56 C72.82 55.85 72.98 57.34 73 58 L73 59 C71.82 58.85 71.98 60.34 72 61 L70 65 L69 66 L68 68 L67 69 L66 70 L65 71 L64 72 L63 73 L62 74 L58 76 L57 77 L56 77 C55.34 76.98 53.85 76.82 54 78 L53 78 C52.34 77.98 50.85 77.82 51 79 L49 79 L38 79 L36 79 C36.15 77.82 34.66 77.98 34 78 L29 76 L28 75 L27 75 L26 74 L25 73 L19 67 L18 66 L17 64 L16 63 L15 60 C15.02 59.34 15.18 57.85 14 58 L14 56 C13.81 55.05 14.59 53.06 13 53 L13 43 C14.18 43.15 14.02 41.66 14 41 L14 40 C15.18 40.15 15.02 38.66 15 38 L15 37 L16 36 L16 35 L17 34 L17 33 L18 32 L20 29 L21 28 L22 27 L23 26 L24 25 L26 24 L27 23 L28 22 L29 22 L30 21 L31 21 L32 20 L34 20 C34.66 20.02 36.15 20.18 36 19 L37 19 C37.95 18.81 39.94 19.59 40 18 L48 18 z"/>
<path style="fill:#939393" d="M50 19 C49.34 19.02 47.85 19.18 48 18 C48.66 17.98 50.15 17.82 50 19 z"/>
<path style="fill:#5c5d5d" d="M36 19 C36.15 20.18 34.66 20.02 34 20 C33.85 18.82 35.34 18.98 36 19 z"/>
<path style="fill:#8a8a8a" d="M54 20 C53.34 20.02 51.85 20.18 52 19 C52.66 18.98 54.15 18.82 54 20 z"/>
<path style="fill:#979797" d="M32 20 L31 21 L32 20 z"/>
<path style="fill:#616161" d="M56 21 L55 20 L56 21 z"/>
<path style="fill:#838383" d="M30 21 L29 22 L30 21 z"/>
<path style="fill:#626262" d="M58 22 L57 21 L58 22 z"/>
<path style="fill:#999999" d="M28 22 L27 23 L28 22 z"/>
<path style="fill:#767676" d="M60 23 L59 22 L60 23 z"/>
<path style="fill:#616161" d="M27 23 L26 24 L27 23 z"/>
<path style="fill:#767676" d="M42 23 L46 25 L45 25 C43.33 30.97 43.33 41.03 45 47 C44.7 49.11 42.03 47.33 42 46 C44.16 40.27 42.67 31.89 42.75 25.25 C37.12 25.54 37.78 32.73 38 37 L37 37 C37.25 28.36 27.76 33.83 24 36 L21 40 L19 43 L18 43 C20.87 32.45 30.5 22.77 42 23 z"/>
<path style="fill:#aeafaf" d="M49 24 C47.82 23.85 47.98 25.34 48 26 L46 25 L42 23 L49 24 z"/>
<path style="fill:#a8a8a8" d="M62 24 L61 23 L62 24 z"/>
<path style="fill:#0c0d0d" d="M49 24 C52.99 26.49 59.41 27.88 62 33 C57.29 31.19 50.93 32.29 49 27 L48 26 C47.98 25.34 47.82 23.85 49 24 z"/>
<path style="fill:#818282" d="M64 33 L62 33 C59.41 27.88 52.99 26.49 49 24 C55.03 24.03 60.63 28.07 64 33 z"/>
<path style="fill:#7d7d7d" d="M63 25 L62 24 L63 25 z"/>
<path style="fill:#8d8d8d" d="M24 25 L23 26 L24 25 z"/>
<path style="fill:#0b0c0c" d="M36 25 C46.22 28.73 14.37 38.64 29 29 L36 25 z"/>
<path style="fill:#050505" d="M42 46 L41 45 L38 37 C37.78 32.73 37.12 25.54 42.75 25.25 C42.67 31.89 44.16 40.27 42 46 z"/>
<path style="fill:#262727" d="M45 25 L46 45 L45 47 C43.33 41.03 43.33 30.97 45 25 z"/>
<path style="fill:#060707" d="M46 25 L48 26 L49 27 C50.3 30.86 49.43 34.03 49 38 L47 44 L46 45 L45 25 L46 25 z"/>
<path style="fill:#707070" d="M23 26 L22 27 L23 26 z"/>
<path style="fill:#979797" d="M49 27 L48 26 L49 27 z"/>
<path style="fill:#777777" d="M22 27 L21 28 L22 27 z"/>
<path style="fill:#6c6d6d" d="M62 33 L64 33 C65.06 34.24 67.06 35.99 67 38 L66 40 L64 52 L63 51 L64 38 L64 37 C61.21 33.69 48.99 28.11 51 37 L49 38 C49.43 34.03 50.3 30.86 49 27 C50.93 32.29 57.29 31.19 62 33 z"/>
<path style="fill:#8d8d8d" d="M21 28 L20 29 L21 28 z"/>
<path style="fill:#737373" d="M68 30 L67 29 L68 30 z"/>
<path style="fill:#949494" d="M69 31 L68 30 L69 31 z"/>
<path style="fill:#8d8d8d" d="M18 32 L17 33 L18 32 z"/>
<path style="fill:#060707" d="M37 37 L36 37 L26 37 L24 37 L24 36 C27.76 33.83 37.25 28.36 37 37 z"/>
<path style="fill:#050505" d="M64 37 L62 37 L51 37 C48.99 28.11 61.21 33.69 64 37 z"/>
<path style="fill:#989898" d="M71 34 L70 33 L71 34 z"/>
<path style="fill:#717171" d="M17 34 L16 35 L17 34 z"/>
<path style="fill:#9a9a9a" d="M72 36 L71 35 L72 36 z"/>
<path style="fill:#797979" d="M16 36 L15 37 L16 36 z"/>
<path style="fill:#4a4b4b" d="M24 36 L24 37 L23 38 L23 42 C21.82 41.85 21.98 43.34 22 44 L21 40 L24 36 z"/>
<path style="fill:#f3f3f3" d="M24 37 L26 37 C27.99 38.66 34.01 38.66 36 37 L37 37 L38 37 L41 45 L42 46 C42.03 47.33 44.7 49.11 45 47 L46 45 L47 44 L49 38 L51 37 C53.31 38.66 59.69 38.66 62 37 L64 37 L64 38 L63 39 L62 40 L61 41 L60 43 L59 44 L59 45 L58 46 L58 48 L56 49 L54 49 C52.97 47.36 48.03 47.36 47 49 C44.52 48.01 44.15 52.62 46 53 L46 54 L47 55 L48 57 L49 58 L50 59 L50 61 L48 64 L47 65 L47 66 L46 67 L46 68 L45 69 L45 70 C43.82 69.85 43.98 71.34 44 72 L43 72 L43 71 C43.02 70.34 43.18 68.85 42 69 L41 66 L40 65 L39 63 L38 62 C38.15 60.82 36.66 60.98 36 61 L36 60 L40 56 L41 55 L41 54 L42 53 L42 52 C43.96 51.75 43.09 47.99 41 49 L40 49 C39.27 47.38 34.73 47.38 34 49 L30 50 L30 49 L29 45 L28 44 L27 42 L26 41 L23 38 L24 37 z"/>
<path style="fill:#494949" d="M36 37 C34.01 38.66 27.99 38.66 26 37 L36 37 z"/>
<path style="fill:#4e4e4e" d="M62 37 C59.69 38.66 53.31 38.66 51 37 L62 37 z"/>
<path style="fill:#838484" d="M73 39 C71.82 39.15 71.98 37.66 72 37 C73.18 36.85 73.02 38.34 73 39 z"/>
<path style="fill:#878787" d="M15 38 C15.02 38.66 15.18 40.15 14 40 C13.98 39.34 13.82 37.85 15 38 z"/>
<path style="fill:#0b0c0c" d="M26 41 L27 42 L28 44 L29 45 L30 49 L25 51 L23 42 L23 38 L26 41 z"/>
<path style="fill:#5e5e5e" d="M64 38 L63 39 L64 38 z"/>
<path style="fill:#080808" d="M63 51 C61.15 50.8 58.68 49.97 58 48 L58 46 L59 45 L59 44 L60 43 L61 41 L62 40 L63 39 L64 38 L63 51 z"/>
<path style="fill:#565656" d="M67 60 C67.02 59.34 67.18 57.85 66 58 C64.82 58.15 64.98 56.66 65 56 L66 56 C69.56 53.89 68.9 43.34 66 40 L67 38 C71.41 43.74 70.9 54.22 67 60 z"/>
<path style="fill:#818181" d="M63 39 L62 40 L63 39 z"/>
<path style="fill:#090909" d="M21 40 L22 44 C21.86 46.46 22.42 49.52 24 51 L24 53 L23 54 C19.72 57.31 20.86 56.33 19 53 L19 43 L21 40 z"/>
<path style="fill:#8e8e8e" d="M62 40 L61 41 L62 40 z"/>
<path style="fill:#080808" d="M66 56 L64 52 L66 40 C68.9 43.34 69.56 53.89 66 56 z"/>
<path style="fill:#898989" d="M74 42 C72.82 42.15 72.98 40.66 73 40 C74.18 39.85 74.02 41.34 74 42 z"/>
<path style="fill:#a8a9a9" d="M14 41 C14.02 41.66 14.18 43.15 13 43 C12.98 42.34 12.82 40.85 14 41 z"/>
<path style="fill:#636363" d="M27 42 L26 41 L27 42 z"/>
<path style="fill:#686868" d="M23 42 L25 51 L24 51 C22.42 49.52 21.86 46.46 22 44 C21.98 43.34 21.82 41.85 23 42 z"/>
<path style="fill:#959595" d="M19 43 L19 53 C19.02 53.66 19.18 55.15 18 55 L18 43 L19 43 z"/>
<path style="fill:#9b9b9b" d="M60 43 L59 44 L60 43 z"/>
<path style="fill:#9e9e9e" d="M29 45 L28 44 L29 45 z"/>
<path style="fill:#646464" d="M47 44 L46 45 L47 44 z"/>
<path style="fill:#9e9e9e" d="M74 53 L74 44 C75.65 45.66 75.65 51.34 74 53 z"/>
<path style="fill:#7d7d7d" d="M42 46 L41 45 L42 46 z"/>
<path style="fill:#a0a0a0" d="M59 45 L58 46 L59 45 z"/>
<path style="fill:#989898" d="M40 49 L34 49 C34.73 47.38 39.27 47.38 40 49 z"/>
<path style="fill:#909090" d="M54 49 L47 49 C48.03 47.36 52.97 47.36 54 49 z"/>
<path style="fill:#828282" d="M58 48 C58.68 49.97 61.15 50.8 63 51 L64 52 L66 56 L65 56 L56 49 L58 48 z"/>
<path style="fill:#7d7e7e" d="M30 49 L30 50 C28.72 51.52 26.12 52.71 24 53 L24 51 L25 51 L30 49 z"/>
<path style="fill:#070808" d="M34 49 L40 49 L41 49 C35.62 53.52 28.63 57.37 22 60 L22 59 L23 54 L24 53 C26.12 52.71 28.72 51.52 30 50 L34 49 z"/>
<path style="fill:#6a6a6a" d="M42 52 C37.07 53.19 27.25 57.81 24 63 L22 60 C28.63 57.37 35.62 53.52 41 49 C43.09 47.99 43.96 51.75 42 52 z"/>
<path style="fill:#6a6a6a" d="M47 49 L56 56 C52.47 56.84 47.11 48.73 46 53 C44.15 52.62 44.52 48.01 47 49 z"/>
<path style="fill:#090909" d="M54 49 L56 49 L65 56 C64.98 56.66 64.82 58.15 66 58 L66 60 L63 60 C61.75 57.58 58.46 56.6 56 56 L47 49 L54 49 z"/>
<path style="fill:#090a0a" d="M42 52 L42 53 L41 54 L41 55 L40 56 L36 60 C32.61 62.24 28.13 65.85 24 63 C27.25 57.81 37.07 53.19 42 52 z"/>
<path style="fill:#090909" d="M56 56 C57.25 58.42 60.54 59.4 63 60 L64 62 L64 63 C63.34 62.98 61.85 62.82 62 64 L55 63 C54.74 61.71 53.34 60.67 52 61 L50 59 L49 58 L48 57 L47 55 L46 54 L46 53 C47.11 48.73 52.47 56.84 56 56 z"/>
<path style="fill:#727272" d="M14 56 C12.41 55.94 13.19 53.95 13 53 C14.59 53.06 13.81 55.05 14 56 z"/>
<path style="fill:#6f6f6f" d="M23 54 L22 59 L20 59 L18 55 C19.18 55.15 19.02 53.66 19 53 C20.86 56.33 19.72 57.31 23 54 z"/>
<path style="fill:#a1a1a1" d="M24 53 L23 54 L24 53 z"/>
<path style="fill:#777777" d="M42 53 L41 54 L42 53 z"/>
<path style="fill:#929292" d="M47 55 L46 54 L47 55 z"/>
<path style="fill:#848484" d="M41 55 L40 56 L41 55 z"/>
<path style="fill:#737373" d="M63 60 C60.54 59.4 57.25 58.42 56 56 C58.46 56.6 61.75 57.58 63 60 z"/>
<path style="fill:#9c9d9d" d="M74 56 C74.02 56.66 74.18 58.15 73 58 C72.98 57.34 72.82 55.85 74 56 z"/>
<path style="fill:#9e9e9e" d="M49 58 L48 57 L49 58 z"/>
<path style="fill:#a4a4a4" d="M15 60 C13.82 60.15 13.98 58.66 14 58 C15.18 57.85 15.02 59.34 15 60 z"/>
<path style="fill:#bcbcbc" d="M22 59 L22 60 L24 63 L24 65 C22.07 64.59 21.91 62.35 21 61 L20 60 L20 59 L22 59 z"/>
<path style="fill:#909090" d="M50 59 L49 58 L50 59 z"/>
<path style="fill:#c8c9c9" d="M67 60 L66 61 L66 60 L66 58 C67.18 57.85 67.02 59.34 67 60 z"/>
<path style="fill:#a1a1a1" d="M52 61 L50 61 L50 59 L52 61 z"/>
<path style="fill:#939494" d="M73 59 C73.02 59.66 73.18 61.15 72 61 C71.98 60.34 71.82 58.85 73 59 z"/>
<path style="fill:#606060" d="M21 61 L20 60 L21 61 z"/>
<path style="fill:#777777" d="M36 60 L36 61 C29.53 64.57 37.89 67.98 40 72 C34.72 70.58 32.15 62.05 25.25 65.25 L27 68 C25.31 68.41 23.59 66.69 24 65 L24 63 C28.13 65.85 32.61 62.24 36 60 z"/>
<path style="fill:#727373" d="M66 60 L66 61 L64 62 L63 60 L66 60 z"/>
<path style="fill:#090a0a" d="M38 62 L39 63 L40 65 L41 66 L42 69 C41.98 69.66 41.82 71.15 43 71 L43 72 L40 72 C37.89 67.98 29.53 64.57 36 61 C36.66 60.98 38.15 60.82 38 62 z"/>
<path style="fill:#0a0a0a" d="M52 61 C52.26 62.29 53.66 63.33 55 63 L55 65 L49 71 C47.4 70.86 44.51 73.46 45 70 L45 69 L46 68 L46 67 L47 66 L47 65 L48 64 L50 61 L52 61 z"/>
<path style="fill:#828282" d="M55 63 C53.66 63.33 52.26 62.29 52 61 C53.34 60.67 54.74 61.71 55 63 z"/>
<path style="fill:#c0c0c0" d="M66 61 L65 64 L64 63 L64 62 L66 61 z"/>
<path style="fill:#717171" d="M39 63 L38 62 L39 63 z"/>
<path style="fill:#989898" d="M17 64 L16 63 L17 64 z"/>
<path style="fill:#848484" d="M62 64 L62 65 L55 65 L55 63 L62 64 z"/>
<path style="fill:#686868" d="M64 63 L65 64 C63.22 66.23 61.05 69.7 58 70 L62 65 L62 64 C61.85 62.82 63.34 62.98 64 63 z"/>
<path style="fill:#929292" d="M48 64 L47 65 L48 64 z"/>
<path style="fill:#0a0a0a" d="M40 72 L40 73 L33 72 C33.15 70.82 31.66 70.98 31 71 C30.74 69.71 29.34 68.67 28 69 L27 68 L25.25 65.25 C32.15 62.05 34.72 70.58 40 72 z"/>
<path style="fill:#626262" d="M41 66 L40 65 L41 66 z"/>
<path style="fill:#6b6c6c" d="M55 65 C54.69 67.67 51.67 70.69 49 71 L55 65 z"/>
<path style="fill:#090909" d="M62 65 L58 70 L49 71 C51.67 70.69 54.69 67.67 55 65 L62 65 z"/>
<path style="fill:#767676" d="M70 65 L69 66 L70 65 z"/>
<path style="fill:#747474" d="M19 67 L18 66 L19 67 z"/>
<path style="fill:#646464" d="M47 66 L46 67 L47 66 z"/>
<path style="fill:#909090" d="M28 69 L27 68 L28 69 z"/>
<path style="fill:#7b7b7b" d="M46 68 L45 69 L46 68 z"/>
<path style="fill:#959595" d="M68 68 L67 69 L68 68 z"/>
<path style="fill:#777878" d="M31 71 C29.66 71.33 28.26 70.29 28 69 C29.34 68.67 30.74 69.71 31 71 z"/>
<path style="fill:#595959" d="M43 71 C41.82 71.15 41.98 69.66 42 69 C43.18 68.85 43.02 70.34 43 71 z"/>
<path style="fill:#6d6d6d" d="M67 69 L66 70 L67 69 z"/>
<path style="fill:#646464" d="M45 70 C44.51 73.46 47.4 70.86 49 71 L58 70 C55.42 73.75 50.15 74.3 46 75 L44 72 C43.98 71.34 43.82 69.85 45 70 z"/>
<path style="fill:#6d6d6d" d="M66 70 L65 71 L66 70 z"/>
<path style="fill:#7e7e7e" d="M33 72 C32.34 72.02 30.85 72.18 31 71 C31.66 70.98 33.15 70.82 33 72 z"/>
<path style="fill:#767676" d="M65 71 L64 72 L65 71 z"/>
<path style="fill:#585959" d="M40 73 L42 75 C38.8 75.05 35.06 74.19 33 72 L40 73 z"/>
<path style="fill:#767676" d="M43 72 L44 72 L46 75 L42 75 L40 73 L40 72 L43 72 z"/>
<path style="fill:#848484" d="M64 72 L63 73 L64 72 z"/>
<path style="fill:#606060" d="M26 74 L25 73 L26 74 z"/>
<path style="fill:#a0a0a0" d="M63 73 L62 74 L63 73 z"/>
<path style="fill:#979797" d="M27 75 L26 74 L27 75 z"/>
<path style="fill:#646464" d="M29 76 L28 75 L29 76 z"/>
<path style="fill:#9f9f9f" d="M58 76 L57 77 L58 76 z"/>
<path style="fill:#828383" d="M56 77 C56.15 78.18 54.66 78.02 54 78 C53.85 76.82 55.34 76.98 56 77 z"/>
<path style="fill:#999999" d="M36 79 C35.34 79.02 33.85 79.18 34 78 C34.66 77.98 36.15 77.82 36 79 z"/>
<path style="fill:#838484" d="M53 78 C53.15 79.18 51.66 79.02 51 79 C50.85 77.82 52.34 77.98 53 78 z"/>
<path style="fill:#8c8c8c" d="M49 79 C46.69 80.66 40.31 80.66 38 79 L49 79 z"/>
</svg>
