<?xml version="1.0" standalone="yes"?>
<svg width="87" height="97">
<path style="fill:#fdfdfd" d="M87 0 L87 97 L0 97 L0 0 L87 0 z"/>
<path style="fill:#878787" d="M48 16 L39 16 C40.66 14.35 46.34 14.35 48 16 z"/>
<path style="fill:#929292" d="M36 16 C36.15 17.18 34.66 17.02 34 17 C33.85 15.82 35.34 15.98 36 16 z"/>
<path style="fill:#080909" d="M39 16 L48 16 L50 16 C49.85 17.18 51.34 17.02 52 17 L54 17 L55 18 L60 20 L61 21 L62 21 L63 22 L64 23 L65 24 L66 25 L67 26 L68 27 L69 28 L70 30 L71 31 L71 32 L72 33 L73 36 C72.98 36.66 72.82 38.15 74 38 L74 39 C73.98 39.66 73.82 41.15 75 41 L75 44 L75 50 L75 53 C73.82 52.85 73.98 54.34 74 55 L74 57 C72.82 56.85 72.98 58.34 73 59 L73 60 L72 61 L72 62 L71 63 L70 65 L69 66 L62 73 L61 74 L59 75 L58 76 L54 77 L53 78 L52 78 L50 78 C49.34 77.98 47.85 77.82 48 79 L37 79 C37.15 77.82 35.66 77.98 35 78 L34 78 C34.15 76.82 32.66 76.98 32 77 L31 77 L30 76 L29 76 L28 75 L27 75 L26 74 L23 72 L22 71 L21 70 L20 69 L19 68 L18 67 L17 65 L16 64 L16 63 L15 62 L15 61 L14 60 C14.02 59.34 14.18 57.85 13 58 L13 56 C13.02 55.34 13.18 53.85 12 54 L12 52 L12 42 L12 40 C13.18 40.15 13.02 38.66 13 38 L14 34 L15 33 L17 29 L18 28 L19 27 L22 24 L23 23 L24 22 L25 21 L27 20 L28 19 L29 19 L30 18 L34 17 C34.66 17.02 36.15 17.18 36 16 L39 16 z"/>
<path style="fill:#5b5b5b" d="M52 17 C51.34 17.02 49.85 17.18 50 16 C50.66 15.98 52.15 15.82 52 17 z"/>
<path style="fill:#6b6b6b" d="M55 18 L54 17 L55 18 z"/>
<path style="fill:#949494" d="M30 18 L29 19 L30 18 z"/>
<path style="fill:#9f9f9f" d="M28 19 L27 20 L28 19 z"/>
<path style="fill:#7b7b7b" d="M61 21 L60 20 L61 21 z"/>
<path style="fill:#898989" d="M25 21 L24 22 L25 21 z"/>
<path style="fill:#777878" d="M57 25 L54 25 L50 23 L45 22 L44 22 L43 22 C42.34 21.98 40.85 21.82 41 23 C38.04 21.19 35.96 23.48 33 24 L32 23 C39.45 19.95 51.01 19.25 57 25 z"/>
<path style="fill:#a8a8a8" d="M63 22 L62 21 L63 22 z"/>
<path style="fill:#7b7b7b" d="M24 22 L23 23 L24 22 z"/>
<path style="fill:#1f2020" d="M41 23 L40 25 L37 28 C35.79 24.33 30.69 29.08 33 24 C35.96 23.48 38.04 21.19 41 23 z"/>
<path style="fill:#0d0d0d" d="M43 22 L41 34 L40 25 L41 23 C40.85 21.82 42.34 21.98 43 22 z"/>
<path style="fill:#474848" d="M44 22 C43.82 25.98 43.57 40.64 46.25 30.25 L50 31 L54 31 C53.02 34.33 50.9 34.1 48 32 C46.12 33.09 44.79 37.69 47 39 C46.51 40.41 44.84 43.49 45 40 C46.71 36.56 41.99 34.69 42 38 L41 38 L41 34 L43 22 L44 22 z"/>
<path style="fill:#060707" d="M45 22 L50 29 L50 31 L46.25 30.25 C43.57 40.64 43.82 25.98 44 22 L45 22 z"/>
<path style="fill:#404141" d="M50 23 L51 26 C47.94 25.5 50.29 27.49 50 29 L45 22 L50 23 z"/>
<path style="fill:#868686" d="M64 23 L63 22 L64 23 z"/>
<path style="fill:#666666" d="M23 23 L22 24 L23 23 z"/>
<path style="fill:#333333" d="M32 23 L33 24 C30.69 29.08 35.79 24.33 37 28 C41.81 28.29 36.83 33.32 34 32 L30 32 L29 32 L29 25 L32 23 z"/>
<path style="fill:#0c0c0c" d="M50 23 L54 25 C56.07 28.08 52.62 26.13 51 26 L50 23 z"/>
<path style="fill:#6b6b6b" d="M65 24 L64 23 L65 24 z"/>
<path style="fill:#5d5d5d" d="M66 25 L65 24 L66 25 z"/>
<path style="fill:#dbdcdc" d="M29 25 L29 32 L29 36 C27.65 36.46 26.54 35.35 27 34 C29.36 30.45 23.6 32.64 22 33 L22 32 L29 25 z"/>
<path style="fill:#515151" d="M40 25 L41 34 C39.71 31.68 38.38 32.31 36 33 C35.34 33.02 33.85 33.18 34 32 C36.83 33.32 41.81 28.29 37 28 L40 25 z"/>
<path style="fill:#2e2f2f" d="M57 25 L58 30 L58 31 L57 32 C56.05 31.81 54.06 32.59 54 31 L50 31 L50 29 C50.29 27.49 47.94 25.5 51 26 C52.62 26.13 56.07 28.08 54 25 L57 25 z"/>
<path style="fill:#abacac" d="M58 26 L58 30 L57 25 L58 26 z"/>
<path style="fill:#ebebeb" d="M59 26 L60 27 L64 31 L65 32 L65 33 L64 33 L61 32 C60.94 30.41 58.95 31.19 58 31 L58 30 L58 26 L59 26 z"/>
<path style="fill:#8a8a8a" d="M60 27 L59 26 L60 27 z"/>
<path style="fill:#6c6c6c" d="M68 27 L67 26 L68 27 z"/>
<path style="fill:#6f6f6f" d="M19 27 L18 28 L19 27 z"/>
<path style="fill:#9c9c9c" d="M69 28 L68 27 L69 28 z"/>
<path style="fill:#8d8d8d" d="M18 28 L17 29 L18 28 z"/>
<path style="fill:#868686" d="M71 31 L70 30 L71 31 z"/>
<path style="fill:#1a1a1a" d="M34 32 C33.85 33.18 35.34 33.02 36 33 L34 36 L32.75 55.75 L31 34 L30 33 L30 32 L34 32 z"/>
<path style="fill:#070707" d="M54 31 C54.06 32.59 56.05 31.81 57 32 L57 42 L57 60 L56 60 L55 34 C53.12 36.42 50.9 45.15 51.75 37.25 L50 37 C48.66 36.67 47.26 37.71 47 39 C44.79 37.69 46.12 33.09 48 32 C50.9 34.1 53.02 34.33 54 31 z"/>
<path style="fill:#c7c7c7" d="M61 32 L60 36 C56.53 35.43 59.55 38.68 61 39 L61 40 L58 42 L57 42 L57 32 L58 31 C58.95 31.19 60.94 30.41 61 32 z"/>
<path style="fill:#787878" d="M65 32 L64 31 L65 32 z"/>
<path style="fill:#797979" d="M22 32 L22 33 L21 33 L22 32 z"/>
<path style="fill:#2b2b2b" d="M27 34 C26.86 36.81 20.03 39.9 23.75 35.25 L22 35 L22 34 L22 33 C23.6 32.64 29.36 30.45 27 34 z"/>
<path style="fill:#a2a3a3" d="M30 32 L30 33 L30 60 L28 60 L29 51 L28 44 L29 42 L28 38 L29 36 L29 32 L30 32 z"/>
<path style="fill:#030404" d="M41 34 L41 38 L41 40 C39.65 39.54 38.54 40.65 39 42 C37.07 42.41 36.91 44.65 36 46 L35 49 L34 36 L36 33 C38.38 32.31 39.71 31.68 41 34 z"/>
<path style="fill:#3e3f3f" d="M61 32 L64 33 L67 36 L68 37 L66 39 L61 40 L61 39 C61.5 36.9 62.06 37.29 64.75 37.75 C64.5 35.52 61.63 36 60 36 L61 32 z"/>
<path style="fill:#656565" d="M72 33 L71 32 L72 33 z"/>
<path style="fill:#999999" d="M15 33 L14 34 L15 33 z"/>
<path style="fill:#e6e6e6" d="M22 33 L22 34 L21 34 L21 33 L22 33 z"/>
<path style="fill:#050505" d="M31 34 L31 60 L30 60 L30 33 L31 34 z"/>
<path style="fill:#989999" d="M65 33 C66.29 33.26 67.33 34.66 67 36 L64 33 L65 33 z"/>
<path style="fill:#818282" d="M21 34 L22 34 L22 35 C20.14 35.34 19.72 37.4 20 39 L19 43 L18 46 L17 46 C16.68 41.67 17.84 36.64 21 34 z"/>
<path style="fill:#474747" d="M27 34 C26.54 35.35 27.65 36.46 29 36 L28 38 L26 40 L20 39 C19.72 37.4 20.14 35.34 22 35 L23.75 35.25 C20.03 39.9 26.86 36.81 27 34 z"/>
<path style="fill:#3e3f3f" d="M34 36 L35 49 C35.84 49.98 40.55 53.56 40 50 L41 50 L44 50 L44 51 C42.44 50.1 40.98 52.81 43 53 L43 54 L38 54 C36.3 53.9 32.85 53.62 35 56 C33.82 55.85 33.98 57.34 34 58 L31 60 L31 34 L32.75 55.75 L34 36 z"/>
<path style="fill:#383838" d="M55 34 L56 60 L57 60 L59 60 L59 61 C56.32 60.29 57.06 63.45 57 65 C51.28 63.82 47.15 65.53 49 72 L45 73 L45 61 C48.02 61.43 49.39 60.88 48 58 C53.76 57.38 54.15 45.19 52 44 L50 43 L50 37 L51.75 37.25 C50.9 45.15 53.12 36.42 55 34 z"/>
<path style="fill:#7e7e7e" d="M56 60 L55 34 L56 60 z"/>
<path style="fill:#d1d2d2" d="M45 40 L42 38 C41.99 34.69 46.71 36.56 45 40 z"/>
<path style="fill:#222222" d="M60 36 C61.63 36 64.5 35.52 64.75 37.75 C62.06 37.29 61.5 36.9 61 39 C59.55 38.68 56.53 35.43 60 36 z"/>
<path style="fill:#717171" d="M74 38 C72.82 38.15 72.98 36.66 73 36 C74.18 35.85 74.02 37.34 74 38 z"/>
<path style="fill:#242424" d="M50 37 L50 43 C49.2 45.14 50.35 49.62 46 50 C46.02 49.34 46.18 47.85 45 48 C53.31 38.25 35.48 47.43 41 48 L41 50 L40 50 L36 46 C36.91 44.65 37.07 42.41 39 42 C38.36 47.11 46.11 39.36 41 40 L41 38 L42 38 L45 40 C44.84 43.49 46.51 40.41 47 39 C47.26 37.71 48.66 36.67 50 37 z"/>
<path style="fill:#797a7a" d="M68 37 L70 44 L69 44 L68 43 C68.28 41.4 67.86 39.34 66 39 L68 37 z"/>
<path style="fill:#8f9090" d="M13 38 C13.02 38.66 13.18 40.15 12 40 C11.98 39.34 11.82 37.85 13 38 z"/>
<path style="fill:#f1f2f2" d="M28 38 L29 42 L26 40 L28 38 z"/>
<path style="fill:#242424" d="M20 39 L26 40 L29 42 L28 44 C26.66 43.67 25.26 44.71 25 46 C24.74 47.29 23.34 48.33 22 48 L19 43 L20 39 z"/>
<path style="fill:#1c1c1c" d="M66 39 C67.86 39.34 68.28 41.4 68 43 C66.4 43.17 63.51 43.81 64 46 L62 44 L60 44 L59 44 L58 42 L61 40 L66 39 z"/>
<path style="fill:#8a8b8b" d="M75 41 C73.82 41.15 73.98 39.66 74 39 C75.18 38.85 75.02 40.34 75 41 z"/>
<path style="fill:#4e4f4f" d="M41 40 C46.11 39.36 38.36 47.11 39 42 C38.54 40.65 39.65 39.54 41 40 z"/>
<path style="fill:#a5a6a6" d="M12 42 L12 52 C10.34 50.01 10.34 43.99 12 42 z"/>
<path style="fill:#8f9090" d="M58 42 L59 44 L58 51 L59 60 L57 60 L57 42 L58 42 z"/>
<path style="fill:#474848" d="M22 48 L19 48 C17.82 48.15 17.98 46.66 18 46 L19 43 L22 48 z"/>
<path style="fill:#747575" d="M45 48 L41 48 C35.48 47.43 53.31 38.25 45 48 z"/>
<path style="fill:#515151" d="M50 43 L52 44 L49 56 C43.89 54.85 50.07 52.96 46 50 C50.35 49.62 49.2 45.14 50 43 z"/>
<path style="fill:#070808" d="M48 58 L48 57 L49 56 L52 44 C54.15 45.19 53.76 57.38 48 58 z"/>
<path style="fill:#4f4f4f" d="M68 43 L69 44 C68.81 44.95 69.59 46.94 68 47 C67.59 44.85 65.35 44.71 64 46 C63.51 43.81 66.4 43.17 68 43 z"/>
<path style="fill:#eeeeee" d="M28 44 L29 51 C27.93 50.38 25.46 48.95 25 51 C23.82 51.15 23.98 49.66 24 49 C26.09 50.01 26.96 46.25 25 46 C25.26 44.71 26.66 43.67 28 44 z"/>
<path style="fill:#eff0f0" d="M59 44 L60 44 C59.85 45.18 61.34 45.02 62 45 C59.95 47.88 60.2 48.88 63 50 L63 51 L62 52 C62.67 49.15 59.25 49.89 58 51 L59 44 z"/>
<path style="fill:#a0a1a1" d="M62 44 L62 45 C61.34 45.02 59.85 45.18 60 44 L62 44 z"/>
<path style="fill:#4a4a4a" d="M64 46 L63 50 C60.2 48.88 59.95 47.88 62 45 L62 44 L64 46 z"/>
<path style="fill:#b8b9b9" d="M70 44 L69 51 C68.81 50.05 69.59 48.06 68 48 L68 47 C69.59 46.94 68.81 44.95 69 44 L70 44 z"/>
<path style="fill:#b0b0b0" d="M75 50 L75 44 C76.62 44.73 76.62 49.27 75 50 z"/>
<path style="fill:#2b2c2c" d="M68 47 L68 48 L66 51 L65 52 L63 51 L63 50 L64 46 C65.35 44.71 67.59 44.85 68 47 z"/>
<path style="fill:#e4e5e5" d="M18 46 C17.98 46.66 17.82 48.15 19 48 C18.67 49.85 20.54 51.33 22 52 L22 53 L21 54 C19.65 53.54 18.54 54.65 19 56 C17.2 53.58 16.86 49.46 17 46 L18 46 z"/>
<path style="fill:#363636" d="M24 49 L22 52 C20.54 51.33 18.67 49.85 19 48 L22 48 C23.34 48.33 24.74 47.29 25 46 C26.96 46.25 26.09 50.01 24 49 z"/>
<path style="fill:#565656" d="M40 50 C40.55 53.56 35.84 49.98 35 49 L36 46 L40 50 z"/>
<path style="fill:#a5a6a6" d="M45 48 C46.18 47.85 46.02 49.34 46 50 L44 50 L41 50 L41 48 L45 48 z"/>
<path style="fill:#eceded" d="M69 51 L69 55 L68 55 L65 52 L66 51 L68 48 C69.59 48.06 68.81 50.05 69 51 z"/>
<path style="fill:#888888" d="M24 49 C23.98 49.66 23.82 51.15 25 51 C25.67 53.11 23.42 53.21 22 53 L22 52 L24 49 z"/>
<path style="fill:#282828" d="M29 51 L28 60 L27 60 L26 61 C24.41 61.06 25.19 63.05 25 64 L24 64 L20 56 L21 54 L22 53 C23.42 53.21 25.67 53.11 25 51 C25.46 48.95 27.93 50.38 29 51 z"/>
<path style="fill:#212121" d="M46 50 C50.07 52.96 43.89 54.85 49 56 L48 57 L44 61 L42 61 L41 60 C42.08 58.79 43.81 58.15 42.25 56.25 C43.7 56.5 44.92 54.23 43 54 L43 53 C44.18 53.15 44.02 51.66 44 51 L44 50 L46 50 z"/>
<path style="fill:#191919" d="M62 52 L61 57 L60 60 L59 60 L58 51 C59.25 49.89 62.67 49.15 62 52 z"/>
<path style="fill:#9c9d9d" d="M44 51 C44.02 51.66 44.18 53.15 43 53 C40.98 52.81 42.44 50.1 44 51 z"/>
<path style="fill:#595959" d="M65 52 L68 55 L67 55 C64.47 55.62 63.07 55.09 61 57 L62 52 L63 51 L65 52 z"/>
<path style="fill:#838383" d="M66 51 L65 52 L66 51 z"/>
<path style="fill:#6b6c6c" d="M43 54 C44.92 54.23 43.7 56.5 42.25 56.25 C43.81 58.15 42.08 58.79 41 60 L38 59 L35 56 C37.75 56.76 39.48 57.56 38 54 L43 54 z"/>
<path style="fill:#757676" d="M75 53 C75.02 53.66 75.18 55.15 74 55 C73.98 54.34 73.82 52.85 75 53 z"/>
<path style="fill:#797979" d="M13 56 C11.82 56.15 11.98 54.66 12 54 C13.18 53.85 13.02 55.34 13 56 z"/>
<path style="fill:#8f8f8f" d="M21 54 L20 56 L19 56 C18.54 54.65 19.65 53.54 21 54 z"/>
<path style="fill:#1b1c1c" d="M38 54 C39.48 57.56 37.75 56.76 35 56 C32.85 53.62 36.3 53.9 38 54 z"/>
<path style="fill:#2f3030" d="M67 55 L63 64 L60 60 L61 57 C63.07 55.09 64.47 55.62 67 55 z"/>
<path style="fill:#ababab" d="M68 55 L69 55 L63 65 L63 64 L67 55 L68 55 z"/>
<path style="fill:#f3f4f4" d="M20 56 C20.02 56.66 20.18 58.15 19 58 L19 56 L20 56 z"/>
<path style="fill:#a2a2a2" d="M24 64 L24 65 C21.55 63.53 20.42 60.42 19 58 C20.18 58.15 20.02 56.66 20 56 L24 64 z"/>
<path style="fill:#141515" d="M35 56 L38 59 C37.52 61.11 34.1 59.79 34 58 C33.98 57.34 33.82 55.85 35 56 z"/>
<path style="fill:#5c5c5c" d="M48 57 L48 58 C49.39 60.88 48.02 61.43 45 61 L44 61 L48 57 z"/>
<path style="fill:#919191" d="M74 57 C74.02 57.66 74.18 59.15 73 59 C72.98 58.34 72.82 56.85 74 57 z"/>
<path style="fill:#afafaf" d="M14 60 C12.82 60.15 12.98 58.66 13 58 C14.18 57.85 14.02 59.34 14 60 z"/>
<path style="fill:#575858" d="M34 58 C34.1 59.79 37.52 61.11 38 59 L41 60 L42 61 L42 62 L34 64 C33.4 61.32 30.27 58.73 30 65 L29 65 C29.59 62.55 28.58 61.15 27 60 L28 60 L30 60 L31 60 L34 58 z"/>
<path style="fill:#707070" d="M50 59 C53.77 58.8 53.73 60.59 55.75 62.75 C51.21 64.26 51.87 61.73 50 59 z"/>
<path style="fill:#656565" d="M15 61 L14 60 L15 61 z"/>
<path style="fill:#f2f3f3" d="M27 60 C28.58 61.15 29.59 62.55 29 65 L29 69 L28 69 L27 68 L26 67 L25 66 L24 65 L24 64 L25 64 C26.59 63.94 25.81 61.95 26 61 L27 60 z"/>
<path style="fill:#9b9b9b" d="M60 60 L59 61 L59 60 L60 60 z"/>
<path style="fill:#f5f5f5" d="M63 64 L63 65 L62 66 L61 67 L60 68 L58 69 C58.23 66.31 57.29 63.26 59 61 L60 60 L63 64 z"/>
<path style="fill:#8b8b8b" d="M73 60 L72 61 L73 60 z"/>
<path style="fill:#787878" d="M26 61 C25.81 61.95 26.59 63.94 25 64 C25.19 63.05 24.41 61.06 26 61 z"/>
<path style="fill:#2c2c2c" d="M42 62 L42 65 C36.12 62.36 43.3 69.24 41 73 L38 72 C39.85 65.53 35.72 63.82 30 65 C30.27 58.73 33.4 61.32 34 64 L42 62 z"/>
<path style="fill:#f1f2f2" d="M44 61 L45 61 L45 73 C40.07 74.1 42.61 67.76 42 65 L42 62 L42 61 L44 61 z"/>
<path style="fill:#a1a1a1" d="M59 61 C57.29 63.26 58.23 66.31 58 69 L57 69 L57 65 C57.06 63.45 56.32 60.29 59 61 z"/>
<path style="fill:#606060" d="M16 63 L15 62 L16 63 z"/>
<path style="fill:#7e7e7e" d="M72 62 L71 63 L72 62 z"/>
<path style="fill:#838383" d="M17 65 L16 64 L17 65 z"/>
<path style="fill:#7a7a7a" d="M42 65 C42.61 67.76 40.07 74.1 45 73 L45 74 L41 74 L41 73 C43.3 69.24 36.12 62.36 42 65 z"/>
<path style="fill:#acacac" d="M30 65 L30 69 L29 69 L29 65 L30 65 z"/>
<path style="fill:#050606" d="M38 72 L30 69 L30 65 C35.72 63.82 39.85 65.53 38 72 z"/>
<path style="fill:#030404" d="M57 65 L57 69 L49 72 C47.15 65.53 51.28 63.82 57 65 z"/>
<path style="fill:#878787" d="M63 65 L62 66 L63 65 z"/>
<path style="fill:#6b6b6b" d="M70 65 L69 66 L70 65 z"/>
<path style="fill:#a0a0a0" d="M26 67 L25 66 L26 67 z"/>
<path style="fill:#7e7e7e" d="M62 66 L61 67 L62 66 z"/>
<path style="fill:#9a9a9a" d="M19 68 L18 67 L19 68 z"/>
<path style="fill:#838383" d="M27 68 L26 67 L27 68 z"/>
<path style="fill:#707070" d="M61 67 L60 68 L61 67 z"/>
<path style="fill:#969696" d="M20 69 L19 68 L20 69 z"/>
<path style="fill:#6c6c6c" d="M28 69 L27 68 L28 69 z"/>
<path style="fill:#939393" d="M21 70 L20 69 L21 70 z"/>
<path style="fill:#626262" d="M30 69 L38 72 L41 73 L41 74 C36.85 73.3 31.58 72.75 29 69 L30 69 z"/>
<path style="fill:#606161" d="M57 69 L58 69 C55.13 72.89 49.57 73.61 45 74 L45 73 L49 72 L57 69 z"/>
<path style="fill:#929292" d="M22 71 L21 70 L22 71 z"/>
<path style="fill:#919191" d="M23 72 L22 71 L23 72 z"/>
<path style="fill:#717171" d="M62 73 L61 74 L62 73 z"/>
<path style="fill:#9f9f9f" d="M27 75 L26 74 L27 75 z"/>
<path style="fill:#878787" d="M29 76 L28 75 L29 76 z"/>
<path style="fill:#959595" d="M59 75 L58 76 L59 75 z"/>
<path style="fill:#848484" d="M31 77 L30 76 L31 77 z"/>
<path style="fill:#888989" d="M34 78 C33.34 78.02 31.85 78.18 32 77 C32.66 76.98 34.15 76.82 34 78 z"/>
<path style="fill:#666666" d="M54 77 L53 78 L54 77 z"/>
<path style="fill:#a7a8a8" d="M37 79 C36.34 79.02 34.85 79.18 35 78 C35.66 77.98 37.15 77.82 37 79 z"/>
<path style="fill:#565757" d="M50 78 L50 79 L48 79 C47.85 77.82 49.34 77.98 50 78 z"/>
<path style="fill:#aeaeae" d="M52 78 C52.15 79.18 50.66 79.02 50 79 L50 78 L52 78 z"/>
</svg>
