<?xml version="1.0" standalone="yes"?>
<svg width="87" height="97">
<path style="fill:#fdfefe" d="M87 0 L87 97 L0 97 L0 0 L87 0 z"/>
<path style="fill:#111111" d="M45 24 C46.97 25.9 44.99 27.32 44 29 L40 27 L40 25 L41 24 C42.36 22.92 43.64 22.92 45 24 z"/>
<path style="fill:#8f8f8f" d="M41 24 L40 25 L41 24 z"/>
<path style="fill:#848484" d="M48 28 L45 29 L44 29 C44.99 27.32 46.97 25.9 45 24 L48 28 z"/>
<path style="fill:#727272" d="M40 27 L44 29 C44.19 29.95 43.41 31.94 45 32 L47 32 L47 33 L45 33 C43.45 33.19 43.45 36.81 45 37 L46 37 L46 38 L45 39 L44 39 L42 37 L41 33 L37 33 L37 32 C42.53 34.09 41.46 26.02 37 29 C37.26 27.71 38.66 26.67 40 27 z"/>
<path style="fill:#929292" d="M24 28 L23 29 L24 28 z"/>
<path style="fill:#1f1f1f" d="M25 28 L26 29 L27 29 L27 32 C25.21 32.1 23.89 35.52 26 36 L26 38 L24 38 L24 33 L22 31 C21.98 30.34 21.82 28.85 23 29 L24 28 L25 28 z"/>
<path style="fill:#a3a3a3" d="M26 29 L25 28 L26 29 z"/>
<path style="fill:#040505" d="M37 32 L37 29 C41.46 26.02 42.53 34.09 37 32 z"/>
<path style="fill:#0f0f0f" d="M48 28 L49 29 L49 32 L48 32 C48.43 30.94 46.57 30.94 47 32 L45 32 L45 29 L48 28 z"/>
<path style="fill:#6f7070" d="M63 30 L61 29 C61.19 26.98 63.9 28.44 63 30 z"/>
<path style="fill:#a8a9a9" d="M29 32 L27 32 L27 29 L29 32 z"/>
<path style="fill:#e2e3e3" d="M45 29 L45 32 C43.41 31.94 44.19 29.95 44 29 L45 29 z"/>
<path style="fill:#676767" d="M49 32 L49 29 C50.48 28.96 50.48 32.04 49 32 z"/>
<path style="fill:#7f7f7f" d="M61 29 L60 30 L61 29 z"/>
<path style="fill:#101010" d="M63 30 C64.18 29.85 64.02 31.34 64 32 L62 33 L61 33 L60 33 L59 32 C58.98 31.34 58.82 29.85 60 30 L61 29 L63 30 z"/>
<path style="fill:#646565" d="M24 33 L23 34 L19 33 L22 31 L24 33 z"/>
<path style="fill:#7c7c7c" d="M48 32 L47 32 C46.57 30.94 48.43 30.94 48 32 z"/>
<path style="fill:#a7a8a8" d="M27 32 L26 36 C23.89 35.52 25.21 32.1 27 32 z"/>
<path style="fill:#0d0e0e" d="M29 32 L30 32 C29.98 32.66 29.82 34.15 31 34 L31 35 L27 36 L26 36 L27 32 L29 32 z"/>
<path style="fill:#757575" d="M31 34 C29.82 34.15 29.98 32.66 30 32 C31.18 31.85 31.02 33.34 31 34 z"/>
<path style="fill:#979797" d="M59 32 L60 33 L57 33 C56.85 31.82 58.34 31.98 59 32 z"/>
<path style="fill:#999a9a" d="M64 32 L64 33 C62.89 34.25 62.15 37.67 65 37 L65 38 L62 40 L62 33 L64 32 z"/>
<path style="fill:#121313" d="M23 34 L24 40 L24 41 L19 42 L19 37 C21.16 37.65 21.16 35.35 19 36 L19 34 L19 33 L23 34 z"/>
<path style="fill:#a5a5a5" d="M24 33 L24 38 L24 40 L23 34 L24 33 z"/>
<path style="fill:#9a9a9a" d="M37 33 L36 34 L37 33 z"/>
<path style="fill:#141414" d="M41 33 L41 37 L39 37 L36 36 L36 34 L37 33 L41 33 z"/>
<path style="fill:#e9eaea" d="M42 37 L41 37 L41 33 L42 37 z"/>
<path style="fill:#ececec" d="M45 33 L45 37 C43.45 36.81 43.45 33.19 45 33 z"/>
<path style="fill:#101111" d="M47 33 C48.42 32.79 50.67 32.89 50 35 L50 37 L46 37 L45 37 L45 33 L47 33 z"/>
<path style="fill:#0e0f0f" d="M57 33 L60 33 L60 36 L60 37 L59 37 C58.94 35.41 56.95 36.19 56 36 L56 34 L57 33 z"/>
<path style="fill:#bfc0c0" d="M61 33 C60.81 33.95 61.59 35.94 60 36 L60 33 L61 33 z"/>
<path style="fill:#4f5050" d="M62 33 L62 40 L61 40 L60 37 L60 36 C61.59 35.94 60.81 33.95 61 33 L62 33 z"/>
<path style="fill:#070808" d="M66 33 C65.98 33.66 65.82 35.15 67 35 L67 37 L65 37 C62.15 37.67 62.89 34.25 64 33 L66 33 z"/>
<path style="fill:#606161" d="M67 35 C65.82 35.15 65.98 33.66 66 33 C67.18 32.85 67.02 34.34 67 35 z"/>
<path style="fill:#818282" d="M19 34 L19 36 C17.67 36.22 17.67 33.78 19 34 z"/>
<path style="fill:#9d9e9e" d="M56 34 L56 36 C54.67 36.22 54.67 33.78 56 34 z"/>
<path style="fill:#626262" d="M31 35 L31 37 L27 37 L27 36 L31 35 z"/>
<path style="fill:#606060" d="M50 37 L50 35 C51.33 34.78 51.33 37.22 50 37 z"/>
<path style="fill:#7c7c7c" d="M67 37 L67 35 C68.33 34.78 68.33 37.22 67 37 z"/>
<path style="fill:#c6c6c6" d="M27 36 L27 37 L27 39 L26 38 L26 36 L27 36 z"/>
<path style="fill:#0a0b0b" d="M31 37 L31 38 L31 39 L31 40 L27 40 L27 39 L27 37 L31 37 z"/>
<path style="fill:#797a7a" d="M39 37 L39 38 L35 38 L36 36 L39 37 z"/>
<path style="fill:#767676" d="M19 37 L19 42 C17.4 41.55 17.4 37.45 19 37 z"/>
<path style="fill:#909090" d="M31 38 L31 37 C32.06 36.57 32.06 38.43 31 38 z"/>
<path style="fill:#cecfcf" d="M41 37 L42 39 L42 43 L41 43 C41.08 41.17 41.37 38.46 39 38 L39 37 L41 37 z"/>
<path style="fill:#191a1a" d="M42 37 L44 39 L44 40 L42 39 L41 37 L42 37 z"/>
<path style="fill:#191919" d="M59 37 L59 40 L55 40 C54.02 36.99 56.73 36.6 59 37 z"/>
<path style="fill:#a7a7a7" d="M60 37 L61 40 L59 40 L59 37 L60 37 z"/>
<path style="fill:#646565" d="M26 38 L27 39 L27 40 L26 41 L25 42 L24 42 L24 41 L24 40 L24 38 L26 38 z"/>
<path style="fill:#0e0f0f" d="M39 38 C41.37 38.46 41.08 41.17 41 43 L39 43 L36 41 C34.41 40.94 35.19 38.95 35 38 L39 38 z"/>
<path style="fill:#0f0f0f" d="M52 41 L51 42 L50 42 L49 42 L45 43 L45 39 L46 38 C48.82 37.62 51.46 37.84 52 41 z"/>
<path style="fill:#141414" d="M65 38 L67 38 L67 43 L66 43 C65.94 41.41 63.95 42.19 63 42 L59 41 L59 40 L61 40 L62 40 L65 38 z"/>
<path style="fill:#858686" d="M67 43 L67 38 C68.6 38.45 68.6 42.55 67 43 z"/>
<path style="fill:#8f8f8f" d="M31 40 L31 39 C32.06 38.57 32.06 40.43 31 40 z"/>
<path style="fill:#727272" d="M44 40 L44 43 L42 43 L42 39 L44 40 z"/>
<path style="fill:#e9eaea" d="M45 39 L45 43 L44 43 L44 40 L44 39 L45 39 z"/>
<path style="fill:#b8b8b8" d="M27 40 L31 40 L31 41 L26 41 L27 40 z"/>
<path style="fill:#9c9c9c" d="M59 40 L59 41 L55 41 L55 40 L59 40 z"/>
<path style="fill:#2b2c2c" d="M26 41 L31 41 L36 42 L36 43 C34.82 42.85 34.98 44.34 35 45 C30.67 44.32 30.67 46.68 35 46 L35 47 L27 47 L23 48 L22 48 L22 47 L22 46 C21.78 44.67 24.22 44.67 24 46 C22.12 45.86 24.14 47.88 24 46 C26.67 44.31 27.42 44.36 33.75 43.75 L25 43 L25 42 L26 41 z"/>
<path style="fill:#8d8d8d" d="M39 43 L36 43 L36 42 L36 41 L39 43 z"/>
<path style="fill:#939393" d="M52 41 L52 42 L51 42 L52 41 z"/>
<path style="fill:#414242" d="M55 41 L59 41 L63 42 L62 45 L61 44 L54 43 L53 42 C52.85 40.82 54.34 40.98 55 41 z"/>
<path style="fill:#c5c6c6" d="M63 42 L59 41 L63 42 z"/>
<path style="fill:#686868" d="M22 42 L21 43 L22 42 z"/>
<path style="fill:#0c0d0d" d="M24 42 L25 42 L25 43 C23.36 42.59 17.74 46.01 22 46 L22 47 L18 49 L18 45 C18.26 43.71 19.66 42.67 21 43 L22 42 L24 42 z"/>
<path style="fill:#5d5e5e" d="M49 42 C48.57 43.06 50.43 43.06 50 42 L51 42 C53.56 44.89 49.97 44.95 48 46 L45 44 L45 43 L49 42 z"/>
<path style="fill:#b6b6b6" d="M50 42 C50.43 43.06 48.57 43.06 49 42 L50 42 z"/>
<path style="fill:#191a1a" d="M52 42 L53 42 L54 43 L61 44 L62 45 L65 45 C64.78 46.33 67.22 46.33 67 45 L68 45 L68 46 C68.19 46.95 67.41 48.94 69 49 L70 52 L70 54 C70.02 54.66 70.18 56.15 69 56 L68 57 C66.82 56.85 66.98 58.34 67 59 C67.55 63.71 54.03 63.5 56.75 59.25 L55 58 L54 54 L55 54 L56 55 C55.44 56.79 60.39 62.03 60 58 C63.16 60.45 64.71 57.89 63 55 C65.48 57.3 65.36 53.18 63 53 L62 52 C61.74 50.71 60.34 49.67 59 50 L57 50 L57 49 L64 50 L65 51 C65.87 54.73 68.64 50.55 65 51 L64 50 L64 49 C69.41 50.31 64.26 45.29 63 48 C62.34 48.02 60.85 48.18 61 47 C62.88 47.14 60.86 45.12 61 47 C59.45 47.06 56.29 46.32 57 49 L56 49 L52 48 C51.9 43.81 47.72 47.74 50 50 C48.71 49.74 47.67 48.34 48 47 L48 46 C49.97 44.95 53.56 44.89 51 42 L52 42 z"/>
<path style="fill:#8b8c8c" d="M66 43 L66 44 L65 44 C65.14 42.12 63.12 44.14 65 44 L65 45 L62 45 L63 42 C63.95 42.19 65.94 41.41 66 43 z"/>
<path style="fill:#8b8b8b" d="M25 43 L33.75 43.75 C27.42 44.36 26.67 44.31 24 46 C24.22 44.67 21.78 44.67 22 46 C17.74 46.01 23.36 42.59 25 43 z"/>
<path style="fill:#828383" d="M36 43 L38 45 L35 45 C34.98 44.34 34.82 42.85 36 43 z"/>
<path style="fill:#1e1e1e" d="M39 43 L41 46 L38 45 L36 43 L39 43 z"/>
<path style="fill:#8a8b8b" d="M41 43 L42 43 C41.85 44.18 43.34 44.02 44 44 L44 45 L41 46 L39 43 L41 43 z"/>
<path style="fill:#070707" d="M44 43 L45 43 L45 44 L44 44 C43.34 44.02 41.85 44.18 42 43 L44 43 z"/>
<path style="fill:#ababab" d="M54 43 L61 44 L54 43 z"/>
<path style="fill:#0" d="M65 44 C63.12 44.14 65.14 42.12 65 44 z"/>
<path style="fill:#dcdcdc" d="M45 44 L48 46 L48 47 C46.82 46.85 46.98 48.34 47 49 L46 49 C46.15 47.82 44.66 47.98 44 48 L44 45 L44 44 L45 44 z"/>
<path style="fill:#0a0a0a" d="M66 44 L67 44 L67 45 L65 45 L65 44 L66 44 z"/>
<path style="fill:#8b8b8b" d="M68 45 L67 45 L67 44 L68 45 z"/>
<path style="fill:#7d7d7d" d="M18 45 L18 49 L17 49 L18 45 z"/>
<path style="fill:#929393" d="M35 45 L35 46 C30.67 46.68 30.67 44.32 35 45 z"/>
<path style="fill:#202020" d="M38 45 C37.94 46.59 35.95 45.81 35 46 L35 45 L38 45 z"/>
<path style="fill:#cdcdcd" d="M41 46 L42 48 L39 48 C39.15 46.82 37.66 46.98 37 47 L35 47 L35 46 C35.95 45.81 37.94 46.59 38 45 L41 46 z"/>
<path style="fill:#2c2c2c" d="M44 45 L44 48 L42 48 L41 46 L44 45 z"/>
<path style="fill:#b2b2b2" d="M53 45 L59.75 45.75 C57.75 45.79 54.1 46.99 53 45 z"/>
<path style="fill:#919292" d="M67 45 C67.22 46.33 64.78 46.33 65 45 L67 45 z"/>
<path style="fill:#c6c6c6" d="M24 46 C24.14 47.88 22.12 45.86 24 46 z"/>
<path style="fill:#d1d1d1" d="M52 48 L52 53 L51 53 L50 52 L50 50 C47.72 47.74 51.9 43.81 52 48 z"/>
<path style="fill:#c2c2c2" d="M61 47 C60.86 45.12 62.88 47.14 61 47 z"/>
<path style="fill:#a0a1a1" d="M69 49 C67.41 48.94 68.19 46.95 68 46 C69.59 46.06 68.81 48.05 69 49 z"/>
<path style="fill:#727373" d="M22 47 L22 48 L18 49 L22 47 z"/>
<path style="fill:#666767" d="M27 47 L27 48 L23 50 L23 49 L23 48 L27 47 z"/>
<path style="fill:#b4b5b5" d="M35 47 L37 47 C36.98 47.66 36.82 49.15 38 49 L35 52 L35 51 C35.66 49.5 35.81 46.5 34 49 L32 49 L31 49 L27 48 L27 47 L35 47 z"/>
<path style="fill:#181919" d="M39 48 L38 49 C36.82 49.15 36.98 47.66 37 47 C37.66 46.98 39.15 46.82 39 48 z"/>
<path style="fill:#989898" d="M48 47 C47.67 48.34 48.71 49.74 50 50 L50 52 L49 52 L48 51 L47 50 L47 49 C46.98 48.34 46.82 46.85 48 47 z"/>
<path style="fill:#767676" d="M61 47 C60.85 48.18 62.34 48.02 63 48 L64 49 L64 50 L57 49 C56.29 46.32 59.45 47.06 61 47 z"/>
<path style="fill:#7c7c7c" d="M64 49 L63 48 C64.26 45.29 69.41 50.31 64 49 z"/>
<path style="fill:#151515" d="M22 48 L23 48 L23 49 L22 50 L21 51 C19.12 50.86 21.14 52.88 21 51 L22 50 L23 50 L27 48 L31 49 C29.81 48.53 24.92 50.09 27 51 L26 53 L22 56 L22 54 L24 52 C25.88 52.14 23.86 50.12 24 52 C22.65 51.54 21.54 52.65 22 54 C20.23 54.13 19.48 56.74 22 56 C21.66 57.82 22.18 59.71 24 58 C24.64 59.58 27.7 60.6 28 58 C30.02 57.55 29.93 58.84 29 60 C27.82 59.85 27.98 61.34 28 62 L27 62 C27.15 60.82 25.66 60.98 25 61 L20 61 L19 60 L18 56 L17 55 L16 54 L17 49 L18 49 L22 48 z"/>
<path style="fill:#070707" d="M35 51 C33.82 51.15 33.98 49.66 34 49 C35.81 46.5 35.66 49.5 35 51 z"/>
<path style="fill:#d5d5d5" d="M39 48 L38 49 L39 48 z"/>
<path style="fill:#202121" d="M42 48 L42 49 C40.66 48.67 39.26 49.71 39 51 L38 52 L37 53 C35.71 53.26 34.67 54.66 35 56 C33.82 55.85 33.98 57.34 34 58 C32.59 59.19 32.04 61.93 32 64 L31 63 C31.02 60.91 30.64 58.7 32 57 L32 56 L33 55 L34 53 L35 52 L38 49 L39 48 L42 48 z"/>
<path style="fill:#e3e3e3" d="M44 48 L45 49 L45 50 L44 50 L42 51 L42 50 L42 49 L42 48 L44 48 z"/>
<path style="fill:#656666" d="M46 49 L45 49 L44 48 C44.66 47.98 46.15 47.82 46 49 z"/>
<path style="fill:#191a1a" d="M52 48 L54 52 L54 54 L52 53 L52 48 z"/>
<path style="fill:#cdcdcd" d="M56 49 L56 50 C54.65 49.54 53.54 50.65 54 52 L52 48 L56 49 z"/>
<path style="fill:#060606" d="M64 49 L63 48 L64 49 z"/>
<path style="fill:#bababa" d="M23 49 L23 50 L22 50 L23 49 z"/>
<path style="fill:#d1d1d1" d="M31 49 L30 52 L27 51 C24.92 50.09 29.81 48.53 31 49 z"/>
<path style="fill:#161616" d="M32 49 L32 53 L31 55 L28 58 C26.82 58.15 26.98 56.66 27 56 C28.93 55.59 29.09 53.35 30 52 L31 49 L32 49 z"/>
<path style="fill:#757676" d="M34 49 C33.98 49.66 33.82 51.15 35 51 L35 52 L34 53 L32 53 L32 49 L34 49 z"/>
<path style="fill:#9c9c9c" d="M42 49 L42 50 L41 51 L39 51 C39.26 49.71 40.66 48.67 42 49 z"/>
<path style="fill:#101010" d="M46 49 L47 49 L47 50 L45 50 L45 49 L46 49 z"/>
<path style="fill:#737373" d="M57 49 L57 50 L56 50 L56 49 L57 49 z"/>
<path style="fill:#9b9b9b" d="M22 50 L21 51 L22 50 z"/>
<path style="fill:#060606" d="M42 50 L42 51 L41 51 L42 50 z"/>
<path style="fill:#919191" d="M44 50 C43.54 51.35 44.65 52.46 46 52 L47 53 L48 54 L49 55 L49 58 L44 54 L42 54 C42.15 52.82 40.66 52.98 40 53 L41 51 L42 51 L44 50 z"/>
<path style="fill:#1b1b1b" d="M45 50 L46 52 C44.65 52.46 43.54 51.35 44 50 L45 50 z"/>
<path style="fill:#9b9c9c" d="M47 50 L48 51 L49 52 L50 55 L49 55 L48 54 L47 53 L46 52 L45 50 L47 50 z"/>
<path style="fill:#010101" d="M48 51 L47 50 L48 51 z"/>
<path style="fill:#252626" d="M56 50 C55.98 50.66 55.82 52.15 57 52 L58 56 L56 55 L55 54 C55.02 53.34 55.18 51.85 54 52 C53.54 50.65 54.65 49.54 56 50 z"/>
<path style="fill:#dfdfdf" d="M57 50 L59 50 L59 51 L57 52 C55.82 52.15 55.98 50.66 56 50 L57 50 z"/>
<path style="fill:#959595" d="M62 52 L60 52 L59 51 L59 50 C60.34 49.67 61.74 50.71 62 52 z"/>
<path style="fill:#b8b8b8" d="M65 51 L64 50 L65 51 z"/>
<path style="fill:#c1c1c1" d="M21 51 C21.14 52.88 19.12 50.86 21 51 z"/>
<path style="fill:#9e9e9e" d="M24 52 C23.86 50.12 25.88 52.14 24 52 z"/>
<path style="fill:#868787" d="M30 52 C29.09 53.35 28.93 55.59 27 56 C26.71 54.49 29.06 52.5 26 53 L27 51 L30 52 z"/>
<path style="fill:#a5a5a5" d="M39 51 L38 52 L39 51 z"/>
<path style="fill:#1e1f1f" d="M41 51 L40 53 L37 55 L37 53 L38 52 L39 51 L41 51 z"/>
<path style="fill:#131313" d="M49 52 L48 51 L49 52 z"/>
<path style="fill:#7f7f7f" d="M59 51 L60 52 L60 53 C57.89 53.3 59.67 55.97 61 56 C60.86 57.88 62.88 55.86 61 56 L61 54 L63 55 C64.71 57.89 63.16 60.45 60 58 L59 57 L58 56 L57 52 L59 51 z"/>
<path style="fill:#010101" d="M60 52 L59 51 L60 52 z"/>
<path style="fill:#6a6a6a" d="M65 51 C68.64 50.55 65.87 54.73 65 51 z"/>
<path style="fill:#898989" d="M24 52 L22 54 C21.54 52.65 22.65 51.54 24 52 z"/>
<path style="fill:#cccccc" d="M38 52 L37 53 L38 52 z"/>
<path style="fill:#0" d="M47 53 L46 52 L47 53 z"/>
<path style="fill:#141515" d="M50 52 L51 53 L55 59 L54 64 C52.82 63.85 52.98 65.34 53 66 L53 67 L52 68 L51 69 L47 70 L45 71 L44 72 L41 72 L40 71 L39 70 L36 70 C36.15 68.82 34.66 68.98 34 69 L33 68 C33.02 67.34 33.18 65.85 32 66 L32 64 C35.41 64.5 33.51 59.94 34 58 C35.18 58.15 35.02 56.66 35 56 L37 55 C36.24 57.25 35.34 61.7 38 58 L38.75 66.75 C39.05 63.31 38.77 59.83 41 57 C41.21 55.03 42.56 57.2 42 58 L41 61 L40 62 C39.31 67.39 41.69 67.39 41 62 L42.25 69.75 L44 62 L45.75 67.75 C45.88 65.29 47.19 61 44 60 L44 58 C43.98 57.34 43.82 55.85 45 56 L46 57 L48 67 C50.63 64.51 48.23 59.05 46 57 L45 56 L44 55 L44 54 L49 58 C48.98 58.66 48.82 60.15 50 60 C48.78 66.57 52.97 63.82 50 60 C50.02 59.34 50.18 57.85 49 58 L49 55 L50 55 L51 56 C51.68 58.04 51.04 63.12 53.75 62.75 C53.52 60.6 52.86 57.37 51 56 L50 55 L49 52 L50 52 z"/>
<path style="fill:#848484" d="M55 54 L54 54 L54 52 C55.18 51.85 55.02 53.34 55 54 z"/>
<path style="fill:#131414" d="M62 52 L63 53 L63 55 L61 54 L60 53 L60 52 L62 52 z"/>
<path style="fill:#d3d3d3" d="M63 53 L62 52 L63 53 z"/>
<path style="fill:#7f8080" d="M70 54 L70 52 C71.33 51.78 71.33 54.22 70 54 z"/>
<path style="fill:#707070" d="M26 53 L24 58 C22.18 59.71 21.66 57.82 22 56 L26 53 z"/>
<path style="fill:#101111" d="M27 56 L24 58 L26 53 C29.06 52.5 26.71 54.49 27 56 z"/>
<path style="fill:#e3e3e3" d="M34 53 L33 55 L32 56 L32 57 C30.82 57.15 30.98 55.66 31 55 L32 53 L34 53 z"/>
<path style="fill:#b3b3b3" d="M37 53 L37 55 L35 56 C34.67 54.66 35.71 53.26 37 53 z"/>
<path style="fill:#9d9d9d" d="M40 53 L40 55 C38.71 55.26 37.67 56.66 38 58 C35.34 61.7 36.24 57.25 37 55 L40 53 z"/>
<path style="fill:#282929" d="M42 54 L42 55 L40 55 L40 53 C40.66 52.98 42.15 52.82 42 54 z"/>
<path style="fill:#0b0b0b" d="M48 54 L47 53 L48 54 z"/>
<path style="fill:#9e9e9e" d="M52 53 L54 54 L55 58 L55 59 L51 53 L52 53 z"/>
<path style="fill:#252626" d="M60 53 L61 54 L61 56 C59.67 55.97 57.89 53.3 60 53 z"/>
<path style="fill:#ababab" d="M61 54 L60 53 L61 54 z"/>
<path style="fill:#949595" d="M63 55 L63 53 C65.36 53.18 65.48 57.3 63 55 z"/>
<path style="fill:#9c9c9c" d="M17 55 L16 54 L17 55 z"/>
<path style="fill:#838484" d="M22 54 L22 56 C19.48 56.74 20.23 54.13 22 54 z"/>
<path style="fill:#f9fafa" d="M44 54 L44 55 L42 55 L42 54 L44 54 z"/>
<path style="fill:#0" d="M49 55 L48 54 L49 55 z"/>
<path style="fill:#bdbdbd" d="M56 55 L55 54 L56 55 z"/>
<path style="fill:#ababab" d="M18 56 L17 55 L18 56 z"/>
<path style="fill:#8d8d8d" d="M31 55 C30.98 55.66 30.82 57.15 32 57 C30.64 58.7 31.02 60.91 31 63 L28 62 C27.98 61.34 27.82 59.85 29 60 C28.86 61.88 30.88 59.86 29 60 C29.93 58.84 30.02 57.55 28 58 L31 55 z"/>
<path style="fill:#757575" d="M33 55 L32 56 L33 55 z"/>
<path style="fill:#121313" d="M40 55 L40 57 L38 58 C37.67 56.66 38.71 55.26 40 55 z"/>
<path style="fill:#989898" d="M42 55 L44 55 L45 56 C43.82 55.85 43.98 57.34 44 58 L42 58 C42.56 57.2 41.21 55.03 41 57 L40 57 L40 55 L42 55 z"/>
<path style="fill:#c5c5c5" d="M51 56 L50 55 L51 56 z"/>
<path style="fill:#8d8e8e" d="M58 56 L59 57 L60 58 C60.39 62.03 55.44 56.79 56 55 L58 56 z"/>
<path style="fill:#888989" d="M19 60 L18 56 L19 60 z"/>
<path style="fill:#777777" d="M27 56 C26.98 56.66 26.82 58.15 28 58 C27.7 60.6 24.64 59.58 24 58 L27 56 z"/>
<path style="fill:#b7b8b8" d="M35 56 C35.02 56.66 35.18 58.15 34 58 C33.98 57.34 33.82 55.85 35 56 z"/>
<path style="fill:#d7d7d7" d="M46 57 L45 56 L46 57 z"/>
<path style="fill:#6e6f6f" d="M51 56 C52.86 57.37 53.52 60.6 53.75 62.75 C51.04 63.12 51.68 58.04 51 56 z"/>
<path style="fill:#0" d="M59 57 L58 56 L59 57 z"/>
<path style="fill:#0" d="M61 56 C62.88 55.86 60.86 57.88 61 56 z"/>
<path style="fill:#707070" d="M69 56 L68 57 L69 56 z"/>
<path style="fill:#777777" d="M40 57 L41 57 C38.77 59.83 39.05 63.31 38.75 66.75 L38 58 L40 57 z"/>
<path style="fill:#848484" d="M46 57 C48.23 59.05 50.63 64.51 48 67 L46 57 z"/>
<path style="fill:#0" d="M60 58 L59 57 L60 58 z"/>
<path style="fill:#989999" d="M68 57 C68.02 57.66 68.18 59.15 67 59 C66.98 58.34 66.82 56.85 68 57 z"/>
<path style="fill:#858686" d="M34 58 C33.51 59.94 35.41 64.5 32 64 C32.04 61.93 32.59 59.19 34 58 z"/>
<path style="fill:#d1d1d1" d="M44 58 L44 60 L41 61 L42 58 L44 58 z"/>
<path style="fill:#b9b9b9" d="M50 60 C48.82 60.15 48.98 58.66 49 58 C50.18 57.85 50.02 59.34 50 60 z"/>
<path style="fill:#9d9d9d" d="M20 61 L19 60 L20 61 z"/>
<path style="fill:#0a0a0a" d="M29 60 C30.88 59.86 28.86 61.88 29 60 z"/>
<path style="fill:#797a7a" d="M44 60 L44 62 L42.25 69.75 L41 62 L40 62 L41 61 L44 60 z"/>
<path style="fill:#9fa0a0" d="M44 62 L44 60 C47.19 61 45.88 65.29 45.75 67.75 L44 62 z"/>
<path style="fill:#b7b8b8" d="M50 60 C52.97 63.82 48.78 66.57 50 60 z"/>
<path style="fill:#8e8f8f" d="M27 62 C26.34 62.02 24.85 62.18 25 61 C25.66 60.98 27.15 60.82 27 62 z"/>
<path style="fill:#818181" d="M35 61 C37.97 64.82 33.78 67.57 35 61 z"/>
<path style="fill:#cacaca" d="M41 62 C41.69 67.39 39.31 67.39 40 62 L41 62 z"/>
<path style="fill:#7e7e7e" d="M54 64 C54.02 64.66 54.18 66.15 53 66 C52.98 65.34 52.82 63.85 54 64 z"/>
<path style="fill:#9a9a9a" d="M33 68 C31.82 68.15 31.98 66.66 32 66 C33.18 65.85 33.02 67.34 33 68 z"/>
<path style="fill:#848484" d="M53 67 L52 68 L53 67 z"/>
<path style="fill:#7f7f7f" d="M34 69 L33 68 L34 69 z"/>
<path style="fill:#9b9b9b" d="M36 70 C35.34 70.02 33.85 70.18 34 69 C34.66 68.98 36.15 68.82 36 70 z"/>
<path style="fill:#aeaeae" d="M51 69 L47 70 L51 69 z"/>
<path style="fill:#6e6e6e" d="M40 71 L39 70 L40 71 z"/>
<path style="fill:#a2a2a2" d="M41 72 L40 71 L41 72 z"/>
<path style="fill:#8b8b8b" d="M45 71 L44 72 L45 71 z"/>
</svg>
