<?xml version="1.0" standalone="yes"?>
<svg width="87" height="97">
<path style="fill:#fdfdfd" d="M87 0 L87 97 L0 97 L0 0 L87 0 z"/>
<path style="fill:#919292" d="M44 24 L42 24 C41.78 22.67 44.22 22.67 44 24 z"/>
<path style="fill:#656666" d="M42 24 C42.46 25.35 41.35 26.46 40 26 L42 24 z"/>
<path style="fill:#080808" d="M44 24 L45 25 L46 26 L47 27 L48 27 C47.85 28.18 49.34 28.02 50 28 L51 28 C50.85 29.18 52.34 29.02 53 29 L54 29 C53.85 30.18 55.34 30.02 56 30 C55.85 31.18 57.34 31.02 58 31 L59 32 L61 37 C60.85 38.18 62.34 38.02 63 38 L64 39 L65 39 L67 41 C66.67 42.34 67.71 43.74 69 44 L69 45 C68.98 45.66 68.82 47.15 70 47 L70 49 C68.82 48.85 68.98 50.34 69 51 L69 52 L68 53 L66 55 L65 56 L64 56 C63.34 55.98 61.85 55.82 62 57 L61 62 L60 63 L58 65 L51 66 C50.34 65.98 48.85 65.82 49 67 L48 67 C47.34 66.98 45.85 66.82 46 68 L44 70 L42 70 L41 69 L40 68 C40.15 66.82 38.66 66.98 38 67 C38.15 65.82 36.66 65.98 36 66 C34.17 66.23 31.85 65.5 31 64 C31.15 62.82 29.66 62.98 29 63 L28 62 L28 61 C28.02 60.34 28.18 58.85 27 59 C27.02 58.34 27.18 56.85 26 57 C26.15 55.82 24.66 55.98 24 56 L23 56 C23.46 54.65 22.35 53.54 21 54 L21 53 L20 52 C20.02 51.34 20.18 49.85 19 50 L19 45 C20.18 45.15 20.02 43.66 20 43 L20 42 L21 41 L22 40 L25 39 L26 34 C27.18 34.15 27.02 32.66 27 32 L28 31 C29.34 31.33 30.74 30.29 31 29 L32 29 C32.66 29.02 34.15 29.18 34 28 L35 28 C35.66 28.02 37.15 28.18 37 27 L38 27 L39 26 L40 26 C41.35 26.46 42.46 25.35 42 24 L44 24 z"/>
<path style="fill:#818181" d="M45 25 L44 24 L45 25 z"/>
<path style="fill:#aaaaaa" d="M46 26 L45 25 L46 26 z"/>
<path style="fill:#7b7b7b" d="M39 26 L38 27 L39 26 z"/>
<path style="fill:#646464" d="M47 27 L46 26 L47 27 z"/>
<path style="fill:#8c8c8c" d="M37 27 C37.15 28.18 35.66 28.02 35 28 C34.85 26.82 36.34 26.98 37 27 z"/>
<path style="fill:#7f8080" d="M50 28 C49.34 28.02 47.85 28.18 48 27 C48.66 26.98 50.15 26.82 50 28 z"/>
<path style="fill:#929292" d="M34 28 C34.15 29.18 32.66 29.02 32 29 C31.85 27.82 33.34 27.98 34 28 z"/>
<path style="fill:#656565" d="M53 29 C52.34 29.02 50.85 29.18 51 28 C51.66 27.98 53.15 27.82 53 29 z"/>
<path style="fill:#656666" d="M31 29 C30.74 30.29 29.34 31.33 28 31 C28.26 29.71 29.66 28.67 31 29 z"/>
<path style="fill:#7c7d7d" d="M56 30 C55.34 30.02 53.85 30.18 54 29 C54.66 28.98 56.15 28.82 56 30 z"/>
<path style="fill:#7c7c7c" d="M58 31 C57.34 31.02 55.85 31.18 56 30 C56.66 29.98 58.15 29.82 58 31 z"/>
<path style="fill:#757575" d="M28 31 L27 32 L28 31 z"/>
<path style="fill:#707070" d="M59 32 L58 31 L59 32 z"/>
<path style="fill:#777878" d="M27 32 C27.02 32.66 27.18 34.15 26 34 C25.98 33.34 25.82 31.85 27 32 z"/>
<path style="fill:#565656" d="M61 37 L59 32 C61.37 32.46 61.08 35.17 61 37 z"/>
<path style="fill:#6f6f6f" d="M26 34 L25 39 L25 38 L26 34 z"/>
<path style="fill:#adaeae" d="M39 34 C38.79 35.42 38.89 37.67 41 37 L38.75 38.75 C33.95 40.9 43.59 38.54 41.75 41.75 L40 42 L38 42 L34 39 L39 34 z"/>
<path style="fill:#f0f0f0" d="M41 37 C38.89 37.67 38.79 35.42 39 34 C41.11 33.33 41.21 35.58 41 37 z"/>
<path style="fill:#474747" d="M52 36 L45 36 C46.03 34.36 50.97 34.36 52 36 z"/>
<path style="fill:#e4e4e4" d="M52 36 L52 37 L52 40 L52 41 C50.82 40.85 50.98 42.34 51 43 L51 44 C49.82 43.85 49.98 45.34 50 46 C49.05 46.19 47.06 45.41 47 47 L48 53 C48.45 54.6 52.55 54.6 53 53 L55 53 L57 48 C56.98 48.66 56.82 50.15 58 50 L58 51 L57 55 L53 55 L46 55 L45 48 C45.99 45.52 41.38 45.15 41 47 L41 49 L40 50 L40 51 L39 52 L34 55 L30 55 L30 54 L33 54 L34 53 L36 52 L37 51 L37 50 L38 49 L36 46 C36.02 45.34 36.18 43.85 35 44 L34 39 L38 42 L38 44 C38.73 45.62 43.27 45.62 44 44 L45 44 C51.03 45.4 49.02 38.92 44 41 L45 40 L50 39 C49.94 37.41 47.95 38.19 47 38 L46 37 L45 36 L52 36 z"/>
<path style="fill:#848484" d="M47 38 L46 37 L47 38 z"/>
<path style="fill:#7c7c7c" d="M52 40 L52 37 C53.48 36.96 53.48 40.04 52 40 z"/>
<path style="fill:#a8a9a9" d="M63 38 C62.34 38.02 60.85 38.18 61 37 C61.66 36.98 63.15 36.82 63 38 z"/>
<path style="fill:#b3b3b3" d="M25 38 L25 39 L22 40 C21.33 37.89 23.58 37.79 25 38 z"/>
<path style="fill:#797979" d="M64 39 L63 38 L64 39 z"/>
<path style="fill:#444444" d="M34 39 L35 44 C34.1 43.25 32.13 39.65 34 39 z"/>
<path style="fill:#646565" d="M50 39 L45 40 L50 39 z"/>
<path style="fill:#a4a5a5" d="M67 41 L65 39 C66.35 38.54 67.46 39.65 67 41 z"/>
<path style="fill:#868686" d="M22 40 L21 41 L22 40 z"/>
<path style="fill:#a5a5a5" d="M21 41 L20 42 L21 41 z"/>
<path style="fill:#474848" d="M45 44 C49.08 41.73 46.63 42.98 44 41 C49.02 38.92 51.03 45.4 45 44 z"/>
<path style="fill:#676868" d="M52 41 C52.02 41.66 52.18 43.15 51 43 C50.98 42.34 50.82 40.85 52 41 z"/>
<path style="fill:#626262" d="M69 44 C67.71 43.74 66.67 42.34 67 41 C68.29 41.26 69.33 42.66 69 44 z"/>
<path style="fill:#878888" d="M20 43 C20.02 43.66 20.18 45.15 19 45 C18.98 44.34 18.82 42.85 20 43 z"/>
<path style="fill:#5b5c5c" d="M36 46 C34.82 46.15 34.98 44.66 35 44 C36.18 43.85 36.02 45.34 36 46 z"/>
<path style="fill:#969696" d="M44 44 C43.27 45.62 38.73 45.62 38 44 L44 44 z"/>
<path style="fill:#737373" d="M51 44 C51.02 44.66 51.18 46.15 50 46 C49.98 45.34 49.82 43.85 51 44 z"/>
<path style="fill:#666666" d="M70 47 C68.82 47.15 68.98 45.66 69 45 C70.18 44.85 70.02 46.34 70 47 z"/>
<path style="fill:#717171" d="M45 48 L41 47 C41.38 45.15 45.99 45.52 45 48 z"/>
<path style="fill:#636363" d="M50 46 C49.94 47.59 47.95 46.81 47 47 C47.06 45.41 49.05 46.19 50 46 z"/>
<path style="fill:#979797" d="M57 48 L55 53 C54.93 51.34 54.46 44.88 57 48 z"/>
<path style="fill:#606161" d="M58 50 C56.82 50.15 56.98 48.66 57 48 C58.18 47.85 58.02 49.34 58 50 z"/>
<path style="fill:#5b5b5b" d="M38 49 L37 50 L38 49 z"/>
<path style="fill:#818181" d="M41 49 L40 50 L41 49 z"/>
<path style="fill:#676767" d="M70 49 C70.02 49.66 70.18 51.15 69 51 C68.98 50.34 68.82 48.85 70 49 z"/>
<path style="fill:#909191" d="M20 52 C18.82 52.15 18.98 50.66 19 50 C20.18 49.85 20.02 51.34 20 52 z"/>
<path style="fill:#656565" d="M37 51 L36 52 L37 51 z"/>
<path style="fill:#5f5f5f" d="M40 51 L39 52 L40 51 z"/>
<path style="fill:#5a5b5b" d="M57 55 L58 51 C60.3 51.34 58.87 58.42 57 55 z"/>
<path style="fill:#6a6a6a" d="M21 53 L20 52 L21 53 z"/>
<path style="fill:#6b6b6b" d="M69 52 L68 53 L69 52 z"/>
<path style="fill:#707070" d="M34 53 L33 54 L34 53 z"/>
<path style="fill:#838383" d="M53 53 C52.55 54.6 48.45 54.6 48 53 L53 53 z"/>
<path style="fill:#7a7b7b" d="M23 56 L21 54 C22.35 53.54 23.46 54.65 23 56 z"/>
<path style="fill:#666666" d="M30 54 L30 55 C28.94 55.43 28.94 53.57 30 54 z"/>
<path style="fill:#757676" d="M34 55 C33.81 56.55 30.19 56.55 30 55 L34 55 z"/>
<path style="fill:#565757" d="M53 55 C51.97 56.64 47.03 56.64 46 55 L53 55 z"/>
<path style="fill:#757575" d="M66 55 L65 56 L66 55 z"/>
<path style="fill:#696a6a" d="M26 57 C25.34 57.02 23.85 57.18 24 56 C24.66 55.98 26.15 55.82 26 57 z"/>
<path style="fill:#696969" d="M64 56 C64.15 57.18 62.66 57.02 62 57 C61.85 55.82 63.34 55.98 64 56 z"/>
<path style="fill:#939393" d="M27 59 C25.82 59.15 25.98 57.66 26 57 C27.18 56.85 27.02 58.34 27 59 z"/>
<path style="fill:#b6b6b6" d="M62 57 L61 63 L61 62 L62 57 z"/>
<path style="fill:#676767" d="M28 61 C26.82 61.15 26.98 59.66 27 59 C28.18 58.85 28.02 60.34 28 61 z"/>
<path style="fill:#8e8e8e" d="M29 63 L28 62 L29 63 z"/>
<path style="fill:#616161" d="M61 62 L61 63 L60 63 L61 62 z"/>
<path style="fill:#5a5b5b" d="M31 64 C30.34 64.02 28.85 64.18 29 63 C29.66 62.98 31.15 62.82 31 64 z"/>
<path style="fill:#9e9e9e" d="M60 63 C60.46 64.35 59.35 65.46 58 65 L60 63 z"/>
<path style="fill:#6d6d6d" d="M38 67 C37.34 67.02 35.85 67.18 36 66 C36.66 65.98 38.15 65.82 38 67 z"/>
<path style="fill:#747474" d="M51 66 C51.15 67.18 49.66 67.02 49 67 C48.85 65.82 50.34 65.98 51 66 z"/>
<path style="fill:#7d7d7d" d="M40 68 C39.34 68.02 37.85 68.18 38 67 C38.66 66.98 40.15 66.82 40 68 z"/>
<path style="fill:#6f7070" d="M48 67 C48.15 68.18 46.66 68.02 46 68 C45.85 66.82 47.34 66.98 48 67 z"/>
<path style="fill:#848484" d="M41 69 L40 68 L41 69 z"/>
<path style="fill:#7a7a7a" d="M42 70 L41 69 L42 70 z"/>
<path style="fill:#aaabab" d="M44 70 C44.22 71.33 41.78 71.33 42 70 L44 70 z"/>
</svg>
