<?xml version="1.0" standalone="yes"?>
<svg width="87" height="97">
<path style="fill:#fafbfb" d="M87 0 L87 97 L0 97 L0 0 L87 0 z"/>
<path style="fill:#525252" d="M40 20 C40.15 18.82 38.66 18.98 38 19 C38.98 15.98 43.11 18.13 40 20 z"/>
<path style="fill:#5d5e5e" d="M45 17 C50.36 16.79 45.08 21.61 45 17 z"/>
<path style="fill:#474747" d="M50 18 C54.53 17.84 51.46 22.07 50 18 z"/>
<path style="fill:#111111" d="M38 19 C38.66 18.98 40.15 18.82 40 20 L39 21 L38 22 L36 24 L35 24 L34 25 L31 26 L30 25 L34 21 L35 20 L38 19 z"/>
<path style="fill:#969696" d="M56 20 L55 21 C52.34 20.67 55.67 17.34 56 20 z"/>
<path style="fill:#484848" d="M30 20 C34.91 19.88 27.03 24.05 30 20 z"/>
<path style="fill:#727272" d="M35 20 L34 21 L35 20 z"/>
<path style="fill:#828282" d="M40 20 L39 21 L40 20 z"/>
<path style="fill:#8c8d8d" d="M43 20 C47.39 19.54 42.54 24.39 43 20 z"/>
<path style="fill:#050505" d="M56 20 L55 21 L56 20 z"/>
<path style="fill:#b1b2b2" d="M59 22 L58 28 L55 25 L56 24 L55 21 L56 20 L59 22 z"/>
<path style="fill:#8e8e8e" d="M39 21 L38 22 L39 21 z"/>
<path style="fill:#313131" d="M48 21 C49.88 20.86 47.86 22.88 48 21 z"/>
<path style="fill:#b7b7b7" d="M38 22 C38.06 23.59 40.05 22.81 41 23 L37 26 C35.82 26.15 35.98 24.66 36 24 L38 22 z"/>
<path style="fill:#e3e3e3" d="M53 23 C51.12 22.86 53.14 24.88 53 23 C53.95 23.19 55.94 22.41 56 24 L55 25 L58 28 L58 29 L52 26 L51 25 L50 24 L53 23 z"/>
<path style="fill:#0c0c0c" d="M59 22 C58.98 22.66 58.82 24.15 60 24 C59.98 24.66 59.82 26.15 61 26 L61 27 L61 29 L61 33 L59 32 C58.81 31.05 59.59 29.06 58 29 L58 28 L59 22 z"/>
<path style="fill:#676767" d="M60 24 C58.82 24.15 58.98 22.66 59 22 C60.18 21.85 60.02 23.34 60 24 z"/>
<path style="fill:#949595" d="M25 23 L26 24 C25.67 26.66 22.34 23.33 25 23 z"/>
<path style="fill:#363636" d="M26 24 L25 23 L26 24 z"/>
<path style="fill:#151515" d="M45 23 C45.06 24.59 47.05 23.81 48 24 L50 24 L51 25 L46 26 L38 26 L37 26 L41 23 L45 23 z"/>
<path style="fill:#a6a6a6" d="M48 24 C47.05 23.81 45.06 24.59 45 23 C45.95 23.19 47.94 22.41 48 24 z"/>
<path style="fill:#424242" d="M53 23 C53.14 24.88 51.12 22.86 53 23 z"/>
<path style="fill:#898989" d="M35 24 L34 25 L35 24 z"/>
<path style="fill:#1c1c1c" d="M56 24 L55 25 L56 24 z"/>
<path style="fill:#868686" d="M61 26 C59.82 26.15 59.98 24.66 60 24 C61.18 23.85 61.02 25.34 61 26 z"/>
<path style="fill:#a5a6a6" d="M64 25 L62 25 C61.78 23.67 64.22 23.67 64 25 z"/>
<path style="fill:#909090" d="M30 25 L31 26 L30 28 C27.54 29.77 23.14 34.58 25 37 L22 40 L22 36 L27 28 L30 25 z"/>
<path style="fill:#b4b5b5" d="M52 26 L52 27 L49 28 C49.22 26.67 46.78 26.67 47 28 L45 28 L45 27 L46 26 L51 25 L52 26 z"/>
<path style="fill:#373838" d="M64 25 L64 26 C64.45 28.02 63.16 27.93 62 27 L62 25 L64 25 z"/>
<path style="fill:#505151" d="M22 29 C16.97 28.83 23.15 23.05 22 29 z"/>
<path style="fill:#777777" d="M27 28 C22.61 28.46 27.46 23.61 27 28 z"/>
<path style="fill:#818181" d="M46 26 L45 27 C40.56 24.87 36.5 32.41 38 26 L46 26 z"/>
<path style="fill:#8d8d8d" d="M58 29 C59.59 29.06 58.81 31.05 59 32 L52 27 L52 26 L58 29 z"/>
<path style="fill:#dcdcdc" d="M67 29 C65.65 28.54 64.54 29.65 65 31 L65 32 L65 33 C62.5 32.05 62.5 35.95 65 35 L63 37 L61 36 L61 33 C62.55 32.81 62.55 29.19 61 29 L61 27 L62 27 C63.16 27.93 64.45 28.02 64 26 L67 29 z"/>
<path style="fill:#747575" d="M52 27 L52 29 C51.05 28.81 49.06 29.59 49 28 L52 27 z"/>
<path style="fill:#d8d8d8" d="M59 32 L59 34 L57 34 C56.67 31.34 53.34 34.67 56 35 L61 39 L62 40 L64 40 L63 41 C61.65 40.54 60.54 41.65 61 43 L63 45 L62 46 C61.05 45.81 59.06 46.59 59 45 L60 44 C60.43 42.94 58.57 42.94 59 44 L59 45 L58 45 L58 44 L58 43 L52 42 C50.13 41.87 52.18 39.98 53 40 C56.92 42.22 54.65 37.99 53 36 C52.7 34.39 50.71 33.41 49.25 34.25 C50.27 35.69 50 37.73 48 36 L47 36 L48 34 L48 33 L50 33 C51.35 33.46 52.46 32.35 52 31 C53.33 31.22 53.33 28.78 52 29 L52 27 L59 32 z"/>
<path style="fill:#e4e4e4" d="M30 28 L31 28 L31 30 L30 31 C29.79 29.03 28.44 31.2 29 32 L29 33 C26.84 32.35 26.84 34.65 29 34 L29 35 L25 37 C23.14 34.58 27.54 29.77 30 28 z"/>
<path style="fill:#707171" d="M33 30 L31 30 L31 28 C32.35 27.54 33.46 28.65 33 30 z"/>
<path style="fill:#666666" d="M47 28 C49.58 28.73 44.66 29.99 45 28 L47 28 z"/>
<path style="fill:#949595" d="M23 29 L23 31 C21.82 31.15 21.98 29.66 22 29 L23 29 z"/>
<path style="fill:#3e3e3e" d="M23 31 L23 29 C24.33 28.78 24.33 31.22 23 31 z"/>
<path style="fill:#636363" d="M61 33 L61 29 C62.55 29.19 62.55 32.81 61 33 z"/>
<path style="fill:#1d1e1e" d="M67 29 L67 32 L66 32 L65 31 C64.54 29.65 65.65 28.54 67 29 z"/>
<path style="fill:#656565" d="M17 30 C22.03 30.17 15.85 35.95 17 30 z"/>
<path style="fill:#7e7f7f" d="M30 31 L29 32 C28.44 31.2 29.79 29.03 30 31 z"/>
<path style="fill:#868686" d="M33 30 C38.95 28.85 33.17 35.03 33 30 z"/>
<path style="fill:#7c7c7c" d="M52 31 C52.46 32.35 51.35 33.46 50 33 C49.54 31.65 50.65 30.54 52 31 z"/>
<path style="fill:#7b7b7b" d="M66 32 L65 32 L65 31 L66 32 z"/>
<path style="fill:#a7a8a8" d="M22 36 C21.34 36.02 19.85 36.18 20 35 C21.33 35.22 21.33 32.78 20 33 C21.58 30.1 22.59 34.49 22 36 z"/>
<path style="fill:#a2a2a2" d="M48 33 C47.34 32.98 45.85 32.82 46 34 C42.91 33.07 47.73 30.38 48 33 z"/>
<path style="fill:#797a7a" d="M61 33 L61 36 L59 34 L59 32 L61 33 z"/>
<path style="fill:#959595" d="M67 32 C67.43 33.06 65.57 33.06 66 32 L67 32 z"/>
<path style="fill:#969696" d="M70 33 L69 33 C68.57 31.94 70.43 31.94 70 33 z"/>
<path style="fill:#1b1b1b" d="M20 35 L20 33 C21.33 32.78 21.33 35.22 20 35 z"/>
<path style="fill:#525353" d="M29 33 L29 34 C26.84 34.65 26.84 32.35 29 33 z"/>
<path style="fill:#757676" d="M40 35 C40.15 33.82 38.66 33.98 38 34 C38.27 31.38 43.09 34.07 40 35 z"/>
<path style="fill:#080808" d="M48 33 L48 34 L46 34 C45.85 32.82 47.34 32.98 48 33 z"/>
<path style="fill:#606161" d="M57 34 L56 35 C53.34 34.67 56.67 31.34 57 34 z"/>
<path style="fill:#454646" d="M65 33 L65 35 C62.5 35.95 62.5 32.05 65 33 z"/>
<path style="fill:#adaeae" d="M69 33 L69 36 C67.52 36.04 67.52 32.96 69 33 z"/>
<path style="fill:#191919" d="M70 33 C69.81 33.95 70.59 35.94 69 36 L69 33 L70 33 z"/>
<path style="fill:#444545" d="M15 34 C19.48 35.54 13.91 39.1 15 34 z"/>
<path style="fill:#aaaaaa" d="M32 36 L32 37 L30 38 L29 37 L29 35 L29 34 L32 36 z"/>
<path style="fill:#a5a5a5" d="M38 34 C37.85 35.18 39.34 35.02 40 35 L39 37 C36.47 37.04 31.36 43.1 32 37 C34.55 39.26 35.89 34.64 32 36 C33.19 34.59 35.93 34.04 38 34 z"/>
<path style="fill:#141515" d="M40 35 C39.34 35.02 37.85 35.18 38 34 C38.66 33.98 40.15 33.82 40 35 z"/>
<path style="fill:#6d6d6d" d="M48 34 L47 36 L47 37 C45.41 36.94 46.19 34.95 46 34 L48 34 z"/>
<path style="fill:#848585" d="M53 36 C49.34 35.64 52.13 38.68 53 40 C52.18 39.98 50.13 41.87 52 42 L52 44 L51 44 C50.94 42.41 48.95 43.19 48 43 L48 42 C51.75 41.81 48.21 38.25 48 36 C50 37.73 50.27 35.69 49.25 34.25 C50.71 33.41 52.7 34.39 53 36 z"/>
<path style="fill:#0f1010" d="M57 34 L59 34 L61 36 L63 37 L63 38 L64 39 L64 40 L62 40 L61 39 L56 35 L57 34 z"/>
<path style="fill:#1d1d1d" d="M29 35 L29 37 L24 42 C23.34 41.98 21.85 41.82 22 43 L21 43 L22 40 L25 37 L29 35 z"/>
<path style="fill:#575858" d="M32 37 L32 36 C35.89 34.64 34.55 39.26 32 37 z"/>
<path style="fill:#171818" d="M48 36 C48.21 38.25 51.75 41.81 48 42 L47 37 L47 36 L48 36 z"/>
<path style="fill:#565757" d="M53 36 C54.65 37.99 56.92 42.22 53 40 C52.13 38.68 49.34 35.64 53 36 z"/>
<path style="fill:#d2d3d3" d="M19 37 C18.32 40.25 20.68 40.25 20 37 L22 40 L21 43 L20 44 L17 40 L19 37 z"/>
<path style="fill:#292a2a" d="M20 37 C20.68 40.25 18.32 40.25 19 37 L20 37 z"/>
<path style="fill:#e8e8e8" d="M30 38 L28 43 L24 42 L29 37 L30 38 z"/>
<path style="fill:#5f6060" d="M32 37 C31.36 43.1 36.47 37.04 39 37 C37.56 39.01 37.56 41.99 39 44 C35.26 44.9 36.49 42.25 36.75 40.25 L33 43 C33.74 40.48 31.13 41.23 31 43 L30 43 L28 43 L30 38 L32 37 z"/>
<path style="fill:#8b8c8c" d="M67 40 C67.02 39.34 67.18 37.85 66 38 C66.93 34.91 69.62 39.73 67 40 z"/>
<path style="fill:#151515" d="M15 38 L16 39 L17 40 L20 44 L20 49 L17 46 L16 45 L16 44 L15 43 L15 42 C15.02 41.34 15.18 39.85 14 40 C13.98 39.34 13.82 37.85 15 38 z"/>
<path style="fill:#7b7b7b" d="M16 39 L15 38 L16 39 z"/>
<path style="fill:#7b7b7b" d="M64 39 L63 38 L64 39 z"/>
<path style="fill:#3c3d3d" d="M67 40 C66.23 42.28 65.68 38.77 66 38 C67.18 37.85 67.02 39.34 67 40 z"/>
<path style="fill:#1b1c1c" d="M72 38 L72 43 L71 43 L71 39 L72 38 z"/>
<path style="fill:#adadad" d="M72 43 L72 38 C73.6 38.45 73.6 42.55 72 43 z"/>
<path style="fill:#878787" d="M17 40 L16 39 L17 40 z"/>
<path style="fill:#595959" d="M57 39 C60.64 38.55 57.87 42.73 57 39 z"/>
<path style="fill:#787878" d="M62 40 L61 39 L62 40 z"/>
<path style="fill:#8b8c8c" d="M71 39 L71 43 L70 43 L71 39 z"/>
<path style="fill:#6f6f6f" d="M15 42 C13.82 42.15 13.98 40.66 14 40 C15.18 39.85 15.02 41.34 15 42 z"/>
<path style="fill:#181919" d="M39 44 C35.85 45.39 36.2 46.03 39 48 L38 49 L37 49 L35 51 L30 49 L29 47 L29 46 C28.94 44.41 26.95 45.19 26 45 L26 44 L30 43 L31 43 L33 43 L36.75 40.25 C36.49 42.25 35.26 44.9 39 44 z"/>
<path style="fill:#c5c5c5" d="M33 43 L31 43 C31.13 41.23 33.74 40.48 33 43 z"/>
<path style="fill:#888888" d="M63 41 C63.46 42.35 62.35 43.46 61 43 C60.54 41.65 61.65 40.54 63 41 z"/>
<path style="fill:#bebebe" d="M24 42 L28 43 L30 43 L26 44 L25 44 C25.14 42.12 23.12 44.14 25 44 L25 45 L23 46 C22.81 45.05 23.59 43.06 22 43 C21.85 41.82 23.34 41.98 24 42 z"/>
<path style="fill:#6a6a6a" d="M58 43 C56.94 42.57 56.94 44.43 58 44 L58 45 L57 45 L52 44 L52 42 L58 43 z"/>
<path style="fill:#343434" d="M69 43 L69 45 C68.81 47.02 66.1 45.56 67 44 L68 43 C67.57 41.94 69.43 41.94 69 43 z"/>
<path style="fill:#6a6a6a" d="M16 44 L15 43 L16 44 z"/>
<path style="fill:#8f8f8f" d="M22 43 L23 60 C16.97 60.61 23.81 52.2 20 49 L20 44 L21 43 L22 43 z"/>
<path style="fill:#ededed" d="M23 46 C23.19 48.02 25.9 46.56 25 45 L25 44 L26 44 L26 45 C26.06 46.59 28.05 45.81 29 46 L29 47 C26.82 47.25 25.98 51.31 28 52 C27.73 54.02 25.9 52.32 25 52 L24 53 L25 54 L25 56 L25 62 L23 60 L22 43 C23.59 43.06 22.81 45.05 23 46 z"/>
<path style="fill:#2a2a2a" d="M25 44 C23.12 44.14 25.14 42.12 25 44 z"/>
<path style="fill:#1f1f1f" d="M48 43 C48.95 43.19 50.94 42.41 51 44 C53.16 45.31 55.97 48.05 58 47 C57.2 50.37 53.6 48.7 58 51 L53 51 L45 47 C49.1 46.66 47.09 44.9 45 44 L48 43 z"/>
<path style="fill:#0f0f0f" d="M58 43 L58 44 C56.94 44.43 56.94 42.57 58 43 z"/>
<path style="fill:#7b7b7b" d="M60 44 L59 44 C58.57 42.94 60.43 42.94 60 44 z"/>
<path style="fill:#8c8c8c" d="M68 43 L67 44 L68 43 z"/>
<path style="fill:#a3a4a4" d="M70 43 C70.02 43.66 70.18 45.15 69 45 L69 43 L70 43 z"/>
<path style="fill:#373737" d="M14 48 L13 48 C9.448 44.94 15.12 42.64 14 48 z"/>
<path style="fill:#8f9090" d="M39 48 C36.2 46.03 35.85 45.39 39 44 C40.58 44.64 41.6 47.7 39 48 z"/>
<path style="fill:#a5a5a5" d="M45 44 C47.09 44.9 49.1 46.66 45 47 L44 46 C43.98 45.34 43.82 43.85 45 44 z"/>
<path style="fill:#ababab" d="M52 44 L57 45 L58 47 C55.97 48.05 53.16 45.31 51 44 L52 44 z"/>
<path style="fill:#0e0e0e" d="M60 44 L59 45 L59 44 L60 44 z"/>
<path style="fill:#898989" d="M17 46 L16 45 L17 46 z"/>
<path style="fill:#696969" d="M25 45 C25.9 46.56 23.19 48.02 23 46 L25 45 z"/>
<path style="fill:#959696" d="M29 46 C28.05 45.81 26.06 46.59 26 45 C26.95 45.19 28.94 44.41 29 46 z"/>
<path style="fill:#2e2e2e" d="M63 45 L62 46 L63 45 z"/>
<path style="fill:#929292" d="M66 52 L64 54 C64.85 51.67 62.91 51.26 62 50 L63 49 C64.59 48.94 63.81 46.95 64 46 L66 52 z"/>
<path style="fill:#afafaf" d="M72 47 L71 46 C71.33 43.34 74.66 46.67 72 47 z"/>
<path style="fill:#2c2c2c" d="M45 47 L44 46 L45 47 z"/>
<path style="fill:#171818" d="M72 47 L71 49 L70 50 L68 54 C66.68 54.87 63.64 57.66 64 54 L66 52 L66 51 L67 50 L71 46 L72 47 z"/>
<path style="fill:#838383" d="M29 47 L30 49 L28 52 C25.98 51.31 26.82 47.25 29 47 z"/>
<path style="fill:#d3d3d3" d="M32 47 L32 48 C30.94 48.43 30.94 46.57 32 47 z"/>
<path style="fill:#6e6e6e" d="M32 48 L32 47 C33.06 46.57 33.06 48.43 32 48 z"/>
<path style="fill:#939393" d="M59 49 L59 51 L58 51 C53.6 48.7 57.2 50.37 58 47 C59.18 46.85 59.02 48.34 59 49 z"/>
<path style="fill:#959595" d="M14 48 C14.43 49.06 12.57 49.06 13 48 L14 48 z"/>
<path style="fill:#363737" d="M24 48 C27.15 49.55 21.34 50.99 24 48 z"/>
<path style="fill:#727272" d="M39 48 L38 49 L39 48 z"/>
<path style="fill:#a0a1a1" d="M63 49 L62 50 L60 51 L60 49 C60.9 48.68 62.73 46.98 63 49 z"/>
<path style="fill:#2d2d2d" d="M17 49 C21.07 50.46 16.84 53.53 17 49 z"/>
<path style="fill:#bcbcbc" d="M30 49 L35 51 L35 52 C33.4 52.14 30.51 49.54 31 53 C29.65 52.54 28.54 53.65 29 55 C27.82 54.85 27.98 56.34 28 57 C26.23 55.42 27.15 53.06 25 56 L25 54 L25 53 L25 52 C25.9 52.32 27.73 54.02 28 52 L30 49 z"/>
<path style="fill:#303131" d="M37 49 L39 59 L38 59 L37 57 L35 52 L35 51 L37 49 z"/>
<path style="fill:#3c3c3c" d="M60 49 L60 51 L59 51 L59 49 L60 49 z"/>
<path style="fill:#050505" d="M63 49 L62 50 L63 49 z"/>
<path style="fill:#959595" d="M71 49 L70 50 L71 49 z"/>
<path style="fill:#414141" d="M73 52 L72 51 C71.69 47.28 75.59 50.01 73 52 z"/>
<path style="fill:#e7e7e7" d="M62 50 C62.91 51.26 64.85 51.67 64 54 L62 53 C61.27 50.42 60.01 55.34 62 55 L62 60 L60 60 L60 58 C59.81 57.05 60.59 55.06 59 55 L58 54 L57 53 C58.18 53.15 58.02 51.66 58 51 L59 51 L60 51 L62 50 z"/>
<path style="fill:#a5a5a5" d="M67 50 L66 51 L67 50 z"/>
<path style="fill:#2c2d2d" d="M12 51 C16.89 51.3 13.79 55.99 12 51 z"/>
<path style="fill:#6e6f6f" d="M35 52 L37 57 L31 53 C30.51 49.54 33.4 52.14 35 52 z"/>
<path style="fill:#3a3b3b" d="M50 52 C49.38 53.07 47.95 55.54 50 56 L48 59 C46.65 59.46 45.54 58.35 46 57 L50 52 z"/>
<path style="fill:#7c7d7d" d="M53 51 L53 53 L50 56 C47.95 55.54 49.38 53.07 50 52 L53 51 z"/>
<path style="fill:#9a9b9b" d="M58 51 C58.02 51.66 58.18 53.15 57 53 C56.09 50.43 54.15 53.47 55 55 L53 55 L53 53 L53 51 L58 51 z"/>
<path style="fill:#afb0b0" d="M72 51 L73 52 C72.67 54.66 69.34 51.33 72 51 z"/>
<path style="fill:#0d0d0d" d="M25 52 L25 53 L24 53 L25 52 z"/>
<path style="fill:#424343" d="M57 53 C55.82 52.85 55.98 54.34 56 55 L55 55 C54.15 53.47 56.09 50.43 57 53 z"/>
<path style="fill:#2d2e2e" d="M62 53 L62 55 C60.01 55.34 61.27 50.42 62 53 z"/>
<path style="fill:#636363" d="M25 53 L25 54 L24 53 L25 53 z"/>
<path style="fill:#3d3d3d" d="M31 53 L30 55 L29 55 C28.54 53.65 29.65 52.54 31 53 z"/>
<path style="fill:#aeafaf" d="M37 57 L38 59 C36.49 59.29 34.5 56.94 35 60 C34.34 60.02 32.85 60.18 33 59 C34.06 59.43 34.06 57.57 33 58 C33.41 56.31 31.69 54.59 30 55 L31 53 L37 57 z"/>
<path style="fill:#c2c3c3" d="M53 53 L53 55 L50 60 L47 62 C48.1 58.58 42.88 60.78 46 62 C43.21 65.25 43.54 57.43 46 57 C45.54 58.35 46.65 59.46 48 59 C47.86 60.88 49.88 58.86 48 59 L50 56 L53 53 z"/>
<path style="fill:#9fa0a0" d="M57 53 L58 54 L58 63 L55 65 L56 55 C55.98 54.34 55.82 52.85 57 53 z"/>
<path style="fill:#a3a4a4" d="M64 54 C63.64 57.66 66.68 54.87 68 54 L68 55 L67 58 C64.65 55.58 63.29 58.69 62 60 L62 55 L62 53 L64 54 z"/>
<path style="fill:#3d3d3d" d="M19 54 L20 55 C20.95 58.97 15.97 54.61 19 54 z"/>
<path style="fill:#979797" d="M20 55 L19 54 L20 55 z"/>
<path style="fill:#1f1f1f" d="M28 57 L28 59 L27 63 L26 63 L25 62 L25 56 C27.15 53.06 26.23 55.42 28 57 z"/>
<path style="fill:#101010" d="M59 55 C59.19 55.95 58.41 57.94 60 58 L60 60 C60.21 61.42 60.11 63.67 58 63 L58 54 L59 55 z"/>
<path style="fill:#949494" d="M73 56 L72 55 C72.33 52.34 75.66 55.67 73 56 z"/>
<path style="fill:#5a5b5b" d="M33 58 L31 58 L30 55 C31.69 54.59 33.41 56.31 33 58 z"/>
<path style="fill:#636464" d="M55 55 C55.24 57.84 52.01 59 50 60 L53 55 L55 55 z"/>
<path style="fill:#6c6d6d" d="M60 58 C58.41 57.94 59.19 55.95 59 55 C60.59 55.06 59.81 57.05 60 58 z"/>
<path style="fill:#494949" d="M67 58 L68 55 C70.11 55.3 68.33 57.97 67 58 z"/>
<path style="fill:#656565" d="M72 55 L72 56 L71 56 L72 55 z"/>
<path style="fill:#030303" d="M73 56 L72 56 L72 55 L73 56 z"/>
<path style="fill:#3a3b3b" d="M16 57 L17 58 C15.49 61.59 12.14 54.07 16 57 z"/>
<path style="fill:#0a0a0a" d="M72 56 L72 57 L71 56 L72 56 z"/>
<path style="fill:#868686" d="M73 56 L72 57 L72 56 L73 56 z"/>
<path style="fill:#989898" d="M17 58 L16 57 L17 58 z"/>
<path style="fill:#d1d1d1" d="M33 58 L33 59 C32.85 60.18 34.34 60.02 35 60 L35 61 L35 63 C33.94 62.57 33.94 64.43 35 64 L36 64 C35.98 64.66 35.82 66.15 37 66 C35.93 68.32 33.01 64.49 33 63 L33 62 L32 61 L31 61 L31 59 L31 58 L33 58 z"/>
<path style="fill:#1d1d1d" d="M33 59 L33 58 C34.06 57.57 34.06 59.43 33 59 z"/>
<path style="fill:#808181" d="M38 59 L39 59 C42.26 59.74 40.62 65.36 38 62 C40.16 62.65 40.16 60.35 38 61 L35 61 L35 60 C34.5 56.94 36.49 59.29 38 59 z"/>
<path style="fill:#4d4d4d" d="M55 58 C57.52 58.7 54.27 61.22 55 58 z"/>
<path style="fill:#a8a9a9" d="M28 59 L27 63 L28 59 z"/>
<path style="fill:#7a7b7b" d="M31 59 L31 61 C28.5 61.95 28.5 58.05 31 59 z"/>
<path style="fill:#242424" d="M48 59 C49.88 58.86 47.86 60.88 48 59 z"/>
<path style="fill:#7c7c7c" d="M71 61 L70 60 C70.33 57.34 73.66 60.67 71 61 z"/>
<path style="fill:#999999" d="M25 62 L26 63 L27 67 L27 68 L23 64 C23.43 62.94 21.57 62.94 22 64 L23 60 L25 62 z"/>
<path style="fill:#212222" d="M47 62 L46 62 C42.88 60.78 48.1 58.58 47 62 z"/>
<path style="fill:#939494" d="M62 60 C62.24 62.81 60.57 65.81 58 67 L58 63 C60.11 63.67 60.21 61.42 60 60 L62 60 z"/>
<path style="fill:#818282" d="M65 60 L66 61 C65.67 63.66 62.34 60.33 65 60 z"/>
<path style="fill:#151515" d="M66 61 L65 60 C65.8 59.44 67.97 60.79 66 61 z"/>
<path style="fill:#161616" d="M70 60 L71 61 C69.72 62.75 67.86 60.63 70 60 z"/>
<path style="fill:#acadad" d="M16 61 L16 63 C14.67 63.22 14.67 60.78 16 61 z"/>
<path style="fill:#3b3b3b" d="M16 63 L16 61 C19.03 60.49 19.54 64.19 16 63 z"/>
<path style="fill:#787878" d="M32 61 L33 62 L33 63 C31.65 63.46 30.54 62.35 31 61 L32 61 z"/>
<path style="fill:#0f0f0f" d="M33 62 L32 61 L33 62 z"/>
<path style="fill:#070707" d="M38 62 L38 61 C40.16 60.35 40.16 62.65 38 62 z"/>
<path style="fill:#4a4a4a" d="M53 61 C55.52 61.7 52.27 64.22 53 61 z"/>
<path style="fill:#3e3e3e" d="M23 64 L22 64 C21.57 62.94 23.43 62.94 23 64 z"/>
<path style="fill:#353535" d="M35 63 L35 64 C33.94 64.43 33.94 62.57 35 63 z"/>
<path style="fill:#454545" d="M50 63 C52.52 63.7 49.27 66.22 50 63 z"/>
<path style="fill:#999a9a" d="M64 63 L65 64 C64.67 66.66 61.34 63.33 64 63 z"/>
<path style="fill:#2f2f2f" d="M65 64 L64 63 L65 64 z"/>
<path style="fill:#616161" d="M29 64 C31.52 64.7 28.27 67.22 29 64 z"/>
<path style="fill:#484848" d="M37 66 C35.82 66.15 35.98 64.66 36 64 C37.18 63.85 37.02 65.34 37 66 z"/>
<path style="fill:#606060" d="M47 64 C52.03 64.17 45.85 69.95 47 64 z"/>
<path style="fill:#5f5f5f" d="M67 64 C72.68 64.75 63.24 69.4 67 64 z"/>
<path style="fill:#464747" d="M55 65 C55.73 68.22 52.48 65.7 55 65 z"/>
<path style="fill:#7c7c7c" d="M19 66 L19 67 C17.94 67.43 17.94 65.57 19 66 z"/>
<path style="fill:#171818" d="M21 67 L19 67 L19 66 C19.66 65.98 21.15 65.82 21 67 z"/>
<path style="fill:#313131" d="M31 66 C33.52 66.7 30.27 69.22 31 66 z"/>
<path style="fill:#808181" d="M39 66 L39 73 C37.36 71.97 37.36 67.03 39 66 z"/>
<path style="fill:#030303" d="M40 67 L39 74 L39 73 L39 66 L40 67 z"/>
<path style="fill:#868686" d="M46 67 L44 67 C43.78 65.67 46.22 65.67 46 67 z"/>
<path style="fill:#4a4a4a" d="M61 66 C65.91 65.88 58.03 70.05 61 66 z"/>
<path style="fill:#9d9d9d" d="M21 67 L21 68 C20.34 68.02 18.85 68.18 19 67 L21 67 z"/>
<path style="fill:#858686" d="M31 71 C29.17 71.23 26.85 70.5 26 69 L27 68 L27 67 L31 71 z"/>
<path style="fill:#3f3f3f" d="M41 75 L39 75 L39 74 L40 67 L41 75 z"/>
<path style="fill:#262727" d="M46 67 L46 68 C47.39 70.93 42.72 79.05 48 76 L49 77 C45.58 80.57 42.51 75.88 44 72 L44 68 L44 67 L46 67 z"/>
<path style="fill:#3b3b3b" d="M51 67 C53.79 68.7 49.98 71.4 51 67 z"/>
<path style="fill:#878787" d="M58 67 C57.54 68.35 58.65 69.46 60 69 L53 72 L58 67 z"/>
<path style="fill:#9d9d9d" d="M25 69 L21 69 L21 68 L25 69 z"/>
<path style="fill:#434343" d="M33 68 C35.52 68.7 32.27 71.22 33 68 z"/>
<path style="fill:#a8a9a9" d="M44 68 L44 72 C42.45 71.81 42.45 68.19 44 68 z"/>
<path style="fill:#d3d3d3" d="M48 71 L48 73 L49 74 L50 74 L48 76 C42.72 79.05 47.39 70.93 46 68 L48 71 z"/>
<path style="fill:#0b0c0c" d="M25 69 L26 69 C26.85 70.5 29.17 71.23 31 71 L32 72 L33 73 L34 74 L35 75 L36 76 L37 76 L36 77 L34 77 C34.15 75.82 32.66 75.98 32 76 L31 76 C31.15 74.82 29.66 74.98 29 75 L28 75 L27 74 L25 73 L24 72 L23 71 L22 70 L21 69 L25 69 z"/>
<path style="fill:#101111" d="M63 69 L63 71 L62 72 L61 73 L60 74 L59 74 L58 75 L57 75 C56.34 74.98 54.85 74.82 55 76 L49 77 L48 76 L50 74 L52 73 L53 72 L60 69 L63 69 z"/>
<path style="fill:#626363" d="M63 71 L63 69 C64.33 68.78 64.33 71.22 63 71 z"/>
<path style="fill:#656565" d="M23 71 L22 70 L23 71 z"/>
<path style="fill:#525353" d="M35 70 C40.03 70.17 33.85 75.95 35 70 z"/>
<path style="fill:#7a7b7b" d="M49 73 C49.02 72.34 49.18 70.85 48 71 C48.93 67.91 51.62 72.73 49 73 z"/>
<path style="fill:#676767" d="M24 72 L23 71 L24 72 z"/>
<path style="fill:#7a7a7a" d="M32 72 L31 71 L32 72 z"/>
<path style="fill:#0" d="M49 73 L48 73 L48 71 C49.18 70.85 49.02 72.34 49 73 z"/>
<path style="fill:#6b6b6b" d="M63 71 L62 72 L63 71 z"/>
<path style="fill:#979797" d="M25 73 L24 72 L25 73 z"/>
<path style="fill:#7f7f7f" d="M33 73 L32 72 L33 73 z"/>
<path style="fill:#707070" d="M53 72 L52 73 L53 72 z"/>
<path style="fill:#7a7a7a" d="M62 72 L61 73 L62 72 z"/>
<path style="fill:#848484" d="M34 74 L33 73 L34 74 z"/>
<path style="fill:#676767" d="M49 73 L49 74 L48 73 L49 73 z"/>
<path style="fill:#838383" d="M61 73 L60 74 L61 73 z"/>
<path style="fill:#9d9d9d" d="M28 75 L27 74 L28 75 z"/>
<path style="fill:#6d6d6d" d="M35 75 L34 74 L35 75 z"/>
<path style="fill:#6a6a6a" d="M59 74 L58 75 L59 74 z"/>
<path style="fill:#5f5f5f" d="M31 76 C30.34 76.02 28.85 76.18 29 75 C29.66 74.98 31.15 74.82 31 76 z"/>
<path style="fill:#636363" d="M36 76 L35 75 L36 76 z"/>
<path style="fill:#606060" d="M41 75 C42.56 78.41 37.06 79.13 36 77 L37 76 C37.66 76.02 39.15 76.18 39 75 L41 75 z"/>
<path style="fill:#6e6e6e" d="M57 75 C57.15 76.18 55.66 76.02 55 76 C54.85 74.82 56.34 74.98 57 75 z"/>
<path style="fill:#636464" d="M34 77 C33.34 77.02 31.85 77.18 32 76 C32.66 75.98 34.15 75.82 34 77 z"/>
</svg>
