<?xml version="1.0" standalone="yes"?>
<svg width="87" height="97">
<path style="fill:#fdfdfd" d="M87 0 L87 97 L0 97 L0 0 L87 0 z"/>
<path style="fill:#757676" d="M48 21 L37 21 C39.31 19.34 45.69 19.34 48 21 z"/>
<path style="fill:#8f9090" d="M34 21 C33.85 22.18 35.34 22.02 36 22 L30 24 L34 21 z"/>
<path style="fill:#060707" d="M37 21 L48 21 L49 21 C49.06 22.59 51.05 21.81 52 22 L53 22 C52.85 23.18 54.34 23.02 55 23 L56 24 L57 24 L58 25 L60 26 L61 27 L64 30 L66 32 L66 33 L67 34 L68 35 L70 41 C69.98 41.66 69.82 43.15 71 43 L71 45 L71 54 L70 59 C68.82 58.85 68.98 60.34 69 61 L67 65 L66 66 L65 67 L60 71 L59 72 L56 74 C47.98 76.05 39.09 75.1 33 69 L32 66 L32 58 L32 56 C33.35 56.46 34.46 55.35 34 54 L36 52 L37 51 L38 51 L39 50 L40 50 L45 50 L49 51 L50 52 L51 52 C50.01 54.48 54.62 54.85 55 53 L56 50 L57 49 L57 48 L58 47 L58 45 C59.65 43.34 59.65 37.66 58 36 L57 34 C57.02 33.34 57.18 31.85 56 32 L55 30 L50 25 C48.02 22.99 44.28 21.69 41.25 22.25 L49 26 L54 32 L54 33 L54 38 L54 40 C52.82 39.85 52.98 41.34 53 42 C51.82 41.85 51.98 43.34 52 44 L51 45 L50 46 L49 47 L45 48 L39 48 L37 48 L36 47 C35.34 47.02 33.85 47.18 34 46 C33.81 44.45 30.19 44.45 30 46 C28.82 45.85 28.98 47.34 29 48 C27.82 47.85 27.98 49.34 28 50 L27 55 C25.45 55.19 25.45 58.81 27 59 L27 61 C26.98 61.66 26.82 63.15 28 63 L29 66 L30 67 L33 70 L48 77 L40 77 L37 77 C37.15 75.82 35.66 75.98 35 76 L33 76 L32 75 L31 75 L30 74 L29 74 L28 73 L26 72 L25 71 L24 70 L23 69 L22 68 L21 67 L20 66 C20.02 65.34 20.18 63.85 19 64 L18 63 L16 58 C16.02 57.34 16.18 55.85 15 56 L15 54 C15.02 53.34 15.18 51.85 14 52 L14 45 C15.18 45.15 15.02 43.66 15 43 L15 40 C16.18 40.15 16.02 38.66 16 38 C17.18 38.15 17.02 36.66 17 36 L17 35 L18 34 L19 33 L20 31 L21 30 C22.35 30.46 23.46 29.35 23 28 L26 27 C27.85 27.33 29.33 25.46 30 24 L36 22 C35.34 22.02 33.85 22.18 34 21 L37 21 z"/>
<path style="fill:#8e8e8e" d="M52 22 C51.05 21.81 49.06 22.59 49 21 C49.95 21.19 51.94 20.41 52 22 z"/>
<path style="fill:#838383" d="M50 25 L49 26 L41.25 22.25 C44.28 21.69 48.02 22.99 50 25 z"/>
<path style="fill:#a9aaaa" d="M55 23 C54.34 23.02 52.85 23.18 53 22 C53.66 21.98 55.15 21.82 55 23 z"/>
<path style="fill:#707070" d="M56 24 L55 23 L56 24 z"/>
<path style="fill:#4b4c4c" d="M30 24 C29.33 25.46 27.85 27.33 26 27 C26.67 25.54 28.15 23.67 30 24 z"/>
<path style="fill:#888888" d="M58 25 L57 24 L58 25 z"/>
<path style="fill:#bfbfbf" d="M50 25 L55 30 C53.82 29.85 53.98 31.34 54 32 L49 26 L50 25 z"/>
<path style="fill:#aaaaaa" d="M61 27 L60 26 L61 27 z"/>
<path style="fill:#626262" d="M23 28 C23.46 29.35 22.35 30.46 21 30 L23 28 z"/>
<path style="fill:#8d8d8d" d="M21 30 L20 31 L21 30 z"/>
<path style="fill:#f2f3f3" d="M55 30 L56 32 C55.98 32.66 55.82 34.15 57 34 L58 36 L58 45 L58 47 L57 48 L57 49 L56 50 L55 53 L51 52 L50 52 L49 51 L45 50 L45 48 L49 47 L50 46 L51 45 L52 44 C53.18 44.15 53.02 42.66 53 42 C54.18 42.15 54.02 40.66 54 40 L54 38 C55.6 37.55 55.6 33.45 54 33 L54 32 C53.98 31.34 53.82 29.85 55 30 z"/>
<path style="fill:#aaabab" d="M66 32 L64 30 C65.35 29.54 66.46 30.65 66 32 z"/>
<path style="fill:#a3a3a3" d="M57 34 C55.82 34.15 55.98 32.66 56 32 C57.18 31.85 57.02 33.34 57 34 z"/>
<path style="fill:#6a6a6a" d="M19 33 L18 34 L19 33 z"/>
<path style="fill:#a6a6a6" d="M54 38 L54 33 C55.6 33.45 55.6 37.55 54 38 z"/>
<path style="fill:#5d5d5d" d="M67 34 L66 33 L67 34 z"/>
<path style="fill:#a5a5a5" d="M18 34 L17 35 L18 34 z"/>
<path style="fill:#7d7d7d" d="M68 35 L67 34 L68 35 z"/>
<path style="fill:#5c5d5d" d="M17 36 C17.02 36.66 17.18 38.15 16 38 C15.98 37.34 15.82 35.85 17 36 z"/>
<path style="fill:#686868" d="M58 45 L58 36 C59.65 37.66 59.65 43.34 58 45 z"/>
<path style="fill:#8a8a8a" d="M16 38 C16.02 38.66 16.18 40.15 15 40 C14.98 39.34 14.82 37.85 16 38 z"/>
<path style="fill:#7d7e7e" d="M54 40 C54.02 40.66 54.18 42.15 53 42 C52.98 41.34 52.82 39.85 54 40 z"/>
<path style="fill:#5c5c5c" d="M71 43 C69.82 43.15 69.98 41.66 70 41 C71.18 40.85 71.02 42.34 71 43 z"/>
<path style="fill:#838383" d="M53 42 C53.02 42.66 53.18 44.15 52 44 C51.98 43.34 51.82 41.85 53 42 z"/>
<path style="fill:#5c5c5c" d="M15 43 C15.02 43.66 15.18 45.15 14 45 C13.98 44.34 13.82 42.85 15 43 z"/>
<path style="fill:#999999" d="M52 44 L51 45 L52 44 z"/>
<path style="fill:#a8a9a9" d="M34 46 L30 46 C30.19 44.45 33.81 44.45 34 46 z"/>
<path style="fill:#828282" d="M51 45 L50 46 L51 45 z"/>
<path style="fill:#888989" d="M71 54 L71 45 C72.65 46.66 72.65 52.34 71 54 z"/>
<path style="fill:#717171" d="M30 46 C30.02 46.66 30.18 48.15 29 48 C28.98 47.34 28.82 45.85 30 46 z"/>
<path style="fill:#f1f1f1" d="M34 46 C33.85 47.18 35.34 47.02 36 47 L37 48 L39 48 L40 50 L39 50 L38 51 L37 51 L36 52 L34 54 L32 56 L32 58 C30.35 59.34 30.35 64.66 32 66 L33 69 L33 70 L30 67 L29 66 L28 63 C28.02 62.34 28.18 60.85 27 61 L27 59 L27 55 L28 50 C29.18 50.15 29.02 48.66 29 48 C30.18 48.15 30.02 46.66 30 46 L34 46 z"/>
<path style="fill:#848484" d="M50 46 L49 47 L50 46 z"/>
<path style="fill:#757575" d="M37 48 L36 47 L37 48 z"/>
<path style="fill:#9e9e9e" d="M58 47 L57 48 L58 47 z"/>
<path style="fill:#898a8a" d="M29 48 C29.02 48.66 29.18 50.15 28 50 C27.98 49.34 27.82 47.85 29 48 z"/>
<path style="fill:#8c8d8d" d="M45 48 L45 50 L40 50 L39 48 L45 48 z"/>
<path style="fill:#8f8f8f" d="M57 49 L56 50 L57 49 z"/>
<path style="fill:#747474" d="M39 50 L38 51 L39 50 z"/>
<path style="fill:#919191" d="M37 51 L36 52 L37 51 z"/>
<path style="fill:#5a5a5a" d="M50 52 L49 51 L50 52 z"/>
<path style="fill:#606161" d="M15 54 C13.82 54.15 13.98 52.66 14 52 C15.18 51.85 15.02 53.34 15 54 z"/>
<path style="fill:#6a6a6a" d="M55 53 C54.62 54.85 50.01 54.48 51 52 L55 53 z"/>
<path style="fill:#676767" d="M34 54 C34.46 55.35 33.35 56.46 32 56 L34 54 z"/>
<path style="fill:#4d4d4d" d="M27 55 L27 59 C25.45 58.81 25.45 55.19 27 55 z"/>
<path style="fill:#656666" d="M16 58 C14.82 58.15 14.98 56.66 15 56 C16.18 55.85 16.02 57.34 16 58 z"/>
<path style="fill:#4b4c4c" d="M32 58 L32 66 C30.35 64.66 30.35 59.34 32 58 z"/>
<path style="fill:#727373" d="M70 59 C70.02 59.66 70.18 61.15 69 61 C68.98 60.34 68.82 58.85 70 59 z"/>
<path style="fill:#797979" d="M28 63 C26.82 63.15 26.98 61.66 27 61 C28.18 60.85 28.02 62.34 28 63 z"/>
<path style="fill:#5b5b5b" d="M19 64 L18 63 L19 64 z"/>
<path style="fill:#696969" d="M20 66 C18.82 66.15 18.98 64.66 19 64 C20.18 63.85 20.02 65.34 20 66 z"/>
<path style="fill:#707070" d="M67 65 L66 66 L67 65 z"/>
<path style="fill:#737373" d="M21 67 L20 66 L21 67 z"/>
<path style="fill:#797979" d="M30 67 L29 66 L30 67 z"/>
<path style="fill:#6a6a6a" d="M66 66 L65 67 L66 66 z"/>
<path style="fill:#5e5e5e" d="M22 68 L21 67 L22 68 z"/>
<path style="fill:#686868" d="M23 69 L22 68 L23 69 z"/>
<path style="fill:#818181" d="M24 70 L23 69 L24 70 z"/>
<path style="fill:#808181" d="M56 74 C54.22 76.05 50.79 76.77 48 77 L33 70 L33 69 C39.09 75.1 47.98 76.05 56 74 z"/>
<path style="fill:#7d7d7d" d="M25 71 L24 70 L25 71 z"/>
<path style="fill:#9f9f9f" d="M26 72 L25 71 L26 72 z"/>
<path style="fill:#676767" d="M60 71 L59 72 L60 71 z"/>
<path style="fill:#aaaaaa" d="M59 72 C59.67 74.11 57.42 74.21 56 74 L59 72 z"/>
<path style="fill:#a0a0a0" d="M29 74 L28 73 L29 74 z"/>
<path style="fill:#979797" d="M31 75 L30 74 L31 75 z"/>
<path style="fill:#919191" d="M33 76 L32 75 L33 76 z"/>
<path style="fill:#7b7c7c" d="M37 77 C36.34 77.02 34.85 77.18 35 76 C35.66 75.98 37.15 75.82 37 77 z"/>
<path style="fill:#a0a1a1" d="M48 77 C46.66 78.65 41.34 78.65 40 77 L48 77 z"/>
</svg>
