<svg xmlns="http://www.w3.org/2000/svg" xmlns:xlink="http://www.w3.org/1999/xlink" viewBox="0 0 600 302"><defs><radialGradient id="M" cx="304.19" xlink:href="#a" gradientUnits="userSpaceOnUse" cy="238.98" r="11.024" gradientTransform="matrix(1 0 0 1.6446 0 -154.04)"/><radialGradient id="x" xlink:href="#a" gradientUnits="userSpaceOnUse" cy="156.84" cx="865.21" gradientTransform="matrix(1 0 0 1.4107 -4 -60.416)" r="13.476"/><radialGradient id="R" cx="250.82" xlink:href="#a" gradientUnits="userSpaceOnUse" cy="690.27" r="18.96" gradientTransform="matrix(1 0 0 .50192 0 347.81)"/><radialGradient id="S" cx="335.56" xlink:href="#a" gradientUnits="userSpaceOnUse" cy="726.16" r="18.96" gradientTransform="matrix(1 0 0 .50192 0 365.69)"/><radialGradient id="T" cx="367.93" xlink:href="#a" gradientUnits="userSpaceOnUse" cy="706.04" r="18.96" gradientTransform="matrix(1 0 0 .50192 0 355.66)"/><radialGradient id="G" xlink:href="#a" gradientUnits="userSpaceOnUse" cy="223.36" cx="117.51" gradientTransform="matrix(1 0 0 1.1334 4 -23.802)" r="15.65"/><radialGradient id="F" xlink:href="#a" gradientUnits="userSpaceOnUse" cy="136.17" cx="134.07" gradientTransform="matrix(1 0 0 1.1334 4 -12.169)" r="15.65"/><radialGradient id="E" xlink:href="#a" gradientUnits="userSpaceOnUse" cy="179.77" cx="125.17" gradientTransform="matrix(1 0 0 1.1334 4 -17.985)" r="15.65"/><radialGradient id="J" xlink:href="#a" gradientUnits="userSpaceOnUse" cy="253.53" cx="182.2" gradientTransform="matrix(1 0 0 1.1334 4 -27.827)" r="15.65"/><radialGradient id="I" xlink:href="#a" gradientUnits="userSpaceOnUse" cy="166.34" cx="198.76" gradientTransform="matrix(1 0 0 1.1334 4 -16.194)" r="15.65"/><radialGradient id="H" xlink:href="#a" gradientUnits="userSpaceOnUse" cy="209.93" cx="189.87" gradientTransform="matrix(1 0 0 1.1334 4 -22.01)" r="15.65"/><radialGradient id="K" cx="283.46" xlink:href="#a" gradientUnits="userSpaceOnUse" cy="169.84" r="11.024" gradientTransform="matrix(1 0 0 1.6446 0 -109.48)"/><radialGradient id="L" cx="320.03" xlink:href="#a" gradientUnits="userSpaceOnUse" cy="148.32" r="11.024" gradientTransform="matrix(1 0 0 1.6446 0 -95.608)"/><radialGradient id="Q" cx="288.74" xlink:href="#a" gradientUnits="userSpaceOnUse" cy="671.23" r="18.96" gradientTransform="matrix(1 0 0 .50192 0 338.33)"/><radialGradient id="N" cx="269.72" xlink:href="#a" gradientUnits="userSpaceOnUse" cy="255.25" r="11.024" gradientTransform="matrix(1 0 0 1.6446 0 -164.53)"/><radialGradient id="O" cx="294.87" xlink:href="#a" gradientUnits="userSpaceOnUse" cy="201.78" r="11.024" gradientTransform="matrix(1 0 0 1.6446 0 -130.07)"/><radialGradient id="w" xlink:href="#a" gradientUnits="userSpaceOnUse" cy="63.923" cx="888.89" gradientTransform="matrix(1 0 0 1.4107 -4 -22.254)" r="13.476"/><radialGradient id="v" xlink:href="#a" gradientUnits="userSpaceOnUse" cy="96.634" cx="410.34" gradientTransform="matrix(1 0 0 1.2831 0 -23.354)" r="12.751"/><radialGradient id="n" xlink:href="#a" gradientUnits="userSpaceOnUse" cy="166.34" cx="198.76" gradientTransform="matrix(.23691 0 0 .26852 217.81 210.55)" r="15.65"/><radialGradient id="o" xlink:href="#a" gradientUnits="userSpaceOnUse" cy="166.34" cx="198.76" gradientTransform="matrix(.23691 0 0 .26852 269.32 197.41)" r="15.65"/><radialGradient id="p" xlink:href="#a" gradientUnits="userSpaceOnUse" cy="166.34" cx="198.76" gradientTransform="matrix(.23691 0 0 .26852 326.4 184.28)" r="15.65"/><radialGradient id="q" xlink:href="#a" gradientUnits="userSpaceOnUse" cy="52.591" cx="451.86" gradientTransform="matrix(1 0 0 1.2831 0 -10.887)" r="12.751"/><radialGradient id="r" xlink:href="#a" gradientUnits="userSpaceOnUse" cy="52.591" cx="400.34" gradientTransform="matrix(1 0 0 1.2831 0 -10.887)" r="12.751"/><radialGradient id="s" xlink:href="#a" gradientUnits="userSpaceOnUse" cy="145.02" cx="422.34" gradientTransform="matrix(1 0 0 1.2831 0 -37.05)" r="12.751"/><radialGradient id="t" xlink:href="#a" gradientUnits="userSpaceOnUse" cy="145.02" cx="473.86" gradientTransform="matrix(1 0 0 1.2831 0 -37.05)" r="12.751"/><radialGradient id="u" xlink:href="#a" gradientUnits="userSpaceOnUse" cy="96.634" cx="461.86" gradientTransform="matrix(1 0 0 1.2831 0 -23.354)" r="12.751"/><linearGradient id="z" x1="-.691" xlink:href="#b" gradientUnits="userSpaceOnUse" y1=".004" gradientTransform="translate(.765 -4.26)" x2="253.14" y2="112.13"/><linearGradient id="d" x1="641.27" xlink:href="#b" gradientUnits="userSpaceOnUse" x2="527.19" y1="326.3" y2="124.08"/><linearGradient id="e" x1="470.03" xlink:href="#b" gradientUnits="userSpaceOnUse" x2="507.69" y1="233.51" y2="233.51"/><linearGradient id="f" x1="762.4" xlink:href="#b" gradientUnits="userSpaceOnUse" x2="591.68" y1="254.86" y2="83.551"/><linearGradient id="g" x1="542.59" xlink:href="#b" gradientUnits="userSpaceOnUse" x2="591.68" y1="140.51" y2="83.551"/><linearGradient id="h" x1="855.97" xlink:href="#b" gradientUnits="userSpaceOnUse" y1="367" gradientTransform="matrix(1.01 0 0 1.01 -6.837 -1.74)" x2="584.35" y2="97.817"/><linearGradient id="i" x1="507.18" xlink:href="#b" gradientUnits="userSpaceOnUse" x2="521.06" y1="319.16" y2="319.16"/><linearGradient id="j" x1="551.98" xlink:href="#b" gradientUnits="userSpaceOnUse" x2="591.68" y1="444.46" y2="83.551"/><linearGradient id="k" x1="755.59" xlink:href="#b" gradientUnits="userSpaceOnUse" x2="470.03" y1="273.76" y2="150.35"/><linearGradient id="l" x1="685.73" xlink:href="#b" gradientUnits="userSpaceOnUse" x2="615.25" y1="144.17" y2="68.207"/><linearGradient id="m" x1="622.85" xlink:href="#b" gradientUnits="userSpaceOnUse" y1="174.33" gradientTransform="matrix(1.01 0 0 1.01 -5.458 -2.05)" x2="648.54" y2="119.3"/><linearGradient id="a"><stop stop-color="#fff" offset="0"/><stop stop-color="#494949" offset=".258"/><stop offset=".726"/><stop offset="1"/></linearGradient><linearGradient id="V" x1="343.84" xlink:href="#b" gradientUnits="userSpaceOnUse" y1="108.51" gradientTransform="matrix(1 0 0 -1 -4.568 293.98)" x2="257.56" y2="172.82"/><linearGradient id="U" x1="219.64" xlink:href="#b" gradientUnits="userSpaceOnUse" y1="309.59" gradientTransform="translate(.765 -4.26)" x2="223.34" y2="153.06"/><linearGradient id="P" x1="205.82" xlink:href="#b" gradientUnits="userSpaceOnUse" y1="17.378" gradientTransform="translate(.765 -4.26)" x2="262.49" y2="145.21"/><linearGradient id="D" x1="86.251" xlink:href="#b" gradientUnits="userSpaceOnUse" y1="157.07" gradientTransform="translate(.765 -4.26)" x2="252.64" y2="135.82"/><linearGradient id="C" x1="327.26" xlink:href="#b" gradientUnits="userSpaceOnUse" y1="248.97" gradientTransform="translate(.765 -4.26)" x2="98.209" y2="77.992"/><linearGradient id="b"><stop stop-color="#9d9d9d" offset="0"/><stop stop-color="#e9e9e9" offset=".5"/><stop stop-color="#fff" offset="1"/></linearGradient><linearGradient id="A" x1="475.38" xlink:href="#b" gradientUnits="userSpaceOnUse" y1="56.419" gradientTransform="translate(.765 -4.26)" x2="241.98" y2="153.56"/><linearGradient id="B" x1="74.293" xlink:href="#b" gradientUnits="userSpaceOnUse" y1="236.15" gradientTransform="translate(.765 -4.26)" x2="345.46" y2="82.491"/><filter id="c" color-interpolation-filters="sRGB"><feGaussianBlur stdDeviation="2.215"/></filter><filter id="y" color-interpolation-filters="sRGB"><feGaussianBlur stdDeviation="2.215"/></filter></defs><g color="#000"><path opacity=".1" d="M340.49 164.78l-100.24 22.464-3.517 6.107 1.77 1.978 80.45 69.143 15.953 4.116h120.22l100.24-22.464 3.518-6.107-1.771-1.978-80.48-69.143-15.923-4.116H340.49z" transform="matrix(.91107 0 0 1.0214 6.736 -17.629)" filter="url(#c)"/><path fill="url(#d)" d="M641.27 326.3l114.32-52.533H635.38L521.06 326.3z" transform="translate(-167.634 -75.975) scale(.91107)"/><path fill="url(#e)" d="M470.55 154.98l37.146 161.68-.52-4.635-37.145-161.68z" transform="translate(-167.634 -75.975) scale(.91107)"/><path fill="url(#f)" d="M711.89 83.551H591.68l13.365 9.63h120.21z" transform="translate(-167.634 -75.975) scale(.91107)"/><path fill="url(#g)" d="M470.03 150.35l114.32-52.533 7.33-14.266-114.32 52.529z" transform="translate(-167.634 -75.975) scale(.91107)"/><path fill="#b3b3b3" d="M527.44 160.447l-.473-4.223-6.204 17.22z"/><path fill="url(#h)" d="M762.4 254.86L725.26 93.18l-121-.807 37.52 163.3z" transform="translate(-167.634 -75.975) scale(.91107)"/><path fill="url(#i)" d="M507.18 312.03l.52 4.635 13.364 9.63z" transform="translate(-167.634 -75.975) scale(.91107)"/><path fill="url(#j)" d="M584.35 97.817l20.694-4.635-13.365-9.63z" transform="translate(-167.634 -75.975) scale(.91107)"/><path fill="url(#k)" d="M635.38 273.76h120.21l6.81-18.901H642.19z" transform="translate(-167.634 -75.975) scale(.91107)"/><path fill="url(#l)" d="M642.19 254.86L605.044 93.18l-20.694 4.635 37.146 161.68z" transform="translate(-167.634 -75.975) scale(.91107)"/><path fill="#b3b3b3" d="M417.446 156.22l-18.853 4.223 12.649 12.997z"/><path fill="url(#m)" d="M622.26 260.04L584.74 96.75 469.27 149.8l37.518 163.3z" transform="translate(-167.634 -75.975) scale(.91107)"/><path fill="#b3b3b3" d="M398.596 160.447L294.443 208.31l12.649 12.997 104.154-47.861z"/><g stroke="#b3b3b3" stroke-width=".237"><path fill="url(#n)" d="M325.26 235.77c-7.315 3.361-7.01 6.086.682 6.086s19.856-2.725 27.17-6.086 7.01-6.086-.682-6.086-19.856 2.725-27.17 6.086" transform="translate(57.967 -5.47) scale(.91107)"/><path fill="url(#o)" d="M376.78 222.64c-7.315 3.361-7.01 6.086.682 6.086s19.856-2.725 27.17-6.086 7.01-6.086-.682-6.086-19.856 2.725-27.17 6.086" transform="translate(57.967 -5.47) scale(.91107)"/><path fill="url(#p)" d="M433.85 209.51c-7.315 3.361-7.01 6.086.682 6.086s19.856-2.725 27.17-6.086 7.01-6.086-.682-6.086-19.856 2.725-27.17 6.086" transform="translate(57.967 -5.47) scale(.91107)"/></g><g stroke="#b3b3b3" stroke-width=".146"><path fill="url(#q)" d="M439.75 52.591c2.067 8.995 9.163 16.287 15.851 16.287 6.688 0 10.434-7.292 8.367-16.287-2.066-8.995-9.163-16.287-15.85-16.287-6.688 0-10.435 7.292-8.368 16.287" transform="translate(57.056 -7.449) scale(.91107)"/><path fill="url(#r)" d="M388.23 52.591c2.067 8.995 9.163 16.287 15.851 16.287 6.688 0 10.434-7.292 8.367-16.287-2.066-8.995-9.163-16.287-15.85-16.287-6.688 0-10.435 7.292-8.368 16.287" transform="translate(57.056 -7.449) scale(.91107)"/><path fill="url(#s)" d="M410.23 145.02c2.067 8.995 9.163 16.287 15.851 16.287 6.688 0 10.434-7.292 8.367-16.287-2.066-8.995-9.163-16.287-15.85-16.287-6.688 0-10.435 7.292-8.368 16.287" transform="translate(57.056 -7.449) scale(.91107)"/><path fill="url(#t)" d="M461.75 145.02c2.067 8.995 9.163 16.287 15.851 16.287 6.688 0 10.434-7.292 8.367-16.287-2.066-8.995-9.163-16.287-15.85-16.287-6.688 0-10.435 7.292-8.368 16.287" transform="translate(57.056 -7.449) scale(.91107)"/><path fill="url(#u)" d="M449.75 96.634c2.067 8.995 9.163 16.287 15.851 16.287 6.688 0 10.434-7.292 8.367-16.287-2.066-8.995-9.163-16.287-15.85-16.287-6.688 0-10.435 7.292-8.368 16.287" transform="translate(57.056 -7.449) scale(.91107)"/><path fill="url(#v)" d="M398.23 96.634c2.067 8.995 9.163 16.287 15.851 16.287 6.688 0 10.434-7.292 8.367-16.287-2.066-8.995-9.163-16.287-15.85-16.287-6.688 0-10.435 7.292-8.368 16.287" transform="translate(57.056 -7.449) scale(.91107)"/></g></g><g stroke="#b3b3b3" stroke-width=".228" color="#000"><path fill="url(#w)" d="M901.59 69.761c-2.28 9.923-9.816 15.353-16.832 12.129s-10.856-13.882-8.577-23.805c2.28-9.923 9.816-15.353 16.832-12.129 7.017 3.224 10.856 13.882 8.577 23.805" transform="matrix(-.91107 0 0 .91107 1158.608 .395)"/><path fill="url(#x)" d="M877.92 162.68c-2.28 9.923-9.816 15.353-16.832 12.129s-10.856-13.882-8.577-23.805c2.28-9.923 9.816-15.353 16.832-12.129 7.017 3.224 10.856 13.882 8.577 23.805" transform="matrix(-.91107 0 0 .91107 1158.608 .395)"/></g><g><path opacity=".1" filter="url(#y)" d="M55.726 159.02l-10.13 3.616-59.821 26.489 47.24 73.336 9.034 5.198 9.446 4.128 162.21 32.339 10.13-3.616 59.821-26.489-47.24-73.336-9.034-5.198-9.446-4.128-162.21-32.339z" transform="translate(19.541 -7.443)"/><path stroke="#ccc" fill="url(#z)" d="M113.77 66.445l139.64 65.115-10.67 17.74L103.1 84.183z" transform="translate(19.541 -7.443)"/><path fill="#fff" d="M167.141 97.487l95.143 44.366 20.511 1.04z"/><path stroke="#ececec" fill="url(#A)" d="M356.07 97.01l-92.816 53.327-9.846-18.778 92.816-53.327z" transform="translate(19.541 -7.443)"/><path stroke="#f2f2f2" fill="#e6e6e6" d="M234.231 289.557l28.047-147.7 20.511 1.04-28.047 147.7z"/><path d="M226.131 5.675l-92.816 53.327-14.796 7.287 92.816-53.327z" fill="#e6e6e6"/><path d="M75.057 231.89L103.1 84.18l139.64 65.12L214.69 297z" fill="url(#B)" transform="translate(19.541 -7.443)"/><path d="M375.611 89.567l-9.846-18.778 5.715 8.327z" fill="#dbdbdb"/><path d="M239.951 297.887l-139.64-65.114-5.715-8.328 139.64 65.114z" fill="#999"/><path d="M235.2 298.04l28.05-147.7 92.82-53.33-28.05 147.7z" fill="url(#C)" transform="translate(19.541 -7.443)"/><path d="M234.231 289.557l20.511 1.04-14.796 7.287z" fill="#b3b3b3"/><path d="M113.77 66.445l-10.664 17.738-4.131-10.451z" fill="url(#D)" transform="translate(19.541 -7.443)"/><g stroke="#b3b3b3" color="#000"><path fill="url(#E)" d="M140.52 186.92c-1.702 8.962-9.95 13.024-18.422 9.073-8.472-3.95-13.961-14.418-12.259-23.38 1.702-8.961 9.95-13.024 18.422-9.073 8.472 3.95 13.961 14.418 12.259 23.38" transform="translate(20.306 -11.703)"/><path fill="url(#F)" d="M149.41 143.33c-1.702 8.962-9.95 13.024-18.422 9.073-8.472-3.95-13.961-14.418-12.259-23.38 1.702-8.961 9.95-13.024 18.422-9.073 8.472 3.95 13.961 14.418 12.259 23.38" transform="translate(20.306 -11.703)"/><path fill="url(#G)" d="M132.85 230.52c-1.702 8.962-9.95 13.024-18.422 9.073-8.472-3.95-13.961-14.418-12.259-23.38 1.702-8.961 9.95-13.024 18.422-9.073 8.472 3.95 13.961 14.418 12.259 23.38" transform="translate(20.306 -11.703)"/><path fill="url(#H)" d="M205.21 217.09c-1.702 8.962-9.95 13.024-18.422 9.073-8.472-3.95-13.961-14.418-12.259-23.38 1.702-8.961 9.95-13.024 18.422-9.073 8.472 3.95 13.961 14.418 12.259 23.38" transform="translate(20.306 -11.703)"/><path fill="url(#I)" d="M214.1 173.49c-1.702 8.962-9.95 13.024-18.422 9.073-8.472-3.95-13.961-14.418-12.259-23.38 1.702-8.961 9.95-13.024 18.422-9.073 8.472 3.95 13.961 14.418 12.259 23.38" transform="translate(20.306 -11.703)"/><path fill="url(#J)" d="M197.54 260.68c-1.702 8.962-9.95 13.024-18.422 9.073-8.472-3.95-13.961-14.418-12.259-23.38 1.702-8.961 9.95-13.024 18.422-9.073 8.472 3.95 13.961 14.418 12.259 23.38" transform="translate(20.306 -11.703)"/></g><g stroke="gray" color="#000"><path fill="url(#K)" d="M292.22 162.3c1.317-9.53-2.432-14.775-8.374-11.715-5.943 3.06-11.828 13.268-13.146 22.798-1.318 9.53 2.431 14.775 8.374 11.715 5.943-3.06 11.828-13.268 13.146-22.798" transform="translate(22.306 -9.703)"/><path fill="url(#L)" d="M328.79 140.78c1.317-9.53-2.432-14.775-8.374-11.715-5.943 3.06-11.828 13.268-13.146 22.798-1.318 9.53 2.431 14.775 8.374 11.715 5.943-3.06 11.828-13.268 13.146-22.798" transform="translate(22.306 -9.703)"/><path fill="url(#M)" d="M312.95 231.44c1.317-9.53-2.432-14.775-8.374-11.715-5.943 3.06-11.829 13.268-13.147 22.798-1.317 9.53 2.432 14.775 8.375 11.715 5.943-3.06 11.828-13.268 13.146-22.798" transform="translate(22.306 -9.703)"/><path fill="url(#N)" d="M278.48 247.7c1.317-9.53-2.432-14.775-8.374-11.715-5.943 3.06-11.828 13.268-13.145 22.798-1.318 9.53 2.431 14.775 8.374 11.715 5.943-3.06 11.828-13.268 13.146-22.798" transform="translate(22.306 -9.703)"/><path fill="url(#O)" d="M303.63 194.24c1.317-9.53-2.432-14.775-8.374-11.715-5.943 3.06-11.828 13.268-13.146 22.798-1.318 9.53 2.431 14.775 8.374 11.715 5.943-3.06 11.828-13.268 13.145-22.798" transform="translate(22.306 -9.703)"/></g><path stroke-linejoin="round" d="M90.467 213.997l28.047-147.71 4.127 10.453-28.043 147.71z" stroke="#b3b3b3" stroke-linecap="round" stroke-width=".5" fill="#b3b3b3"/><path stroke-linejoin="round" d="M263.25 150.34l-20.511-1.04 10.664-17.738z" stroke="#fff" stroke-linecap="round" fill="url(#P)" transform="translate(19.541 -7.443)"/><path stroke-linejoin="round" d="M226.131 5.675l139.63 65.114-92.81 53.328-139.64-65.115z" stroke="#f2f2f2" stroke-linecap="round" fill="#f9f9f9"/><g color="#000" stroke="#999"><path fill="url(#Q)" d="M278.24 677.26c-8.72-4.066-11.09-10.062-5.294-13.392s17.563-2.733 26.283 1.333c8.72 4.066 11.09 10.062 5.294 13.392s-17.563 2.733-26.283-1.333" transform="translate(-59.838 -633.805)"/><path fill="url(#R)" d="M240.32 696.3c-8.72-4.066-11.09-10.062-5.294-13.392s17.563-2.733 26.283 1.333c8.72 4.066 11.09 10.062 5.294 13.392s-17.563 2.733-26.283-1.333" transform="translate(-59.838 -633.805)"/><path fill="url(#S)" d="M325.06 732.19c-8.72-4.066-11.09-10.062-5.294-13.392s17.563-2.733 26.283 1.333c8.72 4.066 11.09 10.062 5.294 13.392s-17.563 2.733-26.283-1.333" transform="translate(-59.838 -633.805)"/><path fill="url(#T)" d="M357.44 712.07c-8.72-4.066-11.09-10.062-5.294-13.392s17.563-2.733 26.283 1.333c8.72 4.066 11.09 10.062 5.294 13.392s-17.563 2.733-26.283-1.333" transform="translate(-59.838 -633.805)"/></g><path stroke="url(#U)" fill="url(#V)" d="M263.25 150.34l-20.511-1.04L214.692 297l20.511 1.04z" transform="translate(19.541 -7.443)"/><g stroke="gray" color="#000"><path fill="url(#K)" d="M292.22 162.3c1.317-9.53-2.432-14.775-8.374-11.715-5.943 3.06-11.828 13.268-13.146 22.798-1.318 9.53 2.431 14.775 8.374 11.715 5.943-3.06 11.828-13.268 13.146-22.798" transform="translate(22.306 -9.703)"/><path fill="url(#L)" d="M328.79 140.78c1.317-9.53-2.432-14.775-8.374-11.715-5.943 3.06-11.828 13.268-13.146 22.798-1.318 9.53 2.431 14.775 8.374 11.715 5.943-3.06 11.828-13.268 13.146-22.798" transform="translate(22.306 -9.703)"/><path fill="url(#M)" d="M312.95 231.44c1.317-9.53-2.432-14.775-8.374-11.715-5.943 3.06-11.829 13.268-13.147 22.798-1.317 9.53 2.432 14.775 8.375 11.715 5.943-3.06 11.828-13.268 13.146-22.798" transform="translate(22.306 -9.703)"/><path fill="url(#N)" d="M278.48 247.7c1.317-9.53-2.432-14.775-8.374-11.715-5.943 3.06-11.828 13.268-13.145 22.798-1.318 9.53 2.431 14.775 8.374 11.715 5.943-3.06 11.828-13.268 13.146-22.798" transform="translate(22.306 -9.703)"/><path fill="url(#O)" d="M303.63 194.24c1.317-9.53-2.432-14.775-8.374-11.715-5.943 3.06-11.828 13.268-13.146 22.798-1.318 9.53 2.431 14.775 8.374 11.715 5.943-3.06 11.828-13.268 13.145-22.798" transform="translate(22.306 -9.703)"/></g></g></svg>