<?xml version="1.0" encoding="UTF-8" standalone="no"?>
<!-- Created with Inkscape (http://www.inkscape.org/) -->
<svg
   xmlns:svg="http://www.w3.org/2000/svg"
   xmlns="http://www.w3.org/2000/svg"
   version="1.0"
   width="248.03149"
   height="248.03149"
   id="svg2780">
  <defs
     id="defs2782" />
  <g
     transform="translate(0,-804.33069)"
     id="layer1">
    <rect
       width="248.03149"
       height="248.03149"
       x="0"
       y="804.33069"
       style="opacity:1;color:#000000;fill:#ffffff;fill-opacity:1;fill-rule:evenodd;stroke:none;stroke-width:1.00000012px;stroke-linecap:butt;stroke-linejoin:miter;marker:none;marker-start:none;marker-mid:none;marker-end:none;stroke-miterlimit:4;stroke-dasharray:none;stroke-dashoffset:0;stroke-opacity:1;visibility:visible;display:inline;overflow:visible;enable-background:accumulate"
       id="rect3133" />
    <path
       d="M 124.01575,977.10749 C 111.55932,971.31007 110.30252,963.54782 106.8218,956.17572 C 108.48305,956.42491 110.40861,956.8503 112.06986,957.09949 C 107.27453,950.51021 107.46035,945.2494 108.87317,940.78395 C 109.86992,941.03314 112.18819,941.98713 113.18494,942.23632 C 112.15001,937.68591 112.87351,932.35958 113.03638,928.33969 C 113.95007,928.50581 114.95186,929.02434 115.86555,929.19046 C 115.83875,924.38088 115.21153,919.25591 114.6926,915.1025 C 115.60629,915.18556 117.31288,915.35673 118.22657,915.43979 C 118.76877,911.03747 118.12995,907.25187 118.03525,902.84955 C 118.86588,902.84955 119.6965,902.84955 120.52713,902.84955 C 120.1128,897.86481 118.75097,893.03467 117.68285,888.70372 C 118.6259,888.68947 119.56895,888.67522 120.51201,888.66096 C 120.60194,883.50166 118.95419,878.62406 117.28769,873.94378 C 118.78281,873.77765 119.74933,873.87583 121.24445,873.7097 C 119.65702,869.79885 116.9012,866.07285 114.03313,862.64223 C 115.86051,862.55917 117.95218,862.5642 119.77956,862.48114 C 116.8192,857.75988 113.78267,853.74497 110.32554,850.18284 C 111.82067,849.94153 113.40389,849.79527 114.89902,848.73306 C 109.51638,845.49332 103.30596,841.9686 96.474887,838.94146 L 82.128047,840.25831 C 80.415387,834.95158 79.461447,829.68503 75.957787,825.62871 C 73.375097,829.97911 70.332927,837.08486 67.695487,849.39946 L 80.626857,892.73607 C 80.629897,906.16198 60.281567,908.57525 51.033987,934.51151 C 45.382987,940.22497 40.916667,944.69929 46.767557,965.39567 C 52.634917,986.1503 79.160257,999.80856 70.732337,1021.0677 C 90.992947,1013.3823 109.02063,1018.8713 124.01575,1038.4077 C 139.01087,1018.8713 157.03855,1013.3823 177.29916,1021.0677 C 168.87124,999.80856 195.39658,986.1503 201.26394,965.39567 C 207.11483,944.69929 202.64851,940.22497 196.99751,934.51151 C 187.74993,908.57525 167.4016,906.16198 167.40464,892.73607 L 180.33601,849.39946 C 177.69857,837.08486 174.6564,829.97911 172.07371,825.62871 C 168.57005,829.68503 167.61611,834.95158 165.90345,840.25831 L 151.55661,838.94146 C 144.72554,841.9686 138.51512,845.49332 133.13248,848.73306 C 134.62761,849.79527 136.21083,849.94153 137.70596,850.18284 C 134.24883,853.74497 131.2123,857.75988 128.25194,862.48114 C 130.07932,862.5642 132.17099,862.55917 133.99837,862.64223 C 131.1303,866.07285 128.37448,869.79885 126.78705,873.7097 C 128.28217,873.87583 129.24869,873.77765 130.74381,873.94378 C 129.07731,878.62406 127.42956,883.50166 127.51949,888.66096 C 128.46255,888.67522 129.4056,888.68947 130.34865,888.70372 C 129.28053,893.03467 127.9187,897.86481 127.50437,902.84955 C 128.335,902.84955 129.16562,902.84955 129.99625,902.84955 C 129.90155,907.25187 129.26273,911.03747 129.80493,915.43979 C 130.71862,915.35673 132.42521,915.18556 133.3389,915.1025 C 132.81997,919.25591 132.19275,924.38088 132.16595,929.19046 C 133.07964,929.02434 134.08143,928.50581 134.99512,928.33969 C 135.15799,932.35958 135.88149,937.68591 134.84656,942.23632 C 135.84331,941.98713 138.16158,941.03314 139.15833,940.78395 C 140.57115,945.2494 140.75697,950.51021 135.96164,957.09949 C 137.62289,956.8503 139.54845,956.42491 141.2097,956.17572 C 137.72898,963.54782 136.47218,971.31007 124.01575,977.10749 z "
       style="fill:#000000;fill-opacity:1;fill-rule:evenodd;stroke:none;stroke-width:1px;stroke-linecap:butt;stroke-linejoin:miter;stroke-opacity:0.52983728"
       id="path3249" />
    <path
       d="M 166.93833,892.44597 C 180.71105,896.49733 174.90378,908.29337 185.37822,907.8956 C 195.91496,907.49783 191.67021,905.05071 191.29643,904.09549 C 190.92265,903.14027 187.82857,901.7282 187.62091,900.98064 C 187.41326,900.23308 187.55319,899.79361 188.99144,900.23308 C 190.48657,900.68992 194.98811,904.12673 196.03099,905.40373 C 197.04851,906.64967 198.14909,907.79177 200.26719,904.84305 C 202.35588,901.93527 208.12615,897.00629 200.02243,886.95758 C 191.95353,876.95205 194.29039,873.82274 189.09306,862.63235 C 183.94329,851.54435 186.72203,844.34618 175.22382,840.80181 C 171.57435,839.67684 170.27795,838.65748 165.47452,838.31024 C 167.66705,843.93767 167.77449,845.08213 168.12045,846.81507 C 167.7616,845.11207 167.68359,843.89734 165.47452,838.31024 C 163.25334,832.6925 153.45564,826.94196 145.95953,824.21749 C 147.27011,826.03376 148.92735,827.76336 148.9831,829.89333 C 147.92789,829.69841 146.38316,829.53891 145.65308,830.64452 C 146.94867,831.97752 148.44632,833.23305 149.17207,834.45062 C 148.30576,834.62191 147.64205,834.38803 146.47904,835.15273 C 148.28243,838.3267 149.83872,840.07549 152.23626,841.98545 C 151.21393,842.60513 150.42784,842.53712 149.55749,843.91666 C 152.41902,845.08574 154.96066,846.73461 157.15771,848.90041 C 137.97026,872.24099 153.19886,888.40438 166.93833,892.44597 z "
       style="fill:#000000;fill-opacity:1;fill-rule:evenodd;stroke:#ffffff;stroke-width:0.99921262;stroke-linecap:round;stroke-linejoin:round;stroke-miterlimit:4;stroke-dasharray:none;stroke-opacity:1"
       id="path3247" />
    <path
       d="M 159.36825,846.64597 C 166.15204,847.26268 161.04217,840.91939 157.25382,836.60244"
       style="color:#000000;fill:none;fill-opacity:0.75;fill-rule:evenodd;stroke:#ffffff;stroke-width:0.99921262;stroke-linecap:round;stroke-linejoin:miter;marker:none;marker-start:none;marker-mid:none;marker-end:none;stroke-miterlimit:4;stroke-dasharray:none;stroke-dashoffset:0;stroke-opacity:1;visibility:visible;display:inline;overflow:visible;enable-background:accumulate"
       id="path4223" />
    <path
       d="M 170.5571,846.73407 L 175.13836,853.42976 L 175.22646,846.64597"
       style="color:#000000;fill:none;fill-opacity:0.75;fill-rule:evenodd;stroke:#ffffff;stroke-width:0.99921262;stroke-linecap:round;stroke-linejoin:miter;marker:none;marker-start:none;marker-mid:none;marker-end:none;stroke-miterlimit:4;stroke-dasharray:none;stroke-dashoffset:0;stroke-opacity:1;visibility:visible;display:inline;overflow:visible;enable-background:accumulate"
       id="path4225" />
    <path
       d="M 174.78596,869.99278 C 178.97076,873.20847 181.30544,867.61405 178.0457,865.41152 C 174.72521,863.16795 170.55823,866.7441 174.78596,869.99278 z "
       style="color:#000000;fill:none;fill-opacity:0.75;fill-rule:evenodd;stroke:#ffffff;stroke-width:0.99921262;stroke-linecap:round;stroke-linejoin:miter;marker:none;marker-start:none;marker-mid:none;marker-end:none;stroke-miterlimit:4;stroke-dasharray:none;stroke-dashoffset:0;stroke-opacity:1;visibility:visible;display:inline;overflow:visible;enable-background:accumulate"
       id="path4227" />
    <path
       d="M 172.14292,862.68038 C 183.15557,866.46873 178.31,869.72847 184.38898,867.43784"
       style="color:#000000;fill:none;fill-opacity:0.75;fill-rule:evenodd;stroke:#ffffff;stroke-width:0.99921262;stroke-linecap:round;stroke-linejoin:miter;marker:none;marker-start:none;marker-mid:none;marker-end:none;stroke-miterlimit:4;stroke-dasharray:none;stroke-dashoffset:0;stroke-opacity:1;visibility:visible;display:inline;overflow:visible;enable-background:accumulate"
       id="path4229" />
    <path
       d="M 176.54798,868.31885 C 178.1338,868.14265 178.5743,866.99734 179.01481,866.20443"
       style="color:#000000;fill:none;fill-opacity:0.75;fill-rule:evenodd;stroke:#ffffff;stroke-width:0.99921262;stroke-linecap:round;stroke-linejoin:miter;marker:none;marker-start:none;marker-mid:none;marker-end:none;stroke-miterlimit:4;stroke-dasharray:none;stroke-dashoffset:0;stroke-opacity:1;visibility:visible;display:inline;overflow:visible;enable-background:accumulate"
       id="path4231" />
    <path
       d="M 189.58695,946.28838 C 195.40163,961.44178 195.75403,960.73697 189.58695,974.12835 C 195.75403,960.73697 196.98745,953.68888 197.33985,932.897"
       style="color:#000000;fill:none;fill-opacity:0.75;fill-rule:evenodd;stroke:#ffffff;stroke-width:0.99921262;stroke-linecap:round;stroke-linejoin:miter;marker:none;marker-start:none;marker-mid:none;marker-end:none;stroke-miterlimit:4;stroke-dasharray:none;stroke-dashoffset:0;stroke-opacity:1;visibility:visible;display:inline;overflow:visible;enable-background:accumulate"
       id="path4233" />
    <path
       d="M 180.58136,857.2482 C 183.62154,855.841 186.64978,854.88122 188.11929,851.45459 L 188.11982,848.83663 L 188.11929,851.45459 C 189.1852,852.53505 191.87507,850.85061 194.53587,847.34299 L 194.77325,844.29871 L 194.53587,847.34299 C 196.47256,846.87806 200.39758,844.56869 202.1361,841.92316 L 202.11379,839.49243 L 202.1361,841.92316 C 204.64234,841.57754 207.72391,839.02567 209.17565,837.064 L 209.1417,835.19965 L 209.17565,837.064 C 211.07449,837.08538 214.1663,834.22515 215.46764,832.32943 L 215.41518,830.18056 L 215.46764,832.32943 C 216.91628,831.8672 219.72454,829.78755 220.59993,828.43508 L 220.70664,825.72651 L 220.59993,828.43508 C 224.57178,825.98938 228.86929,820.72156 228.92377,819.06018 C 227.3171,819.11983 218.62578,822.41793 215.15616,826.59811 C 212.59931,826.14764 211.34586,827.55883 210.1101,829.08999 L 210.00553,830.32238 L 210.1101,829.08999 C 207.53098,829.61879 204.24688,831.13087 203.13285,833.07699 L 202.92887,835.46744 L 203.13285,833.07699 C 200.22739,833.06851 197.44808,834.58329 196.21788,836.9394 L 196.15971,839.48876 L 196.21788,836.9394 C 193.81461,836.56343 189.96144,838.25226 188.30618,840.61492 L 188.34016,843.76759 L 188.30618,840.61492 C 183.77321,841.25807 180.28678,844.07177 178.08948,847.52988"
       style="color:#000000;fill:#000000;fill-opacity:1;fill-rule:evenodd;stroke:#ffffff;stroke-width:0.99921262;stroke-linecap:round;stroke-linejoin:round;marker:none;marker-start:none;marker-mid:none;marker-end:none;stroke-miterlimit:4;stroke-dasharray:none;stroke-dashoffset:0;stroke-opacity:1;visibility:visible;display:inline;overflow:visible;enable-background:accumulate"
       id="path4240" />
    <path
       d="M 81.093167,892.44597 C 67.320447,896.49733 73.127717,908.29337 62.653277,907.8956 C 52.116537,907.49783 56.361287,905.05071 56.735067,904.09549 C 57.108847,903.14027 60.202927,901.7282 60.410587,900.98064 C 60.618237,900.23308 60.478307,899.79361 59.040057,900.23308 C 57.544927,900.68992 53.043387,904.12673 52.000507,905.40373 C 50.982987,906.64967 49.882407,907.79177 47.764307,904.84305 C 45.675617,901.93527 39.905347,897.00629 48.009067,886.95758 C 56.077967,876.95205 53.741107,873.82274 58.938437,862.63235 C 64.088207,851.54435 61.309467,844.34618 72.807677,840.80181 C 76.457147,839.67684 77.753547,838.65748 82.556977,838.31024 C 80.364447,843.93767 80.257007,845.08213 79.911047,846.81507 C 80.269897,845.11207 80.347907,843.89734 82.556977,838.31024 C 84.778157,832.6925 94.575857,826.94196 102.07197,824.21749 C 100.76139,826.03376 99.104147,827.76336 99.048397,829.89333 C 100.10361,829.69841 101.64834,829.53891 102.37842,830.64452 C 101.08283,831.97752 99.585177,833.23305 98.859427,834.45062 C 99.725737,834.62191 100.38945,834.38803 101.55246,835.15273 C 99.749067,838.3267 98.192777,840.07549 95.795237,841.98545 C 96.817567,842.60513 97.603657,842.53712 98.474007,843.91666 C 95.612477,845.08574 93.070837,846.73461 90.873787,848.90041 C 110.06124,872.24099 94.832637,888.40438 81.093167,892.44597 z "
       style="fill:#000000;fill-opacity:1;fill-rule:evenodd;stroke:#ffffff;stroke-width:0.99921262;stroke-linecap:round;stroke-linejoin:round;stroke-miterlimit:4;stroke-dasharray:none;stroke-opacity:1"
       id="path7155" />
    <path
       d="M 88.663247,846.64597 C 81.879457,847.26268 86.989327,840.91939 90.777677,836.60244"
       style="color:#000000;fill:none;fill-opacity:0.75;fill-rule:evenodd;stroke:#ffffff;stroke-width:0.99921262;stroke-linecap:round;stroke-linejoin:miter;marker:none;marker-start:none;marker-mid:none;marker-end:none;stroke-miterlimit:4;stroke-dasharray:none;stroke-dashoffset:0;stroke-opacity:1;visibility:visible;display:inline;overflow:visible;enable-background:accumulate"
       id="path7157" />
    <path
       d="M 77.474397,846.73407 L 72.893137,853.42976 L 72.805037,846.64597"
       style="color:#000000;fill:none;fill-opacity:0.75;fill-rule:evenodd;stroke:#ffffff;stroke-width:0.99921262;stroke-linecap:round;stroke-linejoin:miter;marker:none;marker-start:none;marker-mid:none;marker-end:none;stroke-miterlimit:4;stroke-dasharray:none;stroke-dashoffset:0;stroke-opacity:1;visibility:visible;display:inline;overflow:visible;enable-background:accumulate"
       id="path7159" />
    <path
       d="M 73.245537,869.99278 C 69.060737,873.20847 66.726057,867.61405 69.985797,865.41152 C 73.306287,863.16795 77.473267,866.7441 73.245537,869.99278 z "
       style="color:#000000;fill:none;fill-opacity:0.75;fill-rule:evenodd;stroke:#ffffff;stroke-width:0.99921262;stroke-linecap:round;stroke-linejoin:miter;marker:none;marker-start:none;marker-mid:none;marker-end:none;stroke-miterlimit:4;stroke-dasharray:none;stroke-dashoffset:0;stroke-opacity:1;visibility:visible;display:inline;overflow:visible;enable-background:accumulate"
       id="path7161" />
    <path
       d="M 75.888577,862.68038 C 64.875927,866.46873 69.721497,869.72847 63.642517,867.43784"
       style="color:#000000;fill:none;fill-opacity:0.75;fill-rule:evenodd;stroke:#ffffff;stroke-width:0.99921262;stroke-linecap:round;stroke-linejoin:miter;marker:none;marker-start:none;marker-mid:none;marker-end:none;stroke-miterlimit:4;stroke-dasharray:none;stroke-dashoffset:0;stroke-opacity:1;visibility:visible;display:inline;overflow:visible;enable-background:accumulate"
       id="path7163" />
    <path
       d="M 71.483517,868.31885 C 69.897697,868.14265 69.457197,866.99734 69.016687,866.20443"
       style="color:#000000;fill:none;fill-opacity:0.75;fill-rule:evenodd;stroke:#ffffff;stroke-width:0.99921262;stroke-linecap:round;stroke-linejoin:miter;marker:none;marker-start:none;marker-mid:none;marker-end:none;stroke-miterlimit:4;stroke-dasharray:none;stroke-dashoffset:0;stroke-opacity:1;visibility:visible;display:inline;overflow:visible;enable-background:accumulate"
       id="path7165" />
    <path
       d="M 58.444547,946.28838 C 52.629867,961.44178 52.277467,960.73697 58.444547,974.12835 C 52.277467,960.73697 51.044047,953.68888 50.691647,932.897"
       style="color:#000000;fill:none;fill-opacity:0.75;fill-rule:evenodd;stroke:#ffffff;stroke-width:0.99921262;stroke-linecap:round;stroke-linejoin:miter;marker:none;marker-start:none;marker-mid:none;marker-end:none;stroke-miterlimit:4;stroke-dasharray:none;stroke-dashoffset:0;stroke-opacity:1;visibility:visible;display:inline;overflow:visible;enable-background:accumulate"
       id="path7167" />
    <path
       d="M 67.450137,857.2482 C 64.409957,855.841 61.381717,854.88122 59.912207,851.45459 L 59.911677,848.83663 L 59.912207,851.45459 C 58.846297,852.53505 56.156427,850.85061 53.495627,847.34299 L 53.258247,844.29871 L 53.495627,847.34299 C 51.558937,846.87806 47.633917,844.56869 45.895397,841.92316 L 45.917707,839.49243 L 45.895397,841.92316 C 43.389157,841.57754 40.307587,839.02567 38.855847,837.064 L 38.889797,835.19965 L 38.855847,837.064 C 36.957007,837.08538 33.865197,834.22515 32.563857,832.32943 L 32.616317,830.18056 L 32.563857,832.32943 C 31.115217,831.8672 28.306957,829.78755 27.431567,828.43508 L 27.324857,825.72651 L 27.431567,828.43508 C 23.459717,825.98938 19.162207,820.72156 19.107727,819.06018 C 20.714397,819.11983 29.405717,822.41793 32.875337,826.59811 C 35.432187,826.14764 36.685637,827.55883 37.921397,829.08999 L 38.025967,830.32238 L 37.921397,829.08999 C 40.500517,829.61879 43.784617,831.13087 44.898647,833.07699 L 45.102627,835.46744 L 44.898647,833.07699 C 47.804107,833.06851 50.583417,834.58329 51.813617,836.9394 L 51.871787,839.48876 L 51.813617,836.9394 C 54.216887,836.56343 58.070057,838.25226 59.725317,840.61492 L 59.691337,843.76759 L 59.725317,840.61492 C 64.258287,841.25807 67.744717,844.07177 69.942017,847.52988"
       style="color:#000000;fill:#000000;fill-opacity:1;fill-rule:evenodd;stroke:#ffffff;stroke-width:0.99921262;stroke-linecap:round;stroke-linejoin:round;marker:none;marker-start:none;marker-mid:none;marker-end:none;stroke-miterlimit:4;stroke-dasharray:none;stroke-dashoffset:0;stroke-opacity:1;visibility:visible;display:inline;overflow:visible;enable-background:accumulate"
       id="path7169" />
  </g>
</svg>
