<?xml version="1.0" standalone="no"?>
<!DOCTYPE svg PUBLIC "-//W3C//DTD SVG 20000802//EN" 
  "http://www.w3.org/TR/2000/CR-SVG-20000802/DTD/svg-20000802.dtd">
<svg>
    <circle id="Acamar         "    cx=" -23"   cy=" -54"  r="2" />
    <text x=" -23"   y=" -54"  >Acamar         </text>
    <circle id="Achernar       "    cx="  13"   cy=" -35"  r="2" />
    <text x="  13"   y=" -35"  >Achernar       </text>
    <circle id="Acrux          "    cx=" 110"   cy="-190"  r="2" />
    <text x=" 110"   y="-190"  >Acrux          </text>
    <circle id="Adhara         "    cx="-166"   cy="-278"  r="2" />
    <text x="-166"   y="-278"  >Adhara         </text>
    <circle id="Al Na'ir       "    cx="  55"   cy="  -9"  r="2" />
    <text x="  55"   y="  -9"  >Al Na'ir       </text>
    <circle id="Al Wazor       "    cx="-340"   cy="-546"  r="2" />
    <text x="-340"   y="-546"  >Al Wazor       </text>
    <circle id="Aldebaran      "    cx=" -43"   cy=" -28"  r="2" />
    <text x=" -43"   y=" -28"  >Aldebaran      </text>
    <circle id="Algol          "    cx=" -21"   cy=" -47"  r="2" />
    <text x=" -21"   y=" -47"  >Algol          </text>
    <circle id="Alhena         "    cx=" -53"   cy=" -55"  r="2" />
    <text x=" -53"   y=" -55"  >Alhena         </text>
    <circle id="Alioth         "    cx="  27"   cy=" -41"  r="2" />
    <text x="  27"   y=" -41"  >Alioth         </text>
    <circle id="Alkaid         "    cx=" 125"   cy="-137"  r="2" />
    <text x=" 125"   y="-137"  >Alkaid         </text>
    <circle id="Almach         "    cx=" -18"   cy="-140"  r="2" />
    <text x=" -18"   y="-140"  >Almach         </text>
    <circle id="Alnitak        "    cx="-346"   cy="-166"  r="2" />
    <text x="-346"   y="-166"  >Alnitak        </text>
    <circle id="Alpha Centauri "    cx="   3"   cy="  -3"  r="2" />
    <text x="   3"   y="  -3"  >Alpha Centauri </text>
    <circle id="Alphard        "    cx=" -84"   cy="-153"  r="2" />
    <text x=" -84"   y="-153"  >Alphard        </text>
    <circle id="Alphecca       "    cx="  59"   cy=" -18"  r="2" />
    <text x="  59"   y=" -18"  >Alphecca       </text>
    <circle id="Alpheratz      "    cx="  18"   cy="   9"  r="2" />
    <text x="  18"   y="   9"  >Alpheratz      </text>
    <circle id="Altair         "    cx="  13"   cy="   8"  r="2" />
    <text x="  13"   y="   8"  >Altair         </text>
    <circle id="Aludra         "    cx="-124"   cy="-238"  r="2" />
    <text x="-124"   y="-238"  >Aludra         </text>
    <circle id="Ankaa          "    cx="  16"   cy=" -13"  r="2" />
    <text x="  16"   y=" -13"  >Ankaa          </text>
    <circle id="Antares        "    cx=" 220"   cy=" -30"  r="2" />
    <text x=" 220"   y=" -30"  >Antares        </text>
    <circle id="Arcturus       "    cx="  25"   cy=" -15"  r="2" />
    <text x="  25"   y=" -15"  >Arcturus       </text>
    <circle id="Atria          "    cx="  99"   cy=" -77"  r="2" />
    <text x="  99"   y=" -77"  >Atria          </text>
    <circle id="Avior          "    cx="  23"   cy="-322"  r="2" />
    <text x="  23"   y="-322"  >Avior          </text>
    <circle id="Becrux         "    cx=" 268"   cy="-421"  r="2" />
    <text x=" 268"   y="-421"  >Becrux         </text>
    <circle id="Bellatrix      "    cx="-188"   cy="-101"  r="2" />
    <text x="-188"   y="-101"  >Bellatrix      </text>
    <circle id="Betelgeuse     "    cx="-243"   cy="-157"  r="2" />
    <text x="-243"   y="-157"  >Betelgeuse     </text>
    <circle id="Canopus        "    cx=" -34"   cy="-205"  r="2" />
    <text x=" -34"   y="-205"  >Canopus        </text>
    <circle id="Capella        "    cx=" -12"   cy=" -35"  r="2" />
    <text x=" -12"   y=" -35"  >Capella        </text>
    <circle id="Caph           "    cx="  16"   cy=" -17"  r="2" />
    <text x="  16"   y=" -17"  >Caph           </text>
    <circle id="Castor         "    cx=" -19"   cy=" -43"  r="2" />
    <text x=" -19"   y=" -43"  >Castor         </text>
    <circle id="Deneb          "    cx=" 510"   cy=" -38"  r="2" />
    <text x=" 510"   y=" -38"  >Deneb          </text>
    <circle id="Denebola       "    cx="   6"   cy=" -29"  r="2" />
    <text x="   6"   y=" -29"  >Denebola       </text>
    <circle id="Diphda         "    cx="  -3"   cy="   9"  r="2" />
    <text x="  -3"   y="   9"  >Diphda         </text>
    <circle id="Dubhe          "    cx="  37"   cy=" -98"  r="2" />
    <text x="  37"   y=" -98"  >Dubhe          </text>
    <circle id="El Nath        "    cx=" -70"   cy=" -87"  r="2" />
    <text x=" -70"   y=" -87"  >El Nath        </text>
    <circle id="Eltanin        "    cx=" 139"   cy=" -45"  r="2" />
    <text x=" 139"   y=" -45"  >Eltanin        </text>
    <circle id="Enif           "    cx=" 127"   cy=" 134"  r="2" />
    <text x=" 127"   y=" 134"  >Enif           </text>
    <circle id="Fomalhaut      "    cx="   9"   cy="   4"  r="2" />
    <text x="   9"   y="   4"  >Fomalhaut      </text>
    <circle id="Gienah         "    cx="  33"   cy=" -86"  r="2" />
    <text x="  33"   y=" -86"  >Gienah         </text>
    <circle id="Hadar (Agena)  "    cx=" 127"   cy="-142"  r="2" />
    <text x=" 127"   y="-142"  >Hadar (Agena)  </text>
    <circle id="Hamal          "    cx=" -21"   cy="  -9"  r="2" />
    <text x=" -21"   y="  -9"  >Hamal          </text>
    <circle id="Kaus Australis "    cx=" 158"   cy="  -1"	r="2" />
    <text x=" 158"   y="  -1"  >Kaus Australis </text>
    <circle id="Kochab         "    cx="  77"   cy=" -88"  r="2" />
    <text x="  77"   y=" -88"  >Kochab         </text>
    <circle id="Markab         "    cx="  27"   cy="  39"  r="2" />
    <text x="  27"   y="  39"  >Markab         </text>
    <circle id="Menkalinan     "    cx=" -24"   cy=" -70"  r="2" />
    <text x=" -24"   y=" -70"  >Menkalinan     </text>
    <circle id="Menkar         "    cx="-159"   cy="  -3"  r="2" />
    <text x="-159"   y="  -3"  >Menkar         </text>
    <circle id="Menkent        "    cx="  39"   cy=" -33"  r="2" />
    <text x="  39"   y=" -33"  >Menkent        </text>
    <circle id="Merak          "    cx="  23"   cy=" -72"  r="2" />
    <text x="  23"   y=" -72"  >Merak          </text>
    <circle id="Mintaka        "    cx="-524"   cy="-230"  r="2" />
    <text x="-524"   y="-230"  >Mintaka        </text>
    <circle id="Mirach         "    cx="   1"   cy=" -11"  r="2" />
    <text x="   1"   y=" -11"  >Mirach         </text>
    <circle id="Mirfak         "    cx=" -28"   cy="-157"  r="2" />
    <text x=" -28"   y="-157"  >Mirfak         </text>
    <circle id="Mizar          "    cx=" 115"   cy="-149"  r="2" />
    <text x=" 115"   y="-149"  >Mizar          </text>
    <circle id="Murzim         "    cx="-205"   cy="-207"  r="2" />
    <text x="-205"   y="-207"  >Murzim         </text>
    <circle id="Nunki          "    cx=" 154"   cy="  27"  r="2" />
    <text x=" 154"   y="  27"  >Nunki          </text>
    <circle id="Peacock        "    cx=" 124"   cy=" -41"  r="2" />
    <text x=" 124"   y=" -41"  >Peacock        </text>
    <circle id="Phecda         "    cx="  36"   cy=" -79"  r="2" />
    <text x="  36"   y=" -79"  >Phecda         </text>
    <circle id="Polaris        "    cx=" 223"   cy="-348"  r="2" />
    <text x=" 223"   y="-348"  >Polaris        </text>
    <circle id="Pollux         "    cx=" -15"   cy=" -30"  r="2" />
    <text x=" -15"   y=" -30"  >Pollux         </text>
    <circle id="Procyon        "    cx="  -8"   cy="  -7"  r="2" />
    <text x="  -8"   y="  -7"  >Procyon        </text>
    <circle id="Rasalhague     "    cx="  61"   cy="  14"  r="2" />
    <text x="  61"   y="  14"  >Rasalhague     </text>
    <circle id="Regulus        "    cx=" -19"   cy=" -62"  r="2" />
    <text x=" -19"   y=" -62"  >Regulus        </text>
    <circle id="Rigel          "    cx="-396"   cy="-219"  r="2" />
    <text x="-396"   y="-219"  >Rigel          </text>
    <circle id="Sabik          "    cx="  73"   cy="   9"  r="2" />
    <text x="  73"   y="   9"  >Sabik          </text>
    <circle id="Sadr           "    cx=" 390"   cy="  10"  r="2" />
    <text x=" 390"   y="  10"  >Sadr           </text>
    <circle id="Saiph          "    cx="-433"   cy="-291"  r="2" />
    <text x="-433"   y="-291"  >Saiph          </text>
    <circle id="Schedar        "    cx="  65"   cy=" -89"  r="2" />
    <text x="  65"   y=" -89"  >Schedar        </text>
    <circle id="Shaula         "    cx=" 198"   cy=" -29"  r="2" />
    <text x=" 198"   y=" -29"  >Shaula         </text>
    <circle id="Sirius         "    cx="  -6"   cy="  -6"  r="2" />
    <text x="  -6"   y="  -6"  >Sirius         </text>
    <circle id="Spica          "    cx="  86"   cy=" -81"  r="2" />
    <text x="  86"   y=" -81"  >Spica          </text>
    <circle id="Suhail         "    cx=" -16"   cy="-219"  r="2" />
    <text x=" -16"   y="-219"  >Suhail         </text>
    <circle id="Vega           "    cx="  26"   cy="  -1"  r="2" />
    <text x="  26"   y="  -1"  >Vega           </text>
    <circle id="Zuben'ubi      "    cx="  46"   cy=" -16"  r="2" />    
    <text x="  46"   y=" -16"  />   Zuben'ubi      </text>
</svg>