<?xml version="1.0" encoding="UTF-8" standalone="no"?>
<!-- Created with Inkscape (http://www.inkscape.org/) -->
<svg
   xmlns:svg="http://www.w3.org/2000/svg"
   xmlns="http://www.w3.org/2000/svg"
   version="1.0"
   width="248.03149"
   height="248.03149"
   id="svg2780">
  <defs
     id="defs2782" />
  <g
     transform="translate(0,-804.33069)"
     id="layer1">
    <rect
       width="248.03149"
       height="248.03149"
       x="0"
       y="804.33069"
       style="opacity:1;color:#000000;fill:#ffffff;fill-opacity:1;fill-rule:evenodd;stroke:none;stroke-width:1.00000012px;stroke-linecap:butt;stroke-linejoin:miter;marker:none;marker-start:none;marker-mid:none;marker-end:none;stroke-miterlimit:4;stroke-dasharray:none;stroke-dashoffset:0;stroke-opacity:1;visibility:visible;display:inline;overflow:visible;enable-background:accumulate"
       id="rect3133" />
    <path
       d="M 166.1173,957.78428 L 143.80886,959.73985 C 149.76718,968.41464 164.30398,980.08912 169.42221,983.19758 C 175.03132,986.60416 173.21043,987.5186 168.71005,1000.6301 C 164.184,1013.8165 158.44035,1010.0761 146.93579,1026.3919 C 141.89289,1033.5438 149.16859,1035.0329 149.88221,1032.9685 L 151.71539,1027.6655 L 149.88221,1032.9685 C 149.44134,1034.2438 149.50314,1037.2802 149.69716,1038.4993 C 165.04828,1035.1054 161.99466,1026.0847 162.37671,1022.4576 C 160.82051,1021.8946 159.5135,1020.6463 158.08189,1019.0865 C 159.5135,1020.6463 160.82051,1021.8946 162.37671,1022.4576 C 163.20072,1020.9643 164.97833,1017.6271 165.73158,1019.7629 C 166.49146,1021.9175 170.62722,1022.6587 170.60035,1017.2979 C 170.57417,1012.077 173.78871,1005.7901 176.59866,1000.3499 C 179.38982,994.94611 182.93535,990.66122 183.93126,989.86854 C 185.17039,988.88228 185.34886,985.96064 182.24848,983.98714"
       style="fill:#000000;fill-opacity:1;fill-rule:evenodd;stroke:#ffffff;stroke-width:1px;stroke-linecap:butt;stroke-linejoin:round;stroke-opacity:1"
       id="path3262" />
    <path
       d="M 159.1107,965.67064 C 154.57582,959.2981 151.946,952.27127 151.82853,945.25254 C 151.82853,945.25254 151.946,952.27127 151.82853,945.25254 C 151.946,952.27127 154.57582,959.2981 159.1107,965.67064 C 163.60386,971.98456 180.66036,984.16208 186.33396,987.60783 C 191.94307,991.01441 191.03268,994.8615 189.858,1002.6731 C 188.69424,1010.4122 171.02253,1029.2671 166.7755,1034.4777 C 162.55906,1039.6507 170.44527,1038.9402 171.03016,1038.0017 L 174.29616,1032.761 L 171.03016,1038.0017 C 170.0591,1039.5599 169.71663,1040.3822 169.91065,1043.4702 C 185.01258,1044.4994 180.21465,1035.1049 180.22292,1030.9794 C 179.33122,1030.4579 178.751,1029.8119 178.10849,1028.8543 C 178.751,1029.8119 179.33122,1030.4579 180.22292,1030.9794 C 182.79124,1027.4926 184.83247,1026.4677 185.07291,1027.4749 C 185.30958,1028.4664 188.72888,1030.893 188.25707,1025.7556 C 187.77958,1020.5565 192.01207,1015.9535 195.98091,1006.2527 C 199.95873,996.52987 201.27299,989.72981 202.92462,989.11257 C 204.55492,988.5033 204.5033,985.76092 199.9078,984.78417 C 195.25271,983.79475 189.22856,973.469 192.2972,967.35082 C 195.34089,961.28237 192.51713,953.74223 191.15815,950.50472 C 189.82137,947.3201 193.86706,950.09115 196.8519,948.05041 C 199.8074,946.02972 200.08566,944.25324 195.47251,944.00844 C 190.92165,943.76364 190.44535,943.58509 182.89801,934.65903 C 175.28838,925.67067 157.49271,922.79906 149.19176,920.60377 C 140.77431,918.37766 122.10821,912.63374 116.64594,908.40488 C 111.18367,904.17602 113.70556,899.57232 116.29353,895.54211 C 118.90988,891.46771 128.60069,869.74348 117.5723,859.55409 C 110.70839,865.82719 105.94643,870.03098 99.560575,869.39118 C 93.237014,868.75138 80.528837,872.08878 75.240987,878.92489 C 70.895129,884.54319 64.196381,892.01807 59.027779,898.62566 C 53.892443,905.19072 57.941198,921.03272 60.437398,928.58005 C 54.446519,924.7036 45.665769,918.41905 41.407546,915.45298 C 37.20844,912.52809 32.186292,914.68943 29.51389,922.14866 C 26.841488,929.6079 26.282002,959.35712 26.342248,962.85141 C 26.400982,966.25798 28.133638,964.67216 28.280473,966.99215 C 28.427308,969.31215 27.047057,972.63063 26.694652,975.80227 C 30.218699,975.91974 34.88806,975.7729 38.412107,975.89037 C 38.324006,973.86405 38.235905,972.36633 37.971601,970.51621 L 31.892621,967.16836 L 37.971601,970.51621 C 39.257801,971.22455 40.438434,970.4281 40.174131,967.52076 C 39.908986,964.60417 37.237425,961.38305 34.799959,959.59166 C 32.419326,957.84204 33.390341,955.89141 33.214138,954.04128 C 35.920439,954.41507 37.022569,954.64224 36.935765,951.9232 C 36.844987,949.07968 33.801479,933.33752 35.769072,930.16587 C 37.712582,927.03305 37.314583,926.6024 40.053964,929.27418 C 63.803628,952.43771 134.97677,966.22857 159.1107,965.67064 z "
       style="fill:#000000;fill-opacity:1;fill-rule:evenodd;stroke:#ffffff;stroke-width:1px;stroke-linecap:butt;stroke-linejoin:round;stroke-opacity:1"
       id="path2254" />
    <path
       d="M 80.336639,932.48849 C 75.429378,937.08038 59.646745,941.20507 53.132348,941.59748 C 46.493804,941.99737 43.870373,941.28842 42.878768,949.14963 C 41.22856,962.23208 43.745249,984.09741 44.355492,987.53853 C 44.950416,990.89327 47.906593,992.54281 49.35171,994.31227 C 48.803327,996.08176 47.153508,997.6451 47.305403,1000.8326 C 50.928511,1002.1998 55.39177,1004.5582 60.011629,1004.1811 C 59.605252,1002.194 58.223143,997.86327 57.670538,996.07794 L 52.510403,993.1694 L 57.670538,996.07794 C 59.052305,996.5747 59.531978,994.23159 58.127473,992.02522 C 56.554809,989.55468 56.378179,987.54843 53.813425,986.28821 C 51.162236,984.98445 50.343088,981.67274 50.625043,978.87675 C 51.448856,978.7678 52.390738,978.94439 53.153249,978.95696 C 53.278554,970.18529 49.673626,981.15481 50.411919,957.36132 C 50.52626,953.67638 51.970528,951.74565 57.621224,953.37767 C 63.190554,954.98618 81.954952,957.10035 92.948061,945.50872"
       style="fill:#000000;fill-opacity:1;fill-rule:evenodd;stroke:#ffffff;stroke-width:1px;stroke-linecap:round;stroke-linejoin:round;stroke-opacity:1"
       id="path3256" />
    <path
       d="M 117.37762,844.96903 C 142.5602,845.69005 166.58969,847.65851 178.35611,847.96596 C 194.30413,848.33974 193.26584,847.84136 198.8518,844.04125 C 204.43776,840.24114 218.14468,828.36042 221.40328,825.66366 C 223.2099,824.16853 220.29393,822.89932 219.28519,823.60786 C 200.31702,836.93114 196.44298,841.90239 188.6974,841.73627 C 181.0141,841.57014 184.42418,839.28676 196.42222,820.11923 C 197.62155,818.20324 194.33073,817.72968 193.24508,819.12248 C 177.61405,839.17579 180.41191,842.87838 168.51319,842.48383 C 156.61637,842.08934 160.22988,844.17036 161.59824,817.62735 C 161.77457,814.20698 159.12797,815.27111 158.85717,816.7552 C 155.1093,837.29485 157.81888,841.88162 144.71576,841.86086 C 131.6124,841.84009 133.25923,838.2406 131.69571,815.19777 C 131.62584,814.16808 129.03771,812.83049 128.70546,814.6371 C 128.37506,816.43364 128.20204,836.89924 128.19639,837.96822 C 128.19075,838.94909 127.81667,839.43235 127.10712,839.41616 C 126.39411,839.39989 111.44332,838.92032 110.40816,838.20077"
       style="color:#000000;fill:#000000;fill-opacity:1;fill-rule:evenodd;stroke:#ffffff;stroke-width:1px;stroke-linecap:butt;stroke-linejoin:round;marker:none;marker-start:none;marker-mid:none;marker-end:none;stroke-miterlimit:4;stroke-dashoffset:0;stroke-opacity:1;visibility:visible;display:inline;overflow:visible;enable-background:accumulate"
       id="path8171" />
    <path
       d="M 107.02732,834.24767 C 107.24028,837.63663 107.49765,840.50503 105.89699,844.73739 C 107.49765,840.50503 107.24028,837.63663 107.02732,834.24767 C 106.78237,830.34969 106.43524,825.66243 106.36739,815.74735 C 106.359,814.52677 108.86603,814.37216 109.21199,815.71879 C 112.69569,829.14226 113.25658,840.73689 123.69096,849.23703 C 134.16834,857.7722 135.07423,848.90519 148.41188,829.493 C 149.43491,828.00403 151.49585,829.59344 151.09555,830.54471 C 142.13744,851.83247 135.18073,856.19474 147.39735,862.85792 C 159.61397,869.52109 162.08204,860.18976 180.21057,842.55589 C 181.29195,841.50401 185.55591,841.98346 183.41267,844.65489 C 167.00274,865.10897 160.21664,868.93847 170.66731,874.63702 C 181.11964,880.33648 186.18683,874.44999 205.37381,861.35718 C 206.83249,860.3618 209.61194,862.37337 207.76417,863.67535 C 185.61315,879.28336 186.17289,882.26106 190.17998,884.2729 C 194.22179,886.30216 200.86947,885.90665 216.0488,885.25934 C 217.28041,885.20713 219.84924,887.96531 217.01716,888.40009 C 205.78076,890.12512 190.50039,893.48181 172.06321,881.22648 C 153.64624,868.98458 140.09422,867.25959 138.3123,864.2795 C 136.55315,861.3375 132.22724,859.98791 128.53581,859.11061 C 124.9065,858.24807 117.58357,851.87225 113.71926,851.68974 C 112.94087,851.63147 123.24491,854.29611 116.69129,860.347 C 110.13767,866.39789 105.94643,870.03098 99.560575,869.39118 C 93.17472,868.75138 93.631372,868.59502 89.244176,866.09803 C 84.883509,863.61615 79.293328,863.86779 74.694019,865.4091 C 70.678967,866.75462 65.699427,860.12523 71.641469,860.61224 C 77.459741,861.0891 77.144363,856.5837 69.647967,856.00226 C 62.275413,855.43043 63.584234,849.27869 66.906902,849.39879 C 70.353998,849.52338 72.709717,846.75799 77.746568,847.0315 C 82.660931,847.29837 82.964627,844.51828 87.102838,844.43364 C 91.236628,844.3491 89.291942,841.10562 87.589483,840.17884 C 93.175442,836.52409 97.196174,841.74796 99.924276,841.051 C 102.76917,840.3242 100.17346,834.19834 97.930773,830.58511 C 95.722029,827.02658 90.918858,820.30414 90.321693,819.15012 C 89.76018,818.06499 91.995777,816.74979 92.850063,817.84631 C 97.2674,823.51618 101.84884,829.27348 107.02732,834.24767 z "
       style="color:#000000;fill:#000000;fill-opacity:1;fill-rule:evenodd;stroke:#ffffff;stroke-width:1px;stroke-linecap:butt;stroke-linejoin:round;marker:none;marker-start:none;marker-mid:none;marker-end:none;stroke-miterlimit:4;stroke-dashoffset:0;stroke-opacity:1;visibility:visible;display:inline;overflow:visible;enable-background:accumulate"
       id="path3268" />
    <path
       d="M 94.973054,43.196291 C 92.858626,43.240342 92.556946,45.039445 93.475334,45.090466 C 94.268244,45.134516 93.409417,46.233121 95.633812,46.367933 C 97.814316,46.500084 97.131532,43.15224 94.973054,43.196291 z "
       transform="translate(0,804.33069)"
       style="opacity:1;color:#000000;fill:none;fill-opacity:0.75;fill-rule:evenodd;stroke:#ffffff;stroke-width:1px;stroke-linecap:butt;stroke-linejoin:miter;marker:none;marker-start:none;marker-mid:none;marker-end:none;stroke-miterlimit:4;stroke-dasharray:none;stroke-dashoffset:0;stroke-opacity:1;visibility:visible;display:inline;overflow:visible;enable-background:accumulate"
       id="path3294" />
    <path
       d="M 92.065715,41.478318 C 97.836341,41.258065 98.100645,42.095026 99.422162,43.548695"
       transform="translate(0,804.33069)"
       style="opacity:1;color:#000000;fill:none;fill-opacity:0.75;fill-rule:evenodd;stroke:#ffffff;stroke-width:1px;stroke-linecap:round;stroke-linejoin:miter;marker:none;marker-start:none;marker-mid:none;marker-end:none;stroke-miterlimit:4;stroke-dasharray:none;stroke-dashoffset:0;stroke-opacity:1;visibility:visible;display:inline;overflow:visible;enable-background:accumulate"
       id="path3296" />
    <path
       d="M 112.50518,56.05906 C 119.46518,68.12892 123.51783,68.481325 132.32794,67.952718 C 129.77301,61.168928 126.07277,53.680329 114.97202,53.239823"
       transform="translate(0,804.33069)"
       style="opacity:1;color:#000000;fill:#000000;fill-opacity:1;fill-rule:evenodd;stroke:#ffffff;stroke-width:1px;stroke-linecap:round;stroke-linejoin:miter;marker:none;marker-start:none;marker-mid:none;marker-end:none;stroke-miterlimit:4;stroke-dasharray:none;stroke-dashoffset:0;stroke-opacity:1;visibility:visible;display:inline;overflow:visible;enable-background:accumulate"
       id="path3298" />
  </g>
</svg>
