<?xml version="1.0" standalone="yes"?>
<svg width="87" height="97">
<path style="fill:#fdfdfd" d="M87 0 L87 97 L0 97 L0 0 L87 0 z"/>
<path style="fill:#a9aaaa" d="M49 17 L40 17 C41.66 15.35 47.34 15.35 49 17 z"/>
<path style="fill:#898989" d="M37 17 C37.15 18.18 35.66 18.02 35 18 C34.85 16.82 36.34 16.98 37 17 z"/>
<path style="fill:#090a0a" d="M40 17 L49 17 C48.85 18.18 50.34 18.02 51 18 L53 18 C52.85 19.18 54.34 19.02 55 19 L56 19 L57 20 L58 20 L59 21 L60 21 L61 22 L64 24 L65 25 L66 26 L67 27 L68 28 L69 29 L70 31 L71 32 L71 33 L72 34 L72 35 C71.98 35.66 71.82 37.15 73 37 C72.98 37.66 72.82 39.15 74 39 L74 40 C73.98 40.66 73.82 42.15 75 42 L75 44 L75 53 C73.41 53.06 74.19 55.05 74 56 L74 58 C72.82 57.85 72.98 59.34 73 60 L72 63 L71 64 L70 66 L69 67 L67 70 L66 71 L62 74 L61 75 L59 76 L58 77 L57 77 L56 78 L54 78 C53.34 77.98 51.85 77.82 52 79 L51 79 C50.34 78.98 48.85 78.82 49 80 L40 80 L36 79 L35 79 C35.15 77.82 33.66 77.98 33 78 L32 78 C32.15 76.82 30.66 76.98 30 77 L29 77 L28 76 L26 75 L25 74 L18 67 L17 66 L16 64 L15 63 L14 60 C14.02 59.34 14.18 57.85 13 58 L13 56 C12.81 55.05 13.59 53.06 12 53 L12 44 L12 42 C13.18 42.15 13.02 40.66 13 40 L14 36 L15 35 L15 34 L16 33 L16 32 L17 31 L18 29 L19 28 L20 27 L21 26 L22 25 L23 24 L26 22 L27 21 L28 21 L29 20 L32 19 C32.66 19.02 34.15 19.18 34 18 L35 18 C35.66 18.02 37.15 18.18 37 17 L40 17 z"/>
<path style="fill:#595a5a" d="M51 18 C50.34 18.02 48.85 18.18 49 17 C49.66 16.98 51.15 16.82 51 18 z"/>
<path style="fill:#747575" d="M34 18 C34.15 19.18 32.66 19.02 32 19 C31.85 17.82 33.34 17.98 34 18 z"/>
<path style="fill:#727272" d="M55 19 C54.34 19.02 52.85 19.18 53 18 C53.66 17.98 55.15 17.82 55 19 z"/>
<path style="fill:#6c6c6c" d="M57 20 L56 19 L57 20 z"/>
<path style="fill:#717171" d="M29 20 L28 21 L29 20 z"/>
<path style="fill:#6c6c6c" d="M59 21 L58 20 L59 21 z"/>
<path style="fill:#8b8b8b" d="M27 21 L26 22 L27 21 z"/>
<path style="fill:#979797" d="M61 22 L60 21 L61 22 z"/>
<path style="fill:#4d4d4d" d="M48 23 L40 23 C41.34 21.35 46.66 21.35 48 23 z"/>
<path style="fill:#828282" d="M38 23 C38.15 24.18 36.66 24.02 36 24 C35.85 22.82 37.34 22.98 38 23 z"/>
<path style="fill:#efefef" d="M40 23 L48 23 L55 25 L56 26 L58 27 L59 28 L64 33 L65 34 L68 41 C67.98 41.66 67.82 43.15 69 43 L69 54 C67.82 53.85 67.98 55.34 68 56 L67 59 L66 60 L66 61 L65 62 L64 64 L63 65 L62 66 L61 67 L60 68 L59 69 L57 70 L56 71 L55 71 L54 72 L50 73 C49.34 72.98 47.85 72.82 48 74 L39 74 C39.15 72.82 37.66 72.98 37 73 L36 73 C36.15 71.82 34.66 71.98 34 72 L31 71 L30 70 L28 69 L27 68 L26 67 L25 66 L24 65 L23 64 L22 62 L21 61 L21 60 L20 59 L19 55 C19.02 54.34 19.18 52.85 18 53 L18 47 L19 47 L21 51 C20.98 51.66 20.82 53.15 22 53 L26 54 C25.01 56.48 29.62 56.85 30 55 L31 55 L31 56 L29 58 L28 66 L29 67 C30.34 68.65 35.66 68.65 37 67 L38 66 C38.66 66.02 40.15 66.18 40 65 L42 63 L45 63 C46.85 65.14 49.53 68.31 53 68 L58 67 L59 65 C60.62 64.27 60.62 59.73 59 59 L59 58 L60 56 C60.34 54.14 62.4 53.72 64 54 L65 53 L67 49 C68.55 48.81 68.55 45.19 67 45 L67 44 L66 43 L63 40 C62.94 38.41 60.95 39.19 60 39 C59.54 36.95 57.07 38.38 56 39 C54.58 39.21 52.33 39.11 53 37 L54 33 L53 32 C52.6 23.6 39.95 22.01 35 28 L34 32 L33 33 C31.52 32.96 31.52 36.04 33 36 L34 37 L34 40 L33 40 C33.15 38.82 31.66 38.98 31 39 C29.93 38.38 27.46 36.95 27 39 C26.05 39.19 24.06 38.41 24 40 L22 42 L21 43 L20 44 C18.82 44.15 18.98 42.66 19 42 L22 34 L23 33 L28 28 L29 27 L31 26 L32 25 L33 25 C33.66 25.02 35.15 25.18 35 24 L36 24 C36.66 24.02 38.15 24.18 38 23 L40 23 z"/>
<path style="fill:#8f8f8f" d="M23 24 L22 25 L23 24 z"/>
<path style="fill:#7e7f7f" d="M35 24 C35.15 25.18 33.66 25.02 33 25 C32.85 23.82 34.34 23.98 35 24 z"/>
<path style="fill:#141414" d="M53 32 L54 33 L53 37 L49.25 43.75 L56 39 C57.07 38.38 59.54 36.95 60 39 L60 40 L56 42 C53.72 41.82 52.06 44.32 51 46 C49.39 53.9 38.88 54.18 48.75 47.75 C45.64 46.29 41.73 49.87 46 43 C48.69 43.37 49.76 40.02 50 38 C53.16 34.27 49.2 29.14 46 27 C46.43 25.94 44.57 25.94 45 27 L45 29 C44.11 35.02 43.89 21.98 43 28 L43 30 C43.43 31.06 41.57 31.06 42 30 L41.75 26.25 C36.77 29.8 33.09 35.62 38 41 C39.68 42.74 46.55 48.82 41 48 C41.58 42.95 34.95 49.58 40 49 C41.68 49.73 43.85 51.68 42.75 53.75 L38 51 L35 46 C35.08 43.01 31.5 41.27 29 41 C20.94 41.97 21.51 49.97 26 54 L22 53 C22.02 52.34 22.18 50.85 21 51 L19 47 L20 44 L21 43 L22 42 L24 40 C24.95 39.81 26.94 40.59 27 39 C27.46 36.95 29.93 38.38 31 39 C30.85 40.18 32.34 40.02 33 40 L34 40 L35 41 C35.3 45.89 39.99 42.79 35 41 L34 37 L33 36 L33 33 L34 32 L35 28 C39.95 22.01 52.6 23.6 53 32 z"/>
<path style="fill:#8c8c8c" d="M65 25 L64 24 L65 25 z"/>
<path style="fill:#868686" d="M22 25 L21 26 L22 25 z"/>
<path style="fill:#696969" d="M32 25 L31 26 L32 25 z"/>
<path style="fill:#6e6e6e" d="M56 26 L55 25 L56 26 z"/>
<path style="fill:#7f7f7f" d="M66 26 L65 25 L66 26 z"/>
<path style="fill:#8b8b8b" d="M21 26 L20 27 L21 26 z"/>
<path style="fill:#4e4e4e" d="M42 30 C40.67 29.78 40.67 32.22 42 32 L43 34 L40 34 L39 35 L38 35 L38 40 L38 41 C33.09 35.62 36.77 29.8 41.75 26.25 L42 30 z"/>
<path style="fill:#858686" d="M46 27 C45.87 29.08 46.79 32.37 44 33 C44.15 31.82 42.66 31.98 42 32 C40.67 32.22 40.67 29.78 42 30 C41.57 31.06 43.43 31.06 43 30 L43 28 C43.89 21.98 44.11 35.02 45 29 L45 27 C44.57 25.94 46.43 25.94 46 27 z"/>
<path style="fill:#848484" d="M67 27 L66 26 L67 27 z"/>
<path style="fill:#8d8d8d" d="M20 27 L19 28 L20 27 z"/>
<path style="fill:#737373" d="M29 27 L28 28 L29 27 z"/>
<path style="fill:#424242" d="M50 38 L49 38 L49 37 C48.81 36.05 49.59 34.06 48 34 L47 33 L44 34 L44 33 C46.79 32.37 45.87 29.08 46 27 C49.2 29.14 53.16 34.27 50 38 z"/>
<path style="fill:#797979" d="M59 28 L58 27 L59 28 z"/>
<path style="fill:#929292" d="M68 28 L67 27 L68 28 z"/>
<path style="fill:#aaaaaa" d="M19 28 L18 29 L19 28 z"/>
<path style="fill:#828282" d="M35 28 L34 32 L35 28 z"/>
<path style="fill:#aaaaaa" d="M69 29 L68 28 L69 29 z"/>
<path style="fill:#999999" d="M17 31 L16 32 L17 31 z"/>
<path style="fill:#969696" d="M71 32 L70 31 L71 32 z"/>
<path style="fill:#d9d9d9" d="M44 33 L44 34 L43 34 L42 32 C42.66 31.98 44.15 31.82 44 33 z"/>
<path style="fill:#878787" d="M54 33 L53 32 L54 33 z"/>
<path style="fill:#7a7a7a" d="M16 33 L15 34 L16 33 z"/>
<path style="fill:#7d7d7d" d="M23 33 L22 34 L23 33 z"/>
<path style="fill:#939393" d="M33 33 L33 36 C31.52 36.04 31.52 32.96 33 33 z"/>
<path style="fill:#888989" d="M43 34 L44 34 L47 33 C47.33 34.85 45.46 36.33 44 37 C44.43 35.94 42.57 35.94 43 37 L40 34 L43 34 z"/>
<path style="fill:#131414" d="M48 34 L47 38 C45.49 37.71 43.5 40.06 44 37 C45.46 36.33 47.33 34.85 47 33 L48 34 z"/>
<path style="fill:#7a7a7a" d="M65 34 L64 33 L65 34 z"/>
<path style="fill:#767676" d="M72 34 L71 33 L72 34 z"/>
<path style="fill:#1a1a1a" d="M40 34 L43 37 C43.46 38.35 42.35 39.46 41 39 L40 38 L39 35 L40 34 z"/>
<path style="fill:#898a8a" d="M49 37 L47 38 L48 34 C49.59 34.06 48.81 36.05 49 37 z"/>
<path style="fill:#868686" d="M15 35 L14 36 L15 35 z"/>
<path style="fill:#232323" d="M38 35 C37.67 36.34 38.71 37.74 40 38 L41 39 C44.93 43.33 40.68 43.27 38 40 L38 35 z"/>
<path style="fill:#949494" d="M39 35 L40 38 C38.71 37.74 37.67 36.34 38 35 L39 35 z"/>
<path style="fill:#5a5b5b" d="M73 37 C71.82 37.15 71.98 35.66 72 35 C73.18 34.85 73.02 36.34 73 37 z"/>
<path style="fill:#808080" d="M34 37 L33 36 L34 37 z"/>
<path style="fill:#aaaaaa" d="M44 37 C43.5 40.06 45.49 37.71 47 38 C46.33 39.62 41.59 42.97 46 43 C41.73 49.87 45.64 46.29 48.75 47.75 C38.88 54.18 49.39 53.9 51 46 L52 46 C51.55 48.02 52.84 47.93 54 47 L55 47 C56.73 45.38 61.97 43.59 60.75 47.75 C55.79 47.07 56.71 49.27 55 51 L53 49 C51.82 48.85 51.98 50.34 52 51 C51.05 51.19 49.06 50.41 49 52 L45 55 C43.41 55.06 44.19 57.05 44 58 C39.41 56.44 42.47 62.42 39 63 L40 59 L40 57 C43.77 57.48 40.89 53.33 39 53 L38 51 L42.75 53.75 C43.85 51.68 41.68 49.73 40 49 L41 48 C46.55 48.82 39.68 42.74 38 41 L38 40 C40.68 43.27 44.93 43.33 41 39 C42.35 39.46 43.46 38.35 43 37 C42.57 35.94 44.43 35.94 44 37 z"/>
<path style="fill:#9a9a9a" d="M35 41 L34 40 L34 37 L35 41 z"/>
<path style="fill:#1e1e1e" d="M49 37 L49 38 L46 43 C41.59 42.97 46.33 39.62 47 38 L49 37 z"/>
<path style="fill:#9b9c9c" d="M53 37 C52.33 39.11 54.58 39.21 56 39 L49.25 43.75 L53 37 z"/>
<path style="fill:#8b8b8b" d="M74 39 C72.82 39.15 72.98 37.66 73 37 C74.18 36.85 74.02 38.34 74 39 z"/>
<path style="fill:#c1c1c1" d="M41 39 L40 38 L41 39 z"/>
<path style="fill:#929393" d="M50 38 C49.76 40.02 48.69 43.37 46 43 L49 38 L50 38 z"/>
<path style="fill:#656565" d="M27 39 C26.94 40.59 24.95 39.81 24 40 C24.06 38.41 26.05 39.19 27 39 z"/>
<path style="fill:#737373" d="M33 40 C32.34 40.02 30.85 40.18 31 39 C31.66 38.98 33.15 38.82 33 40 z"/>
<path style="fill:#727373" d="M63 40 L60 40 L60 39 C60.95 39.19 62.94 38.41 63 40 z"/>
<path style="fill:#9b9b9b" d="M13 40 C13.02 40.66 13.18 42.15 12 42 C11.98 41.34 11.82 39.85 13 40 z"/>
<path style="fill:#484949" d="M60 40 C66.44 43.84 65.24 54.54 56 54 L55 54 C56.85 52.31 56.85 52.69 55 51 C56.71 49.27 55.79 47.07 60.75 47.75 C61.97 43.59 56.73 45.38 55 47 L56 42 L60 40 z"/>
<path style="fill:#101111" d="M63 40 L66 43 L67 44 L67 45 L67 49 L65 53 L64 54 C62.4 53.72 60.34 54.14 60 56 C58.4 56.28 56.34 55.86 56 54 C65.24 54.54 66.44 43.84 60 40 L63 40 z"/>
<path style="fill:#a1a1a1" d="M75 42 C73.82 42.15 73.98 40.66 74 40 C75.18 39.85 75.02 41.34 75 42 z"/>
<path style="fill:#3e3f3f" d="M29 41 L32 47 C29.34 44.49 29.44 45.84 28 48 L28 47 L28 46 C26.4 42.52 24.48 49.3 28 48 L26.25 49.75 C30.54 47.38 37.33 49.98 30 52 C25.76 49.31 26.93 54.8 30 55 C29.62 56.85 25.01 56.48 26 54 C21.51 49.97 20.94 41.97 29 41 z"/>
<path style="fill:#6d6d6d" d="M35 46 L35 47 L34 47 L32 47 L29 41 C31.5 41.27 35.08 43.01 35 46 z"/>
<path style="fill:#aeaeae" d="M35 41 C39.99 42.79 35.3 45.89 35 41 z"/>
<path style="fill:#656565" d="M69 43 C67.82 43.15 67.98 41.66 68 41 C69.18 40.85 69.02 42.34 69 43 z"/>
<path style="fill:#b1b2b2" d="M19 42 C18.98 42.66 18.82 44.15 20 44 L19 47 L18 47 L19 42 z"/>
<path style="fill:#909090" d="M22 42 L21 43 L22 42 z"/>
<path style="fill:#848585" d="M56 42 L55 47 L54 47 C54.45 44.98 53.16 45.07 52 46 L51 46 C52.06 44.32 53.72 41.82 56 42 z"/>
<path style="fill:#6e6e6e" d="M21 43 L20 44 L21 43 z"/>
<path style="fill:#7e7e7e" d="M67 44 L66 43 L67 44 z"/>
<path style="fill:#c2c2c2" d="M12 44 L12 53 C10.35 51.34 10.35 45.66 12 44 z"/>
<path style="fill:#d2d2d2" d="M75 53 L75 44 C76.65 45.66 76.65 51.34 75 53 z"/>
<path style="fill:#939393" d="M28 46 C26.94 45.57 26.94 47.43 28 47 L28 48 C24.48 49.3 26.4 42.52 28 46 z"/>
<path style="fill:#a3a3a3" d="M32 47 L34 47 C33.57 48.06 35.43 48.06 35 47 L35 46 L38 51 C33.05 51.18 32.68 52.94 37 54 C35.17 53.92 32.46 53.63 32 56 L31 56 L31 55 C32.75 53.12 30.63 53.4 30 52 C37.33 49.98 30.54 47.38 26.25 49.75 L28 48 C29.44 45.84 29.34 44.49 32 47 z"/>
<path style="fill:#1f2020" d="M54 47 C52.84 47.93 51.55 48.02 52 46 C53.16 45.07 54.45 44.98 54 47 z"/>
<path style="fill:#656565" d="M67 49 L67 45 C68.55 45.19 68.55 48.81 67 49 z"/>
<path style="fill:#ffffff" d="M28 46 L28 47 C26.94 47.43 26.94 45.57 28 46 z"/>
<path style="fill:#747575" d="M41 48 L40 49 C34.95 49.58 41.58 42.95 41 48 z"/>
<path style="fill:#090909" d="M35 47 C35.43 48.06 33.57 48.06 34 47 L35 47 z"/>
<path style="fill:#929292" d="M53 49 C52.54 50.35 53.65 51.46 55 51 C56.85 52.69 56.85 52.31 55 54 L54 54 L50 54 L53 52 L52 51 C51.98 50.34 51.82 48.85 53 49 z"/>
<path style="fill:#0f1010" d="M55 51 C53.65 51.46 52.54 50.35 53 49 L55 51 z"/>
<path style="fill:#949494" d="M22 53 C20.82 53.15 20.98 51.66 21 51 C22.18 50.85 22.02 52.34 22 53 z"/>
<path style="fill:#5a5b5b" d="M30 52 C30.63 53.4 32.75 53.12 31 55 L30 55 C26.93 54.8 25.76 49.31 30 52 z"/>
<path style="fill:#393a3a" d="M38 51 L39 53 L37 54 C32.68 52.94 33.05 51.18 38 51 z"/>
<path style="fill:#404040" d="M52 51 L53 52 L50 54 C48.82 54.15 48.98 52.66 49 52 C49.06 50.41 51.05 51.19 52 51 z"/>
<path style="fill:#121212" d="M49 52 C48.98 52.66 48.82 54.15 50 54 L54 54 L55 56 L50 56 L45 55 L49 52 z"/>
<path style="fill:#6b6b6b" d="M13 56 C11.41 55.94 12.19 53.95 12 53 C13.59 53.06 12.81 55.05 13 56 z"/>
<path style="fill:#8e8f8f" d="M19 55 C17.82 55.15 17.98 53.66 18 53 C19.18 52.85 19.02 54.34 19 55 z"/>
<path style="fill:#0f1010" d="M39 53 C40.89 53.33 43.77 57.48 40 57 L32 56 C32.46 53.63 35.17 53.92 37 54 L39 53 z"/>
<path style="fill:#929292" d="M65 53 L64 54 L65 53 z"/>
<path style="fill:#717272" d="M75 53 C74.81 53.95 75.59 55.94 74 56 C74.19 55.05 73.41 53.06 75 53 z"/>
<path style="fill:#cbcccc" d="M55 54 L56 54 C56.34 55.86 58.4 56.28 60 56 L59 58 L58 58 L55 56 L54 54 L55 54 z"/>
<path style="fill:#585959" d="M69 54 C69.02 54.66 69.18 56.15 68 56 C67.98 55.34 67.82 53.85 69 54 z"/>
<path style="fill:#8d8d8d" d="M45 55 L50 56 L47 59 C49.71 66.94 46.85 61.78 44 58 C44.19 57.05 43.41 55.06 45 55 z"/>
<path style="fill:#515252" d="M32 56 L40 57 L40 59 L38 59 C37.75 57.04 33.99 57.91 35 60 C31.23 58.71 31.82 62.98 34 64 C29.44 70.22 29.98 59.6 29 58 L31 56 L32 56 z"/>
<path style="fill:#4b4b4b" d="M55 56 L58 58 L57 62 L55 61 L52 60 C53.01 57.91 49.25 57.04 49 59 L47 59 L50 56 L55 56 z"/>
<path style="fill:#a0a1a1" d="M14 60 C12.82 60.15 12.98 58.66 13 58 C14.18 57.85 14.02 59.34 14 60 z"/>
<path style="fill:#161717" d="M29 58 C29.98 59.6 29.44 70.22 34 64 L35 60 C37.96 60.63 32.78 66.55 37 64 L38 66 L37 67 L29 67 L28 66 L29 58 z"/>
<path style="fill:#858686" d="M38 59 L37 64 C32.78 66.55 37.96 60.63 35 60 C33.99 57.91 37.75 57.04 38 59 z"/>
<path style="fill:#171818" d="M44 58 C46.85 61.78 49.71 66.94 47 59 L49 59 C49.19 59.95 48.41 61.94 50 62 C49.98 62.66 49.82 64.15 51 64 C50.1 65.56 52.81 67.02 53 65 C55.54 66.38 58 65.74 57 62 L58 58 L59 58 L59 59 L59 65 L58 67 L53 68 C49.53 68.31 46.85 65.14 45 63 C45.04 61.52 41.96 61.52 42 63 L40 65 C38.82 65.15 38.98 63.66 39 63 C42.47 62.42 39.41 56.44 44 58 z"/>
<path style="fill:#9e9e9e" d="M52 60 C50.65 59.54 49.54 60.65 50 62 C48.41 61.94 49.19 59.95 49 59 C49.25 57.04 53.01 57.91 52 60 z"/>
<path style="fill:#a2a2a2" d="M74 58 C74.02 58.66 74.18 60.15 73 60 C72.98 59.34 72.82 57.85 74 58 z"/>
<path style="fill:#8e8e8e" d="M21 60 L20 59 L21 60 z"/>
<path style="fill:#171717" d="M40 59 L39 63 L37 64 L38 59 L40 59 z"/>
<path style="fill:#a9aaaa" d="M59 65 L59 59 C60.62 59.73 60.62 64.27 59 65 z"/>
<path style="fill:#989898" d="M67 59 L66 60 L67 59 z"/>
<path style="fill:#9d9e9e" d="M35 60 L34 64 C31.82 62.98 31.23 58.71 35 60 z"/>
<path style="fill:#2f3030" d="M52 60 C52.19 60.95 51.41 62.94 53 63 L53 65 C52.81 67.02 50.1 65.56 51 64 C51.02 63.34 51.18 61.85 50 62 C49.54 60.65 50.65 59.54 52 60 z"/>
<path style="fill:#a7a7a7" d="M55 61 L53 63 C51.41 62.94 52.19 60.95 52 60 L55 61 z"/>
<path style="fill:#838383" d="M22 62 L21 61 L22 62 z"/>
<path style="fill:#5d5d5d" d="M57 62 C58 65.74 55.54 66.38 53 65 L53 63 L55 61 L57 62 z"/>
<path style="fill:#818181" d="M66 61 L65 62 L66 61 z"/>
<path style="fill:#616262" d="M45 63 L42 63 C41.96 61.52 45.04 61.52 45 63 z"/>
<path style="fill:#878888" d="M51 64 C49.82 64.15 49.98 62.66 50 62 C51.18 61.85 51.02 63.34 51 64 z"/>
<path style="fill:#949494" d="M16 64 L15 63 L16 64 z"/>
<path style="fill:#686868" d="M39 63 C38.98 63.66 38.82 65.15 40 65 C40.15 66.18 38.66 66.02 38 66 L37 64 L39 63 z"/>
<path style="fill:#9e9e9e" d="M72 63 L71 64 L72 63 z"/>
<path style="fill:#757575" d="M24 65 L23 64 L24 65 z"/>
<path style="fill:#0a0a0a" d="M44 64 C43.98 64.66 43.82 66.15 45 66 L45 67 C44.98 67.66 44.82 69.15 46 69 L46 70 C46.5 73.41 41.94 71.51 40 72 L40 71 C41.18 71.15 41.02 69.66 41 69 L41 68 C42.18 68.15 42.02 66.66 42 66 C41.54 64.65 42.65 63.54 44 64 z"/>
<path style="fill:#626363" d="M45 66 C43.82 66.15 43.98 64.66 44 64 C45.18 63.85 45.02 65.34 45 66 z"/>
<path style="fill:#797979" d="M64 64 L63 65 L64 64 z"/>
<path style="fill:#949494" d="M25 66 L24 65 L25 66 z"/>
<path style="fill:#909090" d="M63 65 L62 66 L63 65 z"/>
<path style="fill:#747474" d="M18 67 L17 66 L18 67 z"/>
<path style="fill:#959595" d="M26 67 L25 66 L26 67 z"/>
<path style="fill:#707070" d="M29 67 L28 66 L29 67 z"/>
<path style="fill:#8b8b8b" d="M38 66 L37 67 L38 66 z"/>
<path style="fill:#888989" d="M42 66 C42.02 66.66 42.18 68.15 41 68 C40.98 67.34 40.82 65.85 42 66 z"/>
<path style="fill:#808080" d="M70 66 L69 67 L70 66 z"/>
<path style="fill:#838383" d="M27 68 L26 67 L27 68 z"/>
<path style="fill:#7a7b7b" d="M37 67 C35.66 68.65 30.34 68.65 29 67 L37 67 z"/>
<path style="fill:#828282" d="M46 69 C44.82 69.15 44.98 67.66 45 67 C46.18 66.85 46.02 68.34 46 69 z"/>
<path style="fill:#949494" d="M58 67 L53 68 L58 67 z"/>
<path style="fill:#888888" d="M61 67 L60 68 L61 67 z"/>
<path style="fill:#767676" d="M28 69 L27 68 L28 69 z"/>
<path style="fill:#6d6d6d" d="M60 68 L59 69 L60 68 z"/>
<path style="fill:#979898" d="M41 69 C41.02 69.66 41.18 71.15 40 71 C39.98 70.34 39.82 68.85 41 69 z"/>
<path style="fill:#878787" d="M31 71 L30 70 L31 71 z"/>
<path style="fill:#818282" d="M40 72 C41.94 71.51 46.5 73.41 46 70 C50.05 73.24 41.12 74.33 40 72 z"/>
<path style="fill:#848484" d="M57 70 L56 71 L57 70 z"/>
<path style="fill:#a9a9a9" d="M67 70 L66 71 L67 70 z"/>
<path style="fill:#939393" d="M55 71 L54 72 L55 71 z"/>
<path style="fill:#949595" d="M36 73 C35.34 73.02 33.85 73.18 34 72 C34.66 71.98 36.15 71.82 36 73 z"/>
<path style="fill:#757575" d="M39 74 C38.34 74.02 36.85 74.18 37 73 C37.66 72.98 39.15 72.82 39 74 z"/>
<path style="fill:#717171" d="M50 73 C50.15 74.18 48.66 74.02 48 74 C47.85 72.82 49.34 72.98 50 73 z"/>
<path style="fill:#7d7d7d" d="M26 75 L25 74 L26 75 z"/>
<path style="fill:#8c8c8c" d="M62 74 L61 75 L62 74 z"/>
<path style="fill:#a6a6a6" d="M29 77 L28 76 L29 77 z"/>
<path style="fill:#a8a8a8" d="M59 76 L58 77 L59 76 z"/>
<path style="fill:#818181" d="M32 78 C31.34 78.02 29.85 78.18 30 77 C30.66 76.98 32.15 76.82 32 78 z"/>
<path style="fill:#a9a9a9" d="M57 77 L56 78 L57 77 z"/>
<path style="fill:#6d6d6d" d="M35 79 C34.34 79.02 32.85 79.18 33 78 C33.66 77.98 35.15 77.82 35 79 z"/>
<path style="fill:#6d6e6e" d="M54 78 C54.15 79.18 52.66 79.02 52 79 C51.85 77.82 53.34 77.98 54 78 z"/>
<path style="fill:#747474" d="M40 80 L36 79 L40 80 z"/>
<path style="fill:#9c9c9c" d="M51 79 C51.15 80.18 49.66 80.02 49 80 C48.85 78.82 50.34 78.98 51 79 z"/>
</svg>
