<?xml version="1.0" standalone="yes"?>
<svg width="87" height="97">
<path style="fill:#fcfdfd" d="M87 0 L87 97 L0 97 L0 0 L87 0 z"/>
<path style="fill:#676868" d="M50 27 C41.87 22.38 41.38 41.12 48 37 L48 38 C46.15 38.38 46.52 42.99 49 42 L49 43 L53 44 L53 45 L52 49 L52 50 L50 49 C53.93 40.75 35.7 51.88 45 52 L50 49 L51 54 C51.02 54.66 51.18 56.15 50 56 C49.7 52.56 43.27 54.16 46 57 L45 58 L44.25 63.75 C46.27 63.03 47.16 60.09 47 58 L52 58 L44 67 C42.82 66.16 42.18 66.16 41 67 L40 65 L38 59 L41 58 C40.75 60.03 41.17 62.79 42.75 63.75 C42.84 62.06 43.92 58.8 42 58 L42 57 C46.66 53.65 38.95 52.44 38 56 L36 54 C41.52 49.68 33.96 45.26 36 54 L34 50 C32.76 49.39 32.02 47.44 32 46 L35 47 L40 45 C39.51 58.7 50.51 33.12 41 43 L40 42 C41.38 35.13 33.68 39.57 40 42 L39 43 L35 39 L35 38 L37 37 C45.12 41.13 45.88 24.01 38 27 C40.64 25.34 47.36 25.34 50 27 z"/>
<path style="fill:#4e4e4e" d="M37 27 C33.5 28.9 36.22 33.76 37 37 L35 38 L33 28 L37 27 z"/>
<path style="fill:#090909" d="M38 27 C45.88 24.01 45.12 41.13 37 37 C36.22 33.76 33.5 28.9 37 27 L38 27 z"/>
<path style="fill:#070808" d="M50 27 L52 27 C51.55 30.34 52.42 36.62 48 37 C41.38 41.12 41.87 22.38 50 27 z"/>
<path style="fill:#515252" d="M54 28 L53 45 L53 44 C53.91 39.95 50.72 41.26 49 43 L49 42 C48.86 40.4 51.46 37.51 48 38 L48 37 C52.42 36.62 51.55 30.34 52 27 L54 28 z"/>
<path style="fill:#0d0d0d" d="M33 28 L35 38 L35 39 C33.43 39.86 31.72 43.97 34 45 L35 47 L32 46 C31.28 43.99 31.49 40.82 29 40 L26 31 L28 30 L29 29 L33 28 z"/>
<path style="fill:#0e0e0e" d="M58 29 C57.85 30.18 59.34 30.02 60 30 L61 31 C62.18 30.85 62.02 32.34 62 33 C59.79 33.9 58.85 36.75 59 39 C56.19 40.88 54.97 44.9 54 48 L53 49 L52 49 L53 45 L54 28 L58 29 z"/>
<path style="fill:#aaaaaa" d="M29 29 L28 30 L29 29 z"/>
<path style="fill:#acadad" d="M60 30 C59.34 30.02 57.85 30.18 58 29 C58.66 28.98 60.15 28.82 60 30 z"/>
<path style="fill:#818181" d="M61 31 L60 30 L61 31 z"/>
<path style="fill:#717171" d="M26 31 L29 40 L23 33 L26 31 z"/>
<path style="fill:#818181" d="M40 33 L39 32 C39.33 29.34 42.66 32.67 40 33 z"/>
<path style="fill:#999999" d="M47 31 C51.39 30.54 46.54 35.39 47 31 z"/>
<path style="fill:#686868" d="M39 32 L39 33 C37.94 33.43 37.94 31.57 39 32 z"/>
<path style="fill:#dedede" d="M40 33 L39 33 L39 32 L40 33 z"/>
<path style="fill:#080909" d="M65 33 L66 34 L67 35 C68.46 35.67 70.33 37.15 70 39 L54.25 53.75 L54 48 C56.81 46.12 58.03 42.1 59 39 C61.21 38.1 62.15 35.25 62 33 C63.18 32.16 63.82 32.16 65 33 z"/>
<path style="fill:#676767" d="M23 33 L22 34 L23 33 z"/>
<path style="fill:#0a0a0a" d="M29 40 C29.72 42.01 29.51 45.18 32 46 C32.02 47.44 32.76 49.39 34 50 C33.23 53.76 35.11 57.32 38 59 L40 65 L39 65 L39 64 L35 60 C34.96 57.32 31.95 55.43 30 54 C29.7 50.95 26.23 48.78 24 47 C23.7 43.95 20.23 41.78 18 40 L17 39 L22 34 L23 33 L29 40 z"/>
<path style="fill:#5e5e5e" d="M62 33 C62.15 35.25 61.21 38.1 59 39 C58.85 36.75 59.79 33.9 62 33 z"/>
<path style="fill:#8f8f8f" d="M66 34 L65 33 L66 34 z"/>
<path style="fill:#a0a0a0" d="M31 34 L31 35 C29.94 35.43 29.94 33.57 31 34 z"/>
<path style="fill:#fbfbfb" d="M31 35 L31 34 C32.06 33.57 32.06 35.43 31 35 z"/>
<path style="fill:#9e9e9e" d="M56 34 L56 35 C54.94 35.43 54.94 33.57 56 34 z"/>
<path style="fill:#f8f8f8" d="M56 35 L56 34 C57.06 33.57 57.06 35.43 56 35 z"/>
<path style="fill:#5f5f5f" d="M67 35 L66 34 L67 35 z"/>
<path style="fill:#737474" d="M24 40 L23 39 C23.33 36.34 26.66 39.67 24 40 z"/>
<path style="fill:#0a0b0b" d="M40 42 C33.68 39.57 41.38 35.13 40 42 z"/>
<path style="fill:#161717" d="M48 38 C51.46 37.51 48.86 40.4 49 42 C46.52 42.99 46.15 38.38 48 38 z"/>
<path style="fill:#8b8c8c" d="M65 39 L64 40 C61.34 39.67 64.67 36.34 65 39 z"/>
<path style="fill:#0c0d0d" d="M17 39 L18 40 C18.3 43.05 21.77 45.22 24 47 C24.3 50.05 27.77 52.22 30 54 C30.04 56.68 33.05 58.57 35 60 L35 62 L34 62 L33 61 L29 59 L26 57 L25 56 L23 55 L22 54 L19 53 L17 51 L14 49 L12 48 L12 45 L13 43 L14 42 L17 39 z"/>
<path style="fill:#9a9a9a" d="M18 40 L17 39 L18 40 z"/>
<path style="fill:#ffffff" d="M24 40 L23 39 L24 40 z"/>
<path style="fill:#252626" d="M35 39 L39 43 L34 45 C31.72 43.97 33.43 39.86 35 39 z"/>
<path style="fill:#545454" d="M59 39 C58.03 42.1 56.81 46.12 54 48 C54.97 44.9 56.19 40.88 59 39 z"/>
<path style="fill:#e1e1e1" d="M65 39 L64 40 L65 39 z"/>
<path style="fill:#535454" d="M70 39 C70.66 38.98 72.15 38.82 72 40 L53 57 L53 49 L54 48 L54.25 53.75 L70 39 z"/>
<path style="fill:#5e5e5e" d="M24 47 C21.77 45.22 18.3 43.05 18 40 C20.23 41.78 23.7 43.95 24 47 z"/>
<path style="fill:#545454" d="M32 46 C29.51 45.18 29.72 42.01 29 40 C31.49 40.82 31.28 43.99 32 46 z"/>
<path style="fill:#101010" d="M40 45 L41 43 C50.51 33.12 39.51 58.7 40 45 z"/>
<path style="fill:#060707" d="M72 40 L73 41 L74 42 L74 43 L75 44 L76 45 L76 46 L76 47 L75 48 L74 48 C67.9 46.66 61.18 48.82 62 56 L59 59 L57 60 L56 61 L55 62 L54 62 L53 63 L52 64 L50 65 L49 66 L47 67 C45.82 67.84 45.18 67.84 44 67 L52 58 L53 57 L72 40 z"/>
<path style="fill:#828282" d="M73 41 L72 40 L73 41 z"/>
<path style="fill:#0e0f0f" d="M53 44 L49 43 C50.72 41.26 53.91 39.95 53 44 z"/>
<path style="fill:#aaaaaa" d="M74 42 L73 41 L74 42 z"/>
<path style="fill:#878787" d="M14 42 L13 43 L14 42 z"/>
<path style="fill:#848484" d="M41 43 L40 45 L35 47 L34 45 L39 43 L40 42 L41 43 z"/>
<path style="fill:#606060" d="M75 44 L74 43 L75 44 z"/>
<path style="fill:#aaaaaa" d="M76 45 L75 44 L76 45 z"/>
<path style="fill:#696a6a" d="M12 45 L12 48 C10.52 48.04 10.52 44.96 12 45 z"/>
<path style="fill:#cdcdcd" d="M17 45 C19.52 45.7 16.27 48.22 17 45 z"/>
<path style="fill:#141515" d="M50 49 L45 52 C35.7 51.88 53.93 40.75 50 49 z"/>
<path style="fill:#a2a2a2" d="M76 47 L76 46 C77.06 45.57 77.06 47.43 76 47 z"/>
<path style="fill:#585959" d="M30 54 C27.77 52.22 24.3 50.05 24 47 C26.23 48.78 29.7 50.95 30 54 z"/>
<path style="fill:#8b8b8b" d="M76 47 L75 48 L76 47 z"/>
<path style="fill:#1c1c1c" d="M36 54 C33.96 45.26 41.52 49.68 36 54 z"/>
<path style="fill:#656565" d="M74 48 L72 55 L72 54 C72.69 50.17 69.08 50.64 71 54 L70 55 C68.41 54.94 69.19 52.95 69 52 C68.38 47.26 62.03 53.12 67 53 L67 57 L67 58 L66 58 L65 57 C65.5 53.94 63.51 56.29 62 56 C61.18 48.82 67.9 46.66 74 48 z"/>
<path style="fill:#d1d2d2" d="M17 51 L17 53 L14 51 L14 49 L17 51 z"/>
<path style="fill:#0d0e0e" d="M52 50 L51 54 L50 49 L52 50 z"/>
<path style="fill:#979797" d="M53 49 L53 57 L52 58 L47 58 L45 58 L46 57 L50 56 C51.18 56.15 51.02 54.66 51 54 L52 50 L52 49 L53 49 z"/>
<path style="fill:#929292" d="M36 54 L38 56 L42 57 L42 58 L41 58 L38 59 C35.11 57.32 33.23 53.76 34 50 L36 54 z"/>
<path style="fill:#353636" d="M69 52 L67 53 C62.03 53.12 68.38 47.26 69 52 z"/>
<path style="fill:#4b4b4b" d="M17 53 L18 57 L17 57 C14.79 56.1 13.85 53.25 14 51 L17 53 z"/>
<path style="fill:#9e9e9e" d="M19 53 L19 57 L18 57 L17 53 L17 51 L19 53 z"/>
<path style="fill:#e1e2e2" d="M72 54 L71 54 C69.08 50.64 72.69 50.17 72 54 z"/>
<path style="fill:#e6e6e6" d="M69 52 C69.19 52.95 68.41 54.94 70 55 L67 57 L67 53 L69 52 z"/>
<path style="fill:#dfe0e0" d="M22 54 L22 55 L19 57 L19 53 L22 54 z"/>
<path style="fill:#757575" d="M23 55 L22 55 L22 54 L23 55 z"/>
<path style="fill:#5b5c5c" d="M35 60 C33.05 58.57 30.04 56.68 30 54 C31.95 55.43 34.96 57.32 35 60 z"/>
<path style="fill:#191a1a" d="M42 57 L38 56 C38.95 52.44 46.66 53.65 42 57 z"/>
<path style="fill:#1c1c1c" d="M50 56 L46 57 C43.27 54.16 49.7 52.56 50 56 z"/>
<path style="fill:#484848" d="M72 54 L72 55 C70.48 56.81 70.11 57.78 71 60 C70.98 60.66 70.82 62.15 72 62 L72 63 L68 63 L68 62 C69.18 62.15 69.02 60.66 69 60 C69.46 58.65 68.35 57.54 67 58 L67 57 L70 55 L71 54 L72 54 z"/>
<path style="fill:#525252" d="M22 55 C21.33 57.11 23.58 57.21 25 57 C23.35 57.94 22.05 60.18 25 61 C25.06 62.59 27.05 61.81 28 62 L32 63 C28.57 62.97 27.46 65.22 29 68 L25 68 C27.89 63.66 22.96 62.08 21 59 L18 57 L19 57 L22 55 z"/>
<path style="fill:#dcdcdc" d="M23 55 L25 56 L25 57 C23.58 57.21 21.33 57.11 22 55 L23 55 z"/>
<path style="fill:#cbcccc" d="M65 57 L63.25 57.25 C66.9 58.8 60.04 64.31 60 59 L59 59 L62 56 C63.51 56.29 65.5 53.94 65 57 z"/>
<path style="fill:#7d7d7d" d="M26 57 L25 57 L25 56 L26 57 z"/>
<path style="fill:#8f8f8f" d="M18 57 L21 59 C19.65 58.54 18.54 59.65 19 61 L17 59 L17 57 L18 57 z"/>
<path style="fill:#e6e7e7" d="M26 57 L25 61 C22.05 60.18 23.35 57.94 25 57 L26 57 z"/>
<path style="fill:#828282" d="M29 59 C27.41 59.06 28.19 61.05 28 62 C27.05 61.81 25.06 62.59 25 61 L26 57 L29 59 z"/>
<path style="fill:#4b4c4c" d="M65 57 L66 58 C66.18 60.28 63.68 61.94 62 63 C60.52 62.96 60.52 66.04 62 66 L62 68 L59 68 C61.72 63.69 57.05 64.37 55 62 L56 61 C56.98 63.34 61.46 61.88 60 59 C60.04 64.31 66.9 58.8 63.25 57.25 L65 57 z"/>
<path style="fill:#191a1a" d="M42 58 C43.92 58.8 42.84 62.06 42.75 63.75 C41.17 62.79 40.75 60.03 41 58 L42 58 z"/>
<path style="fill:#181919" d="M47 58 C47.16 60.09 46.27 63.03 44.25 63.75 L45 58 L47 58 z"/>
<path style="fill:#494a4a" d="M19 61 L19 63 L16 63 L17 59 L19 61 z"/>
<path style="fill:#e1e1e1" d="M29 59 L33 61 L33 62 L32 63 L28 62 C28.19 61.05 27.41 59.06 29 59 z"/>
<path style="fill:#ededed" d="M59 59 L60 59 C61.46 61.88 56.98 63.34 56 61 L57 60 L59 59 z"/>
<path style="fill:#4f4f4f" d="M39 64 L37 64 L35 63 L35 62 L35 60 L39 64 z"/>
<path style="fill:#787878" d="M57 60 L56 61 L57 60 z"/>
<path style="fill:#969696" d="M69 60 C69.02 60.66 69.18 62.15 68 62 C67.98 61.34 67.82 59.85 69 60 z"/>
<path style="fill:#a6a7a7" d="M72 62 C70.82 62.15 70.98 60.66 71 60 C72.18 59.85 72.02 61.34 72 62 z"/>
<path style="fill:#aeafaf" d="M20 63 L19 63 L19 61 C20.18 60.85 20.02 62.34 20 63 z"/>
<path style="fill:#606060" d="M34 62 L33 62 L33 61 L34 62 z"/>
<path style="fill:#a6a6a6" d="M35 62 L35 63 L34 62 L35 62 z"/>
<path style="fill:#626262" d="M54 62 L53 63 L54 62 z"/>
<path style="fill:#a3a3a3" d="M68 62 L68 63 L67 63 L68 62 z"/>
<path style="fill:#131414" d="M16 63 L19 63 L20 63 L20 65 L17 67 L16 66 C15.68 65.1 13.98 63.27 16 63 z"/>
<path style="fill:#969797" d="M20 65 L20 63 C21.33 62.78 21.33 65.22 20 65 z"/>
<path style="fill:#939393" d="M53 63 L52 64 L53 63 z"/>
<path style="fill:#afb0b0" d="M62 63 L62 66 C60.52 66.04 60.52 62.96 62 63 z"/>
<path style="fill:#1c1c1c" d="M68 63 L72 63 C73.46 64.44 69.1 69.17 68 65 L67 64 L67 63 L68 63 z"/>
<path style="fill:#9e9f9f" d="M39 64 L39 65 C38.34 65.02 36.85 65.18 37 64 L39 64 z"/>
<path style="fill:#a2a2a2" d="M68 65 L67 64 L68 65 z"/>
<path style="fill:#969696" d="M50 65 L49 66 L50 65 z"/>
<path style="fill:#949494" d="M17 67 L16 66 L17 67 z"/>
<path style="fill:#999999" d="M44 67 C45.18 67.84 45.82 67.84 47 67 L48 69 C45.48 71.66 45.53 69.58 43 69 C43.15 67.82 41.66 67.98 41 68 L41 67 C42.18 66.16 42.82 66.16 44 67 z"/>
<path style="fill:#6f6f6f" d="M25 68 L25 70 C23.67 70.22 23.67 67.78 25 68 z"/>
<path style="fill:#040505" d="M29 68 L29 70 L28 71 C28.22 72.33 25.78 72.33 26 71 L25 70 L25 68 L29 68 z"/>
<path style="fill:#5e5f5f" d="M29 70 L29 68 C30.33 67.78 30.33 70.22 29 70 z"/>
<path style="fill:#313131" d="M43 69 L41 73 C38.42 71.67 39.25 70 41 68 C41.66 67.98 43.15 67.82 43 69 z"/>
<path style="fill:#0e0e0e" d="M59 68 L62 68 L63 68 L63 70 L62 71 L62 72 L60 72 L59 71 L58 70 C57.98 69.34 57.82 67.85 59 68 z"/>
<path style="fill:#aaaaaa" d="M63 70 L63 68 C64.33 67.78 64.33 70.22 63 70 z"/>
<path style="fill:#575858" d="M48 69 C51.16 71.94 42.93 75.88 41 73 L43 69 C45.53 69.58 45.48 71.66 48 69 z"/>
<path style="fill:#636363" d="M26 71 L25 70 L26 71 z"/>
<path style="fill:#585858" d="M29 70 L28 71 L29 70 z"/>
<path style="fill:#a4a4a4" d="M59 71 L58 70 L59 71 z"/>
<path style="fill:#818181" d="M63 70 L62 71 L63 70 z"/>
<path style="fill:#737373" d="M60 72 L59 71 L60 72 z"/>
<path style="fill:#969797" d="M62 72 C62.22 73.33 59.78 73.33 60 72 L62 72 z"/>
</svg>
