<?xml version="1.0" standalone="yes"?>
<svg width="87" height="97">
<path style="fill:#fcfdfd" d="M87 0 L87 97 L0 97 L0 0 L87 0 z"/>
<path style="fill:#939393" d="M48 18 L44 17 C44.46 14.9 47.54 17.03 48 18 z"/>
<path style="fill:#858585" d="M44 17 C44.15 18.18 42.66 18.02 42 18 C41.85 16.82 43.34 16.98 44 17 z"/>
<path style="fill:#080808" d="M48 18 L49 18 L50 19 L51 24 C49.05 25.43 46.04 27.32 46 30 L44 30 C43.09 28.65 42.93 26.41 41 26 L40 25 L39 24 L39 19 L42 18 C42.66 18.02 44.15 18.18 44 17 L48 18 z"/>
<path style="fill:#838383" d="M50 19 L49 18 L50 19 z"/>
<path style="fill:#bebfbf" d="M39 19 L39 24 L40 25 L41 26 L41 29 L37 24 L39 19 z"/>
<path style="fill:#a9a9a9" d="M33 23 L32 24 L33 23 z"/>
<path style="fill:#080909" d="M37 24 L41 29 C40.98 29.66 40.82 31.15 42 31 L42 32 L41 33 C39.17 32.77 36.85 33.5 36 35 L31 35 L30 34 L29 33 L29 30 C30.59 29.94 29.81 27.95 30 27 L30 26 L31 25 L32 24 L33 23 L37 24 z"/>
<path style="fill:#808181" d="M57 24 L54 24 C53.96 22.52 57.04 22.52 57 24 z"/>
<path style="fill:#858585" d="M32 24 L31 25 L32 24 z"/>
<path style="fill:#656565" d="M40 25 L39 24 L40 25 z"/>
<path style="fill:#a2a3a3" d="M51 24 L52 25 L48 30 L46 30 C46.04 27.32 49.05 25.43 51 24 z"/>
<path style="fill:#848484" d="M53 24 L52 25 L53 24 z"/>
<path style="fill:#060707" d="M54 24 L57 24 L58 25 L59 26 C59.73 28.8 61.01 32.29 59 35 L58 35 L48 33 L48 30 L52 25 L53 24 L54 24 z"/>
<path style="fill:#9b9b9b" d="M31 25 L30 26 L31 25 z"/>
<path style="fill:#6e6e6e" d="M59 26 L58 25 L59 26 z"/>
<path style="fill:#868787" d="M44 30 C43.34 29.98 41.85 29.82 42 31 C40.82 31.15 40.98 29.66 41 29 L41 26 C42.93 26.41 43.09 28.65 44 30 z"/>
<path style="fill:#888989" d="M59 35 C61.01 32.29 59.73 28.8 59 26 C61.99 26.99 62.31 35 59 35 z"/>
<path style="fill:#575757" d="M30 27 C29.81 27.95 30.59 29.94 29 30 C29.19 29.05 28.41 27.06 30 27 z"/>
<path style="fill:#c7c7c7" d="M44 30 L46 30 L48 30 L48 33 L48 35 L47 35 L46 35 C47.8 33.42 46.5 30.49 44 31 L43 32 L43 34 L43 35 L41 35 L41 33 L42 32 L42 31 C41.85 29.82 43.34 29.98 44 30 z"/>
<path style="fill:#6f6f6f" d="M44 31 L43 32 L44 31 z"/>
<path style="fill:#1a1b1b" d="M46 35 L44 35 L43 34 L43 32 L44 31 C46.5 30.49 47.8 33.42 46 35 z"/>
<path style="fill:#656565" d="M42 32 L41 33 L42 32 z"/>
<path style="fill:#5e5e5e" d="M30 34 L29 33 L30 34 z"/>
<path style="fill:#909090" d="M41 33 L41 35 C40.94 36.59 38.95 35.81 38 36 C38.15 34.82 36.66 34.98 36 35 C36.85 33.5 39.17 32.77 41 33 z"/>
<path style="fill:#a3a3a3" d="M58 35 L55 37 L54 37 L50 36 C49.34 36.02 47.85 36.18 48 35 L48 33 L58 35 z"/>
<path style="fill:#6d6d6d" d="M31 35 L30 34 L31 35 z"/>
<path style="fill:#787878" d="M44 35 C44 36.92 45.8 38.29 44 40 L44 41 L43 35 L43 34 L44 35 z"/>
<path style="fill:#c9caca" d="M36 35 C36.66 34.98 38.15 34.82 38 36 L35 36 L31 35 L36 35 z"/>
<path style="fill:#080909" d="M43 35 L44 41 L44 44 L43 45 C42.37 47.79 39.08 46.87 37 47 L33 44 L33 43 L32 42 L33 38 L34 37 L35 37 C35.95 36.81 37.94 37.59 38 36 C38.95 35.81 40.94 36.59 41 35 L43 35 z"/>
<path style="fill:#9f9f9f" d="M46 35 L47 35 C45.18 37.56 46.31 41 46 44 L44 40 C45.8 38.29 44 36.92 44 35 L46 35 z"/>
<path style="fill:#050505" d="M48 35 C47.85 36.18 49.34 36.02 50 36 L54 37 L55 37 L56 38 L57 39 L57 40 L57 42 L57 43 L55 45 C55.15 46.18 53.66 46.02 53 46 L52 47 L51 47 L48 47 L47 46 L46 45 L46 44 C46.31 41 45.18 37.56 47 35 L48 35 z"/>
<path style="fill:#595a5a" d="M38 36 C37.94 37.59 35.95 36.81 35 37 L35 36 L38 36 z"/>
<path style="fill:#4a4b4b" d="M54 37 L50 36 L54 37 z"/>
<path style="fill:#a3a3a3" d="M34 37 L33 38 L34 37 z"/>
<path style="fill:#7a7a7a" d="M56 38 L55 37 L56 38 z"/>
<path style="fill:#767676" d="M57 39 L56 38 L57 39 z"/>
<path style="fill:#666767" d="M57 42 L57 40 C58.33 39.78 58.33 42.22 57 42 z"/>
<path style="fill:#6a6a6a" d="M33 43 L32 42 L33 43 z"/>
<path style="fill:#afafaf" d="M57 43 C57.46 44.35 56.35 45.46 55 45 L57 43 z"/>
<path style="fill:#a8a8a8" d="M37 47 C34.52 47.79 33.74 45.82 33 44 L37 47 z"/>
<path style="fill:#919191" d="M44 44 L43 45 L44 44 z"/>
<path style="fill:#909090" d="M28 46 L27 46 C26.57 44.94 28.43 44.94 28 46 z"/>
<path style="fill:#7b7b7b" d="M47 46 L46 45 L47 46 z"/>
<path style="fill:#a5a5a5" d="M63 46 L62 46 C61.57 44.94 63.43 44.94 63 46 z"/>
<path style="fill:#7b7b7b" d="M27 46 C27.15 47.18 25.66 47.02 25 47 C24.85 45.82 26.34 45.98 27 46 z"/>
<path style="fill:#080808" d="M28 46 C28.06 47.59 30.05 46.81 31 47 L32 47 L33 48 L33 53 L32 55 L29 58 C29.15 59.18 27.66 59.02 27 59 L24 56 L22 52 L22 48 L25 47 C25.66 47.02 27.15 47.18 27 46 L28 46 z"/>
<path style="fill:#888888" d="M31 47 C30.05 46.81 28.06 47.59 28 46 C28.95 46.19 30.94 45.41 31 47 z"/>
<path style="fill:#606060" d="M48 47 L47 46 L48 47 z"/>
<path style="fill:#666666" d="M53 46 L52 47 L53 46 z"/>
<path style="fill:#959696" d="M62 46 C61.94 47.59 59.95 46.81 59 47 C59.06 45.41 61.05 46.19 62 46 z"/>
<path style="fill:#0a0b0b" d="M63 46 C62.85 47.18 64.34 47.02 65 47 L68 48 L68 52 L67 55 L63 59 L61 59 C60.96 56.32 57.95 54.43 56 53 L57 48 L58 47 L59 47 C59.95 46.81 61.94 47.59 62 46 L63 46 z"/>
<path style="fill:#959696" d="M65 47 C64.34 47.02 62.85 47.18 63 46 C63.66 45.98 65.15 45.82 65 47 z"/>
<path style="fill:#919191" d="M33 48 L32 47 L33 48 z"/>
<path style="fill:#a8a8a8" d="M51 47 C51.04 48.48 47.96 48.48 48 47 L51 47 z"/>
<path style="fill:#989898" d="M58 47 L57 48 L58 47 z"/>
<path style="fill:#7c7d7d" d="M22 48 L22 52 C20.45 51.81 20.45 48.19 22 48 z"/>
<path style="fill:#4c4c4c" d="M33 53 L33 48 C34.6 48.45 34.6 52.55 33 53 z"/>
<path style="fill:#999999" d="M68 52 L68 48 C69.55 48.19 69.55 51.81 68 52 z"/>
<path style="fill:#777878" d="M19 53 L15 53 C15.19 51.45 18.81 51.45 19 53 z"/>
<path style="fill:#7c7d7d" d="M40 53 L37 53 C36.96 51.52 40.04 51.52 40 53 z"/>
<path style="fill:#858585" d="M53 53 L50 53 C49.96 51.52 53.04 51.52 53 53 z"/>
<path style="fill:#a6a6a6" d="M75 53 L71 53 C71.19 51.45 74.81 51.45 75 53 z"/>
<path style="fill:#0a0b0b" d="M15 53 L19 53 L22 56 C22.91 57.35 23.07 59.59 25 60 L25 61 L21 63 L14 64 L12 62 L12 56 L13 55 L14 54 L15 53 z"/>
<path style="fill:#070808" d="M37 53 L40 53 L41 54 L42 55 L42 56 L43 58 L43 59 L43 62 L43 63 L42 64 L34 63 C33.94 61.41 31.95 62.19 31 62 L30 61 L30 60 L33 57 L33 56 L34 55 C34.26 53.71 35.66 52.67 37 53 z"/>
<path style="fill:#6a6a6a" d="M41 54 L40 53 L41 54 z"/>
<path style="fill:#060606" d="M50 53 L53 53 L54 53 L55 54 C61.98 59.67 56.7 64.97 49 64 L48 64 C45.99 61.29 47.27 57.8 48 55 L49 54 L50 53 z"/>
<path style="fill:#7e7e7e" d="M55 54 L54 53 L55 54 z"/>
<path style="fill:#a3a3a3" d="M61 59 C59.82 58.85 59.98 60.34 60 61 L61 64 L52 66 L49 64 C56.7 64.97 61.98 59.67 55 54 L56 53 C57.95 54.43 60.96 56.32 61 59 z"/>
<path style="fill:#5f5f5f" d="M71 53 L70 54 L71 53 z"/>
<path style="fill:#0a0b0b" d="M75 53 L76 54 L77 56 L78 58 L78 63 L77 64 L76 64 L72 64 L70 64 C69.39 62.76 67.44 62.02 66 62 C64.82 62.15 64.98 60.66 65 60 C66.93 59.59 67.09 57.35 68 56 L70 54 L71 53 L75 53 z"/>
<path style="fill:#a9a9a9" d="M76 54 L75 53 L76 54 z"/>
<path style="fill:#828282" d="M14 54 L13 55 L14 54 z"/>
<path style="fill:#868686" d="M42 55 L41 54 L42 55 z"/>
<path style="fill:#696969" d="M49 54 L48 55 L49 54 z"/>
<path style="fill:#949595" d="M32 55 C31.98 55.66 31.82 57.15 33 57 L30 60 C30.02 59.34 30.18 57.85 29 58 L32 55 z"/>
<path style="fill:#6f6f6f" d="M34 55 L33 56 L34 55 z"/>
<path style="fill:#898a8a" d="M48 55 C47.27 57.8 45.99 61.29 48 64 C44.69 64 45.01 55.99 48 55 z"/>
<path style="fill:#9c9c9c" d="M67 55 L68 56 C67.09 57.35 66.93 59.59 65 60 C65.15 58.82 63.66 58.98 63 59 L67 55 z"/>
<path style="fill:#b2b3b3" d="M12 56 L12 62 C10.38 61.27 10.38 56.73 12 56 z"/>
<path style="fill:#959696" d="M24 56 L27 59 C26.34 58.98 24.85 58.82 25 60 C23.07 59.59 22.91 57.35 22 56 L24 56 z"/>
<path style="fill:#868686" d="M43 58 L42 56 C43.56 55.1 45.02 57.81 43 58 z"/>
<path style="fill:#afb0b0" d="M78 58 L77 56 C78.56 55.1 80.02 57.81 78 58 z"/>
<path style="fill:#d4d4d4" d="M30 60 L30 61 L29 61 C29.04 59.52 25.96 59.52 26 61 L25 61 L25 60 C24.85 58.82 26.34 58.98 27 59 C27.66 59.02 29.15 59.18 29 58 C30.18 57.85 30.02 59.34 30 60 z"/>
<path style="fill:#8c8c8c" d="M43 62 L43 59 C44.48 58.96 44.48 62.04 43 62 z"/>
<path style="fill:#c1c2c2" d="M61 59 L63 59 C63.66 58.98 65.15 58.82 65 60 C64.98 60.66 64.82 62.15 66 62 L66 64 C65.34 63.98 63.85 63.82 64 65 L61 67 L61 64 C65.81 64.7 63.29 57.55 60 61 C59.98 60.34 59.82 58.85 61 59 z"/>
<path style="fill:#1d1e1e" d="M29 61 L29 63 L29 64 C27.31 64.41 25.59 62.69 26 61 C25.96 59.52 29.04 59.52 29 61 z"/>
<path style="fill:#191919" d="M61 64 L60 61 C63.29 57.55 65.81 64.7 61 64 z"/>
<path style="fill:#9d9d9d" d="M25 61 L26 61 C25.59 62.69 27.31 64.41 29 64 L29 69 L28 69 L27 70 C25.07 67.75 27.12 61.92 22 65 L21 63 L25 61 z"/>
<path style="fill:#808080" d="M30 61 L31 62 L29 63 L29 61 L30 61 z"/>
<path style="fill:#dadada" d="M31 62 L31 64 L29 64 L29 63 L31 62 z"/>
<path style="fill:#777777" d="M34 63 L37 66 C34.84 66.22 32.07 65.86 31 64 L31 62 C31.95 62.19 33.94 61.41 34 63 z"/>
<path style="fill:#888888" d="M70 64 L71 66 C69.17 66.23 66.85 65.5 66 64 L66 62 C67.44 62.02 69.39 62.76 70 64 z"/>
<path style="fill:#c2c3c3" d="M21 63 L22 65 L17 66 L14 64 L21 63 z"/>
<path style="fill:#bdbdbd" d="M42 64 L38 66 L37 66 L34 63 L42 64 z"/>
<path style="fill:#9e9e9e" d="M43 63 L42 64 L43 63 z"/>
<path style="fill:#aaaaaa" d="M78 63 L77 64 L78 63 z"/>
<path style="fill:#0c0c0c" d="M27 70 L26 74 L25 75 C21.77 77.67 16.35 74.8 15 71 L15 69 L15 68 L16 67 L17 66 L22 65 C27.12 61.92 25.07 67.75 27 70 z"/>
<path style="fill:#060606" d="M31 64 C32.07 65.86 34.84 66.22 37 66 L38 66 L39 67 L40 68 L40 69 L40 71 L39 73 C37.65 72.54 36.54 73.65 37 75 C34.91 75.14 31.41 77.53 30 75 L29 74 L29 73 L29 69 L29 64 L31 64 z"/>
<path style="fill:#090a0a" d="M61 64 L61 67 L61 68 L61 73 L61 74 L60 75 L59 76 L56 76 C54.56 75.98 52.61 75.24 52 74 L50 72 L50 68 L51 67 L52 66 L61 64 z"/>
<path style="fill:#070808" d="M66 64 C66.85 65.5 69.17 66.23 71 66 L72 66 L73 67 L74 68 L75 69 L75 71 L74 72 L74 73 L70 76 L68 76 L65 76 L64 75 L63 70 L64 65 C63.85 63.82 65.34 63.98 66 64 z"/>
<path style="fill:#878787" d="M76 64 C75.81 65.55 72.19 65.55 72 64 L76 64 z"/>
<path style="fill:#676868" d="M64 65 L63 70 L63 69 C63.15 67.82 61.66 67.98 61 68 L61 67 L64 65 z"/>
<path style="fill:#7e7e7e" d="M17 66 L16 67 L17 66 z"/>
<path style="fill:#888888" d="M39 67 L38 66 L39 67 z"/>
<path style="fill:#707070" d="M52 66 L51 67 L52 66 z"/>
<path style="fill:#646464" d="M73 67 L72 66 L73 67 z"/>
<path style="fill:#818181" d="M16 67 L15 68 L16 67 z"/>
<path style="fill:#969696" d="M40 68 L39 67 L40 68 z"/>
<path style="fill:#727272" d="M51 67 L50 68 L51 67 z"/>
<path style="fill:#797a7a" d="M50 68 L50 72 C48.45 71.81 48.45 68.19 50 68 z"/>
<path style="fill:#a5a6a6" d="M63 69 L61 73 L61 68 C61.66 67.98 63.15 67.82 63 69 z"/>
<path style="fill:#6b6b6b" d="M75 69 L74 68 L75 69 z"/>
<path style="fill:#9e9f9f" d="M15 69 L15 71 C13.67 71.22 13.67 68.78 15 69 z"/>
<path style="fill:#515151" d="M29 69 L29 73 L28 69 L29 69 z"/>
<path style="fill:#9d9d9d" d="M40 71 L40 69 C41.33 68.78 41.33 71.22 40 71 z"/>
<path style="fill:#646464" d="M75 71 L74 72 L75 71 z"/>
<path style="fill:#9a9a9a" d="M52 74 C50.65 74.46 49.54 73.35 50 72 L52 74 z"/>
<path style="fill:#6e6e6e" d="M39 73 L37 75 C36.54 73.65 37.65 72.54 39 73 z"/>
<path style="fill:#a3a3a3" d="M74 73 C73.26 74.82 72.48 76.79 70 76 L74 73 z"/>
<path style="fill:#6f6f6f" d="M26 74 L25 75 L26 74 z"/>
<path style="fill:#5d5d5d" d="M30 75 L29 74 L30 75 z"/>
<path style="fill:#929292" d="M61 74 L60 75 L61 74 z"/>
<path style="fill:#666666" d="M60 75 L59 76 L60 75 z"/>
<path style="fill:#a1a1a1" d="M65 76 L64 75 L65 76 z"/>
<path style="fill:#a3a3a3" d="M59 76 C59.04 77.48 55.96 77.48 56 76 L59 76 z"/>
<path style="fill:#959696" d="M68 76 C68.04 77.48 64.96 77.48 65 76 L68 76 z"/>
</svg>
