<?xml version="1.0" standalone="yes"?>
<svg width="87" height="97">
<path style="fill:#fdfdfd" d="M87 0 L87 97 L0 97 L0 0 L87 0 z"/>
<path style="fill:#adaeae" d="M47 16 L43 16 C43.19 14.45 46.81 14.45 47 16 z"/>
<path style="fill:#7d7d7d" d="M39 16 L40 17 L40 18 L34 18 C34.85 16.5 37.17 15.77 39 16 z"/>
<path style="fill:#040404" d="M43 16 L47 16 L51 16 C50.85 17.18 52.34 17.02 53 17 L54 17 C53.85 18.18 55.34 18.02 56 18 L57 18 L58 19 L59 19 L60 20 L62 21 L63 22 L70 29 L71 30 L71 31 L72 32 L74 37 C73.98 37.66 73.82 39.15 75 39 L75 40 L76 44 L76 51 C74.82 50.85 74.98 52.34 75 53 L75 54 L71 60 L66 64 L64 65 C63.34 64.98 61.85 64.82 62 66 L60 66 L54 66 L53 66 C53.15 64.82 51.66 64.98 51 65 L49 64 L48 63 L47 61 L46 60 C46.02 59.34 46.18 57.85 45 58 L45 53 C46.18 53.15 46.02 51.66 46 51 L46 50 L47 49 L48 47 L49 46 L51 45 C51.66 45.02 53.15 45.18 53 44 L54 44 L60 43 L60 42 L61 41 L61 35 L60 31 L60 30 L59 29 L58 27 L57 26 L54 23 L53 22 L52 21 L51 21 C48.25 18.51 43.97 16.92 40 17 L39 16 L43 16 z"/>
<path style="fill:#a2a2a2" d="M53 17 C52.34 17.02 50.85 17.18 51 16 C51.66 15.98 53.15 15.82 53 17 z"/>
<path style="fill:#afb0b0" d="M51 21 L50 22 C46.99 20.08 43.67 18.26 40 18 L40 17 C43.97 16.92 48.25 18.51 51 21 z"/>
<path style="fill:#919191" d="M56 18 C55.34 18.02 53.85 18.18 54 17 C54.66 16.98 56.15 16.82 56 18 z"/>
<path style="fill:#040404" d="M34 18 L40 18 C43.67 18.26 46.99 20.08 50 22 L51 23 L52 24 L53 25 L54 27 L55 28 L55 29 C54.98 29.66 54.82 31.15 56 31 C56.37 34.3 55.83 37.34 54 40 L53 41 L52 42 L51 43 L48 44 L41 44 L37 42 L36 41 L35 39 L34 38 L34 37 C33.81 35.45 30.19 35.45 30 37 L25 39 L24 40 L23 41 L22 42 L21 44 L20 45 L20 46 L19 47 L19 48 C17.82 47.85 17.98 49.34 18 50 L18 51 C16.35 52.66 16.35 58.34 18 60 L19 65 L19 66 L18 66 L18 65 L17 64 L15 60 C15.02 59.34 15.18 57.85 14 58 L14 56 C13.81 55.05 14.59 53.06 13 53 L13 42 L13 40 C14.18 40.15 14.02 38.66 14 38 C15.18 38.15 15.02 36.66 15 36 L17 31 L18 30 L19 28 L20 27 L21 26 L22 25 L23 24 L24 23 L25 22 L27 21 L28 20 L29 20 L30 19 L34 18 z"/>
<path style="fill:#9a9a9a" d="M58 19 L57 18 L58 19 z"/>
<path style="fill:#757575" d="M30 19 L29 20 L30 19 z"/>
<path style="fill:#a5a5a5" d="M60 20 L59 19 L60 20 z"/>
<path style="fill:#969696" d="M28 20 L27 21 L28 20 z"/>
<path style="fill:#eeefef" d="M51 21 L52 21 L53 22 L54 23 L57 26 L58 27 L59 29 L60 30 L60 31 L61 35 L61 41 L60 42 L60 43 L54 44 L53 44 C52.34 43.98 50.85 43.82 51 45 L49 46 L48 47 L47 49 L46 50 L46 51 C44.82 50.85 44.98 52.34 45 53 L45 58 C44.98 58.66 44.82 60.15 46 60 L47 61 L48 63 L49 64 L51 65 C50.85 66.18 52.34 66.02 53 66 L54 66 C54.73 67.62 59.27 67.62 60 66 L62 66 C62.66 66.02 64.15 66.18 64 65 L66 64 L67 65 L66 66 C63.12 67.42 60.29 68.98 57 69 C56.34 68.98 54.85 68.82 55 70 C50.91 70.45 47.44 68.77 44 67 L43 66 L42 65 L41 64 L40 63 L40 62 L41 61 L42 60 L43 51 C43.02 50.34 43.18 48.85 42 49 L41 48 L38 45 L37 44 C34.74 42.29 31.69 43.23 29 43 C28.34 42.98 26.85 42.82 27 44 L24 46 L23 47 L22 48 L22 49 L21 50 L21 51 L20 52 L20 53 L19 60 L18 60 L18 51 L18 50 C19.18 50.15 19.02 48.66 19 48 L19 47 L20 46 L20 45 L21 44 L22 42 L23 41 L24 40 L25 39 L30 37 L34 37 L34 38 L35 39 L36 41 L37 42 L41 44 C42.03 45.64 46.97 45.64 48 44 L51 43 L52 42 L53 41 L54 40 C55.83 37.34 56.37 34.3 56 31 C56.02 30.34 56.18 28.85 55 29 L55 28 L54 27 L53 25 L52 24 L51 23 L50 22 L51 21 z"/>
<path style="fill:#686868" d="M53 22 L52 21 L53 22 z"/>
<path style="fill:#7a7a7a" d="M63 22 L62 21 L63 22 z"/>
<path style="fill:#949494" d="M25 22 L24 23 L25 22 z"/>
<path style="fill:#6a6a6a" d="M51 23 L50 22 L51 23 z"/>
<path style="fill:#848484" d="M54 23 L53 22 L54 23 z"/>
<path style="fill:#8b8b8b" d="M24 23 L23 24 L24 23 z"/>
<path style="fill:#6f6f6f" d="M52 24 L51 23 L52 24 z"/>
<path style="fill:#727272" d="M23 24 L22 25 L23 24 z"/>
<path style="fill:#797979" d="M53 25 L52 24 L53 25 z"/>
<path style="fill:#6a6a6a" d="M22 25 L21 26 L22 25 z"/>
<path style="fill:#808080" d="M21 26 L20 27 L21 26 z"/>
<path style="fill:#858585" d="M58 27 L57 26 L58 27 z"/>
<path style="fill:#959595" d="M20 27 L19 28 L20 27 z"/>
<path style="fill:#747474" d="M55 28 L54 27 L55 28 z"/>
<path style="fill:#676767" d="M56 31 C54.82 31.15 54.98 29.66 55 29 C56.18 28.85 56.02 30.34 56 31 z"/>
<path style="fill:#747474" d="M60 30 L59 29 L60 30 z"/>
<path style="fill:#898989" d="M71 30 L70 29 L71 30 z"/>
<path style="fill:#757575" d="M18 30 L17 31 L18 30 z"/>
<path style="fill:#a1a1a1" d="M61 35 L60 31 L61 35 z"/>
<path style="fill:#5e5e5e" d="M72 32 L71 31 L72 32 z"/>
<path style="fill:#5a5a5a" d="M15 36 C15.02 36.66 15.18 38.15 14 38 C13.98 37.34 13.82 35.85 15 36 z"/>
<path style="fill:#777777" d="M34 37 L30 37 C30.19 35.45 33.81 35.45 34 37 z"/>
<path style="fill:#6e6f6f" d="M75 39 C73.82 39.15 73.98 37.66 74 37 C75.18 36.85 75.02 38.34 75 39 z"/>
<path style="fill:#a2a3a3" d="M14 38 C14.02 38.66 14.18 40.15 13 40 C12.98 39.34 12.82 37.85 14 38 z"/>
<path style="fill:#7e7e7e" d="M35 39 L34 38 L35 39 z"/>
<path style="fill:#696969" d="M25 39 L24 40 L25 39 z"/>
<path style="fill:#787878" d="M24 40 L23 41 L24 40 z"/>
<path style="fill:#707070" d="M54 40 L53 41 L54 40 z"/>
<path style="fill:#7c7d7d" d="M76 44 L75 40 L76 44 z"/>
<path style="fill:#797979" d="M23 41 L22 42 L23 41 z"/>
<path style="fill:#888888" d="M37 42 L36 41 L37 42 z"/>
<path style="fill:#5e5e5e" d="M61 41 L60 42 L61 41 z"/>
<path style="fill:#a8a9a9" d="M13 42 L13 53 C11.34 50.69 11.34 44.31 13 42 z"/>
<path style="fill:#707070" d="M52 42 L51 43 L52 42 z"/>
<path style="fill:#828282" d="M29 43 C29.15 44.18 27.66 44.02 27 44 C26.85 42.82 28.34 42.98 29 43 z"/>
<path style="fill:#040404" d="M37 44 L38 45 L41 48 L42 49 C41.98 49.66 41.82 51.15 43 51 L42 60 L41 61 L40 62 L40 63 L41 64 L42 65 L43 66 L44 67 C47.44 68.77 50.91 70.45 55 70 C55.66 70.02 57.15 70.18 57 69 C60.29 68.98 63.12 67.42 66 66 L67 65 L72 60 L73 61 L73 62 L72 63 L71 65 L70 66 L68 69 L67 70 L66 71 L63 73 L62 74 L60 75 L59 76 L58 76 L57 77 L56 77 C55.34 76.98 53.85 76.82 54 78 L52 78 C51.34 77.98 49.85 77.82 50 79 L39 79 L37 79 C37.15 77.82 35.66 77.98 35 78 C35.15 76.82 33.66 76.98 33 77 L30 76 L29 75 L28 75 L27 74 L24 71 L20 65 L20 62 L20 53 L20 52 L21 51 L21 50 L22 49 L22 48 L23 47 L24 46 L27 44 C27.66 44.02 29.15 44.18 29 43 C31.69 43.23 34.74 42.29 37 44 z"/>
<path style="fill:#9e9f9f" d="M60 43 L54 44 L60 43 z"/>
<path style="fill:#999999" d="M21 44 L20 45 L21 44 z"/>
<path style="fill:#6a6a6a" d="M38 45 L37 44 L38 45 z"/>
<path style="fill:#525252" d="M48 44 C46.97 45.64 42.03 45.64 41 44 L48 44 z"/>
<path style="fill:#595a5a" d="M53 44 C53.15 45.18 51.66 45.02 51 45 C50.85 43.82 52.34 43.98 53 44 z"/>
<path style="fill:#8f8f8f" d="M20 46 L19 47 L20 46 z"/>
<path style="fill:#797979" d="M24 46 L23 47 L24 46 z"/>
<path style="fill:#959595" d="M49 46 L48 47 L49 46 z"/>
<path style="fill:#969696" d="M23 47 L22 48 L23 47 z"/>
<path style="fill:#686969" d="M19 48 C19.02 48.66 19.18 50.15 18 50 C17.98 49.34 17.82 47.85 19 48 z"/>
<path style="fill:#595959" d="M42 49 L41 48 L42 49 z"/>
<path style="fill:#696969" d="M22 49 L21 50 L22 49 z"/>
<path style="fill:#858585" d="M43 51 C41.82 51.15 41.98 49.66 42 49 C43.18 48.85 43.02 50.34 43 51 z"/>
<path style="fill:#646464" d="M47 49 L46 50 L47 49 z"/>
<path style="fill:#393939" d="M18 51 L18 60 C16.35 58.34 16.35 52.66 18 51 z"/>
<path style="fill:#5c5c5c" d="M21 51 L20 52 L21 51 z"/>
<path style="fill:#555656" d="M46 51 C46.02 51.66 46.18 53.15 45 53 C44.98 52.34 44.82 50.85 46 51 z"/>
<path style="fill:#7a7a7a" d="M76 51 C76.02 51.66 76.18 53.15 75 53 C74.98 52.34 74.82 50.85 76 51 z"/>
<path style="fill:#5a5a5a" d="M14 56 C12.41 55.94 13.19 53.95 13 53 C14.59 53.06 13.81 55.05 14 56 z"/>
<path style="fill:#555555" d="M20 53 L20 62 C18.82 62.15 18.98 60.66 19 60 L20 53 z"/>
<path style="fill:#6e6f6f" d="M75 54 C75.14 56.46 74.58 59.52 73 61 L72 60 L71 60 L75 54 z"/>
<path style="fill:#9e9e9e" d="M15 60 C13.82 60.15 13.98 58.66 14 58 C15.18 57.85 15.02 59.34 15 60 z"/>
<path style="fill:#9c9d9d" d="M46 60 C44.82 60.15 44.98 58.66 45 58 C46.18 57.85 46.02 59.34 46 60 z"/>
<path style="fill:#adadad" d="M19 60 C18.98 60.66 18.82 62.15 20 62 L20 65 L19 65 L18 60 L19 60 z"/>
<path style="fill:#9c9c9c" d="M42 60 L41 61 L42 60 z"/>
<path style="fill:#606060" d="M47 61 L46 60 L47 61 z"/>
<path style="fill:#9fa0a0" d="M71 60 L72 60 L67 65 L66 64 L71 60 z"/>
<path style="fill:#727272" d="M41 61 L40 62 L41 61 z"/>
<path style="fill:#a8a8a8" d="M73 62 L72 63 L73 62 z"/>
<path style="fill:#777777" d="M41 64 L40 63 L41 64 z"/>
<path style="fill:#959595" d="M49 64 L48 63 L49 64 z"/>
<path style="fill:#6c6c6c" d="M18 65 L17 64 L18 65 z"/>
<path style="fill:#8a8a8a" d="M42 65 L41 64 L42 65 z"/>
<path style="fill:#727272" d="M20 65 L24 71 C21.72 71.18 20.06 68.68 19 67 C20.06 67.43 20.06 65.57 19 66 L19 65 L20 65 z"/>
<path style="fill:#979797" d="M43 66 L42 65 L43 66 z"/>
<path style="fill:#646464" d="M53 66 C52.34 66.02 50.85 66.18 51 65 C51.66 64.98 53.15 64.82 53 66 z"/>
<path style="fill:#7f8080" d="M64 65 C64.15 66.18 62.66 66.02 62 66 C61.85 64.82 63.34 64.98 64 65 z"/>
<path style="fill:#6d6d6d" d="M67 65 L66 66 L67 65 z"/>
<path style="fill:#777777" d="M71 65 L70 66 L71 65 z"/>
<path style="fill:#9d9d9d" d="M19 66 L19 67 L18 66 L19 66 z"/>
<path style="fill:#1c1c1c" d="M19 67 L19 66 C20.06 65.57 20.06 67.43 19 67 z"/>
<path style="fill:#808080" d="M44 67 L43 66 L44 67 z"/>
<path style="fill:#787979" d="M60 66 C59.27 67.62 54.73 67.62 54 66 L60 66 z"/>
<path style="fill:#9e9e9e" d="M57 69 C57.15 70.18 55.66 70.02 55 70 C54.85 68.82 56.34 68.98 57 69 z"/>
<path style="fill:#a4a4a4" d="M68 69 L67 70 L68 69 z"/>
<path style="fill:#9b9b9b" d="M67 70 L66 71 L67 70 z"/>
<path style="fill:#737373" d="M63 73 L62 74 L63 73 z"/>
<path style="fill:#747474" d="M28 75 L27 74 L28 75 z"/>
<path style="fill:#5b5b5b" d="M30 76 L29 75 L30 76 z"/>
<path style="fill:#848484" d="M60 75 L59 76 L60 75 z"/>
<path style="fill:#868686" d="M58 76 L57 77 L58 76 z"/>
<path style="fill:#5e5f5f" d="M35 78 C34.34 78.02 32.85 78.18 33 77 C33.66 76.98 35.15 76.82 35 78 z"/>
<path style="fill:#787878" d="M56 77 C56.15 78.18 54.66 78.02 54 78 C53.85 76.82 55.34 76.98 56 77 z"/>
<path style="fill:#ababab" d="M37 79 C36.34 79.02 34.85 79.18 35 78 C35.66 77.98 37.15 77.82 37 79 z"/>
<path style="fill:#5a5a5a" d="M52 78 C52.15 79.18 50.66 79.02 50 79 C49.85 77.82 51.34 77.98 52 78 z"/>
<path style="fill:#b8b8b8" d="M50 79 C47.69 80.66 41.31 80.66 39 79 L50 79 z"/>
</svg>
