<?xml version="1.0" standalone="yes"?>
<svg width="87" height="97">
<path style="fill:#fdfdfd" d="M87 0 L87 97 L0 97 L0 0 L87 0 z"/>
<path style="fill:#818181" d="M46 21 L44 21 C43.78 19.67 46.22 19.67 46 21 z"/>
<path style="fill:#797a7a" d="M44 21 C44.15 22.18 42.66 22.02 42 22 C41.85 20.82 43.34 20.98 44 21 z"/>
<path style="fill:#0b0b0b" d="M46 21 L48 22 L49 23 L50 23 L51 24 L52 24 L53 25 L54 26 L55 26 C54.85 27.18 56.34 27.02 57 27 L58 28 L57 44 L47 50 L43 50 L42 49 L31 44 L31 28 C31.66 28.02 33.15 28.18 33 27 L34 27 L35 26 L36 25 L37 25 L38 24 L39 24 L40 23 L41 23 L42 22 C42.66 22.02 44.15 22.18 44 21 L46 21 z"/>
<path style="fill:#6e6e6e" d="M42 22 L41 23 L42 22 z"/>
<path style="fill:#6c6c6c" d="M49 23 L48 22 L49 23 z"/>
<path style="fill:#8c8c8c" d="M40 23 L39 24 L40 23 z"/>
<path style="fill:#727272" d="M51 24 L50 23 L51 24 z"/>
<path style="fill:#9b9b9b" d="M38 24 L37 25 L38 24 z"/>
<path style="fill:#a5a5a5" d="M53 25 L52 24 L53 25 z"/>
<path style="fill:#a6a6a6" d="M36 25 L35 26 L36 25 z"/>
<path style="fill:#7f7f7f" d="M54 26 L53 25 L54 26 z"/>
<path style="fill:#737373" d="M35 26 L34 27 L35 26 z"/>
<path style="fill:#585858" d="M48 28 C47.34 28.02 45.85 28.18 46 27 C47.16 26.07 48.45 25.98 48 28 z"/>
<path style="fill:#a8a9a9" d="M57 27 C56.34 27.02 54.85 27.18 55 26 C55.66 25.98 57.15 25.82 57 27 z"/>
<path style="fill:#9b9c9c" d="M33 27 C33.15 28.18 31.66 28.02 31 28 C30.85 26.82 32.34 26.98 33 27 z"/>
<path style="fill:#454545" d="M42 28 L42 29 L39 30 C36.44 27.37 40.03 25.98 42 28 z"/>
<path style="fill:#c9caca" d="M46 27 C45.85 28.18 47.34 28.02 48 28 L48 29 L48 30 C45.91 29.77 43.93 28.07 42 30 L42 29 L42 28 L46 27 z"/>
<path style="fill:#707070" d="M58 28 L57 27 L58 28 z"/>
<path style="fill:#484848" d="M53 40 C52.81 39.05 53.59 37.06 52 37 L52 35 C55.22 32.81 51.14 30.83 50 29 C56.99 25.46 54.14 36.86 53 40 z"/>
<path style="fill:#d2d2d2" d="M61 45 L57 45 L57 44 L58 28 C61.28 32.31 56.19 41.58 61 45 z"/>
<path style="fill:#f3f3f3" d="M42 29 L42 30 L41 31 L41 32 C40.34 31.98 38.85 31.82 39 33 C37.82 32.85 37.98 34.34 38 35 L37 31 L39 30 L42 29 z"/>
<path style="fill:#131414" d="M48 30 L49 31 L49 32 L48 33 L47 34 C45.12 33.86 47.14 35.88 47 34 L48 33 L49 32 L50 32 L51 33 C50.98 33.66 50.82 35.15 52 35 L52 37 L51 39 L48 39 L47 38 L46.75 36.25 C42.8 38.2 45.64 32.58 41 32 L41 31 L42 30 C43.93 28.07 45.91 29.77 48 30 z"/>
<path style="fill:#ebebeb" d="M50 29 C51.14 30.83 55.22 32.81 52 35 C52.02 34.34 52.18 32.85 51 33 L50 32 L49 32 L49 31 L48 30 L48 29 L50 29 z"/>
<path style="fill:#232424" d="M35 30 L35 41 C33.34 38.69 33.34 32.31 35 30 z"/>
<path style="fill:#909191" d="M36 31 L35 41 L35 30 L36 31 z"/>
<path style="fill:#8d8d8d" d="M42 30 L41 31 L42 30 z"/>
<path style="fill:#848484" d="M49 31 L48 30 L49 31 z"/>
<path style="fill:#3c3d3d" d="M37 31 L38 35 L38 37 L37 41 L36 42 L35 41 L36 31 L37 31 z"/>
<path style="fill:#b3b3b3" d="M41 32 C45.64 32.58 42.8 38.2 46.75 36.25 L47 38 L43 38 C43.62 35.61 41.46 32.81 39 33 C38.85 31.82 40.34 31.98 41 32 z"/>
<path style="fill:#cccccc" d="M49 32 L48 33 L49 32 z"/>
<path style="fill:#838383" d="M51 33 L50 32 L51 33 z"/>
<path style="fill:#868686" d="M39 33 C39.02 33.66 39.18 35.15 38 35 C37.98 34.34 37.82 32.85 39 33 z"/>
<path style="fill:#0b0b0b" d="M43 38 C41.08 38 39.71 39.8 38 38 L38 37 L38 35 C39.18 35.15 39.02 33.66 39 33 C41.46 32.81 43.62 35.61 43 38 z"/>
<path style="fill:#bdbdbd" d="M48 33 L47 34 L48 33 z"/>
<path style="fill:#8a8a8a" d="M52 35 C50.82 35.15 50.98 33.66 51 33 C52.18 32.85 52.02 34.34 52 35 z"/>
<path style="fill:#c5c5c5" d="M47 34 C47.14 35.88 45.12 33.86 47 34 z"/>
<path style="fill:#dfe0e0" d="M38 37 L38 38 C37.33 40.11 39.58 40.21 41 40 L44 44 L37 41 L38 37 z"/>
<path style="fill:#e1e1e1" d="M53 40 L53 41 L49 42 L51 39 L52 37 C53.59 37.06 52.81 39.05 53 40 z"/>
<path style="fill:#989898" d="M43 38 L41 40 C39.58 40.21 37.33 40.11 38 38 C39.71 39.8 41.08 38 43 38 z"/>
<path style="fill:#121212" d="M47 38 L48 39 C48.85 41.33 46.91 41.74 46 43 L45 44 L44 44 L41 40 L43 38 L47 38 z"/>
<path style="fill:#cccccc" d="M48 39 L47 38 L48 39 z"/>
<path style="fill:#bcbdbd" d="M51 39 L49 42 L47 44 L46 44 L46 43 C46.91 41.74 48.85 41.33 48 39 L51 39 z"/>
<path style="fill:#282828" d="M44 44 L44 45 L43 45 L42 45 L41 45 L40 44 C38.56 43.98 36.61 43.24 36 42 L37 41 L44 44 z"/>
<path style="fill:#333333" d="M53 41 C58.71 40.83 46.53 47.74 47 44 L49 42 L53 41 z"/>
<path style="fill:#686868" d="M46 43 L46 44 L45 44 L46 43 z"/>
<path style="fill:#c9c9c9" d="M31 44 L42 49 L43 50 L47 50 L48 51 L45 52 L44 52 L36 48 L35 47 L29 45 C28.85 43.82 30.34 43.98 31 44 z"/>
<path style="fill:#828282" d="M41 45 L40 44 L41 45 z"/>
<path style="fill:#c9c9c9" d="M45 44 L46 44 C46.15 45.18 44.66 45.02 44 45 L44 44 L45 44 z"/>
<path style="fill:#b5b5b5" d="M57 44 L57 45 L48 51 L47 50 L57 44 z"/>
<path style="fill:#0b0c0c" d="M35 47 L36 48 L44 52 L44 67 L43 68 C42.34 67.98 40.85 67.82 41 69 L40 70 L39 70 L38 71 L34 73 L33 74 C30.71 76.13 28.2 74.06 26 73 L25 72 L24 71 L23 71 C23.15 69.82 21.66 69.98 21 70 L20 69 C20.15 67.82 18.66 67.98 18 68 L17 67 C14.38 55.94 19.01 48.12 29 45 L35 47 z"/>
<path style="fill:#7f7f7f" d="M43 45 C43.43 46.06 41.57 46.06 42 45 L43 45 z"/>
<path style="fill:#0d0d0d" d="M61 45 C61.68 46.97 64.15 47.8 66 48 L67 49 C75.95 50.5 72.34 60.42 73 67 L72 68 L70 69 C69.34 68.98 67.85 68.82 68 70 L67 71 L66 71 L65 72 C61.67 73.84 58.33 76.15 55 73 L54 72 L53 72 L52 71 L51 71 L50 70 C50.15 68.82 48.66 68.98 48 69 C48.15 67.82 46.66 67.98 46 68 L45 52 L48 51 L57 45 L61 45 z"/>
<path style="fill:#b4b4b4" d="M45 46 C46.88 45.86 44.86 47.88 45 46 z"/>
<path style="fill:#6c6c6c" d="M36 48 L35 47 L36 48 z"/>
<path style="fill:#6d6d6d" d="M31 51 L30 51 C29.32 47.75 31.68 47.75 31 51 z"/>
<path style="fill:#2a2a2a" d="M62 50 L63 51 C64.34 50.67 65.74 51.71 66 53 L65 54 L64 54 C63.1 51.79 60.25 50.85 58 51 C55.73 47.66 60.6 47.72 62 50 z"/>
<path style="fill:#a7a7a7" d="M67 49 L66 48 L67 49 z"/>
<path style="fill:#454545" d="M29 51 L26 53 C24.46 50.68 29.63 47.39 29 51 z"/>
<path style="fill:#282929" d="M35 51 L36 52 C37.44 52.02 39.39 52.76 40 54 L38 55 L37 54 L36 54 L35 53 L32 51 C31.63 47.61 33.68 50.51 35 51 z"/>
<path style="fill:#626262" d="M43 50 L42 49 L43 50 z"/>
<path style="fill:#3f3f3f" d="M56 52 L51 55 C49.4 52.32 56.51 48.4 56 52 z"/>
<path style="fill:#979797" d="M63 51 L62 50 L63 51 z"/>
<path style="fill:#ebebeb" d="M30 51 L31 51 L32 51 L35 53 L36 54 L37 54 L38 55 L38 59 C36.82 59.15 36.98 57.66 37 57 C36.94 55.41 34.95 56.19 34 56 C33.55 52.18 28.7 51.62 27 55 L25 57 L24 58 C21.95 57.54 23.38 55.07 24 54 L25 54 L26 53 L29 51 L30 51 z"/>
<path style="fill:#9f9f9f" d="M36 52 L35 51 L36 52 z"/>
<path style="fill:#c6c6c6" d="M58 51 C60.25 50.85 63.1 51.79 64 54 L63 54 L62 54 L58 52 L57 52 L58 51 z"/>
<path style="fill:#111111" d="M34 56 C31.92 58.54 28.11 58.52 27 55 C28.7 51.62 33.55 52.18 34 56 z"/>
<path style="fill:#eeefef" d="M57 52 L58 52 L55 56 C54.34 55.98 52.85 55.82 53 57 L52 58 L52 59 L51 55 L56 52 L57 52 z"/>
<path style="fill:#111212" d="M62 54 C63.15 58.84 57.08 58.86 55 56 L58 52 L62 54 z"/>
<path style="fill:#878888" d="M24 54 C23.38 55.07 21.95 57.54 24 58 C22.92 59.36 22.92 60.64 24 62 C22.41 62.06 23.19 64.05 23 65 C21.75 63.19 20.36 52.2 24 54 z"/>
<path style="fill:#8e8e8e" d="M26 53 L25 54 L26 53 z"/>
<path style="fill:#989898" d="M36 54 L35 53 L36 54 z"/>
<path style="fill:#454646" d="M64 67 C66.47 64.84 67.81 62.81 67 59 C67.59 56.55 66.58 55.15 65 54 L66 53 C71.67 53.75 70.19 70.42 64 67 z"/>
<path style="fill:#808080" d="M38 55 L37 54 L38 55 z"/>
<path style="fill:#4a4a4a" d="M40 54 C42.67 57.2 41.25 71.1 36 66 C37.58 64.85 38.59 63.45 38 61 L38 59 L38 55 L40 54 z"/>
<path style="fill:#2a2b2b" d="M49 54 L49 65 C47.34 62.69 47.34 56.31 49 54 z"/>
<path style="fill:#868686" d="M50 55 L50 66 L49 65 L49 54 L50 55 z"/>
<path style="fill:#999a9a" d="M63 54 L65 57 C62.54 56.81 60.38 59.61 61 62 L58 60 L57 59 L53 57 C52.85 55.82 54.34 55.98 55 56 C57.08 58.86 63.15 58.84 62 54 L63 54 z"/>
<path style="fill:#f9f9f9" d="M64 54 L65 54 C66.58 55.15 67.59 56.55 67 59 L66 59 L66 58 L65 57 L63 54 L64 54 z"/>
<path style="fill:#aaabab" d="M27 55 C28.11 58.52 31.92 58.54 34 56 C34.95 56.19 36.94 55.41 37 57 C31.74 56.3 31.32 61.63 35 64 L34 64 L31 62 L31 61 L31 60 C30.94 58.41 28.95 59.19 28 59 C27.74 57.71 26.34 56.67 25 57 L27 55 z"/>
<path style="fill:#505151" d="M51 55 L52 59 L52 61 C49.53 62.2 51.55 65.21 53 66 C52.1 66.32 50.27 68.02 50 66 L50 55 L51 55 z"/>
<path style="fill:#0e0f0f" d="M25 57 C26.34 56.67 27.74 57.71 28 59 L26 64 L24 62 C22.92 60.64 22.92 59.36 24 58 L25 57 z"/>
<path style="fill:#161717" d="M37 57 C36.98 57.66 36.82 59.15 38 59 L38 61 L35 64 C31.32 61.63 31.74 56.3 37 57 z"/>
<path style="fill:#919191" d="M53 57 L52 58 L53 57 z"/>
<path style="fill:#0a0b0b" d="M57 59 L57 62 L56 63 L55 64 C54.34 64.02 52.85 64.18 53 63 C53.02 62.34 53.18 60.85 52 61 L52 59 L52 58 L53 57 L57 59 z"/>
<path style="fill:#090909" d="M65 57 L66 58 L66 59 L66 61 C64.82 60.85 64.98 62.34 65 63 L63 63 L62 63 L61 62 C60.38 59.61 62.54 56.81 65 57 z"/>
<path style="fill:#9b9b9b" d="M66 58 L65 57 L66 58 z"/>
<path style="fill:#7c7c7c" d="M31 60 C29.94 59.57 29.94 61.43 31 61 L31 62 L27 65 L26 64 L28 59 C28.95 59.19 30.94 58.41 31 60 z"/>
<path style="fill:#e9e9e9" d="M58 60 C58.02 60.66 58.18 62.15 57 62 L57 59 L58 60 z"/>
<path style="fill:#d5d5d5" d="M67 59 C67.81 62.81 66.47 64.84 64 67 L61 68 L60 67 C61.18 66.14 63.63 66.12 63 64 C63.66 64.02 65.15 64.18 65 63 C66.18 63.15 66.02 61.66 66 61 L66 59 L67 59 z"/>
<path style="fill:#010101" d="M31 60 L31 61 C29.94 61.43 29.94 59.57 31 60 z"/>
<path style="fill:#1b1c1c" d="M61 62 L62 63 L63 64 C63.63 66.12 61.18 66.14 60 67 L58 67 C58.15 65.82 56.66 65.98 56 66 L55 66 L55 64 L56 63 L57 62 C58.18 62.15 58.02 60.66 58 60 L61 62 z"/>
<path style="fill:#ececec" d="M38 61 C38.59 63.45 37.58 64.85 36 66 L34 67 L33 66 C34.18 66.15 34.02 64.66 34 64 L35 64 L38 61 z"/>
<path style="fill:#f1f2f2" d="M52 61 C51.98 61.66 51.82 63.15 53 63 C52.85 64.18 54.34 64.02 55 64 L55 66 L54 66 L53 66 C51.55 65.21 49.53 62.2 52 61 z"/>
<path style="fill:#6d6d6d" d="M53 63 C51.82 63.15 51.98 61.66 52 61 C53.18 60.85 53.02 62.34 53 63 z"/>
<path style="fill:#757676" d="M66 61 C66.02 61.66 66.18 63.15 65 63 C64.98 62.34 64.82 60.85 66 61 z"/>
<path style="fill:#dadbdb" d="M24 62 L26 64 L27 65 L28 66 L28 67 L23 65 C23.19 64.05 22.41 62.06 24 62 z"/>
<path style="fill:#0a0b0b" d="M31 62 L34 64 C34.02 64.66 34.18 66.15 33 66 C31.47 67.25 29.53 67.25 28 66 L27 65 L31 62 z"/>
<path style="fill:#cbcbcb" d="M57 62 L56 63 L57 62 z"/>
<path style="fill:#b5b5b5" d="M62 63 L61 62 L62 63 z"/>
<path style="fill:#d2d2d2" d="M56 63 L55 64 L56 63 z"/>
<path style="fill:#c8c8c8" d="M63 63 L63 64 L62 63 L63 63 z"/>
<path style="fill:#6e6f6f" d="M65 63 C65.15 64.18 63.66 64.02 63 64 L63 63 L65 63 z"/>
<path style="fill:#3d3e3e" d="M28 67 L28 68 C26.3 70.06 20.66 67.55 23 65 L28 67 z"/>
<path style="fill:#8b8b8b" d="M33 66 L34 67 C33.81 67.95 34.59 69.94 33 70 L29 69 L28 68 L28 67 L28 66 C29.53 67.25 31.47 67.25 33 66 z"/>
<path style="fill:#7d7d7d" d="M55 66 L55 67 L54 66 L55 66 z"/>
<path style="fill:#ffffff" d="M56 66 L55 67 L55 66 L56 66 z"/>
<path style="fill:#6c6c6c" d="M58 67 L57 68 C55.56 69.94 54.72 70.13 55 67 L56 66 C56.66 65.98 58.15 65.82 58 67 z"/>
<path style="fill:#646464" d="M18 68 L17 67 L18 68 z"/>
<path style="fill:#626262" d="M44 67 L43 68 L44 67 z"/>
<path style="fill:#fefefe" d="M58 67 L57 68 L58 67 z"/>
<path style="fill:#6e6e6e" d="M60 67 L61 68 C61.28 71.13 60.44 70.94 59 69 C57.56 70.94 56.72 71.13 57 68 L58 67 L60 67 z"/>
<path style="fill:#636363" d="M73 67 L72 68 L73 67 z"/>
<path style="fill:#6a6a6a" d="M20 69 C19.34 69.02 17.85 69.18 18 68 C18.66 67.98 20.15 67.82 20 69 z"/>
<path style="fill:#232424" d="M33 70 C31.88 72.68 26.23 71.16 29 69 L33 70 z"/>
<path style="fill:#6b6c6c" d="M43 68 C43.15 69.18 41.66 69.02 41 69 C40.85 67.82 42.34 67.98 43 68 z"/>
<path style="fill:#8f9090" d="M48 69 C47.34 69.02 45.85 69.18 46 68 C46.66 67.98 48.15 67.82 48 69 z"/>
<path style="fill:#858585" d="M21 70 L20 69 L21 70 z"/>
<path style="fill:#858585" d="M41 69 L40 70 L41 69 z"/>
<path style="fill:#797a7a" d="M50 70 C49.34 70.02 47.85 70.18 48 69 C48.66 68.98 50.15 68.82 50 70 z"/>
<path style="fill:#828282" d="M70 69 C70.15 70.18 68.66 70.02 68 70 C67.85 68.82 69.34 68.98 70 69 z"/>
<path style="fill:#959696" d="M23 71 C22.34 71.02 20.85 71.18 21 70 C21.66 69.98 23.15 69.82 23 71 z"/>
<path style="fill:#606060" d="M39 70 L38 71 L39 70 z"/>
<path style="fill:#a7a7a7" d="M51 71 L50 70 L51 71 z"/>
<path style="fill:#a5a5a5" d="M68 70 L67 71 L68 70 z"/>
<path style="fill:#626262" d="M25 72 L24 71 L25 72 z"/>
<path style="fill:#848484" d="M53 72 L52 71 L53 72 z"/>
<path style="fill:#888888" d="M66 71 L65 72 L66 71 z"/>
<path style="fill:#989898" d="M26 73 L25 72 L26 73 z"/>
<path style="fill:#636363" d="M55 73 L54 72 L55 73 z"/>
<path style="fill:#959595" d="M34 73 L33 74 L34 73 z"/>
</svg>
