<?xml version="1.0" standalone="yes"?>
<svg width="87" height="97">
<path style="fill:#fcfdfd" d="M87 0 L87 97 L0 97 L0 0 L87 0 z"/>
<path style="fill:#7b7b7b" d="M38 14 C37.94 15.59 35.95 14.81 35 15 C35.06 13.41 37.05 14.19 38 14 z"/>
<path style="fill:#090a0a" d="M50 14 C49.85 15.18 51.34 15.02 52 15 L53 15 C52.85 16.18 54.34 16.02 55 16 L62 19 L63 20 L65 21 L66 22 L67 23 L68 24 L69 25 L70 26 L72 29 L73 30 L73 31 L74 32 L75 35 L76 36 L77 42 C76.98 42.66 76.82 44.15 78 44 L78 53 C76.82 52.85 76.98 54.34 77 55 L77 58 L76 59 L76 61 L75 62 L75 63 L74 64 L74 65 L73 66 L72 68 L71 69 L65 75 L64 76 L63 77 L61 78 L60 79 L59 79 L58 80 L54 81 C53.34 80.98 51.85 80.82 52 82 L48 82 L38 82 L35 82 C35.15 80.82 33.66 80.98 33 81 L32 81 C32.15 79.82 30.66 79.98 30 80 L29 80 L28 79 L27 79 L26 78 L25 78 L24 77 L23 76 L21 75 L20 74 L19 73 L18 72 L17 71 L15 68 L14 67 L14 66 L13 65 L12 63 L11 62 L11 61 C11.02 60.34 11.18 58.85 10 59 L9 53 L9 44 L9 42 C10.18 42.15 10.02 40.66 10 40 L11 35 L12 34 L12 33 L13 32 L13 31 L14 30 L15 28 L16 27 L17 26 L21 22 L22 21 L23 20 L25 19 L26 18 L27 18 L28 17 L29 17 L30 16 L32 16 C32.66 16.02 34.15 16.18 34 15 L35 15 C35.95 14.81 37.94 15.59 38 14 L50 14 z"/>
<path style="fill:#a0a1a1" d="M52 15 C51.34 15.02 49.85 15.18 50 14 C50.66 13.98 52.15 13.82 52 15 z"/>
<path style="fill:#666767" d="M34 15 C34.15 16.18 32.66 16.02 32 16 C31.85 14.82 33.34 14.98 34 15 z"/>
<path style="fill:#7d7d7d" d="M55 16 C54.34 16.02 52.85 16.18 53 15 C53.66 14.98 55.15 14.82 55 16 z"/>
<path style="fill:#a9a9a9" d="M30 16 L29 17 L30 16 z"/>
<path style="fill:#979797" d="M28 17 L27 18 L28 17 z"/>
<path style="fill:#a1a1a1" d="M26 18 L25 19 L26 18 z"/>
<path style="fill:#848585" d="M48 20 L38 20 C39.99 18.34 46.01 18.34 48 20 z"/>
<path style="fill:#7b7b7b" d="M63 20 L62 19 L63 20 z"/>
<path style="fill:#a2a2a2" d="M23 20 L22 21 L23 20 z"/>
<path style="fill:#f5f5f5" d="M38 20 L48 20 L51 20 C50.85 21.18 52.34 21.02 53 21 L54 21 L55 22 L56 22 L57 23 L58 23 L59 24 L61 25 L61 26 L59 26 C58.27 24.38 53.73 24.38 53 26 L51 26 C49.82 25.85 49.98 27.34 50 28 L49 28 L47 30 L45 32 L44 32 L42 32 L40 30 L38 28 L36 27 L35 26 L29 25 L27 25 L28 24 L29 23 C31.88 21.58 34.71 20.02 38 20 z"/>
<path style="fill:#616262" d="M53 21 C52.34 21.02 50.85 21.18 51 20 C51.66 19.98 53.15 19.82 53 21 z"/>
<path style="fill:#8b8b8b" d="M22 21 L21 22 L22 21 z"/>
<path style="fill:#767676" d="M55 22 L54 21 L55 22 z"/>
<path style="fill:#aaaaaa" d="M66 22 L65 21 L66 22 z"/>
<path style="fill:#868686" d="M57 23 L56 22 L57 23 z"/>
<path style="fill:#939393" d="M67 23 L66 22 L67 23 z"/>
<path style="fill:#a1a1a1" d="M29 23 L28 24 L29 23 z"/>
<path style="fill:#797979" d="M59 24 L58 23 L59 24 z"/>
<path style="fill:#8b8b8b" d="M68 24 L67 23 L68 24 z"/>
<path style="fill:#979797" d="M69 25 L68 24 L69 25 z"/>
<path style="fill:#c2c2c2" d="M27 25 L29 25 L25 28 L23 28 C23.67 26.54 25.15 24.67 27 25 z"/>
<path style="fill:#090909" d="M35 26 L36 27 L36 38 L35 38 L34 37 L33 36 L30 33 L29 32 L28 31 L27 30 L26 29 L25 28 L29 25 L35 26 z"/>
<path style="fill:#414242" d="M59 26 L53 26 C53.73 24.38 58.27 24.38 59 26 z"/>
<path style="fill:#999999" d="M67 31 L66 32 L63 30 C61.81 26.28 56.12 34.96 54 37 L53 38 L52 38 L52 37 L61 26 L61 25 L67 31 z"/>
<path style="fill:#949494" d="M70 26 L69 25 L70 26 z"/>
<path style="fill:#7e7e7e" d="M17 26 L16 27 L17 26 z"/>
<path style="fill:#5e5e5e" d="M36 27 L35 26 L36 27 z"/>
<path style="fill:#343535" d="M51 26 L52 37 L52 38 L50 38 L50 28 C49.98 27.34 49.82 25.85 51 26 z"/>
<path style="fill:#040505" d="M53 26 L59 26 L61 26 L52 37 L51 26 L53 26 z"/>
<path style="fill:#a6a6a6" d="M16 27 L15 28 L16 27 z"/>
<path style="fill:#6f7070" d="M38 28 L36 38 L36 27 L38 28 z"/>
<path style="fill:#f6f6f6" d="M23 28 L23 29 L23 30 C21.71 30.26 20.67 31.66 21 33 C19.38 33.73 19.38 38.27 21 39 L21 40 L22 41 L23 41 C22.98 41.66 22.82 43.15 24 43 C23.98 43.66 23.82 45.15 25 45 L26 45 L27 46 L28 47 L28 48 L26 51 L25 52 L25 53 L24 54 C20.66 53.84 19.9 60.43 22 62 L23 65 L23 67 L21 67 L20 66 L19 64 L18 63 L18 62 L17 61 L17 60 L16 59 L16 57 L15 56 L15 53 L15 43 L15 41 C16.18 41.15 16.02 39.66 16 39 L18 34 L19 33 L19 32 L20 31 L23 28 z"/>
<path style="fill:#292a2a" d="M25 28 L26 29 L27 30 L28 31 L29 32 L30 33 L30 35 L23 29 L23 28 L25 28 z"/>
<path style="fill:#aeaeae" d="M26 29 L25 28 L26 29 z"/>
<path style="fill:#9d9d9d" d="M40 30 C37.03 33.82 41.22 36.57 40 30 L42 32 C40.12 31.86 42.14 33.88 42 32 L44 32 C38.13 38.19 30.85 44.04 34.25 53.75 C40.7 48.62 50.12 40.79 45 32 L47 30 C47.51 32.37 45.52 43.79 49 39 L50 38 L52 38 L48 43 L47 44 L46 45 L45 46 L44 47 L43 48 L42 49 L41 50 L40 51 L39 52 L38 53 L37 54 L36 55 L35 56 L34 57 L33 58 L32 59 L31 60 L30 61 L29 62 L28 63 L27 64 L26 65 L25 66 L24 67 L23 67 L23 65 C24.29 64.74 25.33 63.34 25 62 C26.85 62.33 28.33 60.46 29 59 L30 58 C31.75 56.22 31.54 46.25 30 47 C28.82 47.15 28.98 45.66 29 45 C31.53 43.88 24.89 43.07 25 45 C23.82 45.15 23.98 43.66 24 43 L31.75 42.25 L24 41 L33 41 L34 40 C35.18 40.15 35.02 38.66 35 38 L36 38 L38 28 L40 30 z"/>
<path style="fill:#4e4f4f" d="M49 28 L49 39 C45.52 43.79 47.51 32.37 47 30 L49 28 z"/>
<path style="fill:#7b7b7b" d="M50 28 L50 38 L49 39 L49 28 L50 28 z"/>
<path style="fill:#2b2c2c" d="M63 30 L62 31 L61 32 L60 33 L59 34 L58 35 L57 36 L56 37 L54 37 C56.12 34.96 61.81 26.28 63 30 z"/>
<path style="fill:#868686" d="M30 35 L31 36 L34 40 L33 41 L23 30 L23 29 L30 35 z"/>
<path style="fill:#aeaeae" d="M27 30 L26 29 L27 30 z"/>
<path style="fill:#919191" d="M73 30 L72 29 L73 30 z"/>
<path style="fill:#a4a4a4" d="M14 30 L13 31 L14 30 z"/>
<path style="fill:#050505" d="M23 30 L33 41 L24 41 L23 41 L22 41 L21 40 L21 39 L21 33 C20.67 31.66 21.71 30.26 23 30 z"/>
<path style="fill:#b8b8b8" d="M28 31 L27 30 L28 31 z"/>
<path style="fill:#333434" d="M40 30 C41.22 36.57 37.03 33.82 40 30 z"/>
<path style="fill:#aaaaaa" d="M63 30 L62 31 L63 30 z"/>
<path style="fill:#080808" d="M66 32 L66 39 L65 40 L64 41 L53 40 L56 37 L57 36 L58 35 L59 34 L60 33 L61 32 L62 31 L63 30 L66 32 z"/>
<path style="fill:#767676" d="M20 31 L19 32 L20 31 z"/>
<path style="fill:#afafaf" d="M29 32 L28 31 L29 32 z"/>
<path style="fill:#adadad" d="M62 31 L61 32 L62 31 z"/>
<path style="fill:#f6f6f6" d="M67 31 L68 33 L69 34 L69 35 L70 36 L70 37 L71 38 L71 40 C70.98 40.66 70.82 42.15 72 42 L72 43 L72 54 L68 64 L67 65 L64 68 L63 66 L63 65 C65.22 63.7 65.12 60.46 65 58 C65.33 56.15 63.46 54.67 62 54 L62 53 L61 52 L61 51 L60 50 L59 49 L59 47 C60.18 47.15 60.02 45.66 60 45 L61 45 L63 43 C64.18 43.15 64.02 41.66 64 41 L65 40 L66 39 L66 32 L67 31 z"/>
<path style="fill:#686868" d="M74 32 L73 31 L74 32 z"/>
<path style="fill:#7d7d7d" d="M13 32 L12 33 L13 32 z"/>
<path style="fill:#b9b9b9" d="M30 33 L29 32 L30 33 z"/>
<path style="fill:#020202" d="M42 32 C42.14 33.88 40.12 31.86 42 32 z"/>
<path style="fill:#070707" d="M45 32 C50.12 40.79 40.7 48.62 34.25 53.75 C30.85 44.04 38.13 38.19 44 32 L45 32 z"/>
<path style="fill:#afafaf" d="M61 32 L60 33 L61 32 z"/>
<path style="fill:#a1a1a1" d="M19 33 L18 34 L19 33 z"/>
<path style="fill:#8d8d8d" d="M21 33 L21 39 C19.38 38.27 19.38 33.73 21 33 z"/>
<path style="fill:#8d8d8d" d="M33 36 L31 36 L30 35 L30 33 L33 36 z"/>
<path style="fill:#ababab" d="M60 33 L59 34 L60 33 z"/>
<path style="fill:#717171" d="M69 34 L68 33 L69 34 z"/>
<path style="fill:#8c8c8c" d="M12 34 L11 35 L12 34 z"/>
<path style="fill:#a0a0a0" d="M59 34 L58 35 L59 34 z"/>
<path style="fill:#010101" d="M31 36 L30 35 L31 36 z"/>
<path style="fill:#a9a9a9" d="M58 35 L57 36 L58 35 z"/>
<path style="fill:#818181" d="M70 36 L69 35 L70 36 z"/>
<path style="fill:#616161" d="M76 36 L75 35 L76 36 z"/>
<path style="fill:#222323" d="M33 36 L34 37 L35 38 C35.02 38.66 35.18 40.15 34 40 L31 36 L33 36 z"/>
<path style="fill:#b9b9b9" d="M34 37 L33 36 L34 37 z"/>
<path style="fill:#b3b3b3" d="M57 36 L56 37 L57 36 z"/>
<path style="fill:#bcbcbc" d="M35 38 L34 37 L35 38 z"/>
<path style="fill:#0" d="M54 37 L53 38 L54 37 z"/>
<path style="fill:#8d8d8d" d="M56 37 L53 40 L53 38 L54 37 L56 37 z"/>
<path style="fill:#666666" d="M71 38 L70 37 L71 38 z"/>
<path style="fill:#282828" d="M53 38 L53 40 L52 41 L51 42 L48 43 L52 38 L53 38 z"/>
<path style="fill:#939393" d="M16 39 C16.02 39.66 16.18 41.15 15 41 C14.98 40.34 14.82 38.85 16 39 z"/>
<path style="fill:#a1a1a1" d="M66 39 L65 40 L66 39 z"/>
<path style="fill:#6b6b6b" d="M10 40 C10.02 40.66 10.18 42.15 9 42 C8.981 41.34 8.819 39.85 10 40 z"/>
<path style="fill:#8c8c8c" d="M22 41 L21 40 L22 41 z"/>
<path style="fill:#909090" d="M53 40 L64 41 C64.02 41.66 64.18 43.15 63 43 L52 42 L52 41 L53 40 z"/>
<path style="fill:#979898" d="M72 42 C70.82 42.15 70.98 40.66 71 40 C72.18 39.85 72.02 41.34 72 42 z"/>
<path style="fill:#5a5a5a" d="M24 41 L31.75 42.25 L24 43 C22.82 43.15 22.98 41.66 23 41 L24 41 z"/>
<path style="fill:#e7e7e7" d="M52 41 L52 42 L51 42 L52 41 z"/>
<path style="fill:#8c8c8c" d="M51 42 L63 43 L61 45 C58.27 42.88 52.89 44.3 49.25 44.25 L60 45 C60.02 45.66 60.18 47.15 59 47 C50.52 42.21 42.02 49.79 37.25 56.75 L49 57 L49 58 C48.78 59.33 51.22 59.33 51 58 L52 58 L60 66 L58 66 C55.9 60.6 47.73 61.19 44 63 L43 63 C39.62 61.63 29.66 59.87 29 66 C27.66 65.67 26.26 66.71 26 68 L24 68 L24 67 L25 66 L26 65 L27 64 L28 63 L29 62 L30 61 L31 60 L32 59 L33 58 L34 57 L35 56 L36 55 L37 54 L38 53 L39 52 L40 51 L41 50 L42 49 L43 48 L44 47 L45 46 L46 45 L47 44 L48 43 L51 42 z"/>
<path style="fill:#3d3d3d" d="M52 42 L63 43 L51 42 L52 42 z"/>
<path style="fill:#606161" d="M78 44 C76.82 44.15 76.98 42.66 77 42 C78.18 41.85 78.02 43.34 78 44 z"/>
<path style="fill:#a1a2a2" d="M15 43 L15 53 C13.34 51.01 13.34 44.99 15 43 z"/>
<path style="fill:#050505" d="M48 43 L47 44 L48 43 z"/>
<path style="fill:#575757" d="M72 54 L72 43 C73.66 45.31 73.66 51.69 72 54 z"/>
<path style="fill:#b8b8b8" d="M9 44 L9 53 C7.349 51.34 7.349 45.66 9 44 z"/>
<path style="fill:#252626" d="M29 45 L26 45 L25 45 C24.89 43.07 31.53 43.88 29 45 z"/>
<path style="fill:#313131" d="M32 44 C33.8 46.56 33.36 53.13 32.25 55.75 L32 44 z"/>
<path style="fill:#010101" d="M47 44 L46 45 L47 44 z"/>
<path style="fill:#262626" d="M61 45 L60 45 L49.25 44.25 C52.89 44.3 58.27 42.88 61 45 z"/>
<path style="fill:#676868" d="M29 45 C28.98 45.66 28.82 47.15 30 47 L30 58 L29 59 L28 48 L28 47 L27 46 L26 45 L29 45 z"/>
<path style="fill:#050505" d="M46 45 L45 46 L46 45 z"/>
<path style="fill:#0" d="M28 47 L27 46 L28 47 z"/>
<path style="fill:#3e3f3f" d="M30 58 L30 47 C31.54 46.25 31.75 56.22 30 58 z"/>
<path style="fill:#070707" d="M45 46 L44 47 L45 46 z"/>
<path style="fill:#030404" d="M59 47 L52 54 L49 57 L37.25 56.75 C42.02 49.79 50.52 42.21 59 47 z"/>
<path style="fill:#010101" d="M44 47 L43 48 L44 47 z"/>
<path style="fill:#8f9090" d="M59 47 L59 49 L57 60 L55 58 C57.26 56.34 56.22 49.56 53 54 L52 54 L59 47 z"/>
<path style="fill:#060606" d="M29 59 C28.33 60.46 26.85 62.33 25 62 L25 53 L25 52 L26 51 L28 48 L29 59 z"/>
<path style="fill:#010101" d="M43 48 L42 49 L43 48 z"/>
<path style="fill:#020202" d="M42 49 L41 50 L42 49 z"/>
<path style="fill:#0a0b0b" d="M59 49 L60 50 L61 51 L61 52 L62 53 L62 54 L62 61 L60 62 L59 62 L58 61 L57 60 L59 49 z"/>
<path style="fill:#8c8c8c" d="M60 50 L59 49 L60 50 z"/>
<path style="fill:#060606" d="M41 50 L40 51 L41 50 z"/>
<path style="fill:#a1a1a1" d="M61 51 L60 50 L61 51 z"/>
<path style="fill:#686868" d="M26 51 L25 52 L26 51 z"/>
<path style="fill:#080808" d="M40 51 L39 52 L40 51 z"/>
<path style="fill:#040404" d="M39 52 L38 53 L39 52 z"/>
<path style="fill:#464747" d="M55 58 L53 54 C56.22 49.56 57.26 56.34 55 58 z"/>
<path style="fill:#717171" d="M62 53 L61 52 L62 53 z"/>
<path style="fill:#3e3e3e" d="M25 53 L25 62 C25.33 63.34 24.29 64.74 23 65 L22 62 L22.25 57.25 C24.19 60.64 24.14 56.25 24 54 L25 53 z"/>
<path style="fill:#030303" d="M38 53 L37 54 L38 53 z"/>
<path style="fill:#6f7070" d="M78 53 C78.02 53.66 78.18 55.15 77 55 C76.98 54.34 76.82 52.85 78 53 z"/>
<path style="fill:#969696" d="M24 54 C24.14 56.25 24.19 60.64 22.25 57.25 L22 62 C19.9 60.43 20.66 53.84 24 54 z"/>
<path style="fill:#0" d="M37 54 L36 55 L37 54 z"/>
<path style="fill:#a5a5a5" d="M52 54 L53 54 L55 58 C53.76 56.83 49.92 54.71 52 58 L51 58 L49 58 L49 57 L52 54 z"/>
<path style="fill:#727272" d="M65 58 L62 61 L62 54 C63.46 54.67 65.33 56.15 65 58 z"/>
<path style="fill:#0a0a0a" d="M36 55 L35 56 L36 55 z"/>
<path style="fill:#a3a3a3" d="M16 57 L15 56 L16 57 z"/>
<path style="fill:#050505" d="M35 56 L34 57 L35 56 z"/>
<path style="fill:#1d1d1d" d="M55 58 L57 60 L58 61 L59 62 L60 63 L61 64 L63 66 L64 68 L62 68 L60 66 L52 58 C49.92 54.71 53.76 56.83 55 58 z"/>
<path style="fill:#0" d="M34 57 L33 58 L34 57 z"/>
<path style="fill:#030303" d="M33 58 L32 59 L33 58 z"/>
<path style="fill:#222323" d="M35 58 L46.75 58.25 C44.13 59.36 37.56 59.8 35 58 z"/>
<path style="fill:#161616" d="M51 58 C51.22 59.33 48.78 59.33 49 58 L51 58 z"/>
<path style="fill:#4b4c4c" d="M65 58 C65.12 60.46 65.22 63.7 63 65 C63.45 62.98 62.16 63.07 61 64 L60 63 L60 62 L62 61 L65 58 z"/>
<path style="fill:#717171" d="M77 58 L76 59 L77 58 z"/>
<path style="fill:#a7a7a7" d="M11 61 C9.819 61.15 9.981 59.66 10 59 C11.18 58.85 11.02 60.34 11 61 z"/>
<path style="fill:#838383" d="M17 60 L16 59 L17 60 z"/>
<path style="fill:#0" d="M32 59 L31 60 L32 59 z"/>
<path style="fill:#050505" d="M31 60 L30 61 L31 60 z"/>
<path style="fill:#232424" d="M33 60 L44.75 60.25 C42.13 61.36 35.56 61.8 33 60 z"/>
<path style="fill:#333333" d="M47 60 L52.75 60.75 C51.06 60.84 47.8 61.92 47 60 z"/>
<path style="fill:#b9b9b9" d="M58 61 L57 60 L58 61 z"/>
<path style="fill:#949494" d="M18 62 L17 61 L18 62 z"/>
<path style="fill:#060606" d="M30 61 L29 62 L30 61 z"/>
<path style="fill:#bdbdbd" d="M59 62 L58 61 L59 62 z"/>
<path style="fill:#7e7e7e" d="M76 61 L75 62 L76 61 z"/>
<path style="fill:#a8a8a8" d="M12 63 L11 62 L12 63 z"/>
<path style="fill:#0" d="M29 62 L28 63 L29 62 z"/>
<path style="fill:#0a0a0a" d="M43 63 L42 64 L41 65 L37 67 L32 67 L29 66 C29.66 59.87 39.62 61.63 43 63 z"/>
<path style="fill:#0a0a0a" d="M58 66 L50 67 L47 66 L46 65 L44 63 C47.73 61.19 55.9 60.6 58 66 z"/>
<path style="fill:#bfbfbf" d="M60 62 L60 63 L59 62 L60 62 z"/>
<path style="fill:#848484" d="M19 64 L18 63 L19 64 z"/>
<path style="fill:#020202" d="M28 63 L27 64 L28 63 z"/>
<path style="fill:#979797" d="M43 63 L42 64 L43 63 z"/>
<path style="fill:#f4f5f5" d="M44 63 L46 65 L47 66 L50 67 C52.21 72.52 58.22 68.79 62 68 L63 70 L60 72 L59 73 L55 75 C54.34 74.98 52.85 74.82 53 76 L51 76 C50.05 76.19 48.06 75.41 48 77 L39 77 L37 77 C37.15 75.82 35.66 75.98 35 76 C31.37 75.25 28.08 73.02 25 71 L24 70 L24 68 L26 68 L32 70 C33.92 70.12 37.37 69.49 37 67 L41 65 L42 64 L43 63 L44 63 z"/>
<path style="fill:#d9d9d9" d="M61 64 L60 63 L61 64 z"/>
<path style="fill:#959696" d="M63 65 L63 66 L61 64 C62.16 63.07 63.45 62.98 63 65 z"/>
<path style="fill:#727272" d="M75 63 L74 64 L75 63 z"/>
<path style="fill:#0" d="M27 64 L26 65 L27 64 z"/>
<path style="fill:#a2a2a2" d="M42 64 L41 65 L42 64 z"/>
<path style="fill:#888888" d="M68 64 L67 65 L68 64 z"/>
<path style="fill:#676767" d="M14 66 L13 65 L14 66 z"/>
<path style="fill:#0" d="M26 65 L25 66 L26 65 z"/>
<path style="fill:#7f7f7f" d="M47 66 L46 65 L47 66 z"/>
<path style="fill:#8e8e8e" d="M74 65 L73 66 L74 65 z"/>
<path style="fill:#646464" d="M21 67 L20 66 L21 67 z"/>
<path style="fill:#0" d="M25 66 L24 67 L25 66 z"/>
<path style="fill:#4f5050" d="M29 66 L32 67 C33.85 68.69 33.85 68.31 32 70 L26 68 C26.26 66.71 27.66 65.67 29 66 z"/>
<path style="fill:#636464" d="M58 66 L60 66 L62 68 C58.22 68.79 52.21 72.52 50 67 L58 66 z"/>
<path style="fill:#8c8c8c" d="M15 68 L14 67 L15 68 z"/>
<path style="fill:#9d9e9e" d="M23 67 L24 68 L24 70 L21 67 L23 67 z"/>
<path style="fill:#0" d="M24 67 L24 68 L23 67 L24 67 z"/>
<path style="fill:#8d8d8d" d="M37 67 C37.37 69.49 33.92 70.12 32 70 C33.85 68.31 33.85 68.69 32 67 L37 67 z"/>
<path style="fill:#838484" d="M64 68 C64.02 68.66 64.18 70.15 63 70 L62 68 L64 68 z"/>
<path style="fill:#7a7a7a" d="M72 68 L71 69 L72 68 z"/>
<path style="fill:#828282" d="M25 71 L24 70 L25 71 z"/>
<path style="fill:#959595" d="M18 72 L17 71 L18 72 z"/>
<path style="fill:#888888" d="M19 73 L18 72 L19 73 z"/>
<path style="fill:#7c7c7c" d="M60 72 L59 73 L60 72 z"/>
<path style="fill:#8c8c8c" d="M20 74 L19 73 L20 74 z"/>
<path style="fill:#a7a7a7" d="M21 75 L20 74 L21 75 z"/>
<path style="fill:#585959" d="M55 75 C55.15 76.18 53.66 76.02 53 76 C52.85 74.82 54.34 74.98 55 75 z"/>
<path style="fill:#5d5d5d" d="M65 75 L64 76 L65 75 z"/>
<path style="fill:#777777" d="M24 77 L23 76 L24 77 z"/>
<path style="fill:#616262" d="M37 77 C36.34 77.02 34.85 77.18 35 76 C35.66 75.98 37.15 75.82 37 77 z"/>
<path style="fill:#a2a3a3" d="M51 76 C50.94 77.59 48.95 76.81 48 77 C48.06 75.41 50.05 76.19 51 76 z"/>
<path style="fill:#8c8c8c" d="M64 76 L63 77 L64 76 z"/>
<path style="fill:#979797" d="M25 78 L24 77 L25 78 z"/>
<path style="fill:#2d2e2e" d="M48 77 C46.34 78.65 40.66 78.65 39 77 L48 77 z"/>
<path style="fill:#8b8b8b" d="M27 79 L26 78 L27 79 z"/>
<path style="fill:#a8a8a8" d="M61 78 L60 79 L61 78 z"/>
<path style="fill:#8f8f8f" d="M29 80 L28 79 L29 80 z"/>
<path style="fill:#979797" d="M59 79 L58 80 L59 79 z"/>
<path style="fill:#6b6c6c" d="M32 81 C31.34 81.02 29.85 81.18 30 80 C30.66 79.98 32.15 79.82 32 81 z"/>
<path style="fill:#737474" d="M35 82 C34.34 82.02 32.85 82.18 33 81 C33.66 80.98 35.15 80.82 35 82 z"/>
<path style="fill:#8c8d8d" d="M54 81 C54.15 82.18 52.66 82.02 52 82 C51.85 80.82 53.34 80.98 54 81 z"/>
<path style="fill:#454646" d="M48 82 C46.01 83.66 39.99 83.66 38 82 L48 82 z"/>
</svg>
