<?xml version="1.0" standalone="yes"?>
<svg width="87" height="97">
<path style="fill:#fdfdfd" d="M87 0 L87 97 L0 97 L0 0 L87 0 z"/>
<path style="fill:#6b6b6b" d="M41 17 L37 18 L41 17 z"/>
<path style="fill:#0c0c0c" d="M41 27 L40 28 C38.96 29.18 38.48 31.63 41 31 L42 31 L42 35 L42 36 L41 37 L39 39 L38 40 C37.54 41.35 38.65 42.46 40 42 L41 41 L42 45 L41 46 L38 51 L41 55 L40 57 L39 58 C37.45 58.19 37.45 61.81 39 62 C39.06 63.59 41.05 62.81 42 63 L42 67 L41 68 L40 71 L39 72 L36 72 L34 70 C35.95 61.93 35.13 64.19 34.75 58.25 L32 67 C30.5 66.15 29.77 63.83 30 62 L33 57 C36.2 57.5 36.21 53.55 33.25 55.75 C34.42 53.53 32.2 51.61 32 55 L28.25 60.75 L27 53 C29.64 52.33 38.55 46.21 31.25 48.75 L31 46 C37.49 43.14 32.68 40.33 30 46 L28 51 L27 45 L28 43 L29 43 L30 42 L31 41 C33.2 42.02 37.11 39.66 33.25 38.75 C37.75 35.31 30.79 36.57 30 40 L29 42 L28 43 L27 43 L28 38 L29 37 L35 34 C33.63 34.1 33.83 32.16 34.75 31.75 L29 35 L29 34 C30.18 34.15 30.02 32.66 30 32 L40.75 19.25 C35.84 20.92 31.68 27.12 30 32 L29 33 L27.25 27.25 C29.11 33.03 21.67 30.01 26 34 L24 41 L24 40 C26.63 37.45 20.11 32.66 22.75 38.75 C18.14 36.71 19.71 39.66 23 41 L25 44 L25 51 L23 49 L22 48 L22 47 C20.8 43.03 18.02 42.44 20 47 C14.3 45.93 17.23 49.6 21 49 C23.39 52.01 26.36 54.81 26 59 C25.87 60.87 23.98 58.82 24 58 C21.44 52.62 16.9 54.69 23 58 C16.3 60.12 22.42 59.52 26 62 L29 64 C30.1 67.08 30.01 68.69 27 66 L26 65 C25.3 62.48 22.78 65.73 26 65 L27 66 C27.46 67.35 26.35 68.46 25 68 C19.91 69.15 26.82 70.87 29 70 L30 70 C32.66 70.14 35.57 73.18 35 76 L34 76 L26 76 L24 76 L23 75 L21 74 L20 73 L15 68 L14 67 L14 66 L14 65 L15 65 L16 65 L17 66 L18 66 C18.27 68.62 23.09 65.93 20 65 L19 65 L18 64 L16 63 L15 62 C10.28 59.45 7.977 54.32 9 49 L10 49 L10 50 L11 51 L11 52 L12 53 L13 54 L14 55 C13.78 56.33 16.22 56.33 16 55 L13 50 L12 49 L11 46 L11 40 L11 38 L12 38 L13 39 L13 40 L14 41 C13.78 42.33 16.22 42.33 16 41 L16 40 L15 39 L15 37 L15 33 C15.01 28.49 20.77 24.73 19 32 L20 33 L21 28 C22.18 28.15 22.02 26.66 22 26 L22 25 L23 24 L24 23 L25 22 L26 21 L27 21 L28 22 C28.19 22.95 27.41 24.94 29 25 L30 24 L31 23 L35 19 L36 18 L37 18 L41 17 C45.78 17.85 41.04 24.06 41 27 z"/>
<path style="fill:#0b0b0b" d="M46 17 C46.06 18.59 48.05 17.81 49 18 L51 18 L52 19 L53 20 L56 23 L57 24 L58 25 C59.48 25.04 59.48 21.96 58 22 L58 21 L60 21 L62 22 L63 23 L64 24 L65 27 L66 32 C65.57 33.06 67.43 33.06 67 32 C68.18 32.15 68.02 30.66 68 30 L68 28 L69 28 L70 29 L71 30 L71 31 C70.98 31.66 70.82 33.15 72 33 L72 38 C70.82 37.85 70.98 39.34 71 40 C70.98 40.66 70.82 42.15 72 42 L73 41 L74 38 L76 38 L76 40 L76 45 L76 47 L75 48 L75 49 L74 50 L73 51 L72 53 L71 54 L71 55 C70.57 56.06 72.43 56.06 72 55 L73 55 L74 54 L75 53 L76 51 L77 55 L77 57 L76 58 L73 61 L72 62 L70 63 L69 64 L68 64 L67 65 L66 66 C65.96 67.48 69.04 67.48 69 66 L70 66 L71 65 L72 65 L73 65 L72 68 L71 69 L67 73 L66 74 L65 74 L64 75 C63.34 74.98 61.85 74.82 62 76 L60 76 L52 76 L53 72 L56 70 C56.66 70.02 58.15 70.18 58 69 L59 69 C63.22 69.16 62.99 68.56 60 67 C64.95 64.02 59.58 62.44 59 67 L58 68 L57 67 L59 63 L60 62 C62.66 61.33 71.85 59.04 64.25 58.75 L65 56 C68.64 56.45 65.87 52.27 65 56 L61 58 L63 51 L64 51 L65 50 C69.46 49.23 72.81 45.55 66.25 47.75 C69.76 41.65 64.64 43.75 64 49 L64 50 L63 51 C60.95 48.64 61.59 43.36 64 41 C67.29 39.66 68.86 36.71 64.25 38.75 C65.84 32.3 60.9 36.75 62 41 C60.81 42.72 59.71 36.65 60 35 C61.18 35.15 61.02 33.66 61 33 C65.07 31.54 60.84 28.47 61 33 C59.82 33.15 59.98 31.66 60 31 C61.22 24.25 57.18 27.06 58 32 L52 25 C51.76 22.51 48.69 19.19 46.25 19.25 L52 26 C55.04 29.04 59.31 38.54 53 32 C53.45 28.36 49.27 31.13 53 32 L52.75 33.75 C44.59 35.04 55.86 34.42 58 37 C58.98 38.01 61.2 41.99 59 43 L56 39 C55.17 35.4 48.01 36.09 53.75 38.25 C51.57 39.15 51.73 41.85 55 41 L59 43 L59 44 L60 45 L60 46 L60 52 L58 50 C56.81 42.67 48.9 40.02 56 48 C52.41 47.68 49.44 49.43 56 50 L60 56 L56 59 L56 57 C56.75 55.23 52.4 51.19 53 55 C50.98 54.55 51.07 55.84 52 57 C49.9 57.46 52.03 60.54 53 61 L53 63 L52 63 C52.33 61.04 48.61 62.59 51 63 L52 64 C52.59 66.54 54.01 69.57 52 72 L48 72 L47 71 L46 70 L46 69 L45 68 L46 62 C45.78 63.33 48.22 63.33 48 62 L48 58 L47 57 L46 56 L46 55 L45 54 L45 53 L45 52 L45 51 L46 51 C45.96 52.48 49.04 52.48 49 51 C49.33 49.66 48.29 48.26 47 48 L46 47 L45 44 C44.98 43.34 44.82 41.85 46 42 L48 42 L49 41 C46.92 37.89 42.96 35.39 44 31 L46 31 L47 31 C48.33 31.22 48.33 28.78 47 29 L47 28 L46 27 L46 26 L45 25 L45 24 C45.02 23.34 45.18 21.85 44 22 C44.3 20.27 42.9 16.36 46 17 z"/>
<path style="fill:#585858" d="M49 18 C48.05 17.81 46.06 18.59 46 17 C46.95 17.19 48.94 16.41 49 18 z"/>
<path style="fill:#9a9a9a" d="M36 18 L35 19 L36 18 z"/>
<path style="fill:#a3a3a3" d="M52 19 L51 18 L52 19 z"/>
<path style="fill:#8a8a8a" d="M30 32 C31.68 27.12 35.84 20.92 40.75 19.25 L30 32 z"/>
<path style="fill:#797a7a" d="M52 25 L52 26 L46.25 19.25 C48.69 19.19 51.76 22.51 52 25 z"/>
<path style="fill:#5e5e5e" d="M53 20 L52 19 L53 20 z"/>
<path style="fill:#545454" d="M29 22 L28 22 L27 21 C27.47 18.89 31.3 20.2 29 22 z"/>
<path style="fill:#707070" d="M60 21 L58 21 C55.42 20.27 60.34 19.01 60 21 z"/>
<path style="fill:#838383" d="M26 21 L25 22 L26 21 z"/>
<path style="fill:#6a6a6a" d="M25 22 L24 23 L25 22 z"/>
<path style="fill:#adadad" d="M29 22 L29 25 C27.41 24.94 28.19 22.95 28 22 L29 22 z"/>
<path style="fill:#8a8a8a" d="M45 24 C43.82 24.15 43.98 22.66 44 22 C45.18 21.85 45.02 23.34 45 24 z"/>
<path style="fill:#575757" d="M58 25 L58 22 C59.48 21.96 59.48 25.04 58 25 z"/>
<path style="fill:#797979" d="M63 23 L62 22 L63 23 z"/>
<path style="fill:#616161" d="M31 23 L30 24 L31 23 z"/>
<path style="fill:#a4a4a4" d="M57 24 L56 23 L57 24 z"/>
<path style="fill:#757575" d="M64 24 L63 23 L64 24 z"/>
<path style="fill:#858585" d="M23 24 L22 25 L23 24 z"/>
<path style="fill:#808080" d="M46 26 L45 25 L46 26 z"/>
<path style="fill:#929292" d="M58 32 L60 31 C59.98 31.66 59.82 33.15 61 33 C61.02 33.66 61.18 35.15 60 35 C58.65 34.54 57.54 35.65 58 37 C55.86 34.42 44.59 35.04 52.75 33.75 L53 32 C59.31 38.54 55.04 29.04 52 26 L52 25 L58 32 z"/>
<path style="fill:#696969" d="M22 26 C22.02 26.66 22.18 28.15 21 28 C20.98 27.34 20.82 25.85 22 26 z"/>
<path style="fill:#545454" d="M60 31 L58 32 C57.18 27.06 61.22 24.25 60 31 z"/>
<path style="fill:#686868" d="M29 33 L29 34 L27 35 C27.56 34.2 26.21 32.03 26 34 C21.67 30.01 29.11 33.03 27.25 27.25 L29 33 z"/>
<path style="fill:#a4a4a4" d="M41 27 L40 28 L41 27 z"/>
<path style="fill:#878787" d="M47 28 L46 27 L47 28 z"/>
<path style="fill:#616161" d="M66 32 L65 27 L66 32 z"/>
<path style="fill:#616161" d="M69 28 L68 28 C67.57 26.94 69.43 26.94 69 28 z"/>
<path style="fill:#696969" d="M70 29 L69 28 L70 29 z"/>
<path style="fill:#adadad" d="M47 31 L47 29 C48.33 28.78 48.33 31.22 47 31 z"/>
<path style="fill:#7a7a7a" d="M71 30 L70 29 L71 30 z"/>
<path style="fill:#808181" d="M29 37 L29 35 L34.75 31.75 C33.83 32.16 33.63 34.1 35 34 L29 37 z"/>
<path style="fill:#828282" d="M42 31 L41 31 C40.57 29.94 42.43 29.94 42 31 z"/>
<path style="fill:#a4a4a4" d="M46 31 L44 31 C43.78 29.67 46.22 29.67 46 31 z"/>
<path style="fill:#777878" d="M53 32 C49.27 31.13 53.45 28.36 53 32 z"/>
<path style="fill:#737373" d="M61 33 C60.84 28.47 65.07 31.54 61 33 z"/>
<path style="fill:#9d9e9e" d="M68 30 C68.02 30.66 68.18 32.15 67 32 C66.98 31.34 66.82 29.85 68 30 z"/>
<path style="fill:#828282" d="M42 35 L42 31 C43.55 31.19 43.55 34.81 42 35 z"/>
<path style="fill:#5f6060" d="M72 33 C70.82 33.15 70.98 31.66 71 31 C72.18 30.85 72.02 32.34 72 33 z"/>
<path style="fill:#808080" d="M20 33 L19 32 L20 33 z"/>
<path style="fill:#b9b9b9" d="M30 32 C30.02 32.66 30.18 34.15 29 34 L29 33 L30 32 z"/>
<path style="fill:#999999" d="M15 33 L15 37 C13.45 36.81 13.45 33.19 15 33 z"/>
<path style="fill:#979898" d="M27 35 C27.19 35.95 26.41 37.94 28 38 L27 43 C26.34 42.98 24.85 42.82 25 44 L23 41 L24 41 L26 34 C26.21 32.03 27.56 34.2 27 35 z"/>
<path style="fill:#d7d8d8" d="M29 34 L29 35 L29 37 L28 38 C26.41 37.94 27.19 35.95 27 35 L29 34 z"/>
<path style="fill:#828383" d="M24 40 L23 41 C19.71 39.66 18.14 36.71 22.75 38.75 C20.11 32.66 26.63 37.45 24 40 z"/>
<path style="fill:#c2c3c3" d="M60 35 C59.71 36.65 60.81 42.72 62 41 L64 41 C61.59 43.36 60.95 48.64 63 51 L61 58 C59.82 58.15 59.98 56.66 60 56 L56 50 L58 50 L60 52 C61.62 51.27 61.62 46.73 60 46 L60 45 L59 44 L59 43 C61.2 41.99 58.98 38.01 58 37 C57.54 35.65 58.65 34.54 60 35 z"/>
<path style="fill:#6e6f6f" d="M64 41 L62 41 C60.9 36.75 65.84 32.3 64.25 38.75 C68.86 36.71 67.29 39.66 64 41 z"/>
<path style="fill:#747575" d="M31 41 L30 40 C30.79 36.57 37.75 35.31 33.25 38.75 C37.11 39.66 33.2 42.02 31 41 z"/>
<path style="fill:#878787" d="M42 36 L41 37 L42 36 z"/>
<path style="fill:#6a6b6b" d="M56 39 C54.82 38.85 54.98 40.34 55 41 C51.73 41.85 51.57 39.15 53.75 38.25 C48.01 36.09 55.17 35.4 56 39 z"/>
<path style="fill:#878787" d="M12 38 L11 38 C10.57 36.94 12.43 36.94 12 38 z"/>
<path style="fill:#9fa0a0" d="M76 38 L74 38 C73.78 36.67 76.22 36.67 76 38 z"/>
<path style="fill:#9b9b9b" d="M13 39 L12 38 L13 39 z"/>
<path style="fill:#868686" d="M72 38 C72.02 38.66 72.18 40.15 71 40 C70.98 39.34 70.82 37.85 72 38 z"/>
<path style="fill:#8a8a8a" d="M16 40 L15 39 L16 40 z"/>
<path style="fill:#666666" d="M39 39 L38 40 L39 39 z"/>
<path style="fill:#babbbb" d="M56 39 L59 43 L55 41 C54.98 40.34 54.82 38.85 56 39 z"/>
<path style="fill:#737373" d="M11 40 L11 46 C9.379 45.27 9.379 40.73 11 40 z"/>
<path style="fill:#939393" d="M14 41 L13 40 L14 41 z"/>
<path style="fill:#f1f1f1" d="M24 40 L24 41 L23 41 L24 40 z"/>
<path style="fill:#c3c3c3" d="M31 41 L30 42 L29 42 L30 40 L31 41 z"/>
<path style="fill:#acacac" d="M76 45 L76 40 C77.6 40.45 77.6 44.55 76 45 z"/>
<path style="fill:#aaaaaa" d="M16 41 C16.22 42.33 13.78 42.33 14 41 L16 41 z"/>
<path style="fill:#939393" d="M41 41 L40 42 L41 41 z"/>
<path style="fill:#525353" d="M46 42 C44.82 41.85 44.98 43.34 45 44 C42.38 43.73 45.07 38.91 46 42 z"/>
<path style="fill:#989898" d="M49 41 L48 42 L49 41 z"/>
<path style="fill:#848484" d="M73 41 L72 42 L73 41 z"/>
<path style="fill:#d8d8d8" d="M29 42 L29 43 L28 43 L29 42 z"/>
<path style="fill:#707070" d="M30 42 L29 43 L29 42 L30 42 z"/>
<path style="fill:#676767" d="M31 46 L30 46 C32.68 40.33 37.49 43.14 31 46 z"/>
<path style="fill:#7d7d7d" d="M58 50 L56 50 C49.44 49.43 52.41 47.68 56 48 C48.9 40.02 56.81 42.67 58 50 z"/>
<path style="fill:#727373" d="M22 47 L21 47 L20 47 C18.02 42.44 20.8 43.03 22 47 z"/>
<path style="fill:#e8e9e9" d="M27 43 L28 43 L27 45 L26 51 L25 51 L25 44 C24.85 42.82 26.34 42.98 27 43 z"/>
<path style="fill:#7f8080" d="M65 50 L64 49 C64.64 43.75 69.76 41.65 66.25 47.75 C72.81 45.55 69.46 49.23 65 50 z"/>
<path style="fill:#656565" d="M60 45 L59 44 L60 45 z"/>
<path style="fill:#3b3c3c" d="M27 45 L28 51 L27 53 C25.82 53.15 25.98 51.66 26 51 L27 45 z"/>
<path style="fill:#777777" d="M42 45 L41 46 L42 45 z"/>
<path style="fill:#9b9c9c" d="M31 46 L31.25 48.75 C38.55 46.21 29.64 52.33 27 53 L28 51 L30 46 L31 46 z"/>
<path style="fill:#4e4e4e" d="M60 52 L60 46 C61.62 46.73 61.62 51.27 60 52 z"/>
<path style="fill:#737373" d="M20 47 L21 48 L21 49 C17.23 49.6 14.3 45.93 20 47 z"/>
<path style="fill:#0" d="M21 47 L21 48 L20 47 L21 47 z"/>
<path style="fill:#c5c5c5" d="M22 47 L22 48 L23 49 L25 51 L26 51 C25.98 51.66 25.82 53.15 27 53 L28.25 60.75 L32 55 C31.98 55.66 31.82 57.15 33 57 L30 62 C28.82 61.85 28.98 63.34 29 64 L26 62 C26.32 61.1 28.02 59.27 26 59 C26.36 54.81 23.39 52.01 21 49 L21 48 L21 47 L22 47 z"/>
<path style="fill:#9c9c9c" d="M47 48 L46 47 L47 48 z"/>
<path style="fill:#969696" d="M76 47 L75 48 L76 47 z"/>
<path style="fill:#8f8f8f" d="M10 49 L9 49 C8.568 47.94 10.43 47.94 10 49 z"/>
<path style="fill:#666666" d="M23 49 L22 48 L23 49 z"/>
<path style="fill:#5e5f5f" d="M77 55 L76 51 C77.06 44.18 79.84 53.62 77 55 z"/>
<path style="fill:#737373" d="M13 50 L12 49 L13 50 z"/>
<path style="fill:#f1f1f1" d="M65 50 L64 50 L64 49 L65 50 z"/>
<path style="fill:#a4a4a4" d="M75 49 L74 50 L75 49 z"/>
<path style="fill:#888888" d="M11 51 L10 50 L11 51 z"/>
<path style="fill:#a7a7a7" d="M46 51 L45 51 C44.57 49.94 46.43 49.94 46 51 z"/>
<path style="fill:#d7d7d7" d="M64 50 L64 51 L63 51 L64 50 z"/>
<path style="fill:#737373" d="M65 50 L64 51 L64 50 L65 50 z"/>
<path style="fill:#909090" d="M74 50 L73 51 L74 50 z"/>
<path style="fill:#4e4e4e" d="M41 55 L38 51 C41.02 49.51 43.86 53.24 41 55 z"/>
<path style="fill:#696a6a" d="M49 51 C49.04 52.48 45.96 52.48 46 51 L49 51 z"/>
<path style="fill:#6c6c6c" d="M12 53 L11 52 L12 53 z"/>
<path style="fill:#aaaaaa" d="M45 52 L45 53 C43.94 53.43 43.94 51.57 45 52 z"/>
<path style="fill:#888888" d="M13 54 L12 53 L13 54 z"/>
<path style="fill:#7e7f7f" d="M33 57 C31.82 57.15 31.98 55.66 32 55 C32.2 51.61 34.42 53.53 33.25 55.75 C36.21 53.55 36.2 57.5 33 57 z"/>
<path style="fill:#838484" d="M56 57 C55.34 56.98 53.85 56.82 54 58 L53 58 L52 57 C51.07 55.84 50.98 54.55 53 55 C52.86 56.88 54.88 54.86 53 55 C52.4 51.19 56.75 55.23 56 57 z"/>
<path style="fill:#7d7d7d" d="M72 53 L71 54 L72 53 z"/>
<path style="fill:#777777" d="M75 53 L74 54 L75 53 z"/>
<path style="fill:#878787" d="M14 55 L13 54 L14 55 z"/>
<path style="fill:#757575" d="M24 58 L23 58 C16.9 54.69 21.44 52.62 24 58 z"/>
<path style="fill:#5f5f5f" d="M46 55 L45 54 L46 55 z"/>
<path style="fill:#737474" d="M65 56 C65.87 52.27 68.64 56.45 65 56 z"/>
<path style="fill:#797979" d="M74 54 L73 55 L74 54 z"/>
<path style="fill:#6d6d6d" d="M16 55 C16.22 56.33 13.78 56.33 14 55 L16 55 z"/>
<path style="fill:#060606" d="M53 55 C54.88 54.86 52.86 56.88 53 55 z"/>
<path style="fill:#8f8f8f" d="M72 55 C72.43 56.06 70.57 56.06 71 55 L72 55 z"/>
<path style="fill:#a9a9a9" d="M47 57 L46 56 L47 57 z"/>
<path style="fill:#9b9c9c" d="M60 56 C59.98 56.66 59.82 58.15 61 58 L65 56 L64.25 58.75 C71.85 59.04 62.66 61.33 60 62 C59.94 60.41 57.95 61.19 57 61 C55.82 61.15 55.98 59.66 56 59 L60 56 z"/>
<path style="fill:#969696" d="M40 57 L39 58 L40 57 z"/>
<path style="fill:#6b6b6b" d="M48 58 L47 57 L48 58 z"/>
<path style="fill:#7d7e7e" d="M52 57 L53 58 L54 61 L53 61 C52.03 60.54 49.9 57.46 52 57 z"/>
<path style="fill:#0" d="M53 58 L52 57 L53 58 z"/>
<path style="fill:#dfdfdf" d="M56 57 L56 59 L54 58 C53.85 56.82 55.34 56.98 56 57 z"/>
<path style="fill:#8d8d8d" d="M77 57 L76 58 L77 57 z"/>
<path style="fill:#9fa0a0" d="M24 58 C23.98 58.82 25.87 60.87 26 59 C28.02 59.27 26.32 61.1 26 62 C22.42 59.52 16.3 60.12 23 58 L24 58 z"/>
<path style="fill:#ababab" d="M34 70 C33.06 68.35 30.82 67.05 30 70 L29 70 L25 68 C26.35 68.46 27.46 67.35 27 66 C30.01 68.69 30.1 67.08 29 64 C28.98 63.34 28.82 61.85 30 62 C29.77 63.83 30.5 66.15 32 67 L34.75 58.25 C35.13 64.19 35.95 61.93 34 70 z"/>
<path style="fill:#585858" d="M39 58 L39 62 C37.45 61.81 37.45 58.19 39 58 z"/>
<path style="fill:#1a1a1a" d="M54 58 L56 59 C55.98 59.66 55.82 61.15 57 61 L56 67 C52.55 69.45 54.5 62.87 54 61 L53 58 L54 58 z"/>
<path style="fill:#d8d9d9" d="M54 61 C54.5 62.87 52.55 69.45 56 67 L56 70 L53 72 L52 72 C54.01 69.57 52.59 66.54 52 64 L53 63 L53 61 L54 61 z"/>
<path style="fill:#d0d0d0" d="M60 62 L59 63 L57 67 L56 67 L57 61 C57.95 61.19 59.94 60.41 60 62 z"/>
<path style="fill:#727272" d="M73 61 L72 62 L73 61 z"/>
<path style="fill:#898989" d="M16 63 L15 62 L16 63 z"/>
<path style="fill:#646464" d="M42 63 C41.05 62.81 39.06 63.59 39 62 C39.95 62.19 41.94 61.41 42 63 z"/>
<path style="fill:#5a5b5b" d="M48 62 C48.22 63.33 45.78 63.33 46 62 L48 62 z"/>
<path style="fill:#6f7070" d="M52 63 L51 63 C48.61 62.59 52.33 61.04 52 63 z"/>
<path style="fill:#6b6b6b" d="M60 62 L59 63 L60 62 z"/>
<path style="fill:#777777" d="M14 64 L13 64 C12.57 62.94 14.43 62.94 14 64 z"/>
<path style="fill:#c5c5c5" d="M52 63 L52 64 L51 63 L52 63 z"/>
<path style="fill:#5f5f5f" d="M53 63 L52 64 L52 63 L53 63 z"/>
<path style="fill:#848484" d="M70 63 L69 64 L70 63 z"/>
<path style="fill:#616262" d="M73 65 L72 65 C72.12 62.24 75.67 63.8 73 65 z"/>
<path style="fill:#1d1d1d" d="M14 64 L14 65 L13 65 L13 64 L14 64 z"/>
<path style="fill:#7a7a7a" d="M15 65 L14 65 L14 64 L15 65 z"/>
<path style="fill:#a4a4a4" d="M19 65 L18 64 L19 65 z"/>
<path style="fill:#929393" d="M26 65 C22.78 65.73 25.3 62.48 26 65 z"/>
<path style="fill:#8a8a8a" d="M59 69 L59 67 C59.58 62.44 64.95 64.02 60 67 C62.99 68.56 63.22 69.16 59 69 z"/>
<path style="fill:#606060" d="M68 64 L67 65 L68 64 z"/>
<path style="fill:#8b8b8b" d="M14 65 L14 66 L13 65 L14 65 z"/>
<path style="fill:#a3a3a3" d="M17 66 L16 65 L17 66 z"/>
<path style="fill:#6d6e6e" d="M18 66 C18.66 66.02 20.15 66.18 20 65 C23.09 65.93 18.27 68.62 18 66 z"/>
<path style="fill:#bebebe" d="M27 66 L26 65 L27 66 z"/>
<path style="fill:#939393" d="M71 65 L70 66 L71 65 z"/>
<path style="fill:#676868" d="M69 66 C69.04 67.48 65.96 67.48 66 66 L69 66 z"/>
<path style="fill:#a4a4a4" d="M15 68 L14 67 L15 68 z"/>
<path style="fill:#696969" d="M42 67 L41 68 L42 67 z"/>
<path style="fill:#909191" d="M57 67 L58 68 L58 69 C58.15 70.18 56.66 70.02 56 70 L56 67 L57 67 z"/>
<path style="fill:#e8e8e8" d="M59 67 L59 69 L58 69 L58 68 L59 67 z"/>
<path style="fill:#4b4b4b" d="M25 68 L29 70 C26.82 70.87 19.91 69.15 25 68 z"/>
<path style="fill:#d4d4d4" d="M34 70 L36 72 L37 74 C35.82 73.85 35.98 75.34 36 76 L35 76 C35.57 73.18 32.66 70.14 30 70 C30.82 67.05 33.06 68.35 34 70 z"/>
<path style="fill:#939393" d="M46 69 L45 68 L46 69 z"/>
<path style="fill:#777777" d="M72 68 L71 69 L72 68 z"/>
<path style="fill:#888888" d="M47 71 L46 70 L47 71 z"/>
<path style="fill:#9d9d9d" d="M40 71 L39 72 L40 71 z"/>
<path style="fill:#6c6c6c" d="M48 72 L47 71 L48 72 z"/>
<path style="fill:#8e8e8e" d="M39 72 L39 74 L37 74 L36 72 L39 72 z"/>
<path style="fill:#9fa0a0" d="M52 72 L53 72 L52 76 L50 76 C50.46 74.65 49.35 73.54 48 74 L48 72 L52 72 z"/>
<path style="fill:#7f7f7f" d="M21 74 L20 73 L21 74 z"/>
<path style="fill:#878787" d="M67 73 L66 74 L67 73 z"/>
<path style="fill:#242424" d="M37 74 L39 74 L42 77 L41 78 L40 78 L39 78 L38 77 L37 76 L36 76 C35.98 75.34 35.82 73.85 37 74 z"/>
<path style="fill:#0f1010" d="M48 74 C49.35 73.54 50.46 74.65 50 76 L49 77 L47 78 L44 81 L43 81 L42 82 L38 82 L37 82 L37 80 L38 80 L39 79 L40 79 L41 78 C41.66 78.02 43.15 78.18 43 77 L45 76 L46 75 L48 74 z"/>
<path style="fill:#777777" d="M65 74 L64 75 L65 74 z"/>
<path style="fill:#a9a9a9" d="M24 76 L23 75 L24 76 z"/>
<path style="fill:#989898" d="M46 75 L45 76 L46 75 z"/>
<path style="fill:#8b8b8b" d="M64 75 C64.15 76.18 62.66 76.02 62 76 C61.85 74.82 63.34 74.98 64 75 z"/>
<path style="fill:#575858" d="M34 76 C32.66 77.65 27.34 77.65 26 76 L34 76 z"/>
<path style="fill:#909090" d="M38 77 L37 76 L38 77 z"/>
<path style="fill:#9c9c9c" d="M50 76 L49 77 L50 76 z"/>
<path style="fill:#585959" d="M60 76 C58.66 77.65 53.34 77.65 52 76 L60 76 z"/>
<path style="fill:#9b9b9b" d="M39 78 L38 77 L39 78 z"/>
<path style="fill:#a2a3a3" d="M42 77 L43 77 C43.15 78.18 41.66 78.02 41 78 L42 77 z"/>
<path style="fill:#9e9e9e" d="M41 78 L40 79 L40 78 L41 78 z"/>
<path style="fill:#868787" d="M47 78 L49 80 C47.4 79.72 45.34 80.14 45 82 L44 81 L47 78 z"/>
<path style="fill:#959595" d="M39 79 L38 80 L39 79 z"/>
<path style="fill:#616262" d="M37 80 L37 82 C35.67 82.22 35.67 79.78 37 80 z"/>
<path style="fill:#0d0d0d" d="M49 80 L50 80 L50 82 L49 82 L45 82 C45.34 80.14 47.4 79.72 49 80 z"/>
<path style="fill:#808181" d="M50 82 L50 80 C51.33 79.78 51.33 82.22 50 82 z"/>
<path style="fill:#7c7c7c" d="M43 81 L42 82 L43 81 z"/>
<path style="fill:#a4a4a4" d="M42 82 C41.81 83.55 38.19 83.55 38 82 L42 82 z"/>
<path style="fill:#999a9a" d="M49 82 C48.81 83.55 45.19 83.55 45 82 L49 82 z"/>
</svg>
