<?xml version="1.0" standalone="yes"?>
<svg width="87" height="97">
<path style="fill:#fcfdfd" d="M87 0 L87 97 L0 97 L0 0 L87 0 z"/>
<path style="fill:#9e9e9e" d="M45 18 L43 18 C42.78 16.67 45.22 16.67 45 18 z"/>
<path style="fill:#070707" d="M43 18 L45 18 L46 19 L47 20 L48 21 L48 22 L49 23 L50 26 C49.98 26.66 49.82 28.15 51 28 L51 31 C50.95 35.08 51.43 39.32 50 43 C49.11 45.94 51.89 47.14 54 48 L55 49 C54.85 50.18 56.34 50.02 57 50 L58 51 L59 52 L60 53 L61 55 L62 56 L64 61 C63.98 61.66 63.82 63.15 65 63 L65 64 C65.1 65.7 65.38 69.15 63 67 C61.12 61.84 56.04 56.27 51 54 C49.94 52.32 48.28 49.82 46 50 L46 48 L45 46 L44 20 L43 46 C41.71 46.26 40.67 47.66 41 49 L41 50 L40 51 C37.72 50.82 36.06 53.32 35 55 L34 56 C31.66 56.03 29.03 58.66 29 61 L28 62 C25.09 62.36 22.08 71.61 22 65 L22 64 C23.18 64.15 23.02 62.66 23 62 L23 60 L24 59 L24 58 L25 57 L26 55 L27 54 L30 50 C30.66 50.02 32.15 50.18 32 49 C34.52 47.29 38.25 45.97 37 42 C37.02 41.34 37.18 39.85 36 40 L36 39 L36 31 L36 29 C37.18 29.15 37.02 27.66 37 27 L37 26 C38.18 26.15 38.02 24.66 38 24 L38 23 L39 22 L40 20 L41 19 L43 18 z"/>
<path style="fill:#959595" d="M46 19 L45 18 L46 19 z"/>
<path style="fill:#a9a9a9" d="M41 19 L40 20 L41 19 z"/>
<path style="fill:#a2a2a2" d="M44 20 L44 46 C44.43 47.06 42.57 47.06 43 46 L44 20 z"/>
<path style="fill:#5d5d5d" d="M47 20 L46 19 L47 20 z"/>
<path style="fill:#282929" d="M45 46 L44 46 L44 20 L45 46 z"/>
<path style="fill:#969696" d="M48 21 L47 20 L48 21 z"/>
<path style="fill:#9b9b9b" d="M39 22 L38 23 L39 22 z"/>
<path style="fill:#5f5f5f" d="M49 23 L48 22 L49 23 z"/>
<path style="fill:#797a7a" d="M38 24 C38.02 24.66 38.18 26.15 37 26 C36.98 25.34 36.82 23.85 38 24 z"/>
<path style="fill:#868686" d="M51 28 C49.82 28.15 49.98 26.66 50 26 C51.18 25.85 51.02 27.34 51 28 z"/>
<path style="fill:#9d9d9d" d="M37 27 C37.02 27.66 37.18 29.15 36 29 C35.98 28.34 35.82 26.85 37 27 z"/>
<path style="fill:#949494" d="M18 31 L17 32 L18 31 z"/>
<path style="fill:#1e1e1e" d="M22 31 L23 32 L23 34 C21.52 33.96 21.52 37.04 23 37 L24 38 L24 40 L21 38 C18.42 36.86 14.41 36.09 17 32 L18 31 L22 31 z"/>
<path style="fill:#a2a2a2" d="M23 32 L22 31 L23 32 z"/>
<path style="fill:#bebfbf" d="M36 31 L36 39 C34.35 37.66 34.35 32.34 36 31 z"/>
<path style="fill:#757575" d="M53 40 L52 43 L50 43 C51.43 39.32 50.95 35.08 51 31 L53 40 z"/>
<path style="fill:#181919" d="M70 32 C69.98 32.66 69.82 34.15 71 34 C71.49 36.31 68.92 37.52 67 37 L65 38 L65 35 L65 32 C65.45 30.4 69.55 30.4 70 32 z"/>
<path style="fill:#8c8d8d" d="M65 32 L65 35 L63 37 L63 34 L65 32 z"/>
<path style="fill:#aeafaf" d="M71 34 C69.82 34.15 69.98 32.66 70 32 C71.18 31.85 71.02 33.34 71 34 z"/>
<path style="fill:#737373" d="M27 33 L26 34 L27 33 z"/>
<path style="fill:#101010" d="M29 34 L30 35 L30 38 L29 39 C28.34 38.98 26.85 38.82 27 40 L26 40 L25 38 L24 37 L24 35 C23.85 33.82 25.34 33.98 26 34 L27 33 C27.66 32.98 29.15 32.82 29 34 z"/>
<path style="fill:#858585" d="M59 33 L58 34 L59 33 z"/>
<path style="fill:#111111" d="M63 34 L63 37 L61 40 L60 40 C60.15 38.82 58.66 38.98 58 39 L57 35 L58 34 L59 33 L63 34 z"/>
<path style="fill:#acacac" d="M23 34 L24 35 L24 37 L23 37 C21.52 37.04 21.52 33.96 23 34 z"/>
<path style="fill:#747474" d="M30 35 L29 34 L30 35 z"/>
<path style="fill:#a0a0a0" d="M58 34 L57 35 L58 34 z"/>
<path style="fill:#676767" d="M30 38 L30 35 C31.48 34.96 31.48 38.04 30 38 z"/>
<path style="fill:#a4a4a4" d="M57 35 L58 39 L53 39 C54.93 38.02 56.02 36.93 57 35 z"/>
<path style="fill:#d1d1d1" d="M65 35 L65 38 L64 39 L61 40 L63 37 L65 35 z"/>
<path style="fill:#ffffff" d="M24 37 L24 38 L23 37 L24 37 z"/>
<path style="fill:#6c6c6c" d="M25 38 L24 38 L24 37 L25 38 z"/>
<path style="fill:#949494" d="M67 37 L69 39 C66.76 38.22 65.67 40.23 64 41 L64 39 L65 38 L67 37 z"/>
<path style="fill:#929292" d="M19 38 L18 39 L19 38 z"/>
<path style="fill:#0c0c0c" d="M20 38 L23 43 C21.33 43.77 20.24 45.78 18 45 C18.02 44.34 18.18 42.85 17 43 L16 42 L18 39 L19 38 L20 38 z"/>
<path style="fill:#8a8a8a" d="M21 38 L24 40 L25 43 L23 43 L20 38 L21 38 z"/>
<path style="fill:#dedede" d="M25 38 L26 40 L24 40 L24 38 L25 38 z"/>
<path style="fill:#828383" d="M34 39 L32 39 C31.78 37.67 34.22 37.67 34 39 z"/>
<path style="fill:#181818" d="M65 38 L64 39 L65 38 z"/>
<path style="fill:#d3d4d4" d="M29 39 L30 44 C29.86 48.35 25.45 42.07 27 40 C26.85 38.82 28.34 38.98 29 39 z"/>
<path style="fill:#101111" d="M32 39 L34 39 L35 41 L35 43 L34 44 L32 45 L30 44 L29 39 L32 39 z"/>
<path style="fill:#0d0d0d" d="M58 39 L58 40 L58 42 L58 43 L57 44 L57 46 L56 47 C56.02 46.34 56.18 44.85 55 45 L54 44 L53 44 L52 43 L53 40 L53 39 L58 39 z"/>
<path style="fill:#e2e2e2" d="M60 40 C61.72 42.1 59.06 45.02 57 46 L57 44 L58 43 L58 42 C59.33 42.22 59.33 39.78 58 40 L58 39 C58.66 38.98 60.15 38.82 60 40 z"/>
<path style="fill:#4b4b4b" d="M64 39 L64 41 L64 43 C61.78 41.57 57.29 47.53 61 47 L61 49 L57 50 C56.34 50.02 54.85 50.18 55 49 C56.18 49.15 56.02 47.66 56 47 L57 46 C59.06 45.02 61.72 42.1 60 40 L61 40 L64 39 z"/>
<path style="fill:#101111" d="M69 39 L70 40 L71 41 L70 44 L69 45 L66 45 L64 43 L64 41 C65.67 40.23 66.76 38.22 69 39 z"/>
<path style="fill:#8f8f8f" d="M70 40 L69 39 L70 40 z"/>
<path style="fill:#4a4a4a" d="M26 40 L27 40 C25.45 42.07 29.86 48.35 30 44 L32 45 C31.38 46.07 29.95 48.54 32 49 C32.15 50.18 30.66 50.02 30 50 C29.94 48.41 27.95 49.19 27 49 L27 47 C28.78 46.42 25.53 43.77 25 43 L24 40 L26 40 z"/>
<path style="fill:#676868" d="M37 42 L35 43 L35 41 L36 40 C37.18 39.85 37.02 41.34 37 42 z"/>
<path style="fill:#737474" d="M58 42 L58 40 C59.33 39.78 59.33 42.22 58 42 z"/>
<path style="fill:#a3a3a3" d="M71 41 L70 40 L71 41 z"/>
<path style="fill:#767676" d="M17 43 L16 42 L17 43 z"/>
<path style="fill:#e5e6e6" d="M37 42 C38.25 45.97 34.52 47.29 32 49 C29.95 48.54 31.38 46.07 32 45 L34 44 L35 43 L37 42 z"/>
<path style="fill:#8f8f8f" d="M18 45 C16.82 45.15 16.98 43.66 17 43 C18.18 42.85 18.02 44.34 18 45 z"/>
<path style="fill:#b9baba" d="M23 43 L24 45 L21 46 C20.05 45.81 18.06 46.59 18 45 C20.24 45.78 21.33 43.77 23 43 z"/>
<path style="fill:#f7f7f7" d="M25 43 C25.53 43.77 28.78 46.42 27 47 L26 47 L25 46 L24 45 L23 43 L25 43 z"/>
<path style="fill:#808080" d="M35 43 L34 44 L35 43 z"/>
<path style="fill:#e5e6e6" d="M52 43 L53 44 L54 44 L55 45 C56.18 44.85 56.02 46.34 56 47 C56.02 47.66 56.18 49.15 55 49 L54 48 C51.89 47.14 49.11 45.94 50 43 L52 43 z"/>
<path style="fill:#939393" d="M53 44 L52 43 L53 44 z"/>
<path style="fill:#828282" d="M58 43 L57 44 L58 43 z"/>
<path style="fill:#dfdfdf" d="M64 43 L66 45 C63.76 44.22 62.67 46.23 61 47 C57.29 47.53 61.78 41.57 64 43 z"/>
<path style="fill:#676767" d="M55 45 L54 44 L55 45 z"/>
<path style="fill:#8c8c8c" d="M70 44 L69 45 L70 44 z"/>
<path style="fill:#111212" d="M24 45 L25 46 L26 47 L27 47 L27 49 L22 52 C22.02 51.34 22.18 49.85 21 50 L20 49 L21 46 L24 45 z"/>
<path style="fill:#9e9e9e" d="M25 46 L24 45 L25 46 z"/>
<path style="fill:#151515" d="M66 45 L67 48 L67 50 L66 51 L65 52 C63.15 52.33 61.67 50.46 61 49 L61 47 C62.67 46.23 63.76 44.22 66 45 z"/>
<path style="fill:#828282" d="M26 47 L25 46 L26 47 z"/>
<path style="fill:#575757" d="M43 46 C42.57 47.06 44.43 47.06 44 46 L45 46 L46 48 L41 49 C40.67 47.66 41.71 46.26 43 46 z"/>
<path style="fill:#909191" d="M46 48 L46 50 L41 50 L41 49 L46 48 z"/>
<path style="fill:#616161" d="M55 49 L54 48 L55 49 z"/>
<path style="fill:#9d9e9e" d="M67 50 L67 48 C68.33 47.78 68.33 50.22 67 50 z"/>
<path style="fill:#686868" d="M21 50 L20 49 L21 50 z"/>
<path style="fill:#7f7f7f" d="M22 52 C20.82 52.15 20.98 50.66 21 50 C22.18 49.85 22.02 51.34 22 52 z"/>
<path style="fill:#bbbbbb" d="M41 50 L40 51 L41 50 z"/>
<path style="fill:#080909" d="M46 50 C47.06 51.68 48.72 54.18 51 54 L63 67 L64 70 L62 70 C62.15 68.82 60.66 68.98 60 69 L53 66 L52 65 L51 65 C51.15 63.82 49.66 63.98 49 64 L48 63 L46 62 C45.9 60.21 42.48 58.89 42 61 L41 62 L39 63 L38 64 L37 65 L34 66 L33 67 L30 68 L29 69 L27 69 C26.34 68.98 24.85 68.82 25 70 L23 70 L28 62 L29 61 L34 56 L35 55 C37.28 55.18 38.94 52.68 40 51 L41 50 L46 50 z"/>
<path style="fill:#8c8c8c" d="M51 54 C48.72 54.18 47.06 51.68 46 50 C48.28 49.82 49.94 52.32 51 54 z"/>
<path style="fill:#a1a1a1" d="M58 51 L57 50 L58 51 z"/>
<path style="fill:#8c8d8d" d="M40 51 C38.94 52.68 37.28 55.18 35 55 C36.06 53.32 37.72 50.82 40 51 z"/>
<path style="fill:#aaaaaa" d="M59 52 L58 51 L59 52 z"/>
<path style="fill:#858585" d="M66 51 L65 52 L66 51 z"/>
<path style="fill:#9a9a9a" d="M60 53 L59 52 L60 53 z"/>
<path style="fill:#717171" d="M27 54 L26 55 L27 54 z"/>
<path style="fill:#878787" d="M63 67 L51 54 C56.04 56.27 61.12 61.84 63 67 z"/>
<path style="fill:#a8a8a8" d="M35 55 L34 56 L35 55 z"/>
<path style="fill:#7c7c7c" d="M62 56 L61 55 L62 56 z"/>
<path style="fill:#858686" d="M34 56 L29 61 C29.03 58.66 31.66 56.03 34 56 z"/>
<path style="fill:#939393" d="M25 57 L24 58 L25 57 z"/>
<path style="fill:#a7a7a7" d="M24 59 L23 60 L24 59 z"/>
<path style="fill:#6e6f6f" d="M46 62 L44 79 L43 61 L42 61 C42.48 58.89 45.9 60.21 46 62 z"/>
<path style="fill:#bababa" d="M29 61 L28 62 L29 61 z"/>
<path style="fill:#b6b7b7" d="M42 61 L43 61 L43 79 L41 62 L42 61 z"/>
<path style="fill:#040404" d="M44 79 L43 79 L43 61 L44 79 z"/>
<path style="fill:#686868" d="M65 63 C63.82 63.15 63.98 61.66 64 61 C65.18 60.85 65.02 62.34 65 63 z"/>
<path style="fill:#666666" d="M23 62 C23.02 62.66 23.18 64.15 22 64 C21.98 63.34 21.82 61.85 23 62 z"/>
<path style="fill:#838383" d="M28 62 L23 70 C20.21 70.88 20.27 65.56 22 65 C22.08 71.61 25.09 62.36 28 62 z"/>
<path style="fill:#777777" d="M39 63 L38 64 L39 63 z"/>
<path style="fill:#a5a5a5" d="M49 64 L48 63 L49 64 z"/>
<path style="fill:#414242" d="M38 64 L39 66 L40 67 L40 68 L39 69 L38 69 L37 65 L38 64 z"/>
<path style="fill:#7b7b7b" d="M51 65 L50 65 L49 65 L49 64 C49.66 63.98 51.15 63.82 51 65 z"/>
<path style="fill:#717171" d="M64 70 L63 67 C65.38 69.15 65.1 65.7 65 64 C66.62 64.77 67.02 70.72 64 70 z"/>
<path style="fill:#8b8b8b" d="M49 65 L48 66 L49 65 z"/>
<path style="fill:#151515" d="M50 65 L50 67 C48.82 66.85 48.98 68.34 49 69 L49 70 L48 79 L47 79 L47 69 C48.18 69.15 48.02 67.66 48 67 L48 66 L49 65 L50 65 z"/>
<path style="fill:#616161" d="M53 66 L52 65 L53 66 z"/>
<path style="fill:#878787" d="M34 66 L33 67 L34 66 z"/>
<path style="fill:#a3a3a3" d="M40 67 L39 66 L40 67 z"/>
<path style="fill:#767676" d="M48 67 C48.02 67.66 48.18 69.15 47 69 C46.98 68.34 46.82 66.85 48 67 z"/>
<path style="fill:#9e9f9f" d="M50 67 C50.02 67.66 50.18 69.15 49 69 C48.98 68.34 48.82 66.85 50 67 z"/>
<path style="fill:#a1a1a1" d="M30 68 L29 69 L30 68 z"/>
<path style="fill:#090a0a" d="M40 68 L40 69 L40 79 L39 79 L39 69 L40 68 z"/>
<path style="fill:#787878" d="M27 69 C27.15 70.18 25.66 70.02 25 70 C24.85 68.82 26.34 68.98 27 69 z"/>
<path style="fill:#cacaca" d="M39 69 L39 79 L38 69 L39 69 z"/>
<path style="fill:#7b7b7b" d="M40 79 L40 69 C41.66 70.99 41.66 77.01 40 79 z"/>
<path style="fill:#dfdfdf" d="M47 69 L47 79 C45.34 77.01 45.34 70.99 47 69 z"/>
<path style="fill:#8b8b8b" d="M62 70 C61.34 70.02 59.85 70.18 60 69 C60.66 68.98 62.15 68.82 62 70 z"/>
<path style="fill:#676767" d="M49 70 L48 79 L49 70 z"/>
</svg>
