<?xml version="1.0" standalone="yes"?>
<svg width="87" height="97">
<path style="fill:#fdfdfd" d="M87 0 L87 97 L0 97 L0 0 L87 0 z"/>
<path style="fill:#353636" d="M22 20 L22 41 L22 42 C20.33 36.03 20.33 25.97 22 20 z"/>
<path style="fill:#020202" d="M28 20 L29 35 C36.3 36.67 47.7 36.67 55 35 L56 20 L62 20 L62 41 L46 42 C44.34 43.99 44.34 50.01 46 52 L62 52 L61.75 72.75 C51.82 76.19 58.37 62.86 55 59 C47.7 57.33 36.3 57.33 29 59 L28 73 C16.84 74.84 24.03 58.76 22 52 L38 52 C39.66 50.01 39.66 43.99 38 42 L22 41 L22 20 L28 20 z"/>
<path style="fill:#525353" d="M29 35 L28 20 L29 35 z"/>
<path style="fill:#3f3f3f" d="M56 20 L55 35 L56 20 z"/>
<path style="fill:#3e3e3e" d="M62 42 L62 41 L62 20 C63.67 25.97 63.67 36.03 62 42 z"/>
<path style="fill:#313131" d="M55 35 C47.7 36.67 36.3 36.67 29 35 L55 35 z"/>
<path style="fill:#242424" d="M38 42 L22 42 L22 41 L38 42 z"/>
<path style="fill:#232424" d="M62 41 L62 42 L60 42 L48 42 L46 42 L62 41 z"/>
<path style="fill:#313232" d="M38 52 L38 51 L38 42 C39.66 43.99 39.66 50.01 38 52 z"/>
<path style="fill:#444444" d="M46 42 L46 51 L46 52 C44.34 50.01 44.34 43.99 46 42 z"/>
<path style="fill:#ebecec" d="M60 42 C57.36 43.66 50.64 43.66 48 42 L60 42 z"/>
<path style="fill:#cecfcf" d="M38 51 L38 52 L22 52 L21 52 L38 51 z"/>
<path style="fill:#cecece" d="M63 52 L62 52 L46 52 L46 51 L63 52 z"/>
<path style="fill:#323333" d="M22 52 C24.03 58.76 16.84 74.84 28 73 L28 74 C15.47 76.61 23.05 59.37 21 52 L22 52 z"/>
<path style="fill:#3b3b3b" d="M63 52 L62.75 73.75 C51.95 77.7 55.43 65.57 55 59 C58.37 62.86 51.82 76.19 61.75 72.75 L62 52 L63 52 z"/>
<path style="fill:#565757" d="M55 59 L29 59 C36.3 57.33 47.7 57.33 55 59 z"/>
<path style="fill:#535353" d="M29 59 L28 74 L28 73 L29 59 z"/>
</svg>
