<?xml version="1.0" standalone="yes"?>
<svg width="87" height="97">
<path style="fill:#fdfefe" d="M87 0 L87 97 L0 97 L0 0 L87 0 z"/>
<path style="fill:#050505" d="M45 19 L46 20 L47 22 L48 23 L49 25 L50 26 L51 28 L52 29 L52 30 L53 31 L55 34 L56 35 L57 36 L57 37 L58 38 L59 40 L60 41 L60 42 L59 42 L29 42 L28 42 L28 41 L29 39 L30 38 L31 36 L32 35 L33 34 C34.18 34.15 34.02 32.66 34 32 L35 31 L35 30 L36 29 L37 28 L37 27 L38 26 L39 25 L39 24 L40 23 L41 22 L42 20 L43 19 C42.78 17.67 45.22 17.67 45 19 z"/>
<path style="fill:#757575" d="M43 19 L42 20 L43 19 z"/>
<path style="fill:#878787" d="M46 20 L45 19 L46 20 z"/>
<path style="fill:#5b5b5b" d="M41 22 L40 23 L41 22 z"/>
<path style="fill:#818181" d="M48 23 L47 22 L48 23 z"/>
<path style="fill:#a7a7a7" d="M40 23 L39 24 L40 23 z"/>
<path style="fill:#5c5c5c" d="M39 25 L38 26 L39 25 z"/>
<path style="fill:#757575" d="M50 26 L49 25 L50 26 z"/>
<path style="fill:#909090" d="M38 26 L37 27 L38 26 z"/>
<path style="fill:#5f5f5f" d="M37 28 L36 29 L37 28 z"/>
<path style="fill:#787878" d="M52 29 L51 28 L52 29 z"/>
<path style="fill:#898989" d="M36 29 L35 30 L36 29 z"/>
<path style="fill:#595959" d="M53 31 L52 30 L53 31 z"/>
<path style="fill:#595959" d="M35 31 L34 32 L35 31 z"/>
<path style="fill:#575757" d="M34 32 C34.02 32.66 34.18 34.15 33 34 C32.98 33.34 32.82 31.85 34 32 z"/>
<path style="fill:#797979" d="M56 35 L55 34 L56 35 z"/>
<path style="fill:#8b8b8b" d="M32 35 L31 36 L32 35 z"/>
<path style="fill:#a6a6a6" d="M57 36 L56 35 L57 36 z"/>
<path style="fill:#757575" d="M58 38 L57 37 L58 38 z"/>
<path style="fill:#878787" d="M30 38 L29 39 L30 38 z"/>
<path style="fill:#656565" d="M60 41 L59 40 L60 41 z"/>
<path style="fill:#828282" d="M28 41 L28 42 L27 42 L28 41 z"/>
<path style="fill:#a5a5a5" d="M61 42 L60 42 L60 41 L61 42 z"/>
<path style="fill:#040404" d="M28 42 C27.98 42.66 27.82 44.15 29 44 L30 45 L30 46 L31 47 L32 48 L33 50 L34 51 L34 52 L35 53 L36 54 L37 56 L38 57 L38 58 L39 59 L40 60 L40 61 L41 62 L42 63 L43 65 C34.03 66.67 20.97 66.67 12 65 L12 64 L13 63 L14 62 L14 61 L15 60 L16 59 L16 58 L17 57 L19 54 L20 53 L20 52 L21 51 L22 50 L22 49 L23 48 L24 47 L25 45 L26 44 L27 42 L28 42 z"/>
<path style="fill:#878787" d="M29 42 L29 44 C27.82 44.15 27.98 42.66 28 42 L29 42 z"/>
<path style="fill:#fbfcfc" d="M59 42 L59 44 L58 45 L57 47 L56 48 L55 50 L54 51 L53 53 L52 54 L50 57 C48.82 56.85 48.98 58.34 49 59 L48 60 L47 61 L47 62 L46 63 L45 65 L43 65 L42 63 L41 62 L40 61 L40 60 L39 59 L38 58 L38 57 L37 56 L36 54 L35 53 L34 52 L34 51 L33 50 L32 48 L31 47 L30 46 L30 45 L29 44 L29 42 L59 42 z"/>
<path style="fill:#4e4f4f" d="M60 42 L61 42 L61 43 L59 44 L59 42 L60 42 z"/>
<path style="fill:#030404" d="M61 43 L62 44 L63 45 L63 46 L64 47 L66 50 L67 51 L67 52 L68 53 L69 54 L70 56 C69.98 56.66 69.82 58.15 71 58 L72 59 L73 60 L74 61 L74 62 L75 63 L76 65 C67.03 66.67 53.97 66.67 45 65 L46 63 L47 62 L47 61 L48 60 L49 59 C50.18 59.15 50.02 57.66 50 57 L52 54 L53 53 L54 51 L55 50 L56 48 L57 47 L58 45 L59 44 L61 43 z"/>
<path style="fill:#696969" d="M62 44 L61 43 L62 44 z"/>
<path style="fill:#777777" d="M26 44 L25 45 L26 44 z"/>
<path style="fill:#9a9a9a" d="M30 45 L29 44 L30 45 z"/>
<path style="fill:#7e7e7e" d="M59 44 L58 45 L59 44 z"/>
<path style="fill:#a1a1a1" d="M63 45 L62 44 L63 45 z"/>
<path style="fill:#6a6a6a" d="M31 47 L30 46 L31 47 z"/>
<path style="fill:#616161" d="M64 47 L63 46 L64 47 z"/>
<path style="fill:#747474" d="M24 47 L23 48 L24 47 z"/>
<path style="fill:#a9a9a9" d="M32 48 L31 47 L32 48 z"/>
<path style="fill:#737373" d="M57 47 L56 48 L57 47 z"/>
<path style="fill:#a6a6a6" d="M23 48 L22 49 L23 48 z"/>
<path style="fill:#7d7d7d" d="M22 50 L21 51 L22 50 z"/>
<path style="fill:#a2a2a2" d="M34 51 L33 50 L34 51 z"/>
<path style="fill:#7d7d7d" d="M55 50 L54 51 L55 50 z"/>
<path style="fill:#8b8b8b" d="M67 51 L66 50 L67 51 z"/>
<path style="fill:#a9a9a9" d="M21 51 L20 52 L21 51 z"/>
<path style="fill:#626262" d="M35 53 L34 52 L35 53 z"/>
<path style="fill:#606060" d="M68 53 L67 52 L68 53 z"/>
<path style="fill:#757575" d="M20 53 L19 54 L20 53 z"/>
<path style="fill:#9e9e9e" d="M36 54 L35 53 L36 54 z"/>
<path style="fill:#767676" d="M53 53 L52 54 L53 53 z"/>
<path style="fill:#8e8e8e" d="M69 54 L68 53 L69 54 z"/>
<path style="fill:#878787" d="M38 57 L37 56 L38 57 z"/>
<path style="fill:#595959" d="M71 58 C69.82 58.15 69.98 56.66 70 56 C71.18 55.85 71.02 57.34 71 58 z"/>
<path style="fill:#8e8e8e" d="M17 57 L16 58 L17 57 z"/>
<path style="fill:#696969" d="M50 57 C50.02 57.66 50.18 59.15 49 59 C48.98 58.34 48.82 56.85 50 57 z"/>
<path style="fill:#6d6d6d" d="M39 59 L38 58 L39 59 z"/>
<path style="fill:#606060" d="M72 59 L71 58 L72 59 z"/>
<path style="fill:#616161" d="M16 59 L15 60 L16 59 z"/>
<path style="fill:#8c8c8c" d="M40 60 L39 59 L40 60 z"/>
<path style="fill:#6f6f6f" d="M49 59 L48 60 L49 59 z"/>
<path style="fill:#797979" d="M73 60 L72 59 L73 60 z"/>
<path style="fill:#858585" d="M15 60 L14 61 L15 60 z"/>
<path style="fill:#a1a1a1" d="M48 60 L47 61 L48 60 z"/>
<path style="fill:#a8a8a8" d="M74 61 L73 60 L74 61 z"/>
<path style="fill:#595959" d="M41 62 L40 61 L41 62 z"/>
<path style="fill:#646464" d="M14 62 L13 63 L14 62 z"/>
<path style="fill:#818181" d="M42 63 L41 62 L42 63 z"/>
<path style="fill:#6d6d6d" d="M47 62 L46 63 L47 62 z"/>
<path style="fill:#868686" d="M75 63 L74 62 L75 63 z"/>
<path style="fill:#858585" d="M13 63 L12 64 L13 63 z"/>
<path style="fill:#959696" d="M12 65 C20.97 66.67 34.03 66.67 43 65 L45 65 C53.97 66.67 67.03 66.67 76 65 C62.06 68.33 25.94 68.33 12 65 z"/>
</svg>
