<?xml version="1.0" standalone="yes"?>
<svg width="87" height="97">
<path style="fill:#fdfdfd" d="M87 0 L87 97 L0 97 L0 0 L87 0 z"/>
<path style="fill:#424242" d="M48 13 L46 15 L45 15 C45.22 13.67 42.78 13.67 43 15 L42 16 C40.71 15.74 39.67 14.34 40 13 C41.71 9.582 46.29 9.582 48 13 z"/>
<path style="fill:#747570" d="M39 13 L38 14 L39 13 z"/>
<path style="fill:#181716" d="M40 13 C39.67 14.34 40.71 15.74 42 16 L41 20 L38 14 L39 13 L40 13 z"/>
<path style="fill:#2a2928" d="M55 18 C51.3 20.32 50.24 23.22 50 18 L49 17 C47.89 14.13 45.92 21.95 46 17 L46 15 L48 13 L55 18 z"/>
<path style="fill:#5c5857" d="M38 14 L41 20 C40.02 19.39 37.95 15.03 38 19 C35.81 19.32 35.23 17.88 35 21 L34 21 L32 18 L38 14 z"/>
<path style="fill:#080909" d="M45 15 L45 28 L43 28 L43 26 L43 15 C42.78 13.67 45.22 13.67 45 15 z"/>
<path style="fill:#6a6a6a" d="M43 15 L43 26 L42 26 L41 20 L42 16 L43 15 z"/>
<path style="fill:#5c5b5b" d="M46 15 L46 17 C45.92 21.95 47.89 14.13 49 17 C47.7 20.11 44.92 23.06 46.25 26.75 L50 18 C50.24 23.22 51.3 20.32 55 18 L57 20 L55 24 L52 26 C51.57 24.52 52.87 23.64 53.75 22.75 C57.77 16.41 43.04 28.2 49 29 L55 29 L56 29 L57 30 L54 33 C52.97 31.36 48.03 31.36 47 33 L46 33 C46.46 31.16 47.19 29.03 45 28 L45 15 L46 15 z"/>
<path style="fill:#0e0c0c" d="M41 20 L42 26 L39 23 L38 19 C37.95 15.03 40.02 19.39 41 20 z"/>
<path style="fill:#0d0c0c" d="M50 18 L46.25 26.75 C44.92 23.06 47.7 20.11 49 17 L50 18 z"/>
<path style="fill:#292626" d="M34 21 L33 21 L34.75 25.75 C32.54 25.42 31.25 24.7 30 27 L30 23 C29.22 20.76 31.23 19.67 32 18 L34 21 z"/>
<path style="fill:#353332" d="M38 19 L39 23 L38 23 C36.66 23.33 35.26 22.29 35 21 C35.23 17.88 35.81 19.32 38 19 z"/>
<path style="fill:#0f0e0e" d="M52 26 L49 29 C43.04 28.2 57.77 16.41 53.75 22.75 C52.87 23.64 51.57 24.52 52 26 z"/>
<path style="fill:#3d433a" d="M57 20 C59.13 22.5 59.13 27.5 57 30 L56 29 L55 24 L57 20 z"/>
<path style="fill:#595858" d="M33 21 L39 29 L35 28 L39 29 L41 29 L42 33 L41 33 C39.97 31.36 35.03 31.36 34 33 C31.97 31.79 29.33 29.76 30 27 C31.25 24.7 32.54 25.42 34.75 25.75 L33 21 z"/>
<path style="fill:#0c0c09" d="M34 21 L35 21 C35.26 22.29 36.66 23.33 38 23 L41 29 L39 29 L33 21 L34 21 z"/>
<path style="fill:#6d6d69" d="M30 23 L30 27 C28.45 26.81 28.45 23.19 30 23 z"/>
<path style="fill:#545454" d="M39 23 L42 26 L43 26 L43 28 C43.15 29.18 41.66 29.02 41 29 L38 23 L39 23 z"/>
<path style="fill:#1d1d1d" d="M55 24 L56 29 L55 29 C55.15 27.82 53.66 27.98 53 28 L52 26 L55 24 z"/>
<path style="fill:#636464" d="M52 26 L53 28 L49 29 L52 26 z"/>
<path style="fill:#0d0e0e" d="M39 29 L35 28 L39 29 z"/>
<path style="fill:#3e3e3d" d="M45 28 C47.19 29.03 46.46 31.16 46 33 L45 33 L43 33 L42 33 L41 29 C41.66 29.02 43.15 29.18 43 28 L45 28 z"/>
<path style="fill:#080808" d="M53 28 C53.66 27.98 55.15 27.82 55 29 L49 29 L53 28 z"/>
<path style="fill:#33312e" d="M27 31 C22.85 31.29 29.45 38.47 25.25 35.75 C25.5 34.3 23.23 33.08 23 35 L22 35 L19 34 C20.1 31.25 25.1 28.91 27 31 z"/>
<path style="fill:#61615e" d="M65 31 C65.46 32.84 66.19 34.97 64 36 L61 31 C61.46 28.95 63.93 30.38 65 31 z"/>
<path style="fill:#515050" d="M33 36 C31.84 41.03 27.19 46.91 32 49 L32 53 C29.21 52.12 29.27 57.44 31 58 L28 61 C25.01 58.27 31.68 54.38 28 52 C26.16 51.35 14.6 54.04 20.75 55.75 C18.61 57.73 21.76 58.59 23 57 C23.41 60.46 20.61 58.9 19 60 L12 48 L16 47 L27 46 L25 42 L29 42 C31.39 40.14 29.51 34.97 28.25 33.25 C27.43 36.26 28.22 39.27 29 42 L23 35 C23.23 33.08 25.5 34.3 25.25 35.75 C29.45 38.47 22.85 31.29 27 31 C29.68 31.04 31.57 34.05 33 36 z"/>
<path style="fill:#363435" d="M61 31 L64 36 L62 38 L60 38 L59 34 L58 33 C58.26 31.71 59.66 30.67 61 31 z"/>
<path style="fill:#191819" d="M67 32 L65.25 38.75 C67.97 36.06 70.15 36.08 67.25 39.75 C69 39.93 70.61 40.16 69 42 C66.87 41.42 62.76 45.12 67 45 L66 47 L60.25 46.75 C62.1 45.36 61.55 45.58 60 44 C61.34 44.33 62.74 43.29 63 42 C67.53 42.16 64.46 37.93 63 42 C58.72 44.04 60.57 40.37 62 38 L64 36 C66.19 34.97 65.46 32.84 65 31 C65.66 30.98 67.15 30.82 67 32 z"/>
<path style="fill:#070805" d="M41 33 L39 33 L35 33 L34 33 C35.03 31.36 39.97 31.36 41 33 z"/>
<path style="fill:#090606" d="M54 33 L53 33 L49 33 L47 33 C48.03 31.36 52.97 31.36 54 33 z"/>
<path style="fill:#504f4f" d="M74 42 L69 42 C70.61 40.16 69 39.93 67.25 39.75 C70.15 36.08 67.97 36.06 65.25 38.75 L67 32 C70.28 34.33 72.62 38.42 74 42 z"/>
<path style="fill:#0b070a" d="M29 42 C28.22 39.27 27.43 36.26 28.25 33.25 C29.51 34.97 31.39 40.14 29 42 z"/>
<path style="fill:#6f6e6f" d="M39 33 C38.81 34.55 35.19 34.55 35 33 L39 33 z"/>
<path style="fill:#060505" d="M45 33 L45 82 L28 81 L29 79 L30 78 L31 77 L31 76 L32 75 L34 71 L35 70 L35 69 L36 68 L36 66 L37 65 C38.05 61.11 39.7 57.4 39 53 L38 52 L37 51 L36 50 L35 49 L34 49 L32 46 L35 46 L36 47 L37 47 L38 48 L39 49 L40 50 L41 51 L41 52 L42 53 C41.57 54.06 43.43 54.06 43 53 L43 33 L45 33 z"/>
<path style="fill:#6e6d6e" d="M53 33 C52.81 34.55 49.19 34.55 49 33 L53 33 z"/>
<path style="fill:#70706c" d="M58 33 L59 34 L58 39 L56 35 L58 33 z"/>
<path style="fill:#5d5c5c" d="M19 34 L22 35 L23 39 C20.23 36.22 17.72 35.84 20.75 39.75 C17.78 39.04 16.42 39.03 19 42 L17 42 C11.52 42.04 22.51 46.31 19 42 C20.47 41.84 26.09 45.31 22 45 L14 45 L14 42 C14.62 39.01 17.24 36.2 19 34 z"/>
<path style="fill:#060606" d="M60 38 L59 41 C57.82 41.15 57.98 39.66 58 39 L59 34 L60 38 z"/>
<path style="fill:#0d0a0e" d="M23 35 L29 42 L25 42 C25.33 40.66 24.29 39.26 23 39 L22 35 L23 35 z"/>
<path style="fill:#85877c" d="M56 35 L55 36 L56 35 z"/>
<path style="fill:#2c2a28" d="M58 39 C57.98 39.66 57.82 41.15 59 41 C57.78 41.83 55.58 44.24 59 44 C58.07 46.09 59.63 49.25 56 49 L55 49 L56 46 L55 36 L56 35 L58 39 z"/>
<path style="fill:#1d1d1d" d="M23 39 C21.35 40.43 23.09 42.45 25 42 L27 46 L22 45 C26.09 45.31 20.47 41.84 19 42 C16.42 39.03 17.78 39.04 20.75 39.75 C17.72 35.84 20.23 36.22 23 39 z"/>
<path style="fill:#2f2a26" d="M33 36 L32 46 L34 49 L32 49 C27.19 46.91 31.84 41.03 33 36 z"/>
<path style="fill:#5f5f5f" d="M62 38 C60.57 40.37 58.72 44.04 63 42 C62.74 43.29 61.34 44.33 60 44 L59 44 C55.58 44.24 57.78 41.83 59 41 L60 38 L62 38 z"/>
<path style="fill:#656565" d="M25 42 C23.09 42.45 21.35 40.43 23 39 C24.29 39.26 25.33 40.66 25 42 z"/>
<path style="fill:#6f7070" d="M63 42 C64.46 37.93 67.53 42.16 63 42 z"/>
<path style="fill:#3a3935" d="M14 42 L14 45 L16 47 L12 48 C9.944 45.9 11.5 42.83 14 42 z"/>
<path style="fill:#1d1d1d" d="M19 42 C22.51 46.31 11.52 42.04 17 42 L19 42 z"/>
<path style="fill:#626261" d="M69 42 C68.97 44.57 74.74 43.66 76 44 C77.48 43.96 77.48 47.04 76 47 L71 48 L71 47 C76.98 44.86 69.83 44.75 67 45 C62.76 45.12 66.87 41.42 69 42 z"/>
<path style="fill:#21211f" d="M74 42 L75 42 L76 43 L76 44 C74.74 43.66 68.97 44.57 69 42 L74 42 z"/>
<path style="fill:#858583" d="M76 43 L75 42 L76 43 z"/>
<path style="fill:#464646" d="M60 44 C61.55 45.58 62.1 45.36 60.25 46.75 L66 47 L71 47 L71 48 C67.78 47.98 70.3 48.84 71 50 L70 51 C68.23 49.01 59.43 47.71 64 51 L64 52 C62.57 51.6 59.48 48.6 60 52 C57.98 51.55 58.07 52.84 59 54 L58 59 C54.95 56.96 56.28 52.34 56 49 C59.63 49.25 58.07 46.09 59 44 L60 44 z"/>
<path style="fill:#040404" d="M22 45 L27 46 L16 47 L14 45 L22 45 z"/>
<path style="fill:#070707" d="M71 47 L66 47 L67 45 C69.83 44.75 76.98 44.86 71 47 z"/>
<path style="fill:#8b8c84" d="M36 47 L35 46 L36 47 z"/>
<path style="fill:#80817c" d="M54 46 L53 47 L54 46 z"/>
<path style="fill:#090808" d="M56 46 L55 49 L54 49 L53 50 L51 52 L50 53 C48.45 53.19 48.45 56.81 50 57 L50 60 C49.98 60.66 49.82 62.15 51 62 L52 66 L53 67 L53 68 L54 69 L54 70 L55 71 L57 75 L58 76 L58 77 L59 78 L61 81 L61 83 L60 83 L46 82 L48 51 L49 50 L51 48 L52 47 L53 47 L54 46 L56 46 z"/>
<path style="fill:#8b8d82" d="M38 48 L37 47 L38 48 z"/>
<path style="fill:#737371" d="M52 47 L51 48 L52 47 z"/>
<path style="fill:#2a2a25" d="M76 47 L75 51 L74 52 L71 50 C70.3 48.84 67.78 47.98 71 48 L76 47 z"/>
<path style="fill:#61615f" d="M39 49 L38 48 L39 49 z"/>
<path style="fill:#090909" d="M21 49 C34.22 48.43 9.689 55.39 21 49 z"/>
<path style="fill:#5e5e5c" d="M36 50 L35 49 L36 50 z"/>
<path style="fill:#5e5e5c" d="M40 50 L39 49 L40 50 z"/>
<path style="fill:#747472" d="M54 49 L53 50 L54 49 z"/>
<path style="fill:#0c0c0c" d="M70 51 C74.58 52.69 65.6 51.5 64 51 C59.43 47.71 68.23 49.01 70 51 z"/>
<path style="fill:#959593" d="M37 51 L36 50 L37 51 z"/>
<path style="fill:#73746e" d="M41 51 L40 50 L41 51 z"/>
<path style="fill:#676765" d="M49 50 L48 51 L49 50 z"/>
<path style="fill:#0f0e0e" d="M64 52 L69 57 L68 58 L64 56 L60 52 C59.48 48.6 62.57 51.6 64 52 z"/>
<path style="fill:#626161" d="M71 50 L74 52 L73 53 C68.96 54.32 66.04 51.79 69 57 L64 52 L64 51 C65.6 51.5 74.58 52.69 70 51 L71 50 z"/>
<path style="fill:#111111" d="M28 52 L23 57 C21.76 58.59 18.61 57.73 20.75 55.75 C14.6 54.04 26.16 51.35 28 52 z"/>
<path style="fill:#989994" d="M75 51 L74 52 L75 51 z"/>
<path style="fill:#575455" d="M28 52 L25 61 C20.4 61.82 27.6 56.18 23 57 L28 52 z"/>
<path style="fill:#0f0f0f" d="M28 61 L25 61 L28 52 C31.68 54.38 25.01 58.27 28 61 z"/>
<path style="fill:#797977" d="M39 53 L38 52 L39 53 z"/>
<path style="fill:#595957" d="M42 53 L41 52 L42 53 z"/>
<path style="fill:#929290" d="M51 52 L50 53 L51 52 z"/>
<path style="fill:#12100f" d="M60 52 C60.93 53.58 61.44 56.51 64 56 C66.89 58.92 65.42 61.02 62.75 57.25 C61.77 62.2 59.5 56.82 59 54 C58.07 52.84 57.98 51.55 60 52 z"/>
<path style="fill:#5f6060" d="M64 56 C61.44 56.51 60.93 53.58 60 52 L64 56 z"/>
<path style="fill:#1c191a" d="M32 53 L31 58 C29.27 57.44 29.21 52.12 32 53 z"/>
<path style="fill:#929292" d="M43 53 C43.43 54.06 41.57 54.06 42 53 L43 53 z"/>
<path style="fill:#5a5a59" d="M50 53 L50 57 C48.45 56.81 48.45 53.19 50 53 z"/>
<path style="fill:#333231" d="M73 53 C73.15 55.25 72.21 58.1 70 59 C68.82 58.85 68.98 60.34 69 61 C66.48 61.63 66.96 59.18 68 58 L69 57 C66.04 51.79 68.96 54.32 73 53 z"/>
<path style="fill:#5a5958" d="M59 54 C59.5 56.82 61.77 62.2 62.75 57.25 C65.42 61.02 66.89 58.92 64 56 L68 58 C66.96 59.18 66.48 61.63 69 61 C66.23 63.96 59.9 63.12 58 59 L59 54 z"/>
<path style="fill:#38312e" d="M25 61 L28 61 C25.91 63.4 20.53 63.68 19 60 C20.61 58.9 23.41 60.46 23 57 C27.6 56.18 20.4 61.82 25 61 z"/>
<path style="fill:#91928a" d="M70 59 C70.02 59.66 70.18 61.15 69 61 C68.98 60.34 68.82 58.85 70 59 z"/>
<path style="fill:#5d5d5d" d="M51 62 C49.82 62.15 49.98 60.66 50 60 C51.18 59.85 51.02 61.34 51 62 z"/>
<path style="fill:#8e8f89" d="M37 65 L36 66 L37 65 z"/>
<path style="fill:#7f8078" d="M53 67 L52 66 L53 67 z"/>
<path style="fill:#66675f" d="M36 68 L35 69 L36 68 z"/>
<path style="fill:#92938e" d="M54 69 L53 68 L54 69 z"/>
<path style="fill:#84857f" d="M35 70 L34 71 L35 70 z"/>
<path style="fill:#96978f" d="M55 71 L54 70 L55 71 z"/>
<path style="fill:#767676" d="M32 75 L31 76 L32 75 z"/>
<path style="fill:#939393" d="M58 76 L57 75 L58 76 z"/>
<path style="fill:#595959" d="M31 77 L30 78 L31 77 z"/>
<path style="fill:#696969" d="M59 78 L58 77 L59 78 z"/>
<path style="fill:#898989" d="M30 78 L29 79 L30 78 z"/>
<path style="fill:#2a2a28" d="M28 81 L45 82 C40.27 84.15 32.89 82.68 27.25 82.75 C26.75 82.17 27 80.83 28 81 z"/>
<path style="fill:#605f5e" d="M61 83 L61 81 C62.33 80.78 62.33 83.22 61 83 z"/>
<path style="fill:#272726" d="M60 83 L46 82 L60 83 z"/>
</svg>
