<?xml version="1.0" standalone="yes"?>
<svg width="87" height="97">
<path style="fill:#fdfdfd" d="M87 0 L87 97 L0 97 L0 0 L87 0 z"/>
<path style="fill:#a0a0a0" d="M43 18 L42 19 L43 18 z"/>
<path style="fill:#030404" d="M73 49 L72 50 L71 51 L70 52 L69 53 L68 54 L67 55 L66 56 L64 58 L63 59 L62 60 L61 61 L60 62 L59 63 L58 64 L56 66 L55 67 L54 68 L53 69 L52 70 L51 71 L50 72 L48 74 L47 75 L46 76 L45 77 L43 78 L38 73 L37 72 L32 67 L31 66 L30 65 L27 62 L26 61 L24 59 L23 58 L22 57 L21 56 L16 51 L15 50 L14 49 L14 47 L15 46 L16 45 L17 44 L18 43 L19 42 L22 39 L23 38 L26 35 L27 34 L30 31 L31 30 L34 27 L35 26 L38 23 L39 22 L40 21 L41 20 L42 19 L43 18 C53.06 27.87 64.95 37.81 73 49 z"/>
<path style="fill:#a8a8a8" d="M42 19 L41 20 L42 19 z"/>
<path style="fill:#aaaaaa" d="M41 20 L40 21 L41 20 z"/>
<path style="fill:#a8a8a8" d="M40 21 L39 22 L40 21 z"/>
<path style="fill:#a8a8a8" d="M39 22 L38 23 L39 22 z"/>
<path style="fill:#a6a6a6" d="M35 26 L34 27 L35 26 z"/>
<path style="fill:#aaaaaa" d="M31 30 L30 31 L31 30 z"/>
<path style="fill:#a3a3a3" d="M27 34 L26 35 L27 34 z"/>
<path style="fill:#a8a8a8" d="M23 38 L22 39 L23 38 z"/>
<path style="fill:#a3a3a3" d="M19 42 L18 43 L19 42 z"/>
<path style="fill:#767777" d="M44 43 L42 43 C41.78 41.67 44.22 41.67 44 43 z"/>
<path style="fill:#aaaaaa" d="M18 43 L17 44 L18 43 z"/>
<path style="fill:#f2f2f2" d="M44 43 C45.95 44.43 48.96 46.32 49 49 L48 50 L47 51 L46 52 L45 53 L44 54 C43.34 54.02 41.85 54.18 42 53 L41 52 L40 51 L39 50 L38 49 L38 47 L42 43 L44 43 z"/>
<path style="fill:#a9a9a9" d="M17 44 L16 45 L17 44 z"/>
<path style="fill:#aaaaaa" d="M15 46 L14 47 L15 46 z"/>
<path style="fill:#838383" d="M14 47 L14 49 C12.67 49.22 12.67 46.78 14 47 z"/>
<path style="fill:#666666" d="M38 47 L38 49 C36.67 49.22 36.67 46.78 38 47 z"/>
<path style="fill:#5f5f5f" d="M15 50 L14 49 L15 50 z"/>
<path style="fill:#868686" d="M39 50 L38 49 L39 50 z"/>
<path style="fill:#5d5d5d" d="M49 49 L48 50 L49 49 z"/>
<path style="fill:#848484" d="M73 49 L72 50 L73 49 z"/>
<path style="fill:#5c5c5c" d="M16 51 L15 50 L16 51 z"/>
<path style="fill:#8e8e8e" d="M40 51 L39 50 L40 51 z"/>
<path style="fill:#616161" d="M48 50 L47 51 L48 50 z"/>
<path style="fill:#757575" d="M72 50 L71 51 L72 50 z"/>
<path style="fill:#8d8d8d" d="M41 52 L40 51 L41 52 z"/>
<path style="fill:#6b6b6b" d="M47 51 L46 52 L47 51 z"/>
<path style="fill:#767676" d="M71 51 L70 52 L71 51 z"/>
<path style="fill:#898989" d="M42 53 L41 52 L42 53 z"/>
<path style="fill:#686868" d="M46 52 L45 53 L46 52 z"/>
<path style="fill:#747474" d="M70 52 L69 53 L70 52 z"/>
<path style="fill:#6d6d6d" d="M45 53 L44 54 L45 53 z"/>
<path style="fill:#747474" d="M69 53 L68 54 L69 53 z"/>
<path style="fill:#777777" d="M68 54 L67 55 L68 54 z"/>
<path style="fill:#767676" d="M67 55 L66 56 L67 55 z"/>
<path style="fill:#5d5d5d" d="M22 57 L21 56 L22 57 z"/>
<path style="fill:#a6a7a7" d="M66 56 C66.46 57.35 65.35 58.46 64 58 L66 56 z"/>
<path style="fill:#636363" d="M23 58 L22 57 L23 58 z"/>
<path style="fill:#585858" d="M24 59 L23 58 L24 59 z"/>
<path style="fill:#737373" d="M64 58 L63 59 L64 58 z"/>
<path style="fill:#767676" d="M63 59 L62 60 L63 59 z"/>
<path style="fill:#757575" d="M62 60 L61 61 L62 60 z"/>
<path style="fill:#575757" d="M27 62 L26 61 L27 62 z"/>
<path style="fill:#737373" d="M61 61 L60 62 L61 61 z"/>
<path style="fill:#747474" d="M60 62 L59 63 L60 62 z"/>
<path style="fill:#727272" d="M59 63 L58 64 L59 63 z"/>
<path style="fill:#a2a3a3" d="M58 64 C58.46 65.35 57.35 66.46 56 66 L58 64 z"/>
<path style="fill:#575757" d="M31 66 L30 65 L31 66 z"/>
<path style="fill:#5a5a5a" d="M32 67 L31 66 L32 67 z"/>
<path style="fill:#737373" d="M56 66 L55 67 L56 66 z"/>
<path style="fill:#767676" d="M55 67 L54 68 L55 67 z"/>
<path style="fill:#757575" d="M54 68 L53 69 L54 68 z"/>
<path style="fill:#767676" d="M53 69 L52 70 L53 69 z"/>
<path style="fill:#777777" d="M52 70 L51 71 L52 70 z"/>
<path style="fill:#747474" d="M51 71 L50 72 L51 71 z"/>
<path style="fill:#585858" d="M38 73 L37 72 L38 73 z"/>
<path style="fill:#a5a5a5" d="M50 72 C50.46 73.35 49.35 74.46 48 74 L50 72 z"/>
<path style="fill:#747474" d="M48 74 L47 75 L48 74 z"/>
<path style="fill:#717171" d="M47 75 L46 76 L47 75 z"/>
<path style="fill:#747474" d="M46 76 L45 77 L46 76 z"/>
<path style="fill:#aaabab" d="M45 77 C45.9 78.56 43.19 80.02 43 78 L45 77 z"/>
</svg>
