<?xml version="1.0" standalone="yes"?>
<svg width="87" height="97">
<path style="fill:#fcfcfc" d="M87 0 L87 97 L0 97 L0 0 L87 0 z"/>
<path style="fill:#4b4c4c" d="M45 19 L40 19 C40.45 17.4 44.55 17.4 45 19 z"/>
<path style="fill:#747474" d="M39 19 L38 20 L39 19 z"/>
<path style="fill:#030404" d="M40 19 L45 19 L48 20 L49 21 L49 22 L50 23 L50 28 C49.97 30.34 47.34 32.97 45 33 L40 33 L39 33 L38 32 L37 31 L36 30 L36 29 L36 23 L36 22 L37 21 L38 20 L39 19 L40 19 z"/>
<path style="fill:#a4a4a4" d="M49 21 L48 20 L49 21 z"/>
<path style="fill:#6e6e6e" d="M37 21 L36 22 L37 21 z"/>
<path style="fill:#585858" d="M50 23 L49 22 L50 23 z"/>
<path style="fill:#3e3e3e" d="M36 23 L36 29 C34.38 28.27 34.38 23.73 36 23 z"/>
<path style="fill:#989999" d="M50 28 L50 23 C51.6 23.45 51.6 27.55 50 28 z"/>
<path style="fill:#5e5e5e" d="M25 25 C25.15 26.18 23.66 26.02 23 26 C22.85 24.82 24.34 24.98 25 25 z"/>
<path style="fill:#050606" d="M29 25 L30 26 L31 26 L32 27 L33 28 C34.71 30.26 33.77 33.31 34 36 L33 37 L31 39 L30 40 C27.31 39.77 24.26 40.71 22 39 L21 38 L20 37 L20 36 L19 35 L19 31 C20.18 31.15 20.02 29.66 20 29 L23 26 C23.66 26.02 25.15 26.18 25 25 L29 25 z"/>
<path style="fill:#696969" d="M30 26 L29 25 L30 26 z"/>
<path style="fill:#6f6f6f" d="M57 25 C57.15 26.18 55.66 26.02 55 26 C54.85 24.82 56.34 24.98 57 25 z"/>
<path style="fill:#050505" d="M62 25 L63 26 L64 27 L65 28 L66 29 L66 30 L66 35 L66 36 L65 37 L63 39 L62 40 L56 40 L55 39 C53.54 38.33 51.67 36.85 52 35 L52 30 L52 29 L53 28 L55 26 C55.66 26.02 57.15 26.18 57 25 L62 25 z"/>
<path style="fill:#a6a6a6" d="M63 26 L62 25 L63 26 z"/>
<path style="fill:#7d7d7d" d="M32 27 L31 26 L32 27 z"/>
<path style="fill:#7e7e7e" d="M33 28 L32 27 L33 28 z"/>
<path style="fill:#606060" d="M65 28 L64 27 L65 28 z"/>
<path style="fill:#5c5c5c" d="M53 28 L52 29 L53 28 z"/>
<path style="fill:#858585" d="M66 29 L65 28 L66 29 z"/>
<path style="fill:#5d5d5d" d="M20 29 C20.02 29.66 20.18 31.15 19 31 C18.98 30.34 18.82 28.85 20 29 z"/>
<path style="fill:#707070" d="M37 31 L36 30 L37 31 z"/>
<path style="fill:#4b4c4c" d="M52 30 L52 35 C50.4 34.55 50.4 30.45 52 30 z"/>
<path style="fill:#676767" d="M66 35 L66 30 C67.6 30.45 67.6 34.55 66 35 z"/>
<path style="fill:#5f5f5f" d="M38 32 L37 31 L38 32 z"/>
<path style="fill:#949494" d="M39 33 L38 32 L39 33 z"/>
<path style="fill:#747474" d="M45 33 C44.55 34.6 40.45 34.6 40 33 L45 33 z"/>
<path style="fill:#696969" d="M20 36 L19 35 L20 36 z"/>
<path style="fill:#919191" d="M34 36 L33 37 L34 36 z"/>
<path style="fill:#969797" d="M47 37 L39 37 C40.34 35.35 45.66 35.35 47 37 z"/>
<path style="fill:#616161" d="M66 36 L65 37 L66 36 z"/>
<path style="fill:#8e8e8e" d="M21 38 L20 37 L21 38 z"/>
<path style="fill:#828282" d="M38 37 L37 38 L38 37 z"/>
<path style="fill:#030303" d="M39 37 L47 37 L49 38 L50 39 L53 42 L54 43 L55 46 L55 52 L52 58 L51 59 L47 61 L39 61 L38 61 L37 60 L36 60 L35 59 L34 58 L33 57 L32 56 L32 55 L31 54 L31 53 C31.02 52.34 31.18 50.85 30 51 L30 47 C31.18 47.15 31.02 45.66 31 45 L32 42 L33 41 L34 40 L35 39 L37 38 L38 37 L39 37 z"/>
<path style="fill:#797979" d="M22 39 L21 38 L22 39 z"/>
<path style="fill:#565656" d="M50 39 L49 38 L50 39 z"/>
<path style="fill:#808080" d="M31 39 L30 40 L31 39 z"/>
<path style="fill:#7e7e7e" d="M35 39 L34 40 L35 39 z"/>
<path style="fill:#676767" d="M56 40 L55 39 L56 40 z"/>
<path style="fill:#747474" d="M63 39 L62 40 L63 39 z"/>
<path style="fill:#6a6a6a" d="M34 40 L33 41 L34 40 z"/>
<path style="fill:#404040" d="M23 42 L17 42 C17.73 40.38 22.27 40.38 23 42 z"/>
<path style="fill:#8e8e8e" d="M33 41 L32 42 L33 41 z"/>
<path style="fill:#6b6c6c" d="M64 41 C64.15 42.18 62.66 42.02 62 42 C61.85 40.82 63.34 40.98 64 41 z"/>
<path style="fill:#070808" d="M68 41 L69 42 L70 42 L71 43 L72 44 L73 47 L73 51 L73 52 L72 53 L70 55 L69 56 L67 56 L64 56 L62 56 L61 55 L60 54 L59 53 C57.44 51.03 58.14 48.39 58 46 L59 45 L62 42 C62.66 42.02 64.15 42.18 64 41 L68 41 z"/>
<path style="fill:#878787" d="M69 42 L68 41 L69 42 z"/>
<path style="fill:#6f6f6f" d="M16 42 L15 43 L16 42 z"/>
<path style="fill:#040404" d="M17 42 L23 42 L24 42 L25 43 L26 44 L27 45 L27 46 L27 51 L26 54 L25 55 L22 56 L17 56 C15.32 54.94 12.82 53.28 13 51 L13 46 L13 45 L14 44 L15 43 L16 42 L17 42 z"/>
<path style="fill:#757575" d="M25 43 L24 42 L25 43 z"/>
<path style="fill:#595959" d="M54 43 L53 42 L54 43 z"/>
<path style="fill:#a6a6a6" d="M71 43 L70 42 L71 43 z"/>
<path style="fill:#585858" d="M15 43 L14 44 L15 43 z"/>
<path style="fill:#5d5d5d" d="M26 44 L25 43 L26 44 z"/>
<path style="fill:#a3a3a3" d="M72 44 L71 43 L72 44 z"/>
<path style="fill:#7e7e7e" d="M14 44 L13 45 L14 44 z"/>
<path style="fill:#979797" d="M27 45 L26 44 L27 45 z"/>
<path style="fill:#8d8d8d" d="M31 45 C31.02 45.66 31.18 47.15 30 47 C29.98 46.34 29.82 44.85 31 45 z"/>
<path style="fill:#919191" d="M59 45 L58 46 L59 45 z"/>
<path style="fill:#555555" d="M13 46 L13 51 C11.4 50.55 11.4 46.45 13 46 z"/>
<path style="fill:#727373" d="M27 51 L27 46 C28.6 46.45 28.6 50.55 27 51 z"/>
<path style="fill:#989999" d="M55 52 L55 46 C56.62 46.73 56.62 51.27 55 52 z"/>
<path style="fill:#a6a6a6" d="M73 51 L73 47 C74.55 47.19 74.55 50.81 73 51 z"/>
<path style="fill:#858585" d="M31 53 C29.82 53.15 29.98 51.66 30 51 C31.18 50.85 31.02 52.34 31 53 z"/>
<path style="fill:#8e8e8e" d="M73 52 L72 53 L73 52 z"/>
<path style="fill:#757575" d="M60 54 L59 53 L60 54 z"/>
<path style="fill:#969696" d="M26 54 L25 55 L26 54 z"/>
<path style="fill:#636363" d="M32 55 L31 54 L32 55 z"/>
<path style="fill:#939393" d="M62 56 L61 55 L62 56 z"/>
<path style="fill:#828282" d="M70 55 L69 56 L70 55 z"/>
<path style="fill:#929393" d="M22 56 C21.55 57.6 17.45 57.6 17 56 L22 56 z"/>
<path style="fill:#8e8e8e" d="M33 57 L32 56 L33 57 z"/>
<path style="fill:#7f7f7f" d="M67 56 C67.04 57.48 63.96 57.48 64 56 L67 56 z"/>
<path style="fill:#4d4d4d" d="M29 58 L24 58 C24.45 56.4 28.55 56.4 29 58 z"/>
<path style="fill:#606060" d="M34 58 L33 57 L34 58 z"/>
<path style="fill:#565757" d="M62 58 L56 58 C56.73 56.38 61.27 56.38 62 58 z"/>
<path style="fill:#5c5c5c" d="M23 58 L22 59 L23 58 z"/>
<path style="fill:#040505" d="M24 58 L29 58 C30.85 57.67 32.33 59.54 33 61 L34 62 L34 68 L33 69 L31 71 L30 72 L29 72 L24 72 L23 72 L22 71 L21 70 L20 69 C18.64 67.3 19.02 65.09 19 63 C20.18 63.15 20.02 61.66 20 61 L22 59 L23 58 L24 58 z"/>
<path style="fill:#717171" d="M35 59 L34 58 L35 59 z"/>
<path style="fill:#9b9b9b" d="M52 58 L51 59 L52 58 z"/>
<path style="fill:#797979" d="M55 58 L54 59 L55 58 z"/>
<path style="fill:#040404" d="M56 58 L62 58 L63 58 L64 59 L65 60 L66 61 L66 63 L66 67 L65 70 L64 71 L61 72 L56 72 L55 72 L54 71 L53 70 L52 69 L52 68 L52 62 L52 61 L53 60 L54 59 L55 58 L56 58 z"/>
<path style="fill:#8c8c8c" d="M64 59 L63 58 L64 59 z"/>
<path style="fill:#989898" d="M36 60 L35 59 L36 60 z"/>
<path style="fill:#6e6e6e" d="M54 59 L53 60 L54 59 z"/>
<path style="fill:#737373" d="M65 60 L64 59 L65 60 z"/>
<path style="fill:#747474" d="M38 61 L37 60 L38 61 z"/>
<path style="fill:#7a7a7a" d="M53 60 L52 61 L53 60 z"/>
<path style="fill:#a6a6a6" d="M66 61 L65 60 L66 61 z"/>
<path style="fill:#737373" d="M20 61 C20.02 61.66 20.18 63.15 19 63 C18.98 62.34 18.82 60.85 20 61 z"/>
<path style="fill:#626262" d="M34 62 L33 61 L34 62 z"/>
<path style="fill:#777878" d="M47 61 C45.66 62.65 40.34 62.65 39 61 L47 61 z"/>
<path style="fill:#585959" d="M52 62 L52 68 C50.38 67.27 50.38 62.73 52 62 z"/>
<path style="fill:#575858" d="M66 67 L66 63 C67.55 63.19 67.55 66.81 66 67 z"/>
<path style="fill:#858585" d="M40 64 L39 65 L40 64 z"/>
<path style="fill:#060707" d="M48 66 L49 67 L50 68 L50 69 L50 73 L50 75 L49 76 L47 78 L46 79 L45 79 L41 79 L38 78 L37 77 L36 75 L36 68 L39 65 L40 64 C42.75 64.02 46.46 63.46 48 66 z"/>
<path style="fill:#5d5d5d" d="M49 67 L48 66 L49 67 z"/>
<path style="fill:#9b9b9b" d="M50 68 L49 67 L50 68 z"/>
<path style="fill:#747474" d="M34 68 L33 69 L34 68 z"/>
<path style="fill:#4e4f4f" d="M36 68 L36 75 C34.36 73.97 34.36 69.03 36 68 z"/>
<path style="fill:#6a6a6a" d="M21 70 L20 69 L21 70 z"/>
<path style="fill:#878787" d="M50 73 L50 69 C51.55 69.19 51.55 72.81 50 73 z"/>
<path style="fill:#9e9e9e" d="M53 70 L52 69 L53 70 z"/>
<path style="fill:#595959" d="M22 71 L21 70 L22 71 z"/>
<path style="fill:#7f7f7f" d="M54 71 L53 70 L54 71 z"/>
<path style="fill:#909090" d="M65 70 L64 71 L65 70 z"/>
<path style="fill:#7d7d7d" d="M23 72 L22 71 L23 72 z"/>
<path style="fill:#606060" d="M31 71 L30 72 L31 71 z"/>
<path style="fill:#a3a3a3" d="M55 72 L54 71 L55 72 z"/>
<path style="fill:#696a6a" d="M29 72 C28.55 73.6 24.45 73.6 24 72 L29 72 z"/>
<path style="fill:#6b6b6b" d="M61 72 C60.55 73.6 56.45 73.6 56 72 L61 72 z"/>
<path style="fill:#808080" d="M50 75 L49 76 L50 75 z"/>
<path style="fill:#a6a6a6" d="M38 78 L37 77 L38 78 z"/>
<path style="fill:#8b8b8b" d="M47 78 L46 79 L47 78 z"/>
<path style="fill:#a2a2a2" d="M45 79 C44.81 80.55 41.19 80.55 41 79 L45 79 z"/>
</svg>
