<?xml version="1.0" standalone="yes"?>
<svg width="87" height="97">
<path style="fill:#fcfcfc" d="M87 0 L87 97 L0 97 L0 0 L87 0 z"/>
<path style="fill:#141515" d="M43 21 L43 25 L42 27 L40 25 C38.82 24.85 38.98 26.34 39 27 L39 28 L34 28 L33 23 C33.95 22.81 35.94 23.59 36 22 L43 21 z"/>
<path style="fill:#989999" d="M45 21 L45 25 L43 25 L43 21 L45 21 z"/>
<path style="fill:#101111" d="M48 21 L55 23 L56 24 L56 25 L55 26 L54 27 L53 28 L49 28 L49 27 C50.33 27.22 50.33 24.78 49 25 L48 25 C46.82 24.85 46.98 26.34 47 27 L45 25 L45 21 L48 21 z"/>
<path style="fill:#969797" d="M55 23 L48 21 C50.46 20.88 53.7 20.78 55 23 z"/>
<path style="fill:#949494" d="M36 22 C35.94 23.59 33.95 22.81 33 23 C33.06 21.41 35.05 22.19 36 22 z"/>
<path style="fill:#898a8a" d="M33 23 L34 28 L33 29 L31 25 L33 23 z"/>
<path style="fill:#959595" d="M56 24 L55 23 L56 24 z"/>
<path style="fill:#adadad" d="M60 25 L57 25 C56.96 23.52 60.04 23.52 60 25 z"/>
<path style="fill:#1f1f1f" d="M31 25 L33 29 C35.28 30.5 36.7 30.58 33 32 L32 32 C31.17 31.04 31.14 28.22 29.25 29.25 C30.08 30.39 30.35 32.63 28 32 L24 31 C24.58 27.2 27.22 25.2 31 25 z"/>
<path style="fill:#f2f2f2" d="M40 25 C40.02 25.66 40.18 27.15 39 27 C38.98 26.34 38.82 24.85 40 25 z"/>
<path style="fill:#3f4040" d="M42 27 C42.19 27.95 41.41 29.94 43 30 C44.85 31.69 44.85 31.31 43 33 C41.89 35.7 41.89 38.3 43 41 L42 42 L41 38 L41.75 31.25 L40 38 L39 38 C38.82 36.81 39.63 30.79 38 33 L37 33 L37 32 C38.55 30.42 39.1 30.64 37.25 29.25 C37.97 29.05 41.23 28.82 39 28 L39 27 C40.18 27.15 40.02 25.66 40 25 L42 27 z"/>
<path style="fill:#e4e5e5" d="M45 25 L47 27 L47 29 L43 30 C41.41 29.94 42.19 27.95 42 27 L43 25 L45 25 z"/>
<path style="fill:#363636" d="M48 25 C47.98 25.66 47.82 27.15 49 27 L49 28 C47.94 27.57 47.94 29.43 49 29 C49.02 29.66 49.18 31.15 48 31 L47 31 L47 29 L47 27 C46.98 26.34 46.82 24.85 48 25 z"/>
<path style="fill:#d5d6d6" d="M49 25 L49 27 C47.82 27.15 47.98 25.66 48 25 L49 25 z"/>
<path style="fill:#656666" d="M49 27 L49 25 C50.33 24.78 50.33 27.22 49 27 z"/>
<path style="fill:#636363" d="M56 25 L57 25 C56.81 25.95 57.59 27.94 56 28 C56.02 27.34 56.18 25.85 55 26 L56 25 z"/>
<path style="fill:#121313" d="M60 25 L61 26 C60.85 27.18 62.34 27.02 63 27 L64 31 L60 32 L59 32 L59 30 C59.15 28.82 57.66 28.98 57 29 L56 29 L56 28 C57.59 27.94 56.81 25.95 57 25 L60 25 z"/>
<path style="fill:#d8d8d8" d="M56 28 L56 29 L52 30 C51.94 28.41 49.95 29.19 49 29 C47.94 29.43 47.94 27.57 49 28 L53 28 L54 27 L55 26 C56.18 25.85 56.02 27.34 56 28 z"/>
<path style="fill:#747575" d="M63 27 C62.34 27.02 60.85 27.18 61 26 C61.66 25.98 63.15 25.82 63 27 z"/>
<path style="fill:#646464" d="M54 27 L53 28 L54 27 z"/>
<path style="fill:#cbcccc" d="M34 28 L39 28 C41.23 28.82 37.97 29.05 37.25 29.25 C39.1 30.64 38.55 30.42 37 32 C34.54 31.76 31.76 34.99 34 37 L34 38 L33 38 C30.19 36.68 31.02 34.01 33 32 C36.7 30.58 35.28 30.5 33 29 L34 28 z"/>
<path style="fill:#e2e2e2" d="M32 32 L26 35 L26 34 L28 32 C30.35 32.63 30.08 30.39 29.25 29.25 C31.14 28.22 31.17 31.04 32 32 z"/>
<path style="fill:#585959" d="M47 29 L47 31 C44.98 31.27 46.68 33.1 47 34 L46 34 L43 33 C44.85 31.31 44.85 31.69 43 30 L47 29 z"/>
<path style="fill:#676767" d="M52 30 C49.32 29.29 50.06 32.45 50 34 L49 34 L48 33 L48 31 C49.18 31.15 49.02 29.66 49 29 C49.95 29.19 51.94 28.41 52 30 z"/>
<path style="fill:#3f3f3f" d="M57 29 C56.85 30.18 58.34 30.02 59 30 L59 32 C58.1 31.68 56.27 29.98 56 32 C54.56 31.98 52.61 31.24 52 30 L56 29 L57 29 z"/>
<path style="fill:#dcdddd" d="M59 30 C58.34 30.02 56.85 30.18 57 29 C57.66 28.98 59.15 28.82 59 30 z"/>
<path style="fill:#cccccc" d="M52 30 C52.61 31.24 54.56 31.98 56 32 L57 33 L57 35 L56 38 L54 39 L54 38 C57.46 35.13 51.21 29.51 51.75 33.75 L50 34 C50.06 32.45 49.32 29.29 52 30 z"/>
<path style="fill:#a2a2a2" d="M28 32 L26 34 L24 32 L24 31 L28 32 z"/>
<path style="fill:#d9d9d9" d="M41 38 L40 38 L41.75 31.25 L41 38 z"/>
<path style="fill:#ededed" d="M47 31 L48 31 L48 33 L47 34 C46.68 33.1 44.98 31.27 47 31 z"/>
<path style="fill:#dcdddd" d="M59 32 L60 32 C60.06 33.59 62.05 32.81 63 33 L63 34 L60 36 L59 35 L57 33 L56 32 C56.27 29.98 58.1 31.68 59 32 z"/>
<path style="fill:#999999" d="M64 31 C64.95 31.19 66.94 30.41 67 32 L63 33 C62.05 32.81 60.06 33.59 60 32 L64 31 z"/>
<path style="fill:#949494" d="M21 32 C20.81 32.95 21.59 34.94 20 35 C20.19 34.05 19.41 32.06 21 32 z"/>
<path style="fill:#131313" d="M24 32 L26 34 L26 35 L25 36 C23.78 32.88 21.58 38.1 25 37 L25 38 L24 39 L23 40 L21 40 L20 39 C20.02 38.34 20.18 36.85 19 37 C18.98 36.34 18.82 34.85 20 35 C21.59 34.94 20.81 32.95 21 32 L24 32 z"/>
<path style="fill:#525252" d="M32 32 L33 32 C31.02 34.01 30.19 36.68 33 38 L30 39 C31.06 39.43 31.06 37.57 30 38 L29 38 C28.74 37.13 26.26 37.13 26 38 L25 38 L25 37 L25 36 L26 35 L32 32 z"/>
<path style="fill:#0e0e0e" d="M37 32 L37 33 C34.34 33.33 37.67 36.66 38 34 L38 33 C39.63 30.79 38.82 36.81 39 38 L34 37 C31.76 34.99 34.54 31.76 37 32 z"/>
<path style="fill:#121212" d="M54 38 L49 38 L49 34 L50 34 L51.75 33.75 C51.21 29.51 57.46 35.13 54 38 z"/>
<path style="fill:#505050" d="M57 33 L56 32 L57 33 z"/>
<path style="fill:#191919" d="M67 32 L69 35 L69 39 L68 40 C65.78 40.58 63.77 38.93 63 37 C63.77 37.32 67.28 36.77 65 36 L63 34 L63 33 L67 32 z"/>
<path style="fill:#7a7b7b" d="M37 33 L38 34 C37.67 36.66 34.34 33.33 37 33 z"/>
<path style="fill:#e2e2e2" d="M38 33 L38 34 L37 33 L38 33 z"/>
<path style="fill:#ededed" d="M46 34 L45 43 L43 41 C41.89 38.3 41.89 35.7 43 33 L46 34 z"/>
<path style="fill:#a3a3a3" d="M49 34 L49 38 L48 38 L47 34 L48 33 L49 34 z"/>
<path style="fill:#2f2f2f" d="M59 35 L57 35 L57 33 L59 35 z"/>
<path style="fill:#3b3c3c" d="M47 34 L48 38 L48 40 L47 41 L46 43 L45 43 L46 34 L47 34 z"/>
<path style="fill:#515151" d="M63 34 L65 36 C64.34 35.98 62.85 35.82 63 37 C61.82 36.85 61.98 38.34 62 39 C60.71 38.74 59.67 37.34 60 36 L63 34 z"/>
<path style="fill:#b2b3b3" d="M25 36 L25 37 C21.58 38.1 23.78 32.88 25 36 z"/>
<path style="fill:#9e9e9e" d="M59 35 L60 36 C59.67 37.34 60.71 38.74 62 39 L63 40 L62 41 L60 43 L56 38 L57 35 L59 35 z"/>
<path style="fill:#a5a6a6" d="M69 39 L69 35 C70.55 35.19 70.55 38.81 69 39 z"/>
<path style="fill:#bcbcbc" d="M65 36 C67.28 36.77 63.77 37.32 63 37 C62.85 35.82 64.34 35.98 65 36 z"/>
<path style="fill:#7b7b7b" d="M20 39 C18.82 39.15 18.98 37.66 19 37 C20.18 36.85 20.02 38.34 20 39 z"/>
<path style="fill:#c8c9c9" d="M29 38 C28.15 39.28 26.96 42.3 29 43 C29.15 44.18 27.66 44.02 27 44 L26 39 L26 38 C26.26 37.13 28.74 37.13 29 38 z"/>
<path style="fill:#787979" d="M39 38 C37 39.28 34.68 39.28 34 42 L34 38 L34 37 L39 38 z"/>
<path style="fill:#e2e3e3" d="M63 37 C63.77 38.93 65.78 40.58 68 40 L68 41 L66 43 L65 43 L64 43 L63 40 L62 39 C61.98 38.34 61.82 36.85 63 37 z"/>
<path style="fill:#e9e9e9" d="M26 38 L26 39 L24 43 L22 42 L21 41 L21 40 L23 40 L24 39 L25 38 L26 38 z"/>
<path style="fill:#171717" d="M30 38 L30 39 L33 38 L34 38 L34 42 C32.82 41.85 32.98 43.34 33 44 L29 43 C26.96 42.3 28.15 39.28 29 38 L30 38 z"/>
<path style="fill:#e3e3e3" d="M30 39 L30 38 C31.06 37.57 31.06 39.43 30 39 z"/>
<path style="fill:#6e6e6e" d="M54 38 L54 39 L49 38 L54 38 z"/>
<path style="fill:#1a1a1a" d="M56 38 L60 43 L56 44 L56 43 L55 42 C53.41 41.94 54.19 39.95 54 39 L56 38 z"/>
<path style="fill:#808181" d="M21 40 L21 41 L18 41 L20 39 L21 40 z"/>
<path style="fill:#838383" d="M24 39 L23 40 L24 39 z"/>
<path style="fill:#373737" d="M27 44 C26.85 45.18 28.34 45.02 29 45 L29 46 C23.32 42.07 23.13 54.4 29 52 L30 52 L30 56 L30 57 L27 57 L26 53 L24 53 L22 55 L20 53 C22.16 53.65 22.16 51.35 20 52 C19.85 50.82 21.34 50.98 22 51 L24 43 L26 39 L27 44 z"/>
<path style="fill:#989898" d="M69 39 L71 41 L68 41 L68 40 L69 39 z"/>
<path style="fill:#9d9d9d" d="M48 40 L47 41 L48 40 z"/>
<path style="fill:#525353" d="M63 40 L64 43 L62 44 L62 41 L63 40 z"/>
<path style="fill:#171717" d="M18 41 L21 41 L22 42 L21 45 L22 45 L22 46 L22 47 L21 48 L20 48 L18 48 C17.86 45.91 15.47 42.41 18 41 z"/>
<path style="fill:#767777" d="M45 43 L46 43 L47 46 L46 47 C43.44 42.75 43.44 48.58 42 50 L41 49 L42 42 L43 41 L45 43 z"/>
<path style="fill:#f8f9f9" d="M62 41 L62 44 C61.34 44.02 59.85 44.18 60 43 L62 41 z"/>
<path style="fill:#1b1b1b" d="M68 41 L71 41 L71 43 L72 44 L72 46 C70.74 46.91 70.33 48.85 68 48 L67 47 C65.82 47.15 65.98 45.66 66 45 C66.66 45.02 68.15 45.18 68 44 C68.15 42.82 66.66 42.98 66 43 L68 41 z"/>
<path style="fill:#6a6b6b" d="M24 43 L22 51 L22 50 C23.55 49.81 23.55 46.19 22 46 L22 45 C22.43 43.94 20.57 43.94 21 45 L22 42 L24 43 z"/>
<path style="fill:#6d6d6d" d="M56 43 L55 42 L56 43 z"/>
<path style="fill:#999999" d="M33 44 L32 46 L29 45 C28.34 45.02 26.85 45.18 27 44 C27.66 44.02 29.15 44.18 29 43 L33 44 z"/>
<path style="fill:#9c9c9c" d="M60 43 C59.85 44.18 61.34 44.02 62 44 L62 45 L60 45 C58.58 44.79 56.33 44.89 57 47 C55.41 46.94 56.19 44.95 56 44 L60 43 z"/>
<path style="fill:#0f1010" d="M64 43 L65 43 L65 45 L62 45 L62 44 L64 43 z"/>
<path style="fill:#696969" d="M66 43 C66.66 42.98 68.15 42.82 68 44 C67.34 43.98 65.85 43.82 66 45 L65 45 L65 43 L66 43 z"/>
<path style="fill:#7f7f7f" d="M72 44 L71 43 L72 44 z"/>
<path style="fill:#f3f3f3" d="M22 45 L21 45 C20.57 43.94 22.43 43.94 22 45 z"/>
<path style="fill:#d7d7d7" d="M68 44 C68.15 45.18 66.66 45.02 66 45 C65.85 43.82 67.34 43.98 68 44 z"/>
<path style="fill:#a4a5a5" d="M72 46 L72 44 C73.33 43.78 73.33 46.22 72 46 z"/>
<path style="fill:#cdcece" d="M29 46 C29.6 49.08 23.87 45.76 27 50 L29 52 C23.13 54.4 23.32 42.07 29 46 z"/>
<path style="fill:#1b1b1b" d="M32 46 L32 50 L27 50 C23.87 45.76 29.6 49.08 29 46 L29 45 L32 46 z"/>
<path style="fill:#f1f1f1" d="M46 47 L46 49 L46 54 L46 55 L45 56 L45 57 L44 57 C44.02 56.34 44.18 54.85 43 55 L42 50 C43.44 48.58 43.44 42.75 46 47 z"/>
<path style="fill:#0f1010" d="M60 45 L60 46 L61 47 L62 47 C63.15 50.65 59.34 50.11 57 50 L57 47 C56.33 44.89 58.58 44.79 60 45 z"/>
<path style="fill:#5e5e5e" d="M62 45 L65 45 L65 50 L64 50 C64.59 48.49 63.58 44.1 62 47 L61 47 L60 46 L60 45 L62 45 z"/>
<path style="fill:#f3f4f4" d="M22 50 L21 50 L20 48 L21 48 L22 47 L22 46 C23.55 46.19 23.55 49.81 22 50 z"/>
<path style="fill:#343434" d="M47 46 C48.6 49.15 48.87 54.72 46 57 L45 57 L45 56 L46 55 L46 54 C47.6 53.55 47.6 49.45 46 49 L46 47 L47 46 z"/>
<path style="fill:#dcdcdc" d="M61 47 L60 46 L61 47 z"/>
<path style="fill:#a2a2a2" d="M64 50 C63.37 52.79 60.08 51.87 58 52 L57 50 C59.34 50.11 63.15 50.65 62 47 C63.58 44.1 64.59 48.49 64 50 z"/>
<path style="fill:#818181" d="M22 47 L21 48 L22 47 z"/>
<path style="fill:#8c8c8c" d="M68 48 L67 47 L68 48 z"/>
<path style="fill:#9c9c9c" d="M20 48 L21 50 L18 50 L17 50 L18 48 L20 48 z"/>
<path style="fill:#383838" d="M42 50 L43 55 L42 56 C40.44 54.03 41.14 51.39 41 49 L42 50 z"/>
<path style="fill:#a3a3a3" d="M46 54 L46 49 C47.6 49.45 47.6 53.55 46 54 z"/>
<path style="fill:#8d8d8d" d="M68 49 L67 50 L68 49 z"/>
<path style="fill:#121212" d="M71 50 L71 55 L70 56 C67.87 56.58 63.76 52.88 68 53 L67 50 L68 49 C68.95 49.19 70.94 48.41 71 50 z"/>
<path style="fill:#4e4f4f" d="M18 50 L19 55 C15.9 55.64 17.3 51.73 17 50 L18 50 z"/>
<path style="fill:#121212" d="M21 50 L22 50 L22 51 C21.34 50.98 19.85 50.82 20 52 L20 53 L22 55 L20 56 L19 55 L18 50 L21 50 z"/>
<path style="fill:#939393" d="M32 50 L31 52 L30 52 L29 52 L27 50 L32 50 z"/>
<path style="fill:#242525" d="M65 50 L65 52 L60.25 53.25 C61.49 54.13 62.66 55.26 61 57 L59 57 C57.55 56.21 55.53 53.2 58 52 C60.08 51.87 63.37 52.79 64 50 L65 50 z"/>
<path style="fill:#5b5c5c" d="M67 50 L68 53 C67.94 51.41 65.95 52.19 65 52 L65 50 L67 50 z"/>
<path style="fill:#a0a0a0" d="M71 55 L71 50 C72.6 50.45 72.6 54.55 71 55 z"/>
<path style="fill:#bfbfbf" d="M20 53 L20 52 C22.16 51.35 22.16 53.65 20 53 z"/>
<path style="fill:#f0f1f1" d="M24 53 L24 56 C23.34 56.02 21.85 56.18 22 55 L24 53 z"/>
<path style="fill:#121313" d="M31 52 C32.59 52.06 31.81 54.05 32 55 L31 56 L30 56 L30 52 L31 52 z"/>
<path style="fill:#c3c4c4" d="M65 52 C65.95 52.19 67.94 51.41 68 53 C63.76 52.88 67.87 56.58 70 56 L70 58 C68.93 57.38 66.46 55.95 66 58 L65 57 C64.3 54.4 62.47 53.25 63 57 L61 58 L61 57 C62.66 55.26 61.49 54.13 60.25 53.25 L65 52 z"/>
<path style="fill:#828282" d="M26 53 L26 55 L24 56 L24 53 L26 53 z"/>
<path style="fill:#e3e3e3" d="M27 57 L26 57 L26 55 L26 53 L27 57 z"/>
<path style="fill:#c9c9c9" d="M28 53 C29.88 52.86 27.86 54.88 28 53 z"/>
<path style="fill:#4d4d4d" d="M65 57 L63 57 C62.47 53.25 64.3 54.4 65 57 z"/>
<path style="fill:#878787" d="M22 55 C21.85 56.18 23.34 56.02 24 56 C23.85 57.18 25.34 57.02 26 57 L27 57 L27 58 L26 58 L25 59 L20 57 L20 56 L22 55 z"/>
<path style="fill:#2f2f2f" d="M26 55 L26 57 C25.34 57.02 23.85 57.18 24 56 L26 55 z"/>
<path style="fill:#717171" d="M32 55 L31 56 L32 55 z"/>
<path style="fill:#919292" d="M44 57 L43 58 L42 56 L43 55 C44.18 54.85 44.02 56.34 44 57 z"/>
<path style="fill:#949494" d="M46 55 L45 56 L46 55 z"/>
<path style="fill:#8b8b8b" d="M71 55 L70 56 L71 55 z"/>
<path style="fill:#2b2c2c" d="M20 57 L25 59 L24 62 L22 62 C19.79 62.64 17.73 57.81 20 57 z"/>
<path style="fill:#b0b1b1" d="M30 57 L31 62 L31 63 L29 63 L27 58 L27 57 L30 57 z"/>
<path style="fill:#1e1e1e" d="M32 57 C31.98 57.66 31.82 59.15 33 59 L33 60 L31 62 L30 57 L32 57 z"/>
<path style="fill:#737474" d="M33 59 C31.82 59.15 31.98 57.66 32 57 C33.18 56.85 33.02 58.34 33 59 z"/>
<path style="fill:#303131" d="M45 57 L45 59 C41.75 61.61 38.51 67.93 41 60 L42 59 L43 58 L44 57 L45 57 z"/>
<path style="fill:#a3a4a4" d="M46 57 L46 59 L46 60 L45 59 L45 57 L46 57 z"/>
<path style="fill:#727272" d="M57 57 C57.02 57.66 57.18 59.15 56 59 C55.98 58.34 55.82 56.85 57 57 z"/>
<path style="fill:#1c1d1d" d="M58 57 L59 62 L56 61 L56 59 C57.18 59.15 57.02 57.66 57 57 L58 57 z"/>
<path style="fill:#a2a2a2" d="M59 57 L61 57 L61 58 L60 63 L59 63 L59 62 L58 57 L59 57 z"/>
<path style="fill:#535353" d="M63 57 C62.36 60.39 61.67 61.88 65 63 L64 63 L61 63 L60 63 L61 58 L63 57 z"/>
<path style="fill:#d6d7d7" d="M65 57 L66 58 C63.77 59.38 64.53 59.99 66 62 L66 63 L65 63 C61.67 61.88 62.36 60.39 63 57 L65 57 z"/>
<path style="fill:#232424" d="M70 58 L69 61 L68 62 L66 62 C64.53 59.99 63.77 59.38 66 58 C66.46 55.95 68.93 57.38 70 58 z"/>
<path style="fill:#d4d5d5" d="M26 58 C26.62 60.16 27.78 62.89 24 62 L25 59 L26 58 z"/>
<path style="fill:#424343" d="M27 58 L29 63 L28 63 L25 63 L24 63 L24 62 C27.78 62.89 26.62 60.16 26 58 L27 58 z"/>
<path style="fill:#969696" d="M42 59 L41 60 L42 59 z"/>
<path style="fill:#3d3e3e" d="M48 61 L48 63 L46 60 L46 59 L48 61 z"/>
<path style="fill:#707171" d="M33 60 L35 62 C34.34 61.98 32.85 61.82 33 63 L32 64 L31 64 L31 63 L31 62 L33 60 z"/>
<path style="fill:#909090" d="M49 63 L48 63 L48 61 C49.18 60.85 49.02 62.34 49 63 z"/>
<path style="fill:#6a6a6a" d="M56 61 L56 62 L54 62 C53.85 60.82 55.34 60.98 56 61 z"/>
<path style="fill:#c3c3c3" d="M59 62 L59 63 C56.31 64.1 59.32 66.6 60 68 C59.34 67.98 57.85 67.82 58 69 C57.34 69.02 55.85 69.18 56 68 L56 67 C59.06 65.75 51.94 65.75 55 67 L55 68 L53 68 C53.21 66.58 53.11 64.33 51 65 C50.85 63.82 52.34 63.98 53 64 L54 64 C54.61 67.02 58.05 62.22 56 62 L56 61 L59 62 z"/>
<path style="fill:#909090" d="M69 61 L68 62 L69 61 z"/>
<path style="fill:#9d9d9d" d="M24 62 L24 63 C22.82 62.85 22.98 64.34 23 65 C21.41 64.94 22.19 62.95 22 62 L24 62 z"/>
<path style="fill:#0c0d0d" d="M35 62 L35 65 C34.05 64.81 32.06 65.59 32 64 L33 64 C34.06 64.43 34.06 62.57 33 63 C32.85 61.82 34.34 61.98 35 62 z"/>
<path style="fill:#878787" d="M36 65 C36.84 66.18 36.84 66.82 36 68 L36 69 L36 70 L35 70 L34 69 C34.56 68.2 33.21 66.03 33 68 L32 67 L35 65 L35 62 C36.59 62.06 35.81 64.05 36 65 z"/>
<path style="fill:#6f6f6f" d="M54 62 L54 64 L53 64 C52.98 63.34 52.82 61.85 54 62 z"/>
<path style="fill:#191a1a" d="M56 62 C58.05 62.22 54.61 67.02 54 64 L54 62 L56 62 z"/>
<path style="fill:#050505" d="M24 63 L25 63 C25.13 65.39 28.55 66.17 24 66 L23 65 C22.98 64.34 22.82 62.85 24 63 z"/>
<path style="fill:#787878" d="M28 63 C27.26 64.88 29.24 67.25 29 64 C30.18 63.85 30.02 65.34 30 66 L29 69 L28 69 C28.65 66.84 26.35 66.84 27 69 L24 66 C28.55 66.17 25.13 65.39 25 63 L28 63 z"/>
<path style="fill:#eaeaea" d="M29 63 L29 64 C29.24 67.25 27.26 64.88 28 63 L29 63 z"/>
<path style="fill:#1b1c1c" d="M31 63 L31 64 C31.02 64.66 31.18 66.15 30 66 C30.02 65.34 30.18 63.85 29 64 L29 63 L31 63 z"/>
<path style="fill:#dbdbdb" d="M33 63 L33 64 L32 64 L33 63 z"/>
<path style="fill:#626262" d="M33 64 L33 63 C34.06 62.57 34.06 64.43 33 64 z"/>
<path style="fill:#323333" d="M49 63 C49.65 65.16 47.35 65.16 48 63 L49 63 z"/>
<path style="fill:#777777" d="M59 63 L60 63 C59.79 64.42 59.89 66.67 62 66 L65 66 L62 69 C62.45 66.98 61.16 67.07 60 68 C59.32 66.6 56.31 64.1 59 63 z"/>
<path style="fill:#f4f5f5" d="M61 63 C60.98 63.66 60.82 65.15 62 65 L62 66 C59.89 66.67 59.79 64.42 60 63 L61 63 z"/>
<path style="fill:#919292" d="M64 63 C64.46 64.35 63.35 65.46 62 65 C60.82 65.15 60.98 63.66 61 63 L64 63 z"/>
<path style="fill:#111111" d="M65 63 L66 63 L66 66 L65 66 L62 66 L62 65 C63.35 65.46 64.46 64.35 64 63 L65 63 z"/>
<path style="fill:#9d9d9d" d="M66 66 L66 63 C67.48 62.96 67.48 66.04 66 66 z"/>
<path style="fill:#a0a1a1" d="M32 64 C32.06 65.59 34.05 64.81 35 65 L32 67 L31 68 L30 69 L29 69 L30 66 C31.18 66.15 31.02 64.66 31 64 L32 64 z"/>
<path style="fill:#595959" d="M24 66 L23 65 L24 66 z"/>
<path style="fill:#2c2c2c" d="M39 67 L36 68 C36.84 66.82 36.84 66.18 36 65 C37.34 64.67 38.74 65.71 39 67 z"/>
<path style="fill:#272727" d="M53 68 L51 68 C50.16 66.82 50.16 66.18 51 65 C53.11 64.33 53.21 66.58 53 68 z"/>
<path style="fill:#717171" d="M56 67 L55 67 C51.94 65.75 59.06 65.75 56 67 z"/>
<path style="fill:#0d0d0d" d="M28 69 L27 69 C26.35 66.84 28.65 66.84 28 69 z"/>
<path style="fill:#c8c8c8" d="M32 67 L33 68 L34 69 L35 70 C33.64 71.08 32.36 71.08 31 70 L31 69 L31 68 L32 67 z"/>
<path style="fill:#161717" d="M34 69 L33 68 C33.21 66.03 34.56 68.2 34 69 z"/>
<path style="fill:#a3a3a3" d="M39 67 C39.95 67.19 41.94 66.41 42 68 C37.78 67.76 42.91 72.17 40 74 L39 74 L36 69 L36 68 L39 67 z"/>
<path style="fill:#5b5b5b" d="M51 68 L58 72 L55 72 L51 75 L49 73 L49 72 C52.69 72.66 51.15 68.51 48 71 L45 71 C47.25 69.08 47.16 65.77 51 68 z"/>
<path style="fill:#020202" d="M56 67 L56 68 L55 68 L55 67 L56 67 z"/>
<path style="fill:#232323" d="M62 69 L61 70 L59 70 L58 69 C57.85 67.82 59.34 67.98 60 68 C61.16 67.07 62.45 66.98 62 69 z"/>
<path style="fill:#101010" d="M31 68 L31 69 L30 69 L31 68 z"/>
<path style="fill:#333434" d="M42 68 L42 70 C41.85 71.18 43.34 71.02 44 71 C45.27 73.44 41.31 76.85 40 74 C42.91 72.17 37.78 67.76 42 68 z"/>
<path style="fill:#a4a5a5" d="M53 68 L55 68 L56 68 C55.85 69.18 57.34 69.02 58 69 L59 70 C59.02 70.66 59.18 72.15 58 72 L51 68 L53 68 z"/>
<path style="fill:#9c9c9c" d="M28 69 L28 70 L27 69 L28 69 z"/>
<path style="fill:#060707" d="M29 69 L30 69 L30 70 L28 70 L28 69 L29 69 z"/>
<path style="fill:#6b6b6b" d="M31 69 L31 70 L30 70 L30 69 L31 69 z"/>
<path style="fill:#555555" d="M39 74 C38.54 76.05 36.07 74.62 35 74 L35 72 C36.18 72.15 36.02 70.66 36 70 L36 69 L39 74 z"/>
<path style="fill:#848484" d="M62 69 L61 70 L62 69 z"/>
<path style="fill:#464646" d="M35 70 L35 72 L32 72 C30.82 72.15 30.98 70.66 31 70 C32.36 71.08 33.64 71.08 35 70 z"/>
<path style="fill:#eceded" d="M36 70 C36.02 70.66 36.18 72.15 35 72 L35 70 L36 70 z"/>
<path style="fill:#868686" d="M44 71 C43.34 71.02 41.85 71.18 42 70 C42.66 69.98 44.15 69.82 44 71 z"/>
<path style="fill:#bebfbf" d="M49 72 L48 71 C51.15 68.51 52.69 72.66 49 72 z"/>
<path style="fill:#181818" d="M48 71 L49 72 L49 73 L48 75 L47 75 C47.15 73.82 45.66 73.98 45 74 L45 71 L48 71 z"/>
<path style="fill:#bcbdbd" d="M35 72 L35 74 L32 72 L35 72 z"/>
<path style="fill:#acadad" d="M58 72 C58.04 73.48 54.96 73.48 55 72 L58 72 z"/>
<path style="fill:#a5a5a5" d="M51 75 L48 75 L49 73 L51 75 z"/>
<path style="fill:#969696" d="M47 75 C46.34 75.02 44.85 75.18 45 74 C45.66 73.98 47.15 73.82 47 75 z"/>
</svg>
