<?xml version="1.0" standalone="yes"?>
<svg width="87" height="97">
<path style="fill:#fdfdfd" d="M87 0 L87 97 L0 97 L0 0 L87 0 z"/>
<path style="fill:#7c7c7c" d="M36 20 C35.34 19.98 33.85 19.82 34 21 C30.91 20.07 35.73 17.38 36 20 z"/>
<path style="fill:#0d0e0e" d="M36 20 C38.7 19.44 40.79 20.88 43 22 L44 23 L45 24 C45.06 25.59 47.05 24.81 48 25 C50.99 24.92 52.73 28.5 53 31 L54 32 L56 34 C55.35 36.16 57.65 36.16 57 34 L58 34 C59.64 34.79 62.44 31.58 60 31 C60.22 29.67 57.78 29.67 58 31 C56.41 31.06 57.19 33.05 57 34 L56 34 L56 32 L56 30 C57.59 29.94 56.81 27.95 57 27 C57.33 25.25 55.83 19.54 59 22 L60 23 L61 24 L63 30 L64 31 L64 35 L62 35 C57.44 34.53 61.39 42.36 63 37 L65 37 L65 40 L64 41 L63 42 L62 43 L61 43 L60 44 L59 44 L59 41 L58 40 L57 39 C56.04 32.59 50.02 42.85 56 40 L58 41 L58 45 L57 46 L55 48 L54 49 L51 52 L51 53 C49.82 52.85 49.98 54.34 50 55 C48.82 54.85 48.98 56.34 49 57 L48 57 L48 56 C50.95 53.19 50.31 43.3 47 50 L46 51 L46 53 L45 54 L45 58 C43.82 58.15 43.98 56.66 44 56 C42.44 51.56 49.95 46.39 44 44 C42.82 43.85 42.98 45.34 43 46 L42 53 L41 57 L41 61 L40 61 C40.98 54.88 41.79 30.78 38 47 C34.71 60.53 37.29 33.47 34 47 C30.65 43.07 30.65 52.93 34 49 L36 56 L34 56 C33.25 47.51 29.51 57.51 33 61 L32 61 L30 56 L29 55 C29.67 52.89 27.42 52.79 26 53 C24.67 52.78 24.67 55.22 26 55 L27 58 L27 59 L26 59 C26.14 57.12 24.12 59.14 26 59 L26 61 C24.03 60.32 23.2 57.85 23 56 L24 56 C23.86 57.88 25.88 55.86 24 56 C24.02 55.34 24.18 53.85 23 54 C23.02 53.34 23.18 51.85 22 52 L22 51 L21 50 L20 49 C20.46 47.65 19.35 46.54 18 47 L16 45 L16 43 L24 40 L30 40 L32 44 C33.33 44.22 33.33 41.78 32 42 L36 39 L36 30 L35 23 L34 22 L34 21 C33.85 19.82 35.34 19.98 36 20 z"/>
<path style="fill:#6b6b6b" d="M35 23 L34 22 L35 23 z"/>
<path style="fill:#aaaaaa" d="M44 23 L43 22 L44 23 z"/>
<path style="fill:#a1a1a1" d="M60 23 L59 22 L60 23 z"/>
<path style="fill:#9c9c9c" d="M45 24 L44 23 L45 24 z"/>
<path style="fill:#a8a8a8" d="M61 24 L60 23 L61 24 z"/>
<path style="fill:#818181" d="M32 25 L27 25 C27.45 23.4 31.55 23.4 32 25 z"/>
<path style="fill:#8b8b8b" d="M48 25 C47.05 24.81 45.06 25.59 45 24 C45.95 24.19 47.94 23.41 48 25 z"/>
<path style="fill:#7c7c7c" d="M26 25 L25 26 L26 25 z"/>
<path style="fill:#141515" d="M27 25 L32 25 C33.93 25.77 35.58 27.78 35 30 C34.81 30.95 35.59 32.94 34 33 L33 28 L32 27 L31 27 C31.04 25.52 27.96 25.52 28 27 C27.34 26.98 25.85 26.82 26 28 C24.45 28.19 24.45 31.81 26 32 C26.47 34.11 30.3 32.8 28 31 L29 30 C38.35 34.74 20.48 39.03 23 29 L24 28 L24 27 L25 26 L26 25 L27 25 z"/>
<path style="fill:#8d8d8d" d="M25 26 L24 27 L25 26 z"/>
<path style="fill:#8b8b8b" d="M31 27 L28 27 C27.96 25.52 31.04 25.52 31 27 z"/>
<path style="fill:#8b8b8b" d="M33 28 L32 27 L33 28 z"/>
<path style="fill:#8f8f8f" d="M57 27 C56.81 27.95 57.59 29.94 56 30 C56.19 29.05 55.41 27.06 57 27 z"/>
<path style="fill:#7d7d7d" d="M24 28 L23 29 L24 28 z"/>
<path style="fill:#7e7f7f" d="M26 28 L26 32 C24.45 31.81 24.45 28.19 26 28 z"/>
<path style="fill:#bfc0c0" d="M41 28 C48.74 29.37 37.36 34.89 41 28 z"/>
<path style="fill:#9e9e9e" d="M29 30 L28 31 L29 30 z"/>
<path style="fill:#535454" d="M36 30 L36 39 C32.59 39.5 34.49 34.94 34 33 C35.59 32.94 34.81 30.95 35 30 L36 30 z"/>
<path style="fill:#6a6a6a" d="M60 31 L58 31 C57.78 29.67 60.22 29.67 60 31 z"/>
<path style="fill:#939393" d="M64 31 L63 30 L64 31 z"/>
<path style="fill:#868686" d="M54 32 L53 31 L54 32 z"/>
<path style="fill:#696a6a" d="M58 31 L58 34 L57 34 C57.19 33.05 56.41 31.06 58 31 z"/>
<path style="fill:#f4f5f5" d="M60 31 C62.44 31.58 59.64 34.79 58 34 L58 31 L60 31 z"/>
<path style="fill:#b1b1b1" d="M56 32 L56 34 L54 32 L56 32 z"/>
<path style="fill:#dedede" d="M47 36 L47 34 C50.35 30.07 50.35 39.93 47 36 z"/>
<path style="fill:#8b8b8b" d="M47 34 L47 36 C45.67 36.22 45.67 33.78 47 34 z"/>
<path style="fill:#c9c9c9" d="M57 34 C57.65 36.16 55.35 36.16 56 34 L57 34 z"/>
<path style="fill:#dedfdf" d="M62 35 L63 37 C61.39 42.36 57.44 34.53 62 35 z"/>
<path style="fill:#969696" d="M64 35 L65 37 L63 37 L62 35 L64 35 z"/>
<path style="fill:#0c0d0d" d="M70 36 L71 37 L71 43 L72 44 L72 50 L71 50 C70.1 49.68 68.27 47.98 68 50 C66.67 49.78 66.67 52.22 68 52 L69 52 C68.57 53.06 70.43 53.06 70 52 L71 52 L72 52 L72 55 L71 56 L70 58 C68.41 58.06 69.19 60.05 69 61 L69 62 L68 63 L67 64 L66 64 C66.08 59.46 63.17 62.72 61 63 L61 62 L62 61 L64 59 C64.02 58.34 64.18 56.85 63 57 L61 58 L60 58 L60 57 L62 56 C63.33 56.22 63.33 53.78 62 54 L62 53 C62.43 51.94 60.57 51.94 61 53 L60 53 L59 54 L54 59 L53 58 L59 52 L60 51 L61 51 C62.33 51.22 62.33 48.78 61 49 C61.45 46.98 60.16 47.07 59 48 L58 49 L56 50 L55 49 L55 48 C56.34 48.33 57.74 47.29 58 46 L59 45 L60 45 L61 44 L62 43 L63 43 L64 42 L64 41 L65 40 L66 39 L67 38 C67.47 36.82 68.92 33.34 70 36 z"/>
<path style="fill:#828282" d="M71 37 L70 36 L71 37 z"/>
<path style="fill:#dcdcdc" d="M57 39 L56 40 C50.02 42.85 56.04 32.59 57 39 z"/>
<path style="fill:#969696" d="M67 38 L66 39 L67 38 z"/>
<path style="fill:#8c8d8d" d="M30 40 L24 40 C24.73 38.38 29.27 38.38 30 40 z"/>
<path style="fill:#686868" d="M57 39 L58 40 L58 41 L56 40 L57 39 z"/>
<path style="fill:#f1f1f1" d="M40 61 C39.32 63.21 38.58 59.6 38 59 L38 57 L38 47 C41.79 30.78 40.98 54.88 40 61 z"/>
<path style="fill:#cecece" d="M59 41 L58 41 L58 40 L59 41 z"/>
<path style="fill:#adadad" d="M65 40 L64 41 L65 40 z"/>
<path style="fill:#5d5e5e" d="M59 41 L59 44 L59 45 L58 45 L58 41 L59 41 z"/>
<path style="fill:#dbdbdb" d="M64 41 L64 42 L63 42 L64 41 z"/>
<path style="fill:#9d9e9e" d="M32 44 L32 42 C33.33 41.78 33.33 44.22 32 44 z"/>
<path style="fill:#6c6d6d" d="M38 47 L38 57 C36.84 57.93 35.55 58.02 36 56 L34 49 L34 47 C37.29 33.47 34.71 60.53 38 47 z"/>
<path style="fill:#dbdcdc" d="M50 42 C58.3 40.19 49.44 49.33 50 42 z"/>
<path style="fill:#cbcbcb" d="M63 42 L63 43 L62 43 L63 42 z"/>
<path style="fill:#757575" d="M64 42 L63 43 L63 42 L64 42 z"/>
<path style="fill:#5e5e5e" d="M68 43 L66 43 C65.78 41.67 68.22 41.67 68 43 z"/>
<path style="fill:#7f8080" d="M16 43 L16 45 C14.67 45.22 14.67 42.78 16 43 z"/>
<path style="fill:#787979" d="M61 43 L61 44 L60 45 L60 44 L61 43 z"/>
<path style="fill:#d6d6d6" d="M62 43 L61 44 L61 43 L62 43 z"/>
<path style="fill:#f5f6f6" d="M66 43 L68 43 L68 44 L68 45 C67.51 47.93 63.07 43.49 66 43 z"/>
<path style="fill:#787878" d="M72 44 L71 43 L72 44 z"/>
<path style="fill:#939494" d="M44 44 C44.02 44.66 44.18 46.15 43 46 C42.98 45.34 42.82 43.85 44 44 z"/>
<path style="fill:#f1f1f1" d="M44 56 C42.41 56.06 43.19 58.05 43 59 L43 62 L41 61 L41 57 L42 53 L43 46 C44.18 46.15 44.02 44.66 44 44 C49.95 46.39 42.44 51.56 44 56 z"/>
<path style="fill:#f8f8f8" d="M60 44 L60 45 L59 45 L59 44 L60 44 z"/>
<path style="fill:#898989" d="M68 45 L68 44 C69.06 43.57 69.06 45.43 68 45 z"/>
<path style="fill:#cfcfcf" d="M58 45 L59 45 L58 46 L57 46 L58 45 z"/>
<path style="fill:#eeefef" d="M27 48 L26 49 C20.34 49.06 25.26 42.99 27 48 z"/>
<path style="fill:#cacaca" d="M34 47 L34 49 C30.65 52.93 30.65 43.07 34 47 z"/>
<path style="fill:#808080" d="M57 46 L58 46 C57.74 47.29 56.34 48.33 55 48 L57 46 z"/>
<path style="fill:#222222" d="M18 47 L20 49 L21 50 L22 51 C20.94 50.57 20.94 52.43 22 52 L22 54 L21 54 C20.09 52.12 19.2 49.77 17 49 C15.94 48.57 15.94 50.43 17 50 C17.02 50.82 15.13 52.87 15 51 L15 48 C15.06 46.41 17.05 47.19 18 47 z"/>
<path style="fill:#999999" d="M20 49 L18 47 C19.35 46.54 20.46 47.65 20 49 z"/>
<path style="fill:#eeeeee" d="M48 56 L47 57 L46 63 L45 64 L44 64 L44 62 L44 59 L45 58 L45 54 L46 53 L46 51 L47 50 C50.31 43.3 50.95 53.19 48 56 z"/>
<path style="fill:#f2f3f3" d="M61 49 L61 51 L60 51 L59 52 L53 58 L50 62 L49 62 L50 58 L51 57 L51 56 L52 55 L56 50 L58 49 L59 48 C60.16 47.07 61.45 46.98 61 49 z"/>
<path style="fill:#808181" d="M15 48 L15 51 C13.52 51.04 13.52 47.96 15 48 z"/>
<path style="fill:#858585" d="M27 48 L26 49 L27 48 z"/>
<path style="fill:#c8c8c8" d="M55 48 L55 49 L54 49 L55 48 z"/>
<path style="fill:#6c6c6c" d="M59 48 L58 49 L59 48 z"/>
<path style="fill:#929292" d="M17 49 L17 50 C15.94 50.43 15.94 48.57 17 49 z"/>
<path style="fill:#dddddd" d="M21 50 L20 49 L21 50 z"/>
<path style="fill:#838383" d="M54 49 C54.33 50.34 53.29 51.74 52 52 L51 52 L54 49 z"/>
<path style="fill:#212222" d="M55 49 L56 50 L52 55 L51 55 L51 53 L52 52 C53.29 51.74 54.33 50.34 54 49 L55 49 z"/>
<path style="fill:#6b6b6b" d="M61 51 L61 49 C62.33 48.78 62.33 51.22 61 51 z"/>
<path style="fill:#ededed" d="M71 50 L71 52 L70 52 L69 52 L68 52 L68 50 C68.27 47.98 70.1 49.68 71 50 z"/>
<path style="fill:#9b9b9b" d="M47 50 L46 51 L47 50 z"/>
<path style="fill:#5f5f5f" d="M68 50 L68 52 C66.67 52.22 66.67 49.78 68 50 z"/>
<path style="fill:#6e6f6f" d="M72 50 L72 52 L71 52 L71 50 L72 50 z"/>
<path style="fill:#b9b9b9" d="M22 51 L22 52 C20.94 52.43 20.94 50.57 22 51 z"/>
<path style="fill:#727272" d="M60 51 L59 52 L60 51 z"/>
<path style="fill:#bbbbbb" d="M23 54 L22 54 L22 52 C23.18 51.85 23.02 53.34 23 54 z"/>
<path style="fill:#e8e9e9" d="M34 56 L37 62 L37 63 L37 64 L35 64 L34 63 C34.02 62.34 34.18 60.85 33 61 C29.51 57.51 33.25 47.51 34 56 z"/>
<path style="fill:#f1f1f1" d="M52 52 L51 53 L51 52 L52 52 z"/>
<path style="fill:#777777" d="M62 53 L61 53 C60.57 51.94 62.43 51.94 62 53 z"/>
<path style="fill:#868686" d="M70 52 C70.43 53.06 68.57 53.06 69 52 L70 52 z"/>
<path style="fill:#646565" d="M26 53 L26 55 C24.67 55.22 24.67 52.78 26 53 z"/>
<path style="fill:#e8e9e9" d="M29 55 L30 56 L32 61 L33 62 L34 63 L35 64 L36 67 C36.46 68.35 35.35 69.46 34 69 L34 68 C36.44 67.42 33.64 64.21 32 65 L31 64 L30 63 L28 59 L27 58 L26 55 L26 53 C27.42 52.79 29.67 52.89 29 55 z"/>
<path style="fill:#787878" d="M42 53 L41 57 L42 53 z"/>
<path style="fill:#868686" d="M46 53 L45 54 L46 53 z"/>
<path style="fill:#d0d0d0" d="M51 53 L51 55 L50 55 C49.98 54.34 49.82 52.85 51 53 z"/>
<path style="fill:#808080" d="M60 53 L59 54 L60 53 z"/>
<path style="fill:#eeefef" d="M61 53 L62 53 L62 54 L62 56 L60 57 L59 58 C57.54 58.67 55.67 60.15 56 62 C55.05 61.81 53.06 62.59 53 61 L54 59 L59 54 L60 53 L61 53 z"/>
<path style="fill:#9d9d9d" d="M22 54 L22 55 L21 54 L22 54 z"/>
<path style="fill:#070808" d="M23 54 L23 56 L22 55 L22 54 L23 54 z"/>
<path style="fill:#d5d6d6" d="M24 56 L23 56 L23 54 C24.18 53.85 24.02 55.34 24 56 z"/>
<path style="fill:#8c8c8c" d="M62 56 L62 54 C63.33 53.78 63.33 56.22 62 56 z"/>
<path style="fill:#e9eaea" d="M68 54 L69 55 L69 56 L68 57 C64.69 57.79 64.69 53.21 68 54 z"/>
<path style="fill:#868686" d="M69 55 L68 54 L69 55 z"/>
<path style="fill:#8c8c8c" d="M30 56 L29 55 L30 56 z"/>
<path style="fill:#989999" d="M50 55 L50 57 L49 57 C48.98 56.34 48.82 54.85 50 55 z"/>
<path style="fill:#060707" d="M51 55 L51 56 L51 57 L50 57 L50 55 L51 55 z"/>
<path style="fill:#868686" d="M52 55 L51 56 L51 55 L52 55 z"/>
<path style="fill:#a9a9a9" d="M72 55 L71 56 L72 55 z"/>
<path style="fill:#bebebe" d="M24 56 C25.88 55.86 23.86 57.88 24 56 z"/>
<path style="fill:#2a2b2b" d="M36 56 C35.55 58.02 36.84 57.93 38 57 L38 59 C36.41 59.06 37.19 61.05 37 62 L34 56 L36 56 z"/>
<path style="fill:#5b5c5c" d="M44 56 C43.98 56.66 43.82 58.15 45 58 L44 59 L43 59 C43.19 58.05 42.41 56.06 44 56 z"/>
<path style="fill:#989898" d="M48 56 L48 57 L47 57 L48 56 z"/>
<path style="fill:#8d8d8d" d="M69 56 L68 57 L69 56 z"/>
<path style="fill:#282929" d="M48 57 C47.35 59.16 49.65 59.16 49 57 L50 57 L50 58 L49 62 C47.12 60.25 47.4 62.37 46 63 L47 57 L48 57 z"/>
<path style="fill:#b0b1b1" d="M49 57 C49.65 59.16 47.35 59.16 48 57 L49 57 z"/>
<path style="fill:#999999" d="M51 57 L50 58 L50 57 L51 57 z"/>
<path style="fill:#7e7e7e" d="M60 57 L60 58 L59 58 L60 57 z"/>
<path style="fill:#ebebeb" d="M63 57 C62.98 57.66 62.82 59.15 64 59 L62 61 L61 62 L59 63 L56 63 L56 62 C58.28 62.18 59.94 59.68 61 58 L63 57 z"/>
<path style="fill:#8f8f8f" d="M64 59 C62.82 59.15 62.98 57.66 63 57 C64.18 56.85 64.02 58.34 64 59 z"/>
<path style="fill:#ababab" d="M26 59 C24.12 59.14 26.14 57.12 26 59 z"/>
<path style="fill:#7d7d7d" d="M28 59 L27 59 L27 58 L28 59 z"/>
<path style="fill:#494949" d="M53 58 L54 59 L53 61 C51.41 61.06 52.19 63.05 52 64 L51 65 L50 64 L50 62 L53 58 z"/>
<path style="fill:#222222" d="M59 58 L60 58 L61 58 C59.94 59.68 58.28 62.18 56 62 C55.67 60.15 57.54 58.67 59 58 z"/>
<path style="fill:#8b8c8c" d="M70 58 C69.81 58.95 70.59 60.94 69 61 C69.19 60.05 68.41 58.06 70 58 z"/>
<path style="fill:#878888" d="M27 59 L27 61 L26 61 L26 59 L27 59 z"/>
<path style="fill:#202121" d="M28 59 L30 63 L29 63 L28 62 L27 61 L27 59 L28 59 z"/>
<path style="fill:#8b8b8b" d="M38 59 C38.58 59.6 39.32 63.21 40 61 L41 61 L43 62 L44 62 L44 64 L44 65 L37 63 L37 62 C37.19 61.05 36.41 59.06 38 59 z"/>
<path style="fill:#010202" d="M44 59 L44 62 L43 62 L43 59 L44 59 z"/>
<path style="fill:#0d0d0d" d="M27 61 L27 62 L26 61 L27 61 z"/>
<path style="fill:#c5c5c5" d="M28 62 L27 62 L27 61 L28 62 z"/>
<path style="fill:#7c7c7c" d="M33 61 L33 62 L32 61 L33 61 z"/>
<path style="fill:#020202" d="M34 63 L33 62 L33 61 C34.18 60.85 34.02 62.34 34 63 z"/>
<path style="fill:#a2a2a2" d="M49 62 L50 62 L50 64 L50 65 L50 67 L49 67 C49.61 63.83 48.18 64.37 46 65 L45 64 L46 63 C47.4 62.37 47.12 60.25 49 62 z"/>
<path style="fill:#9d9e9e" d="M53 61 C53.06 62.59 55.05 61.81 56 62 L56 63 C53.76 65.37 53.75 68.25 52 64 C52.19 63.05 51.41 61.06 53 61 z"/>
<path style="fill:#777777" d="M62 61 L61 62 L62 61 z"/>
<path style="fill:#e7e7e7" d="M66 64 L62 66 L61 64 L61 63 C63.17 62.72 66.08 59.46 66 64 z"/>
<path style="fill:#232323" d="M28 62 L29 63 L29 64 L27 64 L27 62 L28 62 z"/>
<path style="fill:#c8c8c8" d="M29 63 L28 62 L29 63 z"/>
<path style="fill:#636363" d="M61 62 L61 63 L61 64 L59 64 L59 63 L61 62 z"/>
<path style="fill:#6d6d6d" d="M69 62 L68 63 L69 62 z"/>
<path style="fill:#b4b4b4" d="M30 63 L30 64 L29 64 L29 63 L30 63 z"/>
<path style="fill:#0" d="M31 64 L30 64 L30 63 L31 64 z"/>
<path style="fill:#0" d="M35 64 L34 63 L35 64 z"/>
<path style="fill:#1e1f1f" d="M44 65 L44 66 C44.33 67.34 43.29 68.74 42 69 C40.48 65.18 37.48 68.58 41 70 C33.02 68.34 40.38 77.28 35 74 L34 73 L35 70 C37.09 71.01 37.96 67.25 36 67 L35 64 L37 64 C36.86 65.88 38.88 63.86 37 64 L37 63 L44 65 z"/>
<path style="fill:#141414" d="M56 63 L59 63 L59 64 C55.87 63.72 56.06 64.56 58 66 L56 68 C56.43 66.94 54.57 66.94 55 68 L54 69 C52.84 68.07 51.55 67.98 52 70 C50.94 69.57 50.94 71.43 52 71 L53 72 C54.85 74.16 52.41 74.26 51 73 C51.15 71.82 49.66 71.98 49 72 L50 69 C51.33 69.22 51.33 66.78 50 67 L50 65 L51 65 L52 64 C53.75 68.25 53.76 65.37 56 63 z"/>
<path style="fill:#656565" d="M68 63 L67 64 L68 63 z"/>
<path style="fill:#242424" d="M27 64 L25 67 C20.59 66.5 25.15 64.49 27 64 z"/>
<path style="fill:#959696" d="M29 64 L29 65 C27.94 64.57 27.94 66.43 29 66 L27 68 L26 68 L25 67 L27 64 L29 64 z"/>
<path style="fill:#2a2a2a" d="M30 64 L31 65 L32 66 L33 67 L33 68 C31.67 67.78 31.67 70.22 33 70 C33.33 73.78 32.12 72.46 30.75 70.25 C28.04 70.81 26.34 71.16 28.75 68.25 L27 68 L29 66 L29 65 L29 64 L30 64 z"/>
<path style="fill:#f0f0f0" d="M31 64 L31 65 L30 64 L31 64 z"/>
<path style="fill:#0b0b0b" d="M32 65 L31 65 L31 64 L32 65 z"/>
<path style="fill:#b1b1b1" d="M37 64 C38.88 63.86 36.86 65.88 37 64 z"/>
<path style="fill:#2c2d2d" d="M45 64 L46 65 L44 65 L44 64 L45 64 z"/>
<path style="fill:#0b0c0c" d="M49 67 C48.34 66.98 46.85 66.82 47 68 L46 69 C44.82 69.15 44.98 67.66 45 67 C46.18 67.15 46.02 65.66 46 65 C48.18 64.37 49.61 63.83 49 67 z"/>
<path style="fill:#fefefe" d="M51 65 L50 65 L50 64 L51 65 z"/>
<path style="fill:#dddede" d="M59 64 L59 66 L58 66 C56.06 64.56 55.87 63.72 59 64 z"/>
<path style="fill:#121212" d="M61 64 L62 66 L62 69 C62.15 70.18 60.66 70.02 60 70 C59.71 68.49 62.06 66.5 59 67 L59 66 L59 64 L61 64 z"/>
<path style="fill:#414242" d="M66 64 C66.89 66.94 64.11 68.14 62 69 L62 66 L66 64 z"/>
<path style="fill:#fbfbfb" d="M29 65 L29 66 C27.94 66.43 27.94 64.57 29 65 z"/>
<path style="fill:#c2c2c2" d="M32 65 L32 66 L31 65 L32 65 z"/>
<path style="fill:#181919" d="M34 68 L33 67 L32 66 L32 65 C33.64 64.21 36.44 67.42 34 68 z"/>
<path style="fill:#9a9a9a" d="M46 65 C46.02 65.66 46.18 67.15 45 67 L44 66 L44 65 L46 65 z"/>
<path style="fill:#c8c8c8" d="M33 67 L32 66 L33 67 z"/>
<path style="fill:#646464" d="M58 66 L59 66 L59 67 C57.82 66.85 57.98 68.34 58 69 L56 69 L56 68 L58 66 z"/>
<path style="fill:#cdcdcd" d="M30 67 C32.52 67.7 29.27 70.22 30 67 z"/>
<path style="fill:#dcdcdc" d="M34 68 L33 68 L33 67 L34 68 z"/>
<path style="fill:#a2a2a2" d="M35 70 L34 69 C35.35 69.46 36.46 68.35 36 67 C37.96 67.25 37.09 71.01 35 70 z"/>
<path style="fill:#6d6e6e" d="M42 69 L41 70 C37.48 68.58 40.48 65.18 42 69 z"/>
<path style="fill:#212222" d="M49 67 L50 67 L48 69 L47 71 L47 72 L43 74 L42 74 L46 69 L47 68 C46.85 66.82 48.34 66.98 49 67 z"/>
<path style="fill:#919292" d="M50 69 L48 69 L50 67 C51.33 66.78 51.33 69.22 50 69 z"/>
<path style="fill:#dedede" d="M56 68 L55 68 C54.57 66.94 56.43 66.94 56 68 z"/>
<path style="fill:#0a0a0a" d="M59 67 L59 69 L58 69 C57.98 68.34 57.82 66.85 59 67 z"/>
<path style="fill:#8c8c8c" d="M60 70 L59 69 L59 67 C62.06 66.5 59.71 68.49 60 70 z"/>
<path style="fill:#171818" d="M26 68 L27 68 C27.33 69.96 23.61 68.41 26 68 z"/>
<path style="fill:#a5a5a5" d="M33 68 L33 69 L33 70 C31.67 70.22 31.67 67.78 33 68 z"/>
<path style="fill:#020202" d="M34 68 L34 69 L33 69 L33 68 L34 68 z"/>
<path style="fill:#e4e4e4" d="M47 68 L46 69 L47 68 z"/>
<path style="fill:#eeefef" d="M54 69 L53 70 L52 70 C51.55 67.98 52.84 68.07 54 69 z"/>
<path style="fill:#f3f3f3" d="M55 68 L54 69 L55 68 z"/>
<path style="fill:#0f0f0f" d="M56 68 L56 69 L54 72 L53 70 L54 69 L55 68 L56 68 z"/>
<path style="fill:#f1f1f1" d="M50 69 L49 72 L48 72 L47 71 L48 69 L50 69 z"/>
<path style="fill:#ffffff" d="M52 70 L52 71 C50.94 71.43 50.94 69.57 52 70 z"/>
<path style="fill:#8e8e8e" d="M53 70 L54 72 L53 72 L52 71 L52 70 L53 70 z"/>
<path style="fill:#828383" d="M48 72 L48 73 L47 72 L47 71 L48 72 z"/>
<path style="fill:#202121" d="M49 72 C48.85 73.18 50.34 73.02 51 73 C51.02 73.66 51.18 75.15 50 75 L49 74 L48 73 L48 72 L49 72 z"/>
<path style="fill:#f8f8f8" d="M51 73 C50.34 73.02 48.85 73.18 49 72 C49.66 71.98 51.15 71.82 51 73 z"/>
<path style="fill:#9a9a9a" d="M35 74 L34 73 L35 74 z"/>
<path style="fill:#aaabab" d="M42 74 L43 74 C43.33 75.96 39.61 74.41 42 74 z"/>
<path style="fill:#a4a4a4" d="M50 75 L49 74 L50 75 z"/>
</svg>
