<?xml version="1.0" standalone="yes"?>
<svg width="87" height="97">
<path style="fill:#fdfdfd" d="M87 0 L87 97 L0 97 L0 0 L87 0 z"/>
<path style="fill:#929393" d="M44 16 L44 21 C43.34 23.24 44.76 24.66 47 24 L38 25 L33 24 C33.06 22.41 35.05 23.19 36 23 C37.85 23.63 43.89 21.98 41 20 C42.04 18.82 42.52 16.37 40 17 L44 16 z"/>
<path style="fill:#464747" d="M46 17 L44 21 L44 16 C44.66 15.98 46.15 15.82 46 17 z"/>
<path style="fill:#737373" d="M40 17 C40.15 18.18 38.66 18.02 38 18 C37.85 16.82 39.34 16.98 40 17 z"/>
<path style="fill:#0b0b0b" d="M41 20 L36 23 C35.05 23.19 33.06 22.41 33 24 C24.41 26.94 13.68 40.65 20 48 L21 53 L21 56 L22 57 L23 58 C24.18 57.85 24.02 59.34 24 60 L16 62 L16 60 C16.02 59.34 16.18 57.85 15 58 L15 56 C15.02 55.34 15.18 53.85 14 54 L14 44 L15 40 L15 38 C16.18 38.15 16.02 36.66 16 36 L16 35 L17 34 L17 33 L18 32 L18 31 L19 30 L20 29 L25 24 L26 23 L28 22 L29 21 L30 21 L31 20 L32 20 C32.66 20.02 34.15 20.18 34 19 L35 19 C35.66 19.02 37.15 19.18 37 18 L38 18 C38.66 18.02 40.15 18.18 40 17 C42.52 16.37 42.04 18.82 41 20 z"/>
<path style="fill:#080808" d="M46 17 L49 17 C48.85 18.18 50.34 18.02 51 18 L55 19 L56 20 L57 20 L58 21 L59 21 L60 22 L61 22 L62 23 L63 24 L65 25 L66 26 L67 27 L68 28 L69 29 L70 31 L71 32 L72 34 L73 35 L73 37 C72.98 37.66 72.82 39.15 74 39 L74 40 L75 44 L75 50 C73.41 50.06 74.19 52.05 74 53 L74 55 L74 56 C72.82 55.85 72.98 57.34 73 58 L73 61 L70 57 L70 54 C75.01 45 65.67 24.29 57 27 L54 26 L53 25 L47 24 C44.76 24.66 43.34 23.24 44 21 L46 17 z"/>
<path style="fill:#6f6f6f" d="M51 18 C50.34 18.02 48.85 18.18 49 17 C49.66 16.98 51.15 16.82 51 18 z"/>
<path style="fill:#6c6d6d" d="M37 18 C37.15 19.18 35.66 19.02 35 19 C34.85 17.82 36.34 17.98 37 18 z"/>
<path style="fill:#808080" d="M34 19 C34.15 20.18 32.66 20.02 32 20 C31.85 18.82 33.34 18.98 34 19 z"/>
<path style="fill:#6e6e6e" d="M56 20 L55 19 L56 20 z"/>
<path style="fill:#919191" d="M31 20 L30 21 L31 20 z"/>
<path style="fill:#6b6c6c" d="M41 20 C43.89 21.98 37.85 23.63 36 23 L41 20 z"/>
<path style="fill:#606060" d="M58 21 L57 20 L58 21 z"/>
<path style="fill:#a0a0a0" d="M29 21 L28 22 L29 21 z"/>
<path style="fill:#6a6a6a" d="M60 22 L59 21 L60 22 z"/>
<path style="fill:#999999" d="M62 23 L61 22 L62 23 z"/>
<path style="fill:#888888" d="M26 23 L25 24 L26 23 z"/>
<path style="fill:#616161" d="M63 24 L62 23 L63 24 z"/>
<path style="fill:#727373" d="M33 24 L38 25 C29.67 28.31 20.58 35.02 21 45 C19.41 45.06 20.19 47.05 20 48 C13.68 40.65 24.41 26.94 33 24 z"/>
<path style="fill:#f4f4f4" d="M47 24 L53 25 L54 26 L57 27 C62.44 30.66 66.31 37.21 68 43 L68 52 C67.19 53.52 66.03 59.01 64 57 L64 56 L64 52 L64 51 L62 47 L62 45 L60 41 L60 38 C61.96 38.33 60.41 34.61 60 37 L58 35 C57.79 33.03 56.44 35.2 57 36 C56.34 35.98 54.85 35.82 55 37 L57 40 L56 41 L56 42 C52 42.72 53.83 45.12 54 48 L54 52 C49.78 49.23 55.29 56.05 51 55 L51 49 L49 45 L49 44 C48.96 41.93 48.41 39.19 47 38 L46 34 C46.32 33.1 48.02 31.27 46 31 L44 30 L43 29 L41 32 L41 33 L42 36 L41 38 L41 39 C37.35 37.85 37.89 41.66 38 44 L37 51 L37 55 L35 55 L35 52 C37.11 51.7 35.33 49.03 34 49 C34.65 45.21 33.58 42.48 32 40 C33.66 36.45 32.08 36.39 30 36 L30 34 C29.67 31.34 26.34 34.67 29 35 L29 36 L28 36 L27 36 C25.67 35.78 25.67 38.22 27 38 L28 38 L28 40 L28 41 C26.3 42.7 24.65 43.3 26 46 L26 47 L24 51 L24 53 L25 57 C24.29 59.68 27.45 58.94 29 59 L35 58 L37 58 L38 64 C37.98 64.66 37.82 66.15 39 66 C41.64 67.66 48.36 67.66 51 66 L51 57 L54 59 C55.66 60.65 61.34 60.65 63 59 L64 60 L64 61 C62.82 60.85 62.98 62.34 63 63 L63 64 L62 65 L59 67 L58 68 L57 69 C47.57 73.65 35.86 72.53 28 65 L26 63 L26 62 L24 60 C24.02 59.34 24.18 57.85 23 58 L22 57 L21 56 L21 53 L21 45 C20.58 35.02 29.67 28.31 38 25 L47 24 z"/>
<path style="fill:#949494" d="M54 26 L53 25 L54 26 z"/>
<path style="fill:#727272" d="M70 54 L69 50 L68 43 C66.31 37.21 62.44 30.66 57 27 C65.67 24.29 75.01 45 70 54 z"/>
<path style="fill:#8d8d8d" d="M66 26 L65 25 L66 26 z"/>
<path style="fill:#868686" d="M67 27 L66 26 L67 27 z"/>
<path style="fill:#838383" d="M68 28 L67 27 L68 28 z"/>
<path style="fill:#a0a0a0" d="M69 29 L68 28 L69 29 z"/>
<path style="fill:#666666" d="M20 29 L19 30 L20 29 z"/>
<path style="fill:#8e8f8f" d="M43 29 C42.26 30.88 44.24 33.25 44 30 L46 31 L43 36 L42 36 L41 33 C42.06 33.43 42.06 31.57 41 32 L43 29 z"/>
<path style="fill:#242424" d="M44 30 C44.24 33.25 42.26 30.88 43 29 L44 30 z"/>
<path style="fill:#999999" d="M19 30 L18 31 L19 30 z"/>
<path style="fill:#151616" d="M46 34 L43 36 L46 31 C48.02 31.27 46.32 33.1 46 34 z"/>
<path style="fill:#5e5e5e" d="M71 32 L70 31 L71 32 z"/>
<path style="fill:#6c6c6c" d="M18 32 L17 33 L18 32 z"/>
<path style="fill:#0" d="M41 33 L41 32 C42.06 31.57 42.06 33.43 41 33 z"/>
<path style="fill:#7e7e7e" d="M30 34 L29 35 C26.34 34.67 29.67 31.34 30 34 z"/>
<path style="fill:#828282" d="M17 34 L16 35 L17 34 z"/>
<path style="fill:#0f0f0f" d="M30 34 L30 36 L29 36 L29 35 L30 34 z"/>
<path style="fill:#3b3b3b" d="M46 34 L47 38 L47 41 C44.06 40.03 43.11 40.13 41 38 L42 36 L43 36 L46 34 z"/>
<path style="fill:#151616" d="M58 35 L57 36 C56.44 35.2 57.79 33.03 58 35 z"/>
<path style="fill:#a6a6a6" d="M73 35 L72 34 L73 35 z"/>
<path style="fill:#8b8b8b" d="M60 37 L60 38 L55 37 C54.85 35.82 56.34 35.98 57 36 L58 35 L60 37 z"/>
<path style="fill:#858686" d="M16 36 C16.02 36.66 16.18 38.15 15 38 C14.98 37.34 14.82 35.85 16 36 z"/>
<path style="fill:#7a7b7b" d="M27 36 L27 38 C25.67 38.22 25.67 35.78 27 36 z"/>
<path style="fill:#0b0b0b" d="M28 36 L28 38 L27 38 L27 36 L28 36 z"/>
<path style="fill:#717272" d="M29 36 L30 36 C32.08 36.39 33.66 36.45 32 40 L31 40 C31.95 37.5 28.05 37.5 29 40 L28 40 L28 38 L28 36 L29 36 z"/>
<path style="fill:#343535" d="M60 38 L60 37 C60.41 34.61 61.96 38.33 60 38 z"/>
<path style="fill:#c5c6c6" d="M43 37 C46.22 36.27 43.7 39.52 43 37 z"/>
<path style="fill:#2a2b2b" d="M60 38 L60 41 L59 42 C59.15 40.82 57.66 40.98 57 41 L57 40 L55 37 L60 38 z"/>
<path style="fill:#575858" d="M74 39 C72.82 39.15 72.98 37.66 73 37 C74.18 36.85 74.02 38.34 74 39 z"/>
<path style="fill:#020202" d="M31 40 L29 40 C28.05 37.5 31.95 37.5 31 40 z"/>
<path style="fill:#080808" d="M47 41 C46.35 46.52 42.93 43.78 41 41 L41 39 L41 38 C43.11 40.13 44.06 40.03 47 41 z"/>
<path style="fill:#797979" d="M49 44 C47.66 43.67 46.26 44.71 46 46 L44 48 L43 49 C44.99 45.47 36.79 45.73 41.75 43.75 L41 42 L41 41 C42.93 43.78 46.35 46.52 47 41 L47 38 C48.41 39.19 48.96 41.93 49 44 z"/>
<path style="fill:#bbbbbb" d="M41 39 L41 41 L41 42 C39.16 39.08 38.74 41.18 39 44 L38 44 C37.89 41.66 37.35 37.85 41 39 z"/>
<path style="fill:#575757" d="M15 40 L14 44 L15 40 z"/>
<path style="fill:#151515" d="M29 40 L29 41 L29 42 L31 46 C28.06 46.51 27.63 43.11 28 41 L28 40 L29 40 z"/>
<path style="fill:#494949" d="M31 40 L32 40 C33.58 42.48 34.65 45.21 34 49 C32.61 53.09 29.89 48.31 31 46 L29 42 C31.13 44.29 31.77 40.2 29 41 L29 40 L31 40 z"/>
<path style="fill:#1a1a1a" d="M41 42 L41.75 43.75 C36.79 45.73 44.99 45.47 43 49 C41.82 48.85 41.98 50.34 42 51 L41 51 C39.21 49.06 38.55 46.75 39 44 C38.74 41.18 39.16 39.08 41 42 z"/>
<path style="fill:#808080" d="M57 40 L57 41 L56 41 L57 40 z"/>
<path style="fill:#656666" d="M75 44 L74 40 L75 44 z"/>
<path style="fill:#737474" d="M28 41 C27.63 43.11 28.06 46.51 31 46 C29.89 48.31 32.61 53.09 34 49 C35.33 49.03 37.11 51.7 35 52 C34.5 50.36 31.26 52.6 31 54 C29.84 55.15 28.31 54.71 28 53 C35.04 51.68 25.16 48.89 27.75 46.25 L26 46 C24.65 43.3 26.3 42.7 28 41 z"/>
<path style="fill:#d9d9d9" d="M29 42 L29 41 C31.77 40.2 31.13 44.29 29 42 z"/>
<path style="fill:#1a1b1b" d="M57 41 C56.98 41.66 56.82 43.15 58 43 L60 45 C58.82 44.85 58.98 46.34 59 47 C56.51 47.37 55.88 43.92 56 42 L56 41 L57 41 z"/>
<path style="fill:#bababa" d="M59 42 L58 43 C56.82 43.15 56.98 41.66 57 41 C57.66 40.98 59.15 40.82 59 42 z"/>
<path style="fill:#6e6f6f" d="M62 45 L60 45 L58 43 L59 42 L60 41 L62 45 z"/>
<path style="fill:#818181" d="M56 42 C55.88 43.92 56.51 47.37 59 47 C58.4 49.03 60.73 54.07 62 50 C59.65 48.14 60.03 47.62 62 47 L64 51 L63 52 C57.49 53.12 54.82 61.67 63 59 C61.34 60.65 55.66 60.65 54 59 C60.59 56.38 50.13 56.45 57 54 C61.66 52.03 56.04 49.27 54 48 C53.83 45.12 52 42.72 56 42 z"/>
<path style="fill:#515252" d="M69 50 C69.02 50.66 69.18 52.15 68 52 L68 43 L69 50 z"/>
<path style="fill:#737474" d="M39 44 C38.55 46.75 39.21 49.06 41 51 L37 51 L38 44 L39 44 z"/>
<path style="fill:#202121" d="M49 44 L49 45 L48 46 L47 46 L46 46 C46.26 44.71 47.66 43.67 49 44 z"/>
<path style="fill:#373737" d="M62 45 L62 47 C60.03 47.62 59.65 48.14 62 50 C60.73 54.07 58.4 49.03 59 47 C58.98 46.34 58.82 44.85 60 45 L62 45 z"/>
<path style="fill:#aaaaaa" d="M21 45 L21 53 L20 48 C20.19 47.05 19.41 45.06 21 45 z"/>
<path style="fill:#696a6a" d="M51 49 L49 49 L46 46 L47 46 C46.57 47.06 48.43 47.06 48 46 L49 45 L51 49 z"/>
<path style="fill:#1c1d1d" d="M28 53 C28.15 51.82 26.66 51.98 26 52 L26 47 L26 46 L27.75 46.25 C25.16 48.89 35.04 51.68 28 53 z"/>
<path style="fill:#343535" d="M46 46 L49 49 L48 51 L46 51 C46.33 49.66 45.29 48.26 44 48 L46 46 z"/>
<path style="fill:#fdfdfd" d="M48 46 C48.43 47.06 46.57 47.06 47 46 L48 46 z"/>
<path style="fill:#0" d="M55 46 C56.88 45.86 54.86 47.88 55 46 z"/>
<path style="fill:#979797" d="M26 47 L26 52 L24 51 L26 47 z"/>
<path style="fill:#cbcbcb" d="M32 47 C33.88 46.86 31.86 48.88 32 47 z"/>
<path style="fill:#161717" d="M46 51 L45 54 C41.9 54.64 43.3 50.73 43 49 L44 48 C45.29 48.26 46.33 49.66 46 51 z"/>
<path style="fill:#181919" d="M57 54 C56.74 52.71 55.34 51.67 54 52 L54 48 C56.04 49.27 61.66 52.03 57 54 z"/>
<path style="fill:#7f7f7f" d="M43 49 C43.3 50.73 41.9 54.64 45 54 L43 60 L41 58 C43.07 57.14 43.07 53.86 41 53 L41 52 L42 51 C41.98 50.34 41.82 48.85 43 49 z"/>
<path style="fill:#828383" d="M51 49 L51 55 L51 57 L48 59 L45 61 L44 61 L43 60 C45.22 59.98 52.89 53.66 47.25 55.75 L47 53 L48 53 C47.57 54.06 49.43 54.06 49 53 C51.02 52.81 49.56 50.1 48 51 L49 49 L51 49 z"/>
<path style="fill:#2d2d2d" d="M41 51 L41 52 L41 53 C41.9 54.56 39.19 56.02 39 54 C42.15 52.45 36.34 51.01 39 54 L38 55 L37 55 L37 51 L41 51 z"/>
<path style="fill:#939393" d="M70 54 L70 57 C64.95 60.19 69.82 59.59 71 63 L64 60 L63 59 L63 58 L64 57 C66.03 59.01 67.19 53.52 68 52 C69.18 52.15 69.02 50.66 69 50 L70 54 z"/>
<path style="fill:#555555" d="M75 50 L75 53 L74 53 C74.19 52.05 73.41 50.06 75 50 z"/>
<path style="fill:#3e3f3f" d="M26 52 C25.85 53.18 27.34 53.02 28 53 C28.31 54.71 29.84 55.15 31 54 L32 54 C30.29 55.82 32.18 56.34 34 56 L35 56 L35 57 C33.06 57.49 28.5 55.59 29 59 C27.45 58.94 24.29 59.68 25 57 C25.66 57.02 27.15 57.18 27 56 C27.56 55.2 26.21 53.03 26 55 L24 53 L24 51 L26 52 z"/>
<path style="fill:#1c1c1c" d="M35 52 L35 55 L35 56 L34 56 C34.46 54.65 33.35 53.54 32 54 L31 54 C31.26 52.6 34.5 50.36 35 52 z"/>
<path style="fill:#dbdbdb" d="M42 51 L41 52 L41 51 L42 51 z"/>
<path style="fill:#7e7e7e" d="M48 51 L47 53 L45 54 L46 51 L48 51 z"/>
<path style="fill:#131313" d="M49 53 L48 53 L47 53 L48 51 C49.56 50.1 51.02 52.81 49 53 z"/>
<path style="fill:#434444" d="M54 52 C55.34 51.67 56.74 52.71 57 54 C50.13 56.45 60.59 56.38 54 59 L51 57 L51 55 C55.29 56.05 49.78 49.23 54 52 z"/>
<path style="fill:#212121" d="M64 51 L64 52 L63 52 L64 51 z"/>
<path style="fill:#8e8e8e" d="M28 53 C27.34 53.02 25.85 53.18 26 52 C26.66 51.98 28.15 51.82 28 53 z"/>
<path style="fill:#8e8e8e" d="M39 54 C36.34 51.01 42.15 52.45 39 54 z"/>
<path style="fill:#1b1c1c" d="M63 52 L63 55 L62 55 C61.87 53.13 59.98 55.18 60 56 L63 58 L63 59 C54.82 61.67 57.49 53.12 63 52 z"/>
<path style="fill:#9d9e9e" d="M64 52 L64 56 L63 55 L63 52 L64 52 z"/>
<path style="fill:#7b7b7b" d="M26 55 L27 56 C27.15 57.18 25.66 57.02 25 57 L24 53 L26 55 z"/>
<path style="fill:#090a0a" d="M41 58 L40 57 L38 55 L39 54 C39.19 56.02 41.9 54.56 41 53 C43.07 53.86 43.07 57.14 41 58 z"/>
<path style="fill:#212121" d="M47 53 L47.25 55.75 C52.89 53.66 45.22 59.98 43 60 L45 54 L47 53 z"/>
<path style="fill:#fcfcfc" d="M49 53 C49.43 54.06 47.57 54.06 48 53 L49 53 z"/>
<path style="fill:#a7a7a7" d="M75 53 C75.02 53.66 75.18 55.15 74 55 L74 53 L75 53 z"/>
<path style="fill:#858585" d="M15 56 C13.82 56.15 13.98 54.66 14 54 C15.18 53.85 15.02 55.34 15 56 z"/>
<path style="fill:#d1d1d1" d="M27 56 L26 55 C26.21 53.03 27.56 55.2 27 56 z"/>
<path style="fill:#a5a6a6" d="M34 56 C32.18 56.34 30.29 55.82 32 54 C33.35 53.54 34.46 54.65 34 56 z"/>
<path style="fill:#bebfbf" d="M62 55 C62.15 56.18 60.66 56.02 60 56 C59.98 55.18 61.87 53.13 62 55 z"/>
<path style="fill:#919292" d="M37 55 L38 55 L40 57 L40 58 L37 57 C37.14 55.12 35.12 57.14 37 57 L37 58 L35 58 L35 57 L35 56 L35 55 L37 55 z"/>
<path style="fill:#565757" d="M63 55 L64 56 L64 57 L63 58 L60 56 C60.66 56.02 62.15 56.18 62 55 L63 55 z"/>
<path style="fill:#838383" d="M22 57 L21 56 L22 57 z"/>
<path style="fill:#2f2f2f" d="M37 57 C35.12 57.14 37.14 55.12 37 57 z"/>
<path style="fill:#616262" d="M74 56 C74.02 56.66 74.18 58.15 73 58 C72.98 57.34 72.82 55.85 74 56 z"/>
<path style="fill:#6c6c6c" d="M23 58 L22 57 L23 58 z"/>
<path style="fill:#222323" d="M35 57 L35 58 L29 59 C28.5 55.59 33.06 57.49 35 57 z"/>
<path style="fill:#202020" d="M40 58 L38 60 C37.37 62.52 39.82 62.04 41 61 L41 62 L38 64 L37 58 L37 57 L40 58 z"/>
<path style="fill:#3e3e3e" d="M41 58 L43 60 L44 61 L44 62 L43 63 L41 62 L41 61 C40.94 59.41 38.95 60.19 38 60 L40 58 L40 57 L41 58 z"/>
<path style="fill:#242424" d="M51 57 L51 66 L49 66 L49 65 C50.59 64.94 49.81 62.95 50 62 L50 60 C50.15 58.82 48.66 58.98 48 59 L51 57 z"/>
<path style="fill:#737373" d="M73 61 L71 65 L71 63 C69.82 59.59 64.95 60.19 70 57 L73 61 z"/>
<path style="fill:#656565" d="M16 60 C14.82 60.15 14.98 58.66 15 58 C16.18 57.85 16.02 59.34 16 60 z"/>
<path style="fill:#515151" d="M48 59 C48.66 58.98 50.15 58.82 50 60 C47.5 59.05 47.5 62.95 50 62 C49.81 62.95 50.59 64.94 49 65 L48.75 63.25 C45.43 67.83 48.17 60.76 45 63 L45 62 L45 61 L48 59 z"/>
<path style="fill:#888888" d="M24 60 L26 62 C24.94 61.57 24.94 63.43 26 63 L28 65 L28 68 L27 68 C24.65 66.26 22.03 64.96 19 65 C17.82 64.14 15.37 64.12 16 62 L24 60 z"/>
<path style="fill:#9a9a9a" d="M41 61 C39.82 62.04 37.37 62.52 38 60 C38.95 60.19 40.94 59.41 41 61 z"/>
<path style="fill:#c9c9c9" d="M50 60 L50 62 C47.5 62.95 47.5 59.05 50 60 z"/>
<path style="fill:#0a0a0a" d="M71 63 L71 65 L70 66 L69 67 L68 68 L67 69 L63 72 L62 73 L60 74 L59 75 L58 75 L57 76 L56 76 L55 77 L54 77 C53.34 76.98 51.85 76.82 52 78 L49 78 L38 78 L37 78 C37.15 76.82 35.66 76.98 35 77 L34 77 C34.15 75.82 32.66 75.98 32 76 L28 74 L27 73 L24 71 L23 70 L22 69 L21 68 L20 67 C18.82 67.15 18.98 65.66 19 65 C22.03 64.96 24.65 66.26 27 68 C30.27 70.71 34.31 74.02 39 74 C40.99 75.66 47.01 75.66 49 74 C52.32 73.47 57.21 73.55 57 69 L58 68 L59 67 L62 65 L63 64 L63 63 C64.18 63.15 64.02 61.66 64 61 L64 60 L71 63 z"/>
<path style="fill:#f0f0f0" d="M45 61 L45 62 L44 62 L44 61 L45 61 z"/>
<path style="fill:#989999" d="M64 61 C64.02 61.66 64.18 63.15 63 63 C62.98 62.34 62.82 60.85 64 61 z"/>
<path style="fill:#1e1e1e" d="M26 62 L26 63 C24.94 63.43 24.94 61.57 26 62 z"/>
<path style="fill:#0e0e0e" d="M43 63 C43.98 66.01 41.27 66.4 39 66 C37.82 66.15 37.98 64.66 38 64 L41 62 L43 63 z"/>
<path style="fill:#757575" d="M45 62 L45 63 C42.23 66.16 46.58 66.38 49 66 L51 66 C48.36 67.66 41.64 67.66 39 66 C41.27 66.4 43.98 66.01 43 63 L44 62 L45 62 z"/>
<path style="fill:#121313" d="M49 65 L49 66 C46.58 66.38 42.23 66.16 45 63 C48.17 60.76 45.43 67.83 48.75 63.25 L49 65 z"/>
<path style="fill:#6a6a6a" d="M63 64 L62 65 L63 64 z"/>
<path style="fill:#727373" d="M28 65 C35.86 72.53 47.57 73.65 57 69 C57.21 73.55 52.32 73.47 49 74 L39 74 C34.31 74.02 30.27 70.71 27 68 L28 68 L28 65 z"/>
<path style="fill:#a2a2a2" d="M71 65 L70 66 L71 65 z"/>
<path style="fill:#8a8a8a" d="M70 66 L69 67 L70 66 z"/>
<path style="fill:#707070" d="M21 68 L20 67 L21 68 z"/>
<path style="fill:#818181" d="M59 67 L58 68 L59 67 z"/>
<path style="fill:#8f8f8f" d="M69 67 L68 68 L69 67 z"/>
<path style="fill:#8e8e8e" d="M22 69 L21 68 L22 69 z"/>
<path style="fill:#939393" d="M68 68 L67 69 L68 68 z"/>
<path style="fill:#959595" d="M23 70 L22 69 L23 70 z"/>
<path style="fill:#a7a7a7" d="M24 71 L23 70 L24 71 z"/>
<path style="fill:#898989" d="M63 72 L62 73 L63 72 z"/>
<path style="fill:#8a8a8a" d="M28 74 L27 73 L28 74 z"/>
<path style="fill:#484848" d="M49 74 C47.01 75.66 40.99 75.66 39 74 L49 74 z"/>
<path style="fill:#989898" d="M60 74 L59 75 L60 74 z"/>
<path style="fill:#8d8d8d" d="M58 75 L57 76 L58 75 z"/>
<path style="fill:#7b7b7b" d="M34 77 C33.34 77.02 31.85 77.18 32 76 C32.66 75.98 34.15 75.82 34 77 z"/>
<path style="fill:#909090" d="M56 76 L55 77 L56 76 z"/>
<path style="fill:#636464" d="M37 78 C36.34 78.02 34.85 78.18 35 77 C35.66 76.98 37.15 76.82 37 78 z"/>
<path style="fill:#a3a4a4" d="M54 77 C54.15 78.18 52.66 78.02 52 78 C51.85 76.82 53.34 76.98 54 77 z"/>
<path style="fill:#525353" d="M49 78 C46.69 79.66 40.31 79.66 38 78 L49 78 z"/>
</svg>
