<?xml version="1.0" standalone="yes"?>
<svg width="87" height="97">
<path style="fill:#fdfdfd" d="M87 0 L87 97 L0 97 L0 0 L87 0 z"/>
<path style="fill:#9a9b9b" d="M37 17 C37.15 18.18 35.66 18.02 35 18 C34.85 16.82 36.34 16.98 37 17 z"/>
<path style="fill:#0a0a0a" d="M48 17 C47.85 18.18 49.34 18.02 50 18 L51 18 C50.85 19.18 52.34 19.02 53 19 L54 19 C53.85 20.18 55.34 20.02 56 20 L57 20 L58 21 L60 22 L61 23 L62 24 L65 26 L66 27 L68 30 L69 31 L70 33 L71 34 L71 35 L72 36 L72 38 C71.98 38.66 71.82 40.15 73 40 L73 41 C72.98 41.66 72.82 43.15 74 43 L74 53 C72.82 52.85 72.98 54.34 73 55 L72 60 L71 61 L69 66 L68 67 L67 68 L62 73 L61 74 L60 75 L59 75 L58 76 L57 76 L56 77 L55 77 L54 78 L53 78 C52.34 77.98 50.85 77.82 51 79 L48 79 L37 79 L34 79 C34.15 77.82 32.66 77.98 32 78 L29 77 L28 76 L27 76 L26 75 L24 74 L23 73 L22 72 L18 68 L17 67 L16 65 L15 64 L15 63 L14 62 L14 61 L13 60 L13 59 C13.02 58.34 13.18 56.85 12 57 L12 56 L11 52 L11 45 L12 41 L12 40 C13.18 40.15 13.02 38.66 13 38 L16 31 L17 30 L18 29 L23 24 L24 23 L25 22 L26 22 L27 21 L32 19 C32.66 19.02 34.15 19.18 34 18 L35 18 C35.66 18.02 37.15 18.18 37 17 L48 17 z"/>
<path style="fill:#919191" d="M50 18 C49.34 18.02 47.85 18.18 48 17 C48.66 16.98 50.15 16.82 50 18 z"/>
<path style="fill:#717272" d="M34 18 C34.15 19.18 32.66 19.02 32 19 C31.85 17.82 33.34 17.98 34 18 z"/>
<path style="fill:#6a6a6a" d="M53 19 C52.34 19.02 50.85 19.18 51 18 C51.66 17.98 53.15 17.82 53 19 z"/>
<path style="fill:#7c7d7d" d="M56 20 C55.34 20.02 53.85 20.18 54 19 C54.66 18.98 56.15 18.82 56 20 z"/>
<path style="fill:#a5a5a5" d="M58 21 L57 20 L58 21 z"/>
<path style="fill:#5f5f5f" d="M27 21 L26 22 L27 21 z"/>
<path style="fill:#8e8e8e" d="M25 22 L24 23 L25 22 z"/>
<path style="fill:#484949" d="M46 23 L38 23 C39.34 21.35 44.66 21.35 46 23 z"/>
<path style="fill:#8a8a8a" d="M61 23 L60 22 L61 23 z"/>
<path style="fill:#656565" d="M24 23 L23 24 L24 23 z"/>
<path style="fill:#818282" d="M37 23 C37.15 24.18 35.66 24.02 35 24 C34.85 22.82 36.34 22.98 37 23 z"/>
<path style="fill:#f0f1f1" d="M38 23 L46 23 L54 25 L55 26 L57 27 L58 28 L63 33 L64 34 L65 36 L66 37 L66 38 L67 39 L67 41 C66.98 41.66 66.82 43.15 68 43 L68 44 L68 53 L66 52 L62 48 L61 47 L57 45 L57 43 L62 39 L63 38 L63 37 L62 36 L61 36 L60 35 C60.02 34.34 60.18 32.85 59 33 C56.5 32.74 49.51 32.55 53 38 L52 39 L52 40 L53 43 L52 43 C50.66 39.56 46.27 45.12 45 42 L45 40 L46 40 L47 39 C49.32 37.71 48.69 36.38 48 34 L49 33 L50 31 C53.55 27.95 47.31 27.49 45 28 L45 27 L44 26 L43 25 L40 28 C38.34 27.93 31.88 27.46 35 30 L37 34 L37 36 L37 37 C34.43 37.91 37.47 39.85 39 39 L40 40 C39.98 40.66 39.82 42.15 41 42 L40 44 L39 44 C38.35 42.75 34.75 40.72 34 43 L32 43 C30.41 42.94 31.19 40.95 31 40 C31.66 40.02 33.15 40.18 33 39 L32 38 L32 37 L33 36 L28 33 C28.22 31.67 25.78 31.67 26 33 L26 34 C24.82 33.85 24.98 35.34 25 36 L25 42 C24.57 43.06 26.43 43.06 26 42 C26.66 41.98 28.15 41.82 28 43 L28 45 L23 48 L22 49 L21 50 L18 53 L17 53 L17 52 L17 45 L17 43 C18.18 43.15 18.02 41.66 18 41 L21 34 L22 33 L27 28 L28 27 L30 26 L31 25 L32 25 C32.66 25.02 34.15 25.18 34 24 L35 24 C35.66 24.02 37.15 24.18 37 23 L38 23 z"/>
<path style="fill:#5d5d5d" d="M62 24 L61 23 L62 24 z"/>
<path style="fill:#868787" d="M34 24 C34.15 25.18 32.66 25.02 32 25 C31.85 23.82 33.34 23.98 34 24 z"/>
<path style="fill:#6a6a6a" d="M31 25 L30 26 L31 25 z"/>
<path style="fill:#111212" d="M43 25 L44 26 L45 27 L45 28 C47.16 29.44 48.51 29.34 46 32 C41.15 36.85 43.09 22 41.75 33.75 C36.51 28.07 39.24 31.16 39 36 L39 38 C38.34 38.02 36.85 38.18 37 37 L37 36 C38.33 36.22 38.33 33.78 37 34 L35 30 L40 28 L43 25 z"/>
<path style="fill:#787878" d="M44 26 L43 25 L44 26 z"/>
<path style="fill:#6f6f6f" d="M55 26 L54 25 L55 26 z"/>
<path style="fill:#8c8c8c" d="M45 27 L44 26 L45 27 z"/>
<path style="fill:#aaaaaa" d="M66 27 L65 26 L66 27 z"/>
<path style="fill:#828282" d="M28 27 L27 28 L28 27 z"/>
<path style="fill:#9c9c9c" d="M58 28 L57 27 L58 28 z"/>
<path style="fill:#707070" d="M40 28 L35 30 C31.88 27.46 38.34 27.93 40 28 z"/>
<path style="fill:#6c6c6c" d="M46 32 L46 35 L39 36 C39.24 31.16 36.51 28.07 41.75 33.75 C43.09 22 41.15 36.85 46 32 z"/>
<path style="fill:#5b5c5c" d="M50 31 C49.75 26.42 48.59 33.36 46 32 C48.51 29.34 47.16 29.44 45 28 C47.31 27.49 53.55 27.95 50 31 z"/>
<path style="fill:#666666" d="M18 29 L17 30 L18 29 z"/>
<path style="fill:#0d0e0e" d="M50 31 L49 33 L48 34 L46 35 L46 32 C48.59 33.36 49.75 26.42 50 31 z"/>
<path style="fill:#9d9d9d" d="M17 30 L16 31 L17 30 z"/>
<path style="fill:#8b8b8b" d="M69 31 L68 30 L69 31 z"/>
<path style="fill:#787878" d="M28 33 L26 33 C25.78 31.67 28.22 31.67 28 33 z"/>
<path style="fill:#2c2d2d" d="M59 33 C57.19 35.27 56.9 38.27 54.25 38.75 C60.97 41.15 57.1 37.46 60 35 L61 36 L62 36 L63 37 L63 38 L62 39 L57 43 L52 40 L52 39 L53 38 C49.51 32.55 56.5 32.74 59 33 z"/>
<path style="fill:#848484" d="M22 33 L21 34 L22 33 z"/>
<path style="fill:#262727" d="M28 33 L33 36 L32 37 L32 38 L33 39 C33.15 40.18 31.66 40.02 31 40 L28 43 C28.15 41.82 26.66 41.98 26 42 L25 42 L25 36 C30.66 37.85 21.94 36.36 25.25 38.75 L27 39 C30.52 42.81 32.83 31.77 28 37 L26 34 L26 33 L28 33 z"/>
<path style="fill:#979797" d="M49 33 L48 34 L49 33 z"/>
<path style="fill:#565656" d="M60 35 C57.1 37.46 60.97 41.15 54.25 38.75 C56.9 38.27 57.19 35.27 59 33 C60.18 32.85 60.02 34.34 60 35 z"/>
<path style="fill:#949494" d="M64 34 L63 33 L64 34 z"/>
<path style="fill:#a0a0a0" d="M71 34 L70 33 L71 34 z"/>
<path style="fill:#474848" d="M26 34 L28 37 C28.02 37.66 28.18 39.15 27 39 L25.25 38.75 C21.94 36.36 30.66 37.85 25 36 C24.98 35.34 24.82 33.85 26 34 z"/>
<path style="fill:#959696" d="M37 36 L37 34 C38.33 33.78 38.33 36.22 37 36 z"/>
<path style="fill:#2f3030" d="M48 34 C48.69 36.38 49.32 37.71 47 39 L46 40 L45 40 C41.93 38.55 43.07 38.55 40 40 L39 39 L39 38 L39 36 L46 35 L48 34 z"/>
<path style="fill:#5a5b5b" d="M27 39 C28.18 39.15 28.02 37.66 28 37 C32.83 31.77 30.52 42.81 27 39 z"/>
<path style="fill:#939393" d="M61 36 L60 35 L61 36 z"/>
<path style="fill:#a9a9a9" d="M72 36 L71 35 L72 36 z"/>
<path style="fill:#7d7d7d" d="M33 36 L32 37 L33 36 z"/>
<path style="fill:#909090" d="M63 37 L62 36 L63 37 z"/>
<path style="fill:#696969" d="M66 37 L65 36 L66 37 z"/>
<path style="fill:#aaabab" d="M37 37 C36.85 38.18 38.34 38.02 39 38 L39 39 C37.47 39.85 34.43 37.91 37 37 z"/>
<path style="fill:#c8c8c8" d="M44 37 C46.52 37.7 43.27 40.22 44 37 z"/>
<path style="fill:#737474" d="M13 38 C13.02 38.66 13.18 40.15 12 40 C11.98 39.34 11.82 37.85 13 38 z"/>
<path style="fill:#838383" d="M33 39 L32 38 L33 39 z"/>
<path style="fill:#cacaca" d="M40 38 C41.88 37.86 39.86 39.88 40 38 z"/>
<path style="fill:#060707" d="M45 40 L45 42 L41 42 C39.82 42.15 39.98 40.66 40 40 C43.07 38.55 41.93 38.55 45 40 z"/>
<path style="fill:#9a9a9a" d="M53 38 L52 39 L53 38 z"/>
<path style="fill:#969696" d="M63 38 L62 39 L63 38 z"/>
<path style="fill:#5d5d5d" d="M67 39 L66 38 L67 39 z"/>
<path style="fill:#666767" d="M73 40 C71.82 40.15 71.98 38.66 72 38 C73.18 37.85 73.02 39.34 73 40 z"/>
<path style="fill:#999999" d="M47 39 L46 40 L47 39 z"/>
<path style="fill:#626363" d="M31 40 C31.19 40.95 30.41 42.94 32 43 C31.39 44.24 29.44 44.98 28 45 L28 43 L31 40 z"/>
<path style="fill:#747474" d="M57 43 L57 45 C55.56 44.98 53.61 44.24 53 43 L52 40 L57 43 z"/>
<path style="fill:#868686" d="M12 41 L11 45 L12 41 z"/>
<path style="fill:#6f6f6f" d="M18 41 C18.02 41.66 18.18 43.15 17 43 C16.98 42.34 16.82 40.85 18 41 z"/>
<path style="fill:#828282" d="M68 43 C66.82 43.15 66.98 41.66 67 41 C68.18 40.85 68.02 42.34 68 43 z"/>
<path style="fill:#9d9d9d" d="M74 43 C72.82 43.15 72.98 41.66 73 41 C74.18 40.85 74.02 42.34 74 43 z"/>
<path style="fill:#959595" d="M26 42 C26.43 43.06 24.57 43.06 25 42 L26 42 z"/>
<path style="fill:#7d7e7e" d="M39 44 C36.98 46.58 35.29 49.46 36 53 C35.81 53.95 36.59 55.94 35 56 C35.63 53.48 33.18 53.96 32 55 L35 44 L34 43 C34.75 40.72 38.35 42.75 39 44 z"/>
<path style="fill:#777777" d="M45 42 C46.27 45.12 50.66 39.56 52 43 L64 52 C59.88 50.46 54.66 47.56 59 54 L58 54 C55.5 50.6 53.36 44.53 48.25 44.25 L54 56 L50.25 53.25 C47.56 65.06 52.29 42.75 44 44 C42.33 51.3 42.33 62.7 44 70 C43.79 72.14 41.21 72.14 41 70 C42.05 63.01 43.94 49.32 40 44 L41 42 L45 42 z"/>
<path style="fill:#161616" d="M34 43 L35 44 C33.66 43.67 32.26 44.71 32 46 L31 47 L21 50 L22 49 L23 48 L28 45 C29.44 44.98 31.39 44.24 32 43 L34 43 z"/>
<path style="fill:#171818" d="M52 43 L53 43 C53.61 44.24 55.56 44.98 57 45 L61 47 L62 48 L66 52 L64 52 L52 43 z"/>
<path style="fill:#7e7e7e" d="M35 44 C34.74 45.29 33.34 46.33 32 46 C32.26 44.71 33.66 43.67 35 44 z"/>
<path style="fill:#0d0d0d" d="M32 55 C29.47 56.39 27.19 59.08 27 62 C25.82 62.15 25.98 60.66 26 60 L27 54 C28.24 53.39 28.98 51.44 29 50 C30.29 49.74 31.33 48.34 31 47 L32 46 C33.34 46.33 34.74 45.29 35 44 L32 55 z"/>
<path style="fill:#040505" d="M40 44 C43.94 49.32 42.05 63.01 41 70 L39 66 C39.02 65.34 39.18 63.85 38 64 L38 63 C38.02 62.34 38.18 60.85 37 61 L37 60 L37 59 L36 53 C35.29 49.46 36.98 46.58 39 44 L40 44 z"/>
<path style="fill:#0a0b0b" d="M54 56 L57 64 L56 64 L55 63 L53 62 L52 61 L50 60 C49.81 57.98 47.1 59.44 48 61 L48 62 C46.82 61.85 46.98 63.34 47 64 L46 67 L45 68 L45 69 L44 70 C42.33 62.7 42.33 51.3 44 44 C52.29 42.75 47.56 65.06 50.25 53.25 L54 56 z"/>
<path style="fill:#0b0b0b" d="M58 54 L58 55 C57.98 55.66 57.82 57.15 59 57 L59 58 C59.03 64.32 56.54 56.52 54 56 L48.25 44.25 C53.36 44.53 55.5 50.6 58 54 z"/>
<path style="fill:#3b3b3b" d="M68 53 L68 44 C69.65 45.66 69.65 51.34 68 53 z"/>
<path style="fill:#3c3c3c" d="M17 45 L17 52 C15.36 50.97 15.36 46.03 17 45 z"/>
<path style="fill:#a2a2a2" d="M32 46 L31 47 L32 46 z"/>
<path style="fill:#717171" d="M31 47 C31.33 48.34 30.29 49.74 29 50 L18 53 L21 50 L31 47 z"/>
<path style="fill:#808080" d="M62 48 L61 47 L62 48 z"/>
<path style="fill:#696969" d="M23 48 L22 49 L23 48 z"/>
<path style="fill:#111212" d="M29 50 C27.07 50.41 26.91 52.65 26 54 L24 54 L18 54 L18 53 L29 50 z"/>
<path style="fill:#0c0d0d" d="M64 52 L65 54 L62 54 L59 54 C54.66 47.56 59.88 50.46 64 52 z"/>
<path style="fill:#797979" d="M29 50 C28.98 51.44 28.24 53.39 27 54 L26 54 C26.91 52.65 27.07 50.41 29 50 z"/>
<path style="fill:#8e8e8e" d="M12 56 L11 52 L12 56 z"/>
<path style="fill:#585858" d="M66 52 L68 53 L68 54 L65 54 L64 52 L66 52 z"/>
<path style="fill:#6b6b6b" d="M18 53 L18 54 L18 55 L18 56 C16.41 55.94 17.19 53.95 17 53 L18 53 z"/>
<path style="fill:#474747" d="M37 59 L36 59 L35 56 C36.59 55.94 35.81 53.95 36 53 L37 59 z"/>
<path style="fill:#737373" d="M74 53 C74.02 53.66 74.18 55.15 73 55 C72.98 54.34 72.82 52.85 74 53 z"/>
<path style="fill:#b5b5b5" d="M24 54 L18 55 L18 54 L24 54 z"/>
<path style="fill:#f2f2f2" d="M26 54 L27 54 L26 60 C23.21 60.97 25.73 67.82 28 64 L29 64 L30 63 L31 63 L32 62 L33 61 L34 61 L35 60 L37 60 L37 61 C36.98 61.66 36.82 63.15 38 63 L38 64 C37.98 64.66 37.82 66.15 39 66 L41 70 C41.21 72.14 43.79 72.14 44 70 L45 69 L45 68 L46 67 L47 64 C48.18 64.15 48.02 62.66 48 62 L48 61 L50 60 L52 61 L53 62 L55 63 L56 64 L57 64 C60.24 68.05 61.33 59.12 59 58 L59 57 C59.02 56.34 59.18 54.85 58 55 L58 54 L59 54 L62 54 L67 55 L64 63 L63 64 L58 69 L57 70 L55 71 L54 72 L52 72 L51 73 C46.71 74.63 41.71 73.82 37 74 C37.15 72.82 35.66 72.98 35 73 L28 70 L27 69 L26 68 L23 65 L22 64 L21 63 L19 58 L18 57 L18 56 L18 55 L24 54 L26 54 z"/>
<path style="fill:#0c0d0d" d="M35 56 L36 59 L35 60 L34 61 L33 61 L32 62 L31 63 L30 63 L29 64 L28 64 C26.82 64.15 26.98 62.66 27 62 C28.99 60.28 31.42 57.68 32 55 C33.18 53.96 35.63 53.48 35 56 z"/>
<path style="fill:#a7a8a8" d="M65 54 L68 54 L67 55 L62 54 L65 54 z"/>
<path style="fill:#737373" d="M32 55 C31.42 57.68 28.99 60.28 27 62 C27.19 59.08 29.47 56.39 32 55 z"/>
<path style="fill:#5a5a5a" d="M59 57 C57.82 57.15 57.98 55.66 58 55 C59.18 54.85 59.02 56.34 59 57 z"/>
<path style="fill:#686868" d="M59 58 C61.33 59.12 60.24 68.05 57 64 L54 56 C56.54 56.52 59.03 64.32 59 58 z"/>
<path style="fill:#878787" d="M13 59 C11.82 59.15 11.98 57.66 12 57 C13.18 56.85 13.02 58.34 13 59 z"/>
<path style="fill:#919191" d="M19 58 L18 57 L19 58 z"/>
<path style="fill:#979898" d="M36 59 L37 59 L37 60 L35 60 L36 59 z"/>
<path style="fill:#a3a3a3" d="M50 60 L48 61 C47.1 59.44 49.81 57.98 50 60 z"/>
<path style="fill:#7c7c7c" d="M14 61 L13 60 L14 61 z"/>
<path style="fill:#676868" d="M26 60 C25.98 60.66 25.82 62.15 27 62 C26.98 62.66 26.82 64.15 28 64 C25.73 67.82 23.21 60.97 26 60 z"/>
<path style="fill:#9b9b9b" d="M35 60 L34 61 L35 60 z"/>
<path style="fill:#626262" d="M72 60 L71 61 L72 60 z"/>
<path style="fill:#626262" d="M33 61 L32 62 L33 61 z"/>
<path style="fill:#6c6d6d" d="M38 63 C36.82 63.15 36.98 61.66 37 61 C38.18 60.85 38.02 62.34 38 63 z"/>
<path style="fill:#757575" d="M53 62 L52 61 L53 62 z"/>
<path style="fill:#6a6a6a" d="M15 63 L14 62 L15 63 z"/>
<path style="fill:#9e9e9e" d="M32 62 L31 63 L32 62 z"/>
<path style="fill:#8c8d8d" d="M48 62 C48.02 62.66 48.18 64.15 47 64 C46.98 63.34 46.82 61.85 48 62 z"/>
<path style="fill:#737373" d="M22 64 L21 63 L22 64 z"/>
<path style="fill:#858585" d="M30 63 L29 64 L30 63 z"/>
<path style="fill:#919191" d="M56 64 L55 63 L56 64 z"/>
<path style="fill:#7c7c7c" d="M64 63 L63 64 L64 63 z"/>
<path style="fill:#787878" d="M16 65 L15 64 L16 65 z"/>
<path style="fill:#9b9b9b" d="M23 65 L22 64 L23 65 z"/>
<path style="fill:#797979" d="M39 66 C37.82 66.15 37.98 64.66 38 64 C39.18 63.85 39.02 65.34 39 66 z"/>
<path style="fill:#a1a1a1" d="M69 66 L68 67 L69 66 z"/>
<path style="fill:#707070" d="M18 68 L17 67 L18 68 z"/>
<path style="fill:#676767" d="M46 67 L45 68 L46 67 z"/>
<path style="fill:#666666" d="M68 67 L67 68 L68 67 z"/>
<path style="fill:#969696" d="M27 69 L26 68 L27 69 z"/>
<path style="fill:#666666" d="M28 70 L27 69 L28 70 z"/>
<path style="fill:#808080" d="M45 69 L44 70 L45 69 z"/>
<path style="fill:#868686" d="M58 69 L57 70 L58 69 z"/>
<path style="fill:#626262" d="M55 71 L54 72 L55 71 z"/>
<path style="fill:#6c6c6c" d="M23 73 L22 72 L23 73 z"/>
<path style="fill:#9a9a9a" d="M52 72 L51 73 L52 72 z"/>
<path style="fill:#8f8f8f" d="M24 74 L23 73 L24 74 z"/>
<path style="fill:#636363" d="M37 74 C36.34 74.02 34.85 74.18 35 73 C35.66 72.98 37.15 72.82 37 74 z"/>
<path style="fill:#757575" d="M62 73 L61 74 L62 73 z"/>
<path style="fill:#a6a6a6" d="M61 74 L60 75 L61 74 z"/>
<path style="fill:#7f7f7f" d="M27 76 L26 75 L27 76 z"/>
<path style="fill:#686868" d="M59 75 L58 76 L59 75 z"/>
<path style="fill:#6c6c6c" d="M29 77 L28 76 L29 77 z"/>
<path style="fill:#606060" d="M57 76 L56 77 L57 76 z"/>
<path style="fill:#6e6e6e" d="M55 77 L54 78 L55 77 z"/>
<path style="fill:#888888" d="M34 79 C33.34 79.02 31.85 79.18 32 78 C32.66 77.98 34.15 77.82 34 79 z"/>
<path style="fill:#898a8a" d="M53 78 C53.15 79.18 51.66 79.02 51 79 C50.85 77.82 52.34 77.98 53 78 z"/>
<path style="fill:#3e3e3e" d="M48 79 C45.69 80.66 39.31 80.66 37 79 L48 79 z"/>
</svg>
