<?xml version="1.0" standalone="yes"?>
<svg width="87" height="97">
<path style="fill:#fcfdfd" d="M87 0 L87 97 L0 97 L0 0 L87 0 z"/>
<path style="fill:#999999" d="M41 19 L40 21 L37 24 L36 24 C37.49 21.38 42.49 16.71 36 18 C36.56 16.27 41.88 16.21 41 19 z"/>
<path style="fill:#949494" d="M49 18 C45.55 17.39 44.51 18.59 47 21 L46 21 L45 21 C44.74 19.71 43.34 18.67 42 19 C43.09 17.12 47.69 15.79 49 18 z"/>
<path style="fill:#939393" d="M35 18 L34 19 L35 18 z"/>
<path style="fill:#080909" d="M36 18 C42.49 16.71 37.49 21.38 36 24 C35.12 26.99 34.18 30.79 35.75 33.75 L27 33 L23 29 L23 24 L24 23 L28 21 L29 20 L34 19 L35 18 L36 18 z"/>
<path style="fill:#080808" d="M49 18 L50 18 L51 19 L59 22 C58.85 23.18 60.34 23.02 61 23 L62 24 L62 29 C60.71 29.26 59.67 30.66 60 32 L50.25 33.75 C50.31 29.11 49.65 24.81 47 21 C44.51 18.59 45.55 17.39 49 18 z"/>
<path style="fill:#9c9c9c" d="M51 19 L50 18 L51 19 z"/>
<path style="fill:#1f1f1f" d="M42 19 C43.34 18.67 44.74 19.71 45 21 C43.34 25.3 43.34 33.7 45 38 L43 40 L42 21 L41 21 L40 21 L41 19 L42 19 z"/>
<path style="fill:#a1a1a1" d="M29 20 L28 21 L29 20 z"/>
<path style="fill:#070808" d="M40 21 L41 21 L41 39 L39 38 C36.98 33.72 36.63 28.97 37 24 L40 21 z"/>
<path style="fill:#353636" d="M42 21 L41 39 L41 21 L42 21 z"/>
<path style="fill:#d5d6d6" d="M43 40 L42 41 L40 42 L40 41 L39 38 L41 39 L42 21 L43 40 z"/>
<path style="fill:#060606" d="M45 21 L46 21 C48.37 26.2 49.56 33.44 45 38 C43.34 33.7 43.34 25.3 45 21 z"/>
<path style="fill:#b3b3b3" d="M47 21 C49.65 24.81 50.31 29.11 50.25 33.75 L60 32 L62 36 L61 36 C55.79 32.56 47.06 34.07 45.25 40.75 L49 40 L50 41 L46 43 L45 42 L42 41 L43 40 L45 38 C49.56 33.44 48.37 26.2 46 21 L47 21 z"/>
<path style="fill:#8f8f8f" d="M61 23 C60.34 23.02 58.85 23.18 59 22 C59.66 21.98 61.15 21.82 61 23 z"/>
<path style="fill:#8e8e8e" d="M24 23 L23 24 L24 23 z"/>
<path style="fill:#939393" d="M62 24 L61 23 L62 24 z"/>
<path style="fill:#b9b9b9" d="M37 24 C36.63 28.97 36.98 33.72 39 38 C36.82 36.74 34.86 34.47 32 35 C31.55 33.4 27.45 33.4 27 35 L24 36 L23 36 L25 34 L27 33 L35.75 33.75 C34.18 30.79 35.12 26.99 36 24 L37 24 z"/>
<path style="fill:#626262" d="M22 27 L20 27 C19.78 25.67 22.22 25.67 22 27 z"/>
<path style="fill:#616161" d="M65 27 L63 27 C62.78 25.67 65.22 25.67 65 27 z"/>
<path style="fill:#080808" d="M20 27 L22 27 L22 29 L25 34 L23 36 C20 36.25 17.12 36.2 15 34 L15 33 L16 32 C17.18 32.15 17.02 30.66 17 30 L18 29 L19 28 L20 27 z"/>
<path style="fill:#0f1010" d="M65 27 L66 28 L67 29 C68.18 28.85 68.02 30.34 68 31 L69 32 C70.59 32.06 69.81 34.05 70 35 L62 36 L60 32 C61.29 31.74 62.33 30.34 62 29 C63.18 29.15 63.02 27.66 63 27 L65 27 z"/>
<path style="fill:#8b8b8b" d="M19 28 L18 29 L19 28 z"/>
<path style="fill:#8c8c8c" d="M67 29 L66 28 L67 29 z"/>
<path style="fill:#878888" d="M23 29 L27 33 L25 34 L22 29 L23 29 z"/>
<path style="fill:#aaaaaa" d="M62 29 C62.33 30.34 61.29 31.74 60 32 C59.67 30.66 60.71 29.26 62 29 z"/>
<path style="fill:#898a8a" d="M17 30 C17.02 30.66 17.18 32.15 16 32 C15.98 31.34 15.82 29.85 17 30 z"/>
<path style="fill:#868686" d="M69 32 L68 31 L69 32 z"/>
<path style="fill:#5f5f5f" d="M16 32 L15 33 L16 32 z"/>
<path style="fill:#8e8f8f" d="M23 36 L24 36 L22 38 C22.43 36.94 20.57 36.94 21 38 L13 38 C12.15 35.67 14.09 35.26 15 34 C17.12 36.2 20 36.25 23 36 z"/>
<path style="fill:#5c5c5c" d="M32 35 L27 35 C27.45 33.4 31.55 33.4 32 35 z"/>
<path style="fill:#0f0f0f" d="M61 36 L63 38 C66.16 45.06 54.77 44.97 50 45 C48.56 44.98 46.61 44.24 46 43 L50 41 C53.75 39.17 58.01 40.45 61.75 40.75 C59.53 37.63 51.82 38.63 49 40 L45.25 40.75 C47.06 34.07 55.79 32.56 61 36 z"/>
<path style="fill:#0c0d0d" d="M27 35 L32 35 C34.86 34.47 36.82 36.74 39 38 L40 41 C35.16 39.65 27.2 36.73 23.25 40.75 C27.65 39.73 36.26 38.66 38 44 C37.34 43.98 35.85 43.82 36 45 L35 45 C30.15 45.29 18.86 45 22 38 L24 36 L27 35 z"/>
<path style="fill:#949494" d="M70 35 L71 36 L64 38 C64.43 36.94 62.57 36.94 63 38 L61 36 L62 36 L70 35 z"/>
<path style="fill:#0b0b0b" d="M21 38 L20 42 L15 42 L12 42 L13 38 L21 38 z"/>
<path style="fill:#090909" d="M71 36 C70.98 36.66 70.82 38.15 72 38 L73 41 C70.74 42.71 67.69 41.77 65 42 L64 38 L71 36 z"/>
<path style="fill:#9b9b9b" d="M72 38 C70.82 38.15 70.98 36.66 71 36 C72.18 35.85 72.02 37.34 72 38 z"/>
<path style="fill:#b2b2b2" d="M22 38 C18.86 45 30.15 45.29 35 45 L30 47 L29 46 C23.35 42.96 20.32 49.23 27 50 L26 51 C22.44 48.34 21.77 54.11 25 55 L24 58 L23 58 C24.02 53.6 20.21 56.3 23 58 C23.19 58.95 22.41 60.94 24 61 C23.98 61.66 23.82 63.15 25 63 L25 65 L24 65 L16 65 L15 63 C20.3 64.95 24.68 57.45 19 56 L20 53 C20.85 51.47 18.91 48.43 18 51 L11 51 L11 50 L17 49 C18.35 49.46 19.46 48.35 19 47 L20 42 L21 38 C20.57 36.94 22.43 36.94 22 38 z"/>
<path style="fill:#b1b2b2" d="M64 38 L65 42 L66 48 C65.85 49.18 67.34 49.02 68 49 L72 51 L65 50 L64 50 L63.25 44.25 L63 53 L62 54 L61 50 L61 49 C65.22 44.4 56.98 44.9 55 47 L50 45 C54.77 44.97 66.16 45.06 63 38 C62.57 36.94 64.43 36.94 64 38 z"/>
<path style="fill:#929393" d="M40 41 L40 42 L38 44 C36.26 38.66 27.65 39.73 23.25 40.75 C27.2 36.73 35.16 39.65 40 41 z"/>
<path style="fill:#7f8080" d="M50 41 L49 40 C51.82 38.63 59.53 37.63 61.75 40.75 C58.01 40.45 53.75 39.17 50 41 z"/>
<path style="fill:#272828" d="M42 41 L45 42 L44 49 L41 49 L40 42 L42 41 z"/>
<path style="fill:#858686" d="M73 41 L73 43 L66 48 L65 42 C67.69 41.77 70.74 42.71 73 41 z"/>
<path style="fill:#b0b0b0" d="M15 42 L18 44 L12 43 L12 42 L15 42 z"/>
<path style="fill:#7c7c7c" d="M20 42 L19 47 C18.81 46.05 19.59 44.06 18 44 L15 42 L20 42 z"/>
<path style="fill:#eceded" d="M40 42 L41 49 L40 49 C40.22 47.67 37.78 47.67 38 49 L37 53 L33 54 C31.31 59.83 37.76 55.33 36 61 C34.82 60.85 34.98 62.34 35 63 C35.2 66.5 32.34 65.92 32 63 L31 61 L31 60 L30 59 C30.71 56.32 27.55 57.06 26 57 L27 56 L29 56 C30.55 55.81 30.55 52.19 29 52 L30 47 L35 45 L36 45 C36.66 45.02 38.15 45.18 38 44 L40 42 z"/>
<path style="fill:#f6f7f7" d="M46 43 C46.61 44.24 48.56 44.98 50 45 L55 47 L55 50 L55 56 L55 57 L54 60 C52.82 60.15 52.98 58.66 53 58 L53 56 L52 55 C52.22 53.67 49.78 53.67 50 55 L49 55 L45 55 L45 54 L44 53 L43 53 C39.85 51.05 41.85 50.29 44 49 L45 42 L46 43 z"/>
<path style="fill:#5a5a5a" d="M12 43 L11 48 L12 43 z"/>
<path style="fill:#040505" d="M18 44 C19.59 44.06 18.81 46.05 19 47 C19.46 48.35 18.35 49.46 17 49 L11 49 L11 48 L12 43 L18 44 z"/>
<path style="fill:#020303" d="M73 43 L74 48 L74 49 L68 49 C67.34 49.02 65.85 49.18 66 48 L73 43 z"/>
<path style="fill:#686969" d="M74 48 L73 43 L74 48 z"/>
<path style="fill:#2f2f2f" d="M21 44 C22.78 45.9 22.37 51.79 21.25 53.75 L21 44 z"/>
<path style="fill:#818181" d="M38 44 C38.15 45.18 36.66 45.02 36 45 C35.85 43.82 37.34 43.98 38 44 z"/>
<path style="fill:#212222" d="M64 50 L64 53 L63 53 L63.25 44.25 L64 50 z"/>
<path style="fill:#080909" d="M29 46 C28.94 47.55 29.68 50.71 27 50 C20.32 49.23 23.35 42.96 29 46 z"/>
<path style="fill:#101111" d="M61 49 C59.3 50.36 57.09 49.98 55 50 L55 47 C56.98 44.9 65.22 44.4 61 49 z"/>
<path style="fill:#5e5f5f" d="M30 47 L29 52 C28.05 51.81 26.06 52.59 26 51 L27 50 C29.68 50.71 28.94 47.55 29 46 L30 47 z"/>
<path style="fill:#747575" d="M40 49 L38 49 C37.78 47.67 40.22 47.67 40 49 z"/>
<path style="fill:#676767" d="M17 49 L11 50 L11 49 L17 49 z"/>
<path style="fill:#101010" d="M38 49 L40 49 C39.6 51.27 39.99 53.98 43 53 L44 53 L45 54 L45 55 C45.19 56.55 48.81 56.55 49 55 L50 55 L52 55 L53 56 L53 58 C51.4 58.45 51.4 62.55 53 63 L57 64 L56 67 L51 67 L50 66 C50.22 64.67 47.78 64.67 48 66 C46.18 67.77 44.21 66.57 45 64 C45.83 62.12 42.27 59.72 43 63 C44.03 64.78 41.16 68.72 40 66 L39 65 L39 64 C40.35 64.46 41.46 63.35 41 62 L41 60 C42.55 59.81 42.55 56.19 41 56 C38.63 56.46 38.92 59.17 39 61 C37.67 60.78 37.67 63.22 39 63 L39 64 C38.34 63.98 36.85 63.82 37 65 L36 66 L35 67 L30 67 L29 67 L27 63 L32 63 C32.34 65.92 35.2 66.5 35 63 C36.18 63.15 36.02 61.66 36 61 C37.76 55.33 31.31 59.83 33 54 L37 53 L38 49 z"/>
<path style="fill:#6d6e6e" d="M41 49 L44 49 C41.85 50.29 39.85 51.05 43 53 C39.99 53.98 39.6 51.27 40 49 L41 49 z"/>
<path style="fill:#7b7b7b" d="M61 49 L61 50 C59.12 51.67 54.39 51.67 56 56 L55 56 L55 50 C57.09 49.98 59.3 50.36 61 49 z"/>
<path style="fill:#777878" d="M74 49 L74 51 L72 51 L68 49 L74 49 z"/>
<path style="fill:#4c4c4c" d="M20 53 L18 51 C18.91 48.43 20.85 51.47 20 53 z"/>
<path style="fill:#0e0f0f" d="M26 51 C26.06 52.59 28.05 51.81 29 52 L29 56 L27 56 C27.15 54.82 25.66 54.98 25 55 C21.77 54.11 22.44 48.34 26 51 z"/>
<path style="fill:#151515" d="M62 54 L56 56 C54.39 51.67 59.12 51.67 61 50 L62 54 z"/>
<path style="fill:#c8c9c9" d="M65 50 C65.02 52.09 64.64 54.3 66 56 C64.65 55.54 63.54 56.65 64 58 L64 53 L64 50 L65 50 z"/>
<path style="fill:#0c0d0d" d="M72 51 L74 51 L74 52 C72.41 52.06 73.19 54.05 73 55 L73 56 L66 56 C64.64 54.3 65.02 52.09 65 50 L72 51 z"/>
<path style="fill:#070707" d="M18 51 L20 53 L19 56 L15 56 L12 56 L11 52 L11 51 L18 51 z"/>
<path style="fill:#939393" d="M12 56 L11 52 L12 56 z"/>
<path style="fill:#6a6b6b" d="M29 56 L29 52 C30.55 52.19 30.55 55.81 29 56 z"/>
<path style="fill:#929393" d="M74 52 C73.81 52.95 74.59 54.94 73 55 C73.19 54.05 72.41 52.06 74 52 z"/>
<path style="fill:#808181" d="M37 53 L33 54 L37 53 z"/>
<path style="fill:#979797" d="M45 54 L44 53 L45 54 z"/>
<path style="fill:#5c5c5c" d="M64 53 L64 58 L63 59 L61 61 L61 58 L62 54 L63 53 L64 53 z"/>
<path style="fill:#6c6c6c" d="M52 55 L50 55 C49.78 53.67 52.22 53.67 52 55 z"/>
<path style="fill:#afafaf" d="M62 54 L61 58 C61.9 56.44 59.19 54.98 59 57 L55 57 L55 56 L56 56 L62 54 z"/>
<path style="fill:#393a3a" d="M23 58 C20.21 56.3 24.02 53.6 23 58 z"/>
<path style="fill:#676767" d="M27 56 L26 57 L25 58 L24 58 L25 55 C25.66 54.98 27.15 54.82 27 56 z"/>
<path style="fill:#797a7a" d="M49 55 C48.81 56.55 45.19 56.55 45 55 L49 55 z"/>
<path style="fill:#747474" d="M53 56 L52 55 L53 56 z"/>
<path style="fill:#5a5a5a" d="M15 56 C15.15 57.18 13.66 57.02 13 57 L12 56 L15 56 z"/>
<path style="fill:#a3a4a4" d="M19 56 C17.93 57.86 15.16 58.22 13 58 L13 57 C13.66 57.02 15.15 57.18 15 56 L19 56 z"/>
<path style="fill:#101111" d="M15 63 L14 62 C14.02 61.34 14.18 59.85 13 60 L13 58 C15.16 58.22 17.93 57.86 19 56 C24.68 57.45 20.3 64.95 15 63 z"/>
<path style="fill:#e9e9e9" d="M41 56 L41 60 L41 62 L39 63 L39 61 C38.92 59.17 38.63 56.46 41 56 z"/>
<path style="fill:#787979" d="M41 60 L41 56 C42.55 56.19 42.55 59.81 41 60 z"/>
<path style="fill:#5a5a5a" d="M61 58 L60 58 L59 57 C59.19 54.98 61.9 56.44 61 58 z"/>
<path style="fill:#0b0b0b" d="M66 56 C66.26 57.29 67.66 58.33 69 58 C69.95 58.19 71.94 57.41 72 59 C70.82 58.85 70.98 60.34 71 61 L71 62 C68.49 64.15 62.96 62.62 63 59 L64 58 C63.54 56.65 64.65 55.54 66 56 z"/>
<path style="fill:#7c7c7c" d="M73 56 L69 58 C67.66 58.33 66.26 57.29 66 56 L73 56 z"/>
<path style="fill:#0a0b0b" d="M26 57 C27.55 57.06 30.71 56.32 30 59 L31 60 L31 61 L26 61 L25 58 L26 57 z"/>
<path style="fill:#0e0e0e" d="M59 57 L60 58 L59 61 L54 61 L54 60 L55 57 L59 57 z"/>
<path style="fill:#525252" d="M24 58 L24 61 C22.41 60.94 23.19 58.95 23 58 L24 58 z"/>
<path style="fill:#b9baba" d="M25 58 L26 61 L27 63 L29 67 L26 65 C26.02 64.34 26.18 62.85 25 63 C25.02 62.34 25.18 60.85 24 61 L24 58 L25 58 z"/>
<path style="fill:#8c8d8d" d="M49 62 C48.81 61.05 49.59 59.06 48 59 C49.45 55.67 51.47 61.73 49 62 z"/>
<path style="fill:#c2c2c2" d="M53 58 C52.98 58.66 52.82 60.15 54 60 L54 61 L53 63 C51.4 62.55 51.4 58.45 53 58 z"/>
<path style="fill:#bbbbbb" d="M61 58 L61 61 C59.82 60.85 59.98 62.34 60 63 C58.82 62.85 58.98 64.34 59 65 L58 66 L56 67 L57 64 L59 61 L60 58 L61 58 z"/>
<path style="fill:#656565" d="M31 60 L30 59 L31 60 z"/>
<path style="fill:#f4f5f5" d="M48 59 C49.59 59.06 48.81 61.05 49 62 C46.91 63.01 46.04 59.25 48 59 z"/>
<path style="fill:#afafaf" d="M63 59 C62.96 62.62 68.49 64.15 71 62 L69 65 L68 65 C68.15 63.82 66.66 63.98 66 64 C63.31 63.53 61.91 60.84 61 65 C59.82 65.15 59.98 63.66 60 63 C61.18 63.15 61.02 61.66 61 61 L63 59 z"/>
<path style="fill:#707070" d="M72 59 C72.02 59.66 72.18 61.15 71 61 C70.98 60.34 70.82 58.85 72 59 z"/>
<path style="fill:#9c9c9c" d="M14 62 C12.82 62.15 12.98 60.66 13 60 C14.18 59.85 14.02 61.34 14 62 z"/>
<path style="fill:#454545" d="M25 63 C23.82 63.15 23.98 61.66 24 61 C25.18 60.85 25.02 62.34 25 63 z"/>
<path style="fill:#7a7b7b" d="M31 61 L32 63 L27 63 L26 61 L31 61 z"/>
<path style="fill:#6b6c6c" d="M36 61 C36.02 61.66 36.18 63.15 35 63 C34.98 62.34 34.82 60.85 36 61 z"/>
<path style="fill:#999999" d="M39 61 L39 63 C37.67 63.22 37.67 60.78 39 61 z"/>
<path style="fill:#999a9a" d="M45 64 L43 63 C42.27 59.72 45.83 62.12 45 64 z"/>
<path style="fill:#767777" d="M59 61 L57 64 L53 63 L54 61 L59 61 z"/>
<path style="fill:#4b4b4b" d="M61 61 C61.02 61.66 61.18 63.15 60 63 C59.98 62.34 59.82 60.85 61 61 z"/>
<path style="fill:#0c0d0d" d="M24 65 C24.62 67.39 22.46 70.19 20 70 L18 69 L17 68 L16 65 L24 65 z"/>
<path style="fill:#797979" d="M41 62 C41.46 63.35 40.35 64.46 39 64 L39 63 L41 62 z"/>
<path style="fill:#080808" d="M66 64 C65.85 65.18 67.34 65.02 68 65 L69 65 L68 67 C66.82 66.85 66.98 68.34 67 69 L66 70 C63.17 70.7 60.3 67.83 61 65 C61.91 60.84 63.31 63.53 66 64 z"/>
<path style="fill:#4e4f4f" d="M26 65 L25 65 L25 63 C26.18 62.85 26.02 64.34 26 65 z"/>
<path style="fill:#8f9090" d="M60 63 C59.98 63.66 59.82 65.15 61 65 C60.3 67.83 63.17 70.7 66 70 L63 73 C62.36 71.05 60.62 68.17 58 68 L56 69 L56 67 L58 66 L59 65 C58.98 64.34 58.82 62.85 60 63 z"/>
<path style="fill:#5f5f5f" d="M68 65 C67.34 65.02 65.85 65.18 66 64 C66.66 63.98 68.15 63.82 68 65 z"/>
<path style="fill:#868787" d="M25 65 C24.35 67.16 26.65 67.16 26 65 L29 67 L29 69 L27 68 C24.38 68.17 22.64 71.05 22 73 L20 70 C22.46 70.19 24.62 67.39 24 65 L25 65 z"/>
<path style="fill:#e9e9e9" d="M26 65 C26.65 67.16 24.35 67.16 25 65 L26 65 z"/>
<path style="fill:#7e7e7e" d="M37 65 L36 66 L37 65 z"/>
<path style="fill:#777777" d="M40 66 L39 65 L40 66 z"/>
<path style="fill:#9c9d9d" d="M50 66 L48 66 C47.78 64.67 50.22 64.67 50 66 z"/>
<path style="fill:#373737" d="M59 65 L58 66 L59 65 z"/>
<path style="fill:#bfbfbf" d="M30 67 L32 69 L34 72 L32 72 L31 71 L30 70 L29 69 L29 67 L30 67 z"/>
<path style="fill:#636464" d="M35 67 L36 69 L32 69 L30 67 L35 67 z"/>
<path style="fill:#b1b2b2" d="M56 67 L56 69 L55 70 L54 71 L53 72 L51 72 L53 69 C55.28 68.23 51.77 67.68 51 68 L51 67 L56 67 z"/>
<path style="fill:#868686" d="M68 67 C68.02 67.66 68.18 69.15 67 69 C66.98 68.34 66.82 66.85 68 67 z"/>
<path style="fill:#989898" d="M18 69 L17 68 L18 69 z"/>
<path style="fill:#101010" d="M27 68 C27.46 70.67 30.72 73.17 28 76 C26.56 75.98 24.61 75.24 24 74 L23 73 L22 73 C22.64 71.05 24.38 68.17 27 68 z"/>
<path style="fill:#b9baba" d="M29 69 L30 70 L31 71 L32 72 L32 73 L29 76 L28 76 C30.72 73.17 27.46 70.67 27 68 L29 69 z"/>
<path style="fill:#525252" d="M51 68 C51.77 67.68 55.28 68.23 53 69 L49 69 C48.85 67.82 50.34 67.98 51 68 z"/>
<path style="fill:#b5b6b6" d="M58 68 C57.54 70.67 54.28 73.17 57 76 L56 76 L53 73 L53 72 L54 71 L55 70 L56 69 L58 68 z"/>
<path style="fill:#0d0d0d" d="M63 73 L62 73 L61 74 L60 75 L57 76 C54.28 73.17 57.54 70.67 58 68 C60.62 68.17 62.36 71.05 63 73 z"/>
<path style="fill:#3b3b3b" d="M30 70 L29 69 L30 70 z"/>
<path style="fill:#080909" d="M36 69 L37 70 L38 72 L34 72 L32 69 L36 69 z"/>
<path style="fill:#737373" d="M37 70 L36 69 L37 70 z"/>
<path style="fill:#101111" d="M49 69 L53 69 L51 72 L47 72 L47 71 L48 70 L49 69 z"/>
<path style="fill:#3b3b3b" d="M56 69 L55 70 L56 69 z"/>
<path style="fill:#414141" d="M31 71 L30 70 L31 71 z"/>
<path style="fill:#696969" d="M48 70 L47 71 L48 70 z"/>
<path style="fill:#3e3e3e" d="M55 70 L54 71 L55 70 z"/>
<path style="fill:#383838" d="M32 72 L31 71 L32 72 z"/>
<path style="fill:#3d3d3d" d="M54 71 L53 72 L54 71 z"/>
<path style="fill:#5c5d5d" d="M34 72 C34.06 73.59 36.05 72.81 37 73 C37.15 74.18 35.66 74.02 35 74 L33 74 L32 73 L32 72 L34 72 z"/>
<path style="fill:#bebebe" d="M38 72 L37 73 C36.05 72.81 34.06 73.59 34 72 L38 72 z"/>
<path style="fill:#0f1010" d="M40 72 L41 73 L41 75 L41 78 C40.34 77.98 38.85 77.82 39 79 L37 79 L36 78 L35 74 C35.66 74.02 37.15 74.18 37 73 L38 72 L40 72 z"/>
<path style="fill:#a8a8a8" d="M41 73 L40 72 L41 73 z"/>
<path style="fill:#a0a0a0" d="M45 72 L44 73 L45 72 z"/>
<path style="fill:#0e0e0e" d="M47 72 L48 73 C47.85 74.18 49.34 74.02 50 74 L48 79 L46 79 C46.15 77.82 44.66 77.98 44 78 L44 75 L44 73 L45 72 L47 72 z"/>
<path style="fill:#bbbcbc" d="M51 72 C50.94 73.59 48.95 72.81 48 73 L47 72 L51 72 z"/>
<path style="fill:#5d5d5d" d="M53 72 L53 73 L52 74 L50 74 C49.34 74.02 47.85 74.18 48 73 C48.95 72.81 50.94 73.59 51 72 L53 72 z"/>
<path style="fill:#8e8e8e" d="M24 74 L23 73 L24 74 z"/>
<path style="fill:#151515" d="M32 73 L33 74 L35 78 L34 79 C33.94 77.41 31.95 78.19 31 78 C31.15 76.82 29.66 76.98 29 77 L29 76 L32 73 z"/>
<path style="fill:#c9c9c9" d="M33 74 L32 73 L33 74 z"/>
<path style="fill:#c2c2c2" d="M53 73 L52 74 L53 73 z"/>
<path style="fill:#151616" d="M56 76 L56 77 C55.34 76.98 53.85 76.82 54 78 C53.05 78.19 51.06 77.41 51 79 L50 79 C49.22 76.76 51.23 75.67 52 74 L53 73 L56 76 z"/>
<path style="fill:#949494" d="M62 73 L61 74 L62 73 z"/>
<path style="fill:#9fa0a0" d="M35 74 L36 78 L35 78 L33 74 L35 74 z"/>
<path style="fill:#9fa0a0" d="M52 74 C51.23 75.67 49.22 76.76 50 79 L48 79 L50 74 L52 74 z"/>
<path style="fill:#828282" d="M61 74 L60 75 L61 74 z"/>
<path style="fill:#8b8c8c" d="M41 78 L41 75 C42.48 74.96 42.48 78.04 41 78 z"/>
<path style="fill:#7b7b7b" d="M44 75 L44 78 C42.52 78.04 42.52 74.96 44 75 z"/>
<path style="fill:#6e6f6f" d="M31 78 C30.34 78.02 28.85 78.18 29 77 C29.66 76.98 31.15 76.82 31 78 z"/>
<path style="fill:#7d7e7e" d="M56 77 C56.15 78.18 54.66 78.02 54 78 C53.85 76.82 55.34 76.98 56 77 z"/>
<path style="fill:#a3a4a4" d="M34 79 C33.05 78.81 31.06 79.59 31 78 C31.95 78.19 33.94 77.41 34 79 z"/>
<path style="fill:#646565" d="M41 78 C41.15 79.18 39.66 79.02 39 79 C38.85 77.82 40.34 77.98 41 78 z"/>
<path style="fill:#616161" d="M46 79 C45.34 79.02 43.85 79.18 44 78 C44.66 77.98 46.15 77.82 46 79 z"/>
<path style="fill:#adadad" d="M54 78 C53.94 79.59 51.95 78.81 51 79 C51.06 77.41 53.05 78.19 54 78 z"/>
<path style="fill:#787878" d="M39 79 C39.22 80.33 36.78 80.33 37 79 L39 79 z"/>
<path style="fill:#777777" d="M48 79 C48.22 80.33 45.78 80.33 46 79 L48 79 z"/>
</svg>
