<?xml version="1.0" standalone="yes"?>
<svg width="87" height="97">
<path style="fill:#fcfdfd" d="M87 0 L87 97 L0 97 L0 0 L87 0 z"/>
<path style="fill:#b1b2b2" d="M46 23 L41 23 C41.45 21.4 45.55 21.4 46 23 z"/>
<path style="fill:#0a0b0b" d="M41 23 L46 23 L47 23 L48 24 L50 28 L50 33 L49 34 L48 35 L47 36 L41 36 C40.34 36.02 38.85 36.18 39 35 L37 33 L37 32 L37 27 L37 26 L38 25 L39 24 L41 23 z"/>
<path style="fill:#a4a4a4" d="M48 24 L47 23 L48 24 z"/>
<path style="fill:#a9a9a9" d="M39 24 L38 25 L39 24 z"/>
<path style="fill:#9f9f9f" d="M38 25 L37 26 L38 25 z"/>
<path style="fill:#5c5d5d" d="M26 31 C26.02 30.34 26.18 28.85 25 29 C25.61 27.21 28.08 26.01 29.75 26.25 L26 31 z"/>
<path style="fill:#898a8a" d="M61 29 L60 30 C54.74 27.99 58.99 23.74 61 29 z"/>
<path style="fill:#6d6e6e" d="M37 27 L37 32 C35.4 31.55 35.4 27.45 37 27 z"/>
<path style="fill:#bcbcbc" d="M50 33 L50 28 C51.6 28.45 51.6 32.55 50 33 z"/>
<path style="fill:#868686" d="M25 29 L24 30 L25 29 z"/>
<path style="fill:#080808" d="M26 31 L24 36 C22.82 35.85 22.98 37.34 23 38 L24 47 L24 48 C23.98 48.66 23.82 50.15 25 50 L25 51 L26 52 L27 54 L28 55 L29 56 L31 58 L32 59 L40 62 C41.03 63.64 45.97 63.64 47 62 L48 62 C48.66 62.02 50.15 62.18 50 61 L51 61 C51.66 61.02 53.15 61.18 53 60 L54 59 L55 59 L56 58 L57 57 L58 56 L59 55 L60 54 L61 52 L62 51 C63.59 50.94 62.81 48.95 63 48 L63 46 C65.09 43.12 64.27 36.6 62 34 C62.02 33.34 62.18 31.85 61 32 L60 30 L61 29 L62 30 L63 31 L64 32 L65 33 L66 35 L67 36 L68 38 L69 39 L69 41 C68.98 41.66 68.82 43.15 70 43 L70 44 C69.98 44.66 69.82 46.15 71 46 L71 53 C69.41 53.06 70.19 55.05 70 56 L70 58 C68.82 57.85 68.98 59.34 69 60 C67.82 59.85 67.98 61.34 68 62 C66.82 61.85 66.98 63.34 67 64 C65.82 63.85 65.98 65.34 66 66 C64.82 65.85 64.98 67.34 65 68 L64 69 L63 70 L62 71 L61 71 L60 72 L59 73 L58 74 L57 74 L56 75 L55 75 C54.34 74.98 52.85 74.82 53 76 L52 76 C51.05 76.19 49.06 75.41 49 77 L48 77 L38 77 L37 77 C37.15 75.82 35.66 75.98 35 76 L32 75 L31 74 L28 73 L26 71 L25 70 L24 69 L23 68 L22 67 L21 66 L20 65 L20 64 C20.33 62.66 19.29 61.26 18 61 C18.02 60.34 18.18 58.85 17 59 L17 57 C16.81 56.05 17.59 54.06 16 54 L16 53 L16 48 L16 46 L17 42 L19 36 L20 35 C21.29 34.74 22.33 33.34 22 32 L23 31 L24 30 L25 29 C26.18 28.85 26.02 30.34 26 31 z"/>
<path style="fill:#7a7a7a" d="M62 30 L61 29 L62 30 z"/>
<path style="fill:#848484" d="M24 30 L23 31 L24 30 z"/>
<path style="fill:#7d7d7d" d="M63 31 L62 30 L63 31 z"/>
<path style="fill:#8f8f8f" d="M23 31 L22 32 L23 31 z"/>
<path style="fill:#a0a0a0" d="M64 32 L63 31 L64 32 z"/>
<path style="fill:#6d6e6e" d="M22 32 C22.33 33.34 21.29 34.74 20 35 C19.67 33.66 20.71 32.26 22 32 z"/>
<path style="fill:#959696" d="M62 34 C60.82 34.15 60.98 32.66 61 32 C62.18 31.85 62.02 33.34 62 34 z"/>
<path style="fill:#a1a1a1" d="M65 33 L64 32 L65 33 z"/>
<path style="fill:#818181" d="M39 35 C37.65 35.46 36.54 34.35 37 33 L39 35 z"/>
<path style="fill:#909090" d="M50 33 L49 34 L50 33 z"/>
<path style="fill:#696969" d="M49 34 L48 35 L49 34 z"/>
<path style="fill:#a3a4a4" d="M63 46 L62 34 C64.27 36.6 65.09 43.12 63 46 z"/>
<path style="fill:#9a9a9a" d="M20 35 L19 36 L20 35 z"/>
<path style="fill:#777777" d="M48 35 L47 36 L48 35 z"/>
<path style="fill:#777777" d="M67 36 L66 35 L67 36 z"/>
<path style="fill:#585858" d="M24 36 L24 38 L23 38 C22.98 37.34 22.82 35.85 24 36 z"/>
<path style="fill:#656666" d="M47 36 C46.27 37.62 41.73 37.62 41 36 L47 36 z"/>
<path style="fill:#a9aaaa" d="M24 38 L24 47 L23 38 L24 38 z"/>
<path style="fill:#a6a6a6" d="M69 39 L68 38 L69 39 z"/>
<path style="fill:#5d5e5e" d="M70 43 C68.82 43.15 68.98 41.66 69 41 C70.18 40.85 70.02 42.34 70 43 z"/>
<path style="fill:#6b6b6b" d="M17 42 L16 46 L17 42 z"/>
<path style="fill:#a0a1a1" d="M71 46 C69.82 46.15 69.98 44.66 70 44 C71.18 43.85 71.02 45.34 71 46 z"/>
<path style="fill:#b8b9b9" d="M16 48 L16 53 C14.4 52.55 14.4 48.45 16 48 z"/>
<path style="fill:#9f9f9f" d="M25 50 C23.82 50.15 23.98 48.66 24 48 C25.18 47.85 25.02 49.34 25 50 z"/>
<path style="fill:#838484" d="M63 48 C62.81 48.95 63.59 50.94 62 51 C62.19 50.05 61.41 48.06 63 48 z"/>
<path style="fill:#8d8d8d" d="M26 52 L25 51 L26 52 z"/>
<path style="fill:#8d8d8d" d="M62 51 L61 52 L62 51 z"/>
<path style="fill:#7c7c7c" d="M71 53 C70.81 53.95 71.59 55.94 70 56 C70.19 55.05 69.41 53.06 71 53 z"/>
<path style="fill:#5e5f5f" d="M17 57 C15.41 56.94 16.19 54.95 16 54 C17.59 54.06 16.81 56.05 17 57 z"/>
<path style="fill:#747474" d="M28 55 L27 54 L28 55 z"/>
<path style="fill:#767676" d="M60 54 L59 55 L60 54 z"/>
<path style="fill:#898989" d="M29 56 L28 55 L29 56 z"/>
<path style="fill:#8f8f8f" d="M59 55 L58 56 L59 55 z"/>
<path style="fill:#9b9c9c" d="M31 58 L29 56 C30.35 55.54 31.46 56.65 31 58 z"/>
<path style="fill:#878787" d="M58 56 L57 57 L58 56 z"/>
<path style="fill:#9c9c9c" d="M57 57 L56 58 L57 57 z"/>
<path style="fill:#646464" d="M32 59 L31 58 L32 59 z"/>
<path style="fill:#6e6e6e" d="M56 58 L55 59 L56 58 z"/>
<path style="fill:#868787" d="M70 58 C70.02 58.66 70.18 60.15 69 60 C68.98 59.34 68.82 57.85 70 58 z"/>
<path style="fill:#adadad" d="M18 61 C16.82 61.15 16.98 59.66 17 59 C18.18 58.85 18.02 60.34 18 61 z"/>
<path style="fill:#999999" d="M54 59 L53 60 L54 59 z"/>
<path style="fill:#898989" d="M53 60 C53.15 61.18 51.66 61.02 51 61 C50.85 59.82 52.34 59.98 53 60 z"/>
<path style="fill:#6c6d6d" d="M69 60 C69.02 60.66 69.18 62.15 68 62 C67.98 61.34 67.82 59.85 69 60 z"/>
<path style="fill:#757676" d="M20 64 C18.71 63.74 17.67 62.34 18 61 C19.29 61.26 20.33 62.66 20 64 z"/>
<path style="fill:#a0a0a0" d="M50 61 C50.15 62.18 48.66 62.02 48 62 C47.85 60.82 49.34 60.98 50 61 z"/>
<path style="fill:#474848" d="M47 62 C45.97 63.64 41.03 63.64 40 62 L47 62 z"/>
<path style="fill:#676767" d="M68 62 C68.02 62.66 68.18 64.15 67 64 C66.98 63.34 66.82 61.85 68 62 z"/>
<path style="fill:#7f7f7f" d="M67 64 C67.02 64.66 67.18 66.15 66 66 C65.98 65.34 65.82 63.85 67 64 z"/>
<path style="fill:#a5a5a5" d="M21 66 L20 65 L21 66 z"/>
<path style="fill:#808080" d="M22 67 L21 66 L22 67 z"/>
<path style="fill:#a1a1a1" d="M66 66 C66.02 66.66 66.18 68.15 65 68 C64.98 67.34 64.82 65.85 66 66 z"/>
<path style="fill:#828282" d="M23 68 L22 67 L23 68 z"/>
<path style="fill:#757575" d="M24 69 L23 68 L24 69 z"/>
<path style="fill:#6e6e6e" d="M25 70 L24 69 L25 70 z"/>
<path style="fill:#a8a8a8" d="M64 69 L63 70 L64 69 z"/>
<path style="fill:#5d5d5d" d="M26 71 L25 70 L26 71 z"/>
<path style="fill:#a2a2a2" d="M63 70 L62 71 L63 70 z"/>
<path style="fill:#a7a8a8" d="M28 73 C26.65 73.46 25.54 72.35 26 71 L28 73 z"/>
<path style="fill:#5b5b5b" d="M61 71 L60 72 L61 71 z"/>
<path style="fill:#717171" d="M60 72 L59 73 L60 72 z"/>
<path style="fill:#a1a1a1" d="M59 73 L58 74 L59 73 z"/>
<path style="fill:#606060" d="M32 75 L31 74 L32 75 z"/>
<path style="fill:#8d8d8d" d="M57 74 L56 75 L57 74 z"/>
<path style="fill:#676868" d="M55 75 C55.15 76.18 53.66 76.02 53 76 C52.85 74.82 54.34 74.98 55 75 z"/>
<path style="fill:#838383" d="M37 77 C36.34 77.02 34.85 77.18 35 76 C35.66 75.98 37.15 75.82 37 77 z"/>
<path style="fill:#575757" d="M52 76 C51.94 77.59 49.95 76.81 49 77 C49.06 75.41 51.05 76.19 52 76 z"/>
<path style="fill:#828282" d="M48 77 C46.01 78.66 39.99 78.66 38 77 L48 77 z"/>
</svg>
