<?xml version="1.0" standalone="yes"?>
<svg width="87" height="97">
<path style="fill:#fdfdfd" d="M87 0 L87 97 L0 97 L0 0 L87 0 z"/>
<path style="fill:#b3b3b3" d="M40 19 L40 20 L36 20 L40 19 z"/>
<path style="fill:#4c4c4c" d="M46 19 L46 20 L40 20 L40 19 L46 19 z"/>
<path style="fill:#9b9c9c" d="M49 20 L46 20 L46 19 C46.95 19.19 48.94 18.41 49 20 z"/>
<path style="fill:#a1a2a2" d="M35 20 C35.15 21.18 33.66 21.02 33 21 C32.85 19.82 34.34 19.98 35 20 z"/>
<path style="fill:#050505" d="M36 20 L40 20 L46 20 L49 20 L50 20 C49.85 21.18 51.34 21.02 52 21 L59 24 L60 25 L61 26 L62 27 L65 30 L66 31 L67 32 L67 33 L68 34 L69 37 C68.98 37.66 68.82 39.15 70 39 L70 40 C69.98 40.66 69.82 42.15 71 42 L71 53 C69.82 52.85 69.98 54.34 70 55 L70 56 C68.82 55.85 68.98 57.34 69 58 L68 61 C66.82 60.85 66.98 62.34 67 63 L66 64 L64 66 L63 67 L62 68 L61 69 L60 70 L59 71 L58 71 L57 72 L54 73 C53.34 72.98 51.85 72.82 52 74 L51 74 C50.34 73.98 48.85 73.82 49 75 L48 75 L38 75 L37 75 C37.15 73.82 35.66 73.98 35 74 L33 74 C33.15 72.82 31.66 72.98 31 73 L30 72 C30.15 70.82 28.66 70.98 28 71 L27 70 L26 70 L25 69 L23 67 L21 65 L20 63 L19 62 L17 58 C17.02 57.34 17.18 55.85 16 56 L16 54 C16.02 53.34 16.18 51.85 15 52 L15 43 C16.59 42.94 15.81 40.95 16 40 L16 39 C17.18 39.15 17.02 37.66 17 37 C18.18 37.15 18.02 35.66 18 35 C19.18 35.15 19.02 33.66 19 33 L20 31 C21.35 31.46 22.46 30.35 22 29 L23 28 L24 27 L25 26 C26.35 26.46 27.46 25.35 27 24 L30 23 L31 22 L33 21 C33.66 21.02 35.15 21.18 35 20 L36 20 z"/>
<path style="fill:#5e5f5f" d="M52 21 C51.34 21.02 49.85 21.18 50 20 C50.66 19.98 52.15 19.82 52 21 z"/>
<path style="fill:#595959" d="M31 22 L30 23 L31 22 z"/>
<path style="fill:#646464" d="M27 24 C27.46 25.35 26.35 26.46 25 26 L27 24 z"/>
<path style="fill:#626262" d="M60 25 L59 24 L60 25 z"/>
<path style="fill:#626262" d="M61 26 L60 25 L61 26 z"/>
<path style="fill:#606060" d="M25 26 L24 27 L25 26 z"/>
<path style="fill:#5e5e5e" d="M62 27 L61 26 L62 27 z"/>
<path style="fill:#606060" d="M23 28 L22 29 L23 28 z"/>
<path style="fill:#5f5f5f" d="M22 29 C22.46 30.35 21.35 31.46 20 31 L22 29 z"/>
<path style="fill:#6c6c6c" d="M66 31 L65 30 L66 31 z"/>
<path style="fill:#929292" d="M67 32 L66 31 L67 32 z"/>
<path style="fill:#777777" d="M19 33 C19.02 33.66 19.18 35.15 18 35 C17.98 34.34 17.82 32.85 19 33 z"/>
<path style="fill:#767676" d="M68 34 L67 33 L68 34 z"/>
<path style="fill:#636363" d="M18 35 C18.02 35.66 18.18 37.15 17 37 C16.98 36.34 16.82 34.85 18 35 z"/>
<path style="fill:#8f8f8f" d="M17 37 C17.02 37.66 17.18 39.15 16 39 C15.98 38.34 15.82 36.85 17 37 z"/>
<path style="fill:#5c5d5d" d="M70 39 C68.82 39.15 68.98 37.66 69 37 C70.18 36.85 70.02 38.34 70 39 z"/>
<path style="fill:#a5a6a6" d="M46 39 L40 39 C40.73 37.38 45.27 37.38 46 39 z"/>
<path style="fill:#f7f8f8" d="M40 39 L46 39 L47 39 L48 40 L49 40 L51 42 L52 45 L52 51 C50.71 51.26 49.67 52.66 50 54 L49 55 L48 55 L40 56 C40.15 54.82 38.66 54.98 38 55 L37 54 L36 53 L35 52 L35 51 C35.02 50.34 35.18 48.85 34 49 L34 45 C35.18 45.15 35.02 43.66 35 43 L36 42 L36 41 C36.66 41.02 38.15 41.18 38 40 C37.85 38.82 39.34 38.98 40 39 z"/>
<path style="fill:#9f9f9f" d="M48 40 L47 39 L48 40 z"/>
<path style="fill:#979797" d="M16 40 C15.81 40.95 16.59 42.94 15 43 C15.19 42.05 14.41 40.06 16 40 z"/>
<path style="fill:#818282" d="M38 40 C38.15 41.18 36.66 41.02 36 41 C35.85 39.82 37.34 39.98 38 40 z"/>
<path style="fill:#515151" d="M51 42 L49 40 C50.35 39.54 51.46 40.65 51 42 z"/>
<path style="fill:#777878" d="M71 42 C69.82 42.15 69.98 40.66 70 40 C71.18 39.85 71.02 41.34 71 42 z"/>
<path style="fill:#9a9a9a" d="M36 42 L35 43 L36 42 z"/>
<path style="fill:#818181" d="M35 43 C35.02 43.66 35.18 45.15 34 45 C33.98 44.34 33.82 42.85 35 43 z"/>
<path style="fill:#444444" d="M52 51 L52 45 C53.62 45.73 53.62 50.27 52 51 z"/>
<path style="fill:#a6a7a7" d="M35 51 C33.82 51.15 33.98 49.66 34 49 C35.18 48.85 35.02 50.34 35 51 z"/>
<path style="fill:#5b5b5b" d="M52 51 C52.33 52.34 51.29 53.74 50 54 C49.67 52.66 50.71 51.26 52 51 z"/>
<path style="fill:#8f8f8f" d="M16 54 C14.82 54.15 14.98 52.66 15 52 C16.18 51.85 16.02 53.34 16 54 z"/>
<path style="fill:#868686" d="M36 53 L35 52 L36 53 z"/>
<path style="fill:#8c8c8c" d="M71 53 C71.02 53.66 71.18 55.15 70 55 C69.98 54.34 69.82 52.85 71 53 z"/>
<path style="fill:#9c9c9c" d="M38 55 L37 54 L38 55 z"/>
<path style="fill:#5c5c5c" d="M50 54 L49 55 L50 54 z"/>
<path style="fill:#959696" d="M40 56 C39.34 56.02 37.85 56.18 38 55 C38.66 54.98 40.15 54.82 40 56 z"/>
<path style="fill:#7d7e7e" d="M48 55 C47.12 57.97 41.45 57.66 40 56 L48 55 z"/>
<path style="fill:#909191" d="M17 58 C15.82 58.15 15.98 56.66 16 56 C17.18 55.85 17.02 57.34 17 58 z"/>
<path style="fill:#848484" d="M70 56 C70.02 56.66 70.18 58.15 69 58 C68.98 57.34 68.82 55.85 70 56 z"/>
<path style="fill:#aeaeae" d="M68 61 C68.02 61.66 68.18 63.15 67 63 C66.98 62.34 66.82 60.85 68 61 z"/>
<path style="fill:#686868" d="M20 63 L19 62 L20 63 z"/>
<path style="fill:#a2a2a2" d="M67 63 L66 64 L67 63 z"/>
<path style="fill:#9c9c9c" d="M66 64 C66.46 65.35 65.35 66.46 64 66 L66 64 z"/>
<path style="fill:#9d9d9d" d="M23 67 C21.65 67.46 20.54 66.35 21 65 L23 67 z"/>
<path style="fill:#9d9d9d" d="M25 69 C23.65 69.46 22.54 68.35 23 67 L25 69 z"/>
<path style="fill:#5b5b5b" d="M63 67 L62 68 L63 67 z"/>
<path style="fill:#6e6e6e" d="M62 68 L61 69 L62 68 z"/>
<path style="fill:#9b9b9b" d="M26 70 L25 69 L26 70 z"/>
<path style="fill:#777777" d="M61 69 L60 70 L61 69 z"/>
<path style="fill:#606060" d="M28 71 L27 70 L28 71 z"/>
<path style="fill:#919191" d="M60 70 L59 71 L60 70 z"/>
<path style="fill:#565757" d="M30 72 C29.34 72.02 27.85 72.18 28 71 C28.66 70.98 30.15 70.82 30 72 z"/>
<path style="fill:#646464" d="M58 71 L57 72 L58 71 z"/>
<path style="fill:#6c6c6c" d="M31 73 L30 72 L31 73 z"/>
<path style="fill:#969696" d="M33 74 C32.34 74.02 30.85 74.18 31 73 C31.66 72.98 33.15 72.82 33 74 z"/>
<path style="fill:#5a5b5b" d="M54 73 C54.15 74.18 52.66 74.02 52 74 C51.85 72.82 53.34 72.98 54 73 z"/>
<path style="fill:#5b5b5b" d="M37 75 C36.34 75.02 34.85 75.18 35 74 C35.66 73.98 37.15 73.82 37 75 z"/>
<path style="fill:#5e5e5e" d="M51 74 C51.15 75.18 49.66 75.02 49 75 C48.85 73.82 50.34 73.98 51 74 z"/>
<path style="fill:#8f8f8f" d="M48 75 C46.01 76.66 39.99 76.66 38 75 L48 75 z"/>
</svg>
