<?xml version="1.0" standalone="yes"?>
<svg width="87" height="97">
<path style="fill:#fdfdfd" d="M87 0 L87 97 L0 97 L0 0 L87 0 z"/>
<path style="fill:#757a7a" d="M48 15 L38 15 C39.99 13.34 46.01 13.34 48 15 z"/>
<path style="fill:#7e8281" d="M36 15 C36.15 16.18 34.66 16.02 34 16 C33.85 14.82 35.34 14.98 36 15 z"/>
<path style="fill:#010202" d="M38 15 L48 15 L51 15 C50.85 16.18 52.34 16.02 53 16 L54 16 C53.85 17.18 55.34 17.02 56 17 L57 17 L58 18 L59 18 L60 19 L61 19 L62 20 L63 21 L65 22 L66 23 L67 24 L68 25 L69 26 L70 28 L71 29 L72 30 L72 31 L73 32 C72.98 32.66 72.82 34.15 74 34 C73.98 34.66 73.82 36.15 75 36 L75 37 C74.98 37.66 74.82 39.15 76 39 L77 43 L77 44 L77 56 L77 57 C75.82 56.85 75.98 58.34 76 59 L76 61 C74.82 60.85 74.98 62.34 75 63 L75 64 C73.82 63.85 73.98 65.34 74 66 C72.82 65.85 72.98 67.34 73 68 L72 69 L72 70 L71 71 L70 72 L69 73 L65 77 L64 78 L63 79 L62 80 L61 80 L60 81 L59 81 L58 82 C57.34 81.98 55.85 81.82 56 83 C55.05 83.19 53.06 82.41 53 84 L51 84 C50.34 83.98 48.85 83.82 49 85 L47 85 L41 85 L38 85 L34 84 C34.15 82.82 32.66 82.98 32 83 L31 83 C31.15 81.82 29.66 81.98 29 82 C29.15 80.82 27.66 80.98 27 81 L26 80 L25 80 L24 79 L23 78 L17 72 L16 71 L15 70 L15 69 L14 68 C14.02 67.34 14.18 65.85 13 66 C13.02 65.34 13.18 63.85 12 64 L12 63 C12.02 62.34 12.18 60.85 11 61 L11 60 C11.02 59.34 11.18 57.85 10 58 L10 57 L10 54 L10 45 L10 41 C11.18 41.15 11.02 39.66 11 39 L11 38 C12.18 38.15 12.02 36.66 12 36 C13.18 36.15 13.02 34.66 13 34 C14.18 34.15 14.02 32.66 14 32 C15.18 32.15 15.02 30.66 15 30 L16 29 L17 27 L18 26 L19 25 L20 24 L21 23 L22 22 L25 20 L26 19 L27 19 L28 18 L29 18 L30 17 L31 17 L32 16 L34 16 C34.66 16.02 36.15 16.18 36 15 L38 15 z"/>
<path style="fill:#808080" d="M53 16 C52.34 16.02 50.85 16.18 51 15 C51.66 14.98 53.15 14.82 53 16 z"/>
<path style="fill:#8d8f8e" d="M32 16 L31 17 L32 16 z"/>
<path style="fill:#737c79" d="M56 17 C55.34 17.02 53.85 17.18 54 16 C54.66 15.98 56.15 15.82 56 17 z"/>
<path style="fill:#7e807f" d="M30 17 L29 18 L30 17 z"/>
<path style="fill:#8c8c8c" d="M58 18 L57 17 L58 18 z"/>
<path style="fill:#7c7e7d" d="M28 18 L27 19 L28 18 z"/>
<path style="fill:#888888" d="M60 19 L59 18 L60 19 z"/>
<path style="fill:#a0a2a1" d="M26 19 L25 20 L26 19 z"/>
<path style="fill:#a5a5a5" d="M62 20 L61 19 L62 20 z"/>
<path style="fill:#777777" d="M63 21 L62 20 L63 21 z"/>
<path style="fill:#9a9a9a" d="M22 22 L21 23 L22 22 z"/>
<path style="fill:#5a5e5f" d="M48 23 L39 23 C40.66 21.35 46.34 21.35 48 23 z"/>
<path style="fill:#9b9b9b" d="M66 23 L65 22 L66 23 z"/>
<path style="fill:#999999" d="M21 23 L20 24 L21 23 z"/>
<path style="fill:#949897" d="M38 23 C38.15 24.18 36.66 24.02 36 24 C35.85 22.82 37.34 22.98 38 23 z"/>
<path style="fill:#f9fbfa" d="M39 23 L48 23 L49 23 C48.85 24.18 50.34 24.02 51 24 L53 24 L54 25 L55 25 L56 26 L57 26 L58 27 L59 28 L60 29 L27 29 L28 28 L29 27 L30 26 L31 26 L32 25 L33 25 L34 24 L36 24 C36.66 24.02 38.15 24.18 38 23 L39 23 z"/>
<path style="fill:#8d9492" d="M51 24 C50.34 24.02 48.85 24.18 49 23 C49.66 22.98 51.15 22.82 51 24 z"/>
<path style="fill:#929292" d="M67 24 L66 23 L67 24 z"/>
<path style="fill:#898b8a" d="M20 24 L19 25 L20 24 z"/>
<path style="fill:#828280" d="M34 24 L33 25 L34 24 z"/>
<path style="fill:#666666" d="M54 25 L53 24 L54 25 z"/>
<path style="fill:#979998" d="M68 25 L67 24 L68 25 z"/>
<path style="fill:#8e908f" d="M19 25 L18 26 L19 25 z"/>
<path style="fill:#7e8386" d="M32 25 L31 26 L32 25 z"/>
<path style="fill:#909090" d="M56 26 L55 25 L56 26 z"/>
<path style="fill:#9c9e9d" d="M69 26 L68 25 L69 26 z"/>
<path style="fill:#a4a6a5" d="M18 26 L17 27 L18 26 z"/>
<path style="fill:#767a7b" d="M30 26 L29 27 L30 26 z"/>
<path style="fill:#5e6261" d="M58 27 L57 26 L58 27 z"/>
<path style="fill:#9c9fa0" d="M29 27 L28 28 L29 27 z"/>
<path style="fill:#959998" d="M59 28 L58 27 L59 28 z"/>
<path style="fill:#575958" d="M71 29 L70 28 L71 29 z"/>
<path style="fill:#7f8382" d="M16 29 L15 30 L16 29 z"/>
<path style="fill:#585c5c" d="M60 29 C50.36 30.67 36.64 30.67 27 29 L60 29 z"/>
<path style="fill:#838584" d="M72 30 L71 29 L72 30 z"/>
<path style="fill:#838786" d="M15 30 C15.02 30.66 15.18 32.15 14 32 C13.98 31.34 13.82 29.85 15 30 z"/>
<path style="fill:#797979" d="M73 32 L72 31 L73 32 z"/>
<path style="fill:#717272" d="M14 32 C14.02 32.66 14.18 34.15 13 34 C12.98 33.34 12.82 31.85 14 32 z"/>
<path style="fill:#868887" d="M74 34 C72.82 34.15 72.98 32.66 73 32 C74.18 31.85 74.02 33.34 74 34 z"/>
<path style="fill:#747675" d="M13 34 C13.02 34.66 13.18 36.15 12 36 C11.98 35.34 11.82 33.85 13 34 z"/>
<path style="fill:#8a8c8b" d="M75 36 C73.82 36.15 73.98 34.66 74 34 C75.18 33.85 75.02 35.34 75 36 z"/>
<path style="fill:#898a8a" d="M12 36 C12.02 36.66 12.18 38.15 11 38 C10.98 37.34 10.82 35.85 12 36 z"/>
<path style="fill:#848787" d="M67 38 L20 38 C34.31 36.33 52.69 36.33 67 38 z"/>
<path style="fill:#7c7e7d" d="M76 39 C74.82 39.15 74.98 37.66 75 37 C76.18 36.85 76.02 38.34 76 39 z"/>
<path style="fill:#939594" d="M20 38 L19 39 L20 38 z"/>
<path style="fill:#fdfdfc" d="M67 38 C66.98 38.66 66.82 40.15 68 40 C67.98 40.66 67.82 42.15 69 42 L69 45 L18 45 L18 43 L18 42 C19.18 42.15 19.02 40.66 19 40 L19 39 L20 38 L67 38 z"/>
<path style="fill:#8d9190" d="M68 40 C66.82 40.15 66.98 38.66 67 38 C68.18 37.85 68.02 39.34 68 40 z"/>
<path style="fill:#939696" d="M11 39 C11.02 39.66 11.18 41.15 10 41 C9.981 40.34 9.819 38.85 11 39 z"/>
<path style="fill:#808282" d="M77 43 L76 39 L77 43 z"/>
<path style="fill:#858786" d="M19 40 C19.02 40.66 19.18 42.15 18 42 C17.98 41.34 17.82 39.85 19 40 z"/>
<path style="fill:#767877" d="M69 42 C67.82 42.15 67.98 40.66 68 40 C69.18 39.85 69.02 41.34 69 42 z"/>
<path style="fill:#595b5a" d="M18 43 L18 45 C16.67 45.22 16.67 42.78 18 43 z"/>
<path style="fill:#989c9a" d="M77 56 L77 44 C78.66 46.64 78.66 53.36 77 56 z"/>
<path style="fill:#616563" d="M10 45 L10 54 L9 54 L10 45 z"/>
<path style="fill:#767676" d="M69 45 C53.36 46.67 33.64 46.67 18 45 L69 45 z"/>
<path style="fill:#808383" d="M69 54 L18 56 C16.61 55.99 16.86 54.08 17.25 53.25 C34.22 53.33 52.93 51.83 69 54 z"/>
<path style="fill:#abadad" d="M10 54 L10 57 C8.408 56.94 9.19 54.95 9 54 L10 54 z"/>
<path style="fill:#fafdfa" d="M69 54 L69 56 L69 58 L68 59 L68 60 L19 61 L19 59 L18 58 L18 56 L69 54 z"/>
<path style="fill:#616564" d="M69 56 L69 54 C70.33 53.78 70.33 56.22 69 56 z"/>
<path style="fill:#5e605f" d="M77 57 C77.02 57.66 77.18 59.15 76 59 C75.98 58.34 75.82 56.85 77 57 z"/>
<path style="fill:#777878" d="M11 60 C9.819 60.15 9.981 58.66 10 58 C11.18 57.85 11.02 59.34 11 60 z"/>
<path style="fill:#9c9e9d" d="M19 59 L18 58 L19 59 z"/>
<path style="fill:#6c6e6d" d="M69 58 L68 59 L69 58 z"/>
<path style="fill:#b4b7b5" d="M68 60 C55.03 63.99 33.64 62.01 19 61 L68 60 z"/>
<path style="fill:#6a6c6b" d="M12 63 C10.82 63.15 10.98 61.66 11 61 C12.18 60.85 12.02 62.34 12 63 z"/>
<path style="fill:#7c7e7d" d="M76 61 C76.02 61.66 76.18 63.15 75 63 C74.98 62.34 74.82 60.85 76 61 z"/>
<path style="fill:#8a8b8b" d="M13 66 C11.82 66.15 11.98 64.66 12 64 C13.18 63.85 13.02 65.34 13 66 z"/>
<path style="fill:#939796" d="M75 64 C75.02 64.66 75.18 66.15 74 66 C73.98 65.34 73.82 63.85 75 64 z"/>
<path style="fill:#878888" d="M14 68 C12.82 68.15 12.98 66.66 13 66 C14.18 65.85 14.02 67.34 14 68 z"/>
<path style="fill:#979a9a" d="M74 66 C74.02 66.66 74.18 68.15 73 68 C72.98 67.34 72.82 65.85 74 66 z"/>
<path style="fill:#616362" d="M15 69 L14 68 L15 69 z"/>
<path style="fill:#828886" d="M73 68 L72 69 L73 68 z"/>
<path style="fill:#5c6062" d="M60 71 C50.36 69.33 36.64 69.33 27 71 C26 71.17 25.75 69.83 26.25 69.25 L60.75 69.25 C61.25 69.83 61 71.17 60 71 z"/>
<path style="fill:#8d8f8e" d="M16 71 L15 70 L16 71 z"/>
<path style="fill:#fafcfa" d="M60 71 L59 72 L58 73 L57 73 L56 74 L53 75 L52 76 L50 76 L49 77 L45 77 L42 77 L38 77 L37 76 L35 76 L34 75 L31 74 L30 73 L29 73 L28 72 L27 71 C36.64 69.33 50.36 69.33 60 71 z"/>
<path style="fill:#8a8a8a" d="M72 70 L71 71 L72 70 z"/>
<path style="fill:#535257" d="M17 72 L16 71 L17 72 z"/>
<path style="fill:#9aa19a" d="M28 72 L27 71 L28 72 z"/>
<path style="fill:#888d90" d="M60 71 L59 72 L60 71 z"/>
<path style="fill:#5b5b5b" d="M71 71 L70 72 L71 71 z"/>
<path style="fill:#767676" d="M29 73 L28 72 L29 73 z"/>
<path style="fill:#606060" d="M59 72 L58 73 L59 72 z"/>
<path style="fill:#5b5b5b" d="M70 72 L69 73 L70 72 z"/>
<path style="fill:#9b9b9b" d="M31 74 L30 73 L31 74 z"/>
<path style="fill:#838383" d="M57 73 L56 74 L57 73 z"/>
<path style="fill:#7f7f7f" d="M35 76 L34 75 L35 76 z"/>
<path style="fill:#868887" d="M53 75 L52 76 L53 75 z"/>
<path style="fill:#818181" d="M38 77 L37 76 L38 77 z"/>
<path style="fill:#696b6a" d="M50 76 L49 77 L50 76 z"/>
<path style="fill:#5d5d5f" d="M45 77 C45.04 78.48 41.96 78.48 42 77 L45 77 z"/>
<path style="fill:#565656" d="M65 77 L64 78 L65 77 z"/>
<path style="fill:#616161" d="M24 79 L23 78 L24 79 z"/>
<path style="fill:#6a6a6a" d="M64 78 L63 79 L64 78 z"/>
<path style="fill:#9b9b9b" d="M25 80 L24 79 L25 80 z"/>
<path style="fill:#9e9e9e" d="M63 79 L62 80 L63 79 z"/>
<path style="fill:#6d7371" d="M27 81 L26 80 L27 81 z"/>
<path style="fill:#696f6d" d="M61 80 L60 81 L61 80 z"/>
<path style="fill:#777b7a" d="M29 82 C28.34 82.02 26.85 82.18 27 81 C27.66 80.98 29.15 80.82 29 82 z"/>
<path style="fill:#545857" d="M59 81 L58 82 L59 81 z"/>
<path style="fill:#818584" d="M31 83 C30.34 83.02 28.85 83.18 29 82 C29.66 81.98 31.15 81.82 31 83 z"/>
<path style="fill:#898d8c" d="M58 82 C58.15 83.18 56.66 83.02 56 83 C55.85 81.82 57.34 81.98 58 82 z"/>
<path style="fill:#656766" d="M34 84 C33.34 84.02 31.85 84.18 32 83 C32.66 82.98 34.15 82.82 34 84 z"/>
<path style="fill:#8d8f8e" d="M56 83 C55.94 84.59 53.95 83.81 53 84 C53.06 82.41 55.05 83.19 56 83 z"/>
<path style="fill:#808281" d="M38 85 L34 84 L38 85 z"/>
<path style="fill:#5f6160" d="M51 84 L51 85 L49 85 C48.85 83.82 50.34 83.98 51 84 z"/>
<path style="fill:#adafae" d="M53 84 C53.15 85.18 51.66 85.02 51 85 L51 84 L53 84 z"/>
<path style="fill:#afb1ad" d="M47 85 C46.27 86.62 41.73 86.62 41 85 L47 85 z"/>
</svg>
