<?xml version="1.0" standalone="yes"?>
<svg width="87" height="97">
<path style="fill:#fdfdfd" d="M87 0 L87 97 L0 97 L0 0 L87 0 z"/>
<path style="fill:#787878" d="M33 19 L32 57 L31 57 L30 57 L29 56 L30 55 C31.06 55.43 31.06 53.57 30 54 L28 54 L27 53 L26 52 L25 50 C32.46 56.57 29.42 45.4 30 40 C31.33 40.22 31.33 37.78 30 38 L29 37 L28 36 L27 35 L26 33 L28 33 L29 34 C28.57 35.06 30.43 35.06 30 34 C31.88 34.14 29.86 32.12 30 34 L29 34 L28 33 L26 30 C31.93 35.84 31.32 20.76 28 20 C28.75 19.1 32.35 17.13 33 19 z"/>
<path style="fill:#111111" d="M33 19 L33 33 L33 40 L33 53 L33 69 L32 74 L32 61 L32 57 L33 19 z"/>
<path style="fill:#797979" d="M37 20 C32 18.94 32.14 36.22 38 30 L35 34 L34 34 L33 33 L33 19 L37 20 z"/>
<path style="fill:#2f3030" d="M55 19 L55 33 L54 32 L52 20 C52.06 18.41 54.05 19.19 55 19 z"/>
<path style="fill:#6c6c6c" d="M56 19 L55 34 L55 33 L55 19 L56 19 z"/>
<path style="fill:#2f3030" d="M57 19 L57 57 L57 58 L57 69 C57.6 72.13 56.88 75.22 53 74 C50.61 73.81 48 72.3 47 70 L49 70 C49.34 71.86 51.4 72.28 53 72 C53.7 74.52 56.22 71.27 53 72 L51 70 C59.28 73.73 54.95 61.9 56 57 L55 36 L54 36 L53 34 L55 34 L56 19 L57 19 z"/>
<path style="fill:#8d8e8e" d="M58 19 C59.22 22.62 55.11 33.35 61 31 L59 34 C57.12 33.86 59.14 35.88 59 34 L61 34 L60 36 L59 37 C57.12 36.86 59.14 38.88 59 37 L60 36 L62 36 C56.72 39.99 57.77 46.77 58.25 52.75 L67 46 C67.32 46.9 69.02 48.73 67 49 C67.43 47.94 65.57 47.94 66 49 L65 50 L64 51 C62.15 50.67 60.67 52.54 60 54 L59 55 C57.12 54.86 59.14 56.88 59 55 L60 54 L62 54 L61 56 L60 57 L59 58 L58 58 L57 57 L57 19 L58 19 z"/>
<path style="fill:#080808" d="M62 20 L63 21 L64 22 L65 23 L66 24 L62 30 L61 31 C55.11 33.35 59.22 22.62 58 19 L62 20 z"/>
<path style="fill:#070707" d="M28 20 C31.32 20.76 31.93 35.84 26 30 L25 29 L22 24 L23 23 L24 22 L25 21 L28 20 z"/>
<path style="fill:#050505" d="M37 20 L39 21 L40 22 L41 23 L42 25 L38 30 C32.14 36.22 32 18.94 37 20 z"/>
<path style="fill:#5c5c5c" d="M51 20 L50 21 L51 20 z"/>
<path style="fill:#050505" d="M52 20 L54 32 L49 29 L48 28 L47 27 L46 25 L47 23 L48 22 L49 21 L50 21 L51 20 L52 20 z"/>
<path style="fill:#a0a0a0" d="M63 21 L62 20 L63 21 z"/>
<path style="fill:#777777" d="M25 21 L24 22 L25 21 z"/>
<path style="fill:#747474" d="M40 22 L39 21 L40 22 z"/>
<path style="fill:#a8a8a8" d="M49 21 L48 22 L49 21 z"/>
<path style="fill:#969696" d="M24 22 L23 23 L24 22 z"/>
<path style="fill:#858585" d="M41 23 L40 22 L41 23 z"/>
<path style="fill:#a7a7a7" d="M48 22 L47 23 L48 22 z"/>
<path style="fill:#616161" d="M65 23 L64 22 L65 23 z"/>
<path style="fill:#9e9e9e" d="M66 24 L65 23 L66 24 z"/>
<path style="fill:#a7a7a7" d="M22 24 L25 29 L23 29 L22 28 L21 27 C21.19 26.05 20.41 24.06 22 24 z"/>
<path style="fill:#9e9e9e" d="M67 28 C66.87 26.13 64.98 28.18 65 29 L64 30 L62 30 L66 24 C66.97 24.46 69.1 27.54 67 28 z"/>
<path style="fill:#909090" d="M43 27 L42 28 L41 29 L40 30 L38 30 L42 25 C43.18 24.85 43.02 26.34 43 27 z"/>
<path style="fill:#a1a2a2" d="M46 25 L47 27 L45 27 C44.98 26.34 44.82 24.85 46 25 z"/>
<path style="fill:#1a1a1a" d="M22 28 L21 28 L21 27 L22 28 z"/>
<path style="fill:#0" d="M43 27 L42 28 L43 27 z"/>
<path style="fill:#b8b8b8" d="M45 28 L47 30 C43.61 29.63 46.51 31.68 47 33 L45 33 L43 46 C41.78 42.38 45.89 31.65 40 34 L41 32 L42 31 C43.88 31.14 41.86 29.12 42 31 L41 32 L39 32 L40 30 L41 29 L42 28 L43 27 L45 28 z"/>
<path style="fill:#292a2a" d="M47 27 L48 28 L49 29 L51 32 L49 32 L48 31 L47 30 L45 28 L45 27 L47 27 z"/>
<path style="fill:#ababab" d="M48 28 L47 27 L48 28 z"/>
<path style="fill:#202121" d="M67 28 L67 29 L65 29 C64.98 28.18 66.87 26.13 67 28 z"/>
<path style="fill:#969797" d="M22 28 L23 29 L24 31 L22 31 C22.43 29.94 20.57 29.94 21 31 C18.98 30.73 20.68 28.9 21 28 L22 28 z"/>
<path style="fill:#070707" d="M23 29 L22 28 L23 29 z"/>
<path style="fill:#020202" d="M42 28 L41 29 L42 28 z"/>
<path style="fill:#c6c6c6" d="M49 29 L48 28 L49 29 z"/>
<path style="fill:#252626" d="M25 29 L26 30 L28 33 L26 33 L25 32 L24 31 L23 29 L25 29 z"/>
<path style="fill:#cecece" d="M26 30 L25 29 L26 30 z"/>
<path style="fill:#0" d="M41 29 L40 30 L41 29 z"/>
<path style="fill:#959595" d="M54 32 L55 33 L55 34 L53 34 L52 33 L51 32 L49 29 L54 32 z"/>
<path style="fill:#0" d="M65 29 L64 30 L65 29 z"/>
<path style="fill:#9f9f9f" d="M67 29 C68.33 28.78 68.33 31.22 67 31 C67.43 29.94 65.57 29.94 66 31 L65 32 L63 32 L64 30 L65 29 L67 29 z"/>
<path style="fill:#0" d="M22 31 L21 31 C20.57 29.94 22.43 29.94 22 31 z"/>
<path style="fill:#262727" d="M40 30 L39 32 L38 33 L37 34 L35 34 L38 30 L40 30 z"/>
<path style="fill:#0" d="M42 31 C41.86 29.12 43.88 31.14 42 31 z"/>
<path style="fill:#282828" d="M47 30 L48 31 L49 32 L51 35 L49 35 L48 34 L47 33 C46.51 31.68 43.61 29.63 47 30 z"/>
<path style="fill:#cccccc" d="M48 31 L47 30 L48 31 z"/>
<path style="fill:#bcbcbc" d="M62 30 L61 31 L62 30 z"/>
<path style="fill:#262626" d="M64 30 L63 32 L62 33 L61 34 L59 34 L61 31 L62 30 L64 30 z"/>
<path style="fill:#060606" d="M67 31 L66 31 C65.57 29.94 67.43 29.94 67 31 z"/>
<path style="fill:#b3b4b4" d="M22 31 L24 34 C18.11 31.65 22.22 42.38 21 46 C19.24 42.23 19.47 35.28 21 31 L22 31 z"/>
<path style="fill:#222323" d="M24 31 L25 32 L26 33 L27 35 L25 35 L24 34 L22 31 L24 31 z"/>
<path style="fill:#d1d1d1" d="M25 32 L24 31 L25 32 z"/>
<path style="fill:#0" d="M42 31 L41 32 L42 31 z"/>
<path style="fill:#cccccc" d="M49 32 L48 31 L49 32 z"/>
<path style="fill:#050505" d="M66 31 L65 32 L66 31 z"/>
<path style="fill:#a8a9a9" d="M67 31 C68.53 35.28 68.76 42.23 67 46 C66.02 41.78 69.85 30.04 63 35 L65 32 L66 31 L67 31 z"/>
<path style="fill:#bababa" d="M26 33 L25 32 L26 33 z"/>
<path style="fill:#c5c5c5" d="M39 32 L38 33 L39 32 z"/>
<path style="fill:#282828" d="M41 32 L40 34 L39 35 L38 36 L36 36 L37 34 L38 33 L39 32 L41 32 z"/>
<path style="fill:#949595" d="M51 32 L52 33 L53 34 L54 36 L52 36 L51 35 L49 32 L51 32 z"/>
<path style="fill:#060606" d="M52 33 L51 32 L52 33 z"/>
<path style="fill:#c8c8c8" d="M63 32 L62 33 L63 32 z"/>
<path style="fill:#252525" d="M65 32 L63 35 L62 36 L60 36 L61 34 L62 33 L63 32 L65 32 z"/>
<path style="fill:#030404" d="M24 34 L25 35 L30 40 C29.42 45.4 32.46 56.57 25 50 L24 49 L21 46 C22.22 42.38 18.11 31.65 24 34 z"/>
<path style="fill:#0" d="M29 34 L28 33 L29 34 z"/>
<path style="fill:#eaeaea" d="M30 34 C29.86 32.12 31.88 34.14 30 34 z"/>
<path style="fill:#969696" d="M34 34 C33.57 35.06 35.43 35.06 35 34 L37 34 L36 36 L35 37 C33.12 36.86 35.14 38.88 35 37 L36 36 L38 36 L34 40 L33 40 L33 33 L34 34 z"/>
<path style="fill:#bfbfbf" d="M38 33 L37 34 L38 33 z"/>
<path style="fill:#030404" d="M43 46 L39 50 L34 53 L34 40 L38 36 L39 35 L40 34 C45.89 31.65 41.78 42.38 43 46 z"/>
<path style="fill:#f8f8f8" d="M45 33 L45 46 C45.22 47.33 42.78 47.33 43 46 L45 33 z"/>
<path style="fill:#282929" d="M47 33 L47 34 L46 46 L45 46 L45 33 L47 33 z"/>
<path style="fill:#afafaf" d="M48 34 L47 34 L47 33 L48 34 z"/>
<path style="fill:#0" d="M53 34 L52 33 L53 34 z"/>
<path style="fill:#bababa" d="M62 33 L61 34 L62 33 z"/>
<path style="fill:#030303" d="M67 46 L58.25 52.75 C57.77 46.77 56.72 39.99 62 36 L63 35 C69.85 30.04 66.02 41.78 67 46 z"/>
<path style="fill:#bebebe" d="M25 35 L24 34 L25 35 z"/>
<path style="fill:#040404" d="M30 34 C30.43 35.06 28.57 35.06 29 34 L30 34 z"/>
<path style="fill:#0" d="M35 34 C35.43 35.06 33.57 35.06 34 34 L35 34 z"/>
<path style="fill:#cacaca" d="M40 34 L39 35 L40 34 z"/>
<path style="fill:#030404" d="M47 34 L48 34 L49 35 C50.06 36.68 51.72 39.18 54 39 L54 40 L55 52 L54 53 L48 49 L47 48 L46 46 L47 34 z"/>
<path style="fill:#bbbbbb" d="M49 35 L48 34 L49 35 z"/>
<path style="fill:#0" d="M59 34 C59.14 35.88 57.12 33.86 59 34 z"/>
<path style="fill:#989999" d="M27 35 L28 36 L29 37 L30 38 C31.33 37.78 31.33 40.22 30 40 L25 35 L27 35 z"/>
<path style="fill:#070707" d="M28 36 L27 35 L28 36 z"/>
<path style="fill:#bebebe" d="M39 35 L38 36 L39 35 z"/>
<path style="fill:#696a6a" d="M51 35 L52 36 L54 36 C53.57 37.06 55.43 37.06 55 36 L56 57 L54 57 L51 56 L49 53 L51 53 L52 54 L54 54 C53.86 55.88 55.88 53.86 54 54 L54 53 L55 52 L55 40 L54 39 C51.72 39.18 50.06 36.68 49 35 L51 35 z"/>
<path style="fill:#0" d="M52 36 L51 35 L52 36 z"/>
<path style="fill:#bdbdbd" d="M63 35 L62 36 L63 35 z"/>
<path style="fill:#030303" d="M29 37 L28 36 L29 37 z"/>
<path style="fill:#0b0b0b" d="M36 36 L35 37 L36 36 z"/>
<path style="fill:#ebebeb" d="M55 36 C55.43 37.06 53.57 37.06 54 36 L55 36 z"/>
<path style="fill:#060606" d="M60 36 L59 37 L60 36 z"/>
<path style="fill:#121212" d="M30 38 L29 37 L30 38 z"/>
<path style="fill:#070707" d="M35 37 C35.14 38.88 33.12 36.86 35 37 z"/>
<path style="fill:#030303" d="M59 37 C59.14 38.88 57.12 36.86 59 37 z"/>
<path style="fill:#d0d0d0" d="M55 40 L54 40 L54 39 L55 40 z"/>
<path style="fill:#727373" d="M34 40 L34 53 L33 53 L33 40 L34 40 z"/>
<path style="fill:#2c2c2c" d="M55 40 L55 52 L54 40 L55 40 z"/>
<path style="fill:#a6a7a7" d="M24 49 L22 49 C22.14 47.12 20.12 49.14 22 49 L23 51 C22.34 50.98 20.85 50.82 21 52 C19 51.04 19.98 47.53 21 46 L24 49 z"/>
<path style="fill:#a6a7a7" d="M43 46 C42.78 47.33 45.22 47.33 45 46 L46 46 L47 48 C46.34 47.98 44.85 47.82 45 49 L43 52 C43.43 50.94 41.57 50.94 42 52 L40 52 L41 50 L42 49 C43.88 49.14 41.86 47.12 42 49 L41 50 L39 50 L43 46 z"/>
<path style="fill:#010101" d="M22 49 C20.12 49.14 22.14 47.12 22 49 z"/>
<path style="fill:#040404" d="M42 49 C41.86 47.12 43.88 49.14 42 49 z"/>
<path style="fill:#252626" d="M47 48 L48 49 L51 53 L49 53 L48 52 L47 51 L45 49 C44.85 47.82 46.34 47.98 47 48 z"/>
<path style="fill:#bfbfbf" d="M48 49 L47 48 L48 49 z"/>
<path style="fill:#010101" d="M67 49 L66 49 C65.57 47.94 67.43 47.94 67 49 z"/>
<path style="fill:#232323" d="M24 49 L25 50 L26 52 L24 52 L23 51 L22 49 L24 49 z"/>
<path style="fill:#d2d2d2" d="M25 50 L24 49 L25 50 z"/>
<path style="fill:#0" d="M42 49 L41 50 L42 49 z"/>
<path style="fill:#c3c3c3" d="M45 49 L47 51 C43.61 50.63 46.51 52.68 47 54 L45 54 L43 67 L43 64 C42.14 60.92 45.33 52.34 40 55 L42 52 L43 52 L45 49 z"/>
<path style="fill:#979797" d="M54 53 L54 54 L52 54 L51 53 L48 49 L54 53 z"/>
<path style="fill:#0" d="M66 49 L65 50 L66 49 z"/>
<path style="fill:#959595" d="M67 49 C67.32 49.9 69.02 51.73 67 52 C67.43 50.94 65.57 50.94 66 52 L64 52 L64 51 L65 50 L66 49 L67 49 z"/>
<path style="fill:#8b8b8b" d="M39 50 L36 54 L35 55 C33.12 54.86 35.14 56.88 35 55 L36 54 L38 54 L37 56 L36 57 C32.36 56.55 35.13 60.73 36 57 L37 56 L39 56 C35.34 59.57 32.65 63.45 34 69 L33 69 L33 53 L34 53 L39 50 z"/>
<path style="fill:#232424" d="M41 50 L40 52 L39 53 L38 54 L36 54 L39 50 L41 50 z"/>
<path style="fill:#0" d="M65 50 L64 51 L65 50 z"/>
<path style="fill:#202121" d="M23 51 L24 52 L26 55 L24 55 L23 54 L21 52 C20.85 50.82 22.34 50.98 23 51 z"/>
<path style="fill:#b1b1b1" d="M24 52 L23 51 L24 52 z"/>
<path style="fill:#0" d="M43 52 L42 52 C41.57 50.94 43.43 50.94 43 52 z"/>
<path style="fill:#272727" d="M47 51 L48 52 L49 53 L51 56 L49 56 L48 55 L47 54 C46.51 52.68 43.61 50.63 47 51 z"/>
<path style="fill:#acacac" d="M48 52 L47 51 L48 52 z"/>
<path style="fill:#222323" d="M64 51 L64 52 L63 53 L62 54 L60 54 C60.67 52.54 62.15 50.67 64 51 z"/>
<path style="fill:#060606" d="M67 52 L66 52 C65.57 50.94 67.43 50.94 67 52 z"/>
<path style="fill:#b6b7b7" d="M23 54 L21 63 C19.17 60.52 19.58 55 21 52 L23 54 z"/>
<path style="fill:#848484" d="M26 52 L27 53 L28 54 L29 56 L27 56 L26 55 L24 52 L26 52 z"/>
<path style="fill:#0" d="M27 53 L26 52 L27 53 z"/>
<path style="fill:#b5b5b5" d="M40 52 L39 53 L40 52 z"/>
<path style="fill:#272727" d="M42 52 L40 55 L39 56 L37 56 L38 54 L39 53 L40 52 L42 52 z"/>
<path style="fill:#bababa" d="M49 53 L48 52 L49 53 z"/>
<path style="fill:#adadad" d="M64 52 L63 53 L64 52 z"/>
<path style="fill:#272828" d="M66 52 L64 55 L63 56 L61 56 L62 54 L63 53 L64 52 L66 52 z"/>
<path style="fill:#acadad" d="M67 52 C68.42 55 68.83 60.52 67 63 C66.3 60.05 69.07 52.32 64 55 L66 52 L67 52 z"/>
<path style="fill:#0" d="M28 54 L27 53 L28 54 z"/>
<path style="fill:#b2b2b2" d="M39 53 L38 54 L39 53 z"/>
<path style="fill:#0" d="M52 54 L51 53 L52 54 z"/>
<path style="fill:#bdbdbd" d="M63 53 L62 54 L63 53 z"/>
<path style="fill:#060606" d="M23 54 L24 55 L30 61 L30 69 L24 67 L21 64 L21 63 L23 54 z"/>
<path style="fill:#c8c8c8" d="M24 55 L23 54 L24 55 z"/>
<path style="fill:#1e1f1f" d="M30 54 L30 55 L29 56 L28 54 L30 54 z"/>
<path style="fill:#dfdfdf" d="M30 55 L30 54 C31.06 53.57 31.06 55.43 30 55 z"/>
<path style="fill:#020202" d="M36 54 L35 55 L36 54 z"/>
<path style="fill:#050505" d="M43 64 L36 69 L34 69 C32.65 63.45 35.34 59.57 39 56 L40 55 C45.33 52.34 42.14 60.92 43 64 z"/>
<path style="fill:#2d2e2e" d="M47 54 L47 55 L46 64 L45 64 L45 54 L47 54 z"/>
<path style="fill:#b8b8b8" d="M48 55 L47 55 L47 54 L48 55 z"/>
<path style="fill:#e3e3e3" d="M54 54 C55.88 53.86 53.86 55.88 54 54 z"/>
<path style="fill:#0" d="M60 54 L59 55 L60 54 z"/>
<path style="fill:#050505" d="M67 63 L67 64 L60 69 L58 69 C56.65 63.45 59.34 59.57 63 56 L64 55 C69.07 52.32 66.3 60.05 67 63 z"/>
<path style="fill:#9e9f9f" d="M26 55 L27 56 L31 61 L30 61 L24 55 L26 55 z"/>
<path style="fill:#0" d="M27 56 L26 55 L27 56 z"/>
<path style="fill:#060606" d="M35 55 C35.14 56.88 33.12 54.86 35 55 z"/>
<path style="fill:#c0c0c0" d="M40 55 L39 56 L40 55 z"/>
<path style="fill:#080909" d="M47 55 L48 55 L49 56 C52.37 59.9 57.27 62.44 54.75 68.75 C51.53 69.07 47.63 66.91 46 64 L47 55 z"/>
<path style="fill:#c3c3c3" d="M49 56 L48 55 L49 56 z"/>
<path style="fill:#030303" d="M59 55 C59.14 56.88 57.12 54.86 59 55 z"/>
<path style="fill:#c8c8c8" d="M64 55 L63 56 L64 55 z"/>
<path style="fill:#404040" d="M29 56 L30 57 C29.57 58.06 31.43 58.06 31 57 L32 57 L32 61 L31 61 L27 56 L29 56 z"/>
<path style="fill:#0" d="M37 56 L36 57 L37 56 z"/>
<path style="fill:#858585" d="M51 56 C51.15 58.18 56.35 60.45 54 57 L56 57 C54.95 61.9 59.28 73.73 51 70 C51.22 68.67 48.78 68.67 49 70 L47 70 C45.14 68.93 44.78 66.16 45 64 L46 64 C47.63 66.91 51.53 69.07 54.75 68.75 C57.27 62.44 52.37 59.9 49 56 L51 56 z"/>
<path style="fill:#222323" d="M54 57 C56.35 60.45 51.15 58.18 51 56 L54 57 z"/>
<path style="fill:#0" d="M61 56 L60 57 L61 56 z"/>
<path style="fill:#8d8e8e" d="M63 56 C59.34 59.57 56.65 63.45 58 69 L57 69 L57 58 L58 58 C57.57 59.06 59.43 59.06 59 58 L60 57 L61 56 L63 56 z"/>
<path style="fill:#d4d4d4" d="M31 57 C31.43 58.06 29.57 58.06 30 57 L31 57 z"/>
<path style="fill:#1b1c1c" d="M36 57 C35.13 60.73 32.36 56.55 36 57 z"/>
<path style="fill:#e3e3e3" d="M58 58 L57 58 L57 57 L58 58 z"/>
<path style="fill:#0f0f0f" d="M60 57 L59 58 L60 57 z"/>
<path style="fill:#050505" d="M59 58 C59.43 59.06 57.57 59.06 58 58 L59 58 z"/>
<path style="fill:#6c6d6d" d="M31 61 L32 61 L32 74 L30 74 L30 73 C31.06 73.43 31.06 71.57 30 72 L30 71 C31.33 71.22 31.33 68.78 30 69 L30 61 L31 61 z"/>
<path style="fill:#646565" d="M24 67 L27 70 L29 72 C28.05 72.19 26.06 71.41 26 73 C22.84 71.26 20.38 67.75 21 64 L24 67 z"/>
<path style="fill:#737373" d="M43 64 L43 67 L41 70 L39 70 C38.73 67.98 36.9 69.68 36 70 L36 69 L43 64 z"/>
<path style="fill:#6d6d6d" d="M67 64 C67.26 66.6 66.57 69.89 64 71 L62 71 C63.85 68.84 61.41 68.74 60 70 L60 69 L67 64 z"/>
<path style="fill:#969797" d="M30 69 C31.33 68.78 31.33 71.22 30 71 C29.94 69.41 27.95 70.19 27 70 L24 67 L30 69 z"/>
<path style="fill:#a4a4a4" d="M34 69 L36 69 L36 70 C31.86 71.01 35.63 71.97 38 71 L35 74 C34.27 75.62 29.73 75.62 29 74 L30 74 L32 74 L33 69 L34 69 z"/>
<path style="fill:#252525" d="M39 70 L38 71 C35.63 71.97 31.86 71.01 36 70 C36.9 69.68 38.73 67.98 39 70 z"/>
<path style="fill:#2b2c2c" d="M41 70 C40 72.3 37.39 73.81 35 74 L38 71 L39 70 L41 70 z"/>
<path style="fill:#1a1a1a" d="M51 70 L49 70 C48.78 68.67 51.22 68.67 51 70 z"/>
<path style="fill:#b3b4b4" d="M58 69 L60 69 L60 70 C57.21 69.26 57.82 74.81 60 74 C58.97 75.64 54.03 75.64 53 74 C56.88 75.22 57.6 72.13 57 69 L58 69 z"/>
<path style="fill:#2d2d2d" d="M62 71 C58.78 70.27 61.3 73.52 62 71 L64 71 C63.59 72.93 61.35 73.09 60 74 C57.82 74.81 57.21 69.26 60 70 C61.41 68.74 63.85 68.84 62 71 z"/>
<path style="fill:#1a1b1b" d="M30 71 L30 72 L29 72 L27 70 C27.95 70.19 29.94 69.41 30 71 z"/>
<path style="fill:#acacac" d="M39 70 L38 71 L39 70 z"/>
<path style="fill:#828383" d="M51 70 L53 72 C51.4 72.28 49.34 71.86 49 70 L51 70 z"/>
<path style="fill:#a8a9a9" d="M62 71 C61.3 73.52 58.78 70.27 62 71 z"/>
<path style="fill:#141515" d="M29 72 L30 73 L30 74 L29 74 L28 74 L27 73 L26 73 C26.06 71.41 28.05 72.19 29 72 z"/>
<path style="fill:#c0c0c0" d="M30 72 C31.06 71.57 31.06 73.43 30 73 L29 72 L30 72 z"/>
<path style="fill:#bfbfbf" d="M53 72 C56.22 71.27 53.7 74.52 53 72 z"/>
<path style="fill:#777777" d="M28 74 L27 73 L28 74 z"/>
</svg>
