<?xml version="1.0" standalone="yes"?>
<svg width="87" height="97">
<path style="fill:#fcfdfd" d="M87 0 L87 97 L0 97 L0 0 L87 0 z"/>
<path style="fill:#9d9d9d" d="M41 20 C41.15 18.82 39.66 18.98 39 19 C39.27 16.38 44.09 19.07 41 20 z"/>
<path style="fill:#bdbdbd" d="M48 19 C45.98 18.55 46.07 19.84 47 21 L46 22 L43 20 C43.25 17.82 47.31 16.98 48 19 z"/>
<path style="fill:#a5a5a5" d="M37 19 L35 22 C35.02 21.34 35.18 19.85 34 20 C34.06 18.41 36.05 19.19 37 19 z"/>
<path style="fill:#222222" d="M39 19 C39.66 18.98 41.15 18.82 41 20 L35 25 L35 22 L37 19 L39 19 z"/>
<path style="fill:#191a1a" d="M48 19 C48.66 18.98 50.15 18.82 50 20 L52 25 L47 21 C46.07 19.84 45.98 18.55 48 19 z"/>
<path style="fill:#202020" d="M34 20 C35.18 19.85 35.02 21.34 35 22 L33 24 L33 21 L34 20 z"/>
<path style="fill:#373838" d="M46 22 L45 24 L43 30 C42.68 27.66 44.12 23.84 41 23 L43 20 L46 22 z"/>
<path style="fill:#7c7c7c" d="M52 20 C51.99 21.63 54.39 28.52 55 24 L57 27 C57.61 28.24 59.56 28.98 61 29 C62.43 31.34 61.95 25.99 62 25 L64 27 L64 28 C64.66 27.98 66.15 27.82 66 29 C64.67 28.78 64.67 31.22 66 31 C65.74 33.82 66.16 35.92 68 33 C70.12 32.37 70.14 34.82 71 36 C68.31 35.89 68.92 32.97 67 36 L66 36 L60.25 31.25 C59.07 34.11 61.26 36.59 63 38 L58 39 L57 39 L57 36 L58 35 L58 34 L57 34 C57.28 31.32 56.4 26.87 53 27 L52 25 L50 20 L52 20 z"/>
<path style="fill:#161717" d="M53 20 L55 24 C54.39 28.52 51.99 21.63 52 20 L53 20 z"/>
<path style="fill:#a2a3a3" d="M56 21 C54.41 21.06 55.19 23.05 55 24 L53 20 C53.95 20.19 55.94 19.41 56 21 z"/>
<path style="fill:#898989" d="M31 21 L30 22 L31 21 z"/>
<path style="fill:#1f1f1f" d="M32 21 L31 26 L30 22 L31 21 L32 21 z"/>
<path style="fill:#797a7a" d="M33 21 L33 24 C30.48 24.7 33.73 27.22 33 24 L35 22 L35 25 L35 26 L34 27 C29.42 26.51 30.24 35.23 28 29 L31 26 L32 21 L33 21 z"/>
<path style="fill:#e4e4e4" d="M52 25 L53 27 L55 32 L54 33 L53 33 C52.37 31.6 50.25 31.88 52 30 C51.76 25.7 50.06 28.54 48 29 L45 24 L46 22 L47 21 L52 25 z"/>
<path style="fill:#2a2b2b" d="M56 21 L57 22 C56.85 23.18 58.34 23.02 59 23 L59 25 C58.81 29.81 56.68 20.33 57 27 L55 24 C55.19 23.05 54.41 21.06 56 21 z"/>
<path style="fill:#5d5d5d" d="M30 22 L31 26 L28 29 L26 29 L25 25 L28 23 C26.98 27.4 30.79 24.7 28 23 C27.85 21.82 29.34 21.98 30 22 z"/>
<path style="fill:#969696" d="M59 23 C58.34 23.02 56.85 23.18 57 22 C57.66 21.98 59.15 21.82 59 23 z"/>
<path style="fill:#0c0c0c" d="M28 23 C30.79 24.7 26.98 27.4 28 23 z"/>
<path style="fill:#a4a5a5" d="M43 30 C40.65 29.55 43.49 23.27 40 26 L41 23 C44.12 23.84 42.68 27.66 43 30 z"/>
<path style="fill:#656565" d="M60 24 L61 29 C59.56 28.98 57.61 28.24 57 27 C56.68 20.33 58.81 29.81 59 25 L59 23 L60 24 z"/>
<path style="fill:#030303" d="M33 24 C33.73 27.22 30.48 24.7 33 24 z"/>
<path style="fill:#787878" d="M45 24 L48 29 C50.06 28.54 51.76 25.7 52 30 C45.21 29.74 49.42 34.08 47 39 C45.36 43.26 51.55 41.98 51 39 C52.55 39.19 52.55 42.81 51 43 L48 51 C46.01 52.49 46.29 58.77 50 56 L54 60 C49.64 62.96 45.39 67.15 47 73 L46 72 L44 64 L44 61 L45 49 L45 48 C45.14 44.25 45.77 37.52 44 34 L44 33 C39.96 32.57 42.02 44.19 42 48 L40.25 48.25 C44.21 52.72 39.25 59.71 43 63 L43 64 L41 72 L42 73 C42.15 74.18 40.66 74.02 40 74 L39 66 L35 61 C36.78 60.8 40.52 60.1 37 57 C40.84 58.56 40.92 52.19 39 51 L38 46 L36 41 C41.76 45.64 39.84 32.6 36 38 L34 38 C32.71 38.26 31.67 39.66 32 41 C30.38 40.27 30.38 35.73 32 35 C33.18 35.91 40.55 33.22 34 33 L35 30 C35.66 30.02 37.15 30.18 37 29 C38.69 29.41 40.41 27.69 40 26 C43.49 23.27 40.65 29.55 43 30 L45 24 z"/>
<path style="fill:#1b1c1c" d="M61 24 L62 25 C61.95 25.99 62.43 31.34 61 29 L60 24 L61 24 z"/>
<path style="fill:#a6a6a6" d="M62 25 L61 24 L62 25 z"/>
<path style="fill:#8d8d8d" d="M25 25 C25.05 25.99 24.57 31.34 26 29 L28 29 L28 30 L27 31 L24 34 L21 29 L23 27 C21.85 32.5 25.92 29.75 23 27 L25 25 z"/>
<path style="fill:#0d0e0e" d="M26 29 C24.57 31.34 25.05 25.99 25 25 L26 29 z"/>
<path style="fill:#b5b6b6" d="M35 26 L37 28 C35.65 27.54 34.54 28.65 35 30 L33 29 L34 27 L35 26 z"/>
<path style="fill:#141515" d="M23 27 C25.92 29.75 21.85 32.5 23 27 z"/>
<path style="fill:#292929" d="M34 27 L33 29 L30 34 C28.14 33.66 27.72 31.6 28 30 L28 29 C30.24 35.23 29.42 26.51 34 27 z"/>
<path style="fill:#181919" d="M57 34 L55 32 L53 27 C56.4 26.87 57.28 31.32 57 34 z"/>
<path style="fill:#101010" d="M64 27 L64 28 L64 27 z"/>
<path style="fill:#2c2c2c" d="M37 28 L37 29 C37.15 30.18 35.66 30.02 35 30 C34.54 28.65 35.65 27.54 37 28 z"/>
<path style="fill:#5a5a5a" d="M21 29 L24 34 C23.98 34.66 23.82 36.15 25 36 C27.08 36.91 22.19 38.47 21 38 L21 36 C22.33 36.22 22.33 33.78 21 34 L19 31 L21 29 z"/>
<path style="fill:#e8e9e9" d="M35 30 L34 33 L33 33 L32 34 L32 35 C30.38 35.73 30.38 40.27 32 41 L32 46 C31.73 48.02 29.9 46.32 29 46 L29 41 L30 36 L30 35 L30 34 L33 29 L35 30 z"/>
<path style="fill:#101111" d="M66 29 L66 30 L66 31 C64.67 31.22 64.67 28.78 66 29 z"/>
<path style="fill:#6e6f6f" d="M28 30 C27.72 31.6 28.14 33.66 30 34 L30 35 C28.94 34.57 28.94 36.43 30 36 L29 41 L22 42 L19 40 L21 38 C22.19 38.47 27.08 36.91 25 36 L27 31 L28 30 z"/>
<path style="fill:#979898" d="M52 30 C50.25 31.88 52.37 31.6 53 33 C50.46 32.24 48.24 34.46 49 37 L47 39 C49.42 34.08 45.21 29.74 52 30 z"/>
<path style="fill:#2d2e2e" d="M58 35 L58 34 L58 35 z"/>
<path style="fill:#9a9a9a" d="M68 31 L66 31 L66 30 C66.66 29.98 68.15 29.82 68 31 z"/>
<path style="fill:#9a9b9b" d="M19 31 L19 34 L17 34 L19 31 z"/>
<path style="fill:#181919" d="M21 34 L21 36 L19 34 L19 31 L21 34 z"/>
<path style="fill:#3a3a3a" d="M27 31 L25 36 C23.82 36.15 23.98 34.66 24 34 L27 31 z"/>
<path style="fill:#4c4d4d" d="M66 36 C65.98 36.66 65.82 38.15 67 38 C66.98 38.66 66.82 40.15 68 40 C67.54 42.05 65.07 40.62 64 40 C64.02 39.34 64.18 37.85 63 38 C61.26 36.59 59.07 34.11 60.25 31.25 L66 36 z"/>
<path style="fill:#1d1d1d" d="M68 31 L68 33 C66.16 35.92 65.74 33.82 66 31 L68 31 z"/>
<path style="fill:#a2a3a3" d="M44 33 L42 48 C42.02 44.19 39.96 32.57 44 33 z"/>
<path style="fill:#acacac" d="M57 34 L58 34 L58 35 L57 36 L55 41 C54.77 38.31 55.71 35.26 54 33 L55 32 L57 34 z"/>
<path style="fill:#858585" d="M33 33 L32 34 L33 33 z"/>
<path style="fill:#0f1010" d="M34 33 C40.55 33.22 33.18 35.91 32 35 L32 34 L33 33 L34 33 z"/>
<path style="fill:#4a4a4a" d="M44 33 L44 34 L45 48 L45 49 L44 61 L44 64 L46 72 L47 73 L42 73 L41 72 L43 64 L43 63 L42 48 L44 33 z"/>
<path style="fill:#252626" d="M53 33 L54 33 C55.71 35.26 54.77 38.31 55 41 L55 42 L54 36 C53.57 32.9 49.24 34.17 50 37 L49 37 C48.24 34.46 50.46 32.24 53 33 z"/>
<path style="fill:#2a2b2b" d="M19 34 C18.81 34.95 19.59 36.94 18 37 C18.02 36.34 18.18 34.85 17 35 L17 34 L19 34 z"/>
<path style="fill:#8d8e8e" d="M21 36 L21 38 L19 40 L18 37 C19.59 36.94 18.81 34.95 19 34 L21 36 z"/>
<path style="fill:#b4b4b4" d="M21 36 L21 34 C22.33 33.78 22.33 36.22 21 36 z"/>
<path style="fill:#acadad" d="M45 48 L44 34 C45.77 37.52 45.14 44.25 45 48 z"/>
<path style="fill:#535353" d="M54 36 C50.87 35.72 51.06 36.56 53 38 L51 38 L50 37 C49.24 34.17 53.57 32.9 54 36 z"/>
<path style="fill:#404040" d="M71 36 L71 38 L68 40 C68.02 39.34 68.18 37.85 67 38 L67 36 C68.92 32.97 68.31 35.89 71 36 z"/>
<path style="fill:#868686" d="M17 35 C18.18 34.85 18.02 36.34 18 37 L16 36 L17 35 z"/>
<path style="fill:#0" d="M30 35 L30 36 C28.94 36.43 28.94 34.57 30 35 z"/>
<path style="fill:#101010" d="M58 35 L57 36 L58 35 z"/>
<path style="fill:#363636" d="M18 37 L19 40 L16 38 L16 36 L18 37 z"/>
<path style="fill:#e6e7e7" d="M36 41 L36 39 L36 38 C39.84 32.6 41.76 45.64 36 41 z"/>
<path style="fill:#818282" d="M54 36 L55 42 L55 46 C53.17 44.26 52.83 40.8 53 38 C51.06 36.56 50.87 35.72 54 36 z"/>
<path style="fill:#f8f9f9" d="M57 36 L57 39 L58 44 L58 46 L57 46 L55 46 L55 42 L55 41 L57 36 z"/>
<path style="fill:#cacbcb" d="M67 36 L67 38 C65.82 38.15 65.98 36.66 66 36 L67 36 z"/>
<path style="fill:#0d0d0d" d="M36 38 L36 39 L35 43 C33.37 45.21 34.18 39.19 34 38 L36 38 z"/>
<path style="fill:#e2e3e3" d="M49 37 L50 37 L51 38 L51 39 C51.55 41.98 45.36 43.26 47 39 L49 37 z"/>
<path style="fill:#8e8e8e" d="M16 38 L19 40 L22 42 L20 47 C18.45 43.85 17.01 49.66 20 47 L22 49 L20.75 50.75 C15.21 48.99 22.47 55.63 23 57 L22 57 L20 57 L18 57 L17 53 C19.81 51.45 12.52 45.35 16.75 46.75 L17 45 C21.61 44.92 16.79 39.64 17 45 C15.82 44.16 15.18 44.16 14 45 C13.88 42.54 13.78 39.3 16 38 z"/>
<path style="fill:#515151" d="M34 38 C34.18 39.19 33.37 45.21 35 43 C36.18 42.85 36.02 44.34 36 45 L34 53 L33 52 C34.37 50.28 34.75 46.66 32 46 L32 41 C31.67 39.66 32.71 38.26 34 38 z"/>
<path style="fill:#0c0d0d" d="M53 38 C52.83 40.8 53.17 44.26 55 46 C54.78 47.33 57.22 47.33 57 46 L58 46 L58 50 L58 52 C53.86 57.54 52.07 47.55 52.75 44.25 C51.36 46.88 50.74 54.98 56 55 L56 58 L56 60 L54 60 L50 56 L50 55 L51 43 C52.55 42.81 52.55 39.19 51 39 L51 38 L53 38 z"/>
<path style="fill:#606060" d="M63 38 C64.18 37.85 64.02 39.34 64 40 L62 43 L60 43 C60.88 41.08 61.39 38.1 58 39 L63 38 z"/>
<path style="fill:#c1c1c1" d="M68 40 C66.82 40.15 66.98 38.66 67 38 C68.18 37.85 68.02 39.34 68 40 z"/>
<path style="fill:#797979" d="M71 38 C72.18 37.85 72.02 39.34 72 40 C69.75 42.49 68.16 43.31 73 43 L73 47 C69.05 45.76 67.88 43.82 69 50 C66.78 50.89 65.81 50.52 64 49 L62 43 L64 40 C65.07 40.62 67.54 42.05 68 40 L71 38 z"/>
<path style="fill:#8e8f8f" d="M36 39 L36 41 L38 46 L36 45 C36.02 44.34 36.18 42.85 35 43 L36 39 z"/>
<path style="fill:#a6a7a7" d="M58 39 C61.39 38.1 60.88 41.08 60 43 C58.44 40.01 57.84 39.78 58 44 L57 39 L58 39 z"/>
<path style="fill:#4c4d4d" d="M60 43 C62.55 45.96 58.93 47.78 58 50 L58 46 C59.33 46.22 59.33 43.78 58 44 C57.84 39.78 58.44 40.01 60 43 z"/>
<path style="fill:#bcbdbd" d="M73 43 C68.16 43.31 69.75 42.49 72 40 C73.59 40.06 72.81 42.05 73 43 z"/>
<path style="fill:#868787" d="M29 41 L29 46 L28 49 C24.38 46.53 28.31 53.46 24.25 53.75 C25.46 51.54 24.92 44.56 22 49 L22 42 L29 41 z"/>
<path style="fill:#4d4d4d" d="M17 45 C16.79 39.64 21.61 44.92 17 45 z"/>
<path style="fill:#3e3f3f" d="M22 42 L22 49 L20 47 L22 42 z"/>
<path style="fill:#343535" d="M23 43 C29.99 43.64 24.36 50.08 23 43 z"/>
<path style="fill:#9c9c9c" d="M51 43 L50 55 L48 51 L51 43 z"/>
<path style="fill:#8d8e8e" d="M62 43 C63.51 47.06 57.43 49.88 64 49 C63.92 51.6 65.47 52.71 63 54 C60.24 53.14 61.8 52.08 63 51 L58 52 L58 50 C58.93 47.78 62.55 45.96 60 43 L62 43 z"/>
<path style="fill:#3e3e3e" d="M64 49 C57.43 49.88 63.51 47.06 62 43 L64 49 z"/>
<path style="fill:#333434" d="M65 43 C69.39 42.54 64.54 47.39 65 43 z"/>
<path style="fill:#646464" d="M17 45 L16.75 46.75 C12.52 45.35 19.81 51.45 17 53 L15 54 C13.82 54.15 13.98 52.66 14 52 C17.01 51.31 14.91 49.45 14 48 L14 45 C15.18 44.16 15.82 44.16 17 45 z"/>
<path style="fill:#767676" d="M58 52 L63 51 C61.8 52.08 60.24 53.14 63 54 C68.73 54.09 67.7 48.65 72 56 C72.02 56.66 72.18 58.15 71 58 C69.08 54.97 69.69 57.89 67 58 L66.75 56.25 C64.81 57.36 59.88 61.32 61.75 56.25 L56 55 C50.74 54.98 51.36 46.88 52.75 44.25 C52.07 47.55 53.86 57.54 58 52 z"/>
<path style="fill:#aaabab" d="M58 46 L58 44 C59.33 43.78 59.33 46.22 58 46 z"/>
<path style="fill:#0c0d0d" d="M36 45 L37 54 L37 56 L33 60 L32 60 L31 59 L30 58 L34 53 L36 45 z"/>
<path style="fill:#acacac" d="M38 46 L39 51 L37 54 L36 45 L38 46 z"/>
<path style="fill:#a0a1a1" d="M73 47 L73 48 C70.67 47.15 70.26 49.09 69 50 C67.88 43.82 69.05 45.76 73 47 z"/>
<path style="fill:#303030" d="M20 47 C17.01 49.66 18.45 43.85 20 47 z"/>
<path style="fill:#0a0b0b" d="M32 46 C34.75 46.66 34.37 50.28 33 52 C32.57 55.1 28.24 53.83 29 51 L28 49 L29 46 C29.9 46.32 31.73 48.02 32 46 z"/>
<path style="fill:#a3a3a3" d="M57 46 C57.22 47.33 54.78 47.33 55 46 L57 46 z"/>
<path style="fill:#525252" d="M28 49 L29 51 C28.44 53.96 26.11 57.13 30 58 L31 59 C28.64 57.71 25.75 61.98 28 63 L29 66 L22 61 L20 57 L22 57 C24.48 64.07 27.61 52.01 23 57 C22.47 55.63 15.21 48.99 20.75 50.75 L22 49 C24.92 44.56 25.46 51.54 24.25 53.75 C28.31 53.46 24.38 46.53 28 49 z"/>
<path style="fill:#b8b8b8" d="M14 48 C14.91 49.45 17.01 51.31 14 52 C13.38 50.93 11.95 48.46 14 48 z"/>
<path style="fill:#9e9e9e" d="M42 48 L43 63 C39.25 59.71 44.21 52.72 40.25 48.25 L42 48 z"/>
<path style="fill:#444444" d="M73 48 L73 49 C69.63 48.44 71.55 53.4 72 54 L72 56 C67.7 48.65 68.73 54.09 63 54 C65.47 52.71 63.92 51.6 64 49 C65.81 50.52 66.78 50.89 69 50 C70.26 49.09 70.67 47.15 73 48 z"/>
<path style="fill:#adaeae" d="M45 49 L44 61 L45 49 z"/>
<path style="fill:#9a9a9a" d="M73 49 L72 54 C71.55 53.4 69.63 48.44 73 49 z"/>
<path style="fill:#898989" d="M29 51 C28.24 53.83 32.57 55.1 33 52 L34 53 L30 58 C26.11 57.13 28.44 53.96 29 51 z"/>
<path style="fill:#dcdcdc" d="M39 51 C40.92 52.19 40.84 58.56 37 57 L37 56 L37 54 L39 51 z"/>
<path style="fill:#eaeaea" d="M48 51 L50 55 L50 56 C46.29 58.77 46.01 52.49 48 51 z"/>
<path style="fill:#343434" d="M17 53 L18 57 L18 58 L16 60 L15 54 L17 53 z"/>
<path style="fill:#7b7c7c" d="M22 57 L23 57 C27.61 52.01 24.48 64.07 22 57 z"/>
<path style="fill:#515252" d="M67 58 C65.67 57.78 65.67 60.22 67 60 L69 63 L67 65 C67.1 63.3 67.38 59.85 65 62 C64.87 60.13 62.98 62.18 63 63 L60 65 L59 62 C59.45 61.65 60.41 57.18 58.25 58.25 C57.6 62.51 57.51 59.47 56 58 L56 55 L61.75 56.25 C59.88 61.32 64.81 57.36 66.75 56.25 L67 58 z"/>
<path style="fill:#8a8a8a" d="M37 56 L37 57 C40.52 60.1 36.78 60.8 35 61 L33 60 L37 56 z"/>
<path style="fill:#373838" d="M71 58 L69 63 L67 60 L67 58 C69.69 57.89 69.08 54.97 71 58 z"/>
<path style="fill:#6f7070" d="M20 57 L22 61 L22 63 L22 68 L20 66 L20 65 L18 63 C19.6 62.55 19.6 58.45 18 58 L18 57 L20 57 z"/>
<path style="fill:#818181" d="M18 58 L18 63 L16 60 L18 58 z"/>
<path style="fill:#131313" d="M18 63 L18 58 C19.6 58.45 19.6 62.55 18 63 z"/>
<path style="fill:#7b7b7b" d="M59 62 C56.02 61.61 56.96 66.08 56.25 67.75 C58.72 65.6 58.08 64.19 60 65 L63 63 L64 69 C64.15 70.18 62.66 70.02 62 70 C62.24 63.22 60.49 68.81 60 72 L59 73 C60.6 64.62 58.11 68.62 56 74 C56.15 75.18 54.66 75.02 54 75 C60.05 66 51.47 71.08 52 76 C51.94 77.59 49.95 76.81 49 77 L51 71 L53 68 C53.93 70.25 55.76 66.19 55 65 C56.33 65.22 56.33 62.78 55 63 L56 60 L56 58 C57.51 59.47 57.6 62.51 58.25 58.25 C60.41 57.18 59.45 61.65 59 62 z"/>
<path style="fill:#cccccc" d="M67 58 L67 60 C65.67 60.22 65.67 57.78 67 58 z"/>
<path style="fill:#747575" d="M31 59 L32 60 C30.92 61.36 30.92 62.64 32 64 C29.77 68.9 30.24 60.56 28 63 C25.75 61.98 28.64 57.71 31 59 z"/>
<path style="fill:#f5f5f5" d="M33 60 L35 61 L39 66 L38 73 L37 72 L36 71 L34 68 L32 64 C30.92 62.64 30.92 61.36 32 60 L33 60 z"/>
<path style="fill:#0e0e0e" d="M20 66 L20 65 L20 66 z"/>
<path style="fill:#848585" d="M29 66 C29.37 67.92 33.37 69.25 34 68 L36 71 L38 77 C37.05 76.81 35.06 77.59 35 76 C36.15 75.27 30.79 65.47 30 71 C27.35 65.74 27.18 67.89 28 73 C27.34 73.02 25.85 73.18 26 72 C27.6 71.14 25.97 67.03 25 66 L22 63 L22 61 L29 66 z"/>
<path style="fill:#acadad" d="M65 62 C65.15 63.18 63.66 63.02 63 63 C62.98 62.18 64.87 60.13 65 62 z"/>
<path style="fill:#3b3b3b" d="M67 65 L67 66 L66 67 L65 68 L64 69 L63 63 C63.66 63.02 65.15 63.18 65 62 C67.38 59.85 67.1 63.3 67 65 z"/>
<path style="fill:#272828" d="M32 64 L34 68 C33.37 69.25 29.37 67.92 29 66 L28 63 C30.24 60.56 29.77 68.9 32 64 z"/>
<path style="fill:#2e2e2e" d="M59 62 L60 65 C58.08 64.19 58.72 65.6 56.25 67.75 C56.96 66.08 56.02 61.61 59 62 z"/>
<path style="fill:#505151" d="M25 66 L25 70 C23.66 70.33 22.26 69.29 22 68 L22 63 L25 66 z"/>
<path style="fill:#1f2020" d="M55 65 L55 64 L55 63 C56.33 62.78 56.33 65.22 55 65 z"/>
<path style="fill:#a5a5a5" d="M43 64 L41 72 L43 64 z"/>
<path style="fill:#a9aaaa" d="M46 72 L44 64 L46 72 z"/>
<path style="fill:#8c8c8c" d="M55 64 L55 65 L54 65 L55 64 z"/>
<path style="fill:#141414" d="M55 65 C55.76 66.19 53.93 70.25 53 68 L53 67 L54 66 L54 65 L55 65 z"/>
<path style="fill:#0d0e0e" d="M26 72 L25 71 L25 70 L25 66 C25.97 67.03 27.6 71.14 26 72 z"/>
<path style="fill:#bfc0c0" d="M40 74 L40 75 L38 73 L39 66 L40 74 z"/>
<path style="fill:#898989" d="M54 66 L53 67 L54 66 z"/>
<path style="fill:#101111" d="M62 70 L60 72 C60.49 68.81 62.24 63.22 62 70 z"/>
<path style="fill:#a4a4a4" d="M67 66 L66 67 L67 66 z"/>
<path style="fill:#121313" d="M30 71 L30 74 L29 74 L28 73 C27.18 67.89 27.35 65.74 30 71 z"/>
<path style="fill:#151616" d="M59 73 L56 74 C58.11 68.62 60.6 64.62 59 73 z"/>
<path style="fill:#a6a6a6" d="M66 67 L65 68 L66 67 z"/>
<path style="fill:#181919" d="M35 76 L32 75 C32.28 73.4 31.86 71.34 30 71 C30.79 65.47 36.15 75.27 35 76 z"/>
<path style="fill:#141414" d="M54 75 C54.15 76.18 52.66 76.02 52 76 C51.47 71.08 60.05 66 54 75 z"/>
<path style="fill:#939393" d="M26 72 L25 71 L26 72 z"/>
<path style="fill:#727373" d="M32 75 C31.34 75.02 29.85 75.18 30 74 L30 71 C31.86 71.34 32.28 73.4 32 75 z"/>
<path style="fill:#0e0e0e" d="M36 71 L37 72 L38 73 L40 75 L41 76 C41.15 77.18 39.66 77.02 39 77 L38 77 L36 71 z"/>
<path style="fill:#636363" d="M37 72 L36 71 L37 72 z"/>
<path style="fill:#171818" d="M51 71 L49 77 L48 77 C47.34 77.02 45.85 77.18 46 76 L47 75 L48 74 L49 73 L51 71 z"/>
<path style="fill:#999999" d="M38 73 L37 72 L38 73 z"/>
<path style="fill:#9a9a9a" d="M29 74 L28 73 L29 74 z"/>
<path style="fill:#939393" d="M49 73 L48 74 L49 73 z"/>
<path style="fill:#a6a6a6" d="M41 76 L40 75 L41 76 z"/>
<path style="fill:#959595" d="M47 75 L46 76 L47 75 z"/>
<path style="fill:#aaaaaa" d="M39 77 C39.66 77.02 41.15 77.18 41 76 C44.09 76.93 39.27 79.62 39 77 z"/>
<path style="fill:#a4a5a5" d="M46 76 C45.85 77.18 47.34 77.02 48 77 C47.73 79.62 42.91 76.93 46 76 z"/>
</svg>
