<?xml version="1.0" standalone="yes"?>
<svg width="87" height="97">
<path style="fill:#fdfdfd" d="M87 0 L87 97 L0 97 L0 0 L87 0 z"/>
<path style="fill:#9f9f9f" d="M49 21 L38 21 C40.31 19.34 46.69 19.34 49 21 z"/>
<path style="fill:#030404" d="M38 21 L49 21 C48.85 22.18 50.34 22.02 51 22 L52 22 C51.85 23.18 53.34 23.02 54 23 L55 23 L56 24 L57 24 L58 25 L62 28 L63 29 L64 30 L65 32 C64.54 33.35 65.65 34.46 67 34 L67 35 L68 36 L69 39 C69.19 39.95 68.41 41.94 70 42 L71 46 L71 52 L70 56 C68.82 55.85 68.98 57.34 69 58 L69 59 C67.82 58.85 67.98 60.34 68 61 C66.82 60.85 66.98 62.34 67 63 L66 65 L65 66 L64 67 L63 68 L62 69 L61 70 L60 71 L58 72 L57 73 C56.34 72.98 54.85 72.82 55 74 C54.34 73.98 52.85 73.82 53 75 C52.34 74.98 50.85 74.82 51 76 L48 76 L37 76 L35 76 C35.15 74.82 33.66 74.98 33 75 L32 75 C32.15 73.82 30.66 73.98 30 74 L29 73 C29.15 71.82 27.66 71.98 27 72 L26 71 L24 70 L23 69 L22 68 L20 65 L19 64 L17 60 L15 55 L15 45 L15 42 C16.18 42.15 16.02 40.66 16 40 L16 39 C17.18 39.15 17.02 37.66 17 37 L18 36 C19.18 36.15 19.02 34.66 19 34 L19 33 C20.35 33.46 21.46 32.35 21 31 L22 30 L23 29 L24 28 L25 27 C26.35 27.46 27.46 26.35 27 25 C27.66 25.02 29.15 25.18 29 24 L30 24 L31 23 L38 21 z"/>
<path style="fill:#727272" d="M51 22 C50.34 22.02 48.85 22.18 49 21 C49.66 20.98 51.15 20.82 51 22 z"/>
<path style="fill:#6e6f6f" d="M54 23 C53.34 23.02 51.85 23.18 52 22 C52.66 21.98 54.15 21.82 54 23 z"/>
<path style="fill:#5e5e5e" d="M31 23 L30 24 L31 23 z"/>
<path style="fill:#797979" d="M56 24 L55 23 L56 24 z"/>
<path style="fill:#868686" d="M29 24 C29.15 25.18 27.66 25.02 27 25 C26.85 23.82 28.34 23.98 29 24 z"/>
<path style="fill:#969696" d="M58 25 L57 24 L58 25 z"/>
<path style="fill:#646565" d="M27 25 C27.46 26.35 26.35 27.46 25 27 L27 25 z"/>
<path style="fill:#575757" d="M25 27 L24 28 L25 27 z"/>
<path style="fill:#585858" d="M24 28 L23 29 L24 28 z"/>
<path style="fill:#7e7e7e" d="M63 29 L62 28 L63 29 z"/>
<path style="fill:#737373" d="M64 30 L63 29 L64 30 z"/>
<path style="fill:#606060" d="M22 30 L21 31 L22 30 z"/>
<path style="fill:#ababab" d="M66 32 L65 32 L64 30 C65.35 29.54 66.46 30.65 66 32 z"/>
<path style="fill:#5d5e5e" d="M21 31 C21.46 32.35 20.35 33.46 19 33 L21 31 z"/>
<path style="fill:#505151" d="M66 32 L67 34 C65.65 34.46 64.54 33.35 65 32 L66 32 z"/>
<path style="fill:#525252" d="M19 34 C19.02 34.66 19.18 36.15 18 36 C17.98 35.34 17.82 33.85 19 34 z"/>
<path style="fill:#5e5e5e" d="M68 36 L67 35 L68 36 z"/>
<path style="fill:#989999" d="M17 37 C17.02 37.66 17.18 39.15 16 39 C15.98 38.34 15.82 36.85 17 37 z"/>
<path style="fill:#5a5b5b" d="M70 42 C68.41 41.94 69.19 39.95 69 39 C70.59 39.06 69.81 41.05 70 42 z"/>
<path style="fill:#a8a9a9" d="M16 40 C16.02 40.66 16.18 42.15 15 42 C14.98 41.34 14.82 39.85 16 40 z"/>
<path style="fill:#7a7a7a" d="M71 46 L70 42 L71 46 z"/>
<path style="fill:#bfbfbf" d="M15 45 L15 55 C13.34 53.01 13.34 46.99 15 45 z"/>
<path style="fill:#989898" d="M71 52 L70 56 L71 52 z"/>
<path style="fill:#a8a9a9" d="M17 60 C14.63 59.54 14.92 56.83 15 55 L17 60 z"/>
<path style="fill:#747575" d="M70 56 C70.02 56.66 70.18 58.15 69 58 C68.98 57.34 68.82 55.85 70 56 z"/>
<path style="fill:#858585" d="M69 59 C69.02 59.66 69.18 61.15 68 61 C67.98 60.34 67.82 58.85 69 59 z"/>
<path style="fill:#7a7a7a" d="M68 61 C68.02 61.66 68.18 63.15 67 63 C66.98 62.34 66.82 60.85 68 61 z"/>
<path style="fill:#7e7e7e" d="M20 65 L19 64 L20 65 z"/>
<path style="fill:#878787" d="M66 65 L65 66 L66 65 z"/>
<path style="fill:#777777" d="M65 66 L64 67 L65 66 z"/>
<path style="fill:#7b7b7b" d="M64 67 L63 68 L64 67 z"/>
<path style="fill:#a6a6a6" d="M23 69 L22 68 L23 69 z"/>
<path style="fill:#7a7a7a" d="M63 68 L62 69 L63 68 z"/>
<path style="fill:#a5a5a5" d="M24 70 L23 69 L24 70 z"/>
<path style="fill:#747474" d="M62 69 L61 70 L62 69 z"/>
<path style="fill:#868686" d="M61 70 L60 71 L61 70 z"/>
<path style="fill:#7d7d7d" d="M27 72 L26 71 L27 72 z"/>
<path style="fill:#737373" d="M29 73 C28.34 73.02 26.85 73.18 27 72 C27.66 71.98 29.15 71.82 29 73 z"/>
<path style="fill:#777777" d="M58 72 L57 73 L58 72 z"/>
<path style="fill:#8a8a8a" d="M30 74 L29 73 L30 74 z"/>
<path style="fill:#8a8a8a" d="M57 73 C57.15 74.18 55.66 74.02 55 74 C54.85 72.82 56.34 72.98 57 73 z"/>
<path style="fill:#abacac" d="M32 75 C31.34 75.02 29.85 75.18 30 74 C30.66 73.98 32.15 73.82 32 75 z"/>
<path style="fill:#858686" d="M55 74 C55.15 75.18 53.66 75.02 53 75 C52.85 73.82 54.34 73.98 55 74 z"/>
<path style="fill:#8e8e8e" d="M35 76 C34.34 76.02 32.85 76.18 33 75 C33.66 74.98 35.15 74.82 35 76 z"/>
<path style="fill:#a1a2a2" d="M53 75 C53.15 76.18 51.66 76.02 51 76 C50.85 74.82 52.34 74.98 53 75 z"/>
<path style="fill:#5d5e5e" d="M48 76 C45.69 77.66 39.31 77.66 37 76 L48 76 z"/>
</svg>
