<?xml version="1.0" standalone="yes"?>
<svg width="87" height="97">
<path style="fill:#fefefe" d="M87 0 L87 97 L0 97 L0 0 L87 0 z"/>
<path style="fill:#9a9a9a" d="M47 23 L40 23 C41.03 21.36 45.97 21.36 47 23 z"/>
<path style="fill:#7a7a7a" d="M40 23 C39.74 24.29 38.34 25.33 37 25 C37.26 23.71 38.66 22.67 40 23 z"/>
<path style="fill:#080909" d="M47 23 L50 25 L52 27 L52 28 C51.98 28.66 51.82 30.15 53 30 L53 35 L50 39 L49 40 L46 41 L42 41 L38 40 L35 35 L35 28 C36.18 28.15 36.02 26.66 36 26 L37 25 C38.34 25.33 39.74 24.29 40 23 L47 23 z"/>
<path style="fill:#909090" d="M37 25 L36 26 L37 25 z"/>
<path style="fill:#a7a8a8" d="M52 27 L50 25 C51.35 24.54 52.46 25.65 52 27 z"/>
<path style="fill:#686868" d="M36 26 C36.02 26.66 36.18 28.15 35 28 C34.98 27.34 34.82 25.85 36 26 z"/>
<path style="fill:#505050" d="M35 28 L35 35 L34 35 L35 28 z"/>
<path style="fill:#787878" d="M53 30 C51.82 30.15 51.98 28.66 52 28 C53.18 27.85 53.02 29.34 53 30 z"/>
<path style="fill:#5e5f5f" d="M58 34 C58.15 35.18 56.66 35.02 56 35 C55.85 33.82 57.34 33.98 58 34 z"/>
<path style="fill:#080808" d="M64 35 C63.85 36.18 65.34 36.02 66 36 L67 37 L68 38 C67.98 38.66 67.82 40.15 69 40 L69 47 L68 48 L68 49 L67 50 L66 51 L65 52 L64 52 C63.34 51.98 61.85 51.82 62 53 L59 53 L56 52 L52 48 L51 42 L51 40 L54 36 C54.66 36.02 56.15 36.18 56 35 C56.66 35.02 58.15 35.18 58 34 L64 35 z"/>
<path style="fill:#565757" d="M26 35 C26.15 36.18 24.66 36.02 24 36 C23.85 34.82 25.34 34.98 26 35 z"/>
<path style="fill:#080909" d="M30 35 C29.85 36.18 31.34 36.02 32 36 L33 36 L37 41 L37 44 L37 49 L35 51 L34 52 L32 53 L25 54 L23 53 C23.15 51.82 21.66 51.98 21 52 L21 51 L20 50 C18.82 50.15 18.98 48.66 19 48 L19 41 L19 40 L20 39 L21 38 L22 37 L23 36 L24 36 C24.66 36.02 26.15 36.18 26 35 L30 35 z"/>
<path style="fill:#868686" d="M32 36 C31.34 36.02 29.85 36.18 30 35 C30.66 34.98 32.15 34.82 32 36 z"/>
<path style="fill:#a3a4a4" d="M35 35 L38 40 L37 41 L33 36 L34 35 L35 35 z"/>
<path style="fill:#a7a8a8" d="M53 35 L54 36 L51 40 L50 39 L53 35 z"/>
<path style="fill:#686868" d="M56 35 C56.15 36.18 54.66 36.02 54 36 C53.85 34.82 55.34 34.98 56 35 z"/>
<path style="fill:#5f6060" d="M66 36 C65.34 36.02 63.85 36.18 64 35 C64.66 34.98 66.15 34.82 66 36 z"/>
<path style="fill:#909090" d="M23 36 L22 37 L23 36 z"/>
<path style="fill:#8e8e8e" d="M67 37 L66 36 L67 37 z"/>
<path style="fill:#8a8a8a" d="M68 38 L67 37 L68 38 z"/>
<path style="fill:#747474" d="M21 38 L20 39 L21 38 z"/>
<path style="fill:#939494" d="M69 40 C67.82 40.15 67.98 38.66 68 38 C69.18 37.85 69.02 39.34 69 40 z"/>
<path style="fill:#989898" d="M20 39 L19 40 L20 39 z"/>
<path style="fill:#7d7d7d" d="M50 39 L49 40 L50 39 z"/>
<path style="fill:#ececec" d="M51 40 L51 42 L49 43 C49.22 41.67 46.78 41.67 47 43 C45.82 43.15 45.98 41.66 46 41 L49 40 L50 39 L51 40 z"/>
<path style="fill:#d8d8d8" d="M38 40 L42 41 L43 43 L43 44 L43 46 L42 46 C42.02 45.34 42.18 43.85 41 44 C40.81 41.98 38.1 43.44 39 45 L37 44 L37 41 L38 40 z"/>
<path style="fill:#9b9b9b" d="M69 47 L69 40 C70.64 41.03 70.64 45.97 69 47 z"/>
<path style="fill:#5c5c5c" d="M19 41 L19 48 C17.36 46.97 17.36 42.03 19 41 z"/>
<path style="fill:#a1a1a1" d="M46 41 C45.98 41.66 45.82 43.15 47 43 C46.05 45.5 49.95 45.5 49 43 L51 42 L52 48 L50 48 C50.14 46.12 48.12 48.14 50 48 L49 50 C48.33 52.11 50.58 52.21 52 52 C52.19 53.55 55.81 53.55 56 52 L59 53 L59 54 C55.11 53.9 51.16 53.59 48 56 L48 55 C48.93 53.84 49.02 52.55 47 53 L46 53 C49.41 50.53 47.74 44.44 43 46 L43 44 C45.16 44.65 45.16 42.35 43 43 L42 41 L46 41 z"/>
<path style="fill:#939393" d="M49 43 L47 43 C46.78 41.67 49.22 41.67 49 43 z"/>
<path style="fill:#101111" d="M41 44 C41.15 45.18 39.66 45.02 39 45 C38.1 43.44 40.81 41.98 41 44 z"/>
<path style="fill:#040404" d="M43 44 L43 43 C45.16 42.35 45.16 44.65 43 44 z"/>
<path style="fill:#050606" d="M49 43 C49.95 45.5 46.05 45.5 47 43 L49 43 z"/>
<path style="fill:#919191" d="M39 45 C39.66 45.02 41.15 45.18 41 44 C42.18 43.85 42.02 45.34 42 46 C40.64 47.7 41.02 49.91 41 52 L40 52 C40.15 50.82 38.66 50.98 38 51 L39 49 C39.65 46.84 37.35 46.84 38 49 L37 49 L37 44 L39 45 z"/>
<path style="fill:#0b0c0c" d="M43 46 C47.74 44.44 49.41 50.53 46 53 L45 53 L41 52 C41.02 49.91 40.64 47.7 42 46 L43 46 z"/>
<path style="fill:#161717" d="M39 49 L38 49 C37.35 46.84 39.65 46.84 39 49 z"/>
<path style="fill:#090909" d="M50 48 C48.12 48.14 50.14 46.12 50 48 z"/>
<path style="fill:#5e5e5e" d="M69 47 L68 48 L69 47 z"/>
<path style="fill:#dcdcdc" d="M52 48 L56 52 C55.81 53.55 52.19 53.55 52 52 C52.67 49.89 50.42 49.79 49 50 L50 48 L52 48 z"/>
<path style="fill:#d9dada" d="M37 49 L38 49 L39 49 L38 51 C35.43 51.91 38.47 53.85 40 53 L40 55 L38 55 C38.15 53.82 36.66 53.98 36 54 L32 54 L32 53 L34 52 L35 51 L37 49 z"/>
<path style="fill:#848484" d="M68 49 L67 50 L68 49 z"/>
<path style="fill:#636363" d="M21 51 L20 50 L21 51 z"/>
<path style="fill:#1b1c1c" d="M52 52 C50.58 52.21 48.33 52.11 49 50 C50.42 49.79 52.67 49.89 52 52 z"/>
<path style="fill:#8a8a8a" d="M67 50 L66 51 L67 50 z"/>
<path style="fill:#606060" d="M35 51 L34 52 L35 51 z"/>
<path style="fill:#222222" d="M38 51 C38.66 50.98 40.15 50.82 40 52 L40 53 C38.47 53.85 35.43 51.91 38 51 z"/>
<path style="fill:#989898" d="M66 51 L65 52 L66 51 z"/>
<path style="fill:#969696" d="M23 53 C22.34 53.02 20.85 53.18 21 52 C21.66 51.98 23.15 51.82 23 53 z"/>
<path style="fill:#b9b9b9" d="M41 52 L45 53 L45 55 C44.34 54.98 42.85 54.82 43 56 L42 57 L40 55 L40 53 L40 52 L41 52 z"/>
<path style="fill:#585858" d="M64 52 C64.15 53.18 62.66 53.02 62 53 C61.85 51.82 63.34 51.98 64 52 z"/>
<path style="fill:#a9a9a9" d="M32 53 L32 54 L28 56 L25 54 L32 53 z"/>
<path style="fill:#d7d7d7" d="M46 53 L47 53 C46.98 53.66 46.82 55.15 48 55 L48 56 L46 60 L45 65 L44 65 C44.49 61.99 43.48 59.43 42 57 L43 56 C43.27 58.62 48.09 55.93 45 55 L45 53 L46 53 z"/>
<path style="fill:#1e1e1e" d="M48 55 C46.82 55.15 46.98 53.66 47 53 C49.02 52.55 48.93 53.84 48 55 z"/>
<path style="fill:#0a0a0a" d="M36 54 C35.85 55.18 37.34 55.02 38 55 L40 55 L42 57 C43.48 59.43 44.49 61.99 44 65 L44 67 L43 68 L42 70 L41 71 L40 72 C39.34 71.98 37.85 71.82 38 73 L32 73 C32.15 71.82 30.66 71.98 30 72 L29 72 L28 71 L27 70 L26 69 L26 67 L25 66 L25 62 C26.18 62.15 26.02 60.66 26 60 C25.98 59.34 25.82 57.85 27 58 C28.18 58.15 28.02 56.66 28 56 L32 54 L36 54 z"/>
<path style="fill:#777777" d="M38 55 C37.34 55.02 35.85 55.18 36 54 C36.66 53.98 38.15 53.82 38 55 z"/>
<path style="fill:#050505" d="M41 54 C42.88 53.86 40.86 55.88 41 54 z"/>
<path style="fill:#070707" d="M59 54 L61 56 L62 57 L63 58 C64.71 60.26 63.77 63.31 64 66 C62.82 65.85 62.98 67.34 63 68 L62 69 L61 70 L60 71 C59.34 70.98 57.85 70.82 58 72 L57 72 L52 72 C51.34 72.02 49.85 72.18 50 71 C50.15 69.82 48.66 69.98 48 70 L47 69 L47 68 L46 67 L46 66 L46 60 L48 56 C51.16 53.59 55.11 53.9 59 54 z"/>
<path style="fill:#aaaaaa" d="M61 56 L59 54 C60.35 53.54 61.46 54.65 61 56 z"/>
<path style="fill:#212121" d="M45 55 C48.09 55.93 43.27 58.62 43 56 C42.85 54.82 44.34 54.98 45 55 z"/>
<path style="fill:#818282" d="M28 56 C28.02 56.66 28.18 58.15 27 58 C26.98 57.34 26.82 55.85 28 56 z"/>
<path style="fill:#676767" d="M62 57 L61 56 L62 57 z"/>
<path style="fill:#717171" d="M63 58 L62 57 L63 58 z"/>
<path style="fill:#696969" d="M26 60 C26.02 60.66 26.18 62.15 25 62 C24.98 61.34 24.82 59.85 26 60 z"/>
<path style="fill:#626363" d="M46 60 L46 66 L45 65 L46 60 z"/>
<path style="fill:#5d5d5d" d="M26 67 L25 66 L26 67 z"/>
<path style="fill:#a5a5a5" d="M64 66 C64.02 66.66 64.18 68.15 63 68 C62.98 67.34 62.82 65.85 64 66 z"/>
<path style="fill:#999999" d="M44 67 L43 68 L44 67 z"/>
<path style="fill:#797979" d="M47 68 L46 67 L47 68 z"/>
<path style="fill:#8d8d8d" d="M63 68 L62 69 L63 68 z"/>
<path style="fill:#a2a2a2" d="M27 70 L26 69 L27 70 z"/>
<path style="fill:#a8a8a8" d="M48 70 L47 69 L48 70 z"/>
<path style="fill:#686868" d="M62 69 L61 70 L62 69 z"/>
<path style="fill:#a1a1a1" d="M28 71 L27 70 L28 71 z"/>
<path style="fill:#9c9c9c" d="M42 70 L41 71 L42 70 z"/>
<path style="fill:#606060" d="M50 71 C49.34 71.02 47.85 71.18 48 70 C48.66 69.98 50.15 69.82 50 71 z"/>
<path style="fill:#616161" d="M61 70 L60 71 L61 70 z"/>
<path style="fill:#aaaaaa" d="M29 72 L28 71 L29 72 z"/>
<path style="fill:#909090" d="M41 71 L40 72 L41 71 z"/>
<path style="fill:#787878" d="M60 71 C60.15 72.18 58.66 72.02 58 72 C57.85 70.82 59.34 70.98 60 71 z"/>
<path style="fill:#828383" d="M32 73 C31.34 73.02 29.85 73.18 30 72 C30.66 71.98 32.15 71.82 32 73 z"/>
<path style="fill:#9e9e9e" d="M40 72 C40.15 73.18 38.66 73.02 38 73 C37.85 71.82 39.34 71.98 40 72 z"/>
<path style="fill:#7c7d7d" d="M57 72 C56.55 73.6 52.45 73.6 52 72 L57 72 z"/>
</svg>
