<?xml version="1.0" standalone="yes"?>
<svg width="87" height="97">
<path style="fill:#fdfdfd" d="M87 0 L87 97 L0 97 L0 0 L87 0 z"/>
<path style="fill:#070808" d="M48 19 C47.85 20.18 49.34 20.02 50 20 L51 20 C50.85 21.18 52.34 21.02 53 21 L54 21 C51.6 25.92 44.86 33.92 44.75 41.75 C43 35.15 37.56 25.84 35 21 L36 21 C36.66 21.02 38.15 21.18 38 20 L39 20 L40 19 C42.7 17.89 45.3 17.89 48 19 z"/>
<path style="fill:#8e8e8e" d="M40 19 L39 20 L40 19 z"/>
<path style="fill:#808080" d="M50 20 C49.34 20.02 47.85 20.18 48 19 C48.66 18.98 50.15 18.82 50 20 z"/>
<path style="fill:#818181" d="M38 20 C38.15 21.18 36.66 21.02 36 21 C35.85 19.82 37.34 19.98 38 20 z"/>
<path style="fill:#a1a2a2" d="M53 21 C52.34 21.02 50.85 21.18 51 20 C51.66 19.98 53.15 19.82 53 21 z"/>
<path style="fill:#a8a8a8" d="M35 21 C37.56 25.84 43 35.15 44.75 41.75 C44.86 33.92 51.6 25.92 54 21 C55.35 20.54 56.46 21.65 56 23 C51.17 26.75 43.01 39.06 50 43 C50.15 44.18 48.66 44.02 48 44 L47 44 L42 43 L41 43 C43.25 35.91 37.85 27.76 33 23 C32.54 21.65 33.65 20.54 35 21 z"/>
<path style="fill:#aeaeae" d="M31 23 L27 23 C27.19 21.45 30.81 21.45 31 23 z"/>
<path style="fill:#b2b2b2" d="M62 23 L57 23 C57.45 21.4 61.55 21.4 62 23 z"/>
<path style="fill:#848484" d="M26 23 L25 24 L26 23 z"/>
<path style="fill:#040404" d="M27 23 L31 23 L33 23 C37.85 27.76 43.25 35.91 41 43 L39 44 L38 43 C35.39 39.07 33.17 46.85 38 45 C38.9 47.97 36.86 50.07 34 50 C30.32 51.43 26.08 50.95 22 51 L17 49 L16 48 L15 47 L15 46 C15.02 45.34 15.18 43.85 14 44 L14 41 C15.18 41.15 15.02 39.66 15 39 L15 38 L16 37 L17 36 L18 35 L19 35 L21 28 L22 26 L23 25 L25 24 L26 23 L27 23 z"/>
<path style="fill:#030404" d="M57 23 L62 23 L63 23 L64 24 L67 27 L68 28 L68 34 C67.85 35.18 69.34 35.02 70 35 L71 35 L72 36 L73 37 L73 38 L74 39 L74 40 L74 44 L74 46 L73 47 L72 49 C68.02 52.04 62.78 50.75 58 51 L52 49 L51 49 L51 45 C51.66 45.02 53.15 45.18 53 44 C56.16 43.04 51.96 38.84 51 42 L50 43 C43.01 39.06 51.17 26.75 56 23 L57 23 z"/>
<path style="fill:#878787" d="M64 24 L63 23 L64 24 z"/>
<path style="fill:#9b9b9b" d="M23 25 L22 26 L23 25 z"/>
<path style="fill:#999999" d="M68 28 L67 27 L68 28 z"/>
<path style="fill:#9a9b9b" d="M21 28 L19 35 L21 28 z"/>
<path style="fill:#787878" d="M70 35 C69.34 35.02 67.85 35.18 68 34 C68.66 33.98 70.15 33.82 70 35 z"/>
<path style="fill:#878787" d="M18 35 L17 36 L18 35 z"/>
<path style="fill:#a9a9a9" d="M72 36 L71 35 L72 36 z"/>
<path style="fill:#7b7b7b" d="M17 36 L16 37 L17 36 z"/>
<path style="fill:#a3a3a3" d="M73 37 L72 36 L73 37 z"/>
<path style="fill:#9c9c9c" d="M16 37 L15 38 L16 37 z"/>
<path style="fill:#5c5c5c" d="M74 39 L73 38 L74 39 z"/>
<path style="fill:#727272" d="M15 39 C15.02 39.66 15.18 41.15 14 41 C13.98 40.34 13.82 38.85 15 39 z"/>
<path style="fill:#636363" d="M74 44 L74 40 C75.55 40.19 75.55 43.81 74 44 z"/>
<path style="fill:#8b8b8b" d="M53 44 C53.46 42.65 52.35 41.54 51 42 C51.96 38.84 56.16 43.04 53 44 z"/>
<path style="fill:#dddede" d="M38 43 L39 44 L41 43 L42 43 L42 44 C40.71 44.26 39.67 45.66 40 47 L38 45 C33.17 46.85 35.39 39.07 38 43 z"/>
<path style="fill:#8a8a8a" d="M51 42 L50 43 L51 42 z"/>
<path style="fill:#f2f3f3" d="M53 44 C52.34 43.98 50.85 43.82 51 45 L50 45 L49 45 L48 44 C48.66 44.02 50.15 44.18 50 43 L51 42 C52.35 41.54 53.46 42.65 53 44 z"/>
<path style="fill:#888888" d="M39 44 L38 43 L39 44 z"/>
<path style="fill:#4d4e4e" d="M47 44 L42 44 L42 43 L47 44 z"/>
<path style="fill:#7c7d7d" d="M15 46 C13.82 46.15 13.98 44.66 14 44 C15.18 43.85 15.02 45.34 15 46 z"/>
<path style="fill:#090a0a" d="M42 44 L47 44 L48 44 L49 45 C48.98 47.09 49.36 49.3 48 51 C45.99 52.44 43.01 52.44 41 51 L40 47 C39.67 45.66 40.71 44.26 42 44 z"/>
<path style="fill:#a3a4a4" d="M53 44 C53.15 45.18 51.66 45.02 51 45 C50.85 43.82 52.34 43.98 53 44 z"/>
<path style="fill:#b6b6b6" d="M40 47 L41 51 L40 53 C35.68 56.01 32.2 60.36 30 65 L29 64 L35 55 C39.65 52.76 39.62 48.57 34 51 L34 50 C36.86 50.07 38.9 47.97 38 45 L40 47 z"/>
<path style="fill:#bebfbf" d="M50 45 L51 49 L52 49 L51 50 L58 61 L59 62 L60 65 L59 66 L59 65 L58 64 C55.94 59.81 53.06 55.63 49 53 L48 51 C49.36 49.3 48.98 47.09 49 45 L50 45 z"/>
<path style="fill:#565757" d="M51 45 L51 49 L50 45 L51 45 z"/>
<path style="fill:#686868" d="M74 46 L73 47 L74 46 z"/>
<path style="fill:#a2a2a2" d="M16 48 L15 47 L16 48 z"/>
<path style="fill:#878787" d="M17 49 L16 48 L17 49 z"/>
<path style="fill:#aeaeae" d="M22 51 C22.15 52.18 20.66 52.02 20 52 L17 52 C14.98 51.73 16.68 49.9 17 49 L22 51 z"/>
<path style="fill:#8a8b8b" d="M58 51 C57.34 50.98 55.85 50.82 56 52 L51 50 L52 49 L58 51 z"/>
<path style="fill:#aeaeae" d="M72 49 L72 51 L63 53 L58 52 L56 52 C55.85 50.82 57.34 50.98 58 51 C62.78 50.75 68.02 52.04 72 49 z"/>
<path style="fill:#9a9a9a" d="M34 50 L34 51 L34 52 L20 52 C20.66 52.02 22.15 52.18 22 51 C26.08 50.95 30.32 51.43 34 50 z"/>
<path style="fill:#1d1d1d" d="M35 55 L34 52 L34 51 C39.62 48.57 39.65 52.76 35 55 z"/>
<path style="fill:#070707" d="M51 50 L56 52 L58 52 L63 53 L72 51 L72 54 L71 58 L71 60 C69.41 60.06 70.19 62.05 70 63 L68 64 L67 65 L66 66 L63 68 L62 69 L60 65 L59 62 L58 61 L51 50 z"/>
<path style="fill:#060707" d="M20 52 L34 52 L35 55 L29 64 C27.82 63.85 27.98 65.34 28 66 L28 69 L27 69 L25 68 L24 67 L23 66 L22 65 L20 64 L19 63 C18.81 62.05 19.59 60.06 18 60 L17 55 L17 52 L20 52 z"/>
<path style="fill:#909090" d="M48 51 L49 53 L46 54 C46.22 52.67 43.78 52.67 44 54 L40 53 L41 51 C43.01 52.44 45.99 52.44 48 51 z"/>
<path style="fill:#626363" d="M63 53 L58 52 L63 53 z"/>
<path style="fill:#030404" d="M40 53 L44 54 L44 55 L43 56 C42.98 56.66 42.82 58.15 44 58 C43.78 59.33 46.22 59.33 46 58 C47.33 58.22 47.33 55.78 46 56 L46 54 L49 53 C53.06 55.63 55.94 59.81 58 64 L59 65 L59 66 L59 71 L59 72 L58 73 L58 74 L57 75 L56 76 L55 76 L54 77 L53 77 L48 77 L46 76 C46.9 74.44 44.19 72.98 44 75 L43 76 C42.34 75.98 40.85 75.82 41 77 L40 77 L35 77 L33 76 L32 75 L31 74 L30 73 L30 71 L30 65 C32.2 60.36 35.68 56.01 40 53 z"/>
<path style="fill:#dddede" d="M46 54 L46 56 L46 58 L44 58 C42.82 58.15 42.98 56.66 43 56 L44 55 L44 54 C43.78 52.67 46.22 52.67 46 54 z"/>
<path style="fill:#afb0b0" d="M72 54 L71 58 L72 54 z"/>
<path style="fill:#b4b4b4" d="M18 60 L17 55 L18 60 z"/>
<path style="fill:#737373" d="M44 55 L43 56 L44 55 z"/>
<path style="fill:#616161" d="M46 58 L46 56 C47.33 55.78 47.33 58.22 46 58 z"/>
<path style="fill:#707070" d="M46 58 C46.22 59.33 43.78 59.33 44 58 L46 58 z"/>
<path style="fill:#6c6d6d" d="M19 63 C17.41 62.94 18.19 60.95 18 60 C19.59 60.06 18.81 62.05 19 63 z"/>
<path style="fill:#9a9a9a" d="M71 60 C70.81 60.95 71.59 62.94 70 63 C70.19 62.05 69.41 60.06 71 60 z"/>
<path style="fill:#5b5b5b" d="M59 62 L58 61 L59 62 z"/>
<path style="fill:#9c9c9c" d="M20 64 L19 63 L20 64 z"/>
<path style="fill:#626363" d="M29 64 L30 65 L30 71 L28 66 C27.98 65.34 27.82 63.85 29 64 z"/>
<path style="fill:#585858" d="M59 65 L58 64 L59 65 z"/>
<path style="fill:#707070" d="M68 64 L67 65 L68 64 z"/>
<path style="fill:#6a6a6a" d="M23 66 L22 65 L23 66 z"/>
<path style="fill:#909191" d="M62 69 L59 71 L59 66 L60 65 L62 69 z"/>
<path style="fill:#959595" d="M67 65 L66 66 L67 65 z"/>
<path style="fill:#848484" d="M24 67 L23 66 L24 67 z"/>
<path style="fill:#9f9f9f" d="M25 68 L24 67 L25 68 z"/>
<path style="fill:#6b6b6b" d="M63 68 L62 69 L63 68 z"/>
<path style="fill:#5f5f5f" d="M28 69 C28.43 70.06 26.57 70.06 27 69 L28 69 z"/>
<path style="fill:#717171" d="M59 72 L58 73 L59 72 z"/>
<path style="fill:#a3a3a3" d="M31 74 L30 73 L31 74 z"/>
<path style="fill:#7d7d7d" d="M32 75 L31 74 L32 75 z"/>
<path style="fill:#4d4d4d" d="M46 76 L44 75 C44.19 72.98 46.9 74.44 46 76 z"/>
<path style="fill:#a7a7a7" d="M58 74 L57 75 L58 74 z"/>
<path style="fill:#737373" d="M33 76 L32 75 L33 76 z"/>
<path style="fill:#a9a9a9" d="M57 75 L56 76 L57 75 z"/>
<path style="fill:#a6a7a7" d="M43 76 C43.15 77.18 41.66 77.02 41 77 C40.85 75.82 42.34 75.98 43 76 z"/>
<path style="fill:#797979" d="M55 76 L54 77 L55 76 z"/>
<path style="fill:#a8a8a8" d="M40 77 C39.55 78.6 35.45 78.6 35 77 L40 77 z"/>
<path style="fill:#acadad" d="M53 77 C52.55 78.6 48.45 78.6 48 77 L53 77 z"/>
</svg>
