<?xml version="1.0" standalone="yes"?>
<svg width="87" height="97">
<path style="fill:#fcfdfd" d="M87 0 L87 97 L0 97 L0 0 L87 0 z"/>
<path style="fill:#9d9d9d" d="M44 17 L42 17 C41.78 15.67 44.22 15.67 44 17 z"/>
<path style="fill:#070707" d="M42 17 L44 17 L45 18 L46 19 L47 20 L48 22 L49 23 L49 25 C48.98 25.66 48.82 27.15 50 27 L50 30 C49.88 34.39 50.54 39.02 49 43 C48.49 45.56 51.42 46.07 53 47 L54 48 C53.85 49.18 55.34 49.02 56 49 L57 50 L58 51 L59 52 L60 54 L61 55 L63 60 C62.98 60.66 62.82 62.15 64 62 L64 64 L63.75 66.75 C59.87 62.46 55.98 55.25 50 53 C48.94 51.32 47.28 48.82 45 49 L45 47 L44 45 L43 19 L42 45 C40.71 45.26 39.67 46.66 40 48 L40 49 L39 50 C36.72 49.82 35.06 52.32 34 54 L33 55 C30.99 54.78 28.78 56.99 29 59 L28 60 L27 61 C24.09 61.36 21.08 70.61 21 64 L21 63 C22.18 63.15 22.02 61.66 22 61 L22 60 C23.18 60.15 23.02 58.66 23 58 L23 57 L24 56 L25 54 L26 53 L29 49 C29.66 49.02 31.15 49.18 31 48 L33 47 L34 46 L35 46 L36 45 C37.33 45.22 37.33 42.78 36 43 L36 41 C36.02 40.34 36.18 38.85 35 39 L35 30 L35 28 C36.18 28.15 36.02 26.66 36 26 L36 24 L37 23 L37 22 L38 21 L39 19 L40 18 L42 17 z"/>
<path style="fill:#929292" d="M45 18 L44 17 L45 18 z"/>
<path style="fill:#a5a5a5" d="M40 18 L39 19 L40 18 z"/>
<path style="fill:#a0a0a0" d="M43 19 L43 45 C43.43 46.06 41.57 46.06 42 45 L43 19 z"/>
<path style="fill:#636363" d="M46 19 L45 18 L46 19 z"/>
<path style="fill:#292a2a" d="M44 45 L43 45 L43 19 L44 45 z"/>
<path style="fill:#8f8f8f" d="M47 20 L46 19 L47 20 z"/>
<path style="fill:#9e9e9e" d="M38 21 L37 22 L38 21 z"/>
<path style="fill:#a8a8a8" d="M49 23 L48 22 L49 23 z"/>
<path style="fill:#a5a5a5" d="M37 23 L36 24 L37 23 z"/>
<path style="fill:#8a8a8a" d="M50 27 C48.82 27.15 48.98 25.66 49 25 C50.18 24.85 50.02 26.34 50 27 z"/>
<path style="fill:#9d9e9e" d="M36 26 C36.02 26.66 36.18 28.15 35 28 C34.98 27.34 34.82 25.85 36 26 z"/>
<path style="fill:#939393" d="M17 30 L16 31 L17 30 z"/>
<path style="fill:#1f2020" d="M21 30 L22 31 L22 33 L23 39 L20 37 C17.42 35.86 13.41 35.09 16 31 L17 30 L21 30 z"/>
<path style="fill:#9d9d9d" d="M22 31 L21 30 L22 31 z"/>
<path style="fill:#c4c5c5" d="M35 30 L35 39 L34 40 L33 38 L35 30 z"/>
<path style="fill:#7c7c7c" d="M52 39 L51 42 L49 43 C50.54 39.02 49.88 34.39 50 30 L52 39 z"/>
<path style="fill:#191a1a" d="M65 37 L64 37 L64 31 C69.84 26.37 72 37.77 65 37 z"/>
<path style="fill:#b1b1b1" d="M64 31 L64 37 L63 38 L60 39 C60.77 37.33 62.78 36.24 62 34 L64 31 z"/>
<path style="fill:#121313" d="M27 32 L28 33 L29 34 L28 38 L27 38 L26 39 L25 39 L23 34 C23.61 32.76 25.56 32.02 27 32 z"/>
<path style="fill:#6a6a6a" d="M28 33 L27 32 L28 33 z"/>
<path style="fill:#8d8d8d" d="M58 32 L57 33 L58 32 z"/>
<path style="fill:#111111" d="M62 34 C62.78 36.24 60.77 37.33 60 39 L59 39 C59.15 37.82 57.66 37.98 57 38 L56 34 L57 33 L58 32 C59.44 32.02 61.39 32.76 62 34 z"/>
<path style="fill:#babbbb" d="M22 33 L23 34 L25 39 L23 39 L22 33 z"/>
<path style="fill:#808080" d="M29 34 L28 33 L29 34 z"/>
<path style="fill:#9b9b9b" d="M57 33 L56 34 L57 33 z"/>
<path style="fill:#a4a4a4" d="M56 34 L57 38 L52 38 C53.93 37.02 55.02 35.93 56 34 z"/>
<path style="fill:#929292" d="M18 37 L17 38 L18 37 z"/>
<path style="fill:#0c0d0d" d="M19 37 L22 40 L22 42 L20 44 L17 44 C17.02 43.34 17.18 41.85 16 42 L15 41 L17 38 L18 37 L19 37 z"/>
<path style="fill:#9c9d9d" d="M20 37 L23 39 L22 40 L19 37 L20 37 z"/>
<path style="fill:#7c7c7c" d="M33 38 L31 38 C30.78 36.67 33.22 36.67 33 38 z"/>
<path style="fill:#171717" d="M64 37 L63 38 L64 37 z"/>
<path style="fill:#909191" d="M65 37 C65.95 37.19 67.94 36.41 68 38 C65.76 37.22 64.67 39.23 63 40 L63 38 L64 37 L65 37 z"/>
<path style="fill:#797979" d="M27 38 L26 39 L27 38 z"/>
<path style="fill:#d7d8d8" d="M28 38 L29 43 C29.16 47.38 23.51 40.59 26 39 L27 38 L28 38 z"/>
<path style="fill:#0f0f0f" d="M31 38 L33 38 L34 40 L34 42 L33 43 L31 44 L29 43 L28 38 L31 38 z"/>
<path style="fill:#0a0a0a" d="M57 38 L57 39 L57 41 L57 42 L56 43 L55 44 L54 44 L53 43 L51 42 L52 39 L52 38 L57 38 z"/>
<path style="fill:#dbdcdc" d="M59 39 L60 42 L56 43 L57 42 L57 41 C58.33 41.22 58.33 38.78 57 39 L57 38 C57.66 37.98 59.15 37.82 59 39 z"/>
<path style="fill:#474747" d="M63 38 L63 40 L63 42 L60 42 L59 39 L60 39 L63 38 z"/>
<path style="fill:#111212" d="M68 38 L69 39 L70 40 L69 43 L68 44 L65 44 L63 42 L63 40 C64.67 39.23 65.76 37.22 68 38 z"/>
<path style="fill:#8f8f8f" d="M69 39 L68 38 L69 39 z"/>
<path style="fill:#4a4a4a" d="M25 39 L26 39 C23.51 40.59 29.16 47.38 29 43 L31 44 C30.38 45.07 28.95 47.54 31 48 C31.15 49.18 29.66 49.02 29 49 C28.94 47.41 26.95 48.19 26 48 L26 46 C27.38 45.13 24.24 40.83 22 42 L22 40 L23 39 L25 39 z"/>
<path style="fill:#656565" d="M36 41 L34 42 L34 40 L35 39 C36.18 38.85 36.02 40.34 36 41 z"/>
<path style="fill:#757575" d="M57 41 L57 39 C58.33 38.78 58.33 41.22 57 41 z"/>
<path style="fill:#9e9e9e" d="M70 40 L69 39 L70 40 z"/>
<path style="fill:#7e7e7e" d="M16 42 L15 41 L16 42 z"/>
<path style="fill:#e5e5e5" d="M36 41 L36 43 L36 45 L35 46 L34 46 L33 47 L31 48 C28.95 47.54 30.38 45.07 31 44 L33 43 L34 42 L36 41 z"/>
<path style="fill:#959696" d="M17 44 C15.82 44.15 15.98 42.66 16 42 C17.18 41.85 17.02 43.34 17 44 z"/>
<path style="fill:#b6b7b7" d="M22 42 L23 44 L20 45 L20 44 L22 42 z"/>
<path style="fill:#f8f8f8" d="M26 46 L25 46 L24 45 L23 44 L22 42 C24.24 40.83 27.38 45.13 26 46 z"/>
<path style="fill:#888888" d="M34 42 L33 43 L34 42 z"/>
<path style="fill:#e3e4e4" d="M51 42 L53 43 L54 44 L55 44 L54 48 L53 47 C51.42 46.07 48.49 45.56 49 43 L51 42 z"/>
<path style="fill:#858585" d="M57 42 L56 43 L57 42 z"/>
<path style="fill:#444545" d="M60 42 L60 46 L60 48 L56 49 C55.34 49.02 53.85 49.18 54 48 L55 44 L56 43 L60 42 z"/>
<path style="fill:#dfdfdf" d="M63 42 L65 44 C62.76 43.22 61.67 45.23 60 46 L60 42 L63 42 z"/>
<path style="fill:#555555" d="M36 45 L36 43 C37.33 42.78 37.33 45.22 36 45 z"/>
<path style="fill:#696969" d="M54 44 L53 43 L54 44 z"/>
<path style="fill:#8a8a8a" d="M69 43 L68 44 L69 43 z"/>
<path style="fill:#101010" d="M23 44 L24 45 L25 46 L26 46 L26 48 L21 51 C21.02 50.34 21.18 48.85 20 49 L19 48 L20 45 L23 44 z"/>
<path style="fill:#969696" d="M24 45 L23 44 L24 45 z"/>
<path style="fill:#141414" d="M65 44 C64.98 44.66 64.82 46.15 66 46 L66 49 L65 50 L64 51 C62.15 51.33 60.67 49.46 60 48 L60 46 C61.67 45.23 62.76 43.22 65 44 z"/>
<path style="fill:#848484" d="M25 46 L24 45 L25 46 z"/>
<path style="fill:#707070" d="M36 45 L35 46 L36 45 z"/>
<path style="fill:#555656" d="M42 45 C41.57 46.06 43.43 46.06 43 45 L44 45 L45 47 L40 48 C39.67 46.66 40.71 45.26 42 45 z"/>
<path style="fill:#5d5d5d" d="M34 46 L33 47 L34 46 z"/>
<path style="fill:#aaabab" d="M66 49 L66 46 C67.48 45.96 67.48 49.04 66 49 z"/>
<path style="fill:#929393" d="M45 47 L45 49 L40 49 L40 48 L45 47 z"/>
<path style="fill:#636363" d="M54 48 L53 47 L54 48 z"/>
<path style="fill:#6b6b6b" d="M20 49 L19 48 L20 49 z"/>
<path style="fill:#838484" d="M21 51 C19.82 51.15 19.98 49.66 20 49 C21.18 48.85 21.02 50.34 21 51 z"/>
<path style="fill:#c0c0c0" d="M40 49 L39 50 L40 49 z"/>
<path style="fill:#090909" d="M45 49 C46.06 50.68 47.72 53.18 50 53 L63 69 L61 69 C61.15 67.82 59.66 67.98 59 68 L53 66 L52 65 L51 64 L50 64 C50.15 62.82 48.66 62.98 48 63 L47 62 L44 60 C44.04 58.52 40.96 58.52 41 60 L40 61 L39 62 L38 62 L36 64 L33 65 L32 66 L31 66 L30 67 L29 67 L28 68 L27 68 C26.34 67.98 24.85 67.82 25 69 L22 69 L27 61 L28 60 L29 59 L33 55 L34 54 C36.28 54.18 37.94 51.68 39 50 L40 49 L45 49 z"/>
<path style="fill:#8b8c8c" d="M50 53 C47.72 53.18 46.06 50.68 45 49 C47.28 48.82 48.94 51.32 50 53 z"/>
<path style="fill:#929292" d="M57 50 L56 49 L57 50 z"/>
<path style="fill:#8b8b8b" d="M39 50 C37.94 51.68 36.28 54.18 34 54 C35.06 52.32 36.72 49.82 39 50 z"/>
<path style="fill:#a1a1a1" d="M58 51 L57 50 L58 51 z"/>
<path style="fill:#909090" d="M65 50 L64 51 L65 50 z"/>
<path style="fill:#939393" d="M59 52 L58 51 L59 52 z"/>
<path style="fill:#767676" d="M26 53 L25 54 L26 53 z"/>
<path style="fill:#7e7f7f" d="M64 64 C65.73 64.56 65.79 69.88 63 69 L50 53 C55.98 55.25 59.87 62.46 63.75 66.75 L64 64 z"/>
<path style="fill:#aaaaaa" d="M34 54 L33 55 L34 54 z"/>
<path style="fill:#7d7d7d" d="M61 55 L60 54 L61 55 z"/>
<path style="fill:#898989" d="M33 55 L29 59 C28.78 56.99 30.99 54.78 33 55 z"/>
<path style="fill:#8a8a8a" d="M24 56 L23 57 L24 56 z"/>
<path style="fill:#838484" d="M23 58 C23.02 58.66 23.18 60.15 22 60 C21.98 59.34 21.82 57.85 23 58 z"/>
<path style="fill:#b2b2b2" d="M29 59 L28 60 L29 59 z"/>
<path style="fill:#696969" d="M44 60 L43 78 L42 60 L41 60 C40.96 58.52 44.04 58.52 44 60 z"/>
<path style="fill:#bcbcbc" d="M28 60 L27 61 L28 60 z"/>
<path style="fill:#b6b6b6" d="M41 60 L42 60 L42 78 L40 61 L41 60 z"/>
<path style="fill:#030404" d="M43 78 L42 78 L42 60 L43 78 z"/>
<path style="fill:#626363" d="M64 62 C62.82 62.15 62.98 60.66 63 60 C64.18 59.85 64.02 61.34 64 62 z"/>
<path style="fill:#686969" d="M22 61 C22.02 61.66 22.18 63.15 21 63 C20.98 62.34 20.82 60.85 22 61 z"/>
<path style="fill:#848484" d="M27 61 L22 69 C19.21 69.88 19.27 64.56 21 64 C21.08 70.61 24.09 61.36 27 61 z"/>
<path style="fill:#9b9b9b" d="M40 61 L39 62 L40 61 z"/>
<path style="fill:#9b9b9b" d="M38 62 L38 64 L36 64 L38 62 z"/>
<path style="fill:#a7a7a7" d="M48 63 L47 62 L48 63 z"/>
<path style="fill:#7d7e7e" d="M50 64 L49 64 L48 64 L48 63 C48.66 62.98 50.15 62.82 50 64 z"/>
<path style="fill:#1a1a1a" d="M38 64 L38 65 L39 66 L39 68 L39 78 L38 78 L37 68 L36 64 L38 64 z"/>
<path style="fill:#7e7e7e" d="M48 64 L47 65 L48 64 z"/>
<path style="fill:#111212" d="M49 64 L49 66 C47.82 65.85 47.98 67.34 48 68 L48 69 L46 77 L46 68 C47.18 68.15 47.02 66.66 47 66 L47 65 L48 64 L49 64 z"/>
<path style="fill:#626262" d="M52 65 L51 64 L52 65 z"/>
<path style="fill:#888888" d="M33 65 L32 66 L33 65 z"/>
<path style="fill:#a2a2a2" d="M39 66 L38 65 L39 66 z"/>
<path style="fill:#a5a5a5" d="M53 66 L52 65 L53 66 z"/>
<path style="fill:#959595" d="M31 66 L30 67 L31 66 z"/>
<path style="fill:#747474" d="M47 66 C47.02 66.66 47.18 68.15 46 68 C45.98 67.34 45.82 65.85 47 66 z"/>
<path style="fill:#9b9b9b" d="M49 66 C49.02 66.66 49.18 68.15 48 68 C47.98 67.34 47.82 65.85 49 66 z"/>
<path style="fill:#a9a9a9" d="M29 67 L28 68 L29 67 z"/>
<path style="fill:#adaeae" d="M27 68 C27.15 69.18 25.66 69.02 25 69 C24.85 67.82 26.34 67.98 27 68 z"/>
<path style="fill:#c9c9c9" d="M38 78 L37 68 L38 78 z"/>
<path style="fill:#7d7d7d" d="M39 78 L39 68 C40.66 69.99 40.66 76.01 39 78 z"/>
<path style="fill:#e1e1e1" d="M46 68 L46 77 L46 78 C44.34 76.01 44.34 69.99 46 68 z"/>
<path style="fill:#888989" d="M61 69 C60.34 69.02 58.85 69.18 59 68 C59.66 67.98 61.15 67.82 61 69 z"/>
<path style="fill:#626262" d="M48 69 L46 78 L46 77 L48 69 z"/>
</svg>
