<?xml version="1.0" standalone="yes"?>
<svg width="87" height="97">
<path style="fill:#fcfdfd" d="M87 0 L87 97 L0 97 L0 0 L87 0 z"/>
<path style="fill:#8c8d8d" d="M28 25 L26 25 C25.78 23.67 28.22 23.67 28 25 z"/>
<path style="fill:#6f7070" d="M60 24 C60.15 25.18 58.66 25.02 58 25 C57.85 23.82 59.34 23.98 60 24 z"/>
<path style="fill:#060707" d="M62 24 L63 25 C65.03 26.21 67.67 28.24 67 31 L67 33 L67 35 L66 36 L65 37 L62 39 L61 40 L59 40 L58 39 L56 39 L55 38 L51 38 C51.15 36.82 49.66 36.98 49 37 L42 37 C41.34 36.98 39.85 36.82 40 38 L36 38 L35 39 L32 39 L31 40 L25 40 L24 39 L23 38 L22 38 C22.46 36.65 21.35 35.54 20 36 C19.63 33.03 17.83 29.31 22 28 L23 27 L26 25 L28 25 L30 25 C29.85 26.18 31.34 26.02 32 26 L51 26 L57 25 L58 25 C58.66 25.02 60.15 25.18 60 24 L62 24 z"/>
<path style="fill:#767676" d="M63 25 L62 24 L63 25 z"/>
<path style="fill:#7c7d7d" d="M32 26 C31.34 26.02 29.85 26.18 30 25 C30.66 24.98 32.15 24.82 32 26 z"/>
<path style="fill:#4d4e4e" d="M57 25 L51 26 L57 25 z"/>
<path style="fill:#939393" d="M23 27 L22 28 L23 27 z"/>
<path style="fill:#696969" d="M67 33 L67 31 C68.33 30.78 68.33 33.22 67 33 z"/>
<path style="fill:#949494" d="M67 35 L66 36 L67 35 z"/>
<path style="fill:#929393" d="M22 38 L20 36 C21.35 35.54 22.46 36.65 22 38 z"/>
<path style="fill:#959595" d="M66 36 L65 37 L66 36 z"/>
<path style="fill:#ababab" d="M42 37 C42.15 38.18 40.66 38.02 40 38 C39.85 36.82 41.34 36.98 42 37 z"/>
<path style="fill:#acacac" d="M51 38 C50.34 38.02 48.85 38.18 49 37 C49.66 36.98 51.15 36.82 51 38 z"/>
<path style="fill:#656565" d="M24 39 L23 38 L24 39 z"/>
<path style="fill:#5d5d5d" d="M36 38 L35 39 L36 38 z"/>
<path style="fill:#818181" d="M56 39 L55 38 L56 39 z"/>
<path style="fill:#8e8e8e" d="M25 40 L24 39 L25 40 z"/>
<path style="fill:#686868" d="M32 39 L31 40 L32 39 z"/>
<path style="fill:#5b5b5b" d="M59 40 L58 39 L59 40 z"/>
<path style="fill:#787878" d="M62 39 L61 40 L62 39 z"/>
<path style="fill:#0a0a0a" d="M47 40 L48 41 C50.03 42.21 52.67 44.24 52 47 L52 50 L52 52 L51 53 L51 54 L50 55 L49 56 L48 56 L47 57 C44.31 56.77 41.26 57.71 39 56 L38 55 L37 54 L36 53 L36 52 C36.02 51.34 36.18 49.85 35 50 C34.23 43.23 40.31 38.18 47 40 z"/>
<path style="fill:#636363" d="M48 41 L47 40 L48 41 z"/>
<path style="fill:#a5a5a5" d="M52 50 L52 47 C53.48 46.96 53.48 50.04 52 50 z"/>
<path style="fill:#939393" d="M36 52 C34.82 52.15 34.98 50.66 35 50 C36.18 49.85 36.02 51.34 36 52 z"/>
<path style="fill:#686868" d="M52 52 L51 53 L52 52 z"/>
<path style="fill:#999999" d="M37 54 L36 53 L37 54 z"/>
<path style="fill:#6e6e6e" d="M38 55 L37 54 L38 55 z"/>
<path style="fill:#a3a3a3" d="M51 54 L50 55 L51 54 z"/>
<path style="fill:#8d8d8d" d="M39 56 L38 55 L39 56 z"/>
<path style="fill:#969696" d="M50 55 L49 56 L50 55 z"/>
<path style="fill:#757575" d="M48 56 L47 57 L48 56 z"/>
<path style="fill:#858686" d="M34 58 L29 58 C29.45 56.4 33.55 56.4 34 58 z"/>
<path style="fill:#626262" d="M28 58 L27 59 L28 58 z"/>
<path style="fill:#080808" d="M29 58 L34 58 L38 60 L39 61 L39 62 C38.98 62.66 38.82 64.15 40 64 C40.75 68.12 38.32 73.36 34 74 L30 74 L28 74 L27 73 C22.98 71.01 22.4 65.66 24 62 L25 61 L27 59 L28 58 L29 58 z"/>
<path style="fill:#070808" d="M58 58 C57.85 59.18 59.34 59.02 60 59 L61 60 L62 61 C63.18 60.85 63.02 62.34 63 63 L64 64 L64 69 L63 70 C61.82 69.85 61.98 71.34 62 72 L61 73 L60 74 C59.34 73.98 57.85 73.82 58 75 L54 75 C54.15 73.82 52.66 73.98 52 74 L51 74 L49 72 L48 71 L48 70 C48.02 69.34 48.18 67.85 47 68 L47 64 L48 63 L48 62 L49 61 L50 60 L51 59 C52.97 57.44 55.61 58.14 58 58 z"/>
<path style="fill:#8b8c8c" d="M60 59 C59.34 59.02 57.85 59.18 58 58 C58.66 57.98 60.15 57.82 60 59 z"/>
<path style="fill:#656565" d="M51 59 L50 60 L51 59 z"/>
<path style="fill:#5e5e5e" d="M61 60 L60 59 L61 60 z"/>
<path style="fill:#a5a5a5" d="M39 61 L38 60 L39 61 z"/>
<path style="fill:#5d5d5d" d="M62 61 L61 60 L62 61 z"/>
<path style="fill:#717171" d="M25 61 L24 62 L25 61 z"/>
<path style="fill:#a4a4a4" d="M49 61 L48 62 L49 61 z"/>
<path style="fill:#767676" d="M40 64 C38.82 64.15 38.98 62.66 39 62 C40.18 61.85 40.02 63.34 40 64 z"/>
<path style="fill:#a9a9a9" d="M48 63 L47 64 L48 63 z"/>
<path style="fill:#737373" d="M64 64 L63 63 L64 64 z"/>
<path style="fill:#7d7e7e" d="M48 70 C46.82 70.15 46.98 68.66 47 68 C48.18 67.85 48.02 69.34 48 70 z"/>
<path style="fill:#5f5f5f" d="M64 69 L63 70 L64 69 z"/>
<path style="fill:#636464" d="M63 70 C63.02 70.66 63.18 72.15 62 72 C61.98 71.34 61.82 69.85 63 70 z"/>
<path style="fill:#9f9f9f" d="M49 72 L48 71 L49 72 z"/>
<path style="fill:#aaaaaa" d="M51 74 C49.65 74.46 48.54 73.35 49 72 L51 74 z"/>
<path style="fill:#757575" d="M62 72 L61 73 L62 72 z"/>
<path style="fill:#737373" d="M28 74 L27 73 L28 74 z"/>
<path style="fill:#848484" d="M61 73 L60 74 L61 73 z"/>
<path style="fill:#797a7a" d="M34 74 C33.81 75.55 30.19 75.55 30 74 L34 74 z"/>
<path style="fill:#6d6d6d" d="M54 75 C53.34 75.02 51.85 75.18 52 74 C52.66 73.98 54.15 73.82 54 75 z"/>
<path style="fill:#acacac" d="M60 74 C60.15 75.18 58.66 75.02 58 75 C57.85 73.82 59.34 73.98 60 74 z"/>
</svg>
