<?xml version="1.0" standalone="yes"?>
<svg width="87" height="97">
<path style="fill:#fdfdfd" d="M87 0 L87 97 L0 97 L0 0 L87 0 z"/>
<path style="fill:#bebfbf" d="M48 27 L44 27 L42 27 L39 27 C40.66 25.35 46.34 25.35 48 27 z"/>
<path style="fill:#656565" d="M38 27 C36.28 28.24 33.91 28.67 35 32 L35 34 L31 29 C32.48 27.42 35.54 26.86 38 27 z"/>
<path style="fill:#040505" d="M39 27 L42 27 L42 59 C42.43 60.06 40.57 60.06 41 59 C40.13 49.77 37.25 40.35 35 32 C33.91 28.67 36.28 28.24 38 27 L39 27 z"/>
<path style="fill:#3f3f3f" d="M44 27 L44.25 52.75 L50 36 L51 37 L44 58 L42 59 L42 27 L44 27 z"/>
<path style="fill:#050505" d="M48 27 L50 27 C49.85 28.18 51.34 28.02 52 28 L50 36 L44.25 52.75 L44 27 L48 27 z"/>
<path style="fill:#595959" d="M52 28 C51.34 28.02 49.85 28.18 50 27 C50.66 26.98 52.15 26.82 52 28 z"/>
<path style="fill:#5d5d5d" d="M56 29 C51.73 28.26 51.54 34.05 51 37 L50 36 L52 28 L56 29 z"/>
<path style="fill:#a8a8a8" d="M29 29 L28 30 L29 29 z"/>
<path style="fill:#070808" d="M31 29 L35 34 L38.75 54.75 L36 52 C35.03 48.9 33.81 44.88 31 43 C30.4 40.54 29.42 37.25 27 36 L26 31 L28 30 L29 29 L31 29 z"/>
<path style="fill:#070808" d="M56 29 L57 29 C56.85 30.18 58.34 30.02 59 30 C58.85 31.18 60.34 31.02 61 31 L61 33 C58.58 34.25 57.6 37.54 57 40 C53.87 43.08 51.26 47.68 50 52 C48.71 52.26 47.67 53.66 48 55 L44 58 L51 37 C51.54 34.05 51.73 28.26 56 29 z"/>
<path style="fill:#a9aaaa" d="M59 30 C58.34 30.02 56.85 30.18 57 29 C57.66 28.98 59.15 28.82 59 30 z"/>
<path style="fill:#9b9b9b" d="M61 31 C60.34 31.02 58.85 31.18 59 30 C59.66 29.98 61.15 29.82 61 31 z"/>
<path style="fill:#787878" d="M26 31 L27 36 L23 33 L26 31 z"/>
<path style="fill:#949494" d="M38 31 C42.39 30.54 37.54 35.39 38 31 z"/>
<path style="fill:#5a5a5a" d="M47 31 L47 33 C45.67 33.22 45.67 30.78 47 31 z"/>
<path style="fill:#aaabab" d="M47 33 L47 31 C48.33 30.78 48.33 33.22 47 33 z"/>
<path style="fill:#4b4c4c" d="M41 59 L40 59 C37.58 57.75 36.6 54.46 36 52 L38.75 54.75 L35 34 L35 32 C37.25 40.35 40.13 49.77 41 59 z"/>
<path style="fill:#0a0a0a" d="M63 32 L64 33 L66 34 L67 35 L68 36 L69 37 L64 43 L61 46 C56.88 47.18 53.82 51.85 51 55 L49 57 C47.82 57.15 47.98 55.66 48 55 C49.29 54.74 50.33 53.34 50 52 C53.13 48.92 55.74 44.32 57 40 L62 33 L63 32 z"/>
<path style="fill:#848484" d="M64 33 L63 32 L64 33 z"/>
<path style="fill:#0a0a0a" d="M23 33 L27 36 C27.6 38.46 28.58 41.75 31 43 C31.97 46.1 33.19 50.12 36 52 C36.6 54.46 37.58 57.75 40 59 L41 63 L39 61 L32 54 C32.46 52.65 31.35 51.54 30 52 L18 37 L19 36 L20 35 L21 34 L23 33 z"/>
<path style="fill:#989898" d="M30 33 C34.39 32.54 29.54 37.39 30 33 z"/>
<path style="fill:#b4b5b5" d="M56 33 L56 35 C54.67 35.22 54.67 32.78 56 33 z"/>
<path style="fill:#5a5a5a" d="M56 35 L56 33 C57.33 32.78 57.33 35.22 56 35 z"/>
<path style="fill:#606161" d="M61 33 L62 33 L57 40 C57.6 37.54 58.58 34.25 61 33 z"/>
<path style="fill:#7d7d7d" d="M21 34 L20 35 L21 34 z"/>
<path style="fill:#828282" d="M67 35 L66 34 L67 35 z"/>
<path style="fill:#676767" d="M20 35 L19 36 L20 35 z"/>
<path style="fill:#616161" d="M68 36 L67 35 L68 36 z"/>
<path style="fill:#575858" d="M31 43 C28.58 41.75 27.6 38.46 27 36 C29.42 37.25 30.4 40.54 31 43 z"/>
<path style="fill:#585858" d="M18 37 L30 52 L16 39 L18 37 z"/>
<path style="fill:#555555" d="M24 39 L23 38 C23.33 35.34 26.66 38.67 24 39 z"/>
<path style="fill:#6e6e6e" d="M64 38 L63 39 C60.34 38.67 63.67 35.34 64 38 z"/>
<path style="fill:#626363" d="M71 39 L64 43 L69 37 L71 39 z"/>
<path style="fill:#f1f1f1" d="M24 39 L23 38 L24 39 z"/>
<path style="fill:#eeeeee" d="M64 38 L63 39 L64 38 z"/>
<path style="fill:#0a0b0b" d="M16 39 L30 52 L32 54 C32.47 56.34 35.16 59.27 31 57 L30 57 L29 56 L28 56 L26 54 L25 54 L24 53 L23 53 L21 51 L20 51 L17 49 L15 48 L14 47 L13 47 L12 46 L12 44 L12 43 L13 42 L14 41 L16 39 z"/>
<path style="fill:#090909" d="M71 39 L72 40 L73 41 L74 43 L75 44 C75.02 44.66 75.18 46.15 74 46 C67.9 44.57 61.02 47.18 61 54 L60 55 L59 56 L58 56 L57 57 C55.65 57.91 53.41 58.07 53 60 L52 60 L51 61 L50 61 L49 62 L47 63 C46.1 63.32 44.27 65.02 44 63 L49 57 C50.35 57.46 51.46 56.35 51 55 C55.12 53.82 58.18 49.15 61 46 C62.69 46.41 64.41 44.69 64 43 L71 39 z"/>
<path style="fill:#6f6f6f" d="M72 40 L71 39 L72 40 z"/>
<path style="fill:#535353" d="M57 40 C55.74 44.32 53.13 48.92 50 52 C51.26 47.68 53.87 43.08 57 40 z"/>
<path style="fill:#989898" d="M73 41 L72 40 L73 41 z"/>
<path style="fill:#646464" d="M14 41 L13 42 L14 41 z"/>
<path style="fill:#a2a2a2" d="M13 42 L12 43 L13 42 z"/>
<path style="fill:#5b5b5b" d="M18 45 L17 44 C17.33 41.34 20.66 44.67 18 45 z"/>
<path style="fill:#555656" d="M36 52 C33.19 50.12 31.97 46.1 31 43 C33.81 44.88 35.03 48.9 36 52 z"/>
<path style="fill:#505050" d="M64 43 C64.41 44.69 62.69 46.41 61 46 L64 43 z"/>
<path style="fill:#6d6d6d" d="M75 44 L74 43 L75 44 z"/>
<path style="fill:#5e5e5e" d="M12 44 L12 46 C10.67 46.22 10.67 43.78 12 44 z"/>
<path style="fill:#f4f4f4" d="M18 45 L17 44 L18 45 z"/>
<path style="fill:#959595" d="M13 47 L12 46 L13 47 z"/>
<path style="fill:#575858" d="M61 46 C58.18 49.15 55.12 53.82 51 55 C53.82 51.85 56.88 47.18 61 46 z"/>
<path style="fill:#606060" d="M74 46 C74.15 47.18 72.66 47.02 72 47 L70 48 C67.19 46.69 61.97 49.61 64 52 L62 54 L61 54 C61.02 47.18 67.9 44.57 74 46 z"/>
<path style="fill:#8c8c8c" d="M15 48 L15 49 L14 49 L14 47 L15 48 z"/>
<path style="fill:#7c7d7d" d="M72 47 C75.55 50.87 68.16 52.74 70 57 L68 57 C67.94 55.41 65.95 56.19 65 56 L68 54 L68 50 L69 49 C69.12 51.76 72.67 50.2 70 49 L70 48 L72 47 z"/>
<path style="fill:#dedfdf" d="M17 49 L17 51 L15 51 L15 49 L15 48 L17 49 z"/>
<path style="fill:#3f4040" d="M70 48 L70 49 L69 49 L68 50 L64 52 C61.97 49.61 67.19 46.69 70 48 z"/>
<path style="fill:#373737" d="M15 49 L15 51 L14 51 L14 49 L15 49 z"/>
<path style="fill:#9d9d9d" d="M20 51 C18.41 51.06 19.19 53.05 19 54 L17 51 L17 49 L20 51 z"/>
<path style="fill:#ededed" d="M70 49 C72.67 50.2 69.12 51.76 69 49 L70 49 z"/>
<path style="fill:#d4d5d5" d="M68 50 L68 54 L62 54 L64 52 L68 50 z"/>
<path style="fill:#a0a0a0" d="M15 51 L15 52 L14 51 L15 51 z"/>
<path style="fill:#4b4c4c" d="M17 51 L19 54 L20 54 C18.02 54.87 16.91 58.17 20 59 L20 60 L16 60 C17.09 57.22 17.53 54.23 15 52 L15 51 L17 51 z"/>
<path style="fill:#efefef" d="M20 51 L21 51 L21 53 L20 54 L19 54 C19.19 53.05 18.41 51.06 20 51 z"/>
<path style="fill:#969797" d="M23 53 L22 53 L21 53 L21 51 L23 53 z"/>
<path style="fill:#5c5c5c" d="M32 54 L30 52 C31.35 51.54 32.46 52.65 32 54 z"/>
<path style="fill:#5d5d5d" d="M50 52 C50.33 53.34 49.29 54.74 48 55 C47.67 53.66 48.71 52.26 50 52 z"/>
<path style="fill:#9b9c9c" d="M21 53 L21 56 C17.94 55.5 20.29 57.49 20 59 C16.91 58.17 18.02 54.87 20 54 L21 53 z"/>
<path style="fill:#424242" d="M22 53 L22 54 L23 56 L25 58 L25 59 L24 59 L21 56 L21 53 L22 53 z"/>
<path style="fill:#fbfbfb" d="M23 53 L24 53 C24.15 54.18 22.66 54.02 22 54 L22 53 L23 53 z"/>
<path style="fill:#909090" d="M25 54 C25.46 55.35 24.35 56.46 23 56 L22 54 C22.66 54.02 24.15 54.18 24 53 L25 54 z"/>
<path style="fill:#484848" d="M68 54 L65 56 L64 57 C64.46 55.65 63.35 54.54 62 55 L62 54 L68 54 z"/>
<path style="fill:#eceded" d="M26 54 L25 58 L23 56 C24.35 56.46 25.46 55.35 25 54 L26 54 z"/>
<path style="fill:#808181" d="M28 56 L28 59 L25 59 L25 58 L26 54 L28 56 z"/>
<path style="fill:#545454" d="M39 61 L30 60 L26 60 L25 60 L25 59 L28 59 C29.42 59.21 31.67 59.11 31 57 C35.16 59.27 32.47 56.34 32 54 L39 61 z"/>
<path style="fill:#717171" d="M61 54 L60 55 L61 54 z"/>
<path style="fill:#eeefef" d="M62 54 L62 55 L63 57 C61.11 58.85 60.81 56.41 60 55 L61 54 L62 54 z"/>
<path style="fill:#666666" d="M48 55 C47.98 55.66 47.82 57.15 49 57 L44 63 C42.82 62.16 42.18 62.16 41 63 L40 59 L41 59 C40.57 60.06 42.43 60.06 42 59 L44 58 L48 55 z"/>
<path style="fill:#5a5a5a" d="M51 55 C51.46 56.35 50.35 57.46 49 57 L51 55 z"/>
<path style="fill:#575858" d="M60 55 C60.81 56.41 61.11 58.85 63 57 L64 57 L61 60 L56 60 L55 60 L59 56 L60 55 z"/>
<path style="fill:#a4a5a5" d="M64 57 L63 57 L62 55 C63.35 54.54 64.46 55.65 64 57 z"/>
<path style="fill:#f7f8f8" d="M29 56 L30 57 L31 57 C31.67 59.11 29.42 59.21 28 59 L28 56 L29 56 z"/>
<path style="fill:#959595" d="M30 57 L29 56 L30 57 z"/>
<path style="fill:#7d7d7d" d="M58 56 L57 57 L58 56 z"/>
<path style="fill:#dbdbdb" d="M59 56 L55 60 L53 60 C53.41 58.07 55.65 57.91 57 57 L58 56 L59 56 z"/>
<path style="fill:#a1a2a2" d="M68 57 C68.02 57.66 68.18 59.15 67 59 C66.98 58.34 66.82 56.85 68 57 z"/>
<path style="fill:#202020" d="M70 57 C69.98 57.66 69.82 59.15 71 59 L71 61 C70.69 63.44 67.31 63.44 67 61 L67 59 C68.18 59.15 68.02 57.66 68 57 L70 57 z"/>
<path style="fill:#8d8e8e" d="M71 59 C69.82 59.15 69.98 57.66 70 57 C71.18 56.85 71.02 58.34 71 59 z"/>
<path style="fill:#aaaaaa" d="M25 59 L25 60 L24 59 L25 59 z"/>
<path style="fill:#8d8d8d" d="M67 59 L67 61 C65.67 61.22 65.67 58.78 67 59 z"/>
<path style="fill:#777878" d="M71 61 L71 59 C72.33 58.78 72.33 61.22 71 61 z"/>
<path style="fill:#0f0f0f" d="M16 60 L20 60 L20 62 L19 63 L17 63 L16 62 L15 61 L16 60 z"/>
<path style="fill:#aaabab" d="M20 62 L20 60 C21.33 59.78 21.33 62.22 20 62 z"/>
<path style="fill:#787979" d="M30 60 C28.19 61.35 28.34 61.67 29 64 L25 64 L26 60 L30 60 z"/>
<path style="fill:#a4a4a4" d="M52 60 L51 61 L52 60 z"/>
<path style="fill:#8a8a8a" d="M61 60 L61 62 L59 62 L56 60 L61 60 z"/>
<path style="fill:#8b8b8b" d="M16 62 L15 61 L16 62 z"/>
<path style="fill:#6d6d6d" d="M50 61 L49 62 L50 61 z"/>
<path style="fill:#747474" d="M17 63 L16 62 L17 63 z"/>
<path style="fill:#9a9b9b" d="M44 63 C44.27 65.02 46.1 63.32 47 63 L48 65 C44.47 67.4 43.85 65.62 41 64 L41 63 C42.18 62.16 42.82 62.16 44 63 z"/>
<path style="fill:#9b9c9c" d="M59 62 C59.02 62.66 59.18 64.15 58 64 C57.98 63.34 57.82 61.85 59 62 z"/>
<path style="fill:#242424" d="M61 62 C60.98 62.66 60.82 64.15 62 64 L62 66 C61.69 68.44 58.31 68.44 58 66 L58 64 C59.18 64.15 59.02 62.66 59 62 L61 62 z"/>
<path style="fill:#aaabab" d="M62 64 C60.82 64.15 60.98 62.66 61 62 C62.18 61.85 62.02 63.34 62 64 z"/>
<path style="fill:#777878" d="M19 63 C19.22 64.33 16.78 64.33 17 63 L19 63 z"/>
<path style="fill:#6c6c6c" d="M25 64 L25 66 C23.67 66.22 23.67 63.78 25 64 z"/>
<path style="fill:#141414" d="M29 64 L29 66 L28 67 C27.7 69.11 25.03 67.33 25 66 L25 64 L29 64 z"/>
<path style="fill:#939494" d="M29 66 L29 64 C30.33 63.78 30.33 66.22 29 66 z"/>
<path style="fill:#474848" d="M48 65 L48 67 C46.44 72.14 35.25 68.85 41 64 C43.85 65.62 44.47 67.4 48 65 z"/>
<path style="fill:#787979" d="M58 64 L58 66 C56.67 66.22 56.67 63.78 58 64 z"/>
<path style="fill:#878787" d="M62 66 L62 64 C63.33 63.78 63.33 66.22 62 66 z"/>
<path style="fill:#9c9c9c" d="M48 67 L48 65 C49.33 64.78 49.33 67.22 48 67 z"/>
<path style="fill:#7b7b7b" d="M29 66 L28 67 L29 66 z"/>
</svg>
