<?xml version="1.0" standalone="yes"?>
<svg width="87" height="97">
<path style="fill:#fdfefe" d="M87 0 L87 97 L0 97 L0 0 L87 0 z"/>
<path style="fill:#afb0b0" d="M46 21 L44 21 C43.78 19.67 46.22 19.67 46 21 z"/>
<path style="fill:#939393" d="M43 21 L42 22 L43 21 z"/>
<path style="fill:#0c0c0c" d="M44 21 L46 21 L47 21 L48 22 C47.85 23.18 49.34 23.02 50 23 L51 24 L52 24 L53 25 L54 25 L55 26 L56 26 L57 27 L61 29 L62 30 L63 30 L64 31 L65 31 L66 32 L68 33 L69 34 L70 34 L71 35 L71 39 L71 63 L69 65 L68 66 L67 66 L66 67 L62 69 L61 70 L60 70 L59 71 L58 72 L57 72 L56 73 L55 73 L54 74 L52 75 L51 76 C50.34 75.98 48.85 75.82 49 77 L47 78 L46 79 L43 79 L42 78 L41 77 L40 77 L39 76 L38 76 L37 75 L36 75 L35 74 L34 74 L33 73 L32 72 L31 72 L30 71 L29 71 L28 70 L27 70 L26 69 L22 67 L21 66 C21.15 64.82 19.66 64.98 19 65 L19 36 L21 34 L22 33 L25 32 L26 31 L30 29 L31 28 L32 28 L33 27 L34 27 L35 26 L36 25 L37 25 L38 24 L39 24 L40 23 L41 23 L42 22 L43 21 L44 21 z"/>
<path style="fill:#9e9e9e" d="M48 22 L47 21 L48 22 z"/>
<path style="fill:#7c7c7c" d="M42 22 L41 23 L42 22 z"/>
<path style="fill:#969797" d="M50 23 C49.34 23.02 47.85 23.18 48 22 C48.66 21.98 50.15 21.82 50 23 z"/>
<path style="fill:#a3a3a3" d="M40 23 L39 24 L40 23 z"/>
<path style="fill:#797979" d="M51 24 L50 23 L51 24 z"/>
<path style="fill:#949494" d="M38 24 L37 25 L38 24 z"/>
<path style="fill:#838383" d="M53 25 L52 24 L53 25 z"/>
<path style="fill:#a1a1a1" d="M36 25 L35 26 L36 25 z"/>
<path style="fill:#5e5e5e" d="M46 26 L44 26 C43.78 24.67 46.22 24.67 46 26 z"/>
<path style="fill:#7a7a7a" d="M55 26 L54 25 L55 26 z"/>
<path style="fill:#707070" d="M35 26 L34 27 L35 26 z"/>
<path style="fill:#b3b3b3" d="M44 26 L46 26 C53.22 32.34 69.41 32.92 66 46 L65 46 C65.04 43.51 65.88 35.04 62 38 L44 28 C43.34 28.02 41.85 28.18 42 27 C41.85 25.82 43.34 25.98 44 26 z"/>
<path style="fill:#a8a8a8" d="M57 27 L56 26 L57 27 z"/>
<path style="fill:#8c8c8c" d="M33 27 L32 28 L33 27 z"/>
<path style="fill:#969797" d="M42 27 C41.85 28.18 43.34 28.02 44 28 C42.75 30.42 39.46 31.4 37 32 L37 30 L42 27 z"/>
<path style="fill:#9e9e9e" d="M31 28 L30 29 L31 28 z"/>
<path style="fill:#f6f7f7" d="M62 38 L63 39 L64 48 L64 52 C64.51 56.37 64.24 61.17 60 63 L52 67 C50.65 67.91 48.41 68.07 48 70 L44 71 L41 69 L36 67 C34.12 64.19 30.1 62.97 27 62 L26 48 L26 39 L29 37 C31.72 35.96 35.25 34.49 37 32 C39.46 31.4 42.75 30.42 44 28 L62 38 z"/>
<path style="fill:#848484" d="M62 30 L61 29 L62 30 z"/>
<path style="fill:#686868" d="M36 30 L35 31 L36 30 z"/>
<path style="fill:#d4d4d4" d="M37 30 L37 32 L33 32 L35 31 L36 30 L37 30 z"/>
<path style="fill:#727272" d="M64 31 L63 30 L64 31 z"/>
<path style="fill:#8d8d8d" d="M26 31 L25 32 L26 31 z"/>
<path style="fill:#a2a2a2" d="M66 32 L65 31 L66 32 z"/>
<path style="fill:#8e8f8f" d="M33 32 L37 32 C35.25 34.49 31.72 35.96 29 37 L31 34 L33 32 z"/>
<path style="fill:#a6a6a6" d="M22 33 L21 34 L22 33 z"/>
<path style="fill:#757575" d="M69 34 L68 33 L69 34 z"/>
<path style="fill:#666767" d="M21 34 L19 36 C18.54 34.65 19.65 33.54 21 34 z"/>
<path style="fill:#a7a7a7" d="M31 34 L29 37 L26 39 L25 48 L27 62 L29 65 C22.85 64.38 22.24 58.24 23 53 C24.66 51.01 24.66 44.99 23 43 C21.98 37.97 26.82 34.87 31 34 z"/>
<path style="fill:#959595" d="M71 35 L70 34 L71 35 z"/>
<path style="fill:#929393" d="M19 36 L19 65 C17.33 56.7 17.33 44.3 19 36 z"/>
<path style="fill:#6f7070" d="M65 46 L65 52 L64 52 L64 48 L63 39 L62 38 C65.88 35.04 65.04 43.51 65 46 z"/>
<path style="fill:#313131" d="M26 39 L26 48 L25 48 L26 39 z"/>
<path style="fill:#b8b8b8" d="M64 48 L63 39 L64 48 z"/>
<path style="fill:#bfbfbf" d="M71 63 L71 39 C72.67 45.63 72.67 56.37 71 63 z"/>
<path style="fill:#969696" d="M43 40 L42 41 L43 40 z"/>
<path style="fill:#111212" d="M46 40 L47 41 C47.95 41.19 49.94 40.41 50 42 L50 44 L50 45 C48 46.75 46.33 47.58 45 45 C43.46 48.77 39.55 45.04 40 42 C40.66 42.02 42.15 42.18 42 41 L43 40 L46 40 z"/>
<path style="fill:#7d7d7d" d="M47 41 L46 40 L47 41 z"/>
<path style="fill:#666666" d="M42 41 C42.15 42.18 40.66 42.02 40 42 C39.85 40.82 41.34 40.98 42 41 z"/>
<path style="fill:#9d9d9d" d="M40 42 C39.55 45.04 43.46 48.77 45 45 C46.33 47.58 48 46.75 50 45 L51 45 C50.33 46.46 48.85 48.33 47 48 C46.34 47.98 44.85 47.82 45 49 C43.82 48.85 43.98 50.34 44 51 L42 49 C40.79 46.97 38.76 44.33 36 45 L40 42 z"/>
<path style="fill:#737373" d="M50 44 L50 42 C51.33 41.78 51.33 44.22 50 44 z"/>
<path style="fill:#888989" d="M23 53 L23 43 C24.66 44.99 24.66 51.01 23 53 z"/>
<path style="fill:#121212" d="M36 45 C38.76 44.33 40.79 46.97 42 49 L42 52 L40 54 L38 54 L35 54 C35.02 53.34 35.18 51.85 34 52 L33 52 L32 51 C31.79 49.58 31.89 47.33 34 48 L35 47 C34.98 46.34 34.82 44.85 36 45 z"/>
<path style="fill:#0f0f0f" d="M54 45 L55 46 L55 47 L56 48 L57 49 L57 52 L51 55 L48 52 L47 52 L47 51 C49.5 51.95 49.5 48.05 47 49 L47 48 C48.85 48.33 50.33 46.46 51 45 L54 45 z"/>
<path style="fill:#9a9a9a" d="M55 46 L54 45 L55 46 z"/>
<path style="fill:#d6d7d7" d="M66 46 L66 61 L65 62 L65 52 L65 46 L66 46 z"/>
<path style="fill:#444444" d="M66 61 L66 46 C67.66 49.63 67.66 57.37 66 61 z"/>
<path style="fill:#676767" d="M35 47 L34 48 L35 47 z"/>
<path style="fill:#818181" d="M56 48 L55 47 L56 48 z"/>
<path style="fill:#636363" d="M26 48 L27 62 L25 48 L26 48 z"/>
<path style="fill:#d6d6d6" d="M47 48 L47 49 L47 51 L47 52 L44 54 C44.46 52.65 43.35 51.54 42 52 L42 49 L44 51 C45.56 51.9 47.02 49.19 45 49 C44.85 47.82 46.34 47.98 47 48 z"/>
<path style="fill:#2d2d2d" d="M45 49 C47.02 49.19 45.56 51.9 44 51 C43.98 50.34 43.82 48.85 45 49 z"/>
<path style="fill:#7d7e7e" d="M47 51 L47 49 C49.5 48.05 49.5 51.95 47 51 z"/>
<path style="fill:#5e5e5e" d="M57 52 L57 49 C58.48 48.96 58.48 52.04 57 52 z"/>
<path style="fill:#a2a2a2" d="M33 52 L32 51 L33 52 z"/>
<path style="fill:#727373" d="M35 54 C33.82 54.15 33.98 52.66 34 52 C35.18 51.85 35.02 53.34 35 54 z"/>
<path style="fill:#bfbfbf" d="M42 52 C42.46 53.35 41.35 54.46 40 54 L42 52 z"/>
<path style="fill:#101010" d="M44 54 L47 53 L50 56 C50.02 56.66 50.18 58.15 49 58 C48.05 58.19 46.06 57.41 46 59 C45.94 60.59 43.95 59.81 43 60 L42 59 L41 58 L40 58 L40 55 L40 54 C41.35 54.46 42.46 53.35 42 52 C43.35 51.54 44.46 52.65 44 54 z"/>
<path style="fill:#606060" d="M47 52 L47 53 L44 54 L47 52 z"/>
<path style="fill:#e3e3e3" d="M48 52 L47 53 L47 52 L48 52 z"/>
<path style="fill:#7e7e7e" d="M51 55 L50 56 L47 53 L48 52 L51 55 z"/>
<path style="fill:#9c9d9d" d="M65 52 L65 62 L62 64 C62.15 62.82 60.66 62.98 60 63 C64.24 61.17 64.51 56.37 64 52 L65 52 z"/>
<path style="fill:#6c6d6d" d="M38 54 C38.04 55.48 34.96 55.48 35 54 L38 54 z"/>
<path style="fill:#7a7a7a" d="M40 55 L40 58 C38.52 58.04 38.52 54.96 40 55 z"/>
<path style="fill:#9a9a9a" d="M42 59 L41 58 L42 59 z"/>
<path style="fill:#646464" d="M49 58 C48.94 59.59 46.95 58.81 46 59 C46.06 57.41 48.05 58.19 49 58 z"/>
<path style="fill:#a3a3a3" d="M43 60 L42 59 L43 60 z"/>
<path style="fill:#737373" d="M36 67 L32 67 L29 65 L27 62 C30.1 62.97 34.12 64.19 36 67 z"/>
<path style="fill:#959595" d="M60 63 L60 65 L57 67 C57.43 65.94 55.57 65.94 56 67 L54 69 L52 67 L60 63 z"/>
<path style="fill:#e1e1e1" d="M62 64 L60 65 L60 63 C60.66 62.98 62.15 62.82 62 64 z"/>
<path style="fill:#707070" d="M21 66 C20.34 66.02 18.85 66.18 19 65 C19.66 64.98 21.15 64.82 21 66 z"/>
<path style="fill:#969696" d="M69 65 L68 66 L69 65 z"/>
<path style="fill:#8a8a8a" d="M22 67 L21 66 L22 67 z"/>
<path style="fill:#c5c5c5" d="M36 67 L37 69 L32 67 L36 67 z"/>
<path style="fill:#eeeeee" d="M57 67 L56 67 C55.57 65.94 57.43 65.94 57 67 z"/>
<path style="fill:#797979" d="M67 66 L66 67 L67 66 z"/>
<path style="fill:#797a7a" d="M41 69 C41.15 70.18 39.66 70.02 39 70 C39.15 68.82 37.66 68.98 37 69 L36 67 L41 69 z"/>
<path style="fill:#bcbdbd" d="M52 67 L54 69 L47 72 L48 70 C48.41 68.07 50.65 67.91 52 67 z"/>
<path style="fill:#909090" d="M27 70 L26 69 L27 70 z"/>
<path style="fill:#c7c8c8" d="M39 70 C38.34 70.02 36.85 70.18 37 69 C37.66 68.98 39.15 68.82 39 70 z"/>
<path style="fill:#aeaeae" d="M44 71 C41.62 72.15 46.15 72.11 47 72 C45.63 75.91 40.37 72.12 39 70 C39.66 70.02 41.15 70.18 41 69 L44 71 z"/>
<path style="fill:#858585" d="M62 69 L61 70 L62 69 z"/>
<path style="fill:#898989" d="M29 71 L28 70 L29 71 z"/>
<path style="fill:#606161" d="M48 70 L47 72 C46.15 72.11 41.62 72.15 44 71 L48 70 z"/>
<path style="fill:#7f7f7f" d="M60 70 L59 71 L60 70 z"/>
<path style="fill:#737373" d="M31 72 L30 71 L31 72 z"/>
<path style="fill:#ababab" d="M59 71 L58 72 L59 71 z"/>
<path style="fill:#6b6b6b" d="M33 73 L32 72 L33 73 z"/>
<path style="fill:#a5a5a5" d="M57 72 L56 73 L57 72 z"/>
<path style="fill:#aaaaaa" d="M34 74 L33 73 L34 74 z"/>
<path style="fill:#666666" d="M55 73 L54 74 L55 73 z"/>
<path style="fill:#a3a3a3" d="M36 75 L35 74 L36 75 z"/>
<path style="fill:#828282" d="M38 76 L37 75 L38 76 z"/>
<path style="fill:#a2a2a2" d="M52 75 L51 76 L52 75 z"/>
<path style="fill:#888888" d="M40 77 L39 76 L40 77 z"/>
<path style="fill:#9e9e9e" d="M51 76 C51.15 77.18 49.66 77.02 49 77 C48.85 75.82 50.34 75.98 51 76 z"/>
<path style="fill:#6a6a6a" d="M42 78 L41 77 L42 78 z"/>
<path style="fill:#a4a4a4" d="M43 79 L42 78 L43 79 z"/>
<path style="fill:#808080" d="M47 78 L46 79 L47 78 z"/>
</svg>
