<?xml version="1.0" standalone="yes"?>
<svg width="87" height="97">
<path style="fill:#fdfdfd" d="M87 0 L87 97 L0 97 L0 0 L87 0 z"/>
<path style="fill:#343434" d="M47 16 L47 17 L43.25 17.25 L43.25 79.75 L47 80 L47 81 C43.87 81.6 40.78 80.88 42 77 L42 71 L42 50 L42 46 L42 40 L42 36 L42 31 L42 26 L42 20 C40.78 16.12 43.87 15.4 47 16 z"/>
<path style="fill:#989999" d="M48 20 L49 25 L47 27 L47 17 L47 16 L48 20 z"/>
<path style="fill:#868787" d="M37 18 L31 18 C31.73 16.38 36.27 16.38 37 18 z"/>
<path style="fill:#010202" d="M47 17 L47 27 L47 80 L43.25 79.75 L43.25 17.25 L47 17 z"/>
<path style="fill:#7e7e7e" d="M58 18 L53 18 C53.45 16.4 57.55 16.4 58 18 z"/>
<path style="fill:#939393" d="M29 18 L28 19 L29 18 z"/>
<path style="fill:#090909" d="M31 18 L37 18 L38 18 L39 19 L41 20 L40 25 C38.26 21.3 33.49 22.01 30 22 L29 23 L27 25 L26 26 L26 27 L25 28 L25 36 C24.98 36.66 24.82 38.15 26 38 L26 39 L26 41 L26 63 L27 69 L27 71 L28 72 L30 74 C31.03 75.64 35.97 75.64 37 74 C38.34 74.33 39.74 73.29 40 72 C42.04 72.7 40.85 75.72 40 77 L39 77 C38.34 76.98 36.85 76.82 37 78 L36 78 L31 78 L30 78 C30.15 76.82 28.66 76.98 28 77 L27 77 L26 76 L25 75 L24 74 L24 73 L23 72 L23 70 L23 62 L23 59 C24.66 55.7 24.66 48.3 23 45 L23 44 C23.02 43.34 23.18 41.85 22 42 L22 38 L21 34 L21 28 C22.18 28.15 22.02 26.66 22 26 L23 23 L24 22 L25 21 L26 20 L28 19 L29 18 L31 18 z"/>
<path style="fill:#727272" d="M39 19 L38 18 L39 19 z"/>
<path style="fill:#929292" d="M51 18 L50 19 L51 18 z"/>
<path style="fill:#0c0c0c" d="M53 18 L58 18 L60 18 C59.85 19.18 61.34 19.02 62 19 L63 20 L64 21 L65 22 L66 23 L67 25 L68 26 L68 28 L68 34 L68 38 L67 42 L66 48 C64.34 49.99 64.34 56.01 66 58 L66 59 L66 63 L66 70 L66 72 L66 73 L65 74 L63 76 L62 77 L61 77 L60 78 L58 78 L53 78 L49 77 C48.15 75.72 46.96 72.7 49 72 L50 73 L51 74 L52 74 C51.85 75.18 53.34 75.02 54 75 L58 75 L59 74 C60.46 73.33 62.33 71.85 62 70 L63 59 L63 49 L63 46 L63 41 L63 40 C64.18 40.15 64.02 38.66 64 38 L64 37 L64 34 C65.6 33.55 65.6 29.45 64 29 L64 27 L63 26 L60 23 L59 22 L53 22 L52 23 L50 25 L49 25 L48 20 L50 19 L51 18 L53 18 z"/>
<path style="fill:#979898" d="M62 19 C61.34 19.02 59.85 19.18 60 18 C60.66 17.98 62.15 17.82 62 19 z"/>
<path style="fill:#919191" d="M63 20 L62 19 L63 20 z"/>
<path style="fill:#878787" d="M26 20 L25 21 L26 20 z"/>
<path style="fill:#8b8c8c" d="M42 20 L42 26 C41.34 26.02 39.85 26.18 40 25 L41 20 L42 20 z"/>
<path style="fill:#5f5f5f" d="M64 21 L63 20 L64 21 z"/>
<path style="fill:#9a9a9a" d="M25 21 L24 22 L25 21 z"/>
<path style="fill:#626262" d="M65 22 L64 21 L65 22 z"/>
<path style="fill:#a0a0a0" d="M24 22 L23 23 L24 22 z"/>
<path style="fill:#5f5f5f" d="M30 22 L29 23 L30 22 z"/>
<path style="fill:#d1d1d1" d="M40 25 C39.85 26.18 41.34 26.02 42 26 L42 31 L38 31 L39 30 C44.78 25.73 30.46 21.16 27 27 L26 27 L26 26 L27 25 L29 23 L30 22 C33.49 22.01 38.26 21.3 40 25 z"/>
<path style="fill:#7e7e7e" d="M53 22 L52 23 L53 22 z"/>
<path style="fill:#e2e2e2" d="M59 22 L60 23 L63 26 L63 27 L62 27 L57 24 C57.04 22.52 53.96 22.52 54 24 L51 25 L50 25 L52 23 L53 22 L59 22 z"/>
<path style="fill:#848484" d="M60 23 L59 22 L60 23 z"/>
<path style="fill:#737373" d="M66 23 L65 22 L66 23 z"/>
<path style="fill:#949494" d="M57 24 C55.45 24.19 55.45 27.81 57 28 L57 29 L53 31 C53.43 29.94 51.57 29.94 52 31 L51 31 L48 29 C50.56 27.01 57.72 28.91 54 24 C53.96 22.52 57.04 22.52 57 24 z"/>
<path style="fill:#484949" d="M39 30 C36.77 25.25 27.69 30.69 27 27 C30.46 21.16 44.78 25.73 39 30 z"/>
<path style="fill:#3e3f3f" d="M54 24 C57.72 28.91 50.56 27.01 48 29 L51 25 L54 24 z"/>
<path style="fill:#434444" d="M57 24 L62 27 L57 28 C55.45 27.81 55.45 24.19 57 24 z"/>
<path style="fill:#707070" d="M27 25 L26 26 L27 25 z"/>
<path style="fill:#b1b1b1" d="M50 25 L51 25 L48 29 L51 31 C47.16 29.44 47.08 35.81 49 37 L49 38 L49 39 C47.36 40.03 47.36 44.97 49 46 L49 48 L49 49 C47.38 49.73 47.38 54.27 49 55 L48 57 L51 59 C46.83 57.79 48.17 62.56 48 65 L49 68 C46.95 68.46 48.38 70.93 49 72 C46.96 72.7 48.15 75.72 49 77 L47 81 L47 80 L47 27 L49 25 L50 25 z"/>
<path style="fill:#a4a4a4" d="M68 26 L67 25 L68 26 z"/>
<path style="fill:#737474" d="M22 26 C22.02 26.66 22.18 28.15 21 28 C20.98 27.34 20.82 25.85 22 26 z"/>
<path style="fill:#7a7a7a" d="M64 27 L63 27 L63 26 L64 27 z"/>
<path style="fill:#959595" d="M26 27 L27 27 C27.69 30.69 36.77 25.25 39 30 L38 31 L38 34 C37.34 34.02 35.85 34.18 36 33 C38.57 32.37 33.63 27.43 33 30 L32 30 C32.43 28.94 30.57 28.94 31 30 L30 31 C27.21 32.03 26.39 29.16 25 28 L26 27 z"/>
<path style="fill:#737373" d="M62 27 L63 27 L63 30 L57 29 L57 28 L62 27 z"/>
<path style="fill:#edeeee" d="M64 27 L64 29 L64 34 L64 37 L62 37 L60 34 C59.68 33.1 57.98 31.27 60 31 C60.95 30.81 62.94 31.59 63 30 L63 27 L64 27 z"/>
<path style="fill:#eff0f0" d="M30 31 L29 35 L28 37 L26 39 L26 38 C26.02 37.34 26.18 35.85 25 36 L25 28 C26.39 29.16 27.21 32.03 30 31 z"/>
<path style="fill:#8d8d8d" d="M68 34 L68 28 C69.62 28.73 69.62 33.27 68 34 z"/>
<path style="fill:#e9e9e9" d="M32 30 L31 30 C30.57 28.94 32.43 28.94 32 30 z"/>
<path style="fill:#0e0e0e" d="M36 33 C36.04 31.52 32.96 31.52 33 33 C29.58 33.24 31.78 30.83 33 30 C33.63 27.43 38.57 32.37 36 33 z"/>
<path style="fill:#171717" d="M57 29 C56.98 29.66 56.82 31.15 58 31 L54 32 L53 31 L57 29 z"/>
<path style="fill:#b6b6b6" d="M63 30 C62.94 31.59 60.95 30.81 60 31 C60.22 29.67 57.78 29.67 58 31 C56.82 31.15 56.98 29.66 57 29 L63 30 z"/>
<path style="fill:#5a5a5a" d="M64 34 L64 29 C65.6 29.45 65.6 33.55 64 34 z"/>
<path style="fill:#6c6c6c" d="M31 30 L32 30 L33 30 C31.78 30.83 29.58 33.24 33 33 L29 35 L30 31 L31 30 z"/>
<path style="fill:#313131" d="M53 31 L54 32 C53.51 34.33 53.33 35.65 51 37 L49 38 L49 37 L52 31 C51.57 29.94 53.43 29.94 53 31 z"/>
<path style="fill:#575757" d="M60 31 C57.98 31.27 59.68 33.1 60 34 C54.32 33.74 60.37 35.54 61 38 L57 38 L55.25 33.25 C55.57 36.24 54.1 37.81 51 37 C53.33 35.65 53.51 34.33 54 32 L58 31 C57.78 29.67 60.22 29.67 60 31 z"/>
<path style="fill:#f2f3f3" d="M42 31 L42 36 L41 36 L38 34 L38 31 L42 31 z"/>
<path style="fill:#eceded" d="M51 31 L52 31 L49 37 C47.08 35.81 47.16 29.44 51 31 z"/>
<path style="fill:#434343" d="M36 33 C35.85 34.18 37.34 34.02 38 34 L41 36 L41 38 C38.36 36.25 33.73 38.18 34.75 33.25 L29 39 C27.82 39.15 27.98 37.66 28 37 L29 35 L33 33 C32.96 31.52 36.04 31.52 36 33 z"/>
<path style="fill:#878888" d="M41 38 L36 39 L32 40 L31 39 L29 39 L34.75 33.25 C33.73 38.18 38.36 36.25 41 38 z"/>
<path style="fill:#8c8c8c" d="M57 38 L57 39 L52 40 L49 39 L49 38 L51 37 C54.1 37.81 55.57 36.24 55.25 33.25 L57 38 z"/>
<path style="fill:#727272" d="M22 38 L21 34 L22 38 z"/>
<path style="fill:#303030" d="M60 34 L62 37 C62.56 37.8 61.21 39.97 61 38 C60.37 35.54 54.32 33.74 60 34 z"/>
<path style="fill:#5d5e5e" d="M26 38 C24.82 38.15 24.98 36.66 25 36 C26.18 35.85 26.02 37.34 26 38 z"/>
<path style="fill:#b7b7b7" d="M42 36 L42 40 L38 40 L36 39 L41 38 L41 36 L42 36 z"/>
<path style="fill:#b8b9b9" d="M28 37 C27.98 37.66 27.82 39.15 29 39 L31 39 L31 40 L27 41 L26 41 L26 39 L28 37 z"/>
<path style="fill:#b4b5b5" d="M64 37 L64 38 C62.82 37.85 62.98 39.34 63 40 L59 40 L57 39 L57 38 L61 38 C61.21 39.97 62.56 37.8 62 37 L64 37 z"/>
<path style="fill:#616161" d="M64 38 C64.02 38.66 64.18 40.15 63 40 C62.98 39.34 62.82 37.85 64 38 z"/>
<path style="fill:#b3b4b4" d="M68 38 L67 42 L68 38 z"/>
<path style="fill:#2f3030" d="M32 40 L32 42 L31 46 C29.68 46.49 27.63 49.39 28 46 L29 45 L30 44 C31.18 44.15 31.02 42.66 31 42 L31 40 L31 39 L32 40 z"/>
<path style="fill:#191919" d="M36 39 L38 40 L38 42 L32 42 L32 40 L36 39 z"/>
<path style="fill:#f1f1f1" d="M49 39 L52 40 L52 42 C50.82 41.85 50.98 43.34 51 44 L50 45 L49 46 C47.36 44.97 47.36 40.03 49 39 z"/>
<path style="fill:#1f1f1f" d="M57 39 L59 40 L59 42 C58.98 42.66 58.82 44.15 60 44 C60.74 46.52 58.13 45.77 58 44 L52 42 L52 40 L57 39 z"/>
<path style="fill:#f7f8f8" d="M31 40 L31 42 C29.82 41.85 29.98 43.34 30 44 L29 45 L28 46 L27 46 L27 41 L31 40 z"/>
<path style="fill:#f5f5f5" d="M42 40 L42 46 L41 46 L40 45 L39 44 C39.02 43.34 39.18 41.85 38 42 L38 40 L42 40 z"/>
<path style="fill:#f7f8f8" d="M63 40 L63 41 L62 46 L60 44 C60.02 43.34 60.18 41.85 59 42 L59 40 L63 40 z"/>
<path style="fill:#494949" d="M27 41 L27 46 L27 49 C25.26 55.58 30.15 55.85 31 50 C30.57 48.94 32.43 48.94 32 50 L33 51 C34.64 52.68 32.56 54.26 32 56 C30.21 54.22 28.26 57.06 27 58 L27 63 L26 63 L26 41 L27 41 z"/>
<path style="fill:#b1b2b2" d="M63 41 L63 46 L62 46 L63 41 z"/>
<path style="fill:#979797" d="M23 44 C21.82 44.15 21.98 42.66 22 42 C23.18 41.85 23.02 43.34 23 44 z"/>
<path style="fill:#8d8d8d" d="M31 42 C31.02 42.66 31.18 44.15 30 44 C29.98 43.34 29.82 41.85 31 42 z"/>
<path style="fill:#616161" d="M38 42 C39.18 41.85 39.02 43.34 39 44 C35.61 43.63 38.51 45.68 39 47 L31 46 L32 42 L38 42 z"/>
<path style="fill:#686969" d="M52 42 L58 44 C55.62 41.85 55.9 45.3 56 47 L51 47 C51.49 45.68 54.39 43.63 51 44 C50.98 43.34 50.82 41.85 52 42 z"/>
<path style="fill:#8e8e8e" d="M60 44 C58.82 44.15 58.98 42.66 59 42 C60.18 41.85 60.02 43.34 60 44 z"/>
<path style="fill:#525252" d="M58 44 C58.13 45.77 60.74 46.52 60 44 L62 46 L63 46 L63 49 L62 49 C60.81 47.59 58.07 47.04 56 47 C55.9 45.3 55.62 41.85 58 44 z"/>
<path style="fill:#858585" d="M30 44 L29 45 L30 44 z"/>
<path style="fill:#2a2a2a" d="M39 44 L40 45 L41 46 C41.45 48.02 40.16 47.93 39 47 C38.51 45.68 35.61 43.63 39 44 z"/>
<path style="fill:#868686" d="M40 45 L39 44 L40 45 z"/>
<path style="fill:#7f7f7f" d="M51 44 L50 45 L51 44 z"/>
<path style="fill:#252525" d="M51 47 L49 48 L49 46 L50 45 L51 44 C54.39 43.63 51.49 45.68 51 47 z"/>
<path style="fill:#515252" d="M23 59 L23 45 C24.66 48.3 24.66 55.7 23 59 z"/>
<path style="fill:#9e9f9f" d="M28 46 C27.63 49.39 29.68 46.49 31 46 L39 47 C40.16 47.93 41.45 48.02 41 46 L42 46 L42 50 L38 50 C38.43 48.94 36.57 48.94 37 50 C35.08 48.14 33.92 48.14 32 50 C32.43 48.94 30.57 48.94 31 50 L27 49 L27 46 L28 46 z"/>
<path style="fill:#969797" d="M51 47 L56 47 C58.07 47.04 60.81 47.59 62 49 L59 50 C59.43 48.94 57.57 48.94 58 50 C56.08 48.14 54.92 48.14 53 50 C53.43 48.94 51.57 48.94 52 50 L49 49 L49 48 L51 47 z"/>
<path style="fill:#121212" d="M37 50 C37.45 52.02 36.16 51.93 35 51 L33 51 L32 50 C33.92 48.14 35.08 48.14 37 50 z"/>
<path style="fill:#101010" d="M58 50 C58.77 52.96 53.77 50.97 53 50 C54.92 48.14 56.08 48.14 58 50 z"/>
<path style="fill:#333434" d="M66 48 L66 58 C64.34 56.01 64.34 49.99 66 48 z"/>
<path style="fill:#f1f1f1" d="M31 50 C30.15 55.85 25.26 55.58 27 49 L31 50 z"/>
<path style="fill:#4c4c4c" d="M38 50 L41 57 L35 56 L35 51 C36.16 51.93 37.45 52.02 37 50 C36.57 48.94 38.43 48.94 38 50 z"/>
<path style="fill:#eeeeee" d="M42 50 L42 71 C41.34 70.98 39.85 70.82 40 72 L38 71 L38 69 L38 68 C38.95 67.81 40.94 68.59 41 67 L39 63 L38 62 L38 61 L41 57 L38 50 L42 50 z"/>
<path style="fill:#f1f1f1" d="M49 49 L52 50 L49 55 C47.38 54.27 47.38 49.73 49 49 z"/>
<path style="fill:#4e4f4f" d="M53 50 C53.77 50.97 58.77 52.96 58 50 C57.57 48.94 59.43 48.94 59 50 C58.22 52.24 60.23 53.33 61 55 L62 57 C57.67 55.54 52.33 55.54 48 57 L49 55 L52 50 C51.57 48.94 53.43 48.94 53 50 z"/>
<path style="fill:#eceded" d="M62 49 L61 55 C60.23 53.33 58.22 52.24 59 50 L62 49 z"/>
<path style="fill:#757575" d="M63 49 L63 59 L62 59 L62 58 L62 57 L61 55 L62 49 L63 49 z"/>
<path style="fill:#6c6d6d" d="M35 51 L35 56 L32 56 C32.56 54.26 34.64 52.68 33 51 L35 51 z"/>
<path style="fill:#898a8a" d="M32 56 L35 56 L41 57 L38 61 L37 61 C37.44 57.36 30.56 57.36 31 61 L30 61 C30.66 58.76 29.24 57.34 27 58 C28.26 57.06 30.21 54.22 32 56 z"/>
<path style="fill:#8b8c8c" d="M62 57 L62 58 C59.76 57.34 58.34 58.76 59 61 L58 61 C58.44 57.36 51.56 57.36 52 61 L51 61 L51 59 L48 57 C52.33 55.54 57.67 55.54 62 57 z"/>
<path style="fill:#f1f2f2" d="M30 61 C29.09 62.35 28.93 64.59 27 65 L27 63 L27 58 C29.24 57.34 30.66 58.76 30 61 z"/>
<path style="fill:#050606" d="M37 61 C34.71 60.18 33.29 60.18 31 61 C30.56 57.36 37.44 57.36 37 61 z"/>
<path style="fill:#0c0c0c" d="M58 61 L53 61 L52 61 C51.56 57.36 58.44 57.36 58 61 z"/>
<path style="fill:#eeefef" d="M62 58 L62 59 L61 64 L60 63 L59 61 C58.34 58.76 59.76 57.34 62 58 z"/>
<path style="fill:#f8f9f9" d="M51 59 L51 61 L51 62 L50 63 L50 64 L48 65 C48.17 62.56 46.83 57.79 51 59 z"/>
<path style="fill:#d1d2d2" d="M63 59 L62 70 L59 69 L59 68 C59.95 67.81 61.94 68.59 62 67 L61 64 L62 59 L63 59 z"/>
<path style="fill:#9c9c9c" d="M67 63 L66 63 L66 59 L67 63 z"/>
<path style="fill:#5a5a5a" d="M37 61 L40 67 C35.82 63.24 28.9 69.03 27 65 C28.93 64.59 29.09 62.35 30 61 L31 61 C33.29 60.18 34.71 60.18 37 61 z"/>
<path style="fill:#2c2d2d" d="M38 61 L38 62 L39 63 L41 67 L40 67 L37 61 L38 61 z"/>
<path style="fill:#3d3e3e" d="M52 61 L53 61 C57.34 62.54 51.13 65.64 50 64 L50 63 L51 62 L51 61 L52 61 z"/>
<path style="fill:#5f6060" d="M58 61 L59 61 L60 63 C55.21 62.81 58.92 63.88 60 66 L50 68 L49 68 L48 65 L50 64 C51.13 65.64 57.34 62.54 53 61 L58 61 z"/>
<path style="fill:#999a9a" d="M23 62 L23 70 C21.35 68.66 21.35 63.34 23 62 z"/>
<path style="fill:#919191" d="M39 63 L38 62 L39 63 z"/>
<path style="fill:#a6a6a6" d="M51 62 L50 63 L51 62 z"/>
<path style="fill:#9c9c9c" d="M27 63 L27 65 C28.9 69.03 35.82 63.24 40 67 L41 67 C40.94 68.59 38.95 67.81 38 68 C34.33 66.73 31.09 67.34 30 71 C31.24 68.75 27.93 66.48 27 69 L26 63 L27 63 z"/>
<path style="fill:#2c2c2c" d="M60 63 L61 64 L62 67 L60 66 C58.92 63.88 55.21 62.81 60 63 z"/>
<path style="fill:#414141" d="M67 63 L67 70 L66 70 L66 63 L67 63 z"/>
<path style="fill:#999a9a" d="M60 66 L62 67 C61.94 68.59 59.95 67.81 59 68 C55.33 66.73 52.09 67.34 51 71 C50.81 70.05 51.59 68.06 50 68 L60 66 z"/>
<path style="fill:#1c1c1c" d="M38 68 L38 69 C36.82 68.85 36.98 70.34 37 71 C36.34 70.98 34.85 70.82 35 72 L30 72 L30 71 C31.09 67.34 34.33 66.73 38 68 z"/>
<path style="fill:#1b1c1c" d="M59 68 L59 69 C57.82 68.85 57.98 70.34 58 71 C57.34 70.98 55.85 70.82 56 72 L51 71 C52.09 67.34 55.33 66.73 59 68 z"/>
<path style="fill:#f1f2f2" d="M30 71 L30 72 L37 74 L30 74 L28 72 L27 71 L27 69 C27.93 66.48 31.24 68.75 30 71 z"/>
<path style="fill:#f4f5f5" d="M49 68 L50 68 C51.59 68.06 50.81 70.05 51 71 L49 72 C48.38 70.93 46.95 68.46 49 68 z"/>
<path style="fill:#8d8e8e" d="M38 69 L38 71 L37 71 C36.98 70.34 36.82 68.85 38 69 z"/>
<path style="fill:#8a8b8b" d="M59 69 L59 71 L58 71 C57.98 70.34 57.82 68.85 59 69 z"/>
<path style="fill:#eceded" d="M62 70 C62.33 71.85 60.46 73.33 59 74 L58 75 L54 75 C54.15 73.82 52.66 73.98 52 74 L59 72 L59 71 L59 69 L62 70 z"/>
<path style="fill:#a6a6a6" d="M67 70 C67.02 70.66 67.18 72.15 66 72 L66 70 L67 70 z"/>
<path style="fill:#9f9f9f" d="M28 72 L27 71 L28 72 z"/>
<path style="fill:#6e6f6f" d="M37 71 L37 72 L35 72 C34.85 70.82 36.34 70.98 37 71 z"/>
<path style="fill:#0f0f0f" d="M38 71 L37 72 L37 71 L38 71 z"/>
<path style="fill:#c6c7c7" d="M40 72 C39.74 73.29 38.34 74.33 37 74 L30 72 L35 72 L37 72 L38 71 L40 72 z"/>
<path style="fill:#989999" d="M42 71 L42 77 L40 77 C40.85 75.72 42.04 72.7 40 72 C39.85 70.82 41.34 70.98 42 71 z"/>
<path style="fill:#c8c8c8" d="M51 71 L56 72 L58 72 L59 72 L52 74 L51 74 L50 73 L49 72 L51 71 z"/>
<path style="fill:#6c6d6d" d="M58 71 L58 72 L56 72 C55.85 70.82 57.34 70.98 58 71 z"/>
<path style="fill:#121212" d="M59 71 L59 72 L58 72 L58 71 L59 71 z"/>
<path style="fill:#6e6e6e" d="M24 73 L23 72 L24 73 z"/>
<path style="fill:#686868" d="M51 74 L50 73 L51 74 z"/>
<path style="fill:#919191" d="M66 73 L65 74 L66 73 z"/>
<path style="fill:#9c9c9c" d="M25 75 L24 74 L25 75 z"/>
<path style="fill:#afb0b0" d="M37 74 C35.97 75.64 31.03 75.64 30 74 L37 74 z"/>
<path style="fill:#828282" d="M54 75 C53.34 75.02 51.85 75.18 52 74 C52.66 73.98 54.15 73.82 54 75 z"/>
<path style="fill:#909090" d="M59 74 L58 75 L59 74 z"/>
<path style="fill:#7b7b7b" d="M26 76 L25 75 L26 76 z"/>
<path style="fill:#9a9a9a" d="M27 77 L26 76 L27 77 z"/>
<path style="fill:#6b6b6b" d="M63 76 L62 77 L63 76 z"/>
<path style="fill:#696a6a" d="M30 78 C29.34 78.02 27.85 78.18 28 77 C28.66 76.98 30.15 76.82 30 78 z"/>
<path style="fill:#828383" d="M39 77 C39.15 78.18 37.66 78.02 37 78 C36.85 76.82 38.34 76.98 39 77 z"/>
<path style="fill:#6f6f6f" d="M61 77 L60 78 L61 77 z"/>
<path style="fill:#aaaaaa" d="M36 78 C35.55 79.6 31.45 79.6 31 78 L36 78 z"/>
<path style="fill:#aaaaaa" d="M58 78 C57.55 79.6 53.45 79.6 53 78 L58 78 z"/>
</svg>
