<?xml version="1.0" standalone="yes"?>
<svg width="87" height="97">
<path style="fill:#fdfdfd" d="M87 0 L87 97 L0 97 L0 0 L87 0 z"/>
<path style="fill:#999999" d="M48 18 L37 18 C39.31 16.34 45.69 16.34 48 18 z"/>
<path style="fill:#6c6c6c" d="M36 18 C36.15 19.18 34.66 19.02 34 19 C33.85 17.82 35.34 17.98 36 18 z"/>
<path style="fill:#101111" d="M37 18 L48 18 L51 18 C50.85 19.18 52.34 19.02 53 19 L54 19 C53.85 20.18 55.34 20.02 56 20 L57 21 L58 21 L59 22 L60 22 L61 23 L62 24 L67 29 L68 30 L69 31 L69 32 L70 33 L70 34 L71 35 L71 36 L72 37 L72 38 C71.98 38.66 71.82 40.15 73 40 L73 42 L73 53 L73 56 C71.82 55.85 71.98 57.34 72 58 L71 61 L70 62 L70 63 L69 64 L68 66 L67 67 L66 68 L63 71 L62 72 L61 73 L55 76 C54.34 75.98 52.85 75.82 53 77 L48 78 L38 78 L36 78 C36.15 76.82 34.66 76.98 34 77 L27 74 L26 73 L24 72 L23 71 L22 70 L21 69 L20 68 L19 67 L18 65 L17 64 L15 60 C15.02 59.34 15.18 57.85 14 58 L14 56 C14.02 55.34 14.18 53.85 13 54 L13 52 L13 44 L13 42 C14.18 42.15 14.02 40.66 14 40 L15 35 L16 34 L19 29 L20 28 L23 25 L24 24 L25 23 L27 22 L28 21 L29 21 L30 20 L31 20 L32 19 L34 19 C34.66 19.02 36.15 19.18 36 18 L37 18 z"/>
<path style="fill:#959595" d="M53 19 C52.34 19.02 50.85 19.18 51 18 C51.66 17.98 53.15 17.82 53 19 z"/>
<path style="fill:#919191" d="M32 19 L31 20 L32 19 z"/>
<path style="fill:#a2a3a3" d="M56 20 C55.34 20.02 53.85 20.18 54 19 C54.66 18.98 56.15 18.82 56 20 z"/>
<path style="fill:#7f7f7f" d="M30 20 L29 21 L30 20 z"/>
<path style="fill:#919292" d="M48 21 L40 21 C41.34 19.35 46.66 19.35 48 21 z"/>
<path style="fill:#6b6b6b" d="M57 21 L56 20 L57 21 z"/>
<path style="fill:#979797" d="M28 21 L27 22 L28 21 z"/>
<path style="fill:#727272" d="M36 21 C36.15 22.18 34.66 22.02 34 22 C33.85 20.82 35.34 20.98 36 21 z"/>
<path style="fill:#f7f8f8" d="M40 21 L48 21 L50 21 C49.85 22.18 51.34 22.02 52 22 C55.01 22.34 57.51 24.43 60 26 L61 27 L62 28 L64 30 L65 31 L68 37 L69 38 L70 45 L70 51 L69 58 L68 59 L68 60 L67 61 L67 62 L66 63 L64 66 L63 67 L62 68 L61 69 L58 71 L57 72 L56 72 L55 73 L51 74 C50.34 73.98 48.85 73.82 49 75 L47 75 L39 75 L37 75 C37.15 73.82 35.66 73.98 35 74 L28 71 L27 70 L21 64 L20 63 L17 56 C17.02 55.34 17.18 53.85 16 54 L16 52 L16 44 L16 42 C17.18 42.15 17.02 40.66 17 40 L18 36 L19 35 L19 34 L20 33 L22 30 L23 29 L24 28 L25 27 L28 25 L29 24 L30 24 L31 23 L34 22 C34.66 22.02 36.15 22.18 36 21 L40 21 z"/>
<path style="fill:#838484" d="M52 22 C51.34 22.02 49.85 22.18 50 21 C50.66 20.98 52.15 20.82 52 22 z"/>
<path style="fill:#717171" d="M59 22 L58 21 L59 22 z"/>
<path style="fill:#686868" d="M44 23 L42 23 C41.78 21.67 44.22 21.67 44 23 z"/>
<path style="fill:#9f9f9f" d="M61 23 L60 22 L61 23 z"/>
<path style="fill:#999999" d="M25 23 L24 24 L25 23 z"/>
<path style="fill:#979797" d="M31 23 L30 24 L31 23 z"/>
<path style="fill:#0a0b0b" d="M44 23 L45 24 L45 25 C44.98 25.66 44.82 27.15 46 27 L46 28 C45.98 28.66 45.82 30.15 47 30 L47 40 C45.82 39.85 45.98 41.34 46 42 L46 43 L45 44 L43.25 39.25 L41 44 L41 42 C41.02 41.34 41.18 39.85 40 40 L40 37 L40 31 L40 28 C41.18 28.15 41.02 26.66 41 26 L42 23 L44 23 z"/>
<path style="fill:#9f9f9f" d="M45 24 L44 23 L45 24 z"/>
<path style="fill:#6d6d6d" d="M62 24 L61 23 L62 24 z"/>
<path style="fill:#727272" d="M24 24 L23 25 L24 24 z"/>
<path style="fill:#777777" d="M29 24 L28 25 L29 24 z"/>
<path style="fill:#747474" d="M46 27 C44.82 27.15 44.98 25.66 45 25 C46.18 24.85 46.02 26.34 46 27 z"/>
<path style="fill:#898989" d="M41 26 C41.02 26.66 41.18 28.15 40 28 C39.98 27.34 39.82 25.85 41 26 z"/>
<path style="fill:#838383" d="M61 27 L60 26 L61 27 z"/>
<path style="fill:#646464" d="M25 27 L24 28 L25 27 z"/>
<path style="fill:#a1a1a1" d="M62 28 L61 27 L62 28 z"/>
<path style="fill:#7f7f7f" d="M20 28 L19 29 L20 28 z"/>
<path style="fill:#696969" d="M24 28 L23 29 L24 28 z"/>
<path style="fill:#868686" d="M47 30 C45.82 30.15 45.98 28.66 46 28 C47.18 27.85 47.02 29.34 47 30 z"/>
<path style="fill:#656565" d="M23 29 L22 30 L23 29 z"/>
<path style="fill:#717171" d="M68 30 L67 29 L68 30 z"/>
<path style="fill:#8f8f8f" d="M65 31 L64 30 L65 31 z"/>
<path style="fill:#a3a3a3" d="M69 31 L68 30 L69 31 z"/>
<path style="fill:#656666" d="M40 31 L40 37 C38.38 36.27 38.38 31.73 40 31 z"/>
<path style="fill:#676767" d="M70 33 L69 32 L70 33 z"/>
<path style="fill:#6c6c6c" d="M20 33 L19 34 L20 33 z"/>
<path style="fill:#a8a8a8" d="M16 34 L15 35 L16 34 z"/>
<path style="fill:#6a6a6a" d="M71 35 L70 34 L71 35 z"/>
<path style="fill:#808080" d="M19 35 L18 36 L19 35 z"/>
<path style="fill:#7c7c7c" d="M72 37 L71 36 L72 37 z"/>
<path style="fill:#a1a1a1" d="M69 38 L68 37 L69 38 z"/>
<path style="fill:#919292" d="M73 40 C71.82 40.15 71.98 38.66 72 38 C73.18 37.85 73.02 39.34 73 40 z"/>
<path style="fill:#9a9a9a" d="M20 39 L19 41 C16.98 40.81 18.44 38.1 20 39 z"/>
<path style="fill:#090909" d="M30 39 C29.85 40.18 31.34 40.02 32 40 L33 40 L34 41 L35 41 L36 42 L37 42 L38 43 L40 44 L40 45 L40 46 L39 46 C34.42 42.01 32.55 46.78 39 47 L32 48 L31 48 C31.15 46.82 29.66 46.98 29 47 L24 45 L23 44 L21 43 L20 42 L19 41 L20 39 L30 39 z"/>
<path style="fill:#a5a5a5" d="M32 40 C31.34 40.02 29.85 40.18 30 39 C30.66 38.98 32.15 38.82 32 40 z"/>
<path style="fill:#c1c2c2" d="M45 44 L46 44 L47 44 L46 46 L45 46 L44 45 L42 45 L40 45 L40 44 L41 44 L43.25 39.25 L45 44 z"/>
<path style="fill:#0c0c0c" d="M67 39 L67 41 L66 42 L65 43 L64 44 L62 45 L61 46 L58 47 C57.34 46.98 55.85 46.82 56 48 L54 48 L48 47 L49 47 C52.7 46.55 51.28 43.37 49 46 L46 46 L47 44 L48 44 L49 43 L51 42 L52 41 L53 41 L54 40 L67 39 z"/>
<path style="fill:#868787" d="M67 41 L67 39 C68.33 38.78 68.33 41.22 67 41 z"/>
<path style="fill:#626363" d="M14 40 C14.02 40.66 14.18 42.15 13 42 C12.98 41.34 12.82 39.85 14 40 z"/>
<path style="fill:#7e7f7f" d="M17 40 C17.02 40.66 17.18 42.15 16 42 C15.98 41.34 15.82 39.85 17 40 z"/>
<path style="fill:#7e7e7e" d="M34 41 L33 40 L34 41 z"/>
<path style="fill:#8e8f8f" d="M41 42 C39.82 42.15 39.98 40.66 40 40 C41.18 39.85 41.02 41.34 41 42 z"/>
<path style="fill:#979898" d="M47 40 C47.02 40.66 47.18 42.15 46 42 C45.98 41.34 45.82 39.85 47 40 z"/>
<path style="fill:#868686" d="M54 40 L53 41 L54 40 z"/>
<path style="fill:#949494" d="M20 42 L19 41 L20 42 z"/>
<path style="fill:#747474" d="M36 42 L35 41 L36 42 z"/>
<path style="fill:#878787" d="M52 41 L51 42 L52 41 z"/>
<path style="fill:#656565" d="M67 41 L66 42 L67 41 z"/>
<path style="fill:#a3a3a3" d="M21 43 L20 42 L21 43 z"/>
<path style="fill:#868686" d="M38 43 L37 42 L38 43 z"/>
<path style="fill:#747575" d="M73 53 L73 42 C74.66 44.31 74.66 50.69 73 53 z"/>
<path style="fill:#616161" d="M46 43 L46 44 L45 44 L46 43 z"/>
<path style="fill:#7e7e7e" d="M49 43 L48 44 L49 43 z"/>
<path style="fill:#7b7b7b" d="M65 43 L64 44 L65 43 z"/>
<path style="fill:#a9aaaa" d="M13 44 L13 52 C11.35 50.66 11.35 45.34 13 44 z"/>
<path style="fill:#494949" d="M16 44 L16 52 C14.35 50.66 14.35 45.34 16 44 z"/>
<path style="fill:#656565" d="M24 45 L23 44 L24 45 z"/>
<path style="fill:#7c7d7d" d="M39 46 L39 47 C32.55 46.78 34.42 42.01 39 46 z"/>
<path style="fill:#969797" d="M42 45 C41.15 46.28 39.96 49.3 42 50 L44 52 L44 53 L42 53 C40.21 49.58 39.81 56.4 37.25 54.75 L40 50 L40 46 L40 45 L42 45 z"/>
<path style="fill:#090909" d="M44 45 L45 46 L46 46 L46 49 L42 50 C39.96 49.3 41.15 46.28 42 45 L44 45 z"/>
<path style="fill:#646464" d="M45 46 L44 45 L45 46 z"/>
<path style="fill:#929393" d="M49 47 L49 46 C51.28 43.37 52.7 46.55 49 47 z"/>
<path style="fill:#797979" d="M62 45 L61 46 L62 45 z"/>
<path style="fill:#a9a9a9" d="M70 51 L70 45 C71.62 45.73 71.62 50.27 70 51 z"/>
<path style="fill:#bebfbf" d="M40 46 L40 50 L39 50 L32 48 L39 47 L39 46 L40 46 z"/>
<path style="fill:#646565" d="M31 48 C30.34 48.02 28.85 48.18 29 47 C29.66 46.98 31.15 46.82 31 48 z"/>
<path style="fill:#4e4e4e" d="M48 47 L54 48 C53.39 49.99 44.64 49.48 48 47 z"/>
<path style="fill:#676767" d="M58 47 C58.15 48.18 56.66 48.02 56 48 C55.85 46.82 57.34 46.98 58 47 z"/>
<path style="fill:#838484" d="M46 49 L46 50 C49.17 55.42 48.95 57.03 44 52 L42 50 L46 49 z"/>
<path style="fill:#0b0c0c" d="M39 50 L40 50 L37.25 54.75 C39.81 56.4 40.21 49.58 42 53 C40.82 52.85 40.98 54.34 41 55 L40 59 L39 60 L33 66 L32 67 L30 68 L29 69 L28 65 C29.18 65.15 29.02 63.66 29 63 L30 59 L31 58 L32 56 L33 55 L34 54 L35 53 L36 52 L37 51 L39 50 z"/>
<path style="fill:#0a0b0b" d="M47 50 L48 51 L51 53 L52 54 L53 55 L54 56 L55 58 L56 59 L56 60 L57 61 L57 62 C56.98 62.66 56.82 64.15 58 64 L58 65 L58 69 L54 67 L53 66 L47 60 L46 59 L46 58 L45 57 L44 53 L44 52 C48.95 57.03 49.17 55.42 46 50 L47 50 z"/>
<path style="fill:#787878" d="M48 51 L47 50 L48 51 z"/>
<path style="fill:#868686" d="M37 51 L36 52 L37 51 z"/>
<path style="fill:#6b6b6b" d="M36 52 L35 53 L36 52 z"/>
<path style="fill:#727272" d="M42 53 C42.02 53.66 42.18 55.15 41 55 C40.98 54.34 40.82 52.85 42 53 z"/>
<path style="fill:#9a9a9a" d="M52 54 L51 53 L52 54 z"/>
<path style="fill:#707171" d="M14 56 C12.82 56.15 12.98 54.66 13 54 C14.18 53.85 14.02 55.34 14 56 z"/>
<path style="fill:#797979" d="M17 56 C15.82 56.15 15.98 54.66 16 54 C17.18 53.85 17.02 55.34 17 56 z"/>
<path style="fill:#6d6d6d" d="M34 54 L33 55 L34 54 z"/>
<path style="fill:#797979" d="M53 55 L52 54 L53 55 z"/>
<path style="fill:#919191" d="M33 55 L32 56 L33 55 z"/>
<path style="fill:#929292" d="M54 56 L53 55 L54 56 z"/>
<path style="fill:#a7a7a7" d="M73 56 C73.02 56.66 73.18 58.15 72 58 C71.98 57.34 71.82 55.85 73 56 z"/>
<path style="fill:#858585" d="M46 58 L45 57 L46 58 z"/>
<path style="fill:#a3a4a4" d="M15 60 C13.82 60.15 13.98 58.66 14 58 C15.18 57.85 15.02 59.34 15 60 z"/>
<path style="fill:#a4a4a4" d="M31 58 L30 59 L31 58 z"/>
<path style="fill:#828282" d="M56 59 L55 58 L56 59 z"/>
<path style="fill:#888888" d="M69 58 L68 59 L69 58 z"/>
<path style="fill:#a3a3a3" d="M40 59 L39 60 L40 59 z"/>
<path style="fill:#9f9f9f" d="M47 60 L46 59 L47 60 z"/>
<path style="fill:#868686" d="M57 61 L56 60 L57 61 z"/>
<path style="fill:#9d9d9d" d="M68 60 L67 61 L68 60 z"/>
<path style="fill:#777777" d="M71 61 L70 62 L71 61 z"/>
<path style="fill:#8a8b8b" d="M58 64 C56.82 64.15 56.98 62.66 57 62 C58.18 61.85 58.02 63.34 58 64 z"/>
<path style="fill:#797979" d="M67 62 L66 63 L67 62 z"/>
<path style="fill:#868686" d="M21 64 L20 63 L21 64 z"/>
<path style="fill:#666666" d="M29 63 C29.02 63.66 29.18 65.15 28 65 C27.98 64.34 27.82 62.85 29 63 z"/>
<path style="fill:#888888" d="M70 63 L69 64 L70 63 z"/>
<path style="fill:#7d7d7d" d="M18 65 L17 64 L18 65 z"/>
<path style="fill:#9d9d9d" d="M58 69 L58 65 C59.55 65.19 59.55 68.81 58 69 z"/>
<path style="fill:#696969" d="M33 66 L32 67 L33 66 z"/>
<path style="fill:#797979" d="M54 67 L53 66 L54 67 z"/>
<path style="fill:#727272" d="M64 66 L63 67 L64 66 z"/>
<path style="fill:#9a9a9a" d="M68 66 L67 67 L68 66 z"/>
<path style="fill:#a0a0a0" d="M20 68 L19 67 L20 68 z"/>
<path style="fill:#717171" d="M63 67 L62 68 L63 67 z"/>
<path style="fill:#777777" d="M67 67 L66 68 L67 67 z"/>
<path style="fill:#878787" d="M21 69 L20 68 L21 69 z"/>
<path style="fill:#9f9f9f" d="M30 68 L29 69 L30 68 z"/>
<path style="fill:#6b6b6b" d="M62 68 L61 69 L62 68 z"/>
<path style="fill:#949494" d="M22 70 L21 69 L22 70 z"/>
<path style="fill:#8f8f8f" d="M23 71 L22 70 L23 71 z"/>
<path style="fill:#878787" d="M28 71 L27 70 L28 71 z"/>
<path style="fill:#a8a8a8" d="M24 72 L23 71 L24 72 z"/>
<path style="fill:#656565" d="M58 71 L57 72 L58 71 z"/>
<path style="fill:#7c7c7c" d="M63 71 L62 72 L63 71 z"/>
<path style="fill:#868686" d="M56 72 L55 73 L56 72 z"/>
<path style="fill:#9e9e9e" d="M62 72 L61 73 L62 72 z"/>
<path style="fill:#818181" d="M27 74 L26 73 L27 74 z"/>
<path style="fill:#777777" d="M37 75 C36.34 75.02 34.85 75.18 35 74 C35.66 73.98 37.15 73.82 37 75 z"/>
<path style="fill:#868686" d="M51 74 C51.15 75.18 49.66 75.02 49 75 C48.85 73.82 50.34 73.98 51 74 z"/>
<path style="fill:#484949" d="M47 75 C45.66 76.65 40.34 76.65 39 75 L47 75 z"/>
<path style="fill:#8a8b8b" d="M55 76 C55.15 77.18 53.66 77.02 53 77 C52.85 75.82 54.34 75.98 55 76 z"/>
<path style="fill:#a4a4a4" d="M36 78 C35.34 78.02 33.85 78.18 34 77 C34.66 76.98 36.15 76.82 36 78 z"/>
<path style="fill:#afb0b0" d="M48 78 C46.01 79.66 39.99 79.66 38 78 L48 78 z"/>
</svg>
