<?xml version="1.0" standalone="yes"?>
<svg width="87" height="97">
<path style="fill:#fcfdfd" d="M87 0 L87 97 L0 97 L0 0 L87 0 z"/>
<path style="fill:#757676" d="M41 14 L37 15 L41 14 z"/>
<path style="fill:#0f0f0f" d="M48 14 C47.85 15.18 49.34 15.02 50 15 L56 16 C55.85 17.18 57.34 17.02 58 17 C57.85 18.18 59.34 18.02 60 18 C59.85 19.18 61.34 19.02 62 19 L65 21 L68 24 C67.54 25.35 68.65 26.46 70 26 L71 27 L73 30 L74 31 L75 34 C74.98 34.66 74.82 36.15 76 36 C75.98 36.66 75.82 38.15 77 38 L78 44 L78 53 C76.41 53.06 77.19 55.05 77 56 L77 58 C75.82 57.85 75.98 59.34 76 60 C74.82 59.85 74.98 61.34 75 62 L74 65 L73 66 L73 67 L71 69 L71 70 C69.65 69.54 68.54 70.65 69 72 L68 72 L66 74 L64 76 C63.34 75.98 61.85 75.82 62 77 L58 79 C57.34 78.98 55.85 78.82 56 80 C55.05 80.19 53.06 79.41 53 81 L51 81 L40 81 L36 81 C36.15 79.82 34.66 79.98 34 80 L33 80 C33.15 78.82 31.66 78.98 31 79 C29.56 78.98 27.61 78.24 27 77 C26.74 75.71 25.34 74.67 24 75 L20 72 L19 71 C18.09 69.65 17.93 67.41 16 67 C16.02 66.34 16.18 64.85 15 65 L14 64 C14.02 63.34 14.18 61.85 13 62 L13 61 C13.02 60.34 13.18 58.85 12 59 L12 58 C12.02 57.34 12.18 55.85 11 56 L11 54 C11.02 53.34 11.18 51.85 10 52 L11 39 C12.18 39.15 12.02 37.66 12 37 L12 36 C13.18 36.15 13.02 34.66 13 34 C14.18 34.15 14.02 32.66 14 32 C15.29 31.74 16.33 30.34 16 29 L17 27 L18 26 L19 25 L20 24 L21 23 C22.35 23.46 23.46 22.35 23 21 L25 20 C26.34 20.33 27.74 19.29 28 18 C28.66 18.02 30.15 18.18 30 17 L31 17 L32 16 L33 16 C33.66 16.02 35.15 16.18 35 15 L37 15 L41 14 L48 14 z"/>
<path style="fill:#767777" d="M50 15 C49.34 15.02 47.85 15.18 48 14 C48.66 13.98 50.15 13.82 50 15 z"/>
<path style="fill:#a2a2a2" d="M35 15 C35.15 16.18 33.66 16.02 33 16 C32.85 14.82 34.34 14.98 35 15 z"/>
<path style="fill:#848484" d="M32 16 L31 17 L32 16 z"/>
<path style="fill:#a5a5a5" d="M58 17 C57.34 17.02 55.85 17.18 56 16 C56.66 15.98 58.15 15.82 58 17 z"/>
<path style="fill:#898a8a" d="M30 17 C30.15 18.18 28.66 18.02 28 18 C27.85 16.82 29.34 16.98 30 17 z"/>
<path style="fill:#959595" d="M60 18 C59.34 18.02 57.85 18.18 58 17 C58.66 16.98 60.15 16.82 60 18 z"/>
<path style="fill:#686969" d="M28 18 C27.74 19.29 26.34 20.33 25 20 C25.26 18.71 26.66 17.67 28 18 z"/>
<path style="fill:#a2a3a3" d="M62 19 C61.34 19.02 59.85 19.18 60 18 C60.66 17.98 62.15 17.82 62 19 z"/>
<path style="fill:#3a3a3a" d="M48 20 L40 20 C41.34 18.35 46.66 18.35 48 20 z"/>
<path style="fill:#666666" d="M38 20 C38.15 21.18 36.66 21.02 36 21 C35.85 19.82 37.34 19.98 38 20 z"/>
<path style="fill:#f0f1f1" d="M40 20 L48 20 L50 20 C49.85 21.18 51.34 21.02 52 21 L53 21 C52.85 22.18 54.34 22.02 55 22 L59 24 L53 26 C52.34 25.98 50.85 25.82 51 27 C50.34 26.98 48.85 26.82 49 28 L49 32 L48 32 L48 31 L48 30 C48.22 28.67 45.78 28.67 46 30 L45 31 L38 27 C38.15 25.82 36.66 25.98 36 26 C34.97 24.36 30.03 24.36 29 26 L27 28 L25 28 C24.98 27.34 24.82 25.85 26 26 L27 25 L36 21 C36.66 21.02 38.15 21.18 38 20 L40 20 z"/>
<path style="fill:#868787" d="M52 21 C51.34 21.02 49.85 21.18 50 20 C50.66 19.98 52.15 19.82 52 21 z"/>
<path style="fill:#737373" d="M23 21 C23.46 22.35 22.35 23.46 21 23 L23 21 z"/>
<path style="fill:#747474" d="M55 22 C54.34 22.02 52.85 22.18 53 21 C53.66 20.98 55.15 20.82 55 22 z"/>
<path style="fill:#abacac" d="M68 24 L65 21 C66.69 20.59 68.41 22.31 68 24 z"/>
<path style="fill:#626262" d="M20 24 L19 25 L20 24 z"/>
<path style="fill:#babbbb" d="M67 32 L64 32 L64 30 L63 29 C61.26 25.3 56.49 26.01 53 26 L59 24 C61.85 26.13 66.45 28.02 67 32 z"/>
<path style="fill:#5b5b5b" d="M70 26 C68.65 26.46 67.54 25.35 68 24 L70 26 z"/>
<path style="fill:#909090" d="M19 25 L18 26 L19 25 z"/>
<path style="fill:#6c6c6c" d="M27 25 L26 26 L27 25 z"/>
<path style="fill:#7f7f7f" d="M36 26 L29 26 C30.03 24.36 34.97 24.36 36 26 z"/>
<path style="fill:#a4a4a4" d="M18 26 L17 27 L18 26 z"/>
<path style="fill:#0f0f0f" d="M29 26 L36 26 L35.75 34.75 L30 31 C30.41 29.31 28.69 27.59 27 28 L29 26 z"/>
<path style="fill:#898a8a" d="M38 27 C36.35 28.34 36.35 33.66 38 35 L39 36 L37 38 C37.9 36.44 35.19 34.98 35 37 L33 36 L30 33 L30 32 L30 31 L35.75 34.75 L36 26 C36.66 25.98 38.15 25.82 38 27 z"/>
<path style="fill:#bebfbf" d="M53 26 L53 37 L53 39 L53 40 C52.34 39.98 50.85 39.82 51 41 L50 41 L49 28 C48.85 26.82 50.34 26.98 51 27 L51.25 38.75 C52.36 36.13 52.8 29.56 51 27 C50.85 25.82 52.34 25.98 53 26 z"/>
<path style="fill:#111111" d="M63 29 C61.09 29.22 59.22 31.09 59 33 L53 37 L53 26 C56.49 26.01 61.26 25.3 63 29 z"/>
<path style="fill:#a8a8a8" d="M71 27 L70 26 L71 27 z"/>
<path style="fill:#242424" d="M38 27 L38 30 L38 35 C36.35 33.66 36.35 28.34 38 27 z"/>
<path style="fill:#555656" d="M45 31 L42 34 C42.4 30.74 40.46 33.36 39.25 33.75 L38 30 L38 27 L45 31 z"/>
<path style="fill:#525353" d="M51 27 C52.8 29.56 52.36 36.13 51.25 38.75 L51 27 z"/>
<path style="fill:#c7c7c7" d="M25 28 L25 30 L23 30 C22.54 28.65 23.65 27.54 25 28 z"/>
<path style="fill:#747575" d="M27 28 C28.69 27.59 30.41 29.31 30 31 L30 32 L29 32 C28.87 30.23 26.26 29.48 27 32 L25 30 L25 28 L27 28 z"/>
<path style="fill:#494a4a" d="M50 41 L49 32 L49 28 L50 41 z"/>
<path style="fill:#7f8080" d="M16 29 C16.33 30.34 15.29 31.74 14 32 C13.67 30.66 14.71 29.26 16 29 z"/>
<path style="fill:#686969" d="M48 30 L46 30 C45.78 28.67 48.22 28.67 48 30 z"/>
<path style="fill:#868686" d="M63 29 L64 30 L62 32 L59 33 C59.22 31.09 61.09 29.22 63 29 z"/>
<path style="fill:#6b6b6b" d="M22 30 L21 31 L22 30 z"/>
<path style="fill:#f0f0f0" d="M23 30 L22 35 C20.45 35.19 20.45 38.81 22 39 C21.98 39.66 21.82 41.15 23 41 C23.19 41.95 22.41 43.94 24 44 L27 48 L26 48 L25 52 L25 57 C23.8 57.94 22.97 50.89 23 58 C21.1 53.75 19.79 59.85 22 61 C21.98 61.66 21.82 63.15 23 63 C22.98 63.66 22.82 65.15 24 65 L25 66 C25.95 66.19 27.94 65.41 28 67 C23.56 67.19 30.2 70.91 32 70 L41 67 L48 68 L50 68 C51.52 69.4 56.34 71.37 58 69 L59 69 L61 68 L62 68 L63 69 L61 71 C60.34 70.98 58.85 70.82 59 72 L58 73 C57.34 72.98 55.85 72.82 56 74 L55 74 L50 76 L38 76 C38.15 74.82 36.66 74.98 36 75 L35 75 C35.15 73.82 33.66 73.98 33 74 L27 71 L26 70 L25 69 L24 68 L23 67 L22 66 L21 65 L20 63 L19 62 L18 59 C18.02 58.34 18.18 56.85 17 57 L17 55 C17.02 54.34 17.18 52.85 16 53 L16 50 L16 44 L17 39 C18.18 39.15 18.02 37.66 18 37 L19 35 C20.18 35.15 20.02 33.66 20 33 L21 31 L22 30 L23 30 z"/>
<path style="fill:#171818" d="M25 30 L27 32 L32 39 L22 39 L22 35 L23 30 L25 30 z"/>
<path style="fill:#202121" d="M29 32 L27 32 C26.26 29.48 28.87 30.23 29 32 z"/>
<path style="fill:#b1b1b1" d="M42 34 L39 36 L38 35 L38 30 L39.25 33.75 C40.46 33.36 42.4 30.74 42 34 z"/>
<path style="fill:#676767" d="M46 30 L45 31 L46 30 z"/>
<path style="fill:#0a0a0a" d="M48 30 L48 31 L47 43 L45 46 L44 47 L43 48 L42 49 C39.06 49.74 34.97 54.75 36 48 L37 39 L37 38 L39 36 L42 34 L45 31 L46 30 L48 30 z"/>
<path style="fill:#3d3d3d" d="M64 30 L64 32 L62 32 L64 30 z"/>
<path style="fill:#a0a0a0" d="M74 31 L73 30 L74 31 z"/>
<path style="fill:#5a5b5b" d="M48 31 L48 32 L47 43 L48 31 z"/>
<path style="fill:#6f7070" d="M14 32 C14.02 32.66 14.18 34.15 13 34 C12.98 33.34 12.82 31.85 14 32 z"/>
<path style="fill:#888888" d="M29 32 L30 33 C29.59 34.69 31.31 36.41 33 36 L33 38 L33 39 L32 39 L27 32 L29 32 z"/>
<path style="fill:#060606" d="M30 32 L30 33 L29 32 L30 32 z"/>
<path style="fill:#939494" d="M49 32 L50 41 L51 41 L51 42 L49 44 L45 46 L47 43 L48 32 L49 32 z"/>
<path style="fill:#2e2f2f" d="M62 32 C60.22 34.23 58.05 37.7 55 38 L59 33 L62 32 z"/>
<path style="fill:#9a9b9b" d="M64 32 L56.25 39.75 L67 40 L65 43 L54 40 L54 39 L55 38 C58.05 37.7 60.22 34.23 62 32 L64 32 z"/>
<path style="fill:#0c0d0d" d="M67 32 L67 40 L56.25 39.75 L64 32 L67 32 z"/>
<path style="fill:#9e9e9e" d="M69 34 L67 40 L67 32 L69 34 z"/>
<path style="fill:#868686" d="M20 33 C20.02 33.66 20.18 35.15 19 35 C18.98 34.34 18.82 32.85 20 33 z"/>
<path style="fill:#252525" d="M33 36 C31.31 36.41 29.59 34.69 30 33 L33 36 z"/>
<path style="fill:#8e8f8f" d="M59 33 L55 38 L54 39 L53 39 L53 37 L59 33 z"/>
<path style="fill:#818282" d="M13 34 C13.02 34.66 13.18 36.15 12 36 C11.98 35.34 11.82 33.85 13 34 z"/>
<path style="fill:#f5f6f6" d="M69 34 L69 35 L70 36 L71 39 L72 52 L71 58 C69.82 57.85 69.98 59.34 70 60 C68.82 59.85 68.98 61.34 69 62 C67.82 61.85 67.98 63.34 68 64 L67 65 L66 66 C65.34 66.02 63.85 66.18 64 65 C65.46 61.68 65.8 55.8 64 53 L63 51 L62 48 L63 47 C64.18 47.15 64.02 45.66 64 45 C65.18 45.15 65.02 43.66 65 43 L67 40 L69 34 z"/>
<path style="fill:#757676" d="M76 36 C74.82 36.15 74.98 34.66 75 34 C76.18 33.85 76.02 35.34 76 36 z"/>
<path style="fill:#999999" d="M22 35 L22 39 C20.45 38.81 20.45 35.19 22 35 z"/>
<path style="fill:#999999" d="M70 36 L69 35 L70 36 z"/>
<path style="fill:#212121" d="M35 37 C35.45 39.02 34.16 38.93 33 38 L33 36 L35 37 z"/>
<path style="fill:#d7d7d7" d="M37 38 L37 39 L34 41 L34 42 L33 42 C31.82 41.85 31.98 43.34 32 44 C31.34 44.02 29.85 44.18 30 43 C31.18 43.15 31.02 41.66 31 41 C31.66 41.02 33.15 41.18 33 40 L33 39 L33 38 C34.16 38.93 35.45 39.02 35 37 C35.19 34.98 37.9 36.44 37 38 z"/>
<path style="fill:#979797" d="M77 38 C75.82 38.15 75.98 36.66 76 36 C77.18 35.85 77.02 37.34 77 38 z"/>
<path style="fill:#757575" d="M12 37 C12.02 37.66 12.18 39.15 11 39 C10.98 38.34 10.82 36.85 12 37 z"/>
<path style="fill:#868686" d="M18 37 C18.02 37.66 18.18 39.15 17 39 C16.98 38.34 16.82 36.85 18 37 z"/>
<path style="fill:#0" d="M55 38 L54 39 L55 38 z"/>
<path style="fill:#a7a7a7" d="M32 39 L33 39 L33 40 L23 41 C21.82 41.15 21.98 39.66 22 39 L32 39 z"/>
<path style="fill:#727272" d="M37 39 L36 48 C35.81 47.05 36.59 45.06 35 45 L34 41 L37 39 z"/>
<path style="fill:#0" d="M54 39 L54 40 L53 40 L53 39 L54 39 z"/>
<path style="fill:#a3a3a3" d="M72 52 L71 39 C72.86 42.04 74.27 48.74 72 52 z"/>
<path style="fill:#202020" d="M33 40 C33.15 41.18 31.66 41.02 31 41 L23 41 L33 40 z"/>
<path style="fill:#5a5a5a" d="M53 40 L54 40 L65 43 L56 44 C55.34 44.02 53.85 44.18 54 43 C54.15 41.82 52.66 41.98 52 42 L51 42 L51 41 C50.85 39.82 52.34 39.98 53 40 z"/>
<path style="fill:#939494" d="M31 41 C31.02 41.66 31.18 43.15 30 43 C29.27 41.38 24.73 41.38 24 43 L24 44 C22.41 43.94 23.19 41.95 23 41 L31 41 z"/>
<path style="fill:#171818" d="M35 45 L34 55 L34 42 L34 41 L35 45 z"/>
<path style="fill:#0e0f0f" d="M30 43 L24 43 C24.73 41.38 29.27 41.38 30 43 z"/>
<path style="fill:#101010" d="M33 42 L33 55 L32 47 L32 44 C31.98 43.34 31.82 41.85 33 42 z"/>
<path style="fill:#8e8e8e" d="M34 42 L34 55 L33 55 L33 42 L34 42 z"/>
<path style="fill:#383838" d="M51 42 L51 44 L50 44 L49 44 L51 42 z"/>
<path style="fill:#969797" d="M52 42 L53 43 L64 45 C64.02 45.66 64.18 47.15 63 47 L50 46 C48.82 46.15 48.98 44.66 49 44 L50 44 C49.57 45.06 51.43 45.06 51 44 L51 42 L52 42 z"/>
<path style="fill:#e8e8e8" d="M54 43 L53 43 L52 42 C52.66 41.98 54.15 41.82 54 43 z"/>
<path style="fill:#727272" d="M30 43 C29.85 44.18 31.34 44.02 32 44 L32 47 L29 45 C29.14 43.12 27.12 45.14 29 45 L29 46 L27 48 L24 44 L24 43 L30 43 z"/>
<path style="fill:#3c3d3d" d="M54 43 C53.85 44.18 55.34 44.02 56 44 L64 45 L53 43 L54 43 z"/>
<path style="fill:#9b9c9c" d="M65 43 C65.02 43.66 65.18 45.15 64 45 L56 44 L65 43 z"/>
<path style="fill:#626262" d="M16 44 L16 50 C14.38 49.27 14.38 44.73 16 44 z"/>
<path style="fill:#fcfcfc" d="M29 45 C27.12 45.14 29.14 43.12 29 45 z"/>
<path style="fill:#575757" d="M49 44 C48.98 44.66 48.82 46.15 50 46 C48.76 47.06 47.01 49.06 45 49 C44.34 49.02 42.85 49.18 43 48 L44 47 L45 46 L49 44 z"/>
<path style="fill:#fcfcfc" d="M51 44 C51.43 45.06 49.57 45.06 50 44 L51 44 z"/>
<path style="fill:#cdcdcd" d="M78 53 L78 44 C79.65 45.66 79.65 51.34 78 53 z"/>
<path style="fill:#565656" d="M32 47 L33 55 C33.63 57.12 31.18 57.14 30 58 L29 46 L29 45 L32 47 z"/>
<path style="fill:#a4a4a4" d="M36 48 C34.97 54.75 39.06 49.74 42 49 L39 53 L38 54 L37 55 L36 56 L35 57 C33.12 56.86 35.14 58.88 35 57 L36 56 L37 55 L38 54 L39 53 L41 53 L39 56 C33.75 59.56 44.88 55.16 44 60 L41 60 C40.27 58.38 35.73 58.38 35 60 L33 62 L31 62 C32.95 60.04 32.98 57.98 30 60 L30 58 C31.18 57.14 33.63 57.12 33 55 L34 55 L35 45 C36.59 45.06 35.81 47.05 36 48 z"/>
<path style="fill:#0c0d0d" d="M30 58 L30 60 L26 61 L25 57 L25 52 L26 48 L27 48 L29 46 L30 58 z"/>
<path style="fill:#e2e2e2" d="M45 46 L44 47 L45 46 z"/>
<path style="fill:#0a0b0b" d="M63 47 L62 48 L54 56 L53 56 L42 56 L39 56 L41 53 C42.58 52.07 45.51 51.56 45 49 C47.01 49.06 48.76 47.06 50 46 L63 47 z"/>
<path style="fill:#b9b9b9" d="M44 47 L43 48 L44 47 z"/>
<path style="fill:#818181" d="M26 48 L25 52 L26 48 z"/>
<path style="fill:#707070" d="M43 48 C42.85 49.18 44.34 49.02 45 49 C45.51 51.56 42.58 52.07 41 53 L39 53 L42 49 L43 48 z"/>
<path style="fill:#808080" d="M62 48 L63 51 C60.98 51.24 57.63 52.31 58 55 L55 56 L54 56 L62 48 z"/>
<path style="fill:#0d0d0d" d="M63 51 L64 53 C64.05 56.5 64.72 62.68 60 63 L58 60 L58 55 C57.63 52.31 60.98 51.24 63 51 z"/>
<path style="fill:#a8a8a8" d="M11 54 C9.819 54.15 9.981 52.66 10 52 C11.18 51.85 11.02 53.34 11 54 z"/>
<path style="fill:#7b7c7c" d="M17 55 C15.82 55.15 15.98 53.66 16 53 C17.18 52.85 17.02 54.34 17 55 z"/>
<path style="fill:#1b1b1b" d="M39 53 L38 54 L39 53 z"/>
<path style="fill:#898a8a" d="M64 65 L60 64 L60 63 C64.72 62.68 64.05 56.5 64 53 C65.8 55.8 65.46 61.68 64 65 z"/>
<path style="fill:#757575" d="M78 53 C77.81 53.95 78.59 55.94 77 56 C77.19 55.05 76.41 53.06 78 53 z"/>
<path style="fill:#535454" d="M25 57 L26 61 L26 62 L25 63 L23 58 C22.97 50.89 23.8 57.94 25 57 z"/>
<path style="fill:#303030" d="M38 54 L37 55 L38 54 z"/>
<path style="fill:#0b0b0b" d="M37 55 L36 56 L37 55 z"/>
<path style="fill:#555656" d="M58 55 L58 60 L55 58 L55 56 L58 55 z"/>
<path style="fill:#646464" d="M12 58 C10.82 58.15 10.98 56.66 11 56 C12.18 55.85 12.02 57.34 12 58 z"/>
<path style="fill:#757575" d="M23 58 L25 63 C23.82 62.85 23.98 64.34 24 65 C22.82 65.15 22.98 63.66 23 63 C23.02 62.34 23.18 60.85 22 61 C19.79 59.85 21.1 53.75 23 58 z"/>
<path style="fill:#313131" d="M36 56 L35 57 L36 56 z"/>
<path style="fill:#7a7a7a" d="M39 56 L42 56 L50 57 C49.98 58.44 49.24 60.39 48 61 L44 60 C44.88 55.16 33.75 59.56 39 56 z"/>
<path style="fill:#404040" d="M53 56 C52.94 57.59 50.95 56.81 50 57 L42 56 L53 56 z"/>
<path style="fill:#b9baba" d="M54 56 L55 56 L55 58 C50.8 58.13 56.32 62.25 57 64 C54.1 63.01 51.58 61.09 48 62 C47.34 62.02 45.85 62.18 46 61 L48 61 C49.24 60.39 49.98 58.44 50 57 C50.95 56.81 52.94 57.59 53 56 L54 56 z"/>
<path style="fill:#5f6060" d="M18 59 C16.82 59.15 16.98 57.66 17 57 C18.18 56.85 18.02 58.34 18 59 z"/>
<path style="fill:#303030" d="M35 57 C35.14 58.88 33.12 56.86 35 57 z"/>
<path style="fill:#303030" d="M55 58 C55.04 60.68 58.05 62.57 60 64 L62 68 L61 68 L57 64 C56.32 62.25 50.8 58.13 55 58 z"/>
<path style="fill:#b1b1b1" d="M58 60 L60 63 L60 64 C58.05 62.57 55.04 60.68 55 58 L58 60 z"/>
<path style="fill:#999a9a" d="M71 58 C71.02 58.66 71.18 60.15 70 60 C69.98 59.34 69.82 57.85 71 58 z"/>
<path style="fill:#909090" d="M77 58 C77.02 58.66 77.18 60.15 76 60 C75.98 59.34 75.82 57.85 77 58 z"/>
<path style="fill:#8d8d8d" d="M13 61 C11.82 61.15 11.98 59.66 12 59 C13.18 58.85 13.02 60.34 13 61 z"/>
<path style="fill:#494949" d="M31 62 C29.82 62.15 29.98 60.66 30 60 C32.98 57.98 32.95 60.04 31 62 z"/>
<path style="fill:#616262" d="M41 60 L35 60 C35.73 58.38 40.27 58.38 41 60 z"/>
<path style="fill:#8f9090" d="M30 60 C29.98 60.66 29.82 62.15 31 62 L31 66 C28.98 65.55 29.07 66.84 30 68 C29.34 68.02 27.85 68.18 28 67 C27.94 65.41 25.95 66.19 25 66 L26 65 L27 64 L28 64 C27.57 65.06 29.43 65.06 29 64 C29.02 63.34 29.18 61.85 28 62 L26 62 L26 61 L30 60 z"/>
<path style="fill:#828282" d="M35 60 L46 61 C45.85 62.18 47.34 62.02 48 62 C46.02 64.01 45.19 66.68 48 68 L41 67 C49.75 61.23 38.55 61.64 33 62 L35 60 z"/>
<path style="fill:#151616" d="M41 60 L44 60 L48 61 L46 61 L35 60 L41 60 z"/>
<path style="fill:#1b1c1c" d="M50 60 C54.4 58.98 51.7 62.79 50 60 z"/>
<path style="fill:#848484" d="M70 60 C70.02 60.66 70.18 62.15 69 62 C68.98 61.34 68.82 59.85 70 60 z"/>
<path style="fill:#797979" d="M76 60 C76.02 60.66 76.18 62.15 75 62 C74.98 61.34 74.82 59.85 76 60 z"/>
<path style="fill:#171818" d="M23 63 C21.82 63.15 21.98 61.66 22 61 C23.18 60.85 23.02 62.34 23 63 z"/>
<path style="fill:#a9a9a9" d="M14 64 C12.82 64.15 12.98 62.66 13 62 C14.18 61.85 14.02 63.34 14 64 z"/>
<path style="fill:#797979" d="M20 63 L19 62 L20 63 z"/>
<path style="fill:#bcbcbc" d="M28 62 L27 64 L26 65 L25 66 L24 65 C23.98 64.34 23.82 62.85 25 63 L26 62 L28 62 z"/>
<path style="fill:#333333" d="M29 64 L28 64 L27 64 L28 62 C29.18 61.85 29.02 63.34 29 64 z"/>
<path style="fill:#0a0b0b" d="M33 62 C38.55 61.64 49.75 61.23 41 67 L31 66 L31 62 L33 62 z"/>
<path style="fill:#101010" d="M57 64 L58 67 C57.34 66.98 55.85 66.82 56 68 L50 68 L48 68 C45.19 66.68 46.02 64.01 48 62 C51.58 61.09 54.1 63.01 57 64 z"/>
<path style="fill:#8c8d8d" d="M69 62 C69.02 62.66 69.18 64.15 68 64 C67.98 63.34 67.82 61.85 69 62 z"/>
<path style="fill:#303030" d="M27 64 L26 65 L27 64 z"/>
<path style="fill:#ffffff" d="M29 64 C29.43 65.06 27.57 65.06 28 64 L29 64 z"/>
<path style="fill:#b4b4b4" d="M61 68 L59 69 L58 67 L57 64 L61 68 z"/>
<path style="fill:#cbcccc" d="M64 65 C63.85 66.18 65.34 66.02 66 66 L63 69 L62 68 L60 64 L64 65 z"/>
<path style="fill:#7c7c7c" d="M68 64 L67 65 L68 64 z"/>
<path style="fill:#888888" d="M16 67 C14.82 67.15 14.98 65.66 15 65 C16.18 64.85 16.02 66.34 16 67 z"/>
<path style="fill:#757575" d="M22 66 L21 65 L22 66 z"/>
<path style="fill:#747474" d="M74 65 L73 66 L74 65 z"/>
<path style="fill:#6e6e6e" d="M23 67 L22 66 L23 67 z"/>
<path style="fill:#373737" d="M31 66 C31.02 66.66 31.18 68.15 30 68 C29.07 66.84 28.98 65.55 31 66 z"/>
<path style="fill:#909191" d="M41 67 L32 70 L30 68 C31.18 68.15 31.02 66.66 31 66 L41 67 z"/>
<path style="fill:#b0b1b1" d="M19 71 C16.81 71.49 16.17 68.6 16 67 C17.93 67.41 18.09 69.65 19 71 z"/>
<path style="fill:#898989" d="M24 68 L23 67 L24 68 z"/>
<path style="fill:#656565" d="M28 67 C27.85 68.18 29.34 68.02 30 68 L32 70 C30.2 70.91 23.56 67.19 28 67 z"/>
<path style="fill:#626262" d="M58 67 L59 69 L58 69 L56 68 C55.85 66.82 57.34 66.98 58 67 z"/>
<path style="fill:#ababab" d="M73 67 C73.46 68.35 72.35 69.46 71 69 L73 67 z"/>
<path style="fill:#878787" d="M25 69 L24 68 L25 69 z"/>
<path style="fill:#adaeae" d="M56 68 L58 69 C56.34 71.37 51.52 69.4 50 68 L56 68 z"/>
<path style="fill:#747474" d="M27 71 L26 70 L27 71 z"/>
<path style="fill:#989898" d="M71 70 L69 72 C68.54 70.65 69.65 69.54 71 70 z"/>
<path style="fill:#a5a5a5" d="M20 72 L19 71 L20 72 z"/>
<path style="fill:#868787" d="M61 71 C61.15 72.18 59.66 72.02 59 72 C58.85 70.82 60.34 70.98 61 71 z"/>
<path style="fill:#7f7f7f" d="M59 72 L58 73 L59 72 z"/>
<path style="fill:#6d6e6e" d="M68 72 C68.46 73.35 67.35 74.46 66 74 L68 72 z"/>
<path style="fill:#666767" d="M58 73 C58.15 74.18 56.66 74.02 56 74 C55.85 72.82 57.34 72.98 58 73 z"/>
<path style="fill:#6d6e6e" d="M35 75 C34.34 75.02 32.85 75.18 33 74 C33.66 73.98 35.15 73.82 35 75 z"/>
<path style="fill:#6f6f6f" d="M55 74 C54.54 76.37 51.83 76.08 50 76 L55 74 z"/>
<path style="fill:#8e8e8e" d="M66 74 C66.46 75.35 65.35 76.46 64 76 L66 74 z"/>
<path style="fill:#585959" d="M27 77 C25.66 77.33 24.26 76.29 24 75 C25.34 74.67 26.74 75.71 27 77 z"/>
<path style="fill:#6f7070" d="M38 76 C37.34 76.02 35.85 76.18 36 75 C36.66 74.98 38.15 74.82 38 76 z"/>
<path style="fill:#8e8f8f" d="M64 76 C64.15 77.18 62.66 77.02 62 77 C61.85 75.82 63.34 75.98 64 76 z"/>
<path style="fill:#626363" d="M33 80 C32.34 80.02 30.85 80.18 31 79 C31.66 78.98 33.15 78.82 33 80 z"/>
<path style="fill:#666666" d="M58 79 C58.15 80.18 56.66 80.02 56 80 C55.85 78.82 57.34 78.98 58 79 z"/>
<path style="fill:#888989" d="M36 81 C35.34 81.02 33.85 81.18 34 80 C34.66 79.98 36.15 79.82 36 81 z"/>
<path style="fill:#8b8b8b" d="M56 80 C55.94 81.59 53.95 80.81 53 81 C53.06 79.41 55.05 80.19 56 80 z"/>
<path style="fill:#9e9e9e" d="M40 81 L40 82 L36 81 L40 81 z"/>
<path style="fill:#545555" d="M51 81 L40 82 L40 81 L51 81 z"/>
</svg>
