<?xml version="1.0" standalone="yes"?>
<svg width="87" height="97">
<path style="fill:#fcfdfd" d="M87 0 L87 97 L0 97 L0 0 L87 0 z"/>
<path style="fill:#aaaaaa" d="M37 19 L36 20 L37 19 z"/>
<path style="fill:#131313" d="M40 25 C37.83 17.56 32.8 30.75 34 22 L36 20 L37 19 C42.03 16.64 45.9 23.9 40 25 z"/>
<path style="fill:#121212" d="M53 22 L53 24 L53 27 L53 28 C51.65 29.81 51.33 29.66 49 29 L49 28 C48.66 26.18 49.18 24.29 51 26 C51.41 28.39 52.96 24.67 51 25 C51.02 24.34 51.18 22.85 50 23 C50.43 21.94 48.57 21.94 49 23 L45 24 C41.56 18.84 51.64 17.15 53 22 z"/>
<path style="fill:#9d9d9d" d="M31 21 L30 22 L31 21 z"/>
<path style="fill:#0c0c0c" d="M32 22 L33 29 C33.33 31.66 36.66 28.33 34 28 L34 27 L38 27 L38 29 L37 30 L36 31 L34 31 C32.49 32.36 29.51 32.48 29 30 L29 28 L28 24 L30 22 L31 21 L32 22 z"/>
<path style="fill:#939393" d="M57 22 L55 22 C54.78 20.67 57.22 20.67 57 22 z"/>
<path style="fill:#4e4e4e" d="M33 22 L34 27 L34 28 L33 29 L32 22 L33 22 z"/>
<path style="fill:#a5a6a6" d="M34 22 C32.8 30.75 37.83 17.56 40 25 L38 27 L34 27 L33 22 L34 22 z"/>
<path style="fill:#6d6d6d" d="M50 23 L49 23 C48.57 21.94 50.43 21.94 50 23 z"/>
<path style="fill:#646565" d="M55 23 L54 24 L53 24 L53 22 L55 23 z"/>
<path style="fill:#0e0e0e" d="M57 22 L58 23 L59 24 C57.9 26.98 58.68 31.09 60 26 L62 25 L63 26 L64 27 L64 28 L65 29 L62 34 C60.76 34.61 60.02 36.56 60 38 C59.15 37.89 54.62 37.85 57 39 L57 40 C55.82 39.85 55.98 41.34 56 42 C54.85 44.11 52.59 44.31 50 44 L48 42 C45.06 42.51 44.63 39.11 45 37 L51 36 C51.12 38.34 55.83 39.03 55 36 C56.18 36.15 56.02 34.66 56 34 L57 33 C58.06 33.43 58.06 31.57 57 32 L54 32 L54 28 C55.06 28.43 55.06 26.57 54 27 L54 24 L55 23 L55 22 L57 22 z"/>
<path style="fill:#737373" d="M58 23 L57 22 L58 23 z"/>
<path style="fill:#8d8e8e" d="M49 23 C48.57 24.06 50.43 24.06 50 23 C51.18 22.85 51.02 24.34 51 25 L51 26 C49.18 24.29 48.66 26.18 49 28 C48.02 26.07 46.93 24.98 45 24 L49 23 z"/>
<path style="fill:#fefefe" d="M50 23 C50.43 24.06 48.57 24.06 49 23 L50 23 z"/>
<path style="fill:#787878" d="M26 25 L25 25 C24.57 23.94 26.43 23.94 26 25 z"/>
<path style="fill:#616262" d="M28 24 L29 28 L28 28 L26 25 L28 24 z"/>
<path style="fill:#c5c5c5" d="M54 24 L54 27 L53 27 L53 24 L54 24 z"/>
<path style="fill:#737474" d="M60 26 C58.68 31.09 57.9 26.98 59 24 C60.18 23.85 60.02 25.34 60 26 z"/>
<path style="fill:#080909" d="M25 25 L26 25 L28 28 L28 30 C28.02 31.44 28.76 33.39 30 34 L31 37 L28 39 L27 38 L26 37 L22 29 C23.18 29.15 23.02 27.66 23 27 L24 26 L25 25 z"/>
<path style="fill:#dfdfdf" d="M51 26 L51 25 C52.96 24.67 51.41 28.39 51 26 z"/>
<path style="fill:#767676" d="M63 26 L62 25 L63 26 z"/>
<path style="fill:#808080" d="M24 26 L23 27 L24 26 z"/>
<path style="fill:#969696" d="M64 27 L63 26 L64 27 z"/>
<path style="fill:#6c6d6d" d="M23 27 C23.02 27.66 23.18 29.15 22 29 C21.98 28.34 21.82 26.85 23 27 z"/>
<path style="fill:#6c6d6d" d="M54 27 C55.06 26.57 55.06 28.43 54 28 L53 28 L53 27 L54 27 z"/>
<path style="fill:#dddddd" d="M29 28 L29 30 L28 30 L28 28 L29 28 z"/>
<path style="fill:#fefefe" d="M34 28 L33 29 L34 28 z"/>
<path style="fill:#858585" d="M33 29 L34 28 C36.66 28.33 33.33 31.66 33 29 z"/>
<path style="fill:#919292" d="M47 29 L45 29 C44.78 27.67 47.22 27.67 47 29 z"/>
<path style="fill:#909191" d="M53 28 L52 32 L49 29 C51.33 29.66 51.65 29.81 53 28 z"/>
<path style="fill:#dadada" d="M54 28 L54 32 L53 32 L52 32 L53 28 L54 28 z"/>
<path style="fill:#8d8d8d" d="M65 29 L64 28 L65 29 z"/>
<path style="fill:#7c7c7c" d="M22 29 L26 37 L26 38 L20 30 L22 29 z"/>
<path style="fill:#d0d0d0" d="M38 29 L38 30 L37 30 L38 29 z"/>
<path style="fill:#6a6a6a" d="M39 29 L38 30 L38 29 L39 29 z"/>
<path style="fill:#050606" d="M42 33 L32 36 C31.79 34.58 31.89 32.33 34 33 L35 33 L36 32 L37 31 L38 30 L39 29 C42.01 28.02 42.4 30.73 42 33 z"/>
<path style="fill:#080808" d="M47 29 L49 29 L52 32 L53 32 L55 34 L55 36 L51 36 L45 33 L45 29 L47 29 z"/>
<path style="fill:#b4b5b5" d="M68 31 C65.72 30.82 64.06 33.32 63 35 L62 34 L65 29 L68 31 z"/>
<path style="fill:#878787" d="M19 30 C19.02 30.66 19.18 32.15 18 32 C17.98 31.34 17.82 29.85 19 30 z"/>
<path style="fill:#070808" d="M20 30 L26 38 L27 38 L28 39 L30 41 L31 42 L31 43 L30 45 L27 44 L20 41 L19 40 C19.15 38.82 17.66 38.98 17 39 L17 34 L18 33 L18 32 C19.18 32.15 19.02 30.66 19 30 L20 30 z"/>
<path style="fill:#696a6a" d="M29 30 C29.51 32.48 32.49 32.36 34 31 L34 33 C31.89 32.33 31.79 34.58 32 36 L31 37 L30 34 C31.88 34.14 29.86 32.12 30 34 C28.76 33.39 28.02 31.44 28 30 L29 30 z"/>
<path style="fill:#bebebe" d="M37 30 L37 31 L36 31 L37 30 z"/>
<path style="fill:#595959" d="M38 30 L37 31 L37 30 L38 30 z"/>
<path style="fill:#cfcfcf" d="M36 31 L36 32 L35 33 L34 33 L34 31 L36 31 z"/>
<path style="fill:#616161" d="M37 31 L36 32 L36 31 L37 31 z"/>
<path style="fill:#090909" d="M68 31 L69 32 L70 39 L69 39 L66 42 L65 43 C62.92 43.13 59.63 42.21 59 45 C56.76 45.66 55.34 44.24 56 42 L57 41 L58 40 L58 39 C58.66 39.02 60.15 39.18 60 38 C62.12 38.63 62.14 36.18 63 35 C64.06 33.32 65.72 30.82 68 31 z"/>
<path style="fill:#a4a4a4" d="M69 32 L68 31 L69 32 z"/>
<path style="fill:#767676" d="M36 32 L35 33 L36 32 z"/>
<path style="fill:#505050" d="M54 32 L57 32 L57 33 L56 34 L55 34 L53 32 L54 32 z"/>
<path style="fill:#bfbfbf" d="M57 33 L57 32 C58.06 31.57 58.06 33.43 57 33 z"/>
<path style="fill:#6f6f6f" d="M18 33 L17 34 L18 33 z"/>
<path style="fill:#ffffff" d="M30 34 C29.86 32.12 31.88 34.14 30 34 z"/>
<path style="fill:#828282" d="M42 33 L42 35 C39.1 37.75 29.4 35.93 31 41 L30 41 L28 39 L31 37 L32 36 L42 33 z"/>
<path style="fill:#787979" d="M51 36 L45 37 L44 37 L45 33 L51 36 z"/>
<path style="fill:#e6e6e6" d="M57 33 L56 34 L57 33 z"/>
<path style="fill:#abacac" d="M56 34 C56.02 34.66 56.18 36.15 55 36 L55 34 L56 34 z"/>
<path style="fill:#484949" d="M62 34 L63 35 C62.14 36.18 62.12 38.63 60 38 C60.02 36.56 60.76 34.61 62 34 z"/>
<path style="fill:#0d0d0d" d="M42 35 C43.59 35.06 42.81 37.05 43 38 L42 39 L42 41 L41 42 L40 42 C38.03 43.56 35.39 42.86 33 43 L32 43 L31 42 L31 41 C29.4 35.93 39.1 37.75 42 35 z"/>
<path style="fill:#b5b6b6" d="M55 36 C55.83 39.03 51.12 38.34 51 36 L55 36 z"/>
<path style="fill:#f0f0f0" d="M27 38 L26 38 L26 37 L27 38 z"/>
<path style="fill:#cecece" d="M45 37 C44.63 39.11 45.06 42.51 48 42 L47 43 L44 42 L44 37 L45 37 z"/>
<path style="fill:#787878" d="M16 39 L14 39 C13.78 37.67 16.22 37.67 16 39 z"/>
<path style="fill:#c6c6c6" d="M28 39 L27 38 L28 39 z"/>
<path style="fill:#9e9e9e" d="M43 38 L42 39 L43 38 z"/>
<path style="fill:#767777" d="M60 38 C60.15 39.18 58.66 39.02 58 39 L57 39 C54.62 37.85 59.15 37.89 60 38 z"/>
<path style="fill:#0b0c0c" d="M16 39 L17 39 C16.85 40.18 18.34 40.02 19 40 L20 41 C20.86 43.49 23.5 44.54 26 44 C26.93 45.16 27.02 46.45 25 46 C22.99 47 19.76 48.16 20 51 C17.91 50.98 15.7 51.36 14 50 L14 48 C14.02 47.34 14.18 45.85 13 46 L13 43 C14.18 43.15 14.02 41.66 14 41 L14 39 L16 39 z"/>
<path style="fill:#a8a8a8" d="M19 40 C18.34 40.02 16.85 40.18 17 39 C17.66 38.98 19.15 38.82 19 40 z"/>
<path style="fill:#f0f0f0" d="M58 39 L58 40 L57 40 L57 39 L58 39 z"/>
<path style="fill:#858585" d="M69 39 L69 40 C68.74 41.29 67.34 42.33 66 42 L69 39 z"/>
<path style="fill:#f8f8f8" d="M70 39 L70 40 L69 40 L69 39 L70 39 z"/>
<path style="fill:#999999" d="M71 39 L70 40 L70 39 L71 39 z"/>
<path style="fill:#0b0c0c" d="M73 42 L73 48 C72.81 48.95 73.59 50.94 72 51 C71.05 51.19 69.06 50.41 69 52 L68 52 L67 51 L67 50 L62 46 L61 46 L65 43 L66 42 C67.34 42.33 68.74 41.29 69 40 L70 40 L71 39 C73.11 38.33 73.21 40.58 73 42 z"/>
<path style="fill:#b8b8b8" d="M20 41 L19 40 L20 41 z"/>
<path style="fill:#e9e9e9" d="M57 40 L57 41 L56 42 C55.98 41.34 55.82 39.85 57 40 z"/>
<path style="fill:#5d5d5d" d="M58 40 L57 41 L57 40 L58 40 z"/>
<path style="fill:#6e6f6f" d="M14 41 C14.02 41.66 14.18 43.15 13 43 C12.98 42.34 12.82 40.85 14 41 z"/>
<path style="fill:#737474" d="M27 44 L26 44 C23.5 44.54 20.86 43.49 20 41 L27 44 z"/>
<path style="fill:#d5d5d5" d="M31 41 L31 42 L30 41 L31 41 z"/>
<path style="fill:#838383" d="M42 41 L42 42 L41 42 L42 41 z"/>
<path style="fill:#e5e5e5" d="M32 43 L31 43 L31 42 L32 43 z"/>
<path style="fill:#585959" d="M40 42 L40 43 L37 45 L33 43 C35.39 42.86 38.03 43.56 40 42 z"/>
<path style="fill:#dcdddd" d="M41 42 L42 42 L42 43 L40 43 L40 42 L41 42 z"/>
<path style="fill:#7a7a7a" d="M43 43 L42 43 L42 42 L43 43 z"/>
<path style="fill:#070808" d="M47 43 C47.06 44.59 49.05 43.81 50 44 C50.3 45.89 52.29 46 53.75 46.25 L51 50 L50 51 L46 52 C44.43 48.93 43.62 45.64 44 42 L47 43 z"/>
<path style="fill:#7e7e7e" d="M50 44 C49.05 43.81 47.06 44.59 47 43 L48 42 L50 44 z"/>
<path style="fill:#909191" d="M56 42 C55.34 44.24 56.76 45.66 59 45 C59.02 45.66 59.18 47.15 58 47 L57 47 L56 46 L53 49 L51 50 L53.75 46.25 C52.29 46 50.3 45.89 50 44 C52.59 44.31 54.85 44.11 56 42 z"/>
<path style="fill:#dcdcdc" d="M66 42 L65 43 L66 42 z"/>
<path style="fill:#b7b8b8" d="M73 48 L73 42 C74.62 42.73 74.62 47.27 73 48 z"/>
<path style="fill:#4c4c4c" d="M32 43 L32 45 L32 46 L31 46 L30 45 L31 43 L32 43 z"/>
<path style="fill:#a3a3a3" d="M33 43 L37 45 L32 45 L32 43 L33 43 z"/>
<path style="fill:#070808" d="M42 43 L43 43 L41 52 L37 51 L36 51 L35 50 C35.41 48.31 33.69 46.59 32 47 L32 46 L32 45 L37 45 L40 43 L42 43 z"/>
<path style="fill:#656565" d="M65 43 L61 46 L61 52 L59 51 L56 47 L57 47 C56.57 48.06 58.43 48.06 58 47 C59.18 47.15 59.02 45.66 59 45 C59.63 42.21 62.92 43.13 65 43 z"/>
<path style="fill:#a3a3a3" d="M27 44 L30 45 L31 46 C28.94 46.65 26.98 47.91 29 50 C28.34 50.02 26.85 50.18 27 49 L25 46 C27.02 46.45 26.93 45.16 26 44 L27 44 z"/>
<path style="fill:#717272" d="M14 48 C12.82 48.15 12.98 46.66 13 46 C14.18 45.85 14.02 47.34 14 48 z"/>
<path style="fill:#6c6d6d" d="M25 46 L27 49 C24.76 48.22 23.67 50.23 22 51 L20 51 C19.76 48.16 22.99 47 25 46 z"/>
<path style="fill:#202020" d="M31 46 L31 47 L30 50 L29 50 C26.98 47.91 28.94 46.65 31 46 z"/>
<path style="fill:#c6c6c6" d="M32 46 L32 47 L31 47 L31 46 L32 46 z"/>
<path style="fill:#2c2d2d" d="M56 46 L56 47 L59 51 L55 52 L53 49 L56 46 z"/>
<path style="fill:#ffffff" d="M57 47 L56 47 L56 46 L57 47 z"/>
<path style="fill:#2a2b2b" d="M62 46 L63 51 L63 52 L61 52 L61 46 L62 46 z"/>
<path style="fill:#5e5f5f" d="M67 50 C66.34 49.98 64.85 49.82 65 51 L63 51 L62 46 L67 50 z"/>
<path style="fill:#5b5c5c" d="M32 47 C33.69 46.59 35.41 48.31 35 50 L36 51 C35.16 52.18 35.16 52.82 36 54 L33 53 L33 52 C34.88 52.14 32.86 50.12 33 52 C31.66 52.33 30.26 51.29 30 50 L31 47 L32 47 z"/>
<path style="fill:#0" d="M58 47 C58.43 48.06 56.57 48.06 57 47 L58 47 z"/>
<path style="fill:#c1c1c1" d="M33 49 C31.12 49.14 33.14 47.12 33 49 z"/>
<path style="fill:#ededed" d="M27 49 C26.85 50.18 28.34 50.02 29 50 L30 50 C30.26 51.29 31.66 52.33 33 52 L33 53 L30 55 L29 55 C29.95 52.5 26.05 52.5 27 55 L26 55 L22 54 L22 51 C23.67 50.23 24.76 48.22 27 49 z"/>
<path style="fill:#d6d6d6" d="M33 49 C34.88 48.86 32.86 50.88 33 49 z"/>
<path style="fill:#a2a3a3" d="M53 49 L55 52 L56 55 L52.25 52.25 C52.84 54.55 52.52 55.74 50 54 L51 52 L50 51 L51 50 L53 49 z"/>
<path style="fill:#b9baba" d="M20 51 L22 51 L22 54 C19.57 52.52 17.01 51.51 14 52 L14 50 C15.7 51.36 17.91 50.98 20 51 z"/>
<path style="fill:#cbcbcb" d="M36 51 L35 50 L36 51 z"/>
<path style="fill:#c4c4c4" d="M67 50 L67 51 L66 52 L65 51 C64.85 49.82 66.34 49.98 67 50 z"/>
<path style="fill:#c6c6c6" d="M33 52 C32.86 50.12 34.88 52.14 33 52 z"/>
<path style="fill:#a9aaaa" d="M37 51 L38 54 L36 54 C35.16 52.82 35.16 52.18 36 51 L37 51 z"/>
<path style="fill:#5b5b5b" d="M41 52 L41 53 L38 54 L37 51 L41 52 z"/>
<path style="fill:#6a6a6a" d="M50 51 L51 52 L50 54 L46 53 L46 52 L50 51 z"/>
<path style="fill:#fefefe" d="M51 52 L50 51 L51 52 z"/>
<path style="fill:#e6e6e6" d="M59 51 L61 52 L63 52 L64 53 L62 55 L58 55 L57 55 L56 55 L55 52 L59 51 z"/>
<path style="fill:#727373" d="M65 51 L66 52 L67 51 L68 52 L68 53 L67 54 C67.43 52.94 65.57 52.94 66 54 L62 55 L64 53 C63.86 54.88 65.88 52.86 64 53 L63 52 L63 51 L65 51 z"/>
<path style="fill:#030303" d="M66 52 L65 51 L66 52 z"/>
<path style="fill:#666767" d="M72 51 L73 54 C72.94 52.41 70.95 53.19 70 53 L69 52 C69.06 50.41 71.05 51.19 72 51 z"/>
<path style="fill:#717171" d="M13 52 L13 53 C11.94 53.43 11.94 51.57 13 52 z"/>
<path style="fill:#090a0a" d="M14 52 C17.01 51.51 19.57 52.52 22 54 L26 55 L27 55 L27 56 L28 57 L35 75 L36 75 L36 76 C35.78 77.33 38.22 77.33 38 76 L38 75 L39 74 C39.95 74.19 41.94 73.41 42 75 L42 78 L42 79 L41 80 L38 80 C38.15 78.82 36.66 78.98 36 79 C36.15 77.82 34.66 77.98 34 78 L33 77 L32 76 L31 75 L29 73 L28 72 L27 70 L26 69 L25 68 L24 67 C24.33 65.66 23.29 64.26 22 64 L21 63 L20 62 L15 55 L14 54 L13 53 L13 52 L14 52 z"/>
<path style="fill:#0b0b0b" d="M56 55 L57 55 C53.81 60.51 60.74 58.33 58 55 L62 55 L66 54 L67 54 L68 53 L70 53 C70.95 53.19 72.94 52.41 73 54 L72 55 L71 56 L67 61 L66 62 C64.82 61.85 64.98 63.34 65 64 L64 65 L63 66 L62 68 L61 69 L60 70 C58.74 73.27 55.88 76.05 53 78 C52.34 77.98 50.85 77.82 51 79 L45 79 L44 78 L44 75 L45 74 L47 74 C48.69 80.09 54.46 69.75 50.75 70.75 L49.25 73.75 L49 71 L49 70 C50.65 68.66 50.65 63.34 49 62 L49 61 C49.02 60.34 49.18 58.85 48 59 L46 53 L50 54 C52.52 55.74 52.84 54.55 52.25 52.25 L56 55 z"/>
<path style="fill:#d4d4d4" d="M69 52 L70 53 L68 53 L68 52 L69 52 z"/>
<path style="fill:#515151" d="M29 55 L27 55 C26.05 52.5 29.95 52.5 29 55 z"/>
<path style="fill:#9f9f9f" d="M36 54 L30 55 L33 53 L36 54 z"/>
<path style="fill:#070707" d="M41 53 L41 55 L40 57 L39 58 C37.82 57.85 37.98 59.34 38 60 L38 61 C36.41 61.06 37.19 63.05 37 64 C35.38 64.73 35.38 69.27 37 70 L37 71 L37 75 L36 75 L36 74 L29 57 L29 55 L30 55 L36 54 L38 54 L41 53 z"/>
<path style="fill:#565757" d="M41 55 L41 53 C42.33 52.78 42.33 55.22 41 55 z"/>
<path style="fill:#030303" d="M64 53 C65.88 52.86 63.86 54.88 64 53 z"/>
<path style="fill:#f0f0f0" d="M67 54 L66 54 C65.57 52.94 67.43 52.94 67 54 z"/>
<path style="fill:#656565" d="M15 55 L14 54 L15 55 z"/>
<path style="fill:#828383" d="M26 55 L22 54 L26 55 z"/>
<path style="fill:#6a6a6a" d="M73 54 L72 55 L73 54 z"/>
<path style="fill:#f3f4f4" d="M29 55 L29 57 L28 57 L27 56 L27 55 L29 55 z"/>
<path style="fill:#5b5c5c" d="M58 55 C60.74 58.33 53.81 60.51 57 55 L58 55 z"/>
<path style="fill:#676767" d="M72 55 L71 56 L72 55 z"/>
<path style="fill:#797979" d="M28 57 L27 56 L28 57 z"/>
<path style="fill:#9fa0a0" d="M29 57 L36 74 L35 75 L28 57 L29 57 z"/>
<path style="fill:#767676" d="M40 57 L39 58 L40 57 z"/>
<path style="fill:#898a8a" d="M39 58 C39.02 58.66 39.18 60.15 38 60 C37.98 59.34 37.82 57.85 39 58 z"/>
<path style="fill:#7f7f7f" d="M49 61 C47.82 61.15 47.98 59.66 48 59 C49.18 58.85 49.02 60.34 49 61 z"/>
<path style="fill:#565656" d="M54 65 L53 65 C54.17 58.99 57.54 60.56 54 65 z"/>
<path style="fill:#9b9b9b" d="M38 61 C37.81 61.95 38.59 63.94 37 64 C37.19 63.05 36.41 61.06 38 61 z"/>
<path style="fill:#616161" d="M67 61 L66 62 L67 61 z"/>
<path style="fill:#a3a3a3" d="M21 63 L20 62 L21 63 z"/>
<path style="fill:#838383" d="M49 70 L49 62 C50.65 63.34 50.65 68.66 49 70 z"/>
<path style="fill:#989999" d="M66 62 C66.02 62.66 66.18 64.15 65 64 C64.98 63.34 64.82 61.85 66 62 z"/>
<path style="fill:#a3a3a3" d="M22 64 L21 63 L22 64 z"/>
<path style="fill:#acacac" d="M24 67 C22.71 66.74 21.67 65.34 22 64 C23.29 64.26 24.33 65.66 24 67 z"/>
<path style="fill:#797979" d="M37 64 L37 70 C35.38 69.27 35.38 64.73 37 64 z"/>
<path style="fill:#9e9e9e" d="M54 65 C54.03 69.38 50.35 68.98 53 65 L54 65 z"/>
<path style="fill:#a0a0a0" d="M64 65 L63 66 L64 65 z"/>
<path style="fill:#898989" d="M26 69 L25 68 L26 69 z"/>
<path style="fill:#a5a5a5" d="M62 68 L61 69 L62 68 z"/>
<path style="fill:#979797" d="M27 70 L26 69 L27 70 z"/>
<path style="fill:#6e6e6e" d="M61 69 L60 70 L61 69 z"/>
<path style="fill:#9d9e9e" d="M47 74 L49 71 L49.25 73.75 L50.75 70.75 C54.46 69.75 48.69 80.09 47 74 z"/>
<path style="fill:#999a9a" d="M39 74 L38 75 L37 75 L37 71 L39 74 z"/>
<path style="fill:#a6a6a6" d="M29 73 L28 72 L29 73 z"/>
<path style="fill:#f9f9f9" d="M36 74 L36 75 L35 75 L36 74 z"/>
<path style="fill:#6a6a6a" d="M45 74 L44 75 L45 74 z"/>
<path style="fill:#7a7a7a" d="M32 76 L31 75 L32 76 z"/>
<path style="fill:#e9e9e9" d="M37 75 L38 75 L38 76 L36 76 L36 75 L37 75 z"/>
<path style="fill:#666767" d="M44 75 L44 78 L42 78 L42 75 L44 75 z"/>
<path style="fill:#6c6c6c" d="M33 77 L32 76 L33 77 z"/>
<path style="fill:#929292" d="M38 76 C38.22 77.33 35.78 77.33 36 76 L38 76 z"/>
<path style="fill:#7a7a7a" d="M34 78 L33 77 L34 78 z"/>
<path style="fill:#777777" d="M36 79 C35.34 79.02 33.85 79.18 34 78 C34.66 77.98 36.15 77.82 36 79 z"/>
<path style="fill:#5a5b5b" d="M53 78 C53.15 79.18 51.66 79.02 51 79 C50.85 77.82 52.34 77.98 53 78 z"/>
<path style="fill:#8b8b8b" d="M38 80 C37.34 80.02 35.85 80.18 36 79 C36.66 78.98 38.15 78.82 38 80 z"/>
<path style="fill:#9b9b9b" d="M42 79 L41 80 L42 79 z"/>
<path style="fill:#444444" d="M51 79 C50.27 80.62 45.73 80.62 45 79 L51 79 z"/>
</svg>
