<?xml version="1.0" standalone="yes"?>
<svg width="87" height="97">
<path style="fill:#fcfdfd" d="M87 0 L87 97 L0 97 L0 0 L87 0 z"/>
<path style="fill:#6a6a6a" d="M44 16 L41 16 C40.96 14.52 44.04 14.52 44 16 z"/>
<path style="fill:#090909" d="M41 16 L44 16 L46 17 L47 18 L48 21 L49 22 L53 23 L55 23 L56 24 L57 25 L57 27 C55.82 26.85 55.98 28.34 56 29 L56 30 L55 31 L55 32 L54 33 L53 35 C52.3 31.67 52.72 24.66 51 33 C48.85 30.9 50.82 24.29 48 30 C48.66 27.76 47.24 26.34 45 27 L44 27 L43 26 L42 26 L41 27 L40 27 C37.76 26.39 36.64 27.63 36.75 29.75 C35.47 24.2 33.61 31.25 36 33 C36.28 36.13 35.44 35.94 34 34 C34.25 31.97 33.83 29.21 32.25 28.25 C31.81 30.15 32.76 32.89 34 34 C34.02 34.66 34.18 36.15 33 36 L32 35 L30 31 L29 30 L29 29 C29.02 28.34 29.18 26.85 28 27 L28 25 L29 24 L30 23 L31 23 C31.66 23.02 33.15 23.18 33 22 L36 22 L37 21 L38 18 L39 17 L41 16 z"/>
<path style="fill:#a0a0a0" d="M39 17 L38 18 L39 17 z"/>
<path style="fill:#9c9c9c" d="M47 18 L46 17 L47 18 z"/>
<path style="fill:#8a8a8a" d="M37 21 L36 22 L37 21 z"/>
<path style="fill:#787878" d="M49 22 L48 21 L49 22 z"/>
<path style="fill:#979797" d="M33 22 C33.15 23.18 31.66 23.02 31 23 C30.85 21.82 32.34 21.98 33 22 z"/>
<path style="fill:#525353" d="M53 23 L49 22 L53 23 z"/>
<path style="fill:#a0a0a0" d="M30 23 L29 24 L30 23 z"/>
<path style="fill:#949494" d="M56 24 L55 23 L56 24 z"/>
<path style="fill:#636363" d="M29 24 L28 25 L29 24 z"/>
<path style="fill:#5d5d5d" d="M57 25 L56 24 L57 25 z"/>
<path style="fill:#7c7c7c" d="M42 26 L41 27 L42 26 z"/>
<path style="fill:#f1f2f2" d="M43 26 L44 27 L45 27 L45 28 L45 30 C43.82 29.85 43.98 31.34 44 32 L44 37 L43 42 C43.43 43.06 41.57 43.06 42 42 L41 35 L41 34 L40 30 L40 29 L40 27 L41 27 L42 26 L43 26 z"/>
<path style="fill:#797979" d="M44 27 L43 26 L44 27 z"/>
<path style="fill:#9a9a9a" d="M29 29 C27.82 29.15 27.98 27.66 28 27 C29.18 26.85 29.02 28.34 29 29 z"/>
<path style="fill:#2f3030" d="M40 27 L40 29 L39 29 C36.65 26.34 39.35 37.66 37 35 C37.02 34.34 37.18 32.85 36 33 C33.61 31.25 35.47 24.2 36.75 29.75 C36.64 27.63 37.76 26.39 40 27 z"/>
<path style="fill:#464747" d="M48 30 C45.44 30.87 47.8 39.44 48.25 33.25 C49.32 35.63 49.76 36.38 51 33 C52.72 24.66 52.3 31.67 53 35 L51 39 L50 39 C47.34 40.47 46.44 38.82 45 37 C45.53 34.38 47.37 30 45 28 L45 27 C47.24 26.34 48.66 27.76 48 30 z"/>
<path style="fill:#282828" d="M51 33 C49.76 36.38 49.32 35.63 48.25 33.25 C47.8 39.44 45.44 30.87 48 30 C50.82 24.29 48.85 30.9 51 33 z"/>
<path style="fill:#949595" d="M57 27 C57.02 27.66 57.18 29.15 56 29 C55.98 28.34 55.82 26.85 57 27 z"/>
<path style="fill:#565656" d="M34 34 C32.76 32.89 31.81 30.15 32.25 28.25 C33.83 29.21 34.25 31.97 34 34 z"/>
<path style="fill:#4b4b4b" d="M39 29 L40 37 L36 40 C34.07 39.59 33.91 37.35 33 36 C34.18 36.15 34.02 34.66 34 34 C35.44 35.94 36.28 36.13 36 33 C37.18 32.85 37.02 34.34 37 35 C39.35 37.66 36.65 26.34 39 29 z"/>
<path style="fill:#131414" d="M45 37 C45.68 40.25 43.32 40.25 44 37 L44 32 C45.18 32.15 45.02 30.66 45 30 L45 28 C47.37 30 45.53 34.38 45 37 z"/>
<path style="fill:#070808" d="M40 29 L40 30 L41 34 L41 35 C41.62 36.65 40.18 40.94 40 37 L39 29 L40 29 z"/>
<path style="fill:#9c9c9c" d="M30 31 L29 30 L30 31 z"/>
<path style="fill:#595959" d="M41 34 L40 30 L41 34 z"/>
<path style="fill:#8d8e8e" d="M45 30 C45.02 30.66 45.18 32.15 44 32 C43.98 31.34 43.82 29.85 45 30 z"/>
<path style="fill:#949494" d="M56 30 L55 31 L56 30 z"/>
<path style="fill:#a0a0a0" d="M55 32 L54 33 L55 32 z"/>
<path style="fill:#737373" d="M20 33 L19 34 L20 33 z"/>
<path style="fill:#0b0b0b" d="M24 34 C23.85 35.18 25.34 35.02 26 35 L28 36 L29 37 L30 37 L31 38 C23.21 37.5 21.91 37.79 30.75 40.75 C29.09 41.48 27.38 40.88 26 40 C15.19 40.45 33.6 42.44 28 43 L24 43 L32 45 C35.25 44.76 32.88 46.74 31 46 L27 46 C27.15 44.82 25.66 44.98 25 45 C24.05 45.19 22.06 44.41 22 46 L21 47 L21 48 L22 49 L22 50 C21.05 53.03 23.58 53.13 25.75 53.25 L24 54 C18.84 56.41 37.51 53.72 27.25 52.25 L29 52 C35.83 52 32.62 55.18 28 56 L24 57 L30 58 L29 59 L28 59 L27 60 L26 60 L25 61 L24 61 C23.34 60.98 21.85 60.82 22 62 C21.05 61.81 19.06 62.59 19 61 L18 60 L18 58 L17 54 L13 52 L12 51 L11 49 L10 48 L10 47 L11 46 L14 43 L15 42 C17.68 42.71 16.94 39.55 17 38 C18.18 38.15 18.02 36.66 18 36 L18 35 L19 34 L20 33 L24 34 z"/>
<path style="fill:#616161" d="M64 33 C64.15 34.18 62.66 34.02 62 34 C61.85 32.82 63.34 32.98 64 33 z"/>
<path style="fill:#0b0b0b" d="M66 34 L67 35 L67 36 C66.98 36.66 66.82 38.15 68 38 L68 41 C67.85 42.18 69.34 42.02 70 42 L72 43 L73 44 L74 45 L74 46 L75 47 L75 48 L74 49 L74 50 L73 51 L72 52 L70 53 C69.34 52.98 67.85 52.82 68 54 L68 58 C66.82 57.85 66.98 59.34 67 60 L66 61 L58 60 L57 59 L55 58 L54 57 L62.75 57.75 L53 54 C57.28 48.04 60.45 61.19 63 50 L63 49 L64 48 L64 47 L63 46 L63 45 C63.67 42.89 61.42 42.79 60 43 C46.78 43.42 70.09 40.22 59 40 L54 41 L54 40 C56.91 39.48 60.83 39.3 62.75 37.25 C59.59 36.21 55.98 37.98 54 40 C53.34 40.02 51.85 40.18 52 39 L54 38 L55 37 L60 35 L61 34 L62 34 C62.66 34.02 64.15 34.18 64 33 C64.66 32.98 66.15 32.82 66 34 z"/>
<path style="fill:#a6a6a6" d="M19 34 L18 35 L19 34 z"/>
<path style="fill:#979797" d="M26 35 C25.34 35.02 23.85 35.18 24 34 C24.66 33.98 26.15 33.82 26 35 z"/>
<path style="fill:#606060" d="M61 34 L60 35 L61 34 z"/>
<path style="fill:#838383" d="M67 35 L66 34 L67 35 z"/>
<path style="fill:#747474" d="M33 36 L32 35 L33 36 z"/>
<path style="fill:#6b6b6b" d="M42 42 L38 43 L37 42 L36 41 L36 40 L40 37 C40.18 40.94 41.62 36.65 41 35 L42 42 z"/>
<path style="fill:#9a9b9b" d="M18 36 C18.02 36.66 18.18 38.15 17 38 C16.98 37.34 16.82 35.85 18 36 z"/>
<path style="fill:#616161" d="M29 37 L28 36 L29 37 z"/>
<path style="fill:#696969" d="M68 38 C66.82 38.15 66.98 36.66 67 36 C68.18 35.85 68.02 37.34 68 38 z"/>
<path style="fill:#454545" d="M31 38 L34 41 L32 45 L24 43 L28 43 C33.6 42.44 15.19 40.45 26 40 C27.38 40.88 29.09 41.48 30.75 40.75 C21.91 37.79 23.21 37.5 31 38 z"/>
<path style="fill:#868686" d="M31 38 L30 37 L31 38 z"/>
<path style="fill:#666666" d="M44 37 C43.32 40.25 45.68 40.25 45 37 C46.44 38.82 47.34 40.47 50 39 L50 40 L49 41 C47.23 42.39 45.1 44.02 43 42 L44 37 z"/>
<path style="fill:#868686" d="M55 37 L54 38 L55 37 z"/>
<path style="fill:#4b4b4b" d="M54 40 C55.98 37.98 59.59 36.21 62.75 37.25 C60.83 39.3 56.91 39.48 54 40 z"/>
<path style="fill:#fdfdfd" d="M51 39 L50 40 L50 39 L51 39 z"/>
<path style="fill:#646565" d="M52 39 C51.85 40.18 53.34 40.02 54 40 L54 41 C48.82 41.53 51.1 43.26 54 45 C49.57 44.6 52.05 46.77 55 46 L49 47 C46.16 44.75 48.56 43.62 49 41 L50 40 L51 39 L52 39 z"/>
<path style="fill:#fbfbfb" d="M50 40 L49 41 L50 40 z"/>
<path style="fill:#454646" d="M63 45 L62 45 C60.3 42.55 56.35 44.64 54 45 C51.1 43.26 48.82 41.53 54 41 L59 40 C70.09 40.22 46.78 43.42 60 43 C61.42 42.79 63.67 42.89 63 45 z"/>
<path style="fill:#5c5c5c" d="M34 41 L36 41 L37 42 L38 43 L38 45 L36 47 L31 46 C32.88 46.74 35.25 44.76 32 45 L34 41 z"/>
<path style="fill:#eeeeee" d="M37 42 L36 41 L37 42 z"/>
<path style="fill:#b1b2b2" d="M49 41 C48.56 43.62 46.16 44.75 49 47 C46.84 46.35 46.84 48.65 49 48 C44.89 51.11 50.78 53.03 52 56 L51 57 L48 54 C47.33 52.64 45.26 51.73 44 53 L44 52 L44 51 C50.13 47.86 42.3 40.16 39 46 L38 45 L38 43 L42 42 C41.57 43.06 43.43 43.06 43 42 C45.1 44.02 47.23 42.39 49 41 z"/>
<path style="fill:#979898" d="M70 42 C69.34 42.02 67.85 42.18 68 41 C68.66 40.98 70.15 40.82 70 42 z"/>
<path style="fill:#818181" d="M15 42 L14 43 L15 42 z"/>
<path style="fill:#f7f7f7" d="M38 43 L37 42 L38 43 z"/>
<path style="fill:#999999" d="M73 44 L72 43 L73 44 z"/>
<path style="fill:#0d0e0e" d="M44 51 L41 51 L39 50 L39 46 C42.3 40.16 50.13 47.86 44 51 z"/>
<path style="fill:#111212" d="M62 45 L61 45 C60.34 44.98 58.85 44.82 59 46 L55 46 C52.05 46.77 49.57 44.6 54 45 C56.35 44.64 60.3 42.55 62 45 z"/>
<path style="fill:#9f9f9f" d="M74 45 L73 44 L74 45 z"/>
<path style="fill:#ebebeb" d="M25 45 C24.85 46.18 26.34 46.02 27 46 L31 46 L36 47 L33 49 L24 50 L22 50 L22 49 L21 48 L21 47 L22 46 C22.06 44.41 24.05 45.19 25 45 z"/>
<path style="fill:#5b5b5b" d="M27 46 C26.34 46.02 24.85 46.18 25 45 C25.66 44.98 27.15 44.82 27 46 z"/>
<path style="fill:#939494" d="M38 45 L39 46 L39 50 L38 51 C37.74 49.71 36.34 48.67 35 49 L33 49 L36 47 L38 45 z"/>
<path style="fill:#a7a7a7" d="M61 45 C61.15 46.18 59.66 46.02 59 46 C58.85 44.82 60.34 44.98 61 45 z"/>
<path style="fill:#f7f7f7" d="M62 45 L63 45 L63 46 L64 47 L64 48 L63 49 L63 50 L62 50 L60 50 C60.15 48.82 58.66 48.98 58 49 L55 49 C54.94 47.41 52.95 48.19 52 48 L49 48 C46.84 48.65 46.84 46.35 49 47 L55 46 L59 46 C59.66 46.02 61.15 46.18 61 45 L62 45 z"/>
<path style="fill:#9b9b9b" d="M11 46 L10 47 L11 46 z"/>
<path style="fill:#666666" d="M22 46 L21 47 L22 46 z"/>
<path style="fill:#9b9b9b" d="M64 47 L63 46 L64 47 z"/>
<path style="fill:#626262" d="M75 47 L74 46 L75 47 z"/>
<path style="fill:#6e6e6e" d="M11 49 L10 48 L11 49 z"/>
<path style="fill:#898989" d="M22 49 L21 48 L22 49 z"/>
<path style="fill:#4c4d4d" d="M52 48 L52 49 C51.19 50.22 60.22 52.5 62 50 L63 50 C60.45 61.19 57.28 48.04 53 54 L62.75 57.75 L54 57 L52 56 C50.78 53.03 44.89 51.11 49 48 L52 48 z"/>
<path style="fill:#a8a9a9" d="M55 49 L52 49 L52 48 C52.95 48.19 54.94 47.41 55 49 z"/>
<path style="fill:#9c9c9c" d="M64 48 L63 49 L64 48 z"/>
<path style="fill:#636363" d="M75 48 L74 49 L75 48 z"/>
<path style="fill:#171717" d="M33 49 L35 49 C32.53 50.49 26.62 52.38 24 50 L33 49 z"/>
<path style="fill:#4c4d4d" d="M38 51 L34 56 L30 58 L24 57 L28 56 C32.62 55.18 35.83 52 29 52 L27.25 52.25 C37.51 53.72 18.84 56.41 24 54 L25.75 53.25 C23.58 53.13 21.05 53.03 22 50 L24 50 C26.62 52.38 32.53 50.49 35 49 C36.34 48.67 37.74 49.71 38 51 z"/>
<path style="fill:#0f0f0f" d="M52 49 L55 49 L58 49 C57.85 50.18 59.34 50.02 60 50 L62 50 C60.22 52.5 51.19 50.22 52 49 z"/>
<path style="fill:#828383" d="M60 50 C59.34 50.02 57.85 50.18 58 49 C58.66 48.98 60.15 48.82 60 50 z"/>
<path style="fill:#cccccc" d="M41 51 L36 56 L34 57 L34 56 L38 51 L39 50 L41 51 z"/>
<path style="fill:#989898" d="M74 50 L73 51 L74 50 z"/>
<path style="fill:#9f9f9f" d="M13 52 L12 51 L13 52 z"/>
<path style="fill:#646464" d="M44 51 L44 52 C39.52 51.71 44.02 58.73 41 60 C41.77 57.05 39.6 54.57 40 59 L37 57 L36 57 L36 56 L41 51 L44 51 z"/>
<path style="fill:#8d8d8d" d="M73 51 L72 52 L73 51 z"/>
<path style="fill:#ebecec" d="M44 52 L44 53 C42.4 53.45 42.4 57.55 44 58 L45 66 L45 68 L42 69 L41 68 L41 60 C44.02 58.73 39.52 51.71 44 52 z"/>
<path style="fill:#757575" d="M48 54 L45 55 C43.41 55.06 44.19 57.05 44 58 C42.4 57.55 42.4 53.45 44 53 C45.26 51.73 47.33 52.64 48 54 z"/>
<path style="fill:#8d8e8e" d="M70 53 C70.15 54.18 68.66 54.02 68 54 C67.85 52.82 69.34 52.98 70 53 z"/>
<path style="fill:#515151" d="M18 58 L17 54 L18 58 z"/>
<path style="fill:#484949" d="M48 54 L51 57 L53 60 C53.71 75.17 47.62 50.11 50 67 L47.25 59.25 C45.5 62.22 51.12 68.77 45 68 L45 66 L45 55 L48 54 z"/>
<path style="fill:#161717" d="M45 55 L45 66 L44 58 C44.19 57.05 43.41 55.06 45 55 z"/>
<path style="fill:#474848" d="M36 56 L36 57 L32.25 67.75 L33 59 L34 57 L36 56 z"/>
<path style="fill:#464646" d="M40 59 L38.25 67.75 L37 60 L37 57 L40 59 z"/>
<path style="fill:#0c0c0c" d="M41 60 L41 68 L42 69 L45 68 C51.12 68.77 45.5 62.22 47.25 59.25 L50 67 C47.62 50.11 53.71 75.17 53 60 L54 62 L55 63 L55 64 L56 65 L56 66 C55.98 66.66 55.82 68.15 57 68 C57.88 72.48 52.29 73.45 49 73 C47.82 72.85 47.98 74.34 48 75 L48 76 L47 77 L46 78 L45 79 L42 80 L41 79 L39 78 L38 77 L38 76 L37 75 C37.71 72.32 34.55 73.06 33 73 C33.15 71.82 31.66 71.98 31 72 L30 72 L29 71 C27.41 70.94 28.19 68.95 28 68 L29 67 L30 64 L31 63 L31 62 L32 61 L32 60 L33 59 L32.25 67.75 L36 57 L37 57 L37 60 C34.21 61.7 38.02 64.4 37 60 L38.25 67.75 L40 59 C39.6 54.57 41.77 57.05 41 60 z"/>
<path style="fill:#7d7d7d" d="M55 58 L54 57 L55 58 z"/>
<path style="fill:#929292" d="M30 58 L29 59 L30 58 z"/>
<path style="fill:#a5a6a6" d="M68 58 C68.02 58.66 68.18 60.15 67 60 C66.98 59.34 66.82 57.85 68 58 z"/>
<path style="fill:#777777" d="M28 59 L27 60 L28 59 z"/>
<path style="fill:#a3a3a3" d="M33 59 L32 60 L33 59 z"/>
<path style="fill:#aaaaaa" d="M58 60 L57 59 L58 60 z"/>
<path style="fill:#888888" d="M19 61 L18 60 L19 61 z"/>
<path style="fill:#7c7c7c" d="M26 60 L25 61 L26 60 z"/>
<path style="fill:#5c5c5c" d="M37 60 C38.02 64.4 34.21 61.7 37 60 z"/>
<path style="fill:#787878" d="M67 60 L66 61 L67 60 z"/>
<path style="fill:#747474" d="M24 61 C24.15 62.18 22.66 62.02 22 62 C21.85 60.82 23.34 60.98 24 61 z"/>
<path style="fill:#7d7d7d" d="M32 61 L31 62 L32 61 z"/>
<path style="fill:#919191" d="M55 63 L54 62 L55 63 z"/>
<path style="fill:#666666" d="M31 63 L30 64 L31 63 z"/>
<path style="fill:#575858" d="M35 64 C37.92 66.75 33.85 69.5 35 64 z"/>
<path style="fill:#888888" d="M56 65 L55 64 L56 65 z"/>
<path style="fill:#858585" d="M57 68 C55.82 68.15 55.98 66.66 56 66 C57.18 65.85 57.02 67.34 57 68 z"/>
<path style="fill:#a7a7a7" d="M29 67 L28 68 L29 67 z"/>
<path style="fill:#8d8d8d" d="M42 69 L41 68 L42 69 z"/>
<path style="fill:#7d7d7d" d="M30 72 L29 71 L30 72 z"/>
<path style="fill:#707171" d="M33 73 C32.34 73.02 30.85 73.18 31 72 C31.66 71.98 33.15 71.82 33 73 z"/>
<path style="fill:#6f6f6f" d="M49 73 C49.02 73.66 49.18 75.15 48 75 C47.98 74.34 47.82 72.85 49 73 z"/>
<path style="fill:#6a6a6a" d="M38 76 L37 75 L38 76 z"/>
<path style="fill:#9f9f9f" d="M48 76 L47 77 L48 76 z"/>
<path style="fill:#a6a6a6" d="M39 78 L38 77 L39 78 z"/>
<path style="fill:#7a7a7a" d="M47 77 L46 78 L47 77 z"/>
<path style="fill:#8d8d8d" d="M46 78 L45 79 L46 78 z"/>
<path style="fill:#737373" d="M42 80 L41 79 L42 80 z"/>
</svg>
