<?xml version="1.0" standalone="yes"?>
<svg width="87" height="97">
<path style="fill:#fcfcfc" d="M87 0 L87 97 L0 97 L0 0 L87 0 z"/>
<path style="fill:#434343" d="M49 18 L38 18 C40.31 16.34 46.69 16.34 49 18 z"/>
<path style="fill:#050505" d="M49 18 L49 19 C47.82 18.85 47.98 20.34 48 21 L48 24 C46.82 23.85 46.98 25.34 47 26 L47 28 C45.82 27.85 45.98 29.34 46 30 L46 33 C44.82 32.85 44.98 34.34 45 35 L45 36 L41 35 L41 33 L41 31 C41.02 30.34 41.18 28.85 40 29 L40 28 L40 26 C40.02 25.34 40.18 23.85 39 24 L39 22 C39.02 21.34 39.18 19.85 38 20 L38 18 L49 18 z"/>
<path style="fill:#777777" d="M32 19 L31 20 L32 19 z"/>
<path style="fill:#0b0c0c" d="M34 21 C33.98 21.66 33.82 23.15 35 23 L37 30 C36.98 30.66 36.82 32.15 38 32 L39 37 L36 38 L35 37 L34 36 L33 35 L32 34 L31 33 L27 28 L26 27 L25 26 L24 25 L24 24 L25 23 L27 22 L28 21 L29 21 L30 20 L31 20 L32 19 C33.35 18.54 34.46 19.65 34 21 z"/>
<path style="fill:#838484" d="M49 19 C49.02 19.66 49.18 21.15 48 21 C47.98 20.34 47.82 18.85 49 19 z"/>
<path style="fill:#070707" d="M55 19 L56 20 L57 20 L58 21 L60 22 L61 23 L62 23 L63 24 L61 27 L60 28 L59 29 L58 30 L57 31 L54 35 L53 36 L52 37 L51 38 C49.31 38.41 47.59 36.69 48 35 C49.18 35.15 49.02 33.66 49 33 L49 32 C50.18 32.15 50.02 30.66 50 30 L50 29 C51.18 29.15 51.02 27.66 51 27 L51 26 C52.18 26.15 52.02 24.66 52 24 L52 23 C53.18 23.15 53.02 21.66 53 21 C52.54 19.65 53.65 18.54 55 19 z"/>
<path style="fill:#858585" d="M56 20 L55 19 L56 20 z"/>
<path style="fill:#707070" d="M30 20 L29 21 L30 20 z"/>
<path style="fill:#737474" d="M39 22 C37.82 22.15 37.98 20.66 38 20 C39.18 19.85 39.02 21.34 39 22 z"/>
<path style="fill:#8f8f8f" d="M58 21 L57 20 L58 21 z"/>
<path style="fill:#898989" d="M28 21 L27 22 L28 21 z"/>
<path style="fill:#979898" d="M35 23 C33.82 23.15 33.98 21.66 34 21 C35.18 20.85 35.02 22.34 35 23 z"/>
<path style="fill:#5e5e5e" d="M53 21 C53.02 21.66 53.18 23.15 52 23 C51.98 22.34 51.82 20.85 53 21 z"/>
<path style="fill:#636363" d="M61 23 L60 22 L61 23 z"/>
<path style="fill:#898989" d="M25 23 L24 24 L25 23 z"/>
<path style="fill:#a7a7a7" d="M63 24 L62 23 L63 24 z"/>
<path style="fill:#545454" d="M40 26 L39 26 L39 24 C40.18 23.85 40.02 25.34 40 26 z"/>
<path style="fill:#828282" d="M48 24 C48.02 24.66 48.18 26.15 47 26 C46.98 25.34 46.82 23.85 48 24 z"/>
<path style="fill:#5d5d5d" d="M52 24 C52.02 24.66 52.18 26.15 51 26 C50.98 25.34 50.82 23.85 52 24 z"/>
<path style="fill:#949494" d="M25 26 L24 25 L25 26 z"/>
<path style="fill:#818181" d="M26 27 L25 26 L26 27 z"/>
<path style="fill:#a7a7a7" d="M40 26 L40 28 C38.82 28.15 38.98 26.66 39 26 L40 26 z"/>
<path style="fill:#686868" d="M27 28 L26 27 L27 28 z"/>
<path style="fill:#5c5c5c" d="M51 27 C51.02 27.66 51.18 29.15 50 29 C49.98 28.34 49.82 26.85 51 27 z"/>
<path style="fill:#9d9d9d" d="M61 27 L60 28 L61 27 z"/>
<path style="fill:#9b9b9b" d="M20 28 L19 29 L20 28 z"/>
<path style="fill:#080909" d="M21 28 L22 29 L23 30 L24 31 L25 32 L29 35 L30 36 L31 37 L32 38 L33 39 L34 40 C34.33 41.34 33.29 42.74 32 43 L28 42 C28.15 40.82 26.66 40.98 26 41 L25 41 C25.15 39.82 23.66 39.98 23 40 L22 40 C22.15 38.82 20.66 38.98 20 39 L16 38 L16 35 L16 34 L17 33 L17 32 L18 31 L19 29 L20 28 L21 28 z"/>
<path style="fill:#9e9e9e" d="M22 29 L21 28 L22 29 z"/>
<path style="fill:#606060" d="M47 28 C47.02 28.66 47.18 30.15 46 30 C45.98 29.34 45.82 27.85 47 28 z"/>
<path style="fill:#7b7b7b" d="M60 28 L59 29 L60 28 z"/>
<path style="fill:#090a0a" d="M68 30 L69 31 L70 33 L71 34 L71 35 L71 38 L70 38 C69.34 37.98 67.85 37.82 68 39 L67 39 C66.34 38.98 64.85 38.82 65 40 L64 40 C63.34 39.98 61.85 39.82 62 41 L61 41 C60.34 40.98 58.85 40.82 59 42 L58 42 C57.34 41.98 55.85 41.82 56 43 L55 43 L52 41 L52 40 L55 38 L56 37 L57 36 L58 35 L59 34 L64 30 L65 29 C65.3 26.89 67.97 28.67 68 30 z"/>
<path style="fill:#9a9a9a" d="M23 30 L22 29 L23 30 z"/>
<path style="fill:#565757" d="M41 31 L40 31 L40 29 C41.18 28.85 41.02 30.34 41 31 z"/>
<path style="fill:#6f6f6f" d="M59 29 L58 30 L59 29 z"/>
<path style="fill:#6a6a6a" d="M65 29 L64 30 L65 29 z"/>
<path style="fill:#707070" d="M24 31 L23 30 L24 31 z"/>
<path style="fill:#8f9090" d="M38 32 C36.82 32.15 36.98 30.66 37 30 C38.18 29.85 38.02 31.34 38 32 z"/>
<path style="fill:#626262" d="M50 30 C50.02 30.66 50.18 32.15 49 32 C48.98 31.34 48.82 29.85 50 30 z"/>
<path style="fill:#5b5b5b" d="M58 30 L57 31 L58 30 z"/>
<path style="fill:#666666" d="M69 31 L68 30 L69 31 z"/>
<path style="fill:#919191" d="M18 31 L17 32 L18 31 z"/>
<path style="fill:#676767" d="M25 32 L24 31 L25 32 z"/>
<path style="fill:#a5a6a6" d="M41 31 L41 33 C39.82 33.15 39.98 31.66 40 31 L41 31 z"/>
<path style="fill:#5d5d5d" d="M17 33 L16 34 L17 33 z"/>
<path style="fill:#9e9e9e" d="M32 34 L31 33 L32 34 z"/>
<path style="fill:#595959" d="M46 33 C46.02 33.66 46.18 35.15 45 35 C44.98 34.34 44.82 32.85 46 33 z"/>
<path style="fill:#5d5d5d" d="M49 33 C49.02 33.66 49.18 35.15 48 35 C47.98 34.34 47.82 32.85 49 33 z"/>
<path style="fill:#959595" d="M71 34 L70 33 L71 34 z"/>
<path style="fill:#8f8f8f" d="M33 35 L32 34 L33 35 z"/>
<path style="fill:#949494" d="M59 34 L58 35 L59 34 z"/>
<path style="fill:#575757" d="M16 35 L16 38 C14.52 38.04 14.52 34.96 16 35 z"/>
<path style="fill:#a9a9a9" d="M30 36 L29 35 L30 36 z"/>
<path style="fill:#7d7d7d" d="M34 36 L33 35 L34 36 z"/>
<path style="fill:#636363" d="M45 36 L45 37 L41 37 L41 35 L45 36 z"/>
<path style="fill:#717171" d="M48 35 C47.59 36.69 49.31 38.41 51 38 L50 39 L45 37 L48 35 z"/>
<path style="fill:#a9a9a9" d="M54 35 L53 36 L54 35 z"/>
<path style="fill:#878787" d="M58 35 L57 36 L58 35 z"/>
<path style="fill:#7d7d7d" d="M71 38 L71 35 C72.48 34.96 72.48 38.04 71 38 z"/>
<path style="fill:#9d9d9d" d="M31 37 L30 36 L31 37 z"/>
<path style="fill:#6f6f6f" d="M35 37 L34 36 L35 37 z"/>
<path style="fill:#9f9f9f" d="M53 36 L52 37 L53 36 z"/>
<path style="fill:#737373" d="M57 36 L56 37 L57 36 z"/>
<path style="fill:#8d8d8d" d="M32 38 L31 37 L32 38 z"/>
<path style="fill:#616262" d="M39 37 L41 37 L36 40 L36 38 L39 37 z"/>
<path style="fill:#020303" d="M45 37 L50 39 L51 40 L52 41 C53.31 44.38 53.03 48.23 53 52 L51 54 L50 55 L48 57 C43.82 56.98 39.42 57.65 36 55 C33.55 50.69 32.81 44.44 36 40 L41 37 L45 37 z"/>
<path style="fill:#727272" d="M52 37 L51 38 L52 37 z"/>
<path style="fill:#606060" d="M56 37 L55 38 L56 37 z"/>
<path style="fill:#6c6c6c" d="M33 39 L32 38 L33 39 z"/>
<path style="fill:#a6a6a6" d="M70 38 C70.15 39.18 68.66 39.02 68 39 C67.85 37.82 69.34 37.98 70 38 z"/>
<path style="fill:#8f8f8f" d="M22 40 C21.34 40.02 19.85 40.18 20 39 C20.66 38.98 22.15 38.82 22 40 z"/>
<path style="fill:#9d9e9e" d="M67 39 C67.15 40.18 65.66 40.02 65 40 C64.85 38.82 66.34 38.98 67 39 z"/>
<path style="fill:#878888" d="M25 41 C24.34 41.02 22.85 41.18 23 40 C23.66 39.98 25.15 39.82 25 41 z"/>
<path style="fill:#5e5f5f" d="M36 40 C32.81 44.44 33.55 50.69 36 55 L34 55 C34.33 53.66 33.29 52.26 32 52 L33 50 L33 45 L32 43 C33.29 42.74 34.33 41.34 34 40 L36 40 z"/>
<path style="fill:#a2a2a2" d="M52 40 L52 41 L51 40 L52 40 z"/>
<path style="fill:#9c9d9d" d="M64 40 C64.15 41.18 62.66 41.02 62 41 C61.85 39.82 63.34 39.98 64 40 z"/>
<path style="fill:#858686" d="M28 42 C27.34 42.02 25.85 42.18 26 41 C26.66 40.98 28.15 40.82 28 42 z"/>
<path style="fill:#6f6f6f" d="M55 43 C54.07 44.16 53.98 45.45 56 45 L55 49 C52.98 49.27 54.68 51.1 55 52 L53 52 C53.03 48.23 53.31 44.38 52 41 L55 43 z"/>
<path style="fill:#989898" d="M61 41 C61.15 42.18 59.66 42.02 59 42 C58.85 40.82 60.34 40.98 61 41 z"/>
<path style="fill:#5a5a5a" d="M18 43 L13 44 C12.12 41.21 17.44 41.27 18 43 z"/>
<path style="fill:#a0a0a0" d="M58 42 C58.15 43.18 56.66 43.02 56 43 C55.85 41.82 57.34 41.98 58 42 z"/>
<path style="fill:#a3a3a3" d="M70 42 C70.15 43.18 68.66 43.02 68 43 C67.85 41.82 69.34 41.98 70 42 z"/>
<path style="fill:#070707" d="M73 42 C72.29 45.63 75.42 53.64 69 52 L66 52 C66.15 50.82 64.66 50.98 64 51 L62 51 C62.15 49.82 60.66 49.98 60 50 L57 50 C57.15 48.82 55.66 48.98 55 49 L56 45 L58 45 C58.66 45.02 60.15 45.18 60 44 L63 44 L67 43 L68 43 C68.66 43.02 70.15 43.18 70 42 L73 42 z"/>
<path style="fill:#6d6e6e" d="M69 52 C75.42 53.64 72.29 45.63 73 42 C75.2 44.85 75.11 57.08 69 52 z"/>
<path style="fill:#040505" d="M18 43 L20 43 C19.85 44.18 21.34 44.02 22 44 L25 44 C24.85 45.18 26.34 45.02 27 45 L30 45 C33.26 46.78 31.62 49.08 29 50 L28 50 L26 50 C25.34 49.98 23.85 49.82 24 51 L21 51 C20.34 50.98 18.85 50.82 19 52 L18 52 L16 52 L13 50 L13 44 L18 43 z"/>
<path style="fill:#595959" d="M22 44 C21.34 44.02 19.85 44.18 20 43 C20.66 42.98 22.15 42.82 22 44 z"/>
<path style="fill:#757575" d="M67 43 L63 44 L67 43 z"/>
<path style="fill:#626262" d="M27 45 C26.34 45.02 24.85 45.18 25 44 C25.66 43.98 27.15 43.82 27 45 z"/>
<path style="fill:#a9aaaa" d="M60 44 C60.15 45.18 58.66 45.02 58 45 C57.85 43.82 59.34 43.98 60 44 z"/>
<path style="fill:#7e7f7f" d="M33 45 L33 50 L29 50 C31.62 49.08 33.26 46.78 30 45 L33 45 z"/>
<path style="fill:#777878" d="M57 50 C56.34 50.02 54.85 50.18 55 49 C55.66 48.98 57.15 48.82 57 50 z"/>
<path style="fill:#5d5d5d" d="M16 52 L16 53 C13.76 53.66 12.34 52.24 13 50 L16 52 z"/>
<path style="fill:#585959" d="M26 50 L26 51 L24 51 C23.85 49.82 25.34 49.98 26 50 z"/>
<path style="fill:#adaeae" d="M28 50 C28.15 51.18 26.66 51.02 26 51 L26 50 L28 50 z"/>
<path style="fill:#797979" d="M62 51 C61.34 51.02 59.85 51.18 60 50 C60.66 49.98 62.15 49.82 62 51 z"/>
<path style="fill:#5e5f5f" d="M21 51 C21.15 52.18 19.66 52.02 19 52 C18.85 50.82 20.34 50.98 21 51 z"/>
<path style="fill:#a0a0a0" d="M66 52 C65.34 52.02 63.85 52.18 64 51 C64.66 50.98 66.15 50.82 66 52 z"/>
<path style="fill:#adaeae" d="M18 52 C18.15 53.18 16.66 53.02 16 53 L16 52 L18 52 z"/>
<path style="fill:#5d5e5e" d="M31 52 C31.15 53.18 29.66 53.02 29 53 C28.85 51.82 30.34 51.98 31 52 z"/>
<path style="fill:#080808" d="M32 52 C33.29 52.26 34.33 53.66 34 55 L33 56 L32 57 L31 58 L26 62 L25 63 L24 64 L23 65 C21.18 67.15 18.96 66.84 18 64 L17 63 L17 62 L16 61 L16 60 L15 59 C14.54 57.65 15.65 56.54 17 57 C17.66 57.02 19.15 57.18 19 56 L20 56 C20.66 56.02 22.15 56.18 22 55 L23 55 C23.66 55.02 25.15 55.18 25 54 L26 54 C26.66 54.02 28.15 54.18 28 53 L29 53 C29.66 53.02 31.15 53.18 31 52 L32 52 z"/>
<path style="fill:#555555" d="M53 52 L53 55 L51 54 L53 52 z"/>
<path style="fill:#070808" d="M55 52 L56 52 C55.85 53.18 57.34 53.02 58 53 L62 54 C61.85 55.18 63.34 55.02 64 55 L65 55 C64.85 56.18 66.34 56.02 67 56 L68 56 C67.85 57.18 69.34 57.02 70 57 L71 57 L71 59 L69 64 L68 65 L67 66 L65 66 L64 65 L63 64 L62 63 L58 60 L57 59 L56 58 L55 57 L54 56 L53 55 L53 52 L55 52 z"/>
<path style="fill:#727373" d="M58 53 C57.34 53.02 55.85 53.18 56 52 C56.66 51.98 58.15 51.82 58 53 z"/>
<path style="fill:#616161" d="M28 53 C28.15 54.18 26.66 54.02 26 54 C25.85 52.82 27.34 52.98 28 53 z"/>
<path style="fill:#666666" d="M25 54 C25.15 55.18 23.66 55.02 23 55 C22.85 53.82 24.34 53.98 25 54 z"/>
<path style="fill:#7a7a7a" d="M64 55 C63.34 55.02 61.85 55.18 62 54 C62.66 53.98 64.15 53.82 64 55 z"/>
<path style="fill:#5a5b5b" d="M22 55 C22.15 56.18 20.66 56.02 20 56 C19.85 54.82 21.34 54.98 22 55 z"/>
<path style="fill:#7a7a7a" d="M34 55 L33 56 L34 55 z"/>
<path style="fill:#696a6a" d="M48 57 L48 59 C47.1 58.68 45.27 56.98 45 59 L41 60 C41.46 58.65 40.35 57.54 39 58 L36 57 L36 55 C39.42 57.65 43.82 56.98 48 57 z"/>
<path style="fill:#575858" d="M50 55 L51 57 L48 57 L50 55 z"/>
<path style="fill:#737474" d="M67 56 C66.34 56.02 64.85 56.18 65 55 C65.66 54.98 67.15 54.82 67 56 z"/>
<path style="fill:#6a6b6b" d="M19 56 C19.15 57.18 17.66 57.02 17 57 C16.85 55.82 18.34 55.98 19 56 z"/>
<path style="fill:#9b9b9b" d="M33 56 L32 57 L33 56 z"/>
<path style="fill:#707070" d="M55 57 L54 56 L55 57 z"/>
<path style="fill:#6f6f6f" d="M70 57 C69.34 57.02 67.85 57.18 68 56 C68.66 55.98 70.15 55.82 70 57 z"/>
<path style="fill:#a9a9a9" d="M32 57 L31 58 L32 57 z"/>
<path style="fill:#080909" d="M36 57 L39 58 L39 60 C37.82 59.85 37.98 61.34 38 62 L38 63 C36.82 62.85 36.98 64.34 37 65 L37 66 C35.82 65.85 35.98 67.34 36 68 C34.82 67.85 34.98 69.34 35 70 L35 72 C33.82 71.85 33.98 73.34 34 74 L34 75 L31 75 L30 75 L29 74 L28 74 L27 73 L24 70 L25 69 L26 68 L30 63 L31 62 L32 61 L33 60 L34 59 L36 57 z"/>
<path style="fill:#090909" d="M51 57 L52 58 L53 59 L54 60 L55 61 L59 66 L60 67 L61 68 L62 69 L63 70 L61 72 L60 73 L55 75 L53 75 L52 72 C52.02 71.34 52.18 69.85 51 70 L49 62 C49.02 61.34 49.18 59.85 48 60 L48 59 L48 57 L51 57 z"/>
<path style="fill:#606060" d="M52 58 L51 57 L52 58 z"/>
<path style="fill:#737373" d="M56 58 L55 57 L56 58 z"/>
<path style="fill:#5f5f5f" d="M71 59 L71 57 C72.33 56.78 72.33 59.22 71 59 z"/>
<path style="fill:#606060" d="M53 59 L52 58 L53 59 z"/>
<path style="fill:#8d8d8d" d="M57 59 L56 58 L57 59 z"/>
<path style="fill:#858585" d="M16 60 L15 59 L16 60 z"/>
<path style="fill:#626262" d="M34 59 L33 60 L34 59 z"/>
<path style="fill:#080808" d="M45 59 C45.19 59.95 44.41 61.94 46 62 L46 64 C45.98 64.66 45.82 66.15 47 66 L47 68 C46.98 68.66 46.82 70.15 48 70 L48 73 C49.64 79.42 41.63 76.29 38 77 L38 74 C39.18 74.15 39.02 72.66 39 72 L39 69 C40.18 69.15 40.02 67.66 40 67 L40 64 C41.18 64.15 41.02 62.66 41 62 L41 60 L45 59 z"/>
<path style="fill:#696a6a" d="M46 62 C44.41 61.94 45.19 59.95 45 59 C46.59 59.06 45.81 61.05 46 62 z"/>
<path style="fill:#8a8a8a" d="M54 60 L53 59 L54 60 z"/>
<path style="fill:#a1a1a1" d="M58 60 L57 59 L58 60 z"/>
<path style="fill:#696969" d="M33 60 L32 61 L33 60 z"/>
<path style="fill:#a6a7a7" d="M39 60 C39.02 60.66 39.18 62.15 38 62 C37.98 61.34 37.82 59.85 39 60 z"/>
<path style="fill:#6f6f6f" d="M49 62 C47.82 62.15 47.98 60.66 48 60 C49.18 59.85 49.02 61.34 49 62 z"/>
<path style="fill:#9a9a9a" d="M55 61 L54 60 L55 61 z"/>
<path style="fill:#7e7e7e" d="M17 62 L16 61 L17 62 z"/>
<path style="fill:#808080" d="M32 61 L31 62 L32 61 z"/>
<path style="fill:#757575" d="M26 62 L25 63 L26 62 z"/>
<path style="fill:#8d8d8d" d="M31 62 L30 63 L31 62 z"/>
<path style="fill:#969797" d="M41 62 C41.02 62.66 41.18 64.15 40 64 C39.98 63.34 39.82 61.85 41 62 z"/>
<path style="fill:#8f8f8f" d="M18 64 L17 63 L18 64 z"/>
<path style="fill:#7e7e7e" d="M25 63 L24 64 L25 63 z"/>
<path style="fill:#ababab" d="M38 63 C38.02 63.66 38.18 65.15 37 65 C36.98 64.34 36.82 62.85 38 63 z"/>
<path style="fill:#636363" d="M63 64 L62 63 L63 64 z"/>
<path style="fill:#a5a5a5" d="M24 64 L23 65 L24 64 z"/>
<path style="fill:#7c7c7c" d="M47 66 C45.82 66.15 45.98 64.66 46 64 C47.18 63.85 47.02 65.34 47 66 z"/>
<path style="fill:#868686" d="M64 65 L63 64 L64 65 z"/>
<path style="fill:#7d7d7d" d="M69 64 L68 65 L69 64 z"/>
<path style="fill:#868686" d="M65 66 L64 65 L65 66 z"/>
<path style="fill:#9f9f9f" d="M37 66 C37.02 66.66 37.18 68.15 36 68 C35.98 67.34 35.82 65.85 37 66 z"/>
<path style="fill:#666666" d="M60 67 L59 66 L60 67 z"/>
<path style="fill:#6d6d6d" d="M67 66 C67.22 67.33 64.78 67.33 65 66 L67 66 z"/>
<path style="fill:#999a9a" d="M40 67 C40.02 67.66 40.18 69.15 39 69 C38.98 68.34 38.82 66.85 40 67 z"/>
<path style="fill:#757575" d="M61 68 L60 67 L61 68 z"/>
<path style="fill:#686868" d="M26 68 L25 69 L26 68 z"/>
<path style="fill:#5f6060" d="M36 68 C36.02 68.66 36.18 70.15 35 70 C34.98 69.34 34.82 67.85 36 68 z"/>
<path style="fill:#aaaaaa" d="M48 70 C46.82 70.15 46.98 68.66 47 68 C48.18 67.85 48.02 69.34 48 70 z"/>
<path style="fill:#9a9a9a" d="M62 69 L61 68 L62 69 z"/>
<path style="fill:#787878" d="M25 69 L24 70 L25 69 z"/>
<path style="fill:#999999" d="M63 70 L62 69 L63 70 z"/>
<path style="fill:#acacac" d="M52 72 C50.82 72.15 50.98 70.66 51 70 C52.18 69.85 52.02 71.34 52 72 z"/>
<path style="fill:#a7a7a7" d="M35 72 C35.02 72.66 35.18 74.15 34 74 C33.98 73.34 33.82 71.85 35 72 z"/>
<path style="fill:#9fa0a0" d="M39 72 C39.02 72.66 39.18 74.15 38 74 C37.98 73.34 37.82 71.85 39 72 z"/>
<path style="fill:#7a7a7a" d="M61 72 L60 73 L61 72 z"/>
<path style="fill:#a7a7a7" d="M28 74 L27 73 L28 74 z"/>
<path style="fill:#777878" d="M38 77 C41.63 76.29 49.64 79.42 48 73 C53.08 79.11 40.85 79.2 38 77 z"/>
<path style="fill:#9d9d9d" d="M30 75 L29 74 L30 75 z"/>
<path style="fill:#777777" d="M34 75 C34.04 76.48 30.96 76.48 31 75 L34 75 z"/>
<path style="fill:#646464" d="M55 75 C55.22 76.33 52.78 76.33 53 75 L55 75 z"/>
</svg>
