<?xml version="1.0" standalone="yes"?>
<svg width="87" height="97">
<path style="fill:#fcfdfd" d="M87 0 L87 97 L0 97 L0 0 L87 0 z"/>
<path style="fill:#898989" d="M46 17 L40 17 C40.73 15.38 45.27 15.38 46 17 z"/>
<path style="fill:#030404" d="M40 17 L46 17 L49 18 L50 19 L51 20 L51 21 L52 22 L52 23 L52 28 L52 29 L51 30 L50 32 L49 33 L46 34 L40 34 L38 33 L37 32 L36 31 L35 28 L35 24 L35 22 L36 20 L37 19 L38 18 L40 17 z"/>
<path style="fill:#7c7c7c" d="M38 18 L37 19 L38 18 z"/>
<path style="fill:#9b9b9b" d="M50 19 L49 18 L50 19 z"/>
<path style="fill:#8c8c8c" d="M37 19 L36 20 L37 19 z"/>
<path style="fill:#969696" d="M51 20 L50 19 L51 20 z"/>
<path style="fill:#9a9a9a" d="M35 22 L35 24 L34 24 L33 23 L32 22 C32.27 19.98 34.1 21.68 35 22 z"/>
<path style="fill:#636363" d="M52 22 L51 21 L52 22 z"/>
<path style="fill:#838484" d="M56 22 C55.34 21.98 53.85 21.82 54 23 L53 23 C51.99 20.91 55.75 20.04 56 22 z"/>
<path style="fill:#0b0c0c" d="M32 22 L33 23 L34 31 L35 32 L35 33 L36 34 L37 36 L38 37 L38 38 L39 39 C42.21 43.06 35.43 42.43 35 39 L34 38 L33 37 L32 36 C30.83 33.58 28.38 31.96 26 31 L25 31 L22 29 L23 27 C24.18 27.15 24.02 25.66 24 25 C22.9 20.07 29.24 22.61 32 22 z"/>
<path style="fill:#070808" d="M56 22 L62 22 C61.98 22.66 61.82 24.15 63 24 L63 25 C62.98 25.66 62.82 27.15 64 27 L64 28 L65 29 C65.15 30.18 63.66 30.02 63 30 C62.34 29.98 60.85 29.82 61 31 L60 31 L59 32 L54 37 L53 38 L52 39 L51 40 L50 41 L49 42 L48 42 L49 37 L50 36 L50 35 L51 34 L51 33 C53.6 30.72 54.45 26.64 54 23 C53.85 21.82 55.34 21.98 56 22 z"/>
<path style="fill:#676767" d="M63 24 C61.82 24.15 61.98 22.66 62 22 C63.18 21.85 63.02 23.34 63 24 z"/>
<path style="fill:#d9dada" d="M34 24 L35 28 L36 31 L36 32 L36 33 L35 33 L35 32 L34 31 L33 23 L34 24 z"/>
<path style="fill:#898989" d="M53 23 L52 28 L52 23 L53 23 z"/>
<path style="fill:#cccdcd" d="M54 23 C54.45 26.64 53.6 30.72 51 33 L50 32 L51 30 L52 29 L52 28 L53 23 L54 23 z"/>
<path style="fill:#545555" d="M35 24 L35 28 L34 24 L35 24 z"/>
<path style="fill:#6a6a6a" d="M24 25 C24.02 25.66 24.18 27.15 23 27 C22.98 26.34 22.82 24.85 24 25 z"/>
<path style="fill:#777777" d="M64 27 C62.82 27.15 62.98 25.66 63 25 C64.18 24.85 64.02 26.34 64 27 z"/>
<path style="fill:#646464" d="M65 29 L64 28 L65 29 z"/>
<path style="fill:#838484" d="M22 29 L25 31 C23.49 31.59 19.1 30.58 22 29 z"/>
<path style="fill:#585858" d="M52 29 L51 30 L52 29 z"/>
<path style="fill:#c5c6c6" d="M67 32 C63.23 31.58 58.71 32.19 57 36 L56 37 L56 38 L55 38 L54 37 L59 32 L60 31 L61 31 C61.66 31.02 63.15 31.18 63 30 C63.66 30.02 65.15 30.18 65 29 L67 32 z"/>
<path style="fill:#616161" d="M63 30 C63.15 31.18 61.66 31.02 61 31 C60.85 29.82 62.34 29.98 63 30 z"/>
<path style="fill:#b1b1b1" d="M32 36 L31 37 L25 32 L26 31 C28.38 31.96 30.83 33.58 32 36 z"/>
<path style="fill:#7e7e7e" d="M35 32 L34 31 L35 32 z"/>
<path style="fill:#606060" d="M37 32 L36 32 L36 31 L37 32 z"/>
<path style="fill:#636363" d="M60 31 L59 32 L60 31 z"/>
<path style="fill:#808080" d="M20 32 C20.15 33.18 18.66 33.02 18 33 C17.85 31.82 19.34 31.98 20 32 z"/>
<path style="fill:#060606" d="M25 32 L31 37 L31 38 L31 45 L28 48 L27 49 L26 49 L25 50 C21.16 50.62 17.77 49.43 15 47 L14 45 L13 44 L13 40 C14.18 40.15 14.02 38.66 14 38 L15 35 L16 34 L18 33 C18.66 33.02 20.15 33.18 20 32 L25 32 z"/>
<path style="fill:#ebecec" d="M37 32 L38 33 L40 34 C39.85 35.18 41.34 35.02 42 35 C39.33 42.17 48.06 41.84 44 36 L46 34 L49 33 L50 32 L51 33 L51 34 L50 35 L50 36 L49 37 L48 42 C47.57 43.06 49.43 43.06 49 42 L50 41 L51 40 L52 39 L53 38 L54 37 L55 38 C54.98 40.09 55.36 42.3 54 44 C48.26 43.97 51.2 47.35 55 45 L56 45 L57 46 L59 48 L60 49 L61 49 C60.85 50.18 62.34 50.02 63 50 L67 50 L68 51 L67 51 L62 51 L60 51 C60.15 49.82 58.66 49.98 58 50 L54 50 C53.81 48.45 50.19 48.45 50 50 L50 51 C49.85 52.18 51.34 52.02 52 52 L54 53 C53.85 54.18 55.34 54.02 56 54 L59 55 L54 57 L53 57 L52 58 L51 58 C51.02 57.34 51.18 55.85 50 56 L49 54 C49.15 52.82 47.66 52.98 47 53 L47 52 L48 51 L49 50 L49 46 L48 45 L46 43 C45.55 41.4 41.45 41.4 41 43 C37.31 44.23 37.19 49.24 39 52 L38 54 L36 58 L27 57 L26 56 L27 56 L28 55 L29 55 L30 54 L36 52 C37.48 52.04 37.48 48.96 36 49 L35 49 C34.34 48.98 32.85 48.82 33 50 L29 50 C28.34 50.02 26.85 50.18 27 49 L28 48 L31 45 L32 45 C33.28 45.85 36.3 47.04 37 45 C37.15 43.82 35.66 43.98 35 44 L33 44 L31 38 L31 37 L32 36 L33 37 L34 38 L35 39 C35.43 42.43 42.21 43.06 39 39 L38 38 L38 37 L37 36 L36 34 L36 33 L36 32 L37 32 z"/>
<path style="fill:#686868" d="M38 33 L37 32 L38 33 z"/>
<path style="fill:#868686" d="M50 32 L49 33 L50 32 z"/>
<path style="fill:#050606" d="M67 32 L68 32 L69 33 L70 33 L71 34 L72 36 L73 37 L73 38 L73 43 L73 45 L72 46 L70 48 L67 50 L63 50 C63.15 48.82 61.66 48.98 61 49 L60 49 L59 48 L57 46 L56 45 L56 38 L56 37 L57 36 C58.71 32.19 63.23 31.58 67 32 z"/>
<path style="fill:#828282" d="M69 33 L68 32 L69 33 z"/>
<path style="fill:#656565" d="M36 33 L36 34 L35 33 L36 33 z"/>
<path style="fill:#a8a8a8" d="M71 34 L70 33 L71 34 z"/>
<path style="fill:#a8a8a8" d="M16 34 L15 35 L16 34 z"/>
<path style="fill:#696a6a" d="M46 34 L44 36 L43 36 L42 35 C41.34 35.02 39.85 35.18 40 34 L46 34 z"/>
<path style="fill:#8f8f8f" d="M51 34 L50 35 L51 34 z"/>
<path style="fill:#b0b0b0" d="M43 36 C42.32 40.33 44.68 40.33 44 36 C48.06 41.84 39.33 42.17 42 35 L43 36 z"/>
<path style="fill:#818181" d="M33 37 L32 36 L33 37 z"/>
<path style="fill:#999999" d="M38 37 L37 36 L38 37 z"/>
<path style="fill:#010202" d="M44 36 C44.68 40.33 42.32 40.33 43 36 L44 36 z"/>
<path style="fill:#727272" d="M50 36 L49 37 L50 36 z"/>
<path style="fill:#696969" d="M57 36 L56 37 L57 36 z"/>
<path style="fill:#686868" d="M73 37 L72 36 L73 37 z"/>
<path style="fill:#7a7a7a" d="M34 38 L33 37 L34 38 z"/>
<path style="fill:#545555" d="M14 38 C14.02 38.66 14.18 40.15 13 40 C12.98 39.34 12.82 37.85 14 38 z"/>
<path style="fill:#999a9a" d="M33 44 L32 45 L31 45 L31 38 L33 44 z"/>
<path style="fill:#666666" d="M35 39 L34 38 L35 39 z"/>
<path style="fill:#818181" d="M39 39 L38 38 L39 39 z"/>
<path style="fill:#878787" d="M53 38 L52 39 L53 38 z"/>
<path style="fill:#777878" d="M56 38 L56 45 L55 45 L54 44 C55.36 42.3 54.98 40.09 55 38 L56 38 z"/>
<path style="fill:#6e6e6e" d="M73 43 L73 38 C74.6 38.45 74.6 42.55 73 43 z"/>
<path style="fill:#797979" d="M52 39 L51 40 L52 39 z"/>
<path style="fill:#6f6f6f" d="M51 40 L50 41 L51 40 z"/>
<path style="fill:#646464" d="M50 41 L49 42 L50 41 z"/>
<path style="fill:#464747" d="M46 43 L41 43 C41.45 41.4 45.55 41.4 46 43 z"/>
<path style="fill:#797979" d="M49 42 C49.43 43.06 47.57 43.06 48 42 L49 42 z"/>
<path style="fill:#060707" d="M41 43 L46 43 L48 45 L49 46 L49 50 L48 51 L47 52 L46 53 L41 53 L40 53 L39 52 C37.19 49.24 37.31 44.23 41 43 z"/>
<path style="fill:#aaaaaa" d="M14 45 L13 44 L14 45 z"/>
<path style="fill:#373838" d="M33 44 L35 44 C34.85 45.18 36.34 45.02 37 45 C36.3 47.04 33.28 45.85 32 45 L33 44 z"/>
<path style="fill:#9d9e9e" d="M37 45 C36.34 45.02 34.85 45.18 35 44 C35.66 43.98 37.15 43.82 37 45 z"/>
<path style="fill:#303131" d="M54 44 L55 45 C51.2 47.35 48.26 43.97 54 44 z"/>
<path style="fill:#5d5d5d" d="M49 46 L48 45 L49 46 z"/>
<path style="fill:#8f8f8f" d="M57 46 L56 45 L57 46 z"/>
<path style="fill:#939393" d="M73 45 L72 46 L73 45 z"/>
<path style="fill:#c2c2c2" d="M25 50 L26 49 L27 49 C26.85 50.18 28.34 50.02 29 50 L25 51 L19 51 L15 49 L15 47 C17.77 49.43 21.16 50.62 25 50 z"/>
<path style="fill:#656565" d="M28 48 L27 49 L28 48 z"/>
<path style="fill:#767676" d="M60 49 L59 48 L60 49 z"/>
<path style="fill:#acadad" d="M70 48 L71 49 L68 51 L67 50 L70 48 z"/>
<path style="fill:#0c0c0c" d="M19 51 C19.73 52.62 24.27 52.62 25 51 L29 50 L33 50 C33.66 50.02 35.15 50.18 35 49 L36 49 L36 52 L30 54 L29 55 L28 55 L27 56 L26 56 C23.36 57.57 21.08 60.16 20 63 L15 59 L14 58 L14 56 L15 49 L19 51 z"/>
<path style="fill:#5a5a5a" d="M26 49 L25 50 L26 49 z"/>
<path style="fill:#5a5b5b" d="M35 49 C35.15 50.18 33.66 50.02 33 50 C32.85 48.82 34.34 48.98 35 49 z"/>
<path style="fill:#6f7070" d="M36 52 L36 49 C37.48 48.96 37.48 52.04 36 52 z"/>
<path style="fill:#505151" d="M54 50 L50 50 C50.19 48.45 53.81 48.45 54 50 z"/>
<path style="fill:#626262" d="M63 50 C62.34 50.02 60.85 50.18 61 49 C61.66 48.98 63.15 48.82 63 50 z"/>
<path style="fill:#0b0b0b" d="M73 56 L72 59 L68 62 L66 62 C65.59 58.63 61.83 56.31 59 55 L56 54 C56.15 52.82 54.66 52.98 54 53 L52 52 C52.15 50.82 50.66 50.98 50 51 L50 50 L54 50 L58 50 C57.85 51.18 59.34 51.02 60 51 L62 51 C62.45 52.6 66.55 52.6 67 51 L68 51 L71 49 L73 56 z"/>
<path style="fill:#7d7d7d" d="M49 50 L48 51 L49 50 z"/>
<path style="fill:#919191" d="M60 51 C59.34 51.02 57.85 51.18 58 50 C58.66 49.98 60.15 49.82 60 51 z"/>
<path style="fill:#636464" d="M25 51 C24.27 52.62 19.73 52.62 19 51 L25 51 z"/>
<path style="fill:#606060" d="M52 52 C51.34 52.02 49.85 52.18 50 51 C50.66 50.98 52.15 50.82 52 52 z"/>
<path style="fill:#636363" d="M67 51 C66.55 52.6 62.45 52.6 62 51 L67 51 z"/>
<path style="fill:#9d9d9d" d="M40 53 C40.02 53.66 40.18 55.15 39 55 L38 54 L39 52 L40 53 z"/>
<path style="fill:#616161" d="M47 52 L47 53 L46 53 L47 52 z"/>
<path style="fill:#eeefef" d="M41 53 C41.45 54.6 45.55 54.6 46 53 L47 53 C46.98 53.66 46.82 55.15 48 55 L49 57 L50 59 L49 61 L48 62 L48 63 L46 68 L46 64 L45 60 C46.89 53.87 40.11 53.87 42 60 L41 64 L41 68 L39 63 L39 62 L38 61 L36 58 L39 55 C40.18 55.15 40.02 53.66 40 53 L41 53 z"/>
<path style="fill:#8f8f8f" d="M46 53 C45.55 54.6 41.45 54.6 41 53 L46 53 z"/>
<path style="fill:#818282" d="M49 54 L48 55 C46.82 55.15 46.98 53.66 47 53 C47.66 52.98 49.15 52.82 49 54 z"/>
<path style="fill:#828383" d="M56 54 C55.34 54.02 53.85 54.18 54 53 C54.66 52.98 56.15 52.82 56 54 z"/>
<path style="fill:#707070" d="M30 54 L29 55 L30 54 z"/>
<path style="fill:#232424" d="M39 55 L36 58 L38 54 L39 55 z"/>
<path style="fill:#1a1b1b" d="M49 54 L50 56 L49 57 L48 55 L49 54 z"/>
<path style="fill:#838383" d="M28 55 L27 56 L28 55 z"/>
<path style="fill:#0b0b0b" d="M45 60 L46 64 L46 68 L47 69 C47.2 70.85 48.03 73.32 50 74 L49 76 L47 77 L46 78 L44 79 L43 79 L42 79 L41 78 L40 77 L37 76 L40 70 C41.18 70.15 41.02 68.66 41 68 L41 64 L42 60 C40.11 53.87 46.89 53.87 45 60 z"/>
<path style="fill:#b8b8b8" d="M66 62 L66 63 L65 63 C64.24 58.19 58.42 56.2 54 57 L59 55 C61.83 56.31 65.59 58.63 66 62 z"/>
<path style="fill:#717272" d="M14 56 L14 58 C12.67 58.22 12.67 55.78 14 56 z"/>
<path style="fill:#b8b9b9" d="M26 56 L27 57 C25.35 58.88 21.09 60.44 22 64 L21 64 L20 63 C21.08 60.16 23.36 57.57 26 56 z"/>
<path style="fill:#6a6a6a" d="M51 58 L50 59 L49 57 L50 56 C51.18 55.85 51.02 57.34 51 58 z"/>
<path style="fill:#8e8f8f" d="M72 59 L73 56 C74.96 56.25 74.09 60.01 72 59 z"/>
<path style="fill:#050505" d="M36 58 L38 61 L39 62 L39 63 L39 69 L38 71 L37 72 L36 73 L35 74 L34 74 C33.34 73.98 31.85 73.82 32 75 C29.91 74.98 27.7 75.36 26 74 L25 73 L23 71 L22 70 L22 68 L22 64 C21.09 60.44 25.35 58.88 27 57 L36 58 z"/>
<path style="fill:#828282" d="M53 57 L52 58 L53 57 z"/>
<path style="fill:#040404" d="M54 57 C58.42 56.2 64.24 58.19 65 63 L65 68 L65 70 L64 71 L62 73 L61 74 L60 74 L53 74 L52 74 L51 73 L50 72 L49 71 L48 69 L48 63 L48 62 L49 61 L50 59 L51 58 L52 58 L53 57 L54 57 z"/>
<path style="fill:#727272" d="M15 59 L14 58 L15 59 z"/>
<path style="fill:#7b7c7c" d="M42 60 L41 64 L42 60 z"/>
<path style="fill:#828282" d="M46 64 L45 60 L46 64 z"/>
<path style="fill:#7e7e7e" d="M39 62 L38 61 L39 62 z"/>
<path style="fill:#676767" d="M49 61 L48 62 L49 61 z"/>
<path style="fill:#5d5e5e" d="M68 62 C68.15 63.18 66.66 63.02 66 63 L66 62 L68 62 z"/>
<path style="fill:#929292" d="M41 68 C41.02 68.66 41.18 70.15 40 70 L39 69 L39 63 L41 68 z"/>
<path style="fill:#8f9090" d="M48 63 L48 69 L47 69 L46 68 L48 63 z"/>
<path style="fill:#5e5e5e" d="M66 63 L65 68 L65 63 L66 63 z"/>
<path style="fill:#4a4b4b" d="M22 64 L22 68 L21 64 L22 64 z"/>
<path style="fill:#bdbdbd" d="M40 70 L37 76 L35 74 L36 73 L37 72 L38 71 L39 69 L40 70 z"/>
<path style="fill:#cdcdcd" d="M48 69 L49 71 L50 72 L51 73 L52 74 L51 74 L50 74 C48.03 73.32 47.2 70.85 47 69 L48 69 z"/>
<path style="fill:#777777" d="M23 71 L22 70 L23 71 z"/>
<path style="fill:#919191" d="M65 70 L64 71 L65 70 z"/>
<path style="fill:#696969" d="M38 71 L37 72 L38 71 z"/>
<path style="fill:#6b6b6b" d="M50 72 L49 71 L50 72 z"/>
<path style="fill:#676767" d="M37 72 L36 73 L37 72 z"/>
<path style="fill:#787878" d="M51 73 L50 72 L51 73 z"/>
<path style="fill:#686868" d="M26 74 L25 73 L26 74 z"/>
<path style="fill:#848484" d="M62 73 L61 74 L62 73 z"/>
<path style="fill:#646464" d="M34 74 C34.15 75.18 32.66 75.02 32 75 C31.85 73.82 33.34 73.98 34 74 z"/>
<path style="fill:#737474" d="M51 74 C51.46 75.35 50.35 76.46 49 76 L50 74 L51 74 z"/>
<path style="fill:#545454" d="M60 74 C58.97 75.64 54.03 75.64 53 74 L60 74 z"/>
<path style="fill:#868686" d="M41 78 L40 77 L41 78 z"/>
<path style="fill:#868686" d="M47 77 L46 78 L47 77 z"/>
<path style="fill:#a8a8a8" d="M42 79 L41 78 L42 79 z"/>
<path style="fill:#686868" d="M44 79 C44.43 80.06 42.57 80.06 43 79 L44 79 z"/>
</svg>
