<?xml version="1.0" standalone="yes"?>
<svg width="87" height="97">
<path style="fill:#fdfdfd" d="M87 0 L87 97 L0 97 L0 0 L87 0 z"/>
<path style="fill:#747474" d="M44 19 L43 20 L44 19 z"/>
<path style="fill:#050606" d="M45 19 C43.99 21.09 47.75 21.96 48 20 L49 20 L50 21 C50.06 22.59 52.05 21.81 53 22 C52.98 22.66 52.82 24.15 54 24 L54 25 C55.58 26.15 56.59 27.55 56 30 L56 31 L56 32 L51 38 L50 39 L49 40 L48 41 L48 42 L44 43 L42 43 L41 41 L40 40 L39 39 L38 38 L33 32 L33 31 L32 30 C32.3 28.27 30.9 24.36 34 25 L35 24 C36.18 24.15 36.02 22.66 36 22 C36.95 21.81 38.94 22.59 39 21 C38.85 19.82 40.34 19.98 41 20 C40.78 21.33 43.22 21.33 43 20 L44 19 L45 19 z"/>
<path style="fill:#5b5b5b" d="M48 20 C47.75 21.96 43.99 21.09 45 19 L48 20 z"/>
<path style="fill:#a5a5a5" d="M49 20 L48 20 C47.57 18.94 49.43 18.94 49 20 z"/>
<path style="fill:#6d6e6e" d="M43 20 C43.22 21.33 40.78 21.33 41 20 L43 20 z"/>
<path style="fill:#8c8c8c" d="M50 21 L49 20 L50 21 z"/>
<path style="fill:#ababab" d="M39 21 C38.94 22.59 36.95 21.81 36 22 C36.06 20.41 38.05 21.19 39 21 z"/>
<path style="fill:#a2a2a2" d="M53 22 C52.05 21.81 50.06 22.59 50 21 C50.95 21.19 52.94 20.41 53 22 z"/>
<path style="fill:#5b5b5b" d="M36 22 C36.02 22.66 36.18 24.15 35 24 C34.98 23.34 34.82 21.85 36 22 z"/>
<path style="fill:#7a7b7b" d="M54 24 C52.82 24.15 52.98 22.66 53 22 C54.18 21.85 54.02 23.34 54 24 z"/>
<path style="fill:#949494" d="M35 24 L34 25 L35 24 z"/>
<path style="fill:#3e3f3f" d="M57 30 L56 30 C56.59 27.55 55.58 26.15 54 25 C57.65 23.85 57.11 27.66 57 30 z"/>
<path style="fill:#545555" d="M26 30 C26.02 30.66 26.18 32.15 25 32 C24.98 31.34 24.82 29.85 26 30 z"/>
<path style="fill:#060606" d="M28 30 C27.85 31.18 29.34 31.02 30 31 L31 32 L32 32 L37 39 L38 41 L39 42 L40 44 L39 45 L36 50 L35 50 L34 51 L21 54 L18 50 L17 49 L17 47 C18.33 47.22 18.33 44.78 17 45 L16 44 L17 41 L17 39 C19.68 39.71 18.94 36.55 19 35 C19.66 35.02 21.15 35.18 21 34 C20.29 31.32 23.45 32.06 25 32 C26.18 32.15 26.02 30.66 26 30 L28 30 z"/>
<path style="fill:#a4a4a4" d="M30 31 C29.34 31.02 27.85 31.18 28 30 C28.66 29.98 30.15 29.82 30 31 z"/>
<path style="fill:#727272" d="M33 31 L32 30 L33 31 z"/>
<path style="fill:#a5a5a5" d="M57 30 L56 31 L56 30 L57 30 z"/>
<path style="fill:#787878" d="M61 30 L60 31 L61 30 z"/>
<path style="fill:#060707" d="M63 30 L68 35 L70 35 C70.19 35.95 69.41 37.94 71 38 L73 43 L73 44 L72 45 L72 47 L72 49 L71 50 L70 54 L68 54 C63.64 54.25 59.98 52.06 56 51 L53 50 C53.15 48.82 51.66 48.98 51 49 L50 49 L50 48 C51.94 46.56 52.13 45.72 49 46 L48 45 L49 43 L50 42 L51 41 L52 39 L57 32 L60 31 L61 30 L63 30 z"/>
<path style="fill:#414141" d="M68 35 L63 30 L68 35 z"/>
<path style="fill:#6e6e6e" d="M31 32 L30 31 L31 32 z"/>
<path style="fill:#8f8f8f" d="M33 32 L38 38 L37 39 L32 32 L33 32 z"/>
<path style="fill:#8e8e8e" d="M56 32 L57 32 L52 39 L51 38 L56 32 z"/>
<path style="fill:#a4a5a5" d="M21 34 C21.15 35.18 19.66 35.02 19 35 C18.85 33.82 20.34 33.98 21 34 z"/>
<path style="fill:#747474" d="M19 35 C18.94 36.55 19.68 39.71 17 39 L19 35 z"/>
<path style="fill:#808181" d="M71 38 C69.41 37.94 70.19 35.95 70 35 C71.59 35.06 70.81 37.05 71 38 z"/>
<path style="fill:#d4d5d5" d="M38 38 L39 39 L40 40 L41 41 L42 43 L43 45 L40 44 L39 42 L38 41 L37 39 L38 38 z"/>
<path style="fill:#666666" d="M51 38 L50 39 L51 38 z"/>
<path style="fill:#e1e1e1" d="M52 39 L51 41 L50 42 L49 43 L48 42 L48 41 L49 40 L50 39 L51 38 L52 39 z"/>
<path style="fill:#747474" d="M73 43 L71 38 C74.1 37.36 72.7 41.27 73 43 z"/>
<path style="fill:#646565" d="M17 39 L17 41 C15.67 41.22 15.67 38.78 17 39 z"/>
<path style="fill:#7c7c7c" d="M40 40 L39 39 L40 40 z"/>
<path style="fill:#6b6b6b" d="M50 39 L49 40 L50 39 z"/>
<path style="fill:#676767" d="M41 41 L40 40 L41 41 z"/>
<path style="fill:#5e5e5e" d="M49 40 L48 41 L49 40 z"/>
<path style="fill:#787878" d="M39 42 L38 41 L39 42 z"/>
<path style="fill:#6f6f6f" d="M51 41 L50 42 L51 41 z"/>
<path style="fill:#b9baba" d="M48 42 L49 43 L48 45 L47 45 L46 45 L44 43 L48 42 z"/>
<path style="fill:#707070" d="M44 43 L46 45 L43 45 L42 43 L44 43 z"/>
<path style="fill:#5a5a5a" d="M17 45 L16 44 L17 45 z"/>
<path style="fill:#616262" d="M43 45 L41 47 L39 45 L40 44 L43 45 z"/>
<path style="fill:#606060" d="M73 44 L72 45 L73 44 z"/>
<path style="fill:#787979" d="M17 47 L17 45 C18.33 44.78 18.33 47.22 17 47 z"/>
<path style="fill:#adaeae" d="M39 45 L41 47 L42 51 L42 53 C39.64 55.53 41.75 49.68 39 51 C38.94 49.41 36.95 50.19 36 50 L39 45 z"/>
<path style="fill:#0b0c0c" d="M46 45 L47 45 C48.36 46.7 47.98 48.91 48 51 L47 51 C45.82 50.85 45.98 52.34 46 53 L45 53 L42 51 L41 47 L43 45 L46 45 z"/>
<path style="fill:#7e7f7f" d="M48 45 L49 46 C48.98 46.66 48.82 48.15 50 48 L50 49 L50 51 C48.82 50.85 48.98 52.34 49 53 L48 53 L48 51 C47.98 48.91 48.36 46.7 47 45 L48 45 z"/>
<path style="fill:#d9d9d9" d="M50 48 C48.82 48.15 48.98 46.66 49 46 C52.13 45.72 51.94 46.56 50 48 z"/>
<path style="fill:#8f8f8f" d="M17 47 L17 49 C15.67 49.22 15.67 46.78 17 47 z"/>
<path style="fill:#999999" d="M72 49 L72 47 C73.33 46.78 73.33 49.22 72 49 z"/>
<path style="fill:#838383" d="M18 50 L17 49 L18 50 z"/>
<path style="fill:#d1d1d1" d="M50 49 L51 49 C50.85 50.18 52.34 50.02 53 50 L56 51 C56.15 52.18 54.66 52.02 54 52 L50 51 L50 49 z"/>
<path style="fill:#6f7070" d="M53 50 C52.34 50.02 50.85 50.18 51 49 C51.66 48.98 53.15 48.82 53 50 z"/>
<path style="fill:#858585" d="M72 49 L71 50 L72 49 z"/>
<path style="fill:#7b7c7c" d="M21 54 C17.99 54.98 17.6 52.27 18 50 L21 54 z"/>
<path style="fill:#8b8b8b" d="M35 50 L34 51 L35 50 z"/>
<path style="fill:#edeeee" d="M36 50 C36.95 50.19 38.94 49.41 39 51 L38 51 L37 52 L35 52 L34 51 L35 50 L36 50 z"/>
<path style="fill:#a3a3a3" d="M71 50 L70 54 L71 50 z"/>
<path style="fill:#9b9b9b" d="M34 51 L35 52 L24 56 L21 54 L34 51 z"/>
<path style="fill:#989898" d="M38 51 L37 52 L38 51 z"/>
<path style="fill:#060606" d="M39 51 C41.75 49.68 39.64 55.53 42 53 L44 60 L44 61 L44 69 C42.82 68.85 42.98 70.34 43 71 L43 72 L42 73 L40 73 C39.34 72.98 37.85 72.82 38 74 L35 74 L30 72 C29.05 71.81 27.06 72.59 27 71 C27.02 70.34 27.18 68.85 26 69 L24 69 C23.94 67.45 24.68 64.29 22 65 L22 63 L22 62 L21 61 L21 59 L22 58 L23 57 L24 56 L35 52 L37 52 L38 51 L39 51 z"/>
<path style="fill:#787979" d="M45 53 L44 60 L42 53 L42 51 L45 53 z"/>
<path style="fill:#5f5f5f" d="M47 51 L47 53 L46 53 C45.98 52.34 45.82 50.85 47 51 z"/>
<path style="fill:#d6d6d6" d="M48 51 L48 53 L47 53 L47 51 L48 51 z"/>
<path style="fill:#060606" d="M50 51 L54 52 L65 56 C64.85 57.18 66.34 57.02 67 57 L68 60 L67 61 C65.67 60.78 65.67 63.22 67 63 L67 65 L63 70 L63 72 L59 73 L59 74 L57 74 C57.22 72.67 54.78 72.67 55 74 L52 74 L51 73 L49 73 L47 73 L46 71 L45 70 L45 69 L45 61 L45 59 L46 53 L47 53 L48 54 L49 53 C48.98 52.34 48.82 50.85 50 51 z"/>
<path style="fill:#868686" d="M68 54 L65 56 L54 52 C54.66 52.02 56.15 52.18 56 51 C59.98 52.06 63.64 54.25 68 54 z"/>
<path style="fill:#efefef" d="M45 53 L45 59 L45 61 L44 61 L44 60 L45 53 z"/>
<path style="fill:#838383" d="M46 53 L45 59 L45 53 L46 53 z"/>
<path style="fill:#6e6e6e" d="M48 53 L48 54 L47 53 L48 53 z"/>
<path style="fill:#fbfbfb" d="M49 53 L48 54 L48 53 L49 53 z"/>
<path style="fill:#898989" d="M24 56 L23 57 L24 56 z"/>
<path style="fill:#8a8a8a" d="M67 57 C66.34 57.02 64.85 57.18 65 56 C65.66 55.98 67.15 55.82 67 57 z"/>
<path style="fill:#707070" d="M23 57 L22 58 L23 57 z"/>
<path style="fill:#666666" d="M22 58 L21 59 L22 58 z"/>
<path style="fill:#8d8d8d" d="M21 59 L21 61 C19.67 61.22 19.67 58.78 21 59 z"/>
<path style="fill:#818181" d="M68 60 L67 61 L68 60 z"/>
<path style="fill:#a1a1a1" d="M22 62 L21 61 L22 62 z"/>
<path style="fill:#969696" d="M45 61 L45 69 L44 69 L44 61 L45 61 z"/>
<path style="fill:#555656" d="M67 61 L67 63 C65.67 63.22 65.67 60.78 67 61 z"/>
<path style="fill:#a8a9a9" d="M22 63 L22 65 C20.67 65.22 20.67 62.78 22 63 z"/>
<path style="fill:#8d8d8d" d="M67 65 L67 63 C68.33 62.78 68.33 65.22 67 65 z"/>
<path style="fill:#8d8d8d" d="M24 69 L22 65 C24.68 64.29 23.94 67.45 24 69 z"/>
<path style="fill:#868787" d="M67 65 L63 70 L67 65 z"/>
<path style="fill:#9a9a9a" d="M27 71 C25.82 71.15 25.98 69.66 26 69 C27.18 68.85 27.02 70.34 27 71 z"/>
<path style="fill:#606060" d="M44 69 C44.02 69.66 44.18 71.15 43 71 C42.98 70.34 42.82 68.85 44 69 z"/>
<path style="fill:#959595" d="M46 71 L45 70 L46 71 z"/>
<path style="fill:#6f7070" d="M35 74 C33.27 73.7 29.36 75.1 30 72 L35 74 z"/>
<path style="fill:#999999" d="M43 72 L42 73 L43 72 z"/>
<path style="fill:#b4b5b5" d="M63 72 L59 73 L63 72 z"/>
<path style="fill:#737373" d="M42 73 C42.22 74.33 39.78 74.33 40 73 L42 73 z"/>
<path style="fill:#858686" d="M49 73 C49.22 74.33 46.78 74.33 47 73 L49 73 z"/>
<path style="fill:#636363" d="M52 74 L51 73 L52 74 z"/>
<path style="fill:#5f5f5f" d="M57 74 L55 74 C54.78 72.67 57.22 72.67 57 74 z"/>
<path style="fill:#919292" d="M38 74 C38.04 75.48 34.96 75.48 35 74 L38 74 z"/>
<path style="fill:#828282" d="M55 74 C55.04 75.48 51.96 75.48 52 74 L55 74 z"/>
<path style="fill:#afafaf" d="M59 74 C59.22 75.33 56.78 75.33 57 74 L59 74 z"/>
</svg>
