<?xml version="1.0" standalone="yes"?>
<svg width="87" height="97">
<path style="fill:#fdfdfd" d="M87 0 L87 97 L0 97 L0 0 L87 0 z"/>
<path style="fill:#7d7d7d" d="M42 19 C42.15 20.18 40.66 20.02 40 20 C39.85 18.82 41.34 18.98 42 19 z"/>
<path style="fill:#060707" d="M48 20 C47.85 21.18 49.34 21.02 50 21 L53 22 C49.01 27.95 45.23 34.51 43.75 41.75 L36 26 L34 22 L35 22 L36 21 L40 20 C40.66 20.02 42.15 20.18 42 19 L48 20 z"/>
<path style="fill:#989898" d="M50 21 C49.34 21.02 47.85 21.18 48 20 C48.66 19.98 50.15 19.82 50 21 z"/>
<path style="fill:#9a9a9a" d="M36 21 L35 22 L36 21 z"/>
<path style="fill:#6f6f6f" d="M34 22 L36 26 C32.91 24.61 29.84 23.27 26 24 L34 22 z"/>
<path style="fill:#7a7b7b" d="M62 24 C50.82 21.06 44.59 35.68 47 44 C44.41 42.95 42.07 42.73 40 45 L40 44 L36 26 L43.75 41.75 C45.23 34.51 49.01 27.95 53 22 L62 24 z"/>
<path style="fill:#030303" d="M26 24 C29.84 23.27 32.91 24.61 36 26 L40 44 L38 44 L36 42 C33.91 40.99 33.04 44.75 35 45 C37.62 45.92 39.26 48.22 36 50 C29.8 50.36 23.07 52.28 17 50 L16 48 L15 47 L14 46 L14 40 L15 39 L15 38 L16 37 L17 36 L18 35 L19 35 L20 35 L21 29 L22 26 L23 25 L26 24 z"/>
<path style="fill:#040404" d="M62 24 L64 25 L65 26 L66 27 L66 28 C65.98 28.66 65.82 30.15 67 30 C67.3 31.73 65.9 35.64 69 35 L70 36 L72 38 L73 39 L73 41 L73 44 L73 46 L72 47 L71 49 L66 51 L60 51 L51 50 C50.09 48.74 48.15 48.33 49 46 L52 42 C52.22 40.67 49.78 40.67 50 42 L49 43 C49.15 44.18 47.66 44.02 47 44 C44.59 35.68 50.82 21.06 62 24 z"/>
<path style="fill:#a9a9a9" d="M23 25 L22 26 L23 25 z"/>
<path style="fill:#828282" d="M65 26 L64 25 L65 26 z"/>
<path style="fill:#a4a4a4" d="M66 27 L65 26 L66 27 z"/>
<path style="fill:#6d6e6e" d="M67 30 C65.82 30.15 65.98 28.66 66 28 C67.18 27.85 67.02 29.34 67 30 z"/>
<path style="fill:#4d4e4e" d="M21 29 L20 35 L20 34 L21 29 z"/>
<path style="fill:#a8a8a8" d="M20 34 L20 35 L19 35 L20 34 z"/>
<path style="fill:#969696" d="M18 35 L17 36 L18 35 z"/>
<path style="fill:#858585" d="M70 36 L69 35 L70 36 z"/>
<path style="fill:#838383" d="M17 36 L16 37 L17 36 z"/>
<path style="fill:#8c8c8c" d="M16 37 L15 38 L16 37 z"/>
<path style="fill:#a1a1a1" d="M73 39 L72 38 L73 39 z"/>
<path style="fill:#757575" d="M15 39 L14 40 L15 39 z"/>
<path style="fill:#575757" d="M52 42 L50 42 C49.78 40.67 52.22 40.67 52 42 z"/>
<path style="fill:#9a9a9a" d="M73 44 L73 41 C74.48 40.96 74.48 44.04 73 44 z"/>
<path style="fill:#8c8d8d" d="M36 42 L35 45 C33.04 44.75 33.91 40.99 36 42 z"/>
<path style="fill:#efefef" d="M38 44 C37.94 45.59 35.95 44.81 35 45 L36 42 L38 44 z"/>
<path style="fill:#5c5c5c" d="M50 42 L49 43 L50 42 z"/>
<path style="fill:#dddddd" d="M52 42 L49 46 L48 46 L47 44 C47.66 44.02 49.15 44.18 49 43 L50 42 L52 42 z"/>
<path style="fill:#070808" d="M47 44 L48 46 L47 52 C44 52.25 41.12 52.2 39 50 L40 45 C42.07 42.73 44.41 42.95 47 44 z"/>
<path style="fill:#919292" d="M40 44 L40 45 L39 50 L38 50 L37 50 L36 50 C39.26 48.22 37.62 45.92 35 45 C35.95 44.81 37.94 45.59 38 44 L40 44 z"/>
<path style="fill:#a6a6a6" d="M15 47 L14 46 L15 47 z"/>
<path style="fill:#828282" d="M49 46 C48.15 48.33 50.09 48.74 51 50 C46.07 52.42 57.68 57.31 57 62 L47 52 L48 46 L49 46 z"/>
<path style="fill:#919191" d="M73 46 L72 47 L73 46 z"/>
<path style="fill:#5b5b5b" d="M16 48 L15 47 L16 48 z"/>
<path style="fill:#979898" d="M71 49 L70 54 C70.61 50.83 69.18 51.37 67 52 L66 51 L71 49 z"/>
<path style="fill:#6d6d6d" d="M36 50 L37 50 C31.4 52.79 23.24 54.31 17 51 L17 50 C23.07 52.28 29.8 50.36 36 50 z"/>
<path style="fill:#070808" d="M38 50 L33 58 C30.7 59 29.19 61.61 29 64 L27 69 L24 67 L23 66 L22 65 L21 64 L19 63 L18 62 L18 59 C17.81 58.05 18.59 56.06 17 56 L17 51 C23.24 54.31 31.4 52.79 37 50 L38 50 z"/>
<path style="fill:#7e7e7e" d="M39 50 C41.12 52.2 44 52.25 47 52 C47.15 53.18 45.66 53.02 45 53 L43 53 C38.37 50.56 36.61 56.05 33 58 L38 50 L39 50 z"/>
<path style="fill:#050505" d="M51 50 C52.48 51.58 55.54 52.14 58 52 C59.66 53.65 65.34 53.65 67 52 C69.18 51.37 70.61 50.83 70 54 L70 57 C68.41 57.06 69.19 59.05 69 60 L69 62 L68 63 L66 64 L65 65 L64 66 L63 67 L61 68 L57 62 C57.68 57.31 46.07 52.42 51 50 z"/>
<path style="fill:#828383" d="M60 51 C60.15 52.18 58.66 52.02 58 52 C55.54 52.14 52.48 51.58 51 50 L60 51 z"/>
<path style="fill:#515252" d="M66 51 L67 52 C65.34 53.65 59.66 53.65 58 52 C58.66 52.02 60.15 52.18 60 51 L66 51 z"/>
<path style="fill:#050505" d="M43 53 C40.22 58.86 47.78 58.86 45 53 C45.66 53.02 47.15 53.18 47 52 L57 62 L58 71 L57 73 L56 74 L55 75 L54 76 C53.34 75.98 51.85 75.82 52 77 L48 77 C48.15 75.82 46.66 75.98 46 76 L45 75 C45.22 73.67 42.78 73.67 43 75 C40.14 76.86 36.11 78.12 33 76 L32 75 L31 74 L30 73 L29 70 L29 64 C30.97 62.8 32.58 60.24 33 58 C36.61 56.05 38.37 50.56 43 53 z"/>
<path style="fill:#dbdcdc" d="M45 53 C47.78 58.86 40.22 58.86 43 53 L45 53 z"/>
<path style="fill:#a9a9a9" d="M18 59 C16.41 58.94 17.19 56.95 17 56 C18.59 56.06 17.81 58.05 18 59 z"/>
<path style="fill:#a2a2a2" d="M70 57 C69.81 57.95 70.59 59.94 69 60 C69.19 59.05 68.41 57.06 70 57 z"/>
<path style="fill:#848484" d="M33 58 C32.58 60.24 30.97 62.8 29 64 C29.19 61.61 30.7 59 33 58 z"/>
<path style="fill:#989898" d="M19 63 L18 62 L19 63 z"/>
<path style="fill:#787878" d="M61 68 L58 71 L57 62 L61 68 z"/>
<path style="fill:#8e8e8e" d="M69 62 L68 63 L69 62 z"/>
<path style="fill:#606060" d="M22 65 L21 64 L22 65 z"/>
<path style="fill:#848585" d="M29 64 L29 70 C28.34 70.02 26.85 70.18 27 69 L29 64 z"/>
<path style="fill:#616161" d="M66 64 L65 65 L66 64 z"/>
<path style="fill:#828282" d="M23 66 L22 65 L23 66 z"/>
<path style="fill:#8b8b8b" d="M65 65 L64 66 L65 65 z"/>
<path style="fill:#9e9e9e" d="M24 67 L23 66 L24 67 z"/>
<path style="fill:#979797" d="M64 66 L63 67 L64 66 z"/>
<path style="fill:#6d6d6d" d="M31 74 L30 73 L31 74 z"/>
<path style="fill:#5a5a5a" d="M57 73 L56 74 L57 73 z"/>
<path style="fill:#5d5e5e" d="M45 75 L43 75 C42.78 73.67 45.22 73.67 45 75 z"/>
<path style="fill:#717171" d="M33 76 L32 75 L33 76 z"/>
<path style="fill:#686868" d="M55 75 L54 76 L55 75 z"/>
<path style="fill:#878888" d="M48 77 C47.34 77.02 45.85 77.18 46 76 C46.66 75.98 48.15 75.82 48 77 z"/>
<path style="fill:#9fa0a0" d="M54 76 C54.15 77.18 52.66 77.02 52 77 C51.85 75.82 53.34 75.98 54 76 z"/>
</svg>
