<?xml version="1.0" standalone="yes"?>
<svg width="87" height="97">
<path style="fill:#fcfdfd" d="M87 0 L87 97 L0 97 L0 0 L87 0 z"/>
<path style="fill:#959595" d="M35 21 C35.15 22.18 33.66 22.02 33 22 C32.85 20.82 34.34 20.98 35 21 z"/>
<path style="fill:#0a0b0b" d="M40 21 C39.85 22.18 41.34 22.02 42 22 L43 23 L44 23 L45 24 L46 25 L47 26 L48 27 C47.98 27.66 47.82 29.15 49 29 C49.06 30.59 51.05 29.81 52 30 L53 30 L54 31 L56 33 L57 34 C55.47 39.52 63.61 38.72 64 44 C64.63 46.12 62.18 46.14 61 47 C59.82 47.15 59.98 45.66 60 45 L60 43 C55.96 36.85 47.53 49.27 57 49 L58 49 C56.95 53.22 51.42 51.94 50.75 48.25 C47.14 48.46 43.64 46.95 42 44 L41 43 C39.07 44.93 37.09 43.23 35 43 L35 42 L35 38 L36 34 L37 35 C41.25 40.38 47.79 31.92 38 35 L38 34 C39.63 34 42.5 34.48 42.75 32.25 C41.08 32.08 38.61 34.05 38 31 C47.74 31.18 37.56 22.95 35 31 C34.81 30.05 35.59 28.06 34 28 L34 26 C34.02 25.34 34.18 23.85 33 24 L33 22 C33.66 22.02 35.15 22.18 35 21 L40 21 z"/>
<path style="fill:#adadad" d="M42 22 C41.34 22.02 39.85 22.18 40 21 C40.66 20.98 42.15 20.82 42 22 z"/>
<path style="fill:#636363" d="M43 23 L42 22 L43 23 z"/>
<path style="fill:#8c8c8c" d="M45 24 L44 23 L45 24 z"/>
<path style="fill:#939393" d="M34 26 C32.82 26.15 32.98 24.66 33 24 C34.18 23.85 34.02 25.34 34 26 z"/>
<path style="fill:#747474" d="M46 25 L45 24 L46 25 z"/>
<path style="fill:#686868" d="M60 25 L58 25 C57.78 23.67 60.22 23.67 60 25 z"/>
<path style="fill:#787878" d="M47 26 L46 25 L47 26 z"/>
<path style="fill:#141414" d="M58 25 L60 25 C59.33 27.11 61.58 27.21 63 27 C65.05 27.46 63.62 29.93 63 31 L62 32 C60.45 32.19 60.45 35.81 62 36 C64.27 35.6 66.98 35.99 66 39 C66.29 45.33 59.3 36.54 58 34 L58 25 z"/>
<path style="fill:#898989" d="M63 27 C61.58 27.21 59.33 27.11 60 25 L63 27 z"/>
<path style="fill:#a4a4a4" d="M48 27 L47 26 L48 27 z"/>
<path style="fill:#4c4d4d" d="M32 31 L31 32 L25 29 C25.15 27.82 23.66 27.98 23 28 C25.33 25.35 30.71 27.93 32 31 z"/>
<path style="fill:#5d5d5d" d="M38 31 C35.98 31.27 37.68 33.1 38 34 L38 35 L37 35 L36 34 L35 31 C37.56 22.95 47.74 31.18 38 31 z"/>
<path style="fill:#141515" d="M23 28 C23.66 27.98 25.15 27.82 25 29 L24 29 L23 30 L21 32 C19.45 32.19 19.45 35.81 21 36 L23 38 C22.96 39.48 26.04 39.48 26 38 C27.06 38.43 27.06 36.57 26 37 L26 35 L28 35 L28 39 L27 40 L26 40 L23 40 L21 39 L20 38 C18.51 35.72 18.51 32.28 20 30 L21 29 L23 28 z"/>
<path style="fill:#9a9a9a" d="M35 31 L36 34 L35 38 L33 35 L33 34 L34 28 C35.59 28.06 34.81 30.05 35 31 z"/>
<path style="fill:#9a9a9a" d="M21 29 L20 30 L21 29 z"/>
<path style="fill:#9b9b9b" d="M24 29 L23 30 L24 29 z"/>
<path style="fill:#f3f3f3" d="M25 29 L31 32 L31 33 C30.98 33.66 30.82 35.15 32 35 L32 40 L32 41 L27 42 L26 40 L27 40 L28 39 C29.55 38.81 29.55 35.19 28 35 C28.22 33.67 25.78 33.67 26 35 C24.67 34.78 24.67 37.22 26 37 C27.06 36.57 27.06 38.43 26 38 L23 38 L21 36 L21 32 L23 30 L24 29 L25 29 z"/>
<path style="fill:#676767" d="M52 30 C51.05 29.81 49.06 30.59 49 29 C49.95 29.19 51.94 28.41 52 30 z"/>
<path style="fill:#656565" d="M54 31 L53 30 L54 31 z"/>
<path style="fill:#1a1a1a" d="M32 31 L33 34 L33 35 L32 40 L32 35 C32.02 34.34 32.18 32.85 31 33 L31 32 L32 31 z"/>
<path style="fill:#919191" d="M38 31 C38.61 34.05 41.08 32.08 42.75 32.25 C42.5 34.48 39.63 34 38 34 C37.68 33.1 35.98 31.27 38 31 z"/>
<path style="fill:#9d9d9d" d="M63 31 L62 32 L63 31 z"/>
<path style="fill:#7a7a7a" d="M21 32 L21 36 C19.45 35.81 19.45 32.19 21 32 z"/>
<path style="fill:#787979" d="M62 32 L62 36 C60.45 35.81 60.45 32.19 62 32 z"/>
<path style="fill:#9a9a9a" d="M32 35 C30.82 35.15 30.98 33.66 31 33 C32.18 32.85 32.02 34.34 32 35 z"/>
<path style="fill:#6c6c6c" d="M57 34 L56 33 L57 34 z"/>
<path style="fill:#969696" d="M28 35 L26 35 C25.78 33.67 28.22 33.67 28 35 z"/>
<path style="fill:#c2c2c2" d="M37 35 L36 34 L37 35 z"/>
<path style="fill:#818181" d="M37 35 L38 35 C47.79 31.92 41.25 40.38 37 35 z"/>
<path style="fill:#8f8f8f" d="M58 34 C59.3 36.54 66.29 45.33 66 39 L67 39 L66 44 L64 44 C63.61 38.72 55.47 39.52 57 34 L58 34 z"/>
<path style="fill:#797a7a" d="M26 35 L26 37 C24.67 37.22 24.67 34.78 26 35 z"/>
<path style="fill:#6a6a6a" d="M28 39 L28 35 C29.55 35.19 29.55 38.81 28 39 z"/>
<path style="fill:#818282" d="M35 38 L35 42 L33 42 L32 41 L32 40 L33 35 L35 38 z"/>
<path style="fill:#7c7c7c" d="M50 39 C45.65 38.11 52.26 35.8 48 36 C49.85 32.84 52.47 37.2 50 39 z"/>
<path style="fill:#454545" d="M48 36 C52.26 35.8 45.65 38.11 50 39 L52 41 C49.99 40.92 48.11 39.76 46.75 38.25 C45.57 40.19 44.67 39.77 45 37 C45.06 35.41 47.05 36.19 48 36 z"/>
<path style="fill:#8a8a8a" d="M68 36 L67 37 L68 36 z"/>
<path style="fill:#0a0a0a" d="M70 36 C70.19 36.95 69.41 38.94 71 39 L72 40 L69 46 C67.67 45.78 67.67 48.22 69 48 C69.06 49.59 71.05 48.81 72 49 L73 49 L73 53 L70 55 L68 55 C68.02 54.34 68.18 52.85 67 53 C67.02 52.34 67.18 50.85 66 51 L65 50 L64 50 L64 47 L65 46 L66 45 L66 44 L67 39 L67 37 L68 36 L70 36 z"/>
<path style="fill:#b2b2b2" d="M71 39 C69.41 38.94 70.19 36.95 70 36 C71.59 36.06 70.81 38.05 71 39 z"/>
<path style="fill:#7e7f7f" d="M45 37 C44.67 39.77 45.57 40.19 46.75 38.25 C48.11 39.76 49.99 40.92 52 41 C50.36 46.18 40.56 40.5 45 37 z"/>
<path style="fill:#959595" d="M21 39 L20 38 L21 39 z"/>
<path style="fill:#a9aaaa" d="M26 38 C26.04 39.48 22.96 39.48 23 38 L26 38 z"/>
<path style="fill:#787878" d="M28 39 L27 40 L28 39 z"/>
<path style="fill:#939393" d="M72 40 L71 39 L72 40 z"/>
<path style="fill:#a1a1a1" d="M26 40 L27 42 L23 42 L23 40 L26 40 z"/>
<path style="fill:#101111" d="M32 41 L33 42 L33 49 L30 47 C29.13 37.69 22.72 57.59 33 51 L33 54 L26 57 L22 57 L21 54 C27.01 55.57 26.72 48.35 21.25 50.75 L23 49 C26.23 45.83 18.32 45.09 19.75 49.75 L18 50 L17 49 L16 48 C13.56 47.69 13.56 44.31 16 44 L21 43 L22 42 L23 42 L27 42 L32 41 z"/>
<path style="fill:#c2c3c3" d="M35 42 L35 43 C33.41 43.06 34.19 45.05 34 46 L35 60 L33 57 L33 54 L33 51 L33 49 L33 42 L35 42 z"/>
<path style="fill:#777777" d="M60 43 C58.09 41.92 52.67 44.73 58 46 C57.37 47.4 55.25 47.12 57 49 C47.53 49.27 55.96 36.85 60 43 z"/>
<path style="fill:#999999" d="M22 42 L21 43 L22 42 z"/>
<path style="fill:#3c3d3d" d="M60 43 L60 45 C59.34 44.98 57.85 44.82 58 46 C52.67 44.73 58.09 41.92 60 43 z"/>
<path style="fill:#979797" d="M21 43 L16 44 L21 43 z"/>
<path style="fill:#8a8b8b" d="M35 43 C37.09 43.23 39.07 44.93 41 43 L42 44 C43.64 46.95 47.14 48.46 50.75 48.25 C51.42 51.94 56.95 53.22 58 49 L60 49 L59 51 L58 52 L57 53 L56 54 L52 57 C53.68 54.09 51.2 53.53 49 52 C49.65 49.84 47.35 49.84 48 52 L47 52 L42 48 C42.9 46.44 40.19 44.98 40 47 L36 47 C36.15 45.82 34.66 45.98 34 46 C34.19 45.05 33.41 43.06 35 43 z"/>
<path style="fill:#efefef" d="M42 44 L41 43 L42 44 z"/>
<path style="fill:#717272" d="M30 47 C29.3 44.48 26.78 47.73 30 47 L33 49 L33 51 C22.72 57.59 29.13 37.69 30 47 z"/>
<path style="fill:#babbbb" d="M66 44 L66 45 L65 46 L64 47 L62 49 L60 49 L61 47 C62.18 46.14 64.63 46.12 64 44 L66 44 z"/>
<path style="fill:#5b5c5c" d="M60 45 C59.98 45.66 59.82 47.15 61 47 L60 49 L58 49 L57 49 C55.25 47.12 57.37 47.4 58 46 C57.85 44.82 59.34 44.98 60 45 z"/>
<path style="fill:#616161" d="M66 45 L65 46 L66 45 z"/>
<path style="fill:#747474" d="M23 49 C22.3 46.48 19.78 49.73 23 49 L21.25 50.75 C26.72 48.35 27.01 55.57 21 54 L19 52 L18 51 L18 50 L19.75 49.75 C18.32 45.09 26.23 45.83 23 49 z"/>
<path style="fill:#181818" d="M30 47 C26.78 47.73 29.3 44.48 30 47 z"/>
<path style="fill:#282929" d="M36 47 L37 49 L37 62 L35 60 L34 46 C34.66 45.98 36.15 45.82 36 47 z"/>
<path style="fill:#a1a1a1" d="M42 48 L41 62 C41.02 62.66 41.18 64.15 40 64 L40 58 L40 48 L40 47 C40.19 44.98 42.9 46.44 42 48 z"/>
<path style="fill:#969797" d="M69 46 L69 48 C67.67 48.22 67.67 45.78 69 46 z"/>
<path style="fill:#0f0f0f" d="M36 47 L40 47 L40 48 C38.34 49.99 38.34 56.01 40 58 L40 64 L39 64 L38 56 C37.81 55.05 38.59 53.06 37 53 L37 49 L36 47 z"/>
<path style="fill:#4c4c4c" d="M64 47 L64 50 L64 51 L63 52 L61 52 L61 51 L62 50 C63.06 50.43 63.06 48.57 62 49 L64 47 z"/>
<path style="fill:#6b6b6b" d="M17 49 L16 48 L17 49 z"/>
<path style="fill:#1e1f1f" d="M23 49 C19.78 49.73 22.3 46.48 23 49 z"/>
<path style="fill:#606161" d="M40 48 L40 58 C38.34 56.01 38.34 49.99 40 48 z"/>
<path style="fill:#101111" d="M42 48 L47 52 C45.63 55.8 44.85 59.76 45 64 L44 56 C44.77 53.05 42.6 50.57 43 55 L41 62 L42 48 z"/>
<path style="fill:#606060" d="M73 49 L72 49 C71.57 47.94 73.43 47.94 73 49 z"/>
<path style="fill:#777777" d="M18 50 L17 49 L18 50 z"/>
<path style="fill:#b8b9b9" d="M37 49 L37 53 C37.19 53.95 36.41 55.94 38 56 L39 64 L37 62 L37 49 z"/>
<path style="fill:#303131" d="M62 49 L62 50 L61 51 L59 51 L60 49 L62 49 z"/>
<path style="fill:#c9c9c9" d="M62 50 L62 49 C63.06 48.57 63.06 50.43 62 50 z"/>
<path style="fill:#737474" d="M73 53 L73 49 C74.55 49.19 74.55 52.81 73 53 z"/>
<path style="fill:#dedede" d="M49 52 L48 52 C47.35 49.84 49.65 49.84 49 52 z"/>
<path style="fill:#aeaeae" d="M62 50 L61 51 L62 50 z"/>
<path style="fill:#e5e5e5" d="M65 50 L64 51 L64 50 L65 50 z"/>
<path style="fill:#252525" d="M66 51 L65 53 C61.45 55.49 58.22 59.6 58 64 L59 56 L63 52 L64 51 L65 50 L66 51 z"/>
<path style="fill:#a6a6a6" d="M15 51 L14 52 L15 51 z"/>
<path style="fill:#3e3e3e" d="M18 51 L19 52 C18.81 54.58 20.36 57.43 22 59 C22.2 60.85 23.03 63.32 25 64 L25 66 C22.8 65.23 21.91 62.88 21 61 L20 60 L20 59 L19 58 C18.5 53.66 17.15 52.32 14 55 L14 52 L15 51 L18 51 z"/>
<path style="fill:#cecece" d="M19 52 L18 51 L19 52 z"/>
<path style="fill:#080808" d="M59 51 L58 52 L59 51 z"/>
<path style="fill:#838484" d="M61 51 L61 52 L60 53 L59 54 L56 56 L56 54 L57 53 L58 52 L59 51 L61 51 z"/>
<path style="fill:#dedede" d="M64 51 L63 52 L64 51 z"/>
<path style="fill:#a0a0a0" d="M67 53 L65 53 L66 51 C67.18 50.85 67.02 52.34 67 53 z"/>
<path style="fill:#9e9f9f" d="M14 52 L14 55 C12.52 55.04 12.52 51.96 14 52 z"/>
<path style="fill:#d0d0d0" d="M21 54 L22 57 L22 59 C20.36 57.43 18.81 54.58 19 52 L21 54 z"/>
<path style="fill:#d1d2d2" d="M44 56 L43 55 C42.6 50.57 44.77 53.05 44 56 z"/>
<path style="fill:#a8a8a8" d="M48 52 L47 59 C44.44 63.02 47 68.62 47.75 61.25 C47.67 66.59 49.54 66.15 49 61 L51 59 L51 62 C49.52 61.96 49.52 65.04 51 65 L48 69 L46 70 L45 69 L45.75 67.25 C36.22 66.79 38.29 73.34 35 75 C31.77 72.48 37.29 69.08 32 67 L32 65 C33.16 65.93 34.45 66.02 34 64 L35 65 C37.8 70.63 40.52 62.78 44.75 65.75 L45 64 C44.85 59.76 45.63 55.8 47 52 L48 52 z"/>
<path style="fill:#1f1f1f" d="M49 52 C51.2 53.53 53.68 54.09 52 57 C50.82 56.85 50.98 58.34 51 59 L49 61 L49 60 C51.35 56.2 47.97 53.26 48 59 L47 59 L48 52 L49 52 z"/>
<path style="fill:#0" d="M58 52 L57 53 L58 52 z"/>
<path style="fill:#0d0d0d" d="M61 52 L60 53 L61 52 z"/>
<path style="fill:#b7b7b7" d="M63 52 L59 56 L59 54 L60 53 L61 52 L63 52 z"/>
<path style="fill:#5a5b5b" d="M38 56 C36.41 55.94 37.19 53.95 37 53 C38.59 53.06 37.81 55.05 38 56 z"/>
<path style="fill:#0" d="M57 53 L56 54 L57 53 z"/>
<path style="fill:#0b0b0b" d="M60 53 L59 54 L60 53 z"/>
<path style="fill:#aaaaaa" d="M65 53 L65 55 L64 56 C62.71 56.26 61.67 57.66 62 59 C60.08 59.69 57.66 63.82 60 65 L60 67 L58 67 L58 64 C58.22 59.6 61.45 55.49 65 53 z"/>
<path style="fill:#313131" d="M67 53 L65 55 L65 53 L67 53 z"/>
<path style="fill:#a4a5a5" d="M68 55 L67 56 L66 57 L64 58 L64 56 L65 55 L67 53 C68.18 52.85 68.02 54.34 68 55 z"/>
<path style="fill:#3f4040" d="M73 53 L72 59 C72.02 58.34 72.18 56.85 71 57 L70 56 L70 55 L73 53 z"/>
<path style="fill:#797a7a" d="M33 54 L33 57 L32 57 L28 57 L26 57 L33 54 z"/>
<path style="fill:#1e1f1f" d="M56 54 L56 56 L51 62 L51 59 C52.18 59.15 52.02 57.66 52 57 L56 54 z"/>
<path style="fill:#262626" d="M59 54 L59 56 L56 58 L56 56 L59 54 z"/>
<path style="fill:#9fa0a0" d="M70 55 L70 56 L69 57 L68 58 L66 59 L66 57 L67 56 L68 55 L70 55 z"/>
<path style="fill:#6c6c6c" d="M43 55 L44 56 L45 64 L44.75 65.75 C40.52 62.78 37.8 70.63 35 65 L36 65 C37.59 64.94 36.81 62.95 37 62 L39 64 L40 64 C41.18 64.15 41.02 62.66 41 62 L43 55 z"/>
<path style="fill:#a0a1a1" d="M49 60 L48 59 C47.97 53.26 51.35 56.2 49 60 z"/>
<path style="fill:#0" d="M65 55 L64 56 L65 55 z"/>
<path style="fill:#0d0d0d" d="M68 55 L67 56 L68 55 z"/>
<path style="fill:#9a9b9b" d="M56 56 L56 58 C54.37 58.5 51.9 62.16 54 63 C53.73 65.02 51.9 63.32 51 63 L51 62 L56 56 z"/>
<path style="fill:#c4c5c5" d="M59 56 L58 64 L58 67 L57 72 L56 73 C54.67 72.78 54.67 75.22 56 75 L56 76 L55 76 C53.71 75.74 52.67 74.34 53 73 C54.93 72.59 55.09 70.35 56 69 C56.66 67.5 56.81 64.5 55 67 L54 66 C53.94 64.41 51.95 65.19 51 65 L51 63 C51.9 63.32 53.73 65.02 54 63 L56 58 L59 56 z"/>
<path style="fill:#1c1d1d" d="M64 56 L64 58 L62 59 C61.67 57.66 62.71 56.26 64 56 z"/>
<path style="fill:#060606" d="M67 56 L66 57 L67 56 z"/>
<path style="fill:#242424" d="M70 56 L69 57 L70 56 z"/>
<path style="fill:#b1b2b2" d="M71 57 L66 65 L65 65 L68 58 L69 57 L70 56 L71 57 z"/>
<path style="fill:#676767" d="M26 57 L28 57 L28 59 L26 60 L22 59 L22 57 L26 57 z"/>
<path style="fill:#b5b5b5" d="M32 57 C31.09 58.26 29.15 58.67 30 61 L28 59 L28 57 L32 57 z"/>
<path style="fill:#242525" d="M33 57 L35 60 L36 65 L35 65 L34 64 C33.94 57.09 29.11 59.8 34 64 C34.45 66.02 33.16 65.93 32 65 C32.02 64.34 32.18 62.85 31 63 C31.02 62.34 31.18 60.85 30 61 C29.15 58.67 31.09 58.26 32 57 L33 57 z"/>
<path style="fill:#cdcdcd" d="M52 57 C52.02 57.66 52.18 59.15 51 59 C50.98 58.34 50.82 56.85 52 57 z"/>
<path style="fill:#2e2e2e" d="M66 57 L66 59 L64 60 L64 58 L66 57 z"/>
<path style="fill:#0b0b0b" d="M69 57 L68 58 L69 57 z"/>
<path style="fill:#191a1a" d="M72 59 L69 67 L68 68 L67 69 L66 65 L71 57 C72.18 56.85 72.02 58.34 72 59 z"/>
<path style="fill:#a0a0a0" d="M20 59 L19 58 L20 59 z"/>
<path style="fill:#161717" d="M56 58 L54 63 C51.9 62.16 54.37 58.5 56 58 z"/>
<path style="fill:#ababab" d="M64 58 L64 60 C62.82 59.85 62.98 61.34 63 62 C60.21 63.7 64.02 66.4 63 62 C64.18 62.15 64.02 60.66 64 60 L66 59 L64 66 L60 65 L62 59 L64 58 z"/>
<path style="fill:#262626" d="M68 58 L65 65 L64 66 L66 59 L68 58 z"/>
<path style="fill:#b0b0b0" d="M26 60 C22.54 59.51 25.14 62.4 25 64 C23.03 63.32 22.2 60.85 22 59 L26 60 z"/>
<path style="fill:#1b1b1b" d="M28 59 L30 61 C29.98 61.66 29.82 63.15 31 63 C30.98 63.66 30.82 65.15 32 65 L32 67 L26.25 61.25 L31 69 L25 64 C25.14 62.4 22.54 59.51 26 60 L28 59 z"/>
<path style="fill:#969696" d="M34 64 C29.11 59.8 33.94 57.09 34 64 z"/>
<path style="fill:#545454" d="M47 59 L48 59 L49 60 L49 61 C49.54 66.15 47.67 66.59 47.75 61.25 C47 68.62 44.44 63.02 47 59 z"/>
<path style="fill:#212222" d="M62 59 L60 65 C57.66 63.82 60.08 59.69 62 59 z"/>
<path style="fill:#a5a5a5" d="M21 61 L20 60 L21 61 z"/>
<path style="fill:#a7a7a7" d="M37 62 C36.81 62.95 37.59 64.94 36 65 L35 60 L37 62 z"/>
<path style="fill:#1e1f1f" d="M64 60 C64.02 60.66 64.18 62.15 63 62 C62.98 61.34 62.82 59.85 64 60 z"/>
<path style="fill:#9e9e9e" d="M32 67 L32 69 L31 69 L26.25 61.25 L32 67 z"/>
<path style="fill:#b9b9b9" d="M31 63 C29.82 63.15 29.98 61.66 30 61 C31.18 60.85 31.02 62.34 31 63 z"/>
<path style="fill:#313232" d="M51 62 L51 63 L51 65 C49.52 65.04 49.52 61.96 51 62 z"/>
<path style="fill:#303030" d="M63 62 C64.02 66.4 60.21 63.7 63 62 z"/>
<path style="fill:#b0b1b1" d="M32 65 C30.82 65.15 30.98 63.66 31 63 C32.18 62.85 32.02 64.34 32 65 z"/>
<path style="fill:#5c5c5c" d="M31 69 L32 69 C31.86 70.88 33.88 68.86 32 69 L32 67 C37.29 69.08 31.77 72.48 35 75 L30 72 L24 73 C28.41 70.4 26.15 68 23 72 C19.88 70.07 27.09 69.36 25 66 L25 64 L31 69 z"/>
<path style="fill:#171818" d="M54 66 C52.82 65.85 52.98 67.34 53 68 C51.37 71.54 49.61 75.56 51 78 L48 76 L50 71 L48 69 L51 65 C51.95 65.19 53.94 64.41 54 66 z"/>
<path style="fill:#cdcece" d="M64 66 L65 65 L66 65 L67 69 L65 71 C66.74 67.96 60.6 64.81 61 69 L60 69 L60 67 L60 65 L64 66 z"/>
<path style="fill:#666767" d="M54 66 L55 67 C54.98 67.66 54.82 69.15 56 69 C55.09 70.35 54.93 72.59 53 73 L53 68 C52.98 67.34 52.82 65.85 54 66 z"/>
<path style="fill:#1b1c1c" d="M56 69 C54.82 69.15 54.98 67.66 55 67 C56.81 64.5 56.66 67.5 56 69 z"/>
<path style="fill:#676868" d="M45 69 C42.94 68.9 38.39 68.46 39.25 71.75 C40.95 70.26 44.57 71.14 44 74 C43.34 73.98 41.85 73.82 42 75 C39.71 73.99 38.11 74.67 36 76 L35 76 L35 75 C38.29 73.34 36.22 66.79 45.75 67.25 L45 69 z"/>
<path style="fill:#212222" d="M60 67 L60 69 L58 72 L57 72 L58 67 L60 67 z"/>
<path style="fill:#292929" d="M65 71 C64.74 72.29 63.34 73.33 62 73 C62.13 71.38 64.08 67.93 61 70 L61 69 C60.6 64.81 66.74 67.96 65 71 z"/>
<path style="fill:#757575" d="M69 67 L68 68 L69 67 z"/>
<path style="fill:#c0c1c1" d="M53 73 C49.99 73.69 52.09 75.55 53 77 C53.9 78.56 51.19 80.02 51 78 C49.61 75.56 51.37 71.54 53 68 L53 73 z"/>
<path style="fill:#c1c2c2" d="M24 73 L23 72 C26.15 68 28.41 70.4 24 73 z"/>
<path style="fill:#c8c8c8" d="M32 69 C33.88 68.86 31.86 70.88 32 69 z"/>
<path style="fill:#080909" d="M45 69 L46 70 L46 73 L45 74 L44 74 C44.57 71.14 40.95 70.26 39.25 71.75 C38.39 68.46 42.94 68.9 45 69 z"/>
<path style="fill:#727272" d="M48 69 L50 71 L46 73 L46 70 L48 69 z"/>
<path style="fill:#b5b5b5" d="M60 69 L61 69 L61 70 C59.12 69.86 61.14 71.88 61 70 C64.08 67.93 62.13 71.38 62 73 L58 72 L60 69 z"/>
<path style="fill:#2f2f2f" d="M61 70 C61.14 71.88 59.12 69.86 61 70 z"/>
<path style="fill:#9b9c9c" d="M30 72 L28 74 C27.34 73.98 25.85 73.82 26 75 L24 73 L30 72 z"/>
<path style="fill:#b1b2b2" d="M50 71 L48 76 L45 74 L46 73 L50 71 z"/>
<path style="fill:#2b2c2c" d="M30 72 C30.02 72.66 30.18 74.15 29 74 L28 74 L30 72 z"/>
<path style="fill:#1c1c1c" d="M57 72 L57 73 L56 73 L57 72 z"/>
<path style="fill:#8f8f8f" d="M58 72 L57 73 L57 72 L58 72 z"/>
<path style="fill:#373838" d="M53 73 C52.67 74.34 53.71 75.74 55 76 C55.15 77.18 53.66 77.02 53 77 C52.09 75.55 49.99 73.69 53 73 z"/>
<path style="fill:#111111" d="M56 73 L56 75 C54.67 75.22 54.67 72.78 56 73 z"/>
<path style="fill:#7e7e7e" d="M57 73 L57 75 L56 75 L56 73 L57 73 z"/>
<path style="fill:#1b1c1c" d="M28 74 L28 75 L26 75 C25.85 73.82 27.34 73.98 28 74 z"/>
<path style="fill:#888888" d="M29 74 L28 75 L28 74 L29 74 z"/>
<path style="fill:#b2b2b2" d="M44 74 L45 74 C44.94 75.59 42.95 74.81 42 75 C41.85 73.82 43.34 73.98 44 74 z"/>
<path style="fill:#1d1d1d" d="M57 75 L57 76 L56 76 L56 75 L57 75 z"/>
<path style="fill:#a6a6a6" d="M57 76 L57 75 C58.06 74.57 58.06 76.43 57 76 z"/>
<path style="fill:#797979" d="M35 76 L35 78 C33.67 78.22 33.67 75.78 35 76 z"/>
<path style="fill:#1b1c1c" d="M36 76 L36 77 C35.85 78.18 37.34 78.02 38 78 L38 79 L36 79 L35 78 L35 76 L36 76 z"/>
<path style="fill:#9d9d9d" d="M38 78 C37.34 78.02 35.85 78.18 36 77 C36.66 76.98 38.15 76.82 38 78 z"/>
<path style="fill:#acadad" d="M38 79 C38.22 80.33 35.78 80.33 36 79 L38 79 z"/>
</svg>
