<?xml version="1.0" standalone="yes"?>
<svg width="87" height="97">
<path style="fill:#fdfdfd" d="M87 0 L87 97 L0 97 L0 0 L87 0 z"/>
<path style="fill:#0b0b0b" d="M49 17 C48.85 18.18 50.34 18.02 51 18 L53 18 C52.85 19.18 54.34 19.02 55 19 L58 20 L59 21 L61 22 L62 23 L65 25 L66 26 L69 30 L70 31 L71 33 L72 34 L72 35 L73 36 L74 41 C73.98 41.66 73.82 43.15 75 43 L75 53 C73.41 53.06 74.19 55.05 74 56 L74 57 C72.82 56.85 72.98 58.34 73 59 L73 60 L72 61 L71 64 L70 65 L69 67 L68 68 L63 73 L62 74 L60 75 L59 76 L58 76 L57 77 L56 77 L55 78 L54 78 C53.34 77.98 51.85 77.82 52 79 L50 79 L46 80 L42 80 L37 79 L36 79 C36.15 77.82 34.66 77.98 34 78 L32 78 L31 77 L30 77 L29 76 L28 76 L27 75 L25 74 L24 73 L23 72 L20 69 L19 68 L18 67 L17 65 L16 64 L16 63 L15 62 C15.02 61.34 15.18 59.85 14 60 L14 59 C14.02 58.34 14.18 56.85 13 57 L13 54 C13.02 53.34 13.18 51.85 12 52 L12 45 L13 41 L13 40 C14.18 40.15 14.02 38.66 14 38 L14 37 L15 36 L15 34 L16 33 L17 31 L18 30 L25 23 L26 22 L28 21 L29 20 L30 20 L31 19 L32 19 C32.66 19.02 34.15 19.18 34 18 L49 17 z"/>
<path style="fill:#797a7a" d="M51 18 C50.34 18.02 48.85 18.18 49 17 C49.66 16.98 51.15 16.82 51 18 z"/>
<path style="fill:#989898" d="M34 18 C34.15 19.18 32.66 19.02 32 19 C31.85 17.82 33.34 17.98 34 18 z"/>
<path style="fill:#8b8b8b" d="M55 19 C54.34 19.02 52.85 19.18 53 18 C53.66 17.98 55.15 17.82 55 19 z"/>
<path style="fill:#999999" d="M31 19 L30 20 L31 19 z"/>
<path style="fill:#9f9f9f" d="M29 20 L28 21 L29 20 z"/>
<path style="fill:#919191" d="M59 21 L58 20 L59 21 z"/>
<path style="fill:#3e3f3f" d="M47 22 L40 22 C41.03 20.36 45.97 20.36 47 22 z"/>
<path style="fill:#727272" d="M26 22 L25 23 L26 22 z"/>
<path style="fill:#737474" d="M38 22 C38.15 23.18 36.66 23.02 36 23 C35.85 21.82 37.34 21.98 38 22 z"/>
<path style="fill:#f4f5f5" d="M40 22 L47 22 L55 24 L56 25 L58 26 L59 27 L62 29 L63 30 L64 31 L66 35 L63 34 L62 34 C62.15 32.82 60.66 32.98 60 33 L58 33 L53 32 L51 30 L50 29 L49 28 L48 27 L47 26 L45 26 C44.81 24.45 41.19 24.45 41 26 L40 26 L39 27 L37 29 C35.66 28.67 34.26 29.71 34 31 L29 33 L27 33 C26.34 32.98 24.85 32.82 25 34 L24 34 L21 35 L21 34 L22 33 L28 27 L29 26 L31 25 L32 24 L36 23 C36.66 23.02 38.15 23.18 38 22 L40 22 z"/>
<path style="fill:#787878" d="M62 23 L61 22 L62 23 z"/>
<path style="fill:#6a6a6a" d="M32 24 L31 25 L32 24 z"/>
<path style="fill:#757575" d="M56 25 L55 24 L56 25 z"/>
<path style="fill:#6f7070" d="M45 26 C40.95 25.16 46.98 32.68 42 32 C42.62 30.93 44.05 28.46 42 28 C42.02 27.34 42.18 25.85 41 26 C41.19 24.45 44.81 24.45 45 26 z"/>
<path style="fill:#9e9e9e" d="M66 26 L65 25 L66 26 z"/>
<path style="fill:#898989" d="M29 26 L28 27 L29 26 z"/>
<path style="fill:#939393" d="M40 26 L39 27 L40 26 z"/>
<path style="fill:#1c1d1d" d="M41 26 C42.18 25.85 42.02 27.34 42 28 C41.34 27.98 39.85 27.82 40 29 C39.78 30.33 42.22 30.33 42 29 L42 28 C44.05 28.46 42.62 30.93 42 32 L39 32 L37 32 L37 29 L39 27 L40 26 L41 26 z"/>
<path style="fill:#0b0b0b" d="M45 26 L47 26 L48 27 L49 28 L50 29 L51 30 C51.67 32.11 49.42 32.21 48 32 L47 33 L46 33 L42 34 L42 32 C46.98 32.68 40.95 25.16 45 26 z"/>
<path style="fill:#a2a2a2" d="M48 27 L47 26 L48 27 z"/>
<path style="fill:#a2a2a2" d="M59 27 L58 26 L59 27 z"/>
<path style="fill:#747474" d="M49 28 L48 27 L49 28 z"/>
<path style="fill:#888888" d="M42 28 L42 29 L40 29 C39.85 27.82 41.34 27.98 42 28 z"/>
<path style="fill:#727272" d="M50 29 L49 28 L50 29 z"/>
<path style="fill:#6f6f6f" d="M37 29 L37 32 L34 31 C34.26 29.71 35.66 28.67 37 29 z"/>
<path style="fill:#eceded" d="M42 29 C42.22 30.33 39.78 30.33 40 29 L42 29 z"/>
<path style="fill:#a1a1a1" d="M51 30 L50 29 L51 30 z"/>
<path style="fill:#6c6c6c" d="M63 30 L62 29 L63 30 z"/>
<path style="fill:#818181" d="M18 30 L17 31 L18 30 z"/>
<path style="fill:#dcdcdc" d="M53 32 L53 33 L51 33 C50.34 32.98 48.85 32.82 49 34 L47 34 L46 33 L47 33 L48 32 C49.42 32.21 51.67 32.11 51 30 L53 32 z"/>
<path style="fill:#656565" d="M64 31 L63 30 L64 31 z"/>
<path style="fill:#6d6d6d" d="M70 31 L69 30 L70 31 z"/>
<path style="fill:#bcbdbd" d="M37 32 L39 32 L42 34 L46 33 L47 34 C42.06 38.83 35.65 30.1 29 33 L34 31 L37 32 z"/>
<path style="fill:#686868" d="M42 32 L42 34 L39 32 L42 32 z"/>
<path style="fill:#6d6d6d" d="M48 32 L47 33 L48 32 z"/>
<path style="fill:#888989" d="M58 33 L53 33 L53 32 L58 33 z"/>
<path style="fill:#a6a6a6" d="M16 33 L15 34 L16 33 z"/>
<path style="fill:#868686" d="M22 33 L21 34 L22 33 z"/>
<path style="fill:#8c8d8d" d="M27 33 C27.15 34.18 25.66 34.02 25 34 C24.85 32.82 26.34 32.98 27 33 z"/>
<path style="fill:#080808" d="M29 33 C35.65 30.1 42.06 38.83 47 34 L49 34 C49.66 34.02 51.15 34.18 51 33 L53 33 L58 33 L60 33 C59.85 34.18 61.34 34.02 62 34 L63 34 L57 36 L56 36 L55 37 L54 37 L53 38 L52 38 L51 39 L50 40 L46 44 L45 45 L45 46 L43 46 L43 45 L42 44 L41 43 L40 42 L39 41 L38 40 L36 39 L35 38 L32 37 L31 36 L30 36 L24 34 L25 34 C25.66 34.02 27.15 34.18 27 33 L29 33 z"/>
<path style="fill:#595a5a" d="M51 33 C51.15 34.18 49.66 34.02 49 34 C48.85 32.82 50.34 32.98 51 33 z"/>
<path style="fill:#7c7d7d" d="M62 34 C61.34 34.02 59.85 34.18 60 33 C60.66 32.98 62.15 32.82 62 34 z"/>
<path style="fill:#989898" d="M72 34 L71 33 L72 34 z"/>
<path style="fill:#797a7a" d="M24 34 L30 36 L20 36 L21 35 L24 34 z"/>
<path style="fill:#757575" d="M66 35 L67 36 L57 36 L63 34 L66 35 z"/>
<path style="fill:#9e9e9e" d="M73 36 L72 35 L73 36 z"/>
<path style="fill:#5e5e5e" d="M15 36 L14 37 L15 36 z"/>
<path style="fill:#f9fafa" d="M30 36 L31 36 L32 37 L35 38 L36 39 L38 40 L39 41 L40 42 L41 43 L42 44 L43 45 L43 46 C42.78 47.33 45.22 47.33 45 46 L45 45 L46 44 L50 40 L51 39 L52 38 L53 38 L54 37 L55 37 L56 36 L57 36 L67 36 L69 41 C68.98 41.66 68.82 43.15 70 43 L69 57 L68 58 L68 59 L67 60 L67 61 L66 61 L64 59 L59 58 L52 57 L51 57 C51.67 54.24 49.03 52.21 47 51 C47.15 49.82 45.66 49.98 45 50 L43 50 C42.05 50.19 40.06 49.41 40 51 L38 53 C36.85 53.97 32.04 54.16 35 56 L35 57 L28 58 L23 59 L20 60 L18 55 L18 53 L18 43 L18 41 C19.18 41.15 19.02 39.66 19 39 L19 38 L20 37 L20 36 L30 36 z"/>
<path style="fill:#9c9c9c" d="M32 37 L31 36 L32 37 z"/>
<path style="fill:#676767" d="M56 36 L55 37 L56 36 z"/>
<path style="fill:#a4a4a4" d="M20 37 L19 38 L20 37 z"/>
<path style="fill:#777777" d="M54 37 L53 38 L54 37 z"/>
<path style="fill:#717171" d="M14 38 C14.02 38.66 14.18 40.15 13 40 C12.98 39.34 12.82 37.85 14 38 z"/>
<path style="fill:#808080" d="M36 39 L35 38 L36 39 z"/>
<path style="fill:#5c5c5c" d="M52 38 L51 39 L52 38 z"/>
<path style="fill:#a9a9a9" d="M19 39 C19.02 39.66 19.18 41.15 18 41 C17.98 40.34 17.82 38.85 19 39 z"/>
<path style="fill:#a1a1a1" d="M51 39 L50 40 L51 39 z"/>
<path style="fill:#6f6f6f" d="M39 41 L38 40 L39 41 z"/>
<path style="fill:#838484" d="M13 41 L12 45 L13 41 z"/>
<path style="fill:#757575" d="M40 42 L39 41 L40 42 z"/>
<path style="fill:#626363" d="M70 43 C68.82 43.15 68.98 41.66 69 41 C70.18 40.85 70.02 42.34 70 43 z"/>
<path style="fill:#909191" d="M75 43 C73.82 43.15 73.98 41.66 74 41 C75.18 40.85 75.02 42.34 75 43 z"/>
<path style="fill:#6d6d6d" d="M41 43 L40 42 L41 43 z"/>
<path style="fill:#c8c8c8" d="M18 43 L18 53 L17 53 L18 43 z"/>
<path style="fill:#777777" d="M42 44 L41 43 L42 44 z"/>
<path style="fill:#5d5d5d" d="M43 45 L42 44 L43 45 z"/>
<path style="fill:#6e6e6e" d="M46 44 L45 45 L46 44 z"/>
<path style="fill:#7b7b7b" d="M45 46 C45.22 47.33 42.78 47.33 43 46 L45 46 z"/>
<path style="fill:#767676" d="M43 50 L43 52 L40 51 C40.06 49.41 42.05 50.19 43 50 z"/>
<path style="fill:#191919" d="M45 50 C44.85 51.18 46.34 51.02 47 51 C49.03 52.21 51.67 54.24 51 57 L42 59 L42 58 C43.14 56.47 45.61 53.32 43 52 L43 50 L45 50 z"/>
<path style="fill:#a3a4a4" d="M47 51 C46.34 51.02 44.85 51.18 45 50 C45.66 49.98 47.15 49.82 47 51 z"/>
<path style="fill:#111111" d="M40 51 L43 52 C42.81 52.95 43.59 54.94 42 55 C42.46 50.61 37.61 55.46 42 55 L40 57 L38 57 L38 53 L40 51 z"/>
<path style="fill:#6d6e6e" d="M13 54 C11.82 54.15 11.98 52.66 12 52 C13.18 51.85 13.02 53.34 13 54 z"/>
<path style="fill:#606060" d="M42 58 C41.34 58.02 39.85 58.18 40 57 L42 55 C43.59 54.94 42.81 52.95 43 52 C45.61 53.32 43.14 56.47 42 58 z"/>
<path style="fill:#616262" d="M18 53 L18 55 C16.82 55.15 16.98 53.66 17 53 L18 53 z"/>
<path style="fill:#505151" d="M38 53 L38 57 C36.6 56.37 36.88 54.25 35 56 C32.04 54.16 36.85 53.97 38 53 z"/>
<path style="fill:#cacaca" d="M42 55 C37.61 55.46 42.46 50.61 42 55 z"/>
<path style="fill:#909090" d="M75 53 C74.81 53.95 75.59 55.94 74 56 C74.19 55.05 73.41 53.06 75 53 z"/>
<path style="fill:#bfbfbf" d="M38 57 L40 57 C39.85 58.18 41.34 58.02 42 58 L42 59 L42 60 C39.79 58.88 37.7 57.44 35 58 L35 57 L35 56 C36.88 54.25 36.6 56.37 38 57 z"/>
<path style="fill:#979898" d="M14 59 C12.82 59.15 12.98 57.66 13 57 C14.18 56.85 14.02 58.34 14 59 z"/>
<path style="fill:#535454" d="M35 57 L35 58 L28 58 L35 57 z"/>
<path style="fill:#dddddd" d="M51 57 L52 57 L52 58 C49.3 57.44 47.21 58.88 45 60 L44 61 L42 60 L42 59 L51 57 z"/>
<path style="fill:#505151" d="M59 58 L52 58 L52 57 L59 58 z"/>
<path style="fill:#7d7d7d" d="M69 57 L68 58 L69 57 z"/>
<path style="fill:#7f8080" d="M74 57 C74.02 57.66 74.18 59.15 73 59 C72.98 58.34 72.82 56.85 74 57 z"/>
<path style="fill:#0b0b0b" d="M28 58 L35 58 C37.7 57.44 39.79 58.88 42 60 L44 61 L45 60 C47.21 58.88 49.3 57.44 52 58 L59 58 L64 59 L57 61 C53.99 61.34 51.49 63.43 49 65 L48 66 L47 67 L46 68 L45 71 L44 71 L43 70 L42 69 L41 68 L39 66 L38 65 L37 64 L35 63 L34 62 L33 62 L32 61 L30 61 L23 59 L28 58 z"/>
<path style="fill:#adaeae" d="M23 59 L30 61 L21 62 C19.82 62.15 19.98 60.66 20 60 L23 59 z"/>
<path style="fill:#a9a9a9" d="M66 61 L57 61 L64 59 L66 61 z"/>
<path style="fill:#9d9d9d" d="M68 59 L67 60 L68 59 z"/>
<path style="fill:#aeafaf" d="M15 62 C13.82 62.15 13.98 60.66 14 60 C15.18 59.85 15.02 61.34 15 62 z"/>
<path style="fill:#6c6c6c" d="M45 60 L44 61 L45 60 z"/>
<path style="fill:#666666" d="M73 60 L72 61 L73 60 z"/>
<path style="fill:#f6f7f7" d="M30 61 L32 61 L33 62 L34 62 L35 63 L37 64 L38 65 L39 66 L41 68 L42 69 L43 70 L44 71 C43.57 72.06 45.43 72.06 45 71 L46 68 L47 67 L48 66 L49 65 C51.49 63.43 53.99 61.34 57 61 L66 61 L66 62 L66 63 L65 64 L64 65 L60 69 L59 70 L57 71 L56 72 L55 72 L54 73 L53 73 C52.34 72.98 50.85 72.82 51 74 L48 74 L38 74 L34 73 C34.15 71.82 32.66 71.98 32 72 L31 72 L30 71 L28 70 L27 69 L26 68 L24 66 L23 65 L22 64 L21 62 L30 61 z"/>
<path style="fill:#808080" d="M33 62 L32 61 L33 62 z"/>
<path style="fill:#989898" d="M67 61 L66 62 L66 61 L67 61 z"/>
<path style="fill:#757575" d="M16 63 L15 62 L16 63 z"/>
<path style="fill:#858585" d="M35 63 L34 62 L35 63 z"/>
<path style="fill:#5f5f5f" d="M66 63 L65 64 L66 63 z"/>
<path style="fill:#7a7a7a" d="M17 65 L16 64 L17 65 z"/>
<path style="fill:#737373" d="M23 65 L22 64 L23 65 z"/>
<path style="fill:#818181" d="M38 65 L37 64 L38 65 z"/>
<path style="fill:#919191" d="M65 64 L64 65 L65 64 z"/>
<path style="fill:#676767" d="M71 64 L70 65 L71 64 z"/>
<path style="fill:#999999" d="M24 66 L23 65 L24 66 z"/>
<path style="fill:#999999" d="M39 66 L38 65 L39 66 z"/>
<path style="fill:#808080" d="M49 65 L48 66 L49 65 z"/>
<path style="fill:#707070" d="M48 66 L47 67 L48 66 z"/>
<path style="fill:#8b8b8b" d="M19 68 L18 67 L19 68 z"/>
<path style="fill:#626262" d="M47 67 L46 68 L47 67 z"/>
<path style="fill:#848484" d="M69 67 L68 68 L69 67 z"/>
<path style="fill:#707070" d="M20 69 L19 68 L20 69 z"/>
<path style="fill:#989898" d="M27 69 L26 68 L27 69 z"/>
<path style="fill:#a3a3a3" d="M42 69 L41 68 L42 69 z"/>
<path style="fill:#7b7b7b" d="M28 70 L27 69 L28 70 z"/>
<path style="fill:#929292" d="M43 70 L42 69 L43 70 z"/>
<path style="fill:#868686" d="M60 69 L59 70 L60 69 z"/>
<path style="fill:#6d6d6d" d="M31 72 L30 71 L31 72 z"/>
<path style="fill:#838383" d="M45 71 C45.43 72.06 43.57 72.06 44 71 L45 71 z"/>
<path style="fill:#7b7b7b" d="M57 71 L56 72 L57 71 z"/>
<path style="fill:#747474" d="M24 73 L23 72 L24 73 z"/>
<path style="fill:#a4a5a5" d="M34 73 C33.34 73.02 31.85 73.18 32 72 C32.66 71.98 34.15 71.82 34 73 z"/>
<path style="fill:#858585" d="M55 72 L54 73 L55 72 z"/>
<path style="fill:#8b8b8b" d="M25 74 L24 73 L25 74 z"/>
<path style="fill:#7c7d7d" d="M53 73 C53.15 74.18 51.66 74.02 51 74 C50.85 72.82 52.34 72.98 53 73 z"/>
<path style="fill:#747474" d="M63 73 L62 74 L63 73 z"/>
<path style="fill:#adadad" d="M48 74 C46.01 75.66 39.99 75.66 38 74 L48 74 z"/>
<path style="fill:#9b9b9b" d="M28 76 L27 75 L28 76 z"/>
<path style="fill:#848484" d="M60 75 L59 76 L60 75 z"/>
<path style="fill:#828282" d="M30 77 L29 76 L30 77 z"/>
<path style="fill:#7e7e7e" d="M58 76 L57 77 L58 76 z"/>
<path style="fill:#909090" d="M32 78 L31 77 L32 78 z"/>
<path style="fill:#808080" d="M56 77 L55 78 L56 77 z"/>
<path style="fill:#686969" d="M36 79 C35.34 79.02 33.85 79.18 34 78 C34.66 77.98 36.15 77.82 36 79 z"/>
<path style="fill:#a0a1a1" d="M54 78 C54.15 79.18 52.66 79.02 52 79 C51.85 77.82 53.34 77.98 54 78 z"/>
<path style="fill:#858686" d="M42 80 L37 79 L42 80 z"/>
<path style="fill:#909191" d="M50 79 L46 80 L50 79 z"/>
</svg>
