<?xml version="1.0" standalone="yes"?>
<svg width="87" height="97">
<path style="fill:#fcfdfd" d="M87 0 L87 97 L0 97 L0 0 L87 0 z"/>
<path style="fill:#222323" d="M45 18 C44.85 19.18 46.34 19.02 47 19 L48 20 C47.87 24.01 40.32 16.33 38.75 22.75 L37 22 L39 19 C39.66 19.02 41.15 19.18 41 18 C42.36 16.92 43.64 16.92 45 18 z"/>
<path style="fill:#929292" d="M41 18 C41.15 19.18 39.66 19.02 39 19 C38.85 17.82 40.34 17.98 41 18 z"/>
<path style="fill:#909191" d="M47 19 C46.34 19.02 44.85 19.18 45 18 C45.66 17.98 47.15 17.82 47 19 z"/>
<path style="fill:#5e5e5e" d="M48 20 C49.18 19.85 49.02 21.34 49 22 L49 23 L52 26 L51 28 L46 29 C48.66 23.83 47.24 23.74 43 27 C39.65 23.47 38.14 24.56 40 29 C39.34 29.02 37.85 29.18 38 28 C37.01 26.32 35.03 24.9 37 23 L37 22 L38.75 22.75 C40.32 16.33 47.87 24.01 48 20 z"/>
<path style="fill:#acacac" d="M52 23 L49 23 L49 22 C49.95 22.19 51.94 21.41 52 23 z"/>
<path style="fill:#202020" d="M37 23 C35.03 24.9 37.01 26.32 38 28 L34 29 L32 29 L31 29 L32 26 C33.18 26.15 33.02 24.66 33 24 L37 23 z"/>
<path style="fill:#1e1e1e" d="M52 23 L53 24 C53.02 24.66 53.18 26.15 52 26 L49 23 L52 23 z"/>
<path style="fill:#757575" d="M33 24 C33.02 24.66 33.18 26.15 32 26 C31.98 25.34 31.82 23.85 33 24 z"/>
<path style="fill:#202121" d="M46 29 L45 31 L44 32 C42.27 30.43 44.36 29.67 44.75 28.25 L40 29 C38.14 24.56 39.65 23.47 43 27 C47.24 23.74 48.66 23.83 46 29 z"/>
<path style="fill:#727272" d="M55 27 L52 32 L51 32 L52 29 L51 28 L52 26 C53.18 26.15 53.02 24.66 53 24 L55 27 z"/>
<path style="fill:#777777" d="M38 28 C37.85 29.18 39.34 29.02 40 29 L44.75 28.25 C44.36 29.67 42.27 30.43 44 32 C43.29 34.68 46.45 33.94 48 34 L49 34 C46.49 36.63 48.77 38.4 44 36 C41.19 32.37 42.92 42.19 39 38 L40 34 C45.3 34.01 40.51 28.61 39 33 C38.92 29.98 37.2 29.53 34 29 L38 28 z"/>
<path style="fill:#2b2b2b" d="M55 27 L55 29 C55.12 30.92 54.49 34.37 52 34 L52 32 L55 27 z"/>
<path style="fill:#989898" d="M55 29 L55 27 C56.33 26.78 56.33 29.22 55 29 z"/>
<path style="fill:#080808" d="M34 29 L35 34 L33 34 C33.02 33.34 33.18 31.85 32 32 L32 29 L34 29 z"/>
<path style="fill:#8a8a8a" d="M51 28 L52 29 L47 31 L45 31 L46 29 L51 28 z"/>
<path style="fill:#959595" d="M32 29 L32 32 C30.41 31.94 31.19 29.95 31 29 L32 29 z"/>
<path style="fill:#454646" d="M39 33 C37.03 33.21 39.2 34.56 40 34 L39 38 L35 35 L35 34 L34 29 C37.2 29.53 38.92 29.98 39 33 z"/>
<path style="fill:#3c3c3c" d="M52 29 L51 32 C49.65 31.54 48.54 32.65 49 34 L48 34 L47 31 L52 29 z"/>
<path style="fill:#0f0f0f" d="M40 34 C39.2 34.56 37.03 33.21 39 33 C40.51 28.61 45.3 34.01 40 34 z"/>
<path style="fill:#0a0a0a" d="M47 31 L48 34 C46.45 33.94 43.29 34.68 44 32 L45 31 L47 31 z"/>
<path style="fill:#838383" d="M33 34 C31.82 34.15 31.98 32.66 32 32 C33.18 31.85 33.02 33.34 33 34 z"/>
<path style="fill:#515151" d="M51 32 L52 32 L52 34 L51 39 C51.18 35.3 42.77 44.32 44 36 C48.77 38.4 46.49 36.63 49 34 C48.54 32.65 49.65 31.54 51 32 z"/>
<path style="fill:#aaabab" d="M35 34 L35 35 L34 35 L33 34 L35 34 z"/>
<path style="fill:#191919" d="M35 35 L39 38 C42.92 42.19 41.19 32.37 44 36 C42.77 44.32 51.18 35.3 51 39 L51 40 L51 41 L48 41 L42 42 L41 42 C41.15 40.82 39.66 40.98 39 41 L36 41 C36.02 40.34 36.18 38.85 35 39 C35.02 38.34 35.18 36.85 34 37 L34 35 L35 35 z"/>
<path style="fill:#adaeae" d="M65 37 L63 37 C62.78 35.67 65.22 35.67 65 37 z"/>
<path style="fill:#2a2a2a" d="M23 37 C23.06 38.59 25.05 37.81 26 38 L26 39 C25.34 38.98 23.85 38.82 24 40 C21.75 38.21 16.67 41.1 19 44 L16 45 C14.08 41.93 19.15 36.74 23 37 z"/>
<path style="fill:#acacac" d="M26 38 C25.05 37.81 23.06 38.59 23 37 C23.95 37.19 25.94 36.41 26 38 z"/>
<path style="fill:#8f8f8f" d="M35 39 C33.82 39.15 33.98 37.66 34 37 C35.18 36.85 35.02 38.34 35 39 z"/>
<path style="fill:#404040" d="M63 37 L67 42 L67 44 C63.8 48.03 67.69 38.48 64.25 42.25 L63.75 43.75 L62 44 L61 43 L60 39 C59.33 36.89 61.58 36.79 63 37 z"/>
<path style="fill:#111212" d="M65 37 C64.78 38.33 67.22 38.33 67 37 L68 37 C67.98 37.66 67.82 39.15 69 39 L69 40 L68 42 L67 42 L63 37 L65 37 z"/>
<path style="fill:#848585" d="M67 37 C67.22 38.33 64.78 38.33 65 37 L67 37 z"/>
<path style="fill:#6b6b6b" d="M69 39 C67.82 39.15 67.98 37.66 68 37 C69.18 36.85 69.02 38.34 69 39 z"/>
<path style="fill:#6e6f6f" d="M30 39 L28 39 C27.78 37.67 30.22 37.67 30 39 z"/>
<path style="fill:#999999" d="M57 38 C56.94 39.59 54.95 38.81 54 39 C54.06 37.41 56.05 38.19 57 38 z"/>
<path style="fill:#323333" d="M59 39 L59 42 C56.1 39.5 53.98 43.14 53 45 C53.34 43.18 52.82 41.29 51 43 L51 41 L51 40 C51.95 39.81 53.94 40.59 54 39 C54.95 38.81 56.94 39.59 57 38 C57.66 37.98 59.15 37.82 59 39 z"/>
<path style="fill:#767777" d="M24 40 C24.91 41.51 23.75 42.73 26 43 C25.38 44.07 23.95 46.54 26 47 C25.6 51.77 23.6 45.51 21 47 C24.25 44.92 21.2 45.3 19 44 C16.67 41.1 21.75 38.21 24 40 z"/>
<path style="fill:#555555" d="M26 39 L28 39 C25.64 40.55 26.52 40.99 29 42 L27 47 L26 47 C26.62 45.93 28.05 43.46 26 43 C23.75 42.73 24.91 41.51 24 40 C23.85 38.82 25.34 38.98 26 39 z"/>
<path style="fill:#1f1f1f" d="M30 39 C30.95 39.19 32.94 38.41 33 40 C33.02 40.66 33.18 42.15 32 42 C32.04 40.52 28.96 40.52 29 42 C26.52 40.99 25.64 40.55 28 39 L30 39 z"/>
<path style="fill:#767676" d="M60 39 L61 43 C61.15 41.82 59.66 41.98 59 42 L59 39 L60 39 z"/>
<path style="fill:#494a4a" d="M35 41 L34 48 C37.4 49.63 37.6 55.12 34 57 L29 54 C33.17 56.54 34.24 50.33 29 52 C31.25 49.51 32.84 48.69 28 49 L28 48 C29.97 46.8 31.58 44.24 32 42 C33.18 42.15 33.02 40.66 33 40 C33.66 39.98 35.15 39.82 35 41 z"/>
<path style="fill:#626262" d="M48 41 L45 43 C43.82 42.16 43.18 42.16 42 43 L42 42 L48 41 z"/>
<path style="fill:#2d2e2e" d="M71 45 L69 46 L68 42 L69 40 C71.22 39.37 72.65 44.35 71 45 z"/>
<path style="fill:#7e7f7f" d="M32 42 C31.58 44.24 29.97 46.8 28 48 L27 47 L29 42 C28.96 40.52 32.04 40.52 32 42 z"/>
<path style="fill:#1b1c1c" d="M35 41 C34.98 41.66 34.82 43.15 36 43 L36 45 C36.21 46.42 36.11 48.67 34 48 L35 41 z"/>
<path style="fill:#858585" d="M36 41 L36 43 C34.82 43.15 34.98 41.66 35 41 L36 41 z"/>
<path style="fill:#ededed" d="M39 41 C38.85 42.18 40.34 42.02 41 42 L42 42 L42 43 L42 51 L41 51 C37.73 50.56 38.18 57.45 41 58 L42 59 L42 66 L41 66 L40 65 L39 61 L38 60 L37 59 L36 60 L34 60 L33 59 C32.98 58.34 32.82 56.85 34 57 C37.6 55.12 37.4 49.63 34 48 C36.11 48.67 36.21 46.42 36 45 C37.33 45.22 37.33 42.78 36 43 L36 41 L39 41 z"/>
<path style="fill:#7e7e7e" d="M41 42 C40.34 42.02 38.85 42.18 39 41 C39.66 40.98 41.15 40.82 41 42 z"/>
<path style="fill:#efefef" d="M51 41 L51 43 C49.67 42.78 49.67 45.22 51 45 C51.19 45.95 50.41 47.94 52 48 L52 49 C50.82 48.85 50.98 50.34 51 51 C49.67 50.78 49.67 53.22 51 53 C50.98 53.66 50.82 55.15 52 55 C51.98 55.66 51.82 57.15 53 57 L54 57 L54 59 L52 60 C52.9 58.44 50.19 56.98 50 59 L46 66 L46 58 C50.03 56.27 47.29 52.21 45 53 C46.11 51.37 50.56 47.17 46 47 L45 47 L45 43 L48 41 L51 41 z"/>
<path style="fill:#6e6e6e" d="M59 42 C54.28 43.5 62.16 46.08 59 48 L58 48 C57.1 42.61 54.87 50.77 52 49 L52 48 C54.52 48.63 54.04 46.18 53 45 C53.98 43.14 56.1 39.5 59 42 z"/>
<path style="fill:#676767" d="M67 42 L68 42 L69 46 C68.34 45.98 66.85 45.82 67 47 L63 47 L62 44 L63.75 43.75 L64.25 42.25 C67.69 38.48 63.8 48.03 67 44 L67 42 z"/>
<path style="fill:#0d0d0d" d="M45 43 L45 47 C44.57 48.06 46.43 48.06 46 47 C50.56 47.17 46.11 51.37 45 53 C47.29 52.21 50.03 56.27 46 58 C44.35 59.34 44.35 64.66 46 66 L50 59 L52 60 L54 59 C57.62 60.2 57.62 55.8 54 57 L53 57 C53.02 56.34 53.18 54.85 52 55 C50.82 55.15 50.98 53.66 51 53 L51 51 L54 51 L54 54 C53.29 56.68 56.45 55.94 58 56 C57.98 56.66 57.82 58.15 59 58 C59.7 59.16 62.22 60.02 59 60 C54.25 60.39 56.63 63 56 65 L55 66 C53.03 66.38 45.11 69.43 52 70 L53 71 L54 71 L55 72 L56 73 L57 74 C57.66 76.24 56.24 77.66 54 77 L54 76 L53 75 L52 74 C51.67 71.34 48.34 74.67 51 75 C51.67 77.11 49.42 77.21 48 77 L47 75 C46.09 72.43 44.15 75.47 45 77 L42 77 C43.19 73.46 39.49 73.97 40 77 C38.58 77.21 36.33 77.11 37 75 C39.66 74.67 36.33 71.34 36 74 L35 75 L34 76 L33 77 L30 77 L30 76 L31 75 L31 74 L32 73 L33 72 L34 71 C34.66 71.02 36.15 71.18 36 70 C40.62 69.81 35.48 65.36 33 67 L32 66 L31 65 L32 62 L31 61 L31 60 C30.85 58.82 32.34 58.98 33 59 L34 60 C33.78 61.33 36.22 61.33 36 60 L37 59 L38 60 L39 61 L40 65 L41 66 C40.57 67.06 42.43 67.06 42 66 L42 59 L41 58 C38.18 57.45 37.73 50.56 41 51 C40.57 52.06 42.43 52.06 42 51 L42 43 C43.18 42.16 43.82 42.16 45 43 z"/>
<path style="fill:#191919" d="M53 45 C54.04 46.18 54.52 48.63 52 48 C50.41 47.94 51.19 45.95 51 45 L51 43 C52.82 41.29 53.34 43.18 53 45 z"/>
<path style="fill:#272828" d="M61 43 L62 44 L63 47 C60.98 46.55 61.07 47.84 62 49 C61.34 48.98 59.85 48.82 60 50 C58.82 50.15 58.98 48.66 59 48 C62.16 46.08 54.28 43.5 59 42 C59.66 41.98 61.15 41.82 61 43 z"/>
<path style="fill:#181919" d="M26 47 C23.95 46.54 25.38 44.07 26 43 C28.05 43.46 26.62 45.93 26 47 z"/>
<path style="fill:#909090" d="M36 45 L36 43 C37.33 42.78 37.33 45.22 36 45 z"/>
<path style="fill:#6d6d6d" d="M51 43 L51 45 C49.67 45.22 49.67 42.78 51 43 z"/>
<path style="fill:#5e5e5e" d="M19 44 C21.2 45.3 24.25 44.92 21 47 C19.84 46.07 18.55 45.98 19 48 L15 52 C13.41 52.06 14.19 54.05 14 55 L13 51 C15.48 51.99 15.85 47.38 14 47 L16 45 L19 44 z"/>
<path style="fill:#545454" d="M71 45 L73 47 L72 54 L68 55 L67 52 L68.25 49.25 C72.64 50.54 70.98 45.8 67 48 L67 47 C66.85 45.82 68.34 45.98 69 46 L71 45 z"/>
<path style="fill:#2f2f2f" d="M21 47 C23.6 45.51 25.6 51.77 26 47 L27 47 L28 48 L28 49 L27 50 C25.94 49.57 25.94 51.43 27 51 L27 52 L29 54 L34 57 C32.82 56.85 32.98 58.34 33 59 C32.34 58.98 30.85 58.82 31 60 L29 60 L28 61 L25 62 L24 61 C23.34 61.02 21.85 61.18 22 60 L21 59 L21 58 C23.27 60.36 31.27 60.39 28 56 L26 54 C26.02 53.34 26.18 51.85 25 52 L19 48 C18.55 45.98 19.84 46.07 21 47 z"/>
<path style="fill:#333434" d="M58 48 C56.65 47.54 55.54 48.65 56 50 L54 51 L51 51 C50.98 50.34 50.82 48.85 52 49 C54.87 50.77 57.1 42.61 58 48 z"/>
<path style="fill:#0b0c0c" d="M13 51 L14 47 C15.85 47.38 15.48 51.99 13 51 z"/>
<path style="fill:#969696" d="M46 47 C46.43 48.06 44.57 48.06 45 47 L46 47 z"/>
<path style="fill:#888888" d="M63 47 C63.02 47.66 63.18 49.15 62 49 C61.07 47.84 60.98 46.55 63 47 z"/>
<path style="fill:#131313" d="M67 47 L67 48 L65 49 L66 59 L65 60 L63 60 C63.62 58.93 65.05 56.46 63 56 L62 49 C63.18 49.15 63.02 47.66 63 47 L67 47 z"/>
<path style="fill:#858585" d="M67 52 C65.71 51.74 64.67 50.34 65 49 L67 48 C70.98 45.8 72.64 50.54 68.25 49.25 L67 52 z"/>
<path style="fill:#0d0d0d" d="M73 47 L73 48 L74 49 L74 51 C72.41 51.06 73.19 53.05 73 54 L72 54 L73 47 z"/>
<path style="fill:#797a7a" d="M25 52 C23.31 51.59 21.59 53.31 22 55 L21 58 L21 59 L19 58 C21.7 54.78 13.82 55.85 15 52 L19 48 L25 52 z"/>
<path style="fill:#080909" d="M58 48 L59 48 C58.98 48.66 58.82 50.15 60 50 C60.36 53.66 57.32 50.87 56 50 C55.54 48.65 56.65 47.54 58 48 z"/>
<path style="fill:#696969" d="M74 49 L73 48 L74 49 z"/>
<path style="fill:#0a0a0a" d="M29 52 L27 52 L27 51 L27 50 L28 49 C32.84 48.69 31.25 49.51 29 52 z"/>
<path style="fill:#6e6e6e" d="M62 49 L63 56 L59 58 C57.82 58.15 57.98 56.66 58 56 C62.64 52.07 56.8 55.25 54 54 L54 51 L56 50 C57.32 50.87 60.36 53.66 60 50 C59.85 48.82 61.34 48.98 62 49 z"/>
<path style="fill:#666666" d="M65 49 C64.67 50.34 65.71 51.74 67 52 L68 55 L68 57 L66 59 L65 49 z"/>
<path style="fill:#c2c2c2" d="M27 50 L27 51 C25.94 51.43 25.94 49.57 27 50 z"/>
<path style="fill:#808080" d="M42 51 C42.43 52.06 40.57 52.06 41 51 L42 51 z"/>
<path style="fill:#777777" d="M51 51 L51 53 C49.67 53.22 49.67 50.78 51 51 z"/>
<path style="fill:#666767" d="M74 51 C73.81 51.95 74.59 53.94 73 54 C73.19 53.05 72.41 51.06 74 51 z"/>
<path style="fill:#2a2a2a" d="M15 52 C13.82 55.85 21.7 54.78 19 58 L16 57 L15 56 L14 55 C14.19 54.05 13.41 52.06 15 52 z"/>
<path style="fill:#0d0d0d" d="M25 52 C26.18 51.85 26.02 53.34 26 54 L25 54 L22 55 C21.59 53.31 23.31 51.59 25 52 z"/>
<path style="fill:#7d7d7d" d="M29 52 C34.24 50.33 33.17 56.54 29 54 L27 52 L29 52 z"/>
<path style="fill:#333333" d="M58 56 C56.45 55.94 53.29 56.68 54 54 C56.8 55.25 62.64 52.07 58 56 z"/>
<path style="fill:#676767" d="M25 54 C24.78 58.48 25.18 57.25 28 56 C31.27 60.39 23.27 60.36 21 58 L22 55 L25 54 z"/>
<path style="fill:#adadad" d="M26 54 L28 56 C25.18 57.25 24.78 58.48 25 54 L26 54 z"/>
<path style="fill:#151616" d="M72 54 C72.46 55.35 71.35 56.46 70 56 L69 57 L68 57 L68 55 L72 54 z"/>
<path style="fill:#747474" d="M53 57 C51.82 57.15 51.98 55.66 52 55 C53.18 54.85 53.02 56.34 53 57 z"/>
<path style="fill:#868686" d="M16 57 L15 56 L16 57 z"/>
<path style="fill:#454646" d="M63 56 C65.05 56.46 63.62 58.93 63 60 L63 61 L61 61 C60.34 61.02 58.85 61.18 59 60 C62.22 60.02 59.7 59.16 59 58 L63 56 z"/>
<path style="fill:#808080" d="M70 56 L69 57 L70 56 z"/>
<path style="fill:#595a5a" d="M54 59 L54 57 C57.62 55.8 57.62 60.2 54 59 z"/>
<path style="fill:#757575" d="M42 59 L41 58 L42 59 z"/>
<path style="fill:#b2b3b3" d="M46 58 L46 66 C44.35 64.66 44.35 59.34 46 58 z"/>
<path style="fill:#9e9e9e" d="M52 60 L50 59 C50.19 56.98 52.9 58.44 52 60 z"/>
<path style="fill:#979797" d="M22 60 L21 59 L22 60 z"/>
<path style="fill:#7a7a7a" d="M38 60 L37 59 L38 60 z"/>
<path style="fill:#8e8e8e" d="M66 59 L65 60 L66 59 z"/>
<path style="fill:#8c8c8c" d="M29 60 L28 61 L29 60 z"/>
<path style="fill:#646464" d="M36 60 C36.22 61.33 33.78 61.33 34 60 L36 60 z"/>
<path style="fill:#9c9d9d" d="M65 60 C65.15 61.18 63.66 61.02 63 61 L63 60 L65 60 z"/>
<path style="fill:#919191" d="M25 62 L24 61 L25 62 z"/>
<path style="fill:#828282" d="M32 62 L31 61 L32 62 z"/>
<path style="fill:#9f9f9f" d="M40 65 L39 61 L40 65 z"/>
<path style="fill:#aeafaf" d="M63 61 C63.22 62.33 60.78 62.33 61 61 L63 61 z"/>
<path style="fill:#898989" d="M32 66 L31 65 L32 66 z"/>
<path style="fill:#818181" d="M56 65 L55 66 L56 65 z"/>
<path style="fill:#747474" d="M33 67 L32 66 L33 67 z"/>
<path style="fill:#8b8b8b" d="M42 66 C42.43 67.06 40.57 67.06 41 66 L42 66 z"/>
<path style="fill:#9d9e9e" d="M36 70 C36.15 71.18 34.66 71.02 34 71 C33.85 69.82 35.34 69.98 36 70 z"/>
<path style="fill:#727272" d="M53 71 L52 70 L53 71 z"/>
<path style="fill:#919191" d="M34 71 L33 72 L34 71 z"/>
<path style="fill:#8e8e8e" d="M55 72 L54 71 L55 72 z"/>
<path style="fill:#888888" d="M33 72 L32 73 L33 72 z"/>
<path style="fill:#919191" d="M56 73 L55 72 L56 73 z"/>
<path style="fill:#929292" d="M32 73 L31 74 L32 73 z"/>
<path style="fill:#595959" d="M37 75 L36 74 C36.33 71.34 39.66 74.67 37 75 z"/>
<path style="fill:#5e5e5e" d="M52 74 L51 75 C48.34 74.67 51.67 71.34 52 74 z"/>
<path style="fill:#acacac" d="M36 74 L37 75 C36.33 77.11 38.58 77.21 40 77 C38 80.02 35.68 76.65 35 75 L36 74 z"/>
<path style="fill:#767676" d="M47 75 L45 77 C44.15 75.47 46.09 72.43 47 75 z"/>
<path style="fill:#aeaeae" d="M52 74 L53 75 C52.32 76.65 50 80.02 48 77 C49.42 77.21 51.67 77.11 51 75 L52 74 z"/>
<path style="fill:#b2b3b3" d="M54 77 C56.24 77.66 57.66 76.24 57 74 C60.51 75.71 55.71 80.51 54 77 z"/>
<path style="fill:#808080" d="M31 75 L30 76 L31 75 z"/>
<path style="fill:#9f9f9f" d="M35 75 L34 76 L35 75 z"/>
<path style="fill:#838383" d="M54 76 L53 75 L54 76 z"/>
<path style="fill:#6c6d6d" d="M33 77 C33.04 78.48 29.96 78.48 30 77 L33 77 z"/>
<path style="fill:#a7a8a8" d="M45 77 C45.04 78.48 41.96 78.48 42 77 L45 77 z"/>
</svg>
