<?xml version="1.0" standalone="yes"?>
<svg width="87" height="97">
<path style="fill:#fbfbfb" d="M87 0 L87 97 L0 97 L0 0 L87 0 z"/>
<path style="fill:#7a7a7a" d="M48 21 L39 21 C40.66 19.35 46.34 19.35 48 21 z"/>
<path style="fill:#9a9a9a" d="M36 21 C36.15 22.18 34.66 22.02 34 22 C33.85 20.82 35.34 20.98 36 21 z"/>
<path style="fill:#090909" d="M39 21 L48 21 L53 22 C52.85 23.18 54.34 23.02 55 23 L57 24 L58 25 L59 25 L61 27 L62 28 L63 29 L64 30 L65 31 L66 32 C65.98 32.66 65.82 34.15 67 34 C68.24 34.61 68.98 36.56 69 38 C68.98 38.66 68.82 40.15 70 40 L70 41 C69.98 41.66 69.82 43.15 71 43 L71 54 C69.82 53.85 69.98 55.34 70 56 L69 60 L68 61 L66 65 L65 66 L64 67 L62 69 L61 70 L59 72 L58 72 L57 73 L55 74 C54.34 73.98 52.85 73.82 53 75 L52 75 C51.34 74.98 49.85 74.82 50 76 L47 76 L38 76 L36 76 C36.15 74.82 34.66 74.98 34 75 L29 73 L28 72 L27 72 L26 71 L25 70 L24 69 L22 67 L21 66 L20 65 L16 56 C15.81 55.05 16.59 53.06 15 53 L15 46 L16 42 L16 40 L17 39 L17 37 L18 36 C19.18 36.15 19.02 34.66 19 34 C20.18 34.15 20.02 32.66 20 32 L21 31 L22 30 L23 29 L24 28 L25 27 L26 26 L27 25 L28 25 L29 24 C29.66 24.02 31.15 24.18 31 23 L34 22 C34.66 22.02 36.15 22.18 36 21 L39 21 z"/>
<path style="fill:#787979" d="M55 23 C54.34 23.02 52.85 23.18 53 22 C53.66 21.98 55.15 21.82 55 23 z"/>
<path style="fill:#727373" d="M31 23 C31.15 24.18 29.66 24.02 29 24 C28.85 22.82 30.34 22.98 31 23 z"/>
<path style="fill:#626262" d="M29 24 L28 25 L29 24 z"/>
<path style="fill:#5d5d5d" d="M58 25 L57 24 L58 25 z"/>
<path style="fill:#949494" d="M27 25 L26 26 L27 25 z"/>
<path style="fill:#989898" d="M61 27 L59 25 C60.35 24.54 61.46 25.65 61 27 z"/>
<path style="fill:#717171" d="M26 26 L25 27 L26 26 z"/>
<path style="fill:#666666" d="M62 28 L61 27 L62 28 z"/>
<path style="fill:#6b6b6b" d="M24 28 L23 29 L24 28 z"/>
<path style="fill:#676767" d="M63 29 L62 28 L63 29 z"/>
<path style="fill:#5c5c5c" d="M23 29 L22 30 L23 29 z"/>
<path style="fill:#686969" d="M48 30 L38 30 C39.99 28.34 46.01 28.34 48 30 z"/>
<path style="fill:#737373" d="M22 30 L21 31 L22 30 z"/>
<path style="fill:#7d7d7d" d="M37 30 C36.74 31.29 35.34 32.33 34 32 C34.26 30.71 35.66 29.67 37 30 z"/>
<path style="fill:#f9fafa" d="M38 30 L48 30 C47.85 31.18 49.34 31.02 50 31 L51 31 L52 32 L53 32 C53.26 33.29 54.66 34.33 56 34 L57 36 L58 37 L59 38 C58.98 38.66 58.82 40.15 60 40 C59.98 40.66 59.82 42.15 61 42 C60.98 42.66 60.82 44.15 62 44 C62.54 49.02 61.55 53.59 60 58 L59 59 L57 61 L55 63 L54 64 C53.34 63.98 51.85 63.82 52 65 L51 66 L50 66 C49.34 65.98 47.85 65.82 48 67 L46 67 L38 67 C38.15 65.82 36.66 65.98 36 66 C35.34 66.02 33.85 66.18 34 65 C34.15 63.82 32.66 63.98 32 64 L31 63 L30 63 C30.18 60.72 27.68 59.06 26 58 L25 54 C25.02 53.34 25.18 51.85 24 52 L24 46 C25.18 46.15 25.02 44.66 25 44 L25 42 C26.18 42.15 26.02 40.66 26 40 C27.18 40.15 27.02 38.66 27 38 L28 37 L29 36 C30.18 36.15 30.02 34.66 30 34 C30.66 34.02 32.15 34.18 32 33 C32.66 33.02 34.15 33.18 34 32 C35.34 32.33 36.74 31.29 37 30 L38 30 z"/>
<path style="fill:#9c9d9d" d="M50 31 C49.34 31.02 47.85 31.18 48 30 C48.66 29.98 50.15 29.82 50 31 z"/>
<path style="fill:#7a7a7a" d="M65 31 L64 30 L65 31 z"/>
<path style="fill:#808080" d="M21 31 L20 32 L21 31 z"/>
<path style="fill:#8f8f8f" d="M52 32 L51 31 L52 32 z"/>
<path style="fill:#8d8d8d" d="M66 32 L65 31 L66 32 z"/>
<path style="fill:#7f7f7f" d="M20 32 C20.02 32.66 20.18 34.15 19 34 C18.98 33.34 18.82 31.85 20 32 z"/>
<path style="fill:#a3a4a4" d="M34 32 C34.15 33.18 32.66 33.02 32 33 C31.85 31.82 33.34 31.98 34 32 z"/>
<path style="fill:#686969" d="M56 34 C54.66 34.33 53.26 33.29 53 32 C54.34 31.67 55.74 32.71 56 34 z"/>
<path style="fill:#6f7070" d="M67 34 C65.82 34.15 65.98 32.66 66 32 C67.18 31.85 67.02 33.34 67 34 z"/>
<path style="fill:#6a6b6b" d="M32 33 C32.15 34.18 30.66 34.02 30 34 C29.85 32.82 31.34 32.98 32 33 z"/>
<path style="fill:#5f5f5f" d="M19 34 C19.02 34.66 19.18 36.15 18 36 C17.98 35.34 17.82 33.85 19 34 z"/>
<path style="fill:#7f7f7f" d="M30 34 C30.02 34.66 30.18 36.15 29 36 C28.98 35.34 28.82 33.85 30 34 z"/>
<path style="fill:#7b7b7b" d="M18 36 L17 37 L18 36 z"/>
<path style="fill:#a6a6a6" d="M58 37 L57 36 L58 37 z"/>
<path style="fill:#888888" d="M28 37 L27 38 L28 37 z"/>
<path style="fill:#838383" d="M59 38 L58 37 L59 38 z"/>
<path style="fill:#888989" d="M27 38 C27.02 38.66 27.18 40.15 26 40 C25.98 39.34 25.82 37.85 27 38 z"/>
<path style="fill:#878888" d="M60 40 C58.82 40.15 58.98 38.66 59 38 C60.18 37.85 60.02 39.34 60 40 z"/>
<path style="fill:#717171" d="M70 40 C68.82 40.15 68.98 38.66 69 38 C70.18 37.85 70.02 39.34 70 40 z"/>
<path style="fill:#626262" d="M17 39 L16 40 L17 39 z"/>
<path style="fill:#8b8c8c" d="M26 40 C26.02 40.66 26.18 42.15 25 42 C24.98 41.34 24.82 39.85 26 40 z"/>
<path style="fill:#989898" d="M61 42 C59.82 42.15 59.98 40.66 60 40 C61.18 39.85 61.02 41.34 61 42 z"/>
<path style="fill:#909090" d="M71 43 C69.82 43.15 69.98 41.66 70 41 C71.18 40.85 71.02 42.34 71 43 z"/>
<path style="fill:#4d4d4d" d="M16 42 L15 46 L16 42 z"/>
<path style="fill:#616161" d="M62 44 C60.82 44.15 60.98 42.66 61 42 C62.18 41.85 62.02 43.34 62 44 z"/>
<path style="fill:#a7a7a7" d="M25 44 C25.02 44.66 25.18 46.15 24 46 C23.98 45.34 23.82 43.85 25 44 z"/>
<path style="fill:#707070" d="M25 54 C23.82 54.15 23.98 52.66 24 52 C25.18 51.85 25.02 53.34 25 54 z"/>
<path style="fill:#828282" d="M16 56 C14.41 55.94 15.19 53.95 15 53 C16.59 53.06 15.81 55.05 16 56 z"/>
<path style="fill:#999a9a" d="M71 54 C71.02 54.66 71.18 56.15 70 56 C69.98 55.34 69.82 53.85 71 54 z"/>
<path style="fill:#5d5d5d" d="M30 63 C28.32 61.94 25.82 60.28 26 58 C27.68 59.06 30.18 60.72 30 63 z"/>
<path style="fill:#6d6d6d" d="M60 58 L59 59 L60 58 z"/>
<path style="fill:#727272" d="M59 59 C59.46 60.35 58.35 61.46 57 61 L59 59 z"/>
<path style="fill:#999999" d="M69 60 L68 61 L69 60 z"/>
<path style="fill:#989898" d="M32 64 L31 63 L32 64 z"/>
<path style="fill:#9d9d9d" d="M55 63 L54 64 L55 63 z"/>
<path style="fill:#9fa0a0" d="M34 65 C33.34 65.02 31.85 65.18 32 64 C32.66 63.98 34.15 63.82 34 65 z"/>
<path style="fill:#a0a0a0" d="M54 64 C54.15 65.18 52.66 65.02 52 65 C51.85 63.82 53.34 63.98 54 64 z"/>
<path style="fill:#7b7b7b" d="M21 66 L20 65 L21 66 z"/>
<path style="fill:#8e8e8e" d="M52 65 L51 66 L52 65 z"/>
<path style="fill:#848484" d="M66 65 L65 66 L66 65 z"/>
<path style="fill:#747474" d="M22 67 L21 66 L22 67 z"/>
<path style="fill:#818282" d="M38 67 C37.34 67.02 35.85 67.18 36 66 C36.66 65.98 38.15 65.82 38 67 z"/>
<path style="fill:#7d7e7e" d="M50 66 C50.15 67.18 48.66 67.02 48 67 C47.85 65.82 49.34 65.98 50 66 z"/>
<path style="fill:#777777" d="M65 66 L64 67 L65 66 z"/>
<path style="fill:#646565" d="M46 67 C44.66 68.65 39.34 68.65 38 67 L46 67 z"/>
<path style="fill:#616161" d="M25 70 L24 69 L25 70 z"/>
<path style="fill:#5c5c5c" d="M62 69 L61 70 L62 69 z"/>
<path style="fill:#818181" d="M26 71 L25 70 L26 71 z"/>
<path style="fill:#9b9b9b" d="M61 70 C61.46 71.35 60.35 72.46 59 72 L61 70 z"/>
<path style="fill:#a5a5a5" d="M27 72 L26 71 L27 72 z"/>
<path style="fill:#787878" d="M29 73 L28 72 L29 73 z"/>
<path style="fill:#6a6a6a" d="M58 72 L57 73 L58 72 z"/>
<path style="fill:#969696" d="M55 74 C55.15 75.18 53.66 75.02 53 75 C52.85 73.82 54.34 73.98 55 74 z"/>
<path style="fill:#979898" d="M36 76 C35.34 76.02 33.85 76.18 34 75 C34.66 74.98 36.15 74.82 36 76 z"/>
<path style="fill:#999999" d="M52 75 C52.15 76.18 50.66 76.02 50 76 C49.85 74.82 51.34 74.98 52 75 z"/>
<path style="fill:#878888" d="M47 76 C45.34 77.65 39.66 77.65 38 76 L47 76 z"/>
</svg>
