<?xml version="1.0" standalone="yes"?>
<svg width="87" height="97">
<path style="fill:#fcfdfd" d="M87 0 L87 97 L0 97 L0 0 L87 0 z"/>
<path style="fill:#747474" d="M42 16 L41 17 L42 16 z"/>
<path style="fill:#131313" d="M47 17 L48 18 L48 19 C49.54 28.19 42.11 15.43 42.75 21.75 L40 23 L39 19 L41 17 L42 16 L47 17 z"/>
<path style="fill:#a4a4a4" d="M48 18 L47 17 L48 18 z"/>
<path style="fill:#767777" d="M37 19 L37 20 L33 20 L37 19 z"/>
<path style="fill:#c8c8c8" d="M39 19 L40 23 L40 24 L39 25 L38 27 C36.82 27.15 36.98 25.66 37 25 C38.18 25.15 38.02 23.66 38 23 C37.81 22.05 38.59 20.06 37 20 L37 19 L39 19 z"/>
<path style="fill:#b2b3b3" d="M48 19 L50 20 L49 24 L49 25 C46.37 23.39 42.83 21.83 40 24 L40 23 L42.75 21.75 C42.11 15.43 49.54 28.19 48 19 z"/>
<path style="fill:#757676" d="M54 20 L50 20 C50.19 18.45 53.81 18.45 54 20 z"/>
<path style="fill:#0c0c0c" d="M33 20 L37 20 C37.19 20.95 36.41 22.94 38 23 C38.02 23.66 38.18 25.15 37 25 C32.52 20.6 36.17 25.98 36 29 L33 29 C31.21 27.06 30.55 24.75 31 22 L32 21 L33 20 z"/>
<path style="fill:#656565" d="M38 23 C36.41 22.94 37.19 20.95 37 20 C38.59 20.06 37.81 22.05 38 23 z"/>
<path style="fill:#0f0f0f" d="M54 20 L56 22 C55.98 24.09 56.36 26.3 55 28 L53 29 C50.32 29.71 51.06 26.55 51 25 C53.77 25.8 53.13 21.71 51 24 L49 24 L50 20 L54 20 z"/>
<path style="fill:#5f5f5f" d="M32 21 L31 22 L32 21 z"/>
<path style="fill:#a2a2a2" d="M31 22 C30.55 24.75 31.21 27.06 33 29 L31 31 L29 25 L31 22 z"/>
<path style="fill:#777777" d="M57 26 C57.02 26.66 57.18 28.15 56 28 L55 28 C56.36 26.3 55.98 24.09 56 22 L57 26 z"/>
<path style="fill:#999a9a" d="M37 25 C36.98 25.66 36.82 27.15 38 27 L38 28 L37 29 L36 29 C36.17 25.98 32.52 20.6 37 25 z"/>
<path style="fill:#060606" d="M49 25 L50 30 L50 32 C48.82 31.85 48.98 33.34 49 34 L49 35 C47.82 34.85 47.98 36.34 48 37 L46 43 L42 43 L41 42 L40 41 L40 40 C40.02 39.34 40.18 37.85 39 38 L39 36 C39.02 35.34 39.18 33.85 38 34 L38 32 L38 28 L38 27 L39 25 L40 24 C42.83 21.83 46.37 23.39 49 25 z"/>
<path style="fill:#c0c1c1" d="M51 25 L51 24 C53.13 21.71 53.77 25.8 51 25 z"/>
<path style="fill:#979898" d="M28 25 L25 25 C24.96 23.52 28.04 23.52 28 25 z"/>
<path style="fill:#606060" d="M40 24 L39 25 L40 24 z"/>
<path style="fill:#606161" d="M51 24 L51 25 L49 25 L49 24 L51 24 z"/>
<path style="fill:#a7a7a7" d="M63 25 L59 25 C59.19 23.45 62.81 23.45 63 25 z"/>
<path style="fill:#121212" d="M25 25 L28 25 L29 25 L31 31 L31 32 L27 31 C27.68 27.75 25.32 27.75 26 31 L24 31 L22 29 L22 27 C22.26 25.71 23.66 24.67 25 25 z"/>
<path style="fill:#c2c2c2" d="M51 25 C51.06 26.55 50.32 29.71 53 29 C52.94 30.59 50.95 29.81 50 30 L49 25 L51 25 z"/>
<path style="fill:#131414" d="M59 25 L63 25 L65 27 L65 29 L63 31 L61 31 C63.8 27.99 58.79 26.92 60 31 L57 32 L56 28 C57.18 28.15 57.02 26.66 57 26 L59 25 z"/>
<path style="fill:#898989" d="M22 27 L22 29 C20.67 29.22 20.67 26.78 22 27 z"/>
<path style="fill:#626363" d="M66 29 L65 29 L65 27 C66.18 26.85 66.02 28.34 66 29 z"/>
<path style="fill:#e0e0e0" d="M27 31 C27.43 32.06 25.57 32.06 26 31 C25.32 27.75 27.68 27.75 27 31 z"/>
<path style="fill:#515151" d="M38 28 L38 32 C36.41 31.94 37.19 29.95 37 29 L38 28 z"/>
<path style="fill:#edeeee" d="M55 28 L56 28 L57 32 L57 34 L54 36 L53 37 L52 38 L51 39 L49 42 L48 43 L48 44 L46 45 L46 43 L48 37 C49.18 37.15 49.02 35.66 49 35 L49 34 C50.18 34.15 50.02 32.66 50 32 L50 30 C50.95 29.81 52.94 30.59 53 29 L55 28 z"/>
<path style="fill:#a7a7a7" d="M61 31 L60 31 C58.79 26.92 63.8 27.99 61 31 z"/>
<path style="fill:#b0b1b1" d="M24 31 L25 33 C23.42 33.93 20.49 34.44 21 37 L20 41 L14 40 L15 38 C19.29 41.3 19.44 35.89 18.25 33.25 C20.89 35.19 25 31.51 21 30 L22 29 L24 31 z"/>
<path style="fill:#f0f1f1" d="M33 29 L36 29 L37 29 C37.19 29.95 36.41 31.94 38 32 L38 34 C37.98 34.66 37.82 36.15 39 36 L39 38 C38.98 38.66 38.82 40.15 40 40 L40 41 L41 42 L42 43 L42 45 L41 45 L40 45 L40 44 L39 43 L38 41 L37 40 L36 39 L35 38 L34 37 L33 36 L32 35 L31 34 L31 32 L31 31 L33 29 z"/>
<path style="fill:#b8b9b9" d="M66 29 C66.95 29.19 68.94 28.41 69 30 C65.14 28.41 63.55 34.58 68 34 L69 35 C65.9 36.84 69.5 41.03 72 38 L73 40 C71.17 39.77 68.85 40.5 68 42 C68.15 43.18 66.66 43.02 66 43 C67.95 39.52 66.66 33.43 62 33 L63 31 L65 29 L66 29 z"/>
<path style="fill:#0d0d0d" d="M21 30 C25 31.51 20.89 35.19 18.25 33.25 C19.44 35.89 19.29 41.3 15 38 L15 37 L15 33 L15 32 L16 31 L21 30 z"/>
<path style="fill:#0c0d0d" d="M69 30 L70 30 L71 31 L72 32 L73 33 L72 38 C69.5 41.03 65.9 36.84 69 35 C71.66 34.67 68.33 31.34 68 34 C63.55 34.58 65.14 28.41 69 30 z"/>
<path style="fill:#8f8f8f" d="M71 31 L70 30 L71 31 z"/>
<path style="fill:#a4a4a4" d="M16 31 L15 32 L16 31 z"/>
<path style="fill:#9b9b9b" d="M26 31 C25.57 32.06 27.43 32.06 27 31 L31 32 L31 34 L25 33 L24 31 L26 31 z"/>
<path style="fill:#919191" d="M60 31 C59.57 32.06 61.43 32.06 61 31 L63 31 L62 33 L57 34 L57 32 L60 31 z"/>
<path style="fill:#fdfdfd" d="M61 31 C61.43 32.06 59.57 32.06 60 31 L61 31 z"/>
<path style="fill:#6d6d6d" d="M72 32 L71 31 L72 32 z"/>
<path style="fill:#8d8e8e" d="M50 32 C50.02 32.66 50.18 34.15 49 34 C48.98 33.34 48.82 31.85 50 32 z"/>
<path style="fill:#a6a6a6" d="M73 33 L72 32 L73 33 z"/>
<path style="fill:#676767" d="M15 33 L15 37 C13.45 36.81 13.45 33.19 15 33 z"/>
<path style="fill:#050505" d="M25 33 L31 34 L32 35 L33 36 L34 37 L35 38 L36 39 L37 40 L38 41 L39 43 L40 44 L40 45 C38.82 44.85 38.98 46.34 39 47 L32 47 L31 47 C31.15 45.82 29.66 45.98 29 46 L26 46 C26.15 44.82 24.66 44.98 24 45 L23 45 L21 41 L21 37 C20.49 34.44 23.42 33.93 25 33 z"/>
<path style="fill:#050505" d="M62 33 C66.66 33.43 67.95 39.52 66 43 L64 45 L62 45 C61.34 44.98 59.85 44.82 60 46 L58 46 C57.34 45.98 55.85 45.82 56 47 L53 47 C50.89 47.37 47.49 46.94 48 44 L48 43 L49 42 L51 39 L52 38 L53 37 L54 36 L57 34 L62 33 z"/>
<path style="fill:#6b6c6c" d="M69 35 L68 34 C68.33 31.34 71.66 34.67 69 35 z"/>
<path style="fill:#7c7c7c" d="M32 35 L31 34 L32 35 z"/>
<path style="fill:#616262" d="M39 36 C37.82 36.15 37.98 34.66 38 34 C39.18 33.85 39.02 35.34 39 36 z"/>
<path style="fill:#767676" d="M33 36 L32 35 L33 36 z"/>
<path style="fill:#656565" d="M49 35 C49.02 35.66 49.18 37.15 48 37 C47.98 36.34 47.82 34.85 49 35 z"/>
<path style="fill:#707070" d="M34 37 L33 36 L34 37 z"/>
<path style="fill:#969696" d="M54 36 L53 37 L54 36 z"/>
<path style="fill:#575757" d="M21 37 L21 41 L20 41 L21 37 z"/>
<path style="fill:#737373" d="M35 38 L34 37 L35 38 z"/>
<path style="fill:#9a9a9a" d="M53 37 L52 38 L53 37 z"/>
<path style="fill:#787878" d="M36 39 L35 38 L36 39 z"/>
<path style="fill:#747575" d="M40 40 C38.82 40.15 38.98 38.66 39 38 C40.18 37.85 40.02 39.34 40 40 z"/>
<path style="fill:#919191" d="M52 38 L51 39 L52 38 z"/>
<path style="fill:#727272" d="M37 40 L36 39 L37 40 z"/>
<path style="fill:#111212" d="M20 41 C19.74 42.29 18.34 43.33 17 43 C14.34 43.33 17.67 46.66 18 44 C19.6 43.72 21.66 44.14 22 46 L20 48 L17 48 L16 48 L15 47 L14 46 L13 45 L14 40 L20 41 z"/>
<path style="fill:#797979" d="M38 41 L37 40 L38 41 z"/>
<path style="fill:#0d0d0d" d="M73 40 L74 41 L74 45 L73 46 L72 47 L71 48 C68.92 47.87 65.63 48.79 65 46 C66.52 42.53 74.76 45.91 68 42 C68.85 40.5 71.17 39.77 73 40 z"/>
<path style="fill:#aaaaaa" d="M74 41 L73 40 L74 41 z"/>
<path style="fill:#b1b2b2" d="M21 41 L23 45 L22 46 C21.66 44.14 19.6 43.72 18 44 L17 43 C18.34 43.33 19.74 42.29 20 41 L21 41 z"/>
<path style="fill:#8e8e8e" d="M41 42 L40 41 L41 42 z"/>
<path style="fill:#595959" d="M49 42 L48 43 L49 42 z"/>
<path style="fill:#979797" d="M65 46 L64 45 L66 43 C66.66 43.02 68.15 43.18 68 42 C74.76 45.91 66.52 42.53 65 46 z"/>
<path style="fill:#5e5f5f" d="M17 43 L18 44 C17.67 46.66 14.34 43.33 17 43 z"/>
<path style="fill:#8e8e8e" d="M40 44 L39 43 L40 44 z"/>
<path style="fill:#606161" d="M46 43 L46 45 L42 45 L42 43 L46 43 z"/>
<path style="fill:#5d5e5e" d="M48 44 C47.49 46.94 50.89 47.37 53 47 L48 48 L46 45 L48 44 z"/>
<path style="fill:#8d8d8d" d="M14 46 L13 45 L14 46 z"/>
<path style="fill:#f7f8f8" d="M24 45 C23.85 46.18 25.34 46.02 26 46 L29 46 C28.85 47.18 30.34 47.02 31 47 L32 47 L39 48 L39 49 L33 50 L31 50 C30.34 49.98 28.85 49.82 29 51 L27 51 C26.34 50.98 24.85 50.82 25 52 L24 52 L22 51 L20 49 L20 48 L22 46 L23 45 L24 45 z"/>
<path style="fill:#a5a6a6" d="M26 46 C25.34 46.02 23.85 46.18 24 45 C24.66 44.98 26.15 44.82 26 46 z"/>
<path style="fill:#4b4c4c" d="M40 45 L41 45 C39.56 47.01 39.56 49.99 41 52 L39 54 L39 50 L39 49 L39 48 L39 47 C38.98 46.34 38.82 44.85 40 45 z"/>
<path style="fill:#050505" d="M42 45 L46 45 L48 48 L48 49 C47.19 52.46 43.91 53.52 41 52 C39.56 49.99 39.56 47.01 41 45 L42 45 z"/>
<path style="fill:#636464" d="M62 45 C62.15 46.18 60.66 46.02 60 46 C59.85 44.82 61.34 44.98 62 45 z"/>
<path style="fill:#606060" d="M74 45 L73 46 L74 45 z"/>
<path style="fill:#686868" d="M31 47 C30.34 47.02 28.85 47.18 29 46 C29.66 45.98 31.15 45.82 31 47 z"/>
<path style="fill:#5f5f5f" d="M58 46 C58.15 47.18 56.66 47.02 56 47 C55.85 45.82 57.34 45.98 58 46 z"/>
<path style="fill:#878787" d="M16 48 L15 47 L16 48 z"/>
<path style="fill:#878787" d="M39 47 L39 48 L32 47 L39 47 z"/>
<path style="fill:#6a6a6a" d="M72 47 L71 48 L72 47 z"/>
<path style="fill:#9fa0a0" d="M20 48 L20 49 L17 49 L17 48 L20 48 z"/>
<path style="fill:#1c1d1d" d="M17 49 L20 49 L22 51 L21 54 L19 54 C19.33 52.04 15.61 53.59 18 54 L19 55 L20 56 C18.3 57.36 16.09 56.98 14 57 L13 52 L14 51 L15 50 L17 49 z"/>
<path style="fill:#aeaeae" d="M39 49 L39 50 L33 50 L39 49 z"/>
<path style="fill:#7c7d7d" d="M53 50 C50.89 49.63 47.49 50.06 48 53 C47.34 52.98 45.85 52.82 46 54 L42 54 L41 52 C43.91 53.52 47.19 52.46 48 49 L53 50 z"/>
<path style="fill:#919191" d="M67 49 L66 50 L67 49 z"/>
<path style="fill:#101111" d="M72 50 L73 51 L74 52 L74 56 C72.17 57.68 70.15 56.71 68.25 55.75 C71.85 52.71 69.73 52.85 66 54 L66 53 L65 52 L65 51 L66 50 L67 49 L72 50 z"/>
<path style="fill:#8a8a8a" d="M15 50 L14 51 L15 50 z"/>
<path style="fill:#9a9a9a" d="M31 50 C31.15 51.18 29.66 51.02 29 51 C28.85 49.82 30.34 49.98 31 50 z"/>
<path style="fill:#070808" d="M33 50 L39 50 L39 54 L39 55 L38 56 L31 63 L30 64 L25 64 C23.15 64.33 21.67 62.46 21 61 L21 56 L21 55 L24 52 L25 52 C25.66 52.02 27.15 52.18 27 51 L29 51 C29.66 51.02 31.15 51.18 31 50 L33 50 z"/>
<path style="fill:#060606" d="M53 50 L56 50 C55.85 51.18 57.34 51.02 58 51 L59 51 C58.85 52.18 60.34 52.02 61 52 L63 52 L64 53 L65 53 L66 54 C66.59 56.54 68.01 59.57 66 62 C63.67 64.54 60.26 64.06 57 64 L56 63 L55 62 L54 61 L53 60 L52 59 L51 58 L50 57 L49 56 L48 53 C47.49 50.06 50.89 49.63 53 50 z"/>
<path style="fill:#8f8f8f" d="M58 51 C57.34 51.02 55.85 51.18 56 50 C56.66 49.98 58.15 49.82 58 51 z"/>
<path style="fill:#717171" d="M66 50 L65 51 L66 50 z"/>
<path style="fill:#6d6d6d" d="M73 51 L72 50 L73 51 z"/>
<path style="fill:#9d9d9d" d="M14 51 L13 52 L14 51 z"/>
<path style="fill:#8f8f8f" d="M24 52 L21 55 L21 54 L22 51 L24 52 z"/>
<path style="fill:#979898" d="M27 51 C27.15 52.18 25.66 52.02 25 52 C24.85 50.82 26.34 50.98 27 51 z"/>
<path style="fill:#5b5b5b" d="M61 52 C60.34 52.02 58.85 52.18 59 51 C59.66 50.98 61.15 50.82 61 52 z"/>
<path style="fill:#828282" d="M74 52 L73 51 L74 52 z"/>
<path style="fill:#f0f1f1" d="M41 52 L42 54 L40 57 C38.82 56.85 38.98 58.34 39 59 L39 61 C37.82 60.85 37.98 62.34 38 63 L38 64 L36 68 C34.4 67.72 32.34 68.14 32 70 L31 69 L31 66 L30 64 L31 63 L38 56 L39 55 L39 54 L41 52 z"/>
<path style="fill:#5d5d5d" d="M64 53 L63 52 L64 53 z"/>
<path style="fill:#646464" d="M66 53 L65 53 L65 52 L66 53 z"/>
<path style="fill:#cccdcd" d="M19 54 L18 54 C15.61 53.59 19.33 52.04 19 54 z"/>
<path style="fill:#f2f2f2" d="M48 53 L49 56 L50 57 L51 58 L52 59 L53 60 L54 61 L55 62 L56 63 L57 64 L57 65 C55.82 64.85 55.98 66.34 56 67 L56 69 L55 69 L51 68 L50 68 L50 65 C50.02 64.34 50.18 62.85 49 63 L49 62 C49.02 61.34 49.18 59.85 48 60 L48 59 C48.02 58.34 48.18 56.85 47 57 L47 56 L46 55 L46 54 C45.85 52.82 47.34 52.98 48 53 z"/>
<path style="fill:#bdbdbd" d="M66 53 L66 54 L65 53 L66 53 z"/>
<path style="fill:#b5b5b5" d="M74 56 C74.67 58.11 72.42 58.21 71 58 C64.39 56.38 72.18 66.37 66 63 L66 62 C68.01 59.57 66.59 56.54 66 54 C69.73 52.85 71.85 52.71 68.25 55.75 C70.15 56.71 72.17 57.68 74 56 z"/>
<path style="fill:#797979" d="M19 54 L19 55 L18 54 L19 54 z"/>
<path style="fill:#dbdbdb" d="M21 54 L21 55 L21 56 L20 56 L19 55 L19 54 L21 54 z"/>
<path style="fill:#050606" d="M42 54 L46 54 L46 55 L47 56 L47 57 C46.98 57.66 46.82 59.15 48 59 L48 60 C47.98 60.66 47.82 62.15 49 62 L49 63 C48.98 63.66 48.82 65.15 50 65 L50 68 C50.35 74.25 40.45 76.77 38 71 L38 64 L38 63 C39.18 63.15 39.02 61.66 39 61 L39 59 C40.18 59.15 40.02 57.66 40 57 L42 54 z"/>
<path style="fill:#838383" d="M39 55 L38 56 L39 55 z"/>
<path style="fill:#737373" d="M47 56 L46 55 L47 56 z"/>
<path style="fill:#bbbcbc" d="M20 56 L19 60 C19.67 57.89 17.42 57.79 16 58 C15.34 58.02 13.85 58.18 14 57 C16.09 56.98 18.3 57.36 20 56 z"/>
<path style="fill:#6d6d6d" d="M21 56 L21 61 L19 62 L19 60 L20 56 L21 56 z"/>
<path style="fill:#7f7f7f" d="M50 57 L49 56 L50 57 z"/>
<path style="fill:#828383" d="M40 57 C40.02 57.66 40.18 59.15 39 59 C38.98 58.34 38.82 56.85 40 57 z"/>
<path style="fill:#595a5a" d="M48 59 C46.82 59.15 46.98 57.66 47 57 C48.18 56.85 48.02 58.34 48 59 z"/>
<path style="fill:#737373" d="M51 58 L50 57 L51 58 z"/>
<path style="fill:#111212" d="M19 60 L19 62 C18 61.83 17.75 63.17 18.25 63.75 C22.9 61.16 24.09 69.25 18 67 L17 67 L16 66 L15 65 L14 61 L15 60 L16 58 C17.42 57.79 19.67 57.89 19 60 z"/>
<path style="fill:#808080" d="M52 59 L51 58 L52 59 z"/>
<path style="fill:#171818" d="M71 58 C73.73 60.39 74.02 65.64 70 67 C66.9 67.52 62.23 65.92 66 63 C72.18 66.37 64.39 56.38 71 58 z"/>
<path style="fill:#6e6e6e" d="M53 60 L52 59 L53 60 z"/>
<path style="fill:#a7a7a7" d="M15 60 L14 61 L15 60 z"/>
<path style="fill:#777777" d="M49 62 C47.82 62.15 47.98 60.66 48 60 C49.18 59.85 49.02 61.34 49 62 z"/>
<path style="fill:#686868" d="M54 61 L53 60 L54 61 z"/>
<path style="fill:#b9baba" d="M21 61 C21.67 62.46 23.15 64.33 25 64 L28 66 C26.49 67.47 26.4 70.51 25.75 66.25 C23.92 65.61 21.74 68.2 22 70 L18 67 C24.09 69.25 22.9 61.16 18.25 63.75 C17.75 63.17 18 61.83 19 62 L21 61 z"/>
<path style="fill:#6a6b6b" d="M39 61 C39.02 61.66 39.18 63.15 38 63 C37.98 62.34 37.82 60.85 39 61 z"/>
<path style="fill:#797979" d="M55 62 L54 61 L55 62 z"/>
<path style="fill:#7f7f7f" d="M56 63 L55 62 L56 63 z"/>
<path style="fill:#9e9f9f" d="M66 62 L66 63 C62.23 65.92 66.9 67.52 70 67 L65 70 C64.73 66.28 61.66 65.49 61 69 L57 65 L57 64 C60.26 64.06 63.67 64.54 66 62 z"/>
<path style="fill:#878787" d="M31 63 L30 64 L31 63 z"/>
<path style="fill:#9a9a9a" d="M50 65 C48.82 65.15 48.98 63.66 49 63 C50.18 62.85 50.02 64.34 50 65 z"/>
<path style="fill:#767676" d="M30 64 L31 66 L28 66 L25 64 L30 64 z"/>
<path style="fill:#838383" d="M38 64 L38 71 L36 72 L36 68 L38 64 z"/>
<path style="fill:#858585" d="M16 66 L15 65 L16 66 z"/>
<path style="fill:#595959" d="M57 65 C57.02 65.66 57.18 67.15 56 67 C55.98 66.34 55.82 64.85 57 65 z"/>
<path style="fill:#0a0b0b" d="M65 70 L65 71 L64 72 L63 72 L59 72 L58 72 L56 69 L56 67 C57.18 67.15 57.02 65.66 57 65 L61 69 C61.66 65.49 64.73 66.28 65 70 z"/>
<path style="fill:#7f7f7f" d="M17 67 L16 66 L17 67 z"/>
<path style="fill:#0e0f0f" d="M28 66 L31 66 L31 69 L29 72 L28 72 L24 72 L22 70 C21.74 68.2 23.92 65.61 25.75 66.25 C26.4 70.51 26.49 67.47 28 66 z"/>
<path style="fill:#151515" d="M36 68 L36 72 C31.93 74.9 40.93 71.77 37 78 C34.5 78.54 31.86 77.49 31 75 L32 70 C32.34 68.14 34.4 67.72 36 68 z"/>
<path style="fill:#aeafaf" d="M51 68 C50.38 70.35 51.61 72.12 52.75 73.75 C49.18 72.76 49.25 73.29 50 77 L48 78 C49.48 73.97 43.73 74.33 43.75 77.75 C43.19 76.58 38.67 73.01 39 77 L37 78 C40.93 71.77 31.93 74.9 36 72 L38 71 C40.45 76.77 50.35 74.25 50 68 L51 68 z"/>
<path style="fill:#141515" d="M55 69 C56.36 70.7 55.98 72.91 56 75 L56 76 L55 77 C53.72 77.85 50.7 79.04 50 77 C49.25 73.29 49.18 72.76 52.75 73.75 C51.61 72.12 50.38 70.35 51 68 L55 69 z"/>
<path style="fill:#7e7f7f" d="M31 69 L32 70 L31 75 L29 72 L31 69 z"/>
<path style="fill:#808181" d="M56 69 L58 72 L56 75 C55.98 72.91 56.36 70.7 55 69 L56 69 z"/>
<path style="fill:#989898" d="M65 71 L64 72 L65 71 z"/>
<path style="fill:#666666" d="M28 72 C27.81 73.55 24.19 73.55 24 72 L28 72 z"/>
<path style="fill:#6e6e6e" d="M63 72 C62.81 73.55 59.19 73.55 59 72 L63 72 z"/>
<path style="fill:#0f1010" d="M48 78 L48 79 L47 80 L46 81 C43.91 80.98 41.7 81.36 40 80 L39 79 L39 77 C38.67 73.01 43.19 76.58 43.75 77.75 C43.73 74.33 49.48 73.97 48 78 z"/>
<path style="fill:#a8a8a8" d="M56 76 L55 77 L56 76 z"/>
<path style="fill:#a3a3a3" d="M40 80 L39 79 L40 80 z"/>
<path style="fill:#777777" d="M48 79 L47 80 L48 79 z"/>
<path style="fill:#8a8a8a" d="M47 80 L46 81 L47 80 z"/>
</svg>
