<?xml version="1.0" standalone="yes"?>
<svg width="87" height="97">
<path style="fill:#fcfdfd" d="M87 0 L87 97 L0 97 L0 0 L87 0 z"/>
<path style="fill:#bebebe" d="M48 16 L38 16 C39.99 14.34 46.01 14.34 48 16 z"/>
<path style="fill:#868686" d="M37 16 C37.15 17.18 35.66 17.02 35 17 C34.85 15.82 36.34 15.98 37 16 z"/>
<path style="fill:#0a0a0a" d="M38 16 L48 16 L53 17 C52.85 18.18 54.34 18.02 55 18 L60 20 L61 21 L62 21 L63 22 L64 23 L65 24 L68 27 L69 28 L70 29 L70 30 L71 31 L72 32 L72 33 L73 34 L73 35 C72.98 35.66 72.82 37.15 74 37 L74 38 C73.98 38.66 73.82 40.15 75 40 L75 42 L75 55 L75 56 C73.82 55.85 73.98 57.34 74 58 L74 59 C72.82 58.85 72.98 60.34 73 61 L73 62 L72 63 L72 64 L71 65 L70 67 L69 68 L68 69 L64 73 L63 74 L62 75 L61 75 L60 76 L59 77 C58.34 76.98 56.85 76.82 57 78 L56 78 C55.34 77.98 53.85 77.82 54 79 L53 79 C52.34 78.98 50.85 78.82 51 80 L48 80 L38 80 L37 80 C37.15 78.82 35.66 78.98 35 79 L34 79 C34.15 77.82 32.66 77.98 32 78 L31 78 C31.15 76.82 29.66 76.98 29 77 L27 76 L26 75 L24 74 L23 73 L22 72 L21 71 L20 70 L19 69 L18 68 L17 67 L17 66 L16 65 L14 61 C14.02 60.34 14.18 58.85 13 59 L13 58 C13.02 57.34 13.18 55.85 12 56 L12 55 L12 43 L12 40 C13.18 40.15 13.02 38.66 13 38 L13 37 C14.18 37.15 14.02 35.66 14 35 L14 34 L15 33 L16 31 L17 30 L17 29 L18 28 L19 27 L20 26 L21 25 L22 24 L23 23 L24 22 L26 21 L27 20 L28 20 L29 19 L32 18 C32.66 18.02 34.15 18.18 34 17 L35 17 C35.66 17.02 37.15 17.18 37 16 L38 16 z"/>
<path style="fill:#6c6d6d" d="M34 17 C34.15 18.18 32.66 18.02 32 18 C31.85 16.82 33.34 16.98 34 17 z"/>
<path style="fill:#686969" d="M55 18 C54.34 18.02 52.85 18.18 53 17 C53.66 16.98 55.15 16.82 55 18 z"/>
<path style="fill:#666666" d="M29 19 L28 20 L29 19 z"/>
<path style="fill:#8e8e8e" d="M27 20 L26 21 L27 20 z"/>
<path style="fill:#7e7e7e" d="M61 21 L60 20 L61 21 z"/>
<path style="fill:#666666" d="M39 22 L36 22 C35.96 20.52 39.04 20.52 39 22 z"/>
<path style="fill:#9f9f9f" d="M50 22 C46.38 20.8 46.38 25.2 50 24 C49.81 25.55 46.19 25.55 46 24 C44.54 21.12 49.02 19.66 50 22 z"/>
<path style="fill:#a9a9a9" d="M63 22 L62 21 L63 22 z"/>
<path style="fill:#9e9e9e" d="M24 22 L23 23 L24 22 z"/>
<path style="fill:#d9dada" d="M36 22 L39 22 L40 23 L36 24 L32 25 L30 25 C31.28 23.48 33.88 22.29 36 22 z"/>
<path style="fill:#f7f8f8" d="M50 22 L52 22 C51.85 23.18 53.34 23.02 54 23 L54 24 L50 24 C46.38 25.2 46.38 20.8 50 22 z"/>
<path style="fill:#747474" d="M54 23 C53.34 23.02 51.85 23.18 52 22 C52.66 21.98 54.15 21.82 54 23 z"/>
<path style="fill:#7f7f7f" d="M64 23 L63 22 L64 23 z"/>
<path style="fill:#848484" d="M23 23 L22 24 L23 23 z"/>
<path style="fill:#999999" d="M42 25 L36 24 L40 23 L42 25 z"/>
<path style="fill:#a3a3a3" d="M59 26 L58 27 L56 26 L54 24 L54 23 C56.01 22.94 57.76 24.94 59 26 z"/>
<path style="fill:#676767" d="M65 24 L64 23 L65 24 z"/>
<path style="fill:#727272" d="M22 24 L21 25 L22 24 z"/>
<path style="fill:#2d2d2d" d="M36 24 L42 25 L46 24 C46.19 25.55 49.81 25.55 50 24 L54 24 L56 26 L51 26 C46.99 25.68 44.9 26.03 46 28 C43.11 25.56 40.17 30.18 43 32 L42 34 L41 34 C40.81 33.05 41.59 31.06 40 31 L40 30 C43.37 24.89 33.99 26.86 32 25 L36 24 z"/>
<path style="fill:#747474" d="M21 25 L20 26 L21 25 z"/>
<path style="fill:#cdcece" d="M30 25 L28 28 L26 31 C26.02 30.34 26.18 28.85 25 29 C26.06 27.32 27.72 24.82 30 25 z"/>
<path style="fill:#595a5a" d="M32 25 C33.99 26.86 43.37 24.89 40 30 L34 32 L34 30 C41.67 26.29 33.02 27.42 29 29 L28 28 L30 25 L32 25 z"/>
<path style="fill:#787878" d="M20 26 L19 27 L20 26 z"/>
<path style="fill:#505050" d="M51 26 L51 27 C46.08 28.03 56.91 32.33 58 29 L59 28 C60.59 28.06 59.81 30.05 60 31 L54.25 31.25 L57 36 L47 30 C43.19 30.73 47.95 37.25 49 40 L46.25 38.25 C45.67 40.19 45.84 42.38 47 44 L46 47 L42 47 L36 42 L38 40 L41 34 L42 34 L42 37 L41.25 40.25 L43 40 C44.3 54.53 46.08 23.08 43 32 C40.17 30.18 43.11 25.56 46 28 C44.9 26.03 46.99 25.68 51 26 z"/>
<path style="fill:#646565" d="M56 26 L58 27 L59 28 L58 29 L51 27 L51 26 L56 26 z"/>
<path style="fill:#eaebeb" d="M59 26 L61 27 L62 28 L63 29 L64 30 L66 33 L67 34 L67 35 L68 36 L69 39 C68.98 39.66 68.82 41.15 70 41 L70 45 C68.86 49.86 69.87 41.78 67 42 C66.66 40.14 64.6 39.72 63 40 C63.04 38.52 59.96 38.52 60 40 C59.34 40.02 57.85 40.18 58 39 L59 38 L60 37 L60 36 C61.18 36.15 61.02 34.66 61 34 C60.81 33.05 61.59 31.06 60 31 C59.81 30.05 60.59 28.06 59 28 L58 27 L59 26 z"/>
<path style="fill:#848484" d="M19 27 L18 28 L19 27 z"/>
<path style="fill:#0a0b0b" d="M34 30 L29 29 C33.02 27.42 41.67 26.29 34 30 z"/>
<path style="fill:#101111" d="M51 27 L58 29 C56.91 32.33 46.08 28.03 51 27 z"/>
<path style="fill:#686868" d="M62 28 L61 27 L62 28 z"/>
<path style="fill:#737373" d="M69 28 L68 27 L69 28 z"/>
<path style="fill:#aaaaaa" d="M18 28 L17 29 L18 28 z"/>
<path style="fill:#353636" d="M28 28 L29 29 L34 30 L34 32 L32 34 C28.64 34.63 29.32 32.97 30.75 31.25 L26 33 L26 31 L28 28 z"/>
<path style="fill:#656565" d="M63 29 L62 28 L63 29 z"/>
<path style="fill:#939393" d="M70 29 L69 28 L70 29 z"/>
<path style="fill:#efefef" d="M25 29 C26.18 28.85 26.02 30.34 26 31 L26 33 L29 39 L29 40 L21 41 L19 43 C17.41 42.94 18.19 40.95 18 40 L18 39 C19.18 39.15 19.02 37.66 19 37 L19 36 L20 35 L21 33 L22 32 L25 29 z"/>
<path style="fill:#0d0e0e" d="M40 30 C37.42 32.69 35.03 35.94 31 37 L31 36 L32 34 L34 32 L40 30 z"/>
<path style="fill:#080808" d="M43 40 C42.81 39.05 43.59 37.06 42 37 L42 34 L43 32 C46.08 23.08 44.3 54.53 43 40 z"/>
<path style="fill:#0e0e0e" d="M57 36 C57.15 37.18 55.66 37.02 55 37 L47 30 L57 36 z"/>
<path style="fill:#737373" d="M64 30 L63 29 L64 30 z"/>
<path style="fill:#808080" d="M17 30 L16 31 L17 30 z"/>
<path style="fill:#565656" d="M40 30 L40 31 C38.58 33.88 37.02 36.71 37 40 C32.24 40.69 36.06 38.39 35.75 36.25 C34.1 36.8 32 40.75 31 37 C35.03 35.94 37.42 32.69 40 30 z"/>
<path style="fill:#0f1010" d="M47 30 L51 40 L49 40 C47.95 37.25 43.19 30.73 47 30 z"/>
<path style="fill:#545454" d="M55 37 L51.25 36.25 L51 40 L47 30 L55 37 z"/>
<path style="fill:#606060" d="M71 31 L70 30 L71 31 z"/>
<path style="fill:#505050" d="M32 34 L31 36 C29.41 36.06 30.19 38.05 30 39 L29 39 L26 33 L30.75 31.25 C29.32 32.97 28.64 34.63 32 34 z"/>
<path style="fill:#0a0a0a" d="M41 34 L38 40 L37 40 C37.02 36.71 38.58 33.88 40 31 C41.59 31.06 40.81 33.05 41 34 z"/>
<path style="fill:#292a2a" d="M60 31 C61.59 31.06 60.81 33.05 61 34 C59.82 33.85 59.98 35.34 60 36 L60 37 L59 38 L58 39 L51 43 L47 44 C45.84 42.38 45.67 40.19 46.25 38.25 L49 40 L51 40 L51.25 36.25 L55 37 C55.66 37.02 57.15 37.18 57 36 L54.25 31.25 L60 31 z"/>
<path style="fill:#a1a1a1" d="M72 32 L71 31 L72 32 z"/>
<path style="fill:#8c8c8c" d="M22 32 L21 33 L22 32 z"/>
<path style="fill:#989898" d="M15 33 L14 34 L15 33 z"/>
<path style="fill:#737373" d="M67 34 L66 33 L67 34 z"/>
<path style="fill:#7e7e7e" d="M73 34 L72 33 L73 34 z"/>
<path style="fill:#939393" d="M61 34 C61.02 34.66 61.18 36.15 60 36 C59.98 35.34 59.82 33.85 61 34 z"/>
<path style="fill:#8c8d8d" d="M14 35 C14.02 35.66 14.18 37.15 13 37 C12.98 36.34 12.82 34.85 14 35 z"/>
<path style="fill:#636363" d="M20 35 L19 36 L20 35 z"/>
<path style="fill:#878787" d="M68 36 L67 35 L68 36 z"/>
<path style="fill:#717272" d="M74 37 C72.82 37.15 72.98 35.66 73 35 C74.18 34.85 74.02 36.34 74 37 z"/>
<path style="fill:#232424" d="M31 36 L31 37 C32 40.75 34.1 36.8 35.75 36.25 C36.06 38.39 32.24 40.69 37 40 L38 40 L36 42 L30 39 C30.19 38.05 29.41 36.06 31 36 z"/>
<path style="fill:#949595" d="M19 37 C19.02 37.66 19.18 39.15 18 39 C17.98 38.34 17.82 36.85 19 37 z"/>
<path style="fill:#212121" d="M42 37 C43.59 37.06 42.81 39.05 43 40 L41.25 40.25 L42 37 z"/>
<path style="fill:#8c8c8c" d="M60 37 L59 38 L60 37 z"/>
<path style="fill:#8b8b8b" d="M13 38 C13.02 38.66 13.18 40.15 12 40 C11.98 39.34 11.82 37.85 13 38 z"/>
<path style="fill:#6c6d6d" d="M75 40 C73.82 40.15 73.98 38.66 74 38 C75.18 37.85 75.02 39.34 75 40 z"/>
<path style="fill:#a1a2a2" d="M30 39 L36 42 L42 47 L42 48 L29 41 L29 40 L29 39 L30 39 z"/>
<path style="fill:#8e8f8f" d="M58 39 C57.85 40.18 59.34 40.02 60 40 L60 41 L57 41 L55 43 L53 43 L51 43 L58 39 z"/>
<path style="fill:#969797" d="M63 40 L61 40 L60 40 C59.96 38.52 63.04 38.52 63 40 z"/>
<path style="fill:#7b7b7b" d="M70 41 C68.82 41.15 68.98 39.66 69 39 C70.18 38.85 70.02 40.34 70 41 z"/>
<path style="fill:#c0c0c0" d="M18 40 C18.19 40.95 17.41 42.94 19 43 L19 44 C17.52 46.75 17.05 49.5 17 44 L18 40 z"/>
<path style="fill:#535353" d="M29 40 L29 41 L27 43 C25.39 46.25 24.35 49.96 25.25 53.75 C27.9 51.33 28.38 46.83 28 43 C31.7 42.5 28.9 46.23 29.25 47.75 L33 46 C31.17 48.51 27.56 51.5 27.25 54.75 C30.91 53.98 32.28 49.93 34 47 L35 48 L34.25 49.25 C33.21 53.34 38.73 45.84 38 51 C33.92 52.11 29.48 54.43 27 58 C24.45 61.13 26.42 52.65 22 56 C21.34 56.02 19.85 56.18 20 55 C22.28 54.57 18.56 48.08 18 50 C16.82 49.85 16.98 51.34 17 52 C15.35 50.66 15.35 45.34 17 44 C17.05 49.5 17.52 46.75 19 44 L21 48 L22.75 53.75 L22 46 L21.25 44.25 L22.75 44.25 C24.29 51.04 26.63 39.65 21 41 L29 40 z"/>
<path style="fill:#4c4d4d" d="M61 40 L63.75 46.75 C63.8 44.76 64.15 39.93 66 44 C65.29 46.27 61.9 56.45 66 52 L67 52 C66.68 52.9 64.98 54.73 67 55 L66 58 C64.42 59.15 63.41 60.55 64 63 L61 65 L59 65 C59.36 61.34 56.32 64.13 55 65 L54 64 C56.92 62.44 59.67 60.08 56 57 C58.52 57.22 61.31 58.43 59 55 C59.66 55.02 61.15 55.18 61 54 C64.84 53.14 61.33 45.38 60 43 L60 41 L60 40 L61 40 z"/>
<path style="fill:#272727" d="M63 40 C64.6 39.72 66.66 40.14 67 42 L67 44 L66 44 C64.15 39.93 63.8 44.76 63.75 46.75 L61 40 L63 40 z"/>
<path style="fill:#959595" d="M21 41 C21.46 42.35 20.35 43.46 19 43 L21 41 z"/>
<path style="fill:#222323" d="M22 46 C20.82 45.85 20.98 47.34 21 48 L19 44 L19 43 C20.35 43.46 21.46 42.35 21 41 C26.63 39.65 24.29 51.04 22.75 44.25 L21.25 44.25 L22 46 z"/>
<path style="fill:#282929" d="M29 41 L42 48 L43 53 C42.12 54.58 42.1 57.78 43 60 L38 59 L40 57 C40.15 55.82 38.66 55.98 38 56 C32.83 56.05 42.03 53.41 39 52 L38 51 C38.73 45.84 33.21 53.34 34.25 49.25 L35 48 L34 47 L33 46 L29.25 47.75 C28.9 46.23 31.7 42.5 28 43 L27 43 L29 41 z"/>
<path style="fill:#5a5a5a" d="M57 41 L58.75 45.75 C57.03 44.32 55.37 43.64 56 47 L55 46 L55 43 L57 41 z"/>
<path style="fill:#222222" d="M60 41 L60 43 L60 48 C59.05 48.19 57.06 47.41 57 49 C55.82 49.15 55.98 47.66 56 47 C55.37 43.64 57.03 44.32 58.75 45.75 L57 41 L60 41 z"/>
<path style="fill:#676868" d="M70 45 C71.65 46.34 71.65 51.66 70 53 C70.02 52.34 70.18 50.85 69 51 C69.16 47.51 67.49 50.59 67 52 L66 52 L67 44 L67 42 C69.87 41.78 68.86 49.86 70 45 z"/>
<path style="fill:#6f7070" d="M75 55 L75 42 C76.66 44.97 76.66 52.03 75 55 z"/>
<path style="fill:#7f7f7f" d="M12 43 L12 55 C10.34 52.36 10.34 45.64 12 43 z"/>
<path style="fill:#080909" d="M28 43 C28.38 46.83 27.9 51.33 25.25 53.75 C24.35 49.96 25.39 46.25 27 43 L28 43 z"/>
<path style="fill:#aaaaaa" d="M51 43 L53 43 C51.22 44.58 48.73 46.84 46 47 L47 44 L51 43 z"/>
<path style="fill:#484848" d="M55 43 L55 46 C50.64 44.71 57.56 52.78 59 55 L47.25 50.25 L56 57 C46.87 51.55 43.1 58.35 54.75 60.25 L47.25 64.75 L51 65 C48.31 68.01 49.92 68.1 53 67 C52.51 68.32 49.61 70.37 53 70 L54 71 L54 72 C49.25 72.07 44.82 69.06 44 65 L44 54 L46 47 C48.73 46.84 51.22 44.58 53 43 L55 43 z"/>
<path style="fill:#0a0b0b" d="M61 54 L60 48 L60 43 C61.33 45.38 64.84 53.14 61 54 z"/>
<path style="fill:#0b0b0b" d="M67 44 L66 52 C61.9 56.45 65.29 46.27 66 44 L67 44 z"/>
<path style="fill:#0e0e0e" d="M55 46 L56 47 C55.98 47.66 55.82 49.15 57 49 L61 54 C61.15 55.18 59.66 55.02 59 55 C57.56 52.78 50.64 44.71 55 46 z"/>
<path style="fill:#040505" d="M22 46 L22.75 53.75 L21 48 C20.98 47.34 20.82 45.85 22 46 z"/>
<path style="fill:#121313" d="M33 46 L34 47 C32.28 49.93 30.91 53.98 27.25 54.75 C27.56 51.5 31.17 48.51 33 46 z"/>
<path style="fill:#bdbdbd" d="M46 47 L44 54 L43 53 L42 48 L42 47 L46 47 z"/>
<path style="fill:#595a5a" d="M60 48 L61 54 L57 49 C57.06 47.41 59.05 48.19 60 48 z"/>
<path style="fill:#131313" d="M20 55 L18 50 C18.56 48.08 22.28 54.57 20 55 z"/>
<path style="fill:#1d1e1e" d="M69 51 L67 55 C64.98 54.73 66.68 52.9 67 52 C67.49 50.59 69.16 47.51 69 51 z"/>
<path style="fill:#d2d3d3" d="M18 50 L20 55 C19.85 56.18 21.34 56.02 22 56 L20 59 C17.43 57.89 16.74 54.6 17 52 C16.98 51.34 16.82 49.85 18 50 z"/>
<path style="fill:#090a0a" d="M59 55 C61.31 58.43 58.52 57.22 56 57 L47.25 50.25 L59 55 z"/>
<path style="fill:#090909" d="M38 51 L39 52 L28 58 L27 58 C29.48 54.43 33.92 52.11 38 51 z"/>
<path style="fill:#d4d4d4" d="M70 53 C70.62 55.39 68.46 58.19 66 58 L67 55 L69 51 C70.18 50.85 70.02 52.34 70 53 z"/>
<path style="fill:#5a5a5a" d="M39 52 C42.03 53.41 32.83 56.05 38 56 C38.66 55.98 40.15 55.82 40 57 L31 58 C25.51 59.68 43.02 63.67 39.75 60.25 L37 59 L38 59 L43 60 L43 63 L40 64 C36.37 62.86 33.17 60.29 29 61 C27.41 60.94 28.19 58.95 28 58 L39 52 z"/>
<path style="fill:#a6a6a6" d="M43 53 L44 54 L44 65 L43 65 L43 63 L43 60 C42.1 57.78 42.12 54.58 43 53 z"/>
<path style="fill:#121313" d="M56 57 C59.67 60.08 56.92 62.44 54 64 C53.05 64.19 51.06 63.41 51 65 L47.25 64.75 L54.75 60.25 C43.1 58.35 46.87 51.55 56 57 z"/>
<path style="fill:#393939" d="M27 58 L28 58 C28.19 58.95 27.41 60.94 29 61 L31 63 L30 63 C26.94 62.5 29.29 64.49 29 66 C29.13 67.62 31.08 71.07 28 69 L24 62 C24.49 59.69 21.92 58.48 20 59 L22 56 C26.42 52.65 24.45 61.13 27 58 z"/>
<path style="fill:#848585" d="M13 58 C11.82 58.15 11.98 56.66 12 56 C13.18 55.85 13.02 57.34 13 58 z"/>
<path style="fill:#6b6c6c" d="M75 56 C75.02 56.66 75.18 58.15 74 58 C73.98 57.34 73.82 55.85 75 56 z"/>
<path style="fill:#090909" d="M40 57 L38 59 L37 59 L31 58 L40 57 z"/>
<path style="fill:#262626" d="M31 58 L37 59 L39.75 60.25 C43.02 63.67 25.51 59.68 31 58 z"/>
<path style="fill:#818282" d="M14 61 C12.82 61.15 12.98 59.66 13 59 C14.18 58.85 14.02 60.34 14 61 z"/>
<path style="fill:#616262" d="M74 59 C74.02 59.66 74.18 61.15 73 61 C72.98 60.34 72.82 58.85 74 59 z"/>
<path style="fill:#141515" d="M47 60 L49 60 C54.48 60.04 43.49 64.31 47 60 z"/>
<path style="fill:#070808" d="M40 64 L39 65 L31 63 L29 61 C33.17 60.29 36.37 62.86 40 64 z"/>
<path style="fill:#777878" d="M24 62 L24 67 C22.4 66.55 22.4 62.45 24 62 z"/>
<path style="fill:#dfe0e0" d="M28 69 L28 70 L26 69 L25 68 L24 67 L24 62 L28 69 z"/>
<path style="fill:#787878" d="M73 62 L72 63 L73 62 z"/>
<path style="fill:#121313" d="M30 63 L34 70 L29 66 C29.29 64.49 26.94 62.5 30 63 z"/>
<path style="fill:#515151" d="M31 63 L39 65 L35.25 66.25 C35.73 68.03 38.31 68.82 40 69 C40.47 72.51 36.3 72.14 34 72 L34 70 L30 63 L31 63 z"/>
<path style="fill:#292929" d="M43 63 L43 65 C41.41 65.06 42.19 67.05 42 68 C42.15 69.18 40.66 69.02 40 69 C38.31 68.82 35.73 68.03 35.25 66.25 L39 65 L40 64 L43 63 z"/>
<path style="fill:#171818" d="M59 65 L53 70 C49.61 70.37 52.51 68.32 53 67 L55 65 C56.32 64.13 59.36 61.34 59 65 z"/>
<path style="fill:#ececec" d="M64 63 C65.18 62.85 65.02 64.34 65 65 L64 66 L63 67 L62 68 L61 69 L60 69 L60 68 L61 65 L64 63 z"/>
<path style="fill:#2f2f2f" d="M54 64 L55 65 L53 67 C49.92 68.1 48.31 68.01 51 65 C51.06 63.41 53.05 64.19 54 64 z"/>
<path style="fill:#181919" d="M61 65 L60 68 L57 70 L59 65 L61 65 z"/>
<path style="fill:#939393" d="M72 64 L71 65 L72 64 z"/>
<path style="fill:#6a6a6a" d="M17 66 L16 65 L17 66 z"/>
<path style="fill:#8b8c8c" d="M43 65 C42.81 65.95 43.59 67.94 42 68 C42.19 67.05 41.41 65.06 43 65 z"/>
<path style="fill:#eaebeb" d="M44 65 C44.82 69.06 49.25 72.07 54 72 L54 73 L53 74 L50 74 C49.34 73.98 47.85 73.82 48 75 L39 75 L38 75 C38.15 73.82 36.66 73.98 36 74 L35 74 C35.15 72.82 33.66 72.98 33 73 L32 73 L31 72 C31.27 69.98 33.1 71.68 34 72 C36.3 72.14 40.47 72.51 40 69 C40.66 69.02 42.15 69.18 42 68 C43.59 67.94 42.81 65.95 43 65 L44 65 z"/>
<path style="fill:#646565" d="M59 65 L57 70 C56.94 71.59 54.95 70.81 54 71 L53 70 L59 65 z"/>
<path style="fill:#636363" d="M65 65 L64 66 L65 65 z"/>
<path style="fill:#6c6d6d" d="M34 70 L34 72 C33.1 71.68 31.27 69.98 31 72 C29.66 72.33 28.26 71.29 28 70 L28 69 C31.08 71.07 29.13 67.62 29 66 L34 70 z"/>
<path style="fill:#7f7f7f" d="M64 66 L63 67 L64 66 z"/>
<path style="fill:#949494" d="M18 68 L17 67 L18 68 z"/>
<path style="fill:#626262" d="M25 68 L24 67 L25 68 z"/>
<path style="fill:#767676" d="M63 67 L62 68 L63 67 z"/>
<path style="fill:#7f7f7f" d="M70 67 L69 68 L70 67 z"/>
<path style="fill:#7b7b7b" d="M19 69 L18 68 L19 69 z"/>
<path style="fill:#606060" d="M26 69 L25 68 L26 69 z"/>
<path style="fill:#aeaeae" d="M60 68 L60 69 C59.23 71.2 56.88 72.09 55 73 L54 73 L54 72 L54 71 C54.95 70.81 56.94 71.59 57 70 L60 68 z"/>
<path style="fill:#717171" d="M62 68 L61 69 L62 68 z"/>
<path style="fill:#5d5d5d" d="M69 68 L68 69 L69 68 z"/>
<path style="fill:#676767" d="M20 70 L19 69 L20 70 z"/>
<path style="fill:#666666" d="M21 71 L20 70 L21 71 z"/>
<path style="fill:#757575" d="M23 73 L22 72 L23 73 z"/>
<path style="fill:#6b6b6b" d="M32 73 L31 72 L32 73 z"/>
<path style="fill:#8d8d8d" d="M24 74 L23 73 L24 74 z"/>
<path style="fill:#989999" d="M35 74 C34.34 74.02 32.85 74.18 33 73 C33.66 72.98 35.15 72.82 35 74 z"/>
<path style="fill:#585858" d="M54 73 L55 73 C55.15 74.18 53.66 74.02 53 74 L54 73 z"/>
<path style="fill:#5f5f5f" d="M64 73 L63 74 L64 73 z"/>
<path style="fill:#696969" d="M38 75 C37.34 75.02 35.85 75.18 36 74 C36.66 73.98 38.15 73.82 38 75 z"/>
<path style="fill:#979797" d="M50 74 C50.15 75.18 48.66 75.02 48 75 C47.85 73.82 49.34 73.98 50 74 z"/>
<path style="fill:#949494" d="M63 74 L62 75 L63 74 z"/>
<path style="fill:#757575" d="M27 76 L26 75 L27 76 z"/>
<path style="fill:#2b2c2c" d="M48 75 C46.34 76.65 40.66 76.65 39 75 L48 75 z"/>
<path style="fill:#636363" d="M61 75 L60 76 L61 75 z"/>
<path style="fill:#747575" d="M31 78 C30.34 78.02 28.85 78.18 29 77 C29.66 76.98 31.15 76.82 31 78 z"/>
<path style="fill:#acacac" d="M59 77 C59.15 78.18 57.66 78.02 57 78 C56.85 76.82 58.34 76.98 59 77 z"/>
<path style="fill:#595959" d="M34 79 C33.34 79.02 31.85 79.18 32 78 C32.66 77.98 34.15 77.82 34 79 z"/>
<path style="fill:#9a9a9a" d="M56 78 C56.15 79.18 54.66 79.02 54 79 C53.85 77.82 55.34 77.98 56 78 z"/>
<path style="fill:#6f7070" d="M37 80 C36.34 80.02 34.85 80.18 35 79 C35.66 78.98 37.15 78.82 37 80 z"/>
<path style="fill:#9a9b9b" d="M53 79 C53.15 80.18 51.66 80.02 51 80 C50.85 78.82 52.34 78.98 53 79 z"/>
<path style="fill:#959696" d="M48 80 C46.01 81.66 39.99 81.66 38 80 L48 80 z"/>
</svg>
