<?xml version="1.0" standalone="yes"?>
<svg width="87" height="97">
<path style="fill:#fcfdfd" d="M87 0 L87 97 L0 97 L0 0 L87 0 z"/>
<path style="fill:#131414" d="M40 13 C40.15 14.18 38.66 14.02 38 14 C37.72 10.87 38.56 11.06 40 13 z"/>
<path style="fill:#252525" d="M42 14 L42 16 C41.89 18.69 38.97 18.08 42 20 C42.98 23.01 40.27 23.4 38 23 L38 22 L37 21 L36 20 C38.68 20.71 37.94 17.55 38 16 C40.24 16.66 41.66 15.24 41 13 C40.76 9.746 42.74 12.12 42 14 z"/>
<path style="fill:#b9baba" d="M44 11 L44 15 L44 17 L44 18 L42 16 L42 14 L44 11 z"/>
<path style="fill:#212222" d="M45 13 C45.02 13.66 45.18 15.15 44 15 L44 11 C45.18 10.85 45.02 12.34 45 13 z"/>
<path style="fill:#7c7c7c" d="M48 14 C46.94 13.57 46.94 15.43 48 15 L48 17 C46.64 15.92 45.36 15.92 44 17 L44 15 C45.18 15.15 45.02 13.66 45 13 C46.14 10.79 48.76 10.43 48 14 z"/>
<path style="fill:#7f7f7f" d="M41 13 C41.66 15.24 40.24 16.66 38 16 L38 14 C38.66 14.02 40.15 14.18 40 13 L41 13 z"/>
<path style="fill:#242424" d="M36 17 L36 18 C34.57 18.4 31.48 21.4 32 18 C36.07 16.54 31.84 13.47 32 18 L29 20 L29 18 C30.18 18.15 30.02 16.66 30 16 L31 15 C33.78 12.53 34.97 15.15 36 17 z"/>
<path style="fill:#dcdcdc" d="M38 14 L38 16 C37.94 17.55 38.68 20.71 36 20 L36 18 L36 17 L38 14 z"/>
<path style="fill:#090909" d="M48 14 L48 15 C46.94 15.43 46.94 13.57 48 14 z"/>
<path style="fill:#1d1d1d" d="M51 14 C50.98 14.66 50.82 16.15 52 16 L53 17 L54 18 L51 20 L50 20 C48.97 18.38 49.7 15.19 51 14 z"/>
<path style="fill:#818282" d="M55 15 C54.34 14.98 52.85 14.82 53 16 L52 16 C50.82 16.15 50.98 14.66 51 14 L55 15 z"/>
<path style="fill:#949595" d="M29 16 L27 16 C26.78 14.67 29.22 14.67 29 16 z"/>
<path style="fill:#919191" d="M31 15 L30 16 L31 15 z"/>
<path style="fill:#abacac" d="M32 18 C31.84 13.47 36.07 16.54 32 18 z"/>
<path style="fill:#161616" d="M55 15 L55 18 L54 18 L53 17 L53 16 C52.85 14.82 54.34 14.98 55 15 z"/>
<path style="fill:#a3a3a3" d="M59 16 C55.54 15.51 58.14 18.4 58 20 L55 18 L55 15 L59 16 z"/>
<path style="fill:#7f7f7f" d="M27 16 L26 17 L27 16 z"/>
<path style="fill:#0e0f0f" d="M29 16 L29 18 C27.82 17.85 27.98 19.34 28 20 L25 21 L26 17 L27 16 L29 16 z"/>
<path style="fill:#dddddd" d="M44 18 C46.52 17.26 45.77 19.87 44 20 L42 20 C38.97 18.08 41.89 18.69 42 16 L44 18 z"/>
<path style="fill:#080808" d="M48 17 C48.19 17.95 47.41 19.94 49 20 L49 21 L47 22 L44 22 L44 20 C45.77 19.87 46.52 17.26 44 18 L44 17 C45.36 15.92 46.64 15.92 48 17 z"/>
<path style="fill:#f4f4f4" d="M53 16 L53 17 L52 16 L53 16 z"/>
<path style="fill:#0c0c0c" d="M59 16 L60 17 L60 20 L58 20 C58.14 18.4 55.54 15.51 59 16 z"/>
<path style="fill:#797979" d="M60 17 L59 16 L60 17 z"/>
<path style="fill:#7f7f7f" d="M24 18 L23 18 C22.57 16.94 24.43 16.94 24 18 z"/>
<path style="fill:#c2c2c2" d="M54 18 L53 17 L54 18 z"/>
<path style="fill:#7d7e7e" d="M63 18 L62 19 C59.34 18.67 62.67 15.34 63 18 z"/>
<path style="fill:#181818" d="M24 18 L24 19 L23 19 L23 18 L24 18 z"/>
<path style="fill:#dadada" d="M29 18 L29 20 L28 20 C27.98 19.34 27.82 17.85 29 18 z"/>
<path style="fill:#a1a2a2" d="M32 18 C31.48 21.4 34.57 18.4 36 18 L36 20 C34.41 20.06 35.19 22.05 35 23 L32 22 L29 21 L29 20 L32 18 z"/>
<path style="fill:#a5a5a5" d="M55 18 L55 25 L54 25 C54.63 22.33 53.52 20.61 51 20 L54 18 L55 18 z"/>
<path style="fill:#4b4b4b" d="M58 20 L60 20 C61.59 20.06 60.81 22.05 61 23 L58 23 L58 22 C61.22 22.73 58.7 19.48 58 22 L59 30 L57 29 L55 29 L54 25 L55 25 C54.27 28.22 57.52 25.7 55 25 L55 18 L58 20 z"/>
<path style="fill:#121313" d="M63 18 L64 19 L64 20 C63.54 21.35 64.65 22.46 66 22 L65 29 C65.43 27.94 63.57 27.94 64 29 L63 24 L62 23 L62 19 L63 18 z"/>
<path style="fill:#828282" d="M22 19 C22.02 19.66 22.18 21.15 21 21 C20.98 20.34 20.82 18.85 22 19 z"/>
<path style="fill:#0d0e0e" d="M23 19 L23 22 C20.28 22.77 24.07 28.72 20 28 C20.14 25.61 19.44 22.97 21 21 C22.18 21.15 22.02 19.66 22 19 L23 19 z"/>
<path style="fill:#b8b8b8" d="M24 19 L24 21 L24 28 L23 22 L23 19 L24 19 z"/>
<path style="fill:#a5a5a5" d="M64 20 L64 19 C65.06 18.57 65.06 20.43 64 20 z"/>
<path style="fill:#cbcbcb" d="M28 20 L29 21 L29 22 L29 23 L27 23 L25 21 L28 20 z"/>
<path style="fill:#313131" d="M29 20 L29 21 L28 20 L29 20 z"/>
<path style="fill:#e4e5e5" d="M36 20 L37 21 L38 22 L38 23 L38 24 L38 27 L36 27 L35 23 C35.19 22.05 34.41 20.06 36 20 z"/>
<path style="fill:#c2c2c2" d="M44 20 L44 22 C44.06 23.59 46.05 22.81 47 23 L48 24 C45.73 23.6 43.02 23.99 44 27 L42 27 C42.98 23.99 40.27 23.6 38 24 L38 23 C40.27 23.4 42.98 23.01 42 20 L44 20 z"/>
<path style="fill:#737373" d="M50 20 L49 21 L49 20 L50 20 z"/>
<path style="fill:#e0e1e1" d="M51 20 C51.08 21.83 51.37 24.54 49 25 L48 25 L48 24 L47 23 L47 22 L49 21 L50 20 L51 20 z"/>
<path style="fill:#181818" d="M54 25 L52 28 L51 28 L50 27 C48.82 27.15 48.98 25.66 49 25 C51.37 24.54 51.08 21.83 51 20 C53.52 20.61 54.63 22.33 54 25 z"/>
<path style="fill:#292929" d="M68 23 L67 27 L66 22 C65.27 18.72 68.83 21.12 68 23 z"/>
<path style="fill:#969696" d="M21 21 C19.44 22.97 20.14 25.61 20 28 C18.12 27.86 20.14 29.88 20 28 C24.07 28.72 20.28 22.77 23 22 L24 28 C24.99 33.11 25.63 26.25 28 27 L28 28 C26.67 27.78 26.67 30.22 28 30 L27 31 L26 31 C24.94 30.57 24.94 32.43 26 32 L27 32 L26 36 L25 36 C24.07 33.75 22.24 37.81 23 39 L22 39 L21.75 29.25 C19.27 32.79 17.16 31.87 18 27 C19.6 26.55 19.6 22.45 18 22 C18.06 20.41 20.05 21.19 21 21 z"/>
<path style="fill:#1d1e1e" d="M25 21 L27 23 L28 24 L28 27 C25.63 26.25 24.99 33.11 24 28 L24 21 L25 21 z"/>
<path style="fill:#838383" d="M32 22 L33 28 C31.12 27.86 33.14 29.88 33 28 L35 28 L35 29 L33 30 L31 31 C29.82 31.15 29.98 29.66 30 29 L29 22 L29 21 L32 22 z"/>
<path style="fill:#151515" d="M35 23 L36 27 L35 28 L33 28 L32 22 L35 23 z"/>
<path style="fill:#8e8e8e" d="M38 22 L37 21 L38 22 z"/>
<path style="fill:#e1e1e1" d="M58 22 C58.7 19.48 61.22 22.73 58 22 z"/>
<path style="fill:#626363" d="M18 27 L17 26 L16 25 L17 25 C18.06 25.43 18.06 23.57 17 24 L18 22 C19.6 22.45 19.6 26.55 18 27 z"/>
<path style="fill:#101111" d="M30 29 L29 24 L29 23 L29 22 L30 29 z"/>
<path style="fill:#535454" d="M47 22 L47 23 C46.05 22.81 44.06 23.59 44 22 L47 22 z"/>
<path style="fill:#989999" d="M58 22 L58 23 L61 31 L59 30 L58 22 z"/>
<path style="fill:#e6e6e6" d="M67 27 L67 32 L65 29 L66 22 L67 27 z"/>
<path style="fill:#7c7c7c" d="M29 23 L29 24 L28 24 L27 23 L29 23 z"/>
<path style="fill:#070808" d="M61 23 L62 24 L62 31 L61 31 L58 23 L61 23 z"/>
<path style="fill:#8a8b8b" d="M62 23 L63 24 L62 24 L61 23 L62 23 z"/>
<path style="fill:#656565" d="M70 25 L69 28 L68 39 L67 39 L67 32 L67 27 L68 23 L70 25 z"/>
<path style="fill:#a7a8a8" d="M16 25 L14 25 C13.78 23.67 16.22 23.67 16 25 z"/>
<path style="fill:#0" d="M17 25 L17 24 C18.06 23.57 18.06 25.43 17 25 z"/>
<path style="fill:#e5e6e6" d="M29 24 L30 29 C29.98 29.66 29.82 31.15 31 31 L31 32 L29 32 C29.02 31.34 29.18 29.85 28 30 L28 28 L28 27 L28 24 L29 24 z"/>
<path style="fill:#161717" d="M42 27 L40 25 L39 26 L38 27 L38 24 C40.27 23.6 42.98 23.99 42 27 z"/>
<path style="fill:#2f3030" d="M48 24 L48 25 L44 27 C43.02 23.99 45.73 23.6 48 24 z"/>
<path style="fill:#e2e2e2" d="M63 24 L64 29 L62 31 L62 24 L63 24 z"/>
<path style="fill:#aeaeae" d="M72 26 L70 25 C70.19 22.98 72.9 24.44 72 26 z"/>
<path style="fill:#949494" d="M14 25 L13 26 L14 25 z"/>
<path style="fill:#151616" d="M16 25 L17 26 L17 27 C14.91 25.99 14.04 29.75 16 30 L17 35 L18 40 C18.36 43.58 13.6 41.9 13 40 L12 35 L12 31 L12 30 C13.18 30.15 13.02 28.66 13 28 L13 26 L14 25 L16 25 z"/>
<path style="fill:#a2a2a2" d="M40 25 L39 26 L40 25 z"/>
<path style="fill:#f7f7f7" d="M42 27 L44 27 L48 25 L49 25 C48.98 25.66 48.82 27.15 50 27 L51 28 L52 28 L52 29 C49.88 28.37 49.86 30.82 49 32 L46 34 L47 41 L46 41 C44.4 41.45 44.4 45.55 46 46 L46 47 L45 47 L38 48 L38 47 C40.5 46.57 40.89 41.93 39 41 L39 40 L38 36 L38 34 L35 29 L35 28 L36 27 L38 27 L39 26 L40 25 L42 27 z"/>
<path style="fill:#848484" d="M54 25 L55 29 C54.78 30.33 57.22 30.33 57 29 L59 30 L61 31 L61 33 L60 33 L57 32 C55.82 31.85 55.98 33.34 56 34 L52 30 L52 29 L52 28 L54 25 z"/>
<path style="fill:#bcbdbd" d="M55 25 C57.52 25.7 54.27 28.22 55 25 z"/>
<path style="fill:#0d0d0d" d="M72 26 L72 27 L73 28 L74 32 L74 33 L74 36 C72.41 36.06 73.19 38.05 73 39 L72 40 L70 42 L69 42 L69 39 L69 28 L70 25 L72 26 z"/>
<path style="fill:#f0f0f0" d="M18 27 L17 27 L17 26 L18 27 z"/>
<path style="fill:#9b9b9b" d="M17 27 L17 30 L16 30 C14.04 29.75 14.91 25.99 17 27 z"/>
<path style="fill:#0f0f0f" d="M18 27 C17.16 31.87 19.27 32.79 21.75 29.25 L22 39 L19 43 C18.81 42.05 19.59 40.06 18 40 L17 35 L17 30 L17 27 L18 27 z"/>
<path style="fill:#969696" d="M36 27 L35 28 L36 27 z"/>
<path style="fill:#6f6f6f" d="M51 28 L50 27 L51 28 z"/>
<path style="fill:#6e6e6e" d="M73 28 L72 27 L73 28 z"/>
<path style="fill:#848484" d="M13 28 C13.02 28.66 13.18 30.15 12 30 C11.98 29.34 11.82 27.85 13 28 z"/>
<path style="fill:#292929" d="M20 28 C20.14 29.88 18.12 27.86 20 28 z"/>
<path style="fill:#272727" d="M28 28 L28 30 C26.67 30.22 26.67 27.78 28 28 z"/>
<path style="fill:#212121" d="M33 28 C33.14 29.88 31.12 27.86 33 28 z"/>
<path style="fill:#edeeee" d="M57 29 C57.22 30.33 54.78 30.33 55 29 L57 29 z"/>
<path style="fill:#d8d8d8" d="M65 29 L64 29 C63.57 27.94 65.43 27.94 65 29 z"/>
<path style="fill:#adaeae" d="M69 39 L68 39 L69 28 L69 39 z"/>
<path style="fill:#252626" d="M35 29 C34.89 31.34 34.35 35.15 38 34 L38 36 L37 36 L33.25 36.75 L33 31 L33 30 L35 29 z"/>
<path style="fill:#b1b2b2" d="M38 34 C34.35 35.15 34.89 31.34 35 29 L38 34 z"/>
<path style="fill:#151616" d="M52 29 L52 30 C50.67 29.78 50.67 32.22 52 32 C52.01 33.69 54.69 37.44 51 37 C50.69 35.29 49.16 34.85 48 36 L49 32 C49.86 30.82 49.88 28.37 52 29 z"/>
<path style="fill:#0e0e0e" d="M65 29 L67 32 L67 39 L67 43 L65 43 L65 42 C65.02 41.34 65.18 39.85 64 40 L64 37 L63 36 C63.65 33.84 61.35 33.84 62 36 L63 37 L63 40 C62.98 40.66 62.82 42.15 64 42 L64 43 L65 44 L65 45 C63.71 45.26 62.67 46.66 63 48 C60.32 48.71 61.06 45.55 61 44 L61 35 L61 33 C62.18 33.15 62.02 31.66 62 31 L64 29 L65 29 z"/>
<path style="fill:#e5e5e5" d="M17 30 L17 35 L16 30 L17 30 z"/>
<path style="fill:#131313" d="M29 32 L29 33 L29 39 L26 40 L26 36 L27 32 L27 31 L28 30 C29.18 29.85 29.02 31.34 29 32 z"/>
<path style="fill:#040505" d="M33 30 L33 31 L32 34 L30 38 L30 33 L31 32 L31 31 L33 30 z"/>
<path style="fill:#d5d6d6" d="M52 30 L52 32 C50.67 32.22 50.67 29.78 52 30 z"/>
<path style="fill:#212121" d="M56 34 L55 39 L54 39 C53.68 36.66 55.12 32.84 52 32 L52 30 L56 34 z"/>
<path style="fill:#5b5b5b" d="M12 31 L12 35 L11 35 C11.02 34.34 11.18 32.85 10 33 L9 33 C9.263 31.71 10.66 30.67 12 31 z"/>
<path style="fill:#0" d="M26 31 L26 32 C24.94 32.43 24.94 30.57 26 31 z"/>
<path style="fill:#fbfbfb" d="M27 31 L27 32 L26 32 L26 31 L27 31 z"/>
<path style="fill:#a0a0a0" d="M37 36 L37 38 C35.82 37.16 35.18 37.16 34 38 L33 39 L32 39 L32 34 L33 31 L33.25 36.75 L37 36 z"/>
<path style="fill:#1c1c1c" d="M60 33 L60 35 L59 39 L58 40 C56.29 37.74 57.23 34.69 57 32 L60 33 z"/>
<path style="fill:#d2d2d2" d="M62 31 C62.02 31.66 62.18 33.15 61 33 L61 31 L62 31 z"/>
<path style="fill:#373838" d="M76 39 L75 40 L74 41 L73 42 L72 42 L72 40 L73 39 C74.59 38.94 73.81 36.95 74 36 C75.48 36.04 75.48 32.96 74 33 L74 32 C76.27 29.26 78.18 37.22 76 39 z"/>
<path style="fill:#7b7b7b" d="M31 32 L30 33 L29 33 L29 32 L31 32 z"/>
<path style="fill:#bfbfbf" d="M48 36 L46 34 L49 32 L48 36 z"/>
<path style="fill:#c3c4c4" d="M54 39 L51 38 L51 37 C54.69 37.44 52.01 33.69 52 32 C55.12 32.84 53.68 36.66 54 39 z"/>
<path style="fill:#a9a9a9" d="M57 32 C57.23 34.69 56.29 37.74 58 40 L55 39 L56 34 C55.98 33.34 55.82 31.85 57 32 z"/>
<path style="fill:#181919" d="M10 33 C9.981 33.66 9.819 35.15 11 35 L12 40 L11 40 L9 38 L9 34 L9 33 L10 33 z"/>
<path style="fill:#c4c5c5" d="M11 35 C9.819 35.15 9.981 33.66 10 33 C11.18 32.85 11.02 34.34 11 35 z"/>
<path style="fill:#e9e9e9" d="M30 33 L30 38 L30 39 L29 39 L29 33 L30 33 z"/>
<path style="fill:#d4d4d4" d="M61 33 L61 35 L60 35 L60 33 L61 33 z"/>
<path style="fill:#b4b4b4" d="M74 36 L74 33 C75.48 32.96 75.48 36.04 74 36 z"/>
<path style="fill:#9b9b9b" d="M9 34 L9 38 C7.445 37.81 7.445 34.19 9 34 z"/>
<path style="fill:#5b5b5b" d="M32 34 L32 39 L30 39 L30 38 L32 34 z"/>
<path style="fill:#4e4e4e" d="M48 36 L48 42 L47 41 L46 34 L48 36 z"/>
<path style="fill:#f3f4f4" d="M63 36 L62 36 C61.35 33.84 63.65 33.84 63 36 z"/>
<path style="fill:#b7b8b8" d="M12 35 L13 40 L12 40 L11 35 L12 35 z"/>
<path style="fill:#d3d4d4" d="M18 40 L17 35 L18 40 z"/>
<path style="fill:#151616" d="M25 36 L25 47 L21 50 C19.5 49.15 18.77 46.83 19 45 L22 47 C21.27 50.22 24.52 47.7 22 47 C20.19 44.04 22.48 41.96 23 39 C22.24 37.81 24.07 33.75 25 36 z"/>
<path style="fill:#c1c1c1" d="M51 37 C47.9 36.36 49.3 40.27 49 42 L48 42 L48 36 C49.16 34.85 50.69 35.29 51 37 z"/>
<path style="fill:#6a6a6a" d="M60 35 L61 35 L61 44 L59 39 L60 35 z"/>
<path style="fill:#f5f6f6" d="M26 36 L26 40 L26 42 L25 47 L25 36 L26 36 z"/>
<path style="fill:#727373" d="M38 36 L39 40 L37 40 L37 38 L37 36 L38 36 z"/>
<path style="fill:#838383" d="M63 36 L64 37 L63 37 L62 36 L63 36 z"/>
<path style="fill:#cccccc" d="M74 36 C73.81 36.95 74.59 38.94 73 39 C73.19 38.05 72.41 36.06 74 36 z"/>
<path style="fill:#0f0f0f" d="M37 38 L37 40 L36 49 L32 48 L34 38 C35.18 37.16 35.82 37.16 37 38 z"/>
<path style="fill:#141414" d="M51 37 L51 38 L53 44 L53 49 L49 46 L49 42 C49.3 40.27 47.9 36.36 51 37 z"/>
<path style="fill:#f0f1f1" d="M64 37 L64 40 L63 40 L63 37 L64 37 z"/>
<path style="fill:#9e9f9f" d="M11 40 C4.009 38.57 8.067 47.99 7 52 C5.613 48.46 4.181 39.23 9 38 L11 40 z"/>
<path style="fill:#868686" d="M34 38 L32 48 L31 48 L33 39 L34 38 z"/>
<path style="fill:#a0a1a1" d="M51 38 L54 44 L53 44 L51 38 z"/>
<path style="fill:#202020" d="M54 39 L54 40 C53.57 41.06 55.43 41.06 55 40 L55 39 L58 40 L58 41 L57 41 L55 49 L54 44 L51 38 L54 39 z"/>
<path style="fill:#7e7f7f" d="M22 39 L23 39 C22.48 41.96 20.19 44.04 22 47 L19 45 L18 45 L14 44 L19 43 L22 39 z"/>
<path style="fill:#8c8c8c" d="M29 39 L26 42 L26 40 L29 39 z"/>
<path style="fill:#1a1a1a" d="M30 39 C30.13 40.77 32.74 41.52 32 39 L33 39 L31 48 C30.07 50.52 26.76 48.25 28 46 C29.59 45.94 28.81 43.95 29 43 C31.52 42.3 28.27 39.78 29 43 C27.41 43.06 28.19 45.05 28 46 L26 50 C24.41 49.94 25.19 47.95 25 47 L26 42 L29 39 L30 39 z"/>
<path style="fill:#a7a8a8" d="M32 39 C32.74 41.52 30.13 40.77 30 39 L32 39 z"/>
<path style="fill:#f9f9f9" d="M55 39 L55 40 L54 40 L54 39 L55 39 z"/>
<path style="fill:#ababab" d="M61 44 C61.06 45.55 60.32 48.71 63 48 C61.29 49.82 63.18 50.34 65 50 L65 51 L59 51 L60 49 L58 41 L58 40 L59 39 L61 44 z"/>
<path style="fill:#bcbcbc" d="M68 39 C68.19 39.95 67.41 41.94 69 42 C69.15 43.18 67.66 43.02 67 43 L67 39 L68 39 z"/>
<path style="fill:#636363" d="M69 39 L69 42 C67.41 41.94 68.19 39.95 68 39 L69 39 z"/>
<path style="fill:#b9b9b9" d="M73 39 L72 40 L73 39 z"/>
<path style="fill:#d7d7d7" d="M76 39 L76 40 L75 40 L76 39 z"/>
<path style="fill:#626363" d="M78 40 L76 40 L76 39 C76.66 38.98 78.15 38.82 78 40 z"/>
<path style="fill:#101010" d="M11 40 C10.89 41.31 13.42 45.75 14 44 L18 45 L18 54 L16 54 L11 49 C11.02 48.34 11.18 46.85 10 47 C11.47 39.71 5.347 43.22 10 47 C9.981 47.66 9.819 49.15 11 49 L15 58 L13 59 L8 54 L8 53 L7 52 C8.067 47.99 4.009 38.57 11 40 z"/>
<path style="fill:#bababa" d="M12 40 C11.57 41.06 13.43 41.06 13 40 C13.6 41.9 18.36 43.58 18 40 C19.59 40.06 18.81 42.05 19 43 L14 44 C13.42 45.75 10.89 41.31 11 40 L12 40 z"/>
<path style="fill:#050505" d="M13 40 C13.43 41.06 11.57 41.06 12 40 L13 40 z"/>
<path style="fill:#9c9d9d" d="M39 40 L39 41 L38 47 C36.94 46.57 36.94 48.43 38 48 C38.15 49.18 36.66 49.02 36 49 L37 40 L39 40 z"/>
<path style="fill:#a5a5a5" d="M55 40 C55.43 41.06 53.57 41.06 54 40 L55 40 z"/>
<path style="fill:#989898" d="M64 40 C65.18 39.85 65.02 41.34 65 42 L64 42 C62.82 42.15 62.98 40.66 63 40 L64 40 z"/>
<path style="fill:#9b9b9b" d="M72 40 L72 42 C70.12 41.86 72.14 43.88 72 42 L73 42 C73.79 44.57 71.82 45.77 70 44 L70 42 L72 40 z"/>
<path style="fill:#cccccc" d="M75 40 L74 41 L75 40 z"/>
<path style="fill:#0f0f0f" d="M76 40 L78 40 L79 50 L78 53 L78 54 L77 55 L76 56 L75 57 L74 58 C67.46 58.4 74.23 52.91 74 50 C75.18 50.15 75.02 48.66 75 48 C76.59 47.94 75.81 45.95 76 45 L77 44 L77 42 C77.43 40.94 75.57 40.94 76 42 L76 44 L75 45 L75 48 C73.82 47.85 73.98 49.34 74 50 L68 54 L68 53 L67 52 L67 51 L68 50 L68 47 L70 44 C71.82 45.77 73.79 44.57 73 42 L74 41 L75 40 L76 40 z"/>
<path style="fill:#282828" d="M79 50 L78 40 L79 50 z"/>
<path style="fill:#cdcece" d="M29 43 C28.27 39.78 31.52 42.3 29 43 z"/>
<path style="fill:#181818" d="M38 47 L39 41 C40.89 41.93 40.5 46.57 38 47 z"/>
<path style="fill:#929292" d="M46 41 L46 46 C44.4 45.55 44.4 41.45 46 41 z"/>
<path style="fill:#323333" d="M47 41 L48 42 L49 42 L49 46 L48 46 C49.02 41.6 45.21 44.3 48 46 C48.15 47.18 46.66 47.02 46 47 L46 46 L46 41 L47 41 z"/>
<path style="fill:#949595" d="M57 41 C58.71 43.26 57.77 46.31 58 49 L55 50 L55 49 L57 41 z"/>
<path style="fill:#060606" d="M58 41 L60 49 L58 49 C57.77 46.31 58.71 43.26 57 41 L58 41 z"/>
<path style="fill:#9e9e9e" d="M74 41 L73 42 L74 41 z"/>
<path style="fill:#696969" d="M77 42 L76 42 C75.57 40.94 77.43 40.94 77 42 z"/>
<path style="fill:#9c9d9d" d="M10 47 C5.347 43.22 11.47 39.71 10 47 z"/>
<path style="fill:#f0f0f0" d="M65 42 L65 43 L64 43 L64 42 L65 42 z"/>
<path style="fill:#6d6d6d" d="M70 42 L70 44 L68 47 C68.02 46.34 68.18 44.85 67 45 L66 45 L65 44 L64 43 L65 43 L67 43 C67.66 43.02 69.15 43.18 69 42 L70 42 z"/>
<path style="fill:#202020" d="M72 42 C72.14 43.88 70.12 41.86 72 42 z"/>
<path style="fill:#fafafa" d="M77 42 L77 44 L76 44 L76 42 L77 42 z"/>
<path style="fill:#e3e3e3" d="M29 43 C28.81 43.95 29.59 45.94 28 46 C28.19 45.05 27.41 43.06 29 43 z"/>
<path style="fill:#bfbfbf" d="M48 46 C45.21 44.3 49.02 41.6 48 46 z"/>
<path style="fill:#e7e8e8" d="M54 44 L55 49 L55 50 C53.82 49.85 53.98 51.34 54 52 C53.34 52.02 51.85 52.18 52 51 L53 50 L53 49 L53 44 L54 44 z"/>
<path style="fill:#ffffff" d="M66 45 L65 45 L65 44 L66 45 z"/>
<path style="fill:#868787" d="M76 44 L77 44 L76 45 L75 45 L76 44 z"/>
<path style="fill:#979898" d="M19 45 C18.77 46.83 19.5 49.15 21 50 L21 51 L18 54 L18 45 L19 45 z"/>
<path style="fill:#bcbcbc" d="M65 45 C65.33 46.34 64.29 47.74 63 48 C62.67 46.66 63.71 45.26 65 45 z"/>
<path style="fill:#1a1b1b" d="M66 45 L67 45 L67 47 L65 50 C63.18 50.34 61.29 49.82 63 48 C64.29 47.74 65.33 46.34 65 45 L66 45 z"/>
<path style="fill:#c3c3c3" d="M68 47 L68 50 C66.41 49.94 67.19 47.95 67 47 L67 45 C68.18 44.85 68.02 46.34 68 47 z"/>
<path style="fill:#dedede" d="M76 45 C75.81 45.95 76.59 47.94 75 48 L75 45 L76 45 z"/>
<path style="fill:#c6c6c6" d="M28 46 C26.76 48.25 30.07 50.52 31 48 L32 48 L36 49 L34 52 C33.34 52.02 31.85 52.18 32 51 C32.22 49.67 29.78 49.67 30 51 L28 50 L26 50 L28 46 z"/>
<path style="fill:#a5a6a6" d="M49 46 L53 49 L53 50 L49 50 L45 47 L46 47 C46.66 47.02 48.15 47.18 48 46 L49 46 z"/>
<path style="fill:#bababa" d="M11 49 C9.819 49.15 9.981 47.66 10 47 C11.18 46.85 11.02 48.34 11 49 z"/>
<path style="fill:#a6a7a7" d="M22 47 C24.52 47.7 21.27 50.22 22 47 z"/>
<path style="fill:#c5c5c5" d="M25 47 C25.19 47.95 24.41 49.94 26 50 L21 51 L21 50 L25 47 z"/>
<path style="fill:#202020" d="M38 47 L38 48 C36.94 48.43 36.94 46.57 38 47 z"/>
<path style="fill:#1d1e1e" d="M45 47 L49 50 L46 50 L45 50 L44 56 C44.11 56.85 44.15 61.38 43 59 C43.85 52.95 41.87 46.5 40 55 L40 50 C40.43 48.94 38.57 48.94 39 50 C38.94 51.55 39.68 54.71 37 54 L37 53 C39.49 48.94 36.68 51.98 34 52 L36 49 C36.66 49.02 38.15 49.18 38 48 L45 47 z"/>
<path style="fill:#676767" d="M67 47 C67.19 47.95 66.41 49.94 68 50 L67 51 L65 51 L65 50 L67 47 z"/>
<path style="fill:#bfbfbf" d="M75 48 C75.02 48.66 75.18 50.15 74 50 C73.98 49.34 73.82 47.85 75 48 z"/>
<path style="fill:#aaabab" d="M16 54 L16 58 L15 58 L11 49 L16 54 z"/>
<path style="fill:#878787" d="M40 50 L39 50 C38.57 48.94 40.43 48.94 40 50 z"/>
<path style="fill:#646565" d="M58 49 L60 49 L59 51 L54 52 C53.98 51.34 53.82 49.85 55 50 L58 49 z"/>
<path style="fill:#1b1b1b" d="M28 50 C27.74 51.29 26.34 52.33 25 52 C24.34 51.98 22.85 51.82 23 53 L21 55 L18 55 L18 54 L21 51 L26 50 L28 50 z"/>
<path style="fill:#a5a6a6" d="M30 51 L32 51 C31.85 52.18 33.34 52.02 34 52 C36.68 51.98 39.49 48.94 37 53 L36 53 L26 54 C24.82 54.15 24.98 52.66 25 52 C26.34 52.33 27.74 51.29 28 50 L30 51 z"/>
<path style="fill:#4b4c4c" d="M32 51 L30 51 C29.78 49.67 32.22 49.67 32 51 z"/>
<path style="fill:#e4e4e4" d="M40 50 L40 55 L40 56 L39 56 L37 54 C39.68 54.71 38.94 51.55 39 50 L40 50 z"/>
<path style="fill:#9b9b9b" d="M43 59 L41 59 L41 57 L40 56 L40 55 C41.87 46.5 43.85 52.95 43 59 z"/>
<path style="fill:#747474" d="M45 50 L47 55 L47 56 L46 56 L44 56 L45 50 z"/>
<path style="fill:#c3c3c3" d="M46 50 L47 51 C46.98 51.66 46.82 53.15 48 53 L49 53 L49 55 L47 55 L45 50 L46 50 z"/>
<path style="fill:#8c8c8c" d="M49 50 C49.06 51.59 51.05 50.81 52 51 C51.85 52.18 53.34 52.02 54 52 L54 53 L49 53 L48 53 C48.02 52.34 48.18 50.85 47 51 L46 50 L49 50 z"/>
<path style="fill:#222222" d="M53 50 L52 51 C51.05 50.81 49.06 51.59 49 50 L53 50 z"/>
<path style="fill:#979797" d="M74 50 C74.23 52.91 67.46 58.4 74 58 C74.15 59.18 72.66 59.02 72 59 L71 59 L70 58 C68.29 56.43 66.49 57.11 68 54 L74 50 z"/>
<path style="fill:#383838" d="M48 53 C46.82 53.15 46.98 51.66 47 51 C48.18 50.85 48.02 52.34 48 53 z"/>
<path style="fill:#d0d1d1" d="M59 51 L60 52 L60 54 C58.3 52.64 56.09 53.02 54 53 L54 52 L59 51 z"/>
<path style="fill:#0c0c0c" d="M65 51 L67 53 L67 54 L66 55 L65 55 C64.14 53.82 64.12 51.37 62 52 L60 52 L59 51 L65 51 z"/>
<path style="fill:#c2c3c3" d="M67 51 L67 52 L67 53 L65 51 L67 51 z"/>
<path style="fill:#7c7d7d" d="M25 52 C24.98 52.66 24.82 54.15 26 54 L25 55 C22.67 56.92 21.36 57.35 21 55 L23 53 C22.86 54.88 24.88 52.86 23 53 C22.85 51.82 24.34 51.98 25 52 z"/>
<path style="fill:#a5a6a6" d="M62 52 C63.75 53.61 61.54 55.33 60 56 L60 54 L60 52 L62 52 z"/>
<path style="fill:#626363" d="M65 55 L65 57 C63.49 57.29 61.5 54.94 62 58 L60 57 L60 56 C61.54 55.33 63.75 53.61 62 52 C64.12 51.37 64.14 53.82 65 55 z"/>
<path style="fill:#676767" d="M68 53 L67 53 L67 52 L68 53 z"/>
<path style="fill:#a5a5a5" d="M8 53 L8 54 L7 59 C5.384 58.23 4.982 52.28 8 53 z"/>
<path style="fill:#ffffff" d="M23 53 C24.88 52.86 22.86 54.88 23 53 z"/>
<path style="fill:#101111" d="M36 53 L36 54 L33 55 L27 57 L27 61 L26 61 C26.43 59.94 24.57 59.94 25 61 C23.29 60.69 22.85 59.16 24 58 L25 55 L26 54 L36 53 z"/>
<path style="fill:#ffffff" d="M37 53 L37 54 L36 54 L36 53 L37 53 z"/>
<path style="fill:#131313" d="M54 53 C56.09 53.02 58.3 52.64 60 54 L60 56 L60 57 L58 57 C56.86 54.79 54.24 54.43 55 58 L54 58 C53.81 57.05 54.59 55.06 53 55 C53.43 53.94 51.57 53.94 52 55 L52 56 L50 57 C50.02 56.34 50.18 54.85 49 55 L49 53 L54 53 z"/>
<path style="fill:#e0e0e0" d="M68 53 L68 54 L67 54 L67 53 L68 53 z"/>
<path style="fill:#ababab" d="M79 55 L78 54 L78 53 C79.56 52.1 81.02 54.81 79 55 z"/>
<path style="fill:#0c0d0d" d="M8 54 C8.027 56.34 10.66 58.97 13 59 L11 63 C11.86 65.43 9.695 66.81 9 64 C8.81 63.05 9.592 61.06 8 61 C8.019 60.34 8.181 58.85 7 59 L8 54 z"/>
<path style="fill:#9c9c9c" d="M13 59 C10.66 58.97 8.027 56.34 8 54 L13 59 z"/>
<path style="fill:#5a5b5b" d="M18 54 L18 55 C17.51 57.19 20.4 57.83 22 58 C20.61 59.72 17.9 60.19 17 58 L16 58 L16 54 L18 54 z"/>
<path style="fill:#535454" d="M36 54 L37 54 L39 56 L38 56 L37 57 L36 58 L33 55 L36 54 z"/>
<path style="fill:#a1a1a1" d="M53 55 L52 55 C51.57 53.94 53.43 53.94 53 55 z"/>
<path style="fill:#585959" d="M68 54 C66.49 57.11 68.29 56.43 70 58 L69 58 L66 60 C66.22 58.67 63.78 58.67 64 60 L65 57 C66.18 57.15 66.02 55.66 66 55 L67 54 L68 54 z"/>
<path style="fill:#adadad" d="M78 54 L77 55 L78 54 z"/>
<path style="fill:#151515" d="M79 55 L79 58 C77.41 58.06 78.19 60.05 78 61 L78 62 L77 63 L76 65 L75 65 L75 64 L74 63 L74 62 L72 60 L72 59 C72.66 59.02 74.15 59.18 74 58 L75 57 L76 56 L77 55 L78 54 L79 55 z"/>
<path style="fill:#d5d6d6" d="M21 55 C21.36 57.35 22.67 56.92 25 55 L24 58 L22 58 C20.4 57.83 17.51 57.19 18 55 L21 55 z"/>
<path style="fill:#7a7a7a" d="M33 55 L36 58 L37 59 L34 63 L32 63 C31.22 57.48 29.16 58.59 27 57 L33 55 z"/>
<path style="fill:#b9baba" d="M46 56 L46 57 C43.02 58.55 46.92 61.37 49 61 L49 63 C45.03 61.58 40.87 61.91 37 63 L39 60 L39 59 L41 59 L43 59 C44.15 61.38 44.11 56.85 44 56 L46 56 z"/>
<path style="fill:#1c1d1d" d="M49 55 C49.15 56.18 47.66 56.02 47 56 L47 55 L49 55 z"/>
<path style="fill:#6e6f6f" d="M50 57 L50 58 C48.41 58.06 49.19 60.05 49 61 C46.92 61.37 43.02 58.55 46 57 L47 56 C47.66 56.02 49.15 56.18 49 55 C50.18 54.85 50.02 56.34 50 57 z"/>
<path style="fill:#ffffff" d="M53 55 L53 56 L52 56 L52 55 L53 55 z"/>
<path style="fill:#a5a5a5" d="M54 58 C51.49 58.41 52.69 61.43 50 58 L50 57 L52 56 C51.57 57.06 53.43 57.06 53 56 L53 55 C54.59 55.06 53.81 57.05 54 58 z"/>
<path style="fill:#989898" d="M58 57 L58 59 L57 60 L56 60 C56.02 59.34 56.18 57.85 55 58 C54.24 54.43 56.86 54.79 58 57 z"/>
<path style="fill:#d9d9d9" d="M66 55 C66.02 55.66 66.18 57.15 65 57 L65 55 L66 55 z"/>
<path style="fill:#c3c3c3" d="M77 55 L76 56 L77 55 z"/>
<path style="fill:#bcbcbc" d="M38 56 L38 57 L37 57 L38 56 z"/>
<path style="fill:#191a1a" d="M39 56 L40 56 L41 57 L41 59 L39 59 C39.02 58.34 39.18 56.85 38 57 L38 56 L39 56 z"/>
<path style="fill:#f9f9f9" d="M41 57 L40 56 L41 57 z"/>
<path style="fill:#070707" d="M47 56 L46 57 L46 56 L47 56 z"/>
<path style="fill:#353535" d="M53 56 C53.43 57.06 51.57 57.06 52 56 L53 56 z"/>
<path style="fill:#838383" d="M60 57 C59.79 58.42 59.89 60.67 62 60 L62 62 C60.94 61.57 60.94 63.43 62 63 L63 62 L65 65 L62 65 L60 65 L56 61 L57 60 L58 59 L58 57 L60 57 z"/>
<path style="fill:#e5e5e5" d="M65 57 L64 60 L63 62 L62 63 L62 62 L62 60 L62 58 C61.5 54.94 63.49 57.29 65 57 z"/>
<path style="fill:#c4c4c4" d="M76 56 L75 57 L76 56 z"/>
<path style="fill:#a2a2a2" d="M32 63 L30 62 L29 62 L28 62 L27 61 L27 57 C29.16 58.59 31.22 57.48 32 63 z"/>
<path style="fill:#c7c7c7" d="M37 57 L37 58 L36 58 L37 57 z"/>
<path style="fill:#323232" d="M38 57 L37 58 L37 57 L38 57 z"/>
<path style="fill:#929393" d="M39 59 C37.94 58.57 37.94 60.43 39 60 L37 63 L34 63 L37 59 L37 58 L38 57 C39.18 56.85 39.02 58.34 39 59 z"/>
<path style="fill:#171717" d="M62 58 L62 60 C59.89 60.67 59.79 58.42 60 57 L62 58 z"/>
<path style="fill:#cccccc" d="M75 57 L74 58 L75 57 z"/>
<path style="fill:#bbbcbc" d="M15 58 C15.06 60.01 13.06 61.76 12 63 L11 63 L13 59 L15 58 z"/>
<path style="fill:#131414" d="M16 58 L17 58 L16 60 L16 62 L15 63 L14 69 C13.98 69.66 13.82 71.15 15 71 L15 72 L13 72 L12 67 L12 63 C13.06 61.76 15.06 60.01 15 58 L16 58 z"/>
<path style="fill:#9c9c9c" d="M22 58 L24 58 C22.85 59.16 23.29 60.69 25 61 C25.15 62.18 23.66 62.02 23 62 C23.15 60.82 21.66 60.98 21 61 C21.14 59.12 19.12 61.14 21 61 L17 62 C17.02 61.34 17.18 59.85 16 60 L17 58 C17.9 60.19 20.61 59.72 22 58 z"/>
<path style="fill:#0a0a0a" d="M37 58 L37 59 L36 58 L37 58 z"/>
<path style="fill:#f1f1f1" d="M47 58 C48.88 57.86 46.86 59.88 47 58 z"/>
<path style="fill:#c8c9c9" d="M50 58 C49.81 58.95 50.59 60.94 49 61 C49.19 60.05 48.41 58.06 50 58 z"/>
<path style="fill:#7c7d7d" d="M54 58 L55 58 C56.18 57.85 56.02 59.34 56 60 L56 61 L54 64 L53 64 L52 64 C52.43 62.94 50.57 62.94 51 64 L50 64 L49 63 L49 61 C50.59 60.94 49.81 58.95 50 58 C52.69 61.43 51.49 58.41 54 58 z"/>
<path style="fill:#9e9e9e" d="M69 58 L70 62 C68.56 61.98 66.61 61.24 66 60 L69 58 z"/>
<path style="fill:#242424" d="M70 58 L71 59 L71 60 L73 62 L74 63 L74 64 L74 65 L73 67 C74.66 71.44 68.32 78.06 65 76 C66.6 74.75 74.33 70.81 70 70 C72.19 68.02 71.19 66.63 71 64 L71 63 L70 62 L69 58 L70 58 z"/>
<path style="fill:#747474" d="M79 58 C78.81 58.95 79.59 60.94 78 61 C78.19 60.05 77.41 58.06 79 58 z"/>
<path style="fill:#999a9a" d="M8 61 C6.819 61.15 6.981 59.66 7 59 C8.181 58.85 8.019 60.34 8 61 z"/>
<path style="fill:#0" d="M39 59 L39 60 C37.94 60.43 37.94 58.57 39 59 z"/>
<path style="fill:#040404" d="M58 59 L57 60 L58 59 z"/>
<path style="fill:#c7c7c7" d="M66 60 L64 60 C63.78 58.67 66.22 58.67 66 60 z"/>
<path style="fill:#ebebeb" d="M72 59 L72 60 L71 60 L71 59 L72 59 z"/>
<path style="fill:#fbfcfc" d="M17 62 L16 62 L16 60 C17.18 59.85 17.02 61.34 17 62 z"/>
<path style="fill:#0f0f0f" d="M21 61 C19.12 61.14 21.14 59.12 21 61 z"/>
<path style="fill:#d1d1d1" d="M26 61 L25 61 C24.57 59.94 26.43 59.94 26 61 z"/>
<path style="fill:#080808" d="M57 60 L56 61 L56 60 L57 60 z"/>
<path style="fill:#636363" d="M66 60 C66.61 61.24 68.56 61.98 70 62 L71 63 L70 63 C68.65 65.06 67.49 64.32 65 65 L63 62 L64 60 L66 60 z"/>
<path style="fill:#888888" d="M72 60 L74 62 L73 62 L71 60 L72 60 z"/>
<path style="fill:#737373" d="M9 64 C7.408 63.94 8.19 61.95 8 61 C9.592 61.06 8.81 63.05 9 64 z"/>
<path style="fill:#717171" d="M21 61 C21.66 60.98 23.15 60.82 23 62 C21.12 61.86 23.14 63.88 23 62 C23.66 62.02 25.15 62.18 25 61 L26 61 L27 61 L28 62 L28 64 L23 66 L22 72 L22 73 C22.84 74.18 22.84 74.82 22 76 L22 79 C20.82 79.15 20.98 77.66 21 77 C21.59 74.55 20.58 73.15 19 72 C20.88 72.14 18.86 70.12 19 72 L16 72 L15 71 C13.82 71.15 13.98 69.66 14 69 C17.02 69.72 16.62 63.77 15 63 L16 62 L17 62 L21 61 z"/>
<path style="fill:#0" d="M28 62 L27 61 L28 62 z"/>
<path style="fill:#5b5b5b" d="M56 61 L60 65 L55 65 L54 64 L56 61 z"/>
<path style="fill:#d0d0d0" d="M23 62 C23.14 63.88 21.12 61.86 23 62 z"/>
<path style="fill:#202020" d="M29 62 L29 63 L29 64 L28 64 L28 62 L29 62 z"/>
<path style="fill:#fcfcfc" d="M30 62 L30 63 L29 63 L29 62 L30 62 z"/>
<path style="fill:#323232" d="M32 63 C32.15 64.18 30.66 64.02 30 64 L30 63 L30 62 L32 63 z"/>
<path style="fill:#141414" d="M49 63 L50 64 L51 64 L52 64 L53 64 L53 69 L53 71 L53 72 L51 72 L51 71 C53.92 68.25 49.85 65.5 51 71 L48 67 L48 66 C43.68 61.8 44.45 69.25 43 71 L43 67 C41.17 62.16 40.49 71.93 41 74 L40 74 L40 71 L39 70 C39.47 68.46 38.52 62.64 38 67 L36 68 L35 67 C33.65 67.46 32.54 66.35 33 65 L37 63 C40.87 61.91 45.03 61.58 49 63 z"/>
<path style="fill:#0" d="M62 62 L62 63 C60.94 63.43 60.94 61.57 62 62 z"/>
<path style="fill:#ffffff" d="M74 62 L74 63 L73 62 L74 62 z"/>
<path style="fill:#a8a8a8" d="M78 62 L77 63 L78 62 z"/>
<path style="fill:#d8d8d8" d="M14 69 L15 63 C16.62 63.77 17.02 69.72 14 69 z"/>
<path style="fill:#9d9d9d" d="M30 63 L30 64 L29 64 L29 63 L30 63 z"/>
<path style="fill:#d0d0d0" d="M34 63 L37 63 L33 65 C32.34 64.98 30.85 64.82 31 66 L23 66 L28 64 L29 64 C28.57 65.06 30.43 65.06 30 64 C30.66 64.02 32.15 64.18 32 63 L34 63 z"/>
<path style="fill:#f1f1f1" d="M50 64 L49 63 L50 64 z"/>
<path style="fill:#ececec" d="M52 64 L51 64 C50.57 62.94 52.43 62.94 52 64 z"/>
<path style="fill:#9d9e9e" d="M70 63 L71 64 C71.19 66.63 72.19 68.02 70 70 L66 70 L65 70 L65 69 L68.75 66.25 C67.27 65.95 65.46 67.68 65 65 C67.49 64.32 68.65 65.06 70 63 z"/>
<path style="fill:#fefefe" d="M71 63 L71 64 L70 63 L71 63 z"/>
<path style="fill:#aaaaaa" d="M75 64 L74 64 L74 63 L75 64 z"/>
<path style="fill:#1e1e1e" d="M30 64 C30.43 65.06 28.57 65.06 29 64 L30 64 z"/>
<path style="fill:#d5d6d6" d="M54 64 L55 65 C52.98 65.27 54.68 67.1 55 68 L53 69 L53 64 L54 64 z"/>
<path style="fill:#ffffff" d="M75 64 L75 65 L74 65 L74 64 L75 64 z"/>
<path style="fill:#7e7e7e" d="M33 65 C32.54 66.35 33.65 67.46 35 67 L35 69 L35 72 L33 72 C28.62 71.97 29.02 75.65 33 73 L35 74 C35.19 74.95 34.41 76.94 36 77 L37 78 L39 77 L35 84 C33.61 83.3 33.16 79.8 31 82 C31.15 80.82 29.66 80.98 29 81 C29.43 79.94 27.57 79.94 28 81 L23 79 C23.95 78.81 25.94 79.59 26 78 C27.86 79.18 31.87 75.64 28 76 C27.37 74.6 25.25 74.88 27 73 L27 72 C28.06 72.43 28.06 70.57 27 71 L26 70 L27 68 L31 66 C30.85 64.82 32.34 64.98 33 65 z"/>
<path style="fill:#e6e7e7" d="M39 70 C37.41 69.94 38.19 67.95 38 67 C38.52 62.64 39.47 68.46 39 70 z"/>
<path style="fill:#c0c1c1" d="M43 67 L41 74 C40.49 71.93 41.17 62.16 43 67 z"/>
<path style="fill:#676868" d="M48 66 L47 72 L45 74 L43 71 C44.45 69.25 43.68 61.8 48 66 z"/>
<path style="fill:#1c1d1d" d="M55 65 L62 66 C63.31 67.79 64.65 69.5 64 72 L63 72 C62.15 68.59 58.37 65.11 55 68 C54.68 67.1 52.98 65.27 55 65 z"/>
<path style="fill:#d8d8d8" d="M60 65 L62 65 L62 66 L55 65 L60 65 z"/>
<path style="fill:#585858" d="M65 65 C65.46 67.68 67.27 65.95 68.75 66.25 L65 69 C65.41 67.31 63.69 65.59 62 66 L62 65 L65 65 z"/>
<path style="fill:#858585" d="M75 65 L76 65 C75.74 66.29 74.34 67.33 73 67 L74 65 L75 65 z"/>
<path style="fill:#c7c8c8" d="M18 66 C21.22 65.27 18.7 68.52 18 66 z"/>
<path style="fill:#1d1d1d" d="M31 66 L27 68 C24.52 67.21 23.74 69.18 23 71 L23 72 L22 72 L23 66 L31 66 z"/>
<path style="fill:#d4d5d5" d="M48 66 L48 67 L48 72 L47 72 L48 66 z"/>
<path style="fill:#e4e5e5" d="M65 69 L65 70 L65 71 L64 72 C64.65 69.5 63.31 67.79 62 66 C63.69 65.59 65.41 67.31 65 69 z"/>
<path style="fill:#707070" d="M13 72 L12 67 L13 72 z"/>
<path style="fill:#cecece" d="M36 68 L36 69 L35 69 L35 67 L36 68 z"/>
<path style="fill:#535353" d="M38 67 C38.19 67.95 37.41 69.94 39 70 L40 71 C38.41 71.06 39.19 73.05 39 74 L37 73 L36 69 L36 68 L38 67 z"/>
<path style="fill:#7b7c7c" d="M43 67 L43 71 L45 74 L43 76 L42 76 L41 75 L41 74 L43 67 z"/>
<path style="fill:#898989" d="M51 71 L51 72 L50 72 L48 72 L48 67 L51 71 z"/>
<path style="fill:#e9eaea" d="M51 71 C49.85 65.5 53.92 68.25 51 71 z"/>
<path style="fill:#8c8d8d" d="M63 72 L59 71 L59 70 C57.74 67.4 54.77 70.5 53 71 L53 69 L55 68 C58.37 65.11 62.15 68.59 63 72 z"/>
<path style="fill:#969797" d="M27 68 L26 70 L26 71 C24.03 71.21 26.2 72.56 27 72 L27 73 L22 73 L22 72 L23 72 C24.06 72.43 24.06 70.57 23 71 C23.74 69.18 24.52 67.21 27 68 z"/>
<path style="fill:#f3f3f3" d="M18 69 C19.88 68.86 17.86 70.88 18 69 z"/>
<path style="fill:#dedede" d="M20 69 C21.88 68.86 19.86 70.88 20 69 z"/>
<path style="fill:#d3d3d3" d="M28 69 C31.64 68.55 28.87 72.73 28 69 z"/>
<path style="fill:#282828" d="M36 69 L37 73 C37.45 75.02 36.16 74.93 35 74 L35 72 L35 69 L36 69 z"/>
<path style="fill:#dbdcdc" d="M37 73 L36 69 L37 73 z"/>
<path style="fill:#cbcccc" d="M45 69 C47.52 69.7 44.27 72.22 45 69 z"/>
<path style="fill:#bcbdbd" d="M59 70 L56 71 L55 72 L53 72 L53 71 C54.77 70.5 57.74 67.4 59 70 z"/>
<path style="fill:#5c5c5c" d="M70 70 C68.81 72.94 66.01 73.6 66 71 L66 70 L70 70 z"/>
<path style="fill:#ffffff" d="M27 71 L26 71 L26 70 L27 71 z"/>
<path style="fill:#737474" d="M59 70 L59 71 C57.94 70.57 57.94 72.43 59 72 L60 73 C56.03 72.95 60.39 75.02 61 76 C58.48 76.93 60.75 80.24 63 79 L59 80 L59 78 L57 76 L56 72 L56 71 L59 70 z"/>
<path style="fill:#0" d="M66 70 L66 71 L65 71 L65 70 L66 70 z"/>
<path style="fill:#aaabab" d="M65 76 C64.81 75.05 65.59 73.06 64 73 L63 72 L64 72 L65 71 L66 71 C66.01 73.6 68.81 72.94 70 70 C74.33 70.81 66.6 74.75 65 76 z"/>
<path style="fill:#fdfdfd" d="M16 72 L15 72 L15 71 L16 72 z"/>
<path style="fill:#fefefe" d="M19 72 C18.86 70.12 20.88 72.14 19 72 z"/>
<path style="fill:#fcfcfc" d="M23 72 L23 71 C24.06 70.57 24.06 72.43 23 72 z"/>
<path style="fill:#2b2b2b" d="M26 71 L27 71 L27 72 C26.2 72.56 24.03 71.21 26 71 z"/>
<path style="fill:#efefef" d="M27 72 L27 71 C28.06 70.57 28.06 72.43 27 72 z"/>
<path style="fill:#f1f1f1" d="M40 71 L40 74 L39 74 C39.19 73.05 38.41 71.06 40 71 z"/>
<path style="fill:#0" d="M56 71 L56 72 L55 72 L56 71 z"/>
<path style="fill:#d3d3d3" d="M59 71 L59 72 C57.94 72.43 57.94 70.57 59 71 z"/>
<path style="fill:#2a2a2a" d="M63 72 L64 73 L63 79 C60.75 80.24 58.48 76.93 61 76 C60.86 77.88 62.88 75.86 61 76 C60.39 75.02 56.03 72.95 60 73 C59.85 74.18 61.34 74.02 62 74 C61.86 75.88 63.88 73.86 62 74 C62.15 72.82 60.66 72.98 60 73 L59 72 L59 71 L63 72 z"/>
<path style="fill:#727272" d="M16 72 L18 74 L16 74 C14.82 74.15 14.98 72.66 15 72 L16 72 z"/>
<path style="fill:#bdbebe" d="M19 72 C20.58 73.15 21.59 74.55 21 77 L20 77 L18 74 L16 72 L19 72 z"/>
<path style="fill:#3b3c3c" d="M33 72 L33 73 C29.02 75.65 28.62 71.97 33 72 z"/>
<path style="fill:#dedede" d="M35 72 L35 74 L33 73 L33 72 L35 72 z"/>
<path style="fill:#bebfbf" d="M47 72 C46.11 75.78 48.84 74.62 51 74 L51 75 L50 76 L46 77 C44.49 76.71 42.5 79.06 43 76 L45 74 L47 72 z"/>
<path style="fill:#595a5a" d="M48 72 L50 72 L51 74 C48.84 74.62 46.11 75.78 47 72 L48 72 z"/>
<path style="fill:#dcdddd" d="M51 72 L53 72 L51 74 L50 72 L51 72 z"/>
<path style="fill:#5d5d5d" d="M55 72 L53 76 L52 76 L51 75 L51 74 L53 72 L55 72 z"/>
<path style="fill:#919292" d="M56 72 L57 76 L53 76 L55 72 L56 72 z"/>
<path style="fill:#4e4f4f" d="M27 73 C25.25 74.88 27.37 74.6 28 76 C27.34 75.98 25.85 75.82 26 77 L25 77 C25.45 74.98 24.16 75.07 23 76 L22 76 C22.84 74.82 22.84 74.18 22 73 L27 73 z"/>
<path style="fill:#c8c8c8" d="M39 74 L39 75 C37.12 74.86 39.14 76.88 39 75 L40 74 L41 74 L41 75 L42 76 C41.69 77.71 40.16 78.15 39 77 L37 78 C37.56 77.2 36.21 75.03 36 77 C34.41 76.94 35.19 74.95 35 74 C36.16 74.93 37.45 75.02 37 73 L39 74 z"/>
<path style="fill:#9f9f9f" d="M62 74 C61.34 74.02 59.85 74.18 60 73 C60.66 72.98 62.15 72.82 62 74 z"/>
<path style="fill:#151515" d="M18 74 L20 77 L19 77 L18 76 L16 74 L18 74 z"/>
<path style="fill:#2e2e2e" d="M40 74 L39 75 L39 74 L40 74 z"/>
<path style="fill:#c7c7c7" d="M62 74 C63.88 73.86 61.86 75.88 62 74 z"/>
<path style="fill:#aeaeae" d="M25 77 C24.34 77.02 22.85 77.18 23 76 C24.16 75.07 25.45 74.98 25 77 z"/>
<path style="fill:#3d3d3d" d="M39 75 C39.14 76.88 37.12 74.86 39 75 z"/>
<path style="fill:#292929" d="M42 76 L41 75 L42 76 z"/>
<path style="fill:#5a5b5b" d="M51 75 L52 76 C51.57 77.06 53.43 77.06 53 76 L57 76 L59 78 C54.32 78.32 53.35 78.7 58 81 C58.15 82.18 56.66 82.02 56 82 C56.43 80.94 54.57 80.94 55 82 L52 82 L51 81 C52.73 77.9 52.43 78.81 50 76 L51 75 z"/>
<path style="fill:#b5b5b5" d="M52 76 L51 75 L52 76 z"/>
<path style="fill:#a7a7a7" d="M19 77 L18 76 L19 77 z"/>
<path style="fill:#060707" d="M23 76 C22.85 77.18 24.34 77.02 25 77 L26 78 C25.94 79.59 23.95 78.81 23 79 L22 79 L22 76 L23 76 z"/>
<path style="fill:#b5b6b6" d="M28 76 C28.15 77.18 26.66 77.02 26 77 C25.85 75.82 27.34 75.98 28 76 z"/>
<path style="fill:#383939" d="M26 78 L26 77 C26.66 77.02 28.15 77.18 28 76 C31.87 75.64 27.86 79.18 26 78 z"/>
<path style="fill:#202020" d="M37 78 L36 77 C36.21 75.03 37.56 77.2 37 78 z"/>
<path style="fill:#0e0f0f" d="M43 76 C42.5 79.06 44.49 76.71 46 77 L51 82 L52 82 C52.88 84.79 47.56 84.73 47 83 C46.09 80.43 44.15 83.47 45 85 C42.72 85.34 40.37 85.11 40.75 82.25 L35 84 L39 77 C40.16 78.15 41.69 77.71 42 76 L43 76 z"/>
<path style="fill:#8e8f8f" d="M50 76 C52.43 78.81 52.73 77.9 51 81 L51 82 L46 77 L50 76 z"/>
<path style="fill:#c1c1c1" d="M53 76 C53.43 77.06 51.57 77.06 52 76 L53 76 z"/>
<path style="fill:#c9c9c9" d="M61 76 C62.88 75.86 60.86 77.88 61 76 z"/>
<path style="fill:#b0b0b0" d="M26 77 L26 78 L25 77 L26 77 z"/>
<path style="fill:#9fa0a0" d="M59 78 L59 80 L58 81 C53.35 78.7 54.32 78.32 59 78 z"/>
<path style="fill:#0a0a0a" d="M29 81 L28 81 C27.57 79.94 29.43 79.94 29 81 z"/>
<path style="fill:#8b8b8b" d="M29 81 L29 82 L28 81 L29 81 z"/>
<path style="fill:#1c1c1c" d="M31 82 L29 82 L29 81 C29.66 80.98 31.15 80.82 31 82 z"/>
<path style="fill:#f9f9f9" d="M52 82 L51 82 L51 81 L52 82 z"/>
<path style="fill:#0" d="M56 82 L55 82 C54.57 80.94 56.43 80.94 56 82 z"/>
<path style="fill:#aaabab" d="M47 83 L45 85 C44.15 83.47 46.09 80.43 47 83 z"/>
</svg>
