<?xml version="1.0" standalone="yes"?>
<svg width="87" height="97">
<path style="fill:#fcfdfd" d="M87 0 L87 97 L0 97 L0 0 L87 0 z"/>
<path style="fill:#646464" d="M42 16 L37 17 L42 16 z"/>
<path style="fill:#070808" d="M46 16 L51 17 L52 17 C51.85 18.18 53.34 18.02 54 18 L58 19 L59 20 L61 21 L62 22 L65 24 L66 25 L67 26 L68 27 L69 28 L70 30 L71 31 L72 33 L73 34 L73 35 L74 36 L74 38 C73.98 38.66 73.82 40.15 75 40 C76.54 43.98 75.88 48.61 76 53 C74.41 53.06 75.19 55.05 75 56 L75 58 C73.82 57.85 73.98 59.34 74 60 L73 63 L72 64 L72 65 L71 66 L69 69 L68 70 L67 71 L66 72 L64 74 L63 75 L61 76 L60 77 L59 77 L58 78 L55 79 C54.34 78.98 52.85 78.82 53 80 L50 80 C49.34 79.98 47.85 79.82 48 81 L40 81 L36 80 L35 80 C35.15 78.82 33.66 78.98 33 79 L31 79 L30 78 L29 78 L28 77 L26 76 L25 75 L23 74 L22 73 L21 72 L20 71 L19 70 L18 69 L17 67 L16 66 L14 61 L13 60 L13 59 C13.02 58.34 13.18 56.85 12 57 L12 56 L12 53 L12 45 L12 41 L12 40 C13.18 40.15 13.02 38.66 13 38 L16 31 L17 30 L20 26 L21 25 L25 22 L26 21 L27 21 L28 20 L31 19 L32 18 L33 18 C33.66 18.02 35.15 18.18 35 17 L37 17 L42 16 L46 16 z"/>
<path style="fill:#7d7d7d" d="M51 17 L46 16 L51 17 z"/>
<path style="fill:#868787" d="M35 17 C35.15 18.18 33.66 18.02 33 18 C32.85 16.82 34.34 16.98 35 17 z"/>
<path style="fill:#7c7c7c" d="M54 18 C53.34 18.02 51.85 18.18 52 17 C52.66 16.98 54.15 16.82 54 18 z"/>
<path style="fill:#707070" d="M32 18 L31 19 L32 18 z"/>
<path style="fill:#a5a5a5" d="M59 20 L58 19 L59 20 z"/>
<path style="fill:#626262" d="M28 20 L27 21 L28 20 z"/>
<path style="fill:#8c8c8c" d="M26 21 L25 22 L26 21 z"/>
<path style="fill:#7b7b7b" d="M62 22 L61 21 L62 22 z"/>
<path style="fill:#909191" d="M48 23 L38 23 C39.99 21.34 46.01 21.34 48 23 z"/>
<path style="fill:#9e9e9e" d="M37 23 C37.15 24.18 35.66 24.02 35 24 C34.85 22.82 36.34 22.98 37 23 z"/>
<path style="fill:#fbfbfb" d="M38 23 L48 23 L50 23 C49.85 24.18 51.34 24.02 52 24 L56 25 L57 26 L59 27 L60 28 L61 29 L62 30 L63 31 L64 32 L65 33 L66 35 L67 36 L67 37 L68 38 L69 42 L70 46 L70 51 C68.41 51.06 69.19 53.05 69 54 L69 56 C67.82 55.85 67.98 57.34 68 58 L68 59 L67 60 L67 61 L66 48 L51 47 L51 34 C47.27 31.85 40.89 33.32 36.25 33.25 L36 47 L22 48 L20 60 L18 54 L18 43 L18 42 C19.18 42.15 19.02 40.66 19 40 L21 35 L22 34 L23 32 L24 31 L25 30 L26 29 L27 28 L29 27 L30 26 L32 25 C32.66 25.02 34.15 25.18 34 24 L35 24 C35.66 24.02 37.15 24.18 37 23 L38 23 z"/>
<path style="fill:#abacac" d="M52 24 C51.34 24.02 49.85 24.18 50 23 C50.66 22.98 52.15 22.82 52 24 z"/>
<path style="fill:#898a8a" d="M34 24 C34.15 25.18 32.66 25.02 32 25 C31.85 23.82 33.34 23.98 34 24 z"/>
<path style="fill:#888888" d="M66 25 L65 24 L66 25 z"/>
<path style="fill:#a1a1a1" d="M21 25 L20 26 L21 25 z"/>
<path style="fill:#666666" d="M57 26 L56 25 L57 26 z"/>
<path style="fill:#858585" d="M67 26 L66 25 L67 26 z"/>
<path style="fill:#9b9b9b" d="M30 26 L29 27 L30 26 z"/>
<path style="fill:#939393" d="M68 27 L67 26 L68 27 z"/>
<path style="fill:#6e6e6e" d="M60 28 L59 27 L60 28 z"/>
<path style="fill:#a3a3a3" d="M69 28 L68 27 L69 28 z"/>
<path style="fill:#787878" d="M27 28 L26 29 L27 28 z"/>
<path style="fill:#858585" d="M61 29 L60 28 L61 29 z"/>
<path style="fill:#8c8c8c" d="M26 29 L25 30 L26 29 z"/>
<path style="fill:#9a9a9a" d="M62 30 L61 29 L62 30 z"/>
<path style="fill:#9f9f9f" d="M17 30 L16 31 L17 30 z"/>
<path style="fill:#888888" d="M25 30 L24 31 L25 30 z"/>
<path style="fill:#666666" d="M71 31 L70 30 L71 31 z"/>
<path style="fill:#7f7f7f" d="M24 31 L23 32 L24 31 z"/>
<path style="fill:#a0a0a0" d="M64 32 L63 31 L64 32 z"/>
<path style="fill:#787878" d="M65 33 L64 32 L65 33 z"/>
<path style="fill:#545555" d="M51 34 L50 34 L37.25 34.25 L37 47 L37 48 L36 48 L36 47 L36.25 33.25 C40.89 33.32 47.27 31.85 51 34 z"/>
<path style="fill:#939393" d="M73 34 L72 33 L73 34 z"/>
<path style="fill:#929292" d="M22 34 L21 35 L22 34 z"/>
<path style="fill:#010101" d="M50 34 L49.75 46.75 L37 47 L37.25 34.25 L50 34 z"/>
<path style="fill:#343434" d="M51 34 L51 47 L51 48 L37 48 L37 47 L49.75 46.75 L50 34 L51 34 z"/>
<path style="fill:#777777" d="M67 36 L66 35 L67 36 z"/>
<path style="fill:#a7a7a7" d="M74 36 L73 35 L74 36 z"/>
<path style="fill:#7e7e7e" d="M68 38 L67 37 L68 38 z"/>
<path style="fill:#868686" d="M13 38 C13.02 38.66 13.18 40.15 12 40 C11.98 39.34 11.82 37.85 13 38 z"/>
<path style="fill:#626262" d="M75 40 C73.82 40.15 73.98 38.66 74 38 C75.18 37.85 75.02 39.34 75 40 z"/>
<path style="fill:#9fa0a0" d="M19 40 C19.02 40.66 19.18 42.15 18 42 C17.98 41.34 17.82 39.85 19 40 z"/>
<path style="fill:#939393" d="M12 41 L12 45 L11 45 L12 41 z"/>
<path style="fill:#7e7f7f" d="M70 46 L69 42 L70 46 z"/>
<path style="fill:#848484" d="M18 43 L18 54 C16.34 51.69 16.34 45.31 18 43 z"/>
<path style="fill:#343434" d="M12 45 L12 53 L11 53 L11 45 L12 45 z"/>
<path style="fill:#c7c7c7" d="M36 47 L36 48 L22 48 L36 47 z"/>
<path style="fill:#c8c8c8" d="M66 48 L65 48 L52 48 L51 48 L51 47 L66 48 z"/>
<path style="fill:#bcbdbd" d="M22 48 L22 62 L21 62 L20 61 L20 60 L22 48 z"/>
<path style="fill:#101" d="M36 48 L36 62 L22 62 L22 48 L36 48 z"/>
<path style="fill:#b6b7b7" d="M37 48 L36 62 L36 48 L37 48 z"/>
<path style="fill:#fbfbfb" d="M51 48 L51 62 L65 64 L64 65 L61 68 L60 69 L59 70 L57 71 L56 72 L55 72 L54 73 L53 73 C52.34 72.98 50.85 72.82 51 74 L50 74 L48 74 L38 74 L36 74 C36.15 72.82 34.66 72.98 34 73 C34.15 71.82 32.66 71.98 32 72 L31 72 L30 71 L28 70 L27 69 L26 68 L25 67 L24 66 L23 65 L22 64 L22 63 L36 62 L37 48 L51 48 z"/>
<path style="fill:#1f1f1f" d="M52 48 L52 62 L51 62 L51 48 L52 48 z"/>
<path style="fill:#101" d="M65 48 L65 62 L52 62 L52 48 L65 48 z"/>
<path style="fill:#747575" d="M66 48 L67 61 L66 62 L65 62 L65 48 L66 48 z"/>
<path style="fill:#989898" d="M70 51 C69.81 51.95 70.59 53.94 69 54 C69.19 53.05 68.41 51.06 70 51 z"/>
<path style="fill:#979898" d="M12 53 L12 56 C10.41 55.94 11.19 53.95 11 53 L12 53 z"/>
<path style="fill:#747474" d="M76 53 C75.81 53.95 76.59 55.94 75 56 C75.19 55.05 74.41 53.06 76 53 z"/>
<path style="fill:#8d8e8e" d="M69 56 C69.02 56.66 69.18 58.15 68 58 C67.98 57.34 67.82 55.85 69 56 z"/>
<path style="fill:#808080" d="M13 59 C11.82 59.15 11.98 57.66 12 57 C13.18 56.85 13.02 58.34 13 59 z"/>
<path style="fill:#999999" d="M75 58 C75.02 58.66 75.18 60.15 74 60 C73.98 59.34 73.82 57.85 75 58 z"/>
<path style="fill:#929292" d="M68 59 L67 60 L68 59 z"/>
<path style="fill:#666666" d="M14 61 L13 60 L14 61 z"/>
<path style="fill:#676767" d="M21 62 L20 61 L21 62 z"/>
<path style="fill:#a8a8a8" d="M22 62 L36 62 L22 63 L21 62 L22 62 z"/>
<path style="fill:#a3a4a4" d="M52 62 L65 62 L66 62 C66.02 62.66 66.18 64.15 65 64 L51 62 L52 62 z"/>
<path style="fill:#6f6f6f" d="M73 63 L72 64 L73 63 z"/>
<path style="fill:#606060" d="M23 65 L22 64 L23 65 z"/>
<path style="fill:#868686" d="M65 64 L64 65 L65 64 z"/>
<path style="fill:#7c7c7c" d="M24 66 L23 65 L24 66 z"/>
<path style="fill:#a5a5a5" d="M72 65 L71 66 L72 65 z"/>
<path style="fill:#828282" d="M17 67 L16 66 L17 67 z"/>
<path style="fill:#9c9c9c" d="M25 67 L24 66 L25 67 z"/>
<path style="fill:#a1a1a1" d="M26 68 L25 67 L26 68 z"/>
<path style="fill:#919191" d="M27 69 L26 68 L27 69 z"/>
<path style="fill:#a4a4a4" d="M61 68 L60 69 L61 68 z"/>
<path style="fill:#a4a4a4" d="M19 70 L18 69 L19 70 z"/>
<path style="fill:#696969" d="M28 70 L27 69 L28 70 z"/>
<path style="fill:#888888" d="M60 69 L59 70 L60 69 z"/>
<path style="fill:#858585" d="M69 69 L68 70 L69 69 z"/>
<path style="fill:#8d8d8d" d="M20 71 L19 70 L20 71 z"/>
<path style="fill:#626262" d="M68 70 L67 71 L68 70 z"/>
<path style="fill:#868686" d="M21 72 L20 71 L21 72 z"/>
<path style="fill:#6e6e6e" d="M31 72 L30 71 L31 72 z"/>
<path style="fill:#858585" d="M57 71 L56 72 L57 71 z"/>
<path style="fill:#6b6b6b" d="M67 71 L66 72 L67 71 z"/>
<path style="fill:#878787" d="M22 73 L21 72 L22 73 z"/>
<path style="fill:#a5a5a5" d="M34 73 C33.34 73.02 31.85 73.18 32 72 C32.66 71.98 34.15 71.82 34 73 z"/>
<path style="fill:#8a8a8a" d="M55 72 L54 73 L55 72 z"/>
<path style="fill:#a5a5a5" d="M66 72 C66.46 73.35 65.35 74.46 64 74 L66 72 z"/>
<path style="fill:#a0a0a0" d="M23 74 L22 73 L23 74 z"/>
<path style="fill:#787878" d="M36 74 C35.34 74.02 33.85 74.18 34 73 C34.66 72.98 36.15 72.82 36 74 z"/>
<path style="fill:#828383" d="M53 73 C53.15 74.18 51.66 74.02 51 74 C50.85 72.82 52.34 72.98 53 73 z"/>
<path style="fill:#acadad" d="M48 74 L48 75 L38 74 L48 74 z"/>
<path style="fill:#585858" d="M50 74 C50.15 75.18 48.66 75.02 48 75 L48 74 L50 74 z"/>
<path style="fill:#a7a7a7" d="M64 74 L63 75 L64 74 z"/>
<path style="fill:#6f6f6f" d="M26 76 L25 75 L26 76 z"/>
<path style="fill:#a5a5a5" d="M61 76 L60 77 L61 76 z"/>
<path style="fill:#939393" d="M29 78 L28 77 L29 78 z"/>
<path style="fill:#757575" d="M59 77 L58 78 L59 77 z"/>
<path style="fill:#a1a1a1" d="M31 79 L30 78 L31 79 z"/>
<path style="fill:#5a5b5b" d="M35 80 C34.34 80.02 32.85 80.18 33 79 C33.66 78.98 35.15 78.82 35 80 z"/>
<path style="fill:#9a9b9b" d="M55 79 C55.15 80.18 53.66 80.02 53 80 C52.85 78.82 54.34 78.98 55 79 z"/>
<path style="fill:#6c6c6c" d="M40 81 L36 80 L40 81 z"/>
<path style="fill:#606161" d="M50 80 C50.15 81.18 48.66 81.02 48 81 C47.85 79.82 49.34 79.98 50 80 z"/>
</svg>
