<?xml version="1.0" standalone="yes"?>
<svg width="87" height="97">
<path style="fill:#fcfdfd" d="M87 0 L87 97 L0 97 L0 0 L87 0 z"/>
<path style="fill:#606060" d="M40 17 L36 18 L40 17 z"/>
<path style="fill:#151616" d="M53 18 C52.85 19.18 54.34 19.02 55 19 L58 20 L59 21 L61 22 L62 23 L65 25 L66 26 L69 30 L70 31 L71 33 L72 34 L72 35 L73 36 C74.96 41.63 75.32 47.71 75 54 C73.82 53.85 73.98 55.34 74 56 L74 58 C72.82 57.85 72.98 59.34 73 60 L72 63 L71 64 L70 66 L69 67 L62 74 L61 75 L55 78 C54.34 77.98 52.85 77.82 53 79 L51 79 C50.34 78.98 48.85 78.82 49 80 L40 80 L36 79 L31 78 L30 77 L29 77 L28 76 L26 75 L25 74 L18 67 L17 66 L16 64 L15 63 L14 60 C14.02 59.34 14.18 57.85 13 58 C11.26 50.88 11.65 42.8 14 36 L15 35 L15 34 L16 33 L17 31 L18 30 L25 23 L26 22 L28 21 L29 20 L30 20 L31 19 L36 18 L40 17 L53 18 z"/>
<path style="fill:#9a9b9b" d="M55 19 C54.34 19.02 52.85 19.18 53 18 C53.66 17.98 55.15 17.82 55 19 z"/>
<path style="fill:#9e9e9e" d="M31 19 L30 20 L31 19 z"/>
<path style="fill:#6f6f6f" d="M50 20 C46.78 19.98 49.3 20.84 50 22 L50 23 C47.79 21.88 45.7 20.44 43 21 L43 20 C44.8 18.86 48.75 18.05 50 20 z"/>
<path style="fill:#969696" d="M29 20 L28 21 L29 20 z"/>
<path style="fill:#b9b9b9" d="M43 20 L43 21 L36 21 L43 20 z"/>
<path style="fill:#cccccc" d="M50 20 L55 22 C54.34 21.98 52.85 21.82 53 23 L50 22 C49.3 20.84 46.78 19.98 50 20 z"/>
<path style="fill:#9c9c9c" d="M59 21 L58 20 L59 21 z"/>
<path style="fill:#f8f8f8" d="M36 21 L43 21 C45.7 20.44 47.79 21.88 50 23 L54 26 L55 29 C54.98 29.66 54.82 31.15 56 31 L56 36 C54.82 35.85 54.98 37.34 55 38 L55 39 L54 40 L51 44 C49.56 44.02 47.61 44.76 47 46 L40 46 L34 42 L33 41 L32 38 L31 37 C30.94 35.45 31.68 32.29 29 33 L28 34 L27 34 L26 35 L25 36 L23 38 L22 39 L21 40 L20 42 L19 43 L19 44 L18 45 L18 46 C16.82 45.85 16.98 47.34 17 48 L17 49 L15 57 L14 46 L15 42 L17 35 L18 34 L19 32 L20 31 L26 25 L27 24 C29.94 22.79 32.51 20.34 36 21 z"/>
<path style="fill:#6f6f6f" d="M26 22 L25 23 L26 22 z"/>
<path style="fill:#484848" d="M53 23 L55 25 L54 26 L50 23 L50 22 L53 23 z"/>
<path style="fill:#fafafa" d="M55 22 L56 22 L57 23 L58 23 L59 24 L62 26 L63 27 L64 28 L65 29 L66 30 L69 35 L70 36 L71 40 C70.98 40.66 70.82 42.15 72 42 L72 44 L72 52 L72 54 C70.82 53.85 70.98 55.34 71 56 L71 57 L70 58 L70 59 L69 60 L69 61 L65 66 C62.88 66.29 60.28 67.48 59 69 L54 69 C54.15 67.82 52.66 67.98 52 68 L51 68 L50 67 L46 63 L45 62 L45 61 L44 60 L44 58 L44 54 L44 53 C45.18 53.15 45.02 51.66 45 51 L45 50 L46 49 L48 46 C49.44 45.98 51.39 45.24 52 44 L54 44 L59 44 L62 45 C64.71 48.24 64.86 38.8 63 38 L63 37 C63.02 36.34 63.18 34.85 62 35 L62 34 C62.02 33.34 62.18 31.85 61 32 L60 30 L59 29 L55 25 L53 23 C52.85 21.82 54.34 21.98 55 22 z"/>
<path style="fill:#939393" d="M57 23 L56 22 L57 23 z"/>
<path style="fill:#767676" d="M62 23 L61 22 L62 23 z"/>
<path style="fill:#707070" d="M59 24 L58 23 L59 24 z"/>
<path style="fill:#787878" d="M27 24 L26 25 L27 24 z"/>
<path style="fill:#0b0c0c" d="M55 25 L59 29 L60 30 L61 32 C60.98 32.66 60.82 34.15 62 34 L62 35 C61.98 35.66 61.82 37.15 63 37 L63 38 L62 45 L59 44 C58.55 42.4 54.45 42.4 54 44 L52 44 L51 44 L54 40 L55 39 L55 38 C56.18 38.15 56.02 36.66 56 36 L56 31 C56.02 30.34 56.18 28.85 55 29 L54 26 L55 25 z"/>
<path style="fill:#a0a0a0" d="M66 26 L65 25 L66 26 z"/>
<path style="fill:#7b7b7b" d="M63 27 L62 26 L63 27 z"/>
<path style="fill:#8b8b8b" d="M64 28 L63 27 L64 28 z"/>
<path style="fill:#858585" d="M65 29 L64 28 L65 29 z"/>
<path style="fill:#969696" d="M56 31 C54.82 31.15 54.98 29.66 55 29 C56.18 28.85 56.02 30.34 56 31 z"/>
<path style="fill:#858585" d="M60 30 L59 29 L60 30 z"/>
<path style="fill:#747474" d="M66 30 L65 29 L66 30 z"/>
<path style="fill:#777777" d="M18 30 L17 31 L18 30 z"/>
<path style="fill:#707070" d="M70 31 L69 30 L70 31 z"/>
<path style="fill:#949494" d="M20 31 L19 32 L20 31 z"/>
<path style="fill:#858686" d="M62 34 C60.82 34.15 60.98 32.66 61 32 C62.18 31.85 62.02 33.34 62 34 z"/>
<path style="fill:#989898" d="M16 33 L15 34 L16 33 z"/>
<path style="fill:#6d6d6d" d="M29 33 L28 34 L29 33 z"/>
<path style="fill:#090a0a" d="M31 37 L32 38 L33 41 L34 42 L33 43 L26 44 C25.34 43.98 23.85 43.82 24 45 L22 46 L21 47 L20 48 L19 50 L18 51 L18 53 L17 49 L17 48 C18.18 48.15 18.02 46.66 18 46 L18 45 L19 44 L19 43 L20 42 L21 40 L22 39 L23 38 L25 36 L26 35 L27 34 L28 34 L29 33 C31.68 32.29 30.94 35.45 31 37 z"/>
<path style="fill:#9f9f9f" d="M72 34 L71 33 L72 34 z"/>
<path style="fill:#747474" d="M18 34 L17 35 L18 34 z"/>
<path style="fill:#9a9a9a" d="M27 34 L26 35 L27 34 z"/>
<path style="fill:#a2a2a2" d="M15 35 L14 36 L15 35 z"/>
<path style="fill:#6a6a6a" d="M26 35 L25 36 L26 35 z"/>
<path style="fill:#6b6c6c" d="M63 37 C61.82 37.15 61.98 35.66 62 35 C63.18 34.85 63.02 36.34 63 37 z"/>
<path style="fill:#767676" d="M70 36 L69 35 L70 36 z"/>
<path style="fill:#9b9b9b" d="M73 36 L72 35 L73 36 z"/>
<path style="fill:#7f8080" d="M56 36 C56.02 36.66 56.18 38.15 55 38 C54.98 37.34 54.82 35.85 56 36 z"/>
<path style="fill:#9d9d9d" d="M32 38 L31 37 L32 38 z"/>
<path style="fill:#5e5e5e" d="M23 38 L22 39 L23 38 z"/>
<path style="fill:#848484" d="M62 45 L63 38 C64.86 38.8 64.71 48.24 62 45 z"/>
<path style="fill:#7b7b7b" d="M22 39 L21 40 L22 39 z"/>
<path style="fill:#858585" d="M55 39 L54 40 L55 39 z"/>
<path style="fill:#777878" d="M72 42 C70.82 42.15 70.98 40.66 71 40 C72.18 39.85 72.02 41.34 72 42 z"/>
<path style="fill:#686868" d="M34 42 L33 41 L34 42 z"/>
<path style="fill:#a0a0a0" d="M15 42 L14 46 L15 42 z"/>
<path style="fill:#797979" d="M20 42 L19 43 L20 42 z"/>
<path style="fill:#525252" d="M40 46 L39 47 L33 44 L33 43 L34 42 L40 46 z"/>
<path style="fill:#909191" d="M33 43 L33 44 L26 44 L33 43 z"/>
<path style="fill:#717171" d="M59 44 L54 44 C54.45 42.4 58.55 42.4 59 44 z"/>
<path style="fill:#6b6b6b" d="M19 44 L18 45 L19 44 z"/>
<path style="fill:#a0a0a0" d="M26 44 C26.15 45.18 24.66 45.02 24 45 C23.85 43.82 25.34 43.98 26 44 z"/>
<path style="fill:#f9fafa" d="M33 44 L39 47 L40 48 L41 50 L42 51 L42 52 L42 59 L42 61 L41 62 L40 64 L39 65 L38 66 C35.86 66.21 35.86 68.79 38 69 L39 70 L40 70 C39.85 71.18 41.34 71.02 42 71 L43 71 C42.85 72.18 44.34 72.02 45 72 L58 71 L59 70 L60 70 L63 69 L63 70 L62 71 L59 73 L58 74 L57 74 L56 75 L53 76 C52.34 75.98 50.85 75.82 51 77 L48 77 L38 77 L36 77 C36.15 75.82 34.66 75.98 34 76 L27 73 L26 72 L25 71 L23 69 L22 68 L21 67 L19 63 L18 53 L18 51 L19 50 L20 48 L21 47 L22 46 L24 45 C24.66 45.02 26.15 45.18 26 44 L33 44 z"/>
<path style="fill:#565656" d="M51 44 L52 44 C51.39 45.24 49.44 45.98 48 46 L47 46 C47.61 44.76 49.56 44.02 51 44 z"/>
<path style="fill:#626262" d="M72 52 L72 44 C73.65 45.34 73.65 50.66 72 52 z"/>
<path style="fill:#787979" d="M18 46 C18.02 46.66 18.18 48.15 17 48 C16.98 47.34 16.82 45.85 18 46 z"/>
<path style="fill:#646464" d="M22 46 L21 47 L22 46 z"/>
<path style="fill:#0d0e0e" d="M40 46 L47 46 L48 46 L46 49 L45 50 L45 51 C43.82 50.85 43.98 52.34 44 53 L44 54 L42 52 L42 51 L41 50 L40 48 L39 47 L40 46 z"/>
<path style="fill:#686868" d="M21 47 L20 48 L21 47 z"/>
<path style="fill:#7b7b7b" d="M40 48 L39 47 L40 48 z"/>
<path style="fill:#7e7e7e" d="M17 49 L18 53 L19 63 C16.32 63.08 15.6 59.1 15 57 L17 49 z"/>
<path style="fill:#7a7a7a" d="M46 49 L45 50 L46 49 z"/>
<path style="fill:#656565" d="M19 50 L18 51 L19 50 z"/>
<path style="fill:#747474" d="M42 51 L41 50 L42 51 z"/>
<path style="fill:#abacac" d="M45 51 C45.02 51.66 45.18 53.15 44 53 C43.98 52.34 43.82 50.85 45 51 z"/>
<path style="fill:#757575" d="M44 54 L44 58 L42 59 L42 52 L44 54 z"/>
<path style="fill:#7e7e7e" d="M72 54 C72.02 54.66 72.18 56.15 71 56 C70.98 55.34 70.82 53.85 72 54 z"/>
<path style="fill:#848484" d="M75 54 C75.02 54.66 75.18 56.15 74 56 C73.98 55.34 73.82 53.85 75 54 z"/>
<path style="fill:#9a9a9a" d="M71 57 L70 58 L71 57 z"/>
<path style="fill:#9e9e9e" d="M14 60 C12.82 60.15 12.98 58.66 13 58 C14.18 57.85 14.02 59.34 14 60 z"/>
<path style="fill:#0d0d0d" d="M44 58 L44 60 L45 61 L45 62 L46 63 L50 67 L51 68 L52 68 C51.85 69.18 53.34 69.02 54 69 L59 69 L60 70 L59 70 L58 71 L45 72 C45.15 70.82 43.66 70.98 43 71 L42 71 C42.15 69.82 40.66 69.98 40 70 L39 70 L38 69 C35.86 68.79 35.86 66.21 38 66 L39 65 L40 64 L41 62 L42 61 L42 59 L44 58 z"/>
<path style="fill:#a1a1a1" d="M74 58 C74.02 58.66 74.18 60.15 73 60 C72.98 59.34 72.82 57.85 74 58 z"/>
<path style="fill:#9f9f9f" d="M70 59 L69 60 L70 59 z"/>
<path style="fill:#a1a1a1" d="M45 61 L44 60 L45 61 z"/>
<path style="fill:#6e6e6e" d="M42 61 L41 62 L42 61 z"/>
<path style="fill:#595959" d="M69 61 C69.15 63.25 68.21 66.1 66 67 L65 66 L69 61 z"/>
<path style="fill:#a7a7a7" d="M46 63 L45 62 L46 63 z"/>
<path style="fill:#9c9c9c" d="M16 64 L15 63 L16 64 z"/>
<path style="fill:#9e9e9e" d="M72 63 L71 64 L72 63 z"/>
<path style="fill:#777777" d="M40 64 L39 65 L40 64 z"/>
<path style="fill:#777777" d="M39 65 L38 66 L39 65 z"/>
<path style="fill:#747474" d="M18 67 L17 66 L18 67 z"/>
<path style="fill:#5f6060" d="M65 66 L63 69 L60 70 L59 69 C60.28 67.48 62.88 66.29 65 66 z"/>
<path style="fill:#bbbbbb" d="M66 67 L63 70 L63 69 L65 66 L66 67 z"/>
<path style="fill:#797979" d="M70 66 L69 67 L70 66 z"/>
<path style="fill:#707070" d="M22 68 L21 67 L22 68 z"/>
<path style="fill:#707070" d="M51 68 L50 67 L51 68 z"/>
<path style="fill:#9d9d9d" d="M23 69 L22 68 L23 69 z"/>
<path style="fill:#6c6d6d" d="M54 69 C53.34 69.02 51.85 69.18 52 68 C52.66 67.98 54.15 67.82 54 69 z"/>
<path style="fill:#a0a0a0" d="M39 70 L38 69 L39 70 z"/>
<path style="fill:#8a8b8b" d="M42 71 C41.34 71.02 39.85 71.18 40 70 C40.66 69.98 42.15 69.82 42 71 z"/>
<path style="fill:#9a9a9a" d="M59 70 L58 71 L59 70 z"/>
<path style="fill:#8f8f8f" d="M63 70 L62 71 L63 70 z"/>
<path style="fill:#9e9e9e" d="M26 72 L25 71 L26 72 z"/>
<path style="fill:#939393" d="M45 72 C44.34 72.02 42.85 72.18 43 71 C43.66 70.98 45.15 70.82 45 72 z"/>
<path style="fill:#737373" d="M27 73 L26 72 L27 73 z"/>
<path style="fill:#747474" d="M59 73 L58 74 L59 73 z"/>
<path style="fill:#727272" d="M26 75 L25 74 L26 75 z"/>
<path style="fill:#979797" d="M57 74 L56 75 L57 74 z"/>
<path style="fill:#7f7f7f" d="M62 74 L61 75 L62 74 z"/>
<path style="fill:#979797" d="M29 77 L28 76 L29 77 z"/>
<path style="fill:#838484" d="M36 77 C35.34 77.02 33.85 77.18 34 76 C34.66 75.98 36.15 75.82 36 77 z"/>
<path style="fill:#656565" d="M53 76 C53.15 77.18 51.66 77.02 51 77 C50.85 75.82 52.34 75.98 53 76 z"/>
<path style="fill:#9b9b9b" d="M31 78 L30 77 L31 78 z"/>
<path style="fill:#979898" d="M48 77 C46.01 78.66 39.99 78.66 38 77 L48 77 z"/>
<path style="fill:#969696" d="M55 78 C55.15 79.18 53.66 79.02 53 79 C52.85 77.82 54.34 77.98 55 78 z"/>
<path style="fill:#5f5f5f" d="M40 80 L36 79 L40 80 z"/>
<path style="fill:#858686" d="M51 79 C51.15 80.18 49.66 80.02 49 80 C48.85 78.82 50.34 78.98 51 79 z"/>
</svg>
