<?xml version="1.0" standalone="yes"?>
<svg width="87" height="97">
<path style="fill:#fdfdfd" d="M87 0 L87 97 L52 97 C50.34 95.35 44.66 95.35 43 97 L0 97 L0 0 L87 0 z"/>
<path style="fill:#a9aaaa" d="M38 26 C38.15 27.18 36.66 27.02 36 27 C35.85 25.82 37.34 25.98 38 26 z"/>
<path style="fill:#121313" d="M42 26 C42.84 27.18 42.84 27.82 42 29 C40.49 28.41 36.1 29.42 39 31 C40.25 29.89 43.67 29.15 43 32 L43 36 L40.25 35.75 L40 33 C37.83 31.33 38.75 39.87 43 37 L42 49 C42.16 53.22 41.56 52.99 40 50 C40.25 45.64 38.06 41.98 37 38 C36.96 35.93 36.41 33.19 35 32 L34 28 C33.85 26.82 35.34 26.98 36 27 C36.66 27.02 38.15 27.18 38 26 L42 26 z"/>
<path style="fill:#5e5e5e" d="M49 27 C47.27 27.3 43.36 25.9 44 29 L42 29 C42.84 27.82 42.84 27.18 42 26 L49 27 z"/>
<path style="fill:#080808" d="M49 27 L51 27 C52.71 32.25 45.39 26.33 47 32 C45.38 32.77 44.98 38.72 48 38 L45 52 L44 43 L44 32 L44 29 C43.36 25.9 47.27 27.3 49 27 z"/>
<path style="fill:#777878" d="M56 29 C47.46 31.65 50.57 45.95 45 52 L48 38 L49 36 C51.64 34.26 48.63 28.1 48 33 L47 32 C45.39 26.33 52.71 32.25 51 27 L56 29 z"/>
<path style="fill:#9f9f9f" d="M31 28 L30 29 L31 28 z"/>
<path style="fill:#121212" d="M33 28 C30.73 31.18 29.34 37.33 35 39 L36 39 L40 50 L40 54 L34 46 C33.8 44.15 32.97 41.68 31 41 C31.02 40.34 31.18 38.85 30 39 L27 30 L28 30 L29 29 L30 29 L31 28 L33 28 z"/>
<path style="fill:#8e8e8e" d="M34 28 L35 32 L34 33 C31.08 30.11 32.67 35.69 34 37 L35 39 C29.34 37.33 30.73 31.18 33 28 L34 28 z"/>
<path style="fill:#858585" d="M29 29 L28 30 L29 29 z"/>
<path style="fill:#858686" d="M42 29 L44 29 L44 32 L43 32 C43.67 29.15 40.25 29.89 39 31 C36.1 29.42 40.49 28.41 42 29 z"/>
<path style="fill:#121313" d="M56 29 L57 29 L58 30 L59 30 L60 31 L59.75 32.75 C54.01 30.05 50.41 37.92 54 42 C51.02 44.85 48.09 48.9 47 53 C45.84 53.93 44.55 54.02 45 52 C50.57 45.95 47.46 31.65 56 29 z"/>
<path style="fill:#a9a9a9" d="M58 30 L57 29 L58 30 z"/>
<path style="fill:#7e7f7f" d="M27 30 L30 39 L26 35 C26.67 32.89 24.42 32.79 23 33 L27 30 z"/>
<path style="fill:#9e9e9e" d="M60 31 L59 30 L60 31 z"/>
<path style="fill:#050505" d="M49 36 C47.41 35.94 48.19 33.95 48 33 C48.63 28.1 51.64 34.26 49 36 z"/>
<path style="fill:#8a8a8a" d="M61 32 C61.33 33.85 59.46 35.33 58 36 C57.72 29.82 50.51 39.36 56 39 L55 42 L54 42 C50.41 37.92 54.01 30.05 59.75 32.75 L60 31 L61 32 z"/>
<path style="fill:#101010" d="M34 33 C34.62 34.07 36.05 36.54 34 37 C32.67 35.69 31.08 30.11 34 33 z"/>
<path style="fill:#737373" d="M37 38 L36 39 L35 39 L34 37 C36.05 36.54 34.62 34.07 34 33 L35 32 C36.41 33.19 36.96 35.93 37 38 z"/>
<path style="fill:#9b9c9c" d="M43 36 L43 37 C38.75 39.87 37.83 31.33 40 33 L40.25 35.75 L43 36 z"/>
<path style="fill:#696969" d="M44 32 L44 43 L42 49 L43 37 L43 36 L43 32 L44 32 z"/>
<path style="fill:#606060" d="M47 32 L48 33 C48.19 33.95 47.41 35.94 49 36 L48 38 C44.98 38.72 45.38 32.77 47 32 z"/>
<path style="fill:#0f1010" d="M62 32 L63 33 L64 34 L65 35 L66 36 L67 37 C67.36 40.66 64.32 37.87 63 37 L58 42 L59 46 C57.15 45.67 55.67 47.54 55 49 C52.32 49.04 50.43 52.05 49 54 C48.34 54.02 46.85 54.18 47 53 L55 42 L56 39 C57.29 38.74 58.33 37.34 58 36 C59.46 35.33 61.33 33.85 61 32 L62 32 z"/>
<path style="fill:#989898" d="M63 33 L62 32 L63 33 z"/>
<path style="fill:#9c9c9c" d="M23 33 L22 34 L23 33 z"/>
<path style="fill:#111212" d="M26 35 C22.11 34.6 24.7 39.67 27 40 C25.99 42.09 29.75 42.96 30 41 L31 41 C31.2 42.85 32.03 45.32 34 46 L38 55 L27 46 C27.41 44.31 25.69 42.59 24 43 L23 42 L22 41 L20 39 L20 36 L21 35 L22 34 L23 33 C24.42 32.79 26.67 32.89 26 35 z"/>
<path style="fill:#7c7c7c" d="M64 34 L63 33 L64 34 z"/>
<path style="fill:#8e8e8e" d="M22 34 L21 35 L22 34 z"/>
<path style="fill:#141414" d="M58 36 C56.71 36.26 55.67 37.66 56 39 C50.51 39.36 57.72 29.82 58 36 z"/>
<path style="fill:#818181" d="M65 35 L64 34 L65 35 z"/>
<path style="fill:#6d6d6d" d="M21 35 L20 36 L21 35 z"/>
<path style="fill:#888989" d="M26 35 L27 40 C24.7 39.67 22.11 34.6 26 35 z"/>
<path style="fill:#212121" d="M30 39 L30 41 L27 40 L26 35 L30 39 z"/>
<path style="fill:#767676" d="M66 36 L65 35 L66 36 z"/>
<path style="fill:#777777" d="M20 36 L20 39 L18 39 L20 36 z"/>
<path style="fill:#999999" d="M58 36 C58.33 37.34 57.29 38.74 56 39 C55.67 37.66 56.71 36.26 58 36 z"/>
<path style="fill:#848484" d="M67 37 L66 36 L67 37 z"/>
<path style="fill:#878787" d="M67 37 L70 41 L64 42 C64.77 36.78 60.85 40.53 59 42 L58 42 L63 37 C64.32 37.87 67.36 40.66 67 37 z"/>
<path style="fill:#909191" d="M37 38 C38.06 41.98 40.25 45.64 40 50 L36 39 L37 38 z"/>
<path style="fill:#111212" d="M18 39 L20 39 L20 41 C14.48 42.1 25.24 50.76 25 46 L27 46 L37 58 L34 57 L33 56 L32 55 L29 54 L28 53 C28.15 51.82 26.66 51.98 26 52 C25.94 50.41 23.95 51.19 23 51 L19 48 C19.15 46.82 17.66 46.98 17 47 L16 46 L15 46 L15 43 C16.18 43.15 16.02 41.66 16 41 L17 40 L18 39 z"/>
<path style="fill:#a9a9a9" d="M22 41 L20 41 L20 39 L22 41 z"/>
<path style="fill:#afb0b0" d="M31 41 L30 41 L30 39 C31.18 38.85 31.02 40.34 31 41 z"/>
<path style="fill:#141414" d="M64 42 L63 43 C61.34 43.05 59.52 44.7 59 42 C60.85 40.53 64.77 36.78 64 42 z"/>
<path style="fill:#808080" d="M17 40 L16 41 L17 40 z"/>
<path style="fill:#959696" d="M30 41 C29.75 42.96 25.99 42.09 27 40 L30 41 z"/>
<path style="fill:#111212" d="M70 41 C71.18 40.85 71.02 42.34 71 43 L72 44 L72 46 L71 47 C65.94 44.28 58.66 46.42 59 53 C59.15 54.18 57.66 54.02 57 54 L56 55 L54 56 L53 57 L50 58 L49 59 L48 59 C47.34 58.98 45.85 58.82 46 60 L43 60 L43 59 L44 58 L47 56 L49 54 C51.68 53.96 53.57 50.95 55 49 C56.85 49.33 58.33 47.46 59 46 C60.85 46.33 62.33 44.46 63 43 L64 42 L70 41 z"/>
<path style="fill:#7f7f7f" d="M16 41 C16.02 41.66 16.18 43.15 15 43 C14.98 42.34 14.82 40.85 16 41 z"/>
<path style="fill:#868787" d="M20 41 C20.03 43.34 22.66 45.97 25 46 C25.24 50.76 14.48 42.1 20 41 z"/>
<path style="fill:#141414" d="M22 41 L23 42 L24 43 L25 46 C22.66 45.97 20.03 43.34 20 41 L22 41 z"/>
<path style="fill:#b4b4b4" d="M23 42 L22 41 L23 42 z"/>
<path style="fill:#8b8b8b" d="M34 46 C32.03 45.32 31.2 42.85 31 41 C32.97 41.68 33.8 44.15 34 46 z"/>
<path style="fill:#adadad" d="M24 43 L23 42 L24 43 z"/>
<path style="fill:#727272" d="M54 42 L55 42 L47 53 C48.09 48.9 51.02 44.85 54 42 z"/>
<path style="fill:#9a9a9a" d="M59 42 C59.52 44.7 61.34 43.05 63 43 C62.33 44.46 60.85 46.33 59 46 L58 42 L59 42 z"/>
<path style="fill:#b3b3b3" d="M64 42 L63 43 L64 42 z"/>
<path style="fill:#888888" d="M15 43 L15 46 C13.52 46.04 13.52 42.96 15 43 z"/>
<path style="fill:#919191" d="M27 46 L25 46 L24 43 C25.69 42.59 27.41 44.31 27 46 z"/>
<path style="fill:#818181" d="M44 43 L45 52 C44.55 54.02 45.84 53.93 47 53 C46.85 54.18 48.34 54.02 49 54 L47 56 C43.8 52.38 40 63.48 37 58 L27 46 L38 55 C38.18 58.65 42.96 55.09 40 54 L40 50 C41.56 52.99 42.16 53.22 42 49 L44 43 z"/>
<path style="fill:#818181" d="M72 44 L71 43 L72 44 z"/>
<path style="fill:#828282" d="M17 47 L16 46 L17 47 z"/>
<path style="fill:#676767" d="M40 54 C42.96 55.09 38.18 58.65 38 55 L34 46 L40 54 z"/>
<path style="fill:#797a7a" d="M59 46 C58.33 47.46 56.85 49.33 55 49 C55.67 47.54 57.15 45.67 59 46 z"/>
<path style="fill:#939494" d="M71 47 C70.12 50.98 68.75 54.39 65 56 L61 55 C61.06 53.41 63.05 54.19 64 54 L65.75 53.75 C63.23 47.72 70.35 54.38 68.75 48.25 C66.68 48.28 60.02 49.43 62 52 C61.34 51.98 59.85 51.82 60 53 L59 53 C58.66 46.42 65.94 44.28 71 47 z"/>
<path style="fill:#696969" d="M72 46 L71 47 L72 46 z"/>
<path style="fill:#969696" d="M19 48 C17.41 48.06 18.19 50.05 18 51 L17 47 C17.66 46.98 19.15 46.82 19 48 z"/>
<path style="fill:#dedfdf" d="M19 48 L23 51 C21.72 57.04 22.57 49.97 18 51 C18.19 50.05 17.41 48.06 19 48 z"/>
<path style="fill:#efefef" d="M64 54 C64.46 52.65 63.35 51.54 62 52 C60.02 49.43 66.68 48.28 68.75 48.25 C70.35 54.38 63.23 47.72 65.75 53.75 L64 54 z"/>
<path style="fill:#757676" d="M55 49 C53.57 50.95 51.68 53.96 49 54 C50.43 52.05 52.32 49.04 55 49 z"/>
<path style="fill:#959595" d="M23 51 C23.95 51.19 25.94 50.41 26 52 C21.42 51.3 28.58 55.7 24 55 C23.34 54.98 21.85 54.82 22 56 L20 56 L18 51 C22.57 49.97 21.72 57.04 23 51 z"/>
<path style="fill:#e2e2e2" d="M26 52 C25.85 53.18 27.34 53.02 28 53 C27.26 54.88 29.24 57.25 29 54 L32 55 L33 56 L34 57 L33 57 L25 56 L24 55 C28.58 55.7 21.42 51.3 26 52 z"/>
<path style="fill:#696969" d="M28 53 C27.34 53.02 25.85 53.18 26 52 C26.66 51.98 28.15 51.82 28 53 z"/>
<path style="fill:#bdbebe" d="M62 52 C63.35 51.54 64.46 52.65 64 54 C63.05 54.19 61.06 53.41 61 55 C59.82 55.15 59.98 53.66 60 53 C59.85 51.82 61.34 51.98 62 52 z"/>
<path style="fill:#8b8c8c" d="M29 54 C29.24 57.25 27.26 54.88 28 53 L29 54 z"/>
<path style="fill:#717171" d="M57 54 L56 55 L57 54 z"/>
<path style="fill:#828282" d="M33 56 L32 55 L33 56 z"/>
<path style="fill:#9c9d9d" d="M59 57 L56 59 L53 57 L54 56 C55.62 60.15 59.46 52.65 59 57 z"/>
<path style="fill:#616161" d="M20 56 C19.54 57.35 20.65 58.46 22 58 L23 60 C19.98 59.57 18.61 60.12 20 63 C16.49 62.08 18.62 57.37 20 56 z"/>
<path style="fill:#090a0a" d="M22 56 L22 58 C20.65 58.46 19.54 57.35 20 56 L22 56 z"/>
<path style="fill:#818282" d="M33 57 L29 60 L28 60 L25 56 L33 57 z"/>
<path style="fill:#767676" d="M56 59 L59 57 C64.73 54.34 59.63 60.93 56 59 z"/>
<path style="fill:#353636" d="M67 57 C67.46 58.35 66.35 59.46 65 59 L65 58 L65 57 L65 56 C65.66 55.98 67.15 55.82 67 57 z"/>
<path style="fill:#989898" d="M65 57 L65 58 C63.94 58.43 63.94 56.57 65 57 z"/>
<path style="fill:#898989" d="M68 60 C66.45 60.06 63.29 59.32 64 62 C62.04 61.75 62.91 57.99 65 59 C66.35 59.46 67.46 58.35 67 57 C68.59 57.06 67.81 59.05 68 60 z"/>
<path style="fill:#a6a6a6" d="M44 58 L43 59 L44 58 z"/>
<path style="fill:#a2a2a2" d="M50 58 L49 59 L50 58 z"/>
<path style="fill:#858585" d="M43 59 L43 60 L42 60 L43 59 z"/>
<path style="fill:#6c6d6d" d="M48 59 C48.15 60.18 46.66 60.02 46 60 C45.85 58.82 47.34 58.98 48 59 z"/>
<path style="fill:#0a0a0a" d="M23 60 C23.02 60.66 23.18 62.15 22 62 L21 63 L20 63 C18.61 60.12 19.98 59.57 23 60 z"/>
<path style="fill:#323232" d="M29 60 C30.18 59.85 30.02 61.34 30 62 L27 62 L28 60 L29 60 z"/>
<path style="fill:#282828" d="M42 60 L43 60 L43 62 L42 62 L39 63 L42 60 z"/>
<path style="fill:#7b7b7b" d="M46 60 L43 62 L43 60 L46 60 z"/>
<path style="fill:#6e6e6e" d="M58 60 L57 61 L58 60 z"/>
<path style="fill:#151616" d="M59 61 C59.46 62.35 58.35 63.46 57 63 L57 62 L57 61 L58 60 L59 61 z"/>
<path style="fill:#0f0f0f" d="M68 60 L68 62 L67 63 L65 63 L64 62 C63.29 59.32 66.45 60.06 68 60 z"/>
<path style="fill:#aeafaf" d="M68 62 L68 60 C69.33 59.78 69.33 62.22 68 62 z"/>
<path style="fill:#aaaaaa" d="M57 61 L57 62 C55.94 62.43 55.94 60.57 57 61 z"/>
<path style="fill:#9fa0a0" d="M61 64 L57 63 C58.35 63.46 59.46 62.35 59 61 L61 64 z"/>
<path style="fill:#696969" d="M22 62 L21 63 L22 62 z"/>
<path style="fill:#828282" d="M30 62 L31 65 L27 63 L27 62 L30 62 z"/>
<path style="fill:#767676" d="M42 62 C41.54 63.35 42.65 64.46 44 64 C47.39 63.63 44.49 65.68 44 67 C40.87 67.6 37.78 66.88 39 63 L42 62 z"/>
<path style="fill:#9f9f9f" d="M68 62 L67 63 L68 62 z"/>
<path style="fill:#121212" d="M27 63 L31 65 L30 66 L28 66 C28.15 64.82 26.66 64.98 26 65 C25.98 64.34 25.82 62.85 27 63 z"/>
<path style="fill:#a4a5a5" d="M44 67 C44.49 65.68 47.39 63.63 44 64 C47.92 59.43 49.02 68.45 44 67 z"/>
<path style="fill:#151616" d="M57 63 L61 64 L61 65 C60.34 64.98 58.85 64.82 59 66 L57 66 L56 65 L56 64 L57 63 z"/>
<path style="fill:#aaabab" d="M67 63 C67.22 64.33 64.78 64.33 65 63 L67 63 z"/>
<path style="fill:#9f9f9f" d="M56 64 L56 65 C54.94 65.43 54.94 63.57 56 64 z"/>
<path style="fill:#818282" d="M28 66 C27.34 66.02 25.85 66.18 26 65 C26.66 64.98 28.15 64.82 28 66 z"/>
<path style="fill:#757575" d="M31 65 L30 66 L31 65 z"/>
<path style="fill:#777777" d="M57 66 L56 65 L57 66 z"/>
<path style="fill:#747575" d="M61 65 C61.15 66.18 59.66 66.02 59 66 C58.85 64.82 60.34 64.98 61 65 z"/>
<path style="fill:#9c9c9c" d="M30 66 C30.22 67.33 27.78 67.33 28 66 L30 66 z"/>
<path style="fill:#828383" d="M59 66 C59.22 67.33 56.78 67.33 57 66 L59 66 z"/>
<path style="fill:#dcdcdc" d="M52 97 L43 97 C44.66 95.35 50.34 95.35 52 97 z"/>
</svg>
