<?xml version="1.0" standalone="yes"?>
<svg width="87" height="97">
<path style="fill:#fcfdfd" d="M87 0 L87 97 L0 97 L0 0 L87 0 z"/>
<path style="fill:#c6c7c7" d="M48 15 L40 15 C41.34 13.35 46.66 13.35 48 15 z"/>
<path style="fill:#3d3e3e" d="M40 15 L48 15 C48.95 15.19 50.94 14.41 51 16 L35 16 L40 15 z"/>
<path style="fill:#0c0d0d" d="M35 16 L51 16 L54 16 C53.85 17.18 55.34 17.02 56 17 L59 18 L60 19 L62 20 L63 21 L65 22 L66 23 L67 24 L68 25 L69 26 L70 27 L71 28 L72 30 L73 31 L76 38 C75.98 38.66 75.82 40.15 77 40 L77 43 L77 56 L77 58 C75.82 57.85 75.98 59.34 76 60 L76 61 C74.82 60.85 74.98 62.34 75 63 L73 67 L72 68 L72 69 L71 70 L70 71 L67 74 L66 75 L65 76 L64 77 L62 78 L61 79 L60 79 L59 80 L58 80 L57 81 L56 81 C55.34 80.98 53.85 80.82 54 82 L53 82 C52.34 81.98 50.85 81.82 51 83 L50 83 L37 83 L35 83 C35.15 81.82 33.66 81.98 33 82 L32 82 C32.15 80.82 30.66 80.98 30 81 C30.15 79.82 28.66 79.98 28 80 L26 79 L25 78 L24 78 L23 77 L22 76 L16 70 L15 69 L14 68 L14 67 L13 66 L13 65 L12 64 L12 63 L11 62 L10 58 L10 56 L10 42 L10 40 L10 39 C11.18 39.15 11.02 37.66 11 37 L12 34 L13 33 L13 32 L14 31 L15 29 L16 28 L17 27 L20 24 L21 23 L22 22 L23 21 L25 20 L26 19 L27 19 L28 18 L29 18 L30 17 L35 16 z"/>
<path style="fill:#aeafaf" d="M56 17 C55.34 17.02 53.85 17.18 54 16 C54.66 15.98 56.15 15.82 56 17 z"/>
<path style="fill:#8c8c8c" d="M30 17 L29 18 L30 17 z"/>
<path style="fill:#838383" d="M28 18 L27 19 L28 18 z"/>
<path style="fill:#a7a7a7" d="M60 19 L59 18 L60 19 z"/>
<path style="fill:#909090" d="M26 19 L25 20 L26 19 z"/>
<path style="fill:#aeafaf" d="M48 20 L38 20 C39.99 18.34 46.01 18.34 48 20 z"/>
<path style="fill:#9d9e9e" d="M36 20 C39.63 21.66 47.37 21.66 51 20 C62.01 22.34 72.35 32.39 73 44 C72.81 44.95 73.59 46.94 72 47 C72.56 17.31 23.14 11.58 16 40 L15 39 C17.32 29.46 26.63 21.78 36 20 z"/>
<path style="fill:#fafafa" d="M38 20 L48 20 L51 20 C47.37 21.66 39.63 21.66 36 20 L38 20 z"/>
<path style="fill:#767676" d="M63 21 L62 20 L63 21 z"/>
<path style="fill:#939393" d="M23 21 L22 22 L23 21 z"/>
<path style="fill:#7c7c7c" d="M22 22 L21 23 L22 22 z"/>
<path style="fill:#010202" d="M72 47 L72 48 L15 48 C15.23 45.31 14.29 42.26 16 40 C23.14 11.58 72.56 17.31 72 47 z"/>
<path style="fill:#a3a3a3" d="M66 23 L65 22 L66 23 z"/>
<path style="fill:#626262" d="M21 23 L20 24 L21 23 z"/>
<path style="fill:#919191" d="M67 24 L66 23 L67 24 z"/>
<path style="fill:#838383" d="M68 25 L67 24 L68 25 z"/>
<path style="fill:#767676" d="M69 26 L68 25 L69 26 z"/>
<path style="fill:#8a8a8a" d="M70 27 L69 26 L70 27 z"/>
<path style="fill:#6d6d6d" d="M17 27 L16 28 L17 27 z"/>
<path style="fill:#9c9c9c" d="M71 28 L70 27 L71 28 z"/>
<path style="fill:#919191" d="M16 28 L15 29 L16 28 z"/>
<path style="fill:#919191" d="M73 31 L72 30 L73 31 z"/>
<path style="fill:#979797" d="M14 31 L13 32 L14 31 z"/>
<path style="fill:#787878" d="M13 33 L12 34 L13 33 z"/>
<path style="fill:#878888" d="M11 37 C11.02 37.66 11.18 39.15 10 39 C9.981 38.34 9.819 36.85 11 37 z"/>
<path style="fill:#878787" d="M77 40 C75.82 40.15 75.98 38.66 76 38 C77.18 37.85 77.02 39.34 77 40 z"/>
<path style="fill:#828383" d="M15 39 L16 40 C14.29 42.26 15.23 45.31 15 48 L13 48 C12.87 44.87 12.92 41 15 39 z"/>
<path style="fill:#9e9f9f" d="M10 40 L10 42 L9 42 C8.981 41.34 8.819 39.85 10 40 z"/>
<path style="fill:#363636" d="M10 42 L10 56 L9 56 L9 54 L9 44 L9 42 L10 42 z"/>
<path style="fill:#646464" d="M77 56 L77 43 C78.66 45.97 78.66 53.03 77 56 z"/>
<path style="fill:#c7c8c8" d="M9 44 L9 54 C7.345 52.01 7.345 45.99 9 44 z"/>
<path style="fill:#7a7b7b" d="M73 55 C72.81 54.05 73.59 52.06 72 52 L72 51 L72 50 C73.33 50.22 73.33 47.78 72 48 L72 47 C73.59 46.94 72.81 44.95 73 44 C74.66 46.31 74.66 52.69 73 55 z"/>
<path style="fill:#969797" d="M15 48 L72 48 L14 50 C13.81 50.95 14.59 52.94 13 53 L13 48 L15 48 z"/>
<path style="fill:#f3f4f4" d="M72 50 L15 50 L14 50 L72 48 C73.33 47.78 73.33 50.22 72 50 z"/>
<path style="fill:#828282" d="M15 50 L15 51 C14.87 55.33 15.97 59.3 18 63 L17 64 C14.55 61.24 13.6 56.78 13 53 C14.59 52.94 13.81 50.95 14 50 L15 50 z"/>
<path style="fill:#212222" d="M72 50 L72 51 L15 51 L15 50 L72 50 z"/>
<path style="fill:#010202" d="M72 51 L72 52 C72.55 57.73 68.67 62.4 66 67 C63.73 70.78 59.72 73.06 56 75 L33 76 C26.79 74.21 21.09 68.74 18 63 C15.97 59.3 14.87 55.33 15 51 L72 51 z"/>
<path style="fill:#959696" d="M73 55 C72.68 59.79 70.11 64.66 67 68 L66 67 C68.67 62.4 72.55 57.73 72 52 C73.59 52.06 72.81 54.05 73 55 z"/>
<path style="fill:#8e8e8e" d="M10 56 L10 58 C8.819 58.15 8.981 56.66 9 56 L10 56 z"/>
<path style="fill:#7b7c7c" d="M77 58 C77.02 58.66 77.18 60.15 76 60 C75.98 59.34 75.82 57.85 77 58 z"/>
<path style="fill:#8a8a8a" d="M76 61 C76.02 61.66 76.18 63.15 75 63 C74.98 62.34 74.82 60.85 76 61 z"/>
<path style="fill:#686868" d="M12 63 L11 62 L12 63 z"/>
<path style="fill:#a8a8a8" d="M18 63 C21.09 68.74 26.79 74.21 33 76 L32 77 C25.79 75.21 20.09 69.74 17 64 L18 63 z"/>
<path style="fill:#646464" d="M13 65 L12 64 L13 65 z"/>
<path style="fill:#7c7c7c" d="M14 67 L13 66 L14 67 z"/>
<path style="fill:#a9aaaa" d="M67 68 C64.73 71.78 60.72 74.06 57 76 L56 75 C59.72 73.06 63.73 70.78 66 67 L67 68 z"/>
<path style="fill:#6e6e6e" d="M73 67 L72 68 L73 67 z"/>
<path style="fill:#9b9b9b" d="M15 69 L14 68 L15 69 z"/>
<path style="fill:#6c6c6c" d="M16 70 L15 69 L16 70 z"/>
<path style="fill:#a8a8a8" d="M72 69 L71 70 L72 69 z"/>
<path style="fill:#818181" d="M71 70 L70 71 L71 70 z"/>
<path style="fill:#6a6a6a" d="M67 74 L66 75 L67 74 z"/>
<path style="fill:#818181" d="M56 75 L57 76 L53 78 C48.03 76.33 38.97 76.33 34 78 C33.34 78.02 31.85 78.18 32 77 L33 76 L56 75 z"/>
<path style="fill:#797979" d="M66 75 L65 76 L66 75 z"/>
<path style="fill:#747474" d="M23 77 L22 76 L23 77 z"/>
<path style="fill:#9b9b9b" d="M65 76 L64 77 L65 76 z"/>
<path style="fill:#969696" d="M24 78 L23 77 L24 78 z"/>
<path style="fill:#e9e9e9" d="M53 78 L52 78 L48 79 L47 79 L38 79 L34 78 C38.97 76.33 48.03 76.33 53 78 z"/>
<path style="fill:#6a6a6a" d="M26 79 L25 78 L26 79 z"/>
<path style="fill:#717272" d="M52 78 L48 79 L52 78 z"/>
<path style="fill:#8d8d8d" d="M62 78 L61 79 L62 78 z"/>
<path style="fill:#2f2f2f" d="M47 79 C45.34 80.65 39.66 80.65 38 79 L47 79 z"/>
<path style="fill:#6c6c6c" d="M60 79 L59 80 L60 79 z"/>
<path style="fill:#7d7e7e" d="M30 81 C29.34 81.02 27.85 81.18 28 80 C28.66 79.98 30.15 79.82 30 81 z"/>
<path style="fill:#707070" d="M58 80 L57 81 L58 80 z"/>
<path style="fill:#a7a8a8" d="M32 82 C31.34 82.02 29.85 82.18 30 81 C30.66 80.98 32.15 80.82 32 82 z"/>
<path style="fill:#717171" d="M56 81 C56.15 82.18 54.66 82.02 54 82 C53.85 80.82 55.34 80.98 56 81 z"/>
<path style="fill:#a9a9a9" d="M35 83 C34.34 83.02 32.85 83.18 33 82 C33.66 81.98 35.15 81.82 35 83 z"/>
<path style="fill:#8b8c8c" d="M53 82 C53.15 83.18 51.66 83.02 51 83 C50.85 81.82 52.34 81.98 53 82 z"/>
<path style="fill:#adaeae" d="M50 83 C47.03 84.66 39.97 84.66 37 83 L50 83 z"/>
</svg>
