<?xml version="1.0" standalone="yes"?>
<svg width="87" height="97">
<path style="fill:#fdfdfd" d="M87 0 L87 97 L0 97 L0 0 L87 0 z"/>
<path style="fill:#838484" d="M39 17 C39.15 18.18 37.66 18.02 37 18 C36.85 16.82 38.34 16.98 39 17 z"/>
<path style="fill:#040505" d="M46 17 C46.06 18.59 48.05 17.81 49 18 L51 18 C50.85 19.18 52.34 19.02 53 19 L54 19 L55 20 L56 20 L57 21 L58 21 L59 22 L61 23 L62 24 L63 25 L64 26 L65 27 L66 28 L67 29 L68 30 L70 34 L71 35 L72 39 C71.98 39.66 71.82 41.15 73 41 L73 44 L73 52 L73 54 C71.82 53.85 71.98 55.34 72 56 L72 58 L71 59 L69 64 L68 65 L67 67 L66 68 L65 69 L64 70 L63 71 L62 72 L60 73 L59 74 L55 76 L54 77 L52 77 C51.34 76.98 49.85 76.82 50 78 L48 78 L37 78 L35 78 C35.15 76.82 33.66 76.98 33 77 L26 74 L25 73 L22 71 L21 70 L20 69 L18 66 L17 65 L16 64 L16 63 L15 62 L15 61 L14 60 L14 59 C14.02 58.34 14.18 56.85 13 57 L13 56 C13.02 55.34 13.18 53.85 12 54 L12 42 C13.18 42.15 13.02 40.66 13 40 L13 39 C14.18 39.15 14.02 37.66 14 37 L14 36 L15 35 L15 34 L16 33 L16 32 L17 31 L18 29 L19 28 L20 27 L21 26 L22 25 L23 24 L25 23 L26 22 L27 21 L28 21 L29 20 L30 20 L31 19 L32 19 C32.66 19.02 34.15 19.18 34 18 L37 18 C37.66 18.02 39.15 18.18 39 17 L46 17 z"/>
<path style="fill:#8a8a8a" d="M49 18 C48.05 17.81 46.06 18.59 46 17 C46.95 17.19 48.94 16.41 49 18 z"/>
<path style="fill:#a6a7a7" d="M34 18 C34.15 19.18 32.66 19.02 32 19 C31.85 17.82 33.34 17.98 34 18 z"/>
<path style="fill:#939393" d="M53 19 C52.34 19.02 50.85 19.18 51 18 C51.66 17.98 53.15 17.82 53 19 z"/>
<path style="fill:#969696" d="M31 19 L30 20 L31 19 z"/>
<path style="fill:#7e7e7e" d="M55 20 L54 19 L55 20 z"/>
<path style="fill:#929292" d="M29 20 L28 21 L29 20 z"/>
<path style="fill:#787878" d="M57 21 L56 20 L57 21 z"/>
<path style="fill:#9f9f9f" d="M27 21 L26 22 L27 21 z"/>
<path style="fill:#858585" d="M59 22 L58 21 L59 22 z"/>
<path style="fill:#5a5a5a" d="M26 22 L25 23 L26 22 z"/>
<path style="fill:#949494" d="M62 24 L61 23 L62 24 z"/>
<path style="fill:#959595" d="M23 24 L22 25 L23 24 z"/>
<path style="fill:#636363" d="M38 71 C39.01 57.36 40.98 36.97 37 25 C37.01 23.61 38.92 23.86 39.75 24.25 L39.75 71.75 C39.17 72.25 37.83 72 38 71 z"/>
<path style="fill:#6b6b6b" d="M63 25 L62 24 L63 25 z"/>
<path style="fill:#7d7d7d" d="M22 25 L21 26 L22 25 z"/>
<path style="fill:#848484" d="M36 25 C36.15 26.18 34.66 26.02 34 26 C33.85 24.82 35.34 24.98 36 25 z"/>
<path style="fill:#fdfdfd" d="M37 25 C40.98 36.97 39.01 57.36 38 71 L37 71 C37.15 69.82 35.66 69.98 35 70 L34 70 C32.34 56 32.34 40 34 26 C34.66 26.02 36.15 26.18 36 25 L37 25 z"/>
<path style="fill:#848484" d="M47 25 L47 71 C45.33 57.03 45.33 38.97 47 25 z"/>
<path style="fill:#fbfbfb" d="M49 25 C48.85 26.18 50.34 26.02 51 26 L53 26 L53 69 L52 70 L51 70 C50.34 69.98 48.85 69.82 49 71 L47 71 L47 25 L49 25 z"/>
<path style="fill:#979797" d="M51 26 C50.34 26.02 48.85 26.18 49 25 C49.66 24.98 51.15 24.82 51 26 z"/>
<path style="fill:#585858" d="M64 26 L63 25 L64 26 z"/>
<path style="fill:#7b7b7b" d="M21 26 L20 27 L21 26 z"/>
<path style="fill:#a6a7a7" d="M34 26 C32.34 40 32.34 56 34 70 C30.67 59.02 30.67 36.98 34 26 z"/>
<path style="fill:#555555" d="M53 69 L53 26 C54.67 38.97 54.67 56.03 53 69 z"/>
<path style="fill:#626262" d="M65 27 L64 26 L65 27 z"/>
<path style="fill:#848484" d="M20 27 L19 28 L20 27 z"/>
<path style="fill:#6c6c6c" d="M66 28 L65 27 L66 28 z"/>
<path style="fill:#a7a7a7" d="M19 28 L18 29 L19 28 z"/>
<path style="fill:#7f7f7f" d="M67 29 L66 28 L67 29 z"/>
<path style="fill:#a9a9a9" d="M68 30 L67 29 L68 30 z"/>
<path style="fill:#8a8a8a" d="M17 31 L16 32 L17 31 z"/>
<path style="fill:#5e5e5e" d="M24 63 C25.67 54.36 25.67 41.64 24 33 C23.83 32 25.17 31.75 25.75 32.25 L25.75 63.75 C25.17 64.25 23.83 64 24 63 z"/>
<path style="fill:#777777" d="M16 33 L15 34 L16 33 z"/>
<path style="fill:#f4f4f4" d="M24 63 L23 61 L22 60 L22 59 L21 58 L21 57 L20 56 C18.47 49.46 18.14 41.83 22 36 L23 35 L24 33 C25.67 41.64 25.67 54.36 24 63 z"/>
<path style="fill:#787979" d="M62 34 C60.33 41.97 60.33 54.03 62 62 C62.17 63 60.83 63.25 60.25 62.75 L60.25 33.25 C60.83 32.75 62.17 33 62 34 z"/>
<path style="fill:#f7f7f7" d="M62 34 L63 36 L64 37 L64 38 L65 39 L65 41 C64.98 41.66 64.82 43.15 66 43 L66 44 L66 52 L66 53 C64.82 52.85 64.98 54.34 65 55 L64 59 L63 60 L62 62 C60.33 54.03 60.33 41.97 62 34 z"/>
<path style="fill:#a5a5a5" d="M71 35 L70 34 L71 35 z"/>
<path style="fill:#747474" d="M15 35 L14 36 L15 35 z"/>
<path style="fill:#8e8e8e" d="M23 35 L22 36 L23 35 z"/>
<path style="fill:#666666" d="M64 37 L63 36 L64 37 z"/>
<path style="fill:#7f7f7f" d="M14 37 C14.02 37.66 14.18 39.15 13 39 C12.98 38.34 12.82 36.85 14 37 z"/>
<path style="fill:#676767" d="M65 39 L64 38 L65 39 z"/>
<path style="fill:#a3a3a3" d="M73 41 C71.82 41.15 71.98 39.66 72 39 C73.18 38.85 73.02 40.34 73 41 z"/>
<path style="fill:#9b9b9b" d="M13 40 C13.02 40.66 13.18 42.15 12 42 C11.98 41.34 11.82 39.85 13 40 z"/>
<path style="fill:#8d8d8d" d="M66 43 C64.82 43.15 64.98 41.66 65 41 C66.18 40.85 66.02 42.34 66 43 z"/>
<path style="fill:#3c3d3d" d="M66 52 L66 44 C67.65 45.34 67.65 50.66 66 52 z"/>
<path style="fill:#a0a1a1" d="M73 52 L73 44 C74.65 45.34 74.65 50.66 73 52 z"/>
<path style="fill:#818282" d="M66 53 C66.02 53.66 66.18 55.15 65 55 C64.98 54.34 64.82 52.85 66 53 z"/>
<path style="fill:#9d9d9d" d="M13 56 C11.82 56.15 11.98 54.66 12 54 C13.18 53.85 13.02 55.34 13 56 z"/>
<path style="fill:#6e6f6f" d="M73 54 C73.02 54.66 73.18 56.15 72 56 C71.98 55.34 71.82 53.85 73 54 z"/>
<path style="fill:#787878" d="M21 57 L20 56 L21 57 z"/>
<path style="fill:#909191" d="M14 59 C12.82 59.15 12.98 57.66 13 57 C14.18 56.85 14.02 58.34 14 59 z"/>
<path style="fill:#989898" d="M22 59 L21 58 L22 59 z"/>
<path style="fill:#757575" d="M72 58 L71 59 L72 58 z"/>
<path style="fill:#585858" d="M64 59 L63 60 L64 59 z"/>
<path style="fill:#858585" d="M15 61 L14 60 L15 61 z"/>
<path style="fill:#7a7a7a" d="M23 61 L22 60 L23 61 z"/>
<path style="fill:#7f7f7f" d="M16 63 L15 62 L16 63 z"/>
<path style="fill:#a0a0a0" d="M17 65 L16 64 L17 65 z"/>
<path style="fill:#727272" d="M69 64 L68 65 L69 64 z"/>
<path style="fill:#5a5a5a" d="M18 66 L17 65 L18 66 z"/>
<path style="fill:#a1a1a1" d="M67 67 L66 68 L67 67 z"/>
<path style="fill:#7e7e7e" d="M66 68 L65 69 L66 68 z"/>
<path style="fill:#a1a1a1" d="M21 70 L20 69 L21 70 z"/>
<path style="fill:#7d7d7d" d="M53 69 L52 70 L53 69 z"/>
<path style="fill:#727272" d="M65 69 L64 70 L65 69 z"/>
<path style="fill:#9d9d9d" d="M22 71 L21 70 L22 71 z"/>
<path style="fill:#a5a6a6" d="M37 71 C36.34 71.02 34.85 71.18 35 70 C35.66 69.98 37.15 69.82 37 71 z"/>
<path style="fill:#727272" d="M51 70 C51.15 71.18 49.66 71.02 49 71 C48.85 69.82 50.34 69.98 51 70 z"/>
<path style="fill:#5f5f5f" d="M64 70 L63 71 L64 70 z"/>
<path style="fill:#797979" d="M63 71 L62 72 L63 71 z"/>
<path style="fill:#787878" d="M26 74 L25 73 L26 74 z"/>
<path style="fill:#5c5c5c" d="M60 73 L59 74 L60 73 z"/>
<path style="fill:#a8a8a8" d="M55 76 L54 77 L55 76 z"/>
<path style="fill:#898989" d="M35 78 C34.34 78.02 32.85 78.18 33 77 C33.66 76.98 35.15 76.82 35 78 z"/>
<path style="fill:#7a7b7b" d="M52 77 C52.15 78.18 50.66 78.02 50 78 C49.85 76.82 51.34 76.98 52 77 z"/>
<path style="fill:#7b7c7c" d="M48 78 C45.69 79.66 39.31 79.66 37 78 L48 78 z"/>
</svg>
