<?xml version="1.0" encoding="UTF-8" standalone="no"?>
<!-- Created with Inkscape (http://www.inkscape.org/) -->
<svg xmlns:dc="http://purl.org/dc/elements/1.1/" xmlns:cc="http://creativecommons.org/ns#" xmlns:rdf="http://www.w3.org/1999/02/22-rdf-syntax-ns#" xmlns:svg="http://www.w3.org/2000/svg" xmlns="http://www.w3.org/2000/svg" xmlns:sodipodi="http://sodipodi.sourceforge.net/DTD/sodipodi-0.dtd" xmlns:inkscape="http://www.inkscape.org/namespaces/inkscape" id="svg2868" sodipodi:version="0.32" inkscape:version="0.46" width="214.42935" height="302.15036" version="1.0" sodipodi:docname="Meuble_héraldique_Fleur_de_lys.svg" inkscape:output_extension="org.inkscape.output.svg.inkscape" inkscape:export-filename="/Users/Soda/Desktop/Royal_Coat_of_Arms_of_Denmark.png" inkscape:export-xdpi="101.48267" inkscape:export-ydpi="101.48267">
  <metadata id="metadata2873">
    <rdf:RDF>
      <cc:Work rdf:about="">
        <dc:format>image/svg+xml</dc:format>
        <dc:type rdf:resource="http://purl.org/dc/dcmitype/StillImage"/>
      </cc:Work>
    </rdf:RDF>
  </metadata>
  <defs id="defs2871"/>
  <sodipodi:namedview inkscape:window-height="1044" inkscape:window-width="1904" inkscape:pageshadow="2" inkscape:pageopacity="0.0" guidetolerance="10.0" gridtolerance="10.0" objecttolerance="10.0" borderopacity="1.0" bordercolor="#666666" pagecolor="#ffffff" id="base" showgrid="false" inkscape:zoom="1.4142135" inkscape:cx="-5.5456928" inkscape:cy="232.05617" inkscape:window-x="0" inkscape:window-y="0" inkscape:current-layer="g5507-8-8-9-9-9" showguides="true" inkscape:guide-bbox="true" borderlayer="false" inkscape:window-maximized="0">
    <inkscape:grid type="xygrid" id="grid2899" visible="true" enabled="true" empspacing="5" snapvisiblegridlinesonly="true"/>
  </sodipodi:namedview>
  <g inkscape:groupmode="layer" id="layer4" inkscape:label="Supporters" style="display: inline;" transform="translate(-395.07, -525.473)">
    <g id="g14038" transform="translate(-2142.48, 465.06)"/>
    <g id="g5469" style="stroke-width: 1; stroke-miterlimit: 4; stroke-dasharray: none; display: inline;" transform="translate(2140.24, -506.657)">
      <g style="fill: rgb(255, 226, 75); fill-opacity: 1; stroke-width: 1.10177; stroke-miterlimit: 4; stroke-dasharray: none;" transform="matrix(0.898503, 0, 0, 0.916852, -1847.81, 527.007)" id="g5471">
        <g style="fill: rgb(255, 226, 75); fill-opacity: 1; stroke-width: 1.10177; stroke-miterlimit: 4; stroke-dasharray: none;" id="g5473"/>
        <g style="fill: rgb(255, 226, 75); fill-opacity: 1; stroke-width: 1.10177; stroke-miterlimit: 4; stroke-dasharray: none; display: inline;" id="g5477" transform="matrix(-1, 0, 0, 1, 5279.07, 0)"/>
      </g>
      <g style="fill: rgb(255, 226, 75); fill-opacity: 1; stroke-width: 1.10177; stroke-miterlimit: 4; stroke-dasharray: none;" transform="matrix(-0.898503, 0, 0, 0.916852, 2847.76, 527.007)" id="g5479">
        <g style="fill: rgb(255, 226, 75); fill-opacity: 1; stroke-width: 1.10177; stroke-miterlimit: 4; stroke-dasharray: none;" id="g5481"/>
        <g style="fill: rgb(255, 226, 75); fill-opacity: 1; stroke-width: 1.10177; stroke-miterlimit: 4; stroke-dasharray: none; display: inline;" id="g5485" transform="matrix(-1, 0, 0, 1, 5279.07, 0)"/>
      </g>
    </g>
    <g id="g34631" transform="translate(34.5601, -235.288)"/>
    <g id="layer1" inkscape:label="Base" style="display: inline;" sodipodi:insensitive="true" transform="translate(2279.04, -169.926)"/>
    <g id="layer5" inkscape:label="Mantle" style="display: inline;" sodipodi:insensitive="true" transform="translate(2279.04, -169.926)"/>
    <g id="layer2" inkscape:label="Order" style="display: inline;" sodipodi:insensitive="true" transform="translate(2279.04, -169.926)"/>
    <g transform="translate(136.562, 295.134)" id="g17890"/>
    <g transform="translate(4419.28, -676.583)" style="stroke-width: 1; stroke-miterlimit: 4; stroke-dasharray: none; display: inline;" id="g17892">
      <g id="g17894" transform="matrix(0.898503, 0, 0, 0.916852, -1847.81, 527.007)" style="fill: rgb(255, 226, 75); fill-opacity: 1; stroke-width: 1.10177; stroke-miterlimit: 4; stroke-dasharray: none;">
        <g id="g17896" style="fill: rgb(255, 226, 75); fill-opacity: 1; stroke-width: 1.10177; stroke-miterlimit: 4; stroke-dasharray: none;"/>
        <g transform="matrix(-1, 0, 0, 1, 5279.07, 0)" id="g17898" style="fill: rgb(255, 226, 75); fill-opacity: 1; stroke-width: 1.10177; stroke-miterlimit: 4; stroke-dasharray: none; display: inline;"/>
      </g>
      <g id="g17900" transform="matrix(-0.898503, 0, 0, 0.916852, 2847.76, 527.007)" style="fill: rgb(255, 226, 75); fill-opacity: 1; stroke-width: 1.10177; stroke-miterlimit: 4; stroke-dasharray: none;">
        <g id="g17902" style="fill: rgb(255, 226, 75); fill-opacity: 1; stroke-width: 1.10177; stroke-miterlimit: 4; stroke-dasharray: none;"/>
        <g transform="matrix(-1, 0, 0, 1, 5279.07, 0)" id="g17904" style="fill: rgb(255, 226, 75); fill-opacity: 1; stroke-width: 1.10177; stroke-miterlimit: 4; stroke-dasharray: none; display: inline;"/>
      </g>
    </g>
    <g transform="translate(2313.6, -405.214)" id="g18092"/>
    <g id="g13504" inkscape:label="Borde 3 px" transform="translate(-870.561, 15.0431)"/>
    <g id="g25099" transform="translate(1.375, 1.15625)">
      <g style="stroke-width: 2.20079; stroke-miterlimit: 4; stroke-dasharray: none;" id="g5518-6-9-7-5-7" transform="matrix(2.15108, 0, 0, 2.15108, -563.117, -1043.62)">
        <g style="stroke-width: 2.20079; stroke-miterlimit: 4; stroke-dasharray: none;" id="g5465-5-1-6-0-0">
          <g id="g4533-9-5-0-2-4" transform="translate(-20.4184, 559.639)" style="stroke-width: 2.20079; stroke-miterlimit: 4; stroke-dasharray: none;">
            <path sodipodi:nodetypes="csssscssssssssssscss" id="path4516-5-5-0-1-1" d="M 502.0459,263.91545 C 502.6199,258.51899 502.3143,248.34055 499.4751,243.71562 C 498.5157,242.15283 496.1654,240.33287 494.3333,240.4102 C 492.5278,240.4864 490.0433,241.02006 489.1915,242.61381 C 488.4107,244.07464 487.9038,247.21148 488.0897,248.8574 C 488.3479,251.14352 491.0279,255.83552 491.0279,255.83552 C 491.0279,255.83552 481.4241,253.90816 478.1734,251.42828 C 474.9572,248.97467 471.4859,244.32346 470.4608,240.41019 C 470.1091,239.06765 468.7361,234.72576 470.4698,229.51757 C 471.4762,226.49442 474.5034,222.44882 476.846,220.43252 C 482.9633,215.16732 494.8423,216.69796 497.2715,218.00675 C 500.4842,219.73766 504.3996,223.41869 505.7187,226.82122 C 506.7427,229.46241 508.8712,237.25836 509.3914,240.04293 C 510.453,245.72571 510.7613,247.86967 511.2278,253.6319 C 511.548,257.587 512.4307,261.13821 511.595,265.01726 C 511.1448,267.10715 510.5825,271.90349 509.3613,275.0618 C 508.1335,278.23705 506.2437,279.77245 504.6169,281.17712 C 501.2936,284.04665 490.6606,285.58437 490.6606,285.58437 C 490.6606,285.58437 496.5027,278.2147 498.006,274.93355 C 499.7912,271.03731 501.5926,268.17715 502.0459,263.91545 L 502.0459,263.91545 z" style="fill: rgb(255, 226, 75); fill-opacity: 1; fill-rule: evenodd; stroke: none;"/>
            <path sodipodi:nodetypes="csssscssssssssssscss" id="path4518-4-5-9-8-0" d="M 528.08801,263.91545 C 527.51401,258.51899 527.81961,248.34055 530.65881,243.71562 C 531.61821,242.15283 533.96851,240.33287 535.80061,240.4102 C 537.60611,240.4864 540.09061,241.02006 540.94241,242.61381 C 541.72321,244.07464 542.23011,247.21148 542.04421,248.8574 C 541.78601,251.14352 539.10601,255.83552 539.10601,255.83552 C 539.10601,255.83552 548.70981,253.90816 551.96051,251.42828 C 555.17671,248.97467 558.64801,244.32346 559.67311,240.41019 C 560.02481,239.06765 561.39781,234.72576 559.66411,229.51757 C 558.65771,226.49442 555.63051,222.44882 553.28791,220.43252 C 547.17061,215.16732 535.29161,216.69796 532.86241,218.00675 C 529.64971,219.73766 525.73431,223.41869 524.41521,226.82122 C 523.39121,229.46241 521.26271,237.25836 520.74251,240.04293 C 519.68091,245.72571 519.37261,247.86967 518.90611,253.6319 C 518.58591,257.587 517.70321,261.13821 518.53891,265.01726 C 518.98911,267.10715 519.55141,271.90349 520.77261,275.0618 C 522.00041,278.23705 523.89021,279.77245 525.51701,281.17712 C 528.84031,284.04665 539.47331,285.58437 539.47331,285.58437 C 539.47331,285.58437 533.63121,278.2147 532.12791,274.93355 C 530.34271,271.03731 528.54131,268.17715 528.08801,263.91545 L 528.08801,263.91545 z" style="fill: rgb(255, 226, 75); fill-opacity: 1; fill-rule: evenodd; stroke: none; display: inline;"/>
          </g>
          <path id="path5446-9-8-5-7-8" style="fill: rgb(221, 173, 0); fill-opacity: 1; fill-rule: evenodd; stroke: none;" d="M 517.54706,844.61882 L 514.74569,844.57422 L 505.77353,841.75439 L 495.00693,832.26954 L 487.06016,839.83179 L 481.67686,842.39526 L 475.52453,844.44604 L 471.44041,844.72373 C 471.44041,844.72373 478.67247,839.85562 481.16839,837.11822 C 482.95344,835.16047 484.77354,832.0664 485.94395,829.68958 C 487.9607,825.59405 491.07324,815.36291 491.18156,815.29267 L 493.47397,814.94877 L 497.89578,815.30251 C 497.89578,815.30251 501.00832,825.53365 503.02507,829.62918 C 504.19548,832.006 506.01558,835.10007 507.80063,837.05782 C 510.29655,839.79522 517.54706,844.61878 517.54706,844.61878 L 517.54706,844.61882 z" sodipodi:nodetypes="ccccccccsscccssc"/>
          <path style="fill: rgb(221, 173, 0); fill-opacity: 1; fill-rule: evenodd; stroke: none;" d="M 518.98386,815.22346 C 518.98386,815.22346 524.44589,812.91961 526.07313,811.06768 C 527.80838,809.09281 528.97167,805.57676 529.49554,803.00057 C 529.89012,801.06017 528.92732,796.94242 528.02879,795.17792 C 526.67087,792.51127 525.00761,790.96972 522.1618,790.04431 C 520.20901,789.4093 517.24155,789.32829 515.31699,790.04431 C 513.31896,790.78767 510.52294,792.52402 509.20555,794.20009 C 507.21923,796.72722 506.04867,799.63159 505.29422,802.75612 C 504.82946,804.68091 503.78625,810.55475 503.82747,812.53443 C 503.86417,814.29567 504.07193,819.86816 504.07193,819.86816 L 507.7388,825.9796 L 507.8301,825.70128 L 507.55619,815.56659 L 507.55619,811.32097 L 509.47357,804.74712 L 512.62354,800.50151 L 516.32133,799.95369 L 519.88216,801.73411 L 521.38867,805.56885 L 521.11476,810.22533 L 518.98386,815.22346 L 518.98386,815.22346 z" id="path5457-1-2-6-1-1" sodipodi:nodetypes="csssssssscc"/>
          <path style="fill: rgb(221, 173, 0); fill-opacity: 1; fill-rule: evenodd; stroke: none; display: inline;" d="M 470.32717,815.21194 C 470.32717,815.21194 464.86514,812.90809 463.2379,811.05616 C 461.50265,809.08129 460.33936,805.56524 459.81549,802.98905 C 459.42091,801.04865 460.38371,796.9309 461.28224,795.1664 C 462.64016,792.49975 464.30342,790.9582 467.14923,790.03279 C 469.10202,789.39778 472.06948,789.31677 473.99404,790.03279 C 475.99207,790.77615 478.78809,792.5125 480.10548,794.18857 C 482.0918,796.7157 483.26236,799.62007 484.01681,802.7446 C 484.48157,804.66939 485.52478,810.54323 485.48356,812.52291 C 485.44686,814.28415 485.2391,819.85664 485.2391,819.85664 L 481.57223,825.96808 L 481.48093,825.68976 L 481.75484,815.55507 L 481.75484,811.30945 L 479.83746,804.7356 L 476.68749,800.48999 L 472.9897,799.94217 L 469.42887,801.72259 L 467.92236,805.55733 L 468.19627,810.21381 L 470.32717,815.21194 z" id="path5459-7-9-2-5-4" sodipodi:nodetypes="csssssssscc"/>
          <g id="g5451-5-8-8-5-8" transform="translate(-20.4184, 559.639)" style="fill: none; stroke-width: 2.20079; stroke-miterlimit: 4; stroke-dasharray: none; display: inline;">
            <path sodipodi:nodetypes="csssscssssssssssscss" id="path5453-5-2-5-8-8" d="M 502.0459,263.91545 C 502.6199,258.51899 502.3143,248.34055 499.4751,243.71562 C 498.5157,242.15283 496.1654,240.33287 494.3333,240.4102 C 492.5278,240.4864 490.0433,241.02006 489.1915,242.61381 C 488.4107,244.07464 487.9038,247.21148 488.0897,248.8574 C 488.3479,251.14352 491.0279,255.83552 491.0279,255.83552 C 491.0279,255.83552 481.4241,253.90816 478.1734,251.42828 C 474.9572,248.97467 471.4859,244.32346 470.4608,240.41019 C 470.1091,239.06765 468.7361,234.72576 470.4698,229.51757 C 471.4762,226.49442 474.5034,222.44882 476.846,220.43252 C 482.9633,215.16732 494.8423,216.69796 497.2715,218.00675 C 500.4842,219.73766 504.3996,223.41869 505.7187,226.82122 C 506.7427,229.46241 508.8712,237.25836 509.3914,240.04293 C 510.453,245.72571 510.7613,247.86967 511.2278,253.6319 C 511.548,257.587 512.4307,261.13821 511.595,265.01726 C 511.1448,267.10715 510.5825,271.90349 509.3613,275.0618 C 508.1335,278.23705 506.2437,279.77245 504.6169,281.17712 C 501.2936,284.04665 490.6606,285.58437 490.6606,285.58437 C 490.6606,285.58437 496.5027,278.2147 498.006,274.93355 C 499.7912,271.03731 501.5926,268.17715 502.0459,263.91545 L 502.0459,263.91545 z" style="fill: none; stroke: rgb(128, 102, 0); stroke-width: 2.20079; stroke-linecap: butt; stroke-linejoin: miter; stroke-miterlimit: 4; stroke-dasharray: none; stroke-opacity: 1;"/>
            <path sodipodi:nodetypes="csssscssssssssssscss" id="path5455-4-0-9-5-4" d="M 528.08801,263.91545 C 527.51401,258.51899 527.81961,248.34055 530.65881,243.71562 C 531.61821,242.15283 533.96851,240.33287 535.80061,240.4102 C 537.60611,240.4864 540.09061,241.02006 540.94241,242.61381 C 541.72321,244.07464 542.23011,247.21148 542.04421,248.8574 C 541.78601,251.14352 539.10601,255.83552 539.10601,255.83552 C 539.10601,255.83552 548.70981,253.90816 551.96051,251.42828 C 555.17671,248.97467 558.64801,244.32346 559.67311,240.41019 C 560.02481,239.06765 561.39781,234.72576 559.66411,229.51757 C 558.65771,226.49442 555.63051,222.44882 553.28791,220.43252 C 547.17061,215.16732 535.29161,216.69796 532.86241,218.00675 C 529.64971,219.73766 525.73431,223.41869 524.41521,226.82122 C 523.39121,229.46241 521.26271,237.25836 520.74251,240.04293 C 519.68091,245.72571 519.37261,247.86967 518.90611,253.6319 C 518.58591,257.587 517.70321,261.13821 518.53891,265.01726 C 518.98911,267.10715 519.55141,271.90349 520.77261,275.0618 C 522.00041,278.23705 523.89021,279.77245 525.51701,281.17712 C 528.84031,284.04665 539.47331,285.58437 539.47331,285.58437 C 539.47331,285.58437 533.63121,278.2147 532.12791,274.93355 C 530.34271,271.03731 528.54131,268.17715 528.08801,263.91545 L 528.08801,263.91545 z" style="fill: none; stroke: rgb(128, 102, 0); stroke-width: 2.20079; stroke-linecap: butt; stroke-linejoin: miter; stroke-miterlimit: 4; stroke-dasharray: none; stroke-opacity: 1; display: inline;"/>
          </g>
          <path style="fill: rgb(255, 242, 172); fill-opacity: 1; fill-rule: evenodd; stroke: none;" d="M 455.61301,801.25465 C 455.61301,801.25465 456.08837,797.49057 456.50857,795.65745 C 457.02538,793.40281 458.16291,790.28115 459.8669,788.7169 C 461.66797,787.06352 464.39655,785.76493 466.80744,785.35857 C 468.92791,785.00116 471.88699,785.05578 473.97187,785.58246 C 475.57363,785.9871 477.48742,787.18425 478.89741,788.04523 C 479.9637,788.69634 482.25574,790.50801 482.25574,790.50801 C 482.25574,790.50801 478.08977,783.9014 475.3152,782.22413 C 472.60936,780.58841 468.17708,779.90275 465.01633,779.98525 C 462.71966,780.04525 460.21264,781.1757 458.29968,782.44803 C 456.02863,783.95852 453.59042,787.03355 452.70247,789.61246 C 452.06834,791.45417 452.14634,794.23846 452.70247,796.10522 C 453.29818,798.10486 455.61301,801.25465 455.61301,801.25465 L 455.61301,801.25465 z" id="path5461-1-7-4-6-5" sodipodi:nodetypes="cssssscsssssc"/>
          <path style="fill: rgb(255, 242, 172); fill-opacity: 1; fill-rule: evenodd; stroke: none;" d="M 513.82401,785.13468 C 513.82401,785.13468 519.51253,784.19612 521.884,784.68691 C 524.82545,785.29566 528.691,787.06552 530.83954,789.16468 C 532.68778,790.97044 534.86953,796.77688 534.86953,796.77688 C 534.86953,796.77688 535.05027,790.68332 534.19786,788.26912 C 533.68304,786.81105 532.46544,785.01675 531.28731,784.01524 C 529.47873,782.4778 526.49639,780.6904 524.12288,780.65692 C 522.87653,780.63932 520.02323,780.57602 518.33321,781.34958 C 515.45533,782.66681 513.82401,785.13468 513.82401,785.13468 L 513.82401,785.13468 z" id="path5463-8-4-3-7-7" sodipodi:nodetypes="csscssssc"/>
        </g>
        <g style="stroke-width: 2.20079; stroke-miterlimit: 4; stroke-dasharray: none;" transform="translate(5e-06)" id="g5507-8-8-9-9-9">
          <g id="g4565-3-5-0-4-8" transform="translate(-15.4184, 9.63855)" style="stroke-width: 2.20079; stroke-miterlimit: 4; stroke-dasharray: none;">
            <path sodipodi:nodetypes="csssssssssscssssssssssc" d="M 510,854 C 510,854 518.58079,846.96225 520,839 C 521.27665,831.83772 515.5897,823.4485 515.15868,820.07501 C 513.43501,806.58285 517.08804,788.60844 517.41731,787.13928 C 518.72528,781.30321 520.3713,778.8062 521.24764,776.89514 C 521.87847,775.51947 523.68097,772.78394 525.48338,770.13195 C 526.5177,768.6102 528.82115,765.77689 529.99456,762.89507 C 531.23828,759.84067 531.32352,756.73174 531.34154,755.07204 C 531.37224,752.24554 530.83858,749.84125 530.0883,747.53987 C 529.37525,745.35225 527.05165,741.77211 523.68458,739.71432 C 520.05454,737.49595 517.11977,735.71247 516.00301,735.0062 C 512.31404,732.67317 510.04353,725 510,725 C 509.9566,725 507.68591,732.67317 503.99695,735.0062 C 502.88019,735.71247 500.07938,737.49595 496.44934,739.71432 C 493.08225,741.77211 490.75867,745.35225 490.04562,747.53987 C 489.29534,749.84125 488.76167,752.24554 488.79238,755.07204 C 488.81038,756.73174 488.89564,759.84067 490.13936,762.89507 C 491.31276,765.77689 493.61622,768.6102 494.65054,770.13195 C 496.45295,772.78394 498.25545,775.51947 498.88628,776.89514 C 499.76262,778.8062 501.40864,781.30321 502.71661,787.13928 C 503.04588,788.60844 506.69891,806.58285 504.97524,820.07501 C 504.54422,823.4485 498.72335,831.83772 500,839 C 501.41921,846.96225 510,854 510,854 z" style="fill: rgb(255, 226, 75); fill-opacity: 1; fill-rule: evenodd; stroke: none; display: inline;" id="path4520-5-8-5-1-4"/>
            <path id="path4544-2-3-6-6-5" d="M 510,854 L 509.9892,726.04466" style="fill: none; stroke: rgb(170, 136, 0); stroke-width: 2.20079; stroke-linecap: butt; stroke-linejoin: miter; stroke-miterlimit: 4; stroke-dasharray: none; stroke-opacity: 1;" sodipodi:nodetypes="cc"/>
          </g>
          <path style="fill: rgb(221, 173, 0); fill-opacity: 1; fill-rule: evenodd; stroke: none;" d="M 494.84211,863.37821 L 501.83825,855.57482 L 504.52907,850.46226 L 503.9909,843.46613 L 502.10733,836.20091 L 499.14742,829.74294 L 499.14742,819.24873 L 500.22375,808.75453 L 501.56916,797.18399 L 504.52907,788.0352 L 509.37255,781.30814 L 513.40878,774.31201 L 515.02327,770.54486 L 515.83052,763.8178 L 514.75419,757.35983 L 511.34734,751.90052 L 504.79815,747.40379 C 504.79815,747.40379 508.67834,751.76602 511.22365,755.86859 C 512.59026,758.07132 512.5733,760.77373 512.60153,761.39606 C 512.72224,764.05724 512.51973,765.29082 511.79428,767.85404 C 511.12311,770.2253 509.70062,772.82508 508.29622,774.85017 C 506.72269,777.11915 503.90897,779.66021 502.64549,782.11539 C 500.83402,785.63543 499.61169,790.87197 498.87834,794.76225 C 497.97799,799.5384 497.85416,806.05754 497.53293,810.90718 C 497.20708,815.82656 496.33573,822.40648 496.72568,827.32119 C 496.97363,830.44615 498.32558,834.82779 498.87834,837.54632 C 499.26067,839.42665 500.24867,841.832 500.49283,843.73521 C 500.72908,845.57678 500.74549,848.0847 500.49283,849.9241 C 500.20764,852.00034 499.40942,854.71418 498.60926,856.65115 C 497.72614,858.78894 494.84211,863.37821 494.84211,863.37821 L 494.84211,863.37821 z" id="path5377-2-0-3-1-8" sodipodi:nodetypes="cccccccccccccccccssssssssssssc"/>
          <path style="fill: rgb(221, 173, 0); fill-opacity: 1; fill-rule: evenodd; stroke: none;" d="M 485.42423,851.53859 C 485.42423,851.53859 485.58829,847.36236 485.9624,845.61878 C 486.4819,843.1976 487.78212,840.13341 488.65322,837.8154 C 489.48113,835.61232 491.12468,832.85244 491.61312,830.55018 C 492.68586,825.49382 492.45249,818.48904 492.15129,813.32892 C 491.92776,809.49953 490.80711,804.47985 490.26771,800.68206 C 489.84389,797.69805 489.05121,793.05274 488.11505,790.18786 C 487.1165,787.13204 485.48123,783.23081 483.80974,780.48468 C 482.38952,778.15137 480.46588,775.85544 478.69718,773.77384 C 477.32915,772.16379 473.58462,768.93036 473.58462,768.93036 L 474.10495,769.1265 L 474.72254,772.0086 L 477.19291,776.12588 L 479.66328,780.65489 L 483.78056,787.03668 L 486.4568,793.83019 L 487.89784,801.03543 L 489.13303,810.91691 L 489.75062,820.79838 L 489.75062,830.06227 L 487.48612,834.79714 L 484.80988,842.00238 L 483.98643,847.97244 L 485.42423,851.53859 L 485.42423,851.53859 z" id="path5379-6-6-6-2-8" sodipodi:nodetypes="csssssssss"/>
          <path id="path5375-6-2-3-0-9" style="fill: none; stroke: rgb(128, 102, 0); stroke-width: 2.20079; stroke-linecap: butt; stroke-linejoin: miter; stroke-miterlimit: 4; stroke-dasharray: none; stroke-opacity: 1; display: inline;" d="M 494.58157,863.63855 C 494.58157,863.63855 503.16236,856.6008 504.58157,848.63855 C 505.85822,841.47627 500.17127,833.08705 499.74025,829.71356 C 498.01658,816.2214 501.66961,798.24699 501.99888,796.77783 C 503.30685,790.94176 504.95287,788.44475 505.82921,786.53369 C 506.46004,785.15802 508.26254,782.42249 510.06495,779.7705 C 511.09927,778.24875 513.40272,775.41544 514.57613,772.53362 C 515.81985,769.47922 515.90509,766.37029 515.92311,764.71059 C 515.95381,761.88409 515.42015,759.4798 514.66987,757.17842 C 513.95682,754.9908 511.63322,751.41066 508.26615,749.35287 C 504.63611,747.1345 501.70134,745.35102 500.58458,744.64475 C 496.89561,742.31172 494.6251,734.63855 494.58157,734.63855 C 494.53817,734.63855 492.26748,742.31172 488.57852,744.64475 C 487.46176,745.35102 484.66095,747.1345 481.03091,749.35287 C 477.66382,751.41066 475.34024,754.9908 474.62719,757.17842 C 473.87691,759.4798 473.34324,761.88409 473.37395,764.71059 C 473.39195,766.37029 473.47721,769.47922 474.72093,772.53362 C 475.89433,775.41544 478.19779,778.24875 479.23211,779.7705 C 481.03452,782.42249 482.83702,785.15802 483.46785,786.53369 C 484.34419,788.44475 485.99021,790.94176 487.29818,796.77783 C 487.62745,798.24699 491.28048,816.2214 489.55681,829.71356 C 489.12579,833.08705 483.30492,841.47627 484.58157,848.63855 C 486.00078,856.6008 494.58157,863.63855 494.58157,863.63855 z" sodipodi:nodetypes="csssssssssscssssssssssc"/>
          <path style="fill: rgb(255, 242, 172); fill-opacity: 1; fill-rule: evenodd; stroke: none;" d="M 489.82436,781.88416 L 490.55983,748.78792 C 490.55983,748.78792 486.44118,751.8769 484.67605,753.20075 C 483.3522,754.19364 481.08862,755.07612 480.26322,756.51038 C 478.37941,759.7838 477.5524,763.38944 479.16002,766.80698 C 480.11087,768.82833 483.52693,771.41865 485.04379,773.0585 C 487.0885,775.269 489.82436,781.88416 489.82436,781.88416 L 489.82436,781.88416 z" id="path5381-7-2-0-4-4" sodipodi:nodetypes="ccssssc"/>
          <path style="fill: rgb(255, 242, 172); fill-opacity: 1; fill-rule: evenodd; stroke: none;" d="M 498.28229,776.73586 L 498.28229,752.83302 C 498.28229,752.83302 499.59411,755.35291 500.4887,756.14264 C 501.22844,756.79567 502.69784,756.95273 503.43059,757.61359 C 504.49874,758.57695 505.72458,760.24782 506.00474,761.65868 C 506.37568,763.52664 505.82095,766.2424 504.90153,767.91019 C 504.10975,769.34644 501.84676,770.28028 500.85644,771.58756 C 499.81373,772.96399 498.28229,776.73586 498.28229,776.73586 z" id="path5383-8-5-8-4-7" sodipodi:nodetypes="ccsssssc"/>
          <path style="fill: rgb(255, 242, 172); fill-opacity: 1; fill-rule: evenodd; stroke: none;" d="M 492.26781,853.22495 C 491.96044,850.03853 492.03077,842.5606 492.03077,842.5606 C 492.03077,842.5606 489.31115,846.58283 488.85629,848.40229 C 488.61548,849.36553 488.37462,851.44859 488.62368,852.40973 C 489.1935,854.60875 492.90581,859.12202 492.90581,859.12202 C 492.90581,859.12202 492.40913,854.69001 492.26781,853.22495 z" id="path5385-4-2-4-5-0" sodipodi:nodetypes="ccsscs"/>
        </g>
        <g style="stroke-width: 2.20079; stroke-miterlimit: 4; stroke-dasharray: none;" transform="translate(3.5e-05)" id="g5496-1-2-0-9-4">
          <g style="stroke-width: 2.20079; stroke-miterlimit: 4; stroke-dasharray: none;" id="g5416-7-7-4-7-0">
            <g style="stroke-width: 2.20079; stroke-miterlimit: 4; stroke-dasharray: none;" id="g5407-1-1-6-5-6">
              <path style="fill: rgb(255, 226, 75); fill-opacity: 1; fill-rule: evenodd; stroke: none; display: inline;" d="M 513.85885,820.35686 L 509.73115,814.63855 L 479.58155,814.63855 L 475.43815,820.35686 L 479.58155,826.04936 L 509.73115,826.04936 L 513.85885,820.35686 z" id="path4522-8-5-4-3-5" sodipodi:nodetypes="ccccccc"/>
              <g style="stroke-width: 2.20079; stroke-miterlimit: 4; stroke-dasharray: none;" id="g5393-7-2-6-9-3">
                <g style="stroke-width: 2.20079; stroke-miterlimit: 4; stroke-dasharray: none;" id="g5387-8-1-4-0-8">
                  <g style="stroke-width: 2.20079; stroke-miterlimit: 4; stroke-dasharray: none;" id="g5370-7-1-3-5-5">
                    <path id="path5364-7-0-8-5-1" d="M 477.69652,817.99066 L 511.89252,818.1755 L 509.36633,814.60187 L 479.48334,814.54027 L 477.69652,817.99068 L 477.69652,817.99066 z" style="fill: rgb(255, 242, 172); fill-opacity: 1; fill-rule: evenodd; stroke: none;"/>
                    <path id="path5366-4-1-4-6-2" d="M 511.75052,822.80242 L 477.55452,822.61758 L 480.08071,826.19121 L 509.9637,826.25281 L 511.75052,822.8024 L 511.75052,822.80242 z" style="fill: rgb(221, 173, 0); fill-opacity: 1; fill-rule: evenodd; stroke: none; display: inline;"/>
                    <path style="fill: none; stroke: rgb(128, 102, 0); stroke-width: 2.20079; stroke-linecap: butt; stroke-linejoin: miter; stroke-miterlimit: 4; stroke-dasharray: none; stroke-opacity: 1; display: inline;" d="M 1104.2203,376.98337 L 1100.0926,371.26506 L 1069.943,371.26506 L 1065.7996,376.98337 L 1069.943,382.67587 L 1100.0926,382.67587 L 1104.2203,376.98337 z" id="path5368-4-8-0-3-4" sodipodi:nodetypes="ccccccc" transform="translate(-590.361, 443.374)"/>
                  </g>
                </g>
              </g>
            </g>
          </g>
        </g>
      </g>
    </g>
  </g>
</svg>