<?xml version="1.0" standalone="yes"?>
<svg width="482" height="305">
<path style="fill:#fefefe" d="M482 0 L482 305 L0 305 L0 0 L482 0 z"/>
<path style="fill:#b78d7d" d="M251 13 L246 14 L245 13 L240 13 C242.3 11.34 248.7 11.34 251 13 z"/>
<path style="fill:#af867c" d="M240 13 C238.3 14.83 234.8 15.17 232 15 C233.7 13.17 237.2 12.83 240 13 z"/>
<path style="fill:#713d31" d="M245 13 C248 48.5 239.2 88.87 247 120 C248.8 115.1 253 111.6 252 105 C250.1 89.88 266.3 82.11 262 102 L260.3 119.8 C264.3 104.2 266.8 88.59 269 72 L273 48 C274.5 46.17 274.9 42.73 275 40 L276 33 C277.6 30.87 278.1 27.11 278 24 L280 22 L292 21 L305 21 L305 23 L301 40 C297.9 39.36 299.3 43.27 299 45 C297.1 47.48 295.2 49.92 296 54 L296 58 L288 88 C284.7 93.69 282.8 101.1 282 108 C280.5 109.8 280.1 113.3 280 116 L280 117 L277 125 L275 136 C273 137.8 272.2 141.2 272 144 L266 168 C264.4 168.1 265.2 170.1 265 171 C261.7 174.1 255.2 182 262 183 L262 184 L261 185 L257 185 C257.2 183.8 255.7 184 255 184 C256.8 179.1 255.7 173.3 256 168 L255.8 160.3 C253.5 161.7 254 165.4 254 168 L250.3 163.3 C251.8 171.6 248.5 182.3 239 178 L240 178 L243.8 122.3 C242.1 124.2 241.8 128 242 131 L241 152 L240 152 C237.6 151.8 232.8 153.2 234 149 L234 143 C232.9 121.9 229.6 167.5 230 143 L229 136 L228 144 L222 80 C218.6 100.9 226.9 122.1 225 144 C221.5 155.6 228.1 170.4 220 179 C219.1 170.7 211.1 166.3 215 157 L216.8 159.8 L207 104 L203 60 L206.8 76.25 C206.9 81.67 208.6 78.77 208 75 C214.2 68.14 208.3 24.41 218 56 L220.8 71.75 L219 32 L218 23 L221 17 L227 16 L232 15 C234.8 15.17 238.3 14.83 240 13 L245 13 z"/>
<path style="fill:#ab593b" d="M246 14 C250 32.23 240 60.65 257 72 L265 48 L267 77 L269 72 C266.8 88.59 264.3 104.2 260.3 119.8 L262 102 C266.3 82.11 250.1 89.88 252 105 C253 111.6 248.8 115.1 247 120 C239.2 88.87 248 48.5 245 13 L246 14 z"/>
<path style="fill:#d1884c" d="M251 13 L261 16 C263.2 19.25 268.3 18.46 272 19 L272 20 C268.6 22.21 269.4 22.63 272.8 24.25 C272.6 28.21 274.8 30 276 26 L276 28 L276 33 L275 40 C273.2 41.74 272.8 45.2 273 48 L269 72 L267 77 L265 48 L257 72 C240 60.65 250 32.23 246 14 L251 13 z"/>
<path style="fill:#dab4c1" d="M196 15 L184 15 C186.6 13.34 193.4 13.34 196 15 z"/>
<path style="fill:#936a78" d="M196 15 L196 16 L187 16 L184 16 L184 15 L196 15 z"/>
<path style="fill:#9a9a78" d="M232 15 L227 16 L232 15 z"/>
<path style="fill:#bea195" d="M183 16 C181.5 18.1 178.8 20.22 176 20 C177.8 18.42 180.3 16.16 183 16 z"/>
<path style="fill:#835437" d="M184 16 L187 16 C192.5 38.27 197.5 60.1 201 83 C201 83.66 200.8 85.15 202 85 L203 96 C199.4 89.62 201 106.1 203 99 L204 104 C200.5 108.4 203.3 112.5 205 117 C204.8 123.4 211.4 131.1 205 136 L182.3 90.25 L186 105 L192 127 C197.2 135.8 183.6 133.6 190 144 L167 88 C163.4 84.54 167.1 72.47 160 78 C156.8 73.88 151.9 70.15 147.3 72.25 C158.6 110.1 178.4 143 199.8 178.8 L190 144 C196 156 200.2 170.3 205 183 L200 187 C199.1 187.2 197.1 186.4 197 188 C181.6 147.9 155.1 124.5 143.8 88.25 C121.8 92.75 123.9 73.14 119.8 54.25 L108 51 L112 47 C115 46.05 118.1 43.65 120 41 C119.8 39.82 121.3 39.98 122 40 L126 36 C127.4 36.46 128.5 35.35 128 34 C140.3 30.97 144.9 40.41 136 44 L143.8 63.75 L145 56 L147.3 59.75 C151.7 64.52 165.8 68.22 156 59 L154 56 C152.6 50.63 143.8 45.84 150.8 42.25 C145.5 40.73 146.5 32.62 141 31 C143.8 30.98 147.5 31.54 149 29 L163 27 C164.6 27.28 166.7 26.86 167 25 L170 24 C171.9 24.33 173.3 22.46 174 21 C174.7 21.02 176.2 21.18 176 20 C178.8 20.22 181.5 18.1 183 16 L184 16 z"/>
<path style="fill:#a5573d" d="M196 16 L197 16 C205.4 22.04 200.9 30.89 213.8 32.25 C211.8 38.69 220.9 46.51 218 56 C208.3 24.41 214.2 68.14 208 75 C208.6 78.77 206.9 81.67 206.8 76.25 L203 60 L207 104 C205.5 101.3 205 98.5 205 104 L204 104 L203 99 L203 96 L202 85 C205.6 83.14 200.4 76.65 201 83 C197.5 60.1 192.5 38.27 187 16 L196 16 z"/>
<path style="fill:#be7446" d="M202 16 C205.4 19.1 211.3 17.68 216 18 L221 17 L218 23 L219 32 L220.8 71.75 L218 56 C220.9 46.51 211.8 38.69 213.8 32.25 C200.9 30.89 205.4 22.04 197 16 L202 16 z"/>
<path style="fill:#dc9f71" d="M216 18 C211.3 17.68 205.4 19.1 202 16 L216 18 z"/>
<path style="fill:#e3b789" d="M272 19 C268.3 18.46 263.2 19.25 261 16 L272 19 z"/>
<path style="fill:#dcb9ac" d="M288 20 L288 21 L280 21 L277 21 L272 20 L272 19 L288 20 z"/>
<path style="fill:#e2ae66" d="M277 21 L276 26 C274.8 30 272.6 28.21 272.8 24.25 C269.4 22.63 268.6 22.21 272 20 L277 21 z"/>
<path style="fill:#b29994" d="M306 21 L305 21 L292 21 L288 21 L288 20 L306 21 z"/>
<path style="fill:#c692a4" d="M174 21 C173.3 22.46 171.9 24.33 170 24 C170.7 22.54 172.1 20.67 174 21 z"/>
<path style="fill:#b07a5a" d="M280 21 L280 22 L278 24 L276 28 L276 26 L277 21 L280 21 z"/>
<path style="fill:#845651" d="M288 21 L292 21 L280 22 L280 21 L288 21 z"/>
<path style="fill:#d58e4b" d="M306 21 C305.9 29.26 306.8 26.46 310.8 24.25 C309.8 34.98 319.7 34.54 321 40 C323.6 33.75 336.2 33.61 330 40 C328.9 38.34 328.2 35.95 326.3 38.75 C327.3 39.26 326.4 47.1 324 49 C323.3 51.67 325 55.17 328 55 L326 58 C325.4 51.54 318.6 66.52 325 62 C324 64.76 324.5 68.8 321 70 L323 66 C321.6 59.86 313.7 76.25 319 74 L319 76 C317.6 77.41 315.8 79.42 315.8 81.75 C314.4 80.94 313.5 78.45 315 77 C316.2 77.15 316 75.66 316 75 L312.8 66.25 C309 76.54 295.3 67.59 296 58 C298.8 65.65 305.3 63.96 308 57 C300.1 55.73 306.5 40.31 299 51 L299 48 C300.8 46.26 301.2 42.8 301 40 C303.7 35.33 304.1 28.68 305 23 L305 21 L306 21 z"/>
<path style="fill:#e1ae68" d="M314 24 C317.2 28.38 323.2 30.05 328 32 L332 33 L335 36 L335 37 L328 55 C325 55.17 323.3 51.67 324 49 C326.4 47.1 327.3 39.26 326.3 38.75 C328.2 35.95 328.9 38.34 330 40 C336.2 33.61 323.6 33.75 321 40 C319.7 34.54 309.8 34.98 310.8 24.25 C306.8 26.46 305.9 29.26 306 21 L314 24 z"/>
<path style="fill:#9d6445" d="M219 32 L218 23 L219 32 z"/>
<path style="fill:#a06948" d="M305 23 C304.1 28.68 303.7 35.33 301 40 L305 23 z"/>
<path style="fill:#945c39" d="M278 24 C278.1 27.11 277.6 30.87 276 33 L276 28 L278 24 z"/>
<path style="fill:#f2d5b2" d="M328 32 C323.2 30.05 317.2 28.38 314 24 C318.6 26.04 325.7 27.81 328 32 z"/>
<path style="fill:#bcb29f" d="M167 25 C166.7 26.86 164.6 27.28 163 27 C163.6 25.76 165.6 25.02 167 25 z"/>
<path style="fill:#c19e9b" d="M163 27 L149 29 L144 29 L163 27 z"/>
<path style="fill:#d1a99f" d="M144 29 L141 31 L136 31 C137.7 29.17 141.2 28.83 144 29 z"/>
<path style="fill:#9e6963" d="M149 29 C147.5 31.54 143.8 30.98 141 31 L144 29 L149 29 z"/>
<path style="fill:#a4754f" d="M136 31 L141 31 C146.5 32.62 145.5 40.73 150.8 42.25 C143.8 45.84 152.6 50.63 154 56 L146.3 51.25 C144.9 55.9 153.6 64.55 156 59 C165.8 68.22 151.7 64.52 147.3 59.75 L145 56 L143.8 63.75 L136 44 C144.9 40.41 140.3 30.97 128 34 C129.8 31.95 133.2 31.23 136 31 z"/>
<path style="fill:#6d3427" d="M162 31 C167.9 31.12 167.1 40.35 167.8 44.75 L162 31 z"/>
<path style="fill:#f5dbcc" d="M340 36 L335 36 L332 33 L340 36 z"/>
<path style="fill:#b6ada0" d="M128 34 C128.5 35.35 127.4 36.46 126 36 L128 34 z"/>
<path style="fill:#c9a687" d="M126 36 L122 40 C121.8 37.99 124 35.78 126 36 z"/>
<path style="fill:#b28a86" d="M340 36 L344 37 L335 37 L335 36 L340 36 z"/>
<path style="fill:#68362e" d="M335 37 L344 37 C345.7 38.83 349.2 39.17 352 39 L355 39 L360 40 C360.4 42.3 362 44.83 360 47 L356 53 L350 64 L334 94 L305 147 C302.6 149.7 300.2 153.5 299 157 L299 158 C297.8 158.6 297 160.6 297 162 L293 168 L296.8 156.3 L297.8 147.3 C288.3 152.6 283.6 164 279 176 L277.8 168.3 L272 168 L272 163 C284.6 143.4 285.6 120 301.8 104.3 C298.6 112.2 297.8 121 296.8 128.8 C303.5 118.8 307.3 105.7 312 94 L319 76 L319 74 C320.2 73.39 321 71.44 321 70 C324.5 68.8 324 64.76 325 62 L326 58 L328 55 L335 37 z"/>
<path style="fill:#a8897b" d="M352 39 C349.2 39.17 345.7 38.83 344 37 C346.8 36.83 350.3 37.17 352 39 z"/>
<path style="fill:#a8a9a9" d="M360 40 L355 39 L360 40 z"/>
<path style="fill:#9c703f" d="M275 40 C274.9 42.73 274.5 46.17 273 48 C272.8 45.2 273.2 41.74 275 40 z"/>
<path style="fill:#a8653c" d="M301 40 C301.2 42.8 300.8 46.26 299 48 L299 45 C299.3 43.27 297.9 39.36 301 40 z"/>
<path style="fill:#a6855c" d="M362 40 L363 44 L360 47 C362 44.83 360.4 42.3 360 40 L362 40 z"/>
<path style="fill:#e5ce9b" d="M368 44 L363 44 L362 40 L368 44 z"/>
<path style="fill:#b5a291" d="M120 41 C118.1 43.65 115 46.05 112 47 L112 46 L120 41 z"/>
<path style="fill:#e1aa5b" d="M363 44 L368 44 L368 45 C365.2 48.16 369.6 48.38 372 48 L378 51 L378 52 C376 52.24 372.6 53.31 373 56 C367.8 64.71 362.5 72.84 358 77 C355.2 73.75 359.5 60.64 352 64 L356 53 L360 47 L363 44 z"/>
<path style="fill:#fcf3cb" d="M378 51 L372 48 C371.3 46.54 369.9 44.67 368 45 L368 44 C372.2 44.39 377.5 46.66 378 51 z"/>
<path style="fill:#924f31" d="M299 45 L299 48 L299 51 L296 54 C295.2 49.92 297.1 47.48 299 45 z"/>
<path style="fill:#eec38d" d="M372 48 C369.6 48.38 365.2 48.16 368 45 C369.9 44.67 371.3 46.54 372 48 z"/>
<path style="fill:#cab9af" d="M112 46 L112 47 L108 51 L106 51 L106 50 L112 46 z"/>
<path style="fill:#81391c" d="M160 52 L160 51 C155.4 39.25 171.5 58.17 160 52 z"/>
<path style="fill:#c77344" d="M296 58 L296 54 L299 51 C306.5 40.31 300.1 55.73 308 57 C305.3 63.96 298.8 65.65 296 58 z"/>
<path style="fill:#6b3826" d="M170 56 L170 51 C171.5 39.48 177.2 69.31 170 56 z"/>
<path style="fill:#dfc8c7" d="M106 50 L106 51 L96 51 L90 52 L106 50 z"/>
<path style="fill:#724c4b" d="M96 51 L96 52 L88 53 L88 52 L90 52 L96 51 z"/>
<path style="fill:#9e7574" d="M106 51 L96 52 L96 51 L106 51 z"/>
<path style="fill:#5e352c" d="M108 51 L119.8 54.25 C123.9 73.14 121.8 92.75 143.8 88.25 C155.1 124.5 181.6 147.9 197 188 C191.5 192.2 186.6 181.3 185.8 176.3 C175 173.2 181.9 182.3 184 187 L180 184 L179 184 L176 176 C179.6 176.2 177.6 170.5 177.8 168.3 C171.3 166.5 176.4 172 176 175 L172 173 C162 155.8 146.6 144.5 143.8 126.3 C131.1 126.7 126.2 107.4 115 101 C113.4 97.88 111 94.5 108 92 C105.8 91.23 104.9 88.88 104 87 C103.8 84.61 102.3 82 100 81 L100 80 L85 56 L84 56 L88 53 L96 52 L106 51 L108 51 z"/>
<path style="fill:#cc976f" d="M154 56 L156 59 C153.6 64.55 144.9 55.9 146.3 51.25 L154 56 z"/>
<path style="fill:#aa563c" d="M160 51 L160 52 C161.6 56.17 166.1 56.46 170 56 L168 64 C168.5 62.65 167.4 61.54 166 62 C164.4 59.57 163.1 56.74 160 56 L158 56 C157.9 54.17 157.6 51.46 160 51 z"/>
<path style="fill:#a78d80" d="M88 52 L88 53 L84 56 L80 56 C79.94 51.79 84.87 51.61 88 52 z"/>
<path style="fill:#ed8b63" d="M378 52 C378.7 51.98 380.2 51.82 380 53 L380 54 C375.7 51.3 379.1 58.47 373 56 C372.6 53.31 376 52.24 378 52 z"/>
<path style="fill:#a26748" d="M356 53 L352 64 L350 64 L356 53 z"/>
<path style="fill:#cf8d4d" d="M380 54 L381 55 C375 58.08 365.5 68.52 363 78 C357.1 80.55 351.9 88.23 352 95 L352 96 C347.2 94.27 350.7 101.9 346 101 C340.5 90.45 354.7 75.36 350 64 L352 64 C359.5 60.64 355.2 73.75 358 77 C362.5 72.84 367.8 64.71 373 56 C379.1 58.47 375.7 51.3 380 54 z"/>
<path style="fill:#f3e0b3" d="M384 56 L381 55 L380 54 L380 53 C382.3 52.6 385 52.99 384 56 z"/>
<path style="fill:#af6738" d="M381 55 L384 56 L384 57 C379.6 57.42 379 60.87 377 64 L363 78 C365.5 68.52 375 58.08 381 55 z"/>
<path style="fill:#ba9c4b" d="M80 56 L84 56 L85 56 C88.54 64.3 92.84 74.64 100 80 L100 81 C100.4 83.24 102 85.8 104 87 C104.9 88.88 105.8 91.23 108 92 C109.1 94.34 109.6 97.62 112 99 C111.4 102.1 112.1 105.2 116 104 C115.2 108 117.9 110.4 121 112 L122 112 C122.6 115.1 124.6 120.2 128 120 L128 122 C131.9 127.8 134.6 134.9 141 138 L143.8 145.8 C126.3 130.9 122.8 125.6 101.3 123.8 C104.4 112.4 93.81 112.9 88 110 C87.42 107.3 84.99 104.7 83 103 C81.31 103.4 79.59 101.7 80 100 C79.78 98.09 77.91 96.22 76 96 C73.9 92.38 71.61 88.37 68 86 C63.03 84.12 63.72 75.82 58 76 L64 71 C66.91 69.75 71.44 67.57 72 64 L72 63 C74.34 62.97 76.97 60.34 77 58 L80 56 z"/>
<path style="fill:#8b6935" d="M100 80 C92.84 74.64 88.54 64.3 85 56 L100 80 z"/>
<path style="fill:#75361e" d="M158 56 L160 56 C164.4 63.13 156.4 60.13 158 56 z"/>
<path style="fill:#df9d6a" d="M326 58 L325 62 C318.6 66.52 325.4 51.54 326 58 z"/>
<path style="fill:#995040" d="M384 57 L388 61 L377 64 C379 60.87 379.6 57.42 384 57 z"/>
<path style="fill:#cdbc9f" d="M77 58 C76.97 60.34 74.34 62.97 72 63 L77 58 z"/>
<path style="fill:#bd7342" d="M296 58 C295.3 67.59 309 76.54 312.8 66.25 L316 75 C312.9 73.14 312.2 71.72 308.3 73.25 C301.5 81.57 298.5 98.27 288.3 104.3 C291.3 120 281.9 126.8 276 142 L283 108 L288 88 L296 58 z"/>
<path style="fill:#783d31" d="M388 61 L381.3 71.75 C385.9 72 386.9 63.03 392 63 L395 64 C394.4 67.1 398.3 65.7 400 66 C401.2 69.52 405.2 68.99 408 70 C408.6 71.24 410.6 71.98 412 72 L413 72 C406.9 81.87 399.7 89.81 392.3 98.25 C408.9 89.5 393.7 111.1 392.3 118.8 L400 113 C398.3 120 386.4 123.9 388.8 113.3 L379 128 L379 125 L386.8 106.3 C375.6 112 371.6 125.7 370 138 C367.9 135 370.2 124.7 366 131 C366.2 129.8 364.7 130 364 130 C364.3 122.6 340.3 122.2 343.8 136.8 L336.3 137.3 C331.9 151.4 322 157.3 312 168 C315.2 155.3 326.8 149.7 326.8 136.3 L304 160 C318.7 143.2 321.5 120 338 111 L336.3 98.25 C341.9 100.8 351.2 109 352 96 L352 95 C359.1 92.58 360 83.71 363 78 L377 64 L388 61 z"/>
<path style="fill:#9f5f4e" d="M392 63 C386.9 63.03 385.9 72 381.3 71.75 L388 61 L392 63 z"/>
<path style="fill:#8d3921" d="M166 62 C167.4 61.54 168.5 62.65 168 64 L166.3 64.25 C165 69.42 161.8 60.96 166 62 z"/>
<path style="fill:#c4b981" d="M72 64 C71.44 67.57 66.91 69.75 64 71 C65.13 68.08 69.45 65.33 72 64 z"/>
<path style="fill:#6b3b27" d="M176 64 L183.8 87.75 L179.3 87.75 C181.2 78.57 171.1 71.32 176 64 z"/>
<path style="fill:#dea56e" d="M321 70 C321 71.44 320.2 73.39 319 74 C313.7 76.25 321.6 59.86 323 66 L321 70 z"/>
<path style="fill:#a3653f" d="M350 64 C354.7 75.36 340.5 90.45 346 101 C350.7 101.9 347.2 94.27 352 96 C351.2 109 341.9 100.8 336.3 98.25 L338 111 C321.5 120 318.7 143.2 304 160 C302.8 164 301.3 171.1 296 171 C296 168.2 297 165.4 299 164 L302 158 C302.7 154.4 300.8 155.5 299 157 C300.2 153.5 302.6 149.7 305 147 C305.8 149.1 303.9 150.2 303.3 151.8 C304.8 152.3 306.8 152.3 307.8 150.8 C313.6 131.1 332.5 108.4 334 94 L350 64 z"/>
<path style="fill:#bf8073" d="M400 66 C398.3 65.7 394.4 67.1 395 64 C396.8 63.77 399.1 64.5 400 66 z"/>
<path style="fill:#ad9383" d="M408 70 C405.2 68.99 401.2 69.52 400 66 C402.7 66.87 406.6 67.07 408 70 z"/>
<path style="fill:#a98a82" d="M412 72 C410.6 71.98 408.6 71.24 408 70 C409.6 69.72 411.7 70.14 412 72 z"/>
<path style="fill:#af7844" d="M160 78 L160.3 87.75 C163.3 82.91 164.1 85.54 167 88 L190 144 L199.8 178.8 C178.4 143 158.6 110.1 147.3 72.25 C151.9 70.15 156.8 73.88 160 78 z"/>
<path style="fill:#9c5336" d="M316 75 C316 75.66 316.2 77.15 315 77 C312.3 78.46 308.8 86.91 312 89 C310.1 89.6 308.4 94.36 312 94 C307.3 105.7 303.5 118.8 296.8 128.8 C297.8 121 298.6 112.2 301.8 104.3 C285.6 120 284.6 143.4 272 163 L274 152 C274.7 149.6 277.9 145.7 276 143 L276 142 C281.9 126.8 291.3 120 288.3 104.3 C298.5 98.27 301.5 81.57 308.3 73.25 C312.2 71.72 312.9 73.14 316 75 z"/>
<path style="fill:#955c48" d="M420 79 L415.3 75.25 C411.3 83.71 404.1 86.69 408 100 C403.5 99.85 404.6 110.3 400 113 L392.3 118.8 C393.7 111.1 408.9 89.5 392.3 98.25 C399.7 89.81 406.9 81.87 413 72 C416.3 71.8 419 76.16 420 79 z"/>
<path style="fill:#945444" d="M379 74 C381.4 79.42 371.7 76.82 379 74 z"/>
<path style="fill:#754034" d="M420 79 L421 80 C420.6 81.69 422.3 83.41 424 83 L424 84 L427 90 L419 103 L417 106 L419.8 88.25 C411 85.4 413.4 97.3 408 100 C404.1 86.69 411.3 83.71 415.3 75.25 L420 79 z"/>
<path style="fill:#61362d" d="M58 76 C63.72 75.82 63.03 84.12 68 86 C69.19 89.79 71.97 94.89 76 96 C75.78 98.01 77.99 100.2 80 100 C79.59 101.7 81.31 103.4 83 103 C82.73 105.9 85.65 109.4 88 110 C97.2 120.7 104.7 131.4 114 140 C116.8 147.8 126.2 149.2 128.3 156.8 C132 156.8 133.2 153.3 135 151 C146.7 170.4 168.6 181.7 177.3 197.8 L183 196 L186 196 L180 200 C163.4 199.8 154.7 165.9 138.3 170.3 C142.7 180.5 173.3 198 165 208 L165 207 C157.2 196.5 147.2 189.1 136 181 L120 166 L94 143 L88 138 C87.44 134.4 82.91 132.3 80 131 L35 88 L36 88 C37.44 87.98 39.39 87.24 40 86 C40.66 86.02 42.15 86.18 42 85 C43.34 85.33 44.74 84.29 45 83 C46.69 82.26 50.44 82.7 50 80 L52 80 C50.67 85.99 57.92 82.65 55 78 L55 77 L58 76 z"/>
<path style="fill:#a15e36" d="M167 88 C164.1 85.54 163.3 82.91 160.3 87.75 L160 78 C167.1 72.47 163.4 84.54 167 88 z"/>
<path style="fill:#af6a42" d="M319 76 L312 94 C308.4 94.36 310.1 89.6 312 89 C308.8 86.91 312.3 78.46 315 77 C313.5 78.45 314.4 80.94 315.8 81.75 C315.8 79.42 317.6 77.41 319 76 z"/>
<path style="fill:#b3a7a0" d="M55 77 L55 78 L52 80 L50 80 C50.68 78.03 53.15 77.2 55 77 z"/>
<path style="fill:#754546" d="M55 78 C57.92 82.65 50.67 85.99 52 80 L55 78 z"/>
<path style="fill:#a86d3e" d="M363 78 C360 83.71 359.1 92.58 352 95 C351.9 88.23 357.1 80.55 363 78 z"/>
<path style="fill:#9a5d4f" d="M374 79 C378.3 81.47 368.6 90.49 366.3 92.75 L374 79 z"/>
<path style="fill:#b59497" d="M50 80 C50.44 82.7 46.69 82.26 45 83 C45.68 81.03 48.15 80.2 50 80 z"/>
<path style="fill:#aa745b" d="M202 85 C200.8 85.15 201 83.66 201 83 C200.4 76.65 205.6 83.14 202 85 z"/>
<path style="fill:#9a6051" d="M228 144 L226 152 L225 144 C226.9 122.1 218.6 100.9 222 80 L228 144 z"/>
<path style="fill:#c09593" d="M424 83 C422.3 83.41 420.6 81.69 421 80 L424 83 z"/>
<path style="fill:#8d7141" d="M104 87 C102 85.8 100.4 83.24 100 81 C102.3 82 103.8 84.61 104 87 z"/>
<path style="fill:#aa959c" d="M45 83 C44.74 84.29 43.34 85.33 42 85 C42.26 83.71 43.66 82.67 45 83 z"/>
<path style="fill:#bea19b" d="M432 93 L430 93 L427 90 L424 84 L432 93 z"/>
<path style="fill:#a38c94" d="M42 85 C42.15 86.18 40.66 86.02 40 86 C39.85 84.82 41.34 84.98 42 85 z"/>
<path style="fill:#b19fa5" d="M40 86 C39.39 87.24 37.44 87.98 36 88 C36.34 86.14 38.4 85.72 40 86 z"/>
<path style="fill:#93663c" d="M76 96 C71.97 94.89 69.19 89.79 68 86 C71.61 88.37 73.9 92.38 76 96 z"/>
<path style="fill:#c0a05b" d="M35 88 L80 131 C82.35 133.8 84.77 137 88 138 L94 143 C87.05 144.1 77.44 136 74.75 131.3 C64.01 136.6 49.47 117.5 30.25 117.3 C33 124.8 41.28 129.4 48 133 L53 138 L48.25 141.8 C50.1 142 53.42 140.5 53 138 L66 146 C57.23 143.9 62.38 154.1 66 147 C68.66 147.9 70.47 148.9 72 151 C64.2 152.2 76.17 160.8 77 155 C81.36 157.8 86.11 160.1 89 164 C84.68 166.1 86.35 166.4 86.25 169.8 C89.43 170.6 86.74 163.8 90.75 167.3 L89.25 171.8 L157 224 C157.5 225.4 156.4 226.5 155 226 L152 228 L151.8 225.3 C143.7 226.4 137 214.1 132 220 L124 215 C125.8 213.1 123.4 212.8 122 212 L122 211 C129.3 210.4 117.4 204.9 121 211 L106 201 C106.7 196.5 102 190.2 97.25 192.8 C96.55 184.7 94.28 185.9 88 187 L84 185 L91 183 C78.23 175.8 64.48 172.7 66.75 163.3 C57.98 166.4 50.03 163.2 42.25 158.8 C41.52 151.7 50.48 161.6 52 155 C38.01 145.9 41.84 139.6 28.25 140.8 C30.24 131.5 25.78 136.7 20.25 133.8 C33.23 127.4 15.75 126.3 10 130 L10 128 L16 122 C15.98 121.3 15.82 119.8 17 120 L19 119 C18.78 124.8 24.76 118.9 21 117 L22 114 L22 112 C26.16 110.6 26.52 107.1 26 103 C28.96 101.9 29.38 98.56 30 96 L35 88 z"/>
<path style="fill:#a55734" d="M171 88 C176.6 87.36 181.2 89.92 179.8 96.75 L171 88 z"/>
<path style="fill:#9b6541" d="M288 88 L283 108 L282 108 C282.8 101.1 284.7 93.69 288 88 z"/>
<path style="fill:#532c2a" d="M417 106 C414.3 111.7 412.1 117.3 407 122 L400 129 C397.3 129 395.4 132.1 394 134 L375 150 L371 153 C368.9 150.1 362.2 155.2 364 158 L352 170 C346.5 172.4 339.1 178 336 184 C333.6 183.5 331.3 185.9 331.3 187.8 C333.6 188.6 335.6 185.9 336 184 C340.6 182.9 344.7 179.2 348 176 C363.1 169.1 377.4 154.7 396.8 151.8 C394.2 148.2 394.4 148.3 398 146 L405 144 C411.9 150.3 422.1 136.4 430 137 L428 139 C426.4 139.9 423.5 140.4 424 143 C420.7 140.2 415.3 146.5 422 145 C419 149.3 413.5 151.6 407 155 C407.3 150.7 394.3 157.3 400 159 C390.9 172.6 359.4 169.1 364.8 183.8 C353.3 175.4 337.6 199.4 321 198 C319.9 194.8 319.6 189.1 314.3 192.3 C315.4 203.4 304.1 205.4 296 205 C296.2 203.6 296.1 201.3 294 202 L289 200 C288.3 200 286.8 199.8 287 201 L286 201 L286.3 198.3 C294 195.3 285.8 191.2 282 191 C284.7 191.1 288.7 189.1 288 186 C291.3 184.7 295 184.2 293 180 L296 171 C301.3 171.1 302.8 164 304 160 L326.8 136.3 C326.8 149.7 315.2 155.3 312 168 C308.7 168.7 307.5 173.7 306.3 175.8 C309.5 175.7 312.3 171.2 312 168 C322 157.3 331.9 151.4 336.3 137.3 L343.8 136.8 C340.3 122.2 364.3 122.6 364 130 L361 134 L352 144 C337.8 160.1 322.2 174.2 310 192 C306.1 193.9 299.4 199.3 301.3 202.8 C303.7 200.3 309 196.9 310 192 C325.7 174.2 340.2 174.4 343.3 157.3 C356.4 157.3 361.8 143 366 131 C370.2 124.7 367.9 135 370 138 C368.6 143.4 373.5 141.9 374 138 C376.8 135.8 378.7 132 379 128 L388.8 113.3 C386.4 123.9 398.3 120 400 113 C404.6 110.3 403.5 99.85 408 100 C413.4 97.3 411 85.4 419.8 88.25 L417 106 z"/>
<path style="fill:#7c4b3a" d="M128 89 L134.8 95.75 C131.1 96.73 127.4 92.59 128 89 z"/>
<path style="fill:#65372c" d="M204 104 L205 104 L214 151 C208.7 152.1 215.7 159.8 211.3 159.8 C209.1 155.8 210.8 141.6 208.3 151.8 L205.8 148.3 L202.3 144.3 C206.5 159.5 202.6 174.7 210 187 L208 188 C207.3 182.8 202.6 189.4 200 187 L205 183 C200.2 170.3 196 156 190 144 C183.6 133.6 197.2 135.8 192 127 L186 105 L182.3 90.25 L205 136 C211.4 131.1 204.8 123.4 205 117 C203.3 112.5 200.5 108.4 204 104 z"/>
<path style="fill:#ab6d4d" d="M430 93 L419 107 L419 103 L427 90 L430 93 z"/>
<path style="fill:#80682e" d="M115 101 L112 99 C109.6 97.62 109.1 94.34 108 92 C111 94.5 113.4 97.88 115 101 z"/>
<path style="fill:#b6835a" d="M305 147 L334 94 C332.5 108.4 313.6 131.1 307.8 150.8 C306.8 152.3 304.8 152.3 303.3 151.8 C303.9 150.2 305.8 149.1 305 147 z"/>
<path style="fill:#daa964" d="M432 93 L432 96 C420.5 102.1 433.4 119.1 435 104 C441.7 107.4 437.1 113.9 447 109 L448 109 C447 112 449.7 112.4 452 112 C452.3 115.1 455.9 117.1 458 118 L458 119 C448.1 118.4 440.8 113.6 430.3 119.3 C432 120.3 433.3 120.1 432 123 C428.1 119.4 422.1 119.5 416.3 120.3 C414.8 123.4 418.5 124.4 420.8 124.3 L415 128 C402.1 131.8 392.5 140.5 378 151 C377.9 152.6 375.9 151.8 375 152 L375 150 L394 134 C396.7 134 398.6 130.9 400 129 L407 122 C413.3 119.7 416.6 112.5 419 107 L430 93 L432 93 z"/>
<path style="fill:#6a351b" d="M203 96 L203 99 C201 106.1 199.4 89.62 203 96 z"/>
<path style="fill:#d9cd8d" d="M30 96 C29.38 98.56 28.96 101.9 26 103 L30 96 z"/>
<path style="fill:#966437" d="M80 100 C77.99 100.2 75.78 98.01 76 96 C77.91 96.22 79.78 98.09 80 100 z"/>
<path style="fill:#e4c477" d="M432 96 L434 96 C438.2 100.6 441.9 105.7 447 109 C437.1 113.9 441.7 107.4 435 104 C433.4 119.1 420.5 102.1 432 96 z"/>
<path style="fill:#f1e2b8" d="M448 109 L447 109 C441.9 105.7 438.2 100.6 434 96 C439.4 98.34 445.1 104.3 448 109 z"/>
<path style="fill:#9b902c" d="M115 101 L116 104 C112.1 105.2 111.4 102.1 112 99 L115 101 z"/>
<path style="fill:#985b4e" d="M360 99 C364.8 101.5 354.6 106.7 360 99 z"/>
<path style="fill:#996d5e" d="M207 104 L216.8 159.8 L215 157 C215 154.9 215.4 152.7 214 151 L205 104 C205 98.5 205.5 101.3 207 104 z"/>
<path style="fill:#895535" d="M172 173 C172 175.3 173.7 178.4 176 176 L179 184 C168.6 177 181.2 199.7 185 190 C186.4 191.3 189.9 194.1 187 196 C189.1 191.4 179.1 192.2 183 196 L177.3 197.8 C168.6 181.7 146.7 170.4 135 151 C133.2 153.3 132 156.8 128.3 156.8 C126.2 149.2 116.8 147.8 114 140 L120 146 C146 145 143.4 157.8 159 174 L161.8 170.3 C165.9 173.7 159.6 178.4 165.8 177.8 C166.9 161.4 148.8 151.2 141 138 C135.8 129.9 135.3 126.6 128 122 L128 120 L122 112 L121 112 L116 104 L115 101 C126.2 107.4 131.1 126.7 143.8 126.3 C146.6 144.5 162 155.8 172 173 z"/>
<path style="fill:#d4c68b" d="M26 103 C26.52 107.1 26.16 110.6 22 112 L24 108 L26 103 z"/>
<path style="fill:#92653c" d="M88 110 C85.65 109.4 82.73 105.9 83 103 C84.99 104.7 87.42 107.3 88 110 z"/>
<path style="fill:#8d6a41" d="M419 103 L419 107 C416.6 112.5 413.3 119.7 407 122 C412.1 117.3 414.3 111.7 417 106 L419 103 z"/>
<path style="fill:#af8b30" d="M94 104 C101 107.9 85.95 108.9 94 104 z"/>
<path style="fill:#9c7d3f" d="M121 112 C117.9 110.4 115.2 108 116 104 L121 112 z"/>
<path style="fill:#692b16" d="M353 104 C357.8 106.5 347.6 111.7 353 104 z"/>
<path style="fill:#352519" d="M413 104 C417.4 104.1 413.7 108.9 412.8 110.8 C409.3 109.8 412 105.9 413 104 z"/>
<path style="fill:#9f7152" d="M379 125 L376 132 C377 121.7 368 137.7 374 138 C373.5 141.9 368.6 143.4 370 138 C371.6 125.7 375.6 112 386.8 106.3 L379 125 z"/>
<path style="fill:#faf5ce" d="M24 108 L22 112 L22 114 L20 115 C20.88 112 18.89 107.8 24 108 z"/>
<path style="fill:#a6684c" d="M282 108 C281.5 110.6 283.4 114.9 280 116 C280.1 113.3 280.5 109.8 282 108 z"/>
<path style="fill:#c68e5d" d="M283 108 L276 142 L276 143 C272.4 144.3 274.6 149.1 274 152 L269 168 L268.3 162.3 L266 168 L272 144 C273.9 142.2 275.4 139 275 136 L277 125 L280 117 L280 116 C283.4 114.9 281.5 110.6 282 108 L283 108 z"/>
<path style="fill:#9e733e" d="M141 138 C148.8 151.2 166.9 161.4 165.8 177.8 C159.6 178.4 165.9 173.7 161.8 170.3 L159 174 C143.4 157.8 146 145 120 146 L114 140 C104.7 131.4 97.2 120.7 88 110 C93.81 112.9 104.4 112.4 101.3 123.8 C122.8 125.6 126.3 130.9 143.8 145.8 L141 138 z"/>
<path style="fill:#9a7c35" d="M128 120 C124.6 120.2 122.6 115.1 122 112 L128 120 z"/>
<path style="fill:#bc905e" d="M170 117 C168.1 116.6 165.4 114.6 166.3 112.3 C168.2 111.8 169.7 115.2 170 117 z"/>
<path style="fill:#371e2a" d="M406 112 C416.5 110.6 394.6 129.7 400.3 117.3 L406 112 z"/>
<path style="fill:#faeec8" d="M458 118 C455.9 117.1 452.3 115.1 452 112 C454 113.1 457.6 115.2 458 118 z"/>
<path style="fill:#d1c2a6" d="M22 114 L21 117 L19 119 L17 120 L20 115 L22 114 z"/>
<path style="fill:#c8865d" d="M170 117 C172 116.6 173.7 117.7 175.3 118.8 C175.6 115.7 178.8 116 177.8 119.8 C175.2 120.1 169.7 121.2 170 117 z"/>
<path style="fill:#d28b4e" d="M458 119 L458 120 L458 121 C454.1 120.2 450.6 122.1 448 124 C443.1 122.2 437.3 123.3 432 123 C433.3 120.1 432 120.3 430.3 119.3 C440.8 113.6 448.1 118.4 458 119 z"/>
<path style="fill:#a78857" d="M21 117 C24.76 118.9 18.78 124.8 19 119 L21 117 z"/>
<path style="fill:#a48840" d="M94 143 L120 166 L126.8 175.8 C106.6 170.1 86.52 140.6 62 136 C56.54 138 43.17 124.3 48 133 C41.28 129.4 33 124.8 30.25 117.3 C49.47 117.5 64.01 136.6 74.75 131.3 C77.44 136 87.05 144.1 94 143 z"/>
<path style="fill:#99653c" d="M280 117 L277 125 L280 117 z"/>
<path style="fill:#d4954e" d="M432 123 L415 128 L420.8 124.3 C418.5 124.4 414.8 123.4 416.3 120.3 C422.1 119.5 428.1 119.4 432 123 z"/>
<path style="fill:#332634" d="M461 120 C460.7 121.3 461.7 122.7 463 123 L466 128 C466 128.7 465.8 130.2 467 130 C467.7 132 467.5 135.2 470 136 C470.1 137.6 469.3 140.7 472 140 L474 144 L474 148 C472.6 148 470.6 148.8 470 150 C468.7 149.7 467.3 150.7 467 152 C465.7 151.7 464.3 152.7 464 154 L463 154 C461.1 154.2 458.7 155 458 157 L456 159 C453.5 159.6 450.3 160.6 449 163 L448 163 C446.7 162.7 445.3 163.7 445 165 C443.7 164.7 442.3 165.7 442 167 C441.3 167 439.8 166.8 440 168 C438 168.7 434.8 168.5 434 171 C434.2 172.2 432.7 172 432 172 C430 173 426.1 173.5 426 176 C424.6 176 422.6 176.8 422 178 C421.3 178 419.8 177.8 420 179 C419.3 179 417.8 178.8 418 180 C417.3 180 415.8 179.8 416 181 L416 182 C414.4 181.7 412.3 182.1 412 184 C411.3 184 409.8 183.8 410 185 C408.2 184.9 405.5 184.6 405 187 C403.7 186.7 402.3 187.7 402 189 C400.3 189.7 396.6 189.3 397 192 L396 192 C394.6 192 392.6 192.8 392 194 L391 195 C389.1 195.2 386.7 196 386 198 C385.3 198 383.8 197.8 384 199 C381 199.4 377.9 200.8 376 203 C374.7 202.7 373.3 203.7 373 205 L372 205 C370.7 204.7 369.3 205.7 369 207 L366 208 C363.9 208.3 361.3 209.5 360 211 L354 214 C352.7 215.5 350.1 216.7 348 217 C346.7 216.7 345.3 217.7 345 219 L344 219 C342.7 218.7 341.3 219.7 341 221 C340.3 221 338.8 220.8 339 222 C337.7 221.7 336.3 222.7 336 224 L335 224 C333 223.9 331.2 225.9 330 227 C325.1 225.5 320.9 227.4 318 231 L317 232 C315.7 231.7 314.3 232.7 314 234 L311 235 C307.5 236 303.3 237.2 301 240 C297 241.5 292.1 242.9 290 246 C289.3 246 287.8 245.8 288 247 C284.5 246.9 281.9 246.4 282 250 C281.3 250 279.8 249.8 280 251 C278 251.7 274.8 251.5 274 254 L272 256 L264 260 C262.1 259.7 260.7 261.5 260 263 C256.6 264.5 252.3 265.8 250 269 L246 270 C245 262.7 241.5 279.6 246 273 L249 274 C249.7 275.5 251.1 277.3 253 277 L258 280 L258 282 L258 289 L258 290 L256 292 C252.9 291.8 250.2 294.5 248 296 L232 296 C232.6 292.9 228.7 294.3 227 294 L225 294 C224.4 292.8 222.4 292 221 292 C221.4 290.3 219.7 288.6 218 289 C218.2 287.6 218.1 285.3 216 286 L216 285 L218 280 C223.8 283.1 227.3 274.8 222 272 L223.8 271.3 C226.1 277.8 237 268 226 270 C228 268.7 217.6 262.7 220 267 L218 267 C218.2 265.8 216.7 266 216 266 L213 264 C212.7 262.7 211.3 261.7 210 262 C207.8 259.3 204.7 257.1 201 256 L200 256 C199.3 254.5 197.9 252.7 196 253 C195.3 253 193.8 253.2 194 252 C194.2 250.8 192.7 251 192 251 C192.2 249.8 190.7 250 190 250 C190.2 248.8 188.7 249 188 249 C186 247.2 182.8 245.6 180 245 C179.3 243.5 177.9 241.7 176 242 L173 240 L172 240 C172.7 237.3 169.6 238.1 168 238 C168.2 236.8 166.7 237 166 237 C166.2 235.8 164.7 236 164 236 C164.2 234.8 162.7 235 162 235 C162.2 233.8 160.7 234 160 234 C160.2 232.8 158.7 233 158 233 L154 231 C154.2 229.8 152.7 230 152 230 C149.7 228.3 157.4 230 155 226 C156.4 226.5 157.5 225.4 157 224 C158.3 221.3 161.9 219.2 161 215 L163 212 L163 211 C164.3 210.7 165.3 209.3 165 208 C173.3 198 142.7 180.5 138.3 170.3 C154.7 165.9 163.4 199.8 180 200 L177 204 L175 205 C173.2 205.4 173.5 210 176 209 C176.9 210.2 176.9 212.6 179 212 L184 217 C184.9 218.2 184.9 220.6 187 220 L196 228 L197 230 C200.2 234.1 203.9 230.4 199 228 C197.8 228.2 198 226.7 198 226 C198.9 222.8 196.8 220.8 194 220 C192.8 219.4 192 217.4 192 216 L193.3 214.3 C201.3 221.2 189.1 202 192 211 L192 216 L189 212 C189 211.3 189.2 209.8 188 210 L186 208 C186.2 206.6 186.1 204.3 184 205 L184 204 C184 203.3 184.2 201.8 183 202 C182.7 200.7 181.3 199.7 180 200 L186 196 L187 196 C189.9 194.1 186.4 191.3 185 190 L184 189 L184 187 C181.9 182.3 175 173.2 185.8 176.3 C186.6 181.3 191.5 192.2 197 188 C197.1 186.4 199.1 187.2 200 187 C202.6 189.4 207.3 182.8 208 188 L211 195 L211 197 C210.7 198.3 211.7 199.7 213 200 L214 204 L219 216 C218.7 217.3 219.7 218.7 221 219 L221 221 L223 226 C224.2 225.8 224 227.3 224 228 C224.9 233.6 227.9 224.9 225 224 L225 221 L224 216 L224 213 L223 208 L222 200 L222 198 L222 191 C229.5 191 219.6 181.3 222 191 L220 184 L219 184 C218.3 184 216.8 183.8 217 185 L213 187 L210 187 C202.6 174.7 206.5 159.5 202.3 144.3 L205.8 148.3 L208.3 151.8 C210.8 141.6 209.1 155.8 211.3 159.8 C215.7 159.8 208.7 152.1 214 151 C215.4 152.7 215 154.9 215 157 C211.1 166.3 219.1 170.7 220 179 C228.1 170.4 221.5 155.6 225 144 L226 152 C226.2 160.1 227.2 168.8 229 176 C229.9 166.8 229.3 153.5 228 144 L229 136 L230 143 C229.6 167.5 232.9 121.9 234 143 L234 149 C232.8 153.2 237.6 151.8 240 152 L240 160 L240 168 L239 178 C248.5 182.3 251.8 171.6 250.3 163.3 L254 168 L256 168 C255.7 173.3 256.8 179.1 255 184 L250 185 C249.3 185 247.8 184.8 248 186 L248 187 L246 200 C244.5 204 245.1 208.6 245 213 L245 221 C242.9 223.4 244.3 228.4 244.3 231.8 L247 226 L247 224 C248.6 223.9 247.8 221.9 248 221 C251.1 221.6 249.7 217.7 250 216 C252.5 215.2 252.3 212 253 210 C254.9 208.9 255.2 206.2 255 204 L256 200 C258.5 196.9 259.8 192.2 260 188 C261.6 187.9 260.8 185.9 261 185 L262 184 L266 184 C270.2 187.1 271.1 180.9 268.3 179.3 C272.9 179 271.8 172.6 272 169 L272 168 L277.8 168.3 L279 176 C283.6 164 288.3 152.6 297.8 147.3 L296.8 156.3 L293 168 C290.8 170.7 288.5 174.3 288 178 C285 177.7 283.9 181.6 284 184 L283 184 C277.9 182.1 279.5 188 281 190 L282 191 C285.8 191.2 294 195.3 286.3 198.3 L286 201 L284 205 L284 206 C282.6 205.5 281.5 206.6 282 208 L279 213 C277.7 213.3 276.7 214.7 277 216 L274 220 C272.8 219.8 273 221.3 273 222 L271 225 C266.1 227.1 269.4 232.9 272 227 C273.7 227.4 275.4 225.7 275 224 L278 222 L280 220 L284 216 L285 215 C286.7 215.4 288.4 213.7 288 212 C289.4 212.5 290.5 211.4 290 210 C291.4 210.5 292.5 209.4 292 208 C293.9 208.3 295.3 206.5 296 205 C304.1 205.4 315.4 203.4 314.3 192.3 C319.6 189.1 319.9 194.8 321 198 C337.6 199.4 353.3 175.4 364.8 183.8 C359.4 169.1 390.9 172.6 400 159 L407 155 C413.5 151.6 419 149.3 422 145 L424 143 C426.1 142.7 428.7 141.5 430 140 L442 133 L446 131 L448 128 L450 128 L456 123 L458 121 L458 120 L461 120 z"/>
<path style="fill:#90919e" d="M463 123 C461.7 122.7 460.7 121.3 461 120 C462.3 120.3 463.3 121.7 463 123 z"/>
<path style="fill:#865031" d="M458 121 L456 123 L448 125 L448 124 C450.6 122.1 454.1 120.2 458 121 z"/>
<path style="fill:#e6d2b2" d="M16 122 L10 128 C10.3 124.9 13.86 122.9 16 122 z"/>
<path style="fill:#a0763f" d="M141 138 C134.6 134.9 131.9 127.8 128 122 C135.3 126.6 135.8 129.9 141 138 z"/>
<path style="fill:#a46947" d="M240 178 L240 168 L240 160 C241 158.4 243.2 153.6 241 152 L242 131 C241.8 128 242.1 124.2 243.8 122.3 L240 178 z"/>
<path style="fill:#b87543" d="M448 124 L448 125 C436.9 124.3 427.9 125.6 420 131 C414.5 131.9 427.8 135.8 420 137 L410 138 L408 138 C406.9 135.1 385.4 144.8 396.8 144.8 L392 146 L378 151 C392.5 140.5 402.1 131.8 415 128 L432 123 C437.3 123.3 443.1 122.2 448 124 z"/>
<path style="fill:#5a3725" d="M456 123 L450 128 C450.5 126.6 449.4 125.5 448 126 L448 125 L456 123 z"/>
<path style="fill:#825e3d" d="M379 125 L379 128 C378.7 132 376.8 135.8 374 138 L376 132 L379 125 z"/>
<path style="fill:#9e513e" d="M448 125 L448 126 L420 131 C427.9 125.6 436.9 124.3 448 125 z"/>
<path style="fill:#7e3e2d" d="M448 126 C449.4 125.5 450.5 126.6 450 128 L448 128 C445.5 126.5 441.9 131.4 446 131 L442 133 L430 137 C422.1 136.4 411.9 150.3 405 144 L398 146 C398.9 141.3 403.7 140.3 408 138 L410 138 L420 137 C427.8 135.8 414.5 131.9 420 131 L448 126 z"/>
<path style="fill:#aa8150" d="M84 185 L80 186 C80.67 183.9 78.42 183.8 77 184 C74.86 178.4 66.84 169.5 61.25 172.8 C60.73 167 51.54 166.2 47 165 L45 164 C43.47 163.4 38.16 158.4 38 163 L28 156 C27 153.7 24.39 152.2 22 152 C22.25 149 18.37 147.9 16 148 L10 144 C11.21 139.8 6.443 141.2 4 141 C-0.07199 138.5 6.97 131.9 10 130 C15.75 126.3 33.23 127.4 20.25 133.8 C25.78 136.7 30.24 131.5 28.25 140.8 C41.84 139.6 38.01 145.9 52 155 C50.48 161.6 41.52 151.7 42.25 158.8 C50.03 163.2 57.98 166.4 66.75 163.3 C64.48 172.7 78.23 175.8 91 183 L84 185 z"/>
<path style="fill:#b88f6c" d="M376 132 L374 138 C368 137.7 377 121.7 376 132 z"/>
<path style="fill:#a78078" d="M448 128 L446 131 C441.9 131.4 445.5 126.5 448 128 z"/>
<path style="fill:#acadad" d="M467 130 C465.8 130.2 466 128.7 466 128 C467.2 127.8 467 129.3 467 130 z"/>
<path style="fill:#744b2f" d="M62 136 C64.61 146.9 75.91 146.6 84.75 148.3 L83.25 154.8 C107.3 170.1 137.9 189.8 163 212 L161 215 C154.9 212.9 149.6 208.6 146 204 C153.4 210.2 148.8 198.7 146 204 L144 204 L144 202 C142.9 196.6 136.4 193.8 131.3 192.3 L132 194 L89 164 C86.11 160.1 81.36 157.8 77 155 L72 151 C70.47 148.9 68.66 147.9 66 147 L66 146 L53 138 L48 133 C43.17 124.3 56.54 138 62 136 z"/>
<path style="fill:#a38053" d="M400 129 C398.6 130.9 396.7 134 394 134 C395.4 132.1 397.3 129 400 129 z"/>
<path style="fill:#7e5446" d="M366 131 C361.8 143 356.4 157.3 343.3 157.3 C340.2 174.4 325.7 174.2 310 192 C322.2 174.2 337.8 160.1 352 144 C349.8 150.2 365.5 138.2 361 134 L364 130 C364.7 130 366.2 129.8 366 131 z"/>
<path style="fill:#999a9a" d="M470 136 C467.5 135.2 467.7 132 467 130 C469.5 130.8 469.3 134 470 136 z"/>
<path style="fill:#9b7b3c" d="M88 138 C84.77 137 82.35 133.8 80 131 C82.91 132.3 87.44 134.4 88 138 z"/>
<path style="fill:#916c6a" d="M442 133 L430 140 C429.3 140 427.8 140.2 428 139 L430 137 L442 133 z"/>
<path style="fill:#8c5045" d="M295 133 C297.6 134.2 294 139.2 292.3 138.8 L295 133 z"/>
<path style="fill:#3d1f19" d="M379 133 C381.9 135.6 377.2 145 373.3 144.8 C376 142 377.9 137.1 379 133 z"/>
<path style="fill:#a57333" d="M12 134 C14.46 133.1 16.13 135.7 15.75 137.8 C14.19 137.8 9.959 135.9 12 134 z"/>
<path style="fill:#a8755a" d="M361 134 C365.5 138.2 349.8 150.2 352 144 L361 134 z"/>
<path style="fill:#946c3b" d="M120 166 L136 181 C130.2 183 142.1 187.3 136 181 C147.2 189.1 157.2 196.5 165 207 L147.3 194.3 L163 211 L163 212 C137.9 189.8 107.3 170.1 83.25 154.8 L84.75 148.3 C75.91 146.6 64.61 146.9 62 136 C86.52 140.6 106.6 170.1 126.8 175.8 L120 166 z"/>
<path style="fill:#9d6241" d="M275 136 C275.4 139 273.9 142.2 272 144 C272.2 141.2 273 137.8 275 136 z"/>
<path style="fill:#a05637" d="M408 138 C403.7 140.3 398.9 141.3 398 146 L392 146 L396.8 144.8 C385.4 144.8 406.9 135.1 408 138 z"/>
<path style="fill:#6b6b6b" d="M472 140 C469.3 140.7 470.1 137.6 470 136 C471.2 136.6 472 138.6 472 140 z"/>
<path style="fill:#a55c42" d="M420 137 L410 138 L420 137 z"/>
<path style="fill:#d4b576" d="M53 138 C53.42 140.5 50.1 142 48.25 141.8 L53 138 z"/>
<path style="fill:#805b55" d="M428 139 C427.8 140.2 429.3 140 430 140 C428.7 141.5 426.1 142.7 424 143 C423.5 140.4 426.4 139.9 428 139 z"/>
<path style="fill:#b1b2b2" d="M474 144 L472 140 C474.7 139.3 473.9 142.4 474 144 z"/>
<path style="fill:#b3a58c" d="M10 144 L8 144 L4 141 C6.443 141.2 11.21 139.8 10 144 z"/>
<path style="fill:#794f4a" d="M424 143 L422 145 C415.3 146.5 420.7 140.2 424 143 z"/>
<path style="fill:#bc7844" d="M276 143 C277.9 145.7 274.7 149.6 274 152 C274.6 149.1 272.4 144.3 276 143 z"/>
<path style="fill:#e9e8c3" d="M10 144 L16 148 C12.84 148.4 9.368 146.9 8 144 L10 144 z"/>
<path style="fill:#5a3a38" d="M226 152 L228 144 C229.3 153.5 229.9 166.8 229 176 C227.2 168.8 226.2 160.1 226 152 z"/>
<path style="fill:#b1afb9" d="M474 148 L474 144 C475.6 144.2 475.6 147.8 474 148 z"/>
<path style="fill:#d7b87b" d="M66 146 L66 147 C62.38 154.1 57.23 143.9 66 146 z"/>
<path style="fill:#9a5237" d="M392 146 C384.4 152 375 158.8 365 162 L375 152 C375.9 151.8 377.9 152.6 378 151 L392 146 z"/>
<path style="fill:#7f4030" d="M398 146 C394.4 148.3 394.2 148.2 396.8 151.8 C377.4 154.7 363.1 169.1 348 176 L352 172 L365 162 C375 158.8 384.4 152 392 146 L398 146 z"/>
<path style="fill:#9d756c" d="M414 147 C418.4 146.5 413.5 151.4 414 147 z"/>
<path style="fill:#bdbba3" d="M22 152 C19.61 151.8 17 150.3 16 148 C18.37 147.9 22.25 149 22 152 z"/>
<path style="fill:#a7724d" d="M375 150 L375 152 L365 162 L352 172 L352 170 L364 158 L371 153 L375 150 z"/>
<path style="fill:#a7a5b0" d="M470 150 C469.7 151.3 468.3 152.3 467 152 C467.3 150.7 468.7 149.7 470 150 z"/>
<path style="fill:#d8b87d" d="M72 151 L77 155 C76.17 160.8 64.2 152.2 72 151 z"/>
<path style="fill:#d4c0ad" d="M28 156 C25.99 155 22.07 154.5 22 152 C24.39 152.2 27 153.7 28 156 z"/>
<path style="fill:#965a28" d="M241 152 C243.2 153.6 241 158.4 240 160 L240 152 L241 152 z"/>
<path style="fill:#ab6d3f" d="M274 152 L272 163 L272 168 L272 169 L269 172 L269 168 L274 152 z"/>
<path style="fill:#47310a" d="M371 153 L364 158 C362.2 155.2 368.9 150.1 371 153 z"/>
<path style="fill:#b3b4b4" d="M467 152 C466.7 153.3 465.3 154.3 464 154 C464.3 152.7 465.7 151.7 467 152 z"/>
<path style="fill:#714848" d="M407 155 L400 159 C394.3 157.3 407.3 150.7 407 155 z"/>
<path style="fill:#807e89" d="M463 154 C462.3 156 459.9 156.8 458 157 C458.7 155 461.1 154.2 463 154 z"/>
<path style="fill:#342c22" d="M168 155 L171.8 159.8 C168 161.5 167.5 157.8 168 155 z"/>
<path style="fill:#cb9b70" d="M302 158 C301.2 159.2 298.8 161.4 299 158 L299 157 C300.8 155.5 302.7 154.4 302 158 z"/>
<path style="fill:#a97b59" d="M299 158 C298.8 161.4 301.2 159.2 302 158 L299 164 C299.3 162.2 298.8 160.3 297 162 C297 160.6 297.8 158.6 299 158 z"/>
<path style="fill:#c0bfbf" d="M456 159 C456.3 162.9 451.3 161.8 449 163 C450.3 160.6 453.5 159.6 456 159 z"/>
<path style="fill:#4c2d11" d="M256 168 L254 168 C254 165.4 253.5 161.7 255.8 160.3 L256 168 z"/>
<path style="fill:#856b56" d="M45 164 C42.98 163.5 43.07 164.8 44 166 L43 166 L38 163 C38.16 158.4 43.47 163.4 45 164 z"/>
<path style="fill:#c19e74" d="M299 164 C297 165.4 296 168.2 296 171 L288 184 C286.4 185.5 282.1 193.9 282 187 L283 184 L284 184 L288 178 C288.5 174.3 290.8 170.7 293 168 L297 162 C298.8 160.3 299.3 162.2 299 164 z"/>
<path style="fill:#d6a678" d="M269 168 L269 172 L267 176 C267.1 172.6 267.3 166.4 265 172 L265 171 C265.2 170.1 264.4 168.1 266 168 L268.3 162.3 L269 168 z"/>
<path style="fill:#878590" d="M448 163 C447.7 164.3 446.3 165.3 445 165 C445.3 163.7 446.7 162.7 448 163 z"/>
<path style="fill:#634646" d="M45 164 L47 165 L48 168 L44 166 C43.07 164.8 42.98 163.5 45 164 z"/>
<path style="fill:#936545" d="M77 184 L76 184 L71 181 L71 180 C73.3 179.1 67.54 175 67 178 L48 168 L47 165 C51.54 166.2 60.73 167 61.25 172.8 C66.84 169.5 74.86 178.4 77 184 z"/>
<path style="fill:#d8b97b" d="M89 164 L132 194 L133 195 L138 199 C138.4 201.2 141.6 203.5 144 204 L146 204 C149.6 208.6 154.9 212.9 161 215 C161.9 219.2 158.3 221.3 157 224 L89.25 171.8 L90.75 167.3 C86.74 163.8 89.43 170.6 86.25 169.8 C86.35 166.4 84.68 166.1 89 164 z"/>
<path style="fill:#a7a5b0" d="M445 165 C444.7 166.3 443.3 167.3 442 167 C442.3 165.7 443.7 164.7 445 165 z"/>
<path style="fill:#b5abac" d="M44 166 L48 168 L54 173 C50.17 171 45.26 170.3 43 166 L44 166 z"/>
<path style="fill:#9d9ba5" d="M442 167 C442.2 168.2 440.7 168 440 168 C439.8 166.8 441.3 167 442 167 z"/>
<path style="fill:#6e534a" d="M67 178 L71 180 L71 181 L72 184 L56 174 C56.15 172.8 54.66 173 54 173 L48 168 L67 178 z"/>
<path style="fill:#36222e" d="M176 176 L176 175 C176.4 172 171.3 166.5 177.8 168.3 C177.6 170.5 179.6 176.2 176 176 z"/>
<path style="fill:#856865" d="M240 168 L240 178 L239 178 L240 168 z"/>
<path style="fill:#754d45" d="M312 168 C312.3 171.2 309.5 175.7 306.3 175.8 C307.5 173.7 308.7 168.7 312 168 z"/>
<path style="fill:#898792" d="M440 168 C439.2 170.5 436 170.3 434 171 C434.8 168.5 438 168.7 440 168 z"/>
<path style="fill:#f0cb98" d="M267 176 C265.3 177.4 265.2 180.5 264.8 182.8 L264 176 L265 172 C267.3 166.4 267.1 172.6 267 176 z"/>
<path style="fill:#6a3e2c" d="M272 169 C271.8 172.6 272.9 179 268.3 179.3 C271.1 180.9 270.2 187.1 266 184 L267 176 L269 172 L272 169 z"/>
<path style="fill:#855a43" d="M352 170 L352 172 L348 176 C344.7 179.2 340.6 182.9 336 184 C339.1 178 346.5 172.4 352 170 z"/>
<path style="fill:#946f41" d="M265 171 L265 172 L264 176 C261.8 177.3 261.9 180.5 262 183 C255.2 182 261.7 174.1 265 171 z"/>
<path style="fill:#946940" d="M296 171 L293 180 L288 184 L296 171 z"/>
<path style="fill:#50444d" d="M394 171 C404.8 170.2 378.2 188.2 388.8 174.8 C391.1 174 392.5 172.8 394 171 z"/>
<path style="fill:#20161b" d="M412 172 C418.6 177 404.4 177.8 412 172 z"/>
<path style="fill:#8b8893" d="M432 172 C431.2 174.9 428.1 174.8 426 176 C426.1 173.5 430 173 432 172 z"/>
<path style="fill:#baaba8" d="M56 174 C55.34 174 53.85 174.2 54 173 C54.66 173 56.15 172.8 56 174 z"/>
<path style="fill:#7d2f34" d="M176 175 L176 176 C173.7 178.4 172 175.3 172 173 L176 175 z"/>
<path style="fill:#b69463" d="M264 176 L264.8 182.8 C265.2 180.5 265.3 177.4 267 176 L266 184 L262 184 L262 183 C261.9 180.5 261.8 177.3 264 176 z"/>
<path style="fill:#bdbdbd" d="M426 176 C426.7 178.7 423.6 177.9 422 178 C422.6 176.8 424.6 176 426 176 z"/>
<path style="fill:#b2836e" d="M71 180 L67 178 C67.54 175 73.3 179.1 71 180 z"/>
<path style="fill:#7c6140" d="M288 178 L284 184 C283.9 181.6 285 177.7 288 178 z"/>
<path style="fill:#888989" d="M422 178 C422.2 179.2 420.7 179 420 179 C419.8 177.8 421.3 178 422 178 z"/>
<path style="fill:#999999" d="M420 179 C420.2 180.2 418.7 180 418 180 C417.8 178.8 419.3 179 420 179 z"/>
<path style="fill:#6f4a37" d="M293 180 C295 184.2 291.3 184.7 288 186 L288 184 L293 180 z"/>
<path style="fill:#7f7f7f" d="M418 180 C418.2 181.2 416.7 181 416 181 C415.8 179.8 417.3 180 418 180 z"/>
<path style="fill:#5d3d24" d="M71 181 L76 184 L72 184 L71 181 z"/>
<path style="fill:#ad8158" d="M136 181 C142.1 187.3 130.2 183 136 181 z"/>
<path style="fill:#ba7951" d="M179 184 L180 184 C180.3 186 181.8 189.1 184 189 L185 190 C181.2 199.7 168.6 177 179 184 z"/>
<path style="fill:#80828e" d="M240 183 L234 183 C234.7 181.4 239.3 181.4 240 183 z"/>
<path style="fill:#3f181e" d="M304 182 C308.5 181.9 309.9 188.1 305 184 C303.1 187.2 302.3 184.2 304 182 z"/>
<path style="fill:#b2b0bb" d="M416 182 C415.4 183.2 413.4 184 412 184 C412.3 182.1 414.4 181.7 416 182 z"/>
<path style="fill:#989ca8" d="M234 183 C234.2 184.2 232.7 184 232 184 C231.8 182.8 233.3 183 234 183 z"/>
<path style="fill:#eaf1f9" d="M240 183 L240 184 L239 189 L239 192 C236.1 196.1 237.2 202.6 237 208 L236 216 L236 219 C233.3 227.2 235.2 220.2 233 216 L232 211 L232 208 L231 204 L231 200 C231 196.3 231.6 191.5 229 189 C228.9 186.7 228.3 182.9 232 184 C232.7 184 234.2 184.2 234 183 L240 183 z"/>
<path style="fill:#6a6b6b" d="M76 184 L77 184 C78.42 183.8 80.67 183.9 80 186 L80 187 L80 189 C77.01 188.4 74.2 185.8 72 184 L76 184 z"/>
<path style="fill:#845942" d="M184 187 L184 189 C181.8 189.1 180.3 186 180 184 L184 187 z"/>
<path style="fill:#8c7b8b" d="M219 184 C219.2 185.2 217.7 185 217 185 C216.8 183.8 218.3 184 219 184 z"/>
<path style="fill:#ebeff6" d="M220 184 C219.9 188.8 220.2 194.2 222 198 L222 200 L223 208 L224 213 L224 216 L225 221 L225 224 L224 228 C224 227.3 224.2 225.8 223 226 C223.1 224.2 223.4 221.5 221 221 L221 219 C221.3 217.7 220.3 216.3 219 216 L214 204 L213 200 C213.3 198.7 212.3 197.3 211 197 L211 195 C209.7 191.8 209.2 187.8 213 187 L217 185 C217.7 185 219.2 185.2 219 184 L220 184 z"/>
<path style="fill:#a7a2b1" d="M222 191 L222 198 C220.2 194.2 219.9 188.8 220 184 L222 191 z"/>
<path style="fill:#a79caa" d="M240 184 L239 189 L240 184 z"/>
<path style="fill:#676d7a" d="M255 184 C255.7 184 257.2 183.8 257 185 L250 185 L255 184 z"/>
<path style="fill:#492a0f" d="M283 184 L282 187 C280.4 187.1 281.2 189.1 281 190 C279.5 188 277.9 182.1 283 184 z"/>
<path style="fill:#896144" d="M288 184 L288 186 C288.7 189.1 284.7 191.1 282 191 L281 190 C281.2 189.1 280.4 187.1 282 187 C282.1 193.9 286.4 185.5 288 184 z"/>
<path style="fill:#70514f" d="M336 184 C335.6 185.9 333.6 188.6 331.3 187.8 C331.3 185.9 333.6 183.5 336 184 z"/>
<path style="fill:#906c3f" d="M84 185 L88 187 C90.32 188.5 97.79 191.2 93 194 L80 187 L80 186 L84 185 z"/>
<path style="fill:#aa7d4e" d="M106 201 L103 201 C100.9 198.6 97.43 194.1 95 195 C94.34 195 92.85 195.2 93 194 C97.79 191.2 90.32 188.5 88 187 C94.28 185.9 96.55 184.7 97.25 192.8 C102 190.2 106.7 196.5 106 201 z"/>
<path style="fill:#c0b7ca" d="M250 185 L257 185 L261 185 C260.8 185.9 261.6 187.9 260 188 L248 186 C247.8 184.8 249.3 185 250 185 z"/>
<path style="fill:#778389" d="M410 185 L405 187 C405.5 184.6 408.2 184.9 410 185 z"/>
<path style="fill:#171524" d="M222 191 C219.6 181.3 229.5 191 222 191 z"/>
<path style="fill:#edf2f9" d="M260 188 C258.1 191.2 256.6 195.9 256 200 L255 204 C253.1 205.1 252.8 207.8 253 210 C250.8 210.9 249.8 213.7 250 216 L248 221 C247.8 221.9 248.6 223.9 247 224 L246 213 L247 200 L248 187 L248 186 L260 188 z"/>
<path style="fill:#5f4f32" d="M93 194 C92.85 195.2 94.34 195 95 195 C95.93 196.2 96.02 197.5 94 197 L82 190 C82.15 188.8 80.66 189 80 189 L80 187 L93 194 z"/>
<path style="fill:#9f9cab" d="M210 187 L213 187 C209.2 187.8 209.7 191.8 211 195 L208 188 L210 187 z"/>
<path style="fill:#545762" d="M248 187 L247 200 L246 200 L248 187 z"/>
<path style="fill:#7d888e" d="M405 187 C404.7 188.3 403.3 189.3 402 189 C402.3 187.7 403.7 186.7 405 187 z"/>
<path style="fill:#989aa5" d="M260 188 C259.8 192.2 258.5 196.9 256 200 C256.6 195.9 258.1 191.2 260 188 z"/>
<path style="fill:#a3a494" d="M82 190 C81.34 190 79.85 190.2 80 189 C80.66 189 82.15 188.8 82 190 z"/>
<path style="fill:#99aaae" d="M231 200 C229.5 197.2 229.2 192.7 229 189 C231.6 191.5 231 196.3 231 200 z"/>
<path style="fill:#9598a3" d="M402 189 L397 192 C396.6 189.3 400.3 189.7 402 189 z"/>
<path style="fill:#a29bad" d="M201 192 L198 191 C198.2 189 202 189.9 201 192 z"/>
<path style="fill:#6f697c" d="M278 196 C281.3 190.6 271.4 190.1 268 192 C269 187 285.8 190.4 278 196 z"/>
<path style="fill:#efedf5" d="M201 192 C201.1 193.6 200.3 196.7 203 196 L203 197 C203.2 197.9 202.4 199.9 204 200 C205.2 199.8 205 201.3 205 202 L208 210 L209 214 C208.7 215.6 209.1 217.7 211 218 C211.2 218.9 210.4 220.9 212 221 C212.1 223.1 211.2 226.4 214 227 L213 232 C213.2 229.7 210.7 228.1 209 227 C207.3 223.9 206 220 203 218 C203 217.3 203.2 215.8 202 216 L198 209 C198.3 207.1 196.5 205.7 195 205 L192 201 L192 200 L191 199 L192 195 C192.7 195 194.2 195.2 194 194 L198 191 L201 192 z"/>
<path style="fill:#efedf5" d="M278 196 C276.1 196.3 275.7 198.4 276 200 C273.7 201 272.2 203.6 272 206 C270.6 205.5 269.5 206.6 270 208 C268.7 208.3 267.7 209.7 268 211 C266.8 210.8 267 212.3 267 213 C265 213.7 264.2 216.1 264 218 C262.6 217.5 261.5 218.6 262 220 C260.7 220.3 259.7 221.7 260 223 L259 224 L259 219 L260 214 C261.2 214.2 261 212.7 261 212 C261 211.3 260.8 209.8 262 210 L264 204 L264 202 C266.4 201.5 266.1 198.8 266 197 C268.4 196.5 268.1 193.8 268 192 C271.4 190.1 281.3 190.6 278 196 z"/>
<path style="fill:#61351a" d="M144 202 C142 202.1 140.2 200.1 139 199 C138.9 196.5 135 196 133 195 L132 194 L131.3 192.3 C136.4 193.8 142.9 196.6 144 202 z"/>
<path style="fill:#a29da9" d="M203 196 C200.3 196.7 201.1 193.6 201 192 C202.2 192.6 203 194.6 203 196 z"/>
<path style="fill:#b4a6b5" d="M239 192 L237 208 C237.2 202.6 236.1 196.1 239 192 z"/>
<path style="fill:#8b949b" d="M268 192 C268.1 193.8 268.4 196.5 266 197 L268 192 z"/>
<path style="fill:#36241e" d="M296 192 C305.7 189.9 292.6 201.1 295 195 C296.6 194.9 295.8 192.9 296 192 z"/>
<path style="fill:#754b48" d="M310 192 C309 196.9 303.7 200.3 301.3 202.8 C299.4 199.3 306.1 193.9 310 192 z"/>
<path style="fill:#17111f" d="M384 192 C390 192.8 375.8 197.3 380 193 L384 192 z"/>
<path style="fill:#859096" d="M396 192 C395.7 193.9 393.6 194.3 392 194 C392.6 192.8 394.6 192 396 192 z"/>
<path style="fill:#be925f" d="M187 196 L186 196 L183 196 C179.1 192.2 189.1 191.4 187 196 z"/>
<path style="fill:#785445" d="M103 201 L99 200 L98 200 C97.74 198.7 96.34 197.7 95 198 L94 197 C96.02 197.5 95.93 196.2 95 195 C97.43 194.1 100.9 198.6 103 201 z"/>
<path style="fill:#bc8256" d="M165 207 L165 208 C165.3 209.3 164.3 210.7 163 211 L147.3 194.3 L165 207 z"/>
<path style="fill:#829297" d="M194 194 C194.2 195.2 192.7 195 192 195 C191.8 193.8 193.3 194 194 194 z"/>
<path style="fill:#846131" d="M139 199 L138 199 L133 195 C135 196 138.9 196.5 139 199 z"/>
<path style="fill:#9279a0" d="M192 195 L191 199 C189.2 198.6 189.5 194 192 195 z"/>
<path style="fill:#9faab0" d="M391 195 C390.3 197 387.9 197.8 386 198 C386.7 196 389.1 195.2 391 195 z"/>
<path style="fill:#8c8a95" d="M278 196 C278 197.4 277.2 199.4 276 200 C275.7 198.4 276.1 196.3 278 196 z"/>
<path style="fill:#948997" d="M204 200 C202.4 199.9 203.2 197.9 203 197 C204.6 197.1 203.8 199.1 204 200 z"/>
<path style="fill:#787786" d="M213 200 C211.7 199.7 210.7 198.3 211 197 C212.3 197.3 213.3 198.7 213 200 z"/>
<path style="fill:#888994" d="M266 197 C266.1 198.8 266.4 201.5 264 202 L266 197 z"/>
<path style="fill:#c49abb" d="M98 200 C96.66 200.3 95.26 199.3 95 198 C96.34 197.7 97.74 198.7 98 200 z"/>
<path style="fill:#9ea9af" d="M386 198 C386.2 199.2 384.7 199 384 199 C383.8 197.8 385.3 198 386 198 z"/>
<path style="fill:#b08f51" d="M139 199 C140.2 200.1 142 202.1 144 202 L144 204 C141.6 203.5 138.4 201.2 138 199 L139 199 z"/>
<path style="fill:#a985b0" d="M192 200 L191 199 L192 200 z"/>
<path style="fill:#9d99a5" d="M384 199 C382.3 201.3 378.9 202.7 376 203 C377.9 200.8 381 199.4 384 199 z"/>
<path style="fill:#918463" d="M103 201 L106 201 L121 211 L122 211 L122 212 L119 212 C112.1 209 104.2 203.7 99 200 L103 201 z"/>
<path style="fill:#9ba5ac" d="M183 202 L177 204 L180 200 C181.3 199.7 182.7 200.7 183 202 z"/>
<path style="fill:#85828e" d="M214 204 L213 200 L214 204 z"/>
<path style="fill:#bcbac4" d="M223 208 L222 200 L223 208 z"/>
<path style="fill:#898995" d="M247 200 L246 213 L245 213 C245.1 208.6 244.5 204 246 200 L247 200 z"/>
<path style="fill:#eae8f1" d="M289 200 C289.5 202.4 292.2 202.1 294 202 C296.1 201.3 296.2 203.6 296 205 C294.1 204.7 292.7 206.5 292 208 L290 210 L288 212 L285 215 L284 216 L280 220 C278.6 219.5 277.5 220.6 278 222 L275 224 L272 227 C270.8 227.2 271 225.7 271 225 L273 222 C274.2 222.2 274 220.7 274 220 C276.3 220.5 277.5 217.9 277 216 C278.3 215.7 279.3 214.3 279 213 L282 208 L284 206 L284 205 C285.5 204.3 287.3 202.9 287 201 C286.8 199.8 288.3 200 289 200 z"/>
<path style="fill:#b4a8ad" d="M294 202 C292.2 202.1 289.5 202.4 289 200 L294 202 z"/>
<path style="fill:#423351" d="M332 200 C336.3 198.5 336.7 202.7 335.8 205.8 C331.3 207.8 331.8 202.9 332 200 z"/>
<path style="fill:#82808b" d="M195 205 L192 201 L195 205 z"/>
<path style="fill:#919fa5" d="M287 201 C287.3 202.9 285.5 204.3 284 205 L286 201 L287 201 z"/>
<path style="fill:#60381c" d="M146 204 C148.8 198.7 153.4 210.2 146 204 z"/>
<path style="fill:#e6e5ee" d="M183 202 C183 202.7 182.8 204.2 184 204 L184 205 L186 208 L188 210 C188 210.7 187.8 212.2 189 212 L192 216 C192 217.4 192.8 219.4 194 220 L197 226 C197 226.7 197.2 228.2 196 228 L187 220 C186.1 218.8 186.1 216.4 184 217 L179 212 C178.1 210.8 178.1 208.4 176 209 L175 205 L177 204 L183 202 z"/>
<path style="fill:#868992" d="M184 204 C182.8 204.2 183 202.7 183 202 C184.2 201.8 184 203.3 184 204 z"/>
<path style="fill:#807e89" d="M208 210 L205 202 L208 210 z"/>
<path style="fill:#9f9da8" d="M376 203 C375.7 204.3 374.3 205.3 373 205 C373.3 203.7 374.7 202.7 376 203 z"/>
<path style="fill:#5d5e6a" d="M219 216 L214 204 L219 216 z"/>
<path style="fill:#83969a" d="M232 208 L231 204 L232 208 z"/>
<path style="fill:#74707c" d="M255 204 C255.2 206.2 254.9 208.9 253 210 C252.8 207.8 253.1 205.1 255 204 z"/>
<path style="fill:#8a8893" d="M264 204 L262 210 C262.1 207.9 261.2 204.6 264 204 z"/>
<path style="fill:#7a6e82" d="M175 205 L176 209 C173.5 210 173.2 205.4 175 205 z"/>
<path style="fill:#9d9aa5" d="M186 208 L184 205 C186.1 204.3 186.2 206.6 186 208 z"/>
<path style="fill:#aba9b3" d="M198 209 C196.5 208.3 194.7 206.9 195 205 C196.5 205.7 198.3 207.1 198 209 z"/>
<path style="fill:#707975" d="M296 205 C295.3 206.5 293.9 208.3 292 208 C292.7 206.5 294.1 204.7 296 205 z"/>
<path style="fill:#9c9aa4" d="M372 205 C371.7 206.3 370.3 207.3 369 207 C369.3 205.7 370.7 204.7 372 205 z"/>
<path style="fill:#8c8a95" d="M272 206 L270 208 C269.5 206.6 270.6 205.5 272 206 z"/>
<path style="fill:#8b949b" d="M284 206 L282 208 C281.5 206.6 282.6 205.5 284 206 z"/>
<path style="fill:#c1824d" d="M122 211 L121 211 C117.4 204.9 129.3 210.4 122 211 z"/>
<path style="fill:#191722" d="M192 216 L192 211 C189.1 202 201.3 221.2 193.3 214.3 L192 216 z"/>
<path style="fill:#8c9ba0" d="M224 213 L223 208 L224 213 z"/>
<path style="fill:#aeacb7" d="M237 208 L236 216 L237 208 z"/>
<path style="fill:#8c8a94" d="M270 208 C270.3 209.3 269.3 210.7 268 211 C267.7 209.7 268.7 208.3 270 208 z"/>
<path style="fill:#7a7883" d="M292 208 C292.5 209.4 291.4 210.5 290 210 L292 208 z"/>
<path style="fill:#3f3b4e" d="M320 216 L320 215 C320.5 211.8 317.4 207.6 324 211 C321.5 206.9 332.3 207.7 336 209 C334.1 211.7 326.2 208 326.3 212.8 C330.1 215.9 321.9 218 320 216 z"/>
<path style="fill:#9e9ca7" d="M366 208 C366.2 210.8 362.1 210.6 360 211 C361.3 209.5 363.9 208.3 366 208 z"/>
<path style="fill:#7e7c87" d="M179 212 C176.9 212.6 176.9 210.2 176 209 C178.1 208.4 178.1 210.8 179 212 z"/>
<path style="fill:#817f8a" d="M189 212 C187.8 212.2 188 210.7 188 210 C189.2 209.8 189 211.3 189 212 z"/>
<path style="fill:#8c919c" d="M253 210 C252.3 212 252.5 215.2 250 216 C249.8 213.7 250.8 210.9 253 210 z"/>
<path style="fill:#797782" d="M290 210 C290.5 211.4 289.4 212.5 288 212 L290 210 z"/>
<path style="fill:#9997a1" d="M233 216 L232 211 L233 216 z"/>
<path style="fill:#8a8893" d="M304 212 L301 212 C301 210.5 304 210.5 304 212 z"/>
<path style="fill:#a2a0ab" d="M360 211 C359.1 213.5 356.5 214.5 354 214 L360 211 z"/>
<path style="fill:#b49a83" d="M122 212 C123.4 212.8 125.8 213.1 124 215 C122.1 214.8 119.7 214 119 212 L122 212 z"/>
<path style="fill:#7c7a8a" d="M168 213 C166 212.8 163.8 215 164 217 C160.6 215.5 166.5 209.6 168 213 z"/>
<path style="fill:#817f8a" d="M261 212 C261 212.7 261.2 214.2 260 214 C260 213.3 259.8 211.8 261 212 z"/>
<path style="fill:#6e6c77" d="M288 212 C288.4 213.7 286.7 215.4 285 215 L288 212 z"/>
<path style="fill:#8b8994" d="M301 212 C301 212.7 301.2 214.2 300 214 C300 213.3 299.8 211.8 301 212 z"/>
<path style="fill:#e9e9f2" d="M304 212 C304.3 213.3 305.7 214.3 307 214 C308.1 215.4 308.1 216.6 307 218 L302 221 C300.3 220.6 298.6 222.3 299 224 L298 224 L296 226 L287 232 C285.1 231.7 283.7 233.5 283 235 L280 236 L280 234 L280 233 C281.4 233.5 282.5 232.4 282 231 C283.4 231.5 284.5 230.4 284 229 C286.6 229.5 287.1 226.6 288 225 L289 224 L290 223 C292 223.2 294.2 221 294 219 C295.3 218.1 297.6 217.9 298 216 L298 215 C298.7 215 300.2 215.2 300 214 C301.2 214.2 301 212.7 301 212 L304 212 z"/>
<path style="fill:#93888c" d="M307 214 C305.7 214.3 304.3 213.3 304 212 C305.3 211.7 306.7 212.7 307 214 z"/>
<path style="fill:#cbcde8" d="M168 213 L170 216 L166 217 L164 217 C163.8 215 166 212.8 168 213 z"/>
<path style="fill:#c2c6cf" d="M246 213 L247 224 L247 226 C243.8 228.5 245.3 222.7 245 221 L245 213 L246 213 z"/>
<path style="fill:#615e6a" d="M267 213 C266.8 214.9 266 217.3 264 218 C264.2 216.1 265 213.7 267 213 z"/>
<path style="fill:#a5a3ae" d="M279 213 C279.3 214.3 278.3 215.7 277 216 C276.7 214.7 277.7 213.3 279 213 z"/>
<path style="fill:#5f5559" d="M320 215 L320 216 C312.9 217.1 316.3 209.4 320 215 z"/>
<path style="fill:#8e8e9f" d="M211 218 C209.1 217.7 208.7 215.6 209 214 C210.2 214.6 211 216.6 211 218 z"/>
<path style="fill:#9b99a4" d="M260 214 L259 219 L260 214 z"/>
<path style="fill:#8e8c96" d="M300 214 C300.2 215.2 298.7 215 298 215 C297.8 213.8 299.3 214 300 214 z"/>
<path style="fill:#7b717c" d="M307 218 C308.1 216.6 308.1 215.4 307 214 C309.9 212.9 309.9 219.1 307 218 z"/>
<path style="fill:#918f9a" d="M285 215 L284 216 L285 215 z"/>
<path style="fill:#e6e1e6" d="M170 216 L172 217 C173.2 218.8 172.7 222.1 176 221 L187 232 L188 233 C188.2 234.2 186.7 234 186 234 L180 230 L178 228 C178.2 226.8 176.7 227 176 227 L173 224 C172.7 222.7 171.3 221.7 170 222 L168 220 L166 217 L170 216 z"/>
<path style="fill:#888691" d="M203 218 C201.8 218.2 202 216.7 202 216 C203.2 215.8 203 217.3 203 218 z"/>
<path style="fill:#8f8e9c" d="M221 219 C219.7 218.7 218.7 217.3 219 216 C220.3 216.3 221.3 217.7 221 219 z"/>
<path style="fill:#8b8993" d="M225 221 L224 216 L225 221 z"/>
<path style="fill:#92909b" d="M236 219 C235.6 221.3 237.6 227.4 233.3 225.8 L233 216 C235.2 220.2 233.3 227.2 236 219 z"/>
<path style="fill:#83979b" d="M250 216 C249.7 217.7 251.1 221.6 248 221 L250 216 z"/>
<path style="fill:#aaa8b3" d="M277 216 C277.5 217.9 276.3 220.5 274 220 L277 216 z"/>
<path style="fill:#859096" d="M298 216 C297.6 217.9 295.3 218.1 294 219 C293.5 216.8 296.4 216.2 298 216 z"/>
<path style="fill:#9e9e9e" d="M166 217 L168 220 C166.1 220.3 164.7 218.5 164 217 L166 217 z"/>
<path style="fill:#a1a1a1" d="M176 221 C172.7 222.1 173.2 218.8 172 217 L176 221 z"/>
<path style="fill:#716f7a" d="M187 220 C184.9 220.6 184.9 218.2 184 217 C186.1 216.4 186.1 218.8 187 220 z"/>
<path style="fill:#8e8c97" d="M348 217 C347.7 218.3 346.3 219.3 345 219 C345.3 217.7 346.7 216.7 348 217 z"/>
<path style="fill:#ad7f61" d="M152 228 C149.9 226.4 145.7 224.3 144 226 L138 224 C138.5 221.8 135.6 221.2 134 221 C133.3 221 131.8 221.2 132 220 C137 214.1 143.7 226.4 151.8 225.3 L152 228 z"/>
<path style="fill:#86848f" d="M264 218 L262 220 C261.5 218.6 262.6 217.5 264 218 z"/>
<path style="fill:#9d9ba6" d="M259 219 L259 224 C256.3 232.8 254.5 220.8 259 219 z"/>
<path style="fill:#9ea9af" d="M294 219 C294.2 221 292 223.2 290 223 L294 219 z"/>
<path style="fill:#8a8893" d="M344 219 C343.7 220.3 342.3 221.3 341 221 C341.3 219.7 342.7 218.7 344 219 z"/>
<path style="fill:#5f5d69" d="M198 226 L197 226 L194 220 C196.8 220.8 198.9 222.8 198 226 z"/>
<path style="fill:#85838e" d="M262 220 C262.3 221.3 261.3 222.7 260 223 C259.7 221.7 260.7 220.3 262 220 z"/>
<path style="fill:#8b8994" d="M274 220 C274 220.7 274.2 222.2 273 222 C273 221.3 272.8 219.8 274 220 z"/>
<path style="fill:#7d7b86" d="M280 220 L278 222 C277.5 220.6 278.6 219.5 280 220 z"/>
<path style="fill:#e2c7af" d="M138 224 C136.1 224.3 134.7 222.5 134 221 C135.6 221.2 138.5 221.8 138 224 z"/>
<path style="fill:#8f8a96" d="M214 227 C211.2 226.4 212.1 223.1 212 221 C213.4 222.2 214 224.9 214 227 z"/>
<path style="fill:#7e858e" d="M223 226 L221 221 C223.4 221.5 223.1 224.2 223 226 z"/>
<path style="fill:#898894" d="M245 221 C245.3 222.7 243.8 228.5 247 226 L244.3 231.8 C244.3 228.4 242.9 223.4 245 221 z"/>
<path style="fill:#96a1a7" d="M302 221 L299 224 C298.6 222.3 300.3 220.6 302 221 z"/>
<path style="fill:#a6a4af" d="M341 221 C341.2 222.2 339.7 222 339 222 C338.8 220.8 340.3 221 341 221 z"/>
<path style="fill:#9c9d9d" d="M173 224 C171.7 224.3 170.3 223.3 170 222 C171.3 221.7 172.7 222.7 173 224 z"/>
<path style="fill:#a19faa" d="M339 222 C338.7 223.3 337.3 224.3 336 224 C336.3 222.7 337.7 221.7 339 222 z"/>
<path style="fill:#79848a" d="M290 223 L289 224 L290 223 z"/>
<path style="fill:#6e6c77" d="M176 227 C174.3 227.4 172.6 225.7 173 224 L176 227 z"/>
<path style="fill:#7f7d88" d="M224 228 L225 224 C227.9 224.9 224.9 233.6 224 228 z"/>
<path style="fill:#6c6a74" d="M275 224 C275.4 225.7 273.7 227.4 272 227 L275 224 z"/>
<path style="fill:#85838e" d="M289 224 L288 225 L289 224 z"/>
<path style="fill:#797782" d="M298 224 C298.5 225.4 297.4 226.5 296 226 L298 224 z"/>
<path style="fill:#a0aea9" d="M335 224 C334.4 226.5 332.7 227.6 330 227 C331.2 225.9 333 223.9 335 224 z"/>
<path style="fill:#926552" d="M152 228 L155 226 C157.4 230 149.7 228.3 152 230 C152.7 230 154.2 229.8 154 231 C149.7 231.3 146.4 228.5 144 226 C145.7 224.3 149.9 226.4 152 228 z"/>
<path style="fill:#8e8c97" d="M271 225 C271 225.7 270.8 227.2 272 227 C269.4 232.9 266.1 227.1 271 225 z"/>
<path style="fill:#9d9ba6" d="M288 225 C287.1 226.6 286.6 229.5 284 229 L288 225 z"/>
<path style="fill:#9f9da7" d="M198 226 C198 226.7 197.8 228.2 199 228 C199.5 229.4 198.4 230.5 197 230 L196 228 C197.2 228.2 197 226.7 197 226 L198 226 z"/>
<path style="fill:#574d55" d="M330 227 C330.2 228.2 328.7 228 328 228 L318 231 C320.9 227.4 325.1 225.5 330 227 z"/>
<path style="fill:#8f8d98" d="M178 228 C177.3 228 175.8 228.2 176 227 C176.7 227 178.2 226.8 178 228 z"/>
<path style="fill:#817f8a" d="M213 232 C211.3 230.9 208.8 229.3 209 227 C210.7 228.1 213.2 229.7 213 232 z"/>
<path style="fill:#b0aeb9" d="M216 233 L216 237 L215 236 L213 232 L214 227 C215.4 228.2 216 230.9 216 233 z"/>
<path style="fill:#777581" d="M180 230 C178.6 230.5 177.5 229.4 178 228 L180 230 z"/>
<path style="fill:#5b5964" d="M197 230 C198.4 230.5 199.5 229.4 199 228 C203.9 230.4 200.2 234.1 197 230 z"/>
<path style="fill:#9e949b" d="M328 228 C325.4 231.1 321.5 233 317 232 L318 231 L328 228 z"/>
<path style="fill:#9e9ca7" d="M284 229 C284.5 230.4 283.4 231.5 282 231 L284 229 z"/>
<path style="fill:#98969d" d="M282 231 C282.5 232.4 281.4 233.5 280 233 L282 231 z"/>
<path style="fill:#8d8b96" d="M188 233 L187 232 L188 233 z"/>
<path style="fill:#706e77" d="M287 232 C286.3 233.5 284.9 235.3 283 235 C283.7 233.5 285.1 231.7 287 232 z"/>
<path style="fill:#9b9c9c" d="M317 232 C316.7 233.3 315.3 234.3 314 234 C314.3 232.7 315.7 231.7 317 232 z"/>
<path style="fill:#808080" d="M160 234 C159.3 234 157.8 234.2 158 233 C158.7 233 160.2 232.8 160 234 z"/>
<path style="fill:#8f8d97" d="M190 237 L186 235 L186 234 C186.7 234 188.2 234.2 188 233 C190 233.3 194.1 239.2 190 237 z"/>
<path style="fill:#686671" d="M216 238 L216 237 L216 233 C218.5 233.2 219.2 238.8 216 238 z"/>
<path style="fill:#93919b" d="M162 235 C161.3 235 159.8 235.2 160 234 C160.7 234 162.2 233.8 162 235 z"/>
<path style="fill:#181623" d="M215 236 L216 237 L216 238 C218.6 243.7 209.4 233.4 213.3 234.8 L215 236 z"/>
<path style="fill:#a5a0bd" d="M280 234 L280 236 C279.4 238.1 273.9 242.1 274 238 L280 234 z"/>
<path style="fill:#92909a" d="M164 236 C163.3 236 161.8 236.2 162 235 C162.7 235 164.2 234.8 164 236 z"/>
<path style="fill:#1a1826" d="M186 235 L190 237 C190.8 241.2 183.2 235.9 186 235 z"/>
<path style="fill:#383859" d="M283 235 C287.5 235 290.4 242.2 280.3 241.3 C281.5 249.7 265.7 253.4 258 257 L263.8 250.3 L256 253 L270 244 C269.2 250.9 278.3 242.1 270 244 L274 238 C273.9 242.1 279.4 238.1 280 236 L283 235 z"/>
<path style="fill:#969395" d="M311 235 C308.7 237.8 304.5 239 301 240 C303.3 237.2 307.5 236 311 235 z"/>
<path style="fill:#96949e" d="M166 237 C165.3 237 163.8 237.2 164 236 C164.7 236 166.2 235.8 166 237 z"/>
<path style="fill:#95939d" d="M168 238 C167.3 238 165.8 238.2 166 237 C166.7 237 168.2 236.8 168 238 z"/>
<path style="fill:#6f6d78" d="M172 240 C170.6 240 168.6 239.2 168 238 C169.6 238.1 172.7 237.3 172 240 z"/>
<path style="fill:#8a8a8a" d="M176 242 C174.6 242.2 172.3 242.1 173 240 L176 242 z"/>
<path style="fill:#9d9d9d" d="M301 240 C298.5 243.5 293.9 244.7 290 246 C292.1 242.9 297 241.5 301 240 z"/>
<path style="fill:#9d9ba6" d="M180 245 C178.1 245.3 176.7 243.5 176 242 C177.9 241.7 179.3 243.5 180 245 z"/>
<path style="fill:#5c5d7d" d="M270 244 C278.3 242.1 269.2 250.9 270 244 z"/>
<path style="fill:#9b9b9b" d="M290 246 C290.2 247.2 288.7 247 288 247 C287.8 245.8 289.3 246 290 246 z"/>
<path style="fill:#706070" d="M288 247 L282 250 C281.9 246.4 284.5 246.9 288 247 z"/>
<path style="fill:#aeafaf" d="M190 250 C189.3 250 187.8 250.2 188 249 C188.7 249 190.2 248.8 190 250 z"/>
<path style="fill:#a5a5a5" d="M192 251 C191.3 251 189.8 251.2 190 250 C190.7 250 192.2 249.8 192 251 z"/>
<path style="fill:#535678" d="M258 257 L256 259 C253 260 252.6 257.3 253 255 L256 253 L263.8 250.3 L258 257 z"/>
<path style="fill:#8c717a" d="M282 250 C282.2 251.2 280.7 251 280 251 C279.8 249.8 281.3 250 282 250 z"/>
<path style="fill:#9795a0" d="M194 252 C193.3 252 191.8 252.2 192 251 C192.7 251 194.2 250.8 194 252 z"/>
<path style="fill:#73666b" d="M280 251 L278 253 L274 254 C274.8 251.5 278 251.7 280 251 z"/>
<path style="fill:#8b8994" d="M200 256 C198.1 256.3 196.7 254.5 196 253 C197.9 252.7 199.3 254.5 200 256 z"/>
<path style="fill:#b39da4" d="M278 253 C277.2 255.5 274 255.3 272 256 L274 254 L278 253 z"/>
<path style="fill:#3e3a53" d="M253 255 C252.6 257.3 253 260 256 259 L248 264 C248.7 261.3 246.9 256.7 247 262 C243.6 258.2 249.7 255.7 253 255 z"/>
<path style="fill:#969595" d="M210 262 C206.5 261.8 202.5 258.1 201 256 C204.7 257.1 207.8 259.3 210 262 z"/>
<path style="fill:#c6afb7" d="M272 256 C271.4 258.6 267 260.2 264 260 L272 256 z"/>
<path style="fill:#817d96" d="M248 264 C246.8 264.2 247 262.7 247 262 C246.9 256.7 248.7 261.3 248 264 z"/>
<path style="fill:#675272" d="M240 265 L238 265 L239.8 263.8 C238.8 255.6 251.9 268.1 240 265 z"/>
<path style="fill:#908086" d="M264 260 C263.3 261.5 261.9 263.3 260 263 C260.7 261.5 262.1 259.7 264 260 z"/>
<path style="fill:#a2a0ab" d="M213 264 C211.7 264.3 210.3 263.3 210 262 C211.3 261.7 212.7 262.7 213 264 z"/>
<path style="fill:#9a8d9b" d="M260 263 C257.8 266.4 253.5 267.6 250 269 C252.3 265.8 256.6 264.5 260 263 z"/>
<path style="fill:#1f1f1c" d="M226 270 L222 269 L221 269 L220 267 C217.6 262.7 228 268.7 226 270 z"/>
<path style="fill:#99866e" d="M240 265 C240 266.4 239.2 268.4 238 269 C239.1 266.3 233.9 266.3 235 269 L238 265 L240 265 z"/>
<path style="fill:#a7a7a7" d="M218 267 C217.3 267 215.8 267.2 216 266 C216.7 266 218.2 265.8 218 267 z"/>
<path style="fill:#949494" d="M220 267 L221 269 C219.7 269.3 218.3 268.3 218 267 L220 267 z"/>
<path style="fill:#ddceb3" d="M238 269 L235 269 C233.9 266.3 239.1 266.3 238 269 z"/>
<path style="fill:#181c27" d="M246 270 L246 273 C241.5 279.6 245 262.7 246 270 z"/>
<path style="fill:#564863" d="M226 270 C237 268 226.1 277.8 223.8 271.3 L222 272 L222 269 L226 270 z"/>
<path style="fill:#89909a" d="M250 269 L249 274 L246 273 L246 270 L250 269 z"/>
<path style="fill:#474258" d="M222 272 C227.3 274.8 223.8 283.1 218 280 L220.3 278.3 C222.7 272.3 214.2 281.1 215 276 C216.8 274.4 219.3 272.2 222 272 z"/>
<path style="fill:#807e89" d="M253 277 C251.1 277.3 249.7 275.5 249 274 C250.9 273.7 252.3 275.5 253 277 z"/>
<path style="fill:#706275" d="M215 276 C214.2 281.1 222.7 272.3 220.3 278.3 L218 280 L216 285 C215.3 285 213.8 285.2 214 284 C216 281.2 216 279.8 214 277 L215 276 z"/>
<path style="fill:#a497a4" d="M214 277 C216 279.8 216 281.2 214 284 C211.1 283.3 211.1 277.7 214 277 z"/>
<path style="fill:#aeafaf" d="M258 290 L258 289 C259.6 288 259.6 283 258 282 L258 280 C261 281.2 261.3 289.7 258 290 z"/>
<path style="fill:#656565" d="M258 289 L258 282 C259.6 283 259.6 288 258 289 z"/>
<path style="fill:#8d8487" d="M218 289 C216.7 288.7 215.7 287.3 216 286 C218.1 285.3 218.2 287.6 218 289 z"/>
<path style="fill:#a3a4a4" d="M221 292 C218.9 292.6 218.9 290.2 218 289 C219.7 288.6 221.4 290.3 221 292 z"/>
<path style="fill:#a7a5a5" d="M225 294 C223.4 294.3 221.3 293.9 221 292 C222.4 292 224.4 292.8 225 294 z"/>
<path style="fill:#96949f" d="M256 292 C253.8 293.6 251.5 297 248 296 C250.2 294.5 252.9 291.8 256 292 z"/>
<path style="fill:#c4bfc0" d="M227 294 C227.5 296.4 230.2 296.1 232 296 L232 297 C229.2 297.4 226 297 225 294 L227 294 z"/>
<path style="fill:#61565b" d="M232 296 C230.2 296.1 227.5 296.4 227 294 C228.7 294.3 232.6 292.9 232 296 z"/>
<path style="fill:#818181" d="M248 296 L248 297 L232 297 L232 296 L248 296 z"/>
<path style="fill:#d9d9d9" d="M248 297 C244 298.7 236 298.7 232 297 L248 297 z"/>
</svg>
