<?xml version="1.0" standalone="yes"?>
<svg width="87" height="97">
<path style="fill:#fcfcfc" d="M87 0 L87 97 L0 97 L0 0 L87 0 z"/>
<path style="fill:#bdbebe" d="M49 21 L40 21 C41.66 19.35 47.34 19.35 49 21 z"/>
<path style="fill:#7c7d7d" d="M39 21 C39.15 22.18 37.66 22.02 37 22 C36.85 20.82 38.34 20.98 39 21 z"/>
<path style="fill:#171818" d="M40 21 L49 21 L50 21 C49.85 22.18 51.34 22.02 52 22 L53 22 C52.85 23.18 54.34 23.02 55 23 L57 24 L58 25 L59 26 L60 27 C64.98 31.47 55.62 42.53 55 33 L56 32 C58.25 33.24 60.52 29.93 58 29 C56.61 26.47 53.92 24.19 51 24 C51.15 22.82 49.66 22.98 49 23 L40 23 C39.34 22.98 37.85 22.82 38 24 L33 26 L32 27 L31 29 C28.48 29.93 30.75 33.24 33 32 L34 33 C33.38 42.53 24.02 31.47 29 27 L30 26 L31 25 L32 24 L37 22 C37.66 22.02 39.15 22.18 39 21 L40 21 z"/>
<path style="fill:#7f7f7f" d="M52 22 C51.34 22.02 49.85 22.18 50 21 C50.66 20.98 52.15 20.82 52 22 z"/>
<path style="fill:#838484" d="M55 23 C54.34 23.02 52.85 23.18 53 22 C53.66 21.98 55.15 21.82 55 23 z"/>
<path style="fill:#838484" d="M40 23 C40.15 24.18 38.66 24.02 38 24 C37.85 22.82 39.34 22.98 40 23 z"/>
<path style="fill:#7c7d7d" d="M51 24 C50.34 24.02 48.85 24.18 49 23 C49.66 22.98 51.15 22.82 51 24 z"/>
<path style="fill:#868686" d="M32 24 L31 25 L32 24 z"/>
<path style="fill:#8e8e8e" d="M58 25 L57 24 L58 25 z"/>
<path style="fill:#7d7d7d" d="M59 26 L58 25 L59 26 z"/>
<path style="fill:#818181" d="M30 26 L29 27 L30 26 z"/>
<path style="fill:#6f6f6f" d="M33 26 L32 27 L33 26 z"/>
<path style="fill:#959595" d="M60 27 L59 26 L60 27 z"/>
<path style="fill:#b4b4b4" d="M31 29 L33 32 C30.75 33.24 28.48 29.93 31 29 z"/>
<path style="fill:#a8a8a8" d="M56 32 L58 29 C60.52 29.93 58.25 33.24 56 32 z"/>
<path style="fill:#9e9e9e" d="M34 33 L33 32 L34 33 z"/>
<path style="fill:#050505" d="M47 33 L48 34 L50 35 L51 36 L52 36 L53 37 L54 37 L54 39 L53 39 C51.67 38.78 51.67 41.22 53 41 L54 41 L55 42 L56 42 L57 43 L59 44 L60 45 L61 45 L62 46 L64 47 L63 49 L62 49 L61 50 L59 51 L58 52 L57 52 L56 53 C54.82 53.47 51.34 54.92 54 56 L54 58 L53 58 L52 59 L51 59 L50 60 L48 61 L47 62 C45.47 63.25 43.53 63.25 42 62 L41 61 L37 59 L36 58 L35 58 L35 56 C37.89 54.12 32.31 53.07 31 52 L30 51 L26 49 L25 48 L25 47 L26 46 L27 46 L28 45 L29 45 L30 44 L32 43 L33 42 L34 42 L35 41 C36.33 41.22 36.33 38.78 35 39 L35 37 L36 37 L37 36 L41 34 L42 33 C43.53 31.75 45.47 31.75 47 33 z"/>
<path style="fill:#939393" d="M56 32 L55 33 L56 32 z"/>
<path style="fill:#767676" d="M42 33 L41 34 L42 33 z"/>
<path style="fill:#898989" d="M48 34 L47 33 L48 34 z"/>
<path style="fill:#191919" d="M29 41 L26 41 C24.41 40.94 25.19 38.95 25 38 C24.81 36.45 21.19 36.45 21 38 L20 38 L19 39 L18 40 L17 41 L16 42 L16 43 C14.82 42.85 14.98 44.34 15 45 L16 52 L17 53 C17.8 56.62 25.86 59.66 25 54 L26 53 C28.54 52.24 30.76 54.46 30 57 L27 59 L26 59 L21 59 L18 58 L17 57 L16 56 L15 55 L14 54 L14 53 C14.02 52.34 14.18 50.85 13 51 L13 50 L13 45 L13 44 C14.18 44.15 14.02 42.66 14 42 C13.82 39.72 16.32 38.06 18 37 L19 36 C22.36 32.85 32.34 36.57 29 41 z"/>
<path style="fill:#666666" d="M51 36 L50 35 L51 36 z"/>
<path style="fill:#4b4c4c" d="M69 36 L63 36 C63.73 34.38 68.27 34.38 69 36 z"/>
<path style="fill:#6f6f6f" d="M19 36 L18 37 L19 36 z"/>
<path style="fill:#6e6e6e" d="M37 36 L36 37 L37 36 z"/>
<path style="fill:#7f7f7f" d="M53 37 L52 36 L53 37 z"/>
<path style="fill:#131313" d="M63 36 L69 36 L70 36 L71 37 L74 40 C73.98 40.66 73.82 42.15 75 42 C74.98 42.66 74.82 44.15 76 44 L76 51 C74.82 50.85 74.98 52.34 75 53 L74 55 L73 56 L72 57 L71 58 L70 58 L69 59 L68 59 L64 59 L62 59 L61 58 L60 58 L59 57 C59.94 48.06 64.17 58.11 68 57 L69 56 L72 53 L73 52 L74 45 C74.02 44.34 74.18 42.85 73 43 L72 41 L71 40 L70 39 L69 38 C68.55 36.4 64.45 36.4 64 38 L64 40 L63 41 L60 41 L59 40 C58.78 37.99 60.99 35.78 63 36 z"/>
<path style="fill:#787878" d="M71 37 L70 36 L71 37 z"/>
<path style="fill:#646565" d="M25 38 L21 38 C21.19 36.45 24.81 36.45 25 38 z"/>
<path style="fill:#656666" d="M35 37 L35 39 C33.67 39.22 33.67 36.78 35 37 z"/>
<path style="fill:#7a7b7b" d="M54 39 L54 37 C55.33 36.78 55.33 39.22 54 39 z"/>
<path style="fill:#565757" d="M69 38 L64 38 C64.45 36.4 68.55 36.4 69 38 z"/>
<path style="fill:#747474" d="M20 38 L19 39 L20 38 z"/>
<path style="fill:#686868" d="M70 39 L69 38 L70 39 z"/>
<path style="fill:#a1a1a1" d="M19 39 L18 40 L19 39 z"/>
<path style="fill:#565656" d="M53 39 L53 41 C51.67 41.22 51.67 38.78 53 39 z"/>
<path style="fill:#8f8f8f" d="M71 40 L70 39 L71 40 z"/>
<path style="fill:#777777" d="M60 41 L59 40 L60 41 z"/>
<path style="fill:#6e6e6e" d="M64 40 L63 41 L64 40 z"/>
<path style="fill:#909090" d="M72 41 L71 40 L72 41 z"/>
<path style="fill:#636464" d="M75 42 C73.82 42.15 73.98 40.66 74 40 C75.18 39.85 75.02 41.34 75 42 z"/>
<path style="fill:#737373" d="M17 41 L16 42 L17 41 z"/>
<path style="fill:#6e6e6e" d="M29 41 C29.04 42.48 25.96 42.48 26 41 L29 41 z"/>
<path style="fill:#717171" d="M35 41 L34 42 L35 41 z"/>
<path style="fill:#7b7b7b" d="M55 42 L54 41 L55 42 z"/>
<path style="fill:#676868" d="M63 41 C63.04 42.48 59.96 42.48 60 41 L63 41 z"/>
<path style="fill:#696a6a" d="M14 42 C14.02 42.66 14.18 44.15 13 44 C12.98 43.34 12.82 41.85 14 42 z"/>
<path style="fill:#939393" d="M33 42 L32 43 L33 42 z"/>
<path style="fill:#a0a0a0" d="M57 43 L56 42 L57 43 z"/>
<path style="fill:#7d7d7d" d="M76 44 C74.82 44.15 74.98 42.66 75 42 C76.18 41.85 76.02 43.34 76 44 z"/>
<path style="fill:#7f8080" d="M16 43 C16.02 43.66 16.18 45.15 15 45 C14.98 44.34 14.82 42.85 16 43 z"/>
<path style="fill:#6f6f6f" d="M74 45 C72.82 45.15 72.98 43.66 73 43 C74.18 42.85 74.02 44.34 74 45 z"/>
<path style="fill:#5d5d5d" d="M30 44 L29 45 L30 44 z"/>
<path style="fill:#6d6d6d" d="M60 45 L59 44 L60 45 z"/>
<path style="fill:#bdbdbd" d="M13 45 L13 50 C11.4 49.55 11.4 45.45 13 45 z"/>
<path style="fill:#757575" d="M28 45 L27 46 L28 45 z"/>
<path style="fill:#8f8f8f" d="M62 46 L61 45 L62 46 z"/>
<path style="fill:#929292" d="M26 46 L25 47 L26 46 z"/>
<path style="fill:#5c5c5c" d="M25 47 L25 48 C23.94 48.43 23.94 46.57 25 47 z"/>
<path style="fill:#a3a3a3" d="M63 49 L64 47 C66.02 47.19 64.56 49.9 63 49 z"/>
<path style="fill:#6f6f6f" d="M26 49 L25 48 L26 49 z"/>
<path style="fill:#616161" d="M62 49 L61 50 L62 49 z"/>
<path style="fill:#8a8b8b" d="M14 53 C12.82 53.15 12.98 51.66 13 51 C14.18 50.85 14.02 52.34 14 53 z"/>
<path style="fill:#848484" d="M31 52 L30 51 L31 52 z"/>
<path style="fill:#949494" d="M59 51 L58 52 L59 51 z"/>
<path style="fill:#a0a1a1" d="M76 51 C76.02 51.66 76.18 53.15 75 53 C74.98 52.34 74.82 50.85 76 51 z"/>
<path style="fill:#a1a1a1" d="M17 53 L16 52 L17 53 z"/>
<path style="fill:#757575" d="M57 52 L56 53 L57 52 z"/>
<path style="fill:#929292" d="M73 52 L72 53 L73 52 z"/>
<path style="fill:#989898" d="M26 53 L25 54 L26 53 z"/>
<path style="fill:#a6a6a6" d="M15 55 L14 54 L15 55 z"/>
<path style="fill:#797979" d="M16 56 L15 55 L16 56 z"/>
<path style="fill:#888888" d="M74 55 L73 56 L74 55 z"/>
<path style="fill:#797979" d="M17 57 L16 56 L17 57 z"/>
<path style="fill:#6d6e6e" d="M35 56 L35 58 L34 58 C33.98 57.34 33.82 55.85 35 56 z"/>
<path style="fill:#7f7f7f" d="M55 58 L54 58 L54 56 C55.18 55.85 55.02 57.34 55 58 z"/>
<path style="fill:#6a6a6a" d="M69 56 L68 57 L69 56 z"/>
<path style="fill:#8d8d8d" d="M73 56 L72 57 L73 56 z"/>
<path style="fill:#868686" d="M18 58 L17 57 L18 58 z"/>
<path style="fill:#b7b7b7" d="M30 57 C30.95 57.19 32.94 56.41 33 58 C30.76 57.22 29.67 59.23 28 60 L27 59 L30 57 z"/>
<path style="fill:#aeafaf" d="M59 57 L60 58 L60 59 L56 58 C56.06 56.41 58.05 57.19 59 57 z"/>
<path style="fill:#9e9e9e" d="M72 57 L71 58 L72 57 z"/>
<path style="fill:#191919" d="M33 58 L34 59 C34.74 61.57 32.66 63.42 30.25 63.25 C30.01 64.92 31.21 67.39 33 68 L34 69 C36.21 70.12 38.3 71.56 41 71 C42.34 72.65 47.66 72.65 49 71 L51 71 C51.66 71.02 53.15 71.18 53 70 L55 69 L56 68 L57 67 L58 66 L58 65 C59.33 65.22 59.33 62.78 58 63 C55.06 63.51 54.63 60.11 55 58 L56 58 L60 59 C61.56 60.97 60.86 63.61 61 66 L60 67 L57 70 L56 71 L54 72 C53.34 71.98 51.85 71.82 52 73 L50 73 L40 73 L34 72 L33 71 L29 67 L28 66 L28 60 C29.67 59.23 30.76 57.22 33 58 z"/>
<path style="fill:#797979" d="M34 58 L34 59 L33 58 L34 58 z"/>
<path style="fill:#f6f7f7" d="M35 58 L36 58 L37 59 L41 61 L42 62 C43.53 63.25 45.47 63.25 47 62 L48 61 L50 60 L51 59 L52 59 L53 58 L54 58 L55 58 C54.63 60.11 55.06 63.51 58 63 L58 65 L58 66 L57 67 L56 68 L55 69 L53 70 C52.34 69.98 50.85 69.82 51 71 L49 71 L41 71 C38.3 71.56 36.21 70.12 34 69 L33 68 C31.21 67.39 30.01 64.92 30.25 63.25 C32.66 63.42 34.74 61.57 34 59 L34 58 L35 58 z"/>
<path style="fill:#7b7b7b" d="M37 59 L36 58 L37 59 z"/>
<path style="fill:#828282" d="M53 58 L52 59 L53 58 z"/>
<path style="fill:#939393" d="M62 59 L61 58 L62 59 z"/>
<path style="fill:#787878" d="M70 58 L69 59 L70 58 z"/>
<path style="fill:#aeafaf" d="M26 59 C25.55 60.6 21.45 60.6 21 59 L26 59 z"/>
<path style="fill:#595959" d="M51 59 L50 60 L51 59 z"/>
<path style="fill:#a7a7a7" d="M68 59 C67.81 60.55 64.19 60.55 64 59 L68 59 z"/>
<path style="fill:#6f6f6f" d="M42 62 L41 61 L42 62 z"/>
<path style="fill:#919191" d="M48 61 L47 62 L48 61 z"/>
<path style="fill:#9d9e9e" d="M58 65 L58 63 C59.33 62.78 59.33 65.22 58 65 z"/>
<path style="fill:#949494" d="M29 67 L28 66 L29 67 z"/>
<path style="fill:#a1a1a1" d="M58 66 L57 67 L58 66 z"/>
<path style="fill:#969696" d="M61 66 L60 67 L61 66 z"/>
<path style="fill:#9d9d9d" d="M34 69 L33 68 L34 69 z"/>
<path style="fill:#9d9d9d" d="M56 68 L55 69 L56 68 z"/>
<path style="fill:#6a6a6a" d="M53 70 C53.15 71.18 51.66 71.02 51 71 C50.85 69.82 52.34 69.98 53 70 z"/>
<path style="fill:#787878" d="M57 70 L56 71 L57 70 z"/>
<path style="fill:#a3a3a3" d="M34 72 L33 71 L34 72 z"/>
<path style="fill:#898a8a" d="M49 71 C47.66 72.65 42.34 72.65 41 71 L49 71 z"/>
<path style="fill:#a0a1a1" d="M54 72 C54.15 73.18 52.66 73.02 52 73 C51.85 71.82 53.34 71.98 54 72 z"/>
<path style="fill:#535353" d="M50 73 C48.01 74.66 41.99 74.66 40 73 L50 73 z"/>
</svg>
