<?xml version="1.0" standalone="yes"?>
<svg width="87" height="97">
<path style="fill:#fcfdfd" d="M87 0 L87 97 L0 97 L0 0 L87 0 z"/>
<path style="fill:#a1a1a1" d="M43 12 L42 13 L43 12 z"/>
<path style="fill:#050505" d="M45 12 C44.85 13.18 46.34 13.02 47 13 L48 14 L49 15 L51 16 L52 17 C56.06 19.84 61.43 22.98 60 29 L58 32 L57 33 L53 39 C51.07 39.41 50.91 41.65 50 43 L49 44 L46 47 L45 46 L44 39 L43 47 C37.1 42.2 33.31 34.78 29 29 L29 28 L29 24 C30.75 20.79 34.12 18.9 37 17 L38 16 L39 15 L41 14 L42 13 L43 12 L45 12 z"/>
<path style="fill:#898989" d="M47 13 C46.34 13.02 44.85 13.18 45 12 C45.66 11.98 47.15 11.82 47 13 z"/>
<path style="fill:#8d8d8d" d="M42 13 L41 14 L42 13 z"/>
<path style="fill:#969696" d="M48 14 L47 13 L48 14 z"/>
<path style="fill:#5f5f5f" d="M49 15 L48 14 L49 15 z"/>
<path style="fill:#9f9f9f" d="M39 15 L38 16 L39 15 z"/>
<path style="fill:#a6a6a6" d="M38 16 L37 17 L38 16 z"/>
<path style="fill:#a5a5a5" d="M52 17 L51 16 L52 17 z"/>
<path style="fill:#9f9f9f" d="M29 24 L29 28 C27.45 27.81 27.45 24.19 29 24 z"/>
<path style="fill:#040404" d="M25 29 C24.85 30.18 26.34 30.02 27 30 L28 31 L29 31 L31 35 L32 36 L33 38 L34 39 C36.28 42.6 44.21 51.06 35 48 C35.04 46.52 31.96 46.52 32 48 C33.03 51.39 42.46 50.26 37 54 L35 54 L34 55 L32 55 L31 56 L29 56 L28 57 L26 57 C25.34 56.98 23.85 56.82 24 58 L23 58 C20.44 59.82 17 58.69 14 59 L13 58 L12 57 C12.02 56.34 12.18 54.85 11 55 C10.81 54.05 11.59 52.06 10 52 C9.81 51.05 10.59 49.06 9 49 C8.81 48.05 9.592 46.06 8 46 L8 44 L7 43 L7 41 L7 39 L8 38 L9 37 L10 36 L11 36 L12 35 L13 34 L25 29 z"/>
<path style="fill:#555656" d="M27 30 C26.34 30.02 24.85 30.18 25 29 C25.66 28.98 27.15 28.82 27 30 z"/>
<path style="fill:#c2c3c3" d="M43 47 C42.96 48.48 46.04 48.48 46 47 L49 44 L50 43 C50.91 41.65 51.07 39.41 53 39 L53 40 L52 43 L51 44 C47.44 47.58 49.68 49.86 54 48 L56 48 L56 49 C55.34 48.98 53.85 48.82 54 50 L53 50 C52.34 49.98 50.85 49.82 51 51 C49.6 54.81 59.41 55.75 63 57 C62.85 58.18 64.34 58.02 65 58 L66 58 C65.85 59.18 67.34 59.02 68 59 L73 59 L69 61 L48 55 L47 55 C52.78 47.28 36.22 47.28 42 55 C40.67 54.78 40.67 57.22 42 57 L40 60 L39 61 L38 62 L37 61 C38.38 59.63 42.24 52.92 38 55 L37 54 C42.46 50.26 33.03 51.39 32 48 L35 48 C44.21 51.06 36.28 42.6 34 39 L33 38 L32 36 L31 35 L29 31 L29 29 C33.31 34.78 37.1 42.2 43 47 z"/>
<path style="fill:#d8d8d8" d="M60 29 L61 30 L61 31 C58.54 33 56.48 36.07 55 39 L54 40 L53 40 L53 39 L57 33 L58 32 L60 29 z"/>
<path style="fill:#050505" d="M69 29 L70 30 L71 31 L73 32 L74 33 L75 34 L78 36 L79 37 L81 38 L82 39 L82 43 L81 44 L81 45 L79 51 L78 55 C76.82 54.85 76.98 56.34 77 57 L73 59 L68 59 C68.15 57.82 66.66 57.98 66 58 L65 58 C65.15 56.82 63.66 56.98 63 57 C59.41 55.75 49.6 54.81 51 51 C51.66 51.02 53.15 51.18 53 50 L54 50 C54.66 50.02 56.15 50.18 56 49 L56 48 C56.22 46.67 53.78 46.67 54 48 C49.68 49.86 47.44 47.58 51 44 L52 43 L53 40 L54 40 L55 39 C56.48 36.07 58.54 33 61 31 L62 30 L69 29 z"/>
<path style="fill:#828282" d="M70 30 L69 29 L70 30 z"/>
<path style="fill:#626262" d="M28 31 L27 30 L28 31 z"/>
<path style="fill:#5a5a5a" d="M62 30 L61 31 L61 30 L62 30 z"/>
<path style="fill:#797979" d="M71 31 L70 30 L71 31 z"/>
<path style="fill:#666666" d="M58 32 L57 33 L58 32 z"/>
<path style="fill:#7e7e7e" d="M74 33 L73 32 L74 33 z"/>
<path style="fill:#626262" d="M75 34 L74 33 L75 34 z"/>
<path style="fill:#8b8b8b" d="M13 34 L12 35 L13 34 z"/>
<path style="fill:#767676" d="M12 35 L11 36 L12 35 z"/>
<path style="fill:#5f5f5f" d="M32 36 L31 35 L32 36 z"/>
<path style="fill:#a9a9a9" d="M10 36 L9 37 L10 36 z"/>
<path style="fill:#636363" d="M79 37 L78 36 L79 37 z"/>
<path style="fill:#747474" d="M9 37 L8 38 L9 37 z"/>
<path style="fill:#646464" d="M8 38 L7 39 L8 38 z"/>
<path style="fill:#616161" d="M34 39 L33 38 L34 39 z"/>
<path style="fill:#5e5e5e" d="M82 39 L81 38 L82 39 z"/>
<path style="fill:#555656" d="M7 39 L7 41 C5.667 41.22 5.667 38.78 7 39 z"/>
<path style="fill:#626363" d="M44 39 L43 47 L44 39 z"/>
<path style="fill:#f6f7f7" d="M45 46 L46 47 C46.04 48.48 42.96 48.48 43 47 L44 39 L45 46 z"/>
<path style="fill:#5a5a5a" d="M55 39 L54 40 L55 39 z"/>
<path style="fill:#727272" d="M8 44 L7 43 L8 44 z"/>
<path style="fill:#5b5b5b" d="M50 43 L49 44 L50 43 z"/>
<path style="fill:#5b5b5b" d="M52 43 L51 44 L52 43 z"/>
<path style="fill:#7a7a7a" d="M82 43 L81 44 L82 43 z"/>
<path style="fill:#afb0b0" d="M81 45 C80.87 47.08 81.79 50.37 79 51 L81 45 z"/>
<path style="fill:#9d9d9d" d="M9 49 C7.408 48.94 8.19 46.95 8 46 C9.592 46.06 8.81 48.05 9 49 z"/>
<path style="fill:#5a5a5a" d="M46 47 L45 46 L46 47 z"/>
<path style="fill:#5c5d5d" d="M35 48 L32 48 C31.96 46.52 35.04 46.52 35 48 z"/>
<path style="fill:#555555" d="M56 48 L54 48 C53.78 46.67 56.22 46.67 56 48 z"/>
<path style="fill:#989898" d="M10 52 C8.408 51.94 9.19 49.95 9 49 C10.59 49.06 9.81 51.05 10 52 z"/>
<path style="fill:#0b0c0c" d="M47 55 L46 55 L43 55 L42 55 C36.22 47.28 52.78 47.28 47 55 z"/>
<path style="fill:#626363" d="M56 49 C56.15 50.18 54.66 50.02 54 50 C53.85 48.82 55.34 48.98 56 49 z"/>
<path style="fill:#747575" d="M53 50 C53.15 51.18 51.66 51.02 51 51 C50.85 49.82 52.34 49.98 53 50 z"/>
<path style="fill:#979797" d="M79 51 L78 55 L79 51 z"/>
<path style="fill:#959595" d="M11 55 C9.408 54.94 10.19 52.95 10 52 C11.59 52.06 10.81 54.05 11 55 z"/>
<path style="fill:#868686" d="M35 54 L34 55 L35 54 z"/>
<path style="fill:#eff0f0" d="M37 54 L38 55 L34 56 L33 57 L31 57 L30 58 L25 59 C24.34 59.02 22.85 59.18 23 58 L24 58 C24.66 58.02 26.15 58.18 26 57 L28 57 L29 56 L31 56 L32 55 L34 55 L35 54 L37 54 z"/>
<path style="fill:#020303" d="M37 61 C34.34 61.33 37.67 64.66 38 62 L39 61 L40 60 L42 57 L43 57 L43 80 L43 81 L42 82 L40 84 L21 84 L20 83 L19 78 L18 77 L18 76 C18.02 75.34 18.18 73.85 17 74 C16.81 73.05 17.59 71.06 16 71 L16 69 L16 66 L16 64 L17 63 L18 62 C18.66 62.02 20.15 62.18 20 61 L25 59 L30 58 L31 57 L33 57 L34 56 L38 55 C42.24 52.92 38.38 59.63 37 61 z"/>
<path style="fill:#030303" d="M69 61 C68.85 62.18 70.34 62.02 71 62 L72 63 L73 64 L73 66 L73 69 L73 71 L72 72 L71 77 L70 78 L70 81 L69 82 L69 83 L68 84 L49 84 C47.54 83.33 45.67 81.85 46 80 L45 59 C44.54 57.65 45.65 56.54 47 57 L49 60 L50 61 C52.4 65.3 52.29 59.26 50 58 L49 57 L48 56 L48 55 L69 61 z"/>
<path style="fill:#a5a5a5" d="M12 57 C10.82 57.15 10.98 55.66 11 55 C12.18 54.85 12.02 56.34 12 57 z"/>
<path style="fill:#888888" d="M32 55 L31 56 L32 55 z"/>
<path style="fill:#636363" d="M46 55 C46.04 56.48 42.96 56.48 43 55 L46 55 z"/>
<path style="fill:#989898" d="M78 55 C78.02 55.66 78.18 57.15 77 57 C76.98 56.34 76.82 54.85 78 55 z"/>
<path style="fill:#5b5b5b" d="M29 56 L28 57 L29 56 z"/>
<path style="fill:#5d5d5d" d="M34 56 L33 57 L34 56 z"/>
<path style="fill:#bebfbf" d="M49 57 L50 58 C52.29 59.26 52.4 65.3 50 61 L49 60 L47 57 L48 56 L49 57 z"/>
<path style="fill:#959595" d="M13 58 L12 57 L13 58 z"/>
<path style="fill:#7f8080" d="M26 57 C26.15 58.18 24.66 58.02 24 58 C23.85 56.82 25.34 56.98 26 57 z"/>
<path style="fill:#6d6d6d" d="M31 57 L30 58 L31 57 z"/>
<path style="fill:#525252" d="M43 80 L43 57 C44.67 63.3 44.67 73.7 43 80 z"/>
<path style="fill:#606060" d="M50 58 L49 57 L50 58 z"/>
<path style="fill:#646565" d="M65 58 C64.34 58.02 62.85 58.18 63 57 C63.66 56.98 65.15 56.82 65 58 z"/>
<path style="fill:#a4a4a4" d="M14 59 L13 58 L14 59 z"/>
<path style="fill:#acacac" d="M23 58 C22.85 59.18 24.34 59.02 25 59 L20 61 L14 59 C17 58.69 20.44 59.82 23 58 z"/>
<path style="fill:#606161" d="M68 59 C67.34 59.02 65.85 59.18 66 58 C66.66 57.98 68.15 57.82 68 59 z"/>
<path style="fill:#272727" d="M46 80 L45 59 L46 80 z"/>
<path style="fill:#585858" d="M40 60 L39 61 L40 60 z"/>
<path style="fill:#6c6c6c" d="M50 61 L49 60 L50 61 z"/>
<path style="fill:#8f9090" d="M20 61 C20.15 62.18 18.66 62.02 18 62 C17.85 60.82 19.34 60.98 20 61 z"/>
<path style="fill:#555555" d="M37 61 L38 62 C37.67 64.66 34.34 61.33 37 61 z"/>
<path style="fill:#8a8b8b" d="M71 62 C70.34 62.02 68.85 62.18 69 61 C69.66 60.98 71.15 60.82 71 62 z"/>
<path style="fill:#787878" d="M18 62 L17 63 L18 62 z"/>
<path style="fill:#999999" d="M72 63 L71 62 L72 63 z"/>
<path style="fill:#a9a9a9" d="M17 63 L16 64 L17 63 z"/>
<path style="fill:#a2a2a2" d="M73 64 L72 63 L73 64 z"/>
<path style="fill:#868686" d="M16 66 L16 69 C14.52 69.04 14.52 65.96 16 66 z"/>
<path style="fill:#707171" d="M73 69 L73 66 C74.48 65.96 74.48 69.04 73 69 z"/>
<path style="fill:#9b9c9c" d="M17 74 C15.41 73.94 16.19 71.95 16 71 C17.59 71.06 16.81 73.05 17 74 z"/>
<path style="fill:#929292" d="M73 71 L72 72 L73 71 z"/>
<path style="fill:#616262" d="M18 76 C16.82 76.15 16.98 74.66 17 74 C18.18 73.85 18.02 75.34 18 76 z"/>
<path style="fill:#585858" d="M19 78 L18 77 L19 78 z"/>
<path style="fill:#606060" d="M71 77 L70 78 L71 77 z"/>
<path style="fill:#5f5f5f" d="M43 81 L42 82 L43 81 z"/>
<path style="fill:#848484" d="M70 81 L69 82 L70 81 z"/>
<path style="fill:#565656" d="M21 84 L20 83 L21 84 z"/>
<path style="fill:#acacac" d="M69 83 C69.02 83.66 69.18 85.15 68 85 L68 84 L69 83 z"/>
<path style="fill:#3d3e3e" d="M40 84 C35.03 85.67 25.97 85.67 21 84 L40 84 z"/>
<path style="fill:#3d3e3e" d="M68 84 L68 85 L49 84 L68 84 z"/>
</svg>
