<?xml version="1.0" standalone="yes"?>
<svg width="87" height="97">
<path style="fill:#fcfdfd" d="M87 0 L87 97 L0 97 L0 0 L87 0 z"/>
<path style="fill:#aeaeae" d="M47 16 L39 16 C40.34 14.35 45.66 14.35 47 16 z"/>
<path style="fill:#a9aaaa" d="M39 17 L42 18 L44 20 L44 24 L42 20 L40 20 L38 19 L33 19 L34 17 L39 17 z"/>
<path style="fill:#111111" d="M47 16 C47.64 19.1 43.73 17.7 42 18 L39 17 L39 16 L47 16 z"/>
<path style="fill:#909090" d="M48 17 L52 24 L50 23 C50.14 21.12 48.12 23.14 50 23 L51 27 L44 20 L42 18 C43.73 17.7 47.64 19.1 47 16 L48 17 z"/>
<path style="fill:#858686" d="M56 18 C54.41 20.07 51.87 19.96 49 17 C51.09 15.16 54.5 16.57 56 18 z"/>
<path style="fill:#616262" d="M34 17 L33 19 C32.2 18.44 30.03 19.79 32 20 L29 19 C29.85 17.5 32.17 16.77 34 17 z"/>
<path style="fill:#0c0c0c" d="M49 17 C51.87 19.96 54.41 20.07 56 18 L57 18 C56.85 19.18 58.34 19.02 59 19 L66 23 L67 24 L70 27 L71 28 L72 29 C72.67 31.11 70.42 31.21 69 31 L66 31 L65 32 L62 32 L52 24 L48 17 L49 17 z"/>
<path style="fill:#090a0a" d="M38 19 C36.32 20.06 33.82 21.72 34 24 L22 32 L17 31 C16.34 31.02 14.85 31.18 15 30 L15 29 L16 28 L17 27 L18 26 L19 25 L20 24 L21 23 L22 23 L23 22 L24 21 L29 19 L32 20 L33 19 L38 19 z"/>
<path style="fill:#8e8f8f" d="M59 19 C58.34 19.02 56.85 19.18 57 18 C57.66 17.98 59.15 17.82 59 19 z"/>
<path style="fill:#b4b5b5" d="M33 19 L32 20 C30.03 19.79 32.2 18.44 33 19 z"/>
<path style="fill:#868787" d="M38 19 L40 20 L38 23 C36.33 21.22 35.56 23.48 34 24 C33.82 21.72 36.32 20.06 38 19 z"/>
<path style="fill:#060606" d="M42 20 C41.69 21.56 41.89 27.07 44 24 L44 20 L51 27 L52 37 L47 40 L46 41 C43.92 40.87 40.63 41.79 40 39 L36 38 L35 37 L35 36 C34.48 31.23 35.7 26.96 38 23 L40 20 L42 20 z"/>
<path style="fill:#555555" d="M44 24 C41.89 27.07 41.69 21.56 42 20 L44 24 z"/>
<path style="fill:#999999" d="M24 21 L23 22 L24 21 z"/>
<path style="fill:#696969" d="M23 22 L22 23 L23 22 z"/>
<path style="fill:#6b6b6b" d="M38 23 C35.7 26.96 34.48 31.23 35 36 L33 36 L34 25 L34 24 C35.56 23.48 36.33 21.22 38 23 z"/>
<path style="fill:#2e2e2e" d="M50 23 C48.12 23.14 50.14 21.12 50 23 z"/>
<path style="fill:#9e9e9e" d="M21 23 L20 24 L21 23 z"/>
<path style="fill:#0c0d0d" d="M52 24 C53.36 27.94 58.42 31.13 62 33 L62 34 L61 35 L60 36 L59 37 L54 37 L54 34 C53.31 31.66 53.01 28.47 51 27 L50 23 L52 24 z"/>
<path style="fill:#787878" d="M67 24 L66 23 L67 24 z"/>
<path style="fill:#8d8d8d" d="M20 24 L19 25 L20 24 z"/>
<path style="fill:#949595" d="M34 24 L34 25 L26 35 L22 32 L34 24 z"/>
<path style="fill:#808181" d="M62 32 L62 33 C58.42 31.13 53.36 27.94 52 24 L62 32 z"/>
<path style="fill:#7a7a7a" d="M19 25 L18 26 L19 25 z"/>
<path style="fill:#090a0a" d="M33 36 C33.46 37.35 32.35 38.46 31 38 C30.94 36.41 28.95 37.19 28 37 L27 36 L26 35 L34 25 L33 36 z"/>
<path style="fill:#6d6d6d" d="M18 26 L17 27 L18 26 z"/>
<path style="fill:#787878" d="M17 27 L16 28 L17 27 z"/>
<path style="fill:#777777" d="M54 34 L52 37 L51 27 C53.01 28.47 53.31 31.66 54 34 z"/>
<path style="fill:#616161" d="M71 28 L70 27 L71 28 z"/>
<path style="fill:#a7a7a7" d="M16 28 L15 29 L16 28 z"/>
<path style="fill:#838383" d="M72 29 L71 28 L72 29 z"/>
<path style="fill:#696a6a" d="M73 32 L69 31 C70.42 31.21 72.67 31.11 72 29 C73.59 29.06 72.81 31.05 73 32 z"/>
<path style="fill:#757575" d="M15 30 C14.85 31.18 16.34 31.02 17 31 L15 33 L13 32 L15 30 z"/>
<path style="fill:#f5f6f6" d="M22 32 L26 35 L27 36 L28 37 C28.06 38.59 30.05 37.81 31 38 C32.35 38.46 33.46 37.35 33 36 L35 36 L35 37 L36 38 L40 39 C40.63 41.79 43.92 40.87 46 41 L47 40 L52 37 L54 34 L54 37 C54.45 38.6 58.55 38.6 59 37 L60 36 L61 35 L62 34 L62 33 L62 32 L65 32 L66 31 L69 31 L73 32 L72 34 L71 35 L71 36 L69 38 L68 39 L61 40 L59 43 L55 46 C53.82 45.85 53.98 47.34 54 48 L53 49 C52.05 49.19 50.06 48.41 50 50 C46.69 50.82 48.68 53.99 49 56 L48 57 L48 59 L47 61 C45.82 60.85 45.98 62.34 46 63 L45 64 L45 66 C44.98 66.66 44.82 68.15 46 68 L47 69 L47 71 L47 72 C45.41 72.06 46.19 74.05 46 75 L45 76 C43.82 75.85 43.98 77.34 44 78 L43 78 L42 78 L42 77 L41 76 L40 75 C39.81 74.05 40.59 72.06 39 72 L39 71 L38 70 L39 68 C41.03 67.23 42.99 64.88 41 63 L40 62 L39 61 L38 61 L38 60 C39.93 58.07 38.23 56.09 38 54 C39.48 54.04 39.48 50.96 38 51 L38 50 L37 49 L36 49 C36.15 47.82 34.66 47.98 34 48 L33 47 L32 46 L31 46 L28 42 L26 40 L19 39 L19 38 L18 37 C18.15 35.82 16.66 35.98 16 36 L16 34 L15 33 L17 31 L22 32 z"/>
<path style="fill:#828282" d="M66 31 L65 32 L66 31 z"/>
<path style="fill:#090909" d="M15 33 L16 34 L16 36 C15.85 37.18 17.34 37.02 18 37 L19 38 L19 39 L19 44 L15 57 L14 58 L12 52 L10 58 C10.02 57.34 10.18 55.85 9 56 L9 52 L9 45 L9 41 C10.18 41.15 10.02 39.66 10 39 L11 35 L12 34 L13 32 L15 33 z"/>
<path style="fill:#080909" d="M74 32 L75 33 L75 34 L76 35 L76 36 C75.98 36.66 75.82 38.15 77 38 C76.98 38.66 76.82 40.15 78 40 L78 43 L78 52 L78 54 C76.41 54.06 77.19 56.05 77 57 L77 58 L75 52 L74 58 L73 59 C71.95 57.03 71.89 53.44 69 56 L69 54 L68 40 L68 39 L69 38 C70.35 38.46 71.46 37.35 71 36 L71 35 L72 34 L73 32 L74 32 z"/>
<path style="fill:#a1a1a1" d="M75 33 L74 32 L75 33 z"/>
<path style="fill:#8a8a8a" d="M16 34 L15 33 L16 34 z"/>
<path style="fill:#a8a8a8" d="M12 34 L11 35 L12 34 z"/>
<path style="fill:#636363" d="M62 34 L61 35 L62 34 z"/>
<path style="fill:#606060" d="M72 34 L71 35 L72 34 z"/>
<path style="fill:#8c8c8c" d="M76 35 L75 34 L76 35 z"/>
<path style="fill:#a1a1a1" d="M27 36 L26 35 L27 36 z"/>
<path style="fill:#646464" d="M61 35 L60 36 L61 35 z"/>
<path style="fill:#a3a4a4" d="M18 37 C17.34 37.02 15.85 37.18 16 36 C16.66 35.98 18.15 35.82 18 37 z"/>
<path style="fill:#909090" d="M71 36 C71.46 37.35 70.35 38.46 69 38 L71 36 z"/>
<path style="fill:#797a7a" d="M77 38 C75.82 38.15 75.98 36.66 76 36 C77.18 35.85 77.02 37.34 77 38 z"/>
<path style="fill:#7e7e7e" d="M19 38 L18 37 L19 38 z"/>
<path style="fill:#6d6d6d" d="M31 38 C30.05 37.81 28.06 38.59 28 37 C28.95 37.19 30.94 36.41 31 38 z"/>
<path style="fill:#5f5f5f" d="M36 38 L35 37 L36 38 z"/>
<path style="fill:#838484" d="M59 37 C58.55 38.6 54.45 38.6 54 37 L59 37 z"/>
<path style="fill:#818282" d="M40 39 L36 38 L40 39 z"/>
<path style="fill:#989898" d="M78 40 C76.82 40.15 76.98 38.66 77 38 C78.18 37.85 78.02 39.34 78 40 z"/>
<path style="fill:#888888" d="M10 39 C10.02 39.66 10.18 41.15 9 41 C8.981 40.34 8.819 38.85 10 39 z"/>
<path style="fill:#686969" d="M26 40 C20.19 37.97 21.67 43.36 20 46 C20.02 45.34 20.18 43.85 19 44 L19 39 L26 40 z"/>
<path style="fill:#8d8d8d" d="M68 39 L68 40 L66 44 C67.22 40.12 64.13 39.4 61 40 L68 39 z"/>
<path style="fill:#0b0c0c" d="M26 40 L28 42 L26 46 C22.08 46.66 20.02 51.63 19 55 L17 56 L20 46 C21.67 43.36 20.19 37.97 26 40 z"/>
<path style="fill:#7f7f7f" d="M47 40 L46 41 L47 40 z"/>
<path style="fill:#0a0a0a" d="M61 40 C64.13 39.4 67.22 40.12 66 44 L69 54 L59 43 L61 40 z"/>
<path style="fill:#636464" d="M68 40 L69 54 L66 44 L68 40 z"/>
<path style="fill:#5c5c5c" d="M31 46 L26 47 L26 46 L28 42 L31 46 z"/>
<path style="fill:#787878" d="M59 43 L69 54 L69 56 C63.66 53.39 62.38 44.22 55 46 L59 43 z"/>
<path style="fill:#7a7b7b" d="M78 52 L78 43 C79.65 44.66 79.65 50.34 78 52 z"/>
<path style="fill:#898a8a" d="M20 46 L17 56 L15 57 L19 44 C20.18 43.85 20.02 45.34 20 46 z"/>
<path style="fill:#838484" d="M9 45 L9 52 C7.364 50.97 7.364 46.03 9 45 z"/>
<path style="fill:#929292" d="M26 46 L26 47 L19 55 C20.02 51.63 22.08 46.66 26 46 z"/>
<path style="fill:#070707" d="M31 46 L32 46 L33 47 L34 48 C33.85 49.18 35.34 49.02 36 49 L37 49 L38 50 L38 51 L38 54 C38.23 56.09 39.93 58.07 38 60 C33.58 62.67 28.17 61.94 23 62 L19 61 C24.92 60.4 22.08 56.26 18 60 L19 55 L26 47 L31 46 z"/>
<path style="fill:#949494" d="M33 47 L32 46 L33 47 z"/>
<path style="fill:#595a5a" d="M55 46 C55.02 46.66 55.18 48.15 54 48 C53.98 47.34 53.82 45.85 55 46 z"/>
<path style="fill:#060707" d="M69 56 C72.66 63.15 64.52 56.04 64.75 59.25 L68 61 L61 62 C56.52 61.48 51.61 61.85 48 59 L48 57 L49 56 C48.68 53.99 46.69 50.82 50 50 C50.95 49.81 52.94 50.59 53 49 L54 48 C55.18 48.15 55.02 46.66 55 46 C62.38 44.22 63.66 53.39 69 56 z"/>
<path style="fill:#797979" d="M36 49 C35.34 49.02 33.85 49.18 34 48 C34.66 47.98 36.15 47.82 36 49 z"/>
<path style="fill:#a1a1a1" d="M54 48 L53 49 L54 48 z"/>
<path style="fill:#a1a1a1" d="M38 50 L37 49 L38 50 z"/>
<path style="fill:#6e6f6f" d="M53 49 C52.94 50.59 50.95 49.81 50 50 C50.06 48.41 52.05 49.19 53 49 z"/>
<path style="fill:#828383" d="M38 54 L38 51 C39.48 50.96 39.48 54.04 38 54 z"/>
<path style="fill:#d2d2d2" d="M12 52 L11 59 L10 58 L12 52 z"/>
<path style="fill:#767777" d="M14 58 L14 60 L11 60 L11 59 L12 52 L14 58 z"/>
<path style="fill:#616161" d="M75 52 L74 58 L75 52 z"/>
<path style="fill:#b6b7b7" d="M77 58 L76 60 L72 60 C70.03 59.79 72.2 58.44 73 59 L74 58 L75 52 L77 58 z"/>
<path style="fill:#525252" d="M78 54 C77.81 54.95 78.59 56.94 77 57 C77.19 56.05 76.41 54.06 78 54 z"/>
<path style="fill:#a1a1a1" d="M19 55 L18 60 L18 61 L16 61 L14 60 L14 58 L15 57 C14.27 60.28 17.83 57.88 17 56 L19 55 z"/>
<path style="fill:#8c8c8c" d="M73 59 C72.2 58.44 70.03 59.79 72 60 L70 62 L69 61 L68 61 L64.75 59.25 C64.52 56.04 72.66 63.15 69 56 C71.89 53.44 71.95 57.03 73 59 z"/>
<path style="fill:#a1a2a2" d="M10 58 C8.819 58.15 8.981 56.66 9 56 C10.18 55.85 10.02 57.34 10 58 z"/>
<path style="fill:#2f2f2f" d="M17 56 C17.83 57.88 14.27 60.28 15 57 L17 56 z"/>
<path style="fill:#808080" d="M49 56 L48 57 L49 56 z"/>
<path style="fill:#c6c7c7" d="M19 61 L18 61 L18 60 C22.08 56.26 24.92 60.4 19 61 z"/>
<path style="fill:#747474" d="M61 62 L61 64 L47 61 L48 59 C51.61 61.85 56.52 61.48 61 62 z"/>
<path style="fill:#1a1a1a" d="M14 60 L16 61 C17.37 62.72 17.75 66.34 15 67 L14 66 L14 65 L13 64 L12 62 L11 61 L11 60 L14 60 z"/>
<path style="fill:#7f7f7f" d="M38 60 L38 61 C37.74 62.29 36.34 63.33 35 63 L23 62 C28.17 61.94 33.58 62.67 38 60 z"/>
<path style="fill:#0f0f0f" d="M76 60 L76 61 L75 62 L75 63 L74 64 L73 65 L72 67 L71 68 L70 68 L70 62 L72 60 L76 60 z"/>
<path style="fill:#a1a1a1" d="M12 62 L11 61 L12 62 z"/>
<path style="fill:#bcbcbc" d="M18 61 C17.33 63.11 19.58 63.21 21 63 C21.46 64.35 20.35 65.46 19 65 C16.34 66.08 19.82 67.53 21 68 C20.85 69.18 22.34 69.02 23 69 C22.94 70.59 20.95 69.81 20 70 C19.39 68.76 17.44 68.02 16 68 L15 67 C17.75 66.34 17.37 62.72 16 61 L18 61 z"/>
<path style="fill:#434444" d="M19 61 L23 62 L35 63 L24 65 L21 63 C19.58 63.21 17.33 63.11 18 61 L19 61 z"/>
<path style="fill:#0d0d0d" d="M39 61 L40 62 L41 63 C42.99 64.88 41.03 67.23 39 68 L24 65 L35 63 C36.34 63.33 37.74 62.29 38 61 L39 61 z"/>
<path style="fill:#797979" d="M40 62 L39 61 L40 62 z"/>
<path style="fill:#0e0f0f" d="M47 61 L61 64 L61 65 C55.87 64.73 51.46 66.93 47 69 L46 68 C46.02 67.34 46.18 65.85 45 66 L45 64 L46 63 C45.98 62.34 45.82 60.85 47 61 z"/>
<path style="fill:#505050" d="M69 61 L70 62 L70 68 L68 63 L61 65 L61 64 L61 62 L68 61 L69 61 z"/>
<path style="fill:#fcfcfc" d="M70 62 L69 61 L70 62 z"/>
<path style="fill:#a3a3a3" d="M76 61 L75 62 L76 61 z"/>
<path style="fill:#989898" d="M41 63 L40 62 L41 63 z"/>
<path style="fill:#888989" d="M24 65 L39 68 L38 70 L19 65 C20.35 65.46 21.46 64.35 21 63 L24 65 z"/>
<path style="fill:#949494" d="M46 63 L45 64 L46 63 z"/>
<path style="fill:#797979" d="M68 63 L68 66 C60.51 65.88 53.17 67.26 47 71 L47 69 C51.46 66.93 55.87 64.73 61 65 L68 63 z"/>
<path style="fill:#acacac" d="M70 68 L71 68 L69 70 L63.25 70.75 L68 66 L68 63 L70 68 z"/>
<path style="fill:#9f9f9f" d="M75 63 L74 64 L75 63 z"/>
<path style="fill:#7c7c7c" d="M14 65 L13 64 L14 65 z"/>
<path style="fill:#747474" d="M74 64 L73 65 L74 64 z"/>
<path style="fill:#080808" d="M19 65 L38 70 L39 71 L39 72 C39.19 72.95 38.41 74.94 40 75 L41 76 L42 77 L42 78 L42 80 L40 80 L37 80 C37.15 78.82 35.66 78.98 35 79 L33 79 C33.15 77.82 31.66 77.98 31 78 L30 78 C30.15 76.82 28.66 76.98 28 77 L27 77 L26 76 L25 75 L24 75 L23 74 L22 73 L21 73 L20 72 L19 71 L20 70 C20.95 69.81 22.94 70.59 23 69 C23.15 67.82 21.66 67.98 21 68 C19.82 67.53 16.34 66.08 19 65 z"/>
<path style="fill:#a8a8a8" d="M15 67 L14 66 L15 67 z"/>
<path style="fill:#a5a6a6" d="M46 68 C44.82 68.15 44.98 66.66 45 66 C46.18 65.85 46.02 67.34 46 68 z"/>
<path style="fill:#060707" d="M68 66 L63.25 70.75 L69 70 L68 71 L67 72 L66 73 L64 74 L63 75 L62 75 L61 76 L60 76 L59 77 L58 77 L57 78 L55 78 C54.34 77.98 52.85 77.82 53 79 L47 80 C45.58 80.21 43.33 80.11 44 78 C43.98 77.34 43.82 75.85 45 76 L46 75 C47.59 74.94 46.81 72.95 47 72 L47 71 C53.17 67.26 60.51 65.88 68 66 z"/>
<path style="fill:#8f8f8f" d="M72 67 L71 68 L72 67 z"/>
<path style="fill:#4c4d4d" d="M20 70 L19 71 L16 68 C17.44 68.02 19.39 68.76 20 70 z"/>
<path style="fill:#585959" d="M23 69 C22.34 69.02 20.85 69.18 21 68 C21.66 67.98 23.15 67.82 23 69 z"/>
<path style="fill:#8f8f8f" d="M39 71 L38 70 L39 71 z"/>
<path style="fill:#878787" d="M69 70 L68 71 L69 70 z"/>
<path style="fill:#818181" d="M20 72 L19 71 L20 72 z"/>
<path style="fill:#808080" d="M68 71 L67 72 L68 71 z"/>
<path style="fill:#a9a9a9" d="M21 73 L20 72 L21 73 z"/>
<path style="fill:#8e8f8f" d="M40 75 C38.41 74.94 39.19 72.95 39 72 C40.59 72.06 39.81 74.05 40 75 z"/>
<path style="fill:#989898" d="M47 72 C46.81 72.95 47.59 74.94 46 75 C46.19 74.05 45.41 72.06 47 72 z"/>
<path style="fill:#9a9a9a" d="M67 72 L66 73 L67 72 z"/>
<path style="fill:#686868" d="M23 74 L22 73 L23 74 z"/>
<path style="fill:#a7a7a7" d="M24 75 L23 74 L24 75 z"/>
<path style="fill:#838383" d="M64 74 L63 75 L64 74 z"/>
<path style="fill:#606060" d="M26 76 L25 75 L26 76 z"/>
<path style="fill:#8e8e8e" d="M41 76 L40 75 L41 76 z"/>
<path style="fill:#5b5b5b" d="M46 75 L45 76 L46 75 z"/>
<path style="fill:#8e8e8e" d="M62 75 L61 76 L62 75 z"/>
<path style="fill:#aaaaaa" d="M27 77 L26 76 L27 77 z"/>
<path style="fill:#838383" d="M42 77 L41 76 L42 77 z"/>
<path style="fill:#666666" d="M60 76 L59 77 L60 76 z"/>
<path style="fill:#8f8f8f" d="M30 78 C29.34 78.02 27.85 78.18 28 77 C28.66 76.98 30.15 76.82 30 78 z"/>
<path style="fill:#787878" d="M58 77 L57 78 L58 77 z"/>
<path style="fill:#7c7c7c" d="M33 79 C32.34 79.02 30.85 79.18 31 78 C31.66 77.98 33.15 77.82 33 79 z"/>
<path style="fill:#5d5e5e" d="M43 78 C43.02 78.66 43.18 80.15 42 80 L42 78 L43 78 z"/>
<path style="fill:#b9b9b9" d="M44 78 C43.33 80.11 45.58 80.21 47 80 C45.97 81.64 41.03 81.64 40 80 L42 80 C43.18 80.15 43.02 78.66 43 78 L44 78 z"/>
<path style="fill:#646565" d="M55 78 C55.15 79.18 53.66 79.02 53 79 C52.85 77.82 54.34 77.98 55 78 z"/>
<path style="fill:#8d8e8e" d="M37 80 C36.34 80.02 34.85 80.18 35 79 C35.66 78.98 37.15 78.82 37 80 z"/>
<path style="fill:#777878" d="M53 79 L47 80 L53 79 z"/>
</svg>
