<?xml version="1.0" standalone="yes"?>
<svg width="87" height="97">
<path style="fill:#fcfdfd" d="M87 0 L87 97 L0 97 L0 0 L87 0 z"/>
<path style="fill:#8b8c8c" d="M38 15 C38.15 16.18 36.66 16.02 36 16 C35.85 14.82 37.34 14.98 38 15 z"/>
<path style="fill:#050505" d="M48 15 C47.85 16.18 49.34 16.02 50 16 L53 16 C52.85 17.18 54.34 17.02 55 17 L58 18 C57.85 19.18 59.34 19.02 60 19 L62 20 L63 21 L65 22 L66 23 L67 24 L70 27 L71 28 L72 29 L73 30 L73 31 L74 32 L75 34 L76 35 L76 36 L77 37 L77 39 C76.98 39.66 76.82 41.15 78 41 L78 44 L78 54 L78 56 L77 60 L77 61 L76 62 L74 67 L73 68 L71 71 L70 72 L69 72 L68 71 L68 70 L70 68 L72 64 L73 62 L74 61 L74 60 C75.59 59.94 74.81 57.95 75 57 L76 56 L76 54 L76 52 L76 48 L76 47 C77.48 47.04 77.48 43.96 76 44 L75 40 L75 39 L73 36 L73 35 L72 34 L70 31 C70.46 29.65 69.35 28.54 68 29 L68 28 L66 26 L64 24 C63.94 22.41 61.95 23.19 61 23 L61 22 L60 21 C58.82 19.96 56.37 19.48 57 22 L56 22 L56 21 C56.67 17.52 51.34 19.01 53 22 L52 22 L51 18 L50 18 L48 18 C45.03 14.73 43.63 20.91 46 22 C45.29 24.68 48.45 23.94 50 24 C49.98 24.66 49.82 26.15 51 26 L53 26 L53 27 L53 28 L54 29 L55 29 C54.98 29.66 54.82 31.15 56 31 L57 31 L57 32 L58 34 L59 35 L59 36 L60 38 L60 40 L61 41 L61 45 L61 46 C60.34 48.24 61.76 49.66 64 49 L64 50 C60.43 49.24 60.79 51.86 63 53 L61 53 L60 54 C58.41 54.06 59.19 56.05 59 57 L59 58 L54 60 L53 60 C52.34 59.98 50.85 59.82 51 61 L49 61 L49 59 C49.02 58.34 49.18 56.85 48 57 L44 53 C44.22 51.67 41.78 51.67 42 53 L41 54 L40 55 L39 56 L38 57 L38 58 L36 61 L35 60 L32 60 L31 59 L30 59 L28 58 L28 57 C27.81 56.05 28.59 54.06 27 54 L26 53 C25.81 52.05 26.59 50.06 25 50 L23 50 L23 49 L25 49 L26 40 L27 39 L27 38 L28 36 L28 35 L29 34 L29 33 C30.18 33.15 30.02 31.66 30 31 C31.18 31.15 31.02 29.66 31 29 C31.66 29.02 33.15 29.18 33 28 C34.18 28.15 34.02 26.66 34 26 L36 26 C37.18 26.15 37.02 24.66 37 24 C38.42 24.21 40.67 24.11 40 22 L41 22 L42 21 C43.44 14.97 38.28 18.24 35 18 C34.05 18.19 32.06 17.41 32 19 L31 19 L29 20 L26 22 L23 23 L22 22 L23 21 L25 20 L26 19 L27 19 C27.66 19.02 29.15 19.18 29 18 L30 18 L31 17 L32 17 C32.66 17.02 34.15 17.18 34 16 L36 16 C36.66 16.02 38.15 16.18 38 15 L48 15 z"/>
<path style="fill:#6c6d6d" d="M50 16 C49.34 16.02 47.85 16.18 48 15 C48.66 14.98 50.15 14.82 50 16 z"/>
<path style="fill:#8e8f8f" d="M34 16 C34.15 17.18 32.66 17.02 32 17 C31.85 15.82 33.34 15.98 34 16 z"/>
<path style="fill:#aeafaf" d="M55 17 C54.34 17.02 52.85 17.18 53 16 C53.66 15.98 55.15 15.82 55 17 z"/>
<path style="fill:#777777" d="M31 17 L30 18 L31 17 z"/>
<path style="fill:#dddddd" d="M42 21 L41 22 L40 22 L35 20 L35 18 C38.28 18.24 43.44 14.97 42 21 z"/>
<path style="fill:#e8e9e9" d="M48 18 L50 20 L46 22 C43.63 20.91 45.03 14.73 48 18 z"/>
<path style="fill:#959595" d="M50 18 L50 20 L48 18 L50 18 z"/>
<path style="fill:#949494" d="M29 18 C29.15 19.18 27.66 19.02 27 19 C26.85 17.82 28.34 17.98 29 18 z"/>
<path style="fill:#6f6f6f" d="M35 18 L35 20 L37 24 C37.02 24.66 37.18 26.15 36 26 C36.65 22.4 29.46 24.15 34 26 C34.02 26.66 34.18 28.15 33 28 C33.56 24.21 27.82 26.52 31 29 L27 30 L25 30 L25 29 L28 26 L29 20 L31 19 C28.53 26.12 37.3 19.55 32 19 C32.06 17.41 34.05 18.19 35 18 z"/>
<path style="fill:#eceded" d="M51 18 C51.02 18.66 51.18 20.15 50 20 L50 18 L51 18 z"/>
<path style="fill:#949494" d="M52 22 C50.65 21.54 49.54 22.65 50 24 C48.45 23.94 45.29 24.68 46 22 L50 20 C51.18 20.15 51.02 18.66 51 18 L52 22 z"/>
<path style="fill:#8b8c8c" d="M60 19 C59.34 19.02 57.85 19.18 58 18 C58.66 17.98 60.15 17.82 60 19 z"/>
<path style="fill:#8a8a8a" d="M26 19 L25 20 L26 19 z"/>
<path style="fill:#f2f3f3" d="M32 19 C37.3 19.55 28.53 26.12 31 19 L32 19 z"/>
<path style="fill:#eaeaea" d="M56 21 L53 22 C51.34 19.01 56.67 17.52 56 21 z"/>
<path style="fill:#e0e0e0" d="M29 20 L28 26 L26 22 L29 20 z"/>
<path style="fill:#989898" d="M40 22 C40.67 24.11 38.42 24.21 37 24 L35 20 L40 22 z"/>
<path style="fill:#ececec" d="M60 21 L61 22 L61 23 L58 24 L57 24 L57 22 C56.37 19.48 58.82 19.96 60 21 z"/>
<path style="fill:#757575" d="M63 21 L62 20 L63 21 z"/>
<path style="fill:#757575" d="M23 21 L22 22 L23 21 z"/>
<path style="fill:#7c7c7c" d="M42 21 L41 22 L42 21 z"/>
<path style="fill:#808080" d="M56 21 L56 22 L54 24 C52.58 23.79 50.33 23.89 51 26 C49.82 26.15 49.98 24.66 50 24 C49.54 22.65 50.65 21.54 52 22 L53 22 L56 21 z"/>
<path style="fill:#7c7c7c" d="M61 22 L60 21 L61 22 z"/>
<path style="fill:#4f4f4f" d="M22 22 L23 23 L23 24 C21.22 24.58 24.47 27.23 25 28 L25 29 L24 30 L23 30 C23.28 28.4 22.86 26.34 21 26 C21.02 25.34 21.18 23.85 20 24 L22 22 z"/>
<path style="fill:#909090" d="M26 22 L28 26 L25 29 L25 28 C26.74 26.17 26.15 22.91 23 24 L23 23 L26 22 z"/>
<path style="fill:#5b5c5c" d="M57 22 L57 24 C55.12 23.86 57.14 25.88 57 24 L58 24 L58 27 L57 27 C56.54 24.95 54.07 26.38 53 27 L53 26 L54 24 L56 22 L57 22 z"/>
<path style="fill:#a3a3a3" d="M66 23 L65 22 L66 23 z"/>
<path style="fill:#838383" d="M61 23 C61.95 23.19 63.94 22.41 64 24 C59.05 22.48 60.18 29.21 64 26 C64.02 26.66 64.18 28.15 63 28 C61.94 27.57 61.94 29.43 63 29 C64.18 28.85 64.02 30.34 64 31 L62 31 C62.15 29.82 60.66 29.98 60 30 C59.62 28.15 55.01 28.52 56 31 C54.82 31.15 54.98 29.66 55 29 L57 27 L58 27 C57.86 28.88 59.88 26.86 58 27 L58 24 L61 23 z"/>
<path style="fill:#666666" d="M67 24 L66 23 L67 24 z"/>
<path style="fill:#191a1a" d="M20 24 C21.18 23.85 21.02 25.34 21 26 L19 28 L19 29 C18.34 28.98 16.85 28.82 17 30 L16 31 L16 33 L15 34 C13.82 33.85 13.98 35.34 14 36 L12 39 L12 40 L11 44 C9.522 43.96 9.522 47.04 11 47 L11 48 L11 52 L11 54 C11.19 54.95 10.41 56.94 12 57 L12 58 C12.02 59.44 12.76 61.39 14 62 C14.19 62.95 13.41 64.94 15 65 L16 67 L17 68 L19 71 L30 79 C29.85 80.18 31.34 80.02 32 80 L38 80 L41 80 L41 81 C39.94 80.57 39.94 82.43 41 82 L45 82 L48 80 L55 80 C55.66 80.02 57.15 80.18 57 79 L59 78 L60 77 L62 76 L63 75 L68 71 L69 72 L69 73 L67 75 L66 76 L65 77 L61 79 L60 80 L59 80 L58 81 L54 82 C53.34 81.98 51.85 81.82 52 83 L48 83 L38 83 L36 83 L32 82 L29 81 L28 80 L27 80 L26 79 L25 79 L24 78 L22 77 L21 76 L20 75 L15 70 L14 69 L14 68 L13 67 L10 60 C10.02 59.34 10.18 57.85 9 58 L9 56 C9.019 55.34 9.181 53.85 8 54 L8 46 L9 42 L9 40 L10 39 L10 38 C11.18 38.15 11.02 36.66 11 36 L11 35 L12 34 C13.55 30.04 16.29 26.31 20 24 z"/>
<path style="fill:#f4f4f4" d="M23 24 C26.15 22.91 26.74 26.17 25 28 C24.47 27.23 21.22 24.58 23 24 z"/>
<path style="fill:#eaeaea" d="M36 26 L34 26 C29.46 24.15 36.65 22.4 36 26 z"/>
<path style="fill:#eaebeb" d="M54 24 L53 26 L51 26 C50.33 23.89 52.58 23.79 54 24 z"/>
<path style="fill:#bababa" d="M57 24 C57.14 25.88 55.12 23.86 57 24 z"/>
<path style="fill:#e8e8e8" d="M64 24 L64 26 C60.18 29.21 59.05 22.48 64 24 z"/>
<path style="fill:#5a5a5a" d="M66 26 L64 26 L64 24 L66 26 z"/>
<path style="fill:#ededed" d="M21 26 C22.86 26.34 23.28 28.4 23 30 L19 28 L21 26 z"/>
<path style="fill:#e8e9e9" d="M33 28 C33.15 29.18 31.66 29.02 31 29 C27.82 26.52 33.56 24.21 33 28 z"/>
<path style="fill:#e8e8e8" d="M57 27 L55 29 L54 29 L53 28 L53 27 C54.07 26.38 56.54 24.95 57 27 z"/>
<path style="fill:#e6e7e7" d="M66 26 L68 28 L64 31 C64.02 30.34 64.18 28.85 63 29 L63 28 C64.18 28.15 64.02 26.66 64 26 L66 26 z"/>
<path style="fill:#040404" d="M58 27 C59.88 26.86 57.86 28.88 58 27 z"/>
<path style="fill:#919191" d="M71 28 L70 27 L71 28 z"/>
<path style="fill:#5b5c5c" d="M23 30 L21 32 L19 29 L19 28 L23 30 z"/>
<path style="fill:#5d5d5d" d="M54 29 L53 28 L54 29 z"/>
<path style="fill:#0" d="M63 28 L63 29 C61.94 29.43 61.94 27.57 63 28 z"/>
<path style="fill:#5a5a5a" d="M68 28 L68 29 C67.23 30.67 65.22 31.76 66 34 C64.82 33.16 64.18 33.16 63 34 L62 34 L62 32 L62 31 L64 31 L68 28 z"/>
<path style="fill:#f1f2f2" d="M19 29 L21 32 L20 35 L16 33 L16 31 L17 30 C16.85 28.82 18.34 28.98 19 29 z"/>
<path style="fill:#cccccc" d="M25 29 L25 30 L24 30 L25 29 z"/>
<path style="fill:#d7d7d7" d="M31 29 C31.02 29.66 31.18 31.15 30 31 L29 31 C29.15 29.82 27.66 29.98 27 30 L31 29 z"/>
<path style="fill:#f5f5f5" d="M60 30 L58 30 L57 31 L56 31 C55.01 28.52 59.62 28.15 60 30 z"/>
<path style="fill:#edeeee" d="M70 31 L68 35 L67 35 L66 34 C65.22 31.76 67.23 30.67 68 29 C69.35 28.54 70.46 29.65 70 31 z"/>
<path style="fill:#a1a1a1" d="M73 30 L72 29 L73 30 z"/>
<path style="fill:#919191" d="M17 30 L16 31 L17 30 z"/>
<path style="fill:#9d9e9e" d="M24 30 L24 32 C23.18 31.98 21.13 33.87 23 34 L22 36 C20.82 35.85 20.98 37.34 21 38 L20 38 L20 37 L20 35 L21 32 L23 30 L24 30 z"/>
<path style="fill:#2b2c2c" d="M25 30 L27 30 C27.66 29.98 29.15 29.82 29 31 L28 31 L24 32 L24 30 L25 30 z"/>
<path style="fill:#a5a6a6" d="M58 30 L62 31 L62 32 L57 32 L57 31 L58 30 z"/>
<path style="fill:#1c1d1d" d="M60 30 C60.66 29.98 62.15 29.82 62 31 L58 30 L60 30 z"/>
<path style="fill:#edeeee" d="M28 31 L29 33 L29 34 C27.17 34.08 24.46 34.37 24 32 L28 31 z"/>
<path style="fill:#757575" d="M29 31 L30 31 C30.02 31.66 30.18 33.15 29 33 L28 31 L29 31 z"/>
<path style="fill:#828383" d="M72 34 L68 36 L68 35 L70 31 L72 34 z"/>
<path style="fill:#656565" d="M74 32 L73 31 L74 32 z"/>
<path style="fill:#5b5b5b" d="M24 32 C24.46 34.37 27.17 34.08 29 34 L28 35 L23 34 C21.13 33.87 23.18 31.98 24 32 z"/>
<path style="fill:#ececec" d="M62 32 L62 34 L58 34 L57 32 L62 32 z"/>
<path style="fill:#626363" d="M16 33 L20 35 L20 37 L19 37 C18.33 35.54 16.85 33.67 15 34 L16 33 z"/>
<path style="fill:#838383" d="M66 34 L67 35 L67 36 C65.82 35.85 65.98 37.34 66 38 L66 39 C64.3 37.64 62.09 38.02 60 38 L59 36 C60.69 35.87 65.37 36.82 63 34 C64.18 33.16 64.82 33.16 66 34 z"/>
<path style="fill:#a1a1a1" d="M12 34 L11 35 L12 34 z"/>
<path style="fill:#f3f3f3" d="M15 34 C16.85 33.67 18.33 35.54 19 37 L17 39 L14 36 C13.98 35.34 13.82 33.85 15 34 z"/>
<path style="fill:#eff0f0" d="M28 35 L28 36 L22 36 L23 34 L28 35 z"/>
<path style="fill:#616161" d="M62 34 C61.94 35.59 59.95 34.81 59 35 L58 34 L62 34 z"/>
<path style="fill:#f1f2f2" d="M63 34 C65.37 36.82 60.69 35.87 59 36 L59 35 C59.95 34.81 61.94 35.59 62 34 L63 34 z"/>
<path style="fill:#f7f7f7" d="M72 34 L73 35 L73 36 C72.59 37.93 70.35 38.09 69 39 C69.02 38.34 69.18 36.85 68 37 L68 36 L72 34 z"/>
<path style="fill:#7d7d7d" d="M73 35 L72 34 L73 35 z"/>
<path style="fill:#9d9d9d" d="M76 35 L75 34 L76 35 z"/>
<path style="fill:#252525" d="M68 35 L68 36 L68 37 L67 36 L67 35 L68 35 z"/>
<path style="fill:#757575" d="M11 36 C11.02 36.66 11.18 38.15 10 38 C9.981 37.34 9.819 35.85 11 36 z"/>
<path style="fill:#6f6f6f" d="M14 36 L17 39 L17 40 L12 39 L14 36 z"/>
<path style="fill:#727272" d="M22 36 L28 36 L27 38 L21 38 C20.98 37.34 20.82 35.85 22 36 z"/>
<path style="fill:#9b9c9c" d="M67 36 L68 37 C69.18 36.85 69.02 38.34 69 39 L70 40 L70 41 C67.32 40.29 68.06 43.45 68 45 L67 45 L66 41 C67.48 41.04 67.48 37.96 66 38 C65.98 37.34 65.82 35.85 67 36 z"/>
<path style="fill:#636464" d="M75 39 L70 40 L69 39 C70.35 38.09 72.59 37.93 73 36 L75 39 z"/>
<path style="fill:#9d9d9d" d="M77 37 L76 36 L77 37 z"/>
<path style="fill:#b8b8b8" d="M19 37 L20 37 L20 38 L19 46 L18 41 L17 40 L17 39 L19 37 z"/>
<path style="fill:#606161" d="M21 38 C20.36 41.1 24.27 39.7 26 40 L25 49 C26.56 45.59 21.06 44.87 20 47 L19 47 L19 46 L20 38 L21 38 z"/>
<path style="fill:#f5f5f5" d="M27 38 L27 39 L26 40 C24.27 39.7 20.36 41.1 21 38 L27 38 z"/>
<path style="fill:#f2f2f2" d="M66 39 L60 40 L60 38 C62.09 38.02 64.3 37.64 66 39 z"/>
<path style="fill:#494949" d="M66 41 L65 41 L61 41 L60 40 L66 39 L66 38 C67.48 37.96 67.48 41.04 66 41 z"/>
<path style="fill:#818181" d="M10 39 L9 40 L10 39 z"/>
<path style="fill:#f3f3f3" d="M17 40 L17 41 L17 44 L12 40 L12 39 L17 40 z"/>
<path style="fill:#818181" d="M27 39 L26 40 L27 39 z"/>
<path style="fill:#f8f8f8" d="M75 39 L75 40 L71 43 C69.82 43.15 69.98 41.66 70 41 L70 40 L75 39 z"/>
<path style="fill:#a6a7a7" d="M78 41 C76.82 41.15 76.98 39.66 77 39 C78.18 38.85 78.02 40.34 78 41 z"/>
<path style="fill:#6a6a6a" d="M12 40 L17 44 C17.02 44.66 17.18 46.15 16 46 C15.54 43.63 12.83 43.92 11 44 L12 40 z"/>
<path style="fill:#0c0c0c" d="M18 41 L17 41 L17 40 L18 41 z"/>
<path style="fill:#777777" d="M76 44 C73.5 43.46 70.86 44.51 70 47 C67.38 45.92 70.07 43.84 71 43 L75 40 L76 44 z"/>
<path style="fill:#979797" d="M18 41 L19 46 L19 47 L18 47 L16 48 L16 46 C17.18 46.15 17.02 44.66 17 44 L17 41 L18 41 z"/>
<path style="fill:#ebecec" d="M20 41 C22.81 40.47 26.54 41 24.75 44.75 C21.72 45.98 18.81 44.57 20 41 z"/>
<path style="fill:#b9b9b9" d="M65 41 L62 45 L61 45 L61 41 L65 41 z"/>
<path style="fill:#f8f9f9" d="M66 41 L67 45 L62 45 L65 41 L66 41 z"/>
<path style="fill:#c4c4c4" d="M70 41 C69.98 41.66 69.82 43.15 71 43 C70.07 43.84 67.38 45.92 70 47 L70 48 C68.41 48.06 69.19 50.05 69 51 L69 53 L69 54 C68.02 55.01 65.8 58.99 68 60 L69 62 C67.83 61.2 63.87 61.32 66 63 L64 66 C62.65 66.46 61.54 65.35 62 64 C63.18 64.15 63.02 62.66 63 62 L64 61 C65.27 60.59 66.88 57.16 64 58 L64 57 L66 56 L65 53 L67 53 C69.62 51.92 66.93 49.84 66 49 C67.18 49.15 67.02 47.66 67 47 C68.18 47.15 68.02 45.66 68 45 C68.06 43.45 67.32 40.29 70 41 z"/>
<path style="fill:#666666" d="M9 42 L8 46 L9 42 z"/>
<path style="fill:#7e7f7f" d="M11 44 L11 47 C9.522 47.04 9.522 43.96 11 44 z"/>
<path style="fill:#f9f9f9" d="M16 46 L16 48 L11 47 L11 44 C12.83 43.92 15.54 43.63 16 46 z"/>
<path style="fill:#f9fafa" d="M76 44 L76 47 L70 48 L70 47 C70.86 44.51 73.5 43.46 76 44 z"/>
<path style="fill:#676767" d="M76 47 L76 44 C77.48 43.96 77.48 47.04 76 47 z"/>
<path style="fill:#8a8b8b" d="M78 54 L78 44 C79.66 45.99 79.66 52.01 78 54 z"/>
<path style="fill:#646464" d="M62 45 L67 45 L68 45 C68.02 45.66 68.18 47.15 67 47 L62 46 L61 46 L61 45 L62 45 z"/>
<path style="fill:#e9e9e9" d="M25 49 L23 49 L21 49 C19.82 49.15 19.98 47.66 20 47 C21.06 44.87 26.56 45.59 25 49 z"/>
<path style="fill:#a4a4a4" d="M62 46 L64 49 C61.76 49.66 60.34 48.24 61 46 L62 46 z"/>
<path style="fill:#f3f4f4" d="M67 47 C67.02 47.66 67.18 49.15 66 49 L64 49 L62 46 L67 47 z"/>
<path style="fill:#6c6d6d" d="M16 48 L18 47 L18 51 L17 51 L16 50 C17.88 50.14 15.86 48.12 16 50 L11 48 L11 47 L16 48 z"/>
<path style="fill:#cecece" d="M19 47 L20 47 C19.98 47.66 19.82 49.15 21 49 L18 54 L18 51 L18 47 L19 47 z"/>
<path style="fill:#565757" d="M76 47 L76 48 C73.75 47.85 70.9 48.79 70 51 L69 51 C69.19 50.05 68.41 48.06 70 48 L76 47 z"/>
<path style="fill:#f4f4f4" d="M16 50 L17 51 L17 52 L11 52 L11 48 L16 50 z"/>
<path style="fill:#eeefef" d="M76 48 L76 52 L70 51 C70.9 48.79 73.75 47.85 76 48 z"/>
<path style="fill:#0b0b0b" d="M16 50 C15.86 48.12 17.88 50.14 16 50 z"/>
<path style="fill:#7e7e7e" d="M23 49 L23 50 L21 53 L20 55 L19 60 C18.16 56.88 14.34 58.32 12 58 L12 57 L18 55 L18 54 L21 49 L23 49 z"/>
<path style="fill:#727272" d="M66 49 C66.93 49.84 69.62 51.92 67 53 L64 50 L64 49 L66 49 z"/>
<path style="fill:#f4f4f4" d="M25 50 C25.49 52.19 22.6 52.83 21 53 L23 50 L25 50 z"/>
<path style="fill:#595a5a" d="M26 53 C23.98 53.24 20.63 54.31 21 57 C19.82 57.15 19.98 55.66 20 55 L21 53 C22.6 52.83 25.49 52.19 25 50 C26.59 50.06 25.81 52.05 26 53 z"/>
<path style="fill:#e3e4e4" d="M64 50 L67 53 L65 53 L63 53 C60.79 51.86 60.43 49.24 64 50 z"/>
<path style="fill:#262626" d="M18 51 L18 54 L18 55 L17 54 L17 52 L17 51 L18 51 z"/>
<path style="fill:#7c7d7d" d="M70 51 L76 52 L76 54 C74.24 52.64 71.76 52.64 70 54 L69 53 L69 51 L70 51 z"/>
<path style="fill:#828282" d="M17 52 L17 54 L11 54 L11 52 L17 52 z"/>
<path style="fill:#555555" d="M44 53 L44 62 L43 62 L42 53 C41.78 51.67 44.22 51.67 44 53 z"/>
<path style="fill:#eeefef" d="M17 54 L18 55 L12 57 C10.41 56.94 11.19 54.95 11 54 L17 54 z"/>
<path style="fill:#e6e6e6" d="M26 53 L27 54 C27.23 56.8 23.06 56.65 21 57 C20.63 54.31 23.98 53.24 26 53 z"/>
<path style="fill:#5d5d5d" d="M27 54 L26 53 L27 54 z"/>
<path style="fill:#cbcbcb" d="M42 53 L43 62 L42 71 L41 54 L42 53 z"/>
<path style="fill:#fafafa" d="M48 57 C47.98 57.66 47.82 59.15 49 59 L49 61 C49.21 66.26 49.06 72.88 44.25 75.75 L44 62 L44 53 L48 57 z"/>
<path style="fill:#707070" d="M61 53 L60 54 L61 53 z"/>
<path style="fill:#eeeeee" d="M63 53 L66 56 L64 57 L62 57 L60 54 L61 53 L63 53 z"/>
<path style="fill:#555555" d="M65 53 L66 56 L63 53 L65 53 z"/>
<path style="fill:#262626" d="M70 54 L69 54 L69 53 L70 54 z"/>
<path style="fill:#ececec" d="M76 54 L76 56 L75 57 L70 54 C71.76 52.64 74.24 52.64 76 54 z"/>
<path style="fill:#747474" d="M9 56 C7.819 56.15 7.981 54.66 8 54 C9.181 53.85 9.019 55.34 9 56 z"/>
<path style="fill:#636363" d="M28 57 C25.93 57.04 23.19 57.59 22 59 C20.82 59.15 20.98 57.66 21 57 C23.06 56.65 27.23 56.8 27 54 C28.59 54.06 27.81 56.05 28 57 z"/>
<path style="fill:#9a9a9a" d="M41 54 L40 55 L41 54 z"/>
<path style="fill:#f8f8f8" d="M42 71 L41.75 75.75 C36.5 71.76 37.05 63.95 38 58 L38 57 L39 56 L40 55 L41 54 L42 71 z"/>
<path style="fill:#6c6d6d" d="M60 54 L62 57 L59 57 C59.19 56.05 58.41 54.06 60 54 z"/>
<path style="fill:#808080" d="M69 54 L70 54 L75 57 C74.81 57.95 75.59 59.94 74 60 C74.84 56.93 67.16 56.93 68 60 C65.8 58.99 68.02 55.01 69 54 z"/>
<path style="fill:#b7b8b8" d="M20 55 C19.98 55.66 19.82 57.15 21 57 C20.98 57.66 20.82 59.15 22 59 L23 62 C22.67 63.34 23.71 64.74 25 65 L32 67 L32 68 C28.45 67.74 24.39 65.63 21 68 L21 67 L22 64 C22.72 61.65 19.36 60.09 19 63 L17 63 L17 62 L19 60 L20 55 z"/>
<path style="fill:#838383" d="M40 55 L39 56 L40 55 z"/>
<path style="fill:#747474" d="M39 56 L38 57 L39 56 z"/>
<path style="fill:#898989" d="M76 56 L75 57 L76 56 z"/>
<path style="fill:#898a8a" d="M78 56 L77 60 L78 56 z"/>
<path style="fill:#f1f1f1" d="M28 57 L28 58 C28.54 61.3 24.72 60.7 23 62 L22 59 C23.19 57.59 25.93 57.04 28 57 z"/>
<path style="fill:#919191" d="M49 59 C47.82 59.15 47.98 57.66 48 57 C49.18 56.85 49.02 58.34 49 59 z"/>
<path style="fill:#f1f2f2" d="M62 57 C61.85 58.18 63.34 58.02 64 58 L64 61 L63 62 L62 62 L59 58 L59 57 L62 57 z"/>
<path style="fill:#464747" d="M64 57 L64 58 C63.34 58.02 61.85 58.18 62 57 L64 57 z"/>
<path style="fill:#707070" d="M10 60 C8.819 60.15 8.981 58.66 9 58 C10.18 57.85 10.02 59.34 10 60 z"/>
<path style="fill:#f5f5f5" d="M19 60 L17 62 L14 62 C12.76 61.39 12.02 59.44 12 58 C14.34 58.32 18.16 56.88 19 60 z"/>
<path style="fill:#878787" d="M30 59 L25 65 C23.71 64.74 22.67 63.34 23 62 C24.72 60.7 28.54 61.3 28 58 L30 59 z"/>
<path style="fill:#8a8b8b" d="M38 58 C37.05 63.95 36.5 71.76 41.75 75.75 L42 71 L43 62 L44 62 L44.25 75.75 C49.06 72.88 49.21 66.26 49 61 L51 61 C50.34 67.89 48.77 70.72 55.75 67.25 L47.25 76.75 L53 74 L48 80 L45 82 C45.96 80.1 43.82 75.09 42 78 L40 77 C38.53 73.32 35.14 70.33 32 68 L32 67 L36.75 69.75 L36 61 L38 58 z"/>
<path style="fill:#989898" d="M59 58 L62 62 L62 63 L54 60 L59 58 z"/>
<path style="fill:#707070" d="M64 61 L64 58 C66.88 57.16 65.27 60.59 64 61 z"/>
<path style="fill:#f6f7f7" d="M74 60 L74 61 L73 62 L69 62 L68 60 C67.16 56.93 74.84 56.93 74 60 z"/>
<path style="fill:#f7f7f7" d="M31 59 L32 60 L35 60 L36 61 L36.75 69.75 L32 67 L25 65 L30 59 L31 59 z"/>
<path style="fill:#a4a4a4" d="M32 60 L31 59 L32 60 z"/>
<path style="fill:#5b5b5b" d="M36 61 L35 60 L36 61 z"/>
<path style="fill:#9f9f9f" d="M53 60 C53.15 61.18 51.66 61.02 51 61 C50.85 59.82 52.34 59.98 53 60 z"/>
<path style="fill:#f4f4f4" d="M54 60 L62 63 L62 64 C57.73 67.03 63.43 67.32 66 68 L67 69 C62.26 70 55.84 69.47 53 74 L47.25 76.75 L55.75 67.25 C48.77 70.72 50.34 67.89 51 61 C51.66 61.02 53.15 61.18 53 60 L54 60 z"/>
<path style="fill:#777777" d="M22 64 L19 63 C19.36 60.09 22.72 61.65 22 64 z"/>
<path style="fill:#828282" d="M69 62 L73 62 L72 64 C70.3 62.64 68.09 63.02 66 63 C63.87 61.32 67.83 61.2 69 62 z"/>
<path style="fill:#6d6d6d" d="M74 61 L73 62 L74 61 z"/>
<path style="fill:#666666" d="M77 61 L76 62 L77 61 z"/>
<path style="fill:#787878" d="M17 62 L17 63 C15.65 62.54 14.54 63.65 15 65 C13.41 64.94 14.19 62.95 14 62 L17 62 z"/>
<path style="fill:#484848" d="M63 62 C63.02 62.66 63.18 64.15 62 64 L62 63 L62 62 L63 62 z"/>
<path style="fill:#f3f3f3" d="M17 63 L19 63 L22 64 L21 67 L17 68 L16 67 L15 65 C14.54 63.65 15.65 62.54 17 63 z"/>
<path style="fill:#f3f3f3" d="M72 64 L70 68 L66 67 C66.15 65.82 64.66 65.98 64 66 L66 63 C68.09 63.02 70.3 62.64 72 64 z"/>
<path style="fill:#969797" d="M62 64 C61.54 65.35 62.65 66.46 64 66 C64.66 65.98 66.15 65.82 66 67 L66 68 C63.43 67.32 57.73 67.03 62 64 z"/>
<path style="fill:#818181" d="M14 68 L13 67 L14 68 z"/>
<path style="fill:#818181" d="M17 68 L16 67 L17 68 z"/>
<path style="fill:#535353" d="M21 67 L21 68 L20 69 C18.82 68.85 18.98 70.34 19 71 L17 68 L21 67 z"/>
<path style="fill:#f5f6f6" d="M32 68 C35.14 70.33 38.53 73.32 40 77 L38 77 C37.33 75.54 35.85 73.67 34 74 C30.89 69.82 24.62 70.35 20 69 L21 68 C24.39 65.63 28.45 67.74 32 68 z"/>
<path style="fill:#454646" d="M70 68 L68 70 L67 69 L66 68 L66 67 L70 68 z"/>
<path style="fill:#9e9e9e" d="M74 67 L73 68 L74 67 z"/>
<path style="fill:#7d7d7d" d="M15 70 L14 69 L15 70 z"/>
<path style="fill:#f5f5f5" d="M20 69 L34 74 C34.67 75.46 36.15 77.33 38 77 L38 80 L32 80 C32.15 78.82 30.66 78.98 30 79 L19 71 C18.98 70.34 18.82 68.85 20 69 z"/>
<path style="fill:#8a8b8b" d="M34 74 L20 69 C24.62 70.35 30.89 69.82 34 74 z"/>
<path style="fill:#929393" d="M67 69 L53 74 C55.84 69.47 62.26 70 67 69 z"/>
<path style="fill:#f5f6f6" d="M68 70 L68 71 L63 75 L62 76 L60 77 L59 78 L57 79 C56.34 78.98 54.85 78.82 55 80 L48 80 L53 74 L67 69 L68 70 z"/>
<path style="fill:#a0a0a0" d="M71 71 L70 72 L71 71 z"/>
<path style="fill:#a5a5a5" d="M70 72 L69 73 L69 72 L70 72 z"/>
<path style="fill:#737474" d="M38 77 C36.15 77.33 34.67 75.46 34 74 C35.85 73.67 37.33 75.54 38 77 z"/>
<path style="fill:#747474" d="M21 76 L20 75 L21 76 z"/>
<path style="fill:#777777" d="M63 75 L62 76 L63 75 z"/>
<path style="fill:#747474" d="M67 75 L66 76 L67 75 z"/>
<path style="fill:#979797" d="M22 77 L21 76 L22 77 z"/>
<path style="fill:#a4a4a4" d="M66 76 L65 77 L66 76 z"/>
<path style="fill:#afb0b0" d="M40 77 L42 78 L41 80 L38 80 L38 77 L40 77 z"/>
<path style="fill:#f1f2f2" d="M45 82 L41 82 L41 81 L41 80 L42 78 C43.82 75.09 45.96 80.1 45 82 z"/>
<path style="fill:#a2a2a2" d="M60 77 L59 78 L60 77 z"/>
<path style="fill:#949494" d="M25 79 L24 78 L25 79 z"/>
<path style="fill:#797979" d="M27 80 L26 79 L27 80 z"/>
<path style="fill:#a3a3a3" d="M32 80 C31.34 80.02 29.85 80.18 30 79 C30.66 78.98 32.15 78.82 32 80 z"/>
<path style="fill:#737474" d="M57 79 C57.15 80.18 55.66 80.02 55 80 C54.85 78.82 56.34 78.98 57 79 z"/>
<path style="fill:#7d7d7d" d="M61 79 L60 80 L61 79 z"/>
<path style="fill:#767676" d="M29 81 L28 80 L29 81 z"/>
<path style="fill:#7a7a7a" d="M59 80 L58 81 L59 80 z"/>
<path style="fill:#727272" d="M41 81 L41 82 C39.94 82.43 39.94 80.57 41 81 z"/>
<path style="fill:#6e6e6e" d="M36 83 L32 82 L36 83 z"/>
<path style="fill:#767676" d="M54 82 C54.15 83.18 52.66 83.02 52 83 C51.85 81.82 53.34 81.98 54 82 z"/>
<path style="fill:#858686" d="M48 83 C46.01 84.66 39.99 84.66 38 83 L48 83 z"/>
</svg>
