<?xml version="1.0" standalone="yes"?>
<svg width="87" height="97">
<path style="fill:#fcfdfd" d="M87 0 L87 97 L0 97 L0 0 L87 0 z"/>
<path style="fill:#0a0a0a" d="M60 20 L59 22 L48 24 L43 24 L41 24 L30 21 C27.48 21.74 28.23 19.13 30 19 L31 18 L32 18 L39 17 C45.91 15 53.39 17.85 60 20 z"/>
<path style="fill:#878787" d="M39 17 L32 18 L39 17 z"/>
<path style="fill:#787878" d="M31 18 L30 19 L31 18 z"/>
<path style="fill:#6f7070" d="M64 23 L59 23 L59 22 L60 20 L64 23 z"/>
<path style="fill:#cecfcf" d="M41 24 C40.85 25.18 42.34 25.02 43 25 L43 26 L36 28 L36 27 C45.21 25.37 32.44 22.3 30 22 L30 21 L41 24 z"/>
<path style="fill:#0b0c0c" d="M30 22 C32.44 22.3 45.21 25.37 36 27 C35.05 27.19 33.06 26.41 33 28 L32 29 L31 30 C29.23 31.39 27.1 33.02 25 31 L24 31 C24.04 29.52 20.96 29.52 21 31 C19.4 30.72 17.34 31.14 17 33 L14 34 C14.03 31.66 16.66 29.03 19 29 C20.18 29.15 20.02 27.66 20 27 L20 26 L21 25 L22 24 L23 23 C24.97 21.44 27.61 22.14 30 22 z"/>
<path style="fill:#cccccc" d="M59 22 L59 23 L54 25 L48 24 L59 22 z"/>
<path style="fill:#858585" d="M23 23 L22 24 L23 23 z"/>
<path style="fill:#0a0b0b" d="M59 23 L64 23 L66 24 L67 25 L68 26 L73 36 L72 35 C69.88 31.04 63.24 31 60.25 33.75 L49 26 L54 25 L59 23 z"/>
<path style="fill:#7c7c7c" d="M22 24 L21 25 L22 24 z"/>
<path style="fill:#6b6c6c" d="M43 24 L43 25 C42.34 25.02 40.85 25.18 41 24 L43 24 z"/>
<path style="fill:#c9c9c9" d="M48 24 L48 26 L47 26 L43 25 L43 24 L48 24 z"/>
<path style="fill:#454545" d="M54 25 L49 26 L48 26 L48 24 L54 25 z"/>
<path style="fill:#616161" d="M67 25 L66 24 L67 25 z"/>
<path style="fill:#9f9f9f" d="M21 25 L20 26 L21 25 z"/>
<path style="fill:#727373" d="M47 26 L43 26 L43 25 L47 26 z"/>
<path style="fill:#6f6f6f" d="M68 26 L67 25 L68 26 z"/>
<path style="fill:#0b0c0c" d="M43 26 L47 26 L48 26 C50.55 29.61 64.01 32.24 53.25 35.25 L53 37 L46 34 C43.94 31.31 39.26 33.86 38 36 L31 30 L32 30 L33 29 L34 29 L36 28 L43 26 z"/>
<path style="fill:#b3b3b3" d="M49 26 L60.25 33.75 C63.24 31 69.88 31.04 72 35 L72 36 C66.39 30.35 59.16 35.13 53 37 L53.25 35.25 C64.01 32.24 50.55 29.61 48 26 L49 26 z"/>
<path style="fill:#717171" d="M20 27 C20.02 27.66 20.18 29.15 19 29 C18.98 28.34 18.82 26.85 20 27 z"/>
<path style="fill:#808181" d="M36 27 L36 28 L34 29 L33 28 C33.06 26.41 35.05 27.19 36 27 z"/>
<path style="fill:#d9d9d9" d="M33 28 L34 29 L33 29 L32 29 L33 28 z"/>
<path style="fill:#cdcdcd" d="M32 29 L32 30 L31 30 L32 29 z"/>
<path style="fill:#656565" d="M33 29 L32 30 L32 29 L33 29 z"/>
<path style="fill:#868787" d="M24 31 L21 31 C20.96 29.52 24.04 29.52 24 31 z"/>
<path style="fill:#b4b4b4" d="M31 30 L38 36 C39.26 33.86 43.94 31.31 46 34 C41.53 35.28 32.71 38.49 32 42 L32 43 C24.82 41.44 25.34 50.09 21 53 C22.34 48.83 26.98 41.22 18 43 C23.84 42.53 30.97 42.49 35 36 L24 32 L25 31 C27.1 33.02 29.23 31.39 31 30 z"/>
<path style="fill:#e8e9e9" d="M21 31 L24 31 L25 31 L24 32 C21.91 32.02 19.7 31.64 18 33 L17 33 C17.34 31.14 19.4 30.72 21 31 z"/>
<path style="fill:#080909" d="M24 32 L35 36 C30.97 42.49 23.84 42.53 18 43 L12 47 C10.09 45.45 10.76 41.09 12 39 L13 38 L14 37 L18 33 C19.7 31.64 21.91 32.02 24 32 z"/>
<path style="fill:#bfbfbf" d="M17 33 L18 33 L14 37 C13.68 36.1 11.98 34.27 14 34 L17 33 z"/>
<path style="fill:#080909" d="M72 36 C71.54 37.35 72.65 38.46 74 38 L75 39 L76 39 L77 40 L77 41 L78 46 L78 48 L72 46 C71.04 43.74 66.73 40.48 65 43 C59.24 46.01 57.01 39.62 53 37 C59.16 35.13 66.39 30.35 72 36 z"/>
<path style="fill:#060707" d="M46 34 C46.88 40.24 57.81 37.48 55 44 C52.31 44.23 49.26 43.29 47 45 L40 45 L32 42 C32.71 38.49 41.53 35.28 46 34 z"/>
<path style="fill:#adadad" d="M53 37 C57.01 39.62 59.24 46.01 65 43 L65 44 C59.16 44.57 65.45 50.59 67 53 L67 58 C65.49 61.11 67.29 60.43 69 62 C68.05 62.19 66.06 61.41 66 63 L53 69 C53.02 68.34 53.18 66.85 52 67 C56.59 62.87 58.66 51.43 49.25 52.75 C49.37 50.4 48.36 48.74 47 47 L47 46 L47 45 C49.26 43.29 52.31 44.23 55 44 L55 45 C38.47 46.42 67.55 56.28 54.25 66.75 C67.69 66.66 68.09 49.65 59 45 L55 44 C57.81 37.48 46.88 40.24 46 34 L53 37 z"/>
<path style="fill:#5f5f5f" d="M73 36 L72 36 L72 35 L73 36 z"/>
<path style="fill:#626262" d="M14 37 L13 38 L14 37 z"/>
<path style="fill:#8e8e8e" d="M13 38 L12 39 L13 38 z"/>
<path style="fill:#737373" d="M75 39 L74 38 L75 39 z"/>
<path style="fill:#a6a6a6" d="M77 40 L76 39 L77 40 z"/>
<path style="fill:#565757" d="M78 46 L77 41 L78 46 z"/>
<path style="fill:#8f8f8f" d="M40 45 L39 46 L32 43 L32 42 L40 45 z"/>
<path style="fill:#b3b4b4" d="M72 46 L71 46 L67 44 C67.15 42.82 65.66 42.98 65 43 C66.73 40.48 71.04 43.74 72 46 z"/>
<path style="fill:#afafaf" d="M18 43 C17.36 46.26 14.69 47.08 12 48 L12 47 L18 43 z"/>
<path style="fill:#090a0a" d="M21 53 C19.82 52.85 19.98 54.34 20 55 C19.98 55.66 19.82 57.15 21 57 L21 59 L20 60 C19.34 59.98 17.85 59.82 18 61 L14 62 L13 61 L13 57 L11 54 L11 50 L11 49 L12 48 C14.69 47.08 17.36 46.26 18 43 C26.98 41.22 22.34 48.83 21 53 z"/>
<path style="fill:#0a0a0a" d="M32 43 L39 46 L40 46 L37 50 L36 51 C35.34 50.98 33.85 50.82 34 52 L33 52 L32 53 L32 54 C29.64 57.5 30.89 63.8 34 67 C29.49 66.25 25.55 62.8 23 59 L22 58 C21.81 57.05 22.59 55.06 21 55 L21 53 C25.34 50.09 24.82 41.44 32 43 z"/>
<path style="fill:#595a5a" d="M67 44 L65 44 L65 43 C65.66 42.98 67.15 42.82 67 44 z"/>
<path style="fill:#5e5f5f" d="M59 45 L55 45 L55 44 L59 45 z"/>
<path style="fill:#070808" d="M65 44 L67 44 L71 46 L77 50 L77 51 L77 55 L77 56 L76 57 C74.67 56.78 74.67 59.22 76 59 L76 60 C74.82 59.85 74.98 61.34 75 62 L74 63 L69 62 C67.29 60.43 65.49 61.11 67 58 C68.6 57.55 68.6 53.45 67 53 C65.45 50.59 59.16 44.57 65 44 z"/>
<path style="fill:#f8f8f8" d="M40 45 L40 46 L39 46 L40 45 z"/>
<path style="fill:#646565" d="M47 45 L47 46 L40 46 L40 45 L47 45 z"/>
<path style="fill:#060707" d="M55 45 L59 45 C68.09 49.65 67.69 66.66 54.25 66.75 C67.55 56.28 38.47 46.42 55 45 z"/>
<path style="fill:#cdcdcd" d="M47 46 L47 47 C43.87 46.61 38.94 46.79 39 51 L38 52 L35 52 L34 52 C33.85 50.82 35.34 50.98 36 51 L37 50 L40 46 L47 46 z"/>
<path style="fill:#c6c7c7" d="M72 46 L78 48 L77 50 L71 46 L72 46 z"/>
<path style="fill:#030404" d="M47 47 C48.36 48.74 49.37 50.4 49.25 52.75 C58.66 51.43 56.59 62.87 52 67 C47.26 69.45 40.68 70.22 36 67 C32.91 63.63 30.4 58.43 33 54 L33 53 L34 53 L35 52 L38 52 L39 51 C38.94 46.79 43.87 46.61 47 47 z"/>
<path style="fill:#7b7b7b" d="M12 48 L11 49 L12 48 z"/>
<path style="fill:#606060" d="M11 50 L11 54 C9.445 53.81 9.445 50.19 11 50 z"/>
<path style="fill:#6b6b6b" d="M37 50 L36 51 L37 50 z"/>
<path style="fill:#686868" d="M39 51 L38 52 L39 51 z"/>
<path style="fill:#5a5b5b" d="M77 55 L77 51 C78.55 51.19 78.55 54.81 77 55 z"/>
<path style="fill:#5f5f5f" d="M33 52 L33 53 L32 53 L33 52 z"/>
<path style="fill:#dcdcdc" d="M34 52 L34 53 L33 53 L33 52 L34 52 z"/>
<path style="fill:#696969" d="M35 52 L34 53 L34 52 L35 52 z"/>
<path style="fill:#d1d2d2" d="M21 53 L21 55 L20 55 C19.98 54.34 19.82 52.85 21 53 z"/>
<path style="fill:#fbfbfb" d="M33 53 L33 54 L32 54 L32 53 L33 53 z"/>
<path style="fill:#595a5a" d="M67 58 L67 53 C68.6 53.45 68.6 57.55 67 58 z"/>
<path style="fill:#a6a7a7" d="M32 54 L33 54 C30.4 58.43 32.91 63.63 36 67 L34 67 C30.89 63.8 29.64 57.5 32 54 z"/>
<path style="fill:#5d5e5e" d="M21 55 L21 57 C19.82 57.15 19.98 55.66 20 55 L21 55 z"/>
<path style="fill:#c0c0c0" d="M22 58 L22 59 L21 59 L21 57 L21 55 C22.59 55.06 21.81 57.05 22 58 z"/>
<path style="fill:#747474" d="M77 56 L76 57 L77 56 z"/>
<path style="fill:#959696" d="M13 57 L13 61 C11.45 60.81 11.45 57.19 13 57 z"/>
<path style="fill:#707070" d="M76 57 L76 59 C74.67 59.22 74.67 56.78 76 57 z"/>
<path style="fill:#606060" d="M23 59 L22 59 L22 58 L23 59 z"/>
<path style="fill:#585858" d="M21 59 L22 59 C22.15 60.18 20.66 60.02 20 60 L21 59 z"/>
<path style="fill:#bfbfbf" d="M23 59 C25.55 62.8 29.49 66.25 34 67 L36 67 C40.68 70.22 47.26 69.45 52 67 C53.18 66.85 53.02 68.34 53 69 L53 70 L48 70 L40 70 C36.77 69.55 32.16 71.32 32 75 L31 74 L34.75 68.25 C27.62 69.17 25 59.6 18 61 C17.85 59.82 19.34 59.98 20 60 C20.66 60.02 22.15 60.18 22 59 L23 59 z"/>
<path style="fill:#a3a3a3" d="M76 60 C76.02 60.66 76.18 62.15 75 62 C74.98 61.34 74.82 59.85 76 60 z"/>
<path style="fill:#a4a5a5" d="M18 61 L16 63 C15.34 63.02 13.85 63.18 14 62 L18 61 z"/>
<path style="fill:#080909" d="M31 74 C29.41 74.06 30.19 76.05 30 77 L28 77 L27 77 L26 76 L25 75 C25.15 73.82 23.66 73.98 23 74 L22 73 L21 72 L20 71 L20 70 L19 69 L18 69 L17 68 L16 67 L16 63 L18 61 C25 59.6 27.62 69.17 34.75 68.25 L31 74 z"/>
<path style="fill:#989898" d="M69 62 L74 63 L71 68 C72.04 64.58 69.42 61.96 66 63 C66.06 61.41 68.05 62.19 69 62 z"/>
<path style="fill:#090a0a" d="M66 63 C69.42 61.96 72.04 64.58 71 68 L69 70 L68 71 L67 73 L66 74 L62 76 L61 77 L60 77 C56.52 76.88 57.8 69.46 53 70 L53 69 L66 63 z"/>
<path style="fill:#8f8f8f" d="M17 68 L16 67 L17 68 z"/>
<path style="fill:#878787" d="M18 69 L17 68 L18 69 z"/>
<path style="fill:#7e7e7e" d="M20 70 L19 69 L20 70 z"/>
<path style="fill:#040404" d="M40 70 C41.34 71.65 46.66 71.65 48 70 L53 70 C54.53 72.53 57.62 74.58 57 78 C55.21 79.31 53.5 80.65 51 80 C51.22 78.67 48.78 78.67 49 80 L48 81 L47 81 L42 81 L41 81 L40 80 L33 79 L32 78 L32 77 L32 75 C32.16 71.32 36.77 69.55 40 70 z"/>
<path style="fill:#424242" d="M48 70 C46.66 71.65 41.34 71.65 40 70 L48 70 z"/>
<path style="fill:#b7b7b7" d="M60 77 C59.94 78.59 57.95 77.81 57 78 C57.62 74.58 54.53 72.53 53 70 C57.8 69.46 56.52 76.88 60 77 z"/>
<path style="fill:#9a9a9a" d="M69 70 L68 71 L69 70 z"/>
<path style="fill:#8d8d8d" d="M21 72 L20 71 L21 72 z"/>
<path style="fill:#616161" d="M22 73 L21 72 L22 73 z"/>
<path style="fill:#9f9f9f" d="M23 74 L22 73 L23 74 z"/>
<path style="fill:#9d9d9d" d="M67 73 L66 74 L67 73 z"/>
<path style="fill:#5f6060" d="M31 74 L32 75 L32 77 L30 77 C30.19 76.05 29.41 74.06 31 74 z"/>
<path style="fill:#5c5c5c" d="M26 76 L25 75 L26 76 z"/>
<path style="fill:#a3a3a3" d="M27 77 L26 76 L27 77 z"/>
<path style="fill:#616161" d="M62 76 L61 77 L62 76 z"/>
<path style="fill:#aeaeae" d="M30 77 L32 77 L32 78 L28 77 L30 77 z"/>
<path style="fill:#595959" d="M33 79 L32 78 L33 79 z"/>
<path style="fill:#646565" d="M40 80 L33 79 L40 80 z"/>
<path style="fill:#616161" d="M51 80 L49 80 C48.78 78.67 51.22 78.67 51 80 z"/>
<path style="fill:#7d7d7d" d="M41 81 L40 80 L41 81 z"/>
<path style="fill:#9f9f9f" d="M49 80 L48 81 L49 80 z"/>
<path style="fill:#9d9e9e" d="M47 81 C46.55 82.6 42.45 82.6 42 81 L47 81 z"/>
</svg>
