<?xml version="1.0" standalone="yes"?>
<svg width="87" height="97">
<path style="fill:#fcfdfd" d="M87 0 L87 97 L0 97 L0 0 L87 0 z"/>
<path style="fill:#505151" d="M53 16 L53 17 C47.94 15.71 42.44 15.96 37 16 C41.18 14 48.27 14.81 53 16 z"/>
<path style="fill:#121313" d="M37 16 C42.44 15.96 47.94 15.71 53 17 L55 17 C54.85 18.18 56.34 18.02 57 18 L58 18 L59 19 L61 20 L62 21 L65 23 L66 24 L67 25 L68 26 L69 27 L70 29 L71 30 C73.34 34.47 75.75 38.92 76 44 L76 53 L74 62 L73 63 L73 64 L72 65 L72 66 L71 67 C69.1 69.88 67.21 73.25 64 75 L63 76 L62 77 L61 77 L60 78 L55 80 C54.34 79.98 52.85 79.82 53 81 L52 81 L38 82 L34 81 C34.15 79.82 32.66 79.98 32 80 L27 78 L26 77 L24 76 L23 75 L22 74 L21 73 L20 72 L19 71 L18 70 L14 63 L13 62 L13 61 C13.02 60.34 13.18 58.85 12 59 L12 57 C12.02 56.34 12.18 54.85 11 55 L11 44 C12.59 43.94 11.81 41.95 12 41 L12 38 L13 37 L16 30 L17 29 L20 25 L21 24 L22 23 L25 21 L26 20 L30 18 C30.66 18.02 32.15 18.18 32 17 L37 16 z"/>
<path style="fill:#adadad" d="M55 17 L53 17 L53 16 C53.66 15.98 55.15 15.82 55 17 z"/>
<path style="fill:#939393" d="M32 17 C32.15 18.18 30.66 18.02 30 18 C29.85 16.82 31.34 16.98 32 17 z"/>
<path style="fill:#7f7f7f" d="M57 18 C56.34 18.02 54.85 18.18 55 17 C55.66 16.98 57.15 16.82 57 18 z"/>
<path style="fill:#898a8a" d="M38 18 L41 20 L37 23 L36 22 L35 22 C34.62 23.85 30.01 23.48 31 21 C32.47 18.99 35.66 18.69 38 18 z"/>
<path style="fill:#b0b1b1" d="M56 21 L54 21 L49 21 L49 22 C46.66 20.53 43.78 17.54 41 20 L38 18 C44.18 18.02 51.43 17.11 56 21 z"/>
<path style="fill:#a8a8a8" d="M59 19 L58 18 L59 19 z"/>
<path style="fill:#0d0d0d" d="M49 22 L51 23 L52 24 L53 26 L54 27 C53.8 28.85 52.97 31.32 51 32 L46 32 L43 31 L42 32 L41 33 L36 32 L35 31 L34 30 C33.63 27.25 33.97 23.98 37 23 L41 20 C43.78 17.54 46.66 20.53 49 22 z"/>
<path style="fill:#9d9d9d" d="M26 20 L25 21 L26 20 z"/>
<path style="fill:#1f2020" d="M36 22 L35 22 L36 22 z"/>
<path style="fill:#d0d0d0" d="M43 20 C47.39 23.44 41.36 27.05 43 20 z"/>
<path style="fill:#161717" d="M54 21 L53 22 L49 21 L54 21 z"/>
<path style="fill:#888888" d="M62 21 L61 20 L62 21 z"/>
<path style="fill:#f5f5f5" d="M31 21 C30.01 23.48 34.62 23.85 35 22 L36 22 L37 23 C33.97 23.98 33.63 27.25 34 30 L35 31 L36 32 L41 33 L42 32 L43 31 L46 32 C46.45 33.6 50.55 33.6 51 32 C52.97 31.32 53.8 28.85 54 27 L53 26 L52 24 L51 23 L49 22 L49 21 L53 22 C53.25 23.96 57.01 23.09 56 21 L59 22 L60 23 L61 24 C57.26 23.62 61.22 28.52 63 29 L63 30 C60.57 29.5 56.22 27.37 55 31 L54 32 C53.5 35.16 54.87 38.25 58 39 L59 40 L59 42 C57.67 41.78 57.67 44.22 59 44 C62.01 51.95 71.29 45.8 69 39 L70 39 C70.14 41.39 69.44 44.03 71 46 C71.27 48.02 73.1 46.32 74 46 L74 51 L72 51 C69.46 52.54 70.02 56.25 70 59 L71 60 L71 62 L70 63 L70 64 L69 65 L67 67 L67 65 C69.77 62.88 69.8 56.47 68 54 L68 52 L67 51 L66 50 C62.1 48.95 58.98 51.43 58 55 L59 56 C59.02 56.66 59.18 58.15 58 58 C57.34 57.98 55.85 57.82 56 59 L55 60 C53.56 62.01 53.56 64.99 55 67 L56 68 L57 68 C56.96 69.48 60.04 69.48 60 68 L64 67 L64 68 L62 69 L61 70 L60 71 C59.07 72.16 58.98 73.45 61 73 L61 74 L55 77 L55 76 C57.38 74.85 52.85 74.89 52 75 L51 74 L52 73 L53 72 L53 71 C54.48 71.04 54.48 67.96 53 68 L50 65 C49.81 63.45 46.19 63.45 46 65 L45 66 L42 66 L41 65 C40.81 63.45 37.19 63.45 37 65 L36 65 L35 66 L34 67 L34 68 L33 69 L33 70 L34 71 L34 72 L35 73 L36 74 L38 76 C36.62 74.84 28.37 74.75 33 76 L32 77 C29.76 76.58 27.2 74.97 26 73 C29.33 73.72 26.66 69.3 25 69 L25 68 L28 68 C27.78 69.33 30.22 69.33 30 68 C33.31 68.09 33.09 63.48 33 61 L32 60 L28 56 L29 55 C28.97 52.66 26.34 50.03 24 50 C24.22 48.67 21.78 48.67 22 50 L21 50 L20 51 L19 54 C17.41 54.06 18.19 56.05 18 57 L18 58 L17 58 C16.63 55.84 18.14 51.93 15.25 51.25 L16 59 L15 59 L14 52 L14 45 L15 41 L15 42 C14.45 49.32 18.47 42.68 17 39 L18 39 L19 43 C18.92 46.91 22.87 48.84 26 47 L27 46 L28 45 L29 42 L28 41 L28.25 39.25 C37.63 37.95 31.58 24.27 24 30 L24 29 C27.99 26.92 29.18 22.68 24 26 C25.4 23.49 28.36 21.64 31 21 z"/>
<path style="fill:#5d5d5d" d="M56 21 C57.01 23.09 53.25 23.96 53 22 L54 21 L56 21 z"/>
<path style="fill:#757575" d="M60 23 L59 22 L60 23 z"/>
<path style="fill:#a6a6a6" d="M22 23 L21 24 L22 23 z"/>
<path style="fill:#8a8a8a" d="M52 24 L51 23 L52 24 z"/>
<path style="fill:#9b9b9b" d="M66 24 L65 23 L66 24 z"/>
<path style="fill:#a6a6a6" d="M21 24 L20 25 L21 24 z"/>
<path style="fill:#343535" d="M24 29 C22.84 29.93 21.55 30.02 22 28 L23 27 L24 26 C29.18 22.68 27.99 26.92 24 29 z"/>
<path style="fill:#3a3b3b" d="M61 24 L62 25 L63 26 L64 27 L65 28 L66 29 C66.02 29.66 66.18 31.15 65 31 L63 29 C61.22 28.52 57.26 23.62 61 24 z"/>
<path style="fill:#e6e6e6" d="M62 25 L61 24 L62 25 z"/>
<path style="fill:#929292" d="M67 25 L66 24 L67 25 z"/>
<path style="fill:#e5e5e5" d="M63 26 L62 25 L63 26 z"/>
<path style="fill:#949494" d="M68 26 L67 25 L68 26 z"/>
<path style="fill:#f7f7f7" d="M24 26 L23 27 L24 26 z"/>
<path style="fill:#7e7e7e" d="M54 27 L53 26 L54 27 z"/>
<path style="fill:#f2f2f2" d="M64 26 L64 27 L63 26 L64 26 z"/>
<path style="fill:#787878" d="M65 27 L64 27 L64 26 L65 27 z"/>
<path style="fill:#9f9f9f" d="M69 27 L68 26 L69 27 z"/>
<path style="fill:#f9f9f9" d="M23 27 L22 28 L23 27 z"/>
<path style="fill:#e9e9e9" d="M65 27 L65 28 L64 27 L65 27 z"/>
<path style="fill:#a8a8a8" d="M22 28 C21.55 30.02 22.84 29.93 24 29 L24 30 C17.08 31.77 28.28 39.18 20 36 C20.34 34.18 19.82 32.29 18 34 L17 34 L22 28 z"/>
<path style="fill:#e1e1e1" d="M66 29 L65 28 L66 29 z"/>
<path style="fill:#8b8b8b" d="M17 29 L16 30 L17 29 z"/>
<path style="fill:#070707" d="M28 41 L29 42 L28 45 L27 46 L26 47 C22.87 48.84 18.92 46.91 19 43 L20 36 C28.28 39.18 17.08 31.77 24 30 C31.58 24.27 37.63 37.95 28.25 39.25 L28 41 z"/>
<path style="fill:#0a0b0b" d="M63 30 C62.85 31.18 64.34 31.02 65 31 L66 32 C65.85 33.18 67.34 33.02 68 33 L68 34 C67.34 33.98 65.85 33.82 66 35 C62.28 34.69 65.01 38.59 67 36 C68.18 36.15 68.02 34.66 68 34 L69 39 C71.29 45.8 62.01 51.95 59 44 L59 42 L59 40 L58 39 C54.87 38.25 53.5 35.16 54 32 L55 31 C56.22 27.37 60.57 29.5 63 30 z"/>
<path style="fill:#a6a7a7" d="M65 31 C64.34 31.02 62.85 31.18 63 30 L63 29 L65 31 z"/>
<path style="fill:#b4b5b5" d="M74 46 C73.1 46.32 71.27 48.02 71 46 C73.32 45.2 70.73 37.36 70 39 L69 39 L68 34 L68 33 C68.15 31.82 66.66 31.98 66 32 L65 31 C66.18 31.15 66.02 29.66 66 29 C71.51 32.82 72.17 40.24 74 46 z"/>
<path style="fill:#7f7f7f" d="M71 30 L70 29 L71 30 z"/>
<path style="fill:#858585" d="M35 31 L34 30 L35 31 z"/>
<path style="fill:#777777" d="M36 32 L35 31 L36 32 z"/>
<path style="fill:#848484" d="M43 31 L42 32 L43 31 z"/>
<path style="fill:#5f5f5f" d="M55 31 L54 32 L55 31 z"/>
<path style="fill:#9e9e9e" d="M42 32 L41 33 L42 32 z"/>
<path style="fill:#5e5e5e" d="M51 32 C50.55 33.6 46.45 33.6 46 32 L51 32 z"/>
<path style="fill:#5f5f5f" d="M68 33 C67.34 33.02 65.85 33.18 66 32 C66.66 31.98 68.15 31.82 68 33 z"/>
<path style="fill:#4d4e4e" d="M20 36 L19 43 L18 39 L18 34 C19.82 32.29 20.34 34.18 20 36 z"/>
<path style="fill:#bdbebe" d="M18 34 L18 39 L17 39 L15 42 L15 41 L17 34 L18 34 z"/>
<path style="fill:#7b7b7b" d="M68 34 C68.02 34.66 68.18 36.15 67 36 L66 35 C65.85 33.82 67.34 33.98 68 34 z"/>
<path style="fill:#dcdddd" d="M66 35 L67 36 C65.01 38.59 62.28 34.69 66 35 z"/>
<path style="fill:#a9a9a9" d="M13 37 L12 38 L13 37 z"/>
<path style="fill:#838383" d="M39 38 L38 39 L39 38 z"/>
<path style="fill:#0e0e0e" d="M42 38 L43 39 L45 39 L46 38 L48 38 C47.85 39.18 49.34 39.02 50 39 C52.65 41.71 49.34 43.83 48 46 C42.84 46.56 47.32 49.43 49 46 L50 46 L53 46 C54.86 46.34 55.28 48.4 55 50 L54 51 L51 55 L51 57 L50 58 L49 59 L46 59 L45 58 L45 57 L44 56 L44 51 L46 51 C46.8 51.56 48.97 50.21 47 50 C46.03 48.76 41.92 49.82 41 50 C39.94 49.57 39.94 51.43 41 51 L43 51 C42.86 53.39 43.56 56.03 42 58 L41 59 L39 59 C39.15 57.82 37.66 57.98 37 58 L36 57 L35.75 53.25 C29.18 51.73 33.41 41.75 39 46 C38.85 47.18 40.34 47.02 41 47 C40.78 48.33 43.22 48.33 43 47 C45.79 45.3 41.98 42.6 43 47 L41 47 L39 45 C37.71 44.74 36.67 43.34 37 42 L37 40 L38 39 L39 38 L42 38 z"/>
<path style="fill:#989898" d="M43 39 L42 38 L43 39 z"/>
<path style="fill:#717171" d="M46 38 L45 39 L46 38 z"/>
<path style="fill:#8f9090" d="M50 39 C49.34 39.02 47.85 39.18 48 38 C48.66 37.98 50.15 37.82 50 39 z"/>
<path style="fill:#1c1d1d" d="M71 46 C69.44 44.03 70.14 41.39 70 39 C70.73 37.36 73.32 45.2 71 46 z"/>
<path style="fill:#171818" d="M17 39 C18.47 42.68 14.45 49.32 15 42 L17 39 z"/>
<path style="fill:#757575" d="M38 39 L37 40 L38 39 z"/>
<path style="fill:#9c9c9c" d="M59 40 L58 39 L59 40 z"/>
<path style="fill:#858686" d="M37 40 L37 42 C35.67 42.22 35.67 39.78 37 40 z"/>
<path style="fill:#5e5e5e" d="M12 41 C11.81 41.95 12.59 43.94 11 44 C11.19 43.05 10.41 41.06 12 41 z"/>
<path style="fill:#6c6c6c" d="M29 42 L28 41 L29 42 z"/>
<path style="fill:#868787" d="M59 42 L59 44 C57.67 44.22 57.67 41.78 59 42 z"/>
<path style="fill:#e5e6e6" d="M43 47 C41.98 42.6 45.79 45.3 43 47 z"/>
<path style="fill:#b2b2b2" d="M76 53 L76 44 C77.65 45.66 77.65 51.34 76 53 z"/>
<path style="fill:#6a6a6a" d="M14 45 L14 52 C12.36 50.97 12.36 46.03 14 45 z"/>
<path style="fill:#6e6e6e" d="M28 45 L27 46 L28 45 z"/>
<path style="fill:#8e8e8e" d="M41 47 C40.34 47.02 38.85 47.18 39 46 L39 45 L41 47 z"/>
<path style="fill:#787878" d="M53 46 L50 46 C49.96 44.52 53.04 44.52 53 46 z"/>
<path style="fill:#787878" d="M27 46 L26 47 L27 46 z"/>
<path style="fill:#858686" d="M48 46 L49 46 C47.32 49.43 42.84 46.56 48 46 z"/>
<path style="fill:#747474" d="M43 47 C43.22 48.33 40.78 48.33 41 47 L43 47 z"/>
<path style="fill:#949595" d="M24 50 L22 50 C21.78 48.67 24.22 48.67 24 50 z"/>
<path style="fill:#777777" d="M47 50 L46 51 L44 51 L43 51 L41 51 L41 50 C41.92 49.82 46.03 48.76 47 50 z"/>
<path style="fill:#606060" d="M21 50 L20 51 L21 50 z"/>
<path style="fill:#090909" d="M22 50 L24 50 C26.34 50.03 28.97 52.66 29 55 L28 56 L32 60 L33 61 C33.09 63.48 33.31 68.09 30 68 L28 68 L25 68 C24.74 66.71 23.34 65.67 22 66 C18.98 65.02 17.19 61.8 18 58 L18 57 C19.59 56.94 18.81 54.95 19 54 L20 51 L21 50 L22 50 z"/>
<path style="fill:#fefefe" d="M41 50 L41 51 C39.94 51.43 39.94 49.57 41 50 z"/>
<path style="fill:#dbdbdb" d="M47 50 C48.97 50.21 46.8 51.56 46 51 L47 50 z"/>
<path style="fill:#6f6f6f" d="M55 50 L54 51 L55 50 z"/>
<path style="fill:#060707" d="M66 50 L67 51 L68 52 L68 54 L66 61 C64.31 57.19 60.72 63.77 65 63 L66 63 L66 65 L64 67 L60 68 L57 68 L56 68 L55 67 C53.56 64.99 53.56 62.01 55 60 L56 59 C56.66 59.02 58.15 59.18 58 58 C59.18 58.15 59.02 56.66 59 56 L58 55 C58.98 51.43 62.1 48.95 66 50 z"/>
<path style="fill:#696969" d="M67 51 L66 50 L67 51 z"/>
<path style="fill:#1b1c1c" d="M17 58 L16 59 L15.25 51.25 C18.14 51.93 16.63 55.84 17 58 z"/>
<path style="fill:#7a7a7a" d="M68 52 L67 51 L68 52 z"/>
<path style="fill:#171818" d="M72 51 L72 52 C72.14 54.46 71.58 57.52 70 59 C70.02 56.25 69.46 52.54 72 51 z"/>
<path style="fill:#737474" d="M74 51 C74.02 51.66 74.18 53.15 73 53 L72 52 L72 51 L74 51 z"/>
<path style="fill:#c8c8c8" d="M73 53 C73.14 55.46 72.58 58.52 71 60 L70 59 C71.58 57.52 72.14 54.46 72 52 L73 53 z"/>
<path style="fill:#676767" d="M19 54 C18.81 54.95 19.59 56.94 18 57 C18.19 56.05 17.41 54.06 19 54 z"/>
<path style="fill:#3e3f3f" d="M67 65 L66 65 L66 63 L66 61 L68 54 C69.8 56.47 69.77 62.88 67 65 z"/>
<path style="fill:#8f9090" d="M12 57 C10.82 57.15 10.98 55.66 11 55 C12.18 54.85 12.02 56.34 12 57 z"/>
<path style="fill:#919191" d="M29 55 L28 56 L29 55 z"/>
<path style="fill:#999999" d="M51 57 L51 55 C52.33 54.78 52.33 57.22 51 57 z"/>
<path style="fill:#7f7f7f" d="M59 56 L58 55 L59 56 z"/>
<path style="fill:#7e7e7e" d="M45 57 L44 56 L45 57 z"/>
<path style="fill:#808080" d="M37 58 L36 57 L37 58 z"/>
<path style="fill:#717171" d="M51 57 L50 58 L51 57 z"/>
<path style="fill:#b8b9b9" d="M18 58 C17.19 61.8 18.98 65.02 22 66 C20.82 65.85 20.98 67.34 21 68 C17.46 66.33 16.94 61.97 15 59 L16 59 L17 58 L18 58 z"/>
<path style="fill:#898a8a" d="M39 59 C38.34 59.02 36.85 59.18 37 58 C37.66 57.98 39.15 57.82 39 59 z"/>
<path style="fill:#8a8a8a" d="M42 58 L41 59 L42 58 z"/>
<path style="fill:#919191" d="M46 59 L45 58 L46 59 z"/>
<path style="fill:#8c8c8c" d="M50 58 L49 59 L50 58 z"/>
<path style="fill:#a0a0a0" d="M58 58 C58.15 59.18 56.66 59.02 56 59 C55.85 57.82 57.34 57.98 58 58 z"/>
<path style="fill:#a9aaaa" d="M13 61 C11.82 61.15 11.98 59.66 12 59 C13.18 58.85 13.02 60.34 13 61 z"/>
<path style="fill:#9a9a9a" d="M56 59 L55 60 L56 59 z"/>
<path style="fill:#7f7f7f" d="M23 62 C23.15 60.82 21.66 60.98 21 61 C21.27 58.38 26.09 61.07 23 62 z"/>
<path style="fill:#989898" d="M33 61 L32 60 L33 61 z"/>
<path style="fill:#5c5d5d" d="M66 61 C63.98 60.55 64.07 61.84 65 63 C60.72 63.77 64.31 57.19 66 61 z"/>
<path style="fill:#dadada" d="M21 61 C21.66 60.98 23.15 60.82 23 62 C22.34 61.98 20.85 61.82 21 63 C19.67 63.22 19.67 60.78 21 61 z"/>
<path style="fill:#e1e2e2" d="M66 61 L66 63 L65 63 C64.07 61.84 63.98 60.55 66 61 z"/>
<path style="fill:#9b9b9b" d="M14 63 L13 62 L14 63 z"/>
<path style="fill:#5f6060" d="M23 62 C23.15 63.18 21.66 63.02 21 63 C20.85 61.82 22.34 61.98 23 62 z"/>
<path style="fill:#868686" d="M71 62 L70 63 L71 62 z"/>
<path style="fill:#818181" d="M74 62 L73 63 L74 62 z"/>
<path style="fill:#838383" d="M41 65 L37 65 C37.19 63.45 40.81 63.45 41 65 z"/>
<path style="fill:#838383" d="M50 65 L46 65 C46.19 63.45 49.81 63.45 50 65 z"/>
<path style="fill:#6e6e6e" d="M70 64 L69 65 L70 64 z"/>
<path style="fill:#777777" d="M73 64 L72 65 L73 64 z"/>
<path style="fill:#a2a2a2" d="M36 65 L35 66 L36 65 z"/>
<path style="fill:#090909" d="M37 65 L41 65 L42 66 C41.96 67.48 45.04 67.48 45 66 L46 65 L50 65 L53 68 L53 71 L53 72 L52 73 L51 74 L49 76 L46 77 L44 77 L44 75 C45.33 75.22 45.33 72.78 44 73 C44.43 71.94 42.57 71.94 43 73 L42 77 L38 76 L36 74 L35 73 L34 72 L34 71 L33 70 L33 69 L34 68 L34 67 L35 66 L36 65 L37 65 z"/>
<path style="fill:#5d5d5d" d="M42 66 L41 65 L42 66 z"/>
<path style="fill:#787979" d="M66 65 L67 65 L67 67 L65 68 L64 68 L64 67 L66 65 z"/>
<path style="fill:#333333" d="M22 66 L25 69 C26.66 69.3 29.33 73.72 26 73 L21 68 C20.98 67.34 20.82 65.85 22 66 z"/>
<path style="fill:#a0a0a0" d="M25 68 L25 69 L22 66 C23.34 65.67 24.74 66.71 25 68 z"/>
<path style="fill:#9a9a9a" d="M35 66 L34 67 L35 66 z"/>
<path style="fill:#606060" d="M45 66 C45.04 67.48 41.96 67.48 42 66 L45 66 z"/>
<path style="fill:#939393" d="M72 66 L71 67 L72 66 z"/>
<path style="fill:#626262" d="M56 68 L55 67 L56 68 z"/>
<path style="fill:#b8b9b9" d="M67 67 C66.7 70.05 63.23 72.22 61 74 L61 73 L65 68 L67 67 z"/>
<path style="fill:#bebfbf" d="M26 73 C23.66 72.97 21.03 70.34 21 68 L26 73 z"/>
<path style="fill:#767676" d="M30 68 C30.22 69.33 27.78 69.33 28 68 L30 68 z"/>
<path style="fill:#9f9f9f" d="M34 68 L33 69 L34 68 z"/>
<path style="fill:#878787" d="M53 71 L53 68 C54.48 67.96 54.48 71.04 53 71 z"/>
<path style="fill:#747474" d="M60 68 C60.04 69.48 56.96 69.48 57 68 L60 68 z"/>
<path style="fill:#1d1d1d" d="M64 68 L65 68 L61 73 C58.98 73.45 59.07 72.16 60 71 L61 70 L62 69 L64 68 z"/>
<path style="fill:#888888" d="M62 69 L61 70 L62 69 z"/>
<path style="fill:#7d7d7d" d="M19 71 L18 70 L19 71 z"/>
<path style="fill:#7e7e7e" d="M34 71 L33 70 L34 71 z"/>
<path style="fill:#8d8d8d" d="M61 70 L60 71 L61 70 z"/>
<path style="fill:#696969" d="M20 72 L19 71 L20 72 z"/>
<path style="fill:#676767" d="M21 73 L20 72 L21 73 z"/>
<path style="fill:#808080" d="M35 73 L34 72 L35 73 z"/>
<path style="fill:#6e6e6e" d="M44 73 L43 73 C42.57 71.94 44.43 71.94 44 73 z"/>
<path style="fill:#6d6d6d" d="M53 72 L52 73 L53 72 z"/>
<path style="fill:#727272" d="M36 74 L35 73 L36 74 z"/>
<path style="fill:#626262" d="M43 73 L44 77 L46 77 C43.85 79.38 47.3 79.1 49 79 C46.69 80.66 40.31 80.66 38 79 C39.55 78.94 42.71 79.68 42 77 L43 73 z"/>
<path style="fill:#f1f2f2" d="M44 73 L44 75 L44 77 L43 73 L44 73 z"/>
<path style="fill:#6e6e6e" d="M44 75 L44 73 C45.33 72.78 45.33 75.22 44 75 z"/>
<path style="fill:#606060" d="M52 73 L51 74 L52 73 z"/>
<path style="fill:#828282" d="M23 75 L22 74 L23 75 z"/>
<path style="fill:#a1a2a2" d="M51 74 L52 75 C51.94 76.59 49.95 75.81 49 76 L51 74 z"/>
<path style="fill:#9d9d9d" d="M24 76 L23 75 L24 76 z"/>
<path style="fill:#323333" d="M38 76 C40.29 79.75 34.43 77.03 33 76 C28.37 74.75 36.62 74.84 38 76 z"/>
<path style="fill:#252525" d="M55 76 L49 76 C49.95 75.81 51.94 76.59 52 75 C52.85 74.89 57.38 74.85 55 76 z"/>
<path style="fill:#979797" d="M64 75 L63 76 L64 75 z"/>
<path style="fill:#adaeae" d="M38 76 L42 77 C42.71 79.68 39.55 78.94 38 79 C35.93 78.96 33.19 78.41 32 77 L33 76 C34.43 77.03 40.29 79.75 38 76 z"/>
<path style="fill:#afafaf" d="M49 76 L55 76 L55 77 C53.81 78.41 51.07 78.96 49 79 C47.3 79.1 43.85 79.38 46 77 L49 76 z"/>
<path style="fill:#a6a6a6" d="M63 76 L62 77 L63 76 z"/>
<path style="fill:#888888" d="M27 78 L26 77 L27 78 z"/>
<path style="fill:#737373" d="M61 77 L60 78 L61 77 z"/>
<path style="fill:#6d6e6e" d="M34 81 C33.34 81.02 31.85 81.18 32 80 C32.66 79.98 34.15 79.82 34 81 z"/>
<path style="fill:#6c6d6d" d="M55 80 C55.15 81.18 53.66 81.02 53 81 C52.85 79.82 54.34 79.98 55 80 z"/>
<path style="fill:#a2a3a3" d="M52 81 C49.01 84.16 41.39 83.57 38 82 L52 81 z"/>
</svg>
