<?xml version="1.0" standalone="yes"?>
<svg width="200" height="88">
<path style="fill:#241718" d="M200 0 L200 88 L0 88 L0 0 L200 0 z"/>
<path style="fill:#e7271b" d="M4 3 L196.8 3.25 L196.8 84.75 L4.25 84.75 L4 3 z"/>
<path style="fill:#d81505" d="M72 4 C82.95 4.661 60.9 7.846 72 4 z"/>
<path style="fill:#d91605" d="M154 4 C164.9 4.661 142.9 7.846 154 4 z"/>
<path style="fill:#f6ed3c" d="M50 18 C52.16 17.5 59.05 18 56 21 C36.29 19.04 72.68 36.07 47 38 C43.63 38.23 41.69 35.09 45.25 33.25 C46.56 32.38 47.41 34.07 48.25 34.75 C49.94 34.84 53.2 35.92 54 34 C50.18 28.36 35.7 24.45 50 18 z"/>
<path style="fill:#f3d33d" d="M152 19 C160 20.46 147.6 26.31 152 19 z"/>
<path style="fill:#d91209" d="M139 25 C137.1 24.8 133.7 25.85 133.3 23.25 C135.2 22.77 138.4 22.43 139 25 z"/>
<path style="fill:#d10f06" d="M161 23 L164.3 23.75 L161 23 z"/>
<path style="fill:#f9f43b" d="M72 37 C70.54 33.5 66.58 32.13 64 31 L67 29 C59.99 15.73 82.7 36.29 72 37 z"/>
<path style="fill:#f8f53e" d="M81 26 C81.02 28.09 80.64 30.3 82 32 L78 38 L77 29 C72.41 27.79 80.11 21.71 81 26 z"/>
<path style="fill:#f7f53d" d="M101 30 L101 36 L97 32 C96.98 24.87 88.58 33.44 89 37 L87 31 C87.63 28.48 85.18 28.96 84 30 L83 29 C86.27 24.2 91.4 22.79 91.75 29.75 C95.38 24.68 101 21.5 101 30 z"/>
<path style="fill:#f6f33e" d="M112 32 L110 36 C108.5 37.27 105.8 39.25 105 36 L103 26 C110.9 18 104.9 36.21 112 32 z"/>
<path style="fill:#f6f03b" d="M125 24 L126 28 C125.9 31.66 127.2 37.24 122.3 37.75 C124.3 29.81 115 25.78 125 24 z"/>
<path style="fill:#f4d138" d="M126 28 L125 24 L126.3 25.75 C133.1 20.33 133 32.03 126 28 z"/>
<path style="fill:#f6f33c" d="M134 34 L137 31 C145.5 31.55 137.8 27.96 139 25 C144.8 21.98 148.1 32.47 148.8 36.75 C144.8 40.02 142.4 27.57 137.3 33.25 C148.1 34.71 135.9 42.07 134 34 z"/>
<path style="fill:#f2c839" d="M155 26 C153.6 26.02 151.6 26.76 151 28 C146 28.28 155.7 20.36 155 26 z"/>
<path style="fill:#f6f03d" d="M114 38 C113.5 36.13 115.4 29.55 112 32 C113.4 29.64 113.7 23.98 117.8 25.25 C118 29.99 119.7 36.32 114 38 z"/>
<path style="fill:#eb9328" d="M83 29 L84 30 L82 32 C80.64 30.3 81.02 28.09 81 26 L83 29 z"/>
<path style="fill:#e24618" d="M103 26 L105 36 C103.5 32.71 102.5 32.71 101 36 L101 30 L103 26 z"/>
<path style="fill:#f0f83d" d="M155 26 L155 28 C154.7 31 155.8 34.44 154 37 L153 37 L151 29 L151 28 C151.6 26.76 153.6 26.02 155 26 z"/>
<path style="fill:#e65018" d="M154 37 C155.8 34.44 154.7 31 155 28 C155 31.19 160.2 38.87 154 37 z"/>
<path style="fill:#e3701a" d="M78 38 L77 29 L78 38 z"/>
<path style="fill:#eb8c30" d="M153 37 C149.6 39.84 151.4 31.19 151 29 L153 37 z"/>
<path style="fill:#ec4a1e" d="M64 31 C66.58 32.13 70.54 33.5 72 37 L69 36 L63 32 L64 31 z"/>
<path style="fill:#ee6e27" d="M89 37 C86.12 40.09 87.13 32.8 87 31 L89 37 z"/>
<path style="fill:#e84c1e" d="M114 38 L110 36 L112 32 C115.4 29.55 113.5 36.13 114 38 z"/>
<path style="fill:#f95133" d="M137 31 L134 34 C127.6 32.3 132.8 31.61 137 31 z"/>
<path style="fill:#f4eb3f" d="M63 32 L69 36 C65.16 41.14 55.06 34.95 63 32 z"/>
<path style="fill:#e78527" d="M101 36 C99.65 41.3 95.03 35.63 97 32 L101 36 z"/>
<path style="fill:#d41309" d="M22 40 C24.86 42.19 18.38 45.03 16.25 43.75 L22 40 z"/>
<path style="fill:#d41309" d="M186 41 C193.3 39.79 182.2 47.24 183.3 43.25 C184.4 43 185.8 42.33 186 41 z"/>
<path style="fill:#d41309" d="M146 46 L153.8 46.25 C152.7 47.99 147 48.28 146 46 z"/>
<path style="fill:#f1fa3e" d="M84 48 L83 69 C77.88 66.62 83.5 56.03 80 52 C77.92 49.84 81.81 47.29 84 48 z"/>
<path style="fill:#e67924" d="M87 58 L87 60 C81.95 59.78 88.05 69.22 83 69 L84 48 C87.21 49.84 82.26 57.76 87 58 z"/>
<path style="fill:#d71606" d="M126 50 L122 50 C123 45.81 132.9 49.79 126 50 z"/>
<path style="fill:#eb742c" d="M28 52 L16 51 C17.82 49.52 32.54 48.68 28 52 z"/>
<path style="fill:#f8f33d" d="M122 50 L126 50 C126.9 51.23 127.5 52.81 125.8 53.75 C112 48.14 115.1 68.31 125.8 67.75 C112.1 77.68 106.6 50.81 122 50 z"/>
<path style="fill:#f7f93d" d="M28 52 C26.06 53.79 23.75 54.45 21 54 C17.69 55.72 21.56 61.9 24 58 C27.85 56.44 26.8 61.53 24 61 C18.85 59.38 19.99 64.76 20 68 L19 69 C14.21 69.28 19.68 61.21 15.25 60.75 L16 59 C21.19 54.02 9.038 54.13 16 51 L28 52 z"/>
<path style="fill:#f2d93b" d="M74 51 C81.96 52.46 69.6 58.31 74 51 z"/>
<path style="fill:#e96b1d" d="M83 69 C77.39 70.69 80.57 56.55 80 52 C83.5 56.03 77.88 66.62 83 69 z"/>
<path style="fill:#cb0a03" d="M161 53 C163 52.75 165.8 53.17 166.8 54.75 C164.9 54.88 160.5 56.2 161 53 z"/>
<path style="fill:#e68d26" d="M174 57 L170 54 C172.3 50.75 171.4 57.69 174.8 56.25 L174 57 z"/>
<path style="fill:#eeac36" d="M21 54 C20.6 56.27 20.99 58.98 24 58 C21.56 61.9 17.69 55.72 21 54 z"/>
<path style="fill:#f7f83f" d="M170 54 L174 57 C166.4 59.97 177.2 72.47 168 69 L167 59 C165 59.45 165.1 58.16 166 57 L170 54 z"/>
<path style="fill:#ee5022" d="M137 56 C136.9 58.34 132.2 59.03 133 56 C133.5 53.95 135.9 55.38 137 56 z"/>
<path style="fill:#f7ef3c" d="M33 56 C42.19 57.55 44.24 77.54 34 64 C28.59 63.15 32.38 68.48 35.75 67.25 C21.2 74.68 34.2 60.1 33 56 z"/>
<path style="fill:#f9f53f" d="M49 58 C49.02 60.09 48.64 62.3 50 64 L46 70 L45 60 C40.24 60.26 48.67 53.39 49 58 z"/>
<path style="fill:#f7f23d" d="M69 64 C69.23 72.75 64.1 66.31 64.75 61.25 C61.72 60.39 58.42 64.32 58 67 C53.94 72.89 57.16 57.43 52 62 L51 61 C54.27 56.2 59.4 54.79 59.75 61.75 C63.77 54.96 69.74 55.51 69 64 z"/>
<path style="fill:#f9f33c" d="M75 69 L73 61 C69.2 59.81 74.09 55.08 76.75 56.25 C76.39 60.19 78.95 66.61 75 69 z"/>
<path style="fill:#f7f63c" d="M100 56 L99 76 C96.76 76.66 95.34 75.24 96 73 C97.89 72.15 97.67 60.8 95 66 C90.24 74.1 87.82 65.32 87 60 L87 58 C91.44 52.01 91.01 61.81 92.25 64.75 L100 56 z"/>
<path style="fill:#e96426" d="M99 76 L100 56 C101.5 61.23 102.8 72.13 99 76 z"/>
<path style="fill:#f5f13b" d="M133 56 C132.2 59.03 136.9 58.34 137 56 C142.4 56.63 137.7 62.99 134.3 60.25 C133.7 63.77 135.3 69.28 130.3 69.75 C131.9 64.3 124.8 56.45 133 56 z"/>
<path style="fill:#f7ed3d" d="M146 56 C156.8 54.22 144.5 68.37 146.8 59.25 L144.3 59.25 C140.9 62.38 145.8 68.07 149.8 67.25 C141.5 77.27 135.5 58.51 146 56 z"/>
<path style="fill:#f5ed3a" d="M162 56 L163 59 C162 59.38 160.7 60.81 159.8 59.25 C151.5 60.05 168.1 62.57 162 67 L157 64 C148.4 63.33 157.2 54.49 162 56 z"/>
<path style="fill:#e95a25" d="M166 57 C165.1 58.16 165 59.45 167 59 L167 60 L163 59 L162 56 L166 57 z"/>
<path style="fill:#f6ee3c" d="M183 60 C178.6 56.8 178.3 62.45 183 62 C185.5 62.51 185.4 65.49 184 67 C182.3 66.23 181.2 64.22 179 65 C166.5 61.75 189.2 51.02 183 60 z"/>
<path style="fill:#e69126" d="M51 61 L52 62 L50 64 C48.64 62.3 49.02 60.09 49 58 L51 61 z"/>
<path style="fill:#e97b23" d="M16 59 L15.25 60.75 C19.68 61.21 14.21 69.28 19 69 C15.43 72.66 15.77 65.38 16 63 C13.42 62.45 11.68 59.13 16 59 z"/>
<path style="fill:#ecb338" d="M168 69 L167 60 L167 59 L168 69 z"/>
<path style="fill:#ef6127" d="M183 60 L183 62 C178.3 62.45 178.6 56.8 183 60 z"/>
<path style="fill:#e87624" d="M46 70 L45 60 L46 70 z"/>
<path style="fill:#e58c25" d="M24 61 L20 68 C19.99 64.76 18.85 59.38 24 61 z"/>
<path style="fill:#e4491b" d="M69 64 C72.3 74.83 62.78 65.19 58 67 C58.42 64.32 61.72 60.39 64.75 61.25 C64.1 66.31 69.23 72.75 69 64 z"/>
<path style="fill:#eb8c2b" d="M75 69 C71.63 71.84 73.44 63.19 73 61 L75 69 z"/>
<path style="fill:#e58722" d="M96 73 L95 66 C97.67 60.8 97.89 72.15 96 73 z"/>
<path style="fill:#e87426" d="M162 67 L160 69 C158.8 67.94 157 65.94 155 66 L157 64 L162 67 z"/>
<path style="fill:#e76d24" d="M179 65 C181.2 64.22 182.3 66.23 184 67 L182 69 C180.8 67.94 179 65.94 177 66 C176.8 64.82 178.3 64.98 179 65 z"/>
<path style="fill:#f7ef3f" d="M155 66 C157 65.94 158.8 67.94 160 69 C157.6 72.05 149.7 68.57 155 66 z"/>
<path style="fill:#f5ee3e" d="M177 66 C179 65.94 180.8 67.94 182 69 C179.6 72.05 171.7 68.57 177 66 z"/>
<path style="fill:#d91304" d="M181 82 C189.5 80.13 182.9 87.64 181 82 z"/>
</svg>
