<?xml version="1.0" standalone="yes"?>
<svg width="87" height="97">
<path style="fill:#fafbfb" d="M87 0 L87 97 L0 97 L0 0 L87 0 z"/>
<path style="fill:#464646" d="M29 16 L27 20 L27 16 C26.05 13.5 29.95 13.5 29 16 z"/>
<path style="fill:#181919" d="M35 16 L30 20 L30 16 L31 15 C32.25 13.89 35.67 13.15 35 16 z"/>
<path style="fill:#0a0b0b" d="M55 14 L56 15 L57 16 L58 17 L58 18 L57 19 L54 18 L54 17 L53 16 C52.54 14.65 53.65 13.54 55 14 z"/>
<path style="fill:#a5a5a5" d="M56 15 L55 14 L56 15 z"/>
<path style="fill:#888888" d="M31 15 L30 16 L31 15 z"/>
<path style="fill:#727272" d="M57 16 L56 15 L57 16 z"/>
<path style="fill:#545555" d="M62 17 C60.18 15.29 59.66 17.18 60 19 L58 20 L57 19 L58 18 C58.44 16.31 61.74 12.72 62 17 z"/>
<path style="fill:#141515" d="M27 16 L27 20 L26 22 L25 22 L25 21 L25 19 C24.67 17.66 25.71 16.26 27 16 z"/>
<path style="fill:#d4d5d5" d="M29 16 L30 16 L30 20 L30 21 L26 22 L27 20 L29 16 z"/>
<path style="fill:#acacac" d="M35 16 L42 17 L40 17 L35 18 L31 21 L30 21 L30 20 L35 16 z"/>
<path style="fill:#b6b7b7" d="M52 17 L46 17 C46.73 15.38 51.27 15.38 52 17 z"/>
<path style="fill:#606060" d="M54 17 L53 17 L53 16 L54 17 z"/>
<path style="fill:#7d7d7d" d="M58 17 L57 16 L58 17 z"/>
<path style="fill:#060707" d="M62 17 L62 22 L61 22 L60 19 C59.66 17.18 60.18 15.29 62 17 z"/>
<path style="fill:#090909" d="M40 17 L40 18 L41 21 L38 21 L38 20 L38 19 C38.15 17.82 36.66 17.98 36 18 L35 18 L40 17 z"/>
<path style="fill:#515252" d="M42 17 C44.11 17.48 42.79 20.9 41 21 L40 18 C40.7 20.52 43.22 17.27 40 18 L40 17 L42 17 z"/>
<path style="fill:#232424" d="M46 17 L52 17 L51 19 C49.94 18.57 49.94 20.43 51 20 C51.66 20.02 53.15 20.18 53 19 L56 21 L47 21 C45.13 20.49 42.82 17.6 46 17 z"/>
<path style="fill:#7b7c7c" d="M53 17 L54 18 L57 19 L58 20 L58 21 L58 23 L57 23 L56 22 L56 21 L53 19 L51 19 L52 17 L53 17 z"/>
<path style="fill:#ffffff" d="M54 17 L54 18 L53 17 L54 17 z"/>
<path style="fill:#7f7f7f" d="M62 22 L62 17 C63.6 17.45 63.6 21.55 62 22 z"/>
<path style="fill:#545454" d="M23 20 L21 19 C21.19 16.98 23.9 18.44 23 20 z"/>
<path style="fill:#242424" d="M35 18 L36 18 L36 19 C35.85 20.18 37.34 20.02 38 20 L38 21 L31 21 L35 18 z"/>
<path style="fill:#767676" d="M38 19 L36 19 L36 18 C36.66 17.98 38.15 17.82 38 19 z"/>
<path style="fill:#dbdbdb" d="M40 18 C43.22 17.27 40.7 20.52 40 18 z"/>
<path style="fill:#c1c2c2" d="M48 18 C50.52 18.7 47.27 21.22 48 18 z"/>
<path style="fill:#9e9f9f" d="M65 18 C65.02 18.66 65.18 20.15 64 20 C63.98 19.34 63.82 17.85 65 18 z"/>
<path style="fill:#272828" d="M66 19 L67 20 L67 30 L66 30 L64 28 L63 27 L64 26 L64 20 C65.18 20.15 65.02 18.66 65 18 L66 19 z"/>
<path style="fill:#020202" d="M23 20 L23 24 C21.41 24.06 22.19 26.05 22 27 C20.82 27.15 20.98 25.66 21 25 L21 21 L21 19 L23 20 z"/>
<path style="fill:#9d9e9e" d="M25 19 L25 21 C23.41 21.06 24.19 23.05 24 24 C24.43 25.06 22.57 25.06 23 24 L23 20 L25 19 z"/>
<path style="fill:#d9dada" d="M38 19 L38 20 C37.34 20.02 35.85 20.18 36 19 L38 19 z"/>
<path style="fill:#a4a4a4" d="M51 19 L51 20 C49.94 20.43 49.94 18.57 51 19 z"/>
<path style="fill:#fcfcfc" d="M53 19 C53.15 20.18 51.66 20.02 51 20 L51 19 L53 19 z"/>
<path style="fill:#bdbebe" d="M60 19 L61 22 L61 23 L58 21 L58 20 L60 19 z"/>
<path style="fill:#808080" d="M67 20 L66 19 L67 20 z"/>
<path style="fill:#969797" d="M21 21 L21 25 C19.45 24.81 19.45 21.19 21 21 z"/>
<path style="fill:#f4f4f4" d="M25 21 L25 22 C25.02 22.66 25.18 24.15 24 24 C24.19 23.05 23.41 21.06 25 21 z"/>
<path style="fill:#363636" d="M30 21 L31 21 L31 22 C30.34 21.98 28.85 21.82 29 23 L27 24 L24 27 L22 31 L21 31 L20 30 L22 27 C22.19 26.05 21.41 24.06 23 24 C22.57 25.06 24.43 25.06 24 24 C25.18 24.15 25.02 22.66 25 22 L26 22 L30 21 z"/>
<path style="fill:#d1d1d1" d="M38 21 L41 21 L38 23 L36 23 L31 22 L31 21 L38 21 z"/>
<path style="fill:#cdcdcd" d="M56 21 L56 22 C53.91 22.02 51.7 21.64 50 23 L47 21 L56 21 z"/>
<path style="fill:#3a3a3a" d="M58 21 L61 23 L64 26 L63 27 C60.84 27.22 58.07 26.86 57 25 C60.55 25.6 61.76 24.07 58 23 L58 21 z"/>
<path style="fill:#666666" d="M31 22 L36 23 C30.61 22.31 30.61 24.69 36 24 L31 25 L30 25 C30.02 24.34 30.18 22.85 29 23 C28.85 21.82 30.34 21.98 31 22 z"/>
<path style="fill:#252626" d="M56 22 L57 23 L54 25 L50 23 C51.7 21.64 53.91 22.02 56 22 z"/>
<path style="fill:#131414" d="M18 23 L19 24 L19 26 L19 27 C16.89 27.67 16.79 25.42 17 24 L18 23 z"/>
<path style="fill:#999999" d="M19 24 L18 23 L19 24 z"/>
<path style="fill:#dedede" d="M29 23 C30.18 22.85 30.02 24.34 30 25 L27 25 L27 24 L29 23 z"/>
<path style="fill:#0d0e0e" d="M36 23 L38 23 L37 24 L36 24 C30.61 24.69 30.61 22.31 36 23 z"/>
<path style="fill:#bdbdbd" d="M50 23 L54 25 L54 26 L51 26 C48.69 24.34 42.31 24.34 40 26 L40 27 L39 27 C38.34 20.85 47.06 26.14 50 23 z"/>
<path style="fill:#dadbdb" d="M58 23 C61.76 24.07 60.55 25.6 57 25 L54 26 L54 25 L57 23 L58 23 z"/>
<path style="fill:#8c8d8d" d="M71 25 L69 24 C69.19 21.98 71.9 23.44 71 25 z"/>
<path style="fill:#8d8e8e" d="M17 24 C16.79 25.42 16.89 27.67 19 27 L19 28 L18 29 C15.98 29.27 17.68 31.1 18 32 L17 33 L15 30 L17 24 z"/>
<path style="fill:#7e7e7e" d="M27 24 L27 25 L26 27 L24 27 L27 24 z"/>
<path style="fill:#d4d5d5" d="M37 24 L38 26 L34 26 C33.34 25.98 31.85 25.82 32 27 L31 27 L30 26 L31 25 L36 24 L37 24 z"/>
<path style="fill:#0a0b0b" d="M71 25 L70 32 C67.67 31.15 67.26 33.09 66 34 L66 30 L67 30 L68 26 L69 25 L69 24 L71 25 z"/>
<path style="fill:#212222" d="M30 25 L31 25 L30 26 L26 27 L27 25 L30 25 z"/>
<path style="fill:#383939" d="M51 26 L43 27 L40 26 C42.31 24.34 48.69 24.34 51 26 z"/>
<path style="fill:#898a8a" d="M57 25 C58.07 26.86 60.84 27.22 63 27 L64 28 L60 29 L54 26 L57 25 z"/>
<path style="fill:#6a6a6a" d="M69 25 L68 26 L69 25 z"/>
<path style="fill:#7f7f7f" d="M20 27 L19 27 L19 26 L20 27 z"/>
<path style="fill:#999999" d="M30 26 L31 27 L27 29 L26 27 L30 26 z"/>
<path style="fill:#757575" d="M34 26 C34.15 27.18 32.66 27.02 32 27 C31.85 25.82 33.34 25.98 34 26 z"/>
<path style="fill:#101111" d="M38 26 L39 27 L40 27 L42 29 L41 31 L37 31 L36 32 L34 33 L33 34 L30 33 L29 33 C28.74 31.71 27.34 30.67 26 31 C25.07 29.84 24.98 28.55 27 29 L31 27 L32 27 C32.66 27.02 34.15 27.18 34 26 L38 26 z"/>
<path style="fill:#9c9d9d" d="M43 27 L47 28 L42 29 L40 27 L40 26 L43 27 z"/>
<path style="fill:#101111" d="M51 26 L54 26 L60 29 L61 29 L60 32 L54 34 C53.74 32.71 52.34 31.67 51 32 L50 31 L44 31 C46.79 27.42 57.25 29.79 47 28 L43 27 L51 26 z"/>
<path style="fill:#222222" d="M20 27 L20 30 L21 31 L21 35 L18 32 C17.68 31.1 15.98 29.27 18 29 L19 28 L19 27 L20 27 z"/>
<path style="fill:#edeeee" d="M26 27 L27 29 C24.98 28.55 25.07 29.84 26 31 C24.66 30.67 23.26 31.71 23 33 C21.82 33.15 21.98 31.66 22 31 L24 27 L26 27 z"/>
<path style="fill:#ffffff" d="M19 28 L18 29 L19 28 z"/>
<path style="fill:#dadada" d="M47 28 C57.25 29.79 46.79 27.42 44 31 L41 31 L42 29 L47 28 z"/>
<path style="fill:#e0e0e0" d="M64 28 L66 30 L66 34 L65 34 L64 32 L63 31 L62 31 C62.02 30.34 62.18 28.85 61 29 L60 29 L64 28 z"/>
<path style="fill:#939393" d="M62 31 C62.15 32.18 60.66 32.02 60 32 L61 29 C62.18 28.85 62.02 30.34 62 31 z"/>
<path style="fill:#080808" d="M15 30 L17 33 L17 34 L18 35 L18 38 L15 36 L15 35 L14 34 L15 30 z"/>
<path style="fill:#151515" d="M73 30 L73 35 L72 38 L71 39 L70 39 L70 33 L73 30 z"/>
<path style="fill:#898989" d="M73 35 L73 30 C74.6 30.45 74.6 34.55 73 35 z"/>
<path style="fill:#7a7a7a" d="M22 31 C21.98 31.66 21.82 33.15 23 33 L21 36 L21 35 L21 31 L22 31 z"/>
<path style="fill:#161616" d="M26 31 C26.26 32.29 27.66 33.33 29 33 L30 34 L30 36 L28 38 L26 42 L25 42 L25 40 C26.88 40.14 24.86 38.12 25 40 C22.91 37.98 21.65 39.94 21 42 L20 45 L19 50 L18 52 L17 53 L17 54 C15.84 54.93 14.55 55.02 15 53 L16 49 C17.59 48.94 16.81 46.95 17 46 C16.43 42.08 19.09 39.02 21 36 L23 33 C23.26 31.71 24.66 30.67 26 31 z"/>
<path style="fill:#b7b7b7" d="M29 33 C27.66 33.33 26.26 32.29 26 31 C27.34 30.67 28.74 31.71 29 33 z"/>
<path style="fill:#737373" d="M37 31 L37 32 L36 32 L37 31 z"/>
<path style="fill:#a1a2a2" d="M51 32 L51 33 C49.94 32.57 49.94 34.43 51 34 L50 35 L49 34 C47.25 32.12 49.37 32.4 50 31 L51 32 z"/>
<path style="fill:#0f0f0f" d="M63 31 L64 32 L65 34 L66 35 L68 38 L69 39 L69 40 C69.19 40.95 68.41 42.94 70 43 L70 44 C69.98 44.66 69.82 46.15 71 46 L71 47 L72 51 L72 54 L71 54 L70 54 C69.98 52.56 69.24 50.61 68 50 C68.05 46.8 67.19 43.06 65 41 C65.02 40.34 65.18 38.85 64 39 L60 39 L57 36 L60 32 C60.66 32.02 62.15 32.18 62 31 L63 31 z"/>
<path style="fill:#787878" d="M64 32 L63 31 L64 32 z"/>
<path style="fill:#e2e2e2" d="M18 32 L21 35 L21 36 C19.09 39.02 16.43 42.08 17 46 C15.41 46.06 16.19 48.05 16 49 L15 53 C13.82 52.85 13.98 54.34 14 55 L13 55 L13 54 C13.55 50.59 14.66 47.31 13 44 L14 43 C14.66 43.02 16.15 43.18 16 42 L16 41 L18 38 L18 35 L17 34 L17 33 L18 32 z"/>
<path style="fill:#767777" d="M40 34 C39.94 35.59 37.95 34.81 37 35 C34.98 34.73 36.68 32.9 37 32 L40 34 z"/>
<path style="fill:#a4a4a4" d="M60 32 L57 36 L54 34 L60 32 z"/>
<path style="fill:#646464" d="M70 32 L70 33 C69.34 32.98 67.85 32.82 68 34 C68.15 35.18 66.66 35.02 66 35 L65 34 L66 34 C67.26 33.09 67.67 31.15 70 32 z"/>
<path style="fill:#dfdfdf" d="M30 33 L30 34 L29 33 L30 33 z"/>
<path style="fill:#8b8b8b" d="M33 34 L31 36 L30 36 L30 34 L30 33 L33 34 z"/>
<path style="fill:#818181" d="M34 33 L33 34 L34 33 z"/>
<path style="fill:#050505" d="M51 33 L51 34 C49.94 34.43 49.94 32.57 51 33 z"/>
<path style="fill:#aeafaf" d="M70 33 L70 39 L69 39 L68 38 C69.55 37.81 69.55 34.19 68 34 C67.85 32.82 69.34 32.98 70 33 z"/>
<path style="fill:#777777" d="M15 35 L14 34 L15 35 z"/>
<path style="fill:#656565" d="M18 35 L17 34 L18 35 z"/>
<path style="fill:#303030" d="M43 35 C42.34 34.98 40.85 34.82 41 36 L37 35 C37.95 34.81 39.94 35.59 40 34 C40.95 34.19 42.94 33.41 43 35 z"/>
<path style="fill:#424242" d="M49 34 L50 35 L46 36 C46.15 34.82 44.66 34.98 44 35 L49 34 z"/>
<path style="fill:#e7e7e7" d="M68 38 L66 35 C66.66 35.02 68.15 35.18 68 34 C69.55 34.19 69.55 37.81 68 38 z"/>
<path style="fill:#5d5d5d" d="M13 36 L12 40 L11 40 C10.69 38.44 10.89 32.93 13 36 z"/>
<path style="fill:#8e8f8f" d="M43 35 C43.15 36.18 41.66 36.02 41 36 C40.85 34.82 42.34 34.98 43 35 z"/>
<path style="fill:#a2a2a2" d="M46 36 C45.34 36.02 43.85 36.18 44 35 C44.66 34.98 46.15 34.82 46 36 z"/>
<path style="fill:#111212" d="M76 35 L76 39 L73 43 L72 38 L76 35 z"/>
<path style="fill:#909090" d="M76 39 L76 35 C77.55 35.19 77.55 38.81 76 39 z"/>
<path style="fill:#070808" d="M13 36 L16 41 L16 42 L14 42 L12 40 L13 36 z"/>
<path style="fill:#7f8080" d="M15 36 L18 38 L16 41 L13 36 L15 36 z"/>
<path style="fill:#898a8a" d="M30 36 L30 37 L30 39 L28 38 L30 36 z"/>
<path style="fill:#eeeeee" d="M31 36 L31 37 L30 37 L30 36 L31 36 z"/>
<path style="fill:#878787" d="M32 37 L31 37 L31 36 L32 37 z"/>
<path style="fill:#282929" d="M31 37 L32 37 C34.44 37.7 35.99 41.05 32 40 C32.15 38.82 30.66 38.98 30 39 L30 37 L31 37 z"/>
<path style="fill:#747474" d="M39 42 L35 41 C36.26 40.08 36.56 38.45 38.75 38.75 C31.42 35.36 41.27 39.23 42.75 37.25 C43.56 40.18 40.32 40.77 39 42 z"/>
<path style="fill:#515252" d="M53 38 C52.05 38.19 50.06 37.41 50 39 L46 40 C42.23 36.78 51.48 36.67 53 38 z"/>
<path style="fill:#2d2d2d" d="M53 40 L53 38 C57.99 34.68 58.77 41.19 53 40 z"/>
<path style="fill:#dadbdb" d="M53 38 L53 40 L51 40 L50 39 C50.06 37.41 52.05 38.19 53 38 z"/>
<path style="fill:#797a7a" d="M72 38 L73 43 C73.15 44.18 71.66 44.02 71 44 L71 39 L72 38 z"/>
<path style="fill:#747575" d="M25 40 L25 42 L24.25 44.25 C25.01 49.39 26.12 40.13 29 44 L27 47 L24.25 50.75 C25.27 49.31 25 47.27 23 49 L23 47 C23.23 45.17 22.5 42.85 21 42 C21.65 39.94 22.91 37.98 25 40 z"/>
<path style="fill:#c6c6c6" d="M25 40 C24.86 38.12 26.88 40.14 25 40 z"/>
<path style="fill:#787878" d="M32 40 C31.34 40.02 29.85 40.18 30 39 C30.66 38.98 32.15 38.82 32 40 z"/>
<path style="fill:#121212" d="M50 39 L51 40 L53 40 L55 43 L52 46 C50.82 46.15 50.98 44.66 51 44 C50.32 42.03 47.85 41.2 46 41 L46 40 L50 39 z"/>
<path style="fill:#676767" d="M51 40 L50 39 L51 40 z"/>
<path style="fill:#707070" d="M64 39 C63.98 39.66 63.82 41.15 65 41 L65 44 C65.02 44.66 65.18 46.15 64 46 C62.82 46.15 62.98 44.66 63 44 C65.66 42.92 62.18 41.47 61 41 L60 39 L64 39 z"/>
<path style="fill:#d0d1d1" d="M65 41 C63.82 41.15 63.98 39.66 64 39 C65.18 38.85 65.02 40.34 65 41 z"/>
<path style="fill:#f0f1f1" d="M70 39 L71 39 L71 44 L70 44 L70 43 C69.81 42.05 70.59 40.06 69 40 L69 39 L70 39 z"/>
<path style="fill:#919292" d="M76 39 L77 40 L74 44 L73 43 L76 39 z"/>
<path style="fill:#909090" d="M10 40 L10 50 C8.345 48.01 8.345 41.99 10 40 z"/>
<path style="fill:#0c0d0d" d="M11 40 C11.02 41.44 11.76 43.39 13 44 C14.66 47.31 13.55 50.59 13 54 L10 51 L10 50 L10 40 L11 40 z"/>
<path style="fill:#a9a9a9" d="M12 40 L14 42 L14 43 L13 44 C11.76 43.39 11.02 41.44 11 40 L12 40 z"/>
<path style="fill:#949494" d="M70 43 C68.41 42.94 69.19 40.95 69 40 C70.59 40.06 69.81 42.05 70 43 z"/>
<path style="fill:#101111" d="M78 49 L77 50 L77 51 L77 52 L74 54 L74 51 L74 48 L74 44 L77 40 C79.68 42.24 78.48 45.88 78 49 z"/>
<path style="fill:#c5c6c6" d="M30 42 C28.82 41.85 28.98 43.34 29 44 C26.12 40.13 25.01 49.39 24.25 44.25 L25 42 L26 42 L30 42 z"/>
<path style="fill:#bebebe" d="M35 41 L39 42 L40 42 C39.37 42.99 33.69 45.95 38 46 L38 47 C36.06 49.23 32.76 45.66 31 44 L33 44 C34.33 44.22 34.33 41.78 33 42 C32.85 40.82 34.34 40.98 35 41 z"/>
<path style="fill:#a8a9a9" d="M51 44 L50 45 L48 44 L46 41 C47.85 41.2 50.32 42.03 51 44 z"/>
<path style="fill:#b1b1b1" d="M61 41 C62.18 41.47 65.66 42.92 63 44 L62 43 L59 44 L59 42 L61 41 z"/>
<path style="fill:#bebfbf" d="M68 50 L67 50 C66.81 49.05 67.59 47.06 66 47 C65.81 46.05 66.59 44.06 65 44 L65 41 C67.19 43.06 68.05 46.8 68 50 z"/>
<path style="fill:#5a5a5a" d="M16 42 C16.15 43.18 14.66 43.02 14 43 L14 42 L16 42 z"/>
<path style="fill:#929292" d="M23 47 L22 48 L20 45 L21 42 C22.5 42.85 23.23 45.17 23 47 z"/>
<path style="fill:#323333" d="M30 42 L30 44 L29 44 C28.98 43.34 28.82 41.85 30 42 z"/>
<path style="fill:#262626" d="M33 44 L33 42 C34.33 41.78 34.33 44.22 33 44 z"/>
<path style="fill:#292929" d="M38 46 C33.69 45.95 39.37 42.99 40 42 C42.08 42.55 39.87 46.74 38 46 z"/>
<path style="fill:#8a8b8b" d="M59 42 L59 44 L58 45 L57 46 L56 47 L54 49 C54.21 47.58 54.11 45.33 52 46 L55 43 C56.67 44.78 57.44 42.52 59 42 z"/>
<path style="fill:#262727" d="M62 43 L61 46 L60 49 C58.4 49.28 56.34 48.86 56 47 L57 46 C57.21 47.97 58.56 45.8 58 45 L59 44 L62 43 z"/>
<path style="fill:#e7e7e7" d="M74 44 L74 48 C72.52 47.96 72.52 51.04 74 51 L74 54 L72 59 L72 60 L71 59 L71 57 C72.59 56.94 71.81 54.95 72 54 L72 51 L71 47 L71 46 L71 44 C71.66 44.02 73.15 44.18 73 43 L74 44 z"/>
<path style="fill:#d0d0d0" d="M30 44 L30 46 L29 47 L29 48 L27 47 L29 44 L30 44 z"/>
<path style="fill:#191919" d="M31 44 C32.76 45.66 36.06 49.23 38 47 L41 47 L42 48 L42 51 L42 52 L41 51 C41.03 48.05 35.94 49.35 39 51 L38 53 L37 53 C36.94 51.41 34.95 52.19 34 52 C33.79 49.86 31.21 49.86 31 52 L30 51 C29.81 50.05 30.59 48.06 29 48 L29 47 L30 46 L30 44 L31 44 z"/>
<path style="fill:#141515" d="M50 45 C50.02 45.66 50.18 47.15 49 47 L48 44 L50 45 z"/>
<path style="fill:#d3d4d4" d="M51 44 C50.98 44.66 50.82 46.15 52 46 C54.11 45.33 54.21 47.58 54 49 C53.98 49.66 53.82 51.15 55 51 L56 51 L55 55 L55 56 L54 55 C54.43 53.94 52.57 53.94 53 55 L53 56 L49 56 C46.22 52.73 51.92 51.02 51.75 54.75 C51.66 49.03 54.5 47.79 49 47 C50.18 47.15 50.02 45.66 50 45 L51 44 z"/>
<path style="fill:#ffffff" d="M59 44 L58 45 L59 44 z"/>
<path style="fill:#464646" d="M66 47 C62.95 47.58 67.91 51.84 64 51 L64 46 C65.18 46.15 65.02 44.66 65 44 C66.59 44.06 65.81 46.05 66 47 z"/>
<path style="fill:#848484" d="M71 44 L71 46 C69.82 46.15 69.98 44.66 70 44 L71 44 z"/>
<path style="fill:#bfbfbf" d="M22 48 L22 49 L22 51 L21 51 L20 50 L19 50 L20 45 L22 48 z"/>
<path style="fill:#f4f4f4" d="M58 45 C58.56 45.8 57.21 47.97 57 46 L58 45 z"/>
<path style="fill:#7a7a7a" d="M17 46 C16.81 46.95 17.59 48.94 16 49 C16.19 48.05 15.41 46.06 17 46 z"/>
<path style="fill:#787878" d="M30 46 L29 47 L30 46 z"/>
<path style="fill:#7e7e7e" d="M61 46 C63.77 47.56 63.39 53.02 60 49 L61 46 z"/>
<path style="fill:#191919" d="M23 47 L23 49 L22 49 L22 48 L23 47 z"/>
<path style="fill:#ebebeb" d="M27 47 C26.98 47.66 26.82 49.15 28 49 L29 51 C28.34 50.98 26.85 50.82 27 52 L26 53 C25.85 54.18 27.34 54.02 28 54 C29.59 53.94 28.81 51.95 29 51 L30 51 L31 52 C30.98 52.66 30.82 54.15 32 54 L32 55 L28 56 L27 58 C27.25 59.96 31.01 59.09 30 57 L30 56 L31 56 L32 60 L33 60 C33.52 64.36 34.47 58.54 34 57 C36.44 56.42 33.64 53.21 32 54 C32.02 53.34 32.18 51.85 31 52 C31.21 49.86 33.79 49.86 34 52 C34.06 53.59 36.05 52.81 37 53 L38 53 C41.61 52.34 40.52 54.19 39 56 C38.14 56.34 35.35 57.27 38 59 L37 60 L36 60 C36.43 58.94 34.57 58.94 35 60 L36 64 C34.82 63.85 34.98 65.34 35 66 C34.06 64.87 30.25 59.3 30 64 C29.98 64.66 29.82 66.15 31 66 L28 65 L27 64 L26 62 L25 61 L25 60 L24 59 L24 58 C23.81 57.05 24.59 55.06 23 55 L17 55 L17 54 L17 53 C18.88 53.74 21.25 51.76 18 52 L19 50 L20 50 L21 51 L22 51 C23.18 51.15 23.02 49.66 23 49 C25 47.27 25.27 49.31 24.25 50.75 L27 47 z"/>
<path style="fill:#434343" d="M29 48 L28 49 C26.82 49.15 26.98 47.66 27 47 L29 48 z"/>
<path style="fill:#8a8a8a" d="M42 48 L41 47 L42 48 z"/>
<path style="fill:#303131" d="M49 47 C54.5 47.79 51.66 49.03 51.75 54.75 C51.92 51.02 46.22 52.73 49 56 L48 56 C44.92 54.09 43.34 46.5 49 47 z"/>
<path style="fill:#b1b1b1" d="M56 47 C56.34 48.86 58.4 49.28 60 49 L55 51 C53.82 51.15 53.98 49.66 54 49 L56 47 z"/>
<path style="fill:#a8a9a9" d="M66 47 C67.59 47.06 66.81 49.05 67 50 C66.57 51.06 68.43 51.06 68 50 C69.24 50.61 69.98 52.56 70 54 L64 51 C67.91 51.84 62.95 47.58 66 47 z"/>
<path style="fill:#898a8a" d="M72 51 L71 47 L72 51 z"/>
<path style="fill:#a3a4a4" d="M30 51 L29 51 L28 49 L29 48 C30.59 48.06 29.81 50.05 30 51 z"/>
<path style="fill:#7b7c7c" d="M42 51 L42 48 C43.48 47.96 43.48 51.04 42 51 z"/>
<path style="fill:#838484" d="M74 48 L74 51 C72.52 51.04 72.52 47.96 74 48 z"/>
<path style="fill:#676868" d="M23 49 C23.02 49.66 23.18 51.15 22 51 L22 49 L23 49 z"/>
<path style="fill:#d3d3d3" d="M41 51 L39 51 C35.94 49.35 41.03 48.05 41 51 z"/>
<path style="fill:#afb0b0" d="M47 49 C51.39 48.54 46.54 53.39 47 49 z"/>
<path style="fill:#747474" d="M78 49 L77 50 L78 49 z"/>
<path style="fill:#252525" d="M9 51 L10 53 L9 53 C7.667 52.78 7.667 55.22 9 55 C10.18 55.15 10.02 53.66 10 53 C12.13 54.21 11.83 56.04 10 57 L10 58 C7.513 57.14 6.46 54.5 7 52 L6 51 C6.27 48.98 8.096 50.68 9 51 z"/>
<path style="fill:#626262" d="M21 51 L20 50 L21 51 z"/>
<path style="fill:#494949" d="M68 50 C68.43 51.06 66.57 51.06 67 50 L68 50 z"/>
<path style="fill:#2e2e2e" d="M81 52 C80.34 51.98 78.85 51.82 79 53 C77.82 52.85 77.98 54.34 78 55 C75.48 55.7 78.73 58.22 78 55 L80 55 C80.33 56.34 79.29 57.74 78 58 L75 58 L75 56 C76.24 55.39 76.98 53.44 77 52 L78 51 C79.18 49.96 81.63 49.48 81 52 z"/>
<path style="fill:#9d9d9d" d="M7 52 L6 51 L7 52 z"/>
<path style="fill:#c8c8c8" d="M10 51 L13 54 L13 55 L13 57 L10 57 C11.83 56.04 12.13 54.21 10 53 L9 51 L10 51 z"/>
<path style="fill:#626262" d="M29 51 C28.81 51.95 29.59 53.94 28 54 C28.02 53.34 28.18 51.85 27 52 C26.85 50.82 28.34 50.98 29 51 z"/>
<path style="fill:#3b3c3c" d="M41 51 L42 52 C42.28 53.6 41.86 55.66 40 56 L39 56 C40.52 54.19 41.61 52.34 38 53 L39 51 L41 51 z"/>
<path style="fill:#909191" d="M58 53 C56.82 52.85 56.98 54.34 57 55 L56 56 L55 55 L56 51 L58 53 z"/>
<path style="fill:#9e9e9e" d="M78 51 L77 52 L77 51 L78 51 z"/>
<path style="fill:#767676" d="M18 52 C21.25 51.76 18.88 53.74 17 53 L18 52 z"/>
<path style="fill:#737474" d="M21 52 C24.22 51.27 21.7 54.52 21 52 z"/>
<path style="fill:#666666" d="M27 52 L26 53 L27 52 z"/>
<path style="fill:#030303" d="M28 54 C27.34 54.02 25.85 54.18 26 53 L27 52 C28.18 51.85 28.02 53.34 28 54 z"/>
<path style="fill:#4e4f4f" d="M32 54 C30.82 54.15 30.98 52.66 31 52 C32.18 51.85 32.02 53.34 32 54 z"/>
<path style="fill:#6c6d6d" d="M37 53 C36.05 52.81 34.06 53.59 34 52 C34.95 52.19 36.94 51.41 37 53 z"/>
<path style="fill:#5c5d5d" d="M53 52 C56.22 51.27 53.7 54.52 53 52 z"/>
<path style="fill:#1b1c1c" d="M59 52 C64.36 51.79 59.08 56.61 59 52 z"/>
<path style="fill:#8c8c8c" d="M77 52 C76.98 53.44 76.24 55.39 75 56 L73 59 L72 59 L74 54 L77 52 z"/>
<path style="fill:#7c7c7c" d="M81 52 C81.15 53.18 79.66 53.02 79 53 C78.85 51.82 80.34 51.98 81 52 z"/>
<path style="fill:#eeeeee" d="M9 53 L9 55 C7.667 55.22 7.667 52.78 9 53 z"/>
<path style="fill:#7a7a7a" d="M10 53 C10.02 53.66 10.18 55.15 9 55 L9 53 L10 53 z"/>
<path style="fill:#c9c9c9" d="M15 53 C14.55 55.02 15.84 54.93 17 54 L17 55 L19 64 L17 64 C17.19 61.42 15.64 58.57 14 57 L14 55 C13.98 54.34 13.82 52.85 15 53 z"/>
<path style="fill:#111111" d="M58 53 L58 55 L57 55 C56.98 54.34 56.82 52.85 58 53 z"/>
<path style="fill:#8a8b8b" d="M79 53 L80 55 L78 55 C77.98 54.34 77.82 52.85 79 53 z"/>
<path style="fill:#515252" d="M34 57 L32 55 L32 54 C33.64 53.21 36.44 56.42 34 57 z"/>
<path style="fill:#696969" d="M54 55 L53 55 C52.57 53.94 54.43 53.94 54 55 z"/>
<path style="fill:#969797" d="M72 54 C71.81 54.95 72.59 56.94 71 57 L71 55 L71 54 L72 54 z"/>
<path style="fill:#4f4f4f" d="M14 55 L14 57 L13 57 L13 55 L14 55 z"/>
<path style="fill:#0c0c0c" d="M23 55 C23.19 55.95 22.41 57.94 24 58 L24 59 L25 60 L25 61 L26 62 L27 64 L28 65 L23 71 L21 68 L19 65 L19 64 L17 55 L23 55 z"/>
<path style="fill:#909090" d="M24 58 C22.41 57.94 23.19 55.95 23 55 C24.59 55.06 23.81 57.05 24 58 z"/>
<path style="fill:#b7b7b7" d="M32 55 L34 57 C32.41 57.06 33.19 59.05 33 60 L32 60 L31 56 L30 56 L28 56 L32 55 z"/>
<path style="fill:#1a1a1a" d="M56 56 L55 56 L55 55 L56 56 z"/>
<path style="fill:#323232" d="M60 58 C59.34 58.02 57.85 58.18 58 57 L58 55 C59.29 55.26 60.33 56.66 60 58 z"/>
<path style="fill:#0f0f0f" d="M71 55 L71 57 L71 59 C69.82 58.85 69.98 60.34 70 61 C68.76 61.61 68.02 63.56 68 65 L64 71 L59 66 C63.59 61.66 62.38 52.28 71 55 z"/>
<path style="fill:#d6d7d7" d="M78 55 C78.73 58.22 75.48 55.7 78 55 z"/>
<path style="fill:#161616" d="M30 56 L30 57 L27 58 L28 56 L30 56 z"/>
<path style="fill:#4b4b4b" d="M32 60 L31 56 L32 60 z"/>
<path style="fill:#a8a9a9" d="M39 56 L40 56 L40 58 C39.34 57.98 37.85 57.82 38 59 C35.35 57.27 38.14 56.34 39 56 z"/>
<path style="fill:#1e1e1e" d="M49 56 L53 56 L51 59 L48 60 L48 59 L48 56 L49 56 z"/>
<path style="fill:#cecece" d="M75 56 L75 58 L77 60 C74.61 59.79 73.29 61.78 72 63 L71 63 L71 62 C72.88 62.14 70.86 60.12 71 62 L70 62 L70 61 C69.98 60.34 69.82 58.85 71 59 L72 60 L73 59 L75 56 z"/>
<path style="fill:#737373" d="M13 57 L11 60 L7 60 L10 58 L10 57 L13 57 z"/>
<path style="fill:#ececec" d="M14 57 L15 62 L11 60 L13 57 L14 57 z"/>
<path style="fill:#575757" d="M17 64 L15 62 L14 57 C15.64 58.57 17.19 61.42 17 64 z"/>
<path style="fill:#999999" d="M30 57 C31.01 59.09 27.25 59.96 27 58 L30 57 z"/>
<path style="fill:#4a4a4a" d="M34 57 C34.47 58.54 33.52 64.36 33 60 C33.19 59.05 32.41 57.06 34 57 z"/>
<path style="fill:#707171" d="M54 57 C58.12 59.52 49.81 64.13 54 57 z"/>
<path style="fill:#898989" d="M58 57 C57.85 58.18 59.34 58.02 60 58 C59.73 60.62 54.91 57.93 58 57 z"/>
<path style="fill:#0f0f0f" d="M40 58 L40 59 L38 59 C37.85 57.82 39.34 57.98 40 58 z"/>
<path style="fill:#888888" d="M78 58 L81 60 L77 60 L75 58 L78 58 z"/>
<path style="fill:#898989" d="M25 60 L24 59 L25 60 z"/>
<path style="fill:#131313" d="M36 60 L35 60 C34.57 58.94 36.43 58.94 36 60 z"/>
<path style="fill:#c0c1c1" d="M40 59 L42 62 C41.34 61.98 39.85 61.82 40 63 L39 63 L37 60 L38 59 L40 59 z"/>
<path style="fill:#666666" d="M48 59 L48 60 L50 63 L47 64 C46.81 63.05 47.59 61.06 46 61 L48 59 z"/>
<path style="fill:#c2c2c2" d="M51 59 L52 60 C50.67 59.78 50.67 62.22 52 62 C52.15 63.18 50.66 63.02 50 63 L48 60 L51 59 z"/>
<path style="fill:#0c0c0c" d="M73 59 L72 60 L72 59 L73 59 z"/>
<path style="fill:#1c1d1d" d="M7 60 L11 60 L15 62 C15.71 64.68 12.55 63.94 11 64 L10 64 C8.927 62.89 4.227 61.45 7 60 z"/>
<path style="fill:#878888" d="M36 60 L37 60 L39 63 L37 65 L36 64 L35 60 L36 60 z"/>
<path style="fill:#353636" d="M52 60 L52 62 C50.67 62.22 50.67 59.78 52 60 z"/>
<path style="fill:#1d1d1d" d="M77 60 L81 60 L81 62 L80 62 L79 63 L78 64 L76 64 L72 63 C73.29 61.78 74.61 59.79 77 60 z"/>
<path style="fill:#aaaaaa" d="M81 62 L81 60 C82.33 59.78 82.33 62.22 81 62 z"/>
<path style="fill:#818181" d="M26 62 L25 61 L26 62 z"/>
<path style="fill:#0d0e0e" d="M47 64 L46 63 L46 61 C47.59 61.06 46.81 63.05 47 64 z"/>
<path style="fill:#8f8f8f" d="M70 61 L70 62 L70 64 L68 65 C68.02 63.56 68.76 61.61 70 61 z"/>
<path style="fill:#1e1e1e" d="M71 62 C70.86 60.12 72.88 62.14 71 62 z"/>
<path style="fill:#f8f9f9" d="M17 64 L19 64 L19 65 C19.15 66.18 17.66 66.02 17 66 L11 64 C12.55 63.94 15.71 64.68 15 62 L17 64 z"/>
<path style="fill:#1f2020" d="M35 66 C34.54 68.05 32.07 66.62 31 66 C31.02 65.34 31.18 63.85 30 64 C30.25 59.3 34.06 64.87 35 66 z"/>
<path style="fill:#464747" d="M42 62 C42.28 65.13 41.44 64.94 40 63 C39.85 61.82 41.34 61.98 42 62 z"/>
<path style="fill:#0c0c0c" d="M54 67 L53 67 C53.89 65.29 54.68 62.8 56.75 62.25 C57.85 64.32 55.68 66.27 54 67 z"/>
<path style="fill:#292a2a" d="M71 62 L71 63 L70 64 L70 62 L71 62 z"/>
<path style="fill:#797979" d="M80 62 L79 63 L80 62 z"/>
<path style="fill:#585858" d="M40 63 C40.65 65.16 38.35 65.16 39 63 L40 63 z"/>
<path style="fill:#696969" d="M46 63 L47 64 C46.67 66.66 43.34 63.33 46 63 z"/>
<path style="fill:#bebebe" d="M11 64 L17 66 L10 66 L10 64 L11 64 z"/>
<path style="fill:#7f7f7f" d="M28 65 L27 64 L28 65 z"/>
<path style="fill:#7a7a7a" d="M31 66 C29.82 66.15 29.98 64.66 30 64 C31.18 63.85 31.02 65.34 31 66 z"/>
<path style="fill:#3b3b3b" d="M36 64 L37 65 L38 68 L37 68 L36 68 C36.02 67.34 36.18 65.85 35 66 C34.98 65.34 34.82 63.85 36 64 z"/>
<path style="fill:#2e2e2e" d="M51 64 C55.35 62.77 49.44 70.97 50 66 L51 64 z"/>
<path style="fill:#c1c1c1" d="M78 64 L77 66 L71 66 L76 64 L78 64 z"/>
<path style="fill:#adaeae" d="M21 68 L20 69 L17 66 C17.66 66.02 19.15 66.18 19 65 L21 68 z"/>
<path style="fill:#a7a7a7" d="M31 66 C32.07 66.62 34.54 68.05 35 66 C36.18 65.85 36.02 67.34 36 68 C35.05 68.19 33.06 67.41 33 69 C30.31 66.56 25.37 69.04 25 72 L23 71 L28 65 L31 66 z"/>
<path style="fill:#0c0d0d" d="M17 66 L20 69 L14 70 L13 69 L12 69 L11 68 C9.819 68.15 9.981 66.66 10 66 L17 66 z"/>
<path style="fill:#303030" d="M48 71 C46.65 71.46 45.54 70.35 46 69 C45.65 63.46 49.44 67.67 48 71 z"/>
<path style="fill:#a3a3a3" d="M64 71 L63 72 C61.52 69.9 58.79 67.78 56 68 L59 66 L64 71 z"/>
<path style="fill:#6b6c6c" d="M71 66 C71.15 67.18 69.66 67.02 69 67 C68.85 65.82 70.34 65.98 71 66 z"/>
<path style="fill:#0d0d0d" d="M77 66 C77.02 66.66 77.18 68.15 76 68 L75 69 L74 69 L73 70 C70.06 70.53 64.82 69.98 69 67 C69.66 67.02 71.15 67.18 71 66 L77 66 z"/>
<path style="fill:#161616" d="M41 68 C40.81 68.95 41.59 70.94 40 71 C37.53 70.73 39.55 64.67 41 68 z"/>
<path style="fill:#929292" d="M54 67 C54.43 68.06 52.57 68.06 53 67 L54 67 z"/>
<path style="fill:#a8a8a8" d="M12 69 L11 68 L12 69 z"/>
<path style="fill:#171717" d="M33 69 L34 70 C36.42 71.22 38.67 70.77 37 74 L32 73 C31.78 70.46 26.25 69.85 27 73 L26 73 L25 72 C25.37 69.04 30.31 66.56 33 69 z"/>
<path style="fill:#9a9a9a" d="M38 68 C38.43 69.06 36.57 69.06 37 68 L38 68 z"/>
<path style="fill:#686969" d="M43 71 L43 72 L42 72 L41 72 L40 71 C41.59 70.94 40.81 68.95 41 68 L43 71 z"/>
<path style="fill:#131313" d="M56 68 C58.79 67.78 61.52 69.9 63 72 L61 73 C61.67 70.03 57.51 71.46 57 72 C56.34 71.98 54.85 71.82 55 73 L54 73 C52.64 74.08 51.36 74.08 50 73 L50 72 L51 71 L56 68 z"/>
<path style="fill:#6d6d6d" d="M76 68 L75 69 L76 68 z"/>
<path style="fill:#a5a5a5" d="M14 70 L13 69 L14 70 z"/>
<path style="fill:#828282" d="M34 70 L33 69 L34 70 z"/>
<path style="fill:#636464" d="M46 69 C45.54 70.35 46.65 71.46 48 71 L48 72 C43.74 71.89 49.17 76.94 46 79 C45.34 79.02 43.85 79.18 44 78 C44.14 75.61 43.44 72.97 45 71 C44.98 70.34 44.82 68.85 46 69 z"/>
<path style="fill:#646464" d="M74 69 L73 70 L74 69 z"/>
<path style="fill:#848585" d="M32 73 L27 73 C26.25 69.85 31.78 70.46 32 73 z"/>
<path style="fill:#c1c1c1" d="M45 71 C43.44 72.97 44.14 75.61 44 78 L43 78 L43 72 L43 71 L45 71 z"/>
<path style="fill:#838383" d="M51 71 L50 72 L51 71 z"/>
<path style="fill:#636363" d="M61 73 L59 75 C57.09 75.45 55.35 73.43 57 72 C57.51 71.46 61.67 70.03 61 73 z"/>
<path style="fill:#9e9e9e" d="M26 73 L25 72 L26 73 z"/>
<path style="fill:#b4b5b5" d="M42 72 L43 79 C39.85 81.99 41.3 73.98 41 72 L42 72 z"/>
<path style="fill:#171717" d="M43 72 L43 78 L43 79 L42 72 L43 72 z"/>
<path style="fill:#c8c8c8" d="M48 72 L48 79 L46 79 C49.17 76.94 43.74 71.89 48 72 z"/>
<path style="fill:#5e5e5e" d="M48 79 L48 72 C49.64 73.03 49.64 77.97 48 79 z"/>
<path style="fill:#808080" d="M57 72 C55.35 73.43 57.09 75.45 59 75 C58.85 76.18 60.34 76.02 61 76 C61.46 77.35 60.35 78.46 59 78 L58 79 L56 78 L56 77 C57.88 77.14 55.86 75.12 56 77 L50.25 77.75 C53.5 76.14 50.22 75.36 50 73 C51.36 74.08 52.64 74.08 54 73 C53.57 74.06 55.43 74.06 55 73 C54.85 71.82 56.34 71.98 57 72 z"/>
<path style="fill:#4a4b4b" d="M32 73 C34.23 76.15 29.86 76.04 28 75 L27 74 L27 73 L32 73 z"/>
<path style="fill:#999a9a" d="M37 74 C36.02 76.43 36.42 77.82 39 76 L40 76 C38.56 81.98 35.1 74.75 32 77 L28 78 L27 77 L28 75 C29.86 76.04 34.23 76.15 32 73 L37 74 z"/>
<path style="fill:#333434" d="M40 76 L39 76 C38.32 72.75 40.68 72.75 40 76 z"/>
<path style="fill:#d9d9d9" d="M55 73 C55.43 74.06 53.57 74.06 54 73 L55 73 z"/>
<path style="fill:#acadad" d="M61 73 L61 75 L59 75 L61 73 z"/>
<path style="fill:#a4a4a4" d="M27 74 L28 75 L26 75 L27 74 z"/>
<path style="fill:#9a9a9a" d="M26 75 L25 76 L26 75 z"/>
<path style="fill:#121313" d="M28 75 L27 77 L28 78 L28 79 L27 80 C24.52 80.63 21.64 79.52 24 77 L25 76 L26 75 L28 75 z"/>
<path style="fill:#080909" d="M61 75 L61 76 C60.34 76.02 58.85 76.18 59 75 L61 75 z"/>
<path style="fill:#676767" d="M62 76 L61 76 L61 75 L62 76 z"/>
<path style="fill:#989898" d="M25 76 L24 77 L25 76 z"/>
<path style="fill:#f0f0f0" d="M56 77 C55.86 75.12 57.88 77.14 56 77 z"/>
<path style="fill:#0f0f0f" d="M62 76 L63 77 L64 78 C64.63 81.51 59.65 79.62 59 78 C60.35 78.46 61.46 77.35 61 76 L62 76 z"/>
<path style="fill:#939393" d="M63 77 L62 76 L63 77 z"/>
<path style="fill:#ffffff" d="M28 78 L27 77 L28 78 z"/>
<path style="fill:#6d6d6d" d="M32 77 L32 78 C30.14 78.34 29.72 80.4 30 82 L28 79 L28 78 L32 77 z"/>
<path style="fill:#767676" d="M64 78 L63 77 L64 78 z"/>
<path style="fill:#1b1b1b" d="M32 78 L34 79 L34 80 C33.39 81.24 31.44 81.98 30 82 C29.72 80.4 30.14 78.34 32 78 z"/>
<path style="fill:#1c1c1c" d="M56 78 L58 79 L58 80 L58 82 C55.11 82.52 50.77 78.02 56 78 z"/>
<path style="fill:#858585" d="M28 79 L27 80 L28 79 z"/>
<path style="fill:#717171" d="M34 80 L34 79 C35.06 78.57 35.06 80.43 34 80 z"/>
<path style="fill:#818181" d="M58 82 L58 80 C59.33 79.78 59.33 82.22 58 82 z"/>
</svg>
