<?xml version="1.0" standalone="yes"?>
<svg width="87" height="97">
<path style="fill:#fcfdfd" d="M87 0 L87 97 L0 97 L0 0 L87 0 z"/>
<path style="fill:#717272" d="M47 18 C46.34 17.98 44.85 17.82 45 19 C41.91 18.07 46.73 15.38 47 18 z"/>
<path style="fill:#4f4f4f" d="M41 20 L41 22 C39.15 22.2 36.68 23.03 36 25 L30 33 L29 28 C29.02 27.34 29.18 25.85 28 26 L28 25 L29 24 C31.65 25.66 34.55 24.04 36 21 C37.88 21.14 35.86 19.12 36 21 L32 21 C34.88 19.43 40.75 15.94 41 20 z"/>
<path style="fill:#242424" d="M47 18 L49 18 C48.85 19.18 50.34 19.02 51 19 L52 19 L53 22 L51 21 L47 19 L45 19 C44.85 17.82 46.34 17.98 47 18 z"/>
<path style="fill:#a5a5a5" d="M51 19 C50.34 19.02 48.85 19.18 49 18 C49.66 17.98 51.15 17.82 51 19 z"/>
<path style="fill:#787979" d="M51 21 L53 25 L53 26 C50.93 25.96 48.19 25.41 47 24 C50.51 24.78 48.39 20.02 46 21 L46 20 L47 19 L51 21 z"/>
<path style="fill:#676868" d="M58 22 L57 22 L53 22 L52 19 C54.51 18.43 56.53 20.71 58 22 z"/>
<path style="fill:#909191" d="M32 21 L36 21 C34.55 24.04 31.65 25.66 29 24 L30 21 C29.78 19.67 32.22 19.67 32 21 z"/>
<path style="fill:#c5c5c5" d="M36 21 C35.86 19.12 37.88 21.14 36 21 z"/>
<path style="fill:#a9aaaa" d="M41 22 L41 20 C42.33 19.78 42.33 22.22 41 22 z"/>
<path style="fill:#8e8e8e" d="M44 20 L44 21 C42.94 21.43 42.94 19.57 44 20 z"/>
<path style="fill:#0c0c0c" d="M46 20 L46 21 L44 21 L44 20 L46 20 z"/>
<path style="fill:#3f3f3f" d="M30 21 L29 24 L28 25 L25 28 L24 28 L24 27 C25.29 26.74 26.33 25.34 26 24 L30 21 z"/>
<path style="fill:#5c5d5d" d="M46 21 C48.39 20.02 50.51 24.78 47 24 C44.76 24.66 43.34 23.24 44 21 L46 21 z"/>
<path style="fill:#8b8c8c" d="M51 21 L53 22 L57 22 C57.77 24.03 60.12 25.99 62 24 L62 26 L53 25 L51 21 z"/>
<path style="fill:#7a7b7b" d="M41 22 C41.51 24.94 38.11 25.37 36 25 C36.68 23.03 39.15 22.2 41 22 z"/>
<path style="fill:#3c3d3d" d="M58 22 L62 23 L62 24 C60.12 25.99 57.77 24.03 57 22 L58 22 z"/>
<path style="fill:#767777" d="M64 25 C61.33 25.32 65.64 31.41 65 27 C65.66 26.98 67.15 26.82 67 28 L68 32 C66.82 31.85 66.98 33.34 67 34 L63 33 L63 31 L62 26 L62 24 L62 23 L64 25 z"/>
<path style="fill:#9f9f9f" d="M24 24 L24 25 L23 25 L24 24 z"/>
<path style="fill:#303030" d="M25 24 L24 25 L24 24 L25 24 z"/>
<path style="fill:#b2b2b2" d="M26 24 C26.33 25.34 25.29 26.74 24 27 L24 25 L25 24 L26 24 z"/>
<path style="fill:#b8b8b8" d="M29 24 L28 25 L29 24 z"/>
<path style="fill:#2f3030" d="M24 25 L24 27 C22.82 26.85 22.98 28.34 23 29 C21.82 28.85 21.98 30.34 22 31 C20.82 31.15 20.98 29.66 21 29 L23 25 L24 25 z"/>
<path style="fill:#818282" d="M28 25 L28 26 C27.64 28.35 25.55 32.3 28 34 L28 40 C26.08 36.97 26.69 39.89 24 40 L25 37 C27.5 37.95 27.5 34.05 25 35 L25 28 L28 25 z"/>
<path style="fill:#696969" d="M46 27 L43 30 L42 30 C40.64 27.41 47.58 26.25 43 26 C43.25 24.04 47.01 24.91 46 27 z"/>
<path style="fill:#595959" d="M62 26 L63 31 L62 31 L61.75 30.25 C59.39 34.47 56.82 25.63 57 32 L57 33 L53 26 L53 25 L62 26 z"/>
<path style="fill:#141515" d="M64 25 L65 27 C65.64 31.41 61.33 25.32 64 25 z"/>
<path style="fill:#272828" d="M29 28 L28 34 C25.55 32.3 27.64 28.35 28 26 C29.18 25.85 29.02 27.34 29 28 z"/>
<path style="fill:#9e9e9e" d="M42 26 L41 27 L42 26 z"/>
<path style="fill:#101010" d="M43 26 C47.58 26.25 40.64 27.41 42 30 C38.58 29.49 40.49 33.31 43 32 L46 32 C47.18 32.15 47.02 30.66 47 30 L49 29 L51 30 C49.78 31.29 47.79 32.62 48 35 L47 35 L43 36 L40 39 L40 38 C39.81 37.05 40.59 35.06 39 35 C38.94 33.41 36.95 34.19 36 34 C37.85 32.31 37.85 32.69 36 31 L38 30 L39 29 L41 27 L42 26 L43 26 z"/>
<path style="fill:#bebfbf" d="M24 27 L24 28 L23 29 C22.98 28.34 22.82 26.85 24 27 z"/>
<path style="fill:#232323" d="M48 27 L47 30 C47.02 30.66 47.18 32.15 46 32 C45.74 30.71 44.34 29.67 43 30 L46 27 L48 27 z"/>
<path style="fill:#676868" d="M49 29 L47 30 L48 27 C49.18 26.85 49.02 28.34 49 29 z"/>
<path style="fill:#242424" d="M25 28 L25 35 L25 36 L23 31 L23 29 L24 28 L25 28 z"/>
<path style="fill:#939494" d="M30 33 L30 40 L29 40 L28 34 L29 28 L30 33 z"/>
<path style="fill:#3a3b3b" d="M67 28 L69 31 C69.56 31.8 68.21 33.97 68 32 L67 28 z"/>
<path style="fill:#878787" d="M21 29 C20.98 29.66 20.82 31.15 22 31 L23 32 L23 40 L23 41 L20.25 34.25 L21 44 L20 44 L16 40 L15 36 C14.54 34.65 15.65 33.54 17 34 C16.96 38.78 21.22 31.54 18 31 C18.26 29.71 19.66 28.67 21 29 z"/>
<path style="fill:#d1d1d1" d="M23 29 L23 31 L23 32 L22 31 C21.98 30.34 21.82 28.85 23 29 z"/>
<path style="fill:#747474" d="M39 29 L38 30 L39 29 z"/>
<path style="fill:#909191" d="M62 31 L62 36 L61 37 L61 36 C60.69 34.29 59.16 33.85 58 35 C57.81 34.05 58.59 32.06 57 32 C56.82 25.63 59.39 34.47 61.75 30.25 L62 31 z"/>
<path style="fill:#707171" d="M42 30 L43 32 C40.49 33.31 38.58 29.49 42 30 z"/>
<path style="fill:#cecece" d="M43 30 C44.34 29.67 45.74 30.71 46 32 L43 32 L42 30 L43 30 z"/>
<path style="fill:#5d5d5d" d="M49 46 L48 46 L49 39 L48 35 C47.79 32.62 49.78 31.29 51 30 C53.86 34.54 51.57 41.38 49 46 z"/>
<path style="fill:#2c2d2d" d="M17 34 C18.18 34.15 18.02 32.66 18 32 L18 31 C21.22 31.54 16.96 38.78 17 34 z"/>
<path style="fill:#060606" d="M25 36 L25 37 L24 40 L23 40 L23 32 L23 31 L25 36 z"/>
<path style="fill:#666767" d="M36 31 C37.85 32.69 37.85 32.31 36 34 C34.82 34.15 34.98 32.66 35 32 L36 31 z"/>
<path style="fill:#0a0b0b" d="M63 31 L63 33 C62.81 33.95 63.59 35.94 62 36 L62 31 L63 31 z"/>
<path style="fill:#8f9090" d="M71 32 C69.27 32.54 69.16 39.77 72 37 C74.48 36.01 74.85 40.62 73 41 C72.64 35.64 72.45 40.59 71 42 L70.75 40.25 C66.89 41.44 69.78 34.21 66 40 L67 34 C66.98 33.34 66.82 31.85 68 32 C68.21 33.97 69.56 31.8 69 31 C69.66 30.98 71.15 30.82 71 32 z"/>
<path style="fill:#8a8b8b" d="M18 32 C18.02 32.66 18.18 34.15 17 34 C16.98 33.34 16.82 31.85 18 32 z"/>
<path style="fill:#bfc0c0" d="M35 32 C34.98 32.66 34.82 34.15 36 34 C36.95 34.19 38.94 33.41 39 35 C36.73 35.81 31.67 34.44 35 32 z"/>
<path style="fill:#191a1a" d="M58 35 C57.82 36.19 58.63 42.21 57 40 L57 33 L57 32 C58.59 32.06 57.81 34.05 58 35 z"/>
<path style="fill:#525252" d="M67 34 L66 40 C63.51 43.08 64.35 36.44 63 39 L61 40 L61 37 L62 36 C63.59 35.94 62.81 33.95 63 33 L67 34 z"/>
<path style="fill:#3e3e3e" d="M71 32 L71 33 C70.98 33.66 70.82 35.15 72 35 L72 37 C69.16 39.77 69.27 32.54 71 32 z"/>
<path style="fill:#a2a2a2" d="M72 35 C70.82 35.15 70.98 33.66 71 33 C72.18 32.85 72.02 34.34 72 35 z"/>
<path style="fill:#242424" d="M23 41 L22 45 L21 44 L20.25 34.25 L23 41 z"/>
<path style="fill:#0e0f0f" d="M29 40 L28 40 L28 34 L29 40 z"/>
<path style="fill:#656666" d="M61 36 L58 43 L56 43 C56.19 42.05 55.41 40.06 57 40 C58.63 42.21 57.82 36.19 58 35 C59.16 33.85 60.69 34.29 61 36 z"/>
<path style="fill:#cbcbcb" d="M25 37 L25 36 L25 35 C27.5 34.05 27.5 37.95 25 37 z"/>
<path style="fill:#535353" d="M47 35 C46.54 37.06 43.7 38.76 48 39 C48.21 40.42 48.11 42.67 46 42 C46.33 40.66 45.29 39.26 44 39 L43 36 L47 35 z"/>
<path style="fill:#878787" d="M48 35 L49 39 L48 39 C43.7 38.76 46.54 37.06 47 35 L48 35 z"/>
<path style="fill:#b1b2b2" d="M64 35 C66.52 35.7 63.27 38.22 64 35 z"/>
<path style="fill:#0f0f0f" d="M16 40 L15 41 L15 40 L15 36 L16 40 z"/>
<path style="fill:#8d8e8e" d="M43 36 L44 39 L43 39 C42.59 36.61 41.04 40.33 43 40 L44 39 C45.29 39.26 46.33 40.66 46 42 L42 42 L40 41 L40 39 L43 36 z"/>
<path style="fill:#1f1f1f" d="M61 36 L61 37 L61 40 C59.41 40.06 60.19 42.05 60 43 L59 44 L58 44 L58 43 L61 36 z"/>
<path style="fill:#404141" d="M71 42 C69.07 42.41 68.91 44.65 68 46 C62.92 48.94 71.08 40.06 66 43 L66 40 C69.78 34.21 66.89 41.44 70.75 40.25 L71 42 z"/>
<path style="fill:#5a5b5b" d="M28 40 L29 40 L25 48 L24 49 L22 49 L21 48 C22.18 48.15 22.02 46.66 22 46 C24.3 48.82 26.72 40.01 23 41 L23 40 L24 40 C26.69 39.89 26.08 36.97 28 40 z"/>
<path style="fill:#9d9d9d" d="M40 38 L40 39 L39 39 L40 38 z"/>
<path style="fill:#202020" d="M43 39 L43 40 C41.04 40.33 42.59 36.61 43 39 z"/>
<path style="fill:#919191" d="M66 40 L66 43 L65 45 C63.23 43.42 64.15 41.06 62 44 L63 39 C64.35 36.44 63.51 43.08 66 40 z"/>
<path style="fill:#272828" d="M73 41 L73 42 L73 43 C72.34 43.02 70.85 43.18 71 42 C72.45 40.59 72.64 35.64 73 41 z"/>
<path style="fill:#a0a0a0" d="M39 39 L38 40 L39 39 z"/>
<path style="fill:#393a3a" d="M40 39 L40 41 L37 43 L37 41 L38 40 L39 39 L40 39 z"/>
<path style="fill:#e4e4e4" d="M44 39 L43 40 L43 39 L44 39 z"/>
<path style="fill:#bababa" d="M49 39 L48 46 C44.34 48.63 45.47 44.28 46 42 C48.11 42.67 48.21 40.42 48 39 L49 39 z"/>
<path style="fill:#141414" d="M63 39 L62 44 C60.82 43.85 60.98 45.34 61 46 L59 46 L59 45 C60.18 45.15 60.02 43.66 60 43 C61.59 42.94 60.81 40.95 61 40 L63 39 z"/>
<path style="fill:#7b7b7b" d="M15 40 L15 41 L15 42 L14 47 L13 48 C10.38 46.92 13.07 44.84 14 44 C12.89 42.75 12.15 39.33 15 40 z"/>
<path style="fill:#666767" d="M20 44 L20 46 L19 46 L17 46 L15 42 L15 41 L16 40 L20 44 z"/>
<path style="fill:#454545" d="M30 40 L31 44 L29 51 C27.12 50.86 29.14 52.88 29 51 C30.82 49.29 31.34 51.18 31 53 L27 53 L25 48 L29 40 L30 40 z"/>
<path style="fill:#9c9c9c" d="M38 40 L37 41 L38 40 z"/>
<path style="fill:#7e7f7f" d="M61 40 C60.81 40.95 61.59 42.94 60 43 C60.19 42.05 59.41 40.06 61 40 z"/>
<path style="fill:#a0a0a0" d="M22 46 L22 45 L23 41 C26.72 40.01 24.3 48.82 22 46 z"/>
<path style="fill:#acadad" d="M40 41 L42 42 L42 44 L39 45 L37 43 L40 41 z"/>
<path style="fill:#767676" d="M46 42 C45.47 44.28 44.34 48.63 48 46 L49 46 L50 48 L49 50 C44.82 50.6 44.98 51.81 47 54 C45.82 53.85 45.98 55.34 46 56 L45 56 L44 52 C41.79 50.53 42.28 48.12 42 45 L42 44 L42 42 L46 42 z"/>
<path style="fill:#999a9a" d="M17 46 L22 53 L18 51 C17.14 48.24 16.08 49.8 15 51 L14 47 L15 42 L17 46 z"/>
<path style="fill:#454646" d="M65 45 L65 47 C63.71 47.26 62.67 48.66 63 50 C62.34 50.02 60.85 50.18 61 49 L61 46 C60.98 45.34 60.82 43.85 62 44 C64.15 41.06 63.23 43.42 65 45 z"/>
<path style="fill:#b3b3b3" d="M68 46 L68 47 L66 49 C64.82 49.15 64.98 47.66 65 47 L65 45 L66 43 C71.08 40.06 62.92 48.94 68 46 z"/>
<path style="fill:#969797" d="M71 42 C70.85 43.18 72.34 43.02 73 43 L72 45 L71 46 L68 47 L68 46 C68.91 44.65 69.07 42.41 71 42 z"/>
<path style="fill:#8c8c8c" d="M74 46 C73.81 45.05 74.59 43.06 73 43 L73 42 C75.48 41.01 75.85 45.62 74 46 z"/>
<path style="fill:#cccdcd" d="M56 43 L58 43 L58 44 C54.78 43.27 57.3 46.52 58 44 L59 44 L59 45 L59 46 L56 48 C57.75 46.12 55.63 46.4 55 45 C54.98 44.34 54.82 42.85 56 43 z"/>
<path style="fill:#797979" d="M60 43 C60.02 43.66 60.18 45.15 59 45 L59 44 L60 43 z"/>
<path style="fill:#373838" d="M74 46 L74 47 L72 45 L73 43 C74.59 43.06 73.81 45.05 74 46 z"/>
<path style="fill:#1f2020" d="M21 44 L22 45 L22 46 C22.02 46.66 22.18 48.15 21 48 L20 47 L20 46 L20 44 L21 44 z"/>
<path style="fill:#a0a0a0" d="M22 45 L21 44 L22 45 z"/>
<path style="fill:#8d8e8e" d="M38 50 L40 49 L40 54 C32.28 53.01 36.61 55.12 40 57 L40 58 L38.25 59.75 C35.58 53.32 34.66 63 37 64 L37 66 C36.1 65.68 34.27 63.98 34 66 L32 66 L31 66 C31.32 61.22 24.88 61.12 29 67 C25.23 66.39 22.33 68.1 27.75 68.25 L23 72 L18 66 C20.02 66.45 19.93 65.16 19 64 C21.78 64 28.49 68.35 26 63 L21 60 L22 59 L28 61 C35.46 64.82 34.58 58.52 28 60 C26.25 58.12 28.37 58.4 29 57 L32 54 C34.43 57.76 33.94 50.1 32 53 L31 53 C31.34 51.18 30.82 49.29 29 51 L31 44 L38 50 z"/>
<path style="fill:#5e5e5e" d="M42 44 L42 45 C40.14 45.34 39.72 47.4 40 49 L38 50 L38 48 L38 46 L39 45 L42 44 z"/>
<path style="fill:#707070" d="M58 44 C57.3 46.52 54.78 43.27 58 44 z"/>
<path style="fill:#202020" d="M19 46 L20 47 L21 48 L22 49 L22 50 C22.32 50.9 24.02 52.73 22 53 L17 46 L19 46 z"/>
<path style="fill:#b5b5b5" d="M42 45 C42.28 48.12 41.79 50.53 44 52 L40 54 L40 49 C39.72 47.4 40.14 45.34 42 45 z"/>
<path style="fill:#969797" d="M55 45 C55.63 46.4 57.75 46.12 56 48 L56 49 C55.34 48.98 53.85 48.82 54 50 L54 54 L53 55 L53 52 L49 50 L50 48 C52.79 49.03 53.61 46.16 55 45 z"/>
<path style="fill:#141414" d="M72 45 L71 46 L72 45 z"/>
<path style="fill:#989898" d="M74 47 L75 48 C73.56 48.02 71.61 48.76 71 50 L69 50 L71 46 L72 45 L74 47 z"/>
<path style="fill:#e3e3e3" d="M20 46 L20 47 L19 46 L20 46 z"/>
<path style="fill:#b7b8b8" d="M38 46 L38 48 C35.48 48.74 36.23 46.13 38 46 z"/>
<path style="fill:#6d6e6e" d="M59 46 L61 46 L61 49 C59.59 49.81 57.15 50.11 59 52 L58 53 C57.09 51.74 55.15 51.33 56 49 L56 48 L59 46 z"/>
<path style="fill:#1f2020" d="M71 46 L69 50 C67.49 49.71 65.5 52.06 66 49 L68 47 L71 46 z"/>
<path style="fill:#2f2f2f" d="M14 47 L15 51 L13 50 L13 48 L14 47 z"/>
<path style="fill:#cfcfcf" d="M21 48 L20 47 L21 48 z"/>
<path style="fill:#202020" d="M31 47 C34.73 47.87 30.55 50.64 31 47 z"/>
<path style="fill:#707070" d="M65 47 C64.98 47.66 64.82 49.15 66 49 C65.5 52.06 67.49 49.71 69 50 C64.42 52.53 65.05 55.65 70 52 L70 54 C68.81 55.41 66.07 55.96 64 56 C61.48 56.22 58.69 57.43 61 54 L63 50 C62.67 48.66 63.71 47.26 65 47 z"/>
<path style="fill:#292a2a" d="M25 48 L27 53 C27.93 54.16 28.02 55.45 26 55 L24 50 L24 49 L25 48 z"/>
<path style="fill:#323232" d="M75 48 L75 51 C73.68 51.49 71.63 54.39 72 51 C73.88 51.14 71.86 49.12 72 51 L71 51 L71 50 C71.61 48.76 73.56 48.02 75 48 z"/>
<path style="fill:#787878" d="M18 51 C17.12 54.23 25.46 57.95 22 53 C24.02 52.73 22.32 50.9 22 50 L24 50 L26 55 C25.96 60.21 23.12 57.33 19 56 L18 55 L14 52 L13 52 L13 50 L15 51 C16.08 49.8 17.14 48.24 18 51 z"/>
<path style="fill:#cfd0d0" d="M24 49 L24 50 L22 50 L22 49 L24 49 z"/>
<path style="fill:#b1b2b2" d="M56 49 C55.15 51.33 57.09 51.74 58 53 L56 55 C53.48 55.7 56.73 58.22 56 55 L61 54 C58.69 57.43 61.48 56.22 64 56 L64 57 L58 61 C57.59 62.27 54.16 63.88 55 61 C59 60.77 55.79 55.99 55 61 L51 61 L51 60 L52 60 C54.48 60.99 54.85 56.38 53 56 L53 55 L54 54 C55.55 53.81 55.55 50.19 54 50 C53.85 48.82 55.34 48.98 56 49 z"/>
<path style="fill:#b5b5b5" d="M61 49 C60.85 50.18 62.34 50.02 63 50 L61 54 C61.34 52.18 60.82 50.29 59 52 C57.15 50.11 59.59 49.81 61 49 z"/>
<path style="fill:#cccdcd" d="M49 50 L53 52 L47 54 C44.98 51.81 44.82 50.6 49 50 z"/>
<path style="fill:#1e1f1f" d="M54 54 L54 50 C55.55 50.19 55.55 53.81 54 54 z"/>
<path style="fill:#131313" d="M71 50 L71 51 L70 52 C65.05 55.65 64.42 52.53 69 50 L71 50 z"/>
<path style="fill:#b6b6b6" d="M72 51 C71.86 49.12 73.88 51.14 72 51 z"/>
<path style="fill:#121313" d="M22 53 C25.46 57.95 17.12 54.23 18 51 L22 53 z"/>
<path style="fill:#b9b9b9" d="M29 51 C29.14 52.88 27.12 50.86 29 51 z"/>
<path style="fill:#4a4a4a" d="M61 54 L56 55 L58 53 L59 52 C60.82 50.29 61.34 52.18 61 54 z"/>
<path style="fill:#9c9c9c" d="M72 51 C71.63 54.39 73.68 51.49 75 51 L75 53 L71 56 C71.93 54.84 72.02 53.55 70 54 L70 52 L71 51 L72 51 z"/>
<path style="fill:#474747" d="M14 52 L17 57 L14 58 L13 52 L14 52 z"/>
<path style="fill:#a6a6a6" d="M18 55 L18 56 C18.56 56.8 17.21 58.97 17 57 L14 52 L18 55 z"/>
<path style="fill:#191a1a" d="M32 54 L32 53 C33.94 50.1 34.43 57.76 32 54 z"/>
<path style="fill:#3d3e3e" d="M44 52 L45 56 C43.15 55.81 40.68 53.94 40 57 C36.61 55.12 32.28 53.01 40 54 L44 52 z"/>
<path style="fill:#4b4c4c" d="M53 52 L53 55 L53 56 C50.01 54.46 48.99 54.46 46 56 C45.98 55.34 45.82 53.85 47 54 L53 52 z"/>
<path style="fill:#707070" d="M31 53 L32 53 L32 54 L29 57 L26 55 C28.02 55.45 27.93 54.16 27 53 L31 53 z"/>
<path style="fill:#333434" d="M75 53 L74 57 C72.41 57.06 73.19 59.05 73 60 L71 62 C67.04 61.89 74.54 59.08 71 56 L75 53 z"/>
<path style="fill:#919292" d="M53 56 C52.81 56.95 53.59 58.94 52 59 C52.73 55.78 49.48 58.3 52 59 L52 60 L51 60 L49 60 L49 58 C51.52 57.3 48.27 54.78 49 58 L46 56 C48.99 54.46 50.01 54.46 53 56 z"/>
<path style="fill:#141515" d="M71 56 L70 56 L64 57 L64 56 C66.07 55.96 68.81 55.41 70 54 C72.02 53.55 71.93 54.84 71 56 z"/>
<path style="fill:#0b0b0b" d="M19 56 L18 56 L18 55 L19 56 z"/>
<path style="fill:#222222" d="M26 55 L29 57 C28.37 58.4 26.25 58.12 28 60 L28 61 L22 59 L19 56 C23.12 57.33 25.96 60.21 26 55 z"/>
<path style="fill:#8c8d8d" d="M45 56 L44 60 L41 57 L40 57 C40.68 53.94 43.15 55.81 45 56 z"/>
<path style="fill:#111212" d="M56 55 C56.73 58.22 53.48 55.7 56 55 z"/>
<path style="fill:#717171" d="M19 56 L22 59 L21 60 L18 59 L17 60 L16 60 L15 60 L14 58 L17 57 C17.21 58.97 18.56 56.8 18 56 L19 56 z"/>
<path style="fill:#1f2020" d="M31 56 C36.26 56.8 31.01 61 31 56 z"/>
<path style="fill:#393939" d="M46 56 L49 58 L49 60 C47.08 58.14 45.92 58.14 44 60 L45 56 L46 56 z"/>
<path style="fill:#2e2f2f" d="M49 58 C48.27 54.78 51.52 57.3 49 58 z"/>
<path style="fill:#2e2e2e" d="M52 60 L52 59 C53.59 58.94 52.81 56.95 53 56 C54.85 56.38 54.48 60.99 52 60 z"/>
<path style="fill:#7d7d7d" d="M70 56 L69 59 L62 60 C60.94 59.57 60.94 61.43 62 61 C61.37 63.52 63.82 63.04 65 62 L65 63 L65 64 L61 64 C61.15 62.82 59.66 62.98 59 63 C59.02 62.34 59.18 60.85 58 61 L64 57 L70 56 z"/>
<path style="fill:#9e9e9e" d="M71 56 C74.54 59.08 67.04 61.89 71 62 L71 63 L65 63 L65 62 C66.31 62.11 70.75 59.58 69 59 L70 56 L71 56 z"/>
<path style="fill:#393a3a" d="M40 58 L41 57 L44 60 C43.61 60.83 44.42 62.75 45.25 61.25 C48.06 64.71 40.66 60.55 42 64 L37 64 C34.66 63 35.58 53.32 38.25 59.75 L40 58 z"/>
<path style="fill:#e1e1e1" d="M41 57 L40 58 L40 57 L41 57 z"/>
<path style="fill:#111212" d="M52 59 C49.48 58.3 52.73 55.78 52 59 z"/>
<path style="fill:#484949" d="M58 57 C60.52 57.7 57.27 60.22 58 57 z"/>
<path style="fill:#ababab" d="M74 57 C73.81 57.95 74.59 59.94 73 60 C73.19 59.05 72.41 57.06 74 57 z"/>
<path style="fill:#9c9d9d" d="M49 60 L48 64 C47.05 64.19 45.06 63.41 45 65 L44 65 C44.15 63.82 42.66 63.98 42 64 C40.66 60.55 48.06 64.71 45.25 61.25 C44.42 62.75 43.61 60.83 44 60 C45.92 58.14 47.08 58.14 49 60 z"/>
<path style="fill:#1f2020" d="M55 61 C55.79 55.99 59 60.77 55 61 z"/>
<path style="fill:#999999" d="M18 59 C19.25 61.42 22.54 62.4 25 63 C23.99 66.24 20.01 60.76 19 64 L16 63 C14.41 62.94 15.19 60.95 15 60 L16 60 C15.57 61.06 17.43 61.06 17 60 L18 59 z"/>
<path style="fill:#2b2b2b" d="M21 60 L26 63 L25 63 C22.54 62.4 19.25 61.42 18 59 L21 60 z"/>
<path style="fill:#363737" d="M28 61 L28 60 C34.58 58.52 35.46 64.82 28 61 z"/>
<path style="fill:#212121" d="M69 59 C70.75 59.58 66.31 62.11 65 62 C63.82 63.04 61.37 63.52 62 61 L62 60 L69 59 z"/>
<path style="fill:#131313" d="M17 60 C17.43 61.06 15.57 61.06 16 60 L17 60 z"/>
<path style="fill:#3c3d3d" d="M51 60 L51 61 C48.71 62.06 50.4 67.5 53 67 L49 67 L49 69 L46 70 L48 65 C49.06 65.43 49.06 63.57 48 64 L49 60 L51 60 z"/>
<path style="fill:#f6f6f6" d="M62 60 L62 61 C60.94 61.43 60.94 59.57 62 60 z"/>
<path style="fill:#e9e9e9" d="M40 61 C41.88 60.86 39.86 62.88 40 61 z"/>
<path style="fill:#8a8a8a" d="M51 61 C50.59 62.69 52.31 64.41 54 64 L54 66 L53 66 C53.14 64.12 51.12 66.14 53 66 L53 67 C50.4 67.5 48.71 62.06 51 61 z"/>
<path style="fill:#4a4a4a" d="M55 61 C54.16 63.88 57.59 62.27 58 61 C59.18 60.85 59.02 62.34 59 63 L54 64 C52.31 64.41 50.59 62.69 51 61 L55 61 z"/>
<path style="fill:#494a4a" d="M19 64 C19.93 65.16 20.02 66.45 18 66 L16 63 L19 64 z"/>
<path style="fill:#303131" d="M31 66 L31 67 L29 67 C24.88 61.12 31.32 61.22 31 66 z"/>
<path style="fill:#7a7a7a" d="M42 64 C42.66 63.98 44.15 63.82 44 65 L43 66 L41 66 L39 66 L37 66 L37 64 L42 64 z"/>
<path style="fill:#444444" d="M25 63 L26 63 C28.49 68.35 21.78 64 19 64 C20.01 60.76 23.99 66.24 25 63 z"/>
<path style="fill:#a4a4a4" d="M59 63 C59.66 62.98 61.15 62.82 61 64 C57.9 66.66 65.59 66.65 67 65 L69 66 C69.02 66.66 69.18 68.15 68 68 C66.75 66.34 56.12 65.96 59 69 L59 70 C50.45 70.13 61.81 71.4 61 74 C61.02 74.66 61.18 76.15 60 76 C57.13 73.59 52.96 67.73 50 71 C50.02 70.34 50.18 68.85 49 69 L49 67 L53 67 L54 66 L54 64 L59 63 z"/>
<path style="fill:#646565" d="M71 63 C73.01 63.49 69.88 65.69 69 66 L67 65 C67.15 63.82 65.66 63.98 65 64 L65 63 L71 63 z"/>
<path style="fill:#808181" d="M48 64 L48 65 L46 70 L45 69 C45.02 68.34 45.18 66.85 44 67 L43 67 L43 66 C43.66 66.02 45.15 66.18 45 65 C45.06 63.41 47.05 64.19 48 64 z"/>
<path style="fill:#dadada" d="M48 65 L48 64 C49.06 63.57 49.06 65.43 48 65 z"/>
<path style="fill:#1a1b1b" d="M61 64 L65 64 C65.66 63.98 67.15 63.82 67 65 C65.59 66.65 57.9 66.66 61 64 z"/>
<path style="fill:#1f1f1f" d="M37 66 C36.73 68.02 34.9 66.32 34 66 C34.27 63.98 36.1 65.68 37 66 z"/>
<path style="fill:#1d1e1e" d="M44 65 L45 65 C45.15 66.18 43.66 66.02 43 66 L44 65 z"/>
<path style="fill:#f6f6f6" d="M53 66 C51.12 66.14 53.14 64.12 53 66 z"/>
<path style="fill:#1e1e1e" d="M57 65 C58.88 64.86 56.86 66.88 57 65 z"/>
<path style="fill:#a7a8a8" d="M32 66 L33 70 L33 72 C31.17 72.03 30.12 68.82 31 67 L31 66 L32 66 z"/>
<path style="fill:#474848" d="M34 66 L35 69 L33 70 L32 66 L34 66 z"/>
<path style="fill:#9f9f9f" d="M37 66 L39 66 C38.78 67.33 41.22 67.33 41 66 L43 66 L43 67 L37 69 L35 69 L34 66 C34.9 66.32 36.73 68.02 37 66 z"/>
<path style="fill:#1f2020" d="M41 66 C41.22 67.33 38.78 67.33 39 66 L41 66 z"/>
<path style="fill:#191919" d="M54 66 L53 67 L53 66 L54 66 z"/>
<path style="fill:#474747" d="M29 67 L31 67 C30.12 68.82 31.17 72.03 33 72 L33 74 C31.35 73.38 27.06 74.82 31 75 L30 76 L28 76 L27 75 L23 72 L27.75 68.25 C22.33 68.1 25.23 66.39 29 67 z"/>
<path style="fill:#3d3e3e" d="M43 67 C42.57 68.06 44.43 68.06 44 67 C45.18 66.85 45.02 68.34 45 69 L42 70 L37 69 L43 67 z"/>
<path style="fill:#f0f0f0" d="M44 67 C44.43 68.06 42.57 68.06 43 67 L44 67 z"/>
<path style="fill:#313232" d="M68 68 L66 70 L65 71 L63.25 70.75 C68.25 67.19 62.28 67.78 59 69 C56.12 65.96 66.75 66.34 68 68 z"/>
<path style="fill:#888888" d="M65 71 C65.02 71.66 65.18 73.15 64 73 L59 70 L59 69 C62.28 67.78 68.25 67.19 63.25 70.75 L65 71 z"/>
<path style="fill:#7c7d7d" d="M35 69 C34.78 70.33 37.22 70.33 37 69 L42 70 L42 71 C40.82 70.85 40.98 72.34 41 73 C40.03 76.66 35.4 70.08 33 74 L33 72 L33 70 L35 69 z"/>
<path style="fill:#2b2c2c" d="M37 69 C37.22 70.33 34.78 70.33 35 69 L37 69 z"/>
<path style="fill:#a3a3a3" d="M45 69 L46 70 L49 69 C48.98 69.66 48.82 71.15 50 71 L57 77 L56 77 C54.12 76.26 51.75 78.24 55 78 L47 79 L49 75 C51.98 73.17 47.35 72.87 47 75 C45.08 75.77 44.3 74.77 44 78 C42.94 77.57 42.94 79.43 44 79 C44.17 80 42.83 80.25 42.25 79.75 C40.51 73.01 35.34 82.57 32 78 L33 78 C38.54 78.92 34.45 73.15 31 75 C27.06 74.82 31.35 73.38 33 74 C35.4 70.08 40.03 76.66 41 73 C46.3 75.11 46.95 71.24 42 71 L42 70 L45 69 z"/>
<path style="fill:#454545" d="M50 71 C48.82 71.15 48.98 69.66 49 69 C50.18 68.85 50.02 70.34 50 71 z"/>
<path style="fill:#3d3d3d" d="M60 76 L59 77 L57 77 L50 71 C52.96 67.73 57.13 73.59 60 76 z"/>
<path style="fill:#333434" d="M59 70 L64 73 L61 74 C61.81 71.4 50.45 70.13 59 70 z"/>
<path style="fill:#979797" d="M66 70 L65 71 L66 70 z"/>
<path style="fill:#c2c3c3" d="M26 71 C32.06 69.85 28.89 75.25 26 71 z"/>
<path style="fill:#454646" d="M42 71 C46.95 71.24 46.3 75.11 41 73 C40.98 72.34 40.82 70.85 42 71 z"/>
<path style="fill:#272727" d="M47 72 C48.88 71.86 46.86 73.88 47 72 z"/>
<path style="fill:#2c2c2c" d="M49 75 L47 75 C47.35 72.87 51.98 73.17 49 75 z"/>
<path style="fill:#a4a4a4" d="M28 76 L27 75 L28 76 z"/>
<path style="fill:#777878" d="M33 78 C35.3 75.52 31.18 75.64 31 78 C29.82 78.15 29.98 76.66 30 76 L31 75 C34.45 73.15 38.54 78.92 33 78 z"/>
<path style="fill:#737474" d="M47 75 L49 75 L47 79 C46.73 81.02 44.9 79.32 44 79 L44 78 C44.3 74.77 45.08 75.77 47 75 z"/>
<path style="fill:#2f2f2f" d="M33 78 L32 78 L31 78 C31.18 75.64 35.3 75.52 33 78 z"/>
<path style="fill:#a8a8a8" d="M60 76 L59 77 L60 76 z"/>
<path style="fill:#2c2d2d" d="M56 77 L55 78 C51.75 78.24 54.12 76.26 56 77 z"/>
<path style="fill:#171717" d="M44 78 L44 79 C42.94 79.43 42.94 77.57 44 78 z"/>
</svg>
