<?xml version="1.0" standalone="yes"?>
<svg width="87" height="97">
<path style="fill:#fdfefe" d="M87 0 L87 97 L0 97 L0 0 L87 0 z"/>
<path style="fill:#656666" d="M57 28 L48 28 C49.66 26.35 55.34 26.35 57 28 z"/>
<path style="fill:#9e9f9f" d="M32 28 C32.15 29.18 30.66 29.02 30 29 C29.85 27.82 31.34 27.98 32 28 z"/>
<path style="fill:#040404" d="M39 28 C38.85 29.18 40.34 29.02 41 29 L38 33 L33 33 C32.05 33.19 30.06 32.41 30 34 L29 34 L28 35 L27 36 L26 36 L24 38 L23 39 L22 42 C20.82 41.85 20.98 43.34 21 44 C19.35 45.34 19.35 50.66 21 52 C20.98 52.66 20.82 54.15 22 54 C21.98 54.66 21.82 56.15 23 56 L24 57 L24 58 L26 60 L27 60 L28 61 L29 61 L30 62 L32 62 C33.03 63.64 37.97 63.64 39 62 L41 62 L43 60 C43.66 60.02 45.15 60.18 45 59 L46 58 L47 57 L48 56 L49 53 L50 52 L50 44 L49 43 L49 42 L48 41 L48 40 L47 39 C45.46 36.22 46.57 33.97 50 34 L51 35 L52 36 C51.98 36.66 51.82 38.15 53 38 L53 39 L54 40 L54 41 L55 42 L55 45 L55 51 L55 54 L54 55 L53 58 L52 59 L51 60 L50 61 L44 66 L42 66 L41 67 L38 67 L34 67 L30 67 L29 66 L27 66 L26 65 C26.15 63.82 24.66 63.98 24 64 L23 63 L22 62 L21 61 L20 60 L19 59 L18 58 L18 57 L17 56 L17 55 C17.02 54.34 17.18 52.85 16 53 L16 50 L16 46 L16 42 L17 41 L17 40 L18 39 L18 38 L19 37 L20 36 L20 35 L21 34 L22 33 L23 32 L24 32 L25 31 L26 30 L30 29 C30.66 29.02 32.15 29.18 32 28 L39 28 z"/>
<path style="fill:#6c6d6d" d="M41 29 C40.34 29.02 38.85 29.18 39 28 C39.66 27.98 41.15 27.82 41 29 z"/>
<path style="fill:#a1a1a1" d="M46 28 L45 29 L46 28 z"/>
<path style="fill:#040403" d="M48 28 L57 28 L60 28 L61 29 L62 29 L63 30 L65 31 L66 32 L67 33 L68 34 L69 35 L70 36 L70 37 L71 38 L71 39 L72 40 L72 42 L72 52 L72 55 L71 56 C69.82 55.85 69.98 57.34 70 58 C68.82 57.85 68.98 59.34 69 60 L68 61 L67 62 L66 63 L65 64 L60 66 L59 66 L48 66 L47 66 L51 62 L56 62 C57.55 61.94 60.71 62.68 60 60 L61 60 L62 59 L63 58 L64 57 L65 56 C66.18 56.15 66.02 54.66 66 54 L67 52 L68 51 L68 44 C68.02 43.34 68.18 41.85 67 42 C67.02 41.34 67.18 39.85 66 40 L65 39 L64 38 L64 37 L63 36 L62 35 L61 35 L60 34 L59 34 L58 33 L57 33 C55.97 31.36 51.03 31.36 50 33 C47.42 32.81 44.57 34.36 43 36 L42 37 L41 38 L40 39 L40 40 C38.82 39.85 38.98 41.34 39 42 L38 50 C37.98 50.66 37.82 52.15 39 52 L39 53 L40 54 C39.98 54.66 39.82 56.15 41 56 L42 57 L43 58 L43 60 C42.34 59.98 40.85 59.82 41 61 L39 61 L37 59 L36 58 C36.02 57.34 36.18 55.85 35 56 C35.02 55.34 35.18 53.85 34 54 L34 52 L34 42 L34 40 L35 39 L35 38 L36 37 L36 36 L37 35 L38 34 L43 30 L44 29 L45 29 L46 28 L48 28 z"/>
<path style="fill:#929292" d="M61 29 L60 28 L61 29 z"/>
<path style="fill:#959295" d="M43 30 L38 34 L38 33 L41 29 L43 30 z"/>
<path style="fill:#a6a6a6" d="M44 29 L43 30 L44 29 z"/>
<path style="fill:#858585" d="M63 30 L62 29 L63 30 z"/>
<path style="fill:#868686" d="M26 30 L25 31 L26 30 z"/>
<path style="fill:#5f5f5f" d="M25 31 L24 32 L25 31 z"/>
<path style="fill:#999999" d="M66 32 L65 31 L66 32 z"/>
<path style="fill:#989898" d="M23 32 L22 33 L23 32 z"/>
<path style="fill:#6b6b68" d="M57 33 L50 33 C51.03 31.36 55.97 31.36 57 33 z"/>
<path style="fill:#737373" d="M67 33 L66 32 L67 33 z"/>
<path style="fill:#848484" d="M22 33 L21 34 L22 33 z"/>
<path style="fill:#8c8b8c" d="M33 33 C32.94 34.59 30.95 33.81 30 34 C30.06 32.41 32.05 33.19 33 33 z"/>
<path style="fill:#fbfbfa" d="M38 33 L38 34 L37 35 L36 36 L36 37 L35 38 L35 39 L34 40 L34 42 C32.34 43.99 32.34 50.01 34 52 L34 54 C33.98 54.66 33.82 56.15 35 56 C34.98 56.66 34.82 58.15 36 58 L37 59 C36.54 60.35 37.65 61.46 39 61 L41 61 L41 62 L39 62 L32 62 L30 62 L29 61 L28 61 L27 60 L26 60 C26.46 58.65 25.35 57.54 24 58 L24 57 L23 56 C23.02 55.34 23.18 53.85 22 54 C22.02 53.34 22.18 51.85 21 52 L21 44 C22.18 44.15 22.02 42.66 22 42 L23 39 L24 38 C25.35 38.46 26.46 37.35 26 36 L27 36 L28 35 L29 34 L30 34 C30.95 33.81 32.94 34.59 33 33 L38 33 z"/>
<path style="fill:#7b8182" d="M50 33 L50 34 C46.57 33.97 45.46 36.22 47 39 L43 36 C44.57 34.36 47.42 32.81 50 33 z"/>
<path style="fill:#f9f8f8" d="M57 33 L58 33 L59 34 L60 34 L61 35 L62 35 L63 36 L64 37 L64 38 L65 39 L66 40 C65.98 40.66 65.82 42.15 67 42 C66.98 42.66 66.82 44.15 68 44 L68 51 L67 52 L66 54 C64.82 53.85 64.98 55.34 65 56 L64 57 L63 58 L62 59 L61 60 L60 60 L56 62 L51 62 L50 61 L51 60 L52 59 L53 58 L54 55 L55 54 L55 51 C56.62 50.27 56.62 45.73 55 45 L55 42 L54 41 L54 40 L53 39 L53 38 C53.02 37.34 53.18 35.85 52 36 L51 35 L50 34 L50 33 L57 33 z"/>
<path style="fill:#58585a" d="M59 34 L58 33 L59 34 z"/>
<path style="fill:#8d8d8d" d="M68 34 L67 33 L68 34 z"/>
<path style="fill:#9b9b9b" d="M21 34 L20 35 L21 34 z"/>
<path style="fill:#828282" d="M29 34 L28 35 L29 34 z"/>
<path style="fill:#959c95" d="M38 34 L37 35 L38 34 z"/>
<path style="fill:#797979" d="M51 35 L50 34 L51 35 z"/>
<path style="fill:#717173" d="M61 35 L60 34 L61 35 z"/>
<path style="fill:#8c8c8c" d="M69 35 L68 34 L69 35 z"/>
<path style="fill:#989898" d="M28 35 L27 36 L28 35 z"/>
<path style="fill:#848b84" d="M37 35 L36 36 L37 35 z"/>
<path style="fill:#979797" d="M52 36 L51 35 L52 36 z"/>
<path style="fill:#61615f" d="M63 36 L62 35 L63 36 z"/>
<path style="fill:#919191" d="M70 36 L69 35 L70 36 z"/>
<path style="fill:#575757" d="M20 36 L19 37 L20 36 z"/>
<path style="fill:#a0a1a1" d="M26 36 C26.46 37.35 25.35 38.46 24 38 L26 36 z"/>
<path style="fill:#6a6e6d" d="M43 36 L42 37 L43 36 z"/>
<path style="fill:#f9fbf8" d="M47 39 L48 40 L48 41 L49 42 L49 43 L50 44 L50 52 L49 53 L48 56 L47 57 L46 58 L45 59 L43 58 L42 57 L41 56 C39.82 56.15 39.98 54.66 40 54 L39 53 L39 52 C39.02 51.34 39.18 49.85 38 50 L39 42 C40.18 42.15 40.02 40.66 40 40 L40 39 L41 38 L42 37 L43 36 L47 39 z"/>
<path style="fill:#898a85" d="M53 38 C51.82 38.15 51.98 36.66 52 36 C53.18 35.85 53.02 37.34 53 38 z"/>
<path style="fill:#6b6b69" d="M64 37 L63 36 L64 37 z"/>
<path style="fill:#7a7a7a" d="M19 37 L18 38 L19 37 z"/>
<path style="fill:#90958f" d="M36 37 L35 38 L36 37 z"/>
<path style="fill:#898d90" d="M42 37 L41 38 L42 37 z"/>
<path style="fill:#808080" d="M71 38 L70 37 L71 38 z"/>
<path style="fill:#6a6a6a" d="M24 38 L23 39 L24 38 z"/>
<path style="fill:#5d6162" d="M41 38 L40 39 L41 38 z"/>
<path style="fill:#a4a4a4" d="M65 39 L64 38 L65 39 z"/>
<path style="fill:#7a7a7a" d="M18 39 L17 40 L18 39 z"/>
<path style="fill:#828781" d="M35 39 L34 40 L35 39 z"/>
<path style="fill:#a1a5a8" d="M48 40 L47 39 L48 40 z"/>
<path style="fill:#6f6f6d" d="M54 40 L53 39 L54 40 z"/>
<path style="fill:#a1a1a1" d="M66 40 L65 39 L66 40 z"/>
<path style="fill:#686868" d="M72 40 L71 39 L72 40 z"/>
<path style="fill:#848681" d="M40 40 C40.02 40.66 40.18 42.15 39 42 C38.98 41.34 38.82 39.85 40 40 z"/>
<path style="fill:#989898" d="M67 42 C65.82 42.15 65.98 40.66 66 40 C67.18 39.85 67.02 41.34 67 42 z"/>
<path style="fill:#9f9f9f" d="M17 41 L16 42 L17 41 z"/>
<path style="fill:#9c9c9a" d="M49 42 L48 41 L49 42 z"/>
<path style="fill:#7c7c7c" d="M55 42 L54 41 L55 42 z"/>
<path style="fill:#a4a5a5" d="M22 42 C22.02 42.66 22.18 44.15 21 44 C20.98 43.34 20.82 41.85 22 42 z"/>
<path style="fill:#38382f" d="M34 42 L34 52 C32.34 50.01 32.34 43.99 34 42 z"/>
<path style="fill:#6e6e6e" d="M68 44 C66.82 44.15 66.98 42.66 67 42 C68.18 41.85 68.02 43.34 68 44 z"/>
<path style="fill:#323232" d="M72 52 L72 42 C73.66 43.99 73.66 50.01 72 52 z"/>
<path style="fill:#82837d" d="M50 44 L49 43 L50 44 z"/>
<path style="fill:#797979" d="M21 44 L21 52 C19.35 50.66 19.35 45.34 21 44 z"/>
<path style="fill:#86868a" d="M55 51 L55 45 C56.62 45.73 56.62 50.27 55 51 z"/>
<path style="fill:#b3b4b4" d="M16 46 L16 50 C14.45 49.81 14.45 46.19 16 46 z"/>
<path style="fill:#7a7a78" d="M39 52 C37.82 52.15 37.98 50.66 38 50 C39.18 49.85 39.02 51.34 39 52 z"/>
<path style="fill:#585858" d="M68 51 L67 52 L68 51 z"/>
<path style="fill:#999999" d="M22 54 C20.82 54.15 20.98 52.66 21 52 C22.18 51.85 22.02 53.34 22 54 z"/>
<path style="fill:#747570" d="M50 52 L49 53 L50 52 z"/>
<path style="fill:#959595" d="M17 55 C15.82 55.15 15.98 53.66 16 53 C17.18 52.85 17.02 54.34 17 55 z"/>
<path style="fill:#959792" d="M40 54 L39 53 L40 54 z"/>
<path style="fill:#979797" d="M23 56 C21.82 56.15 21.98 54.66 22 54 C23.18 53.85 23.02 55.34 23 56 z"/>
<path style="fill:#81837e" d="M35 56 C33.82 56.15 33.98 54.66 34 54 C35.18 53.85 35.02 55.34 35 56 z"/>
<path style="fill:#a2a2a2" d="M55 54 L54 55 L55 54 z"/>
<path style="fill:#979898" d="M66 54 C66.02 54.66 66.18 56.15 65 56 C64.98 55.34 64.82 53.85 66 54 z"/>
<path style="fill:#a2a2a2" d="M72 55 L71 56 L72 55 z"/>
<path style="fill:#8d8d8d" d="M18 57 L17 56 L18 57 z"/>
<path style="fill:#a4a4a4" d="M24 57 L23 56 L24 57 z"/>
<path style="fill:#8d928c" d="M36 58 C34.82 58.15 34.98 56.66 35 56 C36.18 55.85 36.02 57.34 36 58 z"/>
<path style="fill:#a3a8a2" d="M42 57 L41 56 L42 57 z"/>
<path style="fill:#878c87" d="M48 56 L47 57 L48 56 z"/>
<path style="fill:#838383" d="M65 56 L64 57 L65 56 z"/>
<path style="fill:#737373" d="M71 56 C71.02 56.66 71.18 58.15 70 58 C69.98 57.34 69.82 55.85 71 56 z"/>
<path style="fill:#8c918b" d="M43 58 L42 57 L43 58 z"/>
<path style="fill:#9a9f99" d="M47 57 L46 58 L47 57 z"/>
<path style="fill:#888888" d="M19 59 L18 58 L19 59 z"/>
<path style="fill:#808080" d="M26 60 L24 58 C25.35 57.54 26.46 58.65 26 60 z"/>
<path style="fill:#959998" d="M37 59 L36 58 L37 59 z"/>
<path style="fill:#828585" d="M45 59 C45.15 60.18 43.66 60.02 43 60 L43 58 L45 59 z"/>
<path style="fill:#848887" d="M46 58 L45 59 L46 58 z"/>
<path style="fill:#959593" d="M53 58 L52 59 L53 58 z"/>
<path style="fill:#8a8a8c" d="M63 58 L62 59 L63 58 z"/>
<path style="fill:#7a7b7b" d="M70 58 C70.02 58.66 70.18 60.15 69 60 C68.98 59.34 68.82 57.85 70 58 z"/>
<path style="fill:#898989" d="M20 60 L19 59 L20 60 z"/>
<path style="fill:#777c7c" d="M39 61 C37.65 61.46 36.54 60.35 37 59 L39 61 z"/>
<path style="fill:#707070" d="M52 59 L51 60 L52 59 z"/>
<path style="fill:#6c6c6c" d="M62 59 L61 60 L62 59 z"/>
<path style="fill:#787878" d="M21 61 L20 60 L21 61 z"/>
<path style="fill:#797979" d="M28 61 L27 60 L28 61 z"/>
<path style="fill:#797f7f" d="M43 60 L41 62 L41 61 C40.85 59.82 42.34 59.98 43 60 z"/>
<path style="fill:#626262" d="M51 60 L50 61 L51 60 z"/>
<path style="fill:#535350" d="M60 60 C60.71 62.68 57.55 61.94 56 62 L60 60 z"/>
<path style="fill:#808080" d="M69 60 L68 61 L69 60 z"/>
<path style="fill:#575757" d="M22 62 L21 61 L22 62 z"/>
<path style="fill:#797979" d="M30 62 L29 61 L30 62 z"/>
<path style="fill:#8d8b8d" d="M50 61 L51 62 L47 66 L44 66 L50 61 z"/>
<path style="fill:#858585" d="M68 61 L67 62 L68 61 z"/>
<path style="fill:#9ba0a3" d="M39 62 C37.97 63.64 33.03 63.64 32 62 L39 62 z"/>
<path style="fill:#737373" d="M67 62 L66 63 L67 62 z"/>
<path style="fill:#686868" d="M24 64 L23 63 L24 64 z"/>
<path style="fill:#8a8a8a" d="M66 63 L65 64 L66 63 z"/>
<path style="fill:#6d6d6d" d="M26 65 C25.34 65.02 23.85 65.18 24 64 C24.66 63.98 26.15 63.82 26 65 z"/>
<path style="fill:#7b7b7b" d="M27 66 L26 65 L27 66 z"/>
<path style="fill:#747474" d="M30 67 L29 66 L30 67 z"/>
<path style="fill:#606060" d="M42 66 L41 67 L42 66 z"/>
<path style="fill:#ababab" d="M48 66 L48 67 L47 66 L48 66 z"/>
<path style="fill:#2b2c2c" d="M59 66 L59 67 L48 67 L48 66 L59 66 z"/>
<path style="fill:#a7a7a7" d="M60 66 L59 67 L59 66 L60 66 z"/>
<path style="fill:#7f7f7f" d="M38 67 C37.81 68.55 34.19 68.55 34 67 L38 67 z"/>
</svg>
