<?xml version="1.0" standalone="yes"?>
<svg width="87" height="97">
<path style="fill:#fdfdfd" d="M87 0 L87 97 L0 97 L0 0 L87 0 z"/>
<path style="fill:#818181" d="M47 24 L38 24 C39.66 22.35 45.34 22.35 47 24 z"/>
<path style="fill:#020202" d="M38 24 L47 24 L49 24 C48.85 25.18 50.34 25.02 51 25 L53 25 C52.85 26.18 54.34 26.02 55 26 L56 27 L59 29 L60 30 L61 31 L62 32 L63 34 L64 35 L64 36 C63.98 36.66 63.82 38.15 65 38 L65 40 L66 46 L67 46 C66.85 47.18 68.34 47.02 69 47 L70 48 L74 52 L75 53 L75 54 C74.98 54.66 74.82 56.15 76 56 L76 61 C74.41 61.06 75.19 63.05 75 64 L75 65 L74 66 L73 67 L72 69 L71 70 L69 71 L68 72 L66 72 C65.34 71.98 63.85 71.82 64 73 L63 73 L56 73 L55 73 C55.15 71.82 53.66 71.98 53 72 L52 72 L51 71 C51.15 69.82 49.66 69.98 49 70 L48 69 L47 68 L46 66 L45 65 L45 64 C45.02 63.34 45.18 61.85 44 62 L44 61 L44 55 L45 54 L45 53 L46 52 L46 51 L45 50 C43.12 48.01 40.77 49.97 40 52 L41 53 L42 57 L42 61 L40 67 L39 68 L38 69 L37 70 L36 71 L35 71 L34 72 L31 73 L22 73 C22.15 71.82 20.66 71.98 20 72 L19 72 L18 71 C17.34 71.02 15.85 71.18 16 70 L15 69 L14 68 L13 67 L12 66 L12 65 L11 64 L11 62 L11 55 L11 54 L12 53 L12 52 L13 51 L14 50 L15 49 L16 48 L17 47 L20 46 L21 40 L21 39 C22.18 39.15 22.02 37.66 22 37 L22 36 L23 35 L23 34 L24 33 L29 28 L30 27 L31 27 L32 26 C32.66 26.02 34.15 26.18 34 25 L38 24 z"/>
<path style="fill:#5f5f5f" d="M51 25 C50.34 25.02 48.85 25.18 49 24 C49.66 23.98 51.15 23.82 51 25 z"/>
<path style="fill:#7a7b7b" d="M34 25 C34.15 26.18 32.66 26.02 32 26 C31.85 24.82 33.34 24.98 34 25 z"/>
<path style="fill:#adaeae" d="M55 26 C54.34 26.02 52.85 26.18 53 25 C53.66 24.98 55.15 24.82 55 26 z"/>
<path style="fill:#565656" d="M32 26 L31 27 L32 26 z"/>
<path style="fill:#8e8e8e" d="M56 27 L55 26 L56 27 z"/>
<path style="fill:#717171" d="M30 27 L29 28 L30 27 z"/>
<path style="fill:#9e9e9e" d="M60 30 L59 29 L60 30 z"/>
<path style="fill:#929292" d="M61 31 L60 30 L61 31 z"/>
<path style="fill:#939393" d="M62 32 L61 31 L62 32 z"/>
<path style="fill:#868686" d="M24 33 L23 34 L24 33 z"/>
<path style="fill:#929292" d="M64 35 L63 34 L64 35 z"/>
<path style="fill:#616161" d="M23 35 L22 36 L23 35 z"/>
<path style="fill:#727272" d="M65 38 C63.82 38.15 63.98 36.66 64 36 C65.18 35.85 65.02 37.34 65 38 z"/>
<path style="fill:#696969" d="M22 37 C22.02 37.66 22.18 39.15 21 39 C20.98 38.34 20.82 36.85 22 37 z"/>
<path style="fill:#888989" d="M21 40 L20 46 L21 40 z"/>
<path style="fill:#494a4a" d="M66 46 L65 40 L66 46 z"/>
<path style="fill:#868787" d="M69 47 C68.34 47.02 66.85 47.18 67 46 C67.66 45.98 69.15 45.82 69 47 z"/>
<path style="fill:#7e7e7e" d="M17 47 L16 48 L17 47 z"/>
<path style="fill:#717171" d="M70 48 L69 47 L70 48 z"/>
<path style="fill:#5c5c5c" d="M16 48 L15 49 L16 48 z"/>
<path style="fill:#e1e2e2" d="M45 50 L46 51 L46 52 L45 53 L45 54 L44 55 L44 61 L43 61 L42 57 L41 53 L40 52 C40.77 49.97 43.12 48.01 45 50 z"/>
<path style="fill:#797979" d="M14 50 L13 51 L14 50 z"/>
<path style="fill:#626262" d="M46 51 L45 50 L46 51 z"/>
<path style="fill:#8a8a8a" d="M13 51 L12 52 L13 51 z"/>
<path style="fill:#5e5e5e" d="M41 53 L40 52 L41 53 z"/>
<path style="fill:#8f8f8f" d="M46 52 L45 53 L46 52 z"/>
<path style="fill:#9c9c9c" d="M75 53 L74 52 L75 53 z"/>
<path style="fill:#676767" d="M12 53 L11 54 L12 53 z"/>
<path style="fill:#8b8b8b" d="M45 54 L44 55 L45 54 z"/>
<path style="fill:#7b7c7c" d="M76 56 C74.82 56.15 74.98 54.66 75 54 C76.18 53.85 76.02 55.34 76 56 z"/>
<path style="fill:#5c5c5c" d="M11 55 L11 62 C9.364 60.97 9.364 56.03 11 55 z"/>
<path style="fill:#7a7b7b" d="M43 61 L42 61 L42 57 L43 61 z"/>
<path style="fill:#696a6a" d="M76 61 C75.81 61.95 76.59 63.94 75 64 C75.19 63.05 74.41 61.06 76 61 z"/>
<path style="fill:#636464" d="M45 64 C43.82 64.15 43.98 62.66 44 62 C45.18 61.85 45.02 63.34 45 64 z"/>
<path style="fill:#666666" d="M12 65 L11 64 L12 65 z"/>
<path style="fill:#878787" d="M46 66 L45 65 L46 66 z"/>
<path style="fill:#959595" d="M75 65 L74 66 L75 65 z"/>
<path style="fill:#858585" d="M13 67 L12 66 L13 67 z"/>
<path style="fill:#5a5a5a" d="M74 66 L73 67 L74 66 z"/>
<path style="fill:#5b5b5b" d="M14 68 L13 67 L14 68 z"/>
<path style="fill:#8e8e8e" d="M40 67 L39 68 L40 67 z"/>
<path style="fill:#767676" d="M39 68 L38 69 L39 68 z"/>
<path style="fill:#9f9f9f" d="M48 69 L47 68 L48 69 z"/>
<path style="fill:#565656" d="M16 70 L15 69 L16 70 z"/>
<path style="fill:#696969" d="M38 69 L37 70 L38 69 z"/>
<path style="fill:#8a8a8a" d="M49 70 L48 69 L49 70 z"/>
<path style="fill:#9a9a9a" d="M72 69 L71 70 L72 69 z"/>
<path style="fill:#999999" d="M37 70 L36 71 L37 70 z"/>
<path style="fill:#7b7c7c" d="M51 71 C50.34 71.02 48.85 71.18 49 70 C49.66 69.98 51.15 69.82 51 71 z"/>
<path style="fill:#595959" d="M19 72 L18 71 L19 72 z"/>
<path style="fill:#777777" d="M35 71 L34 72 L35 71 z"/>
<path style="fill:#8b8b8b" d="M52 72 L51 71 L52 72 z"/>
<path style="fill:#a7a7a7" d="M69 71 L68 72 L69 71 z"/>
<path style="fill:#666666" d="M22 73 C21.34 73.02 19.85 73.18 20 72 C20.66 71.98 22.15 71.82 22 73 z"/>
<path style="fill:#838484" d="M55 73 C54.34 73.02 52.85 73.18 53 72 C53.66 71.98 55.15 71.82 55 73 z"/>
<path style="fill:#535454" d="M66 72 C66.15 73.18 64.66 73.02 64 73 C63.85 71.82 65.34 71.98 66 72 z"/>
<path style="fill:#a3a3a3" d="M31 73 C29.34 74.65 23.66 74.65 22 73 L31 73 z"/>
<path style="fill:#969696" d="M63 73 C61.97 74.64 57.03 74.64 56 73 L63 73 z"/>
</svg>
