<?xml version="1.0" standalone="yes"?>
<svg width="87" height="97">
<path style="fill:#fdfdfd" d="M87 0 L87 97 L0 97 L0 0 L87 0 z"/>
<path style="fill:#898a8a" d="M40 17 C39.94 18.59 37.95 17.81 37 18 C37.06 16.41 39.05 17.19 40 17 z"/>
<path style="fill:#090a0a" d="M47 17 L51 18 L52 18 C51.85 19.18 53.34 19.02 54 19 L57 20 L58 21 L59 21 L60 22 L61 22 L62 23 L63 24 L67 28 L68 29 L69 30 L70 32 L71 33 L71 34 L72 35 L72 36 C71.98 36.66 71.82 38.15 73 38 L73 39 C72.98 39.66 72.82 41.15 74 41 L74 43 L74 52 L74 54 C72.82 53.85 72.98 55.34 73 56 L73 58 C71.82 57.85 71.98 59.34 72 60 L70 64 L69 65 L68 67 L67 68 L66 69 L65 70 L64 71 L63 72 L62 73 L60 74 L59 75 L58 75 L57 76 L56 76 C55.34 75.98 53.85 75.82 54 77 L53 77 C52.34 76.98 50.85 76.82 51 78 L49 78 L38 78 L36 78 C36.15 76.82 34.66 76.98 34 77 L29 75 L28 74 L27 74 L26 73 L25 72 L19 66 L18 65 L17 63 L16 62 L15 59 C15.02 58.34 15.18 56.85 14 57 L14 54 C14.02 53.34 14.18 51.85 13 52 L13 42 C14.18 42.15 14.02 40.66 14 40 L15 36 L16 35 L16 34 L17 33 L17 32 L18 31 L20 28 L21 27 L22 26 L23 25 L24 24 L26 23 L27 22 L28 21 L29 21 L30 20 L31 20 L32 19 L33 19 C33.66 19.02 35.15 19.18 35 18 L37 18 C37.95 17.81 39.94 18.59 40 17 L47 17 z"/>
<path style="fill:#8c8c8c" d="M51 18 L47 17 L51 18 z"/>
<path style="fill:#9b9b9b" d="M35 18 C35.15 19.18 33.66 19.02 33 19 C32.85 17.82 34.34 17.98 35 18 z"/>
<path style="fill:#858585" d="M54 19 C53.34 19.02 51.85 19.18 52 18 C52.66 17.98 54.15 17.82 54 19 z"/>
<path style="fill:#939393" d="M32 19 L31 20 L32 19 z"/>
<path style="fill:#7f7f7f" d="M30 20 L29 21 L30 20 z"/>
<path style="fill:#5f5f5f" d="M58 21 L57 20 L58 21 z"/>
<path style="fill:#a9a9a9" d="M28 21 L27 22 L28 21 z"/>
<path style="fill:#727272" d="M60 22 L59 21 L60 22 z"/>
<path style="fill:#606060" d="M27 22 L26 23 L27 22 z"/>
<path style="fill:#6b6b6b" d="M39 22 L41 24 C37.31 26.99 37.85 31.57 38 36 L37 36 C38.91 27.48 30.16 32.7 26 33 C29.48 29.26 39.52 30.04 38 24 L37 23 C36.85 21.82 38.34 21.98 39 22 z"/>
<path style="fill:#a8a9a9" d="M49 22 L48 25 L46 24 C45.81 22.45 42.19 22.45 42 24 L41 24 L39 22 L49 22 z"/>
<path style="fill:#757676" d="M55 25 C46.13 20.99 50.4 30.87 56 31 C52.03 29.94 49.94 32.03 51 36 L49 38 C49.05 33.34 51.01 29.14 48 25 L49 22 L55 25 z"/>
<path style="fill:#aaaaaa" d="M62 23 L61 22 L62 23 z"/>
<path style="fill:#848484" d="M37 23 L38 24 L29 27 C30.53 24.47 34.08 23.07 37 23 z"/>
<path style="fill:#6e6f6f" d="M46 24 L45 24 C43.33 29.97 43.33 40.03 45 46 L44 47 L42 46 L42 45 C43.67 39.37 43.67 29.63 42 24 C42.19 22.45 45.81 22.45 46 24 z"/>
<path style="fill:#7c7c7c" d="M63 24 L62 23 L63 24 z"/>
<path style="fill:#959595" d="M24 24 L23 25 L24 24 z"/>
<path style="fill:#0a0a0a" d="M38 24 C39.52 30.04 29.48 29.26 26 33 L24 33 L29 27 L38 24 z"/>
<path style="fill:#040505" d="M42 24 C43.67 29.63 43.67 39.37 42 45 L41 44 L40 42 L39 41 L38 36 C37.85 31.57 37.31 26.99 41 24 L42 24 z"/>
<path style="fill:#272727" d="M45 24 L46 44 L45 46 C43.33 40.03 43.33 29.97 45 24 z"/>
<path style="fill:#060707" d="M46 24 L48 25 C51.01 29.14 49.05 33.34 49 38 L47 43 L46 44 L45 24 L46 24 z"/>
<path style="fill:#0a0a0a" d="M55 25 L62 32 L56 31 C50.4 30.87 46.13 20.99 55 25 z"/>
<path style="fill:#797979" d="M23 25 L22 26 L23 25 z"/>
<path style="fill:#808080" d="M64 32 L62 32 L55 25 C58.88 25.36 61.8 29.04 64 32 z"/>
<path style="fill:#787878" d="M22 26 L21 27 L22 26 z"/>
<path style="fill:#7b7b7b" d="M21 27 L20 28 L21 27 z"/>
<path style="fill:#828383" d="M29 27 L24 33 L23 33 C23.31 30.33 26.33 27.31 29 27 z"/>
<path style="fill:#6b6b6b" d="M68 29 L67 28 L68 29 z"/>
<path style="fill:#949494" d="M69 30 L68 29 L69 30 z"/>
<path style="fill:#8b8b8b" d="M18 31 L17 32 L18 31 z"/>
<path style="fill:#090a0a" d="M37 36 L36 36 L26 36 L24 36 L26 33 C30.16 32.7 38.91 27.48 37 36 z"/>
<path style="fill:#070707" d="M56 31 L64 36 L62 36 L51 36 C49.94 32.03 52.03 29.94 56 31 z"/>
<path style="fill:#676767" d="M62 32 L64 32 C65.97 32.68 66.8 35.15 67 37 L66 39 C66.54 43.35 64.8 47.04 64 51 L63 50 C63.32 45.92 66.64 40.5 64 37 L64 36 L56 31 L62 32 z"/>
<path style="fill:#999999" d="M71 33 L70 32 L71 33 z"/>
<path style="fill:#757575" d="M17 33 L16 34 L17 33 z"/>
<path style="fill:#8b8b8b" d="M23 33 C22.26 34.69 22.7 38.44 20 38 C20.2 36.15 21.03 33.68 23 33 z"/>
<path style="fill:#5e5e5e" d="M24 33 L26 33 L24 36 L23 37 C22.74 41.6 23.19 46 25 50 L24 50 C21.45 46.67 21.09 33.92 19 44 C19.02 43.34 19.18 41.85 18 42 C18.02 40.56 18.76 38.61 20 38 C22.7 38.44 22.26 34.69 23 33 L24 33 z"/>
<path style="fill:#9b9b9b" d="M72 35 L71 34 L72 35 z"/>
<path style="fill:#777777" d="M16 35 L15 36 L16 35 z"/>
<path style="fill:#f4f5f5" d="M24 36 L26 36 C27.99 37.66 34.01 37.66 36 36 L37 36 L38 36 L39 41 L40 42 L41 44 L42 45 L42 46 L34 48 L32 48 L30 48 L29 44 L28 43 L28 42 L27 41 L23 37 L24 36 z"/>
<path style="fill:#474848" d="M36 36 C34.01 37.66 27.99 37.66 26 36 L36 36 z"/>
<path style="fill:#f5f5f5" d="M51 36 C53.31 37.66 59.69 37.66 62 36 L64 36 L64 37 L63 38 L62 39 L61 40 L60 42 L59 43 L59 44 L58 45 L58 47 L56 48 L53 48 C52.27 46.38 47.73 46.38 47 48 L46 48 C45.34 48.02 43.85 48.18 44 47 L45 46 L46 44 L47 43 L49 38 L51 36 z"/>
<path style="fill:#505050" d="M62 36 C59.69 37.66 53.31 37.66 51 36 L62 36 z"/>
<path style="fill:#838383" d="M73 38 C71.82 38.15 71.98 36.66 72 36 C73.18 35.85 73.02 37.34 73 38 z"/>
<path style="fill:#0d0d0d" d="M27 41 L28 42 L28 43 L29 44 L30 48 L25 50 C23.19 46 22.74 41.6 23 37 L27 41 z"/>
<path style="fill:#0a0b0b" d="M64 37 C66.64 40.5 63.32 45.92 63 50 C61.15 49.8 58.68 48.97 58 47 L58 45 L59 44 L59 43 L60 42 L61 40 L62 39 L63 38 L64 37 z"/>
<path style="fill:#545555" d="M69 42 C69.02 42.66 69.18 44.15 68 44 C68.23 42.17 67.5 39.85 66 39 L67 37 C68.5 37.85 69.23 40.17 69 42 z"/>
<path style="fill:#7e7e7e" d="M63 38 L62 39 L63 38 z"/>
<path style="fill:#0a0b0b" d="M24 50 L24 52 L23 53 C20.56 54.03 20.93 57.23 19 54 L19 44 C21.09 33.92 21.45 46.67 24 50 z"/>
<path style="fill:#909090" d="M62 39 L61 40 L62 39 z"/>
<path style="fill:#070707" d="M68 44 L68 51 C67.94 52.55 68.68 55.71 66 55 L64 51 C64.8 47.04 66.54 43.35 66 39 C67.5 39.85 68.23 42.17 68 44 z"/>
<path style="fill:#8a8b8b" d="M74 41 C72.82 41.15 72.98 39.66 73 39 C74.18 38.85 74.02 40.34 74 41 z"/>
<path style="fill:#a5a6a6" d="M14 40 C14.02 40.66 14.18 42.15 13 42 C12.98 41.34 12.82 39.85 14 40 z"/>
<path style="fill:#999999" d="M28 42 L27 41 L28 42 z"/>
<path style="fill:#929292" d="M40 42 L39 41 L40 42 z"/>
<path style="fill:#949595" d="M19 44 L19 54 L18 42 C19.18 41.85 19.02 43.34 19 44 z"/>
<path style="fill:#9c9c9c" d="M60 42 L59 43 L60 42 z"/>
<path style="fill:#404040" d="M70 45 L68 51 L68 44 C69.18 44.15 69.02 42.66 69 42 C70.59 42.06 69.81 44.05 70 45 z"/>
<path style="fill:#979797" d="M29 44 L28 43 L29 44 z"/>
<path style="fill:#606060" d="M47 43 L46 44 L47 43 z"/>
<path style="fill:#9d9e9e" d="M74 52 L74 43 C75.65 44.66 75.65 50.34 74 52 z"/>
<path style="fill:#7a7a7a" d="M42 45 L41 44 L42 45 z"/>
<path style="fill:#9e9e9e" d="M59 44 L58 45 L59 44 z"/>
<path style="fill:#5f5f5f" d="M70 45 C70.41 49.97 69.58 55.38 67 59 C67.02 58.34 67.18 56.85 66 57 C64.82 57.15 64.98 55.66 65 55 L66 55 C68.68 55.71 67.94 52.55 68 51 L70 45 z"/>
<path style="fill:#acacac" d="M44 47 C43.85 48.18 45.34 48.02 46 48 L46 49 L45 49 L43 49 C43.15 47.82 41.66 47.98 41 48 L34 48 L42 46 L44 47 z"/>
<path style="fill:#8a8a8a" d="M53 48 L47 48 C47.73 46.38 52.27 46.38 53 48 z"/>
<path style="fill:#828383" d="M58 47 C58.68 48.97 61.15 49.8 63 50 L64 51 L66 55 L65 55 L56 48 L58 47 z"/>
<path style="fill:#838484" d="M30 48 L32 48 C30.05 49.83 26.79 51.4 24 52 L24 50 L25 50 L30 48 z"/>
<path style="fill:#070808" d="M34 48 L41 48 C35.62 52.52 28.63 56.37 22 59 L22 58 L23 53 L24 52 C26.79 51.4 30.05 49.83 32 48 L34 48 z"/>
<path style="fill:#6d6d6d" d="M43 49 C43.02 49.66 43.18 51.15 42 51 L23 60 L22 59 C28.63 56.37 35.62 52.52 41 48 C41.66 47.98 43.15 47.82 43 49 z"/>
<path style="fill:#090909" d="M47 48 L53 48 L56 48 L65 55 C64.98 55.66 64.82 57.15 66 57 C66.67 59.11 64.42 59.21 63 59 C59.92 55.87 55.32 53.26 51 52 C50.32 50.03 47.85 49.2 46 49 L46 48 L47 48 z"/>
<path style="fill:#f5f6f6" d="M45 49 L45 51 L46 52 L46 53 L47 54 L48 56 L49 57 L50 58 L50 60 L48 63 L47 64 L47 65 L46 66 L45 69 C43.82 68.85 43.98 70.34 44 71 L43 71 L43 70 C43.02 69.34 43.18 67.85 42 68 L41 65 L40 64 L39 62 L38 61 L37 60 L37 59 L40 55 L41 54 L41 53 L42 52 L42 51 C43.18 51.15 43.02 49.66 43 49 L45 49 z"/>
<path style="fill:#0b0c0c" d="M46 49 C46.68 50.97 49.15 51.8 51 52 C54.08 55.13 58.68 57.74 63 59 C66.02 63.65 57.63 63.55 55 62 C54.74 60.71 53.34 59.67 52 60 L50 58 L49 57 L48 56 L47 54 L46 53 L46 52 L45 51 L45 49 L46 49 z"/>
<path style="fill:#747474" d="M51 52 C49.15 51.8 46.68 50.97 46 49 C47.85 49.2 50.32 50.03 51 52 z"/>
<path style="fill:#0a0b0b" d="M42 51 L42 52 L41 53 L41 54 L40 55 L37 59 C32.88 60.04 28.64 65.38 24 62 C22.82 62.15 22.98 60.66 23 60 L42 51 z"/>
<path style="fill:#a1a1a1" d="M46 52 L45 51 L46 52 z"/>
<path style="fill:#5a5a5a" d="M14 54 C12.82 54.15 12.98 52.66 13 52 C14.18 51.85 14.02 53.34 14 54 z"/>
<path style="fill:#a0a0a0" d="M24 52 L23 53 L24 52 z"/>
<path style="fill:#767676" d="M42 52 L41 53 L42 52 z"/>
<path style="fill:#717272" d="M63 59 C58.68 57.74 54.08 55.13 51 52 C55.32 53.26 59.92 55.87 63 59 z"/>
<path style="fill:#7a7a7a" d="M23 53 L22 58 L20 58 L19 54 C20.93 57.23 20.56 54.03 23 53 z"/>
<path style="fill:#919191" d="M47 54 L46 53 L47 54 z"/>
<path style="fill:#848484" d="M41 54 L40 55 L41 54 z"/>
<path style="fill:#616262" d="M74 54 C74.02 54.66 74.18 56.15 73 56 C72.98 55.34 72.82 53.85 74 54 z"/>
<path style="fill:#999999" d="M49 57 L48 56 L49 57 z"/>
<path style="fill:#a1a1a1" d="M15 59 C13.82 59.15 13.98 57.66 14 57 C15.18 56.85 15.02 58.34 15 59 z"/>
<path style="fill:#bfc0c0" d="M22 58 L22 59 L23 60 C22.98 60.66 22.82 62.15 24 62 L23 63 L21 60 L20 59 L20 58 L22 58 z"/>
<path style="fill:#949494" d="M50 58 L49 57 L50 58 z"/>
<path style="fill:#939393" d="M67 59 L64 64 L62 64 L56 64 L55 64 L55 62 C57.63 63.55 66.02 63.65 63 59 C64.42 59.21 66.67 59.11 66 57 C67.18 56.85 67.02 58.34 67 59 z"/>
<path style="fill:#a0a0a0" d="M52 60 L50 60 L50 58 L52 60 z"/>
<path style="fill:#969696" d="M73 58 C73.02 58.66 73.18 60.15 72 60 C71.98 59.34 71.82 57.85 73 58 z"/>
<path style="fill:#636363" d="M21 60 L20 59 L21 60 z"/>
<path style="fill:#797a7a" d="M37 59 L37 60 C28.96 62.67 37.65 67.07 40 71 L39 71 C34.93 68.05 30.37 60.67 25 65 L23 63 L24 62 C28.64 65.38 32.88 60.04 37 59 z"/>
<path style="fill:#090909" d="M37 60 L38 61 L39 62 L40 64 L41 65 L42 68 C41.98 68.66 41.82 70.15 43 70 L43 71 L40 71 C37.65 67.07 28.96 62.67 37 60 z"/>
<path style="fill:#0e0e0e" d="M52 60 C52.26 61.29 53.66 62.33 55 62 L55 64 L49 70 L44 71 C45.18 71.15 45.02 69.66 45 69 L46 66 L47 65 L47 64 L48 63 L50 60 L52 60 z"/>
<path style="fill:#828282" d="M55 62 C53.66 62.33 52.26 61.29 52 60 C53.34 59.67 54.74 60.71 55 62 z"/>
<path style="fill:#6b6b6b" d="M39 62 L38 61 L39 62 z"/>
<path style="fill:#959595" d="M17 63 L16 62 L17 63 z"/>
<path style="fill:#9b9b9b" d="M48 63 L47 64 L48 63 z"/>
<path style="fill:#090a0a" d="M39 71 L31 70 C30.74 68.71 29.34 67.67 28 68 L27 67 L25 65 C30.37 60.67 34.93 68.05 39 71 z"/>
<path style="fill:#646464" d="M41 65 L40 64 L41 65 z"/>
<path style="fill:#686969" d="M55 64 L56 64 C54.22 66.23 52.05 69.7 49 70 L55 64 z"/>
<path style="fill:#070808" d="M62 64 L58 69 L49 70 C52.05 69.7 54.22 66.23 56 64 L62 64 z"/>
<path style="fill:#626262" d="M64 64 C62.57 65.95 60.68 68.96 58 69 L62 64 L64 64 z"/>
<path style="fill:#6f6f6f" d="M70 64 L69 65 L70 64 z"/>
<path style="fill:#6f6f6f" d="M19 66 L18 65 L19 66 z"/>
<path style="fill:#7c7d7d" d="M27 67 C25.65 67.46 24.54 66.35 25 65 L27 67 z"/>
<path style="fill:#666666" d="M47 65 L46 66 L47 65 z"/>
<path style="fill:#979797" d="M28 68 L27 67 L28 68 z"/>
<path style="fill:#989898" d="M68 67 L67 68 L68 67 z"/>
<path style="fill:#777777" d="M31 70 C29.66 70.33 28.26 69.29 28 68 C29.34 67.67 30.74 68.71 31 70 z"/>
<path style="fill:#5a5a5a" d="M43 70 C41.82 70.15 41.98 68.66 42 68 C43.18 67.85 43.02 69.34 43 70 z"/>
<path style="fill:#7d7d7d" d="M67 68 L66 69 L67 68 z"/>
<path style="fill:#969696" d="M45 69 C45.02 69.66 45.18 71.15 44 71 C43.98 70.34 43.82 68.85 45 69 z"/>
<path style="fill:#636363" d="M58 69 C51.54 75.61 37.76 75.95 31 70 L39 71 L40 71 L43 71 L44 71 L49 70 L58 69 z"/>
<path style="fill:#787878" d="M66 69 L65 70 L66 69 z"/>
<path style="fill:#737373" d="M65 70 L64 71 L65 70 z"/>
<path style="fill:#8b8b8b" d="M64 71 L63 72 L64 71 z"/>
<path style="fill:#5f5f5f" d="M26 73 L25 72 L26 73 z"/>
<path style="fill:#a6a6a6" d="M63 72 L62 73 L63 72 z"/>
<path style="fill:#969696" d="M27 74 L26 73 L27 74 z"/>
<path style="fill:#646464" d="M29 75 L28 74 L29 75 z"/>
<path style="fill:#a9a9a9" d="M60 74 L59 75 L60 74 z"/>
<path style="fill:#a2a2a2" d="M58 75 L57 76 L58 75 z"/>
<path style="fill:#8a8a8a" d="M56 76 C56.15 77.18 54.66 77.02 54 77 C53.85 75.82 55.34 75.98 56 76 z"/>
<path style="fill:#939393" d="M36 78 C35.34 78.02 33.85 78.18 34 77 C34.66 76.98 36.15 76.82 36 78 z"/>
<path style="fill:#828383" d="M53 77 C53.15 78.18 51.66 78.02 51 78 C50.85 76.82 52.34 76.98 53 77 z"/>
<path style="fill:#8d8d8d" d="M49 78 C46.69 79.66 40.31 79.66 38 78 L49 78 z"/>
</svg>
