<?xml version="1.0" standalone="yes"?>
<svg width="87" height="97">
<path style="fill:#fdfdfd" d="M87 0 L87 97 L0 97 L0 0 L87 0 z"/>
<path style="fill:#080808" d="M47 18 C46.85 19.18 48.34 19.02 49 19 C52.85 18.22 55.81 20.48 59 22 L60 23 L61 23 L62 24 L65 26 L66 27 L67 28 L69 31 L70 32 L72 36 L73 37 L73 38 C72.98 38.66 72.82 40.15 74 40 L74 42 L75 46 L75 54 L75 56 C73.82 55.85 73.98 57.34 74 58 L74 59 C72.82 58.85 72.98 60.34 73 61 L73 62 L72 63 L72 64 L71 65 L71 66 L70 67 L69 69 L68 70 L67 71 L66 72 L64 74 L63 75 L62 76 L61 76 L60 77 L56 79 C55.34 78.98 53.85 78.82 54 80 L52 80 C51.34 79.98 49.85 79.82 50 81 L48 81 L38 81 L37 81 C37.15 79.82 35.66 79.98 35 80 L33 80 C33.15 78.82 31.66 78.98 31 79 L29 78 L28 77 L27 77 L26 76 L24 75 L23 74 L22 73 L21 72 L20 71 L19 70 L18 69 L17 67 L16 66 L16 65 L15 64 L15 63 L14 62 L13 58 C13.02 57.34 13.18 55.85 12 56 L12 54 L12 46 L12 44 C13.18 44.15 13.02 42.66 13 42 L13 40 C14.18 40.15 14.02 38.66 14 38 L14 37 L15 36 L15 35 L16 34 L17 32 L18 31 L25 24 L26 23 L33 20 C33.66 20.02 35.15 20.18 35 19 L47 18 z"/>
<path style="fill:#5f6060" d="M49 19 C48.34 19.02 46.85 19.18 47 18 C47.66 17.98 49.15 17.82 49 19 z"/>
<path style="fill:#676868" d="M35 19 C35.15 20.18 33.66 20.02 33 20 C32.85 18.82 34.34 18.98 35 19 z"/>
<path style="fill:#5e5e5e" d="M60 23 L59 22 L60 23 z"/>
<path style="fill:#7f7f7f" d="M26 23 L25 24 L26 23 z"/>
<path style="fill:#7f7f7f" d="M62 24 L61 23 L62 24 z"/>
<path style="fill:#7b7b7b" d="M47 25 L39 25 C40.34 23.35 45.66 23.35 47 25 z"/>
<path style="fill:#a6a7a7" d="M38 25 C38.15 26.18 36.66 26.02 36 26 C35.85 24.82 37.34 24.98 38 25 z"/>
<path style="fill:#fafafa" d="M39 25 L47 25 L49 25 C48.85 26.18 50.34 26.02 51 26 L53 26 L54 27 L55 27 L56 28 L58 29 L59 30 L63 34 L64 35 L65 36 L65 37 L66 38 L67 41 C66.98 41.66 66.82 43.15 68 43 L68 44 L68 55 L68 57 L67 58 L66 62 L65 63 L64 64 L64 65 L63 66 L62 67 L61 68 L60 69 L59 70 L57 71 L56 72 C55.34 71.98 53.85 71.82 54 73 L50 74 C49.34 73.98 47.85 73.82 48 75 L41 75 L37 74 L36 74 C36.15 72.82 34.66 72.98 34 73 L31 72 L30 71 L28 70 L27 69 L26 68 L25 67 L24 66 L23 65 L22 63 L21 62 L21 61 L20 60 L20 58 C20.02 57.34 20.18 55.85 19 56 L19 55 L19 44 L19 43 C20.18 43.15 20.02 41.66 20 41 L22 36 L23 35 L24 34 L28 30 L29 29 L31 28 L32 27 L33 27 L34 26 L36 26 C36.66 26.02 38.15 26.18 38 25 L39 25 z"/>
<path style="fill:#a3a3a3" d="M51 26 C50.34 26.02 48.85 26.18 49 25 C49.66 24.98 51.15 24.82 51 26 z"/>
<path style="fill:#8e8e8e" d="M34 26 L33 27 L34 26 z"/>
<path style="fill:#9a9a9a" d="M54 27 L53 26 L54 27 z"/>
<path style="fill:#a4a4a4" d="M66 27 L65 26 L66 27 z"/>
<path style="fill:#8f8f8f" d="M32 27 L31 28 L32 27 z"/>
<path style="fill:#a5a5a5" d="M56 28 L55 27 L56 28 z"/>
<path style="fill:#a7a7a7" d="M67 28 L66 27 L67 28 z"/>
<path style="fill:#2f2f2f" d="M47 46 L45.75 29.25 C36.16 27.05 43.99 41.96 40 46 L40.25 28.25 C51.45 24.78 45.57 39.66 47 46 z"/>
<path style="fill:#9e9e9e" d="M29 29 L28 30 L29 29 z"/>
<path style="fill:#020202" d="M47 46 L65 47 L65 53 L47 53 L46 71 L41 71 L40 53 L22 53 L22 47 L40 46 C43.99 41.96 36.16 27.05 45.75 29.25 L47 46 z"/>
<path style="fill:#9c9c9c" d="M59 30 L58 29 L59 30 z"/>
<path style="fill:#6b6b6b" d="M18 31 L17 32 L18 31 z"/>
<path style="fill:#7b7b7b" d="M70 32 L69 31 L70 32 z"/>
<path style="fill:#a5a5a5" d="M16 34 L15 35 L16 34 z"/>
<path style="fill:#a4a4a4" d="M24 34 L23 35 L24 34 z"/>
<path style="fill:#9b9b9b" d="M64 35 L63 34 L64 35 z"/>
<path style="fill:#6b6b6b" d="M23 35 L22 36 L23 35 z"/>
<path style="fill:#616161" d="M65 36 L64 35 L65 36 z"/>
<path style="fill:#8e8e8e" d="M15 36 L14 37 L15 36 z"/>
<path style="fill:#919191" d="M73 37 L72 36 L73 37 z"/>
<path style="fill:#a4a4a4" d="M66 38 L65 37 L66 38 z"/>
<path style="fill:#8a8a8a" d="M14 38 C14.02 38.66 14.18 40.15 13 40 C12.98 39.34 12.82 37.85 14 38 z"/>
<path style="fill:#999a9a" d="M74 40 C72.82 40.15 72.98 38.66 73 38 C74.18 37.85 74.02 39.34 74 40 z"/>
<path style="fill:#858686" d="M20 41 C20.02 41.66 20.18 43.15 19 43 C18.98 42.34 18.82 40.85 20 41 z"/>
<path style="fill:#828383" d="M68 43 C66.82 43.15 66.98 41.66 67 41 C68.18 40.85 68.02 42.34 68 43 z"/>
<path style="fill:#888989" d="M13 42 C13.02 42.66 13.18 44.15 12 44 C11.98 43.34 11.82 41.85 13 42 z"/>
<path style="fill:#5f5f5f" d="M75 46 L74 42 L75 46 z"/>
<path style="fill:#999a9a" d="M19 44 L19 55 C17.34 52.69 17.34 46.31 19 44 z"/>
<path style="fill:#9b9b9b" d="M68 55 L68 44 C69.66 46.31 69.66 52.69 68 55 z"/>
<path style="fill:#c6c6c6" d="M12 46 L12 54 C10.35 52.66 10.35 47.34 12 46 z"/>
<path style="fill:#444444" d="M40 46 L22 47 L40 46 z"/>
<path style="fill:#424343" d="M65 47 L47 46 L65 47 z"/>
<path style="fill:#cbcccc" d="M75 54 L75 46 C76.65 47.34 76.65 52.66 75 54 z"/>
<path style="fill:#c6c7c7" d="M40 53 L40 54 L22 53 L40 53 z"/>
<path style="fill:#262626" d="M41 71 L40 71 L40 54 L40 53 L41 71 z"/>
<path style="fill:#2c2d2d" d="M47 53 L47 54 L47 71 L46 71 L47 53 z"/>
<path style="fill:#c6c7c7" d="M65 53 L47 54 L47 53 L65 53 z"/>
<path style="fill:#a8a9a9" d="M13 58 C11.82 58.15 11.98 56.66 12 56 C13.18 55.85 13.02 57.34 13 58 z"/>
<path style="fill:#a1a2a2" d="M20 58 C18.82 58.15 18.98 56.66 19 56 C20.18 55.85 20.02 57.34 20 58 z"/>
<path style="fill:#aaaaaa" d="M75 56 C75.02 56.66 75.18 58.15 74 58 C73.98 57.34 73.82 55.85 75 56 z"/>
<path style="fill:#878787" d="M68 57 L67 58 L68 57 z"/>
<path style="fill:#7f8080" d="M74 59 C74.02 59.66 74.18 61.15 73 61 C72.98 60.34 72.82 58.85 74 59 z"/>
<path style="fill:#797979" d="M21 61 L20 60 L21 61 z"/>
<path style="fill:#656565" d="M15 63 L14 62 L15 63 z"/>
<path style="fill:#6e6e6e" d="M22 63 L21 62 L22 63 z"/>
<path style="fill:#737373" d="M66 62 L65 63 L66 62 z"/>
<path style="fill:#656565" d="M73 62 L72 63 L73 62 z"/>
<path style="fill:#a5a5a5" d="M65 63 L64 64 L65 63 z"/>
<path style="fill:#767676" d="M16 65 L15 64 L16 65 z"/>
<path style="fill:#747474" d="M72 64 L71 65 L72 64 z"/>
<path style="fill:#6d6d6d" d="M24 66 L23 65 L24 66 z"/>
<path style="fill:#656565" d="M64 65 L63 66 L64 65 z"/>
<path style="fill:#888888" d="M17 67 L16 66 L17 67 z"/>
<path style="fill:#7c7c7c" d="M25 67 L24 66 L25 67 z"/>
<path style="fill:#727272" d="M63 66 L62 67 L63 66 z"/>
<path style="fill:#9e9e9e" d="M71 66 L70 67 L71 66 z"/>
<path style="fill:#888888" d="M26 68 L25 67 L26 68 z"/>
<path style="fill:#757575" d="M62 67 L61 68 L62 67 z"/>
<path style="fill:#7a7a7a" d="M27 69 L26 68 L27 69 z"/>
<path style="fill:#757575" d="M61 68 L60 69 L61 68 z"/>
<path style="fill:#9c9c9c" d="M19 70 L18 69 L19 70 z"/>
<path style="fill:#6e6e6e" d="M28 70 L27 69 L28 70 z"/>
<path style="fill:#6b6b6b" d="M60 69 L59 70 L60 69 z"/>
<path style="fill:#9d9d9d" d="M69 69 L68 70 L69 69 z"/>
<path style="fill:#8c8c8c" d="M20 71 L19 70 L20 71 z"/>
<path style="fill:#949494" d="M68 70 L67 71 L68 70 z"/>
<path style="fill:#5b5b5b" d="M21 72 L20 71 L21 72 z"/>
<path style="fill:#7c7c7c" d="M31 72 L30 71 L31 72 z"/>
<path style="fill:#a3a4a4" d="M41 71 L46 71 L47 71 C45.97 72.64 41.03 72.64 40 71 L41 71 z"/>
<path style="fill:#828282" d="M57 71 L56 72 L57 71 z"/>
<path style="fill:#616161" d="M67 71 L66 72 L67 71 z"/>
<path style="fill:#666666" d="M22 73 L21 72 L22 73 z"/>
<path style="fill:#606161" d="M56 72 C56.15 73.18 54.66 73.02 54 73 C53.85 71.82 55.34 71.98 56 72 z"/>
<path style="fill:#a4a5a5" d="M66 72 C66.46 73.35 65.35 74.46 64 74 L66 72 z"/>
<path style="fill:#959595" d="M23 74 L22 73 L23 74 z"/>
<path style="fill:#868686" d="M36 74 C35.34 74.02 33.85 74.18 34 73 C34.66 72.98 36.15 72.82 36 74 z"/>
<path style="fill:#959595" d="M24 75 L23 74 L24 75 z"/>
<path style="fill:#999999" d="M41 75 L37 74 L41 75 z"/>
<path style="fill:#737373" d="M50 74 C50.15 75.18 48.66 75.02 48 75 C47.85 73.82 49.34 73.98 50 74 z"/>
<path style="fill:#979797" d="M64 74 L63 75 L64 74 z"/>
<path style="fill:#a8a8a8" d="M63 75 L62 76 L63 75 z"/>
<path style="fill:#818181" d="M27 77 L26 76 L27 77 z"/>
<path style="fill:#888888" d="M61 76 L60 77 L61 76 z"/>
<path style="fill:#5d5d5d" d="M29 78 L28 77 L29 78 z"/>
<path style="fill:#9a9b9b" d="M33 80 C32.34 80.02 30.85 80.18 31 79 C31.66 78.98 33.15 78.82 33 80 z"/>
<path style="fill:#9fa0a0" d="M56 79 C56.15 80.18 54.66 80.02 54 80 C53.85 78.82 55.34 78.98 56 79 z"/>
<path style="fill:#7b7c7c" d="M37 81 C36.34 81.02 34.85 81.18 35 80 C35.66 79.98 37.15 79.82 37 81 z"/>
<path style="fill:#7a7a7a" d="M52 80 C52.15 81.18 50.66 81.02 50 81 C49.85 79.82 51.34 79.98 52 80 z"/>
<path style="fill:#a0a0a0" d="M48 81 C46.01 82.66 39.99 82.66 38 81 L48 81 z"/>
</svg>
