<?xml version="1.0" standalone="yes"?>
<svg width="87" height="97">
<path style="fill:#fcfcfc" d="M87 0 L87 97 L0 97 L0 0 L87 0 z"/>
<path style="fill:#929393" d="M49 14 L37 14 C39.64 12.34 46.36 12.34 49 14 z"/>
<path style="fill:#767777" d="M35 14 C35.15 15.18 33.66 15.02 33 15 C32.85 13.82 34.34 13.98 35 14 z"/>
<path style="fill:#040505" d="M37 14 L49 14 L54 15 C53.85 16.18 55.34 16.02 56 16 C55.85 17.18 57.34 17.02 58 17 L63 20 L64 21 L65 22 L66 23 L67 24 L68 25 L69 26 C68.67 27.34 69.71 28.74 71 29 L72 30 L72 31 L73 32 L73 33 C72.98 33.66 72.82 35.15 74 35 L74 36 L75 37 L75 40 L73 39 L72 38 L69 37 C68.27 35.38 63.73 35.38 63 37 C61.66 36.67 60.26 37.71 60 39 L59 40 C57.14 40.34 56.72 42.4 57 44 C55.45 44.19 55.45 47.81 57 48 L57 50 C56.98 50.66 56.82 52.15 58 52 L59 53 L60 54 L61 55 C60.85 56.18 62.34 56.02 63 56 C63.73 57.62 68.27 57.62 69 56 L72 55 C73.35 55.46 74.46 54.35 74 53 C75.18 52.85 75.02 54.34 75 55 L75 56 C73.82 55.85 73.98 57.34 74 58 C72.82 57.85 72.98 59.34 73 60 L72 63 L71 64 L71 65 L70 66 C68.82 65.85 68.98 67.34 69 68 L68 69 L67 70 L66 71 L65 72 C64.34 71.98 62.85 71.82 63 73 L62 74 L61 75 L57 77 L56 78 L54 78 L49 80 L48 80 L36 80 L35 80 C35.15 78.82 33.66 78.98 33 79 L32 79 C32.15 77.82 30.66 77.98 30 78 L29 78 L28 77 L27 77 L26 76 L25 76 L24 75 L21 73 L20 72 L19 71 L18 70 L17 69 L16 68 L15 67 L14 65 L13 64 C13.02 63.34 13.18 61.85 12 62 C12.02 61.34 12.18 59.85 11 60 C11.02 59.34 11.18 57.85 10 58 L9 54 L9 52 L10 52 L11 53 L11 54 C10.85 55.18 12.34 55.02 13 55 L14 55 L15 56 L21 56 C21.66 56.02 23.15 56.18 23 55 L26 52 L27 51 L27 50 C28.18 50.15 28.02 48.66 28 48 L28 44 C28.02 43.34 28.18 41.85 27 42 L26 40 L25 39 C25.15 37.82 23.66 37.98 23 38 C23.15 36.82 21.66 36.98 21 37 C19.97 35.36 15.03 35.36 14 37 C13.34 36.98 11.85 36.82 12 38 L11 39 C9.819 39.15 9.981 37.66 10 37 L10 36 C11.18 36.15 11.02 34.66 11 34 C12.18 34.15 12.02 32.66 12 32 C13.18 32.15 13.02 30.66 13 30 L13 29 L14 28 L15 27 C16.35 27.46 17.46 26.35 17 25 L18 24 L19 23 L20 22 L21 21 C22.35 21.46 23.46 20.35 23 19 L24 19 C24.66 19.02 26.15 19.18 26 18 L27 17 C27.66 17.02 29.15 17.18 29 16 L30 16 L31 15 L33 15 C33.66 15.02 35.15 15.18 35 14 L37 14 z"/>
<path style="fill:#919191" d="M31 15 L30 16 L31 15 z"/>
<path style="fill:#a0a1a1" d="M56 16 C55.34 16.02 53.85 16.18 54 15 C54.66 14.98 56.15 14.82 56 16 z"/>
<path style="fill:#7f7f7f" d="M29 16 C29.15 17.18 27.66 17.02 27 17 C26.85 15.82 28.34 15.98 29 16 z"/>
<path style="fill:#6d6d6d" d="M58 17 C57.34 17.02 55.85 17.18 56 16 C56.66 15.98 58.15 15.82 58 17 z"/>
<path style="fill:#717171" d="M27 17 L26 18 L27 17 z"/>
<path style="fill:#545555" d="M26 18 C26.15 19.18 24.66 19.02 24 19 C23.85 17.82 25.34 17.98 26 18 z"/>
<path style="fill:#696969" d="M23 19 C23.46 20.35 22.35 21.46 21 21 L23 19 z"/>
<path style="fill:#848484" d="M64 21 L63 20 L64 21 z"/>
<path style="fill:#5f5f5f" d="M21 21 L20 22 L21 21 z"/>
<path style="fill:#7d7d7d" d="M65 22 L64 21 L65 22 z"/>
<path style="fill:#5b5b5b" d="M20 22 L19 23 L20 22 z"/>
<path style="fill:#7d7d7d" d="M66 23 L65 22 L66 23 z"/>
<path style="fill:#595959" d="M19 23 L18 24 L19 23 z"/>
<path style="fill:#737373" d="M67 24 L66 23 L67 24 z"/>
<path style="fill:#505050" d="M17 25 C17.46 26.35 16.35 27.46 15 27 L17 25 z"/>
<path style="fill:#a3a3a3" d="M69 26 L68 25 L69 26 z"/>
<path style="fill:#6a6b6b" d="M71 29 C69.71 28.74 68.67 27.34 69 26 C70.29 26.26 71.33 27.66 71 29 z"/>
<path style="fill:#a9a9a9" d="M14 28 L13 29 L14 28 z"/>
<path style="fill:#a6a6a6" d="M72 30 L71 29 L72 30 z"/>
<path style="fill:#848585" d="M13 30 C13.02 30.66 13.18 32.15 12 32 C11.98 31.34 11.82 29.85 13 30 z"/>
<path style="fill:#8c8c8c" d="M73 32 L72 31 L73 32 z"/>
<path style="fill:#7d7d7d" d="M12 32 C12.02 32.66 12.18 34.15 11 34 C10.98 33.34 10.82 31.85 12 32 z"/>
<path style="fill:#7f8080" d="M74 35 C72.82 35.15 72.98 33.66 73 33 C74.18 32.85 74.02 34.34 74 35 z"/>
<path style="fill:#999999" d="M11 34 C11.02 34.66 11.18 36.15 10 36 C9.981 35.34 9.819 33.85 11 34 z"/>
<path style="fill:#9d9d9d" d="M21 37 L14 37 C15.03 35.36 19.97 35.36 21 37 z"/>
<path style="fill:#7d7d7d" d="M69 37 L63 37 C63.73 35.38 68.27 35.38 69 37 z"/>
<path style="fill:#a3a3a3" d="M75 37 L74 36 L75 37 z"/>
<path style="fill:#7a7b7b" d="M10 37 C9.981 37.66 9.819 39.15 11 39 C10.07 42.09 7.38 37.27 10 37 z"/>
<path style="fill:#8a8b8b" d="M14 37 C14.15 38.18 12.66 38.02 12 38 C11.85 36.82 13.34 36.98 14 37 z"/>
<path style="fill:#a1a2a2" d="M63 37 C62.74 38.29 61.34 39.33 60 39 C60.26 37.71 61.66 36.67 63 37 z"/>
<path style="fill:#8e8e8e" d="M12 38 L11 39 L12 38 z"/>
<path style="fill:#9e9e9e" d="M25 39 C24.34 39.02 22.85 39.18 23 38 C23.66 37.98 25.15 37.82 25 39 z"/>
<path style="fill:#858585" d="M73 39 L72 38 L73 39 z"/>
<path style="fill:#7b7b7b" d="M26 40 L25 39 L26 40 z"/>
<path style="fill:#969696" d="M60 39 L59 40 L60 39 z"/>
<path style="fill:#a9aaaa" d="M75 40 C78.36 42.33 71.83 41.81 73 39 L75 40 z"/>
<path style="fill:#b1b2b2" d="M59 40 C58.98 41.44 58.24 43.39 57 44 C56.72 42.4 57.14 40.34 59 40 z"/>
<path style="fill:#7e7e7e" d="M28 44 C26.82 44.15 26.98 42.66 27 42 C28.18 41.85 28.02 43.34 28 44 z"/>
<path style="fill:#6b6b6b" d="M57 44 L57 48 C55.45 47.81 55.45 44.19 57 44 z"/>
<path style="fill:#8a8a8a" d="M28 48 C28.02 48.66 28.18 50.15 27 50 C26.98 49.34 26.82 47.85 28 48 z"/>
<path style="fill:#a3a3a3" d="M58 52 C56.82 52.15 56.98 50.66 57 50 C58.18 49.85 58.02 51.34 58 52 z"/>
<path style="fill:#9d9d9d" d="M10 52 L9 52 C8.568 50.94 10.43 50.94 10 52 z"/>
<path style="fill:#9b9b9b" d="M27 51 L26 52 L27 51 z"/>
<path style="fill:#adadad" d="M75 55 C75.02 54.34 75.18 52.85 74 53 C73.94 48.14 78.25 54.02 75 55 z"/>
<path style="fill:#929292" d="M11 53 L10 52 L11 53 z"/>
<path style="fill:#a9a9a9" d="M60 54 L59 53 L60 54 z"/>
<path style="fill:#606060" d="M74 53 C74.46 54.35 73.35 55.46 72 55 L74 53 z"/>
<path style="fill:#919191" d="M10 58 L9 54 L10 58 z"/>
<path style="fill:#585858" d="M13 55 C12.34 55.02 10.85 55.18 11 54 C11.66 53.98 13.15 53.82 13 55 z"/>
<path style="fill:#9e9e9e" d="M61 55 L60 54 L61 55 z"/>
<path style="fill:#888888" d="M15 56 L14 55 L15 56 z"/>
<path style="fill:#5d5e5e" d="M23 55 C23.15 56.18 21.66 56.02 21 56 C20.85 54.82 22.34 54.98 23 55 z"/>
<path style="fill:#818282" d="M63 56 C62.34 56.02 60.85 56.18 61 55 C61.66 54.98 63.15 54.82 63 56 z"/>
<path style="fill:#4a4b4b" d="M69 56 C68.27 57.62 63.73 57.62 63 56 L69 56 z"/>
<path style="fill:#979797" d="M75 56 C75.02 56.66 75.18 58.15 74 58 C73.98 57.34 73.82 55.85 75 56 z"/>
<path style="fill:#727272" d="M74 58 C74.02 58.66 74.18 60.15 73 60 C72.98 59.34 72.82 57.85 74 58 z"/>
<path style="fill:#828282" d="M12 62 C10.82 62.15 10.98 60.66 11 60 C12.18 59.85 12.02 61.34 12 62 z"/>
<path style="fill:#a8a8a8" d="M13 64 C11.82 64.15 11.98 62.66 12 62 C13.18 61.85 13.02 63.34 13 64 z"/>
<path style="fill:#686868" d="M72 63 L71 64 L72 63 z"/>
<path style="fill:#7c7c7c" d="M14 65 L13 64 L14 65 z"/>
<path style="fill:#757575" d="M71 65 L70 66 L71 65 z"/>
<path style="fill:#8d8d8d" d="M70 66 C70.02 66.66 70.18 68.15 69 68 C68.98 67.34 68.82 65.85 70 66 z"/>
<path style="fill:#8b8b8b" d="M16 68 L15 67 L16 68 z"/>
<path style="fill:#7b7b7b" d="M17 69 L16 68 L17 69 z"/>
<path style="fill:#a4a4a4" d="M69 68 L68 69 L69 68 z"/>
<path style="fill:#7e7e7e" d="M18 70 L17 69 L18 70 z"/>
<path style="fill:#9b9b9b" d="M68 69 L67 70 L68 69 z"/>
<path style="fill:#787878" d="M19 71 L18 70 L19 71 z"/>
<path style="fill:#818181" d="M67 70 L66 71 L67 70 z"/>
<path style="fill:#797979" d="M20 72 L19 71 L20 72 z"/>
<path style="fill:#8d8d8d" d="M21 73 L20 72 L21 73 z"/>
<path style="fill:#7f7f7f" d="M65 72 C65.15 73.18 63.66 73.02 63 73 C62.85 71.82 64.34 71.98 65 72 z"/>
<path style="fill:#828282" d="M62 74 L61 75 L62 74 z"/>
<path style="fill:#a0a0a0" d="M25 76 L24 75 L25 76 z"/>
<path style="fill:#989898" d="M27 77 L26 76 L27 77 z"/>
<path style="fill:#a8a8a8" d="M29 78 L28 77 L29 78 z"/>
<path style="fill:#a3a3a3" d="M57 77 L56 78 L57 77 z"/>
<path style="fill:#808080" d="M32 79 C31.34 79.02 29.85 79.18 30 78 C30.66 77.98 32.15 77.82 32 79 z"/>
<path style="fill:#7e7f7f" d="M54 78 C53.54 80.37 50.83 80.08 49 80 L54 78 z"/>
<path style="fill:#989898" d="M35 80 C34.34 80.02 32.85 80.18 33 79 C33.66 78.98 35.15 78.82 35 80 z"/>
<path style="fill:#a7a8a8" d="M48 80 C45.36 81.66 38.64 81.66 36 80 L48 80 z"/>
</svg>
