<?xml version="1.0" standalone="yes"?>
<svg width="87" height="97">
<path style="fill:#fdfdfd" d="M87 0 L87 97 L0 97 L0 0 L87 0 z"/>
<path style="fill:#737373" d="M48 22 L37 22 C39.31 20.34 45.69 20.34 48 22 z"/>
<path style="fill:#6e6f6f" d="M36 22 C36.15 23.18 34.66 23.02 34 23 C33.85 21.82 35.34 21.98 36 22 z"/>
<path style="fill:#060606" d="M37 22 L48 22 L49 22 C48.85 23.18 50.34 23.02 51 23 L53 23 L54 24 L56 25 L57 26 L58 27 L59 28 L59 29 L59 34 L59 35 L57 37 C56.1 37.32 54.27 39.02 54 37 C52.61 34.47 49.92 32.19 47 32 C42.92 32.05 38.68 31.57 35 33 L28 37 L27 36 L26 34 L26 29 L27 27 L28 26 L29 25 L31 24 L32 23 L34 23 C34.66 23.02 36.15 23.18 36 22 L37 22 z"/>
<path style="fill:#696969" d="M51 23 C50.34 23.02 48.85 23.18 49 22 C49.66 21.98 51.15 21.82 51 23 z"/>
<path style="fill:#aaaaaa" d="M32 23 L31 24 L32 23 z"/>
<path style="fill:#9c9c9c" d="M54 24 L53 23 L54 24 z"/>
<path style="fill:#909090" d="M29 25 L28 26 L29 25 z"/>
<path style="fill:#858585" d="M57 26 L56 25 L57 26 z"/>
<path style="fill:#848484" d="M28 26 L27 27 L28 26 z"/>
<path style="fill:#7e7e7e" d="M58 27 L57 26 L58 27 z"/>
<path style="fill:#a4a4a4" d="M59 28 L58 27 L59 28 z"/>
<path style="fill:#6e6e6e" d="M26 29 L26 34 C24.4 33.55 24.4 29.45 26 29 z"/>
<path style="fill:#5c5c5c" d="M59 34 L59 29 C60.6 29.45 60.6 33.55 59 34 z"/>
<path style="fill:#dbdcdc" d="M47 32 L46 33 L40 33 L35 34 L35 33 C38.68 31.57 42.92 32.05 47 32 z"/>
<path style="fill:#a2a3a3" d="M54 37 L53 37 L46 33 L47 32 C49.92 32.19 52.61 34.47 54 37 z"/>
<path style="fill:#c4c5c5" d="M35 33 L35 34 C31.29 36.39 32.51 42.54 35 37 C34.98 37.66 34.82 39.15 36 39 C33.55 41.43 37.49 44.92 40 45 L41 45 L40 47 L38 46 L34 43 L32 41 C31.66 39.14 29.6 38.72 28 39 L28 38 L28 37 L35 33 z"/>
<path style="fill:#2a2a2a" d="M40 33 C39.85 34.18 41.34 34.02 42 34 L37 36 L36 36 L35 37 C32.51 42.54 31.29 36.39 35 34 L40 33 z"/>
<path style="fill:#101010" d="M46 33 L53 37 C53.46 38.35 52.35 39.46 51 39 C51.41 37.31 49.69 35.59 48 36 C46.81 34.59 44.07 34.04 42 34 C41.34 34.02 39.85 34.18 40 33 L46 33 z"/>
<path style="fill:#9c9c9c" d="M48 36 C47.34 35.98 45.85 35.82 46 37 C43.99 35.56 41.01 35.56 39 37 C39.15 35.82 37.66 35.98 37 36 L42 34 C44.07 34.04 46.81 34.59 48 36 z"/>
<path style="fill:#919292" d="M25 36 L20 36 C20.45 34.4 24.55 34.4 25 36 z"/>
<path style="fill:#9b9b9b" d="M59 35 L59 36 C59.15 37.18 57.66 37.02 57 37 L59 35 z"/>
<path style="fill:#8d8d8d" d="M65 36 L60 36 C60.45 34.4 64.55 34.4 65 36 z"/>
<path style="fill:#838484" d="M19 36 C19.15 37.18 17.66 37.02 17 37 C16.85 35.82 18.34 35.98 19 36 z"/>
<path style="fill:#070707" d="M20 36 L25 36 L26 36 C25.85 37.18 27.34 37.02 28 37 L28 38 C24.95 39.01 22.14 41.65 22 45 C20.38 45.73 20.38 50.27 22 51 C21.98 51.66 21.82 53.15 23 53 C22.98 53.66 22.82 55.15 24 55 L25 56 L26 57 C27.08 58.36 27.08 59.64 26 61 C21.6 61.34 17.19 61.18 14 58 L13 57 L12 55 C12.02 54.34 12.18 52.85 11 53 L11 52 L11 45 L11 43 L12 42 L13 40 L14 39 L15 38 L16 37 L17 37 C17.66 37.02 19.15 37.18 19 36 L20 36 z"/>
<path style="fill:#909191" d="M27 36 L28 37 C27.34 37.02 25.85 37.18 26 36 L27 36 z"/>
<path style="fill:#a8a8a8" d="M36 36 L35 37 L36 36 z"/>
<path style="fill:#fbfcfc" d="M37 36 C37.66 35.98 39.15 35.82 39 37 L39 38 C38.05 38.19 36.06 37.41 36 39 C34.82 39.15 34.98 37.66 35 37 L36 36 L37 36 z"/>
<path style="fill:#090a0a" d="M46 37 L46 38 C45.85 39.18 47.34 39.02 48 39 L49 39 L50 40 L50 42 C47.91 42.87 46.44 46.53 44 44 C44.59 42.49 43.58 38.1 42 41 C40.41 41.06 41.19 43.05 41 44 L40 45 C37.49 44.92 33.55 41.43 36 39 C36.95 38.81 38.94 39.59 39 38 L39 37 C41.01 35.56 43.99 35.56 46 37 z"/>
<path style="fill:#e9e9e9" d="M48 36 C49.69 35.59 51.41 37.31 51 39 C50.85 40.18 52.34 40.02 53 40 L53 41 L51 43 L50 43 L50 42 L50 40 L49 39 L48 39 C48.15 37.82 46.66 37.98 46 38 L46 37 C45.85 35.82 47.34 35.98 48 36 z"/>
<path style="fill:#050606" d="M60 36 L65 36 L69 37 L70 38 L71 39 L72 40 L73 41 L73 42 L74 43 L74 44 C73.98 44.66 73.82 46.15 75 46 L75 51 C73.82 50.85 73.98 52.34 74 53 L74 54 L73 55 L72 57 L71 58 L70 59 L69 59 L68 60 L67 60 C66.34 59.98 64.85 59.82 65 61 L59 61 C57.92 59.64 57.92 58.36 59 57 C61.69 57.37 62.76 54.02 63 52 C64.64 50.97 64.64 46.03 63 45 C62.73 42.5 60.99 38.92 58 39 L57 37 C57.66 37.02 59.15 37.18 59 36 L60 36 z"/>
<path style="fill:#a2a2a2" d="M16 37 L15 38 L16 37 z"/>
<path style="fill:#c7c7c7" d="M54 37 C54.27 39.02 56.1 37.32 57 37 L58 39 L53 40 C52.34 40.02 50.85 40.18 51 39 C52.35 39.46 53.46 38.35 53 37 L54 37 z"/>
<path style="fill:#949494" d="M70 38 L69 37 L70 38 z"/>
<path style="fill:#8a8a8a" d="M15 38 L14 39 L15 38 z"/>
<path style="fill:#a6a7a7" d="M28 38 L28 39 C25.71 40.76 22.41 43.35 23 47 C21.82 47.15 21.98 45.66 22 45 C22.14 41.65 24.95 39.01 28 38 z"/>
<path style="fill:#989898" d="M39 38 C38.94 39.59 36.95 38.81 36 39 C36.06 37.41 38.05 38.19 39 38 z"/>
<path style="fill:#7f7f7f" d="M48 39 C47.34 39.02 45.85 39.18 46 38 C46.66 37.98 48.15 37.82 48 39 z"/>
<path style="fill:#767676" d="M71 39 L70 38 L71 39 z"/>
<path style="fill:#808080" d="M14 39 L13 40 L14 39 z"/>
<path style="fill:#1f2020" d="M32 41 L27 42 L26 43 L25 44 L25 46 C23.4 46.45 23.4 50.55 25 51 L26 54 L27 55 L31 55 L32 56 L32 57 L30 57 L26 57 L25 56 L24 55 C24.02 54.34 24.18 52.85 23 53 L23 51 L23 47 C22.41 43.35 25.71 40.76 28 39 C29.6 38.72 31.66 39.14 32 41 z"/>
<path style="fill:#868686" d="M50 40 L49 39 L50 40 z"/>
<path style="fill:#1a1a1a" d="M58 39 L62 46 L62 51 L59 57 L55 57 L54 57 L58 55 L59 54 L60 53 L60 51 C61.6 50.55 61.6 46.45 60 46 C60.62 43.61 58.46 40.81 56 41 L53 41 L53 40 L58 39 z"/>
<path style="fill:#afb0b0" d="M63 45 L62 46 L58 39 C60.99 38.92 62.73 42.5 63 45 z"/>
<path style="fill:#636363" d="M72 40 L71 39 L72 40 z"/>
<path style="fill:#525252" d="M44 44 L42 41 C43.58 38.1 44.59 42.49 44 44 z"/>
<path style="fill:#a9a9a9" d="M73 41 L72 40 L73 41 z"/>
<path style="fill:#989898" d="M32 41 L34 43 L31 43 L27 42 L32 41 z"/>
<path style="fill:#565757" d="M42 41 C41.81 41.95 42.59 43.94 41 44 C41.19 43.05 40.41 41.06 42 41 z"/>
<path style="fill:#e6e6e6" d="M44 44 L44 45 L41 45 L41 44 C42.59 43.94 41.81 41.95 42 41 L44 44 z"/>
<path style="fill:#939393" d="M56 41 L55 43 L51 43 L53 41 L56 41 z"/>
<path style="fill:#e7e7e7" d="M60 46 L59 46 L58 46 C58.15 44.82 56.66 44.98 56 45 C56.02 44.34 56.18 42.85 55 43 L56 41 C58.46 40.81 60.62 43.61 60 46 z"/>
<path style="fill:#a6a6a6" d="M12 42 L11 43 L12 42 z"/>
<path style="fill:#eeeeee" d="M27 42 L31 43 L30 43 C28.82 42.85 28.98 44.34 29 45 C28.34 44.98 26.85 44.82 27 46 L26 46 L25 46 L25 44 L26 43 L27 42 z"/>
<path style="fill:#a5a5a5" d="M50 42 L50 43 L47 47 L47 48 L45 50 L44 45 L44 44 C46.44 46.53 47.91 42.87 50 42 z"/>
<path style="fill:#959595" d="M74 43 L73 42 L74 43 z"/>
<path style="fill:#7c7c7c" d="M26 43 L25 44 L26 43 z"/>
<path style="fill:#757575" d="M30 43 C30.02 43.66 30.18 45.15 29 45 C28.98 44.34 28.82 42.85 30 43 z"/>
<path style="fill:#080808" d="M31 43 L34 43 L38 46 L34 48 C32.94 47.57 32.94 49.43 34 49 L38 49 L38 51 L35 54 L34 54 L31 54 L30 54 C30.02 53.34 30.18 51.85 29 52 L26 50 L26 46 L27 46 C27.66 46.02 29.15 46.18 29 45 C30.18 45.15 30.02 43.66 30 43 L31 43 z"/>
<path style="fill:#080808" d="M51 43 L55 43 C54.98 43.66 54.82 45.15 56 45 C55.85 46.18 57.34 46.02 58 46 L59 46 L59 50 L54 54 L51 54 L47 51 C46.29 48.32 49.45 49.06 51 49 C54.07 46.89 48.56 46.69 47 47 L50 43 L51 43 z"/>
<path style="fill:#5c5d5d" d="M56 45 C54.82 45.15 54.98 43.66 55 43 C56.18 42.85 56.02 44.34 56 45 z"/>
<path style="fill:#666666" d="M41 44 L41 45 L40 45 L41 44 z"/>
<path style="fill:#979898" d="M75 46 C73.82 46.15 73.98 44.66 74 44 C75.18 43.85 75.02 45.34 75 46 z"/>
<path style="fill:#515151" d="M11 45 L11 52 C9.364 50.97 9.364 46.03 11 45 z"/>
<path style="fill:#808080" d="M22 45 C21.98 45.66 21.82 47.15 23 47 L23 51 L22 51 C20.38 50.27 20.38 45.73 22 45 z"/>
<path style="fill:#8d8e8e" d="M29 45 C29.15 46.18 27.66 46.02 27 46 C26.85 44.82 28.34 44.98 29 45 z"/>
<path style="fill:#111111" d="M44 45 L45 50 L45 51 L40 50 L40 47 L41 45 L44 45 z"/>
<path style="fill:#868686" d="M58 46 C57.34 46.02 55.85 46.18 56 45 C56.66 44.98 58.15 44.82 58 46 z"/>
<path style="fill:#7e7e7e" d="M63 52 L62 51 L62 46 L63 45 C64.64 46.03 64.64 50.97 63 52 z"/>
<path style="fill:#878787" d="M25 46 L26 46 L26 50 L25 51 C23.4 50.55 23.4 46.45 25 46 z"/>
<path style="fill:#767676" d="M40 47 L40 50 L38 51 L38 49 C40.34 47.57 34.99 48.05 34 48 L38 46 L40 47 z"/>
<path style="fill:#8a8a8a" d="M60 46 C61.6 46.45 61.6 50.55 60 51 L59 50 L59 46 L60 46 z"/>
<path style="fill:#525353" d="M51 49 L47 48 L47 47 C48.56 46.69 54.07 46.89 51 49 z"/>
<path style="fill:#636363" d="M34 48 L34 49 C32.94 49.43 32.94 47.57 34 48 z"/>
<path style="fill:#f3f3f3" d="M38 49 L34 49 L34 48 C34.99 48.05 40.34 47.57 38 49 z"/>
<path style="fill:#dedfdf" d="M47 48 L51 49 C49.45 49.06 46.29 48.32 47 51 L47 52 L46 52 L45 51 L45 50 L47 48 z"/>
<path style="fill:#e7e8e8" d="M26 50 L29 52 C28.98 52.66 28.82 54.15 30 54 L31 54 L31 55 L27 55 L26 54 L25 51 L26 50 z"/>
<path style="fill:#b6b6b6" d="M40 50 L45 51 L46 52 C45.34 51.98 43.85 51.82 44 53 C42.41 53.06 43.19 55.05 43 56 C42.09 51.46 37.82 51.35 35 55 L35 54 L38 51 L40 50 z"/>
<path style="fill:#e2e2e2" d="M60 51 L60 53 L59 54 L58 55 L54 54 L59 50 L60 51 z"/>
<path style="fill:#e4e5e5" d="M23 51 L23 53 C21.82 53.15 21.98 51.66 22 51 L23 51 z"/>
<path style="fill:#9c9d9d" d="M51 54 L50 55 L47 52 L47 51 L51 54 z"/>
<path style="fill:#a9a9a9" d="M63 52 C62.76 54.02 61.69 57.37 59 57 L62 51 L63 52 z"/>
<path style="fill:#a2a3a3" d="M75 51 C75.02 51.66 75.18 53.15 74 53 C73.98 52.34 73.82 50.85 75 51 z"/>
<path style="fill:#838383" d="M30 54 C28.82 54.15 28.98 52.66 29 52 C30.18 51.85 30.02 53.34 30 54 z"/>
<path style="fill:#0d0d0d" d="M43 56 C44.59 55.94 43.81 53.95 44 53 C43.85 51.82 45.34 51.98 46 52 L47 52 L50 55 L46 60 C43.99 61.44 41.01 61.44 39 60 L35 55 C37.82 51.35 42.09 51.46 43 56 z"/>
<path style="fill:#878787" d="M12 55 C10.82 55.15 10.98 53.66 11 53 C12.18 52.85 12.02 54.34 12 55 z"/>
<path style="fill:#b9baba" d="M24 55 C22.82 55.15 22.98 53.66 23 53 C24.18 52.85 24.02 54.34 24 55 z"/>
<path style="fill:#646464" d="M44 53 C43.81 53.95 44.59 55.94 43 56 C43.19 55.05 42.41 53.06 44 53 z"/>
<path style="fill:#767676" d="M60 53 L59 54 L60 53 z"/>
<path style="fill:#959595" d="M27 55 L26 54 L27 55 z"/>
<path style="fill:#999a9a" d="M34 54 L32 56 L31 55 L31 54 L34 54 z"/>
<path style="fill:#ebebeb" d="M35 54 L35 55 L39 60 L38 61 L36 61 L35 60 C35.02 59.34 35.18 57.85 34 58 C34.15 56.82 32.66 56.98 32 57 L32 56 L34 54 L35 54 z"/>
<path style="fill:#e2e2e2" d="M51 54 L53 57 L50 60 L49 61 L47 61 L46 60 L50 55 L51 54 z"/>
<path style="fill:#7e7f7f" d="M54 54 L58 55 L54 57 L53 57 L51 54 L54 54 z"/>
<path style="fill:#a3a3a3" d="M74 54 L73 55 L74 54 z"/>
<path style="fill:#cdcdcd" d="M25 56 L24 55 L25 56 z"/>
<path style="fill:#c5c5c5" d="M26 57 L25 56 L26 57 z"/>
<path style="fill:#a8a8a8" d="M14 58 L13 57 L14 58 z"/>
<path style="fill:#8a8a8a" d="M30 57 L29 59 L26 62 L26 61 C27.08 59.64 27.08 58.36 26 57 L30 57 z"/>
<path style="fill:#c0c0c0" d="M32 57 C32.96 66.35 52.04 66.35 53 57 L54 57 L55 57 L56 59 C49.86 67.02 35.14 67.02 29 59 L30 57 L32 57 z"/>
<path style="fill:#262727" d="M34 58 C33.98 58.66 33.82 60.15 35 60 L36 61 L38 61 C39.66 62.65 45.34 62.65 47 61 L49 61 L50 60 L53 57 C52.04 66.35 32.96 66.35 32 57 C32.66 56.98 34.15 56.82 34 58 z"/>
<path style="fill:#888888" d="M59 57 C57.92 58.36 57.92 59.64 59 61 L59 62 L56 59 L55 57 L59 57 z"/>
<path style="fill:#999999" d="M72 57 L71 58 L72 57 z"/>
<path style="fill:#8a8b8b" d="M35 60 C33.82 60.15 33.98 58.66 34 58 C35.18 57.85 35.02 59.34 35 60 z"/>
<path style="fill:#939393" d="M71 58 L70 59 L71 58 z"/>
<path style="fill:#040505" d="M56 59 L59 62 L59 63 L59 68 L58 70 L57 71 L56 72 L55 72 L54 73 C53.34 72.98 51.85 72.82 52 74 L51 74 C50.34 73.98 48.85 73.82 49 75 L48 75 L37 75 L36 75 C36.15 73.82 34.66 73.98 34 74 C34.15 72.82 32.66 72.98 32 73 L31 73 L30 72 L27 69 L26 68 L26 67 L26 63 L26 62 L29 59 C35.14 67.02 49.86 67.02 56 59 z"/>
<path style="fill:#5e5e5e" d="M69 59 L68 60 L69 59 z"/>
<path style="fill:#7a7a7a" d="M36 61 L35 60 L36 61 z"/>
<path style="fill:#b8b9b9" d="M46 60 L47 61 C45.34 62.65 39.66 62.65 38 61 L39 60 C41.01 61.44 43.99 61.44 46 60 z"/>
<path style="fill:#878787" d="M50 60 L49 61 L50 60 z"/>
<path style="fill:#616262" d="M67 60 C67.15 61.18 65.66 61.02 65 61 C64.85 59.82 66.34 59.98 67 60 z"/>
<path style="fill:#5f5f5f" d="M26 63 L26 67 C24.45 66.81 24.45 63.19 26 63 z"/>
<path style="fill:#5f5f5f" d="M59 68 L59 63 C60.6 63.45 60.6 67.55 59 68 z"/>
<path style="fill:#585858" d="M27 69 L26 68 L27 69 z"/>
<path style="fill:#9c9c9c" d="M58 70 L57 71 L58 70 z"/>
<path style="fill:#a9a9a9" d="M57 71 L56 72 L57 71 z"/>
<path style="fill:#7a7a7a" d="M31 73 L30 72 L31 73 z"/>
<path style="fill:#676767" d="M55 72 L54 73 L55 72 z"/>
<path style="fill:#575858" d="M34 74 C33.34 74.02 31.85 74.18 32 73 C32.66 72.98 34.15 72.82 34 74 z"/>
<path style="fill:#9e9e9e" d="M54 73 C54.15 74.18 52.66 74.02 52 74 C51.85 72.82 53.34 72.98 54 73 z"/>
<path style="fill:#8f8f8f" d="M36 75 C35.34 75.02 33.85 75.18 34 74 C34.66 73.98 36.15 73.82 36 75 z"/>
<path style="fill:#8c8c8c" d="M51 74 C51.15 75.18 49.66 75.02 49 75 C48.85 73.82 50.34 73.98 51 74 z"/>
<path style="fill:#c2c2c2" d="M48 75 C45.69 76.66 39.31 76.66 37 75 L48 75 z"/>
</svg>
