<?xml version="1.0" standalone="yes"?>
<svg width="87" height="97">
<path style="fill:#fcfdfd" d="M87 0 L87 97 L0 97 L0 0 L87 0 z"/>
<path style="fill:#777777" d="M35 20 L31 20 C31.19 18.45 34.81 18.45 35 20 z"/>
<path style="fill:#0f1010" d="M35 20 C36.18 19.85 36.02 21.34 36 22 C34.45 22.19 34.45 25.81 36 26 L44 27 L45 28 C45.45 29.6 49.55 29.6 50 28 C48.89 23.26 48.54 19.4 55 21 L55 23 L55 24 C50.33 30.5 60.86 29.04 65 29 C66.59 29.06 65.81 31.05 66 32 L62 32 L61 32 C60.55 30.4 56.45 30.4 56 32 L57 34 L58 35 L59 36 L60 37 L65 39 L66 40 L67 41 L66 42 L64 42 L61 42 L58 41 L57 40 L54 35 C54.22 33.67 51.78 33.67 52 35 L50 37 L49 38 L48 39 L46 39 C45.5 37.53 45.05 36.36 42 37 C39.16 35.92 36.57 33.64 35 31 C35.22 29.67 32.78 29.67 33 31 L31 34 L30 35 L29 36 L36 38 C36.66 38.02 38.15 38.18 38 37 C39.34 36.67 40.74 37.71 41 39 L41 40 L40 40 L31 40 L29 41 L26 41 L25 40 L24 39 L20 39 L20 38 L23 37 L24 36 L29 31 C31.66 30.67 28.33 27.34 28 30 C27.34 30.02 25.85 30.18 26 29 L25 28 L25 27 L26 26 L31 25 C32.55 24.81 32.55 21.19 31 21 L31 20 L35 20 z"/>
<path style="fill:#999999" d="M31 25 L31 21 C32.55 21.19 32.55 24.81 31 25 z"/>
<path style="fill:#9c9c9c" d="M55 23 L55 21 C56.33 20.78 56.33 23.22 55 23 z"/>
<path style="fill:#575757" d="M36 22 L36 26 C34.45 25.81 34.45 22.19 36 22 z"/>
<path style="fill:#9f9f9f" d="M55 24 C53.04 31.22 62.61 25.89 65 29 C60.86 29.04 50.33 30.5 55 24 z"/>
<path style="fill:#aeaeae" d="M26 26 L25 27 C22.34 26.67 25.67 23.34 26 26 z"/>
<path style="fill:#999999" d="M45 28 L44 27 L45 28 z"/>
<path style="fill:#7f7f7f" d="M26 29 L25 28 L26 29 z"/>
<path style="fill:#4c4c4c" d="M43 29 L37 29 C37.73 27.38 42.27 27.38 43 29 z"/>
<path style="fill:#bbbcbc" d="M50 28 C49.55 29.6 45.45 29.6 45 28 L50 28 z"/>
<path style="fill:#898989" d="M29 31 L28 30 C28.33 27.34 31.66 30.67 29 31 z"/>
<path style="fill:#e7e7e7" d="M43 29 L44 31 L45 32 L47 32 C47.66 31.98 49.15 31.82 49 33 C45.96 37.93 39.32 32.1 37 29 L43 29 z"/>
<path style="fill:#676868" d="M35 31 L33 31 C32.78 29.67 35.22 29.67 35 31 z"/>
<path style="fill:#eceded" d="M35 31 C36.57 33.64 39.16 35.92 42 37 C43.94 38.44 44.13 39.28 41 39 C40.74 37.71 39.34 36.67 38 37 C37.34 36.98 35.85 36.82 36 38 L29 36 L30 35 L31 34 L33 31 L35 31 z"/>
<path style="fill:#686868" d="M45 32 L44 31 L45 32 z"/>
<path style="fill:#515151" d="M49 33 C49.15 31.82 47.66 31.98 47 32 C47.27 29.38 52.09 32.07 49 33 z"/>
<path style="fill:#636363" d="M61 32 L56 32 C56.45 30.4 60.55 30.4 61 32 z"/>
<path style="fill:#adadad" d="M66 32 C65.81 33.55 62.19 33.55 62 32 L66 32 z"/>
<path style="fill:#939393" d="M31 34 L30 35 L31 34 z"/>
<path style="fill:#9f9f9f" d="M54 35 L52 35 C51.78 33.67 54.22 33.67 54 35 z"/>
<path style="fill:#6c6c6c" d="M58 35 L57 34 L58 35 z"/>
<path style="fill:#767676" d="M30 35 L29 36 L30 35 z"/>
<path style="fill:#f2f3f3" d="M52 35 L54 35 L57 40 L58 41 L61 42 L51 44 L48 44 L43 44 L42 43 L41 42 L44 40 C44.66 40.02 46.15 40.18 46 39 L48 39 L49 38 L50 37 L52 35 z"/>
<path style="fill:#808080" d="M59 36 L58 35 L59 36 z"/>
<path style="fill:#7f7f7f" d="M24 36 L23 37 L24 36 z"/>
<path style="fill:#6b6b6b" d="M60 37 L59 36 L60 37 z"/>
<path style="fill:#909191" d="M38 37 C38.15 38.18 36.66 38.02 36 38 C35.85 36.82 37.34 36.98 38 37 z"/>
<path style="fill:#444545" d="M46 39 C46.15 40.18 44.66 40.02 44 40 L41 40 L41 39 C44.13 39.28 43.94 38.44 42 37 C45.05 36.36 45.5 37.53 46 39 z"/>
<path style="fill:#898989" d="M50 37 L49 38 L50 37 z"/>
<path style="fill:#909090" d="M20 38 L20 39 C18.94 39.43 18.94 37.57 20 38 z"/>
<path style="fill:#979797" d="M49 38 L48 39 L49 38 z"/>
<path style="fill:#a4a4a4" d="M25 40 L24 39 L25 40 z"/>
<path style="fill:#777777" d="M66 40 L65 39 L66 40 z"/>
<path style="fill:#898989" d="M26 41 L25 40 L26 41 z"/>
<path style="fill:#808080" d="M31 40 C32.66 41.65 38.34 41.65 40 40 L41 40 L44 40 L41 42 C37.01 42.66 31.21 40.3 29 44 L29 41 L31 40 z"/>
<path style="fill:#d7d8d8" d="M40 40 C38.34 41.65 32.66 41.65 31 40 L40 40 z"/>
<path style="fill:#929292" d="M58 41 L57 40 L58 41 z"/>
<path style="fill:#858585" d="M67 41 L66 42 L67 41 z"/>
<path style="fill:#151515" d="M41 42 L42 43 L43 44 L43 45 L42 45 L40 45 C38.41 45.06 39.19 47.05 39 48 C37.68 49.51 35.32 52.18 33 50 C33.19 49.05 32.41 47.06 34 47 C33.78 48.33 36.22 48.33 36 47 L37 46 C37.16 42.27 30.86 43.71 31 47 L30 48 L29 49 L28 50 L26 51 L25 50 L28 47 L29 46 L29 44 C31.21 40.3 37.01 42.66 41 42 z"/>
<path style="fill:#7e7e7e" d="M42 43 L41 42 L42 43 z"/>
<path style="fill:#929292" d="M64 42 L63 44 L51 44 L61 42 L64 42 z"/>
<path style="fill:#545454" d="M48 44 L43 45 L43 44 L48 44 z"/>
<path style="fill:#101111" d="M51 44 L63 44 C64.79 44.1 66.11 47.52 64 48 C64.15 46.82 62.66 46.98 62 47 L59 47 C56.69 45.34 50.31 45.34 48 47 L43 46 L43 45 L48 44 L51 44 z"/>
<path style="fill:#626262" d="M40 45 L41 48 L40 48 L39 48 C39.19 47.05 38.41 45.06 40 45 z"/>
<path style="fill:#6b6b6b" d="M43 45 L43 46 L42 45 L43 45 z"/>
<path style="fill:#6a6a6a" d="M29 46 L28 47 L29 46 z"/>
<path style="fill:#888888" d="M37 46 L36 47 L37 46 z"/>
<path style="fill:#8d8d8d" d="M59 47 L48 47 C50.31 45.34 56.69 45.34 59 47 z"/>
<path style="fill:#8a8a8a" d="M31 47 L30 48 L31 47 z"/>
<path style="fill:#999a9a" d="M36 47 C36.22 48.33 33.78 48.33 34 47 L36 47 z"/>
<path style="fill:#989999" d="M64 48 C63.34 48.02 61.85 48.18 62 47 C62.66 46.98 64.15 46.82 64 48 z"/>
<path style="fill:#6d6d6d" d="M30 48 L29 49 L30 48 z"/>
<path style="fill:#c3c3c3" d="M39 48 L40 48 C40.96 53.96 33.48 51.54 30 52 L33 50 C35.32 52.18 37.68 49.51 39 48 z"/>
<path style="fill:#111111" d="M41 48 L44 48 C44.19 48.95 43.41 50.94 45 51 L56 52 L57 53 C59.9 54.58 55.51 55.59 54 55 C53.55 52.86 45.57 53.79 49 56 L50 57 L54 59 C53.85 60.18 55.34 60.02 56 60 L58 60 L62 61 L65 63 L64 64 L57 64 L56 64 L55 63 L53 63 L52 62 L50 61 L49 60 L43 63 L48 64 L51 64 L52 65 L52 67 L50 67 C50.15 65.82 48.66 65.98 48 66 L43 66 C42.27 64.38 37.73 64.38 37 66 L36 66 L33 66 C30.63 63.18 35.31 64.13 37 64 C37.66 64.02 39.15 64.18 39 63 C36.97 57.21 31.87 60.13 29 63 L27 63 L26 62 L30 60 L31 59 L33 58 L34 57 C37.6 55.71 34.21 54.3 32 55 L31 54 L30 53 L30 52 C33.48 51.54 40.96 53.96 40 48 L41 48 z"/>
<path style="fill:#7c7c7c" d="M45 51 C43.41 50.94 44.19 48.95 44 48 C45.59 48.06 44.81 50.05 45 51 z"/>
<path style="fill:#a3a3a3" d="M29 49 L28 50 L29 49 z"/>
<path style="fill:#8e8e8e" d="M25 50 L26 51 C25.67 53.66 22.34 50.33 25 50 z"/>
<path style="fill:#696969" d="M56 52 L45 51 L56 52 z"/>
<path style="fill:#646464" d="M57 53 L56 52 L57 53 z"/>
<path style="fill:#8a8a8a" d="M31 54 L30 53 L31 54 z"/>
<path style="fill:#686868" d="M54 55 L49 56 C45.57 53.79 53.55 52.86 54 55 z"/>
<path style="fill:#939494" d="M34 57 L32 55 C34.21 54.3 37.6 55.71 34 57 z"/>
<path style="fill:#3e3f3f" d="M40 55 C40.06 56.59 42.05 55.81 43 56 L43 57 C40.67 56.15 40.26 58.09 39 59 C39.02 58.34 39.18 56.85 38 57 L40 55 z"/>
<path style="fill:#eaeaea" d="M43 55 L43 56 C42.05 55.81 40.06 56.59 40 55 L43 55 z"/>
<path style="fill:#676767" d="M44 56 L43 56 L43 55 L44 56 z"/>
<path style="fill:#d7d8d8" d="M44 56 C49.65 57.51 43.37 61.6 43 57 L43 56 L44 56 z"/>
<path style="fill:#8b8b8b" d="M50 57 L49 56 L50 57 z"/>
<path style="fill:#8e8e8e" d="M34 57 L33 58 L34 57 z"/>
<path style="fill:#e7e7e7" d="M38 57 C39.18 56.85 39.02 58.34 39 59 C37.44 59.9 35.98 57.19 38 57 z"/>
<path style="fill:#a1a1a1" d="M31 59 L30 60 L31 59 z"/>
<path style="fill:#dadada" d="M39 63 C38.34 62.98 36.85 62.82 37 64 C35.31 64.13 30.63 63.18 33 66 L29 63 C31.87 60.13 36.97 57.21 39 63 z"/>
<path style="fill:#777878" d="M56 60 C55.34 60.02 53.85 60.18 54 59 C54.66 58.98 56.15 58.82 56 60 z"/>
<path style="fill:#898989" d="M50 61 L49 60 L50 61 z"/>
<path style="fill:#aeafaf" d="M62 61 L58 60 L62 61 z"/>
<path style="fill:#575757" d="M65 63 L62 61 C63.51 60.41 67.9 61.42 65 63 z"/>
<path style="fill:#929292" d="M26 62 L27 63 C26.67 65.66 23.34 62.33 26 62 z"/>
<path style="fill:#a6a6a6" d="M53 63 L52 62 L53 63 z"/>
<path style="fill:#7f8080" d="M39 63 C39.15 64.18 37.66 64.02 37 64 C36.85 62.82 38.34 62.98 39 63 z"/>
<path style="fill:#676868" d="M48 64 L43 63 L48 64 z"/>
<path style="fill:#737373" d="M56 64 L55 63 L56 64 z"/>
<path style="fill:#737373" d="M52 65 L51 64 L52 65 z"/>
<path style="fill:#9a9b9b" d="M64 64 C62.97 65.64 58.03 65.64 57 64 L64 64 z"/>
<path style="fill:#5e5f5f" d="M43 66 L37 66 C37.73 64.38 42.27 64.38 43 66 z"/>
<path style="fill:#969696" d="M52 67 L52 65 C53.33 64.78 53.33 67.22 52 67 z"/>
<path style="fill:#9b9b9b" d="M36 66 C36.04 67.48 32.96 67.48 33 66 L36 66 z"/>
<path style="fill:#646565" d="M50 67 C49.34 67.02 47.85 67.18 48 66 C48.66 65.98 50.15 65.82 50 67 z"/>
<path style="fill:#101111" d="M40 69 L50 69 L51 70 C51.32 70.9 53.02 72.73 51 73 L50 74 L49 75 L49 76 L48 76 L40 77 L39 77 L36 77 L35 76 L33.25 68.25 L40 69 z"/>
<path style="fill:#9b9b9b" d="M50 69 L40 69 C41.99 67.34 48.01 67.34 50 69 z"/>
<path style="fill:#646464" d="M51 70 L50 69 L51 70 z"/>
<path style="fill:#828383" d="M46 71 L42 71 C42.19 69.45 45.81 69.45 46 71 z"/>
<path style="fill:#828282" d="M40 71 L37 73 C34.1 71.42 38.49 70.41 40 71 z"/>
<path style="fill:#f3f4f4" d="M42 71 L46 71 L46 73 C45.05 73.19 43.06 72.41 43 74 L37 73 L40 71 L42 71 z"/>
<path style="fill:#686868" d="M46 73 L46 71 C47.33 70.78 47.33 73.22 46 73 z"/>
<path style="fill:#7c7c7c" d="M46 73 C45.94 74.59 43.95 73.81 43 74 C43.06 72.41 45.05 73.19 46 73 z"/>
<path style="fill:#898989" d="M51 73 L50 74 L51 73 z"/>
<path style="fill:#898989" d="M50 74 L49 75 L50 74 z"/>
<path style="fill:#717171" d="M36 77 L35 76 L36 77 z"/>
<path style="fill:#3b3c3c" d="M48 76 L48 77 L40 77 L48 76 z"/>
<path style="fill:#8f8f8f" d="M49 76 L48 77 L48 76 L49 76 z"/>
<path style="fill:#afafaf" d="M39 77 C39.04 78.48 35.96 78.48 36 77 L39 77 z"/>
</svg>
