<?xml version="1.0" standalone="yes"?>
<svg width="87" height="97">
<path style="fill:#fdfdfd" d="M87 0 L87 97 L0 97 L0 0 L87 0 z"/>
<path style="fill:#c1c2c2" d="M47 24 L45 27 C45.02 26.34 45.18 24.85 44 25 C44.03 23.67 46.7 21.89 47 24 z"/>
<path style="fill:#414242" d="M47 24 L47 29 C45.65 29.46 44.54 28.35 45 27 L47 24 z"/>
<path style="fill:#4c4d4d" d="M45 27 L43 27 L44 25 C45.18 24.85 45.02 26.34 45 27 z"/>
<path style="fill:#a5a6a6" d="M52 32 C52.43 30.94 50.57 30.94 51 32 L50 32 L52 27 C57.03 24.5 54.19 30.63 52 32 z"/>
<path style="fill:#858686" d="M42 29 C44 29.36 42.63 31.76 42.25 32.75 C44.59 32.79 43.93 34.78 43 36 C40.34 37.38 46.97 39.15 44 36 L45 36 L47 35 L48 37 C43.23 40.45 51.4 36.85 52 40 C52.84 41.18 52.84 41.82 52 43 L47 42 C43.51 41.29 44.61 47.84 48 46 C45.37 48.61 40.58 43.64 43 50 L42 50 C42.67 47.89 40.42 47.79 39 48 C41.2 43.72 38.03 46.05 36 47 L35 45 L44 42 L29 44 L29 42 C30.42 42.21 32.67 42.11 32 40 C34.06 42.02 36.02 40.06 34 38 L38 37 L38 38 C33.94 37.18 38.82 42.06 38 38 C39.35 38.46 40.46 37.35 40 36 C41.33 36.22 41.33 33.78 40 34 C40.4 31.73 40.01 29.02 37 30 C37.92 27.17 39.5 27.55 42 29 z"/>
<path style="fill:#aeafaf" d="M43 27 L45 27 C44.54 28.35 45.65 29.46 47 29 L47 30 L47 31 C44.63 31.46 44.92 34.17 45 36 L44 36 L43 36 C43.93 34.78 44.59 32.79 42.25 32.75 C42.63 31.76 44 29.36 42 29 C41.98 28.34 41.82 26.85 43 27 z"/>
<path style="fill:#565656" d="M52 27 L50 32 L47 32 L47 31 L47 30 L52 27 z"/>
<path style="fill:#676767" d="M40 34 L37 33 L37 30 C40.01 29.02 40.4 31.73 40 34 z"/>
<path style="fill:#424242" d="M64 34 L63 35 L59 38 L58 38 L59 36 C61.09 34.84 63.3 32.83 63.25 30.25 C66.04 29.5 67.24 32.73 64 34 z"/>
<path style="fill:#404141" d="M47 31 L47 32 C47.32 32.9 49.02 34.73 47 35 L45 36 C44.92 34.17 44.63 31.46 47 31 z"/>
<path style="fill:#060606" d="M52 32 L51 32 C50.57 30.94 52.43 30.94 52 32 z"/>
<path style="fill:#b2b2b2" d="M50 32 L50 35 L48 37 L47 35 C49.02 34.73 47.32 32.9 47 32 L50 32 z"/>
<path style="fill:#8a8b8b" d="M51 32 L52 32 C49.19 36.18 56.18 31.29 55 35 C52.82 39.15 51.73 35.33 50 35 L50 32 L51 32 z"/>
<path style="fill:#b9b9b9" d="M40 34 C41.33 33.78 41.33 36.22 40 36 L38 36 L37 33 L40 34 z"/>
<path style="fill:#9e9e9e" d="M64 34 L63 35 L64 34 z"/>
<path style="fill:#434444" d="M62 43 L57 42 L52 40 C51.4 36.85 43.23 40.45 48 37 L50 35 C51.73 35.33 52.82 39.15 55 35 C55.95 35.19 57.94 34.41 58 36 C54.35 35.07 55.15 40.57 58 38 C56.71 41.77 60.98 41.18 62 39 L69.75 35.25 L62 43 z"/>
<path style="fill:#343434" d="M40 36 C40.46 37.35 39.35 38.46 38 38 L38 37 L38 36 L40 36 z"/>
<path style="fill:#1e1f1f" d="M43 36 L44 36 C46.97 39.15 40.34 37.38 43 36 z"/>
<path style="fill:#b1b1b1" d="M58 36 L59 36 L58 38 C55.15 40.57 54.35 35.07 58 36 z"/>
<path style="fill:#737474" d="M31 38 L32 40 C30.3 39.9 26.85 39.62 29 42 L25 42 C26.53 39.94 28.34 38.9 31 38 z"/>
<path style="fill:#131313" d="M34 38 C36.02 40.06 34.06 42.02 32 40 L31 38 L34 38 z"/>
<path style="fill:#151515" d="M38 38 C38.82 42.06 33.94 37.18 38 38 z"/>
<path style="fill:#b6b6b6" d="M59 38 C59.06 39.59 61.05 38.81 62 39 C60.98 41.18 56.71 41.77 58 38 L59 38 z"/>
<path style="fill:#1c1c1c" d="M45 40 C43.12 40.14 45.14 38.12 45 40 z"/>
<path style="fill:#090909" d="M32 40 C32.67 42.11 30.42 42.21 29 42 C26.85 39.62 30.3 39.9 32 40 z"/>
<path style="fill:#373838" d="M35 45 L33 47 L29 44 L44 42 L35 45 z"/>
<path style="fill:#020202" d="M45 40 C46.88 39.86 44.86 41.88 45 40 z"/>
<path style="fill:#3d3e3e" d="M52 43 L53 44 C50.41 44.31 48.15 44.11 47 42 L52 43 z"/>
<path style="fill:#a5a5a5" d="M57 42 L57 43 L53 44 L52 43 C52.84 41.82 52.84 41.18 52 40 L57 42 z"/>
<path style="fill:#717171" d="M25 42 L25.75 43.75 C17.16 44.17 25.31 46.03 29 44 L33 47 C33.68 48.05 31.4 51.11 31 49 C30.4 46.76 28.79 45.02 26.25 46.25 C31.09 47.95 26.21 48.22 23 48 C25.37 45.18 20.69 46.13 19 46 C19.45 42.43 22.66 43.43 25 42 z"/>
<path style="fill:#1e1e1e" d="M29 42 L29 44 C25.31 46.03 17.16 44.17 25.75 43.75 L25 42 L29 42 z"/>
<path style="fill:#313232" d="M47 42 L50 46 L48 46 C44.61 47.84 43.51 41.29 47 42 z"/>
<path style="fill:#8f9090" d="M53 44 C47.48 48.34 57.04 43.84 54 49 C54.43 50.06 52.57 50.06 53 49 C52.94 47.41 50.95 48.19 50 48 L50 46 L47 42 C48.15 44.11 50.41 44.31 53 44 z"/>
<path style="fill:#1d1e1e" d="M62 43 L63 43 C62.85 44.18 64.34 44.02 65 44 L61 45 C59.74 44.09 59.33 42.15 57 43 L57 42 L62 43 z"/>
<path style="fill:#363636" d="M57 43 C59.63 45.96 55.41 47.29 61 47 L54 49 C57.04 43.84 47.48 48.34 53 44 L57 43 z"/>
<path style="fill:#8b8c8c" d="M61 45 L61 47 C55.41 47.29 59.63 45.96 57 43 C59.33 42.15 59.74 44.09 61 45 z"/>
<path style="fill:#ababab" d="M65 44 C64.34 44.02 62.85 44.18 63 43 C63.66 42.98 65.15 42.82 65 44 z"/>
<path style="fill:#0c0d0d" d="M41 44 C44.22 43.27 41.7 46.52 41 44 z"/>
<path style="fill:#6c6c6c" d="M66 46 C58.7 44.41 65.01 51.41 66 46 C67.29 46.26 68.33 47.66 68 49 C60.41 48.79 66.89 52.43 71 51 L71 53 L68 52 C62.99 53.87 73.11 53.37 73 57 L73 58 C71.24 57.33 68.41 53.53 67 56 L65 54 L60.25 51.25 C65.18 51.5 60.83 47.51 58.25 49.25 L59 53 L53 52 L50 52 L50 51 L53 49 C52.57 50.06 54.43 50.06 54 49 L61 47 L61 45 L65 44 C66.18 43.85 66.02 45.34 66 46 z"/>
<path style="fill:#ababab" d="M35 45 L36 47 C36.06 48.59 38.05 47.81 39 48 C39.72 51.56 35.3 47.22 35 51 L33 51 C33.4 49.57 36.4 46.48 33 47 L35 45 z"/>
<path style="fill:#242424" d="M39 48 C38.05 47.81 36.06 48.59 36 47 C38.03 46.05 41.2 43.72 39 48 z"/>
<path style="fill:#2f3030" d="M19 46 C20.69 46.13 25.37 45.18 23 48 C21.94 47.57 21.94 49.43 23 49 C22.85 50.18 24.34 50.02 25 50 L25 52 L21 53 C23.92 47.84 16.52 51.64 15 49 L19 46 z"/>
<path style="fill:#191a1a" d="M31 49 L25 50 C24.34 50.02 22.85 50.18 23 49 L23 48 C26.21 48.22 31.09 47.95 26.25 46.25 C28.79 45.02 30.4 46.76 31 49 z"/>
<path style="fill:#5e5e5e" d="M48 46 L50 46 L50 48 L48 50 L43 50 C40.58 43.64 45.37 48.61 48 46 z"/>
<path style="fill:#080909" d="M66 46 C65.01 51.41 58.7 44.41 66 46 z"/>
<path style="fill:#434444" d="M33 51 L28 51 C27.81 48.98 25.1 50.44 26 52 L25 52 L25 50 L31 49 C31.4 51.11 33.68 48.05 33 47 C36.4 46.48 33.4 49.57 33 51 z"/>
<path style="fill:#cbcbcb" d="M23 48 L23 49 C21.94 49.43 21.94 47.57 23 48 z"/>
<path style="fill:#2d2e2e" d="M42 50 L36 51 L35 51 C35.3 47.22 39.72 51.56 39 48 C40.42 47.79 42.67 47.89 42 50 z"/>
<path style="fill:#404040" d="M53 49 L50 51 C48.94 50.57 48.94 52.43 50 52 L53 52 L53 53 C50.91 53.02 48.7 52.64 47 54 L47 53 L48 50 L50 48 C50.95 48.19 52.94 47.41 53 49 z"/>
<path style="fill:#7d7d7d" d="M15 49 C16.52 51.64 23.92 47.84 21 53 L19 53 C21.49 49.96 15.36 50.69 14 52 C14.19 51.05 13.41 49.06 15 49 z"/>
<path style="fill:#232323" d="M65 54 L64 55 L63 54 L59 53 L58.25 49.25 C60.83 47.51 65.18 51.5 60.25 51.25 L65 54 z"/>
<path style="fill:#0d0d0d" d="M68 49 L70 49 L71 50 L71 51 C66.89 52.43 60.41 48.79 68 49 z"/>
<path style="fill:#a2a2a2" d="M71 50 L70 49 L71 50 z"/>
<path style="fill:#999999" d="M28 51 L26 52 C25.1 50.44 27.81 48.98 28 51 z"/>
<path style="fill:#a2a2a2" d="M42 50 L43 50 L44 52 L40 52 L36 51 L42 50 z"/>
<path style="fill:#1d1d1d" d="M48 50 L47 53 L44 52 L43 50 L48 50 z"/>
<path style="fill:#131313" d="M19 53 L14 55 L13 56 L14 52 C15.36 50.69 21.49 49.96 19 53 z"/>
<path style="fill:#fafafa" d="M50 51 L50 52 C48.94 52.43 48.94 50.57 50 51 z"/>
<path style="fill:#0b0b0b" d="M44 52 C44.81 53.41 45.11 55.85 47 54 C48.7 52.64 50.91 53.02 53 53 L53 54 C51.82 53.85 51.98 55.34 52 56 L51 57 L50 58 L49 59 L46 60 L43 60 C42.05 59.81 40.06 60.59 40 59 C45.81 58.64 44.97 54.48 40 58 L33 59 L31 56 L34 56 L36 56 C36.45 57.6 40.55 57.6 41 56 C42.33 56.22 42.33 53.78 41 54 L40 52 L44 52 z"/>
<path style="fill:#868686" d="M47 53 L47 54 C45.11 55.85 44.81 53.41 44 52 L47 53 z"/>
<path style="fill:#1a1a1a" d="M71 53 C72.3 53.42 75.48 56.17 73 57 C73.11 53.37 62.99 53.87 68 52 L71 53 z"/>
<path style="fill:#868686" d="M41 56 L41 54 C42.33 53.78 42.33 56.22 41 56 z"/>
<path style="fill:#adadad" d="M53 54 C53.02 54.66 53.18 56.15 52 56 C51.98 55.34 51.82 53.85 53 54 z"/>
<path style="fill:#a2a2a2" d="M64 55 L63 54 L64 55 z"/>
<path style="fill:#878787" d="M14 55 L13 56 L14 55 z"/>
<path style="fill:#9c9c9c" d="M34 56 L31 56 C30.96 54.52 34.04 54.52 34 56 z"/>
<path style="fill:#141414" d="M73 58 L74 59 L74 60 L73 61 L71 59 L70 58 L68 57 L67 56 C68.41 53.53 71.24 57.33 73 58 z"/>
<path style="fill:#555656" d="M31 56 L33 59 L34 59 C34.15 60.18 32.66 60.02 32 60 L31 60 L29 57 C28.85 55.82 30.34 55.98 31 56 z"/>
<path style="fill:#666767" d="M41 56 C40.55 57.6 36.45 57.6 36 56 L41 56 z"/>
<path style="fill:#6b6b6b" d="M40 59 L40 58 C44.97 54.48 45.81 58.64 40 59 z"/>
<path style="fill:#9d9d9d" d="M52 56 L51 57 L52 56 z"/>
<path style="fill:#787878" d="M68 57 L67 56 L68 57 z"/>
<path style="fill:#9c9c9c" d="M29 57 L28 58 L29 57 z"/>
<path style="fill:#121212" d="M31 60 L28 62 L28 59 L28 58 L29 57 L31 60 z"/>
<path style="fill:#c0c1c1" d="M40 58 L40 59 L34 59 L33 59 L40 58 z"/>
<path style="fill:#5f5f5f" d="M51 57 L50 58 L51 57 z"/>
<path style="fill:#797979" d="M50 58 L49 59 L50 58 z"/>
<path style="fill:#949494" d="M71 59 L70 58 L71 59 z"/>
<path style="fill:#8a8a8a" d="M74 59 L73 58 L74 59 z"/>
<path style="fill:#5f6060" d="M28 59 L28 62 L29 64 C27.89 65.24 25.15 66.19 23.25 65.75 L28 59 z"/>
<path style="fill:#1d1d1d" d="M40 59 C40.06 60.59 42.05 59.81 43 60 L43 61 C39.11 60.9 35.16 60.59 32 63 C28.61 63.37 31.51 61.32 32 60 C32.66 60.02 34.15 60.18 34 59 L40 59 z"/>
<path style="fill:#a5a5a5" d="M31 60 L32 60 C31.51 61.32 28.61 63.37 32 63 C31.94 64.59 29.95 63.81 29 64 L28 62 L31 60 z"/>
<path style="fill:#979898" d="M46 60 C45.94 61.59 43.95 60.81 43 61 L43 60 L46 60 z"/>
<path style="fill:#b3b3b3" d="M73 61 L74 60 C76.66 60.33 73.33 63.66 73 61 z"/>
</svg>
