<?xml version="1.0" standalone="yes"?>
<svg width="87" height="97">
<path style="fill:#fcfdfd" d="M87 0 L87 97 L0 97 L0 0 L87 0 z"/>
<path style="fill:#070707" d="M44 16 L45 17 L46 18 L47 19 L48 20 L49 21 L50 22 L51 23 L52 24 L53 25 L54 26 L55 27 L56 28 L57 29 L57 31 L56 32 L55 33 L54 34 L53 35 L52 36 L51 37 L50 38 L49 39 L48 40 L47 41 L46 42 L45 43 L44 44 C39.06 40.99 30.15 33.79 30 29 L31 28 L32 27 L33 26 L34 25 L35 24 L36 23 L37 22 L38 21 L39 20 L40 19 L41 18 L42 17 C41.85 15.82 43.34 15.98 44 16 z"/>
<path style="fill:#aaaaaa" d="M45 17 L44 16 L45 17 z"/>
<path style="fill:#686868" d="M42 17 L41 18 L42 17 z"/>
<path style="fill:#aaaaaa" d="M46 18 L45 17 L46 18 z"/>
<path style="fill:#696969" d="M41 18 L40 19 L41 18 z"/>
<path style="fill:#6a6a6a" d="M40 19 L39 20 L40 19 z"/>
<path style="fill:#a3a3a3" d="M48 20 L47 19 L48 20 z"/>
<path style="fill:#696969" d="M39 20 L38 21 L39 20 z"/>
<path style="fill:#a7a7a7" d="M49 21 L48 20 L49 21 z"/>
<path style="fill:#6e6e6e" d="M38 21 L37 22 L38 21 z"/>
<path style="fill:#646464" d="M37 22 L36 23 L37 22 z"/>
<path style="fill:#a3a3a3" d="M51 23 L50 22 L51 23 z"/>
<path style="fill:#646464" d="M36 23 L35 24 L36 23 z"/>
<path style="fill:#a3a3a3" d="M52 24 L51 23 L52 24 z"/>
<path style="fill:#5f5f5f" d="M35 24 L34 25 L35 24 z"/>
<path style="fill:#9d9d9d" d="M53 25 L52 24 L53 25 z"/>
<path style="fill:#676767" d="M34 25 L33 26 L34 25 z"/>
<path style="fill:#9a9a9a" d="M54 26 L53 25 L54 26 z"/>
<path style="fill:#5d5d5d" d="M33 26 L32 27 L33 26 z"/>
<path style="fill:#9a9a9a" d="M55 27 L54 26 L55 27 z"/>
<path style="fill:#5d5d5d" d="M32 27 L31 28 L32 27 z"/>
<path style="fill:#909090" d="M44 28 L42 28 C41.78 26.67 44.22 26.67 44 28 z"/>
<path style="fill:#979797" d="M56 28 L55 27 L56 28 z"/>
<path style="fill:#5f5f5f" d="M31 28 L30 29 L31 28 z"/>
<path style="fill:#636363" d="M42 28 L41 29 L42 28 z"/>
<path style="fill:#e7e7e7" d="M44 28 C48.44 28.48 43.55 35.07 42 32 L41 31 L41 29 L42 28 L44 28 z"/>
<path style="fill:#a8a8a8" d="M57 29 L56 28 L57 29 z"/>
<path style="fill:#6f6f6f" d="M41 29 L41 31 C39.67 31.22 39.67 28.78 41 29 z"/>
<path style="fill:#929393" d="M57 31 L57 29 C58.33 28.78 58.33 31.22 57 31 z"/>
<path style="fill:#727272" d="M42 32 L41 31 L42 32 z"/>
<path style="fill:#8a8a8a" d="M57 31 L56 32 L57 31 z"/>
<path style="fill:#848484" d="M56 32 L55 33 L56 32 z"/>
<path style="fill:#090909" d="M28 34 L29 35 L30 36 L31 37 L32 38 L33 39 L40 46 L40 48 L39 49 L38 50 L37 51 L36 52 L35 53 L34 54 L33 55 L32 56 L31 57 L29 59 L28 60 C21.76 60.98 16.81 51.08 12 47 L21 38 L22 37 C23.17 35.02 25.62 31.61 28 34 z"/>
<path style="fill:#828282" d="M55 33 L54 34 L55 33 z"/>
<path style="fill:#090909" d="M65 57 L64 58 C63.33 59.46 61.85 61.33 60 61 L59 60 L58 59 L57 58 L56 57 L55 56 L54 55 L53 54 L52 53 L51 52 L50 51 L49 50 L47 48 L47 46 L48 45 L49 44 L50 43 L51 42 L52 41 L53 40 L54 39 L55 38 L56 37 L57 36 L58 35 L59 34 C65.24 33.02 70.19 42.92 75 47 L65 57 z"/>
<path style="fill:#a2a2a2" d="M29 35 L28 34 L29 35 z"/>
<path style="fill:#848484" d="M54 34 L53 35 L54 34 z"/>
<path style="fill:#9e9e9e" d="M59 34 L58 35 L59 34 z"/>
<path style="fill:#9f9f9f" d="M30 36 L29 35 L30 36 z"/>
<path style="fill:#8e8e8e" d="M53 35 L52 36 L53 35 z"/>
<path style="fill:#a6a6a6" d="M31 37 L30 36 L31 37 z"/>
<path style="fill:#868686" d="M52 36 L51 37 L52 36 z"/>
<path style="fill:#a7a7a7" d="M57 36 L56 37 L57 36 z"/>
<path style="fill:#5f5f5f" d="M22 37 L21 38 L22 37 z"/>
<path style="fill:#a4a4a4" d="M32 38 L31 37 L32 38 z"/>
<path style="fill:#8c8c8c" d="M51 37 L50 38 L51 37 z"/>
<path style="fill:#989898" d="M56 37 L55 38 L56 37 z"/>
<path style="fill:#a5a5a5" d="M33 39 L32 38 L33 39 z"/>
<path style="fill:#888888" d="M50 38 L49 39 L50 38 z"/>
<path style="fill:#979797" d="M55 38 L54 39 L55 38 z"/>
<path style="fill:#8c8c8c" d="M49 39 L48 40 L49 39 z"/>
<path style="fill:#9e9e9e" d="M54 39 L53 40 L54 39 z"/>
<path style="fill:#8b8b8b" d="M48 40 L47 41 L48 40 z"/>
<path style="fill:#a3a3a3" d="M53 40 L52 41 L53 40 z"/>
<path style="fill:#8b8b8b" d="M47 41 L46 42 L47 41 z"/>
<path style="fill:#9f9f9f" d="M52 41 L51 42 L52 41 z"/>
<path style="fill:#969696" d="M46 42 L45 43 L46 42 z"/>
<path style="fill:#949494" d="M51 42 L50 43 L51 42 z"/>
<path style="fill:#8a8a8a" d="M45 43 L44 44 L45 43 z"/>
<path style="fill:#a3a3a3" d="M50 43 L49 44 L50 43 z"/>
<path style="fill:#929393" d="M27 45 L25 45 C24.78 43.67 27.22 43.67 27 45 z"/>
<path style="fill:#a1a1a1" d="M49 44 L48 45 L49 44 z"/>
<path style="fill:#e4e5e5" d="M61 44 L62 45 L63 46 L63 48 L62 49 L61 50 C57.5 49.07 57.5 44.93 61 44 z"/>
<path style="fill:#7e7e7e" d="M62 45 L61 44 L62 45 z"/>
<path style="fill:#666666" d="M25 45 L24 46 L25 45 z"/>
<path style="fill:#ebebeb" d="M27 45 C29.44 45.31 29.44 48.69 27 49 L25 49 L24 48 L24 46 L25 45 L27 45 z"/>
<path style="fill:#a2a2a2" d="M48 45 L47 46 L48 45 z"/>
<path style="fill:#7a7a7a" d="M63 46 L62 45 L63 46 z"/>
<path style="fill:#787878" d="M24 46 L24 48 C22.67 48.22 22.67 45.78 24 46 z"/>
<path style="fill:#9e9f9f" d="M40 48 L40 46 C41.33 45.78 41.33 48.22 40 48 z"/>
<path style="fill:#a2a2a2" d="M47 46 L47 48 C45.67 48.22 45.67 45.78 47 46 z"/>
<path style="fill:#7b7c7c" d="M63 48 L63 46 C64.33 45.78 64.33 48.22 63 48 z"/>
<path style="fill:#7c7c7c" d="M25 49 L24 48 L25 49 z"/>
<path style="fill:#9c9c9c" d="M40 48 L39 49 L40 48 z"/>
<path style="fill:#696969" d="M63 48 L62 49 L63 48 z"/>
<path style="fill:#9c9d9d" d="M27 49 C27.22 50.33 24.78 50.33 25 49 L27 49 z"/>
<path style="fill:#989898" d="M39 49 L38 50 L39 49 z"/>
<path style="fill:#757575" d="M62 49 L61 50 L62 49 z"/>
<path style="fill:#a0a0a0" d="M38 50 L37 51 L38 50 z"/>
<path style="fill:#909090" d="M43 50 L42 51 L43 50 z"/>
<path style="fill:#070707" d="M57 65 L56 66 L55 67 L54 68 L53 69 L52 70 L51 71 L50 72 L49 73 L48 74 L47 75 L46 76 L45 77 C45.15 78.18 43.66 78.02 43 78 L42 77 L39 74 L38 73 L37 72 L36 71 L35 70 L34 69 L33 68 L32 67 L31 66 L30 65 L30 63 L31 62 L32 61 L33 60 L34 59 L35 58 L36 57 L37 56 L38 55 L39 54 L40 53 L41 52 L42 51 L43 50 C47.94 53.01 56.85 60.21 57 65 z"/>
<path style="fill:#a7a7a7" d="M50 51 L49 50 L50 51 z"/>
<path style="fill:#9c9c9c" d="M37 51 L36 52 L37 51 z"/>
<path style="fill:#939393" d="M42 51 L41 52 L42 51 z"/>
<path style="fill:#999999" d="M51 52 L50 51 L51 52 z"/>
<path style="fill:#9e9e9e" d="M36 52 L35 53 L36 52 z"/>
<path style="fill:#8e8e8e" d="M41 52 L40 53 L41 52 z"/>
<path style="fill:#a1a1a1" d="M52 53 L51 52 L52 53 z"/>
<path style="fill:#a2a2a2" d="M35 53 L34 54 L35 53 z"/>
<path style="fill:#808080" d="M40 53 L39 54 L40 53 z"/>
<path style="fill:#a0a0a0" d="M53 54 L52 53 L53 54 z"/>
<path style="fill:#999999" d="M34 54 L33 55 L34 54 z"/>
<path style="fill:#888888" d="M39 54 L38 55 L39 54 z"/>
<path style="fill:#a1a1a1" d="M54 55 L53 54 L54 55 z"/>
<path style="fill:#a0a0a0" d="M33 55 L32 56 L33 55 z"/>
<path style="fill:#818181" d="M38 55 L37 56 L38 55 z"/>
<path style="fill:#9e9e9e" d="M55 56 L54 55 L55 56 z"/>
<path style="fill:#a9a9a9" d="M32 56 L31 57 L32 56 z"/>
<path style="fill:#898989" d="M37 56 L36 57 L37 56 z"/>
<path style="fill:#a7a7a7" d="M56 57 L55 56 L56 57 z"/>
<path style="fill:#818181" d="M36 57 L35 58 L36 57 z"/>
<path style="fill:#a0a0a0" d="M57 58 L56 57 L57 58 z"/>
<path style="fill:#5f5f5f" d="M65 57 L64 58 L65 57 z"/>
<path style="fill:#808080" d="M35 58 L34 59 L35 58 z"/>
<path style="fill:#a1a1a1" d="M58 59 L57 58 L58 59 z"/>
<path style="fill:#a4a4a4" d="M29 59 L28 60 L29 59 z"/>
<path style="fill:#838383" d="M34 59 L33 60 L34 59 z"/>
<path style="fill:#848484" d="M33 60 L32 61 L33 60 z"/>
<path style="fill:#a0a0a0" d="M60 61 L59 60 L60 61 z"/>
<path style="fill:#818181" d="M32 61 L31 62 L32 61 z"/>
<path style="fill:#e6e7e7" d="M44 61 L45 62 L46 63 L46 65 L45 66 L44 67 C40.5 66.07 40.5 61.93 44 61 z"/>
<path style="fill:#808080" d="M45 62 L44 61 L45 62 z"/>
<path style="fill:#878787" d="M31 62 L30 63 L31 62 z"/>
<path style="fill:#6f6f6f" d="M46 63 L45 62 L46 63 z"/>
<path style="fill:#8a8b8b" d="M30 63 L30 65 C28.67 65.22 28.67 62.78 30 63 z"/>
<path style="fill:#6d6d6d" d="M46 65 L46 63 C47.33 62.78 47.33 65.22 46 65 z"/>
<path style="fill:#949494" d="M31 66 L30 65 L31 66 z"/>
<path style="fill:#646464" d="M46 65 L45 66 L46 65 z"/>
<path style="fill:#5f5f5f" d="M57 65 L56 66 L57 65 z"/>
<path style="fill:#a5a5a5" d="M32 67 L31 66 L32 67 z"/>
<path style="fill:#6e6e6e" d="M45 66 L44 67 L45 66 z"/>
<path style="fill:#606060" d="M56 66 L55 67 L56 66 z"/>
<path style="fill:#a1a1a1" d="M33 68 L32 67 L33 68 z"/>
<path style="fill:#646464" d="M55 67 L54 68 L55 67 z"/>
<path style="fill:#a1a1a1" d="M34 69 L33 68 L34 69 z"/>
<path style="fill:#646464" d="M54 68 L53 69 L54 68 z"/>
<path style="fill:#969696" d="M35 70 L34 69 L35 70 z"/>
<path style="fill:#656565" d="M53 69 L52 70 L53 69 z"/>
<path style="fill:#a3a3a3" d="M36 71 L35 70 L36 71 z"/>
<path style="fill:#656565" d="M52 70 L51 71 L52 70 z"/>
<path style="fill:#a2a2a2" d="M37 72 L36 71 L37 72 z"/>
<path style="fill:#676767" d="M51 71 L50 72 L51 71 z"/>
<path style="fill:#a2a2a2" d="M38 73 L37 72 L38 73 z"/>
<path style="fill:#757575" d="M50 72 L49 73 L50 72 z"/>
<path style="fill:#a8a8a8" d="M39 74 L38 73 L39 74 z"/>
<path style="fill:#707070" d="M49 73 L48 74 L49 73 z"/>
<path style="fill:#666666" d="M48 74 L47 75 L48 74 z"/>
<path style="fill:#696969" d="M47 75 L46 76 L47 75 z"/>
<path style="fill:#5b5b5b" d="M46 76 L45 77 L46 76 z"/>
<path style="fill:#a3a3a3" d="M43 78 L42 77 L43 78 z"/>
</svg>
