<?xml version="1.0" standalone="yes"?>
<svg width="87" height="97">
<path style="fill:#fdfdfd" d="M87 0 L87 97 L0 97 L0 0 L87 0 z"/>
<path style="fill:#a2a2a2" d="M45 19 L41 19 C41.19 17.45 44.81 17.45 45 19 z"/>
<path style="fill:#808080" d="M40 19 L39 20 L40 19 z"/>
<path style="fill:#0e0e0e" d="M41 19 L45 19 L46 19 L47 20 L48 21 C48.06 22.59 50.05 21.81 51 22 L52 22 L53 23 L54 24 L55 25 L55 26 C55.19 26.95 54.41 28.94 56 29 L56 30 L57 31 L57 32 L57 36 L57 37 L56 38 L55 43 L48 47 L45 46 L51 41 C54.21 38.28 55.03 31.62 53.25 28.25 C53.33 32.47 52.58 36.31 51 40 L43 44 L50 37 C52.08 35 52.13 31.13 52 28 C52.95 25.5 49.05 25.5 50 28 C46.93 23.42 48.29 31.65 48 34 L47 35 L46 36 L45 37 L44 36 L45 33 C47.33 31.5 48.4 25.47 45.25 24.25 L45 32 L43 22 L42 33 C38.79 32.27 40.44 19.76 39 27 C37.86 24.79 35.24 24.43 36 28 L36 34 C34.82 34.15 34.98 32.66 35 32 C36.6 26.7 32.74 24.46 31 30 C30.83 32.8 31.17 36.26 33 38 C33.3 41.05 36.77 43.22 39 45 C41.52 44.26 40.77 46.87 39 47 L37 47 L30 42 L30 39 L29 38 C27.51 35.72 27.51 32.28 29 30 L30 29 L30 26 L31 25 C31.67 23.54 33.15 21.67 35 22 C35.95 21.81 37.94 22.59 38 21 L39 20 L40 19 L41 19 z"/>
<path style="fill:#999999" d="M47 20 L46 19 L47 20 z"/>
<path style="fill:#898989" d="M38 21 C37.94 22.59 35.95 21.81 35 22 C35.06 20.41 37.05 21.19 38 21 z"/>
<path style="fill:#a0a1a1" d="M51 22 C50.05 21.81 48.06 22.59 48 21 C48.95 21.19 50.94 20.41 51 22 z"/>
<path style="fill:#bfc0c0" d="M43 22 L45 33 L44 36 C41.98 36.19 43.44 38.9 45 38 C40.95 44.04 47.92 37.78 50 36 L50 37 L43 44 L45 46 L48 47 L48 48 C46.67 55.33 52.52 48.08 56 49 L57 49 L57 50 C54.21 50.02 50.64 51.46 49.25 53.75 L62 52 L62 53 C59.53 51.92 49.43 54.25 54 56 L53 60 C50.04 53.91 51.34 62.06 52 65 C50.5 64.15 49.77 61.83 50 60 L49 56 C48.23 53.72 47.68 57.23 48 58 L46 56 C45.34 55.98 43.85 55.82 44 57 C42.38 57.73 42.38 62.27 44 63 L44 66 L42 64 C41.7 60.8 43.15 56.53 40 55 C49.22 58.41 48.18 42.7 40 48 L39 47 C40.77 46.87 41.52 44.26 39 45 L39 44 C40.53 44.85 43.57 42.91 41 42 L41 41 C44.17 38.92 36.73 38.22 38 35 L39 35 C40.79 38.78 42.8 37.56 41 34 L42 33 L43 22 z"/>
<path style="fill:#4c4d4d" d="M45 32 L45 33 L43 22 L45 32 z"/>
<path style="fill:#a3a3a3" d="M53 23 L52 22 L53 23 z"/>
<path style="fill:#7d7d7d" d="M54 24 L53 23 L54 24 z"/>
<path style="fill:#808080" d="M42 33 L41 34 C37.88 33.16 39.32 29.34 39 27 C40.44 19.76 38.79 32.27 42 33 z"/>
<path style="fill:#868686" d="M45 33 L45 32 L45.25 24.25 C48.4 25.47 47.33 31.5 45 33 z"/>
<path style="fill:#9b9b9b" d="M55 25 L54 24 L55 25 z"/>
<path style="fill:#8f8f8f" d="M31 25 L30 26 L31 25 z"/>
<path style="fill:#212222" d="M39 27 C39.32 29.34 37.88 33.16 41 34 C42.8 37.56 40.79 38.78 39 35 L36 28 C35.24 24.43 37.86 24.79 39 27 z"/>
<path style="fill:#4a4b4b" d="M35 32 L34 33 L33 34 L31 30 C32.74 24.46 36.6 26.7 35 32 z"/>
<path style="fill:#737373" d="M50 28 C49.96 30.07 49.41 32.81 48 34 C48.29 31.65 46.93 23.42 50 28 z"/>
<path style="fill:#242525" d="M52 28 C50.5 29.83 50.05 33.27 50 36 C47.92 37.78 40.95 44.04 45 38 L46 37 L47 36 C48.18 36.15 48.02 34.66 48 34 C49.41 32.81 49.96 30.07 50 28 C49.05 25.5 52.95 25.5 52 28 z"/>
<path style="fill:#adaeae" d="M56 29 C54.41 28.94 55.19 26.95 55 26 C56.59 26.06 55.81 28.05 56 29 z"/>
<path style="fill:#797a7a" d="M39 35 L38 35 L36 34 L36 28 L39 35 z"/>
<path style="fill:#808080" d="M52 28 C52.13 31.13 52.08 35 50 37 L50 36 C50.05 33.27 50.5 29.83 52 28 z"/>
<path style="fill:#949494" d="M51 41 L51 40 C52.58 36.31 53.33 32.47 53.25 28.25 C55.03 31.62 54.21 38.28 51 41 z"/>
<path style="fill:#848484" d="M30 29 L29 30 L30 29 z"/>
<path style="fill:#818282" d="M33 34 L34 38 L33 38 C31.17 36.26 30.83 32.8 31 30 L33 34 z"/>
<path style="fill:#767676" d="M57 31 L56 30 L57 31 z"/>
<path style="fill:#a2a2a2" d="M35 32 C34.98 32.66 34.82 34.15 36 34 C35.92 37.23 39 39.36 41 41 L41 42 C37.2 41.27 34.22 36.64 34 33 L35 32 z"/>
<path style="fill:#5d5d5d" d="M57 36 L57 32 C58.55 32.19 58.55 35.81 57 36 z"/>
<path style="fill:#121212" d="M34 33 C34.22 36.64 37.2 41.27 41 42 C43.57 42.91 40.53 44.85 39 44 L34 38 L33 34 L34 33 z"/>
<path style="fill:#191a1a" d="M38 35 C36.73 38.22 44.17 38.92 41 41 C39 39.36 35.92 37.23 36 34 L38 35 z"/>
<path style="fill:#c1c1c1" d="M48 34 C48.02 34.66 48.18 36.15 47 36 L47 35 L48 34 z"/>
<path style="fill:#6e6e6e" d="M47 35 L47 36 L46 36 L47 35 z"/>
<path style="fill:#6c6c6c" d="M44 36 L45 37 L45 38 C43.44 38.9 41.98 36.19 44 36 z"/>
<path style="fill:#6e6e6e" d="M46 36 L46 37 L45 37 L46 36 z"/>
<path style="fill:#e5e5e5" d="M47 36 L46 37 L46 36 L47 36 z"/>
<path style="fill:#e5e5e5" d="M46 37 L45 38 L45 37 L46 37 z"/>
<path style="fill:#646464" d="M57 37 L56 38 L57 37 z"/>
<path style="fill:#737373" d="M30 39 L29 38 L30 39 z"/>
<path style="fill:#acadad" d="M34 38 L39 44 L39 45 C36.77 43.22 33.3 41.05 33 38 L34 38 z"/>
<path style="fill:#a9aaaa" d="M51 40 L51 41 L45 46 L43 44 L51 40 z"/>
<path style="fill:#b9baba" d="M37 47 L37 48 L29 45 L30 42 L37 47 z"/>
<path style="fill:#a5a6a6" d="M55 43 L57 45 L48 48 L48 47 L55 43 z"/>
<path style="fill:#909090" d="M26 46 L23 46 C22.96 44.52 26.04 44.52 26 46 z"/>
<path style="fill:#0e0e0e" d="M29 45 L37 48 L36.75 51.75 C32.52 48.28 24.85 46.23 21 51 C19.12 50.17 16.72 53.73 20 53 L19 55 C17.12 54.86 19.14 56.88 19 55 C23.07 53.33 29.89 50.98 32.75 55.75 L31 56 C29.15 52.93 23.96 53.96 22 56 C21.34 55.98 19.85 55.82 20 57 C18.12 56.86 20.14 58.88 20 57 C20.66 57.02 22.15 57.18 22 56 L30 58 L28 58 C26.5 55.64 23.09 58.51 21 59 C13.21 65.44 27.11 56.32 26 60 L24 62 C22.08 62.53 17.84 63.37 18.25 65.75 C20.09 64.69 23.15 64.34 24 62 C28.97 59.62 27.48 63.36 24 65 C19.25 66.13 23.65 68.79 26 69 L29 72 C34.05 71.38 37.21 66.28 39 62 L40 55 C43.15 56.53 41.7 60.8 42 64 L42 65 L41 66 L39 69 L38 70 L36 72 L35 73 L34 73 L29 74 L28 74 L24 74 L23 74 L22 73 L21 72 L20 71 L19 70 L17 70 L16 69 L15 68 L15 67 L14 60 L14 59 L14 55 L14 54 L15 53 L16 52 L17 51 L18 50 L18 49 L19 48 L20 47 L21 46 L23 46 L26 46 L29 45 z"/>
<path style="fill:#0d0d0d" d="M57 45 L58 45 L63 46 L64 46 L65 47 L67 49 C67.46 50.35 66.35 51.46 65 51 C64.39 49.76 62.44 49.02 61 49 C60.55 47.4 56.45 47.4 56 49 C52.52 48.08 46.67 55.33 48 48 L57 45 z"/>
<path style="fill:#9c9c9c" d="M63 46 L58 45 L63 46 z"/>
<path style="fill:#9f9f9f" d="M21 46 L20 47 L21 46 z"/>
<path style="fill:#828282" d="M65 47 L64 46 L65 47 z"/>
<path style="fill:#7c7c7c" d="M20 47 L19 48 L20 47 z"/>
<path style="fill:#969696" d="M39 47 L40 48 L39 53 C37.65 52.54 36.54 53.65 37 55 L36 55 C34.7 48.77 25.7 49.42 21 51 C24.85 46.23 32.52 48.28 36.75 51.75 L37 48 L37 47 L39 47 z"/>
<path style="fill:#080909" d="M40 55 L40 54 L39 53 L40 48 C48.18 42.7 49.22 58.41 40 55 z"/>
<path style="fill:#7c7c7c" d="M19 48 L18 49 L19 48 z"/>
<path style="fill:#515252" d="M61 49 L57 49 L56 49 C56.45 47.4 60.55 47.4 61 49 z"/>
<path style="fill:#949494" d="M61 49 C62.44 49.02 64.39 49.76 65 51 L57 50 L57 49 L61 49 z"/>
<path style="fill:#545454" d="M69 52 L67 54 L65 51 C66.35 51.46 67.46 50.35 67 49 L69 52 z"/>
<path style="fill:#8f8f8f" d="M18 50 L17 51 L18 50 z"/>
<path style="fill:#131414" d="M36 55 L35 55 C32 50.22 24.53 51.9 20 53 L21 51 C25.7 49.42 34.7 48.77 36 55 z"/>
<path style="fill:#171717" d="M57 50 L65 51 L67 54 L65 54 C64.74 52.71 63.34 51.67 62 52 L49.25 53.75 C50.64 51.46 54.21 50.02 57 50 z"/>
<path style="fill:#767676" d="M21 51 L20 53 C16.72 53.73 19.12 50.17 21 51 z"/>
<path style="fill:#696969" d="M16 52 L15 53 L16 52 z"/>
<path style="fill:#abacac" d="M35 55 L35 57 C31.07 57.05 34.38 64.12 30 65 L31 58 L31 56 L32.75 55.75 C29.89 50.98 23.07 53.33 19 55 L20 53 C24.53 51.9 32 50.22 35 55 z"/>
<path style="fill:#727373" d="M65 54 C64.05 53.81 62.06 54.59 62 53 L62 52 C63.34 51.67 64.74 52.71 65 54 z"/>
<path style="fill:#0d0e0e" d="M69 52 L71 54 L72 55 L72 59 L71 60 L71 63 L71 66 L71 67 L70 68 L69 69 L68 70 L67 70 C66.34 69.98 64.85 69.82 65 71 C64.33 72.46 62.85 74.33 61 74 L58 74 L56 74 L51 73 L49 72 L48 71 L47 70 L47 69 C47.02 68.34 47.18 66.85 46 67 L45 67 L44 66 L44 63 L44 57 C43.85 55.82 45.34 55.98 46 56 L47 61 C46.85 63.25 47.79 66.1 50 67 L51 68 L52 69 L53 70 C52.85 71.18 54.34 71.02 55 71 C57.67 73.83 61.86 69.31 57 68 L60 68 C60.51 70.71 67.21 67.29 64 66 L60 65 L59 64 L58 63 L58 61 L66.75 64.75 L59 59 L67 60 L66 56 C68.02 56.45 67.93 55.16 67 54 L69 52 z"/>
<path style="fill:#767676" d="M15 53 L14 54 L15 53 z"/>
<path style="fill:#e0e0e0" d="M39 53 L40 54 L40 55 L39 62 L38 62 L37 55 C36.54 53.65 37.65 52.54 39 53 z"/>
<path style="fill:#616161" d="M40 54 L39 53 L40 54 z"/>
<path style="fill:#161717" d="M62 53 C62.06 54.59 64.05 53.81 65 54 L66 56 L57 55 C56.05 55.19 54.06 54.41 54 56 C49.43 54.25 59.53 51.92 62 53 z"/>
<path style="fill:#878888" d="M31 56 L31 58 L30 58 L22 56 C23.96 53.96 29.15 52.93 31 56 z"/>
<path style="fill:#737373" d="M66 56 L67 60 L66 59 C64.69 56.04 60.91 55.77 58 56 L57 55 L66 56 z"/>
<path style="fill:#707070" d="M67 54 C67.93 55.16 68.02 56.45 66 56 L65 54 L67 54 z"/>
<path style="fill:#8f8f8f" d="M72 55 L71 54 L72 55 z"/>
<path style="fill:#7b7b7b" d="M14 55 L14 59 C12.45 58.81 12.45 55.19 14 55 z"/>
<path style="fill:#848484" d="M19 55 C19.14 56.88 17.12 54.86 19 55 z"/>
<path style="fill:#eaebeb" d="M35 55 L36 55 L36 60 L35 60 L35 57 L35 55 z"/>
<path style="fill:#323333" d="M37 55 L38 62 L37 62 C37.02 61.34 37.18 59.85 36 60 L36 55 L37 55 z"/>
<path style="fill:#787878" d="M48 58 L48 60 L47 61 L46 56 L48 58 z"/>
<path style="fill:#181818" d="M49 56 L50 60 C49.77 61.83 50.5 64.15 52 65 L53 66 C52.54 67.35 53.65 68.46 55 68 C55.49 69.32 58.39 71.37 55 71 C55.15 69.82 53.66 69.98 53 70 L52 69 L51 68 L50 67 L48 60 L48 58 C47.68 57.23 48.23 53.72 49 56 z"/>
<path style="fill:#a5a5a5" d="M57 55 L58 56 C56.58 55.79 54.33 55.89 55 58 L55 59 L55 64 C53.14 63.66 52.72 61.6 53 60 L54 56 C54.06 54.41 56.05 55.19 57 55 z"/>
<path style="fill:#797a7a" d="M22 56 C22.15 57.18 20.66 57.02 20 57 C19.85 55.82 21.34 55.98 22 56 z"/>
<path style="fill:#707171" d="M50 60 L49 56 L50 60 z"/>
<path style="fill:#101111" d="M58 56 C60.91 55.77 64.69 56.04 66 59 L58 58 L55 58 C54.33 55.89 56.58 55.79 58 56 z"/>
<path style="fill:#acacac" d="M20 57 C20.14 58.88 18.12 56.86 20 57 z"/>
<path style="fill:#8e8e8e" d="M28 58 C27.54 59.35 28.65 60.46 30 60 C29.96 62.68 26.95 64.57 25 66 L24 65 C27.48 63.36 28.97 59.62 24 62 L26 60 C27.11 56.32 13.21 65.44 21 59 C23.09 58.51 26.5 55.64 28 58 z"/>
<path style="fill:#272727" d="M35 57 L35 60 L34 64 C32.56 65.17 25.86 69.75 30 70 L29 72 L26 69 L29 66 L30 65 C34.38 64.12 31.07 57.05 35 57 z"/>
<path style="fill:#515151" d="M44 57 L44 63 C42.38 62.27 42.38 57.73 44 57 z"/>
<path style="fill:#212222" d="M53 60 C52.72 61.6 53.14 63.66 55 64 L57 68 L55 68 L53 66 L52 65 C51.34 62.06 50.04 53.91 53 60 z"/>
<path style="fill:#7c7d7d" d="M66 59 L67 60 L59 59 L58 59 L58 58 L66 59 z"/>
<path style="fill:#dedede" d="M30 58 L31 58 L30 60 C28.65 60.46 27.54 59.35 28 58 L30 58 z"/>
<path style="fill:#141515" d="M30 65 L29 66 L25 66 C26.95 64.57 29.96 62.68 30 60 L31 58 L30 65 z"/>
<path style="fill:#d0d1d1" d="M58 58 L58 59 L58 60 C56.94 59.57 56.94 61.43 58 61 L58 63 L55 59 L55 58 L58 58 z"/>
<path style="fill:#252626" d="M55 59 L58 63 L59 64 L60 65 C60.1 66.79 63.52 68.11 64 66 C67.21 67.29 60.51 70.71 60 68 L55 64 L55 59 z"/>
<path style="fill:#999a9a" d="M59 59 L66.75 64.75 L58 61 L58 60 L58 59 L59 59 z"/>
<path style="fill:#0" d="M67 60 L66 59 L67 60 z"/>
<path style="fill:#747474" d="M72 59 L71 60 L72 59 z"/>
<path style="fill:#474848" d="M15 67 L14 60 L15 67 z"/>
<path style="fill:#adadad" d="M35 60 L36 60 C35.98 61.44 35.24 63.39 34 64 L35 60 z"/>
<path style="fill:#0a0b0b" d="M37 62 C36.56 65.41 33.47 69.38 30 70 L34 64 C35.24 63.39 35.98 61.44 36 60 C37.18 59.85 37.02 61.34 37 62 z"/>
<path style="fill:#a8a9a9" d="M48 60 L50 67 C47.79 66.1 46.85 63.25 47 61 L48 60 z"/>
<path style="fill:#404040" d="M58 60 L58 61 C56.94 61.43 56.94 59.57 58 60 z"/>
<path style="fill:#919292" d="M24 62 C23.15 64.34 20.09 64.69 18.25 65.75 C17.84 63.37 22.08 62.53 24 62 z"/>
<path style="fill:#8e8f8f" d="M38 62 L39 62 C37.21 66.28 34.05 71.38 29 72 L30 70 C33.47 69.38 36.56 65.41 37 62 L38 62 z"/>
<path style="fill:#bbbbbb" d="M59 64 L58 63 L59 64 z"/>
<path style="fill:#949494" d="M71 66 L71 63 C72.48 62.96 72.48 66.04 71 66 z"/>
<path style="fill:#929292" d="M34 64 L30 70 C25.86 69.75 32.56 65.17 34 64 z"/>
<path style="fill:#848585" d="M60 68 L57 68 L55 64 L60 68 z"/>
<path style="fill:#aeaeae" d="M60 65 L59 64 L60 65 z"/>
<path style="fill:#5e5f5f" d="M24 65 L25 66 L29 66 L26 69 C23.65 68.79 19.25 66.13 24 65 z"/>
<path style="fill:#b5b5b5" d="M30 65 L29 66 L30 65 z"/>
<path style="fill:#777777" d="M42 65 L41 66 L42 65 z"/>
<path style="fill:#c0c0c0" d="M53 66 L52 65 L53 66 z"/>
<path style="fill:#868686" d="M64 66 C63.52 68.11 60.1 66.79 60 65 L64 66 z"/>
<path style="fill:#646464" d="M45 67 L44 66 L45 67 z"/>
<path style="fill:#9d9d9d" d="M55 68 C53.65 68.46 52.54 67.35 53 66 L55 68 z"/>
<path style="fill:#9b9b9b" d="M47 69 C45.82 69.15 45.98 67.66 46 67 C47.18 66.85 47.02 68.34 47 69 z"/>
<path style="fill:#b1b1b1" d="M51 68 L50 67 L51 68 z"/>
<path style="fill:#939393" d="M71 67 L70 68 L71 67 z"/>
<path style="fill:#a2a2a2" d="M16 69 L15 68 L16 69 z"/>
<path style="fill:#c9c9c9" d="M52 69 L51 68 L52 69 z"/>
<path style="fill:#6c6c6c" d="M57 68 C61.86 69.31 57.67 73.83 55 71 C58.39 71.37 55.49 69.32 55 68 L57 68 z"/>
<path style="fill:#a5a5a5" d="M17 70 L16 69 L17 70 z"/>
<path style="fill:#9d9d9d" d="M39 69 L38 70 L39 69 z"/>
<path style="fill:#a3a3a3" d="M53 70 L52 69 L53 70 z"/>
<path style="fill:#626262" d="M69 69 L68 70 L69 69 z"/>
<path style="fill:#838383" d="M20 71 L19 70 L20 71 z"/>
<path style="fill:#a4a4a4" d="M48 71 L47 70 L48 71 z"/>
<path style="fill:#909191" d="M55 71 C54.34 71.02 52.85 71.18 53 70 C53.66 69.98 55.15 69.82 55 71 z"/>
<path style="fill:#818181" d="M67 70 C67.15 71.18 65.66 71.02 65 71 C64.85 69.82 66.34 69.98 67 70 z"/>
<path style="fill:#939393" d="M49 72 L48 71 L49 72 z"/>
<path style="fill:#848484" d="M22 73 L21 72 L22 73 z"/>
<path style="fill:#848484" d="M36 72 L35 73 L36 72 z"/>
<path style="fill:#7e7e7e" d="M23 74 L22 73 L23 74 z"/>
<path style="fill:#989999" d="M34 73 L29 74 L34 73 z"/>
<path style="fill:#a2a2a2" d="M56 74 L51 73 L56 74 z"/>
<path style="fill:#9d9e9e" d="M28 74 C27.81 75.55 24.19 75.55 24 74 L28 74 z"/>
<path style="fill:#8d8d8d" d="M61 74 C61.04 75.48 57.96 75.48 58 74 L61 74 z"/>
</svg>
