<?xml version="1.0" standalone="yes"?>
<svg width="87" height="97">
<path style="fill:#fdfdfd" d="M87 0 L87 97 L0 97 L0 0 L87 0 z"/>
<path style="fill:#a2a3a3" d="M48 17 L42 17 C42.73 15.38 47.27 15.38 48 17 z"/>
<path style="fill:#6d6e6e" d="M40 17 L36 20 L36 19 L35 18 L40 17 z"/>
<path style="fill:#040505" d="M42 17 L48 17 L51 17 C50.85 18.18 52.34 18.02 53 18 L54 18 C53.85 19.18 55.34 19.02 56 19 L57 19 L58 20 L62 22 L63 23 L64 24 L65 25 L66 26 L67 27 L68 28 L69 30 L70 31 L72 36 C71.98 36.66 71.82 38.15 73 38 L74 43 L74 50 L74 53 L72 48 L70 42 L69 41 L63 35 L62 34 L61 34 L60 33 C57.81 32.51 57.17 35.4 57 37 L56 38 L52 42 C49.09 44.14 45.6 44.24 42 44 L40 44 L34 40 L33 38 L32 37 L32 36 L31 35 L31 33 L31 28 L31 27 C32.18 27.15 32.02 25.66 32 25 L32 24 L33 23 L33 22 L36 20 L40 17 L42 17 z"/>
<path style="fill:#989999" d="M53 18 C52.34 18.02 50.85 18.18 51 17 C51.66 16.98 53.15 16.82 53 18 z"/>
<path style="fill:#040505" d="M35 18 L36 19 C34.56 19.02 32.61 19.76 32 21 L27 26 L26 27 L26 28 L25 29 L25 30 C23.82 29.85 23.98 31.34 24 32 L24 35 C22.4 35.45 22.4 39.55 24 40 L24 41 C23.78 42.33 26.22 42.33 26 41 L33 41 L39 45 L40 47 L41 48 L42 51 C41.98 51.66 41.82 53.15 43 53 L43 56 C41.82 55.85 41.98 57.34 42 58 L42 60 L41 61 L41 62 L40 63 L38 65 L37 66 L36 67 L35 67 L34 68 L32 68 L26 68 L24 68 C22.76 66.94 21.01 64.94 19 65 C19.02 64.34 19.18 62.85 18 63 L17 62 L17 61 L16 60 L14 54 L14 52 L14 42 L14 40 L14 39 C15.18 39.15 15.02 37.66 15 37 L16 33 L17 32 L18 30 L19 29 L20 28 L25 23 L26 22 L28 21 L29 20 L30 20 L31 19 L35 18 z"/>
<path style="fill:#8f9090" d="M56 19 C55.34 19.02 53.85 19.18 54 18 C54.66 17.98 56.15 17.82 56 19 z"/>
<path style="fill:#878787" d="M31 19 L30 20 L31 19 z"/>
<path style="fill:#bbbbbb" d="M36 19 L36 20 L33 22 L32 21 C32.61 19.76 34.56 19.02 36 19 z"/>
<path style="fill:#a4a4a4" d="M58 20 L57 19 L58 20 z"/>
<path style="fill:#8c8c8c" d="M29 20 L28 21 L29 20 z"/>
<path style="fill:#f6f7f7" d="M32 21 L33 22 L33 23 L32 24 L32 25 C30.82 24.85 30.98 26.34 31 27 L31 28 C29.4 28.45 29.4 32.55 31 33 L31 35 L32 36 L32 37 L33 38 L34 40 L33 41 L26 41 L24 41 L24 40 L24 35 L24 32 C25.18 32.15 25.02 30.66 25 30 L25 29 L26 28 L26 27 L27 26 L32 21 z"/>
<path style="fill:#7d7d7d" d="M26 22 L25 23 L26 22 z"/>
<path style="fill:#a2a2a2" d="M63 23 L62 22 L63 23 z"/>
<path style="fill:#848484" d="M33 23 L32 24 L33 23 z"/>
<path style="fill:#878787" d="M64 24 L63 23 L64 24 z"/>
<path style="fill:#7a7a7a" d="M65 25 L64 24 L65 25 z"/>
<path style="fill:#5e5f5f" d="M32 25 C32.02 25.66 32.18 27.15 31 27 C30.98 26.34 30.82 24.85 32 25 z"/>
<path style="fill:#6d6d6d" d="M66 26 L65 25 L66 26 z"/>
<path style="fill:#7e7e7e" d="M27 26 L26 27 L27 26 z"/>
<path style="fill:#7b7b7b" d="M67 27 L66 26 L67 27 z"/>
<path style="fill:#9a9a9a" d="M68 28 L67 27 L68 28 z"/>
<path style="fill:#5a5a5a" d="M20 28 L19 29 L20 28 z"/>
<path style="fill:#8a8a8a" d="M26 28 L25 29 L26 28 z"/>
<path style="fill:#a0a0a0" d="M31 28 L31 33 C29.4 32.55 29.4 28.45 31 28 z"/>
<path style="fill:#898989" d="M19 29 L18 30 L19 29 z"/>
<path style="fill:#7d7d7d" d="M25 30 C25.02 30.66 25.18 32.15 24 32 C23.98 31.34 23.82 29.85 25 30 z"/>
<path style="fill:#787878" d="M70 31 L69 30 L70 31 z"/>
<path style="fill:#a4a4a4" d="M17 32 L16 33 L17 32 z"/>
<path style="fill:#f2f2f2" d="M60 33 L61 34 L62 34 L63 35 L69 41 L70 42 L72 48 L71 55 L71 51 L70 50 L70 49 L69 48 L68 47 L67 46 L66 45 L65 44 L64 44 L63 43 L61 43 C59.97 41.36 55.03 41.36 54 43 L52 43 L52 42 L56 38 L57 37 C57.17 35.4 57.81 32.51 60 33 z"/>
<path style="fill:#696969" d="M61 34 L60 33 L61 34 z"/>
<path style="fill:#5f5f5f" d="M63 35 L62 34 L63 35 z"/>
<path style="fill:#7c7c7c" d="M24 35 L24 40 C22.4 39.55 22.4 35.45 24 35 z"/>
<path style="fill:#828282" d="M32 36 L31 35 L32 36 z"/>
<path style="fill:#565656" d="M73 38 C71.82 38.15 71.98 36.66 72 36 C73.18 35.85 73.02 37.34 73 38 z"/>
<path style="fill:#6b6b6b" d="M15 37 C15.02 37.66 15.18 39.15 14 39 C13.98 38.34 13.82 36.85 15 37 z"/>
<path style="fill:#7d7d7d" d="M33 38 L32 37 L33 38 z"/>
<path style="fill:#9f9f9f" d="M57 37 L56 38 L57 37 z"/>
<path style="fill:#969797" d="M14 40 L14 42 L13 42 C12.98 41.34 12.82 39.85 14 40 z"/>
<path style="fill:#c2c2c2" d="M40 44 L39 45 L33 41 L34 40 L40 44 z"/>
<path style="fill:#888888" d="M26 41 C26.22 42.33 23.78 42.33 24 41 L26 41 z"/>
<path style="fill:#9a9a9a" d="M70 42 L69 41 L70 42 z"/>
<path style="fill:#2d2e2e" d="M14 42 L14 52 L13 52 L13 42 L14 42 z"/>
<path style="fill:#bbbcbc" d="M52 42 L52 43 L48 46 L42 44 C45.6 44.24 49.09 44.14 52 42 z"/>
<path style="fill:#686868" d="M61 43 L54 43 C55.03 41.36 59.97 41.36 61 43 z"/>
<path style="fill:#040404" d="M54 43 L61 43 L63 43 L64 44 L65 44 L66 45 L67 46 L68 47 L69 48 L70 49 L70 50 L71 51 L71 55 L71 59 L70 63 L69 64 L68 66 L67 67 L66 68 L65 69 L64 70 L63 71 L62 72 L60 73 L59 74 L58 74 L57 75 L56 75 L55 76 L54 76 C53.34 75.98 51.85 75.82 52 77 L51 77 L48 77 L40 77 L37 77 L36 77 C36.15 75.82 34.66 75.98 34 76 L29 74 L28 73 L27 73 L26 72 L23 69 L24 69 L29 71 C28.85 72.18 30.34 72.02 31 72 L32 72 C33.03 73.64 37.97 73.64 39 72 L43 71 L44 70 L45 70 L46 69 L48 68 C49.33 68.22 49.33 65.78 48 66 L47 65 L46 63 L45 62 C43.61 58.26 43.61 53.74 45 50 L46 49 L48 46 L52 43 L54 43 z"/>
<path style="fill:#6d6d6d" d="M64 44 L63 43 L64 44 z"/>
<path style="fill:#a6a7a7" d="M74 50 L74 43 C75.64 44.03 75.64 48.97 74 50 z"/>
<path style="fill:#f1f2f2" d="M40 44 L42 44 L48 46 L46 49 L45 50 C43.61 53.74 43.61 58.26 45 62 L46 63 L47 65 L48 66 L48 68 L46 69 L45 70 L44 70 L43 71 L39 72 L32 72 L31 72 C31.15 70.82 29.66 70.98 29 71 L24 69 L24 68 L26 68 C26.73 69.62 31.27 69.62 32 68 L34 68 L35 67 L36 67 L37 66 L38 65 L40 63 L41 62 L41 61 L42 60 L42 58 C43.18 58.15 43.02 56.66 43 56 L43 53 C43.02 52.34 43.18 50.85 42 51 L41 48 L40 47 L39 45 L40 44 z"/>
<path style="fill:#989898" d="M66 45 L65 44 L66 45 z"/>
<path style="fill:#6d6d6d" d="M67 46 L66 45 L67 46 z"/>
<path style="fill:#585858" d="M41 48 L40 47 L41 48 z"/>
<path style="fill:#6f6f6f" d="M69 48 L68 47 L69 48 z"/>
<path style="fill:#9d9d9d" d="M70 49 L69 48 L70 49 z"/>
<path style="fill:#565656" d="M74 53 L71 59 L71 55 L72 48 L74 53 z"/>
<path style="fill:#8f8f8f" d="M46 49 L45 50 L46 49 z"/>
<path style="fill:#8e8e8e" d="M71 51 L70 50 L71 51 z"/>
<path style="fill:#8e8e8e" d="M43 53 C41.82 53.15 41.98 51.66 42 51 C43.18 50.85 43.02 52.34 43 53 z"/>
<path style="fill:#949595" d="M14 52 L14 54 C12.82 54.15 12.98 52.66 13 52 L14 52 z"/>
<path style="fill:#717171" d="M43 56 C43.02 56.66 43.18 58.15 42 58 C41.98 57.34 41.82 55.85 43 56 z"/>
<path style="fill:#585858" d="M17 61 L16 60 L17 61 z"/>
<path style="fill:#6e6e6e" d="M42 60 L41 61 L42 60 z"/>
<path style="fill:#767676" d="M18 63 L17 62 L18 63 z"/>
<path style="fill:#7e7e7e" d="M41 62 L40 63 L41 62 z"/>
<path style="fill:#797979" d="M46 63 L45 62 L46 63 z"/>
<path style="fill:#8e8e8e" d="M19 65 C17.82 65.15 17.98 63.66 18 63 C19.18 62.85 19.02 64.34 19 65 z"/>
<path style="fill:#949494" d="M70 63 L69 64 L70 63 z"/>
<path style="fill:#626262" d="M24 68 L24 69 L23 69 L19 65 C21.01 64.94 22.76 66.94 24 68 z"/>
<path style="fill:#676767" d="M38 65 L37 66 L38 65 z"/>
<path style="fill:#9c9c9c" d="M48 66 L47 65 L48 66 z"/>
<path style="fill:#909090" d="M37 66 L36 67 L37 66 z"/>
<path style="fill:#8a8b8b" d="M48 68 L48 66 C49.33 65.78 49.33 68.22 48 68 z"/>
<path style="fill:#8e8e8e" d="M68 66 L67 67 L68 66 z"/>
<path style="fill:#848484" d="M35 67 L34 68 L35 67 z"/>
<path style="fill:#767676" d="M67 67 L66 68 L67 67 z"/>
<path style="fill:#696969" d="M32 68 C31.27 69.62 26.73 69.62 26 68 L32 68 z"/>
<path style="fill:#666666" d="M66 68 L65 69 L66 68 z"/>
<path style="fill:#727272" d="M46 69 L45 70 L46 69 z"/>
<path style="fill:#5f5f5f" d="M65 69 L64 70 L65 69 z"/>
<path style="fill:#757575" d="M44 70 L43 71 L44 70 z"/>
<path style="fill:#606060" d="M64 70 L63 71 L64 70 z"/>
<path style="fill:#9e9e9e" d="M31 72 C30.34 72.02 28.85 72.18 29 71 C29.66 70.98 31.15 70.82 31 72 z"/>
<path style="fill:#7a7a7a" d="M63 71 L62 72 L63 71 z"/>
<path style="fill:#8c8c8c" d="M27 73 L26 72 L27 73 z"/>
<path style="fill:#444545" d="M39 72 C37.97 73.64 33.03 73.64 32 72 L39 72 z"/>
<path style="fill:#5b5b5b" d="M29 74 L28 73 L29 74 z"/>
<path style="fill:#7e7e7e" d="M60 73 L59 74 L60 73 z"/>
<path style="fill:#6a6a6a" d="M58 74 L57 75 L58 74 z"/>
<path style="fill:#656565" d="M56 75 L55 76 L56 75 z"/>
<path style="fill:#707171" d="M36 77 C35.34 77.02 33.85 77.18 34 76 C34.66 75.98 36.15 75.82 36 77 z"/>
<path style="fill:#8d8e8e" d="M54 76 C54.15 77.18 52.66 77.02 52 77 C51.85 75.82 53.34 75.98 54 76 z"/>
<path style="fill:#9a9a9a" d="M40 77 L40 78 C39.05 77.81 37.06 78.59 37 77 L40 77 z"/>
<path style="fill:#323333" d="M48 77 L48 78 L40 78 L40 77 L48 77 z"/>
<path style="fill:#ababab" d="M51 77 C50.94 78.59 48.95 77.81 48 78 L48 77 L51 77 z"/>
</svg>
