<?xml version="1.0" standalone="yes"?>
<svg width="87" height="97">
<path style="fill:#fdfefe" d="M87 0 L87 97 L0 97 L0 0 L87 0 z"/>
<path style="fill:#959595" d="M31 21 C22.97 19.81 26.95 22.77 29 27 L23 23 C23.29 19.18 29.08 19.04 31 21 z"/>
<path style="fill:#949494" d="M40 21 L35 21 C35.45 19.4 39.55 19.4 40 21 z"/>
<path style="fill:#070707" d="M31 21 C30.96 22.48 34.04 22.48 34 21 L35 21 L40 21 C40.66 20.98 42.15 20.82 42 22 L40 24 C39.34 27.13 47.66 27.13 47 24 L45 22 L46 21 L52 21 C51.96 22.48 55.04 22.48 55 21 L62 22 C60.32 23.06 57.82 24.72 58 27 L57 28 L55 29 L32 29 L31 29 L30 28 L29 27 C26.95 22.77 22.97 19.81 31 21 z"/>
<path style="fill:#606161" d="M34 21 C34.04 22.48 30.96 22.48 31 21 L34 21 z"/>
<path style="fill:#747474" d="M46 21 L45 22 L46 21 z"/>
<path style="fill:#7d7d7d" d="M55 21 C55.04 22.48 51.96 22.48 52 21 L55 21 z"/>
<path style="fill:#5f5f5f" d="M43 24 C41.82 24.84 41.18 24.84 40 24 L42 22 C43.18 21.85 43.02 23.34 43 24 z"/>
<path style="fill:#4d4e4e" d="M45 22 L47 24 L44 25 C44.19 24.05 43.41 22.06 45 22 z"/>
<path style="fill:#9d9d9d" d="M62 22 L62 23 L58 27 C57.82 24.72 60.32 23.06 62 22 z"/>
<path style="fill:#070808" d="M29 27 L30 28 L31 29 L31 30 L32 42 L30 72 L29 73 L24.25 76.75 L24 70 C25.48 70.04 25.48 66.96 24 67 L24 66 L25 61 C27.33 63.41 28.7 53.05 25 54 C23.41 53.94 24.19 51.95 24 51 L24 49 L23 48 L23 46 L27 41 L27 40 C29.44 39.42 26.64 36.21 25 37 L24 32 L24 29 L23 28 L23 23 L29 27 z"/>
<path style="fill:#090909" d="M63 23 L63 24 L63 25 L63 27 L63 29 C61.52 28.96 61.52 32.04 63 32 L62 39 L60 39 C62.82 35.1 54.85 37.97 59 40 L59 41 C55.58 43.59 63.7 45.2 60 41 C61.69 40.59 63.41 42.31 63 44 L63 45 L63 48 L62 49 L62 50 L63 51 L63 55 L62 56 C61.47 52.76 56.16 54.9 59 57 L59 58 C58.11 61.78 60.84 60.62 63 60 L63 66 L63 67 L62 68 L62 69 L63 70 L63 72 C63.91 77.12 61.42 75.14 59 73 L56 68 L56 57 L56 47 L56 39 L56 31 L57 28 L58 27 L62 23 L63 23 z"/>
<path style="fill:#9f9f9f" d="M63 24 L63 23 C64.06 22.57 64.06 24.43 63 24 z"/>
<path style="fill:#abacac" d="M43 24 L44 25 L47 24 C47.66 27.13 39.34 27.13 40 24 C41.18 24.84 41.82 24.84 43 24 z"/>
<path style="fill:#afb0b0" d="M63 27 L63 25 C64.33 24.78 64.33 27.22 63 27 z"/>
<path style="fill:#bdbdbd" d="M30 28 L29 27 L30 28 z"/>
<path style="fill:#cbcbcb" d="M58 27 L57 28 L58 27 z"/>
<path style="fill:#6a6a6a" d="M24 29 L23 28 L24 29 z"/>
<path style="fill:#c1c1c1" d="M31 29 L30 28 L31 29 z"/>
<path style="fill:#9f9f9f" d="M57 28 L56 31 L55 32 L54 32 L53 31 L32 31 L32 30 L55 29 L57 28 z"/>
<path style="fill:#b5b5b5" d="M32 29 L32 30 L31 30 L31 29 L32 29 z"/>
<path style="fill:#3c3c3c" d="M55 29 L32 30 L32 29 L55 29 z"/>
<path style="fill:#8f8f8f" d="M63 29 L63 32 C61.52 32.04 61.52 28.96 63 29 z"/>
<path style="fill:#5f5f5f" d="M32 30 L32 31 L32 35 L32 42 L31 30 L32 30 z"/>
<path style="fill:#7b7b7b" d="M53 31 L54 32 L55 32 L56 39 L56 47 L55 47 C54.7 45.27 56.1 41.36 53 42 L52 33 C44.91 33.86 31.44 29.12 35 41 L33 41 L32 35 L32 31 L53 31 z"/>
<path style="fill:#0d0d0d" d="M54 32 L53 31 L54 32 z"/>
<path style="fill:#494a4a" d="M56 31 L56 39 L55 32 L56 31 z"/>
<path style="fill:#323333" d="M24 32 L25 37 L26 40 C21.95 40.5 22.19 33.53 24 32 z"/>
<path style="fill:#090909" d="M52 33 L51 42 L50 41 L40 41 C39.81 39.45 36.19 39.45 36 41 L51 44 C52.15 47.38 53.79 57.26 50 59 L47 56 L46 55 C45.94 53.41 43.95 54.19 43 54 C41.17 55.22 37.91 54.65 39 58 L38 60 L37 61 L36 62 C36.06 63.59 38.05 62.81 39 63 L40 62 L41 61 L42 60 L43 59 L42 56 L43 56 L47 61 L48 62 L53 63 C53.96 66.26 50.69 67.71 48 67 L35 66 L35 52 L35 42 L35 41 C31.44 29.12 44.91 33.86 52 33 z"/>
<path style="fill:#464747" d="M53 42 L53 45 L53 56 L53 60 C52.05 59.81 50.06 60.59 50 59 C53.79 57.26 52.15 47.38 51 44 L51 42 L52 33 L53 42 z"/>
<path style="fill:#999a9a" d="M33 41 L33 50 L33 58 L33 67 L44 69 L44 70 C39.31 70.58 33.63 68.42 30 72 L32 42 L32 35 L33 41 z"/>
<path style="fill:#e6e6e6" d="M49 35 L50 36 L50 38 L46 38 C43.26 37.48 36.83 39.69 37.25 35.25 L49 35 z"/>
<path style="fill:#6f6f6f" d="M50 36 L49 35 L50 36 z"/>
<path style="fill:#585959" d="M50 38 L50 36 C51.33 35.78 51.33 38.22 50 38 z"/>
<path style="fill:#989999" d="M27 40 L26 40 L25 37 C26.64 36.21 29.44 39.42 27 40 z"/>
<path style="fill:#898a8a" d="M60 39 L59 40 C54.85 37.97 62.82 35.1 60 39 z"/>
<path style="fill:#7b7b7b" d="M50 38 C49.81 39.55 46.19 39.55 46 38 L50 38 z"/>
<path style="fill:#8b8c8c" d="M62 39 C62.22 40.33 59.78 40.33 60 39 L62 39 z"/>
<path style="fill:#838484" d="M40 41 L36 41 C36.19 39.45 39.81 39.45 40 41 z"/>
<path style="fill:#ebecec" d="M50 41 L51 42 L51 44 L36 41 L40 41 L50 41 z"/>
<path style="fill:#999a9a" d="M27 41 L23 46 C22.76 43.59 23.92 40.05 27 41 z"/>
<path style="fill:#5f5f5f" d="M35 41 L35 42 L33 50 L33 41 L35 41 z"/>
<path style="fill:#676767" d="M51 42 L50 41 L51 42 z"/>
<path style="fill:#919191" d="M59 41 L60 41 C63.7 45.2 55.58 43.59 59 41 z"/>
<path style="fill:#1d1d1d" d="M25 42 C26.88 41.86 24.86 43.88 25 42 z"/>
<path style="fill:#7f7f7f" d="M35 42 L35 52 L34 58 L33 58 L33 50 L35 42 z"/>
<path style="fill:#949595" d="M55 47 L54 53 L53 45 L53 42 C56.1 41.36 54.7 45.27 55 47 z"/>
<path style="fill:#a3a3a3" d="M63 45 L63 44 C64.06 43.57 64.06 45.43 63 45 z"/>
<path style="fill:#b5b6b6" d="M54 53 L54 56 L53 56 L53 45 L54 53 z"/>
<path style="fill:#656565" d="M56 47 L56 57 L54.75 62.75 L54 56 L54 53 L55 47 L56 47 z"/>
<path style="fill:#9b9b9b" d="M24 49 L23 48 L24 49 z"/>
<path style="fill:#818181" d="M63 48 L62 49 L63 48 z"/>
<path style="fill:#9c9c9c" d="M63 51 L62 50 L63 51 z"/>
<path style="fill:#4c4d4d" d="M24 51 C24.19 51.95 23.41 53.94 25 54 L26 57 C22.73 57.77 21.82 52.1 24 51 z"/>
<path style="fill:#999999" d="M35 52 L35 66 L34 67 L34 58 L35 52 z"/>
<path style="fill:#a7a7a7" d="M25 61 L25 60 L26 57 L25 54 C28.7 53.05 27.33 63.41 25 61 z"/>
<path style="fill:#a7a8a8" d="M43 54 L43 56 L42 56 L39 58 C37.91 54.65 41.17 55.22 43 54 z"/>
<path style="fill:#ececec" d="M46 55 L47 56 L50 59 C50.06 60.59 52.05 59.81 53 60 L53 63 L48 62 L47 61 L43 56 L43 54 C43.95 54.19 45.94 53.41 46 55 z"/>
<path style="fill:#848484" d="M62 56 C61.94 57.59 59.95 56.81 59 57 C56.16 54.9 61.47 52.76 62 56 z"/>
<path style="fill:#7f7f7f" d="M47 56 L46 55 L47 56 z"/>
<path style="fill:#7c7c7c" d="M63 55 L62 56 L63 55 z"/>
<path style="fill:#ebecec" d="M42 56 L43 59 L42 60 L41 61 L40 62 L39 63 C38.05 62.81 36.06 63.59 36 62 L37 61 L38 60 L39 58 L42 56 z"/>
<path style="fill:#969696" d="M54 56 L54.75 62.75 L56 57 L56 68 L54 68 L41 68 L48 67 C50.69 67.71 53.96 66.26 53 63 L53 60 L53 56 L54 56 z"/>
<path style="fill:#595a5a" d="M34 58 L34 67 L33 67 L33 58 L34 58 z"/>
<path style="fill:#828383" d="M63 60 C60.84 60.62 58.11 61.78 59 58 C60.44 58.02 62.39 58.76 63 60 z"/>
<path style="fill:#606060" d="M43 59 L42 60 L43 59 z"/>
<path style="fill:#636464" d="M25 60 L25 61 L24 66 C22.38 65.23 21.98 59.28 25 60 z"/>
<path style="fill:#646464" d="M38 60 L37 61 L38 60 z"/>
<path style="fill:#6b6b6b" d="M42 60 L41 61 L42 60 z"/>
<path style="fill:#a2a3a3" d="M63 66 L63 60 C64.62 60.73 64.62 65.27 63 66 z"/>
<path style="fill:#7e7e7e" d="M37 61 L36 62 L37 61 z"/>
<path style="fill:#686868" d="M41 61 L40 62 L41 61 z"/>
<path style="fill:#979797" d="M48 62 L47 61 L48 62 z"/>
<path style="fill:#646464" d="M40 62 L39 63 L40 62 z"/>
<path style="fill:#747575" d="M48 67 L41 68 L34 67 L35 66 L48 67 z"/>
<path style="fill:#696969" d="M24 70 L24 67 C25.48 66.96 25.48 70.04 24 70 z"/>
<path style="fill:#1f2020" d="M34 67 L41 68 L54 68 L44 69 L33 67 L34 67 z"/>
<path style="fill:#8c8c8c" d="M63 67 L62 68 L63 67 z"/>
<path style="fill:#aeaeae" d="M56 68 L59 73 L59 74 C55.35 69.18 49.61 69.76 44 70 L44 69 L54 68 L56 68 z"/>
<path style="fill:#a8a8a8" d="M63 70 L62 69 L63 70 z"/>
<path style="fill:#818181" d="M24 70 L24.25 76.75 L29 73 L26 79 C21.85 78.58 22.22 72.13 24 70 z"/>
<path style="fill:#090a0a" d="M44 70 C49.61 69.76 55.35 69.18 59 74 L62 79 L46 79 L45 78 C43.82 78.15 43.98 76.66 44 76 L40 75 L40 76 C39.85 77.18 41.34 77.02 42 77 L41 78 L40 79 L36 79 C36.15 77.82 34.66 77.98 34 78 L32 78 C31.34 77.98 29.85 77.82 30 79 L26 79 L29 73 L30 72 C33.63 68.42 39.31 70.58 44 70 z"/>
<path style="fill:#bbbbbb" d="M30 72 L29 73 L30 72 z"/>
<path style="fill:#9b9b9b" d="M62 79 L59 74 L59 73 C61.42 75.14 63.91 77.12 63 72 C64.77 73.18 64.76 78.36 62 79 z"/>
<path style="fill:#8c8c8c" d="M44 76 L42 77 C41.34 77.02 39.85 77.18 40 76 C41.06 76.43 41.06 74.57 40 75 L44 76 z"/>
<path style="fill:#ebebeb" d="M40 76 L40 75 C41.06 74.57 41.06 76.43 40 76 z"/>
<path style="fill:#737373" d="M32 78 C32.15 79.18 30.66 79.02 30 79 C29.85 77.82 31.34 77.98 32 78 z"/>
<path style="fill:#8e8e8e" d="M36 79 C35.34 79.02 33.85 79.18 34 78 C34.66 77.98 36.15 77.82 36 79 z"/>
<path style="fill:#898989" d="M41 78 L40 79 L41 78 z"/>
<path style="fill:#949494" d="M46 79 L45 78 L46 79 z"/>
</svg>
