<?xml version="1.0" standalone="yes"?>
<svg width="87" height="97">
<path style="fill:#fdfdfd" d="M87 0 L87 97 L0 97 L0 0 L87 0 z"/>
<path style="fill:#9e9e9e" d="M37 19 L36 20 L37 19 z"/>
<path style="fill:#0d0d0d" d="M42 19 L53 20 L55 21 L56 22 L57 23 L70 37 L71 38 L72 39 L73 40 L71 58 L70 59 L69 60 L68 61 L67 62 L66 63 L63 66 L62 67 L61 68 L60 69 L59 70 L58 71 L53 75 L36 75 L35 74 L34 73 L33 72 L32 71 L31 70 L18 56 L17 55 C13.14 41.48 22.45 33.45 31 25 L32 24 L33 23 L34 22 L35 21 L36 20 L37 19 L42 19 z"/>
<path style="fill:#525353" d="M53 19 L53 20 L42 19 L53 19 z"/>
<path style="fill:#b2b2b2" d="M55 21 L53 20 L53 19 C54.35 18.54 55.46 19.65 55 21 z"/>
<path style="fill:#9f9f9f" d="M35 21 L34 22 L35 21 z"/>
<path style="fill:#7b7b7b" d="M56 22 L55 21 L56 22 z"/>
<path style="fill:#979797" d="M34 22 L33 23 L34 22 z"/>
<path style="fill:#a2a2a2" d="M57 23 L56 22 L57 23 z"/>
<path style="fill:#949494" d="M33 23 L32 24 L33 23 z"/>
<path style="fill:#494a4a" d="M50 24 L42 24 C43.34 22.35 48.66 22.35 50 24 z"/>
<path style="fill:#a5a5a5" d="M32 24 L31 25 L32 24 z"/>
<path style="fill:#f7f8f8" d="M42 24 L50 24 C51.34 23.67 52.74 24.71 53 26 L54 27 L55 28 L56 29 L57 30 L58 31 L59 32 L60 33 L61 34 L62 35 C61.54 36.35 62.65 37.46 64 37 L65 38 L66 39 L67 40 L68 42 L68 53 L68 54 L67 55 L66 56 L65 57 L64 58 L63 59 L62 60 L61 61 L60 62 L59 63 L58 64 L57 65 L56 66 C50.07 73.74 36.48 73.17 32 64 L31 63 L31 62 L33 62 L34 62 C34.73 63.62 39.27 63.62 40 62 L42 62 L46 62 L50 62 C50.73 63.62 55.27 63.62 56 62 C60.4 62.25 58.69 56.72 59 54 L59 52 L59 45 L56 43 C60.7 44.15 58.76 37.88 58.75 35.25 L42 34 C41.34 33.98 39.85 33.82 40 35 L34 35 L33 34 L31 42 L31 44 L31 45 L31 52 L31 53 L31 61 L31 62 L30 62 L29 61 L22 53 L22 41 L26 36 C26.66 36.02 28.15 36.18 28 35 L34 28 C34.66 28.02 36.15 28.18 36 27 L37 26 L38 25 L42 24 z"/>
<path style="fill:#9f9f9f" d="M38 25 L37 26 L38 25 z"/>
<path style="fill:#9e9e9e" d="M54 27 L53 26 L54 27 z"/>
<path style="fill:#878888" d="M36 27 C36.15 28.18 34.66 28.02 34 28 C33.85 26.82 35.34 26.98 36 27 z"/>
<path style="fill:#8e8e8e" d="M55 28 L54 27 L55 28 z"/>
<path style="fill:#868686" d="M56 29 L55 28 L56 29 z"/>
<path style="fill:#7d7d7d" d="M57 30 L56 29 L57 30 z"/>
<path style="fill:#787878" d="M58 31 L57 30 L58 31 z"/>
<path style="fill:#8b8b8b" d="M59 32 L58 31 L59 32 z"/>
<path style="fill:#828282" d="M60 33 L59 32 L60 33 z"/>
<path style="fill:#717171" d="M61 34 L60 33 L61 34 z"/>
<path style="fill:#070707" d="M33 34 L34 35 L40 35 C40.66 35.02 42.15 35.18 42 34 L58.75 35.25 C58.76 37.88 60.7 44.15 56 43 C53 42.69 49.56 43.82 47 42 L43 42 C42.34 41.98 40.85 41.82 41 43 L38 43 L34 43 L31 42 L33 34 z"/>
<path style="fill:#5b5b5b" d="M34 35 L33 34 L34 35 z"/>
<path style="fill:#5a5b5b" d="M42 34 C42.15 35.18 40.66 35.02 40 35 C39.85 33.82 41.34 33.98 42 34 z"/>
<path style="fill:#737373" d="M62 35 L61 34 L62 35 z"/>
<path style="fill:#7e7e7e" d="M28 35 C28.15 36.18 26.66 36.02 26 36 C25.85 34.82 27.34 34.98 28 35 z"/>
<path style="fill:#9d9e9e" d="M64 37 C62.65 37.46 61.54 36.35 62 35 L64 37 z"/>
<path style="fill:#7a7a7a" d="M65 38 L64 37 L65 38 z"/>
<path style="fill:#6d6d6d" d="M71 38 L70 37 L71 38 z"/>
<path style="fill:#626262" d="M66 39 L65 38 L66 39 z"/>
<path style="fill:#686868" d="M72 39 L71 38 L72 39 z"/>
<path style="fill:#6a6a6a" d="M67 40 L66 39 L67 40 z"/>
<path style="fill:#616161" d="M73 40 L72 39 L73 40 z"/>
<path style="fill:#7a7a7a" d="M22 41 L22 53 C20.34 50.36 20.34 43.64 22 41 z"/>
<path style="fill:#a7a8a8" d="M34 43 C33.94 44.59 31.95 43.81 31 44 L31 42 L34 43 z"/>
<path style="fill:#868686" d="M43 42 L43 43 C43.15 44.18 41.66 44.02 41 44 L41 43 C40.85 41.82 42.34 41.98 43 42 z"/>
<path style="fill:#dcdcdc" d="M47 42 L47 43 L43 43 L43 42 L47 42 z"/>
<path style="fill:#757676" d="M56 43 L59 45 C54.89 45.08 49.97 45.19 47 43 L47 42 C49.56 43.82 53 42.69 56 43 z"/>
<path style="fill:#999a9a" d="M68 53 L68 42 C69.66 44.31 69.66 50.69 68 53 z"/>
<path style="fill:#5f5f5f" d="M38 43 L38 44 L31 45 L31 44 C31.95 43.81 33.94 44.59 34 43 L38 43 z"/>
<path style="fill:#d5d6d6" d="M41 43 L41 44 L38 44 L38 43 L41 43 z"/>
<path style="fill:#070808" d="M47 43 C49.97 45.19 54.89 45.08 59 45 L59 52 C56.44 53.82 53 52.69 50 53 L31 52 L31 45 L38 44 L41 44 C41.66 44.02 43.15 44.18 43 43 L47 43 z"/>
<path style="fill:#c0c0c0" d="M50 53 L50 54 C44.02 50.61 37.02 56.52 31 53 L31 52 L50 53 z"/>
<path style="fill:#d2d2d2" d="M59 52 L59 54 L56 54 L52 54 L50 54 L50 53 C53 52.69 56.44 53.82 59 52 z"/>
<path style="fill:#070808" d="M50 54 L52 54 C52.19 55.55 55.81 55.55 56 54 L59 54 C58.69 56.72 60.4 62.25 56 62 L50 62 L46 62 C45.81 60.45 42.19 60.45 42 62 L40 62 L34 62 L33 62 C33.15 60.82 31.66 60.98 31 61 L31 53 C37.02 56.52 44.02 50.61 50 54 z"/>
<path style="fill:#535353" d="M56 54 C55.81 55.55 52.19 55.55 52 54 L56 54 z"/>
<path style="fill:#6d6d6d" d="M68 54 L67 55 L68 54 z"/>
<path style="fill:#777777" d="M18 56 L17 55 L18 56 z"/>
<path style="fill:#727272" d="M67 55 L66 56 L67 55 z"/>
<path style="fill:#6e6e6e" d="M66 56 L65 57 L66 56 z"/>
<path style="fill:#9e9e9e" d="M65 57 L64 58 L65 57 z"/>
<path style="fill:#858585" d="M64 58 L63 59 L64 58 z"/>
<path style="fill:#676767" d="M71 58 L70 59 L71 58 z"/>
<path style="fill:#767676" d="M63 59 L62 60 L63 59 z"/>
<path style="fill:#676767" d="M70 59 L69 60 L70 59 z"/>
<path style="fill:#666666" d="M62 60 L61 61 L62 60 z"/>
<path style="fill:#6a6a6a" d="M69 60 L68 61 L69 60 z"/>
<path style="fill:#6b6b6b" d="M30 62 L29 61 L30 62 z"/>
<path style="fill:#7b7c7c" d="M33 62 L31 62 L31 61 C31.66 60.98 33.15 60.82 33 62 z"/>
<path style="fill:#909191" d="M46 62 L42 62 C42.19 60.45 45.81 60.45 46 62 z"/>
<path style="fill:#656565" d="M61 61 L60 62 L61 61 z"/>
<path style="fill:#858585" d="M68 61 L67 62 L68 61 z"/>
<path style="fill:#8b8b8b" d="M31 62 L31 63 L30 62 L31 62 z"/>
<path style="fill:#a2a3a3" d="M40 62 C39.27 63.62 34.73 63.62 34 62 L40 62 z"/>
<path style="fill:#535353" d="M56 62 C55.27 63.62 50.73 63.62 50 62 L56 62 z"/>
<path style="fill:#7e7e7e" d="M60 62 L59 63 L60 62 z"/>
<path style="fill:#929292" d="M67 62 L66 63 L67 62 z"/>
<path style="fill:#898989" d="M32 64 L31 63 L32 64 z"/>
<path style="fill:#787878" d="M59 63 L58 64 L59 63 z"/>
<path style="fill:#b1b1b1" d="M66 63 C66.41 64.69 64.69 66.41 63 66 L66 63 z"/>
<path style="fill:#767676" d="M58 64 L57 65 L58 64 z"/>
<path style="fill:#939393" d="M57 65 L56 66 L57 65 z"/>
<path style="fill:#a2a2a2" d="M63 66 L62 67 L63 66 z"/>
<path style="fill:#a1a1a1" d="M62 67 L61 68 L62 67 z"/>
<path style="fill:#a7a7a7" d="M61 68 L60 69 L61 68 z"/>
<path style="fill:#a2a2a2" d="M60 69 L59 70 L60 69 z"/>
<path style="fill:#a3a3a3" d="M32 71 L31 70 L32 71 z"/>
<path style="fill:#a9a9a9" d="M59 70 L58 71 L59 70 z"/>
<path style="fill:#8e8e8e" d="M33 72 L32 71 L33 72 z"/>
<path style="fill:#6c6c6c" d="M34 73 L33 72 L34 73 z"/>
<path style="fill:#898989" d="M35 74 L34 73 L35 74 z"/>
<path style="fill:#9d9d9d" d="M36 75 L35 74 L36 75 z"/>
<path style="fill:#5e5f5f" d="M53 75 C48.7 76.66 40.3 76.66 36 75 L53 75 z"/>
</svg>
