<?xml version="1.0" standalone="yes"?>
<svg width="87" height="97">
<path style="fill:#fcfdfd" d="M87 0 L87 97 L0 97 L0 0 L87 0 z"/>
<path style="fill:#050505" d="M48 14 L49 15 C50.44 15.02 52.39 15.76 53 17 L54 18 L54 19 L55 20 C55.19 20.95 54.41 22.94 56 23 C56.28 26.71 54.56 29.83 53 33 L52 34 L49 35 L39 35 L37 35 L36 34 L35 33 L34 32 C32.27 28.71 31.45 25.1 32 21 L33 20 C34.18 20.15 34.02 18.66 34 18 L35 17 L36 16 L37 15 L48 14 z"/>
<path style="fill:#696969" d="M49 15 L48 14 L49 15 z"/>
<path style="fill:#909090" d="M37 15 L36 16 L37 15 z"/>
<path style="fill:#858585" d="M36 16 L35 17 L36 16 z"/>
<path style="fill:#767676" d="M35 17 L34 18 L35 17 z"/>
<path style="fill:#919191" d="M54 18 L53 17 L54 18 z"/>
<path style="fill:#747575" d="M34 18 C34.02 18.66 34.18 20.15 33 20 C32.98 19.34 32.82 17.85 34 18 z"/>
<path style="fill:#818181" d="M55 20 L54 19 L55 20 z"/>
<path style="fill:#9b9b9b" d="M33 20 L32 21 L33 20 z"/>
<path style="fill:#9a9b9b" d="M56 23 C54.41 22.94 55.19 20.95 55 20 C56.59 20.06 55.81 22.05 56 23 z"/>
<path style="fill:#adaeae" d="M32 21 C31.45 25.1 32.27 28.71 34 32 L33 33 C31.82 33.15 31.98 31.66 32 31 L31 30 L30 28 L32 21 z"/>
<path style="fill:#afb0b0" d="M58 28 L54 35 C54.02 34.34 54.18 32.85 53 33 C54.56 29.83 56.28 26.71 56 23 L58 28 z"/>
<path style="fill:#babbbb" d="M25 26 L18 26 C19.03 24.36 23.97 24.36 25 26 z"/>
<path style="fill:#b1b1b1" d="M72 27 L63 26 C64.74 24.43 70.86 23.86 72 27 z"/>
<path style="fill:#8c8c8c" d="M17 26 C17.15 27.18 15.66 27.02 15 27 C14.85 25.82 16.34 25.98 17 26 z"/>
<path style="fill:#050606" d="M18 26 L25 26 C25.06 27.59 27.05 26.81 28 27 C27.85 28.18 29.34 28.02 30 28 L31 30 L32 31 C31.98 31.66 31.82 33.15 33 33 L33 34 C33.24 37.6 33.14 41.09 31 44 L30 45 L29 46 L28 47 L27 47 C26.34 46.98 24.85 46.82 25 48 L19 48 C16.19 48.24 13.19 46.57 12 44 L11 43 L10 40 L10 34 C11.18 34.15 11.02 32.66 11 32 C12.18 32.15 12.02 30.66 12 30 L12 29 C12.66 29.02 14.15 29.18 14 28 L15 27 C15.66 27.02 17.15 27.18 17 26 L18 26 z"/>
<path style="fill:#919191" d="M28 27 C27.05 26.81 25.06 27.59 25 26 C25.95 26.19 27.94 25.41 28 27 z"/>
<path style="fill:#aaaaaa" d="M61 26 C61.15 27.18 59.66 27.02 59 27 C58.85 25.82 60.34 25.98 61 26 z"/>
<path style="fill:#050505" d="M63 26 L72 27 C71.85 28.18 73.34 28.02 74 28 L75 29 L76 30 C75.98 30.66 75.82 32.15 77 32 L77 40 L77 43 L76 44 L73 46 L72 47 C71.34 46.98 69.85 46.82 70 48 L69 48 L60 47 C60.15 45.82 58.66 45.98 58 46 L57 45 L54 39 L54 35 L58 28 L59 27 C59.66 27.02 61.15 27.18 61 26 L63 26 z"/>
<path style="fill:#919191" d="M15 27 L14 28 L15 27 z"/>
<path style="fill:#8b8b8b" d="M30 28 C29.34 28.02 27.85 28.18 28 27 C28.66 26.98 30.15 26.82 30 28 z"/>
<path style="fill:#7b7c7c" d="M74 28 C73.34 28.02 71.85 28.18 72 27 C72.66 26.98 74.15 26.82 74 28 z"/>
<path style="fill:#787979" d="M14 28 C14.15 29.18 12.66 29.02 12 29 C11.85 27.82 13.34 27.98 14 28 z"/>
<path style="fill:#666666" d="M75 29 L74 28 L75 29 z"/>
<path style="fill:#828282" d="M76 30 L75 29 L76 30 z"/>
<path style="fill:#565656" d="M12 30 C12.02 30.66 12.18 32.15 11 32 C10.98 31.34 10.82 29.85 12 30 z"/>
<path style="fill:#595959" d="M32 31 L31 30 L32 31 z"/>
<path style="fill:#7f7f7f" d="M77 32 C75.82 32.15 75.98 30.66 76 30 C77.18 29.85 77.02 31.34 77 32 z"/>
<path style="fill:#626262" d="M11 32 C11.02 32.66 11.18 34.15 10 34 C9.981 33.34 9.819 31.85 11 32 z"/>
<path style="fill:#f3f4f4" d="M34 32 L35 33 L36 34 L37 35 L39 35 L39 36 L41 38 L40 38 C39.34 37.98 37.85 37.82 38 39 L35 40 L33 34 L33 33 L34 32 z"/>
<path style="fill:#7d7d7d" d="M35 33 L34 32 L35 33 z"/>
<path style="fill:#474848" d="M78 40 L77 40 L77 32 L78 40 z"/>
<path style="fill:#8b8b8b" d="M36 34 L35 33 L36 34 z"/>
<path style="fill:#6b6b6b" d="M53 33 L52 34 L53 33 z"/>
<path style="fill:#e5e6e6" d="M54 35 L54 39 C54.02 39.66 54.18 41.15 53 41 L50 39 C49.94 37.41 47.95 38.19 47 38 L49 36 L49 35 L52 34 L53 33 C54.18 32.85 54.02 34.34 54 35 z"/>
<path style="fill:#7b7c7c" d="M10 34 L10 40 C8.379 39.27 8.379 34.73 10 34 z"/>
<path style="fill:#a8a8a8" d="M35 40 C35.06 42.01 33.06 43.76 32 45 L31 44 C33.14 41.09 33.24 37.6 33 34 L35 40 z"/>
<path style="fill:#979797" d="M37 35 L36 34 L37 35 z"/>
<path style="fill:#313131" d="M49 35 L49 36 L39 36 L39 35 L49 35 z"/>
<path style="fill:#c7c7c7" d="M49 36 L47 38 L41 38 L39 36 L49 36 z"/>
<path style="fill:#949595" d="M40 38 C40.15 39.18 38.66 39.02 38 39 C37.85 37.82 39.34 37.98 40 38 z"/>
<path style="fill:#060606" d="M41 38 L47 38 C47.06 39.59 49.05 38.81 50 39 L53 41 L56 47 L56 51 L53 57 L50 59 C49.34 58.98 47.85 58.82 48 60 L40 60 C38.15 59.8 35.68 58.97 35 57 L34 56 C34.33 54.66 33.29 53.26 32 53 L32 46 L32 45 C33.06 43.76 35.06 42.01 35 40 L38 39 C38.66 39.02 40.15 39.18 40 38 L41 38 z"/>
<path style="fill:#777878" d="M50 39 C49.05 38.81 47.06 39.59 47 38 C47.95 38.19 49.94 37.41 50 39 z"/>
<path style="fill:#939393" d="M57 45 C55.82 44.85 55.98 46.34 56 47 L53 41 C54.18 41.15 54.02 39.66 54 39 L57 45 z"/>
<path style="fill:#a0a0a0" d="M78 40 C77.81 40.95 78.59 42.94 77 43 L77 40 L78 40 z"/>
<path style="fill:#5b5b5b" d="M12 44 L11 43 L12 44 z"/>
<path style="fill:#a0a0a0" d="M77 43 L76 44 L77 43 z"/>
<path style="fill:#595959" d="M31 44 L30 45 L31 44 z"/>
<path style="fill:#787979" d="M76 44 C76.67 46.11 74.42 46.21 73 46 L76 44 z"/>
<path style="fill:#5e5e5e" d="M30 45 L29 46 L30 45 z"/>
<path style="fill:#848484" d="M58 46 L57 45 L58 46 z"/>
<path style="fill:#6e6e6e" d="M29 46 L28 47 L29 46 z"/>
<path style="fill:#cccccc" d="M32 46 L32 53 L31 54 L30 53 L30 52 L32 46 z"/>
<path style="fill:#5d5d5d" d="M60 47 C59.34 47.02 57.85 47.18 58 46 C58.66 45.98 60.15 45.82 60 47 z"/>
<path style="fill:#5b5c5c" d="M27 47 C27.15 48.18 25.66 48.02 25 48 C24.85 46.82 26.34 46.98 27 47 z"/>
<path style="fill:#6e6f6f" d="M69 48 C67.04 50.33 61.78 48.64 60 47 L69 48 z"/>
<path style="fill:#848585" d="M72 47 C72.15 48.18 70.66 48.02 70 48 C69.85 46.82 71.34 46.98 72 47 z"/>
<path style="fill:#848484" d="M25 48 C24.27 49.62 19.73 49.62 19 48 L25 48 z"/>
<path style="fill:#5b5b5b" d="M26 51 L16 51 C17.99 49.34 24.01 49.34 26 51 z"/>
<path style="fill:#5b5b5b" d="M71 51 L60 51 C62.31 49.34 68.69 49.34 71 51 z"/>
<path style="fill:#8b8b8b" d="M16 51 C16.15 52.18 14.66 52.02 14 52 C13.85 50.82 15.34 50.98 16 51 z"/>
<path style="fill:#060707" d="M26 51 C26.95 51.19 28.94 50.41 29 52 L30 53 L31 54 L33 57 L33 58 C33.34 62.4 33.18 66.81 30 70 L29 70 L28 71 C27.34 70.98 25.85 70.82 26 72 L17 72 C17.15 70.82 15.66 70.98 15 71 C15.15 69.82 13.66 69.98 13 70 L12 69 C12.02 68.34 12.18 66.85 11 67 L10 64 L10 59 L11 55 L12 54 L13 53 L14 52 C14.66 52.02 16.15 52.18 16 51 L26 51 z"/>
<path style="fill:#a5a6a6" d="M56 51 C55.98 51.66 55.82 53.15 57 53 L54 58 L53 57 L56 51 z"/>
<path style="fill:#9e9f9f" d="M60 51 C60.15 52.18 58.66 52.02 58 52 C57.85 50.82 59.34 50.98 60 51 z"/>
<path style="fill:#050505" d="M71 51 L73 51 L74 52 L75 53 L76 54 L76 56 L77 65 L77 66 C75.82 65.85 75.98 67.34 76 68 L75 69 L73 71 L72 71 C71.34 70.98 69.85 70.82 70 72 L62 72 L61 72 C57.96 69.93 55.9 67.31 54 64 L54 58 L57 53 L58 52 C58.66 52.02 60.15 52.18 60 51 L71 51 z"/>
<path style="fill:#aaaaaa" d="M74 52 L73 51 L74 52 z"/>
<path style="fill:#737373" d="M14 52 L13 53 L14 52 z"/>
<path style="fill:#797979" d="M30 52 L30 53 L29 52 L30 52 z"/>
<path style="fill:#909090" d="M58 52 L57 53 L58 52 z"/>
<path style="fill:#7c7d7d" d="M34 56 L33 57 L31 54 L32 53 C33.29 53.26 34.33 54.66 34 56 z"/>
<path style="fill:#9d9d9d" d="M76 54 L75 53 L76 54 z"/>
<path style="fill:#999999" d="M12 54 L11 55 L12 54 z"/>
<path style="fill:#9e9e9e" d="M77 56 L76 56 L76 54 C77.18 53.85 77.02 55.34 77 56 z"/>
<path style="fill:#e9e9e9" d="M34 56 L35 57 C35.68 58.97 38.15 59.8 40 60 C41.34 61.65 46.66 61.65 48 60 C48.66 60.02 50.15 60.18 50 59 L53 57 L54 58 L54 64 C54.02 64.66 54.18 66.15 53 66 C53.46 64.65 52.35 63.54 51 64 L50 63 L48 63 L40 62 C39.34 61.98 37.85 61.82 38 63 L37 64 L35 65 L33 58 L33 57 L34 56 z"/>
<path style="fill:#5b5b5b" d="M35 57 L34 56 L35 57 z"/>
<path style="fill:#424242" d="M77 56 C78.31 58.39 78.88 63.15 77 65 L76 56 L77 56 z"/>
<path style="fill:#b3b3b3" d="M35 65 C31.82 68.19 31.66 72.6 32 77 L30 70 C33.18 66.81 33.34 62.4 33 58 L35 65 z"/>
<path style="fill:#8b8b8b" d="M10 59 L10 64 C8.403 63.55 8.403 59.45 10 59 z"/>
<path style="fill:#848585" d="M50 59 C50.15 60.18 48.66 60.02 48 60 C47.85 58.82 49.34 58.98 50 59 z"/>
<path style="fill:#959595" d="M48 60 C46.66 61.65 41.34 61.65 40 60 L48 60 z"/>
<path style="fill:#989898" d="M40 62 L40 63 L38 63 C37.85 61.82 39.34 61.98 40 62 z"/>
<path style="fill:#343434" d="M48 63 L40 63 L40 62 L48 63 z"/>
<path style="fill:#7f7f7f" d="M38 63 L37 64 L38 63 z"/>
<path style="fill:#050606" d="M40 63 L48 63 L50 63 L51 64 L53 66 C54.95 68.6 56.27 71.59 56 75 L54 79 L54 80 L51 83 L50 83 L49 84 L46 84 L45 85 L39 84 L38 83 L37 83 C37.15 81.82 35.66 81.98 35 82 C35.02 81.34 35.18 79.85 34 80 L33 79 C33.02 78.34 33.18 76.85 32 77 C31.66 72.6 31.82 68.19 35 65 L37 64 L38 63 L40 63 z"/>
<path style="fill:#727272" d="M51 64 L50 63 L51 64 z"/>
<path style="fill:#838383" d="M53 66 L51 64 C52.35 63.54 53.46 64.65 53 66 z"/>
<path style="fill:#a4a4a4" d="M61 72 C57.16 69.86 57.4 72.62 56 75 C56.27 71.59 54.95 68.6 53 66 C54.18 66.15 54.02 64.66 54 64 C55.9 67.31 57.96 69.93 61 72 z"/>
<path style="fill:#7d7e7e" d="M77 66 C77.02 66.66 77.18 68.15 76 68 C75.98 67.34 75.82 65.85 77 66 z"/>
<path style="fill:#a5a6a6" d="M12 69 C10.82 69.15 10.98 67.66 11 67 C12.18 66.85 12.02 68.34 12 69 z"/>
<path style="fill:#747474" d="M76 68 L75 69 L76 68 z"/>
<path style="fill:#9f9f9f" d="M13 70 L12 69 L13 70 z"/>
<path style="fill:#9a9b9b" d="M75 69 C75.46 70.35 74.35 71.46 73 71 L75 69 z"/>
<path style="fill:#747575" d="M15 71 C14.34 71.02 12.85 71.18 13 70 C13.66 69.98 15.15 69.82 15 71 z"/>
<path style="fill:#5a5a5a" d="M29 70 L28 71 L29 70 z"/>
<path style="fill:#838383" d="M17 72 C16.34 72.02 14.85 72.18 15 71 C15.66 70.98 17.15 70.82 17 72 z"/>
<path style="fill:#848585" d="M28 71 C28.15 72.18 26.66 72.02 26 72 C25.85 70.82 27.34 70.98 28 71 z"/>
<path style="fill:#6c6c6c" d="M72 71 C72.15 72.18 70.66 72.02 70 72 C69.85 70.82 71.34 70.98 72 71 z"/>
<path style="fill:#ababab" d="M26 72 C24.34 73.65 18.66 73.65 17 72 L26 72 z"/>
<path style="fill:#a9a9a9" d="M70 72 C68.66 73.65 63.34 73.65 62 72 L70 72 z"/>
<path style="fill:#a0a0a0" d="M56 75 C55.94 76.55 56.68 79.71 54 79 L56 75 z"/>
<path style="fill:#adaeae" d="M33 79 C31.82 79.15 31.98 77.66 32 77 C33.18 76.85 33.02 78.34 33 79 z"/>
<path style="fill:#5a5a5a" d="M34 80 L33 79 L34 80 z"/>
<path style="fill:#7e7f7f" d="M35 82 C33.82 82.15 33.98 80.66 34 80 C35.18 79.85 35.02 81.34 35 82 z"/>
<path style="fill:#afafaf" d="M54 80 C54.41 81.69 52.69 83.41 51 83 L54 80 z"/>
<path style="fill:#828383" d="M37 83 C36.34 83.02 34.85 83.18 35 82 C35.66 81.98 37.15 81.82 37 83 z"/>
<path style="fill:#606060" d="M39 84 L38 83 L39 84 z"/>
<path style="fill:#717171" d="M50 83 L49 84 L50 83 z"/>
<path style="fill:#5d5d5d" d="M46 84 L45 85 L46 84 z"/>
</svg>
