<?xml version="1.0" standalone="yes"?>
<svg width="87" height="97">
<path style="fill:#fdfdfd" d="M87 0 L87 97 L0 97 L0 0 L87 0 z"/>
<path style="fill:#333434" d="M36 23 L37 24 L34 26 L35 28 L31 28 C29.82 27.14 27.37 27.12 28 25 L29 24 C30.97 22.44 33.61 23.14 36 23 z"/>
<path style="fill:#a2a2a2" d="M37 24 L36 23 L37 24 z"/>
<path style="fill:#a6a6a6" d="M58 24 L56 24 L52 24 C52.73 22.38 57.27 22.38 58 24 z"/>
<path style="fill:#909090" d="M29 24 L28 25 L29 24 z"/>
<path style="fill:#6c6c6c" d="M39 24 C38.27 27.43 36.77 26.22 34 26 L37 24 L39 24 z"/>
<path style="fill:#0f0f0f" d="M43 25 L44 36 L43 36 C43.07 33.39 40.33 25.59 38 30 C37.74 28.71 36.34 27.67 35 28 L34 26 C36.77 26.22 38.27 27.43 39 24 L43 25 z"/>
<path style="fill:#979797" d="M52 24 L46 25 L52 24 z"/>
<path style="fill:#131313" d="M56 24 L53 26 C49.77 25.63 45.5 29.5 46.25 32.75 L53 26 L57 26 C58.08 30.54 59.83 36.5 61.25 29.25 L63 29 L64 30 L65 31 L65 32 L67 37 L69 38 C69.66 44.33 64.5 35.56 61.25 38.25 L70 43 C72.2 45.12 72.25 48 72 51 L71 52 L70 53 L67 59 L63 59 L60 55 L58 46 L59 49 C59.55 51.26 62.19 57.04 64 53 C64.68 60.69 69.79 52.8 64 53 C64.33 51.66 63.29 50.26 62 50 L62 48 C64.46 48.63 66.26 54.68 66 49 C66.67 51.73 70.21 53.01 68 49 C70.81 47.84 69.76 44.97 67 44 C66.74 42.71 65.34 41.67 64 42 C61.74 38.78 53.26 38.78 51 42 C58.19 43.44 53.89 56.53 53.25 45.75 L51 47 L48 43 L50 40 L58.75 37.75 L52 37 C56.48 35.84 58.01 32.95 52 35 C51.34 35.02 49.85 35.18 50 34 L52.75 29.75 C51.6 25.26 43.53 39.87 52 37 L50 39 L46 41 L45 37 L45 36 L45 25 L46 25 L52 24 L56 24 z"/>
<path style="fill:#6a6b6b" d="M58 24 C58.66 23.98 60.15 23.82 60 25 C59.05 25.19 57.06 24.41 57 26 L53 26 L56 24 L58 24 z"/>
<path style="fill:#4d4e4e" d="M28 25 C27.37 27.12 29.82 27.14 31 28 L31 29 L27 29 L26 28 L26 27 L28 25 z"/>
<path style="fill:#424343" d="M45 25 L45 36 L44 36 L43 25 L45 25 z"/>
<path style="fill:#2d2d2d" d="M60 25 C59.98 25.66 59.82 27.15 61 27 L63 29 L61.25 29.25 C59.83 36.5 58.08 30.54 57 26 C57.06 24.41 59.05 25.19 60 25 z"/>
<path style="fill:#abacac" d="M61 27 C59.82 27.15 59.98 25.66 60 25 C61.18 24.85 61.02 26.34 61 27 z"/>
<path style="fill:#414242" d="M53 26 L46.25 32.75 C45.5 29.5 49.77 25.63 53 26 z"/>
<path style="fill:#aaaaaa" d="M26 27 L26 28 L25 28 L26 27 z"/>
<path style="fill:#131414" d="M25 28 L26 28 L27 29 L34 31 L35 32 C31.95 36.28 45.28 38.68 39 39 L38 38 C34.07 36.61 29.08 34.67 25 37 L20 38 L20 37 L21 36 L23 30 L25 28 z"/>
<path style="fill:#111212" d="M35 28 L39 33 C38.65 37.46 36.73 32.6 35 32 L34 31 C33.74 29.71 32.34 28.67 31 29 L31 28 L35 28 z"/>
<path style="fill:#606060" d="M38 30 L39 33 L35 28 C36.34 27.67 37.74 28.71 38 30 z"/>
<path style="fill:#282828" d="M43 36 L39 33 L38 30 C40.33 25.59 43.07 33.39 43 36 z"/>
<path style="fill:#4c4c4c" d="M52 37 C43.53 39.87 51.6 25.26 52.75 29.75 L50 34 C49.85 35.18 51.34 35.02 52 35 C58.01 32.95 56.48 35.84 52 37 z"/>
<path style="fill:#727272" d="M27 29 L31 29 C32.34 28.67 33.74 29.71 34 31 L27 29 z"/>
<path style="fill:#797979" d="M64 30 L63 29 L64 30 z"/>
<path style="fill:#989999" d="M23 30 L21 36 C21.13 33.92 20.21 30.63 23 30 z"/>
<path style="fill:#9d9d9d" d="M65 31 L64 30 L65 31 z"/>
<path style="fill:#474848" d="M32 33 L24.25 32.75 C25.56 30.79 31.01 29.64 32 33 z"/>
<path style="fill:#929292" d="M35 32 L34 31 L35 32 z"/>
<path style="fill:#6e6f6f" d="M39 33 L43 36 L44 36 L45 36 L45 37 C42.89 36.33 42.79 38.58 43 40 L42 41 L41 42 L40 41 C38.82 41.15 38.98 39.66 39 39 C45.28 38.68 31.95 36.28 35 32 C36.73 32.6 38.65 37.46 39 33 z"/>
<path style="fill:#7c7c7c" d="M67 37 L65 32 C67.37 32.46 67.08 35.17 67 37 z"/>
<path style="fill:#747575" d="M32 33 C36.41 36.78 21.06 34.52 32 33 z"/>
<path style="fill:#a3a3a3" d="M21 36 L20 37 L21 36 z"/>
<path style="fill:#6d6d6d" d="M38 38 C38.15 39.18 36.66 39.02 36 39 L25 38 L25 37 C29.08 34.67 34.07 36.61 38 38 z"/>
<path style="fill:#4d4e4e" d="M25 37 L25 38 L18 43 C17.92 41.17 17.63 38.46 20 38 L25 37 z"/>
<path style="fill:#1b1b1b" d="M45 37 C45.21 38.42 45.11 40.67 43 40 C42.79 38.58 42.89 36.33 45 37 z"/>
<path style="fill:#888888" d="M46 41 C44.41 41.06 45.19 43.05 45 44 L43 46 L43 44 C42.81 43.05 43.59 41.06 42 41 L43 40 C45.11 40.67 45.21 38.42 45 37 L46 41 z"/>
<path style="fill:#404040" d="M50 40 L50 39 L52 37 L58.75 37.75 L50 40 z"/>
<path style="fill:#121313" d="M36 39 C29.04 39.14 36.8 39.59 33 43 C27 42.21 23.19 51.16 21.25 56.75 L28.75 48.75 L26.75 52.75 C23.4 55.61 27.48 54.82 29 53 C28.83 56.82 28.63 57.94 25 59 L22 59 C22.15 57.82 20.66 57.98 20 58 L19 57 L19 56 C18.81 55.05 19.59 53.06 18 53 L17 51 L16 50 C16.32 47.66 14.88 43.84 18 43 L25 38 L36 39 z"/>
<path style="fill:#333434" d="M39 39 C38.98 39.66 38.82 41.15 40 41 L41 42 L42 41 C43.59 41.06 42.81 43.05 43 44 L41 44 C38.99 43.78 36.78 45.99 37 48 L36 48 L36 47 L36 45 C38.57 43.83 38.21 40.19 36 39 C36.66 39.02 38.15 39.18 38 38 L39 39 z"/>
<path style="fill:#5c5c5c" d="M69 38 L70 43 L61.25 38.25 C64.5 35.56 69.66 44.33 69 38 z"/>
<path style="fill:#767777" d="M36 39 C38.21 40.19 38.57 43.83 36 45 C36.61 41.83 35.18 42.37 33 43 C36.8 39.59 29.04 39.14 36 39 z"/>
<path style="fill:#727373" d="M50 39 L50 40 L48 43 L46 41 L50 39 z"/>
<path style="fill:#565656" d="M64 42 L54.25 41.75 C57.57 42.33 62.22 41.62 64 45 L57.25 43.25 L60 46 L58 46 L60 55 L58 59 L57 59 C57.15 51.8 53.99 53.34 54.75 59.75 L51 47 L53.25 45.75 C53.89 56.53 58.19 43.44 51 42 C53.26 38.78 61.74 38.78 64 42 z"/>
<path style="fill:#6d6d6d" d="M30 41 C33.22 40.27 30.7 43.52 30 41 z"/>
<path style="fill:#d3d3d3" d="M41 42 L40 41 L41 42 z"/>
<path style="fill:#393939" d="M46 41 L48 43 L51 47 L45 44 C45.19 43.05 44.41 41.06 46 41 z"/>
<path style="fill:#0e0e0e" d="M64 42 C64.26 43.29 65.66 44.33 67 44 C67.5 47.06 65.51 44.71 64 45 C62.22 41.62 57.57 42.33 54.25 41.75 L64 42 z"/>
<path style="fill:#464646" d="M25 42 C30.54 42.03 18.24 48.56 23.25 43.25 L25 42 z"/>
<path style="fill:#131313" d="M36 45 C33.76 44.34 32.34 45.76 33 48 L30 53 L29 53 L33 43 C35.18 42.37 36.61 41.83 36 45 z"/>
<path style="fill:#656565" d="M67 44 C65.66 44.33 64.26 43.29 64 42 C65.34 41.67 66.74 42.71 67 44 z"/>
<path style="fill:#555656" d="M33 43 L29 53 C27.48 54.82 23.4 55.61 26.75 52.75 L28.75 48.75 L21.25 56.75 C23.19 51.16 27 42.21 33 43 z"/>
<path style="fill:#0e0f0f" d="M64 45 L66 49 L62 48 L60 46 L57.25 43.25 L64 45 z"/>
<path style="fill:#727373" d="M41 44 L37 48 C36.78 45.99 38.99 43.78 41 44 z"/>
<path style="fill:#101111" d="M43 44 L43 46 C35.86 48.02 35.6 57.48 36.25 63.75 L38 58 L38.25 64.75 L39 59 C40.59 58.94 39.81 56.95 40 56 C39.59 53.51 43.8 48.56 43 54 C41.59 55.19 41.04 57.93 41 60 L41 64 C40.72 65.6 41.14 67.66 43 68 L45 58 C44.98 57.34 44.82 55.85 46 56 L46.25 63.75 C49.62 62.66 47.42 58.29 47 56 C47.46 54.65 46.35 53.54 45 54 L44 51 C49.83 51.86 48.7 59.33 49.25 63.75 C51.12 59.44 50.52 51.43 45 49 L45 44 L51 47 L54.75 59.75 C53.99 53.34 57.15 51.8 57 59 L57 62 C56.34 61.98 54.85 61.82 55 63 L55 64 C53.82 63.85 53.98 65.34 54 66 L53 67 L52 67 L48 68 L46 70 L42 70 L40 68 L36 67 L35 66 C33.82 66.15 33.98 64.66 34 64 C34.02 63.34 34.18 61.85 33 62 L32 62 L31 61 L31 59 L31 55 L34 48 L36 47 L36 48 C35.42 49.9 33.27 51.58 34.25 53.75 L37 48 L41 44 L43 44 z"/>
<path style="fill:#4f4f4f" d="M45 44 L45 49 L43 48 C40.95 46.47 35.76 54.07 39 56 L40 56 C39.81 56.95 40.59 58.94 39 59 L38 58 L36.25 63.75 C35.6 57.48 35.86 48.02 43 46 L45 44 z"/>
<path style="fill:#535353" d="M66 49 L64 45 C65.51 44.71 67.5 47.06 67 44 C69.76 44.97 70.81 47.84 68 49 C70.21 53.01 66.67 51.73 66 49 z"/>
<path style="fill:#666767" d="M36 45 L36 47 L34 48 L33 48 C32.34 45.76 33.76 44.34 36 45 z"/>
<path style="fill:#767777" d="M60 46 L62 48 L62 50 L59 49 L58 46 L60 46 z"/>
<path style="fill:#525353" d="M66 49 C66.26 54.68 64.46 48.63 62 48 L66 49 z"/>
<path style="fill:#0b0c0c" d="M43 48 C41.47 50.53 38.38 52.58 39 56 C35.76 54.07 40.95 46.47 43 48 z"/>
<path style="fill:#adaeae" d="M33 48 L34 48 L31 55 C29.82 55.15 29.98 53.66 30 53 L33 48 z"/>
<path style="fill:#656666" d="M37 48 L34.25 53.75 C33.27 51.58 35.42 49.9 36 48 L37 48 z"/>
<path style="fill:#6f6f6f" d="M45 49 L44 51 L45 54 C45.22 55.33 42.78 55.33 43 54 C43.8 48.56 39.59 53.51 40 56 L39 56 C38.38 52.58 41.47 50.53 43 48 L45 49 z"/>
<path style="fill:#555555" d="M47 48 C52.86 49.21 54.31 58.52 52.25 62.75 C51.98 57.3 51 51.95 47 48 z"/>
<path style="fill:#585858" d="M44 51 L45 49 C50.52 51.43 51.12 59.44 49.25 63.75 C48.7 59.33 49.83 51.86 44 51 z"/>
<path style="fill:#4e4f4f" d="M62 50 C63.29 50.26 64.33 51.66 64 53 C62.19 57.04 59.55 51.26 59 49 L62 50 z"/>
<path style="fill:#727272" d="M17 51 L16 50 L17 51 z"/>
<path style="fill:#a1a1a1" d="M72 51 L71 52 L72 51 z"/>
<path style="fill:#9d9d9d" d="M71 52 L70 53 L71 52 z"/>
<path style="fill:#8a8a8a" d="M19 56 C17.41 55.94 18.19 53.95 18 53 C19.59 53.06 18.81 55.05 19 56 z"/>
<path style="fill:#636464" d="M30 53 C29.98 53.66 29.82 55.15 31 55 L31 59 L25 59 C28.63 57.94 28.83 56.82 29 53 L30 53 z"/>
<path style="fill:#555656" d="M64 53 C69.79 52.8 64.68 60.69 64 53 z"/>
<path style="fill:#aeaeae" d="M70 53 C70.14 55.3 70.51 59.47 67 59 L70 53 z"/>
<path style="fill:#505050" d="M43 54 C42.78 55.33 45.22 55.33 45 54 C46.35 53.54 47.46 54.65 47 56 L46 56 C44.82 55.85 44.98 57.34 45 58 L43 58 C41.82 57.85 41.98 59.34 42 60 L41 60 C41.04 57.93 41.59 55.19 43 54 z"/>
<path style="fill:#343535" d="M60 55 L63 59 L58 59 L60 55 z"/>
<path style="fill:#898a8a" d="M33 55 C35.97 58.82 31.78 61.57 33 55 z"/>
<path style="fill:#696969" d="M47 56 C47.42 58.29 49.62 62.66 46.25 63.75 L46 56 L47 56 z"/>
<path style="fill:#a3a3a3" d="M20 58 L19 57 L20 58 z"/>
<path style="fill:#7d7d7d" d="M22 59 C21.34 59.02 19.85 59.18 20 58 C20.66 57.98 22.15 57.82 22 59 z"/>
<path style="fill:#989999" d="M39 59 L38.25 64.75 L38 58 L39 59 z"/>
<path style="fill:#282929" d="M43 58 L43 68 C41.14 67.66 40.72 65.6 41 64 L42 60 C41.98 59.34 41.82 57.85 43 58 z"/>
<path style="fill:#6a6b6b" d="M45 58 L43 68 L43 58 L45 58 z"/>
<path style="fill:#9e9f9f" d="M42 60 L41 64 L41 60 L42 60 z"/>
<path style="fill:#a6a6a6" d="M32 62 L31 61 L32 62 z"/>
<path style="fill:#707171" d="M34 64 C32.82 64.15 32.98 62.66 33 62 C34.18 61.85 34.02 63.34 34 64 z"/>
<path style="fill:#ababab" d="M57 62 C57.15 63.18 55.66 63.02 55 63 C54.85 61.82 56.34 61.98 57 62 z"/>
<path style="fill:#909090" d="M55 64 C55.02 64.66 55.18 66.15 54 66 C53.98 65.34 53.82 63.85 55 64 z"/>
<path style="fill:#6b6b6b" d="M36 67 L35 66 L36 67 z"/>
<path style="fill:#7d7d7d" d="M54 66 L53 67 L54 66 z"/>
<path style="fill:#6b6b6b" d="M40 68 L36 67 L40 68 z"/>
<path style="fill:#606060" d="M52 67 L48 68 L52 67 z"/>
<path style="fill:#aeafaf" d="M46 70 C45.81 71.55 42.19 71.55 42 70 L46 70 z"/>
</svg>
