<?xml version="1.0" standalone="yes"?>
<svg width="87" height="97">
<path style="fill:#fcfdfd" d="M87 0 L87 97 L0 97 L0 0 L87 0 z"/>
<path style="fill:#060606" d="M23 16 L24 17 L25 18 L26 19 L27 20 L28 21 L29 22 L30 23 L31 24 L32 25 L33 26 L34 27 L35 28 L36 29 L37 30 L38 31 L39 32 L40 33 L41 34 L42 35 L39 40 L38 40 L37 39 L36 38 L35 37 L34 36 L33 35 L32 34 L31 33 L30 32 L29 31 L28 30 L27 29 L26 28 L25 27 L24 26 L23 25 L22 24 L21 23 L20 22 L19 21 L18 20 C19.06 18.32 20.72 15.82 23 16 z"/>
<path style="fill:#7a7a7a" d="M24 17 L23 16 L24 17 z"/>
<path style="fill:#8d8d8d" d="M64 16 L63 17 L64 16 z"/>
<path style="fill:#040505" d="M69 20 L68 21 L67 22 L66 23 L65 24 L64 25 L63 26 L62 27 L61 28 L60 29 L59 30 L58 31 L57 32 L56 33 L55 34 L54 35 L53 36 L52 37 L51 38 L50 39 L49 40 L43 46 C40.72 46.18 39.06 43.68 38 42 L39 41 L44 36 L45 35 L46 34 L47 33 L48 32 L49 31 L50 30 L51 29 L52 28 L53 27 L54 26 L55 25 L56 24 L57 23 L58 22 L59 21 L60 20 L61 19 L62 18 L63 17 L64 16 C66.28 15.82 67.94 18.32 69 20 z"/>
<path style="fill:#737373" d="M25 18 L24 17 L25 18 z"/>
<path style="fill:#8e8e8e" d="M63 17 L62 18 L63 17 z"/>
<path style="fill:#727272" d="M26 19 L25 18 L26 19 z"/>
<path style="fill:#949494" d="M62 18 L61 19 L62 18 z"/>
<path style="fill:#737373" d="M27 20 L26 19 L27 20 z"/>
<path style="fill:#8f8f8f" d="M61 19 L60 20 L61 19 z"/>
<path style="fill:#919191" d="M19 21 L18 20 L19 21 z"/>
<path style="fill:#727272" d="M28 21 L27 20 L28 21 z"/>
<path style="fill:#8a8a8a" d="M60 20 L59 21 L60 20 z"/>
<path style="fill:#838383" d="M69 20 L68 21 L69 20 z"/>
<path style="fill:#a7a7a7" d="M20 22 L19 21 L20 22 z"/>
<path style="fill:#777777" d="M29 22 L28 21 L29 22 z"/>
<path style="fill:#858585" d="M59 21 L58 22 L59 21 z"/>
<path style="fill:#919191" d="M68 21 L67 22 L68 21 z"/>
<path style="fill:#777777" d="M17 23 L15 23 C14.78 21.67 17.22 21.67 17 23 z"/>
<path style="fill:#6f6f6f" d="M30 23 L29 22 L30 23 z"/>
<path style="fill:#848484" d="M58 22 L57 23 L58 22 z"/>
<path style="fill:#848484" d="M67 22 L66 23 L67 22 z"/>
<path style="fill:#0f0f0f" d="M75 26 L75 27 L56 46 L51 43 L71.75 22.25 L75 26 z"/>
<path style="fill:#050606" d="M15 23 L17 23 L18 24 L19 25 L20 26 L21 27 L22 28 L23 29 L24 30 L25 31 L26 32 L27 33 L28 34 L29 35 L30 36 L31 37 L32 38 L33 39 L34 40 L35 41 L36 42 L42 48 C42.18 50.28 39.68 51.94 38 53 L37 52 L32 47 L31 46 L30 45 L29 44 L28 43 L27 42 L26 41 L25 40 L24 39 L23 38 L22 37 L21 36 L20 35 L19 34 L18 33 L17 32 L16 31 L15 30 L14 29 L13 28 L12 27 L12 25 L15 23 z"/>
<path style="fill:#a9a9a9" d="M22 24 L21 23 L22 24 z"/>
<path style="fill:#757575" d="M31 24 L30 23 L31 24 z"/>
<path style="fill:#979797" d="M57 23 L56 24 L57 23 z"/>
<path style="fill:#8c8c8c" d="M66 23 L65 24 L66 23 z"/>
<path style="fill:#a6a6a6" d="M19 25 L18 24 L19 25 z"/>
<path style="fill:#a5a5a5" d="M23 25 L22 24 L23 25 z"/>
<path style="fill:#747474" d="M32 25 L31 24 L32 25 z"/>
<path style="fill:#939393" d="M56 24 L55 25 L56 24 z"/>
<path style="fill:#8b8b8b" d="M65 24 L64 25 L65 24 z"/>
<path style="fill:#a9a9a9" d="M12 25 L12 27 C10.67 27.22 10.67 24.78 12 25 z"/>
<path style="fill:#a6a6a6" d="M24 26 L23 25 L24 26 z"/>
<path style="fill:#767676" d="M33 26 L32 25 L33 26 z"/>
<path style="fill:#929292" d="M55 25 L54 26 L55 25 z"/>
<path style="fill:#8b8b8b" d="M64 25 L63 26 L64 25 z"/>
<path style="fill:#9f9f9f" d="M21 27 L20 26 L21 27 z"/>
<path style="fill:#a4a4a4" d="M25 27 L24 26 L25 27 z"/>
<path style="fill:#6f6f6f" d="M34 27 L33 26 L34 27 z"/>
<path style="fill:#919191" d="M54 26 L53 27 L54 26 z"/>
<path style="fill:#909090" d="M63 26 L62 27 L63 26 z"/>
<path style="fill:#717171" d="M75 27 L75 26 C76.06 25.57 76.06 27.43 75 27 z"/>
<path style="fill:#787878" d="M13 28 L12 27 L13 28 z"/>
<path style="fill:#9f9f9f" d="M22 28 L21 27 L22 28 z"/>
<path style="fill:#727272" d="M35 28 L34 27 L35 28 z"/>
<path style="fill:#8f8f8f" d="M53 27 L52 28 L53 27 z"/>
<path style="fill:#8c8c8c" d="M62 27 L61 28 L62 27 z"/>
<path style="fill:#7b7b7b" d="M14 29 L13 28 L14 29 z"/>
<path style="fill:#aaaaaa" d="M23 29 L22 28 L23 29 z"/>
<path style="fill:#a0a0a0" d="M27 29 L26 28 L27 29 z"/>
<path style="fill:#737373" d="M36 29 L35 28 L36 29 z"/>
<path style="fill:#939393" d="M52 28 L51 29 L52 28 z"/>
<path style="fill:#838383" d="M61 28 L60 29 L61 28 z"/>
<path style="fill:#7c7c7c" d="M15 30 L14 29 L15 30 z"/>
<path style="fill:#a7a7a7" d="M24 30 L23 29 L24 30 z"/>
<path style="fill:#a2a2a2" d="M28 30 L27 29 L28 30 z"/>
<path style="fill:#747474" d="M37 30 L36 29 L37 30 z"/>
<path style="fill:#8b8b8b" d="M51 29 L50 30 L51 29 z"/>
<path style="fill:#898989" d="M60 29 L59 30 L60 29 z"/>
<path style="fill:#7b7b7b" d="M16 31 L15 30 L16 31 z"/>
<path style="fill:#a6a6a6" d="M25 31 L24 30 L25 31 z"/>
<path style="fill:#a8a8a8" d="M29 31 L28 30 L29 31 z"/>
<path style="fill:#747474" d="M38 31 L37 30 L38 31 z"/>
<path style="fill:#909090" d="M50 30 L49 31 L50 30 z"/>
<path style="fill:#878787" d="M59 30 L58 31 L59 30 z"/>
<path style="fill:#707070" d="M17 32 L16 31 L17 32 z"/>
<path style="fill:#a8a8a8" d="M26 32 L25 31 L26 32 z"/>
<path style="fill:#a4a4a4" d="M30 32 L29 31 L30 32 z"/>
<path style="fill:#707070" d="M39 32 L38 31 L39 32 z"/>
<path style="fill:#9a9a9a" d="M49 31 L48 32 L49 31 z"/>
<path style="fill:#8b8b8b" d="M58 31 L57 32 L58 31 z"/>
<path style="fill:#717171" d="M18 33 L17 32 L18 33 z"/>
<path style="fill:#a6a6a6" d="M27 33 L26 32 L27 33 z"/>
<path style="fill:#a3a3a3" d="M31 33 L30 32 L31 33 z"/>
<path style="fill:#777777" d="M40 33 L39 32 L40 33 z"/>
<path style="fill:#919191" d="M48 32 L47 33 L48 32 z"/>
<path style="fill:#898989" d="M57 32 L56 33 L57 32 z"/>
<path style="fill:#717171" d="M19 34 L18 33 L19 34 z"/>
<path style="fill:#a7a7a7" d="M28 34 L27 33 L28 34 z"/>
<path style="fill:#aaaaaa" d="M32 34 L31 33 L32 34 z"/>
<path style="fill:#797979" d="M41 34 L40 33 L41 34 z"/>
<path style="fill:#8c8c8c" d="M47 33 L46 34 L47 33 z"/>
<path style="fill:#878787" d="M56 33 L55 34 L56 33 z"/>
<path style="fill:#797979" d="M20 35 L19 34 L20 35 z"/>
<path style="fill:#9e9e9e" d="M29 35 L28 34 L29 35 z"/>
<path style="fill:#a9a9a9" d="M33 35 L32 34 L33 35 z"/>
<path style="fill:#6e6e6e" d="M42 35 L41 34 L42 35 z"/>
<path style="fill:#949494" d="M46 34 L45 35 L46 34 z"/>
<path style="fill:#8e8e8e" d="M55 34 L54 35 L55 34 z"/>
<path style="fill:#707070" d="M21 36 L20 35 L21 36 z"/>
<path style="fill:#a3a3a3" d="M30 36 L29 35 L30 36 z"/>
<path style="fill:#a6a6a6" d="M34 36 L33 35 L34 36 z"/>
<path style="fill:#959595" d="M44 36 L39 41 L39 40 L42 35 L44 36 z"/>
<path style="fill:#9c9c9c" d="M45 35 L44 36 L45 35 z"/>
<path style="fill:#898989" d="M54 35 L53 36 L54 35 z"/>
<path style="fill:#767676" d="M22 37 L21 36 L22 37 z"/>
<path style="fill:#a1a1a1" d="M35 37 L34 36 L35 37 z"/>
<path style="fill:#868686" d="M53 36 L52 37 L53 36 z"/>
<path style="fill:#737373" d="M23 38 L22 37 L23 38 z"/>
<path style="fill:#a2a2a2" d="M32 38 L31 37 L32 38 z"/>
<path style="fill:#9a9a9a" d="M36 38 L35 37 L36 38 z"/>
<path style="fill:#828282" d="M52 37 L51 38 L52 37 z"/>
<path style="fill:#6c6c6c" d="M24 39 L23 38 L24 39 z"/>
<path style="fill:#a1a1a1" d="M37 39 L36 38 L37 39 z"/>
<path style="fill:#8e8e8e" d="M51 38 L50 39 L51 38 z"/>
<path style="fill:#727272" d="M25 40 L24 39 L25 40 z"/>
<path style="fill:#a9a9a9" d="M34 40 L33 39 L34 40 z"/>
<path style="fill:#9f9f9f" d="M38 40 L37 39 L38 40 z"/>
<path style="fill:#888888" d="M50 39 L49 40 L50 39 z"/>
<path style="fill:#6f6f6f" d="M26 41 L25 40 L26 41 z"/>
<path style="fill:#9f9f9f" d="M35 41 L34 40 L35 41 z"/>
<path style="fill:#9d9e9e" d="M49 40 L49 42 C47.32 43.06 44.82 44.72 45 47 L43 46 L49 40 z"/>
<path style="fill:#727272" d="M27 42 L26 41 L27 42 z"/>
<path style="fill:#a7a7a7" d="M36 42 L35 41 L36 42 z"/>
<path style="fill:#919191" d="M39 41 L38 42 L39 41 z"/>
<path style="fill:#727272" d="M28 43 L27 42 L28 43 z"/>
<path style="fill:#9e9e9e" d="M38 42 C39.06 43.68 40.72 46.18 43 46 L42 48 L36 42 L38 42 z"/>
<path style="fill:#050505" d="M49 42 L50 43 L55 48 L56 49 L57 50 L58 51 L59 52 L60 53 L61 54 L62 55 L63 56 L64 57 L65 58 L66 59 L67 60 L68 61 L69 62 L70 63 L71 64 L72 65 L73 66 L74 67 L75 68 L75 70 L74 71 L71 73 L70 72 L69 71 L68 70 L67 69 L66 68 L65 67 L64 66 L63 65 L62 64 L61 63 L60 62 L59 61 L58 60 L57 59 L56 58 L55 57 L53 55 L52 54 L51 53 L45 47 C44.82 44.72 47.32 43.06 49 42 z"/>
<path style="fill:#737373" d="M50 43 L49 42 L50 43 z"/>
<path style="fill:#777777" d="M29 44 L28 43 L29 44 z"/>
<path style="fill:#909090" d="M51 43 L56 46 L55 48 L50 43 L51 43 z"/>
<path style="fill:#787878" d="M30 45 L29 44 L30 45 z"/>
<path style="fill:#696969" d="M31 46 L30 45 L31 46 z"/>
<path style="fill:#707070" d="M32 47 L31 46 L32 47 z"/>
<path style="fill:#f3f3f3" d="M45 47 L44 49 L43 50 C43.02 49.34 43.18 47.85 42 48 L43 46 L45 47 z"/>
<path style="fill:#979898" d="M37 52 L36 52 L31 49 L32 47 L37 52 z"/>
<path style="fill:#a4a4a4" d="M51 53 L49 53 C47.94 51.32 46.28 48.82 44 49 L45 47 L51 53 z"/>
<path style="fill:#9f9f9f" d="M43 50 L38 55 L38 53 C39.68 51.94 42.18 50.28 42 48 C43.18 47.85 43.02 49.34 43 50 z"/>
<path style="fill:#777777" d="M56 49 L55 48 L56 49 z"/>
<path style="fill:#878787" d="M31 49 L30 50 L31 49 z"/>
<path style="fill:#050606" d="M36 52 L36 53 L35 54 L34 55 L33 56 L32 57 L31 58 L30 59 L29 60 L28 61 L27 62 L26 63 L25 64 L24 65 L23 66 L22 67 L21 68 L20 69 L19 70 L18 71 L17 72 L16 73 L12 70 L12 68 L13 67 L14 66 L15 65 L16 64 L17 63 L18 62 L19 61 L20 60 L21 59 L22 58 L23 57 L24 56 L25 55 L26 54 L27 53 L28 52 L29 51 L30 50 L31 49 L36 52 z"/>
<path style="fill:#0d0d0d" d="M49 53 L48 54 L43 59 L23 79 L22 79 L18.25 75.75 L38 55 L43 50 L44 49 C46.28 48.82 47.94 51.32 49 53 z"/>
<path style="fill:#6c6c6c" d="M57 50 L56 49 L57 50 z"/>
<path style="fill:#888888" d="M30 50 L29 51 L30 50 z"/>
<path style="fill:#757575" d="M58 51 L57 50 L58 51 z"/>
<path style="fill:#8b8b8b" d="M29 51 L28 52 L29 51 z"/>
<path style="fill:#727272" d="M59 52 L58 51 L59 52 z"/>
<path style="fill:#909090" d="M28 52 L27 53 L28 52 z"/>
<path style="fill:#7c7c7c" d="M38 53 L37 52 L38 53 z"/>
<path style="fill:#707070" d="M60 53 L59 52 L60 53 z"/>
<path style="fill:#909090" d="M27 53 L26 54 L27 53 z"/>
<path style="fill:#828282" d="M36 53 L35 54 L36 53 z"/>
<path style="fill:#757575" d="M61 54 L60 53 L61 54 z"/>
<path style="fill:#888888" d="M26 54 L25 55 L26 54 z"/>
<path style="fill:#8c8c8c" d="M35 54 L34 55 L35 54 z"/>
<path style="fill:#8c8c8c" d="M48 54 L48 55 L45 60 L43 59 L48 54 z"/>
<path style="fill:#a8a8a8" d="M53 55 L52 54 L53 55 z"/>
<path style="fill:#6f6f6f" d="M62 55 L61 54 L62 55 z"/>
<path style="fill:#949494" d="M25 55 L24 56 L25 55 z"/>
<path style="fill:#8a8a8a" d="M34 55 L33 56 L34 55 z"/>
<path style="fill:#050606" d="M49 55 L50 56 L51 57 L52 58 L53 59 L54 60 L55 61 L56 62 L57 63 L58 64 L59 65 L60 66 L61 67 L62 68 L63 69 L64 70 L65 71 L66 72 L67 73 L68 74 L69 75 L66 79 L64 79 L63 78 L62 77 L61 76 L60 75 L59 74 L58 73 L57 72 L56 71 L55 70 L54 69 L53 68 L52 67 L51 66 L50 65 L49 64 L48 63 L47 62 L46 61 L45 60 L48 55 L49 55 z"/>
<path style="fill:#a0a0a0" d="M50 56 L49 55 L50 56 z"/>
<path style="fill:#747474" d="M63 56 L62 55 L63 56 z"/>
<path style="fill:#8b8b8b" d="M24 56 L23 57 L24 56 z"/>
<path style="fill:#868686" d="M33 56 L32 57 L33 56 z"/>
<path style="fill:#a8a8a8" d="M51 57 L50 56 L51 57 z"/>
<path style="fill:#797979" d="M64 57 L63 56 L64 57 z"/>
<path style="fill:#898989" d="M23 57 L22 58 L23 57 z"/>
<path style="fill:#858585" d="M32 57 L31 58 L32 57 z"/>
<path style="fill:#a3a3a3" d="M56 58 L55 57 L56 58 z"/>
<path style="fill:#747474" d="M65 58 L64 57 L65 58 z"/>
<path style="fill:#909090" d="M22 58 L21 59 L22 58 z"/>
<path style="fill:#8f8f8f" d="M31 58 L30 59 L31 58 z"/>
<path style="fill:#a7a7a7" d="M53 59 L52 58 L53 59 z"/>
<path style="fill:#a5a5a5" d="M57 59 L56 58 L57 59 z"/>
<path style="fill:#767676" d="M66 59 L65 58 L66 59 z"/>
<path style="fill:#898989" d="M21 59 L20 60 L21 59 z"/>
<path style="fill:#8c8c8c" d="M30 59 L29 60 L30 59 z"/>
<path style="fill:#9e9e9e" d="M54 60 L53 59 L54 60 z"/>
<path style="fill:#a8a8a8" d="M58 60 L57 59 L58 60 z"/>
<path style="fill:#737373" d="M67 60 L66 59 L67 60 z"/>
<path style="fill:#8b8b8b" d="M20 60 L19 61 L20 60 z"/>
<path style="fill:#858585" d="M29 60 L28 61 L29 60 z"/>
<path style="fill:#6a6a6a" d="M46 61 L45 60 L46 61 z"/>
<path style="fill:#a3a3a3" d="M59 61 L58 60 L59 61 z"/>
<path style="fill:#737373" d="M68 61 L67 60 L68 61 z"/>
<path style="fill:#888888" d="M19 61 L18 62 L19 61 z"/>
<path style="fill:#8d8d8d" d="M28 61 L27 62 L28 61 z"/>
<path style="fill:#7c7c7c" d="M47 62 L46 61 L47 62 z"/>
<path style="fill:#9f9f9f" d="M56 62 L55 61 L56 62 z"/>
<path style="fill:#a1a1a1" d="M60 62 L59 61 L60 62 z"/>
<path style="fill:#787878" d="M69 62 L68 61 L69 62 z"/>
<path style="fill:#888888" d="M18 62 L17 63 L18 62 z"/>
<path style="fill:#848484" d="M27 62 L26 63 L27 62 z"/>
<path style="fill:#6f6f6f" d="M48 63 L47 62 L48 63 z"/>
<path style="fill:#a4a4a4" d="M57 63 L56 62 L57 63 z"/>
<path style="fill:#a6a6a6" d="M61 63 L60 62 L61 63 z"/>
<path style="fill:#6f6f6f" d="M70 63 L69 62 L70 63 z"/>
<path style="fill:#969696" d="M17 63 L16 64 L17 63 z"/>
<path style="fill:#898989" d="M26 63 L25 64 L26 63 z"/>
<path style="fill:#717171" d="M49 64 L48 63 L49 64 z"/>
<path style="fill:#a6a6a6" d="M58 64 L57 63 L58 64 z"/>
<path style="fill:#a5a5a5" d="M62 64 L61 63 L62 64 z"/>
<path style="fill:#757575" d="M71 64 L70 63 L71 64 z"/>
<path style="fill:#8a8a8a" d="M16 64 L15 65 L16 64 z"/>
<path style="fill:#8e8e8e" d="M25 64 L24 65 L25 64 z"/>
<path style="fill:#6f6f6f" d="M50 65 L49 64 L50 65 z"/>
<path style="fill:#a3a3a3" d="M59 65 L58 64 L59 65 z"/>
<path style="fill:#a6a6a6" d="M63 65 L62 64 L63 65 z"/>
<path style="fill:#6c6c6c" d="M72 65 L71 64 L72 65 z"/>
<path style="fill:#939393" d="M15 65 L14 66 L15 65 z"/>
<path style="fill:#898989" d="M24 65 L23 66 L24 65 z"/>
<path style="fill:#757575" d="M51 66 L50 65 L51 66 z"/>
<path style="fill:#a1a1a1" d="M64 66 L63 65 L64 66 z"/>
<path style="fill:#797979" d="M73 66 L72 65 L73 66 z"/>
<path style="fill:#8c8c8c" d="M14 66 L13 67 L14 66 z"/>
<path style="fill:#939393" d="M23 66 L22 67 L23 66 z"/>
<path style="fill:#747474" d="M52 67 L51 66 L52 67 z"/>
<path style="fill:#a3a3a3" d="M61 67 L60 66 L61 67 z"/>
<path style="fill:#a1a1a1" d="M65 67 L64 66 L65 67 z"/>
<path style="fill:#6f6f6f" d="M74 67 L73 66 L74 67 z"/>
<path style="fill:#8b8b8b" d="M13 67 L12 68 L13 67 z"/>
<path style="fill:#898989" d="M22 67 L21 68 L22 67 z"/>
<path style="fill:#747474" d="M53 68 L52 67 L53 68 z"/>
<path style="fill:#9c9c9c" d="M62 68 L61 67 L62 68 z"/>
<path style="fill:#a8a8a8" d="M66 68 L65 67 L66 68 z"/>
<path style="fill:#7f7f7f" d="M75 68 L74 67 L75 68 z"/>
<path style="fill:#a6a6a6" d="M12 68 L12 70 C10.67 70.22 10.67 67.78 12 68 z"/>
<path style="fill:#868686" d="M21 68 L20 69 L21 68 z"/>
<path style="fill:#787878" d="M54 69 L53 68 L54 69 z"/>
<path style="fill:#a6a6a6" d="M63 69 L62 68 L63 69 z"/>
<path style="fill:#a3a3a3" d="M67 69 L66 68 L67 69 z"/>
<path style="fill:#909191" d="M75 70 L75 68 C76.33 67.78 76.33 70.22 75 70 z"/>
<path style="fill:#8f8f8f" d="M20 69 L19 70 L20 69 z"/>
<path style="fill:#737373" d="M55 70 L54 69 L55 70 z"/>
<path style="fill:#a7a7a7" d="M64 70 L63 69 L64 70 z"/>
<path style="fill:#a2a2a2" d="M68 70 L67 69 L68 70 z"/>
<path style="fill:#808080" d="M19 70 L18 71 L19 70 z"/>
<path style="fill:#737373" d="M56 71 L55 70 L56 71 z"/>
<path style="fill:#aaaaaa" d="M69 71 L68 70 L69 71 z"/>
<path style="fill:#a2a2a2" d="M75 70 L74 71 L75 70 z"/>
<path style="fill:#909090" d="M18 71 L17 72 L18 71 z"/>
<path style="fill:#717171" d="M57 72 L56 71 L57 72 z"/>
<path style="fill:#a4a4a4" d="M66 72 L65 71 L66 72 z"/>
<path style="fill:#a0a0a0" d="M70 72 L69 71 L70 72 z"/>
<path style="fill:#818181" d="M17 72 L16 73 L17 72 z"/>
<path style="fill:#6d6d6d" d="M58 73 L57 72 L58 73 z"/>
<path style="fill:#989898" d="M71 73 L70 72 L71 73 z"/>
<path style="fill:#757575" d="M59 74 L58 73 L59 74 z"/>
<path style="fill:#a7a7a7" d="M68 74 L67 73 L68 74 z"/>
<path style="fill:#757575" d="M60 75 L59 74 L60 75 z"/>
<path style="fill:#a2a2a2" d="M69 75 L68 74 L69 75 z"/>
<path style="fill:#707070" d="M61 76 L60 75 L61 76 z"/>
<path style="fill:#767676" d="M62 77 L61 76 L62 77 z"/>
<path style="fill:#6f6f6f" d="M63 78 L62 77 L63 78 z"/>
<path style="fill:#6c6c6c" d="M64 79 L63 78 L64 79 z"/>
<path style="fill:#6e6e6e" d="M23 79 C23.43 80.06 21.57 80.06 22 79 L23 79 z"/>
<path style="fill:#969696" d="M66 79 C66.22 80.33 63.78 80.33 64 79 L66 79 z"/>
</svg>
