<?xml version="1.0" standalone="yes"?>
<svg width="87" height="97">
<path style="fill:#fdfdfd" d="M87 0 L87 97 L0 97 L0 0 L87 0 z"/>
<path style="fill:#b5b5b5" d="M45 15 L41 15 C41.19 13.45 44.81 13.45 45 15 z"/>
<path style="fill:#090909" d="M41 15 L45 15 L46 15 C45.85 16.18 47.34 16.02 48 16 L49 17 L51 19 L52 20 L52 21 C51.51 22.94 53.41 27.5 50 27 C49.23 21.52 39.28 21.56 37 26 L34 27 C34.23 24.31 33.29 21.26 35 19 L36 18 L37 17 L38 16 L41 15 z"/>
<path style="fill:#aeaeae" d="M48 16 C47.34 16.02 45.85 16.18 46 15 C46.66 14.98 48.15 14.82 48 16 z"/>
<path style="fill:#a9a9a9" d="M38 16 L37 17 L38 16 z"/>
<path style="fill:#767676" d="M49 17 L48 16 L49 17 z"/>
<path style="fill:#7c7c7c" d="M37 17 L36 18 L37 17 z"/>
<path style="fill:#8b8b8b" d="M36 18 L35 19 L36 18 z"/>
<path style="fill:#949494" d="M52 20 L51 19 L52 20 z"/>
<path style="fill:#939393" d="M54 26 L52 31 L50 31 C47.5 30.05 47.5 33.95 50 33 L50 34 L46 35 L47 30 L48 30 C50.11 30.67 50.21 28.42 50 27 C53.41 27.5 51.51 22.94 52 21 L54 26 z"/>
<path style="fill:#8f8f8f" d="M50 27 C47.67 25.28 43.38 22.15 41 25 C40.34 24.98 38.85 24.82 39 26 L37 26 C39.28 21.56 49.23 21.52 50 27 z"/>
<path style="fill:#363636" d="M50 27 C50.21 28.42 50.11 30.67 48 30 C49.92 28.25 46.94 25.74 45 26 L41 25 C43.38 22.15 47.67 25.28 50 27 z"/>
<path style="fill:#292a2a" d="M41 25 L41 26 L39 26 C38.85 24.82 40.34 24.98 41 25 z"/>
<path style="fill:#919292" d="M45 26 L45 27 C43.64 25.92 42.36 25.92 41 27 L41 26 L41 25 L45 26 z"/>
<path style="fill:#a4a4a4" d="M29 26 L28 27 L29 26 z"/>
<path style="fill:#070707" d="M33 27 L35 29 L35 30 C33.32 31.06 30.82 32.72 31 35 L32 45 L35 48 L35 49 L33 51 L32 51 L29 51 L28 51 L27 50 L26 49 L25 47 C25.02 46.34 25.18 44.85 24 45 L24 44 L24 33 L24 32 L25 31 L25 30 L26 29 L27 28 L28 27 L29 26 L33 27 z"/>
<path style="fill:#727373" d="M37 26 C37.02 26.66 37.18 28.15 36 28 L35 29 L33 27 L34 27 L37 26 z"/>
<path style="fill:#343535" d="M39 26 L37 31 L36 28 C37.18 28.15 37.02 26.66 37 26 L39 26 z"/>
<path style="fill:#dedfdf" d="M41 26 L41 27 C41.02 27.66 41.18 29.15 40 29 L39 30 L39 33 L37 33 L37 31 L39 26 L41 26 z"/>
<path style="fill:#0c0c0c" d="M45 27 L47 30 L46 35 L44.25 35.75 C43.71 28 42.16 37.38 39 33 L39 30 L40 29 C41.18 29.15 41.02 27.66 41 27 C42.36 25.92 43.64 25.92 45 27 z"/>
<path style="fill:#d8d9d9" d="M48 30 L47 30 L45 27 L45 26 C46.94 25.74 49.92 28.25 48 30 z"/>
<path style="fill:#090a0a" d="M61 30 L62 31 L62 32 C61.98 32.66 61.82 34.15 63 34 L63 43 C61.82 42.85 61.98 44.34 62 45 L62 46 L61 47 L61 48 L60 49 L59 50 L58 51 L54 51 L53 51 L52 50 C50.22 48.33 52.48 47.56 53 46 C56.87 43.23 57.6 34.69 53 32 L52 31 L54 26 C56.81 25.76 59.81 27.43 61 30 z"/>
<path style="fill:#6f6f6f" d="M28 27 L27 28 L28 27 z"/>
<path style="fill:#676767" d="M27 28 L26 29 L27 28 z"/>
<path style="fill:#c0c1c1" d="M36 28 L37 31 L37 33 L37 34 L35 36 L34 35 L34 33 C35.56 33.9 37.02 31.19 35 31 L35 30 L35 29 L36 28 z"/>
<path style="fill:#959595" d="M26 29 L25 30 L26 29 z"/>
<path style="fill:#686868" d="M40 29 L39 30 L40 29 z"/>
<path style="fill:#898a8a" d="M35 30 L35 31 L34 33 C32.82 32.85 32.98 34.34 33 35 L32 35 L31 35 C30.82 32.72 33.32 31.06 35 30 z"/>
<path style="fill:#9f9f9f" d="M62 31 L61 30 L62 31 z"/>
<path style="fill:#8e8e8e" d="M25 31 L24 32 L25 31 z"/>
<path style="fill:#1b1b1b" d="M34 33 L35 31 C37.02 31.19 35.56 33.9 34 33 z"/>
<path style="fill:#e8e8e8" d="M50 31 L50 33 C47.5 33.95 47.5 30.05 50 31 z"/>
<path style="fill:#2d2e2e" d="M52 31 L53 32 L53 34 L50 33 L50 31 L52 31 z"/>
<path style="fill:#b0b0b0" d="M53 32 L52 31 L53 32 z"/>
<path style="fill:#949494" d="M46 35 L46.25 37.75 C52.89 38.79 42.5 40.58 48 44 L47 44 C43.72 40.66 44.66 44.04 43 46 C41.14 42.67 42.28 41.69 39 45 L39 44 C40.82 41.98 39.74 40.09 38 39 C40.62 38.16 40.64 33.57 37 34 L37 33 L39 33 C42.16 37.38 43.71 28 44.25 35.75 L46 35 z"/>
<path style="fill:#959696" d="M53 46 L54 41 C55.84 38.91 54.43 35.5 53 34 L53 32 C57.6 34.69 56.87 43.23 53 46 z"/>
<path style="fill:#a2a3a3" d="M63 34 C61.82 34.15 61.98 32.66 62 32 C63.18 31.85 63.02 33.34 63 34 z"/>
<path style="fill:#898989" d="M24 33 L24 44 C22.34 41.69 22.34 35.31 24 33 z"/>
<path style="fill:#262727" d="M34 33 L34 35 L33 35 C32.98 34.34 32.82 32.85 34 33 z"/>
<path style="fill:#dadbdb" d="M53 34 C52.81 34.95 53.59 36.94 52 37 L51 36 C51.02 35.34 51.18 33.85 50 34 L50 33 L53 34 z"/>
<path style="fill:#0c0d0d" d="M37 34 C40.64 33.57 40.62 38.16 38 39 C39.74 40.09 40.82 41.98 39 44 C37.58 44.21 35.33 44.11 36 42 C33.88 40.9 33.22 38.15 35 36 L37 34 z"/>
<path style="fill:#090a0a" d="M50 34 C49.98 34.66 49.82 36.15 51 36 L52 37 L52 41 L48 44 C42.5 40.58 52.89 38.79 46.25 37.75 L46 35 L50 34 z"/>
<path style="fill:#888888" d="M51 36 C49.82 36.15 49.98 34.66 50 34 C51.18 33.85 51.02 35.34 51 36 z"/>
<path style="fill:#5a5b5b" d="M54 41 L53 41 L52 41 L52 37 C53.59 36.94 52.81 34.95 53 34 C54.43 35.5 55.84 38.91 54 41 z"/>
<path style="fill:#a9aaaa" d="M32 35 L33 43 L33 45 L32 45 L31 35 L32 35 z"/>
<path style="fill:#343535" d="M33 35 L33 43 L32 35 L33 35 z"/>
<path style="fill:#9a9b9b" d="M34 35 L35 36 C33.22 38.15 33.88 40.9 36 42 C35.34 41.98 33.85 41.82 34 43 L33 43 L33 35 L34 35 z"/>
<path style="fill:#656565" d="M52 37 L51 36 L52 37 z"/>
<path style="fill:#0c0d0d" d="M42 37 C50.51 37.61 38.58 44.67 42 37 z"/>
<path style="fill:#cbcbcb" d="M52 41 L53 41 C53.21 43.39 51.22 44.71 50 46 L47 45 L47 44 L48 44 L52 41 z"/>
<path style="fill:#2c2c2c" d="M54 41 L53 46 L50 46 C51.22 44.71 53.21 43.39 53 41 L54 41 z"/>
<path style="fill:#d5d6d6" d="M36 42 C35.33 44.11 37.58 44.21 39 44 L39 45 C38.43 47.51 40.71 49.53 42 51 L38 51 L37 47 C37.02 46.34 37.18 44.85 36 45 L35 45 L34 44 L34 43 C33.85 41.82 35.34 41.98 36 42 z"/>
<path style="fill:#0d0e0e" d="M47 44 L47 45 L47 48 L45 51 L42 51 C40.71 49.53 38.43 47.51 39 45 C42.28 41.69 41.14 42.67 43 46 C44.66 44.04 43.72 40.66 47 44 z"/>
<path style="fill:#1f2020" d="M34 43 L34 44 L34 45 L33 45 L33 43 L34 43 z"/>
<path style="fill:#7e7e7e" d="M63 43 C63.02 43.66 63.18 45.15 62 45 C61.98 44.34 61.82 42.85 63 43 z"/>
<path style="fill:#747474" d="M35 45 L34 45 L34 44 L35 45 z"/>
<path style="fill:#787979" d="M25 47 C23.82 47.15 23.98 45.66 24 45 C25.18 44.85 25.02 46.34 25 47 z"/>
<path style="fill:#808080" d="M33 45 L34 45 C33.78 46.33 36.22 46.33 36 45 C37.18 44.85 37.02 46.34 37 47 L38 51 L44 55 C40.77 55.45 36.16 53.68 36 50 C36.32 49.23 35.77 45.72 35 48 L32 45 L33 45 z"/>
<path style="fill:#0" d="M35 45 L36 45 C36.22 46.33 33.78 46.33 34 45 L35 45 z"/>
<path style="fill:#8a8a8a" d="M50 46 L53 46 C52.48 47.56 50.22 48.33 52 50 C49.31 49.89 49.92 46.97 48 50 C48.02 49.34 48.18 47.85 47 48 L47 45 L50 46 z"/>
<path style="fill:#626262" d="M62 46 L61 47 L62 46 z"/>
<path style="fill:#cacbcb" d="M36 50 L35 50 L35 49 L35 48 C35.77 45.72 36.32 49.23 36 50 z"/>
<path style="fill:#212222" d="M38 51 L37 47 L38 51 z"/>
<path style="fill:#d8d9d9" d="M48 50 L47 52 C46.34 52.02 44.85 52.18 45 51 L47 48 C48.18 47.85 48.02 49.34 48 50 z"/>
<path style="fill:#393939" d="M52 50 L52 51 L50 51 L49 52 L47 52 L48 50 C49.92 46.97 49.31 49.89 52 50 z"/>
<path style="fill:#777777" d="M61 48 L60 49 L61 48 z"/>
<path style="fill:#939393" d="M27 50 L26 49 L27 50 z"/>
<path style="fill:#7c7d7d" d="M35 49 L35 50 L34 51 L33 51 L35 49 z"/>
<path style="fill:#606060" d="M60 49 L59 50 L60 49 z"/>
<path style="fill:#9c9c9c" d="M28 51 L27 50 L28 51 z"/>
<path style="fill:#080808" d="M36 50 C36.16 53.68 40.77 55.45 44 55 C44.66 55.02 46.15 55.18 46 54 C47.34 54.33 48.74 53.29 49 52 L50 51 L52 51 L52 56 L52 58 L51 59 L50 60 L49 61 L46 62 L40 62 C37.72 62.18 36.06 59.68 35 58 L34 57 L34 51 L35 50 L36 50 z"/>
<path style="fill:#868787" d="M53 51 L52 56 L52 51 L52 50 L53 51 z"/>
<path style="fill:#747474" d="M59 50 L58 51 L59 50 z"/>
<path style="fill:#7f8080" d="M32 51 C32.04 52.48 28.96 52.48 29 51 L32 51 z"/>
<path style="fill:#505151" d="M42 51 L45 51 C44.85 52.18 46.34 52.02 47 52 L46 54 C46.15 55.18 44.66 55.02 44 55 L38 51 L42 51 z"/>
<path style="fill:#aaaaaa" d="M50 51 L49 52 L50 51 z"/>
<path style="fill:#909191" d="M58 51 C57.81 52.55 54.19 52.55 54 51 L58 51 z"/>
<path style="fill:#9a9a9a" d="M49 52 C48.74 53.29 47.34 54.33 46 54 L47 52 L49 52 z"/>
<path style="fill:#8e8e8e" d="M35 58 L34 57 L35 58 z"/>
<path style="fill:#a3a3a3" d="M52 58 L51 59 L52 58 z"/>
<path style="fill:#7b7b7b" d="M51 59 L50 60 L51 59 z"/>
<path style="fill:#777777" d="M50 60 L49 61 L50 60 z"/>
<path style="fill:#636464" d="M46 62 C45.27 63.62 40.73 63.62 40 62 L46 62 z"/>
<path style="fill:#696969" d="M65 65 L65 66 L21 66 L65 65 z"/>
<path style="fill:#afb0b0" d="M65 70 L65 66 L65 65 C66.6 65.45 66.6 69.55 65 70 z"/>
<path style="fill:#010101" d="M65 66 L65 70 L21 70 L21 66 L65 66 z"/>
<path style="fill:#a3a3a3" d="M65 70 C51.69 71.67 34.31 71.67 21 70 L65 70 z"/>
<path style="fill:#e1e2e2" d="M65 73 L22 73 L21 73 C34.31 71.33 51.69 71.33 65 73 z"/>
<path style="fill:#3e3f3f" d="M22 73 L22 74 L22.25 76.75 L65 77 L65 78 L21.25 77.75 L21 73 L22 73 z"/>
<path style="fill:#1b1c1c" d="M65 73 L65 74 L22 74 L22 73 L65 73 z"/>
<path style="fill:#a6a7a7" d="M65 78 L65 77 L65 74 L65 73 C66.6 73.45 66.6 77.55 65 78 z"/>
<path style="fill:#010101" d="M65 74 L65 77 L22.25 76.75 L22 74 L65 74 z"/>
</svg>
