<?xml version="1.0" standalone="yes"?>
<svg width="87" height="97">
<path style="fill:#fdfdfd" d="M87 0 L87 97 L0 97 L0 0 L87 0 z"/>
<path style="fill:#a7a7a7" d="M44 16 L43 16 C42.57 14.94 44.43 14.94 44 16 z"/>
<path style="fill:#0b0b0b" d="M43 16 L44 16 L45 17 L48 19 L49 20 L51 21 L52 22 L55 23 C54.85 24.18 56.34 24.02 57 24 C58.42 23.79 60.67 23.89 60 26 C58.82 25.85 58.98 27.34 59 28 L59 30 L43 22 C38.46 25.34 34.13 30.33 28 30 L28 29 C28.02 28.34 28.18 26.85 27 27 C26.34 24.76 27.76 23.34 30 24 C30.66 24.02 32.15 24.18 32 23 L33 23 L34 22 L35 22 L36 21 L38 20 L39 19 L40 18 L43 16 z"/>
<path style="fill:#696969" d="M45 17 L44 16 L45 17 z"/>
<path style="fill:#a0a0a0" d="M40 18 L39 19 L40 18 z"/>
<path style="fill:#777777" d="M39 19 L38 20 L39 19 z"/>
<path style="fill:#979797" d="M49 20 L48 19 L49 20 z"/>
<path style="fill:#666666" d="M36 21 L35 22 L36 21 z"/>
<path style="fill:#828282" d="M52 22 L51 21 L52 22 z"/>
<path style="fill:#7b7b7b" d="M34 22 L33 23 L34 22 z"/>
<path style="fill:#a1a2a2" d="M59 30 L60 32 C53.65 31.79 48.21 27.62 43.75 23.25 C39.12 26.83 34.12 31.4 28 32 L28 30 C34.13 30.33 38.46 25.34 43 22 L59 30 z"/>
<path style="fill:#828282" d="M32 23 C32.15 24.18 30.66 24.02 30 24 C29.85 22.82 31.34 22.98 32 23 z"/>
<path style="fill:#020303" d="M60 32 L60 34 C58.82 33.85 58.98 35.34 59 36 L59 37 C57.82 36.85 57.98 38.34 58 39 L58 40 C56.82 39.85 56.98 41.34 57 42 L57 44 C55.82 43.85 55.98 45.34 56 46 L56 48 C54.82 47.85 54.98 49.34 55 50 L55 51 C53.82 50.85 53.98 52.34 54 53 L54 56 C52.94 61.06 48.26 57.71 45 56 C45.04 54.52 41.96 54.52 42 56 L41 57 C37.67 57.96 34 60.66 33 56 L33 54 C33.02 53.34 33.18 51.85 32 52 L32 50 C32.02 49.34 32.18 47.85 31 48 L31 47 C31.02 46.34 31.18 44.85 30 45 L30 43 C30.02 42.34 30.18 40.85 29 41 L29 40 C29.02 39.34 29.18 37.85 28 38 L28 36 C28.02 35.34 28.18 33.85 27 34 C26.98 33.34 26.82 31.85 28 32 C34.12 31.4 39.12 26.83 43.75 23.25 C48.21 27.62 53.65 31.79 60 32 z"/>
<path style="fill:#9c9c9c" d="M57 24 C56.34 24.02 54.85 24.18 55 23 C55.66 22.98 57.15 22.82 57 24 z"/>
<path style="fill:#737373" d="M60 26 C60.02 26.66 60.18 28.15 59 28 C58.98 27.34 58.82 25.85 60 26 z"/>
<path style="fill:#7d7e7e" d="M28 29 C26.82 29.15 26.98 27.66 27 27 C28.18 26.85 28.02 28.34 28 29 z"/>
<path style="fill:#616161" d="M28 36 C26.82 36.15 26.98 34.66 27 34 C28.18 33.85 28.02 35.34 28 36 z"/>
<path style="fill:#8d8e8e" d="M60 34 C60.02 34.66 60.18 36.15 59 36 C58.98 35.34 58.82 33.85 60 34 z"/>
<path style="fill:#707070" d="M59 37 C59.02 37.66 59.18 39.15 58 39 C57.98 38.34 57.82 36.85 59 37 z"/>
<path style="fill:#787979" d="M29 40 C27.82 40.15 27.98 38.66 28 38 C29.18 37.85 29.02 39.34 29 40 z"/>
<path style="fill:#515151" d="M58 40 C58.02 40.66 58.18 42.15 57 42 C56.98 41.34 56.82 39.85 58 40 z"/>
<path style="fill:#666666" d="M30 43 C28.82 43.15 28.98 41.66 29 41 C30.18 40.85 30.02 42.34 30 43 z"/>
<path style="fill:#6c6d6d" d="M57 44 C57.02 44.66 57.18 46.15 56 46 C55.98 45.34 55.82 43.85 57 44 z"/>
<path style="fill:#828282" d="M31 47 C29.82 47.15 29.98 45.66 30 45 C31.18 44.85 31.02 46.34 31 47 z"/>
<path style="fill:#606060" d="M32 50 C30.82 50.15 30.98 48.66 31 48 C32.18 47.85 32.02 49.34 32 50 z"/>
<path style="fill:#898989" d="M56 48 C56.02 48.66 56.18 50.15 55 50 C54.98 49.34 54.82 47.85 56 48 z"/>
<path style="fill:#6b6b6b" d="M55 51 C55.02 51.66 55.18 53.15 54 53 C53.98 52.34 53.82 50.85 55 51 z"/>
<path style="fill:#7c7d7d" d="M33 54 C31.82 54.15 31.98 52.66 32 52 C33.18 51.85 33.02 53.34 33 54 z"/>
<path style="fill:#4c4c4c" d="M45 56 L42 56 C41.96 54.52 45.04 54.52 45 56 z"/>
<path style="fill:#969696" d="M41 57 C40.16 58.18 40.16 58.82 41 60 L34 63 L34 61 C35.88 61.14 33.86 59.12 34 61 L33 57 L33 56 C34 60.66 37.67 57.96 41 57 z"/>
<path style="fill:#a5a6a6" d="M42 56 L45 56 C48.26 57.71 52.94 61.06 54 56 L54 57 C54.52 58.92 53.31 61.49 51 61 C48.46 58.95 44.73 56.61 41 57 L42 56 z"/>
<path style="fill:#111212" d="M33 57 L34 61 L34 63 C33.34 62.98 31.85 62.82 32 64 L28 64 L27 64 L26 63 C25.18 63.02 23.13 61.13 25 61 L26 60 L27 60 L28 59 L33 57 z"/>
<path style="fill:#7b7b7b" d="M51 61 C50.34 60.98 48.85 60.82 49 62 C46.24 61.22 43.95 57.26 41 60 C40.16 58.82 40.16 58.18 41 57 C44.73 56.61 48.46 58.95 51 61 z"/>
<path style="fill:#131414" d="M55 57 L56 58 L57 58 L58 59 L59 59 L60 60 L61 60 L62 61 C64.23 62.12 59.92 63.39 59 64 C56.02 64.42 52.82 62.91 51 61 C53.31 61.49 54.52 58.92 54 57 L55 57 z"/>
<path style="fill:#777777" d="M56 58 L55 57 L56 58 z"/>
<path style="fill:#898989" d="M58 59 L57 58 L58 59 z"/>
<path style="fill:#6d6d6d" d="M28 59 L27 60 L28 59 z"/>
<path style="fill:#050606" d="M49 62 L57 66 L60 67 L61 68 L62 69 L62 70 L58 72 L57 73 L56 73 L55 74 L54 74 L53 75 L52 75 L51 76 L50 76 L49 77 L45 79 L42 79 L41 79 L40 78 L39 78 L38 77 L34 75 L33 74 L32 74 L31 73 L30 73 L29 72 L28 72 L27 71 L26 71 L25 70 L24 69 L25 68 L26 68 L27 67 L28 67 L29 66 L30 66 L32 64 C32.66 64.02 34.15 64.18 34 63 L41 60 C43.95 57.26 46.24 61.22 49 62 z"/>
<path style="fill:#949494" d="M60 60 L59 59 L60 60 z"/>
<path style="fill:#7a7a7a" d="M26 60 L25 61 L26 60 z"/>
<path style="fill:#f2f2f2" d="M34 61 C33.86 59.12 35.88 61.14 34 61 z"/>
<path style="fill:#a6a6a6" d="M62 61 L61 60 L62 61 z"/>
<path style="fill:#9f9f9f" d="M51 61 C52.82 62.91 56.02 64.42 59 64 L57 66 L49 62 C48.85 60.82 50.34 60.98 51 61 z"/>
<path style="fill:#949494" d="M27 64 L26 63 L27 64 z"/>
<path style="fill:#bcbdbd" d="M34 63 C34.15 64.18 32.66 64.02 32 64 C31.85 62.82 33.34 62.98 34 63 z"/>
<path style="fill:#8c8c8c" d="M32 64 L30 66 L28 64 L32 64 z"/>
<path style="fill:#757575" d="M29 66 L28 67 L29 66 z"/>
<path style="fill:#838383" d="M27 67 L26 68 L27 67 z"/>
<path style="fill:#a8a8a8" d="M61 68 L60 67 L61 68 z"/>
<path style="fill:#848484" d="M25 68 L24 69 L25 68 z"/>
<path style="fill:#616161" d="M62 70 L62 69 C63.06 68.57 63.06 70.43 62 70 z"/>
<path style="fill:#8c8c8c" d="M26 71 L25 70 L26 71 z"/>
<path style="fill:#818181" d="M28 72 L27 71 L28 72 z"/>
<path style="fill:#6e6e6e" d="M30 73 L29 72 L30 73 z"/>
<path style="fill:#999999" d="M58 72 L57 73 L58 72 z"/>
<path style="fill:#757575" d="M32 74 L31 73 L32 74 z"/>
<path style="fill:#828282" d="M56 73 L55 74 L56 73 z"/>
<path style="fill:#5c5c5c" d="M34 75 L33 74 L34 75 z"/>
<path style="fill:#7d7d7d" d="M54 74 L53 75 L54 74 z"/>
<path style="fill:#747474" d="M52 75 L51 76 L52 75 z"/>
<path style="fill:#666666" d="M50 76 L49 77 L50 76 z"/>
<path style="fill:#9b9b9b" d="M39 78 L38 77 L39 78 z"/>
<path style="fill:#828282" d="M41 79 L40 78 L41 79 z"/>
<path style="fill:#747575" d="M45 79 C45.04 80.48 41.96 80.48 42 79 L45 79 z"/>
</svg>
