<?xml version="1.0" standalone="yes"?>
<svg width="87" height="97">
<path style="fill:#fcfcfc" d="M87 0 L87 97 L0 97 L0 0 L87 0 z"/>
<path style="fill:#767777" d="M41 18 C41.15 16.82 39.66 16.98 39 17 C39.27 14.38 44.09 17.07 41 18 z"/>
<path style="fill:#6e6f6f" d="M48 17 C47.34 16.98 45.85 16.82 46 18 C42.91 17.07 47.73 14.38 48 17 z"/>
<path style="fill:#8d8e8e" d="M36 17 C36.15 18.18 34.66 18.02 34 18 C33.85 16.82 35.34 16.98 36 17 z"/>
<path style="fill:#0b0c0c" d="M39 17 C39.66 16.98 41.15 16.82 41 18 L40 18 L37 21 L33 25 L32 27 L31 28 L30 31 L29 32 L29 33 C24.04 34.02 27.21 29.45 27 27 L30 20 C30.61 18.76 32.56 18.02 34 18 C34.66 18.02 36.15 18.18 36 17 L39 17 z"/>
<path style="fill:#090a0a" d="M48 17 L51 17 C50.85 18.18 52.34 18.02 53 18 L54 18 C53.85 19.18 55.34 19.02 56 19 L57 20 L61 33 L59 33 L58 33 C58.02 32.34 58.18 30.85 57 31 C56.8 29.15 55.97 26.68 54 26 C54.02 25.34 54.18 23.85 53 24 C52.56 21.47 48.96 19.9 47 18 L46 18 C45.85 16.82 47.34 16.98 48 17 z"/>
<path style="fill:#8d8e8e" d="M53 18 C52.34 18.02 50.85 18.18 51 17 C51.66 16.98 53.15 16.82 53 18 z"/>
<path style="fill:#626363" d="M40 18 L41 20 L37 21 L40 18 z"/>
<path style="fill:#2c2c2c" d="M53 24 L52 25 L47 23 C47.15 21.82 45.66 21.98 45 22 L47 18 C48.96 19.9 52.56 21.47 53 24 z"/>
<path style="fill:#8b8b8b" d="M56 19 C55.34 19.02 53.85 19.18 54 18 C54.66 17.98 56.15 17.82 56 19 z"/>
<path style="fill:#818181" d="M57 20 L56 19 L57 20 z"/>
<path style="fill:#494a4a" d="M30 20 L27 27 L26 26 L28 21 C27.85 19.82 29.34 19.98 30 20 z"/>
<path style="fill:#272828" d="M41 20 L42 21 L42 22 C41.34 21.98 39.85 21.82 40 23 L33 25 L37 21 L41 20 z"/>
<path style="fill:#545555" d="M59 21 L62 33 L61 33 L57 20 C57.66 19.98 59.15 19.82 59 21 z"/>
<path style="fill:#0d0e0e" d="M28 21 L26 26 C25.87 35.46 18.71 40.13 27 46 C27.1 47.7 27.38 51.15 25 49 C23.61 45.54 21.45 42.28 19 40 L17 31 L17 30 L18 29 L19 28 L20 27 L21.25 35.75 L22 25 L23 24 L24 23 L25 22 L28 21 z"/>
<path style="fill:#7d7d7d" d="M42 22 L42 21 C43.06 20.57 43.06 22.43 42 22 z"/>
<path style="fill:#0a0a0a" d="M60 21 L61 22 L62 22 L63 23 L64 24 L65.75 35.75 L67 27 L68 28 L69 29 C69.44 32.22 68.33 43.3 65 39 L62 33 L59 21 L60 21 z"/>
<path style="fill:#606060" d="M61 22 L60 21 L61 22 z"/>
<path style="fill:#a3a3a3" d="M25 22 L24 23 L25 22 z"/>
<path style="fill:#858686" d="M42 22 C42.15 23.18 40.66 23.02 40 23 C39.85 21.82 41.34 21.98 42 22 z"/>
<path style="fill:#838484" d="M47 23 C46.34 23.02 44.85 23.18 45 22 C45.66 21.98 47.15 21.82 47 23 z"/>
<path style="fill:#959595" d="M63 23 L62 22 L63 23 z"/>
<path style="fill:#868686" d="M24 23 L23 24 L24 23 z"/>
<path style="fill:#7f7f7f" d="M64 24 L63 23 L64 24 z"/>
<path style="fill:#878787" d="M54 26 C53.34 26.02 51.85 26.18 52 25 L53 24 C54.18 23.85 54.02 25.34 54 26 z"/>
<path style="fill:#5c5c5c" d="M67 27 L65.75 35.75 L64 24 L67 27 z"/>
<path style="fill:#565656" d="M22 25 L21.25 35.75 L20 27 L22 25 z"/>
<path style="fill:#666666" d="M47 26 L42 26 C42.45 24.4 46.55 24.4 47 26 z"/>
<path style="fill:#5c5c5c" d="M27 27 C27.21 29.45 24.04 34.02 29 33 L29 35 L28 35 C23.31 34 25.23 43.06 27 46 C18.71 40.13 25.87 35.46 26 26 L27 27 z"/>
<path style="fill:#9c9c9c" d="M41 26 L40 27 L41 26 z"/>
<path style="fill:#0b0b0b" d="M42 26 L47 26 L48 26 L49 27 L50 28 L51 29 L51 30 L51 35 L51 36 L50 37 L49 38 L47 40 L41.75 44.75 L44.75 42.25 L46 46 L46 47 L47 48 L48 50 L49 51 L49 52 L44 53 L42 52 C39.76 47.07 39.56 48.73 39 52 L37 52 C35.84 50.61 32.97 49.79 34 47 L34 46 L35 45 L36 44 L40 40 L41 39 L43 38 L44 37 C45.29 36.74 46.33 35.34 46 34 L42 32 C44.66 31.67 41.33 28.34 41 31 L41 32 C39.42 34.9 38.41 30.51 39 29 L39 28 L40 27 L41 26 L42 26 z"/>
<path style="fill:#727272" d="M49 27 L48 26 L49 27 z"/>
<path style="fill:#8a8a8a" d="M32 27 L31 28 L32 27 z"/>
<path style="fill:#a2a2a2" d="M40 27 L39 28 L40 27 z"/>
<path style="fill:#606060" d="M50 28 L49 27 L50 28 z"/>
<path style="fill:#6a6a6a" d="M19 28 L18 29 L19 28 z"/>
<path style="fill:#b5b5b5" d="M46 28 L45 29 L46 28 z"/>
<path style="fill:#3c3d3d" d="M49 30 C48.34 29.98 46.85 29.82 47 31 C45.78 30.02 42.42 31.05 45 29 L46 28 L49 30 z"/>
<path style="fill:#848484" d="M51 29 L50 28 L51 29 z"/>
<path style="fill:#797979" d="M69 29 L68 28 L69 29 z"/>
<path style="fill:#9d9d9d" d="M18 29 L17 30 L18 29 z"/>
<path style="fill:#4f5050" d="M39 29 C38.41 30.51 39.42 34.9 41 32 L42 32 L46 34 L32.25 37.75 L39 29 z"/>
<path style="fill:#575757" d="M71 32 L69 46 C64.66 54.22 71.57 48.32 75 45 C76.02 46.53 77 50.04 75 51 C77.59 42.18 62.88 55.85 69 56 C67.7 57.29 65.44 58.44 65.25 60.75 L72 59 L63 64 L58 63 L58 62 C63.25 63.71 68.65 52.94 62 56 C67.36 54.13 67.31 40.3 62 49 L63 40 C62.85 38.82 64.34 38.98 65 39 C68.33 43.3 69.44 32.22 69 29 L71 32 z"/>
<path style="fill:#636464" d="M42 32 L41 31 C41.33 28.34 44.66 31.67 42 32 z"/>
<path style="fill:#939393" d="M49 30 C49.9 31.56 47.19 33.02 47 31 C46.85 29.82 48.34 29.98 49 30 z"/>
<path style="fill:#515252" d="M51 35 L51 30 C52.6 30.45 52.6 34.55 51 35 z"/>
<path style="fill:#575858" d="M17 31 L19 40 L15 34 C14.67 32.66 15.71 31.26 17 31 z"/>
<path style="fill:#747474" d="M30 31 L29 32 L30 31 z"/>
<path style="fill:#cdcdcd" d="M42 32 L41 32 L41 31 L42 32 z"/>
<path style="fill:#a6a7a7" d="M58 33 C56.82 33.15 56.98 31.66 57 31 C58.18 30.85 58.02 32.34 58 33 z"/>
<path style="fill:#0c0d0d" d="M71 32 L72 34 L73 35 L73 36 L73 39 C71.82 38.85 71.98 40.34 72 41 C70.94 42.24 68.94 43.99 69 46 L71 32 z"/>
<path style="fill:#c3c3c3" d="M59 33 L59 34 L59 41 L58 41 L58 33 L59 33 z"/>
<path style="fill:#727373" d="M61 33 L62 33 L65 39 C64.34 38.98 62.85 38.82 63 40 L61 46 L60 47 L58 46 L58 41 L59 41 C58.76 51.24 66.46 33.35 59 34 L59 33 L61 33 z"/>
<path style="fill:#a0a0a0" d="M15 34 L14 35 L15 34 z"/>
<path style="fill:#0a0b0b" d="M19 40 C19.36 42.74 21.48 49.24 17 45 L14 38 L14 36 L14 35 L15 34 L19 40 z"/>
<path style="fill:#0b0c0c" d="M28 35 L29 41 L29 44 L29 46 L27 46 C25.23 43.06 23.31 34 28 35 z"/>
<path style="fill:#080808" d="M59 41 L59 34 C66.46 33.35 58.76 51.24 59 41 z"/>
<path style="fill:#a2a2a2" d="M73 35 L72 34 L73 35 z"/>
<path style="fill:#a3a3a3" d="M29 35 L29 41 L28 35 L29 35 z"/>
<path style="fill:#abacac" d="M14 36 L14 38 L14 39 L12 40 C12.02 38.56 12.76 36.61 14 36 z"/>
<path style="fill:#949494" d="M51 36 L50 37 L51 36 z"/>
<path style="fill:#919292" d="M74 39 L73 39 L73 36 C74.59 36.06 73.81 38.05 74 39 z"/>
<path style="fill:#707070" d="M44 37 L43 38 L44 37 z"/>
<path style="fill:#6a6a6a" d="M50 37 L49 38 L50 37 z"/>
<path style="fill:#4a4a4a" d="M17 45 C14.79 44.1 13.85 41.25 14 39 L14 38 L17 45 z"/>
<path style="fill:#2c2d2d" d="M47 40 C45.64 41.7 46.02 43.91 46 46 L44.75 42.25 L41.75 44.75 L47 40 z"/>
<path style="fill:#0f1010" d="M14 39 C13.85 41.25 14.79 44.1 17 45 C17.67 47.25 19.1 51.03 22 51 L24 53 C25.8 55.13 28.79 57.47 24 56 C21.97 53.36 19.53 51.38 16.25 50.25 C21.92 56.24 17.82 56.06 12 52 L12 43 L12 40 L14 39 z"/>
<path style="fill:#656565" d="M41 39 L40 40 L41 39 z"/>
<path style="fill:#5d5d5d" d="M73 39 C73.02 39.66 73.18 41.15 72 41 C71.98 40.34 71.82 38.85 73 39 z"/>
<path style="fill:#0a0a0a" d="M74 39 C73.98 39.66 73.82 41.15 75 41 L75 45 C71.57 48.32 64.66 54.22 69 46 C70.93 45.23 72.58 43.22 72 41 C73.18 41.15 73.02 39.66 73 39 L74 39 z"/>
<path style="fill:#8d8d8d" d="M75 41 C73.82 41.15 73.98 39.66 74 39 C75.18 38.85 75.02 40.34 75 41 z"/>
<path style="fill:#5f5f5f" d="M25 49 C22.12 45.36 19.38 46.72 22 51 C19.1 51.03 17.67 47.25 17 45 C21.48 49.24 19.36 42.74 19 40 C21.45 42.28 23.61 45.54 25 49 z"/>
<path style="fill:#0a0a0a" d="M62 49 C60.41 48.94 61.19 46.95 61 46 L63 40 L62 49 z"/>
<path style="fill:#626363" d="M72 41 C72.58 43.22 70.93 45.23 69 46 C68.94 43.99 70.94 42.24 72 41 z"/>
<path style="fill:#808080" d="M12 43 L12 52 L12 53 L12 54 C10.34 51.69 10.34 45.31 12 43 z"/>
<path style="fill:#9a9b9b" d="M30 46 L29 46 L29 44 C30.18 43.85 30.02 45.34 30 46 z"/>
<path style="fill:#636363" d="M36 44 L35 45 L36 44 z"/>
<path style="fill:#818181" d="M35 45 L34 46 L35 45 z"/>
<path style="fill:#121212" d="M62 56 C59.98 56.45 60.07 55.16 61 54 C64.06 53.32 62.19 50.85 62 49 C67.31 40.3 67.36 54.13 62 56 z"/>
<path style="fill:#0d0e0e" d="M25 49 C25.46 51.13 28.92 53.43 24 53 C24.46 51.65 23.35 50.54 22 51 C19.38 46.72 22.12 45.36 25 49 z"/>
<path style="fill:#585858" d="M29 46 C26.98 47.59 28.38 52.38 31 50 C30.72 51.6 31.14 53.66 33 54 C26.34 60.55 45.11 62.49 34 56 L37 53 L39 56 C39.34 57.86 41.4 58.28 43 58 L43 59 C38.05 57.2 38.43 63.18 43 62 L43 64 C37.58 61.92 39.06 69.2 43 66 L43 67 C42.48 68.92 43.69 71.49 46 71 C45.48 72.92 46.69 75.49 49 75 C49.66 75.02 51.15 75.18 51 74 C52.45 75.98 54.99 77.63 58 77 C57.39 78.24 55.44 78.98 54 79 C52.48 77.02 46.5 75.8 49 80 C43.37 82.16 35.77 80.39 31 78 L34 78 C35.06 78.63 35.97 79.2 36.75 77.75 C42.73 74.23 29.15 73.66 38 72 C37.07 70.84 36.98 69.55 39 70 C41.29 75.4 43.93 67.19 39 68 C37.05 66.18 36.2 67.73 35 69 C34.06 66.79 29.55 65.86 28 68 C30.71 69.8 33.24 68.64 32 71 L33 73 C29.79 73.22 24.91 72.95 29.75 71.25 C27.81 69.29 22.7 69.33 21 71 L18 68 L26 68 C24.38 65.53 18.63 65.43 17 66 L15 63 L24 64 L25 64 C30.29 68.33 35.71 64.53 26.25 63.75 C34.15 62.82 27.47 52.5 28 62 L26 61 C26.78 58.76 24.77 57.67 24 56 C28.79 57.47 25.8 55.13 24 53 C28.92 53.43 25.46 51.13 25 49 C27.38 51.15 27.1 47.7 27 46 L29 46 z"/>
<path style="fill:#151515" d="M30 46 L31 48 L31 50 C28.38 52.38 26.98 47.59 29 46 L30 46 z"/>
<path style="fill:#151515" d="M58 46 L60 47 L59 50 L57 47 L58 46 z"/>
<path style="fill:#454545" d="M61 46 C61.19 46.95 60.41 48.94 62 49 C62.19 50.85 64.06 53.32 61 54 L59 54 C58.73 51.98 56.9 53.68 56 54 C55.59 51.61 54.04 55.33 56 55 C57.85 55.38 57.48 59.99 55 59 L53 59 C50.3 58.48 51.95 56.66 52 55 C54.68 55.71 53.94 52.55 54 51 L54 50 L55 49 C54.79 50.42 54.89 52.67 57 52 C58.35 52.46 59.46 51.35 59 50 L60 47 L61 46 z"/>
<path style="fill:#616161" d="M34 47 C32.97 49.79 35.84 50.61 37 52 L34 54 C34.52 52.08 33.31 49.51 31 50 L31 48 C32.88 49.75 32.6 47.63 34 47 z"/>
<path style="fill:#6c6c6c" d="M47 48 L46 47 L47 48 z"/>
<path style="fill:#696969" d="M57 47 L59 50 C59.46 51.35 58.35 52.46 57 52 C57.21 50.58 57.11 48.33 55 49 L57 47 z"/>
<path style="fill:#050505" d="M75 51 L69 56 C62.88 55.85 77.59 42.18 75 51 z"/>
<path style="fill:#434343" d="M42 52 C41.1 52.32 39.27 54.02 39 52 C39.56 48.73 39.76 47.07 42 52 z"/>
<path style="fill:#040505" d="M57 52 C54.89 52.67 54.79 50.42 55 49 C57.11 48.33 57.21 50.58 57 52 z"/>
<path style="fill:#505050" d="M24 56 C22.65 55.54 21.54 56.65 22 58 L21 58 C17.23 58.35 14.98 54.66 12 53 L12 52 C17.82 56.06 21.92 56.24 16.25 50.25 C19.53 51.38 21.97 53.36 24 56 z"/>
<path style="fill:#030303" d="M34 54 L33 54 C31.14 53.66 30.72 51.6 31 50 C33.31 49.51 34.52 52.08 34 54 z"/>
<path style="fill:#7a7a7a" d="M49 51 L48 50 L49 51 z"/>
<path style="fill:#8f8f8f" d="M54 50 L54 51 C52.58 50.79 50.33 50.89 51 53 L49 53 L49 52 L49 51 L54 50 z"/>
<path style="fill:#5c5c5c" d="M24 53 L22 51 C23.35 50.54 24.46 51.65 24 53 z"/>
<path style="fill:#272727" d="M54 51 C53.94 52.55 54.68 55.71 52 55 C50.82 55.15 50.98 53.66 51 53 C50.33 50.89 52.58 50.79 54 51 z"/>
<path style="fill:#515252" d="M75 51 L75 53 L69 56 L75 51 z"/>
<path style="fill:#090909" d="M28 52 C33.17 52.81 27.11 58.83 28 52 z"/>
<path style="fill:#171818" d="M37 52 L37 53 L34 56 C45.11 62.49 26.34 60.55 33 54 L34 54 L37 52 z"/>
<path style="fill:#727373" d="M39 52 C39.27 54.02 41.1 52.32 42 52 L44 53 L44 54 L43 55 C43.37 59.85 39.67 49.64 39 56 L37 53 L37 52 L39 52 z"/>
<path style="fill:#444444" d="M49 52 L49 53 C47.73 54.2 46.18 55.05 48 57 C46.82 56.85 46.98 58.34 47 59 L44 59 L44 58 C47.03 58.83 46.34 54.12 44 54 L44 53 L49 52 z"/>
<path style="fill:#0c0d0d" d="M21 58 L22 61 L13 58 L12 54 L12 53 C14.98 54.66 17.23 58.35 21 58 z"/>
<path style="fill:#111111" d="M51 53 C50.98 53.66 50.82 55.15 52 55 C51.95 56.66 50.3 58.48 53 59 L53 67 C50.08 68.51 46.89 63.24 50.75 62.75 L48 57 C46.18 55.05 47.73 54.2 49 53 L51 53 z"/>
<path style="fill:#9fa0a0" d="M56 54 L56 55 C54.04 55.33 55.59 51.61 56 54 z"/>
<path style="fill:#181919" d="M59 54 L58.25 56.25 C63.39 57.6 52.59 63.74 58 63 L63 64 L59 65 C53.42 68.76 53.48 63.86 55 59 C57.48 59.99 57.85 55.38 56 55 L56 54 C56.9 53.68 58.73 51.98 59 54 z"/>
<path style="fill:#0c0d0d" d="M75 53 L75 56 C73.82 55.85 73.98 57.34 74 58 C73.34 57.98 71.85 57.82 72 59 L65.25 60.75 C65.44 58.44 67.7 57.29 69 56 L75 53 z"/>
<path style="fill:#0d0e0e" d="M44 54 C46.34 54.12 47.03 58.83 44 58 L43 58 C41.4 58.28 39.34 57.86 39 56 C39.67 49.64 43.37 59.85 43 55 L44 54 z"/>
<path style="fill:#6a6a6a" d="M61 54 C60.07 55.16 59.98 56.45 62 56 C61.47 59.34 61.1 60.21 58 62 L58 63 C52.59 63.74 63.39 57.6 58.25 56.25 L59 54 L61 54 z"/>
<path style="fill:#101010" d="M58 62 C61.1 60.21 61.47 59.34 62 56 C68.65 52.94 63.25 63.71 58 62 z"/>
<path style="fill:#1f2020" d="M24 56 C24.77 57.67 26.78 58.76 26 61 L23 60 C23.02 59.34 23.18 57.85 22 58 C21.54 56.65 22.65 55.54 24 56 z"/>
<path style="fill:#868787" d="M75 56 C75.02 56.66 75.18 58.15 74 58 C73.98 57.34 73.82 55.85 75 56 z"/>
<path style="fill:#0e0e0e" d="M25 64 L23 60 L26 61 L28 62 C27.47 52.5 34.15 62.82 26.25 63.75 C35.71 64.53 30.29 68.33 25 64 z"/>
<path style="fill:#616161" d="M48 57 L50.75 62.75 C46.89 63.24 50.08 68.51 53 67 L56 69 C50.43 68.21 57.57 71.79 52 71 C53.09 67.65 49.83 68.22 48 67 L47 59 C46.98 58.34 46.82 56.85 48 57 z"/>
<path style="fill:#5b5c5c" d="M22 61 L22 62 L14 61 C12.41 60.94 13.19 58.95 13 58 L22 61 z"/>
<path style="fill:#737474" d="M22 58 C23.18 57.85 23.02 59.34 23 60 L25 64 L24 64 L22 62 L22 61 L21 58 L22 58 z"/>
<path style="fill:#818282" d="M44 58 L44 59 L44 66 L44 67 L43 67 L43 66 L43 64 L43 62 L43 59 L43 58 L44 58 z"/>
<path style="fill:#696a6a" d="M74 58 C73.81 58.95 74.59 60.94 73 61 C73.02 60.34 73.18 58.85 72 59 C71.85 57.82 73.34 57.98 74 58 z"/>
<path style="fill:#0a0b0b" d="M43 59 L43 62 C38.43 63.18 38.05 57.2 43 59 z"/>
<path style="fill:#0d0e0e" d="M47 59 L48 67 L44 66 L44 59 L47 59 z"/>
<path style="fill:#777777" d="M55 59 C53.48 63.86 53.42 68.76 59 65 C55.85 66.95 57.85 67.71 60 69 L58 70 C58.15 68.82 56.66 68.98 56 69 L53 67 L53 59 L55 59 z"/>
<path style="fill:#0b0b0b" d="M73 61 L73 62 L72 63 L63 64 L72 59 C73.18 58.85 73.02 60.34 73 61 z"/>
<path style="fill:#0c0c0c" d="M22 62 L24 64 L15 63 L14 62 L14 61 L22 62 z"/>
<path style="fill:#030404" d="M32 61 C37.03 61.17 30.85 66.95 32 61 z"/>
<path style="fill:#898989" d="M15 63 L14 62 L15 63 z"/>
<path style="fill:#939393" d="M73 62 L72 63 L73 62 z"/>
<path style="fill:#030404" d="M35 63 C41.33 62.15 35.22 69.35 35 63 z"/>
<path style="fill:#4c4d4d" d="M72 63 C72.33 64.34 71.29 65.74 70 66 C68.31 64.59 62.55 65.51 61.25 67.75 L69 68 L67 70 L60 69 C57.85 67.71 55.85 66.95 59 65 L63 64 L72 63 z"/>
<path style="fill:#0c0d0d" d="M43 64 L43 66 C39.06 69.2 37.58 61.92 43 64 z"/>
<path style="fill:#090909" d="M18 68 L17 67 L17 66 C18.63 65.43 24.38 65.53 26 68 L18 68 z"/>
<path style="fill:#060606" d="M70 66 L70 67 L69 68 L61.25 67.75 C62.55 65.51 68.31 64.59 70 66 z"/>
<path style="fill:#535454" d="M48 67 C47.22 69.24 49.23 70.33 50 72 L46 71 C48.2 68.84 44.7 68.39 44 67 L44 66 L48 67 z"/>
<path style="fill:#727272" d="M18 68 L17 67 L18 68 z"/>
<path style="fill:#131313" d="M35 69 C35.67 71.11 33.42 71.21 32 71 C33.24 68.64 30.71 69.8 28 68 C29.55 65.86 34.06 66.79 35 69 z"/>
<path style="fill:#313232" d="M39 68 L39 70 C36.98 69.55 37.07 70.84 38 72 C29.15 73.66 42.73 74.23 36.75 77.75 C35.97 79.2 35.06 78.63 34 78 L36.25 76.25 C37.13 72.96 27.81 78.3 33 73 L32 71 C33.42 71.21 35.67 71.11 35 69 C36.2 67.73 37.05 66.18 39 68 z"/>
<path style="fill:#0c0c0c" d="M44 67 C44.7 68.39 48.2 68.84 46 71 C43.69 71.49 42.48 68.92 43 67 L44 67 z"/>
<path style="fill:#0d0d0d" d="M52 71 L50 72 C49.23 70.33 47.22 69.24 48 67 C49.83 68.22 53.09 67.65 52 71 z"/>
<path style="fill:#808080" d="M70 67 L69 68 L70 67 z"/>
<path style="fill:#060606" d="M39 70 L39 68 C43.93 67.19 41.29 75.4 39 70 z"/>
<path style="fill:#131414" d="M56 69 C56.66 68.98 58.15 68.82 58 70 C53.03 72.89 62.11 72.45 63 74 L62 75 L61 75 C57.27 73.35 54.78 74.53 59 77 L58 77 C54.99 77.63 52.45 75.98 51 74 C53.84 73.21 56.57 73.47 52 71 C57.57 71.79 50.43 68.21 56 69 z"/>
<path style="fill:#101010" d="M60 69 L67 70 L65 72 C62.54 72.12 59.3 72.22 58 70 L60 69 z"/>
<path style="fill:#0f1010" d="M33 73 C27.81 78.3 37.13 72.96 36.25 76.25 L34 78 L31 78 L30 78 L29 77 C29.15 75.82 27.66 75.98 27 76 L26 76 L25 75 C25.67 72.89 23.42 72.79 22 73 L21 71 C22.7 69.33 27.81 69.29 29.75 71.25 C24.91 72.95 29.79 73.22 33 73 z"/>
<path style="fill:#4f5050" d="M58 70 C59.3 72.22 62.54 72.12 65 72 L63 74 C62.11 72.45 53.03 72.89 58 70 z"/>
<path style="fill:#0c0d0d" d="M50 72 L49 75 C46.69 75.49 45.48 72.92 46 71 L50 72 z"/>
<path style="fill:#717272" d="M52 71 C56.57 73.47 53.84 73.21 51 74 C51.15 75.18 49.66 75.02 49 75 L50 72 L52 71 z"/>
<path style="fill:#1a1a1a" d="M43 72 C47.17 72.07 44 77.48 43.75 79.75 C40.24 77.35 41.11 73.33 43 72 z"/>
<path style="fill:#929292" d="M25 75 L22 73 C23.42 72.79 25.67 72.89 25 75 z"/>
<path style="fill:#585858" d="M61 75 L59 77 C54.78 74.53 57.27 73.35 61 75 z"/>
<path style="fill:#717171" d="M63 74 L62 75 L63 74 z"/>
<path style="fill:#a2a2a2" d="M26 76 L25 75 L26 76 z"/>
<path style="fill:#7c7c7c" d="M29 77 C28.34 77.02 26.85 77.18 27 76 C27.66 75.98 29.15 75.82 29 77 z"/>
<path style="fill:#828282" d="M30 78 L29 77 L30 78 z"/>
<path style="fill:#373737" d="M54 79 C53.05 79.19 51.06 78.41 51 80 L49 80 C46.5 75.8 52.48 77.02 54 79 z"/>
<path style="fill:#a8a8a8" d="M54 79 C53.94 80.59 51.95 79.81 51 80 C51.06 78.41 53.05 79.19 54 79 z"/>
</svg>
