<?xml version="1.0" standalone="yes"?>
<svg width="87" height="97">
<path style="fill:#fcfdfd" d="M87 0 L87 97 L0 97 L0 0 L87 0 z"/>
<path style="fill:#d7d7d7" d="M49 15 L48 15 L40 15 C41.66 13.35 47.34 13.35 49 15 z"/>
<path style="fill:#090a0a" d="M40 15 L48 15 C47.85 16.18 49.34 16.02 50 16 L53 16 C52.85 17.18 54.34 17.02 55 17 L56 17 C55.85 18.18 57.34 18.02 58 18 L59 19 L63 21 L64 22 L66 24 L67 25 L68 26 L69 27 L70 28 L71 30 L72 31 L73 34 C72.98 34.66 72.82 36.15 74 36 C73.98 36.66 73.82 38.15 75 38 L75 39 L76 43 L76 52 L76 53 L75 57 C73.82 56.85 73.98 58.34 74 59 L74 60 C72.82 59.85 72.98 61.34 73 62 L72 63 L70 67 L69 68 L68 69 L67 70 L66 71 L65 72 L59 76 L58 77 L57 77 L56 78 L55 78 C54.34 77.98 52.85 77.82 53 79 L50 79 C49.34 78.98 47.85 78.82 48 80 L40 80 L36 79 L34 79 C34.15 77.82 32.66 77.98 32 78 L31 78 L30 77 L29 77 L28 76 L27 76 L26 75 L24 74 L23 73 L22 72 L21 71 L20 70 L19 69 L18 68 L17 67 L15 63 L14 62 L13 59 C13.02 58.34 13.18 56.85 12 57 L11 53 L11 52 L11 44 L12 40 L12 38 C13.18 38.15 13.02 36.66 13 36 C14.18 36.15 14.02 34.66 14 34 L15 31 L16 30 L17 28 L18 27 L19 26 L20 25 L21 24 L22 23 L23 22 L24 21 L26 20 L27 19 L28 19 L29 18 L30 18 C30.66 18.02 32.15 18.18 32 17 C32.66 17.02 34.15 17.18 34 16 L40 15 z"/>
<path style="fill:#5c5d5d" d="M49 15 L50 16 C49.34 16.02 47.85 16.18 48 15 L49 15 z"/>
<path style="fill:#8f8f8f" d="M34 16 C34.15 17.18 32.66 17.02 32 17 C31.85 15.82 33.34 15.98 34 16 z"/>
<path style="fill:#8f9090" d="M55 17 C54.34 17.02 52.85 17.18 53 16 C53.66 15.98 55.15 15.82 55 17 z"/>
<path style="fill:#5c5d5d" d="M32 17 C32.15 18.18 30.66 18.02 30 18 C29.85 16.82 31.34 16.98 32 17 z"/>
<path style="fill:#a8a8a8" d="M58 18 C57.34 18.02 55.85 18.18 56 17 C56.66 16.98 58.15 16.82 58 18 z"/>
<path style="fill:#838383" d="M29 18 L28 19 L29 18 z"/>
<path style="fill:#7f7f7f" d="M59 19 L58 18 L59 19 z"/>
<path style="fill:#949494" d="M27 19 L26 20 L27 19 z"/>
<path style="fill:#4f4f4f" d="M48 21 L40 21 C41.34 19.35 46.66 19.35 48 21 z"/>
<path style="fill:#9c9c9c" d="M24 21 L23 22 L24 21 z"/>
<path style="fill:#f9f9f9" d="M40 21 L48 21 L49 21 C48.85 22.18 50.34 22.02 51 22 L52 22 C51.85 23.18 53.34 23.02 54 23 L55 23 L56 24 L57 24 L58 25 L60 26 L61 27 L62 28 L63 29 L64 30 L66 33 L67 34 L67 35 L68 36 L68 37 C67.98 37.66 67.82 39.15 69 39 L69 40 C68.98 40.66 68.82 42.15 70 42 L70 51 L70 54 C68.82 53.85 68.98 55.34 69 56 L68 59 C66.82 58.85 66.98 60.34 67 61 L66 62 L65 64 L64 65 L63 66 L62 67 L61 68 L60 69 L58 70 L57 71 C56.34 70.98 54.85 70.82 55 72 L48 74 L38 74 L35 73 C35.15 71.82 33.66 71.98 33 72 L32 72 L31 71 L30 71 L29 70 L27 69 L26 68 L25 67 L24 66 L23 65 L22 64 L20 61 C20.02 60.34 20.18 58.85 19 59 L19 58 C19.02 57.34 19.18 55.85 18 56 L17 53 L17 43 L18 39 C19.18 39.15 19.02 37.66 19 37 C20.18 37.15 20.02 35.66 20 35 L20 34 L21 33 L22 31 L23 30 L24 29 L25 28 L26 27 L27 26 L29 25 L30 24 L31 24 L32 23 L33 23 C33.66 23.02 35.15 23.18 35 22 L40 21 z"/>
<path style="fill:#868686" d="M51 22 C50.34 22.02 48.85 22.18 49 21 C49.66 20.98 51.15 20.82 51 22 z"/>
<path style="fill:#8f8f8f" d="M64 22 L63 21 L64 22 z"/>
<path style="fill:#858585" d="M23 22 L22 23 L23 22 z"/>
<path style="fill:#979797" d="M35 22 C35.15 23.18 33.66 23.02 33 23 C32.85 21.82 34.34 21.98 35 22 z"/>
<path style="fill:#959595" d="M54 23 C53.34 23.02 51.85 23.18 52 22 C52.66 21.98 54.15 21.82 54 23 z"/>
<path style="fill:#9f9f9f" d="M66 24 L64 22 C65.35 21.54 66.46 22.65 66 24 z"/>
<path style="fill:#6b6b6b" d="M22 23 L21 24 L22 23 z"/>
<path style="fill:#828282" d="M32 23 L31 24 L32 23 z"/>
<path style="fill:#868686" d="M56 24 L55 23 L56 24 z"/>
<path style="fill:#686868" d="M21 24 L20 25 L21 24 z"/>
<path style="fill:#7c7c7c" d="M30 24 L29 25 L30 24 z"/>
<path style="fill:#787878" d="M58 25 L57 24 L58 25 z"/>
<path style="fill:#6c6c6c" d="M67 25 L66 24 L67 25 z"/>
<path style="fill:#6d6d6d" d="M20 25 L19 26 L20 25 z"/>
<path style="fill:#5c5d5d" d="M43 26 L40 26 C39.96 24.52 43.04 24.52 43 26 z"/>
<path style="fill:#656565" d="M68 26 L67 25 L68 26 z"/>
<path style="fill:#808080" d="M19 26 L18 27 L19 26 z"/>
<path style="fill:#626262" d="M27 26 L26 27 L27 26 z"/>
<path style="fill:#070808" d="M40 26 L43 26 L44 27 L45 27 L46 28 C46.01 30.49 45 38.7 49 35 L51 35 L53 36 C54.59 36.06 53.81 38.05 54 39 C53.34 38.98 51.85 38.82 52 40 C51.05 40.19 49.06 39.41 49 41 L48 41 C47.34 40.98 45.85 40.82 46 42 C44.34 44.31 44.34 50.69 46 53 L55 53 L62 54 C63.18 53.85 63.02 55.34 63 56 L64 57 L64 58 L64 61 L61 61 C60.94 59.41 58.95 60.19 58 60 L52 60 C48.03 58.34 39.97 58.34 36 60 L34 60 C33.05 60.19 31.06 59.41 31 61 L28 61 L25 61 C25.02 60.34 25.18 58.85 24 59 L29 54 L32 54 L39 53 C40.67 46.37 40.67 35.63 39 29 C39.19 28.05 38.41 26.06 40 26 z"/>
<path style="fill:#686868" d="M44 27 L43 26 L44 27 z"/>
<path style="fill:#626262" d="M61 27 L60 26 L61 27 z"/>
<path style="fill:#888888" d="M69 27 L68 26 L69 27 z"/>
<path style="fill:#949494" d="M18 27 L17 28 L18 27 z"/>
<path style="fill:#7f7f7f" d="M26 27 L25 28 L26 27 z"/>
<path style="fill:#969696" d="M46 28 L45 27 L46 28 z"/>
<path style="fill:#787878" d="M62 28 L61 27 L62 28 z"/>
<path style="fill:#969696" d="M70 28 L69 27 L70 28 z"/>
<path style="fill:#848484" d="M25 28 L24 29 L25 28 z"/>
<path style="fill:#abacac" d="M49 35 C45 38.7 46.01 30.49 46 28 C48.89 29.01 44.7 35.52 49 35 z"/>
<path style="fill:#828282" d="M63 29 L62 28 L63 29 z"/>
<path style="fill:#787878" d="M24 29 L23 30 L24 29 z"/>
<path style="fill:#636464" d="M39 53 L39 29 C40.67 35.63 40.67 46.37 39 53 z"/>
<path style="fill:#747474" d="M64 30 L63 29 L64 30 z"/>
<path style="fill:#939393" d="M16 30 L15 31 L16 30 z"/>
<path style="fill:#5f5f5f" d="M23 30 L22 31 L23 30 z"/>
<path style="fill:#949494" d="M72 31 L71 30 L72 31 z"/>
<path style="fill:#7b7b7b" d="M21 33 L20 34 L21 33 z"/>
<path style="fill:#7a7a7a" d="M67 34 L66 33 L67 34 z"/>
<path style="fill:#626363" d="M14 34 C14.02 34.66 14.18 36.15 13 36 C12.98 35.34 12.82 33.85 14 34 z"/>
<path style="fill:#9a9a9a" d="M53 36 L51 35 C51.19 32.98 53.9 34.44 53 36 z"/>
<path style="fill:#666666" d="M74 36 C72.82 36.15 72.98 34.66 73 34 C74.18 33.85 74.02 35.34 74 36 z"/>
<path style="fill:#a6a7a7" d="M20 35 C20.02 35.66 20.18 37.15 19 37 C18.98 36.34 18.82 34.85 20 35 z"/>
<path style="fill:#828282" d="M68 36 L67 35 L68 36 z"/>
<path style="fill:#8d8e8e" d="M13 36 C13.02 36.66 13.18 38.15 12 38 C11.98 37.34 11.82 35.85 13 36 z"/>
<path style="fill:#8d8d8d" d="M75 38 C73.82 38.15 73.98 36.66 74 36 C75.18 35.85 75.02 37.34 75 38 z"/>
<path style="fill:#919191" d="M19 37 C19.02 37.66 19.18 39.15 18 39 C17.98 38.34 17.82 36.85 19 37 z"/>
<path style="fill:#8c8d8d" d="M69 39 C67.82 39.15 67.98 37.66 68 37 C69.18 36.85 69.02 38.34 69 39 z"/>
<path style="fill:#888888" d="M18 39 L17 43 L17 42 C17.19 41.05 16.41 39.06 18 39 z"/>
<path style="fill:#939393" d="M54 39 C54.15 40.18 52.66 40.02 52 40 C51.85 38.82 53.34 38.98 54 39 z"/>
<path style="fill:#848585" d="M76 43 L75 39 L76 43 z"/>
<path style="fill:#616161" d="M12 40 L11 44 L11 42 C10.98 41.34 10.82 39.85 12 40 z"/>
<path style="fill:#787878" d="M52 40 C51.94 41.59 49.95 40.81 49 41 C49.06 39.41 51.05 40.19 52 40 z"/>
<path style="fill:#8c8d8d" d="M70 42 C68.82 42.15 68.98 40.66 69 40 C70.18 39.85 70.02 41.34 70 42 z"/>
<path style="fill:#8b8b8b" d="M48 41 C48.15 42.18 46.66 42.02 46 42 C45.85 40.82 47.34 40.98 48 41 z"/>
<path style="fill:#d6d6d6" d="M11 42 L11 44 L11 52 C9.345 50.01 9.345 43.99 11 42 z"/>
<path style="fill:#434444" d="M17 42 L17 43 L17 53 C15.34 50.69 15.34 44.31 17 42 z"/>
<path style="fill:#636363" d="M46 42 L46 52 L46 53 C44.34 50.69 44.34 44.31 46 42 z"/>
<path style="fill:#494a4a" d="M70 51 L70 42 C71.65 43.66 71.65 49.34 70 51 z"/>
<path style="fill:#d8d8d8" d="M76 52 L76 43 C77.65 44.66 77.65 50.34 76 52 z"/>
<path style="fill:#c6c6c6" d="M55 53 L46 53 L46 52 L55 53 z"/>
<path style="fill:#aeafaf" d="M12 57 L11 53 L12 57 z"/>
<path style="fill:#777878" d="M39 53 L32 54 L39 53 z"/>
<path style="fill:#565757" d="M62 54 L55 53 L62 54 z"/>
<path style="fill:#abacac" d="M76 53 L75 57 L76 53 z"/>
<path style="fill:#7e7e7e" d="M29 54 L24 59 C20.43 55.58 25.12 52.51 29 54 z"/>
<path style="fill:#5a5a5a" d="M70 54 C70.02 54.66 70.18 56.15 69 56 C68.98 55.34 68.82 53.85 70 54 z"/>
<path style="fill:#909191" d="M19 58 C17.82 58.15 17.98 56.66 18 56 C19.18 55.85 19.02 57.34 19 58 z"/>
<path style="fill:#6b6b6b" d="M64 57 L63 56 L64 57 z"/>
<path style="fill:#919292" d="M13 59 C11.82 59.15 11.98 57.66 12 57 C13.18 56.85 13.02 58.34 13 59 z"/>
<path style="fill:#949595" d="M75 57 C75.02 57.66 75.18 59.15 74 59 C73.98 58.34 73.82 56.85 75 57 z"/>
<path style="fill:#727272" d="M64 61 L64 58 C65.48 57.96 65.48 61.04 64 61 z"/>
<path style="fill:#5a5a5a" d="M20 61 C18.82 61.15 18.98 59.66 19 59 C20.18 58.85 20.02 60.34 20 61 z"/>
<path style="fill:#5e5f5f" d="M25 61 C23.82 61.15 23.98 59.66 24 59 C25.18 58.85 25.02 60.34 25 61 z"/>
<path style="fill:#969797" d="M52 60 L36 60 C39.97 58.34 48.03 58.34 52 60 z"/>
<path style="fill:#5a5a5a" d="M68 59 C68.02 59.66 68.18 61.15 67 61 C66.98 60.34 66.82 58.85 68 59 z"/>
<path style="fill:#aeaeae" d="M34 60 C33.94 61.59 31.95 60.81 31 61 C31.06 59.41 33.05 60.19 34 60 z"/>
<path style="fill:#656565" d="M61 61 C60.05 60.81 58.06 61.59 58 60 C58.95 60.19 60.94 59.41 61 61 z"/>
<path style="fill:#acacac" d="M74 60 C74.02 60.66 74.18 62.15 73 62 C72.98 61.34 72.82 59.85 74 60 z"/>
<path style="fill:#7a7a7a" d="M28 61 C28.04 62.48 24.96 62.48 25 61 L28 61 z"/>
<path style="fill:#777777" d="M67 61 L66 62 L67 61 z"/>
<path style="fill:#7f7f7f" d="M15 63 L14 62 L15 63 z"/>
<path style="fill:#868686" d="M73 62 L72 63 L73 62 z"/>
<path style="fill:#5f5f5f" d="M23 65 L22 64 L23 65 z"/>
<path style="fill:#5d5d5d" d="M65 64 L64 65 L65 64 z"/>
<path style="fill:#777777" d="M24 66 L23 65 L24 66 z"/>
<path style="fill:#828282" d="M64 65 L63 66 L64 65 z"/>
<path style="fill:#848484" d="M25 67 L24 66 L25 67 z"/>
<path style="fill:#898989" d="M63 66 L62 67 L63 66 z"/>
<path style="fill:#939393" d="M18 68 L17 67 L18 68 z"/>
<path style="fill:#7e7e7e" d="M26 68 L25 67 L26 68 z"/>
<path style="fill:#797979" d="M62 67 L61 68 L62 67 z"/>
<path style="fill:#949494" d="M70 67 L69 68 L70 67 z"/>
<path style="fill:#7f7f7f" d="M19 69 L18 68 L19 69 z"/>
<path style="fill:#626262" d="M27 69 L26 68 L27 69 z"/>
<path style="fill:#656565" d="M61 68 L60 69 L61 68 z"/>
<path style="fill:#868686" d="M69 68 L68 69 L69 68 z"/>
<path style="fill:#717171" d="M20 70 L19 69 L20 70 z"/>
<path style="fill:#6c6c6c" d="M68 69 L67 70 L68 69 z"/>
<path style="fill:#626262" d="M21 71 L20 70 L21 71 z"/>
<path style="fill:#7e7e7e" d="M30 71 L29 70 L30 71 z"/>
<path style="fill:#7e7e7e" d="M58 70 L57 71 L58 70 z"/>
<path style="fill:#666666" d="M67 70 L66 71 L67 70 z"/>
<path style="fill:#606060" d="M22 72 L21 71 L22 72 z"/>
<path style="fill:#7e7e7e" d="M32 72 L31 71 L32 72 z"/>
<path style="fill:#616262" d="M57 71 C57.15 72.18 55.66 72.02 55 72 C54.85 70.82 56.34 70.98 57 71 z"/>
<path style="fill:#646464" d="M66 71 L65 72 L66 71 z"/>
<path style="fill:#888888" d="M23 73 L22 72 L23 73 z"/>
<path style="fill:#909090" d="M35 73 C34.34 73.02 32.85 73.18 33 72 C33.66 71.98 35.15 71.82 35 73 z"/>
<path style="fill:#a3a3a3" d="M24 74 L23 73 L24 74 z"/>
<path style="fill:#444545" d="M48 74 C46.01 75.66 39.99 75.66 38 74 L48 74 z"/>
<path style="fill:#969696" d="M27 76 L26 75 L27 76 z"/>
<path style="fill:#888888" d="M29 77 L28 76 L29 77 z"/>
<path style="fill:#7a7a7a" d="M59 76 L58 77 L59 76 z"/>
<path style="fill:#8c8c8c" d="M31 78 L30 77 L31 78 z"/>
<path style="fill:#7f7f7f" d="M57 77 L56 78 L57 77 z"/>
<path style="fill:#939494" d="M34 79 C33.34 79.02 31.85 79.18 32 78 C32.66 77.98 34.15 77.82 34 79 z"/>
<path style="fill:#8d8d8d" d="M55 78 C55.15 79.18 53.66 79.02 53 79 C52.85 77.82 54.34 77.98 55 78 z"/>
<path style="fill:#606161" d="M40 80 L36 79 L40 80 z"/>
<path style="fill:#5d5d5d" d="M50 79 C50.15 80.18 48.66 80.02 48 80 C47.85 78.82 49.34 78.98 50 79 z"/>
</svg>
