<?xml version="1.0" standalone="yes"?>
<svg width="87" height="97">
<path style="fill:#fbfcfc" d="M87 0 L87 97 L0 97 L0 0 L87 0 z"/>
<path style="fill:#aaabab" d="M40 12 L36 12 C36.19 10.45 39.81 10.45 40 12 z"/>
<path style="fill:#a9a9a9" d="M35 12 L34 13 L35 12 z"/>
<path style="fill:#111212" d="M36 12 L40 12 L42 14 L42 18 L41 18 C38.56 19.47 35.14 13.24 35 18 C31.69 22.24 31.84 19.35 32 15 L33 14 L34 13 L35 12 L36 12 z"/>
<path style="fill:#111111" d="M53 13 L54 14 L55 15 L55 16 C55.27 20.62 54.91 21.33 52 18 C51.71 13.22 47.82 20.01 45 18 L45 14 C46.08 10.85 50.81 11.67 53 13 z"/>
<path style="fill:#8c8c8c" d="M54 14 L53 13 L54 14 z"/>
<path style="fill:#808181" d="M30 15 L28 15 C27.78 13.67 30.22 13.67 30 15 z"/>
<path style="fill:#686868" d="M33 14 L32 15 L33 14 z"/>
<path style="fill:#737373" d="M42 18 L42 14 C43.55 14.19 43.55 17.81 42 18 z"/>
<path style="fill:#919191" d="M45 14 L45 18 C43.45 17.81 43.45 14.19 45 14 z"/>
<path style="fill:#7b7b7b" d="M55 15 L54 14 L55 15 z"/>
<path style="fill:#a3a3a3" d="M59 15 L57 15 C56.78 13.67 59.22 13.67 59 15 z"/>
<path style="fill:#6c6c6c" d="M28 15 L27 16 L28 15 z"/>
<path style="fill:#0e0e0e" d="M30 15 C30.31 19.47 32.55 25.16 30 28 L25 18 L27 16 L28 15 L30 15 z"/>
<path style="fill:#848484" d="M32 15 C31.84 19.35 31.69 22.24 35 18 C33.59 21.65 31.08 27.97 37 24 L38 24 C35.52 25.9 34.13 29.29 30 28 C32.55 25.16 30.31 19.47 30 15 L32 15 z"/>
<path style="fill:#0f0f0f" d="M59 15 L60 16 L61 17 L62 18 C60.6 21.39 61.45 30.5 56 28 C54.2 26.29 56 24.92 56 23 L57 16 L57 15 L59 15 z"/>
<path style="fill:#9d9d9d" d="M60 16 L59 15 L60 16 z"/>
<path style="fill:#8a8a8a" d="M41 18 C38.28 18.68 38.28 21 37 23 C36.7 21.27 38.1 17.36 35 18 C35.14 13.24 38.56 19.47 41 18 z"/>
<path style="fill:#888989" d="M52 18 C48.9 17.36 50.3 21.27 50 23 C49.15 20.16 47.84 18.85 45 18 C47.82 20.01 51.71 13.22 52 18 z"/>
<path style="fill:#777777" d="M57 16 L56 23 L54 23 L52 18 C54.91 21.33 55.27 20.62 55 16 L57 16 z"/>
<path style="fill:#7e7e7e" d="M61 17 L60 16 L61 17 z"/>
<path style="fill:#848484" d="M62 18 L61 17 L62 18 z"/>
<path style="fill:#6f6f6f" d="M23 19 L22 19 C21.57 17.94 23.43 17.94 23 19 z"/>
<path style="fill:#707171" d="M25 18 L30 28 L29 29 L28 30 L23 19 L25 18 z"/>
<path style="fill:#0d0e0e" d="M37 23 L37 24 C31.08 27.97 33.59 21.65 35 18 C38.1 17.36 36.7 21.27 37 23 z"/>
<path style="fill:#111212" d="M52 18 L54 23 C54.91 28.12 52.42 26.14 50 24 L50 23 C50.3 21.27 48.9 17.36 52 18 z"/>
<path style="fill:#747474" d="M64 19 C61.99 24.4 52.92 40.07 64 33 C64.91 36.16 61.48 37.83 59 38 L58.75 36.25 C51.95 35.41 58.84 31.42 56 28 C61.45 30.5 60.6 21.39 62 18 L64 19 z"/>
<path style="fill:#5e5e5e" d="M22 19 L21 20 L22 19 z"/>
<path style="fill:#0a0a0a" d="M23 19 L28 30 C31.61 35.62 22.95 35.77 22 31 L19 23 L19 22 L20 21 L21 20 L22 19 L23 19 z"/>
<path style="fill:#0b0c0c" d="M67 22 C66.98 22.66 66.82 24.15 68 24 L64 33 C52.92 40.07 61.99 24.4 64 19 C66.12 18.37 66.14 20.82 67 22 z"/>
<path style="fill:#777777" d="M21 20 L20 21 L21 20 z"/>
<path style="fill:#a2a2a2" d="M20 21 L19 22 L20 21 z"/>
<path style="fill:#5e5f5f" d="M68 24 C66.82 24.15 66.98 22.66 67 22 C68.18 21.85 68.02 23.34 68 24 z"/>
<path style="fill:#6c6d6d" d="M19 23 L22 31 L17 26 L19 23 z"/>
<path style="fill:#7c7c7c" d="M41 28 C40.94 26.45 41.68 23.29 39 24 C41.27 20.18 43.79 27.03 41 28 z"/>
<path style="fill:#9f9f9f" d="M48 24 L46 24 L45 24 C44.96 22.52 48.04 22.52 48 24 z"/>
<path style="fill:#929393" d="M56 23 C56 24.92 54.2 26.29 56 28 C52.88 28.84 50.31 26.54 49 24 L50 24 C52.42 26.14 54.91 28.12 54 23 L56 23 z"/>
<path style="fill:#090a0a" d="M39 24 C41.68 23.29 40.94 26.45 41 28 L41 29 L31 33 L29 30 L29 29 L30 28 C34.13 29.29 35.52 25.9 38 24 L39 24 z"/>
<path style="fill:#4f5050" d="M46 24 L46 28 L45 24 L46 24 z"/>
<path style="fill:#0a0b0b" d="M48 24 L49 24 C50.31 26.54 52.88 28.84 56 28 C58.84 31.42 51.95 35.41 58.75 36.25 L59 38 C55.95 41.73 50.73 41.89 47 39 C45.17 37.26 44.83 33.8 45 31 L46 31 L52.75 33.75 C51.65 31.57 48.32 30.54 46 30 L46 28 L46 24 L48 24 z"/>
<path style="fill:#717272" d="M70 26 C68.23 28.42 66.94 31.62 64 33 L68 24 L70 26 z"/>
<path style="fill:#8b8c8c" d="M15 25 C15.02 25.66 15.18 27.15 14 27 C13.98 26.34 13.82 24.85 15 25 z"/>
<path style="fill:#080808" d="M17 26 L22 31 C20.28 36.73 31.18 37.65 28 43 L26 43 L13 35 L13 30 C14.18 30.15 14.02 28.66 14 28 L14 27 C15.18 27.15 15.02 25.66 15 25 C15.66 24.98 17.15 24.82 17 26 z"/>
<path style="fill:#070707" d="M72 27 C71.98 27.66 71.82 29.15 73 29 C72.98 29.66 72.82 31.15 74 31 L74 35 L62 43 L58 43 L57 42 L59 38 C61.48 37.83 64.91 36.16 64 33 C66.94 31.62 68.23 28.42 70 26 C70.66 25.98 72.15 25.82 72 27 z"/>
<path style="fill:#5b5c5c" d="M73 29 C71.82 29.15 71.98 27.66 72 27 C73.18 26.85 73.02 28.34 73 29 z"/>
<path style="fill:#7e7e7e" d="M14 28 C14.02 28.66 14.18 30.15 13 30 C12.98 29.34 12.82 27.85 14 28 z"/>
<path style="fill:#dbdbdb" d="M29 29 L29 30 L28 30 L29 29 z"/>
<path style="fill:#696969" d="M41 29 L41 31 L31 34 L31 33 L41 29 z"/>
<path style="fill:#8a8a8a" d="M74 31 C72.82 31.15 72.98 29.66 73 29 C74.18 28.85 74.02 30.34 74 31 z"/>
<path style="fill:#8b8b8b" d="M13 30 L13 35 L13 36 L9 37 L9.25 35.25 L13 30 z"/>
<path style="fill:#666767" d="M29 30 L31 33 C29.94 32.57 29.94 34.43 31 34 C23.42 39.15 35.37 43.6 40 39 C41.65 39.68 45.02 42 42 44 C41.53 36.8 33.63 45.17 29.25 43.25 C35.08 47.13 31.88 53.88 40 51 L40 53 L29 55 L29 54 C33.62 52.7 26.13 47.63 24 48 C21.09 45.69 18.04 47.73 16 50 C15.96 45.9 20.4 44.48 23.75 43.75 L13 36 L13 35 L26 43 C22.94 44.65 28.03 45.95 28 43 C31.18 37.65 20.28 36.73 22 31 C22.95 35.77 31.61 35.62 28 30 L29 30 z"/>
<path style="fill:#6e6f6f" d="M46 31 L46 30 C48.32 30.54 51.65 31.57 52.75 33.75 L46 31 z"/>
<path style="fill:#0a0b0b" d="M41 31 L42 36 C40.82 35.85 40.98 37.34 41 38 L40 39 C35.37 43.6 23.42 39.15 31 34 L41 31 z"/>
<path style="fill:#b0b0b0" d="M45 31 C44.83 33.8 45.17 37.26 47 39 C46.94 40.59 44.95 39.81 44 40 L45 31 z"/>
<path style="fill:#c9c9c9" d="M77 36 C76.05 35.81 74.06 36.59 74 35 L74 31 L77 36 z"/>
<path style="fill:#d1d1d1" d="M31 33 L31 34 C29.94 34.43 29.94 32.57 31 33 z"/>
<path style="fill:#626262" d="M74 35 C74.06 36.59 76.05 35.81 77 36 L77 37 L62 43 L74 35 z"/>
<path style="fill:#080909" d="M13 36 L23.75 43.75 C20.4 44.48 15.96 45.9 16 50 L11 50 C9.819 50.15 9.981 48.66 10 48 C9.81 47.05 10.59 45.06 9 45 L9 37 L13 36 z"/>
<path style="fill:#ababab" d="M42 36 C42.02 36.66 42.18 38.15 41 38 C40.98 37.34 40.82 35.85 42 36 z"/>
<path style="fill:#070808" d="M77 37 L77 38 L77 48 C76.01 50.44 74.39 51.81 71 51 C68.85 48.01 66.2 44.56 63 45 L62 45 L62 43 L77 37 z"/>
<path style="fill:#696969" d="M41 38 L40 39 L41 38 z"/>
<path style="fill:#6d6e6e" d="M59 38 L57 42 L57 43 C51.7 44.07 42.78 36.78 45 47 L44 40 C44.95 39.81 46.94 40.59 47 39 C50.73 41.89 55.95 41.73 59 38 z"/>
<path style="fill:#878888" d="M77 48 L77 38 C78.66 39.99 78.66 46.01 77 48 z"/>
<path style="fill:#0a0a0a" d="M42 44 L41 48 L40 51 C31.88 53.88 35.08 47.13 29.25 43.25 C33.63 45.17 41.53 36.8 42 44 z"/>
<path style="fill:#0b0b0b" d="M57 43 L57 47 C55.84 46.07 54.55 45.98 55 48 C53.12 46.25 53.4 48.37 52 49 C50.71 49.26 49.67 50.66 50 52 L46 51 L46 49 C46.02 48.34 46.18 46.85 45 47 C42.78 36.78 51.7 44.07 57 43 z"/>
<path style="fill:#575757" d="M58 43 L59 44 L59 45 C58.96 46.48 62.04 46.48 62 45 L63 45 L60 49 C58.58 49.21 56.33 49.11 57 47 L57 43 L57 42 L58 43 z"/>
<path style="fill:#cecfcf" d="M26 43 L28 43 C28.03 45.95 22.94 44.65 26 43 z"/>
<path style="fill:#818181" d="M62 43 L62 45 C62.04 46.48 58.96 46.48 59 45 C61.16 45.65 61.16 43.35 59 44 L58 43 L62 43 z"/>
<path style="fill:#818282" d="M42 44 L41 48 L42 44 z"/>
<path style="fill:#f9f9f9" d="M59 45 L59 44 C61.16 43.35 61.16 45.65 59 45 z"/>
<path style="fill:#787878" d="M71 51 L60 49 L63 45 C66.2 44.56 68.85 48.01 71 51 z"/>
<path style="fill:#525252" d="M10 48 C8.408 47.94 9.19 45.95 9 45 C10.59 45.06 9.81 47.05 10 48 z"/>
<path style="fill:#7a7a7a" d="M57 47 C56.33 49.11 58.58 49.21 60 49 L57 54 L57 55 L46 53 L46 51 L50 52 C51.24 54.19 53.08 50.43 52 49 C53.4 48.37 53.12 46.25 55 48 C54.86 49.88 56.88 47.86 55 48 C54.55 45.98 55.84 46.07 57 47 z"/>
<path style="fill:#7f7f7f" d="M24 48 L16 52 L11 51 L11 50 L16 50 C18.04 47.73 21.09 45.69 24 48 z"/>
<path style="fill:#5e5e5e" d="M46 49 C44.82 49.15 44.98 47.66 45 47 C46.18 46.85 46.02 48.34 46 49 z"/>
<path style="fill:#e7e7e7" d="M24 48 C26.13 47.63 33.62 52.7 29 54 L26 53 C24.65 52.54 23.54 53.65 24 55 L19 54 L18 53 L16 52 L24 48 z"/>
<path style="fill:#1e1e1e" d="M55 48 C56.88 47.86 54.86 49.88 55 48 z"/>
<path style="fill:#848484" d="M77 48 L77 52 L70 53 L71 51 C74.39 51.81 76.01 50.44 77 48 z"/>
<path style="fill:#3e3f3f" d="M52 49 C53.08 50.43 51.24 54.19 50 52 C49.67 50.66 50.71 49.26 52 49 z"/>
<path style="fill:#f2f2f2" d="M71 51 L70 53 L69 53 L68 54 L64 55 L63 55 L62 54 C62.22 52.67 59.78 52.67 60 54 L57 54 L60 49 L71 51 z"/>
<path style="fill:#090a0a" d="M11 51 L16 52 L18 53 L19 54 L24 55 L30 70 C29.57 73.35 35.97 85.41 37 78 L38 78 L41 78 L41 83 L41 84 L40 84 L35 84 C35.15 82.82 33.66 82.98 33 83 L32 82 L31 81 L30 80 L29 79 L28 78 L26 75 L25 74 L24 73 L23 71 L22 70 L21 69 L20 68 L20 67 L19 66 L18 65 L17 63 L16 62 L14 60 L14 59 L13 58 L12 57 L11 56 L10 55 C8.262 53.28 6.954 50.09 11 51 z"/>
<path style="fill:#080909" d="M77 52 L78 52 L78 54 L77 55 L76 56 L75 57 L74 58 L73 59 L72 60 L71 62 L70 63 L69 64 L66 68 L65 69 L63 72 L62 73 L61 74 L58 78 L57 79 L56 80 L55 81 L54 82 L53 83 L52 84 L50 84 L45 84 L44 83 L44 78 L48 78 C51.73 85.55 56.16 71.71 57 68 C58.99 65.53 59.42 61.36 60 58 L63 55 L64 55 L68 54 L69 53 L70 53 L77 52 z"/>
<path style="fill:#a0a0a0" d="M78 54 L78 52 C79.33 51.78 79.33 54.22 78 54 z"/>
<path style="fill:#818181" d="M19 54 L18 53 L19 54 z"/>
<path style="fill:#2d2d2d" d="M26 53 C26.46 54.35 25.35 55.46 24 55 C23.54 53.65 24.65 52.54 26 53 z"/>
<path style="fill:#838484" d="M29 54 L29 55 C23.51 56.72 30.77 65.43 31 70 L30 70 L24 55 C25.35 55.46 26.46 54.35 26 53 L29 54 z"/>
<path style="fill:#0b0c0c" d="M40 53 L39 57 L38 58 L36 65 C34.35 66.34 34.35 71.66 36 73 L36 78 C32.9 77.54 31.98 72.68 31 70 C30.77 65.43 23.51 56.72 29 55 L40 53 z"/>
<path style="fill:#0a0b0b" d="M46 53 L57 55 C58.69 54.59 60.41 56.31 60 58 L56 67 C55.94 69.77 50.81 81.79 50 75 L50 73 C51.65 71.66 51.65 66.34 50 65 L50 63 C50.02 62.34 50.18 60.85 49 61 L48 58 L47 57 L46 53 z"/>
<path style="fill:#8d8e8e" d="M62 54 L60 54 C59.78 52.67 62.22 52.67 62 54 z"/>
<path style="fill:#878787" d="M69 53 L68 54 L69 53 z"/>
<path style="fill:#a3a3a3" d="M60 54 C59.78 55.33 62.22 55.33 62 54 L63 55 L60 58 C60.41 56.31 58.69 54.59 57 55 L57 54 L60 54 z"/>
<path style="fill:#020202" d="M62 54 C62.22 55.33 59.78 55.33 60 54 L62 54 z"/>
<path style="fill:#828383" d="M68 54 L64 55 L68 54 z"/>
<path style="fill:#9c9c9c" d="M78 54 L77 55 L78 54 z"/>
<path style="fill:#a3a3a3" d="M11 56 L10 55 L11 56 z"/>
<path style="fill:#9c9c9c" d="M77 55 L76 56 L77 55 z"/>
<path style="fill:#a0a0a0" d="M12 57 L11 56 L12 57 z"/>
<path style="fill:#a8a8a8" d="M76 56 L75 57 L76 56 z"/>
<path style="fill:#8b8b8b" d="M13 58 L12 57 L13 58 z"/>
<path style="fill:#808080" d="M39 57 L38 58 L39 57 z"/>
<path style="fill:#8d8d8d" d="M48 58 L47 57 L48 58 z"/>
<path style="fill:#9e9e9e" d="M75 57 L74 58 L75 57 z"/>
<path style="fill:#646464" d="M14 59 L13 58 L14 59 z"/>
<path style="fill:#717272" d="M60 58 C59.42 61.36 58.99 65.53 57 68 L56 67 L60 58 z"/>
<path style="fill:#888888" d="M74 58 L73 59 L74 58 z"/>
<path style="fill:#737373" d="M73 59 L72 60 L73 59 z"/>
<path style="fill:#b0b0b0" d="M16 62 C14.65 62.46 13.54 61.35 14 60 L16 62 z"/>
<path style="fill:#989898" d="M50 63 C48.82 63.15 48.98 61.66 49 61 C50.18 60.85 50.02 62.34 50 63 z"/>
<path style="fill:#5f5f5f" d="M17 63 L16 62 L17 63 z"/>
<path style="fill:#959595" d="M71 62 L70 63 L71 62 z"/>
<path style="fill:#717171" d="M70 63 L69 64 L70 63 z"/>
<path style="fill:#989898" d="M19 66 L18 65 L19 66 z"/>
<path style="fill:#9b9c9c" d="M36 65 L36 73 C34.35 71.66 34.35 66.34 36 65 z"/>
<path style="fill:#828383" d="M50 73 L50 65 C51.65 66.34 51.65 71.66 50 73 z"/>
<path style="fill:#6c6c6c" d="M20 67 L19 66 L20 67 z"/>
<path style="fill:#9a9a9a" d="M57 68 C56.16 71.71 51.73 85.55 48 78 L50 75 C50.81 81.79 55.94 69.77 56 67 L57 68 z"/>
<path style="fill:#a4a4a4" d="M21 69 L20 68 L21 69 z"/>
<path style="fill:#838383" d="M66 68 L65 69 L66 68 z"/>
<path style="fill:#8b8b8b" d="M22 70 L21 69 L22 70 z"/>
<path style="fill:#5e5e5e" d="M23 71 L22 70 L23 71 z"/>
<path style="fill:#a3a3a3" d="M31 70 C31.98 72.68 32.9 77.54 36 78 L37 78 C35.97 85.41 29.57 73.35 30 70 L31 70 z"/>
<path style="fill:#797979" d="M63 72 L62 73 L63 72 z"/>
<path style="fill:#9a9a9a" d="M25 74 L24 73 L25 74 z"/>
<path style="fill:#6c6c6c" d="M62 73 L61 74 L62 73 z"/>
<path style="fill:#5f5f5f" d="M26 75 L25 74 L26 75 z"/>
<path style="fill:#777777" d="M41 78 L38 78 C37.96 76.52 41.04 76.52 41 78 z"/>
<path style="fill:#797a7a" d="M48 78 L44 78 C44.19 76.45 47.81 76.45 48 78 z"/>
<path style="fill:#888888" d="M29 79 L28 78 L29 79 z"/>
<path style="fill:#4b4c4c" d="M42 83 L41 83 L41 78 L42 83 z"/>
<path style="fill:#909191" d="M44 78 L44 83 C42.4 82.55 42.4 78.45 44 78 z"/>
<path style="fill:#909090" d="M58 78 L57 79 L58 78 z"/>
<path style="fill:#767676" d="M57 79 L56 80 L57 79 z"/>
<path style="fill:#626262" d="M31 81 L30 80 L31 81 z"/>
<path style="fill:#656565" d="M56 80 L55 81 L56 80 z"/>
<path style="fill:#626262" d="M32 82 L31 81 L32 82 z"/>
<path style="fill:#636363" d="M55 81 L54 82 L55 81 z"/>
<path style="fill:#757575" d="M54 82 L53 83 L54 82 z"/>
<path style="fill:#727272" d="M35 84 C34.34 84.02 32.85 84.18 33 83 C33.66 82.98 35.15 82.82 35 84 z"/>
<path style="fill:#a6a6a6" d="M42 83 L41 84 L41 83 L42 83 z"/>
<path style="fill:#5f5f5f" d="M45 84 L44 83 L45 84 z"/>
<path style="fill:#9a9a9a" d="M53 83 L52 84 L53 83 z"/>
<path style="fill:#7b7b7b" d="M40 84 C39.55 85.6 35.45 85.6 35 84 L40 84 z"/>
<path style="fill:#646565" d="M50 84 C49.55 85.6 45.45 85.6 45 84 L50 84 z"/>
</svg>
