<?xml version="1.0" standalone="yes"?>
<svg width="87" height="97">
<path style="fill:#fdfdfd" d="M87 0 L87 97 L0 97 L0 0 L87 0 z"/>
<path style="fill:#9d9e9e" d="M48 16 L40 16 C41.34 14.35 46.66 14.35 48 16 z"/>
<path style="fill:#9d9d9d" d="M37 16 C37.15 17.18 35.66 17.02 35 17 C34.85 15.82 36.34 15.98 37 16 z"/>
<path style="fill:#070808" d="M40 16 L48 16 L49 16 C48.85 17.18 50.34 17.02 51 17 L53 17 C52.85 18.18 54.34 18.02 55 18 L56 18 L57 19 L58 19 L59 20 L60 20 L61 21 L62 22 L64 23 L65 24 L66 25 L67 26 L68 27 L69 29 L70 30 L71 31 L71 32 L72 33 L72 34 C71.98 34.66 71.82 36.15 73 36 C72.98 36.66 72.82 38.15 74 38 L74 40 L75 44 L75 51 L74 55 L74 56 C72.82 55.85 72.98 57.34 73 58 L73 59 L72 60 L72 61 L71 62 L71 63 L70 64 L69 66 L68 67 L63 72 L62 73 L60 74 L59 75 L58 75 L57 76 L56 76 C55.34 75.98 53.85 75.82 54 77 L53 77 C52.34 76.98 50.85 76.82 51 78 L50 78 L37 78 L36 78 C36.15 76.82 34.66 76.98 34 77 L32 77 L31 76 L30 76 L29 75 L28 75 L27 74 L26 73 L25 73 L24 72 L23 71 L22 70 L21 69 L20 68 L19 67 L18 66 L17 64 L16 63 L16 62 L15 61 L14 58 C14.02 57.34 14.18 55.85 13 56 L13 53 L13 42 L13 40 L13 39 C14.18 39.15 14.02 37.66 14 37 L15 33 L16 32 L17 30 L18 29 L20 26 L21 25 L22 24 L25 22 L26 21 L28 20 L29 19 L30 19 L31 18 L32 18 C32.66 18.02 34.15 18.18 34 17 L35 17 C35.66 17.02 37.15 17.18 37 16 L40 16 z"/>
<path style="fill:#646464" d="M51 17 C50.34 17.02 48.85 17.18 49 16 C49.66 15.98 51.15 15.82 51 17 z"/>
<path style="fill:#818181" d="M34 17 C34.15 18.18 32.66 18.02 32 18 C31.85 16.82 33.34 16.98 34 17 z"/>
<path style="fill:#757676" d="M55 18 C54.34 18.02 52.85 18.18 53 17 C53.66 16.98 55.15 16.82 55 18 z"/>
<path style="fill:#868686" d="M31 18 L30 19 L31 18 z"/>
<path style="fill:#7d7d7d" d="M57 19 L56 18 L57 19 z"/>
<path style="fill:#8b8b8b" d="M29 19 L28 20 L29 19 z"/>
<path style="fill:#7e7e7e" d="M59 20 L58 19 L59 20 z"/>
<path style="fill:#a0a0a0" d="M61 21 L60 20 L61 21 z"/>
<path style="fill:#666666" d="M26 21 L25 22 L26 21 z"/>
<path style="fill:#5e5e5e" d="M62 22 L61 21 L62 22 z"/>
<path style="fill:#6f6f6f" d="M48 23 L40 23 C41.34 21.35 46.66 21.35 48 23 z"/>
<path style="fill:#a1a2a2" d="M38 23 C38.15 24.18 36.66 24.02 36 24 C35.85 22.82 37.34 22.98 38 23 z"/>
<path style="fill:#f4f4f4" d="M40 23 L48 23 L49 23 C48.85 24.18 50.34 24.02 51 24 L55 25 L56 26 L58 27 L59 28 L60 29 L61 30 L62 31 L63 32 L64 33 L66 38 L67 39 L67 40 C66.98 40.66 66.82 42.15 68 42 L68 44 L68 51 L68 53 C66.82 52.85 66.98 54.34 67 55 L66 58 L65 59 L65 60 L64 61 L58 67 L57 68 L55 69 L54 70 L53 70 C52.34 69.98 50.85 69.82 51 71 L50 71 L47 71 L38 71 L34 70 C34.15 68.82 32.66 68.98 32 69 L30 68 L29 67 L24 62 L23 61 L22 60 L22 59 L21 58 L20 54 C19.81 53.05 20.59 51.06 19 51 L19 42 C20.18 42.15 20.02 40.66 20 40 L23 33 L24 32 L25 31 L26 30 L27 29 L28 28 L29 27 L31 26 L32 25 L33 25 C33.66 25.02 35.15 25.18 35 24 L36 24 C36.66 24.02 38.15 24.18 38 23 L40 23 z"/>
<path style="fill:#a1a1a1" d="M51 24 C50.34 24.02 48.85 24.18 49 23 C49.66 22.98 51.15 22.82 51 24 z"/>
<path style="fill:#a6a6a6" d="M65 24 L64 23 L65 24 z"/>
<path style="fill:#9b9b9b" d="M22 24 L21 25 L22 24 z"/>
<path style="fill:#a3a3a3" d="M35 24 C35.15 25.18 33.66 25.02 33 25 C32.85 23.82 34.34 23.98 35 24 z"/>
<path style="fill:#818181" d="M66 25 L65 24 L66 25 z"/>
<path style="fill:#a2a2a2" d="M21 25 L20 26 L21 25 z"/>
<path style="fill:#7b7b7b" d="M32 25 L31 26 L32 25 z"/>
<path style="fill:#7d7d7d" d="M56 26 L55 25 L56 26 z"/>
<path style="fill:#818181" d="M67 26 L66 25 L67 26 z"/>
<path style="fill:#9e9e9e" d="M68 27 L67 26 L68 27 z"/>
<path style="fill:#747474" d="M29 27 L28 28 L29 27 z"/>
<path style="fill:#979898" d="M45 28 L42 28 C41.96 26.52 45.04 26.52 45 28 z"/>
<path style="fill:#878787" d="M59 28 L58 27 L59 28 z"/>
<path style="fill:#959595" d="M28 28 L27 29 L28 28 z"/>
<path style="fill:#070707" d="M42 28 L45 28 L46 28 L47 29 L48 30 L48 31 C48.06 32.59 50.05 31.81 51 32 C53.46 31.81 55.62 34.61 55 37 L54 38 L54 39 L46 44 L44 40 C42.4 40.45 42.4 44.55 44 45 L45 45 L46 46 L46 49 C44.47 50.25 42.53 50.25 41 49 L41 46 L33 38 L32 37 C31.72 35.4 32.14 33.34 34 33 L35 32 L36 32 C36.95 31.81 38.94 32.59 39 31 L42 28 z"/>
<path style="fill:#868686" d="M47 29 L46 28 L47 29 z"/>
<path style="fill:#969696" d="M60 29 L59 28 L60 29 z"/>
<path style="fill:#7d7d7d" d="M18 29 L17 30 L18 29 z"/>
<path style="fill:#9d9d9d" d="M27 29 L26 30 L27 29 z"/>
<path style="fill:#909090" d="M48 30 L47 29 L48 30 z"/>
<path style="fill:#9e9e9e" d="M61 30 L60 29 L61 30 z"/>
<path style="fill:#666666" d="M70 30 L69 29 L70 30 z"/>
<path style="fill:#a9a9a9" d="M71 31 L70 30 L71 31 z"/>
<path style="fill:#949494" d="M25 31 L24 32 L25 31 z"/>
<path style="fill:#8b8b8b" d="M39 31 C38.94 32.59 36.95 31.81 36 32 C36.06 30.41 38.05 31.19 39 31 z"/>
<path style="fill:#808080" d="M51 32 C50.05 31.81 48.06 32.59 48 31 C48.95 31.19 50.94 30.41 51 32 z"/>
<path style="fill:#979797" d="M63 32 L62 31 L63 32 z"/>
<path style="fill:#a5a5a5" d="M16 32 L15 33 L16 32 z"/>
<path style="fill:#6e6e6e" d="M24 32 L23 33 L24 32 z"/>
<path style="fill:#606060" d="M35 32 L34 33 L35 32 z"/>
<path style="fill:#717171" d="M64 33 L63 32 L64 33 z"/>
<path style="fill:#878787" d="M72 33 L71 32 L72 33 z"/>
<path style="fill:#6b6b6b" d="M73 36 C71.82 36.15 71.98 34.66 72 34 C73.18 33.85 73.02 35.34 73 36 z"/>
<path style="fill:#9f9f9f" d="M74 38 C72.82 38.15 72.98 36.66 73 36 C74.18 35.85 74.02 37.34 74 38 z"/>
<path style="fill:#737474" d="M14 37 C14.02 37.66 14.18 39.15 13 39 C12.98 38.34 12.82 36.85 14 37 z"/>
<path style="fill:#9c9c9c" d="M33 38 L32 37 L33 38 z"/>
<path style="fill:#7a7a7a" d="M55 37 L54 38 L55 37 z"/>
<path style="fill:#7b7b7b" d="M31 39 L27 39 C27.19 37.45 30.81 37.45 31 39 z"/>
<path style="fill:#bababa" d="M41 46 L40 46 L32 39 L33 38 L41 46 z"/>
<path style="fill:#5e5f5f" d="M61 39 L56 39 C56.45 37.4 60.55 37.4 61 39 z"/>
<path style="fill:#a0a0a0" d="M67 39 L66 38 L67 39 z"/>
<path style="fill:#969696" d="M26 39 L25 40 L26 39 z"/>
<path style="fill:#070707" d="M27 39 L31 39 L32 39 L40 46 L34.25 47.25 L40 49 L33 55 C31.3 56.36 29.09 55.98 27 56 L26 56 L25 55 L24 54 C24.21 52.58 24.11 50.33 22 51 L21 50 L20 49 L21 45 L22 44 L23 44 L24 43 L24 41 L25 40 L26 39 L27 39 z"/>
<path style="fill:#b2b2b2" d="M54 39 L55 39 L47 46 L46 46 L45 45 L46 44 L54 39 z"/>
<path style="fill:#060707" d="M56 39 L61 39 L63 41 C62.79 42.42 62.89 44.67 65 44 L66 45 L67 46 L67 49 L66 50 L65 51 L64 51 C62.82 50.85 62.98 52.34 63 53 L63 54 L62 55 L61 56 L60 56 L56 56 L55 56 L53 54 L52 53 L50 52 C41.9 47.04 57.29 48.07 50 47 C49.05 46.81 47.06 47.59 47 46 L55 39 L56 39 z"/>
<path style="fill:#a5a5a5" d="M13 40 L13 42 L12 42 C11.98 41.34 11.82 39.85 13 40 z"/>
<path style="fill:#696a6a" d="M20 40 C20.02 40.66 20.18 42.15 19 42 C18.98 41.34 18.82 39.85 20 40 z"/>
<path style="fill:#8f8f8f" d="M25 40 L24 41 L25 40 z"/>
<path style="fill:#a7a8a8" d="M44 40 L44 45 C42.4 44.55 42.4 40.45 44 40 z"/>
<path style="fill:#464646" d="M46 44 L45 45 L44 45 L44 40 L46 44 z"/>
<path style="fill:#7f8080" d="M68 42 C66.82 42.15 66.98 40.66 67 40 C68.18 39.85 68.02 41.34 68 42 z"/>
<path style="fill:#676767" d="M75 44 L74 40 L75 44 z"/>
<path style="fill:#9f9f9f" d="M65 44 C62.89 44.67 62.79 42.42 63 41 L65 44 z"/>
<path style="fill:#4a4b4b" d="M13 42 L13 53 L12 42 L13 42 z"/>
<path style="fill:#8c8c8c" d="M24 43 L23 44 L24 43 z"/>
<path style="fill:#8b8b8b" d="M22 44 L21 45 L22 44 z"/>
<path style="fill:#5d5d5d" d="M66 45 L65 44 L66 45 z"/>
<path style="fill:#3c3c3c" d="M68 51 L68 44 C69.64 45.03 69.64 49.97 68 51 z"/>
<path style="fill:#6d6d6d" d="M67 46 L66 45 L67 46 z"/>
<path style="fill:#7e7f7f" d="M41 46 L41 49 L40 49 L34.25 47.25 L40 46 L41 46 z"/>
<path style="fill:#999999" d="M47 46 C47.06 47.59 49.05 46.81 50 47 C57.29 48.07 41.9 47.04 50 52 L49 52 L46 51 L46 49 L46 46 L47 46 z"/>
<path style="fill:#a1a1a1" d="M21 50 L20 49 L21 50 z"/>
<path style="fill:#b7b7b7" d="M41 49 L41 51 L34 56 L33 55 L40 49 L41 49 z"/>
<path style="fill:#878888" d="M46 49 L46 51 C43.27 50.27 44.32 53.31 43.75 54.75 L41 51 L41 49 C42.53 50.25 44.47 50.25 46 49 z"/>
<path style="fill:#808080" d="M67 49 L66 50 L67 49 z"/>
<path style="fill:#828282" d="M22 51 L21 50 L22 51 z"/>
<path style="fill:#828282" d="M66 50 L65 51 L66 50 z"/>
<path style="fill:#9a9a9a" d="M20 54 C18.41 53.94 19.19 51.95 19 51 C20.59 51.06 19.81 53.05 20 54 z"/>
<path style="fill:#070707" d="M41 51 L43.75 54.75 C44.32 53.31 43.27 50.27 46 51 L49 52 C50.06 53.68 51.72 56.18 54 56 L54 57 L55 58 C55.28 59.6 54.86 61.66 53 62 L52 63 L51 63 C50.05 63.19 48.06 62.41 48 64 L48 65 L47 66 L33 61 L34 56 L41 51 z"/>
<path style="fill:#969696" d="M64 51 C64.02 51.66 64.18 53.15 63 53 C62.98 52.34 62.82 50.85 64 51 z"/>
<path style="fill:#7f7f7f" d="M75 51 L74 55 L75 51 z"/>
<path style="fill:#bfc0c0" d="M50 52 L52 53 L53 54 L55 56 L54 56 C51.72 56.18 50.06 53.68 49 52 L50 52 z"/>
<path style="fill:#5d5d5d" d="M53 54 L52 53 L53 54 z"/>
<path style="fill:#565656" d="M68 53 C68.02 53.66 68.18 55.15 67 55 C66.98 54.34 66.82 52.85 68 53 z"/>
<path style="fill:#787878" d="M25 55 L24 54 L25 55 z"/>
<path style="fill:#737373" d="M63 54 L62 55 L63 54 z"/>
<path style="fill:#717171" d="M26 56 L25 55 L26 56 z"/>
<path style="fill:#747474" d="M33 55 L34 56 L33 61 C32.49 57.37 29.89 57.14 27 56 C29.09 55.98 31.3 56.36 33 55 z"/>
<path style="fill:#7e7e7e" d="M62 55 L61 56 L62 55 z"/>
<path style="fill:#969696" d="M14 58 C12.82 58.15 12.98 56.66 13 56 C14.18 55.85 14.02 57.34 14 58 z"/>
<path style="fill:#8b8b8b" d="M60 56 C59.81 57.55 56.19 57.55 56 56 L60 56 z"/>
<path style="fill:#7e7e7e" d="M74 56 C74.02 56.66 74.18 58.15 73 58 C72.98 57.34 72.82 55.85 74 56 z"/>
<path style="fill:#676767" d="M55 58 L54 57 L55 58 z"/>
<path style="fill:#787878" d="M22 59 L21 58 L22 59 z"/>
<path style="fill:#7f7f7f" d="M66 58 L65 59 L66 58 z"/>
<path style="fill:#696969" d="M73 59 L72 60 L73 59 z"/>
<path style="fill:#606060" d="M23 61 L22 60 L23 61 z"/>
<path style="fill:#656565" d="M65 60 L64 61 L65 60 z"/>
<path style="fill:#7f7f7f" d="M16 62 L15 61 L16 62 z"/>
<path style="fill:#939393" d="M24 62 L23 61 L24 62 z"/>
<path style="fill:#5f5f5f" d="M72 61 L71 62 L72 61 z"/>
<path style="fill:#626262" d="M53 62 L52 63 L53 62 z"/>
<path style="fill:#8d8d8d" d="M17 64 L16 63 L17 64 z"/>
<path style="fill:#979898" d="M51 63 C50.94 64.59 48.95 63.81 48 64 C48.06 62.41 50.05 63.19 51 63 z"/>
<path style="fill:#6c6c6c" d="M71 63 L70 64 L71 63 z"/>
<path style="fill:#999999" d="M48 65 L47 66 L48 65 z"/>
<path style="fill:#949494" d="M19 67 L18 66 L19 67 z"/>
<path style="fill:#7e7e7e" d="M69 66 L68 67 L69 66 z"/>
<path style="fill:#747474" d="M20 68 L19 67 L20 68 z"/>
<path style="fill:#8d8d8d" d="M30 68 L29 67 L30 68 z"/>
<path style="fill:#8e8e8e" d="M58 67 L57 68 L58 67 z"/>
<path style="fill:#696969" d="M21 69 L20 68 L21 69 z"/>
<path style="fill:#5b5b5b" d="M22 70 L21 69 L22 70 z"/>
<path style="fill:#8a8a8a" d="M34 70 C33.34 70.02 31.85 70.18 32 69 C32.66 68.98 34.15 68.82 34 70 z"/>
<path style="fill:#676767" d="M55 69 L54 70 L55 69 z"/>
<path style="fill:#5c5c5c" d="M23 71 L22 70 L23 71 z"/>
<path style="fill:#707070" d="M53 70 C53.15 71.18 51.66 71.02 51 71 C50.85 69.82 52.34 69.98 53 70 z"/>
<path style="fill:#797979" d="M24 72 L23 71 L24 72 z"/>
<path style="fill:#b4b4b4" d="M47 71 L47 72 L38 71 L47 71 z"/>
<path style="fill:#6a6a6a" d="M50 71 C49.94 72.59 47.95 71.81 47 72 L47 71 L50 71 z"/>
<path style="fill:#999999" d="M25 73 L24 72 L25 73 z"/>
<path style="fill:#8c8c8c" d="M63 72 L62 73 L63 72 z"/>
<path style="fill:#5b5b5b" d="M27 74 L26 73 L27 74 z"/>
<path style="fill:#a1a1a1" d="M28 75 L27 74 L28 75 z"/>
<path style="fill:#959595" d="M60 74 L59 75 L60 74 z"/>
<path style="fill:#919191" d="M30 76 L29 75 L30 76 z"/>
<path style="fill:#868686" d="M58 75 L57 76 L58 75 z"/>
<path style="fill:#9e9e9e" d="M32 77 L31 76 L32 77 z"/>
<path style="fill:#6d6d6d" d="M56 76 C56.15 77.18 54.66 77.02 54 77 C53.85 75.82 55.34 75.98 56 76 z"/>
<path style="fill:#717272" d="M36 78 C35.34 78.02 33.85 78.18 34 77 C34.66 76.98 36.15 76.82 36 78 z"/>
<path style="fill:#6f7070" d="M53 77 C53.15 78.18 51.66 78.02 51 78 C50.85 76.82 52.34 76.98 53 77 z"/>
<path style="fill:#828282" d="M50 78 C47.03 79.66 39.97 79.66 37 78 L50 78 z"/>
</svg>
