<?xml version="1.0" standalone="yes"?>
<svg width="87" height="97">
<path style="fill:#fcfdfd" d="M87 0 L87 97 L0 97 L0 0 L87 0 z"/>
<path style="fill:#080909" d="M41 17 L37 24 L36 31 C36.02 31.66 36.18 33.15 35 33 L28 33 L25 29 L25 23 C25.66 23.02 27.15 23.18 27 22 C27.66 22.02 29.15 22.18 29 21 L30 20 L31 19 L35 19 L36 18 L41 17 z"/>
<path style="fill:#a3a4a4" d="M46 17 C48.61 21.79 52.28 26.52 51.25 32.75 L53 33 L53 34 C50.95 35.42 46.1 37.01 47 41 C45.84 40.07 44.55 39.98 45 42 L43 41 L44 39 C44.66 39.02 46.15 39.18 46 38 C55.67 30.59 42.61 9.611 38 26 C38.02 25.34 38.18 23.85 37 24 L41 17 C42.53 18.25 44.47 18.25 46 17 z"/>
<path style="fill:#080808" d="M51 18 L52 19 L56 19 L57 20 L58 21 C58.06 22.59 60.05 21.81 61 22 L63 24 L63 29 L59 33 L53 33 L51.25 32.75 C52.28 26.52 48.61 21.79 46 17 L51 18 z"/>
<path style="fill:#8b8b8b" d="M36 18 L35 19 L36 18 z"/>
<path style="fill:#686868" d="M52 19 L51 18 L52 19 z"/>
<path style="fill:#a0a0a0" d="M31 19 L30 20 L31 19 z"/>
<path style="fill:#060606" d="M46 38 L44 21 L43 21 L41 38 L39 34 L38 33 L38 26 C42.61 9.611 55.67 30.59 46 38 z"/>
<path style="fill:#959595" d="M57 20 L56 19 L57 20 z"/>
<path style="fill:#a3a3a3" d="M30 20 L29 21 L30 20 z"/>
<path style="fill:#8b8b8b" d="M58 21 L57 20 L58 21 z"/>
<path style="fill:#252626" d="M43 21 L41 39 L41 38 L43 21 z"/>
<path style="fill:#d7d7d7" d="M44 21 L44 39 L43 41 L41 43 L40 43 L39 42 L39 41 C40.35 41.46 41.46 40.35 41 39 L43 21 L44 21 z"/>
<path style="fill:#3c3d3d" d="M46 38 C46.15 39.18 44.66 39.02 44 39 L44 21 L46 38 z"/>
<path style="fill:#6f7070" d="M27 22 C27.15 23.18 25.66 23.02 25 23 C24.85 21.82 26.34 21.98 27 22 z"/>
<path style="fill:#9c9c9c" d="M63 24 L61 22 C62.35 21.54 63.46 22.65 63 24 z"/>
<path style="fill:#606060" d="M25 23 L25 29 L24 29 L23 28 L25 23 z"/>
<path style="fill:#babbbb" d="M38 26 L38 33 L39 34 L41 38 L41 39 L35 34 C37.09 35.01 37.96 31.25 36 31 L37 24 C38.18 23.85 38.02 25.34 38 26 z"/>
<path style="fill:#aaaaaa" d="M21 26 L20 27 L21 26 z"/>
<path style="fill:#0c0c0c" d="M23 28 L24 29 C25.37 31.94 26.78 34.36 23 36 L19 36 C18.09 34.74 16.15 34.33 17 32 L18 31 C17.98 30.34 17.82 28.85 19 29 L20 28 L20 27 L21 26 C22.35 25.54 23.46 26.65 23 28 z"/>
<path style="fill:#545454" d="M67 27 L64 28 C62.99 25.91 66.75 25.04 67 27 z"/>
<path style="fill:#0d0e0e" d="M67 27 L67 28 L68 29 L69 29 C68.98 29.66 68.82 31.15 70 31 L71 35 L64 36 C60.12 34.36 61.35 31.48 64 29 L64 28 L67 27 z"/>
<path style="fill:#818181" d="M20 28 L19 29 L20 28 z"/>
<path style="fill:#6f6f6f" d="M68 29 L67 28 L68 29 z"/>
<path style="fill:#9fa0a0" d="M25 29 L28 33 C26.94 32.57 26.94 34.43 28 34 C27.39 35.24 25.44 35.98 24 36 L23 36 C26.78 34.36 25.37 31.94 24 29 L25 29 z"/>
<path style="fill:#979898" d="M63 29 L64 29 C61.35 31.48 60.12 34.36 64 36 L63 36 L58 34 C58.8 34.56 60.97 33.21 59 33 L63 29 z"/>
<path style="fill:#acacac" d="M70 31 C68.82 31.15 68.98 29.66 69 29 C70.18 28.85 70.02 30.34 70 31 z"/>
<path style="fill:#7c7c7c" d="M18 31 L17 32 L18 31 z"/>
<path style="fill:#686868" d="M35 34 L35 33 C36.18 33.15 36.02 31.66 36 31 C37.96 31.25 37.09 35.01 35 34 z"/>
<path style="fill:#818282" d="M17 32 C16.15 34.33 18.09 34.74 19 36 L18 37 L16 35 C16.19 34.05 15.41 32.06 17 32 z"/>
<path style="fill:#d4d4d4" d="M28 33 L35 33 L35 34 L28 34 C26.94 34.43 26.94 32.57 28 33 z"/>
<path style="fill:#595959" d="M39 34 L38 33 L39 34 z"/>
<path style="fill:#dadada" d="M59 33 C60.97 33.21 58.8 34.56 58 34 L53 34 L53 33 L59 33 z"/>
<path style="fill:#0e0f0f" d="M35 34 L41 39 C41.46 40.35 40.35 41.46 39 41 C37.93 39.14 35.16 38.78 33 39 C31.09 36.91 25.97 39.09 24 40 L33 40 L39 42 L39 44 L38 44 C37.34 43.98 35.85 43.82 36 45 L31 45 L25 43 L23 42 L23 40 L24 36 C25.44 35.98 27.39 35.24 28 34 L35 34 z"/>
<path style="fill:#0c0c0c" d="M58 34 L63 36 C66.33 40.14 63.98 43.66 59 44 C58.05 44.19 56.06 43.41 56 45 L53 45 L49 44 L48 44 L48 42 L61.75 39.25 L60 39 C58.97 37.36 54.03 37.36 53 39 C51.17 38.77 48.85 39.5 48 41 L47 41 C46.1 37.01 50.95 35.42 53 34 L58 34 z"/>
<path style="fill:#080808" d="M16 35 L18 37 L20 37 L21 40 C21.46 41.35 20.35 42.46 19 42 C17.17 42.08 14.46 42.37 14 40 L14 38 L15 37 C14.98 36.34 14.82 34.85 16 35 z"/>
<path style="fill:#b0b1b1" d="M71 35 C70.43 37.85 67.19 36.6 65.25 37.25 C65.53 38.77 65.45 42.5 68 42 L64 44 L64 54 L63 54 C64.76 48.76 59.03 50.25 57 52 L56 52 L56 50 L57 50 C61.62 51.56 66.18 43.43 59 45 L59 44 C63.98 43.66 66.33 40.14 63 36 L64 36 L71 35 z"/>
<path style="fill:#111111" d="M72 35 C72.19 35.95 71.41 37.94 73 38 L74 41 C72.3 42.36 70.09 41.98 68 42 C65.45 42.5 65.53 38.77 65.25 37.25 C67.19 36.6 70.43 37.85 71 35 L72 35 z"/>
<path style="fill:#919292" d="M73 38 C71.41 37.94 72.19 35.95 72 35 C73.59 35.06 72.81 37.05 73 38 z"/>
<path style="fill:#b9b9b9" d="M19 36 L23 36 L24 36 L23 40 L22 40 C22.21 38.58 22.11 36.33 20 37 L18 37 L19 36 z"/>
<path style="fill:#7b7b7b" d="M15 37 L14 38 L15 37 z"/>
<path style="fill:#4c4d4d" d="M22 40 L21 40 L20 37 C22.11 36.33 22.21 38.58 22 40 z"/>
<path style="fill:#767676" d="M33 39 L33 40 L24 40 C25.97 39.09 31.09 36.91 33 39 z"/>
<path style="fill:#5f6060" d="M60 39 L53 39 C54.03 37.36 58.97 37.36 60 39 z"/>
<path style="fill:#a0a1a1" d="M39 41 L39 42 L33 40 L33 39 C35.16 38.78 37.93 39.14 39 41 z"/>
<path style="fill:#939494" d="M53 39 L60 39 L61.75 39.25 L48 42 L48 41 C48.85 39.5 51.17 38.77 53 39 z"/>
<path style="fill:#7e7e7e" d="M14 40 C14.46 42.37 17.17 42.08 19 42 C20.87 42.83 22.3 46.64 20 48 C21.63 42.74 15.91 44.35 13 43 C13.19 42.05 12.41 40.06 14 40 z"/>
<path style="fill:#b8b9b9" d="M22 40 C21.98 40.66 21.82 42.15 23 42 L25 43 L24 45 C23.09 48.98 27.95 50.42 31 50 L31 52 L30 52 C28.94 51.16 23.5 48.52 24 52 L23 52 L22.25 43.25 L22 53 C22.62 54.07 24.05 56.54 22 57 C22.15 55.82 20.66 55.98 20 56 L20 55 C22.13 53.94 21.41 48.44 18 50 L13 50 L13 49 L20 48 C22.3 46.64 20.87 42.83 19 42 C20.35 42.46 21.46 41.35 21 40 L22 40 z"/>
<path style="fill:#686969" d="M23 40 L23 42 C21.82 42.15 21.98 40.66 22 40 L23 40 z"/>
<path style="fill:#252626" d="M45 42 C47.4 47.55 41.18 52.09 41 43 L43 41 L45 42 z"/>
<path style="fill:#939393" d="M74 41 L75 45 C73.65 42.08 65.15 43.05 67 48 L65 49 L64 44 L68 42 C70.09 41.98 72.3 42.36 74 41 z"/>
<path style="fill:#646464" d="M40 43 L39 44 L39 42 L40 43 z"/>
<path style="fill:#838484" d="M48 42 L48 44 C46.67 44.22 46.67 41.78 48 42 z"/>
<path style="fill:#757676" d="M13 43 L13 49 C11.38 48.27 11.38 43.73 13 43 z"/>
<path style="fill:#050505" d="M20 48 L13 49 L13 43 C15.91 44.35 21.63 42.74 20 48 z"/>
<path style="fill:#2b2c2c" d="M23 52 L22 53 L22.25 43.25 L23 52 z"/>
<path style="fill:#909090" d="M31 45 L31 46 L24 45 L25 43 L31 45 z"/>
<path style="fill:#0b0b0b" d="M75 45 L75 49 L67 48 C65.15 43.05 73.65 42.08 75 45 z"/>
<path style="fill:#7c7d7d" d="M38 44 C38.15 45.18 36.66 45.02 36 45 C35.85 43.82 37.34 43.98 38 44 z"/>
<path style="fill:#5e5f5f" d="M53 45 L49 44 L53 45 z"/>
<path style="fill:#727373" d="M59 44 L59 45 C57.42 46.15 56.41 47.55 57 50 L56 50 L56 45 C56.06 43.41 58.05 44.19 59 44 z"/>
<path style="fill:#2b2c2c" d="M65 49 L65 54 L64 54 L64 44 L65 49 z"/>
<path style="fill:#111212" d="M31 46 L31 50 C27.95 50.42 23.09 48.98 24 45 L31 46 z"/>
<path style="fill:#090a0a" d="M57 50 C56.41 47.55 57.42 46.15 59 45 C66.18 43.43 61.62 51.56 57 50 z"/>
<path style="fill:#bbbbbb" d="M67 48 L75 49 L75 50 C74.05 50.19 72.06 49.41 72 51 C68.43 49.14 64.44 49.92 66 55 L65 54 L65 49 L67 48 z"/>
<path style="fill:#808181" d="M13 50 L18 50 L13 54 C11.45 53.81 11.45 50.19 13 50 z"/>
<path style="fill:#0c0c0c" d="M20 55 C18.3 56.36 16.09 55.98 14 56 C12.82 56.15 12.98 54.66 13 54 L18 50 C21.41 48.44 22.13 53.94 20 55 z"/>
<path style="fill:#121212" d="M30 52 C30.21 53.42 30.11 55.67 28 55 L25 54 C25.02 53.34 25.18 51.85 24 52 C23.5 48.52 28.94 51.16 30 52 z"/>
<path style="fill:#171717" d="M63 54 L59 55 C56.89 55.67 56.79 53.42 57 52 C59.03 50.25 64.76 48.76 63 54 z"/>
<path style="fill:#0f0f0f" d="M72 51 C74.11 50.33 74.21 52.58 74 54 L74 56 L66 55 C64.44 49.92 68.43 49.14 72 51 z"/>
<path style="fill:#727373" d="M75 50 L74 54 C74.21 52.58 74.11 50.33 72 51 C72.06 49.41 74.05 50.19 75 50 z"/>
<path style="fill:#646464" d="M24 52 C25.18 51.85 25.02 53.34 25 54 L25 60 L23 59 C21.82 59.15 21.98 57.66 22 57 C24.05 56.54 22.62 54.07 22 53 L23 52 L24 52 z"/>
<path style="fill:#4e4f4f" d="M31 52 L31 56 C30.05 55.81 28.06 56.59 28 55 C30.11 55.67 30.21 53.42 30 52 L31 52 z"/>
<path style="fill:#7a7a7a" d="M57 52 C56.79 53.42 56.89 55.67 59 55 L60 56 L56 57 L56 52 L57 52 z"/>
<path style="fill:#a0a1a1" d="M25 54 L28 55 C28.06 56.59 30.05 55.81 31 56 L31 57 C27.76 56.58 24.2 55.76 27 60 L26 60 L25 60 L25 54 z"/>
<path style="fill:#b2b2b2" d="M63 54 C62.81 54.95 63.59 56.94 62 57 C62.15 55.82 60.66 55.98 60 56 L59 55 L63 54 z"/>
<path style="fill:#6d6d6d" d="M64 54 L65 58 L64 59 C62.76 59.61 62.02 61.56 62 63 L59 66 L59 64 C60.24 63.39 60.98 61.44 61 60 C61.19 59.05 60.41 57.06 62 57 C63.59 56.94 62.81 54.95 63 54 L64 54 z"/>
<path style="fill:#a2a2a2" d="M65 54 L66 55 L74 56 C73.81 56.95 74.59 58.94 73 59 C71.35 58.18 65.09 54.07 65 58 L64 54 L65 54 z"/>
<path style="fill:#8c8c8c" d="M20 55 L20 56 C18.93 57.86 16.16 58.22 14 58 L14 56 C16.09 55.98 18.3 56.36 20 55 z"/>
<path style="fill:#080909" d="M22 57 C21.98 57.66 21.82 59.15 23 59 C23.08 61.41 17.45 64.25 16 62 L15 61 C15.02 60.34 15.18 58.85 14 59 L14 58 C16.16 58.22 18.93 57.86 20 56 C20.66 55.98 22.15 55.82 22 57 z"/>
<path style="fill:#0d0d0d" d="M31 57 L31 58 L32 59 L32 60 C31.55 61.6 27.45 61.6 27 60 C24.2 55.76 27.76 56.58 31 57 z"/>
<path style="fill:#141414" d="M62 57 C60.41 57.06 61.19 59.05 61 60 C59.47 61.02 55.96 62 55 60 L56 57 L60 56 C60.66 55.98 62.15 55.82 62 57 z"/>
<path style="fill:#0a0b0b" d="M73 59 C71.82 58.85 71.98 60.34 72 61 L72 62 L69 63 C69.15 61.82 67.66 61.98 67 62 C65.82 61.14 63.37 61.12 64 59 L65 58 C65.09 54.07 71.35 58.18 73 59 z"/>
<path style="fill:#b3b4b4" d="M25 60 C24.35 62.16 26.65 62.16 26 60 L27 60 C27.45 61.6 31.55 61.6 32 60 C33.18 59.85 33.02 61.34 33 62 C30.11 61.82 27.07 61.52 29 65 L27 64 C27.14 62.12 25.12 64.14 27 64 C26.67 65.34 27.71 66.74 29 67 L30 68 L30 70 C27.58 66.74 24.38 68.97 23 72 L21 70 C30.98 68.1 21.32 57.41 18 66 L15 62 L16 62 C17.45 64.25 23.08 61.41 23 59 L25 60 z"/>
<path style="fill:#7b7b7b" d="M32 59 L31 58 L32 59 z"/>
<path style="fill:#9e9e9e" d="M15 61 C13.82 61.15 13.98 59.66 14 59 C15.18 58.85 15.02 60.34 15 61 z"/>
<path style="fill:#c0c1c1" d="M64 59 C63.37 61.12 65.82 61.14 67 62 C66.85 63.18 68.34 63.02 69 63 L72 62 C72.46 63.35 71.35 64.46 70 64 L69 64 L62 63 C62.02 61.56 62.76 59.61 64 59 z"/>
<path style="fill:#767676" d="M73 59 C73.02 59.66 73.18 61.15 72 61 C71.98 60.34 71.82 58.85 73 59 z"/>
<path style="fill:#4a4a4a" d="M26 60 C26.65 62.16 24.35 62.16 25 60 L26 60 z"/>
<path style="fill:#c0c1c1" d="M55 60 C55.96 62 59.47 61.02 61 60 C60.98 61.44 60.24 63.39 59 64 C59.64 60.9 55.73 62.3 54 62 C53.98 61.34 53.82 59.85 55 60 z"/>
<path style="fill:#616161" d="M16 62 L15 62 L15 61 L16 62 z"/>
<path style="fill:#0a0a0a" d="M21 70 L20 69 L19 68 C19.02 67.34 19.18 65.85 18 66 C21.32 57.41 30.98 68.1 21 70 z"/>
<path style="fill:#171818" d="M33 62 C32.98 62.66 32.82 64.15 34 64 L35 67 C32.5 67.65 30.79 66.31 29 65 C27.07 61.52 30.11 61.82 33 62 z"/>
<path style="fill:#8c8d8d" d="M34 64 C32.82 64.15 32.98 62.66 33 62 C34.18 61.85 34.02 63.34 34 64 z"/>
<path style="fill:#a9aaaa" d="M54 62 C54.02 62.66 54.18 64.15 53 64 C52.98 63.34 52.82 61.85 54 62 z"/>
<path style="fill:#1b1c1c" d="M59 64 C56.76 65.36 55.17 68.06 52 67 L53 64 C54.18 64.15 54.02 62.66 54 62 C55.73 62.3 59.64 60.9 59 64 z"/>
<path style="fill:#111111" d="M69 64 L69 66 C69.33 67.85 67.46 69.33 66 70 C62.36 70.13 61.42 65.91 62 63 L69 64 z"/>
<path style="fill:#5a5a5a" d="M69 63 C68.34 63.02 66.85 63.18 67 62 C67.66 61.98 69.15 61.82 69 63 z"/>
<path style="fill:#3e3e3e" d="M27 64 C25.12 64.14 27.14 62.12 27 64 z"/>
<path style="fill:#b2b3b3" d="M62 63 C61.42 65.91 62.36 70.13 66 70 L64 72 C62.02 69.83 60.79 65.39 58 69 L58 67 L59 66 L62 63 z"/>
<path style="fill:#5b5b5b" d="M29 65 L29 67 C27.71 66.74 26.67 65.34 27 64 L29 65 z"/>
<path style="fill:#c4c4c4" d="M59 64 L59 66 L58 67 L55 69 L50 68 C49.85 66.82 51.34 66.98 52 67 C55.17 68.06 56.76 65.36 59 64 z"/>
<path style="fill:#656565" d="M70 64 C70.02 64.66 70.18 66.15 69 66 L69 64 L70 64 z"/>
<path style="fill:#c0c0c0" d="M35 67 C35.66 66.98 37.15 66.82 37 68 C35.45 68.06 32.29 67.32 33 70 L30 68 L29 67 L29 65 C30.79 66.31 32.5 67.65 35 67 z"/>
<path style="fill:#6c6d6d" d="M19 68 C17.82 68.15 17.98 66.66 18 66 C19.18 65.85 19.02 67.34 19 68 z"/>
<path style="fill:#363636" d="M59 66 L58 67 L59 66 z"/>
<path style="fill:#444444" d="M30 68 L29 67 L30 68 z"/>
<path style="fill:#686868" d="M58 67 L58 69 L55 72 C54.34 72.02 52.85 72.18 53 71 L54 70 L55 69 L58 67 z"/>
<path style="fill:#0c0c0c" d="M64 72 L63 73 L62 74 C61.34 73.98 59.85 73.82 60 75 C55.44 76.12 57.36 71.24 58 69 C60.79 65.39 62.02 69.83 64 72 z"/>
<path style="fill:#6f6f6f" d="M20 69 L19 68 L20 69 z"/>
<path style="fill:#0e0e0e" d="M30 70 L30 71 C30.4 73.27 30.01 75.98 27 75 L26 74 L24 73 L23 72 C24.38 68.97 27.58 66.74 30 70 z"/>
<path style="fill:#919191" d="M33 70 L39 72 C35.2 72.88 36.34 75.91 38 79 C37.05 78.81 35.06 79.59 35 78 C38.12 75.51 29.18 70.28 31 77 L27 75 C30.01 75.98 30.4 73.27 30 71 L31 71 C30.86 72.88 32.88 70.86 31 71 L30 70 L30 68 L33 70 z"/>
<path style="fill:#1f1f1f" d="M37 68 L39 72 L33 70 C32.29 67.32 35.45 68.06 37 68 z"/>
<path style="fill:#292a2a" d="M55 69 L54 70 L53 71 C51.56 71.02 49.61 71.76 49 73 L48 72 L50 68 L55 69 z"/>
<path style="fill:#818181" d="M21 70 L20 69 L21 70 z"/>
<path style="fill:#e1e1e1" d="M55 69 L54 70 L55 69 z"/>
<path style="fill:#b4b5b5" d="M58 69 C57.36 71.24 55.44 76.12 60 75 C59.94 76.59 57.95 75.81 57 76 C55.41 75.94 56.19 73.95 56 73 L55 72 L58 69 z"/>
<path style="fill:#f1f1f1" d="M31 71 L30 71 L30 70 L31 71 z"/>
<path style="fill:#dddddd" d="M54 70 L53 71 L54 70 z"/>
<path style="fill:#fbfbfb" d="M31 71 C32.88 70.86 30.86 72.88 31 71 z"/>
<path style="fill:#9e9e9e" d="M53 71 C52.85 72.18 54.34 72.02 55 72 L56 73 C53.66 73.03 51.03 75.66 51 78 L50 78 L49 73 C49.61 71.76 51.56 71.02 53 71 z"/>
<path style="fill:#a4a4a4" d="M24 73 L23 72 L24 73 z"/>
<path style="fill:#0f0f0f" d="M42 75 L42 78 L38 79 C36.34 75.91 35.2 72.88 39 72 C41.24 71.34 42.66 72.76 42 75 z"/>
<path style="fill:#111212" d="M48 72 L49 73 L50 78 L49 79 L45 78 L45 75 C44.34 72.76 45.76 71.34 48 72 z"/>
<path style="fill:#878787" d="M64 72 L63 73 L64 72 z"/>
<path style="fill:#090909" d="M35 78 L33 78 L32 77 L31 77 C29.18 70.28 38.12 75.51 35 78 z"/>
<path style="fill:#0e0f0f" d="M56 73 C56.19 73.95 55.41 75.94 57 76 C57.15 77.18 55.66 77.02 55 77 L54 78 L51 78 C51.03 75.66 53.66 73.03 56 73 z"/>
<path style="fill:#888888" d="M27 75 L26 74 L27 75 z"/>
<path style="fill:#979898" d="M62 74 C62.15 75.18 60.66 75.02 60 75 C59.85 73.82 61.34 73.98 62 74 z"/>
<path style="fill:#757575" d="M42 78 L42 75 C43.48 74.96 43.48 78.04 42 78 z"/>
<path style="fill:#949494" d="M45 75 L45 78 C43.52 78.04 43.52 74.96 45 75 z"/>
<path style="fill:#797979" d="M33 78 L32 77 L33 78 z"/>
<path style="fill:#636363" d="M55 77 L54 78 L55 77 z"/>
<path style="fill:#8e8e8e" d="M50 78 L49 79 L50 78 z"/>
</svg>
