<?xml version="1.0" standalone="yes"?>
<svg width="87" height="97">
<path style="fill:#fdfdfd" d="M87 0 L87 97 L0 97 L0 0 L87 0 z"/>
<path style="fill:#bfbfbf" d="M48 17 L40 17 C41.34 15.35 46.66 15.35 48 17 z"/>
<path style="fill:#050505" d="M40 17 L48 17 L50 17 C49.85 18.18 51.34 18.02 52 18 L54 18 C53.85 19.18 55.34 19.02 56 19 L59 20 L60 21 L62 22 L63 23 L69 29 L70 30 L71 31 L71 32 L72 33 L73 36 C72.98 36.66 72.82 38.15 74 38 C73.98 38.66 73.82 40.15 75 40 L75 42 L75 54 L75 56 C73.82 55.85 73.98 57.34 74 58 L74 59 L73 60 L73 62 L72 63 L71 65 L70 66 L69 68 L68 69 L67 70 L66 71 L65 72 L64 73 L62 74 L61 75 L60 76 L59 76 L58 77 L54 78 C53.34 77.98 51.85 77.82 52 79 L50 79 L38 79 L36 79 C36.15 77.82 34.66 77.98 34 78 C34.15 76.82 32.66 76.98 32 77 L29 76 L28 75 L27 75 L26 74 L25 73 L19 67 L18 66 L17 64 L16 63 L16 62 L15 61 L15 60 C15.02 59.34 15.18 57.85 14 58 L14 56 C14.02 55.34 14.18 53.85 13 54 L13 53 L13 43 L13 42 C14.18 42.15 14.02 40.66 14 40 L14 39 C15.18 39.15 15.02 37.66 15 37 L17 32 L18 31 L18 30 L19 29 L20 28 L21 27 L24 24 L25 23 L26 22 L27 22 L28 21 L33 19 C33.66 19.02 35.15 19.18 35 18 L40 17 z"/>
<path style="fill:#666767" d="M52 18 C51.34 18.02 49.85 18.18 50 17 C50.66 16.98 52.15 16.82 52 18 z"/>
<path style="fill:#5e5e5e" d="M35 18 C35.15 19.18 33.66 19.02 33 19 C32.85 17.82 34.34 17.98 35 18 z"/>
<path style="fill:#8e8f8f" d="M56 19 C55.34 19.02 53.85 19.18 54 18 C54.66 17.98 56.15 17.82 56 19 z"/>
<path style="fill:#8e8e8e" d="M60 21 L59 20 L60 21 z"/>
<path style="fill:#696969" d="M28 21 L27 22 L28 21 z"/>
<path style="fill:#a7a7a7" d="M26 22 L25 23 L26 22 z"/>
<path style="fill:#737373" d="M63 23 L62 22 L63 23 z"/>
<path style="fill:#7f7f7f" d="M25 23 L24 24 L25 23 z"/>
<path style="fill:#373838" d="M49 25 L41 25 C42.34 23.35 47.66 23.35 49 25 z"/>
<path style="fill:#717171" d="M39 25 L39 26 C32.78 27.97 25.91 32.38 24 39 L23 40 L22 40 C23.99 32.39 31.44 26.34 39 25 z"/>
<path style="fill:#b8b8b8" d="M41 25 L49 25 L39 26 L39 25 L41 25 z"/>
<path style="fill:#767777" d="M65 37 L64 38 C61.82 32.41 55.74 28.84 51.25 26.25 C57.17 26.17 62.4 31.96 65 37 z"/>
<path style="fill:#676767" d="M21 27 L20 28 L21 27 z"/>
<path style="fill:#828282" d="M20 28 L19 29 L20 28 z"/>
<path style="fill:#aaaaaa" d="M19 29 L18 30 L19 29 z"/>
<path style="fill:#6b6b6b" d="M70 30 L69 29 L70 30 z"/>
<path style="fill:#a2a2a2" d="M71 31 L70 30 L71 31 z"/>
<path style="fill:#616161" d="M18 31 L17 32 L18 31 z"/>
<path style="fill:#606060" d="M72 33 L71 32 L72 33 z"/>
<path style="fill:#535454" d="M74 38 C72.82 38.15 72.98 36.66 73 36 C74.18 35.85 74.02 37.34 74 38 z"/>
<path style="fill:#545555" d="M15 37 C15.02 37.66 15.18 39.15 14 39 C13.98 38.34 13.82 36.85 15 37 z"/>
<path style="fill:#2f3030" d="M66 39 L23 40 L24 39 L64 38 L65 37 C66.18 36.85 66.02 38.34 66 39 z"/>
<path style="fill:#999999" d="M75 40 C73.82 40.15 73.98 38.66 74 38 C75.18 37.85 75.02 39.34 75 40 z"/>
<path style="fill:#d4d5d5" d="M66 39 L66 40 L65 41 L23 41 L22 41 L22 40 L23 40 L66 39 z"/>
<path style="fill:#757676" d="M14 40 C14.02 40.66 14.18 42.15 13 42 C12.98 41.34 12.82 39.85 14 40 z"/>
<path style="fill:#5a5b5b" d="M66 56 L66 55 L65 42 L65 41 L66 40 C68.46 44.02 69.22 52.04 66 56 z"/>
<path style="fill:#5c5c5c" d="M22 41 L23 41 L23 42 C21.21 45.12 21.51 51.36 23 55 L22 56 C20.07 52.12 18.64 44.73 22 41 z"/>
<path style="fill:#282929" d="M65 41 L65 42 L23 42 L23 41 L65 41 z"/>
<path style="fill:#101" d="M23 42 L65 42 L66 55 L23 55 C21.51 51.36 21.21 45.12 23 42 z"/>
<path style="fill:#707171" d="M75 54 L75 42 C76.66 44.64 76.66 51.36 75 54 z"/>
<path style="fill:#c5c6c6" d="M13 43 L13 53 C11.34 51.01 11.34 44.99 13 43 z"/>
<path style="fill:#575858" d="M14 56 C12.82 56.15 12.98 54.66 13 54 C14.18 53.85 14.02 55.34 14 56 z"/>
<path style="fill:#c9c9c9" d="M23 55 L66 55 L66 56 L66 57 L65 57 C52.36 55.33 35.64 55.33 23 57 L22 57 L22 56 L23 55 z"/>
<path style="fill:#878787" d="M65 57 L24 57 L23 57 C35.64 55.33 52.36 55.33 65 57 z"/>
<path style="fill:#7a7a7a" d="M75 56 C75.02 56.66 75.18 58.15 74 58 C73.98 57.34 73.82 55.85 75 56 z"/>
<path style="fill:#717272" d="M23 57 L24 57 L32 68 C27.5 66.45 23.46 61.36 22 57 L23 57 z"/>
<path style="fill:#020202" d="M65 57 L62 63 L59 66 C51.32 71.11 40.58 71.1 32 68 L24 57 L65 57 z"/>
<path style="fill:#757575" d="M66 57 C65.81 59.39 64.3 62 62 63 L65 57 L66 57 z"/>
<path style="fill:#848585" d="M15 60 C13.82 60.15 13.98 58.66 14 58 C15.18 57.85 15.02 59.34 15 60 z"/>
<path style="fill:#5a5a5a" d="M74 59 L73 60 L74 59 z"/>
<path style="fill:#8a8a8a" d="M16 62 L15 61 L16 62 z"/>
<path style="fill:#9b9b9b" d="M73 62 L72 63 L73 62 z"/>
<path style="fill:#848484" d="M17 64 L16 63 L17 64 z"/>
<path style="fill:#7c7c7c" d="M62 63 C62.41 64.69 60.69 66.41 59 66 L62 63 z"/>
<path style="fill:#676767" d="M71 65 L70 66 L71 65 z"/>
<path style="fill:#7c7c7c" d="M19 67 L18 66 L19 67 z"/>
<path style="fill:#757575" d="M59 66 C52.92 73.43 38.85 74.1 32 68 C40.58 71.1 51.32 71.11 59 66 z"/>
<path style="fill:#959595" d="M69 68 L68 69 L69 68 z"/>
<path style="fill:#888888" d="M68 69 L67 70 L68 69 z"/>
<path style="fill:#787878" d="M67 70 L66 71 L67 70 z"/>
<path style="fill:#838383" d="M66 71 L65 72 L66 71 z"/>
<path style="fill:#a2a2a2" d="M65 72 L64 73 L65 72 z"/>
<path style="fill:#666666" d="M26 74 L25 73 L26 74 z"/>
<path style="fill:#a0a0a0" d="M27 75 L26 74 L27 75 z"/>
<path style="fill:#707070" d="M62 74 L61 75 L62 74 z"/>
<path style="fill:#656565" d="M29 76 L28 75 L29 76 z"/>
<path style="fill:#a8a8a8" d="M61 75 L60 76 L61 75 z"/>
<path style="fill:#a4a4a4" d="M59 76 L58 77 L59 76 z"/>
<path style="fill:#565757" d="M34 78 C33.34 78.02 31.85 78.18 32 77 C32.66 76.98 34.15 76.82 34 78 z"/>
<path style="fill:#999a9a" d="M36 79 C35.34 79.02 33.85 79.18 34 78 C34.66 77.98 36.15 77.82 36 79 z"/>
<path style="fill:#808181" d="M54 78 C54.15 79.18 52.66 79.02 52 79 C51.85 77.82 53.34 77.98 54 78 z"/>
<path style="fill:#767676" d="M50 79 C47.36 80.66 40.64 80.66 38 79 L50 79 z"/>
</svg>
