<?xml version="1.0" standalone="yes"?>
<svg width="87" height="97">
<path style="fill:#fdfdfd" d="M87 0 L87 97 L0 97 L0 0 L87 0 z"/>
<path style="fill:#aaaaaa" d="M38 19 L38 20 L36 20 C35.85 18.82 37.34 18.98 38 19 z"/>
<path style="fill:#3b3b3b" d="M46 19 L46 20 L38 20 L38 19 L46 19 z"/>
<path style="fill:#8a8a8a" d="M49 20 L46 20 L46 19 C46.95 19.19 48.94 18.41 49 20 z"/>
<path style="fill:#6b6b6b" d="M35 20 C35.15 21.18 33.66 21.02 33 21 C32.85 19.82 34.34 19.98 35 20 z"/>
<path style="fill:#040505" d="M36 20 L38 20 L46 20 L49 20 L50 20 C49.85 21.18 51.34 21.02 52 21 L54 21 L55 22 L56 22 C55.85 23.18 57.34 23.02 58 23 L59 24 L61 25 L62 26 L63 27 L64 28 L65 29 L66 30 L67 31 L68 32 L68 33 L69 34 L70 36 L71 37 L72 41 C71.98 41.66 71.82 43.15 73 43 L73 46 L73 54 L73 56 C71.82 55.85 71.98 57.34 72 58 L72 60 L71 61 L71 62 L70 63 L69 66 L68 67 L67 69 L66 70 L65 71 L64 72 L63 73 L62 74 L60 75 L59 76 L58 77 L55 78 L54 79 L52 79 C51.34 78.98 49.85 78.82 50 80 L48 80 L37 80 L35 80 C35.15 78.82 33.66 78.98 33 79 L29 78 L28 77 L26 76 L25 75 L22 73 L21 72 L20 71 L19 70 L18 68 L17 67 L16 66 L15 63 L14 62 L14 61 C14.02 60.34 14.18 58.85 13 59 L13 58 C13.02 57.34 13.18 55.85 12 56 L12 44 C13.18 44.15 13.02 42.66 13 42 L13 40 L14 39 L14 38 L15 37 L15 36 L16 35 L16 34 L17 33 L19 30 L20 29 L21 28 L22 27 L23 26 L26 24 L27 23 L28 23 L29 22 L30 22 C30.66 22.02 32.15 22.18 32 21 L33 21 C33.66 21.02 35.15 21.18 35 20 L36 20 z"/>
<path style="fill:#575858" d="M52 21 C51.34 21.02 49.85 21.18 50 20 C50.66 19.98 52.15 19.82 52 21 z"/>
<path style="fill:#6f7070" d="M32 21 C32.15 22.18 30.66 22.02 30 22 C29.85 20.82 31.34 20.98 32 21 z"/>
<path style="fill:#818181" d="M55 22 L54 21 L55 22 z"/>
<path style="fill:#8a8a8a" d="M29 22 L28 23 L29 22 z"/>
<path style="fill:#a7a7a7" d="M58 23 C57.34 23.02 55.85 23.18 56 22 C56.66 21.98 58.15 21.82 58 23 z"/>
<path style="fill:#9d9d9d" d="M27 23 L26 24 L27 23 z"/>
<path style="fill:#838383" d="M59 24 L58 23 L59 24 z"/>
<path style="fill:#939393" d="M62 26 L61 25 L62 26 z"/>
<path style="fill:#959595" d="M23 26 L22 27 L23 26 z"/>
<path style="fill:#626363" d="M38 73 C39.01 59.36 40.98 38.97 37 27 C37.01 25.61 38.92 25.86 39.75 26.25 L39.75 73.75 C39.17 74.25 37.83 74 38 73 z"/>
<path style="fill:#727272" d="M63 27 L62 26 L63 27 z"/>
<path style="fill:#7a7a7a" d="M22 27 L21 28 L22 27 z"/>
<path style="fill:#838383" d="M36 27 C36.15 28.18 34.66 28.02 34 28 C33.85 26.82 35.34 26.98 36 27 z"/>
<path style="fill:#fdfdfd" d="M37 27 C40.98 38.97 39.01 59.36 38 73 L37 73 C37.15 71.82 35.66 71.98 35 72 C34.34 72.02 32.85 72.18 33 71 L34 28 C34.66 28.02 36.15 28.18 36 27 L37 27 z"/>
<path style="fill:#838484" d="M47 27 L47 73 C45.33 59.03 45.33 40.97 47 27 z"/>
<path style="fill:#fbfbfb" d="M49 27 C48.85 28.18 50.34 28.02 51 28 L53 28 L53 71 L52 72 L51 72 C50.34 71.98 48.85 71.82 49 73 L47 73 L47 27 L49 27 z"/>
<path style="fill:#979898" d="M51 28 C50.34 28.02 48.85 28.18 49 27 C49.66 26.98 51.15 26.82 51 28 z"/>
<path style="fill:#646464" d="M64 28 L63 27 L64 28 z"/>
<path style="fill:#787878" d="M21 28 L20 29 L21 28 z"/>
<path style="fill:#a8a8a8" d="M34 28 L33 71 C31.99 58.36 30.02 38.98 34 28 z"/>
<path style="fill:#555555" d="M53 71 L53 28 C54.67 40.97 54.67 58.03 53 71 z"/>
<path style="fill:#616161" d="M65 29 L64 28 L65 29 z"/>
<path style="fill:#898989" d="M20 29 L19 30 L20 29 z"/>
<path style="fill:#717171" d="M66 30 L65 29 L66 30 z"/>
<path style="fill:#8c8c8c" d="M67 31 L66 30 L67 31 z"/>
<path style="fill:#a0a0a0" d="M68 32 L67 31 L68 32 z"/>
<path style="fill:#898989" d="M17 33 L16 34 L17 33 z"/>
<path style="fill:#5a5a5a" d="M69 34 L68 33 L69 34 z"/>
<path style="fill:#5e5e5e" d="M24 65 C25.67 56.36 25.67 43.64 24 35 C23.83 34 25.17 33.75 25.75 34.25 L25.75 65.75 C25.17 66.25 23.83 66 24 65 z"/>
<path style="fill:#757575" d="M16 35 L15 36 L16 35 z"/>
<path style="fill:#f8f9f9" d="M24 65 L23 63 L22 62 L22 61 L21 60 L20 56 C20.02 55.34 20.18 53.85 19 54 L19 48 L20 44 L20 43 C21.18 43.15 21.02 41.66 21 41 L21 40 L22 39 L22 38 L23 37 L24 35 C25.67 43.64 25.67 56.36 24 65 z"/>
<path style="fill:#787878" d="M62 36 C60.33 43.97 60.33 56.03 62 64 C62.17 65 60.83 65.25 60.25 64.75 L60.25 35.25 C60.83 34.75 62.17 35 62 36 z"/>
<path style="fill:#f7f7f7" d="M62 36 L63 38 L64 39 L64 40 C63.98 40.66 63.82 42.15 65 42 L65 43 C64.98 43.66 64.82 45.15 66 45 L66 46 L66 54 L64 61 L63 62 L62 64 C60.33 56.03 60.33 43.97 62 36 z"/>
<path style="fill:#a2a2a2" d="M71 37 L70 36 L71 37 z"/>
<path style="fill:#787878" d="M15 37 L14 38 L15 37 z"/>
<path style="fill:#8b8b8b" d="M23 37 L22 38 L23 37 z"/>
<path style="fill:#6a6a6a" d="M64 39 L63 38 L64 39 z"/>
<path style="fill:#a9a9a9" d="M14 39 L13 40 L14 39 z"/>
<path style="fill:#9b9b9b" d="M22 39 L21 40 L22 39 z"/>
<path style="fill:#949494" d="M65 42 C63.82 42.15 63.98 40.66 64 40 C65.18 39.85 65.02 41.34 65 42 z"/>
<path style="fill:#a3a4a4" d="M21 41 C21.02 41.66 21.18 43.15 20 43 C19.98 42.34 19.82 40.85 21 41 z"/>
<path style="fill:#a1a2a2" d="M73 43 C71.82 43.15 71.98 41.66 72 41 C73.18 40.85 73.02 42.34 73 43 z"/>
<path style="fill:#9c9c9c" d="M13 42 C13.02 42.66 13.18 44.15 12 44 C11.98 43.34 11.82 41.85 13 42 z"/>
<path style="fill:#8e8e8e" d="M66 45 C64.82 45.15 64.98 43.66 65 43 C66.18 42.85 66.02 44.34 66 45 z"/>
<path style="fill:#b4b4b4" d="M20 44 L19 48 L20 44 z"/>
<path style="fill:#3e3f3f" d="M66 54 L66 46 C67.65 47.34 67.65 52.66 66 54 z"/>
<path style="fill:#a1a2a2" d="M73 54 L73 46 C74.65 47.34 74.65 52.66 73 54 z"/>
<path style="fill:#848585" d="M20 56 C18.82 56.15 18.98 54.66 19 54 C20.18 53.85 20.02 55.34 20 56 z"/>
<path style="fill:#9e9f9f" d="M13 58 C11.82 58.15 11.98 56.66 12 56 C13.18 55.85 13.02 57.34 13 58 z"/>
<path style="fill:#727272" d="M73 56 C73.02 56.66 73.18 58.15 72 58 C71.98 57.34 71.82 55.85 73 56 z"/>
<path style="fill:#8b8c8c" d="M14 61 C12.82 61.15 12.98 59.66 13 59 C14.18 58.85 14.02 60.34 14 61 z"/>
<path style="fill:#929292" d="M22 61 L21 60 L22 61 z"/>
<path style="fill:#797979" d="M72 60 L71 61 L72 60 z"/>
<path style="fill:#5c5c5c" d="M64 61 L63 62 L64 61 z"/>
<path style="fill:#898989" d="M15 63 L14 62 L15 63 z"/>
<path style="fill:#828282" d="M23 63 L22 62 L23 63 z"/>
<path style="fill:#5c5c5c" d="M71 62 L70 63 L71 62 z"/>
<path style="fill:#9e9e9e" d="M17 67 L16 66 L17 67 z"/>
<path style="fill:#737373" d="M69 66 L68 67 L69 66 z"/>
<path style="fill:#646464" d="M18 68 L17 67 L18 68 z"/>
<path style="fill:#9d9d9d" d="M67 69 L66 70 L67 69 z"/>
<path style="fill:#aaaaaa" d="M20 71 L19 70 L20 71 z"/>
<path style="fill:#6b6b6b" d="M66 70 L65 71 L66 70 z"/>
<path style="fill:#9b9b9b" d="M21 72 L20 71 L21 72 z"/>
<path style="fill:#838383" d="M53 71 L52 72 L53 71 z"/>
<path style="fill:#727272" d="M65 71 L64 72 L65 71 z"/>
<path style="fill:#a1a1a1" d="M22 73 L21 72 L22 73 z"/>
<path style="fill:#a4a4a4" d="M37 73 C36.34 73.02 34.85 73.18 35 72 C35.66 71.98 37.15 71.82 37 73 z"/>
<path style="fill:#717171" d="M51 72 C51.15 73.18 49.66 73.02 49 73 C48.85 71.82 50.34 71.98 51 72 z"/>
<path style="fill:#6f6f6f" d="M64 72 L63 73 L64 72 z"/>
<path style="fill:#7d7d7d" d="M63 73 L62 74 L63 73 z"/>
<path style="fill:#808080" d="M26 76 L25 75 L26 76 z"/>
<path style="fill:#5e5e5e" d="M60 75 L59 76 L60 75 z"/>
<path style="fill:#a7a7a7" d="M59 76 L58 77 L59 76 z"/>
<path style="fill:#aaaaaa" d="M29 78 L28 77 L29 78 z"/>
<path style="fill:#a3a3a3" d="M55 78 L54 79 L55 78 z"/>
<path style="fill:#848585" d="M35 80 C34.34 80.02 32.85 80.18 33 79 C33.66 78.98 35.15 78.82 35 80 z"/>
<path style="fill:#777777" d="M52 79 C52.15 80.18 50.66 80.02 50 80 C49.85 78.82 51.34 78.98 52 79 z"/>
<path style="fill:#7d7d7d" d="M48 80 C45.69 81.66 39.31 81.66 37 80 L48 80 z"/>
</svg>
