<?xml version="1.0" standalone="yes"?>
<svg width="87" height="97">
<path style="fill:#fcfdfd" d="M87 0 L87 97 L0 97 L0 0 L87 0 z"/>
<path style="fill:#858585" d="M40 17 L39 18 L40 17 z"/>
<path style="fill:#1b1c1c" d="M42 21 C39.7 21.14 35.53 21.51 36 18 L39 18 L40 17 C42.68 16.29 41.94 19.45 42 21 z"/>
<path style="fill:#191a1a" d="M49 18 L50 21 L46 21 C42.9 19.16 46.5 14.97 49 18 z"/>
<path style="fill:#8f9090" d="M36 18 C35.53 21.51 39.7 21.14 42 21 L39 23 L38 24 L36 24 C35.54 21.95 33.07 23.38 32 24 L31 23 L31 22 C33.25 23.24 35.52 19.93 33 19 C33.06 17.41 35.05 18.19 36 18 z"/>
<path style="fill:#747575" d="M51 18 L51 20 L50 21 L49 18 L51 18 z"/>
<path style="fill:#232424" d="M52 18 C52.02 18.66 52.18 20.15 51 20 L51 18 L52 18 z"/>
<path style="fill:#bdbdbd" d="M55 19 L54 19 L53 24 C51.82 23.85 51.98 25.34 52 26 C50.82 26.15 50.98 24.66 51 24 L50 23 L50 21 L51 20 C52.18 20.15 52.02 18.66 52 18 C52.95 18.19 54.94 17.41 55 19 z"/>
<path style="fill:#cccccc" d="M32 19 L31 22 L31 23 L30 24 C30.66 21.76 29.24 20.34 27 21 L32 19 z"/>
<path style="fill:#171717" d="M33 19 C35.52 19.93 33.25 23.24 31 22 L32 19 L33 19 z"/>
<path style="fill:#777878" d="M54 19 C52.69 21.51 56.51 23.42 56 20 L57 24 L55 26 L54 27 L54 26 C54.02 25.34 54.18 23.85 53 24 L54 19 z"/>
<path style="fill:#181919" d="M55 19 L56 20 C56.51 23.42 52.69 21.51 54 19 L55 19 z"/>
<path style="fill:#7a7a7a" d="M60 21 L58 21 C57.78 19.67 60.22 19.67 60 21 z"/>
<path style="fill:#797979" d="M27 21 L28 25 L26 27 C26.66 24.76 25.24 23.34 23 24 L27 21 z"/>
<path style="fill:#131414" d="M30 24 C29.34 23.98 27.85 23.82 28 25 L27 21 C29.24 20.34 30.66 21.76 30 24 z"/>
<path style="fill:#7e7e7e" d="M50 21 L50 23 L48 23 L46 21 L50 21 z"/>
<path style="fill:#0a0b0b" d="M60 21 C61.08 22.36 61.08 23.64 60 25 L59 25 L58 24 L58 21 L60 21 z"/>
<path style="fill:#5e5f5f" d="M64 24 C62.65 23.54 61.54 24.65 62 26 L60 25 C61.08 23.64 61.08 22.36 60 21 L64 24 z"/>
<path style="fill:#545454" d="M32 24 L30 26 L27 29 L27 30 L25 30 L26 27 L28 25 C27.85 23.82 29.34 23.98 30 24 L31 23 L32 24 z"/>
<path style="fill:#c9caca" d="M36 24 C34.66 23.67 33.26 24.71 33 26 L30 26 L32 24 C33.07 23.38 35.54 21.95 36 24 z"/>
<path style="fill:#0" d="M39 23 L39 24 L38 24 L39 23 z"/>
<path style="fill:#727272" d="M39 24 L39 23 C40.06 22.57 40.06 24.43 39 24 z"/>
<path style="fill:#1f1f1f" d="M50 23 L51 24 C50.05 23.81 48.06 24.59 48 23 L50 23 z"/>
<path style="fill:#7c7c7c" d="M23 24 L23 25 C21.94 25.43 21.94 23.57 23 24 z"/>
<path style="fill:#0e0e0e" d="M26 27 L23 25 L23 24 C25.24 23.34 26.66 24.76 26 27 z"/>
<path style="fill:#282828" d="M36 24 C36.46 25.35 35.35 26.46 34 26 L33 26 C33.26 24.71 34.66 23.67 36 24 z"/>
<path style="fill:#a3a3a3" d="M45 25 L43 25 C42.78 23.67 45.22 23.67 45 25 z"/>
<path style="fill:#303131" d="M53 24 C54.18 23.85 54.02 25.34 54 26 L53 26 L52 26 C51.98 25.34 51.82 23.85 53 24 z"/>
<path style="fill:#b1b1b1" d="M57 24 L58 24 L59 25 C57.13 25.13 59.18 27.02 60 27 C60.67 29.11 58.42 29.21 57 29 L57 28 C57.46 26.65 56.35 25.54 55 26 L57 24 z"/>
<path style="fill:#141414" d="M64 24 L65 25 L62 28 L62 26 C61.54 24.65 62.65 23.54 64 24 z"/>
<path style="fill:#797979" d="M26 27 L25 30 L25 32 L25 34 L25 35 C23.65 34.54 22.54 35.65 23 37 C21.72 35.25 19.86 37.37 22 38 L21 39 C19.41 39.06 20.19 41.05 20 42 L19 42 L19 41 L19 38 C19.37 35.31 16.02 34.24 14 34 C13.85 32.82 15.34 32.98 16 33 L21 33 C22.96 33.33 21.41 29.61 21 32 C19.74 31.09 19.33 29.15 17 30 C17.06 28.41 19.05 29.19 20 29 C22.63 31.56 24.02 27.97 22 26 L23 25 L26 27 z"/>
<path style="fill:#838383" d="M43 25 L42 26 L43 25 z"/>
<path style="fill:#0f1010" d="M45 25 L46 26 L46 27 C45.55 29.21 46.06 38.49 48 33 L49 32 C48.67 30.66 49.71 29.26 51 29 C51.95 29.19 53.94 28.41 54 30 C52.82 29.85 52.98 31.34 53 32 C53.78 34.24 51.77 35.33 51 37 L50 38 L49 39 C46.84 38.35 46.84 40.65 49 40 L51 41 L52 42 C54.68 45.11 54.91 49.24 56 53 L57 54 C60.46 57.43 53.11 58.16 52 56 L51 55 L51 54 L50 50 C50.5 46.84 49.13 43.75 46 43 C45.81 41.45 42.19 41.45 42 43 C41.34 42.98 39.85 42.82 40 44 C38.71 44.26 37.67 45.66 38 47 L37 54 C36.78 57.06 27.84 58.94 30 55 L31 54 L32 51 C33.59 50.94 32.81 48.95 33 48 L33 47 C34.18 47.15 34.02 45.66 34 45 C35.18 45.15 35.02 43.66 35 43 L37 41 C37.66 41.02 39.15 41.18 39 40 L35 32 L34 31 C33.33 28.89 35.58 28.79 37 29 L38 30 C37.98 30.66 37.82 32.15 39 32 C38.98 32.66 38.82 34.15 40 34 C43.37 36.84 41.56 28.19 42 26 L43 25 L45 25 z"/>
<path style="fill:#919191" d="M46 26 L45 25 L46 26 z"/>
<path style="fill:#5b5b5b" d="M59 25 L60 25 L60 27 C59.18 27.02 57.13 25.13 59 25 z"/>
<path style="fill:#adadad" d="M62 26 L62 28 L60 27 L60 25 L62 26 z"/>
<path style="fill:#878888" d="M65 25 L66 26 C63.97 28.6 65.08 32.57 68 29 L69 29 C64.01 32.87 70.02 37.85 71 31 L73 34 L69 36 L68 37 L67 37 L65 36 C63.53 34.28 62.98 31.09 60 32 L59 31 L62 28 L65 25 z"/>
<path style="fill:#111212" d="M22 26 C24.02 27.97 22.63 31.56 20 29 C19.79 27.58 19.89 25.33 22 26 z"/>
<path style="fill:#a7a8a8" d="M30 26 C29.47 28.8 34.56 29.85 33 26 L34 26 L37 29 C35.58 28.79 33.33 28.89 34 31 C32.82 30.16 32.18 30.16 31 31 C31.71 28.32 28.55 29.06 27 29 L30 26 z"/>
<path style="fill:#252626" d="M33 26 C34.56 29.85 29.47 28.8 30 26 L33 26 z"/>
<path style="fill:#999999" d="M42 26 C41.56 28.19 43.37 36.84 40 34 L42 26 z"/>
<path style="fill:#9a9a9a" d="M54 26 L54 27 C54.31 28.71 55.84 29.15 57 28 L57 29 L57 31 L54 30 C53.94 28.41 51.95 29.19 51 29 L53 26 L54 26 z"/>
<path style="fill:#151515" d="M57 28 C55.84 29.15 54.31 28.71 54 27 L55 26 C56.35 25.54 57.46 26.65 57 28 z"/>
<path style="fill:#0c0c0c" d="M67 26 L68 27 L68 29 C65.08 32.57 63.97 28.6 66 26 L67 26 z"/>
<path style="fill:#767676" d="M68 27 L67 26 L68 27 z"/>
<path style="fill:#c2c2c2" d="M48 33 C46.06 38.49 45.55 29.21 46 27 L48 33 z"/>
<path style="fill:#353535" d="M62 28 L59 31 L57 31 L57 29 C58.42 29.21 60.67 29.11 60 27 L62 28 z"/>
<path style="fill:#161717" d="M31 31 L27 30 L27 29 C28.55 29.06 31.71 28.32 31 31 z"/>
<path style="fill:#737373" d="M38 30 L37 29 L38 30 z"/>
<path style="fill:#0c0d0d" d="M70 29 L71 30 L71 31 C70.02 37.85 64.01 32.87 69 29 L70 29 z"/>
<path style="fill:#a6a6a6" d="M71 30 L70 29 L71 30 z"/>
<path style="fill:#141414" d="M21 32 L21 33 L16 33 L17 30 C19.33 29.15 19.74 31.09 21 32 z"/>
<path style="fill:#b5b5b5" d="M27 30 L31 31 C31.15 32.18 29.66 32.02 29 32 L25 32 L25 30 L27 30 z"/>
<path style="fill:#f2f2f2" d="M34 31 L35 32 L39 40 C38.34 39.98 36.85 39.82 37 41 L35 43 C33.82 42.85 33.98 44.34 34 45 C32.82 44.85 32.98 46.34 33 47 L33 48 C31.41 48.06 32.19 50.05 32 51 L31 54 L30 55 C27.84 58.94 36.78 57.06 37 54 L38 47 C37.67 45.66 38.71 44.26 40 44 C40.66 44.02 42.15 44.18 42 43 L46 43 C49.13 43.75 50.5 46.84 50 50 L51 54 L51 55 L52 56 C53.11 58.16 60.46 57.43 57 54 L56 53 C54.91 49.24 54.68 45.11 52 42 L51 41 L49 40 L49 39 L50 38 L51 37 C51.77 35.33 53.78 34.24 53 32 C54.18 32.15 54.02 30.66 54 30 L57 31 L59 31 L60 32 L59 32 C57.67 31.78 57.67 34.22 59 34 C59.95 34.19 61.94 33.41 62 35 C56.7 35.44 64.11 39.1 65 36 L67 37 L67 39 C65.01 37.45 59.72 36.99 61 41 C61.19 41.95 60.41 43.94 62 44 C61.49 47.35 69.38 46.99 68.25 43.25 C69.48 43.33 69.52 46.94 68 47 C66.44 46.69 60.93 46.89 64 49 L62 51 L62 52 C61.85 53.18 63.34 53.02 64 53 L64 54 C62.58 53.79 60.33 53.89 61 56 L60 58 L60 59 L54 61 L51 62 L50 62 L50 60 C50.02 59.34 50.18 57.85 49 58 L48 56 L47 55 C46.35 53.75 42.75 51.72 42 54 L41 55 L40 56 L39 57 C37.82 56.85 37.98 58.34 38 59 L38 62 L36 62 C35.94 60.41 33.95 61.19 33 61 L28 59 L28 58 L27 56 C27.67 53.89 25.42 53.79 24 54 L24 53 C25.18 53.15 25.02 51.66 25 51 L23 49 C24.35 49.46 25.46 48.35 25 47 L25 46 L26 41 C27.48 41.04 27.48 37.96 26 38 L22 38 C19.86 37.37 21.72 35.25 23 37 C25.37 38.27 29.17 35.08 25 35 L25 34 C26.55 33.94 29.71 34.68 29 32 C29.66 32.02 31.15 32.18 31 31 C32.18 30.16 32.82 30.16 34 31 z"/>
<path style="fill:#5f5f5f" d="M39 32 C37.82 32.15 37.98 30.66 38 30 C39.18 29.85 39.02 31.34 39 32 z"/>
<path style="fill:#8e8e8e" d="M54 30 C54.02 30.66 54.18 32.15 53 32 C52.98 31.34 52.82 29.85 54 30 z"/>
<path style="fill:#e2e3e3" d="M21 33 L21 32 C21.41 29.61 22.96 33.33 21 33 z"/>
<path style="fill:#646464" d="M35 32 L34 31 L35 32 z"/>
<path style="fill:#0d0e0e" d="M29 32 C29.71 34.68 26.55 33.94 25 34 L25 32 L29 32 z"/>
<path style="fill:#828282" d="M49 32 L48 33 L49 32 z"/>
<path style="fill:#818282" d="M59 32 L59 34 C57.67 34.22 57.67 31.78 59 32 z"/>
<path style="fill:#1b1c1c" d="M60 32 C62.98 31.09 63.53 34.28 65 36 C64.05 35.81 62.06 36.59 62 35 C61.94 33.41 59.95 34.19 59 34 L59 32 L60 32 z"/>
<path style="fill:#131313" d="M19 38 L18 39 L16 39 C16.15 37.82 14.66 37.98 14 38 L14 36 L14 34 C16.02 34.24 19.37 35.31 19 38 z"/>
<path style="fill:#1c1c1c" d="M73 34 C75.47 35.2 73.45 38.21 72 39 C71.05 38.81 69.06 39.59 69 38 L69 36 L73 34 z"/>
<path style="fill:#393939" d="M25 35 C29.17 35.08 25.37 38.27 23 37 C22.54 35.65 23.65 34.54 25 35 z"/>
<path style="fill:#545454" d="M62 35 C62.06 36.59 64.05 35.81 65 36 C64.11 39.1 56.7 35.44 62 35 z"/>
<path style="fill:#9b9b9b" d="M14 36 L14 38 C12.67 38.22 12.67 35.78 14 36 z"/>
<path style="fill:#e0e1e1" d="M69 36 L69 38 L68 37 L69 36 z"/>
<path style="fill:#8a8a8a" d="M51 37 L50 38 L51 37 z"/>
<path style="fill:#676767" d="M68 37 L69 38 C69.06 39.59 71.05 38.81 72 39 L74 39 C73.94 40.59 71.95 39.81 71 40 C68.84 39.35 68.84 41.65 71 41 L71 44 L70 45 L71 52 L72 53 L72 54 L71 55 C71.15 53.82 69.66 53.98 69 54 C69.43 52.94 67.57 52.94 68 54 L67 54 L67 52 C68.56 52.9 70.02 50.19 68 50 L68 47 C69.52 46.94 69.48 43.33 68.25 43.25 C69.38 46.99 61.49 47.35 62 44 C63.89 45.65 68.23 45.62 67 42 C68.33 42.22 68.33 39.78 67 40 L67 39 L67 37 L68 37 z"/>
<path style="fill:#c3c3c3" d="M19 38 L19 41 C17.82 40.85 17.98 42.34 18 43 L17 43 L17 41 L18 39 L19 38 z"/>
<path style="fill:#181818" d="M26 38 L26 41 L21 39 L22 38 L26 38 z"/>
<path style="fill:#7b7b7b" d="M26 41 L26 38 C27.48 37.96 27.48 41.04 26 41 z"/>
<path style="fill:#212121" d="M67 39 L67 40 L61 41 C59.72 36.99 65.01 37.45 67 39 z"/>
<path style="fill:#696a6a" d="M16 39 L18 39 L17 41 L12 40 L16 39 z"/>
<path style="fill:#b5b5b5" d="M21 39 L26 41 L25 46 L25 45 C26.15 41.35 22.34 41.89 20 42 C20.19 41.05 19.41 39.06 21 39 z"/>
<path style="fill:#a4a4a4" d="M49 39 L49 40 C46.84 40.65 46.84 38.35 49 39 z"/>
<path style="fill:#0b0b0b" d="M75 39 L76 40 L76 42 L71 44 L71 41 L71 40 C71.95 39.81 73.94 40.59 74 39 L75 39 z"/>
<path style="fill:#7c7c7c" d="M76 40 L75 39 L76 40 z"/>
<path style="fill:#b0b1b1" d="M12 40 C11.34 42.24 12.76 43.66 15 43 C15.15 44.18 13.66 44.02 13 44 C8.667 43.94 12.29 48.81 15 48 L17 51 L11 49 C9.005 46.33 10.19 41.98 12 40 z"/>
<path style="fill:#141515" d="M17 41 L17 43 L15 43 C12.76 43.66 11.34 42.24 12 40 L17 41 z"/>
<path style="fill:#7f8080" d="M39 40 C39.15 41.18 37.66 41.02 37 41 C36.85 39.82 38.34 39.98 39 40 z"/>
<path style="fill:#bdbdbd" d="M67 40 C68.33 39.78 68.33 42.22 67 42 C65.27 42.3 61.36 40.9 62 44 C60.41 43.94 61.19 41.95 61 41 L67 40 z"/>
<path style="fill:#c6c7c7" d="M71 40 L71 41 C68.84 41.65 68.84 39.35 71 40 z"/>
<path style="fill:#1b1b1b" d="M19 41 L19 42 L19 46 C17.41 45.94 18.19 43.95 18 43 C17.98 42.34 17.82 40.85 19 41 z"/>
<path style="fill:#868686" d="M52 42 L51 41 L52 42 z"/>
<path style="fill:#c2c3c3" d="M20 42 L20 45 L25 46 L25 47 L20 48 C17.98 48.45 18.07 47.16 19 46 L19 42 L20 42 z"/>
<path style="fill:#0b0c0c" d="M25 45 L20 45 L20 42 C22.34 41.89 26.15 41.35 25 45 z"/>
<path style="fill:#7d7e7e" d="M46 43 L42 43 C42.19 41.45 45.81 41.45 46 43 z"/>
<path style="fill:#111212" d="M67 42 C68.23 45.62 63.89 45.65 62 44 C61.36 40.9 65.27 42.3 67 42 z"/>
<path style="fill:#a6a6a6" d="M76 42 L77 44 L71 46 L70 45 L71 44 L76 42 z"/>
<path style="fill:#848484" d="M17 43 L18 43 C18.19 43.95 17.41 45.94 19 46 C18.07 47.16 17.98 48.45 20 48 L20 50 L19 50 C18.79 48.03 17.44 50.2 18 51 L17 51 L15 48 C15.66 48.02 17.15 48.18 17 47 C17.02 46.34 17.18 44.85 16 45 C15.05 44.81 13.06 45.59 13 44 C13.66 44.02 15.15 44.18 15 43 L17 43 z"/>
<path style="fill:#686868" d="M35 43 C35.02 43.66 35.18 45.15 34 45 C33.98 44.34 33.82 42.85 35 43 z"/>
<path style="fill:#959696" d="M42 43 C42.15 44.18 40.66 44.02 40 44 C39.85 42.82 41.34 42.98 42 43 z"/>
<path style="fill:#0a0b0b" d="M13 44 C13.06 45.59 15.05 44.81 16 45 C15.98 45.66 15.82 47.15 17 47 C17.15 48.18 15.66 48.02 15 48 C12.29 48.81 8.667 43.94 13 44 z"/>
<path style="fill:#1b1c1c" d="M77 44 L77 47 L71 48 L71 46 L77 44 z"/>
<path style="fill:#e1e2e2" d="M17 47 C15.82 47.15 15.98 45.66 16 45 C17.18 44.85 17.02 46.34 17 47 z"/>
<path style="fill:#626363" d="M25 45 L25 46 L20 45 L25 45 z"/>
<path style="fill:#666666" d="M34 45 C34.02 45.66 34.18 47.15 33 47 C32.98 46.34 32.82 44.85 34 45 z"/>
<path style="fill:#e2e2e2" d="M71 46 L71 48 L71 51 L71 52 L70 45 L71 46 z"/>
<path style="fill:#151515" d="M25 47 C25.46 48.35 24.35 49.46 23 49 L20 50 L20 48 L25 47 z"/>
<path style="fill:#b6b6b6" d="M38 47 L37 54 L38 47 z"/>
<path style="fill:#151616" d="M68 47 L68 50 L64 49 C60.93 46.89 66.44 46.69 68 47 z"/>
<path style="fill:#9d9e9e" d="M77 47 L77 49 L76 49 L71 51 L71 48 L77 47 z"/>
<path style="fill:#818282" d="M33 48 C32.81 48.95 33.59 50.94 32 51 C32.19 50.05 31.41 48.06 33 48 z"/>
<path style="fill:#959696" d="M11 49 L11 52 C9.522 52.04 9.522 48.96 11 49 z"/>
<path style="fill:#0c0c0c" d="M17 51 L17 53 L16 53 L11 52 L11 49 L17 51 z"/>
<path style="fill:#3e3f3f" d="M19 50 C19.19 50.95 18.41 52.94 20 53 L20 54 L20 58 L18 55 L18 51 C17.44 50.2 18.79 48.03 19 50 z"/>
<path style="fill:#b4b4b4" d="M23 49 L25 51 C23.27 51.3 19.36 49.9 20 53 C18.41 52.94 19.19 50.95 19 50 L20 50 L23 49 z"/>
<path style="fill:#bebebe" d="M68 50 C70.02 50.19 68.56 52.9 67 52 C67.15 50.82 65.66 50.98 65 51 L62 51 L64 49 L68 50 z"/>
<path style="fill:#030404" d="M76 49 L72 53 L71 52 L71 51 L76 49 z"/>
<path style="fill:#535353" d="M77 49 C78.22 52.88 75.13 53.6 72 53 L76 49 L77 49 z"/>
<path style="fill:#a7a8a8" d="M51 54 L50 50 L51 54 z"/>
<path style="fill:#e7e8e8" d="M18 51 L18 55 C16.82 55.15 16.98 53.66 17 53 L17 51 L18 51 z"/>
<path style="fill:#262727" d="M25 51 C25.02 51.66 25.18 53.15 24 53 L20 54 L20 53 C19.36 49.9 23.27 51.3 25 51 z"/>
<path style="fill:#060606" d="M65 51 C64.85 52.18 66.34 52.02 67 52 L67 54 L66 54 C66.15 52.82 64.66 52.98 64 53 C64.15 51.82 62.66 51.98 62 52 L62 51 L65 51 z"/>
<path style="fill:#5c5c5c" d="M67 52 C66.34 52.02 64.85 52.18 65 51 C65.66 50.98 67.15 50.82 67 52 z"/>
<path style="fill:#6a6a6a" d="M16 53 L11 52 L16 53 z"/>
<path style="fill:#616161" d="M64 53 C63.34 53.02 61.85 53.18 62 52 C62.66 51.98 64.15 51.82 64 53 z"/>
<path style="fill:#1f2020" d="M17 53 C16.98 53.66 16.82 55.15 18 55 L18 57 L17 57 L15 57 L11 57 L16 53 L17 53 z"/>
<path style="fill:#bbbcbc" d="M24 53 L24 54 C22.18 54.74 20.21 55.52 21 58 L20 58 L20 54 L24 53 z"/>
<path style="fill:#444444" d="M47 55 C41.83 58.02 47.54 69.32 44 74 L43 55 L42 54 C42.75 51.72 46.35 53.75 47 55 z"/>
<path style="fill:#939393" d="M57 54 L56 53 L57 54 z"/>
<path style="fill:#707070" d="M66 54 L65 55 L64 54 L64 53 C64.66 52.98 66.15 52.82 66 54 z"/>
<path style="fill:#3f4040" d="M69 54 L68 59 L66 57 L66 55 C67.16 55.93 68.45 56.02 68 54 C67.57 52.94 69.43 52.94 69 54 z"/>
<path style="fill:#181818" d="M24 54 C25.42 53.79 27.67 53.89 27 56 L21 58 C20.21 55.52 22.18 54.74 24 54 z"/>
<path style="fill:#656565" d="M31 54 L30 55 L31 54 z"/>
<path style="fill:#747474" d="M42 54 L41 55 L42 54 z"/>
<path style="fill:#080909" d="M43 55 L43 74 C43.33 79.9 39.63 74.58 39 72 L38 62 L38 59 C39.18 59.15 39.02 57.66 39 57 L40 56 L41 55 L42 54 L43 55 z"/>
<path style="fill:#101111" d="M64 54 L65 55 L66 55 L66 57 C65.31 58.49 62.44 56.45 61 56 C60.33 53.89 62.58 53.79 64 54 z"/>
<path style="fill:#c9c9c9" d="M66 54 L67 54 L68 54 C68.45 56.02 67.16 55.93 66 55 L65 55 L66 54 z"/>
<path style="fill:#b2b2b2" d="M71 55 C69.82 54.85 69.98 56.34 70 57 L70 59 L69 59 L68 59 L69 54 C69.66 53.98 71.15 53.82 71 55 z"/>
<path style="fill:#1a1a1a" d="M76 57 L74 57 L72 57 L70 57 C69.98 56.34 69.82 54.85 71 55 L72 54 C74.27 53.19 79.33 54.56 76 57 z"/>
<path style="fill:#b9baba" d="M20 58 L20 61 L18 59 L18 57 L18 55 L20 58 z"/>
<path style="fill:#777777" d="M41 55 L40 56 L41 55 z"/>
<path style="fill:#f1f2f2" d="M44 74 L43 74 L43 55 L44 74 z"/>
<path style="fill:#090909" d="M47 55 L48 56 L49 58 L49 60 L49 69 L49 72 C47.41 72.06 48.19 74.05 48 75 L45 78 L45 79 L46 81 C46.71 83.68 43.55 82.94 42 83 C42.02 82.34 42.18 80.85 41 81 L43 79 L43 78 L44 74 C47.54 69.32 41.83 58.02 47 55 z"/>
<path style="fill:#808080" d="M48 56 L47 55 L48 56 z"/>
<path style="fill:#929292" d="M52 56 L51 55 L52 56 z"/>
<path style="fill:#888989" d="M27 56 L28 58 C25.59 57.76 22.05 58.92 23 62 C21.76 61.39 21.02 59.44 21 58 L27 56 z"/>
<path style="fill:#7f7f7f" d="M40 56 L39 57 L40 56 z"/>
<path style="fill:#777878" d="M66 57 L68 59 L69 59 C66.9 62.77 70.42 61.13 72 63 L71 64 L67 64 L65.75 61.75 L65 61 C65.44 58.3 61.69 58.74 60 58 L61 56 C62.44 56.45 65.31 58.49 66 57 z"/>
<path style="fill:#7a7a7a" d="M15 57 C14.78 58.33 17.22 58.33 17 57 L18 57 L18 59 L13 59 L11 57 L15 57 z"/>
<path style="fill:#e0e1e1" d="M17 57 C17.22 58.33 14.78 58.33 15 57 L17 57 z"/>
<path style="fill:#999a9a" d="M39 57 C39.02 57.66 39.18 59.15 38 59 C37.98 58.34 37.82 56.85 39 57 z"/>
<path style="fill:#868787" d="M72 57 C71.78 58.33 74.22 58.33 74 57 L76 57 L75 59 L70 59 L70 57 L72 57 z"/>
<path style="fill:#ebebeb" d="M74 57 C74.22 58.33 71.78 58.33 72 57 L74 57 z"/>
<path style="fill:#414242" d="M21 58 C21.02 59.44 21.76 61.39 23 62 C23.05 63.66 24.7 65.48 22 66 L21 64 C22.65 63.86 20.81 61.2 20 61 L20 58 L21 58 z"/>
<path style="fill:#080808" d="M28 58 L28 59 L28 61 L23 62 C22.05 58.92 25.59 57.76 28 58 z"/>
<path style="fill:#989999" d="M50 60 L49 60 L49 58 C50.18 57.85 50.02 59.34 50 60 z"/>
<path style="fill:#090a0a" d="M65 61 C63.55 62.11 59.58 61.46 60 59 L60 58 C61.69 58.74 65.44 58.3 65 61 z"/>
<path style="fill:#7d7d7d" d="M13 59 L13 62 C11.52 62.04 11.52 58.96 13 59 z"/>
<path style="fill:#0c0c0c" d="M18 59 L20 61 L15 64 L14 64 C14.02 63.34 14.18 61.85 13 62 L13 59 L18 59 z"/>
<path style="fill:#6c6c6c" d="M33 61 L28 61 L28 59 L33 61 z"/>
<path style="fill:#606161" d="M60 59 C59.58 61.46 63.55 62.11 65 61 L65.75 61.75 L67 64 L65 67 L61 67 C64.28 62.92 57.54 60.12 54 61 L60 59 z"/>
<path style="fill:#131313" d="M70 59 L75 59 L75 61 C73.82 60.85 73.98 62.34 74 63 L72 68 L71 69 L65 67 L67 64 L71 64 L72 63 C70.42 61.13 66.9 62.77 69 59 L70 59 z"/>
<path style="fill:#999999" d="M75 61 L75 59 C76.33 58.78 76.33 61.22 75 61 z"/>
<path style="fill:#323333" d="M50 60 L50 62 L49 69 L49 60 L50 60 z"/>
<path style="fill:#808181" d="M21 64 L15 64 L20 61 C20.81 61.2 22.65 63.86 21 64 z"/>
<path style="fill:#787878" d="M28 61 C25.54 62.65 23.68 66.38 28 67 L28 68 C25.2 67.83 21.74 68.17 20 70 L18 70 L17 69 C18.85 68.8 21.32 67.97 22 66 C24.7 65.48 23.05 63.66 23 62 L28 61 z"/>
<path style="fill:#090a0a" d="M33 61 C33.95 61.19 35.94 60.41 36 62 L35.75 68.75 C33.41 67.56 30.89 66.47 28 67 C23.68 66.38 25.54 62.65 28 61 L33 61 z"/>
<path style="fill:#0a0a0a" d="M54 61 C57.54 60.12 64.28 62.92 61 67 C57.31 66.39 53.89 67.54 51.25 69.75 L51 62 L54 61 z"/>
<path style="fill:#939393" d="M75 61 C75.02 61.66 75.18 63.15 74 63 C73.98 62.34 73.82 60.85 75 61 z"/>
<path style="fill:#656565" d="M14 64 C12.82 64.15 12.98 62.66 13 62 C14.18 61.85 14.02 63.34 14 64 z"/>
<path style="fill:#5d5d5d" d="M38 62 L39 72 L37 72 L28 68 L28 67 C30.89 66.47 33.41 67.56 35.75 68.75 L36 62 L38 62 z"/>
<path style="fill:#676868" d="M51 62 L51.25 69.75 C53.89 67.54 57.31 66.39 61 67 L61 68 C56.93 68.64 53.05 69.96 50 73 L49 72 L49 69 L50 62 L51 62 z"/>
<path style="fill:#d3d3d3" d="M72 63 L71 64 L72 63 z"/>
<path style="fill:#101010" d="M21 64 L22 66 C21.32 67.97 18.85 68.8 17 69 L16 68 C16.02 67.34 16.18 65.85 15 66 L15 64 L21 64 z"/>
<path style="fill:#a0a1a1" d="M16 68 C14.82 68.15 14.98 66.66 15 66 C16.18 65.85 16.02 67.34 16 68 z"/>
<path style="fill:#9e9f9f" d="M65 67 L71 69 C71.15 70.18 69.66 70.02 69 70 L61 68 L61 67 L65 67 z"/>
<path style="fill:#9c9c9c" d="M17 69 L16 68 L17 69 z"/>
<path style="fill:#0e0f0f" d="M28 68 L37 72 C38.65 74.06 42.07 79.31 37 77 C32.91 72.32 26.13 70.53 20 70 C21.74 68.17 25.2 67.83 28 68 z"/>
<path style="fill:#0e0f0f" d="M61 68 L69 70 L68 73 L67 74 L63 77 L62 78 L58 80 L57 81 L49 81 L49 80 C51.52 76.49 56.08 74.37 60 73 L67 71 C65.48 69.21 60.66 71.07 59 72 C54.79 72.68 51.56 75.89 48 78 L48 75 L50 73 C53.05 69.96 56.93 68.64 61 68 z"/>
<path style="fill:#a8a8a8" d="M72 68 L71 69 L72 68 z"/>
<path style="fill:#0f1010" d="M20 70 L37 77 L38 81 L31 81 C31.15 79.82 29.66 79.98 29 80 L23 76 L22 75 L21 74 L20 73 L18 70 L20 70 z"/>
<path style="fill:#959595" d="M37 77 L20 70 C26.13 70.53 32.91 72.32 37 77 z"/>
<path style="fill:#737474" d="M60 73 L59 72 C60.66 71.07 65.48 69.21 67 71 L60 73 z"/>
<path style="fill:#818282" d="M39 72 C39.63 74.58 43.33 79.9 43 74 L44 74 L43 78 C41.94 77.57 41.94 79.43 43 79 L41 81 L39 81 L38 81 L37 77 C42.07 79.31 38.65 74.06 37 72 L39 72 z"/>
<path style="fill:#636464" d="M49 72 L50 73 L48 75 C48.19 74.05 47.41 72.06 49 72 z"/>
<path style="fill:#c4c4c4" d="M50 73 L49 72 L50 73 z"/>
<path style="fill:#a6a6a6" d="M59 72 L60 73 C56.08 74.37 51.52 76.49 49 80 C47.82 80.15 47.98 78.66 48 78 C51.56 75.89 54.79 72.68 59 72 z"/>
<path style="fill:#6f6f6f" d="M21 74 L20 73 L21 74 z"/>
<path style="fill:#747474" d="M68 73 L67 74 L68 73 z"/>
<path style="fill:#717171" d="M22 75 L21 74 L22 75 z"/>
<path style="fill:#747474" d="M23 76 L22 75 L23 76 z"/>
<path style="fill:#6e6e6e" d="M48 75 L48 78 C47.98 78.66 47.82 80.15 49 80 L49 81 L48 81 L46 81 L45 79 C46.06 79.43 46.06 77.57 45 78 L48 75 z"/>
<path style="fill:#7b7b7b" d="M63 77 L62 78 L63 77 z"/>
<path style="fill:#f2f2f2" d="M43 78 L43 79 C41.94 79.43 41.94 77.57 43 78 z"/>
<path style="fill:#d4d4d4" d="M45 79 L45 78 C46.06 77.57 46.06 79.43 45 79 z"/>
<path style="fill:#a5a5a5" d="M31 81 C30.34 81.02 28.85 81.18 29 80 C29.66 79.98 31.15 79.82 31 81 z"/>
<path style="fill:#7f7f7f" d="M58 80 L57 81 L58 80 z"/>
<path style="fill:#bfbfbf" d="M38 81 L39 81 C37.66 82.65 32.34 82.65 31 81 L38 81 z"/>
<path style="fill:#6f6f6f" d="M42 83 C40.82 83.15 40.98 81.66 41 81 C42.18 80.85 42.02 82.34 42 83 z"/>
<path style="fill:#c2c3c3" d="M49 81 L57 81 C55.34 82.65 49.66 82.65 48 81 L49 81 z"/>
</svg>
