<?xml version="1.0" standalone="yes"?>
<svg width="87" height="97">
<path style="fill:#fdfdfd" d="M87 0 L87 97 L0 97 L0 0 L87 0 z"/>
<path style="fill:#626363" d="M49 20 L36 20 C38.97 18.34 46.03 18.34 49 20 z"/>
<path style="fill:#0d0d0d" d="M36 20 L49 20 L52 20 C51.85 21.18 53.34 21.02 54 21 L55 21 L56 22 L58 23 L59 24 L61 25 L62 26 L63 27 L64 28 L65 29 L66 30 L67 31 L68 33 L69 34 L70 37 L71 38 L71 39 C70.98 39.66 70.82 41.15 72 41 L72 43 L72 55 L72 56 C70.82 55.85 70.98 57.34 71 58 L70 62 L69 63 L69 64 L68 65 L67 66 L64 70 L63 71 L60 73 L59 74 L58 74 L57 75 L56 75 L55 76 C54.34 75.98 52.85 75.82 53 77 L52 77 C51.34 76.98 49.85 76.82 50 78 L47 78 L43 79 L40 79 C40.15 77.82 38.66 77.98 38 78 L35 78 C35.15 76.82 33.66 76.98 33 77 L29 76 L28 75 L26 74 L25 73 L19 67 L18 66 L16 62 C16.02 61.34 16.18 59.85 15 60 L14 56 C14.02 55.34 14.18 53.85 13 54 L13 44 C14.18 44.15 14.02 42.66 14 42 L15 38 C16.18 38.15 16.02 36.66 16 36 L18 32 L19 31 L25 25 L26 24 L28 23 L29 22 L30 22 L31 21 L36 20 z"/>
<path style="fill:#818282" d="M54 21 C53.34 21.02 51.85 21.18 52 20 C52.66 19.98 54.15 19.82 54 21 z"/>
<path style="fill:#929292" d="M31 21 L30 22 L31 21 z"/>
<path style="fill:#868686" d="M56 22 L55 21 L56 22 z"/>
<path style="fill:#a5a5a5" d="M29 22 L28 23 L29 22 z"/>
<path style="fill:#a0a0a0" d="M40 23 L40 24 L35 26 L26 30 C29.1 25.66 35 23.79 40 23 z"/>
<path style="fill:#c7c7c7" d="M48 24 C47.34 23.98 45.85 23.82 46 25 C44.24 23.64 41.76 23.64 40 25 L40 24 L40 23 L48 24 z"/>
<path style="fill:#656565" d="M59 24 L58 23 L59 24 z"/>
<path style="fill:#818181" d="M26 24 L25 25 L26 24 z"/>
<path style="fill:#535454" d="M40 24 L40 25 L36 29 C36.15 27.82 34.66 27.98 34 28 L35 26 L40 24 z"/>
<path style="fill:#eff0f0" d="M46 25 L46 26 C43.1 24.36 40.54 26.06 40 29 C39.34 28.98 37.85 28.82 38 30 L37 31 L36 31 L36 30 L36 29 L40 25 C41.76 23.64 44.24 23.64 46 25 z"/>
<path style="fill:#909090" d="M48 24 L52 25 L47 26 L46 26 L46 25 C45.85 23.82 47.34 23.98 48 24 z"/>
<path style="fill:#2b2b2b" d="M46 26 L46 29 C44.07 29.77 42.42 31.78 43 34 L44 36 C42.45 36.19 42.45 39.81 44 40 L44 41 L41 41 L41 40 C42.59 39.94 41.81 37.95 42 37 L39 34 C40.59 33.94 39.81 31.95 40 31 L41 31 C40.32 34.25 42.68 34.25 42 31 L40 29 C40.54 26.06 43.1 24.36 46 26 z"/>
<path style="fill:#424343" d="M52 25 L54 27 L53 28 L52 28 C52.43 26.94 50.57 26.94 51 28 L50 29 L47 26 L52 25 z"/>
<path style="fill:#9d9d9d" d="M68 42 L66 45 C67.21 37.01 60.32 30.52 54 27 L52 25 C59.63 26.59 66.03 34.66 68 42 z"/>
<path style="fill:#8a8a8a" d="M62 26 L61 25 L62 26 z"/>
<path style="fill:#0b0c0c" d="M35 26 L34 28 C31.66 28.03 29.03 30.66 29 33 L25 39 L24 49 L24 58 C25.1 61.39 26.47 65.91 29.75 67.75 L25 57 C24.54 53.37 24.8 49.51 29 52 L38 62 C37.86 63.88 39.88 61.86 38 62 C37.78 57.64 32.71 53.5 29 52 L26 49 L26 39 C27.52 37.72 28.71 35.12 29 33 L34 28 C34.66 27.98 36.15 27.82 36 29 L36 30 L35 31 L34 33 C32.82 32.85 32.98 34.34 33 35 L33 37 C31.82 36.85 31.98 38.34 32 39 L32 40 C30.82 39.85 30.98 41.34 31 42 L30 46 L31 47 L33 48 L34 49 L35 49 L38 54 L39 55 C40.5 58.81 43.32 67.79 36 64 C32.86 59.89 29.02 62.05 33 66 L33 70 L25 67 L19 54 L19 50 C20.46 47.19 19.29 44.95 19 42 C20.04 37.35 23.54 33.97 26 30 L35 26 z"/>
<path style="fill:#d9d9d9" d="M47 26 L50 29 L51 31 L49 34 L48 30 C48.15 28.82 46.66 28.98 46 29 L46 26 L47 26 z"/>
<path style="fill:#636363" d="M63 27 L62 26 L63 27 z"/>
<path style="fill:#c4c4c4" d="M52 28 L51 28 C50.57 26.94 52.43 26.94 52 28 z"/>
<path style="fill:#0a0a0a" d="M54 27 C60.32 30.52 67.21 37.01 66 45 L66 46 C64.67 45.78 64.67 48.22 66 48 L67 49 L67 50 L67 52 C66.98 60.34 60.17 69.33 52 71 L53 64 L54 63 L54 62 C56.66 61.67 53.33 58.34 53 61 L52 62 C51.34 61.98 49.85 61.82 50 63 L45 65 L45 61 L45 60 C46.18 60.15 46.02 58.66 46 58 L47 55 L48 54 L52 49 C56.72 47.42 55.57 44.66 54 41 L53 37 L53 36 C53.02 35.34 53.18 33.85 52 34 L51 31 L50 29 L51 28 L52 28 C60.33 35.72 63.99 50.49 52 56 L51 57 L50 58 L49 59 C44.93 60.46 49.16 63.53 49 59 L50 58 L51 57 L52 56 C62.7 47.87 59.33 61.47 56.25 67.75 L61 59 L62 50 L61 42 C60.56 36.6 57.58 31.15 53 28 L54 27 z"/>
<path style="fill:#858585" d="M34 28 L29 33 C29.03 30.66 31.66 28.03 34 28 z"/>
<path style="fill:#7d7d7d" d="M53 28 C57.58 31.15 60.56 36.6 61 42 L62 50 L61 59 L56.25 67.75 C59.33 61.47 62.7 47.87 52 56 C63.99 50.49 60.33 35.72 52 28 L53 28 z"/>
<path style="fill:#626262" d="M65 29 L64 28 L65 29 z"/>
<path style="fill:#a0a1a1" d="M40 29 L42 31 L41 31 L40 31 C40.15 29.82 38.66 29.98 38 30 C37.85 28.82 39.34 28.98 40 29 z"/>
<path style="fill:#a6a7a7" d="M46 29 C46.66 28.98 48.15 28.82 48 30 C45.69 29.51 44.48 32.08 45 34 L43 34 C42.42 31.78 44.07 29.77 46 29 z"/>
<path style="fill:#757575" d="M66 30 L65 29 L66 30 z"/>
<path style="fill:#a8a9a9" d="M26 30 C23.54 33.97 20.04 37.35 19 42 L18 42 C18.92 37.49 21.52 31.56 26 30 z"/>
<path style="fill:#8f8f8f" d="M36 30 L36 31 L35 31 L36 30 z"/>
<path style="fill:#919191" d="M38 30 L37 31 L38 30 z"/>
<path style="fill:#030303" d="M40 31 C39.81 31.95 40.59 33.94 39 34 C36.89 34.67 36.79 32.42 37 31 L38 30 C38.66 29.98 40.15 29.82 40 31 z"/>
<path style="fill:#040505" d="M48 30 L49 34 L45 34 C44.48 32.08 45.69 29.51 48 30 z"/>
<path style="fill:#9c9c9c" d="M67 31 L66 30 L67 31 z"/>
<path style="fill:#626262" d="M19 31 L18 32 L19 31 z"/>
<path style="fill:#eeeeee" d="M36 31 L36 36 C34.4 36.45 34.4 40.55 36 41 L40 43 L35 48 L35 49 L34 49 L33 48 L31 47 L30 46 L31 42 C32.18 42.15 32.02 40.66 32 40 L32 39 C33.18 39.15 33.02 37.66 33 37 L33 35 C34.18 35.15 34.02 33.66 34 33 L35 31 L36 31 z"/>
<path style="fill:#8c8c8c" d="M37 31 C36.79 32.42 36.89 34.67 39 34 L42 37 C40.41 37.06 41.19 39.05 41 40 C39.49 38.24 40.17 34.51 36 36 L36 31 L37 31 z"/>
<path style="fill:#fdfdfd" d="M42 31 C42.68 34.25 40.32 34.25 41 31 L42 31 z"/>
<path style="fill:#ececec" d="M51 31 L52 34 C51.98 34.66 51.82 36.15 53 36 L53 37 L54 41 C55.57 44.66 56.72 47.42 52 49 L50 46 L50 45 L49 44 L46 44 L45 43 C44.85 41.82 46.34 41.98 47 42 L49 42 L50 41 C51.55 40.81 51.55 37.19 50 37 L46 36 L45 36 L49 34 L51 31 z"/>
<path style="fill:#797979" d="M29 33 C28.71 35.12 27.52 37.72 26 39 L25 39 L29 33 z"/>
<path style="fill:#707070" d="M34 33 C34.02 33.66 34.18 35.15 33 35 C32.98 34.34 32.82 32.85 34 33 z"/>
<path style="fill:#848484" d="M69 34 L68 33 L69 34 z"/>
<path style="fill:#5e5f5f" d="M45 34 L49 34 L45 36 L44 36 L43 34 L45 34 z"/>
<path style="fill:#737474" d="M53 36 C51.82 36.15 51.98 34.66 52 34 C53.18 33.85 53.02 35.34 53 36 z"/>
<path style="fill:#6a6a6a" d="M16 36 C16.02 36.66 16.18 38.15 15 38 C14.98 37.34 14.82 35.85 16 36 z"/>
<path style="fill:#0b0c0c" d="M36 36 C40.17 34.51 39.49 38.24 41 40 L41 41 L36 41 C34.4 40.55 34.4 36.45 36 36 z"/>
<path style="fill:#8c8d8d" d="M44 36 C43.98 36.66 43.82 38.15 45 38 C45.02 38.66 45.18 40.15 44 40 C42.45 39.81 42.45 36.19 44 36 z"/>
<path style="fill:#f3f4f4" d="M45 36 L45 37 L45 38 C43.82 38.15 43.98 36.66 44 36 L45 36 z"/>
<path style="fill:#5f5f5f" d="M46 36 L45 37 L45 36 L46 36 z"/>
<path style="fill:#0a0a0a" d="M50 37 L50 41 L49 42 L47 42 C46.94 40.41 44.95 41.19 44 41 L44 40 C45.18 40.15 45.02 38.66 45 38 L45 37 L46 36 L50 37 z"/>
<path style="fill:#717171" d="M33 37 C33.02 37.66 33.18 39.15 32 39 C31.98 38.34 31.82 36.85 33 37 z"/>
<path style="fill:#f8f8f8" d="M42 37 C41.81 37.95 42.59 39.94 41 40 C41.19 39.05 40.41 37.06 42 37 z"/>
<path style="fill:#848484" d="M50 41 L50 37 C51.55 37.19 51.55 40.81 50 41 z"/>
<path style="fill:#515151" d="M54 41 L53 37 L54 41 z"/>
<path style="fill:#949494" d="M71 38 L70 37 L71 38 z"/>
<path style="fill:#a2a2a2" d="M26 39 L26 49 L24 49 L25 39 L26 39 z"/>
<path style="fill:#a4a4a4" d="M72 41 C70.82 41.15 70.98 39.66 71 39 C72.18 38.85 72.02 40.34 72 41 z"/>
<path style="fill:#646565" d="M32 40 C32.02 40.66 32.18 42.15 31 42 C30.98 41.34 30.82 39.85 32 40 z"/>
<path style="fill:#8a8a8a" d="M41 41 L44 41 C44.95 41.19 46.94 40.41 47 42 C46.34 41.98 44.85 41.82 45 43 C43.47 41.75 41.53 41.75 40 43 L36 41 L41 41 z"/>
<path style="fill:#707070" d="M50 41 L49 42 L50 41 z"/>
<path style="fill:#848484" d="M14 42 C14.02 42.66 14.18 44.15 13 44 C12.98 43.34 12.82 41.85 14 42 z"/>
<path style="fill:#727373" d="M18 42 C18.02 42.66 18.18 44.15 17 44 C16.98 43.34 16.82 41.85 18 42 z"/>
<path style="fill:#d7d7d7" d="M19 42 C19.29 44.95 20.46 47.19 19 50 L17 53 L17 44 C18.18 44.15 18.02 42.66 18 42 L19 42 z"/>
<path style="fill:#111111" d="M45 43 L46 44 L49 44 L50 45 L50 46 C50.28 47.6 49.86 49.66 48 50 L47 51 L46 53 L44 53 L43 52 L39 53 C38.09 51.12 37.2 48.77 35 48 L40 43 C41.53 41.75 43.47 41.75 45 43 z"/>
<path style="fill:#383838" d="M62 50 L61 42 L62 50 z"/>
<path style="fill:#eff0f0" d="M68 42 L68 44 L67 50 L67 49 L66 48 L66 46 L66 45 L68 42 z"/>
<path style="fill:#707070" d="M46 44 L45 43 L46 44 z"/>
<path style="fill:#848484" d="M72 55 L72 43 C73.66 45.64 73.66 52.36 72 55 z"/>
<path style="fill:#969696" d="M50 45 L49 44 L50 45 z"/>
<path style="fill:#8b8c8c" d="M68 55 C67.81 54.05 68.59 52.06 67 52 L67 50 L68 44 C69.66 46.31 69.66 52.69 68 55 z"/>
<path style="fill:#787878" d="M31 47 L30 46 L31 47 z"/>
<path style="fill:#c7c8c8" d="M52 49 L48 54 L47 54 L46 53 L47 51 L48 50 C49.86 49.66 50.28 47.6 50 46 L52 49 z"/>
<path style="fill:#6a6b6b" d="M66 46 L66 48 C64.67 48.22 64.67 45.78 66 46 z"/>
<path style="fill:#7f8080" d="M38 47 C40.46 47.58 43.36 48.89 45.75 47.25 C45.92 51.09 38.97 50.37 38 47 z"/>
<path style="fill:#848484" d="M34 49 L33 48 L34 49 z"/>
<path style="fill:#c4c5c5" d="M39 53 L39 54 L38 54 L35 49 L35 48 C37.2 48.77 38.09 51.12 39 53 z"/>
<path style="fill:#767676" d="M67 49 L66 48 L67 49 z"/>
<path style="fill:#8e8e8e" d="M24 49 L26 49 L29 52 C24.8 49.51 24.54 53.37 25 57 L24 58 L24 49 z"/>
<path style="fill:#646565" d="M19 50 L19 54 L18 55 C16.82 55.15 16.98 53.66 17 53 L19 50 z"/>
<path style="fill:#6c6c6c" d="M48 50 L47 51 L48 50 z"/>
<path style="fill:#7a7b7b" d="M38 62 L29 52 C32.71 53.5 37.78 57.64 38 62 z"/>
<path style="fill:#e6e7e7" d="M43 52 L43 53 L42 68 L40 69 L35 64 L36 64 C43.32 67.79 40.5 58.81 39 55 L39 54 L39 53 L43 52 z"/>
<path style="fill:#969797" d="M44 53 L45 61 L45 65 C43.45 65.19 43.45 68.81 45 69 L46 70 L46 72 L45 73 L44 73 L43 73 L43 53 L43 52 L44 53 z"/>
<path style="fill:#a5a5a5" d="M68 55 C66.89 63.04 60.2 69.65 53 73 L52 71 C60.17 69.33 66.98 60.34 67 52 C68.59 52.06 67.81 54.05 68 55 z"/>
<path style="fill:#0b0b0b" d="M43 53 L43 73 L42 73 L42 68 L43 53 z"/>
<path style="fill:#f4f4f4" d="M46 53 L47 54 L47 55 L46 58 C44.82 57.85 44.98 59.34 45 60 L45 61 L44 53 L46 53 z"/>
<path style="fill:#969696" d="M14 56 C12.82 56.15 12.98 54.66 13 54 C14.18 53.85 14.02 55.34 14 56 z"/>
<path style="fill:#a2a3a3" d="M19 54 L25 67 C20.94 64.37 18.23 59.73 18 55 L19 54 z"/>
<path style="fill:#707070" d="M39 54 L39 55 L38 54 L39 54 z"/>
<path style="fill:#666666" d="M48 54 L47 55 L47 54 L48 54 z"/>
<path style="fill:#c4c4c4" d="M52 56 L51 57 L52 56 z"/>
<path style="fill:#767777" d="M72 56 C72.02 56.66 72.18 58.15 71 58 C70.98 57.34 70.82 55.85 72 56 z"/>
<path style="fill:#747474" d="M24 58 L25 57 L29.75 67.75 C26.47 65.91 25.1 61.39 24 58 z"/>
<path style="fill:#b8b8b8" d="M51 57 L50 58 L51 57 z"/>
<path style="fill:#707171" d="M46 58 C46.02 58.66 46.18 60.15 45 60 C44.98 59.34 44.82 57.85 46 58 z"/>
<path style="fill:#b3b3b3" d="M50 58 L49 59 L50 58 z"/>
<path style="fill:#adadad" d="M49 59 C49.16 63.53 44.93 60.46 49 59 z"/>
<path style="fill:#888989" d="M16 62 C14.82 62.15 14.98 60.66 15 60 C16.18 59.85 16.02 61.34 16 62 z"/>
<path style="fill:#5c5c5c" d="M54 62 L53 61 C53.33 58.34 56.66 61.67 54 62 z"/>
<path style="fill:#acacac" d="M36 64 L35 64 C32.98 63.55 33.07 64.84 34 66 L33 66 C29.02 62.05 32.86 59.89 36 64 z"/>
<path style="fill:#666666" d="M53 61 L52 62 L53 61 z"/>
<path style="fill:#d0d1d1" d="M54 62 L54 63 C53.34 63.02 51.85 63.18 52 62 L53 61 L54 62 z"/>
<path style="fill:#8c8c8c" d="M38 62 C39.88 61.86 37.86 63.88 38 62 z"/>
<path style="fill:#434444" d="M52 62 C51.85 63.18 53.34 63.02 54 63 L53 64 L46 70 L45 69 L50 63 C49.85 61.82 51.34 61.98 52 62 z"/>
<path style="fill:#848484" d="M70 62 L69 63 L70 62 z"/>
<path style="fill:#e1e2e2" d="M50 63 L45 69 C43.45 68.81 43.45 65.19 45 65 L50 63 z"/>
<path style="fill:#3f3f3f" d="M35 64 L40 69 L40 70 L34 66 C33.07 64.84 32.98 63.55 35 64 z"/>
<path style="fill:#e1e1e1" d="M53 64 L52 71 L53 73 L48 74 L44 73 L45 73 C46.88 73.74 49.25 71.76 46 72 L46 70 L53 64 z"/>
<path style="fill:#a9a9a9" d="M69 64 L68 65 L69 64 z"/>
<path style="fill:#858585" d="M68 65 L67 66 L68 65 z"/>
<path style="fill:#939393" d="M19 67 L18 66 L19 67 z"/>
<path style="fill:#e8e8e8" d="M34 66 L40 70 L39 72 C35.75 71.76 38.12 73.74 40 73 L42 73 L37 74 L36 74 C36.15 72.82 34.66 72.98 34 73 L33 73 C33.32 72.1 35.02 70.27 33 70 L33 66 L34 66 z"/>
<path style="fill:#aaabab" d="M33 70 C35.02 70.27 33.32 72.1 33 73 C30.06 71.53 26.52 70.25 25 67 L33 70 z"/>
<path style="fill:#909191" d="M42 68 L42 73 L40 73 L39 72 L40 70 L40 69 L42 68 z"/>
<path style="fill:#898989" d="M64 70 L63 71 L64 70 z"/>
<path style="fill:#1a1b1b" d="M39 72 L40 73 C38.12 73.74 35.75 71.76 39 72 z"/>
<path style="fill:#282828" d="M46 72 C49.25 71.76 46.88 73.74 45 73 L46 72 z"/>
<path style="fill:#7a7a7a" d="M26 74 L25 73 L26 74 z"/>
<path style="fill:#888888" d="M36 74 C35.34 74.02 33.85 74.18 34 73 C34.66 72.98 36.15 72.82 36 74 z"/>
<path style="fill:#858585" d="M43 73 L44 73 L48 74 C45.69 75.66 39.31 75.66 37 74 L42 73 L43 73 z"/>
<path style="fill:#959595" d="M60 73 L59 74 L60 73 z"/>
<path style="fill:#6f6f6f" d="M58 74 L57 75 L58 74 z"/>
<path style="fill:#989898" d="M29 76 L28 75 L29 76 z"/>
<path style="fill:#606060" d="M56 75 L55 76 L56 75 z"/>
<path style="fill:#989999" d="M55 76 C55.15 77.18 53.66 77.02 53 77 C52.85 75.82 54.34 75.98 55 76 z"/>
<path style="fill:#767676" d="M35 78 C34.34 78.02 32.85 78.18 33 77 C33.66 76.98 35.15 76.82 35 78 z"/>
<path style="fill:#959595" d="M52 77 C52.15 78.18 50.66 78.02 50 78 C49.85 76.82 51.34 76.98 52 77 z"/>
<path style="fill:#5e5f5f" d="M40 79 C39.34 79.02 37.85 79.18 38 78 C38.66 77.98 40.15 77.82 40 79 z"/>
<path style="fill:#797979" d="M47 78 L43 79 L47 78 z"/>
</svg>
