<?xml version="1.0" standalone="yes"?>
<svg width="87" height="97">
<path style="fill:#fcfdfd" d="M87 0 L87 97 L0 97 L0 0 L87 0 z"/>
<path style="fill:#b3b3b3" d="M42 13 L40 13 C39.78 11.67 42.22 11.67 42 13 z"/>
<path style="fill:#b6b6b6" d="M49 13 L45 13 C45.19 11.45 48.81 11.45 49 13 z"/>
<path style="fill:#8a8a8a" d="M38 13 L34 14 L38 13 z"/>
<path style="fill:#0d0d0d" d="M40 13 L42 13 L41 14 L40 15 L39 15 C36.73 16.87 33.89 18.09 33 21 L30 24 L30 25 L29 26 L28 28 L27 29 L27 31 L26 32 C23.76 32.66 22.34 31.24 23 29 L25 24 C24.85 8.568 18.55 52.93 18 30 L18 28 L18 23 L18 22 L19 21 L20 21 L21 20 L22 19 L23 19 L24 18 C24.95 17.81 26.94 18.59 27 17 L28 16 L34 14 L38 13 L40 13 z"/>
<path style="fill:#0b0c0c" d="M49 13 L53 14 L54 14 C53.85 15.18 55.34 15.02 56 15 L57 15 C56.85 16.18 58.34 16.02 59 16 L60 17 C60.6 19.79 62.17 23.05 64 25 C63.37 28.73 66.51 33.83 61 31 L60 28 L59 27 L58 26 L58 25 L57 24 C55.35 20.13 51.87 16.65 48 15 L47 15 L46 14 L45 13 L49 13 z"/>
<path style="fill:#7b7b7b" d="M53 14 L49 13 L53 14 z"/>
<path style="fill:#7e7e7e" d="M41 14 L40 15 L41 14 z"/>
<path style="fill:#999999" d="M47 15 L46 14 L47 15 z"/>
<path style="fill:#747474" d="M56 15 C55.34 15.02 53.85 15.18 54 14 C54.66 13.98 56.15 13.82 56 15 z"/>
<path style="fill:#5e5f5f" d="M39 15 L41 17 L33 21 C33.89 18.09 36.73 16.87 39 15 z"/>
<path style="fill:#585858" d="M57 24 C54.88 23.71 52.28 22.52 51 21 C55.16 21.19 49.12 15.7 47 17 L48 15 C51.87 16.65 55.35 20.13 57 24 z"/>
<path style="fill:#7d7d7d" d="M59 16 C58.34 16.02 56.85 16.18 57 15 C57.66 14.98 59.15 14.82 59 16 z"/>
<path style="fill:#7d7d7d" d="M28 16 L27 17 L28 16 z"/>
<path style="fill:#878787" d="M60 17 L59 16 L60 17 z"/>
<path style="fill:#7d7d7d" d="M27 17 C26.94 18.59 24.95 17.81 24 18 C24.06 16.41 26.05 17.19 27 17 z"/>
<path style="fill:#121212" d="M41 17 L42 18 L41 20 L40 20 C39.34 19.98 37.85 19.82 38 21 L37 21 L36 22 L35 22 C34.34 22.02 32.85 22.18 33 21 L41 17 z"/>
<path style="fill:#a4a4a4" d="M46 17 L45 18 L46 17 z"/>
<path style="fill:#111212" d="M47 17 C49.12 15.7 55.16 21.19 51 21 L49 21 C49.15 19.82 47.66 19.98 47 20 C47.15 18.82 45.66 18.98 45 19 L45 18 L46 17 L47 17 z"/>
<path style="fill:#696a6a" d="M63 18 L64 25 C62.17 23.05 60.6 19.79 60 17 C60.95 17.19 62.94 16.41 63 18 z"/>
<path style="fill:#686868" d="M24 18 L23 19 L24 18 z"/>
<path style="fill:#828282" d="M41 20 L42 18 C44.02 18.19 42.56 20.9 41 20 z"/>
<path style="fill:#0d0d0d" d="M63 18 L64 18 L65 19 L66 20 L67 20 L68 21 C68.64 25.56 70.35 32.04 68 36 L66 33 C66.17 30.2 65.83 26.74 64 25 L63 18 z"/>
<path style="fill:#9e9e9e" d="M65 19 L64 18 L65 19 z"/>
<path style="fill:#a0a0a0" d="M22 19 L21 20 L22 19 z"/>
<path style="fill:#5e5e5e" d="M26 32 L26 42 L24.75 33.25 L21 39 L20 40 C17.34 42.26 16.73 36.95 17 35 L18 30 C18.55 52.93 24.85 8.568 25 24 L23 29 C22.34 31.24 23.76 32.66 26 32 z"/>
<path style="fill:#606161" d="M47 20 C46.34 20.02 44.85 20.18 45 19 C45.66 18.98 47.15 18.82 47 20 z"/>
<path style="fill:#666666" d="M66 20 L65 19 L66 20 z"/>
<path style="fill:#7a7a7a" d="M21 20 L20 21 L21 20 z"/>
<path style="fill:#8b8b8b" d="M40 20 C40.15 21.18 38.66 21.02 38 21 C37.85 19.82 39.34 19.98 40 20 z"/>
<path style="fill:#a1a2a2" d="M49 21 C48.34 21.02 46.85 21.18 47 20 C47.66 19.98 49.15 19.82 49 21 z"/>
<path style="fill:#a9a9a9" d="M68 21 L67 20 L68 21 z"/>
<path style="fill:#a9a9a9" d="M19 21 L18 22 L19 21 z"/>
<path style="fill:#737474" d="M33 21 C32.85 22.18 34.34 22.02 35 22 C34.15 23.5 31.83 24.23 30 24 L33 21 z"/>
<path style="fill:#a4a4a4" d="M37 21 L36 22 L37 21 z"/>
<path style="fill:#585858" d="M71 24 L69 39 L68 36 C70.35 32.04 68.64 25.56 68 21 L71 24 z"/>
<path style="fill:#676767" d="M18 23 L18 28 L16 24 C15.85 22.82 17.34 22.98 18 23 z"/>
<path style="fill:#4c4d4d" d="M48 24 L42 24 C42.73 22.38 47.27 22.38 48 24 z"/>
<path style="fill:#8c8c8c" d="M16 24 L15 25 L16 24 z"/>
<path style="fill:#282828" d="M18 28 L18 30 L17 35 L15 26 L15 25 L16 24 L18 28 z"/>
<path style="fill:#7f7f7f" d="M41 24 L40 25 L41 24 z"/>
<path style="fill:#0f0f0f" d="M42 24 L48 24 C49.85 23.67 51.33 25.54 52 27 L53 28 L53 29 L53 34 L53 35 L52 36 L51 38 L50 39 L49 40 L48 41 L47 42 C45.4 42.45 45.4 46.55 47 47 L48 50 L49 51 L50 53 L50 54 C47.37 57.41 41.22 55.19 39.75 51.25 C41.35 57.49 33.77 52.87 31 50 L32 48 L33 47 L33 46 L34 45 L35 44 L36 43 L37 42 L38 41 L40 40 L41 39 L43 38 L44 37 L46 36 L47 35 L47 34 L46 33 L42 33 C41.34 32.98 39.85 32.82 40 34 L39 34 L37 34 L36 33 L37 32 L38 28 L38 27 L39 26 L40 25 L41 24 L42 24 z"/>
<path style="fill:#797979" d="M58 25 L57 24 L58 25 z"/>
<path style="fill:#0e0f0f" d="M71 24 L73 26 L74 27 L75 28 L75 31 L72 41 L70 43 C68.21 46.07 63.86 54.34 60 49 L60 48 L61 47 C66.06 51.9 65.74 40.64 69 39 L71 24 z"/>
<path style="fill:#8b8b8b" d="M15 25 L15 26 L14 26 L15 25 z"/>
<path style="fill:#9d9d9d" d="M30 25 L29 26 L30 25 z"/>
<path style="fill:#666666" d="M40 25 L39 26 L40 25 z"/>
<path style="fill:#545454" d="M66 33 C65.34 32.98 63.85 32.82 64 34 L62 34 L61 31 C66.51 33.83 63.37 28.73 64 25 C65.83 26.74 66.17 30.2 66 33 z"/>
<path style="fill:#a1a1a1" d="M14 26 L13 27 L14 26 z"/>
<path style="fill:#0c0d0d" d="M15 26 L17 35 C16.73 36.95 17.34 42.26 20 40 C19.81 42.58 21.36 45.43 23 47 C23.88 48.38 24.48 50.09 23.75 51.75 C17.18 45.66 13.09 38.17 12 29 L13 27 L14 26 L15 26 z"/>
<path style="fill:#9a9a9a" d="M39 26 L38 27 L39 26 z"/>
<path style="fill:#2a2a2a" d="M44 28 C43.85 29.18 45.34 29.02 46 29 C45.94 30.59 43.95 29.81 43 30 C42.81 27.98 40.1 29.44 41 31 C37.62 28.92 42.52 23.46 44 28 z"/>
<path style="fill:#7e7e7e" d="M46 29 C45.34 29.02 43.85 29.18 44 28 C45.19 25.38 48.28 26.04 46 29 z"/>
<path style="fill:#a6a6a6" d="M59 27 L58 26 L59 27 z"/>
<path style="fill:#727272" d="M74 27 L73 26 L74 27 z"/>
<path style="fill:#656565" d="M53 28 L52 27 L53 28 z"/>
<path style="fill:#5f5f5f" d="M60 28 L59 27 L60 28 z"/>
<path style="fill:#868686" d="M75 28 L74 27 L75 28 z"/>
<path style="fill:#616161" d="M28 28 L27 29 L28 28 z"/>
<path style="fill:#878888" d="M38 28 L37 32 L38 28 z"/>
<path style="fill:#949595" d="M77 31 L75 31 L75 28 L77 31 z"/>
<path style="fill:#5e5f5f" d="M12 29 C13.09 38.17 17.18 45.66 23.75 51.75 C24.48 50.09 23.88 48.38 23 47 L24 46 C24.91 48.57 26.85 45.53 26 44 L28 48 C23.44 47.53 27.39 55.36 29 50 L31 50 C33.77 52.87 41.35 57.49 39.75 51.25 C41.22 55.19 47.37 57.41 50 54 C51.36 55.08 52.64 55.08 54 54 L55 58 L54 59 C50.31 50.26 44.8 63.81 54 59 L54 61 C51.06 61.25 47.9 64.27 52 66 L51 69 C50.36 72.03 55.9 72.67 55 69 L56 70 L56 72 L58 74 C53.14 74.32 60.96 78.18 61 74 L63 74 L63 75 C60.98 75.19 62.44 77.9 64 77 C64.15 78.18 62.66 78.02 62 78 C53.98 77.71 62.81 81.42 66 81 C65.39 82.24 63.44 82.98 62 83 L55 79 C58.22 79.73 55.7 76.48 55 79 C49.63 80.85 59.23 84.45 62 83 L56 86 C59.13 83.19 50.87 83.19 54 86 L49 87 C46.6 85.73 47.11 84.14 48.75 82.25 C45.29 80.61 45.95 84.96 46 87 L44 87 C47.55 84.34 40.63 75.59 41 82 L39 87 L33 86 C39.66 85.45 40.5 76.7 34 76 L32 72 C31.79 70.58 31.89 68.33 34 69 L35 70 C32.76 72.01 35.54 75.24 38 75 C40.08 79.88 43.52 76.91 41 73 C40.85 71.82 42.34 71.98 43 72 C42.29 74.19 44.84 78.08 47 76 L47 77 L43.25 78.25 C43.44 80.32 45.83 80.13 47 79 C50.63 84.92 58.14 70.05 49 72 C50.86 68.43 43.64 65.85 44 70 C44.43 71.06 42.57 71.06 43 70 C43.02 69.34 43.18 67.85 42 68 L37 67 L34 67 L33 66 C31.8 61.9 26.74 65.06 30 68 L30 69 L26 68 L26 67 L23 64 L23 60 L16.25 53.25 L20 59 C18.65 58.54 17.54 59.65 18 61 L17 62 C12.85 62.87 7.725 53.16 6 58 C4.336 54.37 4.336 46.63 6 43 C6.317 47.6 10.54 52.1 14.75 53.75 L7 39 C7.19 38.05 6.408 36.06 8 36 C9.292 40.47 11.93 45.42 14.75 48.75 L10 32 L12 29 z"/>
<path style="fill:#9a9b9b" d="M43 30 C43.15 31.18 41.66 31.02 41 31 C40.1 29.44 42.81 27.98 43 30 z"/>
<path style="fill:#adaeae" d="M48 29 C52.39 28.54 47.54 33.39 48 29 z"/>
<path style="fill:#585959" d="M53 34 L53 29 C54.6 29.45 54.6 33.55 53 34 z"/>
<path style="fill:#9b9b9b" d="M27 31 L26 32 L27 31 z"/>
<path style="fill:#4c4d4d" d="M75 31 L77 31 L77 32 L73 41 L72 41 L75 31 z"/>
<path style="fill:#a8a8a8" d="M78 32 L77 32 L77 31 L78 32 z"/>
<path style="fill:#6b6b6b" d="M10 32 C10.02 32.66 10.18 34.15 9 34 C8.981 33.34 8.819 31.85 10 32 z"/>
<path style="fill:#0a0b0b" d="M8 36 L8 35 L9 34 C10.18 34.15 10.02 32.66 10 32 L14.75 48.75 C11.93 45.42 9.292 40.47 8 36 z"/>
<path style="fill:#959595" d="M37 32 L36 33 L37 32 z"/>
<path style="fill:#0b0b0b" d="M77 32 L78 32 L78 33 C77.98 33.66 77.82 35.15 79 35 L74 48 C70.06 48.14 72.74 43.04 73 41 L77 32 z"/>
<path style="fill:#070808" d="M26 42 L26 44 C26.85 45.53 24.91 48.57 24 46 L21 39 L24.75 33.25 L26 42 z"/>
<path style="fill:#9c9c9c" d="M35 33 L34 34 L35 33 z"/>
<path style="fill:#2e2f2f" d="M36 33 L37 34 L37 35 L36 35 L35 36 L34 36 L33 37 L32 37 L32 35 L33 34 L34 34 L35 33 L36 33 z"/>
<path style="fill:#939393" d="M42 33 C42.15 34.18 40.66 34.02 40 34 C39.85 32.82 41.34 32.98 42 33 z"/>
<path style="fill:#808080" d="M47 34 L46 33 L47 34 z"/>
<path style="fill:#757676" d="M66 33 L68 36 L69 39 C65.74 40.64 66.06 51.9 61 47 C60.98 46.34 60.82 44.85 62 45 C66.08 47.67 68.23 35.57 64 34 C63.85 32.82 65.34 32.98 66 33 z"/>
<path style="fill:#717171" d="M79 35 C77.82 35.15 77.98 33.66 78 33 C79.18 32.85 79.02 34.34 79 35 z"/>
<path style="fill:#919191" d="M9 34 L8 35 L9 34 z"/>
<path style="fill:#a9a9a9" d="M33 34 L32 35 L33 34 z"/>
<path style="fill:#9b9c9c" d="M39 34 C39.15 35.18 37.66 35.02 37 35 L37 34 L39 34 z"/>
<path style="fill:#0a0b0b" d="M64 34 C68.23 35.57 66.08 47.67 62 45 L62 42 C63.64 40.97 63.64 36.03 62 35 L62 34 L64 34 z"/>
<path style="fill:#7a7b7b" d="M32 35 L32 37 C30.4 40.48 28.48 33.7 32 35 z"/>
<path style="fill:#9b9b9b" d="M36 35 L35 36 L36 35 z"/>
<path style="fill:#767676" d="M47 35 L46 36 L47 35 z"/>
<path style="fill:#7a7a7a" d="M53 35 L52 36 L53 35 z"/>
<path style="fill:#595959" d="M62 42 L62 35 C63.64 36.03 63.64 40.97 62 42 z"/>
<path style="fill:#5e5e5e" d="M81 40 L74 48 L79 35 L81 40 z"/>
<path style="fill:#a3a3a3" d="M34 36 L33 37 L34 36 z"/>
<path style="fill:#727272" d="M44 37 L43 38 L44 37 z"/>
<path style="fill:#a4a4a4" d="M51 38 L50 39 L51 38 z"/>
<path style="fill:#8e8f8f" d="M7 39 C7.019 39.66 7.181 41.15 6 41 C5.981 40.34 5.819 38.85 7 39 z"/>
<path style="fill:#0a0b0b" d="M6 43 L6 41 C7.181 41.15 7.019 39.66 7 39 L14.75 53.75 C10.54 52.1 6.317 47.6 6 43 z"/>
<path style="fill:#484848" d="M21 39 L24 46 L23 47 C21.36 45.43 19.81 42.58 20 40 L21 39 z"/>
<path style="fill:#656565" d="M41 39 L40 40 L41 39 z"/>
<path style="fill:#8d8d8d" d="M50 39 L49 40 L50 39 z"/>
<path style="fill:#a4a4a4" d="M49 40 L48 41 L49 40 z"/>
<path style="fill:#0d0e0e" d="M81 40 L81 41 C80.98 41.66 80.82 43.15 82 43 L82 46 L73 53 L73 50 L74 48 L81 40 z"/>
<path style="fill:#929292" d="M38 41 L37 42 L38 41 z"/>
<path style="fill:#a0a0a0" d="M48 41 L47 42 L48 41 z"/>
<path style="fill:#717171" d="M73 41 C72.74 43.04 70.06 48.14 74 48 L73 50 L71 50 L71 46 L70 43 L72 41 L73 41 z"/>
<path style="fill:#828282" d="M82 43 C80.82 43.15 80.98 41.66 81 41 C82.18 40.85 82.02 42.34 82 43 z"/>
<path style="fill:#7c7c7c" d="M37 42 L36 43 L37 42 z"/>
<path style="fill:#2a2a2a" d="M42 42 C46.35 41.37 36.34 53.05 39 46 L42 42 z"/>
<path style="fill:#969696" d="M47 42 L47 47 C45.4 46.55 45.4 42.45 47 42 z"/>
<path style="fill:#848484" d="M36 43 L35 44 L36 43 z"/>
<path style="fill:#545454" d="M70 43 L71 46 C68.26 46.37 67 50.64 66 53 C63.48 50.64 62.37 53.52 63 56 C63.02 56.66 63.18 58.15 62 58 C62.79 55.43 60.82 54.23 59 56 L59 55 C60.25 53.47 60.25 51.53 59 50 L60 49 C63.86 54.34 68.21 46.07 70 43 z"/>
<path style="fill:#999999" d="M35 44 L34 45 L35 44 z"/>
<path style="fill:#a3a3a3" d="M34 45 L33 46 L34 45 z"/>
<path style="fill:#131313" d="M71 46 L71 50 L68 53 L66 53 C67 50.64 68.26 46.37 71 46 z"/>
<path style="fill:#6c6c6c" d="M82 46 C83.14 47.8 83.95 51.75 82 53 C83.91 43.3 73.39 55 72 58 L69 57 L71 54 C71.66 54.02 73.15 54.18 73 53 L82 46 z"/>
<path style="fill:#080808" d="M17 47 C18.91 49.45 23.31 52.18 22.75 55.75 C19.95 53.37 15.57 51.58 17 47 z"/>
<path style="fill:#686868" d="M33 47 L32 48 L33 47 z"/>
<path style="fill:#7d7d7d" d="M61 47 L60 48 L61 47 z"/>
<path style="fill:#0b0c0c" d="M28 48 L29 49 L29 50 C27.39 55.36 23.44 47.53 28 48 z"/>
<path style="fill:#9a9a9a" d="M29 49 L28 48 L29 49 z"/>
<path style="fill:#070707" d="M82 53 L76 57 L72 58 C73.39 55 83.91 43.3 82 53 z"/>
<path style="fill:#090909" d="M6 49 L15.75 59.75 C11.58 57.56 4.502 55.13 6 49 z"/>
<path style="fill:#9d9d9d" d="M49 51 L48 50 L49 51 z"/>
<path style="fill:#a2a2a2" d="M58 50 L57 51 L58 50 z"/>
<path style="fill:#0f1010" d="M59 50 C60.25 51.53 60.25 53.47 59 55 L57 54 L57 51 L58 50 L59 50 z"/>
<path style="fill:#3e3f3f" d="M71 50 L73 50 L73 53 C73.15 54.18 71.66 54.02 71 54 C71.37 50.61 69.32 53.51 68 54 L68 53 L71 50 z"/>
<path style="fill:#868686" d="M57 51 L57 54 C56.1 53.68 54.27 51.98 54 54 C52.64 55.08 51.36 55.08 50 54 L50 53 L57 51 z"/>
<path style="fill:#090909" d="M33 54 C32.14 55.18 32.12 57.63 30 57 C27.01 53.8 30.67 49.98 33 54 z"/>
<path style="fill:#111111" d="M66 53 C65.14 54.18 65.12 56.63 63 56 C62.37 53.52 63.48 50.64 66 53 z"/>
<path style="fill:#0d0e0e" d="M71 54 L69 57 C63.22 59.93 63.72 57.06 68 54 C69.32 53.51 71.37 50.61 71 54 z"/>
<path style="fill:#121313" d="M23 60 L20 59 L16.25 53.25 L23 60 z"/>
<path style="fill:#101010" d="M57 54 C57.28 55.6 56.86 57.66 55 58 L54 54 C54.27 51.98 56.1 53.68 57 54 z"/>
<path style="fill:#666666" d="M68 53 L68 54 C63.72 57.06 63.22 59.93 69 57 L69 58 C67.38 59.43 59.82 61.96 62 58 C63.18 58.15 63.02 56.66 63 56 C65.12 56.63 65.14 54.18 66 53 L68 53 z"/>
<path style="fill:#666767" d="M82 53 L82 55 L77 58 L76 57 L82 53 z"/>
<path style="fill:#0d0d0d" d="M25 54 C31.58 55.57 23.63 62.41 25 54 z"/>
<path style="fill:#4b4b4b" d="M35 55 C31.41 57.04 37.08 61.6 36 56 L38 59 L38 60 L37 61 L33 62 L31 62 C31.66 59.67 31.81 59.35 30 58 L30 57 C32.12 57.63 32.14 55.18 33 54 C33.66 53.98 35.15 53.82 35 55 z"/>
<path style="fill:#747474" d="M59 55 L59 56 C59.15 57.85 61.84 62.32 58 62 C59.13 58.01 56.26 57.5 55 61 L54 61 L54 59 L55 58 C56.86 57.66 57.28 55.6 57 54 L59 55 z"/>
<path style="fill:#040505" d="M35 55 L36 56 C37.08 61.6 31.41 57.04 35 55 z"/>
<path style="fill:#1c1c1c" d="M62 58 C59.82 61.96 67.38 59.43 69 58 C70.18 57.85 70.02 59.34 70 60 L68 65 L61 66 C65.12 63.95 65.83 60.91 60.25 63.25 L56 72 L56 70 C57.18 70.15 57.02 68.66 57 68 L58 62 C61.84 62.32 59.15 57.85 59 56 C60.82 54.23 62.79 55.43 62 58 z"/>
<path style="fill:#0a0b0b" d="M82 55 L82 57 C80.41 57.06 81.19 59.05 81 60 L80 61 C77.21 61.6 73.95 63.17 72 65 C68.71 65.74 70.57 61.55 72 61 L77 58 L82 55 z"/>
<path style="fill:#0d0e0e" d="M17 62 C18.77 63.82 17.57 65.79 15 65 L7 61 C7.019 60.34 7.181 58.85 6 59 L6 58 C7.725 53.16 12.85 62.87 17 62 z"/>
<path style="fill:#080909" d="M54 59 C44.8 63.81 50.31 50.26 54 59 z"/>
<path style="fill:#191919" d="M43 64 C41.75 62.89 38.33 62.15 39 65 C35.17 62.04 44.39 61.58 38 60 L38 59 C40.41 53.13 43.04 60.82 43 64 z"/>
<path style="fill:#131414" d="M43 57 C46.32 56.01 47.27 58.17 47.75 60.75 C45.18 62.05 42.05 59.95 43 57 z"/>
<path style="fill:#454545" d="M72 58 L76 57 L77 58 L72 61 C72.15 59.82 70.66 59.98 70 60 C70.02 59.34 70.18 57.85 69 58 L69 57 L72 58 z"/>
<path style="fill:#7f8080" d="M82 57 C81.81 57.95 82.59 59.94 81 60 C81.19 59.05 80.41 57.06 82 57 z"/>
<path style="fill:#0b0b0b" d="M30 58 C31.81 59.35 31.66 59.67 31 62 C29.66 64.56 27.48 58.2 30 58 z"/>
<path style="fill:#111212" d="M58 62 L55 61 C56.26 57.5 59.13 58.01 58 62 z"/>
<path style="fill:#787878" d="M7 61 C5.819 61.15 5.981 59.66 6 59 C7.181 58.85 7.019 60.34 7 61 z"/>
<path style="fill:#0d0d0d" d="M20 59 C21.52 60.81 22.61 62.66 19 62 L18 61 C17.54 59.65 18.65 58.54 20 59 z"/>
<path style="fill:#454545" d="M23 60 L23 64 L19 63 L19 62 C22.61 62.66 21.52 60.81 20 59 L23 60 z"/>
<path style="fill:#0c0c0c" d="M25 60 C32.31 61.47 23.61 68.86 25 60 z"/>
<path style="fill:#0c0d0d" d="M37 61 C37.44 64.68 33.92 66.93 33 62 L37 61 z"/>
<path style="fill:#686969" d="M72 61 C70.57 61.55 68.71 65.74 72 65 L72 66 L69 67 C67.82 67.15 67.98 65.66 68 65 L70 60 C70.66 59.98 72.15 59.82 72 61 z"/>
<path style="fill:#8b8c8c" d="M81 60 C80.81 60.95 81.59 62.94 80 63 L80 61 L81 60 z"/>
<path style="fill:#575858" d="M15 65 L15 66 L8 64 C6.408 63.94 7.19 61.95 7 61 L15 65 z"/>
<path style="fill:#787979" d="M18 61 L19 62 L19 63 C18.67 64.34 19.71 65.74 21 66 C21.02 66.66 21.18 68.15 20 68 C19.15 66.5 16.83 65.77 15 66 L15 65 C17.57 65.79 18.77 63.82 17 62 L18 61 z"/>
<path style="fill:#0b0c0c" d="M54 61 L55 61 L55 66 L52 66 C47.9 64.27 51.06 61.25 54 61 z"/>
<path style="fill:#747474" d="M58 62 L57 68 L55 66 L55 61 L58 62 z"/>
<path style="fill:#414141" d="M80 61 L80 63 C80.02 63.66 80.18 65.15 79 65 L72 66 L72 65 C73.95 63.17 77.21 61.6 80 61 z"/>
<path style="fill:#111111" d="M44 62 C47.32 61.01 48.27 63.17 48.75 65.75 C46.18 67.05 43.05 64.95 44 62 z"/>
<path style="fill:#707171" d="M61 66 L61 68 L66 69 C67.18 68.85 67.02 70.34 67 71 L66 71 C64.31 69.34 61.44 70.81 60.25 71.75 C61.68 71.68 65.86 72.4 63 74 L61 74 L58 74 L56 72 L60.25 63.25 C65.83 60.91 65.12 63.95 61 66 z"/>
<path style="fill:#0d0e0e" d="M15 66 C16.83 65.77 19.15 66.5 20 68 C20.15 69.18 18.66 69.02 18 69 L10 68 L9 67 L8 64 L15 66 z"/>
<path style="fill:#141414" d="M23 64 L26 67 L21 66 C19.71 65.74 18.67 64.34 19 63 L23 64 z"/>
<path style="fill:#070707" d="M43 64 C43.67 66.85 40.25 66.11 39 65 C38.33 62.15 41.75 62.89 43 64 z"/>
<path style="fill:#060707" d="M79 65 L79 66 L78 67 C75.21 65.58 67.41 71.82 69 67 L72 66 L79 65 z"/>
<path style="fill:#121313" d="M33 66 L30 68 C26.74 65.06 31.8 61.9 33 66 z"/>
<path style="fill:#444545" d="M68 65 C67.98 65.66 67.82 67.15 69 67 C67.41 71.82 75.21 65.58 78 67 C77.98 68.44 77.24 70.39 76 71 C75.83 67.7 69.6 70.89 67 71 C67.02 70.34 67.18 68.85 66 69 L61 68 L61 66 L68 65 z"/>
<path style="fill:#3a3a3a" d="M26 67 L26 68 L22 69 C20.93 69.62 18.46 71.05 18 69 C18.66 69.02 20.15 69.18 20 68 C21.18 68.15 21.02 66.66 21 66 L26 67 z"/>
<path style="fill:#3e3e3e" d="M33 66 L34 67 L34 69 C31.89 68.33 31.79 70.58 32 72 L24 72 L24 70 C25.47 71.27 32.47 72.23 30 69 L30 68 L33 66 z"/>
<path style="fill:#373838" d="M55 66 L57 68 C57.02 68.66 57.18 70.15 56 70 L55 69 C54.81 67.45 51.19 67.45 51 69 L52 66 L55 66 z"/>
<path style="fill:#777777" d="M79 66 L78 67 L79 66 z"/>
<path style="fill:#898989" d="M10 68 L9 67 L10 68 z"/>
<path style="fill:#090a0a" d="M37 67 C37.1 68.7 37.38 72.15 35 70 L34 69 L34 67 L37 67 z"/>
<path style="fill:#494a4a" d="M42 68 C36.79 66.79 39.64 73.68 43 70 C42.57 71.06 44.43 71.06 44 70 C45.67 70.77 46.76 72.78 49 72 C51.15 75.94 50.93 77.01 47 77 L47 76 C49.38 73.05 44.59 73.15 43 72 C42.34 71.98 40.85 71.82 41 73 C39.58 72.79 37.33 72.89 38 75 C35.54 75.24 32.76 72.01 35 70 C37.38 72.15 37.1 68.7 37 67 L42 68 z"/>
<path style="fill:#0a0b0b" d="M66 69 L61 68 L66 69 z"/>
<path style="fill:#606161" d="M18 69 C18.46 71.05 20.93 69.62 22 69 L24 70 L24 72 C24.26 73.29 25.66 74.33 27 74 C27.02 74.66 27.18 76.15 26 76 C23.31 74.63 18.16 74.15 16 76 L14 74 L23 73 C21.2 70.6 12.73 68.46 12 72 C10.76 71.39 10.02 69.44 10 68 L18 69 z"/>
<path style="fill:#0f0f0f" d="M26 68 L30 69 C32.47 72.23 25.47 71.27 24 70 L22 69 L26 68 z"/>
<path style="fill:#070707" d="M42 68 C43.18 67.85 43.02 69.34 43 70 C39.64 73.68 36.79 66.79 42 68 z"/>
<path style="fill:#0b0c0c" d="M49 72 C46.76 72.78 45.67 70.77 44 70 C43.64 65.85 50.86 68.43 49 72 z"/>
<path style="fill:#070707" d="M55 69 C55.9 72.67 50.36 72.03 51 69 C51.19 67.45 54.81 67.45 55 69 z"/>
<path style="fill:#0a0b0b" d="M76 71 L75 72 L74 73 L66 73 L66 71 L67 71 C69.6 70.89 75.83 67.7 76 71 z"/>
<path style="fill:#121212" d="M14 74 L13 73 L12 72 C12.73 68.46 21.2 70.6 23 73 L14 74 z"/>
<path style="fill:#2b2b2b" d="M66 71 L66 73 L66 75 L63 75 L63 74 C65.86 72.4 61.68 71.68 60.25 71.75 C61.44 70.81 64.31 69.34 66 71 z"/>
<path style="fill:#626262" d="M76 71 L75 72 L76 71 z"/>
<path style="fill:#7e7e7e" d="M13 73 L12 72 L13 73 z"/>
<path style="fill:#131313" d="M32 72 L34 76 L28.25 75.25 C32.52 75 29.71 73.4 27 74 C25.66 74.33 24.26 73.29 24 72 L32 72 z"/>
<path style="fill:#0e0e0e" d="M47 76 C44.84 78.08 42.29 74.19 43 72 C44.59 73.15 49.38 73.05 47 76 z"/>
<path style="fill:#101010" d="M47 77 C50.93 77.01 51.15 75.94 49 72 C58.14 70.05 50.63 84.92 47 79 C45.83 80.13 43.44 80.32 43.25 78.25 L47 77 z"/>
<path style="fill:#0b0c0c" d="M41 73 C43.52 76.91 40.08 79.88 38 75 C37.33 72.89 39.58 72.79 41 73 z"/>
<path style="fill:#656666" d="M74 73 L73 74 L66 75 L66 73 L74 73 z"/>
<path style="fill:#373838" d="M34 76 C40.5 76.7 39.66 85.45 33 86 L32 86 L32 85 L36 80 C35.3 77.96 32.28 79.15 31 80 L27 79 L27 78 C33.57 79.22 30.82 75.03 27 78 L24 78 L26 76 C27.18 76.15 27.02 74.66 27 74 C29.71 73.4 32.52 75 28.25 75.25 L34 76 z"/>
<path style="fill:#0e0e0e" d="M58 74 L61 74 C60.96 78.18 53.14 74.32 58 74 z"/>
<path style="fill:#0f0f0f" d="M73 74 L73 75 L72 76 L71 77 L70 78 L69 78 L64 77 C62.44 77.9 60.98 75.19 63 75 L66 75 L73 74 z"/>
<path style="fill:#090909" d="M26 76 L24 78 L18 78 L17 77 L16 76 C18.16 74.15 23.31 74.63 26 76 z"/>
<path style="fill:#9b9b9b" d="M73 75 L72 76 L73 75 z"/>
<path style="fill:#929292" d="M72 76 L71 77 L72 76 z"/>
<path style="fill:#5d5d5d" d="M18 78 L17 77 L18 78 z"/>
<path style="fill:#787878" d="M27 78 C30.82 75.03 33.57 79.22 27 78 z"/>
<path style="fill:#353636" d="M69 78 L67 80 L62 78 C62.66 78.02 64.15 78.18 64 77 L69 78 z"/>
<path style="fill:#8c8c8c" d="M71 77 L70 78 L71 77 z"/>
<path style="fill:#555656" d="M24 78 L27 78 L27 79 L21 80 L20 80 L18 78 L24 78 z"/>
<path style="fill:#b3b3b3" d="M55 79 C55.7 76.48 58.22 79.73 55 79 z"/>
<path style="fill:#0a0a0a" d="M62 78 L67 80 L66 81 C62.81 81.42 53.98 77.71 62 78 z"/>
<path style="fill:#121212" d="M27 79 L31 80 C24.76 83.6 33.43 80.27 36 80 L32 85 L29 85 L27 84 C27.71 81.32 24.55 82.06 23 82 L22 81 L21 81 L21 80 L27 79 z"/>
<path style="fill:#575858" d="M36 80 C33.43 80.27 24.76 83.6 31 80 C32.28 79.15 35.3 77.96 36 80 z"/>
<path style="fill:#0a0b0b" d="M44 87 L43 87 L41 82 C40.63 75.59 47.55 84.34 44 87 z"/>
<path style="fill:#0f1010" d="M55 79 L62 83 C59.23 84.45 49.63 80.85 55 79 z"/>
<path style="fill:#aaaaaa" d="M21 80 L21 81 L20 80 L21 80 z"/>
<path style="fill:#7e7e7e" d="M67 80 L66 81 L67 80 z"/>
<path style="fill:#828282" d="M23 82 L22 81 L23 82 z"/>
<path style="fill:#666767" d="M27 84 L23 82 C24.55 82.06 27.71 81.32 27 84 z"/>
<path style="fill:#404040" d="M43 87 L39 87 L41 82 L43 87 z"/>
<path style="fill:#232323" d="M49 87 L46 87 C45.95 84.96 45.29 80.61 48.75 82.25 C47.11 84.14 46.6 85.73 49 87 z"/>
<path style="fill:#151515" d="M56 86 L54 86 C50.87 83.19 59.13 83.19 56 86 z"/>
<path style="fill:#a8a9a9" d="M32 85 L32 86 C31.05 85.81 29.06 86.59 29 85 L32 85 z"/>
<path style="fill:#8d8d8d" d="M43 87 L44 87 L46 87 L49 87 C47.01 88.66 40.99 88.66 39 87 L43 87 z"/>
</svg>
