<?xml version="1.0" standalone="yes"?>
<svg width="87" height="97">
<path style="fill:#fdfefe" d="M87 0 L87 97 L0 97 L0 0 L87 0 z"/>
<path style="fill:#565757" d="M49 20 L49 21 L39 21 L49 20 z"/>
<path style="fill:#ababab" d="M51 21 L49 21 L49 20 C49.66 19.98 51.15 19.82 51 21 z"/>
<path style="fill:#717272" d="M37 22 L35 22 C34.78 20.67 37.22 20.67 37 22 z"/>
<path style="fill:#b5b5b5" d="M39 21 C37.29 26.07 41.39 25.63 44 27 L43 27 C39.46 26.87 34.24 27.72 37 32 L36 33 C36.02 32.34 36.18 30.85 35 31 C33.61 26.62 40.03 26.31 37 22 L39 21 z"/>
<path style="fill:#0f0f0f" d="M49 21 L51 21 L50 26 C48.27 26.3 44.36 24.9 45 28 C45.24 31.25 43.26 28.88 44 27 C41.39 25.63 37.29 26.07 39 21 L49 21 z"/>
<path style="fill:#a2a2a2" d="M55 22 C50.6 20.44 50.98 28.25 54.75 28.25 C54.97 29.75 52.93 33.04 56 31 C56.66 30.98 58.15 30.82 58 32 C56.31 31.59 54.59 33.31 55 35 L52 32 C54.42 29.65 51.31 28.29 50 27 C51.06 27.43 51.06 25.57 50 26 L51 21 L55 22 z"/>
<path style="fill:#121212" d="M35 22 L37 22 C40.03 26.31 33.61 26.62 35 31 C32.57 27.89 30.75 30.25 28 31 L26 27 L27 26 L28 25 L30 24 L31 23 L35 22 z"/>
<path style="fill:#131414" d="M55 22 L58 23 L59 24 L61 25 L62 26 L63 27 L56 31 C52.93 33.04 54.97 29.75 54.75 28.25 C50.98 28.25 50.6 20.44 55 22 z"/>
<path style="fill:#909090" d="M31 23 L30 24 L31 23 z"/>
<path style="fill:#7d7d7d" d="M59 24 L58 23 L59 24 z"/>
<path style="fill:#888888" d="M28 25 L27 26 L28 25 z"/>
<path style="fill:#757575" d="M62 26 L61 25 L62 26 z"/>
<path style="fill:#828383" d="M50 26 L50 27 C46.99 26.02 46.6 28.73 47 31 L45 28 C44.36 24.9 48.27 26.3 50 26 z"/>
<path style="fill:#ffffff" d="M50 27 L50 26 C51.06 25.57 51.06 27.43 50 27 z"/>
<path style="fill:#b7b8b8" d="M26 27 L28 31 L23 29 L26 27 z"/>
<path style="fill:#1d1d1d" d="M43 27 L43 31 L38 32 L37 32 C34.24 27.72 39.46 26.87 43 27 z"/>
<path style="fill:#eaebeb" d="M44 27 C43.26 28.88 45.24 31.25 45 28 L47 31 L47 33 L47 35 C45.36 36.03 45.36 40.97 47 42 L46 43 C44.17 42.92 41.46 42.63 41 45 L39 45 C39.15 43.82 37.66 43.98 37 44 L36 43 L35 43 L34 42 L32 42 L29 40 L29 37 L30 37 L33 39 L37 41 L38 42 C40.98 44.02 40.95 41.96 39 40 L38 39 L36 36 L35 33 L36 33 L37 32 L38 32 L39 33 L40 36 C39.98 36.66 39.82 38.15 41 38 L41 39 L42 40 L42 41 C43.45 44.33 45.47 38.27 43 38 L43 37 L43 32 L43 31 L43 27 L44 27 z"/>
<path style="fill:#090909" d="M50 27 C51.31 28.29 54.42 29.65 52 32 L47 31 C46.6 28.73 46.99 26.02 50 27 z"/>
<path style="fill:#babbbb" d="M65 29 C58.24 31.05 65.57 36.15 59.25 38.75 C60.92 38.99 65.39 36.14 65 40 L64 40 C64.22 38.67 61.78 38.67 62 40 C60.65 39.54 59.54 40.65 60 42 C59.98 42.66 59.82 44.15 61 44 L61 45 L59 45 C59.21 43.58 59.11 41.33 57 42 C59.97 40.71 57.95 37.04 55 39 C55.84 37.82 55.84 37.18 55 36 L56 36 C59.58 38.96 63.08 33.26 58 32 C58.15 30.82 56.66 30.98 56 31 L63 27 L65 29 z"/>
<path style="fill:#9f9f9f" d="M23 29 L22 30 L23 29 z"/>
<path style="fill:#151616" d="M28 31 C27.43 33.65 24.84 35.45 27.75 37.75 C23.81 35.68 22.61 42.28 18 39 L18 37 C19.18 37.15 19.02 35.66 19 35 C20.18 35.15 20.02 33.66 20 33 L22 30 L23 29 L28 31 z"/>
<path style="fill:#b3b3b3" d="M35 31 L35 33 L36 36 C34.31 35.59 32.59 37.31 33 39 L30 37 C40.3 33.65 25.96 27.85 29 37 L29 40 C25.55 36.32 21.73 42.89 25 45 L28 48 C21.24 45.41 23.87 57.77 29 53 L31 56 C28.5 55.49 27.2 58.42 29 60 L30 61 L33 62 C32.42 65.2 25.03 59.85 25 67 L22 64 C30.88 64.32 25.47 51.21 19 53 L19 52 C25.11 49.59 23.74 41.93 18 40 L18 39 C22.61 42.28 23.81 35.68 27.75 37.75 C24.84 35.45 27.43 33.65 28 31 C30.75 30.25 32.57 27.89 35 31 z"/>
<path style="fill:#151616" d="M65 29 L66 30 L67 31 L68 32 L69 33 L69 34 L70 35 L70 36 L71 37 C71.49 39.31 68.92 40.52 67 40 L66 40 L65 40 C65.39 36.14 60.92 38.99 59.25 38.75 C65.57 36.15 58.24 31.05 65 29 z"/>
<path style="fill:#6f6f6f" d="M67 31 L66 30 L67 31 z"/>
<path style="fill:#101010" d="M30 37 L29 37 C25.96 27.85 40.3 33.65 30 37 z"/>
<path style="fill:#575858" d="M36 33 L35 33 L35 31 C36.18 30.85 36.02 32.34 36 33 z"/>
<path style="fill:#afb0b0" d="M43 31 L43 32 C42.34 31.98 40.85 31.82 41 33 L39 33 L38 32 L43 31 z"/>
<path style="fill:#a3a3a3" d="M52 32 C52.15 33.18 50.66 33.02 50 33 L47 33 L47 31 L52 32 z"/>
<path style="fill:#8a8a8a" d="M68 32 L67 31 L68 32 z"/>
<path style="fill:#585959" d="M43 32 L43 37 L41 33 C40.85 31.82 42.34 31.98 43 32 z"/>
<path style="fill:#eaeaea" d="M55 35 L56 36 L55 36 C54.34 35.98 52.85 35.82 53 37 L52 38 L51 39 L50 40 L48 42 L47 42 L48 39 C49.18 39.15 49.02 37.66 49 37 L50 33 C50.66 33.02 52.15 33.18 52 32 L55 35 z"/>
<path style="fill:#0c0c0c" d="M58 32 C63.08 33.26 59.58 38.96 56 36 L55 35 C54.59 33.31 56.31 31.59 58 32 z"/>
<path style="fill:#ababab" d="M69 33 L68 32 L69 33 z"/>
<path style="fill:#818282" d="M20 33 C20.02 33.66 20.18 35.15 19 35 C18.98 34.34 18.82 32.85 20 33 z"/>
<path style="fill:#131414" d="M41 33 L43 37 L43 38 C42.81 38.95 43.59 40.94 42 41 L42 40 L41 39 L41 38 C41.02 37.34 41.18 35.85 40 36 L39 33 L41 33 z"/>
<path style="fill:#141515" d="M50 33 L49 37 C47.82 36.85 47.98 38.34 48 39 L47 35 L47 33 L50 33 z"/>
<path style="fill:#9b9b9b" d="M70 35 L69 34 L70 35 z"/>
<path style="fill:#868787" d="M19 35 C19.02 35.66 19.18 37.15 18 37 C17.98 36.34 17.82 34.85 19 35 z"/>
<path style="fill:#555656" d="M47 35 L48 39 L47 42 C45.36 40.97 45.36 36.03 47 35 z"/>
<path style="fill:#1d1d1d" d="M36 36 L38 39 L39 40 C40.95 41.96 40.98 44.02 38 42 L37 41 L33 39 C32.59 37.31 34.31 35.59 36 36 z"/>
<path style="fill:#8c8d8d" d="M41 38 C39.82 38.15 39.98 36.66 40 36 C41.18 35.85 41.02 37.34 41 38 z"/>
<path style="fill:#1c1d1d" d="M55 36 C55.84 37.18 55.84 37.82 55 39 L53 40 L52 41 L50 43 C49.34 43.02 47.85 43.18 48 42 L50 40 L51 39 L52 38 L53 37 C52.85 35.82 54.34 35.98 55 36 z"/>
<path style="fill:#aaaaaa" d="M71 37 L70 36 L71 37 z"/>
<path style="fill:#a9a9a9" d="M18 37 L18 39 C16.67 39.22 16.67 36.78 18 37 z"/>
<path style="fill:#979797" d="M49 37 C49.02 37.66 49.18 39.15 48 39 C47.98 38.34 47.82 36.85 49 37 z"/>
<path style="fill:#727272" d="M53 37 L52 38 L53 37 z"/>
<path style="fill:#989999" d="M42 41 C43.59 40.94 42.81 38.95 43 38 C45.47 38.27 43.45 44.33 42 41 z"/>
<path style="fill:#919191" d="M52 38 L51 39 L52 38 z"/>
<path style="fill:#f0f0f0" d="M57 42 L56 42 L55 43 L54 43 C53.34 42.98 51.85 42.82 52 44 L51 44 L50 43 L52 41 L53 40 L55 39 C57.95 37.04 59.97 40.71 57 42 z"/>
<path style="fill:#191919" d="M29 40 L28 43 C28.67 45.11 26.42 45.21 25 45 C21.73 42.89 25.55 36.32 29 40 z"/>
<path style="fill:#919191" d="M39 40 L38 39 L39 40 z"/>
<path style="fill:#848484" d="M42 40 L41 39 L42 40 z"/>
<path style="fill:#949494" d="M51 39 L50 40 L51 39 z"/>
<path style="fill:#5a5b5b" d="M64 40 L62 40 C61.78 38.67 64.22 38.67 64 40 z"/>
<path style="fill:#707070" d="M17 40 L16 44 L17 40 z"/>
<path style="fill:#0d0e0e" d="M18 40 C23.74 41.93 25.11 49.59 19 52 C14.07 53.1 16.61 46.76 16 44 L17 40 L18 40 z"/>
<path style="fill:#8a8b8b" d="M32 42 C29.89 41.33 29.79 43.58 30 45 L28 43 L29 40 L32 42 z"/>
<path style="fill:#818181" d="M53 40 L52 41 L53 40 z"/>
<path style="fill:#090909" d="M62 40 L64 40 C64.19 40.95 63.41 42.94 65 43 L65 45 L61 45 L61 44 C61.02 43.34 61.18 41.85 60 42 C59.54 40.65 60.65 39.54 62 40 z"/>
<path style="fill:#575757" d="M65 40 L65 43 C63.41 42.94 64.19 40.95 64 40 L65 40 z"/>
<path style="fill:#dedfdf" d="M66 40 L66 46 L65 45 L65 43 L65 40 L66 40 z"/>
<path style="fill:#6a6b6b" d="M67 40 C66.85 41.18 68.34 41.02 69 41 L66 46 L66 40 L67 40 z"/>
<path style="fill:#919191" d="M38 42 L37 41 L38 42 z"/>
<path style="fill:#0c0d0d" d="M72 43 L72 49 L72 52 L71 53 L69 53 C69.15 51.82 67.66 51.98 67 52 L65 48 L66 46 L69 41 C70.42 40.79 72.67 40.89 72 43 z"/>
<path style="fill:#1c1d1d" d="M32 42 L34 42 L35 43 L36 43 L37 44 C37.66 43.98 39.15 43.82 39 45 L39 46 L30 45 C29.79 43.58 29.89 41.33 32 42 z"/>
<path style="fill:#989898" d="M35 43 L34 42 L35 43 z"/>
<path style="fill:#b4b4b4" d="M48 42 C47.85 43.18 49.34 43.02 50 43 L51 44 L50 46 L48 45 L46 43 L47 42 L48 42 z"/>
<path style="fill:#898989" d="M56 42 L55 43 L56 42 z"/>
<path style="fill:#151616" d="M57 42 C59.11 41.33 59.21 43.58 59 45 L57 45 L52 46 L50 46 L51 44 L52 44 C52.66 44.02 54.15 44.18 54 43 L55 43 L56 42 L57 42 z"/>
<path style="fill:#585959" d="M61 44 C59.82 44.15 59.98 42.66 60 42 C61.18 41.85 61.02 43.34 61 44 z"/>
<path style="fill:#e7e7e7" d="M30 45 L39 46 C40.06 45.57 40.06 47.43 39 47 L37 47 C36.05 47.19 34.06 46.41 34 48 L30 48 L28 50 L28 48 L25 45 C26.42 45.21 28.67 45.11 28 43 L30 45 z"/>
<path style="fill:#848484" d="M37 44 L36 43 L37 44 z"/>
<path style="fill:#1c1d1d" d="M46 43 L48 45 C49.2 48.23 43.9 52.04 42 49 L41 48 L41 45 C41.46 42.63 44.17 42.92 46 43 z"/>
<path style="fill:#808181" d="M54 43 C54.15 44.18 52.66 44.02 52 44 C51.85 42.82 53.34 42.98 54 43 z"/>
<path style="fill:#bcbdbd" d="M72 49 L72 43 C73.62 43.73 73.62 48.27 72 49 z"/>
<path style="fill:#e6e7e7" d="M50 46 L52 46 L57 45 L59 45 L61 45 C63.19 46.44 63.19 47.56 61 49 L59 49 L54 48 C45.72 46.1 51.11 50.68 56 51 C59.01 52.09 58.36 53.29 59 56 L57 56 L55 55 L51 52 C49.93 47.92 45.92 51.93 50 53 L51 55 L52 56 L53 57 L54 59 L52 61 L52 62 L51 62 L50 61 C50.02 60.34 50.18 58.85 49 59 L47 53 C47.6 48.76 42.7 52.89 46 54 L46 60 L47 62 L46 62 L42 62 L42 60 L42 58 C44.39 56.56 42.76 47.43 41 54 L39 60 L39 61 L36 62 C36.56 61.2 35.21 59.03 35 61 L33 62 L34 59 L35 57 L40.75 50.25 C37.89 50.84 33.42 53.5 33 57 L32 57 L31 56 L29 53 L29 52 C29.95 51.81 31.94 52.59 32 51 L35 50 L36 49 L38 49 L39 48 L41 48 L42 49 C43.9 52.04 49.2 48.23 48 45 L50 46 z"/>
<path style="fill:#9d9d9d" d="M41 45 L41 48 L39 48 L39 47 C40.06 47.43 40.06 45.57 39 46 L39 45 L41 45 z"/>
<path style="fill:#a8a8a8" d="M57 45 L52 46 L57 45 z"/>
<path style="fill:#8b8c8c" d="M65 45 L66 46 L65 48 L64 49 L61 49 C63.19 47.56 63.19 46.44 61 45 L65 45 z"/>
<path style="fill:#828282" d="M37 47 C36.94 48.59 34.95 47.81 34 48 C34.06 46.41 36.05 47.19 37 47 z"/>
<path style="fill:#121212" d="M39 47 L39 48 L38 49 L36 49 L35 50 L32 51 C29.89 51.67 29.79 49.42 30 48 L34 48 C34.95 47.81 36.94 48.59 37 47 L39 47 z"/>
<path style="fill:#242424" d="M54 48 L59 49 C59.67 51.11 57.42 51.21 56 51 C51.11 50.68 45.72 46.1 54 48 z"/>
<path style="fill:#141515" d="M28 48 L28 50 L29 52 L29 53 C23.87 57.77 21.24 45.41 28 48 z"/>
<path style="fill:#868787" d="M30 48 C29.79 49.42 29.89 51.67 32 51 C31.94 52.59 29.95 51.81 29 52 L28 50 L30 48 z"/>
<path style="fill:#757575" d="M39 48 L38 49 L39 48 z"/>
<path style="fill:#707070" d="M42 49 L41 48 L42 49 z"/>
<path style="fill:#626363" d="M59 49 L54 48 L59 49 z"/>
<path style="fill:#d9d9d9" d="M65 48 L67 52 C66.81 54.02 64.1 52.56 65 51 C65.02 50.34 65.18 48.85 64 49 L65 48 z"/>
<path style="fill:#666666" d="M36 49 L35 50 L36 49 z"/>
<path style="fill:#7c7d7d" d="M61 49 C59.75 50.53 59.75 52.47 61 54 L60 55 L60 56 L59 56 C58.36 53.29 59.01 52.09 56 51 C57.42 51.21 59.67 51.11 59 49 L61 49 z"/>
<path style="fill:#0e0f0f" d="M64 49 C65.18 48.85 65.02 50.34 65 51 L61 54 C59.75 52.47 59.75 50.53 61 49 L64 49 z"/>
<path style="fill:#252626" d="M35 57 L33 57 C33.42 53.5 37.89 50.84 40.75 50.25 L35 57 z"/>
<path style="fill:#636464" d="M51 52 L50 53 C45.92 51.93 49.93 47.92 51 52 z"/>
<path style="fill:#616262" d="M42 58 L41 54 C42.76 47.43 44.39 56.56 42 58 z"/>
<path style="fill:#8b8b8b" d="M47 53 L46 54 C42.7 52.89 47.6 48.76 47 53 z"/>
<path style="fill:#9fa0a0" d="M65 51 C64.1 52.56 66.81 54.02 67 52 C67.66 51.98 69.15 51.82 69 53 L68 54 L61 56 L60 55 L61 54 L65 51 z"/>
<path style="fill:#111212" d="M51 52 L55 55 C55.46 56.35 54.35 57.46 53 57 L52 56 L51 55 L50 53 L51 52 z"/>
<path style="fill:#797979" d="M72 52 L71 53 L72 52 z"/>
<path style="fill:#646464" d="M19 53 L18 57 C16.15 56.62 16.52 52.01 19 53 z"/>
<path style="fill:#0f0f0f" d="M22 64 L21 62 L20 61 L19 60 L19 59 L18 58 L18 57 L19 53 C25.47 51.21 30.88 64.32 22 64 z"/>
<path style="fill:#262727" d="M47 53 L49 59 C48.94 60.59 46.95 59.81 46 60 L46 54 L47 53 z"/>
<path style="fill:#1d1d1d" d="M42 58 L42 60 L39 60 L41 54 L42 58 z"/>
<path style="fill:#101010" d="M68 54 C68.66 53.98 70.15 53.82 70 55 L70 57 L69 58 L69 59 C67.82 58.85 67.98 60.34 68 61 L67 62 L66 63 L65 64 C62.54 64.19 60.38 61.39 61 59 C63.02 58.73 61.32 56.9 61 56 L68 54 z"/>
<path style="fill:#7e7e7e" d="M52 56 L51 55 L52 56 z"/>
<path style="fill:#8e8e8e" d="M57 56 L54 59 L53 57 C54.35 57.46 55.46 56.35 55 55 L57 56 z"/>
<path style="fill:#171717" d="M61 56 L60 56 L60 55 L61 56 z"/>
<path style="fill:#9b9b9b" d="M70 57 L70 55 C71.33 54.78 71.33 57.22 70 57 z"/>
<path style="fill:#090a0a" d="M31 56 L32 57 L34 59 L33 62 L30 61 L29 60 C27.2 58.42 28.5 55.49 31 56 z"/>
<path style="fill:#6f6f6f" d="M32 57 L31 56 L32 57 z"/>
<path style="fill:#181919" d="M59 56 L61 59 C59.14 61.13 54.07 64.11 54 59 L57 56 L59 56 z"/>
<path style="fill:#c9c9c9" d="M60 56 L61 56 C61.32 56.9 63.02 58.73 61 59 L59 56 L60 56 z"/>
<path style="fill:#949595" d="M33 57 L35 57 L34 59 L32 57 L33 57 z"/>
<path style="fill:#646464" d="M70 57 L69 58 L70 57 z"/>
<path style="fill:#909090" d="M19 59 L18 58 L19 59 z"/>
<path style="fill:#979898" d="M50 61 L47 62 L46 60 C46.95 59.81 48.94 60.59 49 59 C50.18 58.85 50.02 60.34 50 61 z"/>
<path style="fill:#bcbcbc" d="M54 59 C54.07 64.11 59.14 61.13 61 59 C60.38 61.39 62.54 64.19 65 64 L63 66 C61.02 59.51 56.2 65.98 53 62 L52 61 L54 59 z"/>
<path style="fill:#9f9f9f" d="M69 59 C69.02 59.66 69.18 61.15 68 61 C67.98 60.34 67.82 58.85 69 59 z"/>
<path style="fill:#aaaaaa" d="M20 61 L19 60 L20 61 z"/>
<path style="fill:#5e5e5e" d="M30 61 L29 60 L30 61 z"/>
<path style="fill:#c4c4c4" d="M36 62 C34.28 65.52 42.34 68.1 42 64 L43 64 C44.73 68.82 37.11 65.34 38 70 L37 70 C38.17 65.23 31.69 65.96 35 61 C35.21 59.03 36.56 61.2 36 62 z"/>
<path style="fill:#878888" d="M42 60 L42 62 C41.05 61.81 39.06 62.59 39 61 L39 60 L42 60 z"/>
<path style="fill:#8b8b8b" d="M21 62 L20 61 L21 62 z"/>
<path style="fill:#111212" d="M35 61 C31.69 65.96 38.17 65.23 37 70 C35.82 69.85 35.98 71.34 36 72 L34 72 L33 71 L28 69 L27 68 L25 67 C25.03 59.85 32.42 65.2 33 62 L35 61 z"/>
<path style="fill:#131313" d="M39 61 C39.06 62.59 41.05 61.81 42 62 L42 64 C42.34 68.1 34.28 65.52 36 62 L39 61 z"/>
<path style="fill:#0d0e0e" d="M50 61 L51 62 C51.32 62.9 53.02 64.73 51 65 C50.34 64.98 48.85 64.82 49 66 L47 66 L46 62 L47 62 L50 61 z"/>
<path style="fill:#3b3b3b" d="M53 62 L52 62 L52 61 L53 62 z"/>
<path style="fill:#ababab" d="M68 61 L67 62 L68 61 z"/>
<path style="fill:#8d8e8e" d="M46 62 L47 66 L49 68 C44.75 69.29 44.11 66.56 43 64 L42 64 L42 62 L46 62 z"/>
<path style="fill:#aeaeae" d="M52 62 L53 62 C52.86 63.6 55.46 66.49 52 66 L51 65 C53.02 64.73 51.32 62.9 51 62 L52 62 z"/>
<path style="fill:#0f0f0f" d="M63 66 L62 67 L61 68 L60 69 L59 69 L58 70 L55 71 L54 72 L53 72 L51 72 L51 71 C50.81 70.05 51.59 68.06 50 68 L50 67 C50.66 67.02 52.15 67.18 52 66 C55.46 66.49 52.86 63.6 53 62 C56.2 65.98 61.02 59.51 63 66 z"/>
<path style="fill:#6d6d6d" d="M67 62 L66 63 L67 62 z"/>
<path style="fill:#101111" d="M49 68 L49 69 L49 73 L46 73 L41 73 L38 73 L38 70 C37.11 65.34 44.73 68.82 43 64 C44.11 66.56 44.75 69.29 49 68 z"/>
<path style="fill:#696969" d="M51 65 L52 66 C52.15 67.18 50.66 67.02 50 67 L49 66 C48.85 64.82 50.34 64.98 51 65 z"/>
<path style="fill:#e4e5e5" d="M49 66 L50 67 L50 68 L49 69 L49 68 L47 66 L49 66 z"/>
<path style="fill:#6a6a6a" d="M63 66 L62 67 L63 66 z"/>
<path style="fill:#929292" d="M62 67 L61 68 L62 67 z"/>
<path style="fill:#808080" d="M28 69 L27 68 L28 69 z"/>
<path style="fill:#696a6a" d="M51 71 L49 73 L49 69 L50 68 C51.59 68.06 50.81 70.05 51 71 z"/>
<path style="fill:#a1a1a1" d="M61 68 L60 69 L61 68 z"/>
<path style="fill:#777777" d="M59 69 L58 70 L59 69 z"/>
<path style="fill:#767777" d="M37 70 L38 70 L38 73 L36 72 C35.98 71.34 35.82 69.85 37 70 z"/>
<path style="fill:#808080" d="M34 72 L33 71 L34 72 z"/>
<path style="fill:#808080" d="M55 71 L54 72 L55 71 z"/>
<path style="fill:#aaaaaa" d="M53 72 C53.22 73.33 50.78 73.33 51 72 L53 72 z"/>
<path style="fill:#b5b5b5" d="M46 73 C45.55 74.6 41.45 74.6 41 73 L46 73 z"/>
</svg>
