<?xml version="1.0" standalone="yes"?>
<svg width="87" height="97">
<path style="fill:#fcfdfd" d="M87 0 L87 97 L0 97 L0 0 L87 0 z"/>
<path style="fill:#c5c5c5" d="M47 16 L38 16 C39.66 14.35 45.34 14.35 47 16 z"/>
<path style="fill:#050505" d="M38 16 L47 16 L49 16 C48.85 17.18 50.34 17.02 51 17 L53 17 C52.85 18.18 54.34 18.02 55 18 L58 19 L59 20 L61 21 L62 22 L68 28 L69 29 L70 30 L70 31 L71 32 L71 33 L72 34 L72 35 C71.98 35.66 71.82 37.15 73 37 L73 38 C72.98 38.66 72.82 40.15 74 40 L74 42 L74 52 L73 58 L72 59 L71 63 L70 64 L69 65 L68 67 L67 68 L66 69 L65 70 L64 71 L63 72 L61 73 L60 74 L59 75 L58 75 L57 76 L56 76 C55.34 75.98 53.85 75.82 54 77 L53 77 C52.34 76.98 50.85 76.82 51 78 L49 78 L38 78 L36 78 C36.15 76.82 34.66 76.98 34 77 L32 77 L31 76 L30 76 L29 75 L28 75 L27 74 L26 74 L25 73 L24 72 L18 66 L17 65 L16 63 L15 62 L14 58 L13 57 L13 56 C13.02 55.34 13.18 53.85 12 54 L12 52 L12 42 L12 40 C13.18 40.15 13.02 38.66 13 38 L14 34 L15 33 L16 31 L17 30 L18 28 L19 27 L20 26 L22 24 L23 23 L24 22 L26 21 L27 20 L32 18 C32.66 18.02 34.15 18.18 34 17 L38 16 z"/>
<path style="fill:#6a6a6a" d="M51 17 C50.34 17.02 48.85 17.18 49 16 C49.66 15.98 51.15 15.82 51 17 z"/>
<path style="fill:#5d5e5e" d="M34 17 C34.15 18.18 32.66 18.02 32 18 C31.85 16.82 33.34 16.98 34 17 z"/>
<path style="fill:#8f9090" d="M55 18 C54.34 18.02 52.85 18.18 53 17 C53.66 16.98 55.15 16.82 55 18 z"/>
<path style="fill:#909090" d="M59 20 L58 19 L59 20 z"/>
<path style="fill:#6c6c6c" d="M27 20 L26 21 L27 20 z"/>
<path style="fill:#818181" d="M62 22 L61 21 L62 22 z"/>
<path style="fill:#989898" d="M24 22 L23 23 L24 22 z"/>
<path style="fill:#767676" d="M23 23 L22 24 L23 23 z"/>
<path style="fill:#3b3c3c" d="M47 24 L40 24 C41.03 22.36 45.97 22.36 47 24 z"/>
<path style="fill:#737474" d="M40 24 L40 25 L30 28 C31.98 24.81 36.44 24.12 40 24 z"/>
<path style="fill:#c0c1c1" d="M47 24 L49 24 L48 25 L40 25 L40 24 L47 24 z"/>
<path style="fill:#6d6e6e" d="M65 38 L64 38 L63 37 C60.43 30.76 53.57 26.64 48 25 L49 24 C55.86 25.65 62.7 31.3 65 38 z"/>
<path style="fill:#030303" d="M40 25 L48 25 C53.57 26.64 60.43 30.76 63 37 L23 38 L30 28 L40 25 z"/>
<path style="fill:#696969" d="M20 26 L19 27 L20 26 z"/>
<path style="fill:#848484" d="M19 27 L18 28 L19 27 z"/>
<path style="fill:#727272" d="M30 28 L23 38 L22 39 L21 39 C22.26 34.72 25.39 29.27 30 28 z"/>
<path style="fill:#767676" d="M69 29 L68 28 L69 29 z"/>
<path style="fill:#a1a1a1" d="M70 30 L69 29 L70 30 z"/>
<path style="fill:#666666" d="M17 30 L16 31 L17 30 z"/>
<path style="fill:#5b5b5b" d="M71 32 L70 31 L71 32 z"/>
<path style="fill:#a3a3a3" d="M15 33 L14 34 L15 33 z"/>
<path style="fill:#606060" d="M72 34 L71 33 L72 34 z"/>
<path style="fill:#545555" d="M73 37 C71.82 37.15 71.98 35.66 72 35 C73.18 34.85 73.02 36.34 73 37 z"/>
<path style="fill:#2c2d2d" d="M64 38 L22 39 L23 38 L63 37 L64 38 z"/>
<path style="fill:#ababab" d="M13 38 C13.02 38.66 13.18 40.15 12 40 C11.98 39.34 11.82 37.85 13 38 z"/>
<path style="fill:#d5d6d6" d="M65 38 L65 39 L65 40 L22 40 L21 40 L21 39 L22 39 L64 38 L65 38 z"/>
<path style="fill:#5e5f5f" d="M74 40 C72.82 40.15 72.98 38.66 73 38 C74.18 37.85 74.02 39.34 74 40 z"/>
<path style="fill:#595a5a" d="M65 55 L65 54 L65 41 L65 40 L65 39 C67.66 42.79 68.44 51.27 65 55 z"/>
<path style="fill:#5b5c5c" d="M21 40 L22 40 L22 41 C20.21 44.12 20.51 50.36 22 54 L21 55 C19.07 51.12 17.64 43.73 21 40 z"/>
<path style="fill:#282828" d="M65 40 L65 41 L22 41 L22 40 L65 40 z"/>
<path style="fill:#101" d="M22 41 L65 41 L65 54 L22 54 C20.51 50.36 20.21 44.12 22 41 z"/>
<path style="fill:#c4c5c5" d="M12 42 L12 52 C10.34 50.01 10.34 43.99 12 42 z"/>
<path style="fill:#656666" d="M74 52 L74 42 C75.66 43.99 75.66 50.01 74 52 z"/>
<path style="fill:#929292" d="M13 56 C11.82 56.15 11.98 54.66 12 54 C13.18 53.85 13.02 55.34 13 56 z"/>
<path style="fill:#c9caca" d="M22 54 L65 54 L65 55 L65 56 L64 56 C51.36 54.33 34.64 54.33 22 56 L21 56 L21 55 L22 54 z"/>
<path style="fill:#858686" d="M64 56 L23 56 L22 56 C34.64 54.33 51.36 54.33 64 56 z"/>
<path style="fill:#727272" d="M22 56 L23 56 C27.41 70.26 47.14 72.53 58 65 C47.63 76.82 25.89 70.29 21 56 L22 56 z"/>
<path style="fill:#010202" d="M64 56 L61 62 L58 65 C47.14 72.53 27.41 70.26 23 56 L64 56 z"/>
<path style="fill:#757575" d="M65 56 C64.81 58.39 63.3 61 61 62 L64 56 L65 56 z"/>
<path style="fill:#616161" d="M14 58 L13 57 L14 58 z"/>
<path style="fill:#595959" d="M73 58 L72 59 L73 58 z"/>
<path style="fill:#868686" d="M16 63 L15 62 L16 63 z"/>
<path style="fill:#7d7d7d" d="M61 62 C61.41 63.69 59.69 65.41 58 65 L61 62 z"/>
<path style="fill:#a6a6a6" d="M71 63 L70 64 L71 63 z"/>
<path style="fill:#696969" d="M70 64 L69 65 L70 64 z"/>
<path style="fill:#777777" d="M18 66 L17 65 L18 66 z"/>
<path style="fill:#939393" d="M68 67 L67 68 L68 67 z"/>
<path style="fill:#828282" d="M67 68 L66 69 L67 68 z"/>
<path style="fill:#787878" d="M66 69 L65 70 L66 69 z"/>
<path style="fill:#7a7a7a" d="M65 70 L64 71 L65 70 z"/>
<path style="fill:#969696" d="M64 71 L63 72 L64 71 z"/>
<path style="fill:#646464" d="M25 73 L24 72 L25 73 z"/>
<path style="fill:#949494" d="M26 74 L25 73 L26 74 z"/>
<path style="fill:#686868" d="M61 73 L60 74 L61 73 z"/>
<path style="fill:#626262" d="M28 75 L27 74 L28 75 z"/>
<path style="fill:#a6a6a6" d="M60 74 L59 75 L60 74 z"/>
<path style="fill:#5a5a5a" d="M30 76 L29 75 L30 76 z"/>
<path style="fill:#a4a4a4" d="M58 75 L57 76 L58 75 z"/>
<path style="fill:#7f7f7f" d="M32 77 L31 76 L32 77 z"/>
<path style="fill:#888888" d="M56 76 C56.15 77.18 54.66 77.02 54 77 C53.85 75.82 55.34 75.98 56 76 z"/>
<path style="fill:#5a5b5b" d="M36 78 C35.34 78.02 33.85 78.18 34 77 C34.66 76.98 36.15 76.82 36 78 z"/>
<path style="fill:#808080" d="M53 77 C53.15 78.18 51.66 78.02 51 78 C50.85 76.82 52.34 76.98 53 77 z"/>
<path style="fill:#707070" d="M49 78 C46.69 79.66 40.31 79.66 38 78 L49 78 z"/>
</svg>
