<?xml version="1.0" standalone="yes"?>
<svg width="87" height="97">
<path style="fill:#fdfdfd" d="M87 0 L87 97 L0 97 L0 0 L87 0 z"/>
<path style="fill:#696a6a" d="M33 25 L28 25 C28.45 23.4 32.55 23.4 33 25 z"/>
<path style="fill:#6e6e6e" d="M40 25 L36 25 C36.19 23.45 39.81 23.45 40 25 z"/>
<path style="fill:#707070" d="M51 25 L47 25 C47.19 23.45 50.81 23.45 51 25 z"/>
<path style="fill:#717171" d="M59 25 L53 25 C53.73 23.38 58.27 23.38 59 25 z"/>
<path style="fill:#8f8f8f" d="M27 25 L26 26 L27 25 z"/>
<path style="fill:#0c0c0c" d="M28 25 L33 25 L36 25 L40 25 L41 25 L42 26 L42 27 L41 33 L40 32 C40.41 30.31 38.69 28.59 37 29 C36.66 27.14 34.6 26.72 33 27 C33.33 25.04 29.61 26.59 32 27 L32 28 C27.78 27.84 28.01 28.44 31 30 L26.25 30.75 C29.68 30.75 34.62 33.04 34.75 36.75 L29 33 C24.69 29.33 22.08 35.8 29 34 C33.97 37.69 21.44 34.53 21 39 L19 39 L19 35 C20.18 35.15 20.02 33.66 20 33 L22 31 L23 30 L24 29 L24 28 L25 27 L26 26 L27 25 L28 25 z"/>
<path style="fill:#a4a4a4" d="M42 26 L41 25 L42 26 z"/>
<path style="fill:#a1a1a1" d="M46 25 L45 26 L46 25 z"/>
<path style="fill:#0c0d0d" d="M47 25 L51 25 L53 25 L59 25 L60 25 L61 26 L62 27 L63 28 L63 29 L64 30 L65 31 L67 33 L68 34 L68 39 L66 39 C65.39 34.84 51.49 36.91 59 34 C61.05 34.47 66.15 33.8 62 32 C58.25 31.38 54.74 33.84 53 37 C48.74 32.83 63.84 30.54 59 30 L56 30 C58.99 28.44 59.22 27.84 55 28 C59.8 24.86 50.43 25.72 50 29 C48.65 28.54 47.54 29.65 48 31 L47 32 L46 33 L45 27 L45 26 L46 25 L47 25 z"/>
<path style="fill:#919191" d="M61 26 L60 25 L61 26 z"/>
<path style="fill:#666666" d="M26 26 L25 27 L26 26 z"/>
<path style="fill:#8c8c8c" d="M33 27 L32 27 C29.61 26.59 33.33 25.04 33 27 z"/>
<path style="fill:#747575" d="M55 28 L50 29 C50.43 25.72 59.8 24.86 55 28 z"/>
<path style="fill:#6c6c6c" d="M62 27 L61 26 L62 27 z"/>
<path style="fill:#7e7e7e" d="M25 27 L24 28 L25 27 z"/>
<path style="fill:#1e1f1f" d="M33 27 C33.61 28.24 35.56 28.98 37 29 L40 32 L40 37 L38 34 L32 28 L32 27 L33 27 z"/>
<path style="fill:#848585" d="M37 29 C35.56 28.98 33.61 28.24 33 27 C34.6 26.72 36.66 27.14 37 29 z"/>
<path style="fill:#393939" d="M43 35 C42.62 39.09 41.88 34.21 41 33 L42 27 L43 35 z"/>
<path style="fill:#363636" d="M45 27 L46 33 C45.12 34.21 44.38 39.09 44 35 L45 27 z"/>
<path style="fill:#7c7c7c" d="M63 28 L62 27 L63 28 z"/>
<path style="fill:#8d8e8e" d="M32 28 L38 34 L33 31 C33.15 29.82 31.66 29.98 31 30 C28.01 28.44 27.78 27.84 32 28 z"/>
<path style="fill:#1c1c1c" d="M55 28 L49 34 C47.82 33.85 47.98 35.34 48 36 C44.78 40.03 46.96 34.31 47 32 L48 31 L50 29 L55 28 z"/>
<path style="fill:#8f9090" d="M56 30 C55.34 29.98 53.85 29.82 54 31 L49 34 L55 28 C59.22 27.84 58.99 28.44 56 30 z"/>
<path style="fill:#919191" d="M24 29 L23 30 L24 29 z"/>
<path style="fill:#7c7d7d" d="M40 32 L37 29 C38.69 28.59 40.41 30.31 40 32 z"/>
<path style="fill:#828383" d="M50 29 L48 31 C47.54 29.65 48.65 28.54 50 29 z"/>
<path style="fill:#939393" d="M64 30 L63 29 L64 30 z"/>
<path style="fill:#8a8a8a" d="M23 30 L22 31 L23 30 z"/>
<path style="fill:#8a8b8b" d="M31 30 C30.85 31.18 32.34 31.02 33 31 C34.58 32.58 38.3 40.16 38 34 L40 37 C38.82 36.85 38.98 38.34 39 39 C33.19 36.85 26.74 36.3 21 39 C21.44 34.53 33.97 37.69 29 34 L29 33 L34.75 36.75 C34.62 33.04 29.68 30.75 26.25 30.75 L31 30 z"/>
<path style="fill:#0b0b0b" d="M33 31 C32.34 31.02 30.85 31.18 31 30 C31.66 29.98 33.15 29.82 33 31 z"/>
<path style="fill:#0b0c0c" d="M56 30 C56.15 31.18 54.66 31.02 54 31 C53.85 29.82 55.34 29.98 56 30 z"/>
<path style="fill:#858585" d="M53 37 L49 39 L48 36 C47.98 35.34 47.82 33.85 49 34 C48.7 40.16 52.42 32.58 54 31 C54.66 31.02 56.15 31.18 56 30 L59 30 C63.84 30.54 48.74 32.83 53 37 z"/>
<path style="fill:#7c7c7c" d="M65 31 L64 30 L65 31 z"/>
<path style="fill:#151515" d="M38 34 C38.3 40.16 34.58 32.58 33 31 L38 34 z"/>
<path style="fill:#a9a9a9" d="M48 31 L47 32 L48 31 z"/>
<path style="fill:#141414" d="M54 31 C52.42 32.58 48.7 40.16 49 34 L54 31 z"/>
<path style="fill:#707171" d="M29 33 L29 34 C22.08 35.8 24.69 29.33 29 33 z"/>
<path style="fill:#b0b0b0" d="M41 33 C41.88 34.21 42.62 39.09 43 35 L44 35 C44.38 39.09 45.12 34.21 46 33 L47 32 C46.96 34.31 44.78 40.03 48 36 L49 39 C45.13 38.64 49.14 42.18 51 41 L50 43 C49.98 43.66 49.82 45.15 51 45 L51 46 C50.34 46.02 48.85 46.18 49 45 L49 43 C49.22 41.67 46.78 41.67 47 43 L46 42 C47.68 36.93 39.32 36.93 41 42 L40 43 C40.15 41.82 38.66 41.98 38 42 C37.34 42.02 35.85 42.18 36 41 C37.19 41.76 41.25 39.93 39 39 C38.98 38.34 38.82 36.85 40 37 L40 32 L41 33 z"/>
<path style="fill:#929292" d="M62 32 L59 34 C51.49 36.91 65.39 34.84 66 39 C61.85 37.69 57.71 36.37 53 37 C54.74 33.84 58.25 31.38 62 32 z"/>
<path style="fill:#4e4f4f" d="M59 34 L62 32 C66.15 33.8 61.05 34.47 59 34 z"/>
<path style="fill:#656565" d="M20 33 C20.02 33.66 20.18 35.15 19 35 C18.98 34.34 18.82 32.85 20 33 z"/>
<path style="fill:#949494" d="M68 34 L67 33 L68 34 z"/>
<path style="fill:#101010" d="M39 39 C41.25 39.93 37.19 41.76 36 41 C35.94 39.41 33.95 40.19 33 40 C32.27 38.38 27.73 38.38 27 40 C24.75 39.85 21.9 40.79 21 43 C19.44 42.1 17.98 44.81 20 45 C15.07 52.46 23.34 43.81 27 44 C27.95 44.19 29.94 43.41 30 45 L21 49 L20 50 C15.11 50.3 18.21 54.99 20 50 L21 49 L27 48 L26 49 L21 52 L20 53 C18.71 53.26 17.67 54.66 18 56 L19 59 C19.61 63.52 22.01 56.63 22 55 C23.18 55.15 23.02 53.66 23 53 C25.38 50.85 25.1 54.3 25 56 C19.01 62.71 31.07 54.31 28 63 L27 63 L22 64 C17.67 65.24 15.9 61.18 15 58 L14 57 L14 52 L15 51 L16 46 L17 43 L18 42 L19 41 L21 39 C26.74 36.3 33.19 36.85 39 39 z"/>
<path style="fill:#0f1010" d="M66 39 L68 41 L69 42 L70 43 L71 46 L72 50 L73 52 L73 56 L73 57 L72 58 C71.1 61.18 69.33 65.24 65 64 L60 63 L59 63 C55.93 54.31 67.99 62.71 62 56 C61.9 54.3 61.62 50.85 64 53 L66 59 C65.91 63.97 71.2 56.53 69 56 C69.33 54.66 68.29 53.26 67 53 L66 52 L61 49 L60 48 L66 49 C67.73 53.02 71.93 53.28 68 49 C69.29 42.84 56.5 42.24 52.25 41.25 C57.84 39.71 62.99 42.41 67.75 43.75 C64.16 39.83 55.4 36.65 51 41 C49.14 42.18 45.13 38.64 49 39 L53 37 C57.71 36.37 61.85 37.69 66 39 z"/>
<path style="fill:#101010" d="M46 42 C44.47 43.25 42.53 43.25 41 42 C39.32 36.93 47.68 36.93 46 42 z"/>
<path style="fill:#989999" d="M21 39 L19 41 L19 39 L21 39 z"/>
<path style="fill:#6a6a6a" d="M33 40 L33 41 L28 41 L27 40 C27.73 38.38 32.27 38.38 33 40 z"/>
<path style="fill:#7d7e7e" d="M68 49 C66.08 45.7 60.08 42.29 57 45 L56 45 C51.57 45.1 55.29 50.84 57 52 L58 52 L61 57 L62 56 C67.99 62.71 55.93 54.31 59 63 L58 63 C57.75 56.64 54.91 50.98 51 46 L51 45 C53.02 44.81 51.56 42.1 50 43 L51 41 C55.4 36.65 64.16 39.83 67.75 43.75 C62.99 42.41 57.84 39.71 52.25 41.25 C56.5 42.24 69.29 42.84 68 49 z"/>
<path style="fill:#9a9b9b" d="M68 39 L68 41 L66 39 L68 39 z"/>
<path style="fill:#8c8c8c" d="M27 40 L28 41 L21 43 C21.9 40.79 24.75 39.85 27 40 z"/>
<path style="fill:#9e9e9e" d="M36 41 C35.85 42.18 37.34 42.02 38 42 C37.85 43.18 39.34 43.02 40 43 L40 44 L38 45 L37 45 C37.46 43.65 36.35 42.54 35 43 L35 42 C35.15 40.82 33.66 40.98 33 41 L33 40 C33.95 40.19 35.94 39.41 36 41 z"/>
<path style="fill:#0e0e0e" d="M28 41 L33 41 C33.66 40.98 35.15 40.82 35 42 L26 43 L20 45 L21 43 L28 41 z"/>
<path style="fill:#696969" d="M18 42 L17 43 L18 42 z"/>
<path style="fill:#666767" d="M35 42 L35 43 L35 46 C33.82 46.15 33.98 44.66 34 44 C34.33 42.04 30.61 43.59 33 44 L33 45 L31 46 L30 45 C29.94 43.41 27.95 44.19 27 44 L26 43 L35 42 z"/>
<path style="fill:#0b0b0b" d="M40 43 C39.34 43.02 37.85 43.18 38 42 C38.66 41.98 40.15 41.82 40 43 z"/>
<path style="fill:#7b7b7b" d="M46 42 L47 43 L49 43 L49 45 C47.75 43.89 44.33 43.15 45 46 C43.31 44.15 43.69 44.15 42 46 C42.46 44.65 41.35 43.54 40 44 L40 43 L41 42 C42.53 43.25 44.47 43.25 46 42 z"/>
<path style="fill:#0a0a0a" d="M49 43 L47 43 C46.78 41.67 49.22 41.67 49 43 z"/>
<path style="fill:#707070" d="M70 43 L69 42 L70 43 z"/>
<path style="fill:#858585" d="M21 43 L20 45 C17.98 44.81 19.44 42.1 21 43 z"/>
<path style="fill:#888888" d="M26 43 L27 44 C23.34 43.81 15.07 52.46 20 45 L26 43 z"/>
<path style="fill:#f0f0f0" d="M34 44 L33 44 C30.61 43.59 34.33 42.04 34 44 z"/>
<path style="fill:#151616" d="M37 45 L35 46 L35 43 C36.35 42.54 37.46 43.65 37 45 z"/>
<path style="fill:#0d0e0e" d="M51 45 C49.82 45.15 49.98 43.66 50 43 C51.56 42.1 53.02 44.81 51 45 z"/>
<path style="fill:#f6f6f6" d="M53 43 C56.22 42.27 53.7 45.52 53 43 z"/>
<path style="fill:#818282" d="M34 44 C33.98 44.66 33.82 46.15 35 46 L37 45 L38 45 C37.74 46.29 36.34 47.33 35 47 L34 48 C31.69 52.67 29.11 57.52 29 63 L28 63 C31.07 54.31 19.01 62.71 25 56 L26 56 L29 52 L30 52 C31.7 50.35 33.73 47.89 33 45 L33 44 L34 44 z"/>
<path style="fill:#0f1010" d="M40 44 C41.35 43.54 42.46 44.65 42 46 L41 47 C36.42 48.3 32.94 53.53 32 58 C28.45 59.86 33.63 66.35 33 60 C32.5 55.95 39.7 45.55 42 50 C40.05 51.43 37.04 53.32 37 56 C34.19 57.53 33.71 61.76 34.25 64.75 L38 56 L42 51 C43.59 51.06 42.81 53.05 43 54 L41 56 C37.24 58.07 34.94 64.47 36.75 67.75 C37.07 63.27 39 59.31 42 56 L41 62 C38.68 63.46 38.67 67.15 39.25 69.75 L41 63 L43 71 C42.57 72.06 44.43 72.06 44 71 L46 63 L47.75 69.75 C48.33 67.15 48.32 63.46 46 62 L45 56 C48 59.31 49.93 63.27 50.25 67.75 C52.06 64.47 49.76 58.07 46 56 L44 54 C44.19 53.05 43.41 51.06 45 51 L50 56 L52.75 64.75 C53.29 61.76 52.81 57.53 50 56 C49.96 53.32 46.95 51.43 45 50 C47.83 45.24 53.74 56.81 54.75 59.75 C55.49 54.51 50.8 48.6 46 47 L45 46 C44.33 43.15 47.75 43.89 49 45 C48.85 46.18 50.34 46.02 51 46 C54.91 50.98 57.75 56.64 58 63 L58 66 L57 67 L56 68 C55.34 67.98 53.85 67.82 54 69 C52.82 68.85 52.98 70.34 53 71 C52.74 72.29 51.34 73.33 50 73 C49.34 72.98 47.85 72.82 48 74 L47 75 L46 76 L42 76 C42.15 74.82 40.66 74.98 40 75 L39 74 C38.94 72.41 36.95 73.19 36 73 L34 71 C34.02 70.34 34.18 68.85 33 69 C33.15 67.82 31.66 67.98 31 68 L30 67 L29 66 L29 63 C29.11 57.52 31.69 52.67 34 48 L35 47 C36.34 47.33 37.74 46.29 38 45 L40 44 z"/>
<path style="fill:#e9eaea" d="M45 46 L46 47 C43.91 45.99 43.04 49.75 45 50 L45 51 C43.41 51.06 44.19 53.05 44 54 C44.43 55.06 42.57 55.06 43 54 C42.81 53.05 43.59 51.06 42 51 L42 50 C43.96 49.75 43.09 45.99 41 47 L42 46 C43.69 44.15 43.31 44.15 45 46 z"/>
<path style="fill:#121313" d="M68 49 L66 49 L57 45 C60.08 42.29 66.08 45.7 68 49 z"/>
<path style="fill:#a7a7a7" d="M30 45 L31 46 L30 52 L29 52 C28.94 50.45 29.68 47.29 27 48 L21 49 L30 45 z"/>
<path style="fill:#070707" d="M33 45 C33.73 47.89 31.7 50.35 30 52 L31 46 L33 45 z"/>
<path style="fill:#0c0c0c" d="M56 45 C57.56 46.97 56.86 49.61 57 52 C55.29 50.84 51.57 45.1 56 45 z"/>
<path style="fill:#a5a5a5" d="M57 45 L66 49 L60 48 C57.32 47.29 58.06 50.45 58 52 L57 52 C56.86 49.61 57.56 46.97 56 45 L57 45 z"/>
<path style="fill:#656666" d="M16 46 L15 51 L16 46 z"/>
<path style="fill:#767777" d="M72 50 L71 46 L72 50 z"/>
<path style="fill:#dbdbdb" d="M35 47 L34 48 L35 47 z"/>
<path style="fill:#929292" d="M41 47 C43.09 45.99 43.96 49.75 42 50 C39.7 45.55 32.5 55.95 33 60 C31.82 60.15 31.98 58.66 32 58 C32.94 53.53 36.42 48.3 41 47 z"/>
<path style="fill:#939494" d="M46 47 C50.8 48.6 55.49 54.51 54.75 59.75 C53.74 56.81 47.83 45.24 45 50 C43.04 49.75 43.91 45.99 46 47 z"/>
<path style="fill:#aaaaaa" d="M27 48 L26 49 L27 48 z"/>
<path style="fill:#212121" d="M29 52 L26 56 L26 49 L27 48 C29.68 47.29 28.94 50.45 29 52 z"/>
<path style="fill:#1f2020" d="M60 48 L61 49 L61 57 L58 52 C58.06 50.45 57.32 47.29 60 48 z"/>
<path style="fill:#acacac" d="M61 49 L60 48 L61 49 z"/>
<path style="fill:#aaaaaa" d="M21 49 L20 50 L21 49 z"/>
<path style="fill:#b4b5b5" d="M26 49 L26 56 L25 56 C25.1 54.3 25.38 50.85 23 53 C23.15 51.82 21.66 51.98 21 52 L26 49 z"/>
<path style="fill:#b3b4b4" d="M66 52 C65.34 51.98 63.85 51.82 64 53 C61.62 50.85 61.9 54.3 62 56 L61 57 L61 49 L66 52 z"/>
<path style="fill:#868787" d="M68 49 C71.93 53.28 67.73 53.02 66 49 L68 49 z"/>
<path style="fill:#888888" d="M20 50 C18.21 54.99 15.11 50.3 20 50 z"/>
<path style="fill:#929292" d="M42 50 L42 51 L38 56 L37 56 C37.04 53.32 40.05 51.43 42 50 z"/>
<path style="fill:#909090" d="M50 56 L45 51 L45 50 C46.95 51.43 49.96 53.32 50 56 z"/>
<path style="fill:#666666" d="M15 51 L14 52 L15 51 z"/>
<path style="fill:#a7a8a8" d="M14 52 L14 57 C12.4 56.55 12.4 52.45 14 52 z"/>
<path style="fill:#b8b8b8" d="M21 52 L20 53 L21 52 z"/>
<path style="fill:#333333" d="M23 53 C21.82 52.85 21.98 54.34 22 55 L19 59 L18 56 C18.66 58.16 20.17 53.93 20 53 L21 52 C21.66 51.98 23.15 51.82 23 53 z"/>
<path style="fill:#3b3b3b" d="M66 52 L67 53 C66.83 53.93 68.34 58.16 69 56 C71.2 56.53 65.91 63.97 66 59 C68.34 57.82 65.92 53.69 64 53 C63.85 51.82 65.34 51.98 66 52 z"/>
<path style="fill:#b4b4b4" d="M67 53 L66 52 L67 53 z"/>
<path style="fill:#939393" d="M73 56 L73 52 C74.55 52.19 74.55 55.81 73 56 z"/>
<path style="fill:#939393" d="M20 53 C20.17 53.93 18.66 58.16 18 56 C17.67 54.66 18.71 53.26 20 53 z"/>
<path style="fill:#bdbebe" d="M23 53 C23.02 53.66 23.18 55.15 22 55 C21.98 54.34 21.82 52.85 23 53 z"/>
<path style="fill:#a8a8a8" d="M66 59 L64 53 C65.92 53.69 68.34 57.82 66 59 z"/>
<path style="fill:#939393" d="M69 56 C68.34 58.16 66.83 53.93 67 53 C68.29 53.26 69.33 54.66 69 56 z"/>
<path style="fill:#c2c3c3" d="M43 54 C42.57 55.06 44.43 55.06 44 54 L46 56 L45 56 L46 62 L44 71 C44.43 72.06 42.57 72.06 43 71 L41 62 L42 56 L41 56 L43 54 z"/>
<path style="fill:#959696" d="M22 55 C22.01 56.63 19.61 63.52 19 59 L22 55 z"/>
<path style="fill:#666767" d="M37 56 L38 56 L34.25 64.75 C33.71 61.76 34.19 57.53 37 56 z"/>
<path style="fill:#858686" d="M41 56 L42 56 C39 59.31 37.07 63.27 36.75 67.75 C34.94 64.47 37.24 58.07 41 56 z"/>
<path style="fill:#858686" d="M46 56 C49.76 58.07 52.06 64.47 50.25 67.75 C49.93 63.27 48 59.31 45 56 L46 56 z"/>
<path style="fill:#727373" d="M50 56 C52.81 57.53 53.29 61.76 52.75 64.75 L50 56 z"/>
<path style="fill:#6a6a6a" d="M15 58 L14 57 L15 58 z"/>
<path style="fill:#727272" d="M73 57 L72 58 L73 57 z"/>
<path style="fill:#404040" d="M32 58 C31.98 58.66 31.82 60.15 33 60 C33.63 66.35 28.45 59.86 32 58 z"/>
<path style="fill:#2d2d2d" d="M43 71 L41 63 L41 62 L43 71 z"/>
<path style="fill:#2e2e2e" d="M46 62 L46 63 L44 71 L46 62 z"/>
<path style="fill:#919191" d="M41 62 L41 63 L39.25 69.75 C38.67 67.15 38.68 63.46 41 62 z"/>
<path style="fill:#7e7f7f" d="M46 63 L46 62 C48.32 63.46 48.33 67.15 47.75 69.75 L46 63 z"/>
<path style="fill:#505050" d="M27 63 L22 64 L27 63 z"/>
<path style="fill:#4e4f4f" d="M65 64 L60 63 L65 64 z"/>
<path style="fill:#818181" d="M30 67 L29 66 L30 67 z"/>
<path style="fill:#818181" d="M58 66 L57 67 L58 66 z"/>
<path style="fill:#6c6d6d" d="M33 69 C32.34 69.02 30.85 69.18 31 68 C31.66 67.98 33.15 67.82 33 69 z"/>
<path style="fill:#696a6a" d="M56 68 C56.15 69.18 54.66 69.02 54 69 C53.85 67.82 55.34 67.98 56 68 z"/>
<path style="fill:#7c7c7c" d="M34 71 C32.82 71.15 32.98 69.66 33 69 C34.18 68.85 34.02 70.34 34 71 z"/>
<path style="fill:#787878" d="M54 69 C54.02 69.66 54.18 71.15 53 71 C52.98 70.34 52.82 68.85 54 69 z"/>
<path style="fill:#a0a1a1" d="M39 74 C38.05 73.81 36.06 74.59 36 73 C36.95 73.19 38.94 72.41 39 74 z"/>
<path style="fill:#888888" d="M50 73 C50.15 74.18 48.66 74.02 48 74 C47.85 72.82 49.34 72.98 50 73 z"/>
<path style="fill:#747474" d="M40 75 L39 74 L40 75 z"/>
<path style="fill:#636363" d="M48 74 L47 75 L48 74 z"/>
<path style="fill:#919292" d="M42 76 C41.34 76.02 39.85 76.18 40 75 C40.66 74.98 42.15 74.82 42 76 z"/>
<path style="fill:#a9a9a9" d="M47 75 L46 76 L47 75 z"/>
</svg>
