<?xml version="1.0" standalone="yes"?>
<svg width="87" height="97">
<path style="fill:#fbfcfc" d="M87 0 L87 97 L0 97 L0 0 L87 0 z"/>
<path style="fill:#d8d9d9" d="M45 23 L47 23 C51.04 20.68 40.53 19.64 44 23 C33.24 19.16 58.64 18.56 46.75 24.75 C45.53 25.68 44.57 24.09 45 23 z"/>
<path style="fill:#a1a2a2" d="M45 23 L44 23 C40.53 19.64 51.04 20.68 47 23 L45 23 z"/>
<path style="fill:#949595" d="M53 27 L47 27 C47.73 25.38 52.27 25.38 53 27 z"/>
<path style="fill:#575757" d="M47 27 C47.46 28.35 46.35 29.46 45 29 L47 27 z"/>
<path style="fill:#0d0e0e" d="M53 27 C52.85 28.18 54.34 28.02 55 28 L56 29 L58 32 L59 33 C58.78 34.33 61.22 34.33 61 33 C60.85 31.82 62.34 31.98 63 32 C62.85 33.18 64.34 33.02 65 33 L64 35 L63 35 L62 36 C60.82 36.86 58.37 36.88 59 39 L58 40 L56 42 L55 42 C51.45 41.4 50.24 42.93 54 44 L54 46 C52.82 45.85 52.98 47.34 53 48 L50 52 C48.66 51.67 47.26 52.71 47 54 C46.34 53.98 44.85 53.82 45 55 L43 53 C43.15 51.82 41.66 51.98 41 52 L39 50 L38 50 C38.68 47.21 28.04 48.04 34 51 L35 52 L34 56 C33.34 56.02 31.85 56.18 32 55 C31.94 53.41 29.95 54.19 29 54 C26.74 50.52 27.78 57.3 25 56 L26 50 L27 49 C28.18 49.15 28.02 47.66 28 47 L29 46 L29 45 L33 43 C33.66 43.02 35.15 43.18 35 42 L36 42 C36.95 41.81 38.94 42.59 39 41 L40 40 L41 39 L44 39 C46.66 38.67 43.33 35.34 43 38 L41 38 L42 31 L44 29 L45 29 C46.35 29.46 47.46 28.35 47 27 L53 27 z"/>
<path style="fill:#8f9090" d="M55 28 C54.34 28.02 52.85 28.18 53 27 C53.66 26.98 55.15 26.82 55 28 z"/>
<path style="fill:#9d9d9d" d="M56 29 L55 28 L56 29 z"/>
<path style="fill:#818181" d="M44 29 L42 31 C41.54 29.65 42.65 28.54 44 29 z"/>
<path style="fill:#afb0b0" d="M72 33 C72.21 31.58 72.11 29.33 70 30 C71.65 26.44 75.02 32.05 72 33 z"/>
<path style="fill:#4b4c4c" d="M72 33 L64 35 L65 33 C65.66 33.02 67.15 33.18 67 32 C68.42 32.21 70.67 32.11 70 30 C72.11 29.33 72.21 31.58 72 33 z"/>
<path style="fill:#858585" d="M42 31 L41 38 C38.79 36.69 40.12 32.09 42 31 z"/>
<path style="fill:#7a7a7a" d="M59 33 L58 32 L59 33 z"/>
<path style="fill:#b7b7b7" d="M67 32 C67.15 33.18 65.66 33.02 65 33 C64.34 33.02 62.85 33.18 63 32 L67 32 z"/>
<path style="fill:#616161" d="M61 33 C61.22 34.33 58.78 34.33 59 33 L61 33 z"/>
<path style="fill:#727272" d="M63 35 L62 36 L63 35 z"/>
<path style="fill:#878787" d="M62 36 L62 38 L61 39 L59 39 C58.37 36.88 60.82 36.86 62 36 z"/>
<path style="fill:#929292" d="M68 37 L65 38 C63.99 35.91 67.75 35.04 68 37 z"/>
<path style="fill:#616161" d="M44 39 L43 38 C43.33 35.34 46.66 38.67 44 39 z"/>
<path style="fill:#313131" d="M68 37 C68.35 39.98 62.31 41.22 61 39 L62 38 L65 38 L68 37 z"/>
<path style="fill:#a7a7a7" d="M41 39 L40 40 L41 39 z"/>
<path style="fill:#717171" d="M59 39 L58 40 L59 39 z"/>
<path style="fill:#8e8e8e" d="M40 40 L39 41 L40 40 z"/>
<path style="fill:#9c9c9c" d="M58 40 C58.46 41.35 57.35 42.46 56 42 L58 40 z"/>
<path style="fill:#969696" d="M39 41 C38.94 42.59 36.95 41.81 36 42 C36.06 40.41 38.05 41.19 39 41 z"/>
<path style="fill:#c0c1c1" d="M33 42 L33 43 L29 45 C29.74 43.18 30.52 41.21 33 42 z"/>
<path style="fill:#6f7070" d="M35 42 C35.15 43.18 33.66 43.02 33 43 L33 42 L35 42 z"/>
<path style="fill:#878888" d="M55 42 L54 44 C50.24 42.93 51.45 41.4 55 42 z"/>
<path style="fill:#888888" d="M29 46 L28 47 L29 46 z"/>
<path style="fill:#656565" d="M54 46 C54.02 46.66 54.18 48.15 53 48 C52.98 47.34 52.82 45.85 54 46 z"/>
<path style="fill:#646565" d="M28 47 C28.02 47.66 28.18 49.15 27 49 C26.98 48.34 26.82 46.85 28 47 z"/>
<path style="fill:#555555" d="M38 50 L34 51 C28.04 48.04 38.68 47.21 38 50 z"/>
<path style="fill:#787878" d="M27 49 L26 50 L27 49 z"/>
<path style="fill:#646565" d="M26 50 L25 56 L24 56 L23 52 C22.33 49.89 24.58 49.79 26 50 z"/>
<path style="fill:#dbdcdc" d="M38 50 L39 50 L37 55 C37.33 53.66 36.29 52.26 35 52 L34 51 L38 50 z"/>
<path style="fill:#8d8e8e" d="M41 52 C40.16 53.18 40.16 53.82 41 55 L38 56 L37 55 L39 50 L41 52 z"/>
<path style="fill:#9b9b9b" d="M17 51 L19 59 L20 59 L20 63 C17.12 61.93 17.12 68.07 20 67 L20 68 L15 67 C17.88 68.07 17.88 61.93 15 63 L15 58 C17.79 61.02 18.15 52.77 15 54 C14.67 52.66 15.71 51.26 17 51 z"/>
<path style="fill:#515252" d="M20 52 L20 54 L19 59 L17 51 L20 52 z"/>
<path style="fill:#656565" d="M35 52 L34 51 L35 52 z"/>
<path style="fill:#a8a9a9" d="M23 52 L24 56 C19.39 61.36 28.08 61.06 31 58 C32.16 57.07 33.45 56.98 33 59 C29.41 61.34 22.57 62.59 20 59 L20 54 L20 52 C20.83 55.06 22.94 57.36 23 52 z"/>
<path style="fill:#9b9b9b" d="M37 55 C34.91 55.1 34.16 58.82 37 58 L35 60 L33 60 L33 59 C34.59 58.94 33.81 56.95 34 56 L35 52 C36.29 52.26 37.33 53.66 37 55 z"/>
<path style="fill:#d6d6d6" d="M43 53 C43.46 54.35 42.35 55.46 41 55 C40.16 53.82 40.16 53.18 41 52 C41.66 51.98 43.15 51.82 43 53 z"/>
<path style="fill:#acacac" d="M50 52 C49.74 53.29 48.34 54.33 47 54 C47.26 52.71 48.66 51.67 50 52 z"/>
<path style="fill:#333333" d="M69 53 C72.31 57.63 67.01 61.59 67.75 54.25 L65 59 L65 55 C64.15 52.78 68.25 50.52 69 53 z"/>
<path style="fill:#939393" d="M29 54 C28.02 54.96 26.93 59.16 25 56 C27.78 57.3 26.74 50.52 29 54 z"/>
<path style="fill:#9b9b9b" d="M45 55 L50 59 L52 61 L43 59 L42 58 L41 55 C42.35 55.46 43.46 54.35 43 53 L45 55 z"/>
<path style="fill:#a6a7a7" d="M70 63 L67 63 L65 63 L65 59 L67.75 54.25 C67.01 61.59 72.31 57.63 69 53 C73.45 53.64 69.82 60.08 70 63 z"/>
<path style="fill:#313232" d="M15 58 L15 54 C18.15 52.77 17.79 61.02 15 58 z"/>
<path style="fill:#0a0b0b" d="M20 54 L20 59 L19 59 L20 54 z"/>
<path style="fill:#f2f2f2" d="M29 54 L29 56 L31 58 C28.08 61.06 19.39 61.36 24 56 L25 56 C26.93 59.16 28.02 54.96 29 54 z"/>
<path style="fill:#747575" d="M32 55 L29 56 L29 54 C29.95 54.19 31.94 53.41 32 55 z"/>
<path style="fill:#7f7f7f" d="M47 54 C47.15 55.18 45.66 55.02 45 55 C44.85 53.82 46.34 53.98 47 54 z"/>
<path style="fill:#dddede" d="M32 55 C31.85 56.18 33.34 56.02 34 56 C33.81 56.95 34.59 58.94 33 59 C33.45 56.98 32.16 57.07 31 58 L29 56 L32 55 z"/>
<path style="fill:#222222" d="M37 55 L38 56 C38.02 56.66 38.18 58.15 37 58 C34.16 58.82 34.91 55.1 37 55 z"/>
<path style="fill:#e2e2e2" d="M41 55 L42 58 L38 64 L38 66 C37.32 63.28 35 63.28 33 62 C34.35 62.46 35.46 61.35 35 60 L37 58 C38.18 58.15 38.02 56.66 38 56 L41 55 z"/>
<path style="fill:#5f5f5f" d="M64 55 L62 58 C59.48 57.07 61.75 53.76 64 55 z"/>
<path style="fill:#c6c7c7" d="M65 55 L65 59 L65 63 L63 63 L62 62 L62 60 L62 58 L64 55 L65 55 z"/>
<path style="fill:#4a4b4b" d="M42 58 L43 59 L42 62 C38.47 61.35 40.99 68.54 38 64 L42 58 z"/>
<path style="fill:#c6c6c6" d="M61 60 L53 62 L52 61 L50 59 L61 60 z"/>
<path style="fill:#4f4f4f" d="M35 60 C35.46 61.35 34.35 62.46 33 62 L33 60 L35 60 z"/>
<path style="fill:#767777" d="M62 60 L62 62 L53 62 L61 60 L62 60 z"/>
<path style="fill:#9d9e9e" d="M42 62 C40.91 63.8 40.93 69.46 38 66 L38 64 C40.99 68.54 38.47 61.35 42 62 z"/>
<path style="fill:#353535" d="M15 67 L15 63 C17.88 61.93 17.88 68.07 15 67 z"/>
<path style="fill:#161616" d="M20 63 L20 64 L20 67 C17.12 68.07 17.12 61.93 20 63 z"/>
<path style="fill:#838484" d="M23 64 C23.24 67.42 20.83 65.22 20 64 L20 63 L23 64 z"/>
<path style="fill:#aaabab" d="M63 63 L65 63 L65 68 C63.89 66.15 58.46 65.12 63 63 z"/>
<path style="fill:#131313" d="M67 63 L67 68 L65 68 L65 63 L67 63 z"/>
<path style="fill:#4f4f4f" d="M70 63 L70 67 L69 67 C69.4 62.57 67.23 65.05 68 68 L67 68 L67 63 L70 63 z"/>
<path style="fill:#cccccc" d="M23 64 C26.16 66.17 21.8 67.31 20 68 L20 67 L20 64 C20.83 65.22 23.24 67.42 23 64 z"/>
<path style="fill:#0a0a0a" d="M69 67 L68 68 C67.23 65.05 69.4 62.57 69 67 z"/>
<path style="fill:#a6a7a7" d="M70 67 C70.88 69.79 65.56 69.73 65 68 L67 68 L68 68 L69 67 L70 67 z"/>
</svg>
