<?xml version="1.0" standalone="yes"?>
<svg width="87" height="97">
<path style="fill:#fdfefe" d="M87 0 L87 97 L0 97 L0 0 L87 0 z"/>
<path style="fill:#c2c3c3" d="M50 26 L50 27 L37 27 L50 26 z"/>
<path style="fill:#9d9e9e" d="M61 27 L50 27 L50 26 L61 27 z"/>
<path style="fill:#e2e3e3" d="M22 27 L22 50 C20.33 43.7 20.33 33.3 22 27 z"/>
<path style="fill:#383939" d="M24 27 L23 50 L22 50 L22 27 L24 27 z"/>
<path style="fill:#040505" d="M33 27 L34 40 C39.51 42.97 36.04 30.67 37 27 L50 27 L61 27 L61 38 C56.77 39.34 47.09 34.93 47 41 L61 43 L61 65 L50 65 L50 52 C44.49 49.03 47.96 61.33 47 65 L23 65 L23.25 54.25 L35 53 L35 51 L24 50 L23 50 L24 27 L33 27 z"/>
<path style="fill:#535454" d="M34 40 L33 27 L34 40 z"/>
<path style="fill:#5b5c5c" d="M37 27 C36.04 30.67 39.51 42.97 34 40 C38.97 38.88 33.62 29.75 37 27 z"/>
<path style="fill:#d2d3d3" d="M61 38 L61 27 C62.66 29.31 62.66 35.69 61 38 z"/>
<path style="fill:#909191" d="M61 38 C58.25 41.38 49.12 36.03 48 41 L47 41 C47.09 34.93 56.77 39.34 61 38 z"/>
<path style="fill:#363737" d="M48 41 L61 41 L61 43 L47 41 L48 41 z"/>
<path style="fill:#c3c4c4" d="M61 65 L61 43 L61 41 C62.67 47.63 62.67 58.37 61 65 z"/>
<path style="fill:#787878" d="M35 51 L24 50 L35 51 z"/>
<path style="fill:#bcbdbd" d="M50 52 L49 52 L47 65 C47.96 61.33 44.49 49.03 50 52 z"/>
<path style="fill:#d2d3d3" d="M50 52 L50 65 L49 52 L50 52 z"/>
<path style="fill:#444444" d="M35 53 L23.25 54.25 L23 65 L22 65 L22.25 53.25 L35 53 z"/>
<path style="fill:#a7a7a7" d="M23 65 L47 65 C40.03 66.67 28.97 66.67 22 65 L23 65 z"/>
<path style="fill:#9e9f9f" d="M61 65 C58.69 66.66 52.31 66.66 50 65 L61 65 z"/>
</svg>
