<?xml version="1.0" standalone="yes"?>
<svg width="87" height="97">
<path style="fill:#fdfdfd" d="M87 0 L87 97 L0 97 L0 0 L87 0 z"/>
<path style="fill:#999a9a" d="M48 17 L39 17 C40.66 15.35 46.34 15.35 48 17 z"/>
<path style="fill:#080808" d="M39 17 L48 17 L50 17 C49.85 18.18 51.34 18.02 52 18 L54 18 C53.85 19.18 55.34 19.02 56 19 L59 20 L60 21 L62 22 L63 23 L64 24 L68 28 L69 29 L70 30 L71 32 L72 33 L72 34 L73 35 L73 36 C72.98 36.66 72.82 38.15 74 38 L74 39 C73.98 39.66 73.82 41.15 75 41 L75 44 L75 54 L74 59 C72.82 58.85 72.98 60.34 73 61 L72 62 L72 63 L71 64 L71 65 L70 66 L68 69 L67 70 L66 71 L65 72 L62 74 L61 75 L59 76 L58 77 L54 78 C53.34 77.98 51.85 77.82 52 79 L50 79 L38 79 L35 79 C35.15 77.82 33.66 77.98 33 78 L32 78 L31 77 L28 76 L27 75 L25 74 L24 73 L23 72 L19 68 L18 67 L17 65 L16 64 L16 63 L15 62 C15.02 61.34 15.18 59.85 14 60 L14 59 C14.02 58.34 14.18 56.85 13 57 L13 56 L13 54 L13 42 L13 40 C14.18 40.15 14.02 38.66 14 38 L14 36 L15 35 L15 34 L16 33 L17 31 L18 30 L20 27 L21 26 L22 25 L23 24 L25 23 L26 22 L27 21 L28 21 L29 20 L32 19 C32.66 19.02 34.15 19.18 34 18 L39 17 z"/>
<path style="fill:#686868" d="M52 18 C51.34 18.02 49.85 18.18 50 17 C50.66 16.98 52.15 16.82 52 18 z"/>
<path style="fill:#686969" d="M34 18 C34.15 19.18 32.66 19.02 32 19 C31.85 17.82 33.34 17.98 34 18 z"/>
<path style="fill:#949494" d="M56 19 C55.34 19.02 53.85 19.18 54 18 C54.66 17.98 56.15 17.82 56 19 z"/>
<path style="fill:#717171" d="M29 20 L28 21 L29 20 z"/>
<path style="fill:#a3a3a3" d="M60 21 L59 20 L60 21 z"/>
<path style="fill:#979797" d="M27 21 L26 22 L27 21 z"/>
<path style="fill:#5b5b5b" d="M26 22 L25 23 L26 22 z"/>
<path style="fill:#696969" d="M47 23 L46 24 L41 24 L40 23 C41.03 21.36 45.97 21.36 47 23 z"/>
<path style="fill:#939393" d="M63 23 L62 22 L63 23 z"/>
<path style="fill:#c9c9c9" d="M40 23 L41 24 L38 25 L37 26 L36 26 C36.15 24.82 34.66 24.98 34 25 C35.07 23.14 37.84 22.78 40 23 z"/>
<path style="fill:#f2f2f2" d="M47 23 L50 23 C49.85 24.18 51.34 24.02 52 24 L53 24 L54 25 L55 25 L56 26 L57 26 L58 27 L62 30 L63 31 L65 34 L66 35 L68 40 C67.98 40.66 67.82 42.15 69 42 L69 44 L69 52 L69 54 C67.82 53.85 67.98 55.34 68 56 L67 60 L66 61 L65 63 L64 64 L60 68 L59 69 L58 70 L57 70 L56 71 L53 72 L52 73 L50 73 C49.34 73.02 47.85 73.18 48 72 L49 72 L50 71 L51 70 L52 69 L53 66 L54 61 L55 61 C55.19 62.55 58.81 62.55 59 61 L61 59 L62 58 L63 57 L63 56 C64.18 56.15 64.02 54.66 64 54 L64 51 C65.64 49.97 65.64 45.03 64 44 L64 43 C64.02 42.34 64.18 40.85 63 41 L63 40 L62 39 L59 36 L58 35 L55 35 L53 30 L53 29 L52 28 C51 25.7 48.39 24.19 46 24 L47 23 z"/>
<path style="fill:#6b6c6c" d="M52 24 C51.34 24.02 49.85 24.18 50 23 C50.66 22.98 52.15 22.82 52 24 z"/>
<path style="fill:#696969" d="M64 24 L63 23 L64 24 z"/>
<path style="fill:#9d9d9d" d="M23 24 L22 25 L23 24 z"/>
<path style="fill:#060707" d="M41 24 L46 24 C48.39 24.19 51 25.7 52 28 L53 29 L53 30 L53 36 L50 35 C49.74 33.71 48.34 32.67 47 33 C43.33 29.93 36.9 33.15 35 37 C35.02 36.34 35.18 34.85 34 35 L34 31 C35.18 31.15 35.02 29.66 35 29 L35 28 L36 27 L36 26 L37 26 L38 25 L41 24 z"/>
<path style="fill:#828282" d="M54 25 L53 24 L54 25 z"/>
<path style="fill:#939393" d="M22 25 L21 26 L22 25 z"/>
<path style="fill:#5c5c5c" d="M32 25 L31 26 L32 25 z"/>
<path style="fill:#f2f2f2" d="M34 25 C34.66 24.98 36.15 24.82 36 26 L36 27 L35 28 L35 29 C33.82 28.85 33.98 30.34 34 31 L34 35 L34 36 L30 35 C29.34 34.98 27.85 34.82 28 36 L26 38 L25 39 L24 42 C22.82 41.85 22.98 43.34 23 44 L23 52 C22.98 52.66 22.82 54.15 24 54 L24 56 L25 57 L25 58 L26 59 L27 60 L28 61 L29 61 C29.19 62.55 32.81 62.55 33 61 L34 62 L35 69 L36 70 L37 71 L39 72 C39.15 73.18 37.66 73.02 37 73 L33 72 L32 71 L30 70 L29 69 L26 67 L25 66 L24 65 L23 63 L22 62 L20 58 C20.02 57.34 20.18 55.85 19 56 L19 54 C19.02 53.34 19.18 51.85 18 52 L18 46 L19 42 L19 41 C20.18 41.15 20.02 39.66 20 39 L20 38 L21 37 L21 36 L22 35 L22 34 L23 33 L24 32 L27 29 L28 28 L29 27 L31 26 L32 25 L34 25 z"/>
<path style="fill:#636363" d="M38 25 L37 26 L38 25 z"/>
<path style="fill:#929292" d="M56 26 L55 25 L56 26 z"/>
<path style="fill:#9a9a9a" d="M21 26 L20 27 L21 26 z"/>
<path style="fill:#757575" d="M58 27 L57 26 L58 27 z"/>
<path style="fill:#6a6a6a" d="M29 27 L28 28 L29 27 z"/>
<path style="fill:#696969" d="M36 27 L35 28 L36 27 z"/>
<path style="fill:#919191" d="M28 28 L27 29 L28 28 z"/>
<path style="fill:#808080" d="M53 29 L52 28 L53 29 z"/>
<path style="fill:#797979" d="M69 29 L68 28 L69 29 z"/>
<path style="fill:#5d5e5e" d="M35 29 C35.02 29.66 35.18 31.15 34 31 C33.98 30.34 33.82 28.85 35 29 z"/>
<path style="fill:#9b9b9b" d="M70 30 L69 29 L70 30 z"/>
<path style="fill:#6e6e6e" d="M18 30 L17 31 L18 30 z"/>
<path style="fill:#8b8c8c" d="M55 35 L54 36 L53 36 L53 30 L55 35 z"/>
<path style="fill:#686868" d="M63 31 L62 30 L63 31 z"/>
<path style="fill:#838383" d="M24 32 L23 33 L24 32 z"/>
<path style="fill:#9a9a9a" d="M47 33 L41 34 C40.34 33.98 38.85 33.82 39 35 L38 36 L37 40 C37.02 40.66 37.18 42.15 36 42 C35.73 39.98 33.9 41.68 33 42 L32 42 L35 37 C36.9 33.15 43.33 29.93 47 33 z"/>
<path style="fill:#a7a7a7" d="M72 33 L71 32 L72 33 z"/>
<path style="fill:#999999" d="M16 33 L15 34 L16 33 z"/>
<path style="fill:#5d5d5d" d="M23 33 L22 34 L23 33 z"/>
<path style="fill:#343434" d="M47 33 L48 35 L41 34 L47 33 z"/>
<path style="fill:#9b9b9b" d="M50 35 L48 35 L47 33 C48.34 32.67 49.74 33.71 50 35 z"/>
<path style="fill:#2c2c2c" d="M41 34 C41.15 35.18 39.66 35.02 39 35 C38.85 33.82 40.34 33.98 41 34 z"/>
<path style="fill:#d2d2d2" d="M48 35 C49.03 37.32 49.48 42.34 51.25 37.25 L52 38 L52 39 L52 40 C49.98 40.19 51.44 42.9 53 42 C52.98 42.66 52.82 44.15 54 44 C53.81 44.95 54.59 46.94 53 47 L48 43 L48 42 L48 39 L47 38 C44.64 31.49 37.21 38.81 40 43 L39 43 L35 46 L34 45 C33.67 43.66 34.71 42.26 36 42 C37.18 42.15 37.02 40.66 37 40 L38 36 L39 35 C39.66 35.02 41.15 35.18 41 34 L48 35 z"/>
<path style="fill:#7a7a7a" d="M66 35 L65 34 L66 35 z"/>
<path style="fill:#959595" d="M73 35 L72 34 L73 35 z"/>
<path style="fill:#a8a8a8" d="M15 35 L14 36 L15 35 z"/>
<path style="fill:#858585" d="M22 35 L21 36 L22 35 z"/>
<path style="fill:#5f5f5f" d="M30 35 C30.15 36.18 28.66 36.02 28 36 C27.85 34.82 29.34 34.98 30 35 z"/>
<path style="fill:#080909" d="M34 36 L35 37 L32 42 C30.5 45.74 29.88 52.16 33 55 L34 56 L35 59 L33 61 L29 61 L28 61 L27 60 L26 59 L25 58 L25 57 L24 56 L24 54 C24.02 53.34 24.18 51.85 23 52 L23 44 C24.18 44.15 24.02 42.66 24 42 L25 39 L26 38 L28 36 C28.66 36.02 30.15 36.18 30 35 L34 36 z"/>
<path style="fill:#707070" d="M35 37 L34 36 L34 35 C35.18 34.85 35.02 36.34 35 37 z"/>
<path style="fill:#1f1f1f" d="M39 35 L38 36 L39 35 z"/>
<path style="fill:#171717" d="M47 38 L48 39 L48 42 C45.73 44.39 43.64 46.41 43.75 41.25 C42.62 43.32 43.03 46.13 40 43 C37.21 38.81 44.64 31.49 47 38 z"/>
<path style="fill:#575757" d="M50 35 L53 36 L54 36 L52 38 L51.25 37.25 C49.48 42.34 49.03 37.32 48 35 L50 35 z"/>
<path style="fill:#060606" d="M58 35 L59 36 L62 39 L63 40 L63 41 C62.98 41.66 62.82 43.15 64 43 L64 44 L64 51 L64 54 C62.82 53.85 62.98 55.34 63 56 L63 57 L62 58 L61 59 L59 61 L55 61 L54 61 L52 59 L56 52 C57.64 50.97 57.64 46.03 56 45 C56.67 42.24 54.03 40.21 52 39 L52 38 L54 36 L55 35 L58 35 z"/>
<path style="fill:#5d5d5d" d="M59 36 L58 35 L59 36 z"/>
<path style="fill:#1c1d1d" d="M38 36 L37 40 L38 36 z"/>
<path style="fill:#8d8e8e" d="M74 38 C72.82 38.15 72.98 36.66 73 36 C74.18 35.85 74.02 37.34 74 38 z"/>
<path style="fill:#929292" d="M21 37 L20 38 L21 37 z"/>
<path style="fill:#5f6060" d="M14 38 C14.02 38.66 14.18 40.15 13 40 C12.98 39.34 12.82 37.85 14 38 z"/>
<path style="fill:#767676" d="M26 38 L25 39 L26 38 z"/>
<path style="fill:#777777" d="M48 39 L47 38 L48 39 z"/>
<path style="fill:#9b9b9b" d="M20 39 C20.02 39.66 20.18 41.15 19 41 C18.98 40.34 18.82 38.85 20 39 z"/>
<path style="fill:#9d9e9e" d="M56 45 L54 44 C54.02 43.34 54.18 41.85 53 42 L52 40 L52 39 C54.03 40.21 56.67 42.24 56 45 z"/>
<path style="fill:#6d6d6d" d="M63 40 L62 39 L63 40 z"/>
<path style="fill:#919292" d="M75 41 C73.82 41.15 73.98 39.66 74 39 C75.18 38.85 75.02 40.34 75 41 z"/>
<path style="fill:#232424" d="M52 40 L53 42 C51.44 42.9 49.98 40.19 52 40 z"/>
<path style="fill:#767777" d="M69 42 C67.82 42.15 67.98 40.66 68 40 C69.18 39.85 69.02 41.34 69 42 z"/>
<path style="fill:#323232" d="M36 42 C34.71 42.26 33.67 43.66 34 45 L33 45 L33 42 C33.9 41.68 35.73 39.98 36 42 z"/>
<path style="fill:#b2b2b2" d="M48 42 L48 43 L47 47 L49 49 L46 50 C47.27 47.56 43.31 44.15 42 47 L41 47 L39 43 L40 43 C43.03 46.13 42.62 43.32 43.75 41.25 C43.64 46.41 45.73 44.39 48 42 z"/>
<path style="fill:#6d6d6d" d="M64 43 C62.82 43.15 62.98 41.66 63 41 C64.18 40.85 64.02 42.34 64 43 z"/>
<path style="fill:#414141" d="M13 42 L13 54 L12 54 L13 42 z"/>
<path style="fill:#8f8f8f" d="M19 42 L18 46 L19 42 z"/>
<path style="fill:#959696" d="M24 42 C24.02 42.66 24.18 44.15 23 44 C22.98 43.34 22.82 41.85 24 42 z"/>
<path style="fill:#b4b5b5" d="M33 42 L33 45 L33 55 C29.88 52.16 30.5 45.74 32 42 L33 42 z"/>
<path style="fill:#2e2e2e" d="M54 44 C52.82 44.15 52.98 42.66 53 42 C54.18 41.85 54.02 43.34 54 44 z"/>
<path style="fill:#141414" d="M39 43 L41 47 C40.05 47.19 38.06 46.41 38 48 C37.85 49.18 39.34 49.02 40 49 L41 50 L41 52 C38.69 54.77 36.38 53.62 35 51 C33.75 49.47 33.75 47.53 35 46 L39 43 z"/>
<path style="fill:#0c0c0c" d="M53 47 L53 50 L51 53 L48 53 L46 50 L49 49 C51.57 48.09 48.53 46.15 47 47 L48 43 L53 47 z"/>
<path style="fill:#6c6d6d" d="M56 45 C57.64 46.03 57.64 50.97 56 52 L55 51 C55.56 50.2 54.21 48.03 54 50 L53 50 L53 47 C54.59 46.94 53.81 44.95 54 44 L56 45 z"/>
<path style="fill:#949595" d="M64 51 L64 44 C65.64 45.03 65.64 49.97 64 51 z"/>
<path style="fill:#6b6b6b" d="M69 52 L69 44 C70.65 45.34 70.65 50.66 69 52 z"/>
<path style="fill:#a1a1a1" d="M75 54 L75 44 C76.66 45.99 76.66 52.01 75 54 z"/>
<path style="fill:#3e3f3f" d="M33 45 L34 51 C32.97 53.79 35.84 54.61 37 56 L34 56 L33 55 L33 45 z"/>
<path style="fill:#9fa0a0" d="M34 45 L35 46 C33.75 47.53 33.75 49.47 35 51 L34 51 L33 45 L34 45 z"/>
<path style="fill:#181818" d="M46 50 C44.64 51.08 43.36 51.08 42 50 L42 47 C43.31 44.15 47.27 47.56 46 50 z"/>
<path style="fill:#767676" d="M41 47 L42 47 L42 50 L41 50 L40 49 C42.28 48.23 38.77 47.68 38 48 C38.06 46.41 40.05 47.19 41 47 z"/>
<path style="fill:#5f5f5f" d="M49 49 L47 47 C48.53 46.15 51.57 48.09 49 49 z"/>
<path style="fill:#e3e4e4" d="M40 49 C39.34 49.02 37.85 49.18 38 48 C38.77 47.68 42.28 48.23 40 49 z"/>
<path style="fill:#373737" d="M55 51 C55.14 52.76 52.69 57.83 51 55 C52.97 54.32 53.8 51.85 54 50 C54.21 48.03 55.56 50.2 55 51 z"/>
<path style="fill:#bcbdbd" d="M42 50 C43.36 51.08 44.64 51.08 46 50 L48 53 L48 54 C44.68 48.76 43.24 57.95 42.75 52.25 L41 52 L41 50 L42 50 z"/>
<path style="fill:#e0e1e1" d="M54 50 C53.8 51.85 52.97 54.32 51 55 C49.82 55.84 49.18 55.84 48 55 L48 54 C48.95 53.81 50.94 54.59 51 53 L53 50 L54 50 z"/>
<path style="fill:#d5d5d5" d="M35 51 C36.38 53.62 38.69 54.77 41 52 L40 58 L42 61 L43 61 L42 62 C39.54 62.19 37.38 59.39 38 57 L37 56 C35.84 54.61 32.97 53.79 34 51 L35 51 z"/>
<path style="fill:#afafaf" d="M56 52 L52 59 L52 60 L51 60 C51.85 58.47 49.91 55.43 49 58 L48 58 L48 55 C49.18 55.84 49.82 55.84 51 55 C52.69 57.83 55.14 52.76 55 51 L56 52 z"/>
<path style="fill:#818181" d="M19 54 C17.82 54.15 17.98 52.66 18 52 C19.18 51.85 19.02 53.34 19 54 z"/>
<path style="fill:#707171" d="M24 54 C22.82 54.15 22.98 52.66 23 52 C24.18 51.85 24.02 53.34 24 54 z"/>
<path style="fill:#121313" d="M48 54 L48 55 L48 58 C47.34 57.98 45.85 57.82 46 59 C46.02 59.66 46.18 61.15 45 61 L43 61 L42 61 C42.21 59.58 42.11 57.33 40 58 L41 52 L42.75 52.25 C43.24 57.95 44.68 48.76 48 54 z"/>
<path style="fill:#595959" d="M51 53 C50.94 54.59 48.95 53.81 48 54 L48 53 L51 53 z"/>
<path style="fill:#acacac" d="M13 54 L13 56 C11.82 56.15 11.98 54.66 12 54 L13 54 z"/>
<path style="fill:#8c8d8d" d="M64 54 C64.02 54.66 64.18 56.15 63 56 C62.98 55.34 62.82 53.85 64 54 z"/>
<path style="fill:#959595" d="M69 54 C69.02 54.66 69.18 56.15 68 56 C67.98 55.34 67.82 53.85 69 54 z"/>
<path style="fill:#c5c5c5" d="M34 56 L33 55 L34 56 z"/>
<path style="fill:#757575" d="M20 58 C18.82 58.15 18.98 56.66 19 56 C20.18 55.85 20.02 57.34 20 58 z"/>
<path style="fill:#8d8d8d" d="M25 57 L24 56 L25 57 z"/>
<path style="fill:#a6a7a7" d="M37 56 L38 57 L37 61 L35 60 L35 59 L34 56 L37 56 z"/>
<path style="fill:#878787" d="M14 59 C12.82 59.15 12.98 57.66 13 57 C14.18 56.85 14.02 58.34 14 59 z"/>
<path style="fill:#323232" d="M38 57 C37.38 59.39 39.54 62.19 42 62 C41.94 63.59 39.95 62.81 39 63 L38 62 L37 61 L38 57 z"/>
<path style="fill:#444545" d="M51 60 L49 61 L49 58 C49.91 55.43 51.85 58.47 51 60 z"/>
<path style="fill:#919191" d="M63 57 L62 58 L63 57 z"/>
<path style="fill:#919191" d="M26 59 L25 58 L26 59 z"/>
<path style="fill:#878787" d="M42 61 L40 58 C42.11 57.33 42.21 59.58 42 61 z"/>
<path style="fill:#979797" d="M48 58 C48.15 59.18 46.66 59.02 46 59 C45.85 57.82 47.34 57.98 48 58 z"/>
<path style="fill:#eaeaea" d="M49 58 L49 61 L45 62 L45 61 C46.18 61.15 46.02 59.66 46 59 C46.66 59.02 48.15 59.18 48 58 L49 58 z"/>
<path style="fill:#646464" d="M62 58 L61 59 L62 58 z"/>
<path style="fill:#7b7b7b" d="M27 60 L26 59 L27 60 z"/>
<path style="fill:#565757" d="M35 59 L35 60 C35.02 60.66 35.18 62.15 34 62 L33 61 L35 59 z"/>
<path style="fill:#7a7b7b" d="M54 61 L53 66 C52.98 63.91 53.36 61.7 52 60 L52 59 L54 61 z"/>
<path style="fill:#ababab" d="M74 59 C74.02 59.66 74.18 61.15 73 61 C72.98 60.34 72.82 58.85 74 59 z"/>
<path style="fill:#a2a3a3" d="M15 62 C13.82 62.15 13.98 60.66 14 60 C15.18 59.85 15.02 61.34 15 62 z"/>
<path style="fill:#8e8e8e" d="M28 61 L27 60 L28 61 z"/>
<path style="fill:#070808" d="M37 61 L38 62 L39 63 C41.83 66.82 50.52 65.26 51 60 L52 60 C53.36 61.7 52.98 63.91 53 66 L52 69 L51 70 L50 71 L49 72 L48 72 C45.44 73.53 41.56 73.53 39 72 L37 71 L36 70 L35 69 L34 62 C35.18 62.15 35.02 60.66 35 60 L37 61 z"/>
<path style="fill:#808080" d="M51 60 C50.52 65.26 41.83 66.82 39 63 C39.95 62.81 41.94 63.59 42 62 L43 61 L45 61 L45 62 C45.48 64.11 48.9 62.79 49 61 L51 60 z"/>
<path style="fill:#666666" d="M67 60 L66 61 L67 60 z"/>
<path style="fill:#717171" d="M33 61 C32.81 62.55 29.19 62.55 29 61 L33 61 z"/>
<path style="fill:#b1b1b1" d="M38 62 L37 61 L38 62 z"/>
<path style="fill:#3c3c3c" d="M49 61 C48.9 62.79 45.48 64.11 45 62 L49 61 z"/>
<path style="fill:#717272" d="M59 61 C58.81 62.55 55.19 62.55 55 61 L59 61 z"/>
<path style="fill:#646464" d="M73 61 L72 62 L73 61 z"/>
<path style="fill:#636363" d="M16 63 L15 62 L16 63 z"/>
<path style="fill:#999999" d="M23 63 L22 62 L23 63 z"/>
<path style="fill:#bebebe" d="M39 63 L38 62 L39 63 z"/>
<path style="fill:#808080" d="M65 63 L64 64 L65 63 z"/>
<path style="fill:#686868" d="M72 63 L71 64 L72 63 z"/>
<path style="fill:#737373" d="M17 65 L16 64 L17 65 z"/>
<path style="fill:#5d5d5d" d="M25 66 L24 65 L25 66 z"/>
<path style="fill:#858585" d="M71 65 L70 66 L71 65 z"/>
<path style="fill:#696969" d="M26 67 L25 66 L26 67 z"/>
<path style="fill:#777777" d="M19 68 L18 67 L19 68 z"/>
<path style="fill:#898989" d="M60 68 L59 69 L60 68 z"/>
<path style="fill:#9b9b9b" d="M30 70 L29 69 L30 70 z"/>
<path style="fill:#989898" d="M36 70 L35 69 L36 70 z"/>
<path style="fill:#5c5c5c" d="M52 69 L51 70 L52 69 z"/>
<path style="fill:#5d5d5d" d="M59 69 L58 70 L59 69 z"/>
<path style="fill:#a3a3a3" d="M68 69 L67 70 L68 69 z"/>
<path style="fill:#808080" d="M37 71 L36 70 L37 71 z"/>
<path style="fill:#929292" d="M57 70 L56 71 L57 70 z"/>
<path style="fill:#858585" d="M67 70 L66 71 L67 70 z"/>
<path style="fill:#5e5e5e" d="M33 72 L32 71 L33 72 z"/>
<path style="fill:#797979" d="M50 71 L49 72 L50 71 z"/>
<path style="fill:#929292" d="M66 71 L65 72 L66 71 z"/>
<path style="fill:#626262" d="M24 73 L23 72 L24 73 z"/>
<path style="fill:#909191" d="M48 72 C47.85 73.18 49.34 73.02 50 73 C47.03 74.66 39.97 74.66 37 73 C37.66 73.02 39.15 73.18 39 72 C41.56 73.53 45.44 73.53 48 72 z"/>
<path style="fill:#757575" d="M53 72 L52 73 L53 72 z"/>
<path style="fill:#727272" d="M25 74 L24 73 L25 74 z"/>
<path style="fill:#737373" d="M62 74 L61 75 L62 74 z"/>
<path style="fill:#7d7d7d" d="M28 76 L27 75 L28 76 z"/>
<path style="fill:#979797" d="M59 76 L58 77 L59 76 z"/>
<path style="fill:#767676" d="M32 78 L31 77 L32 78 z"/>
<path style="fill:#838484" d="M35 79 C34.34 79.02 32.85 79.18 33 78 C33.66 77.98 35.15 77.82 35 79 z"/>
<path style="fill:#6c6d6d" d="M54 78 C54.15 79.18 52.66 79.02 52 79 C51.85 77.82 53.34 77.98 54 78 z"/>
<path style="fill:#3f3f3f" d="M50 79 C47.36 80.66 40.64 80.66 38 79 L50 79 z"/>
</svg>
