<?xml version="1.0" standalone="yes"?>
<svg width="87" height="97">
<path style="fill:#fdfdfd" d="M87 0 L87 97 L0 97 L0 0 L87 0 z"/>
<path style="fill:#a6a6a6" d="M43 26 L42 27 L43 26 z"/>
<path style="fill:#040404" d="M44 26 L45 27 L46 28 L47 29 L48 30 L49 31 L54 37 L55 38 L56 39 L57 40 L58 41 L59 42 L28 43 L31 39 L32 38 L33 37 L34 36 L35 35 L36 34 L40 29 L41 28 L42 27 L43 26 L44 26 z"/>
<path style="fill:#676767" d="M45 27 L44 26 L45 27 z"/>
<path style="fill:#a6a6a6" d="M42 27 L41 28 L42 27 z"/>
<path style="fill:#828282" d="M46 28 L45 27 L46 28 z"/>
<path style="fill:#a9a9a9" d="M41 28 L40 29 L41 28 z"/>
<path style="fill:#909090" d="M47 29 L46 28 L47 29 z"/>
<path style="fill:#9b9b9b" d="M48 30 L47 29 L48 30 z"/>
<path style="fill:#aaaaaa" d="M49 31 L48 30 L49 31 z"/>
<path style="fill:#575757" d="M36 34 L35 35 L36 34 z"/>
<path style="fill:#727272" d="M35 35 L34 36 L35 35 z"/>
<path style="fill:#8c8c8c" d="M34 36 L33 37 L34 36 z"/>
<path style="fill:#a4a4a4" d="M33 37 L32 38 L33 37 z"/>
<path style="fill:#616161" d="M55 38 L54 37 L55 38 z"/>
<path style="fill:#a7a7a7" d="M32 38 L31 39 L32 38 z"/>
<path style="fill:#7d7d7d" d="M56 39 L55 38 L56 39 z"/>
<path style="fill:#989898" d="M57 40 L56 39 L57 40 z"/>
<path style="fill:#9d9d9d" d="M58 41 L57 40 L58 41 z"/>
<path style="fill:#a7a7a7" d="M59 42 L58 41 L59 42 z"/>
<path style="fill:#7e7f7f" d="M60 44 L59 45 L28 44 L27 44 L28 43 L59 42 C60.18 41.85 60.02 43.34 60 44 z"/>
<path style="fill:#050505" d="M27 44 L28 44 L30 47 L31 48 L32 49 L33 50 L34 51 L40 58 L41 59 L42 60 C33.36 61.67 20.64 61.67 12 60 L13 59 L14 58 L20 51 L21 50 L22 49 L23 48 L24 47 L27 44 z"/>
<path style="fill:#040505" d="M67 51 L68 52 L69 53 L70 54 L75 60 C66.36 61.67 53.64 61.67 45 60 L47 58 L48 57 L49 56 L50 55 L57 47 L58 46 L59 45 L60 44 L67 51 z"/>
<path style="fill:#848484" d="M59 45 L58 46 L59 45 z"/>
<path style="fill:#a0a0a0" d="M58 46 L57 47 L58 46 z"/>
<path style="fill:#585858" d="M24 47 L23 48 L24 47 z"/>
<path style="fill:#606060" d="M31 48 L30 47 L31 48 z"/>
<path style="fill:#727272" d="M23 48 L22 49 L23 48 z"/>
<path style="fill:#777777" d="M32 49 L31 48 L32 49 z"/>
<path style="fill:#919191" d="M22 49 L21 50 L22 49 z"/>
<path style="fill:#969696" d="M33 50 L32 49 L33 50 z"/>
<path style="fill:#9e9e9e" d="M21 50 L20 51 L21 50 z"/>
<path style="fill:#9f9f9f" d="M34 51 L33 50 L34 51 z"/>
<path style="fill:#6d6d6d" d="M68 52 L67 51 L68 52 z"/>
<path style="fill:#888888" d="M69 53 L68 52 L69 53 z"/>
<path style="fill:#a6a6a6" d="M70 54 L69 53 L70 54 z"/>
<path style="fill:#676767" d="M50 55 L49 56 L50 55 z"/>
<path style="fill:#737373" d="M49 56 L48 57 L49 56 z"/>
<path style="fill:#8e8e8e" d="M48 57 L47 58 L48 57 z"/>
<path style="fill:#5d5d5d" d="M14 58 L13 59 L14 58 z"/>
<path style="fill:#5f5f5f" d="M41 59 L40 58 L41 59 z"/>
<path style="fill:#6a6a6a" d="M13 59 L12 60 L13 59 z"/>
<path style="fill:#7c7c7c" d="M42 60 L41 59 L42 60 z"/>
<path style="fill:#5e5e5e" d="M12 60 C20.64 61.67 33.36 61.67 42 60 C43 59.83 43.25 61.17 42.75 61.75 L11.25 61.75 C10.75 61.17 11 59.83 12 60 z"/>
<path style="fill:#5f5f5f" d="M45 60 C53.64 61.67 66.36 61.67 75 60 L76.75 61.75 L44.25 61.75 C43.75 61.17 44 59.83 45 60 z"/>
</svg>
