<?xml version="1.0" standalone="yes"?>
<svg width="87" height="97">
<path style="fill:#fcfdfd" d="M87 0 L87 97 L0 97 L0 0 L87 0 z"/>
<path style="fill:#bbbcbc" d="M49 16 L40 16 C41.66 14.35 47.34 14.35 49 16 z"/>
<path style="fill:#909090" d="M37 16 C37.15 17.18 35.66 17.02 35 17 C34.85 15.82 36.34 15.98 37 16 z"/>
<path style="fill:#0b0b0b" d="M40 16 L49 16 L51 16 C50.85 17.18 52.34 17.02 53 17 L54 17 C53.85 18.18 55.34 18.02 56 18 L59 19 L60 20 L61 20 L62 21 L64 22 L66 24 L69 27 C68.54 28.35 69.65 29.46 71 29 C70.98 29.66 70.82 31.15 72 31 L73 32 L76 42 C75.98 42.66 75.82 44.15 77 44 L77 47 L77 54 L76 60 C74.82 59.85 74.98 61.34 75 62 L74 63 L74 64 C72.82 63.85 72.98 65.34 73 66 L72 67 L71 69 L69 71 L68 72 L66 74 L63 76 L61 78 L58 79 C57.34 78.98 55.85 78.82 56 80 C55.34 79.98 53.85 79.82 54 81 L50 82 L48 82 L40 82 L38 82 L34 81 L31 80 L30 79 L28 79 L27 78 L25 77 L23 75 L20 73 C20.02 72.34 20.18 70.85 19 71 L17 69 C17.02 68.34 17.18 66.85 16 67 L13 62 C13.02 61.34 13.18 59.85 12 60 L12 59 C11.81 58.05 12.59 56.06 11 56 L11 54 L11 44 L11 42 C12.18 42.15 12.02 40.66 12 40 L13 36 C14.18 36.15 14.02 34.66 14 34 C15.18 34.15 15.02 32.66 15 32 L16 31 L16 30 L17 29 L18 28 L19 27 L20 26 L22 24 L23 23 L24 22 C24.66 22.02 26.15 22.18 26 21 C26.66 21.02 28.15 21.18 28 20 C28.66 20.02 30.15 20.18 30 19 L35 17 C35.66 17.02 37.15 17.18 37 16 L40 16 z"/>
<path style="fill:#808181" d="M53 17 C52.34 17.02 50.85 17.18 51 16 C51.66 15.98 53.15 15.82 53 17 z"/>
<path style="fill:#787979" d="M56 18 C55.34 18.02 53.85 18.18 54 17 C54.66 16.98 56.15 16.82 56 18 z"/>
<path style="fill:#595a5a" d="M30 19 C30.15 20.18 28.66 20.02 28 20 C27.85 18.82 29.34 18.98 30 19 z"/>
<path style="fill:#646464" d="M60 20 L59 19 L60 20 z"/>
<path style="fill:#5a5a5a" d="M28 20 C28.15 21.18 26.66 21.02 26 21 C25.85 19.82 27.34 19.98 28 20 z"/>
<path style="fill:#727272" d="M62 21 L61 20 L62 21 z"/>
<path style="fill:#7a7a7a" d="M26 21 C26.15 22.18 24.66 22.02 24 22 C23.85 20.82 25.34 20.98 26 21 z"/>
<path style="fill:#919191" d="M24 22 L23 23 L24 22 z"/>
<path style="fill:#aaaaaa" d="M66 24 L64 22 C65.35 21.54 66.46 22.65 66 24 z"/>
<path style="fill:#696969" d="M23 23 L22 24 L23 23 z"/>
<path style="fill:#636363" d="M50 24 C49.05 24.19 47.06 23.41 47 25 C44.6 23.98 42.4 23.98 40 25 C40.15 23.82 38.66 23.98 38 24 C40.64 22.34 47.36 22.34 50 24 z"/>
<path style="fill:#707171" d="M37 24 C36.85 25.18 38.34 25.02 39 25 C34.62 25.83 29.28 28.24 26 32 L25 31 C28.1 26.76 32.31 25.24 37 24 z"/>
<path style="fill:#c1c1c1" d="M38 24 C38.66 23.98 40.15 23.82 40 25 L39 25 C38.34 25.02 36.85 25.18 37 24 L38 24 z"/>
<path style="fill:#151515" d="M47 25 L48 25 C47.67 26.34 48.71 27.74 50 28 C49.85 33.03 43.99 24.51 42 29 C40.17 28.92 37.46 28.63 37 31 C35.82 31.15 35.98 29.66 36 29 C38.52 28.3 35.27 25.78 36 29 C34.82 28.85 34.98 30.34 35 31 L26 33 L26 32 C29.28 28.24 34.62 25.83 39 25 L40 25 C42.4 23.98 44.6 23.98 47 25 z"/>
<path style="fill:#969797" d="M50 24 C51.44 24.02 53.39 24.76 54 26 L51 26 C50.94 24.41 48.95 25.19 48 25 L47 25 C47.06 23.41 49.05 24.19 50 24 z"/>
<path style="fill:#5d5e5e" d="M51 26 L51 28 L50 28 C48.71 27.74 47.67 26.34 48 25 C48.95 25.19 50.94 24.41 51 26 z"/>
<path style="fill:#606060" d="M20 26 L19 27 L20 26 z"/>
<path style="fill:#0d0d0d" d="M51 26 L54 26 L61 34 C60.74 32.71 59.34 31.67 58 32 L56 32 L52 30 L51 28 L51 26 z"/>
<path style="fill:#717272" d="M66 36 L64 36 L61 34 L54 26 C59.54 26.6 63.67 31.06 66 36 z"/>
<path style="fill:#5f5f5f" d="M19 27 L18 28 L19 27 z"/>
<path style="fill:#9b9c9c" d="M36 29 C35.27 25.78 38.52 28.3 36 29 z"/>
<path style="fill:#5a5a5a" d="M71 29 C69.65 29.46 68.54 28.35 69 27 L71 29 z"/>
<path style="fill:#878787" d="M18 28 L17 29 L18 28 z"/>
<path style="fill:#919191" d="M50 28 L51 28 L52 30 L47 31 L45 30 L42 29 C43.99 24.51 49.85 33.03 50 28 z"/>
<path style="fill:#9e9e9e" d="M17 29 L16 30 L17 29 z"/>
<path style="fill:#bbbcbc" d="M36 29 C35.98 29.66 35.82 31.15 37 31 L38 32 L38 33 L33 35 L33 34 L35 32 L35 31 C34.98 30.34 34.82 28.85 36 29 z"/>
<path style="fill:#787878" d="M42 29 C42.02 29.66 42.18 31.15 41 31 C39.65 28.44 40.49 35.08 38 32 L37 31 C37.46 28.63 40.17 28.92 42 29 z"/>
<path style="fill:#e2e2e2" d="M45 30 L44 33 L43 33 L42 34 L41 34 L41 31 C42.18 31.15 42.02 29.66 42 29 L45 30 z"/>
<path style="fill:#818181" d="M72 31 C70.82 31.15 70.98 29.66 71 29 C72.18 28.85 72.02 30.34 72 31 z"/>
<path style="fill:#3a3a3a" d="M41 31 L41 34 L38 36 L38 33 L38 32 C40.49 35.08 39.65 28.44 41 31 z"/>
<path style="fill:#424343" d="M47 31 C47.61 34.17 46.18 33.63 44 33 L45 30 L47 31 z"/>
<path style="fill:#a8a8a8" d="M52 30 L52 32 L53 34 L53 35 C50.08 33.23 46.97 33.73 51 37 L52 39 L51 39 C48.61 39.21 47.29 37.22 46 36 L45 36 L44 35 L43 33 L44 33 C46.18 33.63 47.61 34.17 47 31 L52 30 z"/>
<path style="fill:#4d4e4e" d="M56 32 L56 33 L52 32 L52 30 L56 32 z"/>
<path style="fill:#787878" d="M16 31 L15 32 L16 31 z"/>
<path style="fill:#494949" d="M25 31 L26 32 L26 33 L27 34 L25 36 L24 36 L22 35 C21.67 33.15 23.54 31.67 25 31 z"/>
<path style="fill:#676767" d="M35 31 L35 32 L27 34 L26 33 L35 31 z"/>
<path style="fill:#a7a7a7" d="M73 32 L72 31 L73 32 z"/>
<path style="fill:#8c8c8c" d="M15 32 C15.02 32.66 15.18 34.15 14 34 C13.98 33.34 13.82 31.85 15 32 z"/>
<path style="fill:#131313" d="M35 32 L33 34 L30 36 L25 36 L27 34 L35 32 z"/>
<path style="fill:#111212" d="M56 33 L58 33 C58.06 34.59 60.05 33.81 61 34 L64 36 C61.72 37.49 58.28 37.49 56 36 L53 34 L52 32 L56 33 z"/>
<path style="fill:#a9a9a9" d="M58 32 L58 33 L56 33 L56 32 L58 32 z"/>
<path style="fill:#515151" d="M61 34 C60.05 33.81 58.06 34.59 58 33 L58 32 C59.34 31.67 60.74 32.71 61 34 z"/>
<path style="fill:#7e7e7e" d="M38 33 L38 36 L35 38 L34 37 C31.84 38.85 31.74 36.41 33 35 L38 33 z"/>
<path style="fill:#212222" d="M43 33 L44 35 L43 45 C41.71 44.74 40.67 43.34 41 42 L41 37 L42 34 L43 33 z"/>
<path style="fill:#4f5050" d="M53 35 L51 37 C46.97 33.73 50.08 33.23 53 35 z"/>
<path style="fill:#787878" d="M14 34 C14.02 34.66 14.18 36.15 13 36 C12.98 35.34 12.82 33.85 14 34 z"/>
<path style="fill:#949595" d="M33 34 L33 35 C31.74 36.41 31.84 38.85 34 37 L35 38 C34.85 39.18 36.34 39.02 37 39 C37.95 42.75 33.09 37.93 34 42 L33 42 C32.32 39.79 31.58 43.4 31 44 L28.25 43.75 C32.53 41.03 29.92 40.83 27 39 C28.34 39.33 29.74 38.29 30 37 C31.06 37.43 31.06 35.57 30 36 L33 34 z"/>
<path style="fill:#bfc0c0" d="M42 34 L41 37 L38 39 C38.43 37.94 36.57 37.94 37 39 C36.34 39.02 34.85 39.18 35 38 L38 36 L41 34 L42 34 z"/>
<path style="fill:#7a7a7a" d="M56 36 L55 37 L55 38 C54.94 39.59 52.95 38.81 52 39 L51 37 L53 35 L53 34 L56 36 z"/>
<path style="fill:#7d7e7e" d="M22 35 L24 36 L24 38 C16.88 37.9 26.07 43.51 26 46 L21 43 C21.43 41.94 19.57 41.94 20 43 L19 43 C18.34 39.81 20.83 37.17 22 35 z"/>
<path style="fill:#656666" d="M44 35 L44.25 44.75 L45 36 L46 36 L48 43 C46.65 42.54 45.54 43.65 46 45 L45 49 L43 46 L43 45 L44 35 z"/>
<path style="fill:#040404" d="M45 36 L44.25 44.75 L44 35 L45 36 z"/>
<path style="fill:#dbdcdc" d="M25 36 L30 37 C29.74 38.29 28.34 39.33 27 39 L24 38 L24 36 L25 36 z"/>
<path style="fill:#7b7b7b" d="M30 36 L30 37 L25 36 L30 36 z"/>
<path style="fill:#f8f8f8" d="M30 37 L30 36 C31.06 35.57 31.06 37.43 30 37 z"/>
<path style="fill:#313131" d="M51 39 C50.81 39.95 51.59 41.94 50 42 L48 43 L46 36 C47.29 37.22 48.61 39.21 51 39 z"/>
<path style="fill:#d1d2d2" d="M56 36 C58.28 37.49 61.72 37.49 64 36 L66 36 L66 37 C65.34 36.98 63.85 36.82 64 38 L62 39 C61.34 38.98 59.85 38.82 60 40 L58 40 C58.46 38.65 57.35 37.54 56 38 L55 37 L56 36 z"/>
<path style="fill:#171717" d="M24 38 L27 39 C29.92 40.83 32.53 41.03 28.25 43.75 L31 44 C32.28 44.85 35.3 46.04 36 44 C37.83 43.92 40.54 43.63 41 46 L40 47 L39 46 C38.07 42.91 35.38 47.73 38 48 L41 52 L40 53 C38.85 55.11 36.59 55.31 34 55 C34.15 53.82 32.66 53.98 32 54 C30.82 53.14 28.37 53.12 29 51 C31.6 54.98 37.66 49.37 32 49 C31.04 47.17 29.21 46.87 28 49 L26 46 C26.07 43.51 16.88 37.9 24 38 z"/>
<path style="fill:#242424" d="M35 38 L34 37 L35 38 z"/>
<path style="fill:#686969" d="M41 37 L41 42 L37 43 L38 39 L41 37 z"/>
<path style="fill:#242424" d="M56 38 L55 38 L55 37 L56 38 z"/>
<path style="fill:#727373" d="M66 37 L67 38 L66 38 L64 38 C63.85 36.82 65.34 36.98 66 37 z"/>
<path style="fill:#3e3f3f" d="M38 39 L37 43 L34 42 C33.09 37.93 37.95 42.75 37 39 C36.57 37.94 38.43 37.94 38 39 z"/>
<path style="fill:#b0b0b0" d="M56 38 L56 41 L54 41 L52 39 C52.95 38.81 54.94 39.59 55 38 L56 38 z"/>
<path style="fill:#5a5b5b" d="M58 40 L56 41 L56 38 C57.35 37.54 58.46 38.65 58 40 z"/>
<path style="fill:#0e0e0e" d="M64 38 L66 38 L66 39 C67.46 42.69 55.26 44.52 64 45 L59 48 C58.34 47.98 56.85 47.82 57 49 L48 52 C45.48 52.63 45.96 50.18 47 49 C50.01 49.98 50.4 47.27 50 45 C51.91 44.78 53.78 42.91 54 41 L56 41 L58 40 L60 40 C60.66 40.02 62.15 40.18 62 39 L64 38 z"/>
<path style="fill:#c8c8c8" d="M67 38 L66 39 L66 38 L67 38 z"/>
<path style="fill:#6b6b6b" d="M69 43 C67.4 42.72 65.34 43.14 65 45 L64 45 C55.26 44.52 67.46 42.69 66 39 L67 38 L69 43 z"/>
<path style="fill:#767777" d="M52 39 L54 41 C53.78 42.91 51.91 44.78 50 45 L50 44 L50 42 C51.59 41.94 50.81 39.95 51 39 L52 39 z"/>
<path style="fill:#656565" d="M62 39 C62.15 40.18 60.66 40.02 60 40 C59.85 38.82 61.34 38.98 62 39 z"/>
<path style="fill:#6c6d6d" d="M12 40 C12.02 40.66 12.18 42.15 11 42 C10.98 41.34 10.82 39.85 12 40 z"/>
<path style="fill:#575757" d="M33 42 C32.33 44.11 34.58 44.21 36 44 C35.3 46.04 32.28 44.85 31 44 C31.58 43.4 32.32 39.79 33 42 z"/>
<path style="fill:#191919" d="M21 43 L20 43 C19.57 41.94 21.43 41.94 21 43 z"/>
<path style="fill:#b7b7b7" d="M34 42 L37 43 L41 42 C40.67 43.34 41.71 44.74 43 45 L43 46 L42 46 L41 46 C40.54 43.63 37.83 43.92 36 44 C34.58 44.21 32.33 44.11 33 42 L34 42 z"/>
<path style="fill:#c4c4c4" d="M50 42 L50 44 L46 45 C45.54 43.65 46.65 42.54 48 43 L50 42 z"/>
<path style="fill:#606161" d="M77 44 C75.82 44.15 75.98 42.66 76 42 C77.18 41.85 77.02 43.34 77 44 z"/>
<path style="fill:#bbbcbc" d="M20 43 L21 43 L26 46 L28 49 C27.98 49.66 27.82 51.15 29 51 C28.37 53.12 30.82 53.14 32 54 L33 59 L31 59 C30.58 56.76 28.97 54.2 27 53 L27 52 C26.74 47.89 22.37 45.25 19 44 L19 43 L20 43 z"/>
<path style="fill:#979797" d="M69 43 L70 47 L68 47 C68.63 44.48 66.18 44.96 65 46 L65 45 C65.34 43.14 67.4 42.72 69 43 z"/>
<path style="fill:#949494" d="M11 44 L11 54 C9.345 52.01 9.345 45.99 11 44 z"/>
<path style="fill:#babbbb" d="M19 44 L19 53 L18 53 L19 44 z"/>
<path style="fill:#141414" d="M27 52 L21.25 47.25 L22 58 L19 53 L19 44 C22.37 45.25 26.74 47.89 27 52 z"/>
<path style="fill:#202020" d="M50 44 L50 45 C47.81 44.51 47.17 47.4 47 49 L45 49 L46 45 L50 44 z"/>
<path style="fill:#787878" d="M39 46 C37.82 45.85 37.98 47.34 38 48 C35.38 47.73 38.07 42.91 39 46 z"/>
<path style="fill:#a2a2a2" d="M50 45 C50.4 47.27 50.01 49.98 47 49 C47.17 47.4 47.81 44.51 50 45 z"/>
<path style="fill:#bdbebe" d="M64 45 L65 45 L65 46 C62.8 47.62 59.37 49.76 60 53 L59 54 L58 54 L58 53 L59 48 L64 45 z"/>
<path style="fill:#f4f4f4" d="M39 46 L40 47 C40.15 48.18 38.66 48.02 38 48 C37.98 47.34 37.82 45.85 39 46 z"/>
<path style="fill:#525353" d="M42 46 L41 52 L38 48 C38.66 48.02 40.15 48.18 40 47 L41 46 L42 46 z"/>
<path style="fill:#e9e9e9" d="M43 46 L45 49 C43.91 51.27 46.28 55 48 52 C49.18 51.85 49.02 53.34 49 54 L48 55 C42.48 56.33 42.8 65.69 45 70 L44 73 L43 73 L41 69 C42.18 69.15 42.02 67.66 42 67 L42 65 L43 63 C41.46 60.64 44.37 56 39 57 L35 58 L34 55 C36.59 55.31 38.85 55.11 40 53 L41 52 L42 46 L43 46 z"/>
<path style="fill:#656666" d="M27 52 L27 53 L23 58 L22 58 L21.25 47.25 L27 52 z"/>
<path style="fill:#696a6a" d="M32 49 L29 51 C27.82 51.15 27.98 49.66 28 49 C29.21 46.87 31.04 47.17 32 49 z"/>
<path style="fill:#6c6c6c" d="M59 54 L60 53 L66.75 47.25 C66.38 52.44 64.17 59.36 59 54 z"/>
<path style="fill:#777777" d="M70 47 C70.25 50.02 69.41 53.67 68.25 55.75 L68 47 L70 47 z"/>
<path style="fill:#9d9e9e" d="M77 54 L77 47 C78.64 48.03 78.64 52.97 77 54 z"/>
<path style="fill:#5c5d5d" d="M59 48 L58 53 L57 49 C56.85 47.82 58.34 47.98 59 48 z"/>
<path style="fill:#bababa" d="M29 51 L32 49 C37.66 49.37 31.6 54.98 29 51 z"/>
<path style="fill:#888888" d="M47 49 C45.96 50.18 45.48 52.63 48 52 C46.28 55 43.91 51.27 45 49 L47 49 z"/>
<path style="fill:#949494" d="M57 49 L58 53 L58 54 C58.21 55.42 58.11 57.67 56 57 L55 57 C53.71 53.15 51.79 57.48 55 58 L54 60 L52 63 L49 60 L49 59 L49 54 C49.02 53.34 49.18 51.85 48 52 L57 49 z"/>
<path style="fill:#8c8c8c" d="M41 52 L40 53 L41 52 z"/>
<path style="fill:#828383" d="M19 53 L22 58 L23 58 L23 63 L23 64 C19.81 61.48 19 56.87 18 53 L19 53 z"/>
<path style="fill:#0a0b0b" d="M31 59 L23 63 L23 58 L27 53 C28.97 54.2 30.58 56.76 31 59 z"/>
<path style="fill:#454545" d="M34 55 L35 58 L33 59 L32 54 C32.66 53.98 34.15 53.82 34 55 z"/>
<path style="fill:#393a3a" d="M49 54 L49 59 L48 59 L48 55 L49 54 z"/>
<path style="fill:#7a7b7b" d="M48 55 L48 59 C45.03 55.73 43.63 61.91 46 63 C45.15 64.28 43.96 67.3 46 68 L47 69 C47.15 70.18 45.66 70.02 45 70 C42.8 65.69 42.48 56.33 48 55 z"/>
<path style="fill:#252525" d="M55 57 L55 58 C51.79 57.48 53.71 53.15 55 57 z"/>
<path style="fill:#5e5e5e" d="M12 59 C10.41 58.94 11.19 56.95 11 56 C12.59 56.06 11.81 58.05 12 59 z"/>
<path style="fill:#828383" d="M39 57 C39.93 57.84 42.62 59.92 40 61 C39.54 60.03 36.46 57.9 36 60 L34 60 L33 60 L33 59 L35 58 L39 57 z"/>
<path style="fill:#aeaeae" d="M43 63 C41.66 63.33 40.26 62.29 40 61 C42.62 59.92 39.93 57.84 39 57 C44.37 56 41.46 60.64 43 63 z"/>
<path style="fill:#6f6f6f" d="M56 57 L60 63 L54 60 L55 58 L55 57 L56 57 z"/>
<path style="fill:#646464" d="M66 61 C64.82 60.85 64.98 62.34 65 63 C65.33 64.85 63.46 66.33 62 67 L60 63 C63.57 64.91 64.44 62.89 64.25 59.25 C67.5 56.06 70.07 59.4 66 61 z"/>
<path style="fill:#474747" d="M48 59 L48 61 C46.65 60.54 45.54 61.65 46 63 C43.63 61.91 45.03 55.73 48 59 z"/>
<path style="fill:#313131" d="M50 58 C54.86 56.66 51.15 62.11 50 58 z"/>
<path style="fill:#666767" d="M31 59 L33 59 L33 60 C30.4 60.91 24.18 63.62 26 67 L26 68 C24.54 67.33 22.67 65.85 23 64 L23 63 L31 59 z"/>
<path style="fill:#c7c7c7" d="M40 61 C40.26 62.29 41.66 63.33 43 63 L42 65 L37 61 L36 60 C36.46 57.9 39.54 60.03 40 61 z"/>
<path style="fill:#e2e2e2" d="M49 59 L49 60 L48 61 L48 59 L49 59 z"/>
<path style="fill:#a8a9a9" d="M13 62 C11.82 62.15 11.98 60.66 12 60 C13.18 59.85 13.02 61.34 13 62 z"/>
<path style="fill:#0f0f0f" d="M33 60 L34 60 L36 65 L35 66 L26 67 C24.18 63.62 30.4 60.91 33 60 z"/>
<path style="fill:#b7b7b7" d="M36 60 L37 61 L37 65 L36 65 L34 60 L36 60 z"/>
<path style="fill:#232323" d="M37 61 L36 60 L37 61 z"/>
<path style="fill:#6d6e6e" d="M52 63 L52 65 C50.82 64.16 50.18 64.16 49 65 C49.67 62.89 47.42 62.79 46 63 C45.54 61.65 46.65 60.54 48 61 L49 60 L52 63 z"/>
<path style="fill:#0d0e0e" d="M60 63 L62 67 L55 68 L52 66 L52 65 L52 63 L54 60 L60 63 z"/>
<path style="fill:#aeafaf" d="M76 60 C76.02 60.66 76.18 62.15 75 62 C74.98 61.34 74.82 59.85 76 60 z"/>
<path style="fill:#747474" d="M42 65 L42 67 L41 68 L37 65 L37 61 L42 65 z"/>
<path style="fill:#c4c5c5" d="M66 61 C66.02 61.66 66.18 63.15 65 63 C64.98 62.34 64.82 60.85 66 61 z"/>
<path style="fill:#6e6e6e" d="M75 62 L74 63 L75 62 z"/>
<path style="fill:#2e2e2e" d="M49 65 L46 68 C43.96 67.3 45.15 64.28 46 63 C47.42 62.79 49.67 62.89 49 65 z"/>
<path style="fill:#999a9a" d="M52 65 L52 66 L51 66 L47 69 L46 68 L49 65 C50.18 64.16 50.82 64.16 52 65 z"/>
<path style="fill:#868686" d="M74 64 C74.02 64.66 74.18 66.15 73 66 C72.98 65.34 72.82 63.85 74 64 z"/>
<path style="fill:#a5a5a5" d="M36 65 L35 66 L36 65 z"/>
<path style="fill:#262727" d="M37 65 C36.78 67.01 38.99 69.22 41 69 L43 73 C43.15 74.18 41.66 74.02 41 74 C41.22 71.99 39.01 69.78 37 70 C35.65 70.46 34.54 69.35 35 68 L35 66 L36 65 L37 65 z"/>
<path style="fill:#b3b4b4" d="M41 68 L41 69 C38.99 69.22 36.78 67.01 37 65 L41 68 z"/>
<path style="fill:#818282" d="M35 66 L35 68 C29.08 67.1 30.39 70.77 33.75 72.75 L26 68 L26 67 L35 66 z"/>
<path style="fill:#1e1f1f" d="M51 66 L50 70 C47.87 69.42 43.76 73.12 48 73 L47 74 C46.05 73.81 44.06 74.59 44 73 L45 70 C45.66 70.02 47.15 70.18 47 69 L51 66 z"/>
<path style="fill:#757676" d="M52 66 L55 68 L50 70 L51 66 L52 66 z"/>
<path style="fill:#666666" d="M73 66 L72 67 L73 66 z"/>
<path style="fill:#6e6f6f" d="M17 69 C15.82 69.15 15.98 67.66 16 67 C17.18 66.85 17.02 68.34 17 69 z"/>
<path style="fill:#232424" d="M42 67 C42.02 67.66 42.18 69.15 41 69 L41 68 L42 67 z"/>
<path style="fill:#878888" d="M62 67 C60.48 70.25 56.94 71.53 54 73 L53 72 C55.35 71.11 58.25 69.57 55 68 L62 67 z"/>
<path style="fill:#0f0f0f" d="M55 68 C58.25 69.57 55.35 71.11 53 72 L48 73 L50 70 L55 68 z"/>
<path style="fill:#aaabab" d="M71 69 C71.46 70.35 70.35 71.46 69 71 L71 69 z"/>
<path style="fill:#7c7d7d" d="M41 74 C40.05 74.19 38.06 73.41 38 75 C33.55 72.9 41.59 73.15 37 70 C39.01 69.78 41.22 71.99 41 74 z"/>
<path style="fill:#707070" d="M50 70 L48 73 C43.76 73.12 47.87 69.42 50 70 z"/>
<path style="fill:#7c7c7c" d="M20 73 C18.82 73.15 18.98 71.66 19 71 C20.18 70.85 20.02 72.34 20 73 z"/>
<path style="fill:#818181" d="M69 71 L68 72 L69 71 z"/>
<path style="fill:#6a6a6a" d="M53 72 L54 73 L47 75 L47 74 L48 73 L53 72 z"/>
<path style="fill:#9e9f9f" d="M68 72 C68.46 73.35 67.35 74.46 66 74 L68 72 z"/>
<path style="fill:#ababab" d="M44 73 C44.06 74.59 46.05 73.81 47 74 L47 75 L38 75 C38.06 73.41 40.05 74.19 41 74 C41.66 74.02 43.15 74.18 43 73 L44 73 z"/>
<path style="fill:#ababab" d="M25 77 C23.65 77.46 22.54 76.35 23 75 L25 77 z"/>
<path style="fill:#939494" d="M63 76 C63.46 77.35 62.35 78.46 61 78 L63 76 z"/>
<path style="fill:#a2a2a2" d="M28 79 L27 78 L28 79 z"/>
<path style="fill:#616161" d="M31 80 L30 79 L31 80 z"/>
<path style="fill:#696969" d="M58 79 C58.15 80.18 56.66 80.02 56 80 C55.85 78.82 57.34 78.98 58 79 z"/>
<path style="fill:#808181" d="M56 80 C56.15 81.18 54.66 81.02 54 81 C53.85 79.82 55.34 79.98 56 80 z"/>
<path style="fill:#868787" d="M38 82 L34 81 L38 82 z"/>
<path style="fill:#aaabab" d="M54 81 L50 82 L54 81 z"/>
<path style="fill:#838383" d="M48 82 C46.66 83.65 41.34 83.65 40 82 L48 82 z"/>
</svg>
