<?xml version="1.0" standalone="yes"?>
<svg width="87" height="97">
<path style="fill:#fcfdfd" d="M87 0 L87 97 L0 97 L0 0 L87 0 z"/>
<path style="fill:#0d0d0d" d="M55 15 C55.06 16.59 57.05 15.81 58 16 C57.85 17.18 59.34 17.02 60 17 L61 17 C60.85 18.18 62.34 18.02 63 18 L67 21 L68 22 L69 22 L70 23 L72 25 L73 26 L73 27 L74 28 L75 29 L76 31 L77 32 L78 34 C77.98 34.66 77.82 36.15 79 36 L79 37 C78.98 37.66 78.82 39.15 80 39 L81 47 L81 51 C81.61 56.14 79.38 60.44 78 65 L77 66 L77 67 L76 68 L75 69 C73.92 71.84 71.64 74.43 69 76 L68 77 L67 78 L64 80 C63.34 79.98 61.85 79.82 62 81 C61.34 80.98 59.85 80.82 60 82 L59 82 L58 83 L48 85 L40 85 L35 84 L33 84 L32 83 L30 83 L29 82 L28 82 L27 81 L26 81 L25 80 C20.55 78.03 17.06 73.7 14 70 L13 69 L12 68 L12 67 L11 66 L11 65 L10 64 L10 63 C10.02 62.34 10.18 60.85 9 61 C8.81 60.05 9.592 58.06 8 58 L7 54 L7 45 L8 41 C9.592 40.94 8.81 38.95 9 38 C10.59 37.94 9.81 35.95 10 35 L11 34 L12 31 L13 30 L14 28 L15 27 L16 26 L17 25 L18 24 L19 23 L20 22 L21 21 L25 19 L26 18 L28 17 C28.66 17.02 30.15 17.18 30 16 C38.25 13.38 46.62 12.69 55 15 z"/>
<path style="fill:#919191" d="M58 16 C57.05 15.81 55.06 16.59 55 15 C55.95 15.19 57.94 14.41 58 16 z"/>
<path style="fill:#8a8b8b" d="M30 16 C30.15 17.18 28.66 17.02 28 17 C27.85 15.82 29.34 15.98 30 16 z"/>
<path style="fill:#6c6c6c" d="M60 17 C59.34 17.02 57.85 17.18 58 16 C58.66 15.98 60.15 15.82 60 17 z"/>
<path style="fill:#979898" d="M63 18 C62.34 18.02 60.85 18.18 61 17 C61.66 16.98 63.15 16.82 63 18 z"/>
<path style="fill:#636363" d="M26 18 L25 19 L26 18 z"/>
<path style="fill:#858585" d="M38 19 L37 20 L38 19 z"/>
<path style="fill:#f9fafa" d="M41 19 L41 21 L41 22 L39 24 L38 29 L38 34 L40 40 L40 42 L41 43 L42 46 L42 48 C41.69 54.78 37.07 47.1 33 51 L29 52 L26 53 L25 54 L23 55 L22 56 L17 62 L15 62 L13 52 L13 47 L13 46 L14 42 L14 40 C15.18 40.15 15.02 38.66 15 38 L15 37 L16 36 L16 35 L17 34 C18.18 34.15 18.02 32.66 18 32 L19 31 L20 30 L24 26 C24.66 26.02 26.15 26.18 26 25 L27 24 L28 23 L32 21 C32.95 20.81 34.94 21.59 35 20 L37 20 L38 19 L41 19 z"/>
<path style="fill:#959696" d="M41 21 L41 19 C42.33 18.78 42.33 21.22 41 21 z"/>
<path style="fill:#787979" d="M46 19 L46 20 L45 20 L43 20 C43.06 18.41 45.05 19.19 46 19 z"/>
<path style="fill:#fafafa" d="M50 19 L51 20 L54 20 C53.85 21.18 55.34 21.02 56 21 C55.85 22.18 57.34 22.02 58 22 L59 22 L60 23 L62 24 L63 25 L65 26 L66 27 L67 28 L68 29 L72 35 L73 36 L73 38 L74 39 C74.19 39.95 73.41 41.94 75 42 L75 43 L75 56 L75 57 C73.82 56.85 73.98 58.34 74 59 C73.98 60.44 73.24 62.39 72 63 L72 62 L71 61 L71 60 L70 59 L68 56 L64 55 L63 54 L63 53 C63.15 51.82 61.66 51.98 61 52 L60 52 C58.7 49.78 55.46 49.88 53 50 L49 50 L47 52 L47 50 L47 49 C47.02 48.34 47.18 46.85 46 47 L46 46 L47 42 C49.01 40.53 49.31 37.34 50 35 L49 25 L48 22 L47 21 L46 20 L46 19 L50 19 z"/>
<path style="fill:#a1a1a1" d="M51 20 L50 19 L51 20 z"/>
<path style="fill:#6f6f6f" d="M35 20 C34.94 21.59 32.95 20.81 32 21 C32.06 19.41 34.05 20.19 35 20 z"/>
<path style="fill:#e0e1e1" d="M45 20 L45 23 L45 28 L45 30 L45 32 L45 40 L45 42 L46 46 L46 47 C45.05 47.19 43.06 46.41 43 48 L42 48 L42 46 C46.15 45.6 43.48 39.27 42 37 L43 36 L42 31 C44.05 30.54 42.62 28.07 42 27 L43 23 L43 22 L43 20 L45 20 z"/>
<path style="fill:#282929" d="M46 20 L47 21 L48 22 L49 25 L49 27 L48 27 C47.83 25.4 47.19 22.51 45 23 L45 20 L46 20 z"/>
<path style="fill:#9e9e9e" d="M47 21 L46 20 L47 21 z"/>
<path style="fill:#5f6060" d="M56 21 C55.34 21.02 53.85 21.18 54 20 C54.66 19.98 56.15 19.82 56 21 z"/>
<path style="fill:#6c6c6c" d="M21 21 L20 22 L21 21 z"/>
<path style="fill:#8f8f8f" d="M48 22 L47 21 L48 22 z"/>
<path style="fill:#7f8080" d="M58 22 C57.34 22.02 55.85 22.18 56 21 C56.66 20.98 58.15 20.82 58 22 z"/>
<path style="fill:#606060" d="M68 22 L67 21 L68 22 z"/>
<path style="fill:#898989" d="M20 22 L19 23 L20 22 z"/>
<path style="fill:#373838" d="M41 22 L43 22 L43 23 C40.89 21.94 39.38 28.65 39 24 L41 22 z"/>
<path style="fill:#929292" d="M60 23 L59 22 L60 23 z"/>
<path style="fill:#a7a7a7" d="M70 23 L69 22 L70 23 z"/>
<path style="fill:#606060" d="M28 23 L27 24 L28 23 z"/>
<path style="fill:#888888" d="M43 23 L42 27 C40.57 24.66 41.05 30.01 41 31 C40.77 32.83 41.5 35.15 43 36 L42 37 L41 37 C39.41 36.94 40.19 34.95 40 34 C39.7 32.27 41.1 28.36 38 29 L39 24 C39.38 28.65 40.89 21.94 43 23 z"/>
<path style="fill:#828383" d="M48 27 L47 27 L45 28 L45 23 C47.19 22.51 47.83 25.4 48 27 z"/>
<path style="fill:#6f6f6f" d="M18 24 L17 25 L18 24 z"/>
<path style="fill:#a6a6a6" d="M63 25 L62 24 L63 25 z"/>
<path style="fill:#a6a7a7" d="M26 25 C26.15 26.18 24.66 26.02 24 26 C23.85 24.82 25.34 24.98 26 25 z"/>
<path style="fill:#b5b6b6" d="M50 35 L49 34 L49 29 L49 27 L49 25 L50 35 z"/>
<path style="fill:#a8a8a8" d="M73 26 L72 25 L73 26 z"/>
<path style="fill:#868686" d="M16 26 L15 27 L16 26 z"/>
<path style="fill:#464747" d="M42 27 C42.62 28.07 44.05 30.54 42 31 L41 31 C41.05 30.01 40.57 24.66 42 27 z"/>
<path style="fill:#7a7a7a" d="M66 27 L65 26 L66 27 z"/>
<path style="fill:#9c9c9c" d="M15 27 L14 28 L15 27 z"/>
<path style="fill:#333434" d="M47 27 C47.33 28.34 46.29 29.74 45 30 L45 28 L47 27 z"/>
<path style="fill:#9d9d9d" d="M48 27 L49 27 L49 29 C47.82 28.85 47.98 30.34 48 31 C47.34 30.98 45.85 30.82 46 32 L45 32 L45 30 C46.29 29.74 47.33 28.34 47 27 L48 27 z"/>
<path style="fill:#a3a3a3" d="M67 28 L66 27 L67 28 z"/>
<path style="fill:#8f8f8f" d="M74 28 L73 27 L74 28 z"/>
<path style="fill:#a5a5a5" d="M68 29 L67 28 L68 29 z"/>
<path style="fill:#8a8a8a" d="M75 29 L74 28 L75 29 z"/>
<path style="fill:#4a4a4a" d="M40 34 L38 34 L38 29 C41.1 28.36 39.7 32.27 40 34 z"/>
<path style="fill:#2d2d2d" d="M49 29 L49 34 C47.41 33.94 48.19 31.95 48 31 C47.98 30.34 47.82 28.85 49 29 z"/>
<path style="fill:#858585" d="M13 30 L12 31 L13 30 z"/>
<path style="fill:#787878" d="M20 30 L19 31 L20 30 z"/>
<path style="fill:#111111" d="M42 31 L43 36 C41.5 35.15 40.77 32.83 41 31 L42 31 z"/>
<path style="fill:#747575" d="M48 31 C48.19 31.95 47.41 33.94 49 34 L50 35 C49.31 37.34 49.01 40.53 47 42 L45 42 L45 40 C47.95 38.75 46.22 33.67 46 32 C45.85 30.82 47.34 30.98 48 31 z"/>
<path style="fill:#6c6c6c" d="M77 32 L76 31 L77 32 z"/>
<path style="fill:#8f9090" d="M18 32 C18.02 32.66 18.18 34.15 17 34 C16.98 33.34 16.82 31.85 18 32 z"/>
<path style="fill:#252626" d="M46 32 C46.22 33.67 47.95 38.75 45 40 L45 32 L46 32 z"/>
<path style="fill:#717171" d="M11 34 L10 35 L11 34 z"/>
<path style="fill:#686868" d="M17 34 L16 35 L17 34 z"/>
<path style="fill:#717272" d="M40 34 C40.19 34.95 39.41 36.94 41 37 C41.13 38.62 43.08 42.07 40 40 L38 34 L40 34 z"/>
<path style="fill:#9f9f9f" d="M79 36 C77.82 36.15 77.98 34.66 78 34 C79.18 33.85 79.02 35.34 79 36 z"/>
<path style="fill:#868787" d="M10 35 C9.81 35.95 10.59 37.94 9 38 C9.19 37.05 8.408 35.06 10 35 z"/>
<path style="fill:#929292" d="M73 36 L72 35 L73 36 z"/>
<path style="fill:#767676" d="M16 36 L15 37 L16 36 z"/>
<path style="fill:#2e2e2e" d="M42 37 C43.48 39.27 46.15 45.6 42 46 L41 43 L40 42 L40 40 C43.08 42.07 41.13 38.62 41 37 L42 37 z"/>
<path style="fill:#a6a6a6" d="M80 39 C78.82 39.15 78.98 37.66 79 37 C80.18 36.85 80.02 38.34 80 39 z"/>
<path style="fill:#949494" d="M9 38 C8.81 38.95 9.592 40.94 8 41 C8.19 40.05 7.408 38.06 9 38 z"/>
<path style="fill:#6a6b6b" d="M15 38 C15.02 38.66 15.18 40.15 14 40 C13.98 39.34 13.82 37.85 15 38 z"/>
<path style="fill:#a0a0a0" d="M74 39 L73 38 L74 39 z"/>
<path style="fill:#6c6d6d" d="M75 42 C73.41 41.94 74.19 39.95 74 39 C75.59 39.06 74.81 41.05 75 42 z"/>
<path style="fill:#b4b4b4" d="M8 41 L7 45 L8 41 z"/>
<path style="fill:#969696" d="M14 42 L13 46 L14 42 z"/>
<path style="fill:#949494" d="M41 43 L40 42 L41 43 z"/>
<path style="fill:#313131" d="M47 42 L46 46 L45 42 L47 42 z"/>
<path style="fill:#555555" d="M75 56 L75 43 C76.66 45.97 76.66 53.03 75 56 z"/>
<path style="fill:#d2d3d3" d="M7 45 L7 54 C5.349 52.34 5.349 46.66 7 45 z"/>
<path style="fill:#6d6e6e" d="M13 47 L13 52 C11.4 51.55 11.4 47.45 13 47 z"/>
<path style="fill:#787878" d="M46 47 C47.18 46.85 47.02 48.34 47 49 L43 48 C43.06 46.41 45.05 47.19 46 47 z"/>
<path style="fill:#515252" d="M81 51 L81 47 C82.55 47.19 82.55 50.81 81 51 z"/>
<path style="fill:#8c8d8d" d="M42 48 L42 51 L42 52 C42.02 52.66 42.18 54.15 41 54 C37.93 52.39 36.25 61.66 36 54 L35 54 C34.81 52.45 31.19 52.45 31 54 L29 54 L29 52 L33 51 C33.8 52.92 37.06 51.84 38.75 51.75 L33 51 C37.07 47.1 41.69 54.78 42 48 z"/>
<path style="fill:#090909" d="M43 48 L47 49 L47 50 L42 51 L42 48 L43 48 z"/>
<path style="fill:#494a4a" d="M47 50 L47 52 L42 52 L42 51 L47 50 z"/>
<path style="fill:#8d8d8d" d="M49 50 L55 51 C54.34 51.02 52.85 51.18 53 50 C55.46 49.88 58.7 49.78 60 52 C57.75 52.93 61.81 54.76 63 54 L64 55 C64.46 55.97 67.54 58.1 68 56 L70 59 L67 61 L67 60 C67.89 55.63 58.07 59.4 65 59 L64 62 L61 60 L59 60 C59.63 57.88 57.18 57.86 56 57 C56.9 55.44 54.19 53.98 54 56 C52.84 55.07 51.55 54.98 52 57 L48 54 C46.82 54.15 46.98 52.66 47 52 L49 50 z"/>
<path style="fill:#252626" d="M53 50 C52.85 51.18 54.34 51.02 55 51 L49 50 L53 50 z"/>
<path style="fill:#242525" d="M33 51 L38.75 51.75 C37.06 51.84 33.8 52.92 33 51 z"/>
<path style="fill:#2d2d2d" d="M29 52 L29 54 L28 54 L25 56 L23 56 L23 55 L25 54 L26 53 L29 52 z"/>
<path style="fill:#f9f9f9" d="M47 52 C46.98 52.66 46.82 54.15 48 54 C48.91 55.88 49.8 58.23 52 59 C52.77 61.2 55.12 62.09 57 63 C57.06 64.59 59.05 63.81 60 64 C60.46 66.37 63.17 66.08 65 66 L70 66 L70 67 L69 68 L68 70 L67 71 L63 74 L62 75 C61.34 74.98 59.85 74.82 60 76 C59.34 75.98 57.85 75.82 58 77 L55 78 C54.34 77.98 52.85 77.82 53 79 L41 80 L37 79 L35 79 C35.15 77.82 33.66 77.98 33 78 L28 76 L27 75 L26 74 C26.15 72.82 24.66 72.98 24 73 L23 72 L22 71 L21 70 C18.65 69.31 16.83 64.65 21 66 C24.67 67.7 29.19 65.42 32 63 C36.36 61.73 38.74 57.11 41 54 C42.18 54.15 42.02 52.66 42 52 L47 52 z"/>
<path style="fill:#191a1a" d="M60 52 L61 52 C60.85 53.18 62.34 53.02 63 53 L63 54 C61.81 54.76 57.75 52.93 60 52 z"/>
<path style="fill:#898989" d="M63 53 C62.34 53.02 60.85 53.18 61 52 C61.66 51.98 63.15 51.82 63 53 z"/>
<path style="fill:#858585" d="M26 53 L25 54 L26 53 z"/>
<path style="fill:#282929" d="M35 54 L31 54 C31.19 52.45 34.81 52.45 35 54 z"/>
<path style="fill:#383838" d="M41 54 C38.74 57.11 36.36 61.73 32 63 L31 63 L34 58 C33.15 55.67 35.09 55.26 36 54 C36.25 61.66 37.93 52.39 41 54 z"/>
<path style="fill:#292a2a" d="M52 57 L52 59 C49.8 58.23 48.91 55.88 48 54 L52 57 z"/>
<path style="fill:#272727" d="M53 53 C57.4 51.98 54.7 55.79 53 53 z"/>
<path style="fill:#b7b8b8" d="M8 58 L7 54 L8 58 z"/>
<path style="fill:#767777" d="M28 54 L28 55 C27.07 56.16 26.98 57.45 29 57 C29.15 58.18 27.66 58.02 27 58 L24 58 L25 56 L28 54 z"/>
<path style="fill:#aeaeae" d="M29 54 L31 54 L35 54 L36 54 C35.09 55.26 33.15 55.67 34 58 L33 58 L33 57 C32.54 54.63 29.83 54.92 28 55 L28 54 L29 54 z"/>
<path style="fill:#1a1a1a" d="M64 55 L63 54 L64 55 z"/>
<path style="fill:#979797" d="M23 55 L23 56 L22 56 L23 55 z"/>
<path style="fill:#3f3f3f" d="M33 57 L31 57 L29 57 C26.98 57.45 27.07 56.16 28 55 C29.83 54.92 32.54 54.63 33 57 z"/>
<path style="fill:#181818" d="M54 56 C54.45 58.02 53.16 57.93 52 57 C51.55 54.98 52.84 55.07 54 56 z"/>
<path style="fill:#e7e7e7" d="M56 57 L54 56 C54.19 53.98 56.9 55.44 56 57 z"/>
<path style="fill:#151515" d="M57 55 C64.36 53.01 59.74 59.61 57 55 z"/>
<path style="fill:#2a2b2b" d="M68 56 C67.54 58.1 64.46 55.97 64 55 L68 56 z"/>
<path style="fill:#383838" d="M22 56 L23 56 C21.78 56.83 19.58 59.24 23 59 L17 64 L17 63 L17 62 L22 56 z"/>
<path style="fill:#b1b2b2" d="M25 56 L24 58 L23 59 C19.58 59.24 21.78 56.83 23 56 L25 56 z"/>
<path style="fill:#767676" d="M56 57 C55.42 58.34 58.37 62 59 60 L61 60 L61 61 L59 63 C57.22 61.42 54.73 59.16 52 59 L52 57 C53.16 57.93 54.45 58.02 54 56 L56 57 z"/>
<path style="fill:#acacac" d="M31 57 L30 62 L30 63 L27 63 C27.62 61.93 29.05 59.46 27 59 L27 58 C27.66 58.02 29.15 58.18 29 57 L31 57 z"/>
<path style="fill:#1b1c1c" d="M33 57 L33 58 L30 62 L31 57 L33 57 z"/>
<path style="fill:#171717" d="M59 60 C58.37 62 55.42 58.34 56 57 C57.18 57.86 59.63 57.88 59 60 z"/>
<path style="fill:#777878" d="M75 57 C75.02 57.66 75.18 59.15 74 59 C73.98 58.34 73.82 56.85 75 57 z"/>
<path style="fill:#929292" d="M9 61 C7.408 60.94 8.19 58.95 8 58 C9.592 58.06 8.81 60.05 9 61 z"/>
<path style="fill:#202020" d="M24 58 L27 58 L27 59 L23 59 L24 58 z"/>
<path style="fill:#767777" d="M33 58 L34 58 L31 63 L30 63 L30 62 L33 58 z"/>
<path style="fill:#151616" d="M67 60 L65 59 C58.07 59.4 67.89 55.63 67 60 z"/>
<path style="fill:#a2a3a3" d="M27 59 L22 63 L17 64 L23 59 L27 59 z"/>
<path style="fill:#414141" d="M27 63 L22 64 L22 63 L27 59 C29.05 59.46 27.62 61.93 27 63 z"/>
<path style="fill:#2f2f2f" d="M59 63 L57 63 C55.12 62.09 52.77 61.2 52 59 C54.73 59.16 57.22 61.42 59 63 z"/>
<path style="fill:#5b5b5b" d="M67 60 L67 61 L68 63 L68 64 L65 66 C63.17 66.08 60.46 66.37 60 64 L63 64 C62.86 65.88 64.88 63.86 63 64 L63 63 L64 62 L65 59 L67 60 z"/>
<path style="fill:#303131" d="M70 59 L71 60 L71 61 L72 62 L72 63 C71.81 63.95 72.59 65.94 71 66 C71.66 63.76 70.24 62.34 68 63 L67 61 L70 59 z"/>
<path style="fill:#a5a5a5" d="M71 60 L70 59 L71 60 z"/>
<path style="fill:#161717" d="M64 62 L63 63 L61 61 L61 60 L64 62 z"/>
<path style="fill:#7d7e7e" d="M10 63 C8.819 63.15 8.981 61.66 9 61 C10.18 60.85 10.02 62.34 10 63 z"/>
<path style="fill:#969797" d="M61 61 L63 63 L63 64 L60 64 C59.05 63.81 57.06 64.59 57 63 L59 63 L61 61 z"/>
<path style="fill:#999999" d="M72 62 L71 61 L72 62 z"/>
<path style="fill:#888888" d="M17 62 L17 63 C16.34 63.02 14.85 63.18 15 62 L17 62 z"/>
<path style="fill:#606060" d="M27 63 L30 63 L31 63 L32 63 C29.19 65.42 24.67 67.7 21 66 C20.98 65.34 20.82 63.85 22 64 L27 63 z"/>
<path style="fill:#8e8e8e" d="M71 66 L70 67 L70 66 L68 64 L68 63 C70.24 62.34 71.66 63.76 71 66 z"/>
<path style="fill:#878787" d="M11 65 L10 64 L11 65 z"/>
<path style="fill:#dadada" d="M63 64 C64.88 63.86 62.86 65.88 63 64 z"/>
<path style="fill:#121212" d="M68 64 L70 66 L65 66 L68 64 z"/>
<path style="fill:#8d8d8d" d="M78 65 L77 66 L78 65 z"/>
<path style="fill:#979797" d="M12 67 L11 66 L12 67 z"/>
<path style="fill:#8f8f8f" d="M70 67 L69 68 L70 67 z"/>
<path style="fill:#949494" d="M77 67 L76 68 L77 67 z"/>
<path style="fill:#a9a9a9" d="M13 69 L12 68 L13 69 z"/>
<path style="fill:#757575" d="M76 68 L75 69 L76 68 z"/>
<path style="fill:#959595" d="M14 70 L13 69 L14 70 z"/>
<path style="fill:#9b9b9b" d="M22 71 L21 70 L22 71 z"/>
<path style="fill:#626262" d="M68 70 L67 71 L68 70 z"/>
<path style="fill:#8d8d8d" d="M23 72 L22 71 L23 72 z"/>
<path style="fill:#8a8a8a" d="M24 73 L23 72 L24 73 z"/>
<path style="fill:#a5a5a5" d="M26 74 C25.34 74.02 23.85 74.18 24 73 C24.66 72.98 26.15 72.82 26 74 z"/>
<path style="fill:#989898" d="M27 75 L26 74 L27 75 z"/>
<path style="fill:#6e6e6e" d="M63 74 L62 75 L63 74 z"/>
<path style="fill:#606060" d="M28 76 L27 75 L28 76 z"/>
<path style="fill:#717171" d="M62 75 C62.15 76.18 60.66 76.02 60 76 C59.85 74.82 61.34 74.98 62 75 z"/>
<path style="fill:#777878" d="M60 76 C60.15 77.18 58.66 77.02 58 77 C57.85 75.82 59.34 75.98 60 76 z"/>
<path style="fill:#616161" d="M69 76 L68 77 L69 76 z"/>
<path style="fill:#828282" d="M68 77 L67 78 L68 77 z"/>
<path style="fill:#616262" d="M35 79 C34.34 79.02 32.85 79.18 33 78 C33.66 77.98 35.15 77.82 35 79 z"/>
<path style="fill:#626262" d="M55 78 C55.15 79.18 53.66 79.02 53 79 C52.85 77.82 54.34 77.98 55 78 z"/>
<path style="fill:#535353" d="M41 80 L37 79 L41 80 z"/>
<path style="fill:#929292" d="M26 81 L25 80 L26 81 z"/>
<path style="fill:#7d7e7e" d="M64 80 C64.15 81.18 62.66 81.02 62 81 C61.85 79.82 63.34 79.98 64 80 z"/>
<path style="fill:#969696" d="M28 82 L27 81 L28 82 z"/>
<path style="fill:#9d9d9d" d="M62 81 C62.15 82.18 60.66 82.02 60 82 C59.85 80.82 61.34 80.98 62 81 z"/>
<path style="fill:#a1a1a1" d="M30 83 L29 82 L30 83 z"/>
<path style="fill:#656565" d="M59 82 L58 83 L59 82 z"/>
<path style="fill:#9f9f9f" d="M33 84 L32 83 L33 84 z"/>
<path style="fill:#545454" d="M40 85 L35 84 L40 85 z"/>
<path style="fill:#7c7d7d" d="M48 85 C46.66 86.65 41.34 86.65 40 85 L48 85 z"/>
</svg>
