<?xml version="1.0" standalone="no"?>
<!DOCTYPE svg PUBLIC "-//W3C//DTD SVG 20010904//EN"
 "http://www.w3.org/TR/2001/REC-SVG-20010904/DTD/svg10.dtd">
<svg version="1.0" xmlns="http://www.w3.org/2000/svg"
 width="500.000000pt" height="388.000000pt" viewBox="0 0 500.000000 388.000000"
 preserveAspectRatio="xMidYMid meet">
<metadata>
Created by potrace 1.14, written by Peter Selinger 2001-2017
</metadata>
<g transform="translate(0.000000,388.000000) scale(0.100000,-0.100000)"
fill="#000000" stroke="none">
<path d="M0 1940 l0 -1940 2500 0 2500 0 0 1940 0 1940 -2500 0 -2500 0 0
-1940z m2638 530 c13 -1 -13 -20 -29 -20 -10 0 -19 -7 -19 -15 0 -13 7 -11 39
7 41 24 63 20 41 -7 -7 -8 -9 -15 -5 -15 4 0 3 -6 -2 -12 -6 -7 -16 -38 -23
-68 -7 -30 -18 -64 -24 -75 -13 -23 -49 -55 -57 -50 -3 2 -7 30 -8 62 -1 32
-4 59 -7 62 -2 2 -13 -4 -24 -14 -26 -23 -52 -6 -30 20 10 12 10 19 2 27 -7 7
-12 34 -12 61 l0 49 78 -5 c42 -3 78 -6 80 -7z m-248 -21 c0 -24 -23 -21 -28
4 -2 10 3 17 12 17 10 0 16 -9 16 -21z m46 -37 c5 -26 3 -32 -10 -32 -21 0
-30 23 -22 56 9 33 23 21 32 -24z m279 28 c3 -5 15 -6 28 -1 21 8 71 -6 64
-18 -2 -3 -10 -21 -17 -38 -17 -39 -19 -39 -53 -13 l-26 21 10 -30 c6 -16 17
-32 25 -35 9 -3 12 -11 9 -17 -4 -6 -13 -8 -19 -6 -20 8 -14 -63 7 -74 11 -7
17 -7 17 0 0 5 -6 11 -12 13 -9 3 -9 11 3 29 9 13 19 36 23 52 3 15 11 27 16
27 6 0 10 8 10 19 0 10 7 25 17 32 15 13 16 11 10 -21 -4 -19 -9 -53 -13 -75
-3 -22 -12 -43 -19 -48 -7 -4 -16 -20 -20 -36 -8 -36 -39 -66 -57 -55 -10 6
-10 4 0 -9 12 -14 9 -31 -20 -116 -18 -55 -37 -99 -43 -97 -11 4 -11 10 0 39
6 13 3 16 -9 11 -17 -7 -21 6 -8 22 5 5 15 29 22 54 8 25 17 50 21 55 4 6 10
25 14 43 3 18 11 30 16 26 5 -3 9 -1 9 5 0 23 -18 19 -29 -7 -7 -15 -13 -29
-12 -32 0 -3 -6 -14 -13 -25 -6 -11 -18 -39 -26 -63 -17 -54 -27 -61 -36 -25
-4 15 -11 33 -16 40 -15 18 0 68 28 99 20 21 23 29 12 36 -10 7 -8 8 5 4 10
-3 29 1 43 10 20 14 22 19 12 31 -10 13 -13 12 -20 -6 -8 -22 -28 -29 -28 -11
0 27 34 146 44 152 6 5 18 7 26 7 28 -2 35 1 21 10 -9 6 -22 6 -33 0 -20 -11
-21 -9 -12 15 7 18 20 21 29 6z m-418 -17 c-12 32 29 16 61 -24 9 -12 10 -24
2 -43 -11 -31 5 -67 29 -63 8 1 16 -4 18 -10 3 -7 0 -13 -6 -13 -6 0 -11 -12
-11 -26 0 -26 -28 -84 -42 -84 -4 0 -9 4 -13 10 -3 5 -13 6 -22 3 -11 -4 -14
-3 -9 5 4 7 15 12 24 12 17 1 61 50 45 50 -5 0 -14 -9 -21 -20 -7 -11 -20 -20
-30 -20 -10 0 -22 -4 -27 -9 -22 -20 -51 -21 -71 -2 -34 31 -102 71 -122 71
-24 0 -78 55 -62 65 6 4 18 4 26 1 8 -3 12 -2 9 3 -5 10 64 62 99 74 10 4 25
2 34 -5 13 -11 15 -10 10 8 -4 17 -2 20 12 17 10 -3 21 0 25 7 5 8 13 6 28 -7
19 -17 20 -17 14 0z m676 -76 c37 -25 46 -36 41 -52 -3 -11 -9 -33 -13 -50
-23 -86 -96 -185 -138 -185 -7 0 -42 -30 -76 -67 -69 -73 -94 -77 -82 -16 9
47 82 203 95 203 6 0 9 4 5 9 -3 6 1 13 8 18 8 4 19 22 24 38 6 17 14 29 19
28 5 -1 8 19 7 44 0 26 1 53 4 60 8 20 47 9 106 -30z m-573 -29 c0 -5 -4 -8
-10 -8 -5 0 -10 10 -10 23 0 18 2 19 10 7 5 -8 10 -18 10 -22z m365 22 c3 -5
1 -10 -4 -10 -6 0 -11 5 -11 10 0 6 2 10 4 10 3 0 8 -4 11 -10z m-232 -67 c7
-37 -6 -44 -23 -12 -9 15 -8 24 1 35 14 18 15 17 22 -23z m523 10 c18 -24 17
-39 -2 -89 -13 -35 -45 -64 -69 -64 -10 0 -4 37 9 55 7 11 16 38 20 60 12 61
19 68 42 38z m-1046 -13 c0 -6 -7 -13 -15 -16 -18 -7 -20 -28 -2 -21 6 2 20
-2 30 -11 15 -14 17 -13 17 1 0 9 -4 19 -10 22 -5 3 -10 10 -10 16 0 17 20 9
47 -17 20 -21 28 -23 35 -12 8 10 9 10 5 -3 -3 -8 3 -21 14 -27 34 -21 20 -32
-22 -17 -23 8 -53 15 -68 15 -14 1 -36 9 -49 20 -22 18 -22 20 -5 39 19 23 33
27 33 11z m1123 -55 c18 -25 18 -25 -8 -35 -40 -15 -46 -12 -39 18 12 51 20
53 47 17z m-678 -15 c19 -37 19 -46 0 -30 -12 10 -15 10 -15 -3 0 -8 10 -17
23 -21 12 -3 28 -19 36 -38 17 -39 26 -162 11 -153 -5 3 -10 12 -10 18 0 7
-16 36 -35 64 -19 29 -35 56 -35 61 0 5 -6 15 -14 21 -14 12 -15 48 -1 89 10
30 21 28 40 -8z m-276 -4 c12 -13 19 -26 14 -29 -11 -7 -22 0 -47 31 -27 32 3
30 33 -2z m411 -3 c0 -5 -7 -16 -14 -26 -16 -20 -30 -8 -20 17 6 16 34 23 34
9z m-576 -22 c-10 -10 -46 -11 -62 -1 -13 8 -7 10 25 8 23 -1 40 -4 37 -7z
m-102 -15 c14 -10 84 -13 135 -5 23 4 35 -3 45 -26 6 -14 17 -24 24 -21 14 5
51 -31 41 -40 -4 -4 -9 1 -13 10 -3 9 -10 16 -16 16 -5 0 -6 -5 -2 -12 5 -7 2
-9 -8 -5 -9 3 -35 11 -58 18 -23 7 -44 19 -47 26 -3 7 -9 13 -14 13 -6 0 -5
-9 1 -21 11 -19 10 -20 -12 -8 -13 7 -39 14 -58 15 -86 3 -82 1 -64 29 19 28
22 29 46 11z m260 -20 c21 -9 42 -15 46 -14 11 4 127 -100 120 -107 -3 -3 -11
1 -18 10 -7 8 -25 15 -41 15 -41 0 -74 15 -111 51 -18 17 -43 38 -55 46 -13 9
-23 19 -23 24 0 8 12 5 82 -25z m1042 -30 c31 -49 41 -69 45 -91 2 -5 8 -17
15 -25 7 -8 16 -29 19 -45 4 -24 0 -36 -19 -54 -24 -23 -25 -23 -45 -6 -10 10
-18 23 -16 29 3 10 -37 37 -75 52 -10 3 -18 12 -18 20 0 14 -38 39 -47 30 -6
-6 32 -41 87 -80 30 -21 40 -34 37 -47 -4 -14 0 -19 14 -19 36 0 28 -13 -99
-147 -12 -13 -20 -28 -17 -33 3 -4 -3 -17 -13 -29 -15 -19 -20 -20 -52 -8 -67
24 -81 36 -78 65 2 21 10 28 33 33 23 5 25 7 7 8 -19 1 -22 5 -16 29 3 15 8
40 11 55 3 16 15 32 27 37 17 7 18 9 3 9 -14 1 -16 6 -11 29 4 15 10 34 15 42
4 9 10 35 14 58 11 79 30 116 61 126 16 4 36 12 44 16 24 12 39 1 74 -54z
m-882 43 c25 -11 87 -114 75 -125 -13 -13 -161 112 -151 128 7 11 48 10 76 -3z
m688 -58 c0 -11 -5 -23 -10 -26 -6 -4 -10 -12 -9 -18 5 -39 -17 -51 -41 -22
-7 8 -16 12 -22 9 -9 -6 28 -44 44 -44 15 0 9 -36 -23 -131 -33 -101 -41 -115
-59 -104 -9 6 -9 10 1 17 11 7 9 8 -6 6 -33 -4 -145 71 -145 97 0 7 17 32 38
56 21 24 42 52 45 62 4 10 21 24 37 30 17 6 30 15 30 18 0 4 14 10 30 14 17 4
30 13 30 21 0 8 10 19 23 24 33 13 37 12 37 -9z m-1183 -11 c-3 -11 -1 -18 3
-15 5 3 16 -2 24 -11 9 -8 16 -11 16 -5 0 5 -4 13 -10 16 -17 11 -11 23 15 27
22 5 25 3 19 -16 -7 -21 -6 -21 14 -3 17 15 30 18 69 12 77 -10 180 -44 187
-61 10 -27 7 -32 -25 -39 -22 -5 -28 -10 -18 -15 7 -5 21 -4 32 2 22 11 19 13
51 -35 27 -39 23 -47 -9 -23 -24 17 -117 11 -149 -9 -27 -18 -106 -31 -106
-18 0 6 -11 23 -25 39 -14 16 -25 36 -25 46 0 11 -6 15 -19 11 -21 -5 -22 -3
37 -66 16 -18 15 -20 -18 -47 -36 -31 -55 -33 -55 -9 0 8 10 14 22 14 29 0 37
10 23 32 -11 17 -11 17 -6 -1 5 -14 2 -17 -10 -12 -9 4 -22 2 -29 -4 -10 -8
-16 -3 -25 22 -21 61 -23 116 -6 153 18 38 31 47 23 15z m408 -60 c3 -5 17
-10 31 -10 25 0 33 -15 12 -23 -7 -2 -10 -7 -6 -11 3 -4 15 -2 26 5 16 10 25
9 53 -8 21 -12 33 -26 31 -37 -2 -13 2 -15 23 -10 21 5 33 0 61 -27 34 -33 42
-61 25 -88 -7 -11 -15 -10 -45 9 -30 18 -39 20 -51 10 -12 -10 -23 -8 -55 14
-41 27 -42 33 -12 69 8 9 10 17 5 17 -6 0 -14 -7 -17 -16 -3 -8 -10 -12 -16
-9 -5 3 -10 1 -10 -4 0 -6 -5 -11 -11 -11 -5 0 -9 10 -7 22 2 11 -3 23 -11 26
-8 3 -11 0 -7 -6 3 -6 2 -13 -3 -16 -12 -8 -41 32 -41 55 0 10 -5 19 -12 21
-16 6 -2 38 16 38 8 0 18 -4 21 -10z m200 -30 c3 -5 1 -10 -4 -10 -6 0 -11 5
-11 10 0 6 2 10 4 10 3 0 8 -4 11 -10z m136 -57 c6 -21 18 -47 25 -58 8 -11
14 -28 14 -40 0 -15 -7 -10 -27 20 -15 22 -30 42 -35 43 -11 5 -10 72 1 72 5
0 15 -17 22 -37z m-811 -8 c0 -14 -4 -25 -10 -25 -5 0 -10 11 -10 25 0 14 5
25 10 25 6 0 10 -11 10 -25z m403 -22 c28 -5 28 -23 0 -23 -18 0 -123 -68
-136 -87 -13 -21 -22 -15 -40 22 -23 48 -22 55 11 55 15 1 43 9 62 20 36 19
55 21 103 13z m-413 -23 c0 -5 -2 -10 -4 -10 -3 0 -8 5 -11 10 -3 6 -1 10 4
10 6 0 11 -4 11 -10z m1550 0 c0 -5 -4 -10 -10 -10 -5 0 -10 5 -10 10 0 6 5
10 10 10 6 0 10 -4 10 -10z m-1030 -20 c14 -11 21 -20 16 -20 -5 0 -4 -6 1
-12 23 -30 22 -48 -3 -64 -28 -19 -106 -26 -116 -11 -4 7 -16 6 -35 -2 -75
-31 -136 -13 -98 29 11 13 25 18 37 14 13 -4 16 -1 12 9 -5 14 20 35 76 64 36
18 81 16 110 -7z m-304 -32 c25 -52 21 -68 -17 -68 -16 0 -29 -5 -29 -12 0 -6
-3 -8 -6 -5 -4 4 -1 14 6 22 11 13 10 19 -4 33 -17 16 -18 16 -11 -5 8 -29 -2
-29 -26 -1 -26 29 -24 35 14 58 45 28 50 26 73 -22z m1346 -11 c16 -30 0 -32
-23 -3 -27 34 -37 27 -13 -9 l17 -27 -64 -63 c-35 -35 -67 -61 -70 -59 -4 2
-9 -4 -12 -15 -3 -14 -11 -17 -36 -13 -36 5 -37 9 -12 41 15 20 21 22 39 12
27 -14 37 1 11 19 -23 17 -25 30 -4 30 8 0 15 6 15 14 0 8 23 39 52 70 50 53
53 55 71 38 10 -9 23 -25 29 -35z m-579 36 c4 -3 3 -11 -2 -17 -4 -6 -11 -20
-14 -31 -6 -17 -4 -17 13 4 19 22 25 20 20 -4 -1 -5 4 -5 11 2 9 9 16 7 31
-13 11 -13 24 -24 29 -24 16 0 41 -29 34 -40 -3 -5 -14 -10 -24 -10 -10 0 -39
-7 -65 -16 -39 -14 -50 -14 -56 -3 -9 13 -11 138 -3 152 5 9 17 9 26 0z m-963
-18 c41 -21 38 -36 -6 -29 -25 4 -34 2 -29 -5 3 -6 24 -11 46 -11 37 0 51 -12
29 -25 -5 -3 -10 -3 -10 2 0 4 -14 8 -30 9 -17 1 -30 -3 -30 -7 0 -5 7 -9 15
-9 8 0 15 -4 15 -10 0 -18 -28 -11 -43 11 -13 18 -14 37 -1 77 4 15 9 15 44
-3z m578 -24 c3 -8 -1 -12 -9 -9 -7 2 -15 10 -17 17 -3 8 1 12 9 9 7 -2 15
-10 17 -17z m212 -31 c7 -17 10 -33 7 -36 -11 -11 -44 20 -44 43 0 33 22 29
37 -7z m-124 -22 c35 -21 36 -23 30 -66 -7 -49 -13 -62 -24 -47 -4 6 -20 17
-35 25 -30 15 -72 84 -62 100 10 17 52 11 91 -12z m881 -7 c-2 -10 0 -26 5
-35 7 -12 5 -16 -7 -16 -9 0 -13 -5 -10 -10 4 -6 4 -18 1 -26 -5 -13 -9 -13
-35 0 -26 14 -30 14 -51 -4 l-23 -20 31 6 c22 5 32 3 32 -6 0 -7 7 -10 15 -6
8 3 15 1 15 -4 0 -15 -56 -37 -91 -35 -19 1 -37 -3 -41 -9 -4 -6 -10 -8 -13
-4 -8 8 18 41 84 102 29 28 61 59 69 69 21 22 26 22 19 -2z m-1520 -6 c0 -8
-4 -15 -9 -15 -10 0 -11 14 -1 23 9 10 10 9 10 -8z m43 6 c0 -5 -7 -11 -15
-15 -9 -3 -15 0 -15 9 0 8 7 15 15 15 8 0 15 -4 15 -9z m490 -24 c0 -18 50
-70 88 -92 35 -21 35 -34 0 -92 l-19 -32 -67 6 c-37 3 -85 12 -107 19 -22 8
-51 14 -64 14 -16 0 -21 4 -18 14 3 8 9 32 13 53 8 41 32 82 50 83 10 0 61 21
94 39 18 10 30 5 30 -12z m-333 7 c-9 -9 -67 -11 -67 -2 0 4 17 8 37 8 20 0
34 -3 30 -6z m-267 -14 c0 -9 112 -27 138 -22 18 4 15 -15 -10 -48 -23 -32
-50 -33 -93 -4 -11 8 -30 14 -42 14 -24 0 -31 14 -13 25 8 5 8 11 1 19 -6 7
-8 16 -4 19 9 10 23 8 23 -3z m1162 -43 c-10 -29 -20 -86 -26 -152 -1 -11 -14
-39 -29 -63 l-28 -43 -25 30 c-39 47 -44 168 -6 153 15 -5 15 -4 2 12 -8 11
-16 14 -18 7 -8 -24 -22 -9 -22 24 0 21 5 35 13 35 6 0 24 7 39 14 19 10 30
11 34 4 4 -6 9 -6 13 -1 3 5 15 15 26 21 30 16 41 -1 27 -41z m-728 24 c2 -3
-2 -15 -10 -26 -14 -18 -14 -18 -35 4 -16 17 -19 25 -9 31 13 8 47 2 54 -9z
m-65 -23 c31 -32 36 -53 25 -95 -8 -28 -16 -28 -79 -2 -37 15 -57 32 -77 64
-16 23 -28 47 -28 51 0 5 29 10 64 11 60 2 67 0 95 -29z m452 15 c37 -22 37
-42 -1 -78 -24 -23 -32 -26 -44 -16 -16 14 -6 69 16 83 10 6 10 8 1 8 -7 0
-13 5 -13 10 0 14 8 13 41 -7z m417 -38 c12 -15 30 -25 45 -25 28 0 44 -15 27
-25 -5 -3 -10 -14 -10 -24 0 -32 -34 -53 -74 -46 -42 8 -50 27 -37 86 5 24 8
47 5 51 -13 20 27 5 44 -17z m-1058 6 c0 -5 3 -16 6 -25 5 -13 -1 -16 -25 -16
-17 0 -31 5 -31 10 0 6 7 10 15 10 9 0 12 6 9 15 -4 9 0 15 10 15 9 0 16 -4
16 -9z m1404 -69 c-4 -18 -10 -32 -14 -32 -5 0 -6 -10 -2 -22 5 -23 5 -23 -16
-4 l-22 19 25 29 c14 16 25 34 25 40 0 6 2 9 5 6 3 -3 2 -19 -1 -36z m-196 10
c-3 -17 -68 -57 -68 -42 0 5 5 20 11 33 13 28 62 36 57 9z m-1343 -13 c5 -5
-5 -9 -27 -9 -23 0 -38 5 -42 16 -5 13 -1 14 27 9 17 -4 36 -11 42 -16z m848
-32 c-9 -16 -26 12 -18 30 7 17 8 17 15 -2 4 -11 5 -24 3 -28z m-733 23 c-20
-13 -40 -13 -40 0 0 6 12 10 28 10 21 0 24 -2 12 -10z m50 -20 c0 -5 -11 -10
-25 -10 -14 0 -25 5 -25 10 0 6 11 10 25 10 14 0 25 -4 25 -10z m-120 -12 c0
-4 -4 -8 -9 -8 -5 0 -18 -17 -28 -37 -29 -58 -46 -53 -56 18 -2 8 -6 19 -9 25
-5 7 12 10 48 10 30 0 54 -3 54 -8z m666 -15 c-10 -10 -19 5 -10 18 6 11 8 11
12 0 2 -7 1 -15 -2 -18z m769 0 c15 -22 14 -23 -9 -23 -14 0 -28 4 -31 10 -3
5 -29 9 -58 7 -30 -1 -51 3 -50 8 3 14 40 23 90 22 33 0 46 -5 58 -24z m-1335
-13 c11 0 20 -4 20 -10 0 -11 -52 -13 -99 -4 -30 6 -31 8 -15 25 15 17 19 17
45 4 15 -8 37 -15 49 -15z m624 11 c3 -5 -4 -11 -16 -14 -25 -7 -33 -3 -23 12
8 13 32 14 39 2z m-534 -65 c0 -5 8 -15 18 -22 15 -12 13 -13 -18 -14 -19 0
-45 -3 -57 -6 -14 -4 -23 -2 -23 5 0 6 6 11 13 11 8 0 22 9 32 20 10 11 15 20
11 20 -16 0 -64 -38 -113 -88 -29 -30 -58 -52 -65 -50 -28 10 -30 34 -4 91 25
57 26 58 58 52 18 -3 51 -2 73 3 40 8 75 -2 75 -22z m80 24 c0 -5 -2 -10 -4
-10 -3 0 -8 5 -11 10 -3 6 -1 10 4 10 6 0 11 -4 11 -10z m205 -6 c93 -12 112
-28 78 -66 -22 -25 -43 -23 -75 7 -15 14 -36 25 -48 25 -11 0 -23 7 -26 15 -4
8 -17 15 -30 15 -13 0 -24 5 -24 11 0 7 14 9 38 5 20 -3 60 -8 87 -12z m229 1
c-6 -16 -24 -21 -24 -7 0 11 11 22 21 22 5 0 6 -7 3 -15z m81 -17 c8 -18 25
-48 36 -66 23 -35 17 -60 -6 -28 -8 10 -16 24 -18 30 -2 6 -8 7 -13 3 -5 -4
-4 -11 2 -15 24 -17 55 -75 56 -105 0 -46 -15 -110 -28 -114 -13 -4 -60 90
-74 150 -11 53 -3 140 14 134 6 -2 11 -13 10 -25 0 -13 4 -18 13 -15 18 7 16
19 -8 42 -12 11 -18 24 -14 30 10 17 13 14 30 -21z m-815 -18 c-12 -29 -30
-41 -30 -20 0 15 32 62 38 56 2 -3 -1 -19 -8 -36z m1245 14 c30 -30 75 -116
75 -141 -1 -13 -5 -11 -16 10 -9 16 -39 39 -77 58 -76 38 -70 33 -62 59 5 17
23 30 52 39 1 1 14 -11 28 -25z m178 20 c44 -8 46 -13 9 -37 -34 -23 -82 -89
-83 -114 0 -12 -5 -9 -14 12 -9 21 -10 34 -3 43 6 7 8 15 4 19 -3 3 -6 1 -6
-5 0 -23 -17 -11 -33 23 -28 58 -24 65 36 65 28 0 69 -3 90 -6z m-1010 -54 c9
0 21 -9 27 -19 13 -26 13 -31 -5 -31 -18 0 -95 73 -95 90 0 8 11 3 28 -13 15
-15 36 -27 45 -27z m1077 27 c0 -13 -41 -98 -75 -155 -27 -44 -51 -38 -48 12
3 40 29 83 78 128 33 30 45 34 45 15z m-830 -52 c13 -14 21 -28 17 -31 -4 -4
-9 1 -13 10 -4 11 -13 15 -25 11 -14 -5 -19 -1 -19 14 0 28 11 26 40 -4z
m-175 -5 c3 -5 -1 -10 -10 -10 -9 0 -13 5 -10 10 3 6 8 10 10 10 2 0 7 -4 10
-10z m-186 -26 c2 -11 8 -24 13 -31 13 -16 4 -29 -43 -58 -43 -28 -49 -30 -49
-15 0 6 7 10 15 10 11 0 13 8 8 30 -5 25 -3 29 11 24 18 -7 21 4 6 26 -8 13
-11 13 -19 1 -5 -7 -13 -11 -19 -7 -7 4 -11 -6 -11 -26 1 -66 -6 -82 -37 -89
-16 -3 -40 -11 -52 -18 -13 -7 -25 -11 -26 -9 -1 2 -14 20 -29 40 -33 44 -34
51 -6 43 16 -5 28 1 50 25 16 17 29 34 29 37 0 4 7 15 17 25 24 26 136 20 142
-8z m910 -3 c20 -11 54 -40 75 -65 35 -43 37 -48 29 -88 -5 -26 -15 -44 -24
-46 -24 -5 -71 17 -63 29 4 8 9 8 17 0 15 -15 37 -14 37 1 0 6 -3 9 -6 5 -4
-3 -20 1 -36 9 -22 12 -28 20 -23 36 6 16 4 19 -12 14 -14 -4 -23 2 -36 23
-22 38 -5 49 22 15 12 -15 21 -21 21 -14 0 7 -16 27 -35 44 -58 54 -40 74 34
37z m-699 -19 c0 -5 -8 -16 -18 -26 -18 -15 -20 -15 -36 3 -17 19 -17 20 11
24 15 2 31 5 36 6 4 0 7 -3 7 -7z m31 -34 c-21 -35 -41 -48 -41 -28 0 14 41
60 53 60 5 0 0 -15 -12 -32z m155 -33 c10 -42 -3 -52 -19 -14 -9 19 -23 41
-31 49 -29 23 -17 32 14 10 16 -12 33 -32 36 -45z m342 25 c-12 -16 -25 -30
-29 -30 -4 0 -1 14 7 30 9 17 22 30 30 30 11 0 9 -7 -8 -30z m-437 -12 c22
-28 25 -45 4 -28 -9 7 -18 10 -22 6 -4 -3 2 -12 12 -19 15 -12 15 -15 3 -19
-23 -9 -42 7 -33 28 4 11 7 27 6 37 -3 23 7 22 30 -5z m528 8 c6 -8 10 -18 9
-23 -2 -4 9 -21 24 -37 35 -38 65 -126 47 -137 -7 -4 -17 -5 -21 -3 -4 3 -5
-2 -2 -10 8 -21 -45 -21 -101 -1 -22 8 -48 15 -57 15 -14 0 -18 9 -18 38 0 46
17 67 38 49 13 -10 14 -8 8 10 -5 14 1 32 17 57 23 33 42 40 31 11 -3 -7 2
-15 10 -18 20 -8 20 -3 1 33 -16 31 -7 41 14 16z m-729 -21 c28 -29 19 -46
-10 -20 -14 12 -20 14 -20 5 0 -7 7 -18 15 -24 14 -10 14 -15 -1 -46 -17 -33
-41 -59 -56 -60 -9 0 -38 59 -38 79 0 14 -2 14 -10 1 -5 -8 -10 -26 -10 -40 0
-19 2 -22 10 -10 7 12 11 10 19 -10 8 -20 6 -28 -11 -42 -32 -28 -51 -23 -46
12 3 17 1 30 -4 30 -9 0 -11 -12 -9 -50 l2 -25 -21 24 -21 25 26 25 c35 35 75
85 75 93 0 4 15 8 33 10 24 2 33 8 35 26 4 28 13 28 42 -3z m-60 1 c0 -3 -4
-8 -10 -11 -5 -3 -10 -1 -10 4 0 6 5 11 10 11 6 0 10 -2 10 -4z m1020 -50 c0
-7 -7 -19 -15 -26 -12 -10 -15 -9 -15 7 0 11 3 23 7 26 11 12 23 8 23 -7z
m-895 -16 c0 -8 -12 -17 -27 -21 -32 -8 -35 -3 -11 23 18 20 38 19 38 -2z
m-235 -7 c0 -5 -14 -21 -30 -37 -23 -22 -30 -25 -30 -13 0 10 -6 14 -14 11
-19 -7 -29 11 -13 24 6 6 26 12 42 15 17 2 33 5 38 6 4 0 7 -2 7 -6z m256 -67
c-9 -19 -16 -43 -16 -55 0 -12 -4 -21 -9 -21 -5 0 -23 -12 -40 -26 -17 -14
-31 -21 -31 -15 0 5 4 12 9 15 4 3 19 33 31 67 15 39 30 64 44 69 29 11 31 6
12 -34z m103 -6 c17 0 13 -17 -6 -24 -9 -4 -20 -1 -25 6 -4 8 -8 8 -8 2 0 -9
-41 -34 -56 -34 -5 0 1 24 17 68 l9 23 29 -20 c16 -12 34 -21 40 -21z m-159
23 c0 -5 -9 -23 -20 -41 -11 -18 -20 -39 -20 -47 0 -8 -4 -15 -10 -15 -18 0
-11 57 11 84 20 25 39 34 39 19z m820 -41 c0 -7 -4 -10 -10 -7 -5 3 -10 16
-10 28 0 18 2 19 10 7 5 -8 10 -21 10 -28z m-925 -42 c-19 -21 -55 -27 -55
-10 0 6 7 10 15 10 8 0 15 4 15 9 0 9 31 20 39 14 2 -1 -4 -12 -14 -23z m313
-17 c-4 -27 -10 -65 -13 -86 l-6 -37 -42 5 c-23 3 -46 10 -51 15 -6 6 -23 10
-38 10 -32 0 -34 9 -12 53 20 38 32 46 99 69 73 24 73 24 63 -29z m85 -45 c10
-16 13 -28 8 -28 -6 0 -8 -7 -5 -15 5 -12 10 -13 20 -4 11 9 14 7 14 -13 0
-42 -25 -27 -50 29 -13 29 -26 53 -29 53 -3 0 -6 -20 -6 -44 0 -25 -6 -51 -14
-58 -11 -11 -12 -3 -7 50 10 88 14 98 35 75 9 -10 24 -30 34 -45z m-353 21 c0
-10 -4 -19 -10 -19 -5 0 -10 5 -10 11 0 6 -7 9 -15 5 -20 -7 -19 4 2 20 22 15
33 9 33 -17z m739 14 l34 -8 -26 -18 c-21 -14 -148 -60 -147 -53 0 0 6 18 14
40 20 59 31 62 125 39z m-669 -42 c-6 -12 -16 -19 -21 -15 -6 4 -4 13 7 25 21
24 29 18 14 -10z m270 -67 c0 -16 -16 -19 -25 -4 -8 13 4 32 16 25 5 -4 9 -13
9 -21z"/>
<path d="M2529 2413 c-13 -17 -13 -17 6 -3 11 8 22 16 24 17 2 2 0 3 -6 3 -6
0 -17 -8 -24 -17z"/>
<path d="M2621 2383 c-8 -15 -13 -16 -31 -5 -21 13 -40 9 -40 -8 0 -5 7 -7 17
-3 13 5 15 2 11 -15 -5 -18 -3 -19 16 -11 23 11 51 47 43 56 -3 2 -10 -4 -16
-14z"/>
<path d="M2500 2381 c0 -5 7 -11 14 -14 10 -4 13 -1 9 9 -6 15 -23 19 -23 5z"/>
<path d="M2760 2406 c0 -9 5 -16 10 -16 6 0 10 4 10 9 0 6 -4 13 -10 16 -5 3
-10 -1 -10 -9z"/>
<path d="M2780 2300 c0 -5 5 -10 10 -10 6 0 10 5 10 10 0 6 -4 10 -10 10 -5 0
-10 -4 -10 -10z"/>
<path d="M2186 2358 c3 -4 9 -8 15 -8 5 0 9 4 9 8 0 5 -7 9 -15 9 -8 0 -12 -4
-9 -9z"/>
<path d="M2268 2363 c7 -3 16 -2 19 1 4 3 -2 6 -13 5 -11 0 -14 -3 -6 -6z"/>
<path d="M2213 2335 c-7 -8 -13 -19 -13 -25 0 -6 -5 -8 -12 -4 -6 4 -8 3 -5
-4 12 -18 42 -2 43 24 1 13 1 24 0 24 0 -1 -7 -7 -13 -15z"/>
<path d="M2324 2305 c-9 -22 1 -29 15 -11 8 10 9 16 1 21 -5 3 -13 -1 -16 -10z"/>
<path d="M2260 2280 c0 -5 5 -10 10 -10 6 0 10 5 10 10 0 6 -4 10 -10 10 -5 0
-10 -4 -10 -10z"/>
<path d="M2220 2273 c0 -6 -3 -20 -6 -30 -7 -17 -6 -17 12 -1 14 14 16 21 6
30 -8 8 -12 9 -12 1z"/>
<path d="M2890 2210 c0 -5 5 -10 10 -10 6 0 10 5 10 10 0 6 -4 10 -10 10 -5 0
-10 -4 -10 -10z"/>
<path d="M2820 2161 c0 -5 7 -14 15 -21 16 -14 18 -10 9 14 -6 17 -24 22 -24
7z"/>
<path d="M2887 2145 c-4 -8 -2 -17 3 -20 6 -4 10 3 10 14 0 25 -6 27 -13 6z"/>
<path d="M2856 2112 c-3 -6 1 -13 10 -16 23 -9 28 -2 10 13 -8 7 -17 8 -20 3z"/>
<path d="M2195 2090 c3 -5 8 -10 11 -10 2 0 4 5 4 10 0 6 -5 10 -11 10 -5 0
-7 -4 -4 -10z"/>
<path d="M3235 2000 c-3 -5 -1 -10 4 -10 6 0 11 5 11 10 0 6 -2 10 -4 10 -3 0
-8 -4 -11 -10z"/>
<path d="M3160 1983 c0 -15 2 -15 9 -4 5 8 16 11 26 8 9 -4 14 -3 10 3 -11 17
-45 11 -45 -7z"/>
<path d="M3030 1735 c14 -17 52 -27 47 -12 -2 6 -16 14 -31 18 -22 6 -25 5
-16 -6z"/>
<path d="M2996 1697 c3 -10 9 -15 12 -12 3 3 0 11 -7 18 -10 9 -11 8 -5 -6z"/>
<path d="M2920 2000 c0 -5 5 -10 11 -10 5 0 7 5 4 10 -3 6 -8 10 -11 10 -2 0
-4 -4 -4 -10z"/>
<path d="M2820 1881 l25 -7 -30 -9 -30 -8 25 -6 c16 -4 31 -1 42 8 17 15 17
16 1 23 -10 3 -27 6 -38 6 -16 0 -15 -2 5 -7z"/>
<path d="M2913 1883 c9 -2 23 -2 30 0 6 3 -1 5 -18 5 -16 0 -22 -2 -12 -5z"/>
<path d="M2917 1840 c-3 -11 -1 -20 4 -20 5 0 9 9 9 20 0 11 -2 20 -4 20 -2 0
-6 -9 -9 -20z"/>
<path d="M2870 1829 c0 -5 5 -7 10 -4 6 3 10 8 10 11 0 2 -4 4 -10 4 -5 0 -10
-5 -10 -11z"/>
<path d="M2035 1970 c3 -5 8 -10 11 -10 2 0 4 5 4 10 0 6 -5 10 -11 10 -5 0
-7 -4 -4 -10z"/>
<path d="M2070 1964 c0 -8 5 -12 10 -9 6 3 10 10 10 16 0 5 -4 9 -10 9 -5 0
-10 -7 -10 -16z"/>
<path d="M1920 1950 c0 -5 5 -10 10 -10 6 0 10 5 10 10 0 6 -4 10 -10 10 -5 0
-10 -4 -10 -10z"/>
<path d="M2240 1970 c0 -5 4 -10 9 -10 6 0 13 5 16 10 3 6 -1 10 -9 10 -9 0
-16 -4 -16 -10z"/>
<path d="M2225 1779 c-41 -20 -17 -16 45 7 21 8 27 13 15 13 -11 0 -38 -9 -60
-20z"/>
<path d="M3235 1810 c-3 -5 -1 -10 4 -10 6 0 11 5 11 10 0 6 -2 10 -4 10 -3 0
-8 -4 -11 -10z"/>
<path d="M2810 1750 c0 -5 5 -10 10 -10 6 0 10 5 10 10 0 6 -4 10 -10 10 -5 0
-10 -4 -10 -10z"/>
<path d="M2730 1731 c0 -6 5 -13 10 -16 6 -3 10 1 10 9 0 9 -4 16 -10 16 -5 0
-10 -4 -10 -9z"/>
<path d="M2235 1640 c10 -11 20 -20 23 -20 3 0 -3 9 -13 20 -10 11 -20 20 -23
20 -3 0 3 -9 13 -20z"/>
<path d="M2220 1609 c0 -5 5 -7 10 -4 6 3 10 8 10 11 0 2 -4 4 -10 4 -5 0 -10
-5 -10 -11z"/>
<path d="M1800 1670 c0 -5 5 -10 11 -10 5 0 7 5 4 10 -3 6 -8 10 -11 10 -2 0
-4 -4 -4 -10z"/>
<path d="M1835 1671 c-3 -5 -1 -12 5 -16 5 -3 10 1 10 9 0 18 -6 21 -15 7z"/>
<path d="M2809 1653 c-13 -16 -12 -17 4 -4 9 7 17 15 17 17 0 8 -8 3 -21 -13z"/>
<path d="M2820 1636 c0 -2 9 -6 20 -9 11 -3 20 -1 20 4 0 5 -9 9 -20 9 -11 0
-20 -2 -20 -4z"/>
<path d="M2786 1551 c-5 -7 20 -19 41 -19 4 0 10 -9 14 -19 7 -16 8 -16 8 3 1
13 -9 25 -24 32 -31 14 -32 14 -39 3z"/>
<path d="M2060 1650 c0 -5 5 -10 10 -10 6 0 10 5 10 10 0 6 -4 10 -10 10 -5 0
-10 -4 -10 -10z"/>
<path d="M2555 1650 c3 -5 8 -10 11 -10 2 0 4 5 4 10 0 6 -5 10 -11 10 -5 0
-7 -4 -4 -10z"/>
<path d="M2985 1611 c-3 -5 -1 -12 5 -16 5 -3 10 1 10 9 0 18 -6 21 -15 7z"/>
<path d="M1761 1494 c0 -11 3 -14 6 -6 3 7 2 16 -1 19 -3 4 -6 -2 -5 -13z"/>
<path d="M1850 1436 c0 -2 7 -9 15 -16 9 -7 15 -8 15 -2 0 5 -7 12 -15 16 -8
3 -15 4 -15 2z"/>
<path d="M2595 1320 c-3 -5 -2 -10 4 -10 5 0 13 5 16 10 3 6 2 10 -4 10 -5 0
-13 -4 -16 -10z"/>
<path d="M2630 1319 c0 -5 5 -7 10 -4 6 3 10 8 10 11 0 2 -4 4 -10 4 -5 0 -10
-5 -10 -11z"/>
<path d="M2083 1335 c0 -8 4 -12 9 -9 5 3 6 10 3 15 -9 13 -12 11 -12 -6z"/>
<path d="M1949 1340 c-9 -59 -8 -69 12 -75 28 -9 37 2 14 19 -10 7 -15 17 -12
22 3 6 2 16 -4 24 -5 8 -9 13 -10 10z"/>
<path d="M1881 1254 c0 -11 3 -14 6 -6 3 7 2 16 -1 19 -3 4 -6 -2 -5 -13z"/>
<path d="M3026 1281 c-4 -6 -2 -11 5 -11 8 0 8 -4 -1 -15 -7 -9 -8 -15 -2 -15
14 0 22 24 12 39 -5 9 -10 10 -14 2z"/>
<path d="M3050 1240 c0 -5 4 -10 9 -10 6 0 13 5 16 10 3 6 -1 10 -9 10 -9 0
-16 -4 -16 -10z"/>
<path d="M2956 1207 c3 -10 9 -15 12 -12 3 3 0 11 -7 18 -10 9 -11 8 -5 -6z"/>
<path d="M2870 1184 c0 -12 50 -58 56 -52 2 3 -10 17 -26 33 -17 16 -30 24
-30 19z"/>
<path d="M2882 1120 c12 -19 28 -27 28 -14 0 7 -27 34 -34 34 -4 0 -1 -9 6
-20z"/>
<path d="M2937 1109 c7 -7 15 -10 18 -7 3 3 -2 9 -12 12 -14 6 -15 5 -6 -5z"/>
<path d="M2136 1184 c-9 -23 -2 -28 13 -10 7 8 8 17 3 20 -6 3 -13 -1 -16 -10z"/>
<path d="M2286 1002 c-3 -5 1 -9 9 -9 8 0 12 4 9 9 -3 4 -7 8 -9 8 -2 0 -6 -4
-9 -8z"/>
<path d="M2803 1020 c1 -20 12 -26 20 -12 3 4 -1 13 -8 19 -11 10 -13 9 -12
-7z"/>
</g>
</svg>
